<svg width="50" height="50" viewBox="0 0 50 50" fill="none" xmlns="http://www.w3.org/2000/svg">
<path d="M4.35282e-06 4.75577L5.35143 3.6413e-06L25.0032 8.64183e-07L44.6486 1.54318e-06L50 4.75577L50 24.6632L50 25.3368L50 45.2442L44.6486 50L25.0032 50L5.35143 50L1.56377e-06 45.2442L8.75714e-07 25.3368L5.04088e-06 24.6632L4.35282e-06 4.75577Z" fill="url(#paint0_linear_4020_194023)"/>
<g opacity="0.4">
<path d="M7.14355 7.14307H42.8578V42.8573H7.14355V7.14307Z" fill="#7189FC"/>
<path d="M8.14355 8.14307H41.8578V41.8573H8.14355V8.14307Z" stroke="white" stroke-opacity="0.2" stroke-width="2"/>
</g>
<path d="M7.14286 42.8574L5.35714 50.0003L0 45.2384L7.14286 42.8574Z" fill="black" fill-opacity="0.21"/>
<path d="M7.14286 7.14307L5.35714 0.000209808L0 4.76211L7.14286 7.14307Z" fill="white" fill-opacity="0.32"/>
<path d="M42.8571 42.8574L44.6429 50.0003L50 45.2384L42.8571 42.8574Z" fill="black" fill-opacity="0.21"/>
<path d="M42.8571 7.14307L44.6429 0.000209808L50 4.76211L42.8571 7.14307Z" fill="white" fill-opacity="0.32"/>
<defs>
<linearGradient id="paint0_linear_4020_194023" x1="25" y1="8.64073e-07" x2="25" y2="50" gradientUnits="userSpaceOnUse">
<stop stop-color="#2F56FE"/>
<stop offset="1" stop-color="#2540B6"/>
</linearGradient>
</defs>
</svg>
