<svg width="189" height="189" viewBox="0 0 189 189" fill="none" xmlns="http://www.w3.org/2000/svg">
<g clip-path="url(#clip0_3281_313701)">
<path d="M0 22C0 9.84973 9.84974 0 22 0H167C179.15 0 189 9.84974 189 22V167C189 179.15 179.15 189 167 189H22C9.84973 189 0 179.15 0 167V22Z" fill="url(#paint0_linear_3281_313701)"/>
<path opacity="0.66" d="M93.8206 -11.886L76.8998 5.0348L73.5597 1.69471L86.6301 -11.3757L81.3417 -14.1127L83.9743 -16.7454L93.4611 -12.2455L93.8206 -11.886ZM100.536 16.0525L97.9145 18.6735L85.7487 6.50769L87.6159 4.31576L105.824 0.187036L108.48 2.84287L100.791 4.77966L91.5243 7.04118L100.536 16.0525ZM109.199 3.56192L92.3129 20.4479L88.9728 17.1078L105.859 0.221829L109.199 3.56192ZM138.842 33.1356L121.921 50.0564L118.581 46.7163L131.652 33.6459L126.363 30.9089L128.996 28.2763L138.483 32.7761L138.842 33.1356ZM138.251 51.0074L136.221 47.7021L145.743 40.1057L155.23 49.5925L152.527 52.2947L145.789 45.5566L141.626 48.8851C141.981 48.9778 142.461 49.1789 143.064 49.4881C143.675 49.7897 144.262 50.2226 144.827 50.7871C145.646 51.6066 146.245 52.461 146.624 53.3501C147.003 54.2393 147.169 55.1477 147.123 56.0755C147.084 57.0111 146.829 57.9466 146.357 58.8821C145.886 59.8177 145.205 60.73 144.316 61.6191C143.566 62.3691 142.735 62.9683 141.823 63.4168C140.918 63.8575 139.963 64.1088 138.958 64.1706C137.961 64.2247 136.956 64.0469 135.943 63.6371C134.93 63.2273 133.936 62.5354 132.962 61.5612C132.235 60.8344 131.64 60.0226 131.176 59.1257C130.72 58.2365 130.434 57.3087 130.318 56.3423C130.21 55.3835 130.295 54.4403 130.573 53.5125C130.867 52.5847 131.397 51.7226 132.162 50.9262L135.479 54.2431C135.046 54.7689 134.756 55.3062 134.609 55.8552C134.478 56.4041 134.489 56.9415 134.644 57.4672C134.799 57.993 135.104 58.4839 135.56 58.9401C135.985 59.3654 136.43 59.6476 136.894 59.7867C137.358 59.9259 137.825 59.9452 138.297 59.8447C138.776 59.7365 139.252 59.5316 139.724 59.2301C140.211 58.9285 140.682 58.5497 141.139 58.0935C141.595 57.6373 141.954 57.1696 142.217 56.6902C142.48 56.2108 142.635 55.7237 142.681 55.2289C142.727 54.7341 142.65 54.2393 142.449 53.7444C142.256 53.2573 141.931 52.7857 141.475 52.3295C140.856 51.711 140.28 51.3283 139.747 51.1814C139.221 51.0422 138.722 50.9842 138.251 51.0074ZM183.864 78.1572L166.943 95.078L163.603 91.7379L176.673 78.6675L171.385 75.9305L174.018 73.2979L183.504 77.7977L183.864 78.1572ZM198.117 92.1322L198.604 92.6193L195.937 95.2868L195.74 95.0896C194.858 94.2082 193.942 93.5549 192.991 93.1296C192.04 92.7044 191.081 92.4956 190.115 92.5034C189.164 92.5111 188.221 92.7276 187.285 93.1528C186.357 93.5858 185.472 94.2237 184.629 95.0664L181.823 97.873C181.22 98.4761 180.744 99.0676 180.396 99.6474C180.064 100.227 179.855 100.784 179.77 101.317C179.7 101.851 179.743 102.35 179.897 102.814C180.06 103.27 180.334 103.691 180.721 104.078C181.084 104.441 181.49 104.692 181.939 104.832C182.395 104.978 182.866 105.017 183.354 104.948C183.856 104.878 184.351 104.708 184.838 104.437C185.341 104.167 185.82 103.803 186.276 103.347C186.732 102.891 187.096 102.412 187.366 101.909C187.645 101.414 187.815 100.919 187.877 100.424C187.946 99.9219 187.904 99.4387 187.749 98.9748C187.594 98.5109 187.324 98.0856 186.937 97.6991C186.411 97.1733 185.824 96.8331 185.174 96.6785C184.54 96.5238 183.922 96.5238 183.319 96.6785C182.716 96.8331 182.198 97.1115 181.765 97.5135L181.405 95.8551C182.024 95.2829 182.712 94.8422 183.47 94.5329C184.235 94.2314 185.024 94.0768 185.835 94.069C186.663 94.0613 187.478 94.2275 188.282 94.5677C189.094 94.9002 189.86 95.4259 190.579 96.145C191.367 96.9336 191.909 97.7764 192.202 98.6733C192.504 99.5779 192.593 100.494 192.469 101.422C192.345 102.35 192.04 103.258 191.553 104.147C191.066 105.036 190.432 105.871 189.651 106.652C188.831 107.472 187.935 108.098 186.96 108.531C185.994 108.972 184.997 109.204 183.968 109.227C182.948 109.258 181.942 109.072 180.953 108.67C179.963 108.268 179.035 107.634 178.169 106.768C177.273 105.871 176.619 104.893 176.209 103.834C175.815 102.775 175.653 101.685 175.722 100.564C175.792 99.4426 176.093 98.3292 176.627 97.2236C177.168 96.1257 177.926 95.0896 178.9 94.1154L180.199 92.8165C181.56 91.4557 183.002 90.4081 184.525 89.6736C186.063 88.9391 187.621 88.5331 189.199 88.4558C190.784 88.3708 192.334 88.6298 193.849 89.2329C195.365 89.8359 196.787 90.8024 198.117 92.1322ZM38.3712 50.3828L35.7618 52.9922L24.2106 41.4411L26.4373 39.2143L37.7565 38.82C38.9163 38.7582 39.8866 38.6538 40.6675 38.5069C41.4561 38.3523 42.1056 38.159 42.6159 37.927C43.1417 37.6951 43.5746 37.409 43.9148 37.0688C44.4251 36.5585 44.7769 36.0366 44.9702 35.5031C45.1712 34.9619 45.206 34.4246 45.0746 33.8911C44.9509 33.3653 44.6493 32.8628 44.17 32.3834C43.6597 31.8731 43.0953 31.5561 42.4767 31.4324C41.8659 31.3164 41.2435 31.3821 40.6095 31.6296C39.9833 31.8847 39.3918 32.2906 38.8351 32.8473L35.4834 29.4956C36.4885 28.4905 37.6483 27.8101 38.9627 27.4544C40.2848 27.0911 41.6301 27.0988 42.9986 27.4776C44.3749 27.8488 45.6622 28.6335 46.8606 29.8319C48.0435 31.0149 48.8476 32.2056 49.2729 33.404C49.7136 34.6024 49.7832 35.7699 49.4816 36.9064C49.1956 38.043 48.5577 39.1061 47.568 40.0958C47.0114 40.6524 46.3774 41.1086 45.666 41.4643C44.9625 41.8122 44.1816 42.0828 43.3233 42.2761C42.4806 42.4694 41.5605 42.6008 40.5631 42.6704C39.5657 42.74 38.4988 42.7786 37.3622 42.7864L31.1343 43.1459L38.3712 50.3828ZM52.0099 64.0215L49.4005 66.6309L37.8493 55.0798L40.076 52.853L51.3952 52.4587C52.555 52.3969 53.5253 52.2925 54.3062 52.1456C55.0948 51.9909 55.7443 51.7977 56.2546 51.5657C56.7803 51.3338 57.2133 51.0477 57.5535 50.7075C58.0638 50.1972 58.4156 49.6753 58.6089 49.1418C58.8099 48.6006 58.8447 48.0633 58.7133 47.5298C58.5896 47.004 58.288 46.5015 57.8087 46.0221C57.2984 45.5118 56.734 45.1948 56.1154 45.0711C55.5046 44.9551 54.8822 45.0208 54.2482 45.2682C53.622 45.5234 53.0305 45.9293 52.4738 46.486L49.1221 43.1343C50.1272 42.1292 51.287 41.4488 52.6014 41.0931C53.9235 40.7297 55.2688 40.7375 56.6373 41.1163C58.0136 41.4875 59.3009 42.2722 60.4993 43.4706C61.6822 44.6536 62.4863 45.8443 62.9116 47.0427C63.3523 48.2411 63.4219 49.4086 63.1203 50.5451C62.8343 51.6817 62.1964 52.7448 61.2067 53.7344C60.6501 54.2911 60.0161 54.7473 59.3047 55.103C58.6012 55.4509 57.8203 55.7215 56.962 55.9148C56.1193 56.1081 55.1992 56.2395 54.2018 56.3091C53.2044 56.3787 52.1375 56.4173 51.0009 56.4251L44.773 56.7846L52.0099 64.0215ZM130.711 142.722L128.101 145.332L116.55 133.781L118.777 131.554L130.096 131.16C131.256 131.098 132.226 130.993 133.007 130.846C133.796 130.692 134.445 130.498 134.955 130.267C135.481 130.035 135.914 129.749 136.254 129.408C136.765 128.898 137.116 128.376 137.31 127.843C137.511 127.301 137.546 126.764 137.414 126.231C137.29 125.705 136.989 125.202 136.509 124.723C135.999 124.213 135.435 123.896 134.816 123.772C134.205 123.656 133.583 123.722 132.949 123.969C132.323 124.224 131.731 124.63 131.175 125.187L127.823 121.835C128.828 120.83 129.988 120.15 131.302 119.794C132.624 119.431 133.97 119.438 135.338 119.817C136.714 120.188 138.002 120.973 139.2 122.171C140.383 123.354 141.187 124.545 141.612 125.744C142.053 126.942 142.123 128.109 141.821 129.246C141.535 130.383 140.897 131.446 139.908 132.435C139.351 132.992 138.717 133.448 138.006 133.804C137.302 134.152 136.521 134.422 135.663 134.616C134.82 134.809 133.9 134.94 132.903 135.01C131.905 135.08 130.838 135.118 129.702 135.126L123.474 135.485L130.711 142.722ZM148.327 152.94L145.706 155.561L133.541 143.395L135.408 141.203L153.616 137.074L156.272 139.73L148.583 141.667L139.316 143.928L148.327 152.94ZM156.991 140.449L140.105 157.335L136.765 153.995L153.651 137.109L156.991 140.449ZM-6.31604 78.8103L-4.53002 80.5963C-3.95788 81.1684 -3.3896 81.5434 -2.82518 81.7212C-2.25304 81.8913 -1.70022 81.8875 -1.16674 81.7096C-0.617787 81.5318 -0.10363 81.2032 0.375734 80.7239C0.808709 80.2909 1.10638 79.8231 1.26874 79.3206C1.44657 78.818 1.45817 78.3038 1.30354 77.7781C1.15663 77.2446 0.824172 76.7188 0.306149 76.2008C-0.10363 75.791 -0.563665 75.4934 -1.07396 75.3078C-1.58425 75.1222 -2.09067 75.072 -2.59323 75.157C-3.09579 75.2421 -3.55583 75.4934 -3.97334 75.9109L-7.32502 72.5592C-6.39722 71.6314 -5.34185 71.0708 -4.1589 70.8776C-2.96822 70.692 -1.75821 70.8273 -0.528873 71.2835C0.700465 71.7396 1.82156 72.4741 2.83441 73.487C3.9787 74.6313 4.79439 75.8181 5.28149 77.0474C5.77632 78.269 5.90776 79.4752 5.6758 80.6659C5.44385 81.8565 4.80212 82.9776 3.75061 84.0292C3.21713 84.5626 2.5754 84.957 1.82543 85.2121C1.08318 85.4595 0.279088 85.5523 -0.586861 85.4904C-1.43735 85.4286 -2.31103 85.1889 -3.2079 84.7714C-4.09705 84.3461 -4.9514 83.7237 -5.77096 82.9042L-8.09046 80.5847L-6.31604 78.8103ZM-8.8559 81.3501L-7.12787 79.6221L-4.80836 81.9416C-3.88829 82.8617 -3.18471 83.774 -2.69761 84.6786C-2.21051 85.5832 -1.92831 86.4685 -1.85099 87.3344C-1.76594 88.1927 -1.87032 89.0084 -2.16412 89.7815C-2.4502 90.547 -2.9141 91.2505 -3.55583 91.8923C-4.34446 92.6809 -5.19881 93.2337 -6.11888 93.5507C-7.03122 93.86 -7.97449 93.9528 -8.94868 93.8291C-9.91514 93.7131 -10.8739 93.4038 -11.8249 92.9013C-12.7681 92.391 -13.6689 91.7067 -14.5271 90.8485C-15.2384 90.1372 -15.8415 89.3408 -16.3363 88.4594C-16.8157 87.578 -17.1365 86.6618 -17.2989 85.7108C-17.4458 84.7598 -17.3839 83.8165 -17.1133 82.881C-16.8273 81.9455 -16.2667 81.0602 -15.4317 80.2252L-12.08 83.5768C-12.513 84.0098 -12.7913 84.5046 -12.915 85.0613C-13.0387 85.618 -13.0078 86.1824 -12.8223 86.7546C-12.629 87.3344 -12.2965 87.8602 -11.8249 88.3318C-11.2914 88.8653 -10.7386 89.2248 -10.1664 89.4104C-9.57881 89.596 -9.00667 89.6114 -8.44999 89.4568C-7.87784 89.3022 -7.35209 88.9852 -6.87272 88.5058C-6.25419 87.8873 -5.87147 87.2803 -5.72457 86.685C-5.56993 86.0819 -5.61246 85.4827 -5.85214 84.8874C-6.09182 84.292 -6.49773 83.7083 -7.06988 83.1361L-8.8559 81.3501ZM8.16927 107.862L5.55983 110.472L-5.99131 98.9204L-3.76458 96.6937L7.5546 96.2993C8.71436 96.2375 9.68468 96.1331 10.4656 95.9862C11.2542 95.8316 11.9037 95.6383 12.414 95.4063C12.9397 95.1744 13.3727 94.8883 13.7129 94.5481C14.2232 94.0378 14.575 93.5159 14.7683 92.9824C14.9693 92.4412 15.0041 91.9039 14.8726 91.3704C14.7489 90.8446 14.4474 90.3421 13.968 89.8627C13.4577 89.3524 12.8933 89.0354 12.2748 88.9117C11.664 88.7957 11.0416 88.8615 10.4076 89.1089C9.78133 89.364 9.18986 89.7699 8.63317 90.3266L5.28149 86.9749C6.28661 85.9698 7.44636 85.2894 8.76075 84.9338C10.0829 84.5704 11.4282 84.5781 12.7967 84.957C14.1729 85.3281 15.4603 86.1128 16.6587 87.3113C17.8416 88.4942 18.6457 89.6849 19.0709 90.8833C19.5117 92.0817 19.5812 93.2492 19.2797 94.3857C18.9936 95.5223 18.3558 96.5854 17.3661 97.5751C16.8094 98.1317 16.1754 98.5879 15.4641 98.9436C14.7605 99.2915 13.9796 99.5621 13.1214 99.7554C12.2787 99.9487 11.3586 100.08 10.3612 100.15C9.36382 100.219 8.29685 100.258 7.16029 100.266L0.932414 100.625L8.16927 107.862ZM38.7056 123.832L40.4916 125.618C41.0637 126.19 41.632 126.565 42.1964 126.743C42.7686 126.913 43.3214 126.909 43.8549 126.731C44.4038 126.553 44.918 126.225 45.3973 125.745C45.8303 125.312 46.128 124.845 46.2903 124.342C46.4682 123.84 46.4798 123.325 46.3251 122.8C46.1782 122.266 45.8458 121.74 45.3278 121.222C44.918 120.813 44.4579 120.515 43.9476 120.329C43.4374 120.144 42.9309 120.094 42.4284 120.179C41.9258 120.264 41.4658 120.515 41.0483 120.932L37.6966 117.581C38.6244 116.653 39.6798 116.092 40.8627 115.899C42.0534 115.714 43.2634 115.849 44.4927 116.305C45.7221 116.761 46.8432 117.496 47.856 118.509C49.0003 119.653 49.816 120.84 50.3031 122.069C50.7979 123.291 50.9294 124.497 50.6974 125.687C50.4655 126.878 49.8237 127.999 48.7722 129.051C48.2387 129.584 47.597 129.979 46.847 130.234C46.1048 130.481 45.3007 130.574 44.4347 130.512C43.5843 130.45 42.7106 130.211 41.8137 129.793C40.9246 129.368 40.0702 128.745 39.2506 127.926L36.9311 125.606L38.7056 123.832ZM36.1657 126.372L37.8937 124.644L40.2132 126.963C41.1333 127.883 41.8369 128.796 42.324 129.7C42.8111 130.605 43.0933 131.49 43.1706 132.356C43.2557 133.214 43.1513 134.03 42.8575 134.803C42.5714 135.569 42.1075 136.272 41.4658 136.914C40.6771 137.703 39.8228 138.255 38.9027 138.572C37.9904 138.882 37.0471 138.974 36.0729 138.851C35.1065 138.735 34.1477 138.425 33.1967 137.923C32.2535 137.413 31.3527 136.728 30.4945 135.87C29.7832 135.159 29.1801 134.362 28.6853 133.481C28.2059 132.6 27.8851 131.683 27.7227 130.732C27.5758 129.781 27.6377 128.838 27.9083 127.903C28.1943 126.967 28.7549 126.082 29.5899 125.247L32.9416 128.598C32.5086 129.031 32.2303 129.526 32.1066 130.083C31.9829 130.64 32.0138 131.204 32.1994 131.776C32.3926 132.356 32.7251 132.882 33.1967 133.353C33.7302 133.887 34.283 134.246 34.8552 134.432C35.4428 134.618 36.0149 134.633 36.5716 134.478C37.1438 134.324 37.6695 134.007 38.1489 133.527C38.7674 132.909 39.1501 132.302 39.297 131.707C39.4517 131.104 39.4091 130.504 39.1695 129.909C38.9298 129.314 38.5239 128.73 37.9517 128.158L36.1657 126.372ZM52.3443 137.471L54.1303 139.257C54.7024 139.829 55.2707 140.204 55.8351 140.382C56.4073 140.552 56.9601 140.548 57.4936 140.37C58.0425 140.192 58.5567 139.864 59.036 139.384C59.469 138.951 59.7667 138.483 59.929 137.981C60.1069 137.478 60.1185 136.964 59.9638 136.438C59.8169 135.905 59.4845 135.379 58.9664 134.861C58.5567 134.451 58.0966 134.154 57.5863 133.968C57.0761 133.783 56.5696 133.732 56.0671 133.817C55.5645 133.902 55.1045 134.154 54.687 134.571L51.3353 131.219C52.2631 130.292 53.3185 129.731 54.5014 129.538C55.6921 129.352 56.9021 129.488 58.1314 129.944C59.3608 130.4 60.4819 131.134 61.4947 132.147C62.639 133.292 63.4547 134.478 63.9418 135.708C64.4366 136.929 64.5681 138.135 64.3361 139.326C64.1042 140.517 63.4624 141.638 62.4109 142.689C61.8774 143.223 61.2357 143.617 60.4857 143.872C59.7435 144.12 58.9394 144.213 58.0734 144.151C57.223 144.089 56.3493 143.849 55.4524 143.432C54.5633 143.006 53.7089 142.384 52.8893 141.564L50.5698 139.245L52.3443 137.471ZM49.8044 140.01L51.5324 138.282L53.8519 140.602C54.772 141.522 55.4756 142.434 55.9627 143.339C56.4498 144.244 56.732 145.129 56.8093 145.995C56.8944 146.853 56.79 147.669 56.4962 148.442C56.2101 149.207 55.7462 149.911 55.1045 150.553C54.3158 151.341 53.4615 151.894 52.5414 152.211C51.6291 152.52 50.6858 152.613 49.7116 152.489C48.7452 152.373 47.7864 152.064 46.8354 151.562C45.8922 151.051 44.9914 150.367 44.1332 149.509C43.4219 148.797 42.8188 148.001 42.324 147.12C41.8446 146.238 41.5238 145.322 41.3614 144.371C41.2145 143.42 41.2763 142.477 41.547 141.541C41.833 140.606 42.3936 139.72 43.2286 138.885L46.5803 142.237C46.1473 142.67 45.869 143.165 45.7453 143.722C45.6216 144.278 45.6525 144.843 45.838 145.415C46.0313 145.995 46.3638 146.521 46.8354 146.992C47.3689 147.526 47.9217 147.885 48.4939 148.071C49.0815 148.256 49.6536 148.272 50.2103 148.117C50.7825 147.962 51.3082 147.645 51.7876 147.166C52.4061 146.548 52.7888 145.941 52.9357 145.345C53.0904 144.742 53.0478 144.143 52.8082 143.548C52.5685 142.952 52.1626 142.369 51.5904 141.796L49.8044 140.01ZM83.7272 168.853L85.5132 170.64C86.0853 171.212 86.6536 171.587 87.218 171.764C87.7902 171.935 88.343 171.931 88.8765 171.753C89.4254 171.575 89.9396 171.246 90.4189 170.767C90.8519 170.334 91.1496 169.866 91.312 169.364C91.4898 168.861 91.5014 168.347 91.3467 167.821C91.1998 167.288 90.8674 166.762 90.3494 166.244C89.9396 165.834 89.4795 165.537 88.9693 165.351C88.459 165.165 87.9525 165.115 87.45 165.2C86.9474 165.285 86.4874 165.537 86.0699 165.954L82.7182 162.602C83.646 161.675 84.7014 161.114 85.8843 160.921C87.075 160.735 88.285 160.871 89.5143 161.327C90.7437 161.783 91.8648 162.517 92.8776 163.53C94.0219 164.675 94.8376 165.861 95.3247 167.091C95.8195 168.312 95.951 169.518 95.719 170.709C95.4871 171.9 94.8453 173.021 93.7938 174.072C93.2603 174.606 92.6186 175 91.8686 175.255C91.1264 175.503 90.3223 175.596 89.4563 175.534C88.6059 175.472 87.7322 175.232 86.8353 174.815C85.9462 174.389 85.0918 173.767 84.2723 172.947L81.9527 170.628L83.7272 168.853ZM81.1873 171.393L82.9153 169.665L85.2348 171.985C86.1549 172.905 86.8585 173.817 87.3456 174.722C87.8327 175.626 88.1149 176.512 88.1922 177.378C88.2773 178.236 88.1729 179.052 87.8791 179.825C87.593 180.59 87.1291 181.294 86.4874 181.935C85.6988 182.724 84.8444 183.277 83.9243 183.594C83.012 183.903 82.0687 183.996 81.0945 183.872C80.1281 183.756 79.1693 183.447 78.2183 182.944C77.2751 182.434 76.3743 181.75 75.5161 180.892C74.8048 180.18 74.2017 179.384 73.7069 178.503C73.2275 177.621 72.9067 176.705 72.7443 175.754C72.5974 174.803 72.6593 173.86 72.9299 172.924C73.2159 171.989 73.7765 171.103 74.6115 170.268L77.9632 173.62C77.5302 174.053 77.2519 174.548 77.1282 175.105C77.0045 175.661 77.0354 176.226 77.221 176.798C77.4142 177.378 77.7467 177.903 78.2183 178.375C78.7518 178.909 79.3046 179.268 79.8768 179.454C80.4644 179.639 81.0365 179.655 81.5932 179.5C82.1654 179.345 82.6911 179.028 83.1705 178.549C83.789 177.93 84.1717 177.324 84.3186 176.728C84.4733 176.125 84.4308 175.526 84.1911 174.931C83.9514 174.335 83.5455 173.752 82.9733 173.179L81.1873 171.393ZM102.19 194.484L99.5694 197.105L87.4036 184.939L89.2708 182.747L107.479 178.619L110.135 181.274L102.446 183.211L93.1792 185.473L102.19 194.484ZM110.854 181.993L93.9678 198.879L90.6277 195.539L107.514 178.653L110.854 181.993Z" fill="white"/>
<path fill-rule="evenodd" clip-rule="evenodd" d="M138.489 -0.230041L94.6489 43.6098L139.286 88.2467L183.126 44.4069L184.72 46.001L140.88 89.8409L183.923 132.884L182.329 134.478L139.286 91.4351L94.6488 136.072L136.098 177.521L134.503 179.115L93.0547 137.666L49.2149 181.506L47.6207 179.912L91.4605 136.072L46.8236 91.4351L2.98383 135.275L1.38966 133.681L45.2294 89.8409L2.98385 47.5954L4.57803 46.0012L46.8236 88.2468L91.4605 43.6098L49.2149 1.36416L50.8091 -0.230021L93.0547 42.0156L136.895 -1.82422L138.489 -0.230041ZM93.0547 134.478L137.692 89.8409L93.0547 45.204L48.4178 89.8409L93.0547 134.478Z" fill="url(#paint1_radial_3281_313701)"/>
<rect x="119.088" y="10.9129" width="189.161" height="189.161" rx="9.09426" transform="rotate(70.4001 119.088 10.9129)" fill="url(#paint2_linear_3281_313701)"/>
<g filter="url(#filter0_d_3281_313701)">
<path d="M43.4576 96.0407L43.4576 83.6415L87.8879 39.2113L99.2538 40.2445L142.651 83.6415L142.651 96.0407L99.2538 139.438L86.8546 139.438L43.4576 96.0407Z" fill="url(#paint3_linear_3281_313701)"/>
<path d="M43.4576 96.0407L43.4576 83.6415L87.8879 39.2113L99.2538 40.2445L142.651 83.6415L142.651 96.0407L99.2538 139.438L86.8546 139.438L43.4576 96.0407Z" fill="url(#paint4_linear_3281_313701)" fill-opacity="0.5"/>
<path d="M43.4576 96.0407L43.4576 83.6415L87.8879 39.2113L99.2538 40.2445L142.651 83.6415L142.651 96.0407L99.2538 139.438L86.8546 139.438L43.4576 96.0407Z" fill="url(#paint5_linear_3281_313701)" fill-opacity="0.51"/>
</g>
<g filter="url(#filter1_f_3281_313701)">
<rect x="93.054" y="50.577" width="55.5276" height="55.5276" transform="rotate(45 93.054 50.577)" fill="url(#paint6_linear_3281_313701)"/>
<rect x="93.054" y="51.6103" width="54.0664" height="54.0664" transform="rotate(45 93.054 51.6103)" stroke="url(#paint7_linear_3281_313701)" stroke-width="1.46125"/>
</g>
<path d="M93.0542 50.5771L99.2538 40.2445L87.8879 39.2113L93.0542 50.5771Z" fill="url(#paint8_linear_3281_313701)"/>
<path d="M53.7905 89.8405L43.4579 96.0401L43.4579 83.641L53.7905 89.8405Z" fill="#FFF175"/>
<path d="M93.0542 129.105L86.8546 139.437L99.2538 139.437L93.0542 129.105Z" fill="#B66452"/>
<path d="M132.318 89.8408C135.59 87.9464 142.237 84.0545 142.651 83.6412L142.651 96.0403L132.318 89.8408Z" fill="url(#paint9_linear_3281_313701)"/>
<path d="M86.6293 94.8188L83.6139 97.8341L71.8309 86.0511L74.3823 83.4996L85.5159 83.2213C86.5443 83.1517 87.4218 83.0473 88.1486 82.9081C88.8831 82.7612 89.4939 82.5757 89.981 82.3514C90.4758 82.135 90.8663 81.8837 91.1523 81.5976C91.6394 81.1105 91.9719 80.6311 92.1497 80.1595C92.343 79.6879 92.3855 79.2278 92.2773 78.7794C92.1768 78.3387 91.9255 77.9173 91.5235 77.5153C91.1214 77.1132 90.6536 76.8774 90.1202 76.8078C89.5867 76.7382 89.0339 76.8194 88.4617 77.0514C87.8973 77.2911 87.3638 77.6622 86.8612 78.1647L82.9413 74.2448C83.9773 73.2087 85.1757 72.5129 86.5365 72.1572C87.905 71.8093 89.2967 71.8325 90.7116 72.2268C92.1343 72.6134 93.4409 73.402 94.6316 74.5927C95.8764 75.8375 96.7269 77.0746 97.1831 78.3039C97.6392 79.5332 97.7127 80.7278 97.4034 81.8875C97.1096 83.0473 96.4485 84.1413 95.4202 85.1696C94.8326 85.7573 94.1754 86.2289 93.4486 86.5845C92.7219 86.9402 91.9178 87.2108 91.0364 87.3964C90.1627 87.5742 89.1962 87.6902 88.137 87.7443C87.0855 87.8062 85.9296 87.8332 84.6693 87.8255L79.9723 88.1618L86.6293 94.8188ZM114.231 94.6796L112.144 96.7672L91.0364 105.257L86.9076 101.128L107.099 93.5779L99.0387 85.5176L102.054 82.5022L114.231 94.6796Z" fill="#3B00B9"/>
<g style="mix-blend-mode:lighten" opacity="0.7">
<circle cx="6.81488" cy="9.54089" r="131.3" fill="url(#paint10_radial_3281_313701)"/>
</g>
<ellipse opacity="0.7" cx="246.699" cy="211.262" rx="288.498" ry="288.498" fill="url(#paint11_radial_3281_313701)"/>
<path d="M122.158 34.019L123.135 35.1754C125.489 37.9613 129.403 38.8533 132.732 37.3627L134.113 36.7439L132.957 37.7211C130.171 40.0753 129.279 43.9889 130.77 47.3178L131.388 48.6996L130.411 47.5432C128.057 44.7572 124.143 43.8652 120.815 45.3559L119.433 45.9746L120.589 44.9975C123.375 42.6433 124.267 38.7297 122.776 35.4007L122.158 34.019Z" fill="white" fill-opacity="0.84"/>
<ellipse opacity="0.2" cx="126.773" cy="41.3596" rx="4.18685" ry="4.18685" transform="rotate(-32.1603 126.773 41.3596)" fill="white"/>
<path d="M143.041 117.079C144.578 118.898 147.132 119.48 149.305 118.507C147.486 120.044 146.904 122.598 147.877 124.771C146.341 122.952 143.786 122.37 141.614 123.343C143.432 121.806 144.014 119.252 143.041 117.079Z" fill="white" fill-opacity="0.84"/>
<ellipse opacity="0.2" rx="2.1935" ry="2.1935" transform="matrix(0.846561 -0.532291 0.532288 0.846564 145.459 120.925)" fill="white"/>
<path d="M54.6637 91.7565L54.2273 100.563C54.0467 104.206 56.2986 107.529 59.7491 108.711L68.0902 111.569L59.2838 111.132C55.6409 110.952 52.3181 113.204 51.1358 116.654L48.2778 124.995L48.7142 116.189C48.8948 112.546 46.643 109.223 43.1924 108.041L34.8513 105.183L43.6577 105.619C47.3006 105.8 50.6234 103.548 51.8057 100.098L54.6637 91.7565Z" fill="white"/>
<circle opacity="0.2" cx="51.4686" cy="108.375" r="8.17182" transform="rotate(10.8751 51.4686 108.375)" fill="white"/>
<path d="M74.2653 58.5443L73.42 63.3511C72.7883 66.9434 74.6099 70.5203 77.8868 72.122L82.2715 74.2654L77.4647 73.4201C73.8724 72.7884 70.2956 74.6099 68.6938 77.8868L66.5505 82.2716L67.3958 77.4648C68.0275 73.8725 66.2059 70.2957 62.929 68.6939L58.5442 66.5506L63.351 67.3958C66.9434 68.0276 70.5202 66.206 72.122 62.9291L74.2653 58.5443Z" fill="white" fill-opacity="0.84"/>
<ellipse opacity="0.2" cx="70.4075" cy="70.4078" rx="6.02381" ry="6.02381" transform="rotate(18.0116 70.4075 70.4078)" fill="white"/>
<g filter="url(#filter2_d_3281_313701)">
<path d="M129.482 144.218C128.81 142.106 129.738 139.814 131.691 138.766L153.849 126.875C154.522 126.513 155.274 126.325 156.038 126.328L158.166 126.334C160.371 126.341 162.359 127.66 163.222 129.689L173.874 154.751C175.065 157.553 173.759 160.788 170.958 161.979L146.066 172.559C143.952 173.458 141.502 172.95 139.918 171.286L137.924 169.191C137.444 168.687 137.085 168.08 136.873 167.416L129.482 144.218Z" fill="#7298FA"/>
</g>
<rect x="124.744" y="139.131" width="36.377" height="36.377" rx="5.51112" transform="rotate(-23.0273 124.744 139.131)" fill="url(#paint12_linear_3281_313701)"/>
<path d="M141.464 143.652L147.661 158.174L144.299 159.608L139.72 148.876L136.821 151.256L135.732 148.703L141.155 143.783L141.464 143.652ZM152.537 138.68L153.075 138.45L154.203 141.093L154.024 141.17C153.379 141.445 152.812 141.793 152.323 142.213C151.841 142.631 151.466 143.114 151.196 143.661C150.93 144.199 150.796 144.795 150.792 145.449C150.794 146.1 150.955 146.798 151.272 147.543L152.358 150.086C152.556 150.552 152.769 150.94 152.996 151.252C153.224 151.564 153.465 151.799 153.722 151.957C153.978 152.115 154.246 152.2 154.527 152.214C154.815 152.225 155.115 152.164 155.427 152.031C155.687 151.92 155.9 151.758 156.069 151.545C156.237 151.331 156.354 151.081 156.42 150.793C156.493 150.503 156.51 150.193 156.472 149.864C156.433 149.534 156.34 149.197 156.193 148.851C156.034 148.478 155.844 148.162 155.623 147.903C155.403 147.643 155.162 147.448 154.901 147.315C154.644 147.173 154.373 147.1 154.088 147.096C153.807 147.082 153.527 147.135 153.248 147.254C152.822 147.436 152.501 147.687 152.284 148.007C152.071 148.318 151.95 148.653 151.922 149.011C151.901 149.366 151.954 149.693 152.082 149.992L150.925 149.519C150.741 149.125 150.642 148.68 150.626 148.184C150.611 147.687 150.692 147.185 150.868 146.678C151.044 146.17 151.334 145.697 151.736 145.258C152.138 144.819 152.669 144.459 153.327 144.179C153.992 143.895 154.631 143.772 155.244 143.809C155.864 143.843 156.443 144.012 156.982 144.317C157.527 144.619 158.019 145.034 158.456 145.562C158.894 146.091 159.263 146.708 159.564 147.412C159.868 148.124 160.024 148.839 160.032 149.559C160.044 150.269 159.921 150.947 159.661 151.592C159.402 152.237 159.017 152.818 158.507 153.334C157.996 153.851 157.368 154.268 156.624 154.586C155.859 154.912 155.095 155.084 154.333 155.103C153.575 155.112 152.846 154.971 152.148 154.679C151.454 154.378 150.815 153.924 150.234 153.315C149.658 152.704 149.175 151.939 148.783 151.022L148.26 149.795C147.729 148.551 147.46 147.358 147.451 146.214C147.449 145.067 147.658 144.008 148.076 143.035C148.498 142.053 149.093 141.191 149.86 140.447C150.627 139.703 151.519 139.114 152.537 138.68Z" fill="#3B00B9"/>
<g filter="url(#filter3_d_3281_313701)">
<path d="M29.4466 13.5678C30.5663 11.8051 32.7324 11.0174 34.7227 11.649L46.8012 15.4821C47.0427 15.5587 47.2776 15.6552 47.5033 15.7706L57.7669 21.0157C58.2589 21.2671 58.7016 21.6051 59.0738 22.0135L61.5914 24.7756C62.8829 26.1927 63.1605 28.2621 62.288 29.9694L49.2786 55.426C48.1222 57.689 45.3501 58.586 43.0871 57.4295L17.6319 44.4209C15.9239 43.5481 14.9365 41.7072 15.154 39.8014L15.5536 36.3016C15.6326 35.6094 15.8677 34.9442 16.2413 34.3562L29.4466 13.5678Z" fill="#7298FA"/>
</g>
<rect x="30.1582" y="6.90652" width="36.377" height="36.377" rx="5.51112" transform="rotate(27.0689 30.1582 6.90652)" fill="url(#paint13_linear_3281_313701)"/>
<path d="M29.5991 26.6977L31.1839 27.5048C31.5897 27.7115 31.9576 27.8096 32.2875 27.7991C32.627 27.7855 32.9285 27.6794 33.1919 27.4809C33.4585 27.276 33.6853 26.9899 33.8724 26.6227C34.0167 26.3392 34.0884 26.0472 34.0874 25.7465C34.0928 25.4491 34.0092 25.1671 33.8366 24.9007C33.6673 24.6279 33.3926 24.3947 33.0125 24.2011C32.7548 24.0699 32.4757 23.9967 32.1751 23.9815C31.8778 23.9599 31.5994 24.0047 31.3399 24.116C31.0869 24.2305 30.8898 24.4263 30.7488 24.7033L27.4826 23.0398C27.8895 22.241 28.4563 21.6697 29.1831 21.3259C29.9196 20.9789 30.7257 20.8378 31.6014 20.9025C32.4868 20.964 33.3483 21.208 34.1858 21.6346C35.1843 22.1431 35.9817 22.7439 36.5779 23.437C37.1774 24.1237 37.534 24.8732 37.6476 25.6856C37.7709 26.4948 37.6095 27.3374 37.1633 28.2136C36.9172 28.6967 36.5732 29.0935 36.1312 29.4038C35.6891 29.7142 35.1832 29.927 34.6133 30.0424C34.0434 30.1578 33.4371 30.1695 32.7943 30.0775C32.1613 29.9822 31.5227 29.7706 30.8785 29.4425L28.7526 28.3598L29.5991 26.6977ZM28.3639 29.1232L29.1906 27.4998L31.3165 28.5825C32.0187 28.9401 32.6187 29.3471 33.1165 29.8034C33.6175 30.2533 33.9987 30.7395 34.2599 31.262C34.5212 31.7845 34.648 32.3318 34.6406 32.904C34.6364 33.4698 34.485 34.0458 34.1864 34.632C33.8518 35.2891 33.4212 35.8081 32.8945 36.189C32.3679 36.5698 31.7761 36.816 31.1189 36.9275C30.4617 37.039 29.7667 37.0258 29.0338 36.8878C28.3041 36.7434 27.5657 36.4809 26.8184 36.1003C26.2322 35.8017 25.6853 35.4258 25.1778 34.9727C24.6736 34.513 24.2636 33.9959 23.9478 33.4213C23.6352 32.8403 23.462 32.2166 23.4282 31.5503C23.404 30.8808 23.5757 30.1854 23.9432 29.4638L27.2093 31.1273C27.0584 31.4236 27.0011 31.7352 27.0375 32.062C27.0836 32.3857 27.209 32.6889 27.4139 32.9717C27.6187 33.2545 27.8822 33.478 28.2043 33.642C28.6037 33.8454 28.9796 33.9436 29.3321 33.9365C29.6943 33.9262 30.0151 33.83 30.2945 33.6478C30.5739 33.4656 30.794 33.2166 30.9547 32.901C31.1975 32.4242 31.3106 32.0032 31.2939 31.6377C31.2836 31.2755 31.1599 30.9529 30.9228 30.6698C30.6921 30.3901 30.3673 30.1435 29.9486 29.9303L28.3639 29.1232ZM46.6566 39.0359L45.377 41.5484L35.2501 36.3907L36.0706 34.3017L46.3546 28.0877L48.925 29.3968L43.8045 32.5452L39.4479 35.3646L46.6566 39.0359ZM49.6014 29.7413L42.4358 43.8108L39.1793 42.1523L46.3449 28.0828L49.6014 29.7413Z" fill="#3B00B9"/>
</g>
<defs>
<filter id="filter0_d_3281_313701" x="43.4575" y="37.777" width="116.728" height="111.916" filterUnits="userSpaceOnUse" color-interpolation-filters="sRGB">
<feFlood flood-opacity="0" result="BackgroundImageFix"/>
<feColorMatrix in="SourceAlpha" type="matrix" values="0 0 0 0 0 0 0 0 0 0 0 0 0 0 0 0 0 0 127 0" result="hardAlpha"/>
<feOffset dx="11.69" dy="4.41071"/>
<feGaussianBlur stdDeviation="2.92251"/>
<feColorMatrix type="matrix" values="0 0 0 0 0.225 0 0 0 0 0 0 0 0 0 0 0 0 0 0.35 0"/>
<feBlend mode="normal" in2="BackgroundImageFix" result="effect1_dropShadow_3281_313701"/>
<feBlend mode="normal" in="SourceGraphic" in2="effect1_dropShadow_3281_313701" result="shape"/>
</filter>
<filter id="filter1_f_3281_313701" x="52.3288" y="49.1158" width="81.4503" height="81.4504" filterUnits="userSpaceOnUse" color-interpolation-filters="sRGB">
<feFlood flood-opacity="0" result="BackgroundImageFix"/>
<feBlend mode="normal" in="SourceGraphic" in2="BackgroundImageFix" result="shape"/>
<feGaussianBlur stdDeviation="0.730626" result="effect1_foregroundBlur_3281_313701"/>
</filter>
<filter id="filter2_d_3281_313701" x="129.265" y="126.328" width="55.0535" height="53.9461" filterUnits="userSpaceOnUse" color-interpolation-filters="sRGB">
<feFlood flood-opacity="0" result="BackgroundImageFix"/>
<feColorMatrix in="SourceAlpha" type="matrix" values="0 0 0 0 0 0 0 0 0 0 0 0 0 0 0 0 0 0 127 0" result="hardAlpha"/>
<feOffset dx="7.27541" dy="4.54713"/>
<feGaussianBlur stdDeviation="1.36414"/>
<feColorMatrix type="matrix" values="0 0 0 0 0.358333 0 0 0 0 0 0 0 0 0 0 0 0 0 0.25 0"/>
<feBlend mode="normal" in2="BackgroundImageFix" result="effect1_dropShadow_3281_313701"/>
<feBlend mode="normal" in="SourceGraphic" in2="effect1_dropShadow_3281_313701" result="shape"/>
</filter>
<filter id="filter3_d_3281_313701" x="15.1243" y="11.433" width="57.6717" height="53.7769" filterUnits="userSpaceOnUse" color-interpolation-filters="sRGB">
<feFlood flood-opacity="0" result="BackgroundImageFix"/>
<feColorMatrix in="SourceAlpha" type="matrix" values="0 0 0 0 0 0 0 0 0 0 0 0 0 0 0 0 0 0 127 0" result="hardAlpha"/>
<feOffset dx="7.27541" dy="4.54713"/>
<feGaussianBlur stdDeviation="1.36414"/>
<feColorMatrix type="matrix" values="0 0 0 0 0.358333 0 0 0 0 0 0 0 0 0 0 0 0 0 0.25 0"/>
<feBlend mode="normal" in2="BackgroundImageFix" result="effect1_dropShadow_3281_313701"/>
<feBlend mode="normal" in="SourceGraphic" in2="effect1_dropShadow_3281_313701" result="shape"/>
</filter>
<linearGradient id="paint0_linear_3281_313701" x1="34.9832" y1="208.99" x2="94.5" y2="-48.825" gradientUnits="userSpaceOnUse">
<stop stop-color="#00F0FF"/>
<stop offset="1" stop-color="#02B9CA"/>
</linearGradient>
<radialGradient id="paint1_radial_3281_313701" cx="0" cy="0" r="1" gradientUnits="userSpaceOnUse" gradientTransform="translate(93.4533 90.2394) rotate(135.337) scale(95.8181 94.1272)">
<stop offset="0.719616" stop-color="#3B00B9"/>
<stop offset="1" stop-color="#FFC100" stop-opacity="0"/>
</radialGradient>
<linearGradient id="paint2_linear_3281_313701" x1="213.668" y1="208.258" x2="213.668" y2="73.6633" gradientUnits="userSpaceOnUse">
<stop offset="0.172336" stop-color="#02BDCA"/>
<stop offset="0.807292" stop-color="#02BDCA" stop-opacity="0"/>
</linearGradient>
<linearGradient id="paint3_linear_3281_313701" x1="93.0542" y1="34.045" x2="91.5043" y2="144.087" gradientUnits="userSpaceOnUse">
<stop stop-color="#FFFA7C"/>
<stop offset="0.595615" stop-color="#FFD331"/>
<stop offset="0.752024" stop-color="#FFC81E"/>
<stop offset="1" stop-color="#FFBC11"/>
</linearGradient>
<linearGradient id="paint4_linear_3281_313701" x1="60.5065" y1="57.2933" x2="76.0054" y2="72.7923" gradientUnits="userSpaceOnUse">
<stop offset="0.337896" stop-color="#FFE711"/>
<stop offset="0.521395" stop-color="#FF6B00" stop-opacity="0.541172"/>
<stop offset="1" stop-color="#FFE711" stop-opacity="0.12"/>
</linearGradient>
<linearGradient id="paint5_linear_3281_313701" x1="73.9389" y1="108.956" x2="65.1561" y2="117.739" gradientUnits="userSpaceOnUse">
<stop stop-color="#FFC700"/>
<stop offset="0.458341" stop-color="#EAEF00"/>
<stop offset="1" stop-color="#DC9E00"/>
</linearGradient>
<linearGradient id="paint6_linear_3281_313701" x1="91.5927" y1="53.4995" x2="147.12" y2="106.105" gradientUnits="userSpaceOnUse">
<stop stop-color="#FF9A03"/>
<stop offset="0.386961" stop-color="#FFF96D" stop-opacity="0.613039"/>
<stop offset="0.789604" stop-color="#FFB800"/>
<stop offset="0.789704" stop-color="#FFF57B"/>
<stop offset="1" stop-color="#F3F814"/>
</linearGradient>
<linearGradient id="paint7_linear_3281_313701" x1="89.4008" y1="50.577" x2="148.582" y2="106.105" gradientUnits="userSpaceOnUse">
<stop stop-color="white"/>
<stop offset="1" stop-color="white" stop-opacity="0"/>
</linearGradient>
<linearGradient id="paint8_linear_3281_313701" x1="97.1872" y1="38.178" x2="88.9212" y2="46.4441" gradientUnits="userSpaceOnUse">
<stop stop-color="#FFB800"/>
<stop offset="1" stop-color="#FEFFFA"/>
</linearGradient>
<linearGradient id="paint9_linear_3281_313701" x1="133.868" y1="90.3574" x2="141.617" y2="90.874" gradientUnits="userSpaceOnUse">
<stop stop-color="#FB9701"/>
<stop offset="1" stop-color="#FFCE11"/>
</linearGradient>
<radialGradient id="paint10_radial_3281_313701" cx="0" cy="0" r="1" gradientUnits="userSpaceOnUse" gradientTransform="translate(6.81488 9.54089) rotate(76.866) scale(112.804)">
<stop stop-color="#00FF57"/>
<stop offset="1" stop-color="white" stop-opacity="0"/>
</radialGradient>
<radialGradient id="paint11_radial_3281_313701" cx="0" cy="0" r="1" gradientUnits="userSpaceOnUse" gradientTransform="translate(246.699 211.262) rotate(76.866) scale(247.856)">
<stop stop-color="#BD00FF"/>
<stop offset="1" stop-color="white" stop-opacity="0"/>
</radialGradient>
<linearGradient id="paint12_linear_3281_313701" x1="128.657" y1="150.755" x2="157.042" y2="156.296" gradientUnits="userSpaceOnUse">
<stop offset="0.248985" stop-color="white"/>
<stop offset="0.766434" stop-color="#FFE2E2"/>
</linearGradient>
<linearGradient id="paint13_linear_3281_313701" x1="34.0714" y1="18.5309" x2="69.4192" y2="28.6205" gradientUnits="userSpaceOnUse">
<stop offset="0.248985" stop-color="white"/>
<stop offset="0.766434" stop-color="#FFE2E2"/>
</linearGradient>
<clipPath id="clip0_3281_313701">
<path d="M0 22C0 9.84973 9.84974 0 22 0H167C179.15 0 189 9.84974 189 22V167C189 179.15 179.15 189 167 189H22C9.84973 189 0 179.15 0 167V22Z" fill="white"/>
</clipPath>
</defs>
</svg>
