<svg fill="none" height="13" viewBox="0 0 14 13" width="14" xmlns="http://www.w3.org/2000/svg"><path clip-rule="evenodd" d="m8.44696 5.00688-1.44696-2.93345-1.44697 2.93345-3.23753.47052 2.34278 2.28412-.5532 3.22358 2.89492-1.52198 2.89492 1.52198-.55321-3.22358 2.34279-2.28412zm5.01864.36339-2.8703 2.79844.6781 3.95159c.0469.2718-.1359.5297-.4078.5765-.1078.0188-.2203.0016-.3172-.05l-3.5484-1.8656-3.54844 1.8656c-.08249.0436-.17554.0632-.26859.0565-.09305-.0066-.18238-.0392-.25786-.094s-.13409-.1297-.16919-.2161c-.03509-.0865-.04526-.181-.02936-.2729l.67813-3.95159-2.870316-2.79844c-.095047-.09265-.149424-.21925-.151182-.35197s.049247-.26071.141807-.35584c.076562-.07813.176562-.12969.285937-.14532l3.967184-.57656 1.77344-3.595311c.12344-.2468745.42344-.34843703.67031-.226562.09844.048437.17813.128125.22656.226562l1.77344 3.595311 3.96723.57656c.2734.04063.464.29375.4218.56719-.0156.10938-.0672.20938-.1453.28594zm-2.369 6.24663-.0052-.0027c.0017.0009.0035.0018.0052.0027z" fill="#797c86" fill-rule="evenodd"/></svg>
