<svg width="44" height="44" viewBox="0 0 44 44" fill="none" xmlns="http://www.w3.org/2000/svg">
<g id="Facebook">
<path d="M0.5 8.5C0.5 4.08172 4.08172 0.5 8.5 0.5H35.5C39.9183 0.5 43.5 4.08172 43.5 8.5V35.5C43.5 39.9183 39.9183 43.5 35.5 43.5H8.5C4.08172 43.5 0.5 39.9183 0.5 35.5V8.5Z" fill="#4267B2"/>
<g id="Facebook_2">
<rect id="Rectangle" x="6" y="6" width="32" height="32" rx="16" fill="#4267B2"/>
<path id="Vector" d="M23.0699 32.6664V22.9353H26.3363L26.8253 19.1429H23.0699V16.7215C23.0699 15.6236 23.3749 14.8753 24.9495 14.8753L26.9577 14.8743V11.4825C26.6102 11.4364 25.4182 11.3332 24.0314 11.3332C21.136 11.3332 19.1537 13.1005 19.1537 16.3461V19.143H15.8789V22.9354H19.1536V32.6665L23.0699 32.6664Z" fill="white"/>
</g>
</g>
</svg>
