<svg width="44" height="44" viewBox="0 0 44 44" fill="none" xmlns="http://www.w3.org/2000/svg">
<g id="Instagram">
<path d="M0.5 8.5C0.5 4.08172 4.08172 0.5 8.5 0.5H35.5C39.9183 0.5 43.5 4.08172 43.5 8.5V35.5C43.5 39.9183 39.9183 43.5 35.5 43.5H8.5C4.08172 43.5 0.5 39.9183 0.5 35.5V8.5Z" fill="#262626"/>
<g id="Instagram_2">
<rect id="Rectangle" x="6" y="6" width="32" height="32" rx="16" fill="#262626"/>
<path id="Vector" d="M18.6672 22C18.6672 20.1591 20.1591 18.6664 22 18.6664C23.8409 18.6664 25.3336 20.1591 25.3336 22C25.3336 23.8409 23.8409 25.3336 22 25.3336C20.1591 25.3336 18.6672 23.8409 18.6672 22ZM16.8651 22C16.8651 24.836 19.164 27.1349 22 27.1349C24.836 27.1349 27.1349 24.836 27.1349 22C27.1349 19.164 24.836 16.8651 22 16.8651C19.164 16.8651 16.8651 19.164 16.8651 22ZM26.1382 16.6615C26.1381 16.8989 26.2084 17.1309 26.3401 17.3283C26.4719 17.5257 26.6593 17.6796 26.8785 17.7705C27.0977 17.8614 27.339 17.8852 27.5718 17.839C27.8046 17.7928 28.0185 17.6786 28.1863 17.5109C28.3542 17.3431 28.4686 17.1293 28.515 16.8966C28.5614 16.6638 28.5377 16.4225 28.447 16.2032C28.3563 15.9839 28.2025 15.7964 28.0052 15.6645C27.808 15.5326 27.576 15.4621 27.3386 15.462H27.3382C27.02 15.4621 26.715 15.5886 26.49 15.8135C26.265 16.0384 26.1384 16.3434 26.1382 16.6615ZM17.96 30.1398C16.985 30.0954 16.4551 29.933 16.103 29.7958C15.6361 29.614 15.303 29.3975 14.9527 29.0478C14.6025 28.698 14.3857 28.3652 14.2047 27.8983C14.0674 27.5463 13.905 27.0162 13.8607 26.0413C13.8122 24.9872 13.8026 24.6706 13.8026 22.0001C13.8026 19.3296 13.813 19.0138 13.8607 17.9589C13.9051 16.9839 14.0687 16.4549 14.2047 16.1018C14.3865 15.635 14.603 15.3018 14.9527 14.9516C15.3025 14.6014 15.6353 14.3846 16.103 14.2036C16.455 14.0663 16.985 13.9039 17.96 13.8596C19.0141 13.8111 19.3307 13.8014 22 13.8014C24.6693 13.8014 24.9862 13.8119 26.0412 13.8596C27.0162 13.904 27.5452 14.0676 27.8982 14.2036C28.3651 14.3846 28.6982 14.6018 29.0485 14.9516C29.3987 15.3014 29.6147 15.635 29.7965 16.1018C29.9338 16.4538 30.0962 16.9839 30.1405 17.9589C30.189 19.0138 30.1986 19.3296 30.1986 22.0001C30.1986 24.6706 30.189 24.9863 30.1405 26.0413C30.0961 27.0162 29.9329 27.5462 29.7965 27.8983C29.6147 28.3652 29.3982 28.6983 29.0485 29.0478C28.6987 29.3972 28.3651 29.614 27.8982 29.7958C27.5462 29.933 27.0162 30.0954 26.0412 30.1398C24.9871 30.1882 24.6705 30.1979 22 30.1979C19.3295 30.1979 19.0138 30.1882 17.96 30.1398ZM17.8772 12.0606C16.8126 12.109 16.0852 12.2778 15.4499 12.525C14.792 12.7803 14.235 13.1228 13.6785 13.6785C13.1219 14.2342 12.7803 14.792 12.525 15.4499C12.2778 16.0856 12.109 16.8126 12.0606 17.8772C12.0113 18.9434 12 19.2843 12 22C12 24.7157 12.0113 25.0566 12.0606 26.1228C12.109 27.1874 12.2778 27.9144 12.525 28.5501C12.7803 29.2076 13.122 29.7661 13.6785 30.3215C14.235 30.877 14.792 31.219 15.4499 31.475C16.0864 31.7222 16.8126 31.891 17.8772 31.9394C18.944 31.9879 19.2843 32 22 32C24.7157 32 25.0566 31.9887 26.1228 31.9394C27.1874 31.891 27.9144 31.7222 28.5501 31.475C29.2076 31.219 29.765 30.8772 30.3215 30.3215C30.8781 29.7658 31.219 29.2076 31.475 28.5501C31.7222 27.9144 31.8918 27.1874 31.9394 26.1228C31.9879 25.0558 31.9992 24.7157 31.9992 22C31.9992 19.2843 31.9879 18.9434 31.9394 17.8772C31.891 16.8126 31.7222 16.0852 31.475 15.4499C31.219 14.7924 30.8772 14.235 30.3215 13.6785C29.7658 13.1219 29.2076 12.7803 28.5509 12.525C27.9144 12.2778 27.1874 12.1082 26.1236 12.0606C25.0574 12.0121 24.7165 12 22.0008 12C19.2851 12 18.944 12.0113 17.8772 12.0606Z" fill="white"/>
</g>
</g>
</svg>
