<svg width="17" height="17" viewBox="0 0 17 17" fill="none" xmlns="http://www.w3.org/2000/svg">
<path d="M15.5846 6.09737V11.8646C15.5847 12.4526 15.3597 13.0184 14.9559 13.4458C14.552 13.8732 14 14.1299 13.4129 14.1632L13.2826 14.1667H3.72005C3.13204 14.1667 2.5663 13.9418 2.13889 13.5379C1.71148 13.1341 1.4548 12.582 1.42151 11.995L1.41797 11.8646V6.09737L8.2548 9.67871C8.33086 9.71855 8.41544 9.73936 8.5013 9.73936C8.58716 9.73936 8.67174 9.71855 8.7478 9.67871L15.5846 6.09737ZM3.72005 2.83337H13.2826C13.8532 2.83331 14.4035 3.04516 14.8267 3.42785C15.25 3.81055 15.5161 4.3368 15.5733 4.90454L8.5013 8.60912L1.4293 4.90454C1.48421 4.35935 1.7318 3.85162 2.12754 3.47262C2.52329 3.09362 3.04124 2.86821 3.5883 2.83692L3.72005 2.83337H13.2826H3.72005Z" fill="white"/>
</svg>
