<svg width="44" height="44" viewBox="0 0 44 44" fill="none" xmlns="http://www.w3.org/2000/svg">
<rect y="0.5" width="44" height="43" rx="8" fill="#275EF0"/>
<g clip-path="url(#clip0_964_149244)">
<path d="M21.568 14.9852C23.4766 14.9852 25.2751 15.8312 26.593 17.1539V17.1578C26.593 16.5227 27.0204 16.0422 27.611 16.0422H27.761C28.693 16.0422 28.8797 16.9211 28.8797 17.1984L28.8836 27.0695C28.8188 27.7164 29.5516 28.0508 29.9586 27.6352C31.5407 26.0078 33.4368 19.2609 28.9735 15.3547C24.811 11.7086 19.2243 12.3109 16.254 14.3578C13.0969 16.5391 11.079 21.357 13.0391 25.8852C15.1797 30.8219 21.2993 32.2945 24.9415 30.8258C26.7852 30.0812 27.6352 32.5703 25.7188 33.3852C22.8305 34.6172 14.7813 34.4914 11.0219 27.9812C8.48209 23.5836 8.61646 15.8477 15.3555 11.8398C20.5063 8.77188 27.3024 9.62188 31.3993 13.8992C35.6805 18.375 35.4329 26.7492 31.2532 30.0047C29.3602 31.4852 26.5493 30.0453 26.5696 27.8883L26.5485 27.1852C25.2305 28.4906 23.4766 29.2562 21.568 29.2562C17.7922 29.2562 14.468 25.9312 14.468 22.1594C14.468 18.3469 17.7922 14.9867 21.568 14.9867V14.9852ZM26.3172 21.8867C26.1743 19.1234 24.1235 17.4594 21.6454 17.4594H21.5516C18.6954 17.4594 17.1086 19.7094 17.1086 22.2602C17.1086 25.1203 19.0251 26.9266 21.5399 26.9266C24.3469 26.9266 26.1899 24.8727 26.3243 22.443L26.3172 21.8867Z" fill="#F0B315"/>
</g>
<defs>
<clipPath id="clip0_964_149244">
<rect width="25" height="25" fill="white" transform="translate(9.5 9.5)"/>
</clipPath>
</defs>
</svg>
