<svg width="17" height="17" viewBox="0 0 17 17" fill="none" xmlns="http://www.w3.org/2000/svg">
<path d="M11.1562 1.41663C11.5789 1.41663 11.9843 1.58454 12.2832 1.88342C12.5821 2.18231 12.75 2.58769 12.75 3.01038V13.9895C12.75 14.4122 12.5821 14.8176 12.2832 15.1165C11.9843 15.4154 11.5789 15.5833 11.1562 15.5833H5.84375C5.42106 15.5833 5.01568 15.4154 4.7168 15.1165C4.41791 14.8176 4.25 14.4122 4.25 13.9895V3.01038C4.25 2.58769 4.41791 2.18231 4.7168 1.88342C5.01568 1.58454 5.42106 1.41663 5.84375 1.41663H11.1562ZM9.38542 12.75H7.61458C7.47369 12.75 7.33856 12.8059 7.23893 12.9056C7.1393 13.0052 7.08333 13.1403 7.08333 13.2812C7.08333 13.4221 7.1393 13.5572 7.23893 13.6569C7.33856 13.7565 7.47369 13.8125 7.61458 13.8125H9.38542C9.52631 13.8125 9.66144 13.7565 9.76107 13.6569C9.8607 13.5572 9.91667 13.4221 9.91667 13.2812C9.91667 13.1403 9.8607 13.0052 9.76107 12.9056C9.66144 12.8059 9.52631 12.75 9.38542 12.75Z" fill="white"/>
</svg>
