<svg width="43" height="44" viewBox="0 0 43 44" fill="none" xmlns="http://www.w3.org/2000/svg">
<rect y="0.5" width="43" height="43" rx="8" fill="#3B3C43"/>
<g clip-path="url(#clip0_964_149247)">
<path d="M25.063 17.8438C25.0631 17.3712 25.251 16.918 25.5853 16.584C25.9196 16.2499 26.3728 16.0623 26.8454 16.0625C27.318 16.0627 27.7711 16.2505 28.1052 16.5848C28.4392 16.9191 28.6268 17.3724 28.6267 17.8449C28.6265 18.3175 28.4386 18.7707 28.1044 19.1047C27.7701 19.4388 27.3168 19.6263 26.8442 19.6262C26.3717 19.626 25.9185 19.4382 25.5844 19.1039C25.2504 18.7696 25.0628 18.3163 25.063 17.8438ZM29.7833 14.9047C29.2379 14.3593 28.5514 13.9764 27.8007 13.7989C27.05 13.6214 26.2648 13.6563 25.5328 13.8997C24.8009 14.1431 24.1511 14.5854 23.6562 15.1771C23.1613 15.7688 22.8409 16.4865 22.7307 17.25L18.9331 23.0058C18.4225 23.0319 17.9166 23.1626 17.4499 23.3953L14.5204 21.1058C14.1935 20.8676 13.7868 20.7658 13.3863 20.8218C12.9857 20.8778 12.6226 21.0872 12.3736 21.4059C12.1246 21.7246 12.0091 22.1276 12.0516 22.5298C12.0941 22.932 12.2912 23.302 12.6014 23.5616L15.4941 25.8238C15.3561 26.3659 15.3412 26.932 15.4504 27.4806C15.5596 28.0292 15.7902 28.5464 16.1253 28.9943C16.4604 29.4422 16.8915 29.8095 17.3869 30.0692C17.8824 30.3288 18.4297 30.4743 18.9887 30.495C19.5477 30.5157 20.1042 30.411 20.6175 30.1886C21.1308 29.9662 21.5878 29.6318 21.9551 29.2098C22.3223 28.7879 22.5905 28.2891 22.7399 27.75C22.8893 27.211 22.9162 26.6453 22.8186 26.0945L27.4392 21.9573C28.2026 21.8471 28.9204 21.5266 29.5121 21.0318C30.1038 20.5369 30.5461 19.8871 30.7895 19.1551C31.0329 18.4232 31.0678 17.6379 30.8903 16.8873C30.7128 16.1366 30.3299 15.4501 29.7845 14.9047H29.7833ZM19.1255 29.2497C18.4625 29.2497 17.8267 28.9863 17.3579 28.5176C16.8891 28.0488 16.6258 27.413 16.6258 26.75L16.627 26.7108L17.8691 27.681C18.0303 27.807 18.2148 27.9 18.412 27.9547C18.6092 28.0094 18.8153 28.0248 19.0184 27.9998C19.2215 27.9749 19.4177 27.9102 19.5958 27.8095C19.7739 27.7087 19.9305 27.5739 20.0565 27.4126C20.1825 27.2514 20.2755 27.0669 20.3302 26.8697C20.3849 26.6725 20.4002 26.4665 20.3753 26.2634C20.3504 26.0602 20.2857 25.864 20.185 25.6859C20.0842 25.5078 19.9493 25.3513 19.7881 25.2253L18.6101 24.3038C18.9526 24.2318 19.3065 24.2325 19.6487 24.306C19.9909 24.3794 20.3139 24.5239 20.5967 24.7301C20.8795 24.9362 21.1159 25.1995 21.2905 25.5029C21.4652 25.8062 21.5742 26.1428 21.6104 26.4909C21.6467 26.8391 21.6095 27.1909 21.5011 27.5237C21.3928 27.8566 21.2158 28.1629 20.9815 28.423C20.7473 28.683 20.461 28.891 20.1413 29.0334C19.8216 29.1758 19.4755 29.2495 19.1255 29.2497ZM26.8442 20.8125C26.0569 20.8125 25.3018 20.4997 24.745 19.943C24.1883 19.3862 23.8755 18.6311 23.8755 17.8438C23.8755 17.0564 24.1883 16.3013 24.745 15.7445C25.3018 15.1878 26.0569 14.875 26.8442 14.875C27.6316 14.875 28.3867 15.1878 28.9435 15.7445C29.5002 16.3013 29.813 17.0564 29.813 17.8438C29.813 18.6311 29.5002 19.3862 28.9435 19.943C28.3867 20.4997 27.6316 20.8125 26.8442 20.8125Z" fill="white"/>
</g>
<defs>
<clipPath id="clip0_964_149247">
<rect width="19" height="19" fill="white" transform="translate(12 12.5)"/>
</clipPath>
</defs>
</svg>
