<svg width="44" height="44" viewBox="0 0 44 44" fill="none" xmlns="http://www.w3.org/2000/svg">
<path d="M0.5 8.5C0.5 4.08172 4.08172 0.5 8.5 0.5H35.5C39.9183 0.5 43.5 4.08172 43.5 8.5V35.5C43.5 39.9183 39.9183 43.5 35.5 43.5H8.5C4.08172 43.5 0.5 39.9183 0.5 35.5V8.5Z" fill="#29A9EB"/>
<path d="M13.1916 21.6472C17.8444 19.5774 20.9471 18.2128 22.4995 17.5536C26.932 15.6712 27.853 15.3442 28.4533 15.3333C28.5853 15.331 28.8806 15.3644 29.0718 15.5229C29.2333 15.6567 29.2777 15.8374 29.2989 15.9642C29.3202 16.091 29.3467 16.38 29.3256 16.6057C29.0854 19.1825 28.0461 25.4358 27.5174 28.3218C27.2936 29.5431 26.8531 29.9525 26.4266 29.9926C25.4997 30.0797 24.7959 29.3672 23.8982 28.7663C22.4934 27.8262 21.6998 27.2409 20.3363 26.3234C18.7605 25.2632 19.782 24.6804 20.6801 23.7281C20.9151 23.4788 24.9989 19.6862 25.0779 19.3422C25.0878 19.2991 25.097 19.1387 25.0037 19.0541C24.9103 18.9694 24.7726 18.9983 24.6732 19.0214C24.5323 19.054 22.2882 20.5685 17.9409 23.5647C17.3039 24.0113 16.7269 24.2289 16.21 24.2175C15.6401 24.2049 14.5439 23.8885 13.729 23.618C12.7294 23.2863 11.935 23.1109 12.0042 22.5475C12.0402 22.254 12.436 21.9539 13.1916 21.6472Z" fill="white"/>
</svg>
