<svg width="44" height="44" viewBox="0 0 44 44" fill="none" xmlns="http://www.w3.org/2000/svg">
<g id="Twitch">
<path d="M0.5 8.5C0.5 4.08172 4.08172 0.5 8.5 0.5H35.5C39.9183 0.5 43.5 4.08172 43.5 8.5V35.5C43.5 39.9183 39.9183 43.5 35.5 43.5H8.5C4.08172 43.5 0.5 39.9183 0.5 35.5V8.5Z" fill="#4B367C"/>
<g id="Twitch_2">
<rect id="Rectangle" x="6" y="6" width="32" height="32" rx="16" fill="#4B367C"/>
<g id="Group">
<path id="Vector" d="M13.6953 16.8889L14.8277 14H30.3064V24.8333L25.9731 29.1667H22.362L20.113 31.3333H17.3064V29.1667H13.6953V16.8889ZM25.9731 26.2778L28.862 23.3889V15.4444H16.5842V26.2778H19.4731V28.4444L21.6398 26.2778H25.9731Z" fill="white"/>
<g id="Group_2">
<path id="Vector_2" d="M25.9718 18.3334H24.5273V22.6668H25.9718V18.3334Z" fill="white"/>
<path id="Vector_3" d="M22.3624 18.3334H20.918V22.6668H22.3624V18.3334Z" fill="white"/>
</g>
</g>
</g>
</g>
</svg>
