<svg width="56" height="55" viewBox="0 0 56 55" fill="none" xmlns="http://www.w3.org/2000/svg">
<path d="M51.4231 1.30558C50.457 0.767973 49.3943 0.42609 48.296 0.29948C47.1976 0.172871 46.0851 0.264017 45.0219 0.567707C43.9588 0.871397 42.966 1.38167 42.1003 2.06936C41.2345 2.75704 40.5128 3.60864 39.9764 4.57545L24.3509 32.6955L15.4082 23.7528C14.6318 22.949 13.703 22.3077 12.6762 21.8666C11.6493 21.4255 10.5449 21.1933 9.42731 21.1836C8.30975 21.1739 7.20144 21.3869 6.16706 21.8101C5.13269 22.2333 4.19295 22.8582 3.40269 23.6485C2.61242 24.4388 1.98746 25.3785 1.56426 26.4129C1.14106 27.4473 0.928106 28.5556 0.937818 29.6731C0.947529 30.7907 1.17971 31.8951 1.62082 32.922C2.06193 33.9489 2.70313 34.8776 3.50701 35.654L20.3403 52.4873C21.9311 54.0823 24.0773 54.9576 26.2909 54.9576L27.4566 54.8735C28.7467 54.693 29.9773 54.2155 31.0515 53.4787C32.1257 52.7419 33.0142 51.7658 33.6471 50.6273L54.6888 12.7522C55.226 11.7862 55.5677 10.7239 55.6943 9.62579C55.8209 8.52772 55.73 7.41547 55.4267 6.35253C55.1235 5.2896 54.6138 4.29681 53.9269 3.43085C53.24 2.56489 52.3892 1.84272 51.4231 1.30558Z" fill="#7BD245"/>
</svg>
