<svg width="42" height="44" viewBox="0 0 42 44" fill="none" xmlns="http://www.w3.org/2000/svg">
<rect y="0.5" width="42" height="43" rx="8" fill="#FFD600"/>
<g clip-path="url(#clip0_964_149238)">
<path d="M24.1407 22.8362H22.8532C20.831 22.8362 18.87 21.6203 18.87 18.5801C18.87 15.4129 20.7083 14.1212 22.5774 14.1212H24.1407V22.8362H24.1407ZM26.1628 12.5H22.6693C19.2379 12.5 16.3268 14.6533 16.3268 18.8335C16.3268 21.3415 17.7368 23.1907 20.2486 24.1028L15.5613 31.0949C15.4082 31.3231 15.5613 31.5 15.8057 31.5H17.9812C18.165 31.5 18.2878 31.4494 18.3489 31.3231L22.6079 24.4573H24.1406V31.3231C24.1406 31.3988 24.2326 31.5 24.3543 31.5H26.2547C26.4386 31.5 26.5 31.4241 26.5 31.2979V12.7535C26.5 12.5758 26.3773 12.5 26.1628 12.5" fill="black"/>
</g>
<defs>
<clipPath id="clip0_964_149238">
<rect width="11" height="19" fill="white" transform="translate(15.5 12.5)"/>
</clipPath>
</defs>
</svg>
