<svg width="57" height="74" viewBox="0 0 57 74" fill="none" xmlns="http://www.w3.org/2000/svg">
<g opacity="0.9">
<path d="M15.931 12.6594C8.36454 14.347 2.62879 18.6992 3.11907 22.3819C3.60988 26.0635 10.1412 27.6808 17.708 25.9929C25.2726 24.3058 31.0084 19.9521 30.5175 16.2709C30.0269 12.5879 23.4956 10.9718 15.931 12.6594Z" fill="url(#paint0_linear_964_149389)"/>
<path d="M4.21756 17.8359C6.36336 15.2813 10.6722 12.9252 15.8128 11.7786C20.9523 10.6325 25.622 10.9856 28.3048 12.463L30.1923 12.0417L30.6636 15.5862C30.6653 15.5982 30.6676 15.61 30.6693 15.6224C30.6709 15.6342 30.6718 15.6469 30.6735 15.6589L30.6789 15.7L30.6777 15.7005C31.0858 19.4277 25.2821 23.8049 17.6427 25.5089C10.005 27.2127 3.40577 25.6048 2.82036 21.9193L2.81809 21.9196L2.33008 18.257L4.21756 17.8359Z" fill="url(#paint1_linear_964_149389)"/>
<path d="M15.3593 8.36963C7.6647 10.0859 1.83139 14.5119 2.33057 18.2572C2.82958 22.001 9.4712 23.6453 17.1662 21.9291C24.859 20.2131 30.6915 15.786 30.1926 12.0421C29.6936 8.29724 23.0518 6.65349 15.3593 8.36963Z" fill="url(#paint2_linear_964_149389)"/>
<path d="M4.34569 17.2006C4.75376 20.2616 10.3841 21.5609 16.9211 20.1025C23.4584 18.6443 28.4273 14.9809 28.0193 11.9201C27.6115 8.85934 21.9816 7.55996 15.444 9.01804C8.90694 10.4763 3.93778 14.1397 4.34569 17.2006Z" fill="#A65818"/>
<path d="M5.42801 17.4068C5.80397 20.2274 10.9499 21.4342 16.9215 20.1021C22.8934 18.7702 27.4299 15.4037 27.0536 12.5826C26.678 9.76198 21.532 8.55501 15.5603 9.88692C9.58853 11.2194 5.05222 14.5858 5.42801 17.4068Z" fill="#E78225"/>
<path d="M16.7723 10.9899L14.7123 11.4497L14.8228 12.2781C14.214 12.414 13.6393 12.5846 13.0954 12.789C12.5519 12.993 12.0773 13.2171 11.6736 13.4597C11.272 13.7007 10.9597 13.9583 10.7386 14.2299C10.5176 14.5003 10.4256 14.7786 10.4633 15.061C10.5144 15.4466 10.7155 15.7212 11.0695 15.8846C11.421 16.0487 11.8415 16.1498 12.3302 16.19C12.8191 16.2295 13.3478 16.2257 13.9122 16.1776C14.4767 16.1298 14.9979 16.0851 15.476 16.0424C15.9537 16.0001 16.3584 15.9826 16.6852 15.9916C17.0142 15.9993 17.1882 16.0743 17.2071 16.2157C17.2184 16.301 17.1364 16.4023 16.9606 16.5171C16.7831 16.6325 16.4958 16.735 16.0966 16.8241C15.5161 16.9534 14.9806 16.9833 14.4898 16.9137C14.0009 16.8431 13.66 16.6696 13.47 16.3936L10.8333 16.9819L11.1175 19.1147L13.7539 18.5265L13.708 18.1814C14.3683 18.2127 14.9993 18.1971 15.6032 18.1341L15.7215 19.023L17.7815 18.5634L17.6734 17.753C18.2805 17.6044 18.8556 17.433 19.4004 17.2388C19.9451 17.0446 20.4209 16.829 20.8232 16.5941C21.2275 16.3572 21.5385 16.1059 21.7584 15.8388C21.9761 15.571 22.0656 15.2924 22.0269 15.0032C21.9748 14.6115 21.7712 14.3308 21.4146 14.161C21.0575 13.9918 20.6307 13.8881 20.1338 13.8497C19.6386 13.8103 19.1019 13.8161 18.5233 13.8652C17.9447 13.9156 17.4128 13.9603 16.9288 14.003C16.4427 14.0456 16.0305 14.066 15.694 14.0647C15.3555 14.0637 15.1778 13.9922 15.159 13.8509C15.1436 13.7362 15.2388 13.6241 15.4484 13.5147C15.6559 13.4056 15.9261 13.3142 16.2567 13.2404C16.5206 13.1814 16.7876 13.1463 17.0584 13.1355C17.3284 13.1237 17.575 13.1353 17.7996 13.1681C18.022 13.2011 18.2182 13.2573 18.3845 13.3377C18.5528 13.4172 18.6661 13.5192 18.7245 13.6457L21.3914 13.0506L21.1135 10.9673L18.4468 11.5621L18.4943 11.9174C18.3102 11.9051 18.0831 11.8988 17.8134 11.8993C17.5417 11.9004 17.2362 11.915 16.8995 11.9426L16.7723 10.9899Z" fill="#CE8046"/>
<path d="M16.7291 10.6564L14.6693 11.1161L14.78 11.9448C14.1712 12.0805 13.5961 12.2516 13.0525 12.4553C12.5088 12.6596 12.0341 12.8834 11.6309 13.1262C11.2291 13.3673 10.9169 13.6245 10.6957 13.8963C10.4742 14.1671 10.3828 14.4452 10.4203 14.7276C10.4716 15.1131 10.6723 15.3875 11.0261 15.5512C11.3778 15.715 11.7985 15.8161 12.2872 15.8566C12.7761 15.8963 13.3049 15.8923 13.8692 15.8444C14.4337 15.7962 14.9549 15.7515 15.4326 15.7087C15.9106 15.6668 16.3152 15.6492 16.642 15.6581C16.971 15.6656 17.1448 15.7412 17.1637 15.8824C17.175 15.9675 17.0931 16.0687 16.9174 16.1836C16.7399 16.2988 16.4526 16.4015 16.0534 16.4907C15.4729 16.6198 14.9372 16.6496 14.4462 16.5803C13.9577 16.5092 13.617 16.3359 13.4264 16.0602L10.79 16.6484L11.0745 18.7808L13.7107 18.1929L13.6647 17.8475C14.3248 17.8794 14.9559 17.8635 15.5598 17.8007L15.678 18.6894L17.7382 18.23L17.63 17.4198C18.2373 17.2712 18.8118 17.0994 19.3569 16.9051C19.9019 16.7105 20.3775 16.4958 20.7801 16.2605C21.1842 16.024 21.4952 15.7724 21.715 15.5055C21.9326 15.2378 22.022 14.9592 21.9834 14.6697C21.9316 14.2785 21.7277 13.9974 21.3711 13.8274C21.0144 13.6585 20.5876 13.5549 20.0907 13.5163C19.5954 13.4768 19.0588 13.4825 18.4799 13.5321C17.9016 13.5822 17.37 13.627 16.8854 13.6693C16.3993 13.7122 15.9871 13.7324 15.6507 13.7319C15.312 13.7305 15.135 13.6592 15.116 13.5177C15.1004 13.403 15.1954 13.2909 15.4048 13.1815C15.6127 13.0726 15.8825 12.981 16.2133 12.9072C16.4775 12.8484 16.7448 12.8129 17.0148 12.8023C17.2853 12.7903 17.5316 12.8021 17.7561 12.8345C17.9784 12.8683 18.1746 12.9241 18.3411 13.004C18.5094 13.0839 18.6226 13.186 18.6809 13.3123L21.3476 12.7176L21.0699 10.6339L18.4034 11.2287L18.4504 11.5837C18.2661 11.5715 18.0392 11.5654 17.7693 11.5659C17.4977 11.567 17.1921 11.5816 16.8556 11.6091L16.7291 10.6564Z" fill="#FFD647"/>
<path d="M16.8995 19.9355C10.9273 21.2676 5.77172 19.9915 5.38424 17.0858C4.99694 14.1791 9.52451 10.7437 15.4969 9.4116C21.4673 8.07987 26.6225 9.35557 27.0101 12.2621C27.3974 15.1678 22.8699 18.6039 16.8995 19.9355ZM15.3098 8.00695C7.74298 9.69472 2.00723 14.047 2.49804 17.7295C2.98832 21.4113 9.51998 23.0284 17.0865 21.3405C24.6512 19.6532 30.3866 15.2999 29.8962 11.6181C29.4057 7.93578 22.8744 6.31918 15.3098 8.00695Z" fill="#F4DD62"/>
<path d="M8.33594 21.7886C9.05906 21.3235 9.78794 20.8453 10.5102 20.3592C12.3591 20.5775 14.5667 20.4567 16.9011 19.9359C22.8715 18.6043 27.399 15.1682 27.0117 12.2625C26.7782 10.5093 24.8087 9.35089 21.9736 8.99869C22.2695 8.43801 22.5236 7.90274 22.7418 7.40332C26.7464 7.72525 29.5811 9.24074 29.8981 11.6183C30.3885 15.3001 24.653 19.6534 17.0884 21.3407C13.8504 22.0629 10.8027 22.1794 8.33594 21.7886Z" fill="#F4DD62"/>
</g>
<path d="M22.2777 47.2379C20.1866 52.1475 20.1573 57.6122 22.6647 61.9055C26.838 69.0582 36.4683 70.2528 44.1703 64.5772C47.2492 62.3087 49.5546 59.2858 50.9467 56.0173C53.0371 51.1072 53.0664 45.6422 50.5611 41.3481C46.385 34.197 36.757 33.0004 29.0519 38.6778C25.9738 40.9464 23.6686 43.9692 22.2777 47.2379Z" fill="url(#paint3_linear_964_149389)"/>
<path d="M29.2805 67.7247L26.1287 66.7573L26.2787 66.4047C24.5174 65.3449 23.0032 63.8483 21.8798 61.9231C19.3288 57.5546 19.3583 51.9936 21.4864 46.9967C22.9025 43.6701 25.2479 40.5941 28.3808 38.2857C32.0133 35.6095 36.0647 34.4365 39.791 34.6696L39.944 34.3103L42.977 35.2355L42.9841 35.2414C45.9797 36.1529 48.5692 38.0916 50.2693 41.0029C52.8191 45.3727 52.7894 50.9341 50.6621 55.931C49.2454 59.2579 46.8994 62.3339 43.7662 64.642C39.1048 68.0773 33.7493 69.0391 29.2812 67.7235L29.2805 67.7247Z" fill="url(#paint4_linear_964_149389)"/>
<path d="M18.4491 46.0699C16.3213 51.0663 16.2915 56.6273 18.8432 60.9963C23.09 68.2753 32.8908 69.4919 40.7289 63.7152C43.8623 61.4071 46.2084 58.3306 47.6245 55.0042C49.7523 50.0071 49.7819 44.4459 47.2325 40.0759C42.9824 32.7983 33.1847 31.5808 25.344 37.3586C22.2108 39.6672 19.8657 42.7435 18.4491 46.0699Z" fill="url(#paint5_linear_964_149389)"/>
<path d="M20.4548 46.6855C18.7695 50.6431 18.7455 55.0487 20.7671 58.5086C24.1311 64.2746 31.8943 65.2383 38.103 60.6625C40.585 58.8342 42.4431 56.3974 43.5651 53.7623C45.2507 49.8045 45.2742 45.3991 43.2547 41.9375C39.8879 36.1727 32.1271 35.2084 25.9157 39.7853C23.4345 41.6136 21.5763 44.0506 20.4548 46.6855Z" fill="#A65818"/>
<path d="M21.6404 47.0468C19.9789 50.9503 19.9553 55.2944 21.9484 58.7076C25.2663 64.3939 32.9223 65.3437 39.0459 60.8314C41.4935 59.0282 43.3262 56.6249 44.4325 54.0263C46.0943 50.1226 46.1178 45.778 44.1262 42.3645C40.8059 36.6795 33.1523 35.7279 27.0264 40.2417C24.5794 42.0454 22.7472 44.4484 21.6404 47.0468Z" fill="#E78225"/>
<path d="M43.8994 53.8652C42.7932 56.4633 40.9605 58.8668 38.5135 60.67C32.3879 65.1819 24.7339 64.2316 21.4156 58.5465C19.4225 55.133 19.4454 50.7906 21.1079 46.8871C22.2141 44.2883 24.0473 41.884 26.495 40.0806C32.6187 35.5685 40.2726 36.5183 43.5929 42.2041C45.5855 45.6176 45.5617 49.9608 43.8994 53.8652ZM18.0659 45.9536C15.9597 50.8988 15.9307 56.4025 18.456 60.727C22.6594 67.9312 32.3591 69.1352 40.117 63.4181C43.2182 61.1335 45.54 58.0888 46.9421 54.7966C49.0478 49.8511 49.0776 44.3466 46.554 40.0215C42.3476 32.8187 32.6504 31.6133 24.8896 37.3323C21.7886 39.6169 19.467 42.6614 18.0659 45.9536Z" fill="#F4DD62"/>
<path d="M37.1374 41.6134L34.7487 42.5161L34.9101 43.3447C34.6842 43.2996 34.4076 43.2661 34.078 43.2455C33.7512 43.2234 33.3873 43.2324 32.9858 43.2673L32.5562 41.0458L32.0601 40.8944L31.7876 41.2774L31.7995 41.3313L30.1965 41.9354L30.5726 43.871C29.8738 44.1358 29.2278 44.4806 28.6278 44.9087C28.0297 45.3375 27.5211 45.8154 27.1038 46.3448C26.8001 46.7299 26.5574 47.1364 26.3755 47.564C26.3072 47.7244 26.2475 47.8879 26.1963 48.0542C26.0054 48.6659 25.9745 49.3028 26.1032 49.9642C26.2784 50.8611 26.6026 51.5153 27.076 51.9273C27.5503 52.3359 28.0904 52.6076 28.6949 52.744C29.298 52.8776 29.9333 52.9139 30.6045 52.8489C31.2726 52.7856 31.8914 52.7265 32.4579 52.6695C33.0255 52.6109 33.5082 52.6059 33.908 52.6532C34.3084 52.7001 34.5402 52.8885 34.604 53.2177C34.6283 53.3434 34.6087 53.4801 34.5459 53.6282C34.5093 53.7143 34.4578 53.8043 34.3917 53.8977C34.2122 54.15 33.8957 54.3628 33.438 54.5358C32.7708 54.7888 32.1315 54.8125 31.5182 54.6065C30.9046 54.4003 30.4429 53.9689 30.1332 53.3135L29.637 53.1621L29.5065 53.5504L27.1112 54.4551L27.8755 58.4004L27.5794 59.2812L28.0754 59.4323L31.0972 58.291L30.9417 57.4827C31.7469 57.6159 32.5086 57.6322 33.2214 57.5373L33.5041 58.9981L33.1267 59.4603L33.6229 59.6117L35.9818 58.7193L35.6167 56.8295C36.3062 56.5355 36.9543 56.186 37.5574 55.7799C38.1589 55.3761 38.672 54.9162 39.0921 54.4034C39.4046 54.0211 39.6541 53.6139 39.8381 53.1821C39.9007 53.034 39.9561 52.8836 40.0037 52.73C40.1886 52.1268 40.2172 51.4895 40.0861 50.8111C39.9083 49.8975 39.5808 49.2286 39.099 48.804C38.6161 48.3819 38.0718 48.1031 37.4601 47.9726C36.8491 47.8395 36.2001 47.8072 35.5141 47.8729C34.8282 47.9384 34.1972 47.9994 33.621 48.0559C33.0467 48.1128 32.5542 48.1256 32.1446 48.0943C31.7376 48.0635 31.4996 47.8838 31.4363 47.5523C31.4059 47.3957 31.4216 47.2458 31.4827 47.1015C31.5275 46.9968 31.5963 46.895 31.6886 46.7961C31.9097 46.5595 32.2089 46.3699 32.5866 46.2266C32.8894 46.1136 33.2028 46.0543 33.526 46.0515C33.8512 46.0496 34.153 46.0963 34.4314 46.1919C34.7132 46.2859 34.9667 46.4352 35.1912 46.6345C35.2654 46.6993 35.3309 46.7714 35.3925 46.8471L35.1957 47.2261L35.6917 47.3772L38.7482 46.2221L37.805 41.3612L37.3094 41.21L37.1374 41.6134Z" fill="#CE8046"/>
<path d="M25.8791 47.4132C25.811 47.5734 25.7511 47.7368 25.7001 47.9032C25.5095 48.5154 25.4783 49.1518 25.6071 49.8131C25.7825 50.7103 26.1064 51.3643 26.5796 51.776C27.0535 52.1851 27.5935 52.4566 28.198 52.593C28.8016 52.7266 29.4369 52.7624 30.1078 52.6979C30.7764 52.6348 31.3945 52.5752 31.9615 52.5187C32.5291 52.4597 33.0116 52.4547 33.4114 52.5019C33.8113 52.5491 34.0438 52.7375 34.1078 53.0667C34.1316 53.1922 34.1123 53.3289 34.049 53.4772C34.0129 53.5631 33.9612 53.6532 33.895 53.7467C33.7153 53.999 33.3993 54.2121 32.9413 54.3846C32.274 54.6378 31.6349 54.6615 31.0213 54.4558C30.408 54.2498 29.946 53.8177 29.6363 53.1628L26.6146 54.3044L27.5787 59.2815L30.6008 58.1397L30.4451 57.3315C31.2505 57.4651 32.0119 57.4815 32.725 57.3865L33.126 59.4605L35.4852 58.5675L35.1201 56.6782C35.8098 56.384 36.4582 56.0345 37.0608 55.6284C37.6623 55.2246 38.1754 54.7645 38.5955 54.2519C38.9082 53.8699 39.1574 53.4625 39.3414 53.0303C39.4043 52.8827 39.4597 52.7321 39.5073 52.5785C39.692 51.9756 39.7208 51.3382 39.5894 50.66C39.4116 49.746 39.0837 49.0773 38.6022 48.6526C38.1195 48.2299 37.5749 47.9518 36.963 47.8213C36.3525 47.6884 35.7037 47.6557 35.0177 47.7212C34.3316 47.7872 33.7008 47.8481 33.1244 47.9044C32.5503 47.9616 32.0571 47.9739 31.6485 47.9423C31.2415 47.9113 31.0032 47.7323 30.9402 47.4008C30.9092 47.2442 30.9249 47.094 30.9868 46.9497C31.0311 46.8446 31.0999 46.7431 31.1924 46.6446C31.4136 46.4075 31.7125 46.2184 32.0907 46.0744C32.3934 45.9612 32.7069 45.9021 33.0296 45.8993C33.3545 45.8971 33.6563 45.9441 33.9353 46.0395C34.2168 46.1339 34.4708 46.2832 34.6952 46.4828C34.9209 46.6799 35.0887 46.9286 35.1953 47.2255L38.2516 46.0701L37.3105 41.2094L34.2535 42.3653L34.4144 43.1937C34.1887 43.1493 33.9124 43.1156 33.5825 43.0949C33.2555 43.0726 32.8918 43.0819 32.4901 43.1168L32.0605 40.895L29.7001 41.7849L30.0771 43.7207C29.3783 43.9855 28.7321 44.3303 28.1321 44.7586C27.5338 45.1874 27.0256 45.6651 26.6081 46.1942C26.3044 46.5791 26.0614 46.9856 25.8791 47.4132Z" fill="#FFD647"/>
<defs>
<linearGradient id="paint0_linear_964_149389" x1="3.95983" y1="16.9413" x2="29.6707" y2="21.7365" gradientUnits="userSpaceOnUse">
<stop stop-color="#CE7E24"/>
<stop offset="1" stop-color="#EEAF4D"/>
</linearGradient>
<linearGradient id="paint1_linear_964_149389" x1="30.9188" y1="16.1569" x2="2.67962" y2="21.1379" gradientUnits="userSpaceOnUse">
<stop stop-color="#CE7E24"/>
<stop offset="1" stop-color="#EEAF4D"/>
</linearGradient>
<linearGradient id="paint2_linear_964_149389" x1="4.31357" y1="22.1408" x2="28.1739" y2="8.09776" gradientUnits="userSpaceOnUse">
<stop stop-color="#CE7E24"/>
<stop offset="1" stop-color="#EEAF4D"/>
</linearGradient>
<linearGradient id="paint3_linear_964_149389" x1="51.5409" y1="43.0473" x2="21.7276" y2="60.2893" gradientUnits="userSpaceOnUse">
<stop stop-color="#CE7E24"/>
<stop offset="1" stop-color="#EEAF4D"/>
</linearGradient>
<linearGradient id="paint4_linear_964_149389" x1="42.0651" y1="34.8931" x2="30.1005" y2="68.1844" gradientUnits="userSpaceOnUse">
<stop stop-color="#CE7E24"/>
<stop offset="1" stop-color="#EEAF4D"/>
</linearGradient>
<linearGradient id="paint5_linear_964_149389" x1="48.2295" y1="41.8054" x2="17.8897" y2="59.3519" gradientUnits="userSpaceOnUse">
<stop stop-color="#CE7E24"/>
<stop offset="1" stop-color="#EEAF4D"/>
</linearGradient>
</defs>
</svg>
