<svg width="70" height="73" viewBox="0 0 70 73" fill="none" xmlns="http://www.w3.org/2000/svg">
<g opacity="0.95">
<path d="M55.8126 7.58697C52.0555 7.17344 48.2158 8.2014 45.5758 10.6476C41.1766 14.7203 41.7715 21.1856 46.901 25.0861C48.9514 26.6452 51.4161 27.559 53.9172 27.8344C57.6745 28.2474 61.5145 27.2195 64.1555 24.7744C68.5529 20.7001 67.9601 14.2358 62.8286 10.3339C60.7783 8.77501 58.3138 7.86143 55.8126 7.58697Z" fill="url(#paint0_linear_964_149411)"/>
<path d="M42.4754 16.0478L42.6854 13.8215L42.9551 13.8511C43.4368 12.5075 44.2618 11.2402 45.4458 10.1439C48.1325 7.65489 52.04 6.60874 55.8635 7.02939C58.409 7.30923 60.917 8.23863 63.0035 9.82533C65.4225 11.665 66.8485 14.064 67.2396 16.5216L67.5144 16.552L67.3164 18.6933L67.3132 18.699C67.1193 20.8136 66.1441 22.8617 64.3537 24.5204C61.6662 27.0087 57.7584 28.055 53.9347 27.6346C51.3889 27.3546 48.8809 26.4246 46.7947 24.8377C43.6899 22.4772 42.2179 19.1933 42.4762 16.0478H42.4754Z" fill="url(#paint1_linear_964_149411)"/>
<path d="M56.0611 4.88425C52.2377 4.46361 48.3303 5.5096 45.6436 7.99896C41.1668 12.1437 41.7715 18.7235 46.9922 22.6926C49.0784 24.2795 51.5869 25.2093 54.1321 25.4894C57.956 25.91 61.8636 24.8637 64.5512 22.3756C69.0264 18.229 68.423 11.6511 63.2009 7.68036C61.1147 6.09366 58.6065 5.16442 56.0611 4.88425Z" fill="url(#paint2_linear_964_149411)"/>
<path d="M55.9283 6.3011C52.8999 5.96794 49.8043 6.79625 47.6765 8.76831C44.1301 12.0513 44.6093 17.2632 48.7447 20.4074C50.3973 21.6644 52.3842 22.4009 54.4006 22.6226C57.4293 22.9559 60.5246 22.1271 62.6536 20.1563C66.1986 16.8715 65.7205 11.6611 61.5839 8.51551C59.9313 7.25897 57.9444 6.52257 55.9283 6.3011Z" fill="#A65818"/>
<path d="M55.8502 7.13807C52.8633 6.80998 49.8109 7.62674 47.7118 9.57144C44.2147 12.8094 44.6874 17.9493 48.7656 21.0502C50.3955 22.2899 52.3549 23.0163 54.3432 23.2349C57.3304 23.5632 60.3831 22.7463 62.4825 20.8024C65.9786 17.563 65.5073 12.4243 61.4277 9.32228C59.7979 8.08329 57.8387 7.35702 55.8502 7.13807Z" fill="#E78225"/>
<path d="M54.3793 22.859C52.3913 22.6404 50.4315 21.9139 48.8018 20.6748C44.7236 17.5723 44.2515 12.4336 47.7477 9.19566C49.847 7.25097 52.8981 6.43389 55.8852 6.76262C57.8737 6.98109 59.8339 7.70768 61.464 8.94714C65.5422 12.0482 66.0144 17.1869 62.518 20.4263C60.4188 22.3708 57.3668 23.1876 54.3793 22.859ZM56.0875 4.61385C52.3033 4.19732 48.4361 5.23287 45.7769 7.6966C41.3461 11.7989 41.9446 18.3109 47.1116 22.2395C49.1766 23.8102 51.6592 24.7304 54.1785 25.0076C57.9628 25.4238 61.8307 24.3884 64.4907 21.9256C68.92 17.8217 68.3228 11.311 63.154 7.381C61.0889 5.81076 58.6067 4.89069 56.0875 4.61385Z" fill="#F4DD62"/>
<path d="M61.9701 16.1327L60.981 14.7588L60.4235 15.022C60.4214 14.8672 60.4038 14.6816 60.3694 14.4641C60.3362 14.2482 60.2757 14.0143 60.1915 13.7609L61.6868 13.0571L61.7194 12.7069L61.4099 12.6037L61.3739 12.6217L60.7113 11.6995L59.4088 12.3137C59.1189 11.9119 58.7807 11.5596 58.391 11.253C58.001 10.9479 57.5901 10.7101 57.1564 10.5412C56.841 10.4182 56.5195 10.3388 56.1923 10.3031C56.0695 10.2895 55.9459 10.2822 55.8215 10.2809C55.3637 10.2744 54.9121 10.3765 54.4672 10.5866C53.8636 10.8719 53.4528 11.2072 53.2342 11.5925C53.0179 11.9779 52.9076 12.3799 52.9018 12.7973C52.8978 13.2136 52.9668 13.6318 53.1123 14.054C53.2562 14.4745 53.3898 14.864 53.5141 15.2198C53.6397 15.5762 53.7151 15.8878 53.7414 16.1558C53.7679 16.424 53.6702 16.6103 53.4487 16.7147C53.3641 16.7544 53.2653 16.7682 53.1518 16.7557C53.086 16.7484 53.015 16.7325 52.9397 16.7075C52.7358 16.6396 52.5393 16.4752 52.3499 16.2121C52.0732 15.8285 51.9613 15.4191 52.0146 14.9825C52.0679 14.5456 52.302 14.164 52.7159 13.838L52.7483 13.4875L52.4565 13.4774L51.465 12.0995L48.8099 13.3502L48.1476 13.3273L48.1152 13.6775L49.3661 15.4158L49.9101 15.1603C49.9365 15.7073 50.0383 16.2036 50.211 16.647L49.2278 17.1099L48.8472 16.9541L48.8148 17.3043L49.7924 18.661L51.0645 18.0626C51.3734 18.4528 51.7152 18.8054 52.09 19.1182C52.4629 19.4303 52.8621 19.6744 53.2845 19.8483C53.5993 19.9775 53.9222 20.0609 54.2527 20.0973C54.366 20.1094 54.4798 20.1166 54.5945 20.1178C55.0454 20.1219 55.4968 20.0185 55.9535 19.8035C56.5682 19.5134 56.989 19.1731 57.2153 18.7798C57.4398 18.3862 57.5544 17.9803 57.555 17.5592C57.5575 17.1381 57.4836 16.7114 57.3352 16.2799C57.1872 15.8483 57.0504 15.4512 56.9251 15.089C56.7995 14.728 56.7174 14.4116 56.6785 14.1403C56.6396 13.8709 56.7302 13.6823 56.9535 13.5777C57.0588 13.528 57.1664 13.5094 57.2768 13.5214C57.357 13.5304 57.4387 13.5553 57.5218 13.5962C57.7208 13.694 57.8984 13.8516 58.0553 14.0686C58.1795 14.2431 58.2679 14.4347 58.318 14.6435C58.3679 14.8536 58.3799 15.0581 58.3542 15.2568C58.3303 15.4574 58.2631 15.6501 58.1567 15.8336C58.1222 15.894 58.0813 15.9503 58.0374 16.0046L57.7421 15.9497L57.7097 16.2999L58.9753 18.058L62.2466 16.5168L62.279 16.1669L61.9701 16.1327Z" fill="#CE8046"/>
<path d="M56.2253 9.95317C56.1026 9.93989 55.9792 9.93229 55.8548 9.93119C55.3967 9.92486 54.9454 10.0267 54.5003 10.2368C53.8967 10.5222 53.4859 10.8573 53.2674 11.2426C53.0508 11.628 52.9407 12.0296 52.9348 12.4473C52.9309 12.8638 53.0002 13.2821 53.1456 13.7041C53.2893 14.1251 53.4231 14.5139 53.5472 14.8702C53.6731 15.2264 53.7484 15.5379 53.7747 15.8059C53.801 16.0739 53.7035 16.2605 53.4819 16.3651C53.3974 16.4045 53.2985 16.4183 53.1852 16.4058C53.1195 16.3988 53.0486 16.3825 52.9731 16.3577C52.7692 16.2896 52.5727 16.1258 52.3834 15.8624C52.1066 15.4787 51.9947 15.0693 52.0477 14.6326C52.101 14.1959 52.3354 13.8139 52.7492 13.4879L51.4982 11.7498L48.1484 13.3276L49.3996 15.0659L49.9437 14.8102C49.9699 15.3574 50.0716 15.8535 50.2444 16.2971L48.8483 16.9541L49.8261 18.3107L51.0979 17.7123C51.407 18.1027 51.7489 18.4555 52.1235 18.7679C52.4964 19.08 52.8958 19.3243 53.318 19.498C53.6327 19.6274 53.9557 19.7106 54.2864 19.747C54.3994 19.7595 54.5133 19.7664 54.6282 19.7679C55.0788 19.772 55.5304 19.6685 55.9869 19.4535C56.6019 19.1632 57.0226 18.8228 57.2489 18.4295C57.4735 18.0359 57.5878 17.63 57.5883 17.2087C57.5908 16.788 57.5172 16.3615 57.369 15.9297C57.2206 15.498 57.0838 15.1013 56.9585 14.7387C56.8328 14.3779 56.7509 14.061 56.7122 13.7902C56.6734 13.5206 56.7636 13.332 56.9869 13.2278C57.0921 13.1776 57.2 13.1591 57.3104 13.1716C57.3907 13.1802 57.4724 13.2052 57.5551 13.2463C57.7544 13.3441 57.9316 13.5013 58.0889 13.7188C58.2133 13.8932 58.3015 14.0849 58.3516 14.2934C58.4015 14.5035 58.4134 14.7079 58.3881 14.9067C58.3639 15.1071 58.2969 15.3001 58.1903 15.4838C58.0855 15.6678 57.9359 15.8239 57.7434 15.9498L59.0092 17.7077L62.2806 16.167L61.015 14.409L60.4576 14.6719C60.4552 14.5172 60.4377 14.332 60.4031 14.1143C60.3701 13.8984 60.3095 13.6646 60.2253 13.411L61.7208 12.7072L60.7451 11.3491L59.4425 11.9641C59.1526 11.5623 58.8145 11.2099 58.4246 10.9034C58.0346 10.5981 57.6237 10.3607 57.1902 10.1916C56.8741 10.0688 56.5526 9.9894 56.2253 9.95317Z" fill="#FFD647"/>
</g>
<g opacity="0.9">
<path d="M16.8693 20.6301C12.0978 18.8525 7.59842 19.1067 6.81884 21.1983C6.03988 23.2895 9.27605 26.4262 14.048 28.2038C18.8183 29.981 23.3181 29.7261 24.0969 27.635C24.8763 25.5432 21.6397 22.4073 16.8693 20.6301Z" fill="url(#paint3_linear_964_149411)"/>
<path d="M8.74669 19.2153C10.6959 18.6374 13.8138 18.9226 17.0554 20.1302C20.2965 21.3378 22.8408 23.1617 23.9366 24.874L25.1269 25.3173L24.3763 27.3302C24.3739 27.3372 24.3717 27.3441 24.3692 27.3511C24.3666 27.3579 24.3635 27.3646 24.3609 27.3716L24.3522 27.3949L24.3513 27.3948C23.5124 29.4808 18.9674 29.724 14.1499 27.9293C9.33328 26.1351 6.05598 22.9795 6.78241 20.8529L6.78102 20.8523L7.55605 18.7719L8.74669 19.2153Z" fill="url(#paint4_linear_964_149411)"/>
<path d="M17.7777 18.1937C12.9253 16.3861 8.34961 16.6443 7.55712 18.7717C6.765 20.8982 10.056 24.0877 14.9085 25.8955C19.7598 27.7027 24.3354 27.4436 25.1277 25.317C25.92 23.19 22.6288 20.0008 17.7777 18.1937Z" fill="url(#paint5_linear_964_149411)"/>
<path d="M9.00083 18.9287C8.35325 20.6673 11.1701 23.3219 15.2927 24.8576C19.4153 26.3934 23.2823 26.229 23.9299 24.4904C24.5778 22.7518 21.7609 20.0974 17.6382 18.5614C13.5157 17.0258 9.64855 17.1902 9.00083 18.9287Z" fill="#A65818"/>
<path d="M9.55486 19.4163C8.95802 21.0185 11.5272 23.4547 15.293 24.8574C19.059 26.2604 22.5958 26.0989 23.1926 24.4965C23.7895 22.8944 21.2206 20.4582 17.4546 19.0552C13.6887 17.6523 10.1518 17.8138 9.55486 19.4163Z" fill="#E78225"/>
<path d="M17.8255 20.056L16.5264 19.5722L16.3511 20.0428C15.9671 19.8998 15.5925 19.7869 15.2258 19.7025C14.8593 19.618 14.5261 19.5681 14.2278 19.5528C13.9311 19.5374 13.6802 19.562 13.4768 19.626C13.2739 19.6892 13.1419 19.802 13.0822 19.9625C13.0004 20.1814 13.0355 20.3952 13.1891 20.6046C13.3412 20.8135 13.5503 21.0139 13.8158 21.2065C14.0815 21.3987 14.382 21.5825 14.7156 21.7556C15.0492 21.9289 15.3573 22.0886 15.6405 22.2344C15.9232 22.3802 16.1576 22.5131 16.3402 22.6325C16.5245 22.7521 16.6016 22.8522 16.5716 22.9326C16.5535 22.9811 16.4779 23.005 16.3454 23.0032C16.2116 23.0011 16.0195 22.9536 15.7677 22.8597C15.4017 22.7233 15.0896 22.5508 14.8316 22.3421C14.5748 22.1335 14.4315 21.9234 14.403 21.7129L12.7404 21.0934L12.2891 22.3048L13.9516 22.924L14.0246 22.728C14.3898 22.9761 14.7517 23.1896 15.112 23.369L14.9238 23.8738L16.2229 24.3577L16.3944 23.8975C16.781 24.0331 17.156 24.1459 17.5205 24.2359C17.8848 24.326 18.2164 24.3806 18.5117 24.3995C18.8087 24.418 19.0571 24.3963 19.2583 24.3343C19.4585 24.2712 19.5893 24.1574 19.6504 23.9931C19.7333 23.7708 19.6986 23.5528 19.5454 23.3392C19.3916 23.1257 19.1796 22.9217 18.9092 22.7272C18.6399 22.5328 18.3341 22.3473 17.9923 22.1697C17.6499 21.9928 17.3358 21.8294 17.0493 21.6816C16.7617 21.5331 16.5222 21.3989 16.3319 21.2802C16.1404 21.1608 16.0603 21.0611 16.0902 20.9809C16.1144 20.9157 16.2005 20.8907 16.3506 20.9072C16.4996 20.9233 16.6789 20.9705 16.8873 21.0481C17.0537 21.1101 17.2152 21.1855 17.3717 21.275C17.5281 21.3637 17.6644 21.4563 17.7822 21.5523C17.8986 21.6477 17.9938 21.7458 18.0649 21.8461C18.1374 21.9466 18.1724 22.0395 18.1691 22.1261L19.8509 22.7524L20.2915 21.569L18.6099 20.9425L18.5347 21.1444C18.4338 21.0732 18.307 20.9902 18.1541 20.8958C17.9999 20.8009 17.8227 20.7013 17.6239 20.5974L17.8255 20.056Z" fill="#CE8046"/>
<path d="M17.8956 19.8663L16.5965 19.3825L16.4212 19.8533C16.0372 19.7103 15.6622 19.5974 15.296 19.5127C14.9294 19.4283 14.596 19.3782 14.298 19.3631C14.0011 19.3477 13.7504 19.3721 13.547 19.4362C13.3439 19.4994 13.2121 19.6123 13.1523 19.7727C13.0706 19.9916 13.1056 20.2051 13.2591 20.4147C13.4113 20.6235 13.6206 20.824 13.8859 21.0167C14.1515 21.2091 14.4522 21.3927 14.7858 21.566C15.1196 21.739 15.4276 21.8988 15.7106 22.0442C15.9936 22.1903 16.2277 22.3231 16.4103 22.4425C16.5946 22.5619 16.6714 22.6624 16.6415 22.7425C16.6236 22.7909 16.548 22.8149 16.4155 22.813C16.2819 22.8108 16.0896 22.7634 15.8379 22.6698C15.4719 22.5332 15.1599 22.3606 14.9016 22.152C14.6452 21.9433 14.502 21.7334 14.4731 21.5228L12.8104 20.9034L12.3594 22.1148L14.0218 22.7343L14.095 22.538C14.4598 22.7865 14.8219 22.9998 15.1821 23.1792L14.9939 23.6839L16.2931 24.1679L16.4645 23.7077C16.8511 23.8434 17.2261 23.9557 17.5906 24.0458C17.9551 24.1358 18.2864 24.1908 18.582 24.2096C18.8789 24.2282 19.1272 24.2063 19.3284 24.1443C19.5287 24.0811 19.6593 23.9675 19.7205 23.8029C19.8034 23.5808 19.7686 23.3628 19.6155 23.149C19.4618 22.9357 19.2497 22.7319 18.9793 22.5371C18.71 22.3426 18.4043 22.1572 18.062 21.9797C17.7199 21.8027 17.4059 21.6394 17.1193 21.4913C16.8316 21.343 16.5922 21.2088 16.4017 21.0902C16.2102 20.9705 16.1304 20.8712 16.1602 20.7908C16.1844 20.7255 16.2703 20.7006 16.4204 20.717C16.5695 20.7332 16.7487 20.7803 16.9572 20.858C17.1237 20.9201 17.2853 20.9954 17.4415 21.0848C17.5982 21.1736 17.7343 21.2661 17.8522 21.3619C17.9685 21.4576 18.0635 21.5557 18.135 21.6557C18.2074 21.7564 18.2423 21.8494 18.2391 21.9357L19.9207 22.5622L20.3617 21.3787L18.6801 20.7523L18.6048 20.9539C18.5039 20.8828 18.377 20.7999 18.2241 20.7055C18.07 20.6107 17.8927 20.511 17.6941 20.4071L17.8956 19.8663Z" fill="#FFD647"/>
<path d="M15.3295 24.7632C11.5633 23.3602 9.0085 20.8844 9.62331 19.234C10.2384 17.5829 13.79 17.3823 17.5564 18.7855C21.3214 20.1881 23.8761 22.6634 23.2611 24.3144C22.6462 25.9649 19.0945 26.1659 15.3295 24.7632ZM17.8536 17.9876C13.0818 16.2099 8.58238 16.464 7.8033 18.5559C7.02397 20.6471 10.2605 23.7836 15.0322 25.5612C19.8026 27.3384 24.3022 27.0836 25.0814 24.9924C25.8605 22.9008 22.6242 19.7646 17.8536 17.9876Z" fill="#F4DD62"/>
<path d="M9.94531 22.7208C10.4886 22.7323 11.0388 22.7391 11.5876 22.7393C12.5725 23.5023 13.8581 24.2147 15.3303 24.7631C19.0953 26.1657 22.647 25.9648 23.2618 24.3143C23.6329 23.3184 22.8495 22.023 21.3444 20.8439C21.6729 20.6556 21.9706 20.4659 22.2376 20.2821C24.4141 21.8562 25.5851 23.6417 25.0821 24.9921C24.3029 27.0833 19.8034 27.3381 15.0329 25.561C12.9909 24.8003 11.2306 23.7907 9.94531 22.7208Z" fill="#F4DD62"/>
</g>
<path d="M14.6869 42.7572C10.0531 45.2772 6.36783 49.3835 5.09358 54.0427C2.96799 61.8027 8.33643 68.1577 17.0789 68.2376C20.5735 68.2697 24.0787 67.2946 27.1635 65.6171C31.7972 63.0965 35.4829 58.9897 36.7588 54.3312C38.8814 46.571 33.5159 40.2153 24.7703 40.1354C21.2761 40.1036 17.7711 41.0787 14.6869 42.7572Z" fill="url(#paint6_linear_964_149411)"/>
<path d="M5.43064 62.1808L4.06055 59.6659L4.39313 59.4847C3.97592 57.6876 4.00998 55.7011 4.58184 53.6125C5.87873 48.8717 9.62891 44.6926 14.3447 42.1279C17.4839 40.4201 21.0504 39.4276 24.6066 39.4601C28.7293 39.4981 32.112 40.9077 34.3432 43.1937L34.6823 43.0094L36.0046 45.4251L36.005 45.4338C37.3127 47.8179 37.6711 50.747 36.8069 53.9063C35.5085 58.6471 31.7579 62.8264 27.0423 65.3917C23.9027 67.0994 20.3358 68.0916 16.7796 68.0585C11.4884 68.0104 7.41172 65.703 5.43191 62.1801L5.43064 62.1808Z" fill="url(#paint7_linear_964_149411)"/>
<path d="M13.0204 39.7074C8.30488 42.2721 4.5547 46.4508 3.25802 51.1922C1.09499 59.0891 6.55779 65.5574 15.4551 65.638C19.0111 65.6711 22.5785 64.6785 25.7177 62.971C30.4339 60.4059 34.184 56.2266 35.4826 51.486C37.6425 43.5883 32.1824 37.121 23.2826 37.0398C19.7264 37.0074 16.1598 38.0002 13.0204 39.7074Z" fill="url(#paint8_linear_964_149411)"/>
<path d="M13.8925 41.3085C10.1575 43.34 7.18612 46.6503 6.15982 50.4056C4.44615 56.6611 8.77349 61.7845 15.8213 61.8484C18.6381 61.8748 21.4637 61.0884 23.9505 59.7358C27.6858 57.7041 30.6566 54.3938 31.6857 50.6385C33.3966 44.3824 29.0714 39.2598 22.0212 39.1951C19.2044 39.1695 16.379 39.9559 13.8925 41.3085Z" fill="#A65818"/>
<path d="M14.4079 42.253C10.7243 44.257 7.7946 47.5211 6.78142 51.2252C5.09187 57.3944 9.35954 62.4467 16.3103 62.5102C19.0883 62.536 21.8748 61.7606 24.3273 60.4267C28.0112 58.4225 30.9414 55.1582 31.9556 51.4547C33.6429 45.2851 29.3777 40.2327 22.4247 40.169C19.6468 40.1439 16.8605 40.9193 14.4079 42.253Z" fill="#E78225"/>
<path d="M24.0957 60.0023C21.6439 61.336 18.8569 62.1114 16.0793 62.0861C9.12752 62.0209 4.86154 56.9694 6.54982 50.8011C7.56321 47.097 10.4915 43.8335 14.1756 41.8299C16.6281 40.4958 19.4157 39.72 22.1939 39.7453C29.1447 39.809 33.4108 44.8605 31.7234 51.0303C30.7096 54.7346 27.7803 57.9981 24.0957 60.0023ZM12.853 39.4032C8.18564 41.9413 4.47417 46.0774 3.19061 50.7701C1.05 58.586 6.45631 64.9874 15.2627 65.0675C18.7825 65.1002 22.3128 64.1179 25.4201 62.428C30.0874 59.8893 33.7997 55.753 35.0847 51.0607C37.2226 43.2442 31.8186 36.843 23.0093 36.7626C19.4897 36.7305 15.9598 37.7128 12.853 39.4032Z" fill="#F4DD62"/>
<path d="M27.982 46.9293L25.8461 46.2575L25.3935 46.9742C25.2791 46.8122 25.1242 46.6304 24.927 46.4281C24.7326 46.2263 24.4933 46.0272 24.2126 45.8262L25.4278 43.9067L25.2118 43.5117L24.7802 43.6462L24.7517 43.6935L23.3191 43.2415L22.2613 44.9147C21.6359 44.7188 20.9907 44.6131 20.319 44.5962C19.6481 44.5811 19.0017 44.6536 18.3791 44.8164C17.9262 44.935 17.4979 45.1042 17.0945 45.3237C16.943 45.406 16.7951 45.4956 16.6506 45.592C16.1177 45.9455 15.6707 46.4085 15.3095 46.9803C14.82 47.7563 14.5887 48.4334 14.6156 49.0122C14.6452 49.5891 14.809 50.1002 15.1047 50.5452C15.4013 50.9875 15.7841 51.3748 16.2578 51.7057C16.7283 52.0363 17.1643 52.3421 17.5654 52.6199C17.9685 52.8971 18.2812 53.1668 18.5056 53.4288C18.7305 53.691 18.7525 53.9644 18.5727 54.2489C18.5039 54.3575 18.3996 54.4497 18.26 54.5258C18.1788 54.5699 18.0855 54.6087 17.9803 54.6419C17.696 54.7307 17.3503 54.7119 16.9411 54.5832C16.3441 54.3961 15.9186 54.0521 15.6639 53.5493C15.409 53.0462 15.4028 52.4592 15.6442 51.7895L15.4278 51.3942L15.0838 51.6132L12.9419 50.9392L10.7846 54.3487L10.0039 54.8454L10.2203 55.2405L12.9222 56.0907L13.365 55.3928C13.7915 55.9492 14.2686 56.3928 14.7889 56.725L13.99 57.9872L13.438 58.1222L13.6542 58.5174L15.7644 59.1799L16.7985 57.5474C17.4377 57.7161 18.0874 57.8193 18.746 57.8545C19.4022 57.8906 20.0397 57.834 20.6526 57.6851C21.1094 57.5737 21.5422 57.4075 21.9501 57.1861C22.0895 57.1097 22.226 57.0279 22.3595 56.9388C22.8827 56.5885 23.3287 56.1238 23.6998 55.5377C24.1988 54.7477 24.4379 54.0576 24.414 53.4645C24.3878 52.8724 24.2261 52.3537 23.9219 51.9089C23.6198 51.4625 23.2254 51.0704 22.742 50.7317C22.2586 50.3927 21.8134 50.0814 21.4064 49.7975C21.0002 49.5153 20.6761 49.2461 20.4349 48.9905C20.1948 48.7367 20.1628 48.4663 20.3448 48.1805C20.4302 48.0451 20.5411 47.9409 20.6771 47.8667C20.7759 47.8131 20.8885 47.7751 21.0139 47.7528C21.3144 47.6994 21.6332 47.726 21.9715 47.8317C22.2412 47.9179 22.4818 48.0506 22.691 48.2316C22.9007 48.4142 23.0625 48.6205 23.177 48.8502C23.2944 49.0808 23.3566 49.3368 23.3668 49.6144C23.3708 49.7053 23.3644 49.7969 23.353 49.8888L22.9726 50.0633L23.189 50.4583L25.9222 51.3179L28.5801 47.1172L28.3641 46.7226L27.982 46.9293Z" fill="#CE8046"/>
<path d="M16.878 44.9293C16.727 45.0117 16.5789 45.1009 16.4346 45.1976C15.9017 45.5513 15.4546 46.014 15.0935 46.5859C14.6037 47.3621 14.3725 48.0389 14.3996 48.6175C14.4288 49.1946 14.5925 49.7051 14.8883 50.1505C15.1853 50.5933 15.5683 50.9801 16.0415 51.3111C16.5123 51.642 16.9483 51.9472 17.3494 52.2256C17.7527 52.5026 18.0651 52.7722 18.2896 53.0341C18.5141 53.2961 18.5367 53.5701 18.3567 53.8546C18.2877 53.9626 18.1836 54.055 18.0438 54.1309C17.9629 54.1752 17.8694 54.2141 17.7641 54.247C17.4795 54.3355 17.1343 54.3172 16.7251 54.1881C16.1278 54.0012 15.7024 53.6572 15.4472 53.1546C15.1925 52.6517 15.1864 52.0643 15.4276 51.3946L12.7257 50.5446L10.0039 54.8458L12.7062 55.6958L13.1488 54.9979C13.5753 55.5547 14.052 55.9983 14.5726 56.3305L13.438 58.1223L15.5486 58.7846L16.5823 57.1525C17.2216 57.3212 17.8716 57.4246 18.5302 57.4596C19.1864 57.4957 19.8239 57.4391 20.437 57.2902C20.8937 57.1793 21.3266 57.0128 21.7345 56.7909C21.8739 56.7152 22.0104 56.633 22.1439 56.544C22.6669 56.1936 23.1128 55.7291 23.4837 55.1432C23.983 54.3528 24.2216 53.6627 24.1982 53.0696C24.1726 52.4775 24.0103 51.959 23.7056 51.5142C23.4037 51.0681 23.01 50.676 22.5266 50.337C22.0428 49.998 21.5978 49.6869 21.1906 49.403C20.7844 49.121 20.4602 48.851 20.2195 48.5958C19.9796 48.3418 19.947 48.0719 20.1289 47.7863C20.2142 47.6506 20.3251 47.5462 20.4615 47.4724C20.5603 47.4182 20.6727 47.3804 20.7979 47.3587C21.0985 47.3049 21.4169 47.3317 21.7559 47.4372C22.0256 47.5232 22.2662 47.6561 22.475 47.8367C22.6846 48.0191 22.8463 48.2254 22.9611 48.4553C23.0781 48.6859 23.1408 48.9424 23.1507 49.2201C23.163 49.4967 23.1035 49.7793 22.9728 50.0636L25.706 50.923L28.3643 46.7228L25.6311 45.8632L25.1783 46.5793C25.0635 46.418 24.9092 46.2362 24.7116 46.0339C24.5172 45.8318 24.2779 45.6329 23.997 45.4317L25.2124 43.512L23.1031 42.8466L22.0459 44.5205C21.4205 44.3245 20.7753 44.2186 20.1033 44.202C19.4323 44.1866 18.7861 44.2593 18.1637 44.4222C17.7103 44.5407 17.2819 44.7097 16.878 44.9293Z" fill="#FFD647"/>
<defs>
<linearGradient id="paint0_linear_964_149411" x1="62.893" y1="25.9925" x2="46.8852" y2="9.38186" gradientUnits="userSpaceOnUse">
<stop stop-color="#CE7E24"/>
<stop offset="1" stop-color="#EEAF4D"/>
</linearGradient>
<linearGradient id="paint1_linear_964_149411" x1="67.3281" y1="18.582" x2="42.4584" y2="16.0647" gradientUnits="userSpaceOnUse">
<stop stop-color="#CE7E24"/>
<stop offset="1" stop-color="#EEAF4D"/>
</linearGradient>
<linearGradient id="paint2_linear_964_149411" x1="63.2665" y1="23.6152" x2="46.9759" y2="6.71125" gradientUnits="userSpaceOnUse">
<stop stop-color="#CE7E24"/>
<stop offset="1" stop-color="#EEAF4D"/>
</linearGradient>
<linearGradient id="paint3_linear_964_149411" x1="8.84672" y1="18.682" x2="22.0683" y2="30.1516" gradientUnits="userSpaceOnUse">
<stop stop-color="#CE7E24"/>
<stop offset="1" stop-color="#EEAF4D"/>
</linearGradient>
<linearGradient id="paint4_linear_964_149411" x1="24.3875" y1="27.3018" x2="6.81793" y2="20.7559" gradientUnits="userSpaceOnUse">
<stop stop-color="#CE7E24"/>
<stop offset="1" stop-color="#EEAF4D"/>
</linearGradient>
<linearGradient id="paint5_linear_964_149411" x1="7.43944" y1="22.0443" x2="25.2454" y2="22.0443" gradientUnits="userSpaceOnUse">
<stop stop-color="#CE7E24"/>
<stop offset="1" stop-color="#EEAF4D"/>
</linearGradient>
<linearGradient id="paint6_linear_964_149411" x1="36.1742" y1="57.3067" x2="5.68251" y2="51.0313" gradientUnits="userSpaceOnUse">
<stop stop-color="#CE7E24"/>
<stop offset="1" stop-color="#EEAF4D"/>
</linearGradient>
<linearGradient id="paint7_linear_964_149411" x1="36.0078" y1="45.4299" x2="5.42355" y2="62.1661" gradientUnits="userSpaceOnUse">
<stop stop-color="#CE7E24"/>
<stop offset="1" stop-color="#EEAF4D"/>
</linearGradient>
<linearGradient id="paint8_linear_964_149411" x1="34.8875" y1="54.5143" x2="3.85723" y2="48.1281" gradientUnits="userSpaceOnUse">
<stop stop-color="#CE7E24"/>
<stop offset="1" stop-color="#EEAF4D"/>
</linearGradient>
</defs>
</svg>
