<svg width="33" height="73" viewBox="0 0 33 73" fill="none" xmlns="http://www.w3.org/2000/svg">
<g clip-path="url(#clip0_964_172423)">
<path d="M34.1014 45.7037C34.1352 50.0204 32.4567 54.11 29.2485 56.5356C23.9067 60.578 16.344 58.4734 12.3589 51.8389C10.7658 49.187 9.98493 46.2125 9.96244 43.3388C9.9293 39.0219 11.608 34.932 14.8148 32.5052C20.1582 28.4649 27.7198 30.5672 31.7066 37.204C33.2992 39.8557 34.0799 42.8302 34.1014 45.7037Z" fill="url(#paint0_linear_964_172423)"/>
<path d="M22.4966 58.8218L25.151 59.0801L25.1488 58.7702C26.7937 58.5269 28.39 57.8805 29.8279 56.7925C33.092 54.3243 34.8003 50.1627 34.7662 45.7694C34.7438 42.8447 33.9497 39.8181 32.3286 37.1196C30.4489 33.991 27.7887 31.8545 24.9337 30.869L24.9313 30.5532L22.3787 30.3003L22.3715 30.3025C19.8511 30.051 17.3142 30.6928 15.1388 32.3377C11.8752 34.8073 10.167 38.9693 10.2006 43.3624C10.2232 46.2874 11.0179 49.3142 12.6393 52.0126C15.051 56.0282 18.7507 58.4127 22.4964 58.8207L22.4966 58.8218Z" fill="url(#paint1_linear_964_172423)"/>
<path d="M37.3232 46.0228C37.3573 50.4157 35.6492 54.5773 32.3844 57.0457C26.9484 61.1595 19.2516 59.0184 15.1963 52.2661C13.5748 49.5676 12.7802 46.5403 12.7578 43.6159C12.7239 39.2224 14.4322 35.0607 17.6956 32.5908C23.1336 28.4791 30.8284 30.6186 34.8853 37.3727C36.5065 40.0714 37.3004 43.0982 37.3232 46.0228Z" fill="url(#paint2_linear_964_172423)"/>
<path d="M35.6343 45.8583C35.6613 49.3379 34.3084 52.635 31.7223 54.5895C27.4162 57.8483 21.3196 56.1522 18.1073 50.8037C16.8229 48.6661 16.1937 46.2684 16.1758 43.9517C16.1487 40.4719 17.5018 37.1751 20.0869 35.2186C24.3948 31.9617 30.4898 33.6564 33.7037 39.0067C34.9875 41.144 35.6167 43.5419 35.6343 45.8583Z" fill="#A65818"/>
<path d="M34.6367 45.7593C34.6628 49.191 33.3287 52.4421 30.7784 54.3706C26.5316 57.5842 20.5193 55.9112 17.3509 50.6365C16.0843 48.5284 15.4636 46.1636 15.4461 43.879C15.4199 40.447 16.7542 37.1956 19.3035 35.2665C23.5517 32.0545 29.5628 33.7255 32.7325 39.0021C33.9984 41.1103 34.6188 43.4747 34.6367 45.7593Z" fill="#E78225"/>
<path d="M15.8925 43.9253C15.9101 46.2095 16.5307 48.5745 17.7968 50.6823C20.9669 55.9574 26.9778 57.6294 31.2246 54.4168C33.775 52.4882 35.1091 49.2385 35.0823 45.8065C35.0649 43.5217 34.4442 41.1561 33.1776 39.0478C30.009 33.7731 23.9982 32.1009 19.7498 35.3133C17.1998 37.2421 15.8662 40.4926 15.8925 43.9253ZM37.6442 46.056C37.6782 50.4039 35.9873 54.5226 32.7561 56.9659C27.3757 61.0374 19.7583 58.9183 15.7444 52.2354C14.1396 49.5645 13.3533 46.5685 13.3307 43.674C13.2972 39.326 14.9877 35.2065 18.2179 32.7622C23.6 28.6927 31.216 30.8099 35.2315 37.4952C36.8362 40.166 37.6224 43.1617 37.6442 46.056Z" fill="#F4DD62"/>
<path d="M24.7543 36.8801L26.2571 38.2973L25.8788 38.8659C26.0614 38.9025 26.2784 38.9636 26.5309 39.0507C26.7818 39.1359 27.0508 39.2559 27.3397 39.4069L28.3517 37.8817L28.7692 37.923L28.8535 38.2938L28.8279 38.3303L29.8369 39.2802L28.9538 40.6085C29.3932 41.0237 29.7683 41.4821 30.0831 41.9885C30.3963 42.4948 30.6274 43.0099 30.7742 43.535C30.8811 43.9171 30.9359 44.2961 30.9387 44.672C30.9398 44.813 30.9335 44.9537 30.9199 45.0938C30.8721 45.61 30.6971 46.0952 30.3951 46.549C29.9852 47.1642 29.5396 47.5519 29.058 47.7122C28.5766 47.8697 28.0888 47.9045 27.5949 47.8183C27.103 47.7304 26.6174 47.5598 26.1364 47.3024C25.6573 47.0472 25.2136 46.8106 24.8083 46.5918C24.4027 46.3714 24.0438 46.2175 23.7306 46.1283C23.417 46.0388 23.1853 46.1074 23.0353 46.3333C22.978 46.4197 22.95 46.5278 22.9509 46.6579C22.9515 46.7336 22.9619 46.8168 22.9822 46.9072C23.0377 47.1514 23.2078 47.4088 23.4958 47.6804C23.9152 48.0768 24.3852 48.2935 24.9073 48.3305C25.4296 48.3675 25.9086 48.189 26.3438 47.796L26.7614 47.8374L26.738 48.1678L28.2451 49.5888L26.4468 52.2969L26.3938 53.0467L25.9764 53.0052L24.0752 51.2127L24.4428 50.6576C23.8001 50.5064 23.2263 50.2817 22.7236 49.989L22.0579 50.9918L22.1959 51.4544L21.7783 51.413L20.2946 50.0126L21.1552 48.7151C20.7318 48.281 20.3566 47.8184 20.0326 47.3276C19.7092 46.8388 19.4691 46.3358 19.315 45.8222C19.2006 45.4395 19.141 45.0578 19.138 44.6781C19.1374 44.5481 19.1428 44.4185 19.155 44.289C19.2046 43.7811 19.3816 43.2963 19.6906 42.8305C20.1076 42.2036 20.5603 41.8061 21.0521 41.639C21.5441 41.474 22.0373 41.4352 22.5346 41.5281C23.0323 41.6188 23.527 41.7966 24.0187 42.0592C24.5105 42.3215 24.9627 42.5634 25.3754 42.7848C25.7865 43.0061 26.1502 43.1689 26.4658 43.2729C26.7793 43.3765 27.013 43.3165 27.1634 43.0886C27.2349 42.9812 27.2698 42.8643 27.269 42.7375C27.2682 42.6455 27.2485 42.548 27.2103 42.4454C27.1188 42.2 26.9544 41.9653 26.717 41.7408C26.526 41.5622 26.3104 41.4204 26.07 41.3177C25.8278 41.2151 25.5879 41.1561 25.3502 41.1409C25.1106 41.1233 24.8748 41.1559 24.6452 41.2349C24.5696 41.2602 24.4983 41.2937 24.4287 41.331L24.4578 41.6752L24.0404 41.6338L22.1175 39.8202L24.3343 36.484L24.7514 36.5253L24.7543 36.8801Z" fill="#CE8046"/>
<path d="M31.3571 44.7138C31.3581 44.8546 31.352 44.9954 31.3383 45.1354C31.2901 45.6519 31.1154 46.1368 30.8135 46.5906C30.4033 47.2059 29.9579 47.5934 29.4765 47.7536C28.9954 47.9117 28.5077 47.9463 28.0138 47.8601C27.5215 47.772 27.036 47.6011 26.5551 47.3442C26.0755 47.089 25.6325 46.8522 25.2268 46.6336C24.8213 46.4129 24.4626 46.259 24.1493 46.1699C23.8361 46.0807 23.6038 46.149 23.4536 46.3749C23.3968 46.4612 23.3686 46.5693 23.3697 46.6997C23.37 46.7751 23.3805 46.8585 23.4009 46.9489C23.4566 47.1932 23.6263 47.4506 23.9145 47.7219C24.3341 48.1186 24.8039 48.3352 25.3261 48.3725C25.8481 48.4096 26.3276 48.2307 26.7626 47.838L28.6637 49.6307L26.3951 53.0471L24.4938 51.2542L24.8615 50.6991C24.2185 50.5483 23.6449 50.3236 23.142 50.0308L22.1972 51.4546L20.7135 50.0538L21.574 48.7567C21.1505 48.3223 20.7751 47.8596 20.4515 47.3689C20.128 46.8802 19.888 46.377 19.7338 45.8635C19.6192 45.481 19.5599 45.0992 19.5569 44.7193C19.556 44.5895 19.5614 44.4598 19.5737 44.3303C19.6234 43.8226 19.8002 43.3377 20.1093 42.8722C20.5265 42.245 20.9794 41.8478 21.4711 41.6804C21.9631 41.515 22.4562 41.4768 22.9537 41.5698C23.451 41.6605 23.9456 41.8379 24.4374 42.1003C24.9293 42.363 25.3813 42.6048 25.7942 42.8262C26.2051 43.0475 26.5695 43.2102 26.8845 43.3138C27.198 43.4172 27.4316 43.3578 27.5818 43.1298C27.6537 43.0225 27.6887 42.9055 27.6874 42.7785C27.687 42.6862 27.6673 42.589 27.6288 42.4867C27.5374 42.2408 27.3731 42.0066 27.1355 41.7814C26.9446 41.6027 26.729 41.461 26.4889 41.3585C26.2469 41.2558 26.007 41.1969 25.769 41.1814C25.5293 41.1643 25.2933 41.1967 25.0636 41.2759C24.8338 41.3529 24.6311 41.4864 24.4591 41.6749L22.5365 39.8612L24.7516 36.5245L26.6746 38.3388L26.2967 38.9073C26.479 38.9444 26.6958 39.0052 26.9486 39.0924C27.1997 39.1775 27.4684 39.2976 27.7575 39.4487L28.7696 37.9233L30.2552 39.3222L29.3714 40.6504C29.8108 41.0656 30.186 41.5241 30.5008 42.0306C30.8141 42.537 31.045 43.0518 31.192 43.5768C31.299 43.9587 31.354 44.3378 31.3571 44.7138Z" fill="#FFD647"/>
</g>
<defs>
<linearGradient id="paint0_linear_964_172423" x1="13.5545" y1="33.4691" x2="30.4512" y2="55.6204" gradientUnits="userSpaceOnUse">
<stop stop-color="#CE7E24"/>
<stop offset="1" stop-color="#EEAF4D"/>
</linearGradient>
<linearGradient id="paint1_linear_964_172423" x1="23.1661" y1="30.3284" x2="21.7412" y2="58.9099" gradientUnits="userSpaceOnUse">
<stop stop-color="#CE7E24"/>
<stop offset="1" stop-color="#EEAF4D"/>
</linearGradient>
<linearGradient id="paint2_linear_964_172423" x1="16.413" y1="33.5721" x2="33.6081" y2="56.1146" gradientUnits="userSpaceOnUse">
<stop stop-color="#CE7E24"/>
<stop offset="1" stop-color="#EEAF4D"/>
</linearGradient>
<clipPath id="clip0_964_172423">
<rect width="36.4023" height="36.4023" fill="white" transform="matrix(-0.923063 -0.384648 -0.384648 0.923063 47.6055 34.9097)"/>
</clipPath>
</defs>
</svg>
