<svg width="44" height="80" viewBox="0 0 44 80" fill="none" xmlns="http://www.w3.org/2000/svg">
<g opacity="0.9">
<path d="M-10.0392 15.9991C-19.9952 18.2196 -27.5422 23.9463 -26.8971 28.7919C-26.2513 33.6361 -17.6575 35.7641 -7.70109 33.5432C2.2523 31.3233 9.79933 25.5948 9.15353 20.7511C8.50796 15.905 -0.0858536 13.7786 -10.0392 15.9991Z" fill="url(#paint0_linear_964_172445)"/>
<path d="M-25.4501 22.8104C-22.6266 19.4491 -16.9571 16.3489 -10.1932 14.8403C-3.43065 13.3323 2.71362 13.7969 6.24371 15.7408L8.72723 15.1865L9.34731 19.8503C9.34961 19.8661 9.35259 19.8817 9.35489 19.8979C9.35695 19.9135 9.3581 19.9302 9.3604 19.946L9.36752 20L9.36591 20.0007C9.90285 24.905 2.26648 30.6644 -7.78543 32.9064C-17.8351 35.1483 -26.5182 33.0326 -27.2885 28.1833L-27.2915 28.1838L-27.9336 23.3645L-25.4501 22.8104Z" fill="url(#paint1_linear_964_172445)"/>
<path d="M-10.7904 10.3548C-20.9149 12.6131 -28.5903 18.4367 -27.9335 23.3647C-27.2769 28.2908 -18.5379 30.4543 -8.41295 28.1962C1.70924 25.9383 9.3835 20.1132 8.72713 15.1869C8.07054 10.2595 -0.668644 8.09669 -10.7904 10.3548Z" fill="url(#paint2_linear_964_172445)"/>
<path d="M-25.2817 21.9745C-24.7447 26.002 -17.3364 27.7117 -8.73504 25.7927C-0.133425 23.874 6.40471 19.0537 5.86777 15.0264C5.33129 10.9991 -2.07656 9.28937 -10.6786 11.2079C-19.28 13.1267 -25.8184 17.9469 -25.2817 21.9745Z" fill="#A65818"/>
<path d="M-23.8581 22.2459C-23.3634 25.9572 -16.5924 27.5451 -8.73508 25.7924C-0.877321 24.0398 5.09173 19.6102 4.59659 15.8982C4.10236 12.1869 -2.66866 10.5988 -10.5262 12.3513C-18.3837 14.1045 -24.3525 18.5341 -23.8581 22.2459Z" fill="#E78225"/>
<path d="M-8.76212 25.573C-16.6203 27.3258 -23.404 25.6468 -23.9138 21.8235C-24.4234 17.9988 -18.4661 13.4785 -10.6077 11.7258C-2.75196 9.97352 4.03123 11.6521 4.54131 15.4765C5.05091 19.2998 -0.906422 23.821 -8.76212 25.573ZM-10.8538 9.87758C-20.8102 12.0983 -28.3573 17.825 -27.7115 22.6704C-27.0663 27.5149 -18.4721 29.6427 -8.51615 27.4217C1.43747 25.2016 8.98405 19.4736 8.33871 14.6291C7.69337 9.78394 -0.900452 7.65683 -10.8538 9.87758Z" fill="#F4DD62"/>
<path d="M-20.0332 28.0114C-19.0817 27.3994 -18.1227 26.7702 -17.1724 26.1306C-14.7396 26.4178 -11.8349 26.2589 -8.7632 25.5736C-0.90752 23.8215 5.04981 19.3003 4.5402 15.477C4.23291 13.1702 1.64145 11.646 -2.08888 11.1825C-1.69961 10.4448 -1.36523 9.74051 -1.07816 9.08337C4.19111 9.50696 7.92099 11.501 8.33805 14.6294C8.98339 19.4739 1.4366 25.202 -8.51678 27.422C-12.7774 28.3722 -16.7874 28.5256 -20.0332 28.0114Z" fill="#F4DD62"/>
</g>
<path d="M-1.68916 61.4973C-4.44068 67.9573 -4.4792 75.1475 -1.17995 80.7967C4.31118 90.2082 16.9827 91.7799 27.1169 84.312C31.1681 81.3272 34.2014 77.3497 36.0332 73.0491C38.7837 66.5885 38.8223 59.3975 35.5258 53.7475C30.0309 44.3382 17.3626 42.7636 7.2243 50.234C3.17406 53.2189 0.141005 57.1963 -1.68916 61.4973Z" fill="url(#paint3_linear_964_172445)"/>
<path d="M7.52754 88.4536L3.38053 87.1807L3.57783 86.7167C1.26037 85.3223 -0.73202 83.3531 -2.21019 80.82C-5.56675 75.0719 -5.52792 67.7548 -2.72786 61.1799C-0.864493 56.8028 2.22149 52.7554 6.34376 49.7181C11.1234 46.1968 16.4542 44.6534 21.3572 44.96L21.5585 44.4873L25.5493 45.7047L25.5586 45.7125C29.5002 46.9118 32.9075 49.4627 35.1445 53.2934C38.4995 59.043 38.4603 66.3607 35.6612 72.9356C33.7972 77.313 30.7103 81.3604 26.5877 84.3975C20.4543 88.9176 13.4076 90.1831 7.52848 88.4521L7.52754 88.4536Z" fill="url(#paint4_linear_964_172445)"/>
<path d="M-6.72613 59.9603C-9.52587 66.5346 -9.56502 73.8517 -6.20752 79.6004C-0.619617 89.178 12.2761 90.7788 22.5895 83.1779C26.7123 80.1409 29.7993 76.0928 31.6626 71.716C34.4624 65.1408 34.5012 57.8235 31.1468 52.0735C25.5546 42.4978 12.6629 40.8957 2.34611 48.4982C-1.77647 51.5358 -4.86214 55.5835 -6.72613 59.9603Z" fill="url(#paint5_linear_964_172445)"/>
<path d="M-4.08645 60.7704C-6.30401 65.9777 -6.33564 71.7745 -3.67557 76.3271C0.750782 83.9139 10.9655 85.1819 19.1348 79.1612C22.4006 76.7555 24.8455 73.5492 26.3218 70.0819C28.5397 64.8743 28.5707 59.0778 25.9134 54.523C21.4833 46.9377 11.2717 45.6689 3.09893 51.6911C-0.165869 54.0968 -2.61079 57.3034 -4.08645 60.7704Z" fill="#A65818"/>
<path d="M-2.52747 61.2457C-4.71372 66.3818 -4.74472 72.0978 -2.12223 76.5889C2.24337 84.0708 12.3171 85.3206 20.3744 79.3833C23.595 77.0107 26.0064 73.8485 27.4621 70.4293C29.6486 65.2928 29.6796 59.5762 27.059 55.0848C22.6903 47.6045 12.6196 46.3524 4.55927 52.2916C1.33956 54.6649 -1.07123 57.8268 -2.52747 61.2457Z" fill="#E78225"/>
<path d="M26.7619 70.2173C25.3063 73.6359 22.8949 76.7984 19.6752 79.171C11.6151 85.1077 1.54415 83.8573 -2.82208 76.3769C-5.44457 71.8855 -5.4145 66.1718 -3.22701 61.0356C-1.77139 57.6161 0.64065 54.4526 3.8613 52.0797C11.9189 46.1427 21.9898 47.3925 26.3585 54.8738C28.9804 59.3652 28.9491 65.0799 26.7619 70.2173ZM-7.22964 59.8073C-10.0009 66.3141 -10.0391 73.5559 -6.71635 79.246C-1.18545 88.7252 11.5772 90.3094 21.785 82.7869C25.8656 79.7808 28.9206 75.7746 30.7655 71.4428C33.5361 64.9356 33.5752 57.6929 30.2547 52.0019C24.72 42.5246 11.9605 40.9385 1.74896 48.4635C-2.33134 51.4696 -5.386 55.4755 -7.22964 59.8073Z" fill="#F4DD62"/>
<path d="M17.8632 54.0964L14.7202 55.2841L14.9326 56.3744C14.6354 56.3151 14.2714 56.2711 13.8377 56.2439C13.4077 56.2149 12.9289 56.2268 12.4006 56.2726L11.8353 53.3496L11.1827 53.1504L10.8241 53.6543L10.8397 53.7252L8.73053 54.5201L9.22533 57.067C8.30587 57.4154 7.45592 57.8691 6.66642 58.4323C5.87942 58.9965 5.21018 59.6253 4.66119 60.3219C4.26158 60.8286 3.94215 61.3635 3.70288 61.9261C3.613 62.1372 3.5344 62.3523 3.46707 62.5712C3.21591 63.3761 3.17519 64.2141 3.34462 65.0843C3.57511 66.2645 4.00165 67.1253 4.62454 67.6673C5.24869 68.205 5.95928 68.5625 6.75473 68.742C7.54831 68.9178 8.38416 68.9656 9.2673 68.88C10.1464 68.7966 10.9606 68.7189 11.706 68.644C12.4529 68.5668 13.088 68.5603 13.6141 68.6224C14.1409 68.6842 14.4459 68.9322 14.5298 69.3652C14.5618 69.5307 14.5361 69.7105 14.4534 69.9054C14.4052 70.0187 14.3375 70.137 14.2505 70.26C14.0143 70.5919 13.5978 70.872 12.9956 71.0996C12.1178 71.4325 11.2766 71.4637 10.4696 71.1927C9.66221 70.9213 9.05466 70.3537 8.64722 69.4913L7.99426 69.2921L7.82264 69.803L4.6709 70.9935L5.67649 76.1845L5.2869 77.3435L5.93955 77.5424L9.91556 76.0406L9.71106 74.9772C10.7705 75.1523 11.7727 75.1739 12.7106 75.049L13.0827 76.971L12.586 77.5792L13.2389 77.7784L16.3428 76.6042L15.8624 74.1176C16.7696 73.7308 17.6224 73.2708 18.4159 72.7366C19.2073 72.2052 19.8825 71.6001 20.4353 70.9254C20.8465 70.4224 21.1747 69.8866 21.4167 69.3184C21.4991 69.1235 21.5721 68.9256 21.6347 68.7236C21.878 67.9299 21.9156 67.0913 21.7431 66.1986C21.5091 64.9965 21.0782 64.1164 20.4444 63.5578C19.8089 63.0024 19.0927 62.6355 18.2879 62.4638C17.484 62.2886 16.6299 62.2462 15.7274 62.3326C14.8248 62.4188 13.9946 62.4991 13.2364 62.5734C12.4807 62.6483 11.8328 62.6652 11.2938 62.6239C10.7583 62.5834 10.4451 62.347 10.3618 61.9108C10.3217 61.7048 10.3424 61.5074 10.4229 61.3176C10.4818 61.1799 10.5723 61.046 10.6938 60.9158C10.9847 60.6045 11.3784 60.355 11.8754 60.1664C12.2737 60.0178 12.6862 59.9397 13.1115 59.936C13.5393 59.9335 13.9364 59.995 14.3028 60.1208C14.6736 60.2445 15.0071 60.4409 15.3024 60.7031C15.4001 60.7884 15.4862 60.8833 15.5674 60.9829L15.3084 61.4815L15.961 61.6804L19.9827 60.1605L18.7416 53.7645L18.0896 53.5657L17.8632 54.0964Z" fill="#CE8046"/>
<path d="M3.05014 61.7279C2.96057 61.9386 2.88165 62.1538 2.81463 62.3726C2.56378 63.1782 2.52276 64.0156 2.69218 64.8857C2.92299 66.0663 3.34921 66.9268 3.9718 67.4685C4.59532 68.0068 5.3059 68.3639 6.10136 68.5435C6.89556 68.7192 7.73141 68.7664 8.61424 68.6815C9.49393 68.5984 10.3072 68.5201 11.0532 68.4457C11.8001 68.368 12.4349 68.3614 12.961 68.4236C13.4872 68.4857 13.7931 68.7336 13.8774 69.1667C13.9087 69.3318 13.8833 69.5117 13.8 69.7068C13.7524 69.8198 13.6845 69.9385 13.5974 70.0615C13.361 70.3934 12.9451 70.6738 12.3425 70.9008C11.4644 71.2339 10.6235 71.2651 9.81618 70.9944C9.00914 70.7234 8.40128 70.1549 7.99385 69.2931L4.01783 70.7952L5.28649 77.3442L9.26281 75.8417L9.058 74.7783C10.1178 74.9541 11.1196 74.9756 12.0579 74.8507L12.5856 77.5796L15.6897 76.4047L15.2093 73.9187C16.1169 73.5316 16.9699 73.0717 17.7629 72.5375C18.5543 72.006 19.2295 71.4006 19.7822 70.7262C20.1937 70.2236 20.5216 69.6875 20.7637 69.1189C20.8464 68.9247 20.9193 68.7264 20.982 68.5244C21.225 67.7311 21.2629 66.8924 21.09 66.0001C20.8561 64.7974 20.4245 63.9175 19.791 63.3586C19.1559 62.8026 18.4393 62.4366 17.6342 62.2649C16.8309 62.0901 15.9772 62.047 15.0746 62.1332C14.1718 62.22 13.3419 62.3002 12.5834 62.3742C11.828 62.4494 11.1791 62.4657 10.6414 62.4242C10.1059 62.3833 9.79238 62.1478 9.70939 61.7117C9.66868 61.5056 9.68935 61.3079 9.77078 61.1181C9.82903 60.9798 9.91953 60.8462 10.0414 60.7166C10.3323 60.4047 10.7256 60.1558 11.2233 59.9663C11.6216 59.8174 12.0341 59.7396 12.4587 59.7359C12.8862 59.7331 13.2833 59.7949 13.6503 59.9204C14.0208 60.0447 14.355 60.2411 14.6503 60.5037C14.9472 60.7631 15.168 61.0903 15.3083 61.4809L19.3297 59.9607L18.0914 53.5651L14.069 55.0859L14.2807 56.1759C13.9839 56.1175 13.6203 56.0732 13.1862 56.046C12.7559 56.0167 12.2774 56.0288 11.7488 56.0747L11.1835 53.1514L8.07778 54.3222L8.57384 56.8693C7.65437 57.2178 6.80411 57.6715 6.01461 58.235C5.2273 58.7992 4.55868 59.4277 4.00938 60.124C3.60977 60.6304 3.29002 61.1653 3.05014 61.7279Z" fill="#FFD647"/>
<defs>
<linearGradient id="paint0_linear_964_172445" x1="-25.7908" y1="21.6333" x2="8.03922" y2="27.9427" gradientUnits="userSpaceOnUse">
<stop stop-color="#CE7E24"/>
<stop offset="1" stop-color="#EEAF4D"/>
</linearGradient>
<linearGradient id="paint1_linear_964_172445" x1="9.68308" y1="20.6012" x2="-27.4737" y2="27.1552" gradientUnits="userSpaceOnUse">
<stop stop-color="#CE7E24"/>
<stop offset="1" stop-color="#EEAF4D"/>
</linearGradient>
<linearGradient id="paint2_linear_964_172445" x1="-25.3242" y1="28.4747" x2="6.07089" y2="9.99705" gradientUnits="userSpaceOnUse">
<stop stop-color="#CE7E24"/>
<stop offset="1" stop-color="#EEAF4D"/>
</linearGradient>
<linearGradient id="paint3_linear_964_172445" x1="36.815" y1="55.9833" x2="-2.41302" y2="78.6701" gradientUnits="userSpaceOnUse">
<stop stop-color="#CE7E24"/>
<stop offset="1" stop-color="#EEAF4D"/>
</linearGradient>
<linearGradient id="paint4_linear_964_172445" x1="24.3494" y1="45.2542" x2="8.60657" y2="89.0585" gradientUnits="userSpaceOnUse">
<stop stop-color="#CE7E24"/>
<stop offset="1" stop-color="#EEAF4D"/>
</linearGradient>
<linearGradient id="paint5_linear_964_172445" x1="32.4587" y1="54.3492" x2="-7.4622" y2="77.4367" gradientUnits="userSpaceOnUse">
<stop stop-color="#CE7E24"/>
<stop offset="1" stop-color="#EEAF4D"/>
</linearGradient>
</defs>
</svg>
