<svg width="91" height="35" viewBox="0 0 91 35" fill="none" xmlns="http://www.w3.org/2000/svg">
<path d="M29.0574 2.80755V7.66074H10.7871C10.7871 7.66074 10.239 7.62744 9.90692 7.98837C9.59283 8.32922 9.61934 8.7974 9.61934 8.7974L9.61784 9.46342H29.0219V14.2123H9.61084L9.61584 14.8636C9.61584 14.8636 9.63285 15.3431 9.92592 15.5968C10.3305 15.9479 10.7021 15.9107 10.7021 15.9107H29.0574V20.7639H8.08294C8.08294 20.7639 5.87437 20.9245 4.4805 19.4818C3.12865 18.0821 3.16854 16.3157 3.16854 16.3157L3.17216 7.45163C3.17216 7.45163 3.03613 5.49419 4.4765 3.9638C5.6343 2.73361 7.73885 2.8007 7.73885 2.8007L29.0574 2.80755Z" fill="#6B6C77"/>
<path d="M5.07415 34.5713C6.7946 34.5713 7.42577 33.635 7.42577 32.7368C7.42577 30.4057 3.64978 31.2108 3.64978 29.8068C3.64978 29.2176 4.20443 28.8151 4.95962 28.8151C5.6573 28.8151 6.32648 29.0394 6.8041 29.5634L7.28223 28.9928C6.74709 28.4404 5.99189 28.1128 5.02664 28.1128C3.76481 28.1128 2.82807 28.8244 2.82807 29.8538C2.82807 32.0815 6.60355 31.1829 6.60355 32.7926C6.60355 33.2794 6.24046 33.8783 5.10316 33.8783C4.33517 33.879 3.60525 33.5509 3.10514 32.9802L2.62701 33.5791C3.15315 34.159 3.97487 34.5713 5.07415 34.5713Z" fill="#6B6C77"/>
<path d="M18.5707 34.4586V28.9085H20.5967V28.2156H15.7604V28.9085H17.7775V34.4586H18.5707Z" fill="#6B6C77"/>
<path d="M31.8951 34.5712C33.6251 34.5712 34.5043 33.5791 34.5043 32.0252V28.2161H33.7016V32.0159C33.7016 33.1579 33.0704 33.8783 31.8946 33.8783C30.7193 33.8783 30.0977 33.1579 30.0977 32.0159V28.2156H29.295V32.0345C29.295 33.5698 30.1742 34.5712 31.8946 34.5712" fill="#6B6C77"/>
<path d="M45.8213 28.2156C47.8098 28.2156 49.0901 29.5731 49.0901 31.342C49.0901 33.1202 47.8093 34.4586 45.8213 34.4586H43.6422V28.2156H45.8213ZM45.8213 28.908H44.4354V33.7661H45.8213C47.3697 33.7661 48.2684 32.6804 48.2684 31.342C48.2684 29.9943 47.3987 28.908 45.8213 28.908Z" fill="#6B6C77"/>
<path d="M57.9794 34.4586H58.7727V28.2161H57.9794V34.4586Z" fill="#6B6C77"/>
<path d="M70.8163 28.1128C72.6993 28.1128 73.9896 29.4982 73.9896 31.342C73.9896 33.1859 72.6993 34.5708 70.8163 34.5708C68.9333 34.5708 67.6525 33.1859 67.6525 31.342C67.6525 29.4982 68.9333 28.1128 70.8163 28.1128ZM70.8163 28.8053C69.3824 28.8053 68.4747 29.8822 68.4747 31.3416C68.4747 32.7926 69.3824 33.8783 70.8163 33.8783C72.2407 33.8788 73.1679 32.7926 73.1679 31.342C73.1679 29.8817 72.2407 28.8053 70.8163 28.8053Z" fill="#6B6C77"/>
<path d="M84.934 34.5713C86.6544 34.5713 87.2856 33.635 87.2856 32.7368C87.2856 30.4057 83.5096 31.2108 83.5096 29.8068C83.5096 29.2176 84.0642 28.8151 84.8194 28.8151C85.5171 28.8151 86.1863 29.0394 86.6639 29.5634L87.1421 28.9928C86.6069 28.4404 85.8517 28.1128 84.8865 28.1128C83.6246 28.1128 82.6879 28.8244 82.6879 29.8538C82.6879 32.0815 86.4639 31.1829 86.4639 32.7926C86.4639 33.2794 86.1003 33.8783 84.963 33.8783C84.195 33.8789 83.4651 33.5508 82.965 32.9802L82.4868 33.5791C83.013 34.159 83.8347 34.5713 84.934 34.5713Z" fill="#6B6C77"/>
<path d="M30.5568 2.77185H36.9645V15.875H56.6476V20.7629H30.5568V2.77185Z" fill="#6B6C77"/>
<path d="M74.7023 2.8761H82.3493L71.5165 11.6461L82.5258 20.6938H74.4902L64.1335 12.2005L64.117 20.6938H57.8504V2.8761H64.117L64.0805 10.3288" fill="#6B6C77"/>
<path d="M39.7954 0V13.1036H55.0203V0.104312H66.9619L66.9384 4.91391L73.7932 0.104312H90.2155L75.9393 11.6623L90.303 23.4657H73.4611L66.9529 18.1287L66.9429 23.4657H59.4785L31.8883 23.5353V23.5362L7.88203 23.5416C6.86677 23.5416 4.3031 23.331 2.42411 21.3868C0.519537 19.4155 0.346691 17.0602 0.337754 16.3906L0.337494 16.2971L0.342067 7.5173C0.310559 6.7401 0.387079 4.22046 2.3946 2.08525C4.19107 0.176791 6.89478 0.0284041 7.67998 0.0284041L39.7954 0ZM38.3805 1.38544L7.68048 1.41384C7.04032 1.41384 4.84174 1.5299 3.43637 3.02406C1.72943 4.83849 1.73643 7.04079 1.75744 7.48791L1.75324 16.3049C1.74943 16.6242 1.78944 18.7134 3.45238 20.4343C4.95327 21.9877 7.05032 22.1552 7.88203 22.1552C7.98706 22.1552 8.06858 22.1528 8.1221 22.1498H30.4729V22.1493L58.0631 22.0793H65.5301L65.5441 15.1649L73.9763 22.0798H86.415L73.7282 11.654L86.283 1.49024H74.2483L65.5101 7.62161L65.5401 1.49024H56.4362V14.489H38.3805V1.38544Z" fill="#6B6C77"/>
<path d="M29.0574 2.80755V7.66074H10.7871C10.7871 7.66074 10.239 7.62744 9.90692 7.98837C9.59283 8.32922 9.61934 8.7974 9.61934 8.7974L9.61784 9.46342H29.0219V14.2123H9.61084L9.61584 14.8636C9.61584 14.8636 9.63285 15.3431 9.92592 15.5968C10.3305 15.9479 10.7021 15.9107 10.7021 15.9107H29.0574V20.7639H8.08294C8.08294 20.7639 5.87437 20.9245 4.4805 19.4818C3.12865 18.0821 3.16854 16.3157 3.16854 16.3157L3.17216 7.45163C3.17216 7.45163 3.03613 5.49419 4.4765 3.9638C5.6343 2.73361 7.73885 2.8007 7.73885 2.8007L29.0574 2.80755Z" fill="#6B6C77"/>
<path d="M30.5568 2.77185H36.9645V15.875H56.6476V20.7629H30.5568V2.77185Z" fill="#6B6C77"/>
<path d="M74.7023 2.8761H82.3493L71.5165 11.6461L82.5258 20.6938H74.4902L64.1335 12.2005L64.117 20.6938H57.8504V2.8761H64.117L64.0805 10.3288" fill="#6B6C77"/>
</svg>
