<svg width="141" height="19" viewBox="0 0 141 19" fill="none" xmlns="http://www.w3.org/2000/svg">
<path d="M17.519 7.30612H8.89942V11.399H12.3019C11.6214 12.663 10.3738 13.5056 8.89942 13.5056C6.74453 13.5056 5.0433 11.6398 5.0433 9.41276C5.0433 7.12555 6.80123 5.31987 8.89942 5.31987C9.46649 5.31987 10.0336 5.44025 10.5439 5.681L12.8122 1.04641C11.6214 0.444511 10.3171 0.083374 8.89942 0.083374C4.02256 0.083374 0.109741 4.23645 0.109741 9.41276C0.109741 14.5891 4.07927 18.7421 8.89942 18.7421C13.7763 18.7421 17.6891 14.5289 17.6891 9.41276C17.6891 8.75067 17.6324 8.0284 17.519 7.30612ZM72.2418 13.0843C70.3137 13.0843 68.7826 11.4592 68.7826 9.41276C68.7826 7.36631 70.3137 5.74119 72.2418 5.74119C74.1698 5.74119 75.7009 7.36631 75.7009 9.41276C75.7009 11.4592 74.1131 13.0843 72.2418 13.0843ZM72.2418 0.083374C67.3649 0.083374 63.4521 4.29664 63.4521 9.41276C63.4521 14.5891 67.4216 18.7421 72.2418 18.7421C77.1186 18.7421 81.0315 14.5289 81.0315 9.41276C81.0315 6.94498 80.1241 4.5374 78.4796 2.7919C76.7784 1.04641 74.5668 0.083374 72.2418 0.083374ZM84.9443 0.745459H90.615L94.1309 6.8246L97.6468 0.745459H103.318V18.0801H97.9303V9.53314L94.1309 15.7327H94.0175L90.2181 9.53314V18.0801H84.8876L84.9443 0.745459ZM41.1093 0.745459H46.7801L50.2959 6.8246L53.8118 0.745459H59.4826V18.0801H54.0386V9.53314L50.2392 15.7327H50.1258L46.3264 9.53314V18.0801H40.9959L41.1093 0.745459ZM130.651 5.681H125.887V0.745459H140.971V5.62081H136.151V18.0801H130.707L130.651 5.681ZM117.268 11.7L115.793 7.48669L114.319 11.7H117.268ZM113.185 0.745459H118.572L125.433 18.0199H119.536L118.685 15.7327H113.015L112.164 18.0199H106.38L113.185 0.745459ZM29.9946 11.7L28.5202 7.48669L27.0458 11.7H29.9946ZM25.855 0.745459H31.2422L38.1038 18.0199H32.2062L31.3556 15.7327H25.6849L24.8342 18.0199H19.1068L25.855 0.745459Z" fill="#6B6C77"/>
</svg>
