<svg width="96" height="28" viewBox="0 0 96 28" fill="none" xmlns="http://www.w3.org/2000/svg">
<path d="M7.19707 10.9799H9.89915V13.217L14.1775 13.3311V0.798952C14.1775 0.661988 14.1099 0.547852 13.9973 0.547852H10.0793C9.96671 0.547852 9.89915 0.639161 9.89915 0.798952V6.73405H7.19707V0.798952C7.19707 0.661988 7.12952 0.547852 7.01693 0.547852H3.14395C3.03136 0.547852 2.96381 0.639161 2.96381 0.798952V13.0572L7.19707 13.1714V10.9799Z" fill="#6B6C77"/>
<path d="M24.0851 0.753297C24.0401 0.616333 23.9725 0.570679 23.8825 0.570679H19.6717C19.5816 0.570679 19.5141 0.616333 19.4691 0.753297L15.8888 13.3768L27.6654 13.6964L24.0851 0.753297ZM20.64 11.368L21.7433 4.22305L22.8241 11.368H20.64Z" fill="#6B6C77"/>
<path d="M44.2156 13.5138L46.0846 10.7517L47.5032 14.1986L51.8941 14.3127L48.6516 6.98515L52.8173 0.821779C52.9299 0.661988 52.8623 0.525024 52.7047 0.525024H48.2913C48.2012 0.525024 48.1111 0.593506 48.0886 0.661988L44.2381 6.9395V0.776125C44.2381 0.639161 44.1706 0.525024 44.058 0.525024H40.4552C40.3426 0.525024 40.2751 0.616334 40.2751 0.776125V13.9931L44.2381 14.1073L44.2156 13.5138Z" fill="#6B6C77"/>
<path d="M65.0217 11.9843C65.0217 5.41007 57.7261 7.76129 57.7261 5.15897C57.7261 4.40567 58.3566 4.08609 59.1897 4.08609C60.1805 4.08609 61.1712 4.54263 62.1395 5.56986C62.1845 5.63835 62.2746 5.66117 62.3421 5.61552C62.3646 5.59269 62.3872 5.56986 62.3872 5.54704L64.3687 2.7621C64.4362 2.6708 64.4362 2.511 64.3462 2.4197C62.9726 0.753301 61.3288 0 59.3473 0C56.6452 0 53.7405 1.34681 53.7405 5.66117C53.7405 12.555 61.1262 9.81574 61.1262 12.6463C61.1262 13.5138 60.4281 13.9475 59.4374 13.9475C58.1989 13.9475 56.9605 13.3083 55.722 11.5963C55.6545 11.505 55.5419 11.4821 55.4743 11.5963L53.5378 14.3812L64.5038 14.678C64.8641 13.8105 65.0217 12.8974 65.0217 11.9843Z" fill="#6B6C77"/>
<path d="M74.0061 0.753297C73.9611 0.616333 73.8935 0.570679 73.8035 0.570679H69.5702C69.4801 0.570679 69.4126 0.616333 69.3675 0.753297L65.427 14.678L77.9467 14.9975L74.0061 0.753297ZM70.561 11.368L71.6868 4.22305L72.7677 11.368H70.561Z" fill="#6B6C77"/>
<path d="M85.7828 8.10369L86.8861 15.2486L91.4571 15.3628L95.4652 0.821779C95.5103 0.661988 95.4427 0.547852 95.3301 0.547852H91.5697C91.4571 0.547852 91.3896 0.616334 91.3671 0.776125L89.363 9.22223L87.7418 0.776125C87.7193 0.661988 87.6517 0.547852 87.5391 0.547852H84.0264C83.9138 0.547852 83.8463 0.639161 83.8238 0.776125L82.2025 9.22223L80.1985 0.776125C80.1759 0.639161 80.1084 0.547852 79.9958 0.547852H76.2354C76.1228 0.547852 76.0553 0.639161 76.1003 0.821779L80.0183 15.066L84.6794 15.1802L85.7828 8.10369Z" fill="#6B6C77"/>
<path d="M38.4287 12.6225C38.4287 12.5997 38.4062 12.554 38.3837 12.554C38.3611 12.554 38.3386 12.554 38.3161 12.5769C37.7757 13.3758 36.8975 13.8552 35.9293 13.8324C33.8577 13.8324 32.8669 11.7323 32.8669 8.94733C32.8669 6.4135 33.6775 4.17642 35.9743 4.17642C36.92 4.13077 37.7982 4.61014 38.3161 5.38627C38.3386 5.4091 38.3837 5.43192 38.4062 5.4091C38.4287 5.38627 38.4287 5.38627 38.4287 5.36344V0.70667C38.4287 0.592533 38.3611 0.501224 38.2711 0.455569C37.483 0.181642 36.6273 0.0446777 35.7942 0.0446777C31.2006 0.0446777 28.2508 4.13077 28.2508 9.28974C28.2283 10.8192 28.521 12.3258 29.1065 13.7182L38.4287 13.9693V12.6225Z" fill="#6B6C77"/>
<path d="M7.87261 17.9651C7.87261 18.1021 7.94017 18.1934 8.05275 18.1934H11.9483C12.0608 18.1934 12.1284 18.1021 12.1284 17.9651V14.016L7.8501 13.9019L7.87261 17.9651Z" fill="#6B6C77"/>
<path d="M1.11739 18.1934H4.99038C5.10297 18.1934 5.19304 18.1021 5.19304 17.9651V13.8105L0.937256 13.7192V17.9651C0.937256 18.1021 1.00481 18.1934 1.11739 18.1934Z" fill="#6B6C77"/>
<path d="M12.9165 18.1934H16.812C16.9246 18.1934 16.9921 18.1021 17.0146 18.0108L17.51 15.8194H21.8784L22.3738 18.0108C22.3963 18.1249 22.4864 18.1934 22.5764 18.1934H26.4719C26.607 18.1934 26.6521 18.0793 26.607 17.8966L25.6163 14.3356L13.8397 14.016L12.7363 17.8738C12.7138 18.0793 12.7814 18.1934 12.9165 18.1934Z" fill="#6B6C77"/>
<path d="M46.7601 18.0336C46.7826 18.1249 46.8727 18.1934 46.9628 18.1934H51.0384C51.1735 18.1934 51.2411 18.0792 51.1735 17.8966L49.8675 14.9747L45.4766 14.8606L46.7601 18.0336Z" fill="#6B6C77"/>
<path d="M38.4061 18.1934H42.0089C42.1215 18.1934 42.1891 18.1021 42.1891 17.9651V14.7921L38.226 14.678V17.9423C38.226 18.1021 38.2936 18.1934 38.4061 18.1934Z" fill="#6B6C77"/>
<path d="M51.2185 15.8193C52.6146 17.6684 54.7763 18.7641 57.073 18.7641C59.3923 18.7641 61.554 17.6227 62.4997 15.34L51.5338 15.0432L51.2185 15.4998C51.151 15.5911 51.151 15.728 51.2185 15.8193Z" fill="#6B6C77"/>
<path d="M62.8376 18.1934H66.7331C66.8456 18.1934 66.9357 18.1021 66.9582 18.0108L67.4536 15.8193H71.822L72.3174 18.0108C72.3399 18.1249 72.4299 18.1934 72.5425 18.1934H76.4155C76.5506 18.1934 76.5957 18.0792 76.5506 17.8966L75.9201 15.6595L63.4005 15.34L62.6799 17.8966C62.6349 18.0792 62.725 18.1934 62.8376 18.1934Z" fill="#6B6C77"/>
<path d="M85.1973 17.9879C85.2198 18.1021 85.2873 18.1934 85.3999 18.1934H88.71C88.8226 18.1934 88.8901 18.1249 88.9126 17.9879L89.453 16.0248L84.882 15.9106L85.1973 17.9879Z" fill="#6B6C77"/>
<path d="M78.8248 18.1934H82.1349C82.2475 18.1934 82.3151 18.1021 82.3376 17.9879L82.6753 15.865L78.0142 15.7509L78.6447 18.0108C78.6447 18.1249 78.7123 18.1934 78.8248 18.1934Z" fill="#6B6C77"/>
<path d="M33.8352 18.8554C34.6458 18.8554 35.4564 18.7412 36.222 18.4901C36.3346 18.4445 36.4021 18.3532 36.4021 18.239V14.6323L27.08 14.3812C28.2734 17.1205 30.6377 18.8554 33.8352 18.8554Z" fill="#6B6C77"/>
<path d="M6.79179 23.6947H5.32816V23.0099C5.32816 22.8958 5.26061 22.8273 5.12551 22.8273H4.83278C4.69768 22.8273 4.63012 22.8958 4.63012 23.0099V26.0459C4.63012 26.1601 4.69768 26.2285 4.83278 26.2285H5.14802C5.28313 26.2285 5.35068 26.1601 5.35068 26.0459V25.1557H4.92285V24.2426H6.79179V26.1601C6.79179 26.8449 6.38648 27.1873 5.55334 27.1873H4.35992C3.52677 27.1873 3.12146 26.8449 3.12146 26.1601V22.8958C3.12146 22.2109 3.52677 21.8685 4.35992 21.8685H5.55334C6.38648 21.8685 6.79179 22.2109 6.79179 22.8958V23.6947Z" fill="#6B6C77"/>
<path d="M22.5089 27.1645L22.3287 26.3655H21.0227L20.8426 27.1645H19.379L20.775 21.8685H22.5764L23.9725 27.1645H22.5089ZM21.2704 25.3383H22.1261L21.7208 23.4208L21.2704 25.3383Z" fill="#6B6C77"/>
<path d="M38.0233 27.1645H36.6948V21.8685H38.2936L39.1943 24.6991L40.0724 21.8685H41.6712V27.1645H40.3652V23.8089L39.6896 26.0459H38.6764L38.0008 23.8317L38.0233 27.1645Z" fill="#6B6C77"/>
<path d="M54.7313 21.8685H56.2174V27.1645H54.7313V21.8685Z" fill="#6B6C77"/>
<path d="M71.7318 21.8685H73.0829V27.1645H71.8219L70.606 24.3795V27.1645H69.2549V21.8685H70.5159L71.7318 24.6991V21.8685Z" fill="#6B6C77"/>
<path d="M89.7683 23.6947H88.3047V23.0099C88.3047 22.8958 88.2371 22.8273 88.102 22.8273H87.7868C87.6517 22.8273 87.5841 22.8958 87.5841 23.0099V26.0459C87.5841 26.1601 87.6517 26.2285 87.7868 26.2285H88.0795C88.2146 26.2285 88.2821 26.1601 88.2821 26.0459V25.1557H87.8543V24.2426H89.7683V26.1601C89.7683 26.8449 89.363 27.1873 88.5298 27.1873H87.3364C86.5033 27.1873 86.098 26.8449 86.098 26.1601V22.8958C86.098 22.2109 86.5033 21.8685 87.3364 21.8685H88.5298C89.363 21.8685 89.7683 22.2109 89.7683 22.8958V23.6947Z" fill="#6B6C77"/>
</svg>
