<svg width="143" height="30" viewBox="0 0 143 30" fill="none" xmlns="http://www.w3.org/2000/svg">
<path d="M7.1233 29.2657C8.6606 29.2657 9.9544 28.8999 11.0047 28.1685C12.055 27.437 12.8442 26.3894 13.3723 25.0257C13.9003 23.662 14.1644 21.5854 14.1644 18.7959V1.53845H9.88693V19.1492C9.88693 21.4304 9.67569 22.9026 9.25323 23.5659C8.83076 24.2291 8.1736 24.5608 7.28172 24.5608C6.36638 24.5608 5.67988 24.1021 5.2222 23.1847C4.88189 22.5152 4.68826 21.3808 4.64131 19.7815L0.610291 20.3766C0.622026 23.352 1.20292 25.5774 2.35296 27.0527C3.50301 28.528 5.09312 29.2657 7.1233 29.2657Z" fill="#6B6C77"/>
<path d="M22.9834 28.8008V17.2152H31.8375V12.6033H22.9834V6.15036H33.2281V1.53845H18.7235V28.8008H22.9834Z" fill="#6B6C77"/>
<path d="M45.7789 28.8008V6.15036H52.0455V1.53845H35.2349V6.15036H41.519V28.8008H45.7789Z" fill="#6B6C77"/>
<path d="M62.431 28.8008L66.6205 8.41912L70.8451 28.8008H75.3866L80.5266 1.53845H76.2316L72.9751 20.5812L69.2609 1.53845H64.1737L60.3011 20.265L57.1326 1.53845H52.7495L57.8015 28.8008H62.431Z" fill="#6B6C77"/>
<path d="M87.2671 11.4673C87.882 11.4673 88.3995 11.3211 88.8196 11.0285C89.2397 10.7359 89.5554 10.3169 89.7667 9.77136C89.9779 9.22587 90.0835 8.39523 90.0835 7.27944V0.376465H88.3725V7.42078C88.3725 8.33324 88.288 8.92212 88.119 9.18743C87.9501 9.45274 87.6872 9.5854 87.3304 9.5854C86.9643 9.5854 86.6897 9.40191 86.5066 9.03494C86.3705 8.76715 86.293 8.3134 86.2743 7.67369L84.6619 7.91172C84.6666 9.10189 84.8989 9.99203 85.3589 10.5822C85.8189 11.1723 86.455 11.4673 87.2671 11.4673Z" fill="#6B6C77"/>
<path d="M95.3573 11.4673C96.2069 11.4673 96.8911 11.2653 97.4098 10.8611C97.9285 10.4569 98.2618 9.92881 98.4096 9.2767C98.5575 8.62458 98.6314 7.56707 98.6314 6.10415V0.376465H96.9204L96.9196 6.65304C96.9131 7.60183 96.8676 8.22843 96.7831 8.53284C96.6916 8.86262 96.5215 9.12049 96.2727 9.30645C96.0239 9.49241 95.7023 9.5854 95.308 9.5854C94.8433 9.5854 94.469 9.45398 94.185 9.19115C93.901 8.92832 93.7215 8.5564 93.6463 8.07537C93.6041 7.79766 93.583 7.2001 93.583 6.28268V0.376465H91.879V6.19341C91.879 7.82494 91.9905 8.94444 92.2135 9.55192C92.4364 10.1594 92.7955 10.6305 93.2908 10.9652C93.786 11.3 94.4748 11.4673 95.3573 11.4673Z" fill="#6B6C77"/>
<path d="M103.462 11.4748C104.635 11.4748 105.498 11.1525 106.049 10.5078C106.601 9.86315 106.877 9.06723 106.877 8.12005C106.877 7.46546 106.776 6.90881 106.574 6.4501C106.372 5.99138 106.08 5.61698 105.697 5.32687C105.315 5.03677 104.694 4.7603 103.835 4.49747C103.023 4.25448 102.504 4.03133 102.279 3.828C102.053 3.62468 101.941 3.37425 101.941 3.07671C101.941 2.77421 102.065 2.5213 102.314 2.31798C102.563 2.11466 102.917 2.013 103.377 2.013C103.837 2.013 104.192 2.12953 104.44 2.36261C104.689 2.59568 104.851 3.0048 104.926 3.58997L106.637 3.49327C106.604 2.43204 106.309 1.61627 105.75 1.04599C105.191 0.475696 104.415 0.190552 103.419 0.190552C102.758 0.190552 102.201 0.312048 101.751 0.555041C101.3 0.798034 100.947 1.15756 100.691 1.63363C100.435 2.1097 100.307 2.64527 100.307 3.24036C100.307 3.75114 100.407 4.22845 100.606 4.67228C100.806 5.11611 101.075 5.47441 101.413 5.74715C101.751 6.0199 102.283 6.27281 103.011 6.50588C103.823 6.76871 104.335 6.95592 104.546 7.0675C104.757 7.17907 104.914 7.32165 105.018 7.49521C105.121 7.66878 105.173 7.87954 105.173 8.12749C105.173 8.54901 105.025 8.90234 104.729 9.18748C104.433 9.47263 104.027 9.6152 103.511 9.6152C102.469 9.6152 101.854 8.91846 101.666 7.52497L99.9974 7.73325C100.232 10.2276 101.387 11.4748 103.462 11.4748Z" fill="#6B6C77"/>
<path d="M111.925 11.2814V2.22123H114.432V0.376465H107.707V2.22123H110.221V11.2814H111.925Z" fill="#6B6C77"/>
<path d="M120.543 11.2814V6.64717H124.085V4.80241H120.543V2.22123H124.641V0.376465H118.839V11.2814H120.543Z" fill="#6B6C77"/>
<path d="M129.816 0.190552C131.027 0.190552 132.014 0.679017 132.777 1.65595C133.54 2.63288 133.921 4.02389 133.921 5.82898C133.921 7.6539 133.518 9.07962 132.71 10.1061C132.001 11.0136 131.039 11.4674 129.823 11.4674C128.598 11.4674 127.631 11.0186 126.922 10.121C126.115 9.0945 125.711 7.68613 125.711 5.89592C125.711 4.59666 125.893 3.52674 126.257 2.68619C126.621 1.84563 127.096 1.21955 127.683 0.807952C128.27 0.396352 128.981 0.190552 129.816 0.190552ZM129.823 2.07251C129.129 2.07251 128.563 2.37749 128.127 2.98745C127.69 3.59741 127.472 4.54211 127.472 5.82154C127.472 7.07617 127.697 8.01715 128.148 8.64447C128.598 9.27179 129.157 9.58545 129.823 9.58545C130.495 9.58545 131.051 9.27427 131.492 8.65191C131.933 8.02955 132.154 7.07369 132.154 5.78435C132.154 4.51979 131.939 3.58501 131.51 2.98001C131.08 2.37501 130.518 2.07251 129.823 2.07251Z" fill="#6B6C77"/>
<path d="M138.857 0.376465L139.038 0.377771C139.864 0.389959 140.461 0.487465 140.829 0.670288C141.223 0.86617 141.547 1.20586 141.8 1.68937C142.054 2.17288 142.181 2.75184 142.181 3.42627C142.181 4.27923 141.987 4.96605 141.6 5.48675C141.212 6.00745 140.662 6.33475 139.949 6.46864C140.315 6.74635 140.617 7.05009 140.857 7.37986C141.096 7.70964 141.422 8.30101 141.836 9.15396L142.864 11.2814H140.829L139.589 8.90849L139.508 8.75139C139.106 7.98473 138.831 7.50028 138.681 7.29804C138.522 7.08232 138.353 6.93355 138.174 6.85173C137.996 6.7699 137.709 6.72899 137.315 6.72899H136.963V11.2814H135.259V0.376465H138.857ZM136.963 2.22123V4.98837H138.231C139.005 4.98837 139.498 4.95242 139.709 4.88051C139.92 4.8086 140.092 4.66355 140.223 4.44535C140.355 4.22716 140.42 3.93705 140.42 3.57504C140.42 3.22791 140.355 2.94897 140.223 2.73821C140.092 2.52745 139.913 2.3824 139.688 2.30305C139.542 2.25305 139.141 2.22596 138.486 2.22179L136.963 2.22123Z" fill="#6B6C77"/>
<path d="M88.9288 28.7689V19.7088H91.4354V17.864H84.7112V19.7088H87.2249V28.7689H88.9288Z" fill="#6B6C77"/>
<path d="M94.2518 28.7689V24.0008H97.6034V28.7689H99.3143V17.864H97.6034V22.1561H94.2518V17.864H92.5479V28.7689H94.2518Z" fill="#6B6C77"/>
<path d="M107.517 28.7689V26.9316H102.786V23.9636H107.038V22.1263H102.786V19.7088H107.362V17.864H101.082V28.7689H107.517Z" fill="#6B6C77"/>
<path d="M115.298 28.7689L116.973 20.6163L118.663 28.7689H120.48L122.536 17.864H120.818L119.515 25.4811L118.03 17.864H115.995L114.446 25.3546L113.178 17.864H111.425L113.446 28.7689H115.298Z" fill="#6B6C77"/>
<path d="M125.064 28.7689V17.864H123.36V28.7689H125.064Z" fill="#6B6C77"/>
<path d="M128.31 28.7689V21.6577L131.717 28.7689H133.435V17.864H131.844V25.1464L128.38 17.864H126.718V28.7689H128.31Z" fill="#6B6C77"/>
</svg>
