<svg width="122" height="22" viewBox="0 0 122 22" fill="none" xmlns="http://www.w3.org/2000/svg">
<path d="M1.93372 20.3378V1.64734H8.5289L12.9057 13.6219L16.9827 1.64734H24.2374V20.3378H19.6808V5.82893L15.1241 20.3378H10.3875L6.0707 5.76557V20.3378H1.93372Z" fill="#6B6C77"/>
<path d="M29.0939 1.64734V20.3378H42.1044V16.2829H34.1302V12.6082H41.265V8.9968H33.8904V5.06864H42.1044V1.64734H29.0939Z" fill="#6B6C77"/>
<path d="M65.5473 1.45715V20.3377H70.4637V12.0378L76.0996 20.3377H82.395L75.0803 10.2005L81.6156 1.45715H75.7998L70.3438 9.1234V1.45715H65.5473Z" fill="#6B6C77"/>
<path d="M84.9131 1.45728V13.8753C84.9131 13.8753 84.7332 20.3378 92.7074 20.3378C100.682 20.3378 100.502 13.8753 100.502 13.8753V1.39392H95.9451V12.6715C95.9451 12.6715 96.005 16.9798 92.7074 16.9798C89.4098 16.9798 89.5897 12.228 89.5897 12.228V1.45728H84.9131Z" fill="#6B6C77"/>
<path d="M59.132 12.7349C59.132 12.7349 58.8921 11.6578 57.693 11.2143C58.1727 11.151 60.9906 10.1373 60.8107 6.27245C60.6309 2.40764 57.9328 1.33057 56.0742 1.33057C54.2156 1.33057 46.6011 1.33057 46.6011 1.33057V20.2744H51.3377V12.7983C51.3377 12.7983 53.556 12.2914 54.2755 13.4318C55.1149 14.5723 56.7337 20.3378 56.7337 20.3378H61.89L59.132 12.7349ZM53.7959 9.31361C52.7766 9.31361 51.2777 9.25025 51.2777 9.25025V4.94194H53.6759C53.6759 4.94194 56.1342 5.0053 56.1342 6.90602C56.1342 8.80675 54.8151 9.31361 53.7959 9.31361Z" fill="#6B6C77"/>
<path d="M117.949 12.7349C117.949 12.7349 117.709 11.7212 116.51 11.2143C116.75 11.151 119.808 10.1373 119.628 6.27245C119.448 2.40764 116.75 1.33057 114.891 1.33057C113.033 1.33057 105.418 1.33057 105.418 1.33057V20.2744H110.155V12.7983C110.155 12.7983 112.373 12.2914 113.093 13.4318C113.932 14.5723 115.551 20.3378 115.551 20.3378H120.707L117.949 12.7349ZM112.613 9.31361C111.594 9.31361 110.095 9.25025 110.095 9.25025V4.94194H112.493C112.493 4.94194 114.951 5.0053 114.951 6.90602C114.951 8.80675 113.632 9.31361 112.613 9.31361Z" fill="#6B6C77"/>
</svg>
