<svg width="144" height="36" viewBox="0 0 144 36" fill="none" xmlns="http://www.w3.org/2000/svg">
<path d="M17.8198 0C8.02481 0 0 7.88857 0 17.809C0 19.6019 0.236024 21.2752 0.826083 22.9486C1.18012 22.4705 1.53415 21.9924 1.77018 21.5143C3.06831 19.7214 4.24843 17.809 5.42855 16.0162L6.25463 14.5819C6.49065 14.1038 6.84469 13.6257 7.08071 13.1476C7.67077 12.1914 8.26083 11.2352 8.73288 10.279C8.9689 9.80095 9.20493 9.32286 9.55896 8.84476C9.913 8.36667 10.031 7.88857 10.385 7.41048C10.7391 6.93238 10.8571 6.45428 11.0931 5.97619L11.8012 4.66143L11.9192 4.5419C12.2732 3.70524 13.2173 3.46619 14.0434 3.82476C14.6335 4.18333 14.9875 4.78095 14.9875 5.49809C14.9875 6.33476 14.8695 7.29095 14.7515 8.12762C14.6335 8.96428 14.6335 9.92047 14.6335 10.7571C14.5155 12.55 14.5155 14.2233 14.5155 15.8967C14.5155 17.57 14.6335 19.3629 14.7515 20.9167L15.1055 23.4267C15.2235 24.1438 15.4596 24.861 15.8136 25.5781C15.9316 25.8171 16.0496 25.9367 16.1676 26.1757C16.2856 26.2952 16.1676 26.1757 16.2856 26.1757H16.6397L16.7577 26.0562L17.4658 25.339C17.9378 24.7414 18.5279 24.1438 18.8819 23.4267C19.354 22.7095 19.708 21.9924 20.18 21.2752C21.0061 19.7214 21.8322 18.1676 22.5403 16.6138C22.8943 15.7771 23.2483 15.06 23.6024 14.2233C23.9564 13.3867 24.3105 12.55 24.6645 11.8329C25.0185 10.9962 25.9626 10.6376 26.7887 10.9962C27.2607 11.2352 27.6148 11.7133 27.7328 12.1914C27.7328 12.4305 27.7328 12.6695 27.8508 12.9086L27.9688 13.6257C28.0868 14.1038 28.0868 14.5819 28.2048 15.06C28.3229 16.0162 28.5589 17.0919 28.7949 18.0481C29.0309 19.0043 29.385 19.9605 29.739 20.9167C30.093 21.8729 30.5651 22.7095 31.2732 23.5462C31.3912 23.7852 31.3912 24.0243 31.1551 24.1438C31.0371 24.2633 30.8011 24.2633 30.6831 24.1438C29.857 23.4267 29.1489 22.59 28.5589 21.7533C27.9688 20.9167 27.3788 19.9605 26.9067 19.0043C26.5527 18.2871 26.3167 17.6895 26.0806 16.9724C25.8446 17.3309 25.7266 17.809 25.4906 18.1676C24.6645 19.841 23.9564 21.3948 23.0123 22.9486C22.5403 23.7852 22.0682 24.6219 21.5962 25.339C21.1241 26.1757 20.5341 27.0124 19.826 27.7295C19.472 28.2076 18.9999 28.5662 18.6459 28.9248C18.5279 29.0443 18.4099 29.1638 18.1738 29.1638L17.9378 29.2833L17.8198 29.4029H17.4658C17.3477 29.4029 17.3477 29.5224 17.2297 29.5224C16.9937 29.5224 16.8757 29.6419 16.6397 29.6419C16.1676 29.6419 15.8136 29.6419 15.3415 29.5224C14.8695 29.4029 14.6335 29.1638 14.2794 28.9248C13.8074 28.4467 13.3353 27.9686 13.0993 27.3709C12.6273 26.4148 12.2732 25.4586 12.1552 24.3829C11.9192 23.4267 11.8012 22.4705 11.6832 21.6338C11.4472 19.8409 11.4472 17.9286 11.4472 16.2552V13.6257C11.0931 14.2233 10.7391 14.8209 10.5031 15.4186C10.267 15.8967 10.031 16.3748 9.67698 16.8529L8.85089 18.2871C7.78879 20.319 6.60867 22.2314 5.42855 24.0243C4.72048 25.2195 3.89439 26.5343 3.06831 27.7295C8.49686 35.8571 19.472 38.2476 27.7328 32.7495C35.9936 27.4905 38.2359 16.3748 32.8073 8.24714C29.385 3.10762 23.8384 0 17.8198 0Z" fill="#6B6C77"/>
<path d="M50.9812 24.1438V12.3109H50.7452L46.9688 24.1438H46.0247L42.2483 12.3109H41.8943V24.1438H40.3601V11.2352H43.1924L46.4967 21.6338L49.8011 11.2352H52.6334V24.3829L50.9812 24.1438Z" fill="#6B6C77"/>
<path d="M54.8755 12.9086V11.2352H56.5277V12.9086H54.8755ZM54.8755 24.1438V14.1038H56.5277V24.1438H54.8755Z" fill="#6B6C77"/>
<path d="M66.6767 20.9166C66.6767 22.9485 65.9686 24.3828 62.6643 24.3828C58.5339 24.3828 58.2979 21.9923 58.2979 19.2433C58.2979 16.4942 58.5339 14.1038 62.6643 14.1038C65.9686 14.1038 66.6767 15.6576 66.6767 17.5699H65.1425C65.1425 15.8966 64.5525 15.1795 62.6643 15.1795C60.068 15.1795 59.95 16.6138 59.95 19.3628C59.95 22.1119 60.068 23.5461 62.6643 23.5461C64.5525 23.5461 65.1425 22.7095 65.1425 21.1557H66.6767V20.9166Z" fill="#6B6C77"/>
<path d="M69.863 15.1795C70.6891 14.7014 71.6332 13.9843 72.5773 13.9843H73.9935L73.8755 15.1795H72.5773C71.7512 15.1795 70.8071 15.8966 70.0991 16.2552V24.1438H68.4469V14.1038H69.745L69.863 15.1795Z" fill="#6B6C77"/>
<path d="M83.1985 19.1238C83.1985 21.9923 82.9624 24.2633 78.832 24.2633C74.7016 24.2633 74.4656 21.8728 74.4656 19.1238C74.4656 16.3747 74.7016 13.9843 78.832 13.9843C82.9624 13.9843 83.1985 16.2552 83.1985 19.1238ZM75.9997 19.1238C75.9997 21.8728 76.1177 23.3071 78.714 23.3071C81.3103 23.3071 81.4283 21.9923 81.4283 19.1238C81.4283 16.2552 81.3103 14.9404 78.714 14.9404C76.2358 15.06 75.9997 16.3747 75.9997 19.1238Z" fill="#6B6C77"/>
<path d="M86.2667 26.5342C86.8568 26.6538 87.6829 26.6538 88.627 26.6538C91.2232 26.6538 91.4592 25.9366 91.5773 23.3071C90.8692 23.7852 89.8071 24.2633 88.745 24.2633C85.0866 24.3828 84.8506 22.3509 84.8506 19.2433C84.8506 16.1357 85.0866 14.1038 88.627 14.1038C89.8071 14.1038 90.9872 14.7014 91.8133 15.1795L91.9313 14.2233H93.2294V23.1876C93.2294 26.8928 92.4033 27.849 89.099 27.849C88.1549 27.849 87.0928 27.7295 86.1487 27.6099L86.2667 26.5342ZM91.4592 15.8966C90.7512 15.4185 89.8071 14.9404 88.981 14.9404C86.5028 14.9404 86.3847 16.3747 86.3847 19.1238C86.3847 21.8728 86.5028 23.068 88.981 23.068C89.8071 23.068 90.7512 22.5899 91.4592 22.2314V15.8966Z" fill="#6B6C77"/>
<path d="M102.198 24.1438L102.08 23.1876C101.254 23.6657 100.192 24.2633 99.0121 24.2633C95.3537 24.3828 95.1177 22.2314 95.1177 19.1238C95.1177 16.0162 95.3537 13.9843 99.0121 13.9843C100.192 13.9843 101.254 14.5819 102.08 15.06L102.198 14.2233H103.496V24.2633H102.198V24.1438ZM101.844 15.8966C101.136 15.5381 100.192 15.06 99.3661 15.06C96.8879 15.06 96.7698 16.4943 96.7698 19.2433C96.7698 21.9923 96.8879 23.4266 99.3661 23.4266C100.192 23.4266 101.136 22.9485 101.844 22.4704V15.8966Z" fill="#6B6C77"/>
<path d="M106.919 14.9405C107.627 14.4624 108.689 13.8647 109.751 13.8647C111.403 13.7452 112.347 14.2233 112.701 14.9405C113.528 14.4624 114.472 13.8647 115.652 13.8647C119.074 13.7452 119.31 15.5381 119.31 18.0481V24.1438H117.658V18.1676C117.658 16.0162 117.54 15.06 115.298 15.06C114.472 15.06 113.646 15.5381 112.937 16.0162C113.055 16.7333 113.173 17.4505 113.173 18.2871V24.2633H111.757V18.2871C111.757 16.1357 111.639 15.1795 109.397 15.1795C108.571 15.1795 107.745 15.6576 107.155 16.0162V24.2633H105.503V14.2233H106.801L106.919 14.9405Z" fill="#6B6C77"/>
<path d="M121.552 12.9086V11.2352H123.204V12.9086H121.552ZM121.552 24.1438V14.1038H123.204V24.1438H121.552Z" fill="#6B6C77"/>
<path d="M126.745 14.9405C127.571 14.4624 128.633 13.8648 129.813 13.8648C133.471 13.7452 133.707 15.5381 133.707 18.0481V24.1438H132.055V18.1676C132.055 16.0162 131.937 15.06 129.459 15.06C128.633 15.06 127.689 15.5381 126.981 15.8967V24.1438H125.329V14.1038H126.627L126.745 14.9405Z" fill="#6B6C77"/>
<path d="M137.012 26.5342C137.602 26.6538 138.428 26.6538 139.372 26.6538C141.968 26.6538 142.204 25.9366 142.322 23.3071C141.614 23.7852 140.552 24.2633 139.49 24.2633C135.832 24.3828 135.596 22.3509 135.596 19.2433C135.596 16.1357 135.832 14.1038 139.372 14.1038C140.552 14.1038 141.732 14.7014 142.558 15.1795L142.676 14.2233H143.975V23.1876C143.975 26.8928 143.148 27.849 139.844 27.849C138.9 27.849 137.838 27.7295 136.894 27.6099L137.012 26.5342ZM142.204 15.8966C141.496 15.4185 140.552 14.9404 139.726 14.9404C137.248 14.9404 137.13 16.3747 137.13 19.1238C137.13 21.8728 137.248 23.068 139.726 23.068C140.552 23.068 141.496 22.5899 142.204 22.2314V15.8966Z" fill="#6B6C77"/>
</svg>
