<svg width="92" height="34" viewBox="0 0 92 34" fill="none" xmlns="http://www.w3.org/2000/svg">
<path d="M78.2196 7.13135H91.3271V10.9246H86.7547V27.0079H82.792V10.9246H78.2196V7.13135Z" fill="#6B6C77"/>
<path d="M61.3018 7.13135H64.8073L72.5803 19.2697V7.13135H76.5431V27.0079H73.0376L65.2645 14.8696V27.0079H61.3018V7.13135Z" fill="#6B6C77"/>
<path d="M48.8039 7.13129H59.168V10.9245H50.0232V15.173H57.7963V18.9662H50.0232V23.2146H59.168V27.0079H48.8039V33.684H48.0419V0H48.8039V7.13129Z" fill="#6B6C77"/>
<path d="M17.2867 7.11633H30.3275V10.919H21.3809V15.1779H29.1144V18.9805H21.3809V23.2394H30.3275V27.0421H17.2867V7.11633Z" fill="#6B6C77"/>
<path d="M0 7.11633H3.63929L11.2212 19.2847V7.11633H15.1637V27.0421H11.6761L3.94257 14.8737V27.0421H0V7.11633Z" fill="#6B6C77"/>
<path d="M32.1471 7.11633H45.1879V10.919H40.6388V27.0421H36.6962V10.919H32.1471V7.11633Z" fill="#6B6C77"/>
</svg>
