<svg width="110" height="37" viewBox="0 0 110 37" fill="none" xmlns="http://www.w3.org/2000/svg">
<path d="M6.83161 33.2708C6.83161 34.6428 6.51491 35.5574 5.77593 36.2434C5.35366 36.7008 4.72026 36.8151 3.87571 36.8151C2.82004 36.8151 2.08106 36.3578 1.44765 35.5574C0.919815 34.7571 0.708679 33.9568 0.708679 33.0421C0.708679 31.8988 0.919815 30.9841 1.55322 30.1838C1.86993 29.8408 2.18663 29.4978 2.50333 29.2691C2.9256 29.0405 3.34787 28.9261 3.87571 28.9261C4.40355 28.9261 4.82582 29.0405 5.35366 29.1548C5.77593 29.2691 6.09264 29.4978 6.30377 29.8408C6.40934 29.9551 6.40934 30.0695 6.40934 30.1838C6.40934 30.2981 6.40934 30.4125 6.30377 30.5268C6.1982 30.6411 6.09264 30.6411 5.98707 30.6411C5.8815 30.6411 5.77593 30.6411 5.67037 30.5268C5.35366 30.2981 5.14253 30.0695 4.93139 29.9551C4.61469 29.8408 4.40355 29.7265 3.98128 29.7265C3.24231 29.7265 2.6089 30.0695 2.18663 30.7555C1.86993 31.3271 1.65879 32.0131 1.65879 32.8135C1.65879 33.9568 1.97549 34.7571 2.50333 35.4431C2.82004 35.7861 3.24231 36.0148 3.77015 36.0148C4.08685 36.0148 4.50912 35.9004 4.82582 35.7861C5.5648 35.4431 5.98707 34.6428 5.98707 33.6138V33.2708H4.72026C4.50912 33.2708 4.29798 33.1565 4.29798 32.8135C4.29798 32.4705 4.40355 32.3561 4.72026 32.3561H6.30377C6.62048 32.3561 6.83161 32.6991 6.83161 33.1565V33.2708Z" fill="#6B6C77"/>
<path d="M109.76 33.2708C109.76 34.6428 109.444 35.5574 108.705 36.2434C108.282 36.7008 107.649 36.8151 106.804 36.8151C105.749 36.8151 105.01 36.3578 104.376 35.5574C103.848 34.7571 103.637 33.9568 103.637 33.0421C103.637 31.8988 103.848 30.9841 104.482 30.1838C104.799 29.8408 105.115 29.4978 105.432 29.2691C105.854 29.0405 106.276 28.9261 106.804 28.9261C107.332 28.9261 107.754 29.0405 108.282 29.1548C108.705 29.2691 109.021 29.4978 109.232 29.8408C109.338 29.9551 109.338 30.0695 109.338 30.1838C109.338 30.2981 109.338 30.4125 109.232 30.5268C109.127 30.6411 109.021 30.6411 108.916 30.6411C108.81 30.6411 108.705 30.6411 108.599 30.5268C108.282 30.2981 108.071 30.0695 107.86 29.9551C107.543 29.8408 107.332 29.7265 106.91 29.7265C106.171 29.7265 105.538 30.0695 105.115 30.7555C104.799 31.3271 104.587 32.0131 104.587 32.8135C104.587 33.9568 104.904 34.7571 105.432 35.4431C105.749 35.7861 106.171 36.0148 106.699 36.0148C107.015 36.0148 107.438 35.9004 107.754 35.7861C108.493 35.4431 108.916 34.6428 108.916 33.6138V33.2708H107.649C107.438 33.2708 107.227 33.1565 107.227 32.8135C107.227 32.4705 107.332 32.3561 107.649 32.3561H109.232C109.655 32.3561 109.866 32.5848 109.866 33.0421V33.2708H109.76Z" fill="#6B6C77"/>
<path d="M50.4311 36.2435C50.4311 36.7008 50.3256 36.9295 50.0089 36.9295C49.7977 36.9295 49.5866 36.8152 49.5866 36.4722L48.742 30.1839L47.0529 36.4722C46.9474 36.7008 46.8418 36.8152 46.6307 36.8152C46.4195 36.8152 46.2084 36.7008 46.2084 36.4722L44.5193 30.1839L43.6748 36.4722C43.6748 36.8152 43.4636 36.9295 43.1469 36.9295C42.9358 36.9295 42.7247 36.7008 42.7247 36.3578C42.7247 36.2435 42.7247 36.2435 42.7247 36.1292L43.7803 29.6122C43.7803 29.3836 43.8859 29.2692 43.9915 29.1549C44.0971 29.0406 44.3082 28.9262 44.4138 28.9262C44.6249 28.9262 44.7305 28.9262 44.836 29.0406C44.9416 29.1549 45.0472 29.2692 45.0472 29.3836L46.5251 34.9859L48.0031 29.2692C48.0031 29.1549 48.1086 29.0406 48.2142 28.9262C48.3198 28.8119 48.4253 28.8119 48.6365 28.8119C48.8476 28.8119 48.9532 28.8119 49.0587 28.9262C49.1643 29.0406 49.2699 29.1549 49.2699 29.3836L50.4311 36.2435Z" fill="#6B6C77"/>
<path d="M66.8997 36.3577C66.8997 36.7007 66.7941 36.9294 66.4774 36.9294C66.1607 36.9294 66.0552 36.8151 66.0552 36.4721V29.6121C66.0552 29.2691 66.1607 29.1548 66.4774 29.1548C66.7941 29.1548 66.8997 29.2691 66.8997 29.6121V36.3577Z" fill="#6B6C77"/>
<path d="M88.1188 36.3578C88.1188 36.7008 88.0133 36.8151 87.6966 36.8151C87.4854 36.8151 87.3799 36.7008 87.1687 36.4721L83.3683 30.6411V36.2434C83.3683 36.5864 83.2627 36.7008 82.946 36.7008C82.6293 36.7008 82.5237 36.5864 82.5237 36.2434V29.3835C82.5237 29.0405 82.6293 28.9261 82.8404 28.9261C83.0516 28.9261 83.1571 29.0405 83.3683 29.2691L87.0632 35.1001V29.4978C87.0632 29.3835 87.0632 29.2691 87.1687 29.1548C87.2743 29.0405 87.3799 29.0405 87.4854 29.0405C87.8021 29.0405 87.9077 29.1548 87.9077 29.4978V36.3578H88.1188Z" fill="#6B6C77"/>
<path d="M27.734 36.4721C27.734 36.7007 27.6285 36.8151 27.3118 36.8151C27.2062 36.8151 27.1006 36.8151 26.9951 36.7007C26.8895 36.7007 26.8895 36.7007 26.8895 36.5864L26.4672 35.2144H23.1946L22.5612 36.5864C22.4556 36.8151 22.3501 36.9294 22.1389 36.9294C21.9278 36.9294 21.7167 36.8151 21.7167 36.5864V36.4721V36.3577L24.0392 29.7264C24.1447 29.4978 24.1447 29.3835 24.2503 29.2691C24.3559 29.1548 24.4614 29.1548 24.567 29.1548C24.6726 29.1548 24.7781 29.1548 24.9893 29.2691C25.0948 29.3835 25.2004 29.4978 25.2004 29.7264L27.5229 36.3577C27.734 36.3577 27.734 36.4721 27.734 36.4721ZM26.1505 34.2998L24.7781 30.0694L23.3002 34.2998H26.1505Z" fill="#6B6C77"/>
<path d="M92.1304 6.17396C93.7046 6.17396 94.9807 4.79187 94.9807 3.08698C94.9807 1.38209 93.7046 0 92.1304 0C90.5562 0 89.28 1.38209 89.28 3.08698C89.28 4.79187 90.5562 6.17396 92.1304 6.17396Z" fill="#6B6C77"/>
<path d="M109.866 3.08698C109.866 4.80197 108.599 6.17396 107.015 6.17396C105.432 6.17396 104.165 4.80197 104.165 3.08698C104.165 1.37199 105.432 0 107.015 0C108.599 0 109.866 1.37199 109.866 3.08698Z" fill="#6B6C77"/>
<path d="M92.1304 21.2659C93.7046 21.2659 94.9807 19.8838 94.9807 18.1789C94.9807 16.474 93.7046 15.0919 92.1304 15.0919C90.5562 15.0919 89.28 16.474 89.28 18.1789C89.28 19.8838 90.5562 21.2659 92.1304 21.2659Z" fill="#6B6C77"/>
<path d="M109.866 18.1789C109.866 19.8939 108.599 21.2659 107.015 21.2659C105.432 21.2659 104.165 19.8939 104.165 18.1789C104.165 16.4639 105.432 15.0919 107.015 15.0919C108.599 15.0919 109.866 16.4639 109.866 18.1789Z" fill="#6B6C77"/>
<path d="M102.476 10.6329C102.476 12.3479 101.209 13.7199 99.6257 13.7199C98.0422 13.7199 96.7754 12.3479 96.7754 10.6329C96.7754 8.91789 98.0422 7.5459 99.6257 7.5459C101.209 7.5459 102.476 8.91789 102.476 10.6329Z" fill="#6B6C77"/>
<path d="M84.5295 20.5799L76.612 0.342998C76.5064 0.114333 76.4008 0 76.1897 0H74.6062H74.395H72.8115C72.6004 0 72.4948 0.114333 72.3892 0.342998L64.3661 20.5799V20.6942C64.3661 20.9229 64.4717 21.0372 64.6828 21.0372H68.2721C68.4832 21.0372 68.5888 20.9229 68.6944 20.6942L70.3835 16.0066H78.8289L80.518 20.6942C80.6235 20.9229 80.7291 21.0372 80.9402 21.0372H84.5295C84.7407 21.0372 84.8462 20.9229 84.8462 20.6942C84.6351 20.6942 84.6351 20.5799 84.5295 20.5799ZM71.5447 12.3479L74.5006 4.23031L77.4565 12.3479H71.5447Z" fill="#6B6C77"/>
<path d="M28.2619 6.51696C28.473 5.71663 28.7897 5.37363 28.7897 5.37363C28.7897 5.37363 29.212 4.5733 30.1621 4.11597C31.1122 3.65864 31.9568 3.65864 31.9568 3.65864H39.0298C39.2409 3.65864 39.4521 3.42998 39.4521 3.20131V0.45733C39.4521 0.228665 39.2409 0 39.0298 0H31.2178C26.8895 0 23.4058 4.11597 23.4058 9.14661V10.4043V10.5186V10.7473V10.8616V12.1193C23.4058 17.1499 26.8895 21.2659 31.2178 21.2659H39.0298C39.2409 21.2659 39.4521 21.0372 39.4521 20.8085V17.9502C39.4521 17.7216 39.2409 17.4929 39.0298 17.4929H31.9568C31.9568 17.4929 31.0066 17.4929 30.1621 17.0356C29.212 16.5782 28.7897 15.7779 28.7897 15.7779C28.7897 15.7779 28.473 15.3206 28.2619 14.6346C28.0507 13.8342 28.0507 12.8053 28.0507 12.8053V12.3479H39.0298C39.2409 12.3479 39.4521 12.1193 39.4521 11.8906V9.03228C39.4521 8.80361 39.2409 8.57494 39.0298 8.57494H28.0507V8.34628C28.0507 8.34628 28.1563 7.31729 28.2619 6.51696Z" fill="#6B6C77"/>
<path d="M52.5425 21.0372H58.9821C59.1932 21.0372 59.2988 20.8085 59.2988 20.5799V17.7216C59.2988 17.4929 59.1932 17.2642 58.9821 17.2642H53.1759C53.1759 17.2642 52.4369 17.2642 51.6979 16.8069C50.9589 16.3496 50.5367 15.5492 50.5367 15.5492C50.5367 15.5492 50.1144 15.0919 50.1144 14.2916C50.1144 13.6056 50.1144 12.6909 50.1144 12.6909V10.6329V0.342998C50.1144 0.114333 50.0088 0 49.7977 0H46.4195C46.2084 0 45.9973 0.228665 45.9973 0.45733C45.9973 0.45733 45.9973 0.45733 45.9973 0.571663V10.7473V12.1193V14.2916V14.4059C46.1028 18.0646 48.9532 21.0372 52.5425 21.0372Z" fill="#6B6C77"/>
<path d="M17.9162 20.5799L13.3768 12.3479C15.6993 11.7763 17.2828 10.0613 17.2828 6.28829C17.3884 1.25766 14.2214 0.114333 10.3154 0H9.36525H0.91983C0.708694 0 0.497559 0.228665 0.497559 0.45733V20.6942C0.497559 20.9229 0.708694 21.1515 0.91983 21.1515H4.298C4.50913 21.1515 4.72027 20.9229 4.72027 20.6942V12.8053H9.47082L13.6935 20.8085C13.7991 21.0372 14.0102 21.1515 14.2214 21.1515H17.8107C18.0218 21.1515 18.1274 21.0372 18.1274 20.8085C17.9162 20.6942 17.9162 20.5799 17.9162 20.5799ZM10.4209 9.03228L9.36525 9.14661H4.6147V3.77298H9.47082H10.4209C12.6379 3.77298 13.2713 4.9163 13.2713 6.40263C13.1657 7.88895 12.5323 9.03228 10.4209 9.03228Z" fill="#6B6C77"/>
</svg>
