<svg width="100" height="31" viewBox="0 0 100 31" fill="none" xmlns="http://www.w3.org/2000/svg">
<path fill-rule="evenodd" clip-rule="evenodd" d="M99.6804 0.855225H57.7793V2.56562H59.2134V22.8273H68.6911V18.6828H63.3287V2.49984H99.6804V0.855225ZM0.165344 4.93387V9.14408H3.22063V26.1165H7.39827V9.0783H10.3912V4.93387H0.165344ZM45.2464 4.93387V26.1165H54.724V21.9721H49.3617V17.5645H53.6017V13.4201H49.3617V9.01251H54.724V4.93387H45.2464ZM96.7498 14.9989C97.6227 13.9464 98.0592 12.5649 98.0592 11.1834C98.0592 7.82839 95.5027 5.06544 92.2604 5.06544H87.7086V26.1823H92.2604C95.7522 26.1823 98.4957 23.2878 98.4957 19.6038C98.6204 17.6961 97.9345 16.1172 96.7498 14.9989ZM92.0733 9.0783C93.1333 9.0783 93.9439 9.9335 93.9439 11.0518C93.9439 12.1702 93.071 13.0254 92.0733 13.0254H92.011L92.0733 9.0783ZM94.4427 19.6038C94.4427 20.9853 93.3828 22.0379 92.1357 22.0379H91.9486V17.104H92.1357C93.4451 17.104 94.4427 18.2881 94.4427 19.6038ZM18.6841 4.93387C22.7994 4.93387 26.0417 8.42045 26.0417 12.6965C26.0417 15.1305 24.9818 17.3014 23.2982 18.6828L26.8523 26.1165H22.2382L19.5571 20.3932C19.1829 20.459 18.9335 20.459 18.6841 20.459H18.31V26.1165H14.1324V4.93387H15.6912H18.6841ZM18.3724 9.0783V16.3146V16.3804H18.4347C20.3053 16.3804 21.9265 14.67 21.9265 12.6965C21.8641 10.7887 20.2429 9.0783 18.3724 9.0783ZM37.2029 20.5906C37.2029 21.7089 36.33 22.5641 35.3323 22.5641C34.2723 22.5641 33.3994 21.7089 33.3994 20.5906V4.93387H29.2217V20.3275C29.2217 23.814 31.9653 26.7086 35.27 26.7086C38.5747 26.7086 41.3182 23.814 41.3182 20.3275V4.93387H37.1405L37.2029 20.5906ZM84.2169 29.1426H99.6804V30.853H57.7793V29.1426H70.5616L74.8016 8.2231H79.8522L84.2169 29.1426ZM80.0393 29.1426L79.6028 26.9717H75.3628L74.8016 29.1426H80.0393ZM77.4828 16.3146L76.1734 22.7615H78.7299L77.4828 16.3146Z" fill="#6B6C77"/>
</svg>
