<svg width="27" height="26" viewBox="0 0 27 26" fill="none" xmlns="http://www.w3.org/2000/svg">
<path d="M17.1815 21.5689C15.6845 21.5691 14.221 21.1254 12.9762 20.2939C11.7313 19.4624 10.761 18.2804 10.1879 16.8975C9.61483 15.5145 9.46471 13.9927 9.75655 12.5244C10.0484 11.0561 10.7691 9.70732 11.8274 8.64862C12.8858 7.58991 14.2344 6.86884 15.7026 6.57657C17.1708 6.2843 18.6927 6.43396 20.0758 7.00664C21.459 7.57931 22.6412 8.54927 23.4731 9.79387C24.305 11.0385 24.7491 12.5018 24.7493 13.9988V13.9999C24.7473 16.0065 23.9493 17.9303 22.5305 19.3493C21.1118 20.7683 19.188 21.5665 17.1815 21.5689Z" fill="#F79E1B"/>
<path d="M9.81705 21.5689C8.32004 21.5689 6.85666 21.125 5.61194 20.2933C4.36722 19.4616 3.39709 18.2795 2.82421 16.8964C2.25133 15.5134 2.10143 13.9915 2.39349 12.5233C2.68554 11.055 3.40642 9.70636 4.46496 8.64782C5.5235 7.58928 6.87217 6.8684 8.34041 6.57635C9.80866 6.2843 11.3305 6.43419 12.7136 7.00707C14.0966 7.57995 15.2788 8.55008 16.1104 9.7948C16.9421 11.0395 17.3861 12.5029 17.3861 13.9999C17.384 16.0067 16.5859 17.9307 15.1668 19.3497C13.7478 20.7687 11.8238 21.5668 9.81705 21.5689Z" fill="#EB001B"/>
</svg>
