<svg width="46" height="25" viewBox="0 0 46 25" fill="none" xmlns="http://www.w3.org/2000/svg">
<path fill-rule="evenodd" clip-rule="evenodd" d="M13.3177 6V6.00611C13.3125 6.00611 11.6771 6 11.241 7.84017C10.8413 9.52751 9.71471 14.186 9.68356 14.3144H9.37206C9.37206 14.3144 8.21953 9.55197 7.81459 7.83406C7.37849 5.99389 5.73795 6 5.73795 6H2V20H5.73795V11.6856H5.8937H6.04944L8.22991 20H10.8257L13.0062 11.6917H13.3177V20H17.0556V6H13.3177Z" fill="#4DB45E"/>
<path fill-rule="evenodd" clip-rule="evenodd" d="M26.9706 6C26.9706 6 25.8752 6.11616 25.3612 7.46725L22.7135 14.3144H22.402V6H18.6641V20H22.1943C22.1943 20 23.3417 19.8777 23.8557 18.5328L26.4515 11.6856H26.763V20H30.5009V6H26.9706Z" fill="#4DB45E"/>
<path fill-rule="evenodd" clip-rule="evenodd" d="M32.1641 12.3579V19.9998H35.902V15.5369H39.9514C41.7166 15.5369 43.2118 14.2103 43.7673 12.3579H32.1641Z" fill="#4DB45E"/>
<path fill-rule="evenodd" clip-rule="evenodd" d="M39.9524 6H31.6406C32.056 8.6655 33.7536 10.8052 35.9496 11.5022C36.448 11.6611 36.9724 11.7467 37.5123 11.7467H43.9187C43.9759 11.4288 44.0018 11.1048 44.0018 10.7686C44.0018 8.13362 42.1899 6 39.9524 6Z" fill="url(#paint0_linear_964_148655)"/>
<defs>
<linearGradient id="paint0_linear_964_148655" x1="31.6416" y1="8.87336" x2="44.0018" y2="8.87336" gradientUnits="userSpaceOnUse">
<stop offset="0.3" stop-color="#00B4E6"/>
<stop offset="1" stop-color="#088CCB"/>
</linearGradient>
</defs>
</svg>
