<svg width="42" height="26" viewBox="0 0 42 26" fill="none" xmlns="http://www.w3.org/2000/svg">
<path d="M30.4559 7.7146C29.4874 7.33102 28.4637 7.13854 27.4329 7.14622C24.0996 7.14622 21.7454 8.9714 21.7288 11.5914C21.7079 13.5162 23.4017 14.6009 24.6829 15.244C25.9975 15.9053 26.4371 16.3219 26.4329 16.913C26.4246 17.812 25.3829 18.2196 24.4142 18.2196C23.0829 18.2196 22.3559 18.018 21.2371 17.5131L20.8225 17.3025L20.3496 20.3188C21.16 20.6856 22.6204 21.0004 24.1288 21.0276C27.6725 21.0276 29.9892 19.2137 30.0163 16.4261C30.0454 14.8885 29.1288 13.7268 27.1996 12.7667C26.0267 12.144 25.2996 11.7273 25.2996 11.0955C25.2996 10.5362 25.9225 9.93834 27.2246 9.93834C28.0912 9.91555 28.9524 10.0923 29.7517 10.4569L30.0642 10.6086L30.5371 7.69422L30.4559 7.7146ZM39.1059 7.39078H36.5017C35.6913 7.39078 35.0809 7.63308 34.7267 8.50718L29.7184 20.8396H33.2621L33.9704 18.8174L38.2954 18.8219C38.3975 19.2952 38.71 20.8396 38.71 20.8396H41.835L39.1059 7.39078ZM16.935 7.27756H20.3121L18.1996 20.7332H14.8267L16.935 7.27303V7.27756ZM8.36211 14.6938L8.71211 16.562L12.0121 7.39078H15.5892L10.2746 20.8215H6.70586L3.78919 9.4492C3.74195 9.26169 3.63101 9.10064 3.47878 8.99857C2.42753 8.4083 1.31366 7.96036 0.162109 7.66478L0.207943 7.38172H5.64336C6.38086 7.41343 6.97461 7.66478 7.17253 8.52076L8.36003 14.7006V14.6938H8.36211ZM34.9392 16.0661L36.285 12.3025C36.2684 12.3432 36.5621 11.5257 36.7329 11.0208L36.9642 12.1824L37.7454 16.0638H34.9371V16.0661H34.9392Z" fill="white"/>
</svg>
