<svg width="31" height="31" viewBox="0 0 31 31" fill="none" xmlns="http://www.w3.org/2000/svg">
  <path fill-rule="evenodd" clip-rule="evenodd" d="M14.0494 0.0363788C11.0329 0.328187 8.043 1.55457 5.69851 3.4617C5.0089 4.02268 3.91702 5.12312 3.36701 5.81163C1.97632 7.55241 0.836687 9.90707 0.364041 12.016C0.0672262 13.3408 0 13.9847 0 15.5044C0 17.024 0.0672262 17.668 0.364041 18.9927C0.847002 21.1477 2.01636 23.536 3.45329 25.3021C4.01434 25.9916 5.11489 27.0834 5.80348 27.6333C7.54444 29.0239 9.89936 30.1634 12.0086 30.636C13.3334 30.9328 13.9775 31 15.4973 31C17.0171 31 17.6611 30.9328 18.986 30.636C20.5718 30.2807 22.6453 29.3947 24.0079 28.4902C26.3712 26.9214 28.1862 24.8574 29.4255 22.3294C30.1846 20.7809 30.6157 19.394 30.8873 17.6277C31.0376 16.6504 31.0376 14.3584 30.8873 13.381C30.6157 11.6147 30.1846 10.2279 29.4255 8.67936C28.6154 7.02691 27.7125 5.76977 26.4089 4.47957C25.1291 3.21284 23.9567 2.38043 22.323 1.57853C20.7928 0.827354 19.3761 0.384364 17.6815 0.127076C16.9195 0.011384 14.8434 -0.0404862 14.0494 0.0363788ZM17.594 2.69954C20.2933 3.14793 22.7091 4.39403 24.659 6.34368C26.6512 8.33568 27.8819 10.7603 28.3389 13.5934C28.4883 14.5189 28.4883 16.4899 28.3389 17.4154C27.8819 20.2485 26.6512 22.6731 24.659 24.6651C22.9907 26.3332 21.0328 27.4606 18.7736 28.0542C17.5842 28.3667 16.8798 28.4523 15.4973 28.4523C14.1147 28.4523 13.4104 28.3667 12.2209 28.0542C9.96173 27.4606 8.00386 26.3332 6.33558 24.6651C4.34695 22.6767 3.10994 20.2399 2.65537 17.4154C2.50648 16.4903 2.50648 14.5184 2.65537 13.5934C3.10994 10.7689 4.34695 8.3321 6.33558 6.34368C8.53136 4.14814 11.3297 2.84544 14.4658 2.55891C15.0966 2.50128 16.8844 2.58166 17.594 2.69954ZM12.585 4.90266L12.4333 4.98219L12.4171 6.69427L12.401 8.40635H10.5002C8.73571 8.40635 8.59209 8.4143 8.4989 8.51731C8.41832 8.60637 8.39848 8.75968 8.39848 9.2944C8.39848 9.73247 8.42445 9.9954 8.47432 10.0624C8.51607 10.1185 8.69833 10.1921 8.87944 10.2262C9.57245 10.3563 10.135 10.7368 10.3989 11.2543C10.4652 11.3841 10.5489 11.6804 10.585 11.9128C10.6786 12.5162 10.6326 19.3972 10.533 19.6976C10.3494 20.2505 9.94481 20.6137 9.34839 20.7609C9.06941 20.8297 8.90832 20.9044 8.85481 20.9896C8.81118 21.0592 8.72739 21.3959 8.66866 21.738C8.50909 22.6677 8.3639 22.6024 10.5921 22.6024H12.4029V24.2937C12.4029 25.7928 12.4143 25.9944 12.5033 26.0682C12.5754 26.128 12.7985 26.1514 13.2969 26.1514C13.9132 26.1514 13.9998 26.1383 14.0764 26.0337C14.1457 25.9388 14.1625 25.5943 14.1625 24.2592V22.6024H15.0422H15.922V24.2337C15.922 26.2781 15.8623 26.1514 16.8246 26.1514C17.3872 26.1514 17.5126 26.134 17.6035 26.0432C17.7013 25.9455 17.7136 25.7734 17.7298 24.2753L17.7476 22.6156L18.8522 22.5888C19.8494 22.5646 19.9965 22.547 20.3658 22.4079C21.5488 21.9623 22.4178 21.0554 22.8229 19.8433C22.9677 19.4102 22.9858 19.2634 22.988 18.5074C22.9901 17.7759 22.9709 17.5997 22.8496 17.2377C22.5907 16.4649 22.1511 15.7673 21.6581 15.3469L21.3803 15.1101L21.6508 14.5741C21.9946 13.8929 22.1227 13.3428 22.1265 12.5317C22.1351 10.6769 21.0173 9.08764 19.3249 8.54862C19.1719 8.49984 18.7532 8.44403 18.3944 8.42455L17.7422 8.38919V6.76647C17.7422 4.73036 17.8027 4.85734 16.8321 4.85734C15.8611 4.85734 15.922 4.72903 15.922 6.77508V8.40635H15.0422H14.1625V6.7496C14.1625 5.41547 14.1457 5.06992 14.0764 4.97509C14.0025 4.8739 13.9023 4.85491 13.3635 4.84023C12.9342 4.82852 12.6888 4.84824 12.585 4.90266ZM17.5172 11.1975C17.9588 11.3627 18.3074 11.6766 18.5121 12.0934C18.653 12.3803 18.6826 12.5198 18.6826 12.8957C18.6826 13.2717 18.653 13.4111 18.5121 13.698C18.3074 14.1148 17.9588 14.4287 17.5172 14.5939C17.2231 14.7039 17.0451 14.7157 15.677 14.7157H14.1625V12.8957V11.0757H15.677C17.0451 11.0757 17.2231 11.0875 17.5172 11.1975ZM18.5748 16.5816C19.6797 17.1719 19.9226 18.6136 19.0649 19.4897C18.928 19.6296 18.6767 19.807 18.5066 19.8841C18.2064 20.0199 18.1374 20.0246 16.1799 20.0423L14.1625 20.0605V18.2345V16.4084L16.2405 16.4266C18.2637 16.4442 18.3254 16.4484 18.5748 16.5816Z" fill="#FFC700"/>
</svg>
