<svg width="65" height="56" viewBox="0 0 65 56" fill="none" xmlns="http://www.w3.org/2000/svg">
<path d="M33.5306 9.67921L52.0116 33.7992L31.5086 34.7486L22.2222 23.0519L17.0687 10.2584L33.5306 9.67921Z" fill="#88CF42"/>
<path d="M16.2405 11.6587L17.0689 10.2574C17.7134 12.7405 26.964 27.6188 31.5088 34.7476L30.713 36.0939C26.01 34.0607 18.8958 18.3739 16.2405 11.6587Z" fill="#56B729"/>
<path d="M52.0115 33.799L31.5085 34.7484L30.7274 36.9299L50.6724 36.0644L52.0115 33.799Z" fill="#25951C"/>
<path d="M17.9975 38.9468C17.9975 38.9468 8.79643 30.156 8.83428 21.6765C16.5816 26.2558 31.6082 22.9415 38.1531 20.7119C40.7644 26.6111 51.4757 32.0713 51.4757 32.0713C47.8948 35.1818 37.8361 43.7038 17.9975 38.9468Z" fill="#82DC34"/>
<path d="M19.599 36.3454C19.599 36.3454 14.5564 31.156 12.5908 25.6383C20.1917 27.5176 31.8303 25.8282 37.0109 24.0119C39.9038 28.7151 45.979 32.1061 45.979 32.1061C41.9566 35.0577 30.8095 39.4871 19.599 36.3454Z" stroke="#D4FD5F" stroke-width="2.24987"/>
<ellipse cx="29.348" cy="31.1865" rx="5.99965" ry="4.49974" transform="rotate(30.5868 29.348 31.1865)" fill="#D4FD5F"/>
<path opacity="0.3" d="M50.9279 36.4879C26.785 33.7131 16.9814 10.6559 17.0688 10.2568L34.5823 16.1812C48.0785 23.875 55.3863 27.4263 50.9279 36.4879Z" fill="#1A7109"/>
<path d="M51.4168 31.9937C45.1194 33.6266 36.9425 29.5227 33.6412 27.2667L37.1387 22.5952C44.522 25.0477 57.7143 30.3608 51.4168 31.9937Z" fill="#25951C"/>
<path d="M44.2957 28.3447C32.0787 31.6932 21.0544 17.6814 17.0693 10.2569L31.9507 5.31576C40.5752 16.5718 56.3596 23.7358 61.5438 24.1735C60.845 27.3664 49.7248 37.5338 44.2957 28.3447Z" fill="#82DC34"/>
<path d="M31.6543 6.54427L32.0203 7.00458C37.3595 13.7208 47.2302 20.7905 51.2386 22.6245C53.2462 23.543 54.9156 24.0446 56.0697 24.3157C56.6469 24.4513 57.0954 24.5293 57.393 24.573C57.5417 24.5948 57.6528 24.608 57.7233 24.6155C57.7585 24.6193 57.7836 24.6216 57.7982 24.6229L57.8102 24.624L57.8132 24.6242L59.7405 24.7585L58.5602 25.9948L58.5577 25.9974L58.5537 26.0015L58.5414 26.0141C58.5313 26.0244 58.5174 26.0384 58.4997 26.056C58.4642 26.0911 58.4135 26.1403 58.3474 26.202C58.2153 26.3253 58.0218 26.4984 57.767 26.7071C57.2577 27.1242 56.5017 27.6851 55.4995 28.2761C53.4955 29.4577 51.0538 30.7566 47.0707 31.266C47.0707 31.266 46.2191 30.7789 45.7108 30.2723C45.2025 29.7658 44.8336 29.172 44.8336 29.172C48.4893 28.7045 52.5048 27.9762 54.3373 26.8957C54.9192 26.5525 55.4078 26.2219 55.8027 25.9315C55.7644 25.9227 55.7255 25.9137 55.6862 25.9044C54.398 25.6018 52.5847 25.0536 50.4302 24.0679C46.2104 22.1372 36.236 14.9854 30.8254 8.32493C30.8254 8.32493 24.7253 11.3673 22.0685 12.5234C22.2405 12.7652 22.9909 13.6085 23.2193 13.9151C24.083 15.0738 25.3346 16.644 26.8855 18.2907C30.0204 21.6194 38.7335 27.3795 43.3367 28.5828C43.3367 28.5828 42.3378 28.7369 42.0415 28.7831C41.7452 28.8293 40.7403 28.8551 40.7403 28.8551C35.5109 27.4881 28.6162 22.6597 25.425 19.2713C23.8128 17.5595 22.5158 15.9318 21.6217 14.7323C21.1743 14.132 20.8267 13.6375 20.5899 13.2916C20.4716 13.1185 20.3808 12.9825 20.3191 12.8889C20.2883 12.8421 20.2647 12.8059 20.2485 12.7809L20.2298 12.7519L20.2247 12.7439L20.2227 12.7408L18.9947 11.109C23.085 10.1891 30.9865 6.87999 30.9865 6.87999L31.6543 6.54427Z" fill="#D4FD5F"/>
<ellipse cx="37.5403" cy="20.8601" rx="7.25337" ry="4.49413" transform="rotate(12.3458 37.5403 20.8601)" fill="#D4FD5F"/>
</svg>
