<svg width="37" height="127" viewBox="0 0 37 127" fill="none" xmlns="http://www.w3.org/2000/svg">
<path d="M8.204 100.851L-22.3745 109.234V100.851L9.25843 92.4677L8.204 100.851Z" fill="#25951C"/>
<path d="M-7.0852 88.2761C-20.2656 90.7211 -42.6195 93.5155 -43.463 93.5155L-33.4459 98.2309L-22.3744 100.851L9.25845 92.4676L-7.0852 88.2761Z" fill="#85DC30"/>
<path fill-rule="evenodd" clip-rule="evenodd" d="M-6.52812 89.314L3.59332 91.9609L5.04079 92.4676L-22.9084 99.2953L-39.7725 94.5633L-38.1908 94.0394L-6.52812 89.314ZM-35.0275 94.5633L-22.8948 98.2144L1.29809 92.4442L-6.58774 90.3819L-35.0275 94.5633Z" fill="#C7F85B"/>
<path d="M8.204 91.4189L-22.3745 99.8018V91.4189L9.25843 83.0359L8.204 91.4189Z" fill="#25951C"/>
<path d="M-7.0852 78.8444C-20.2656 81.2894 -42.6195 84.0837 -43.463 84.0837L-33.4459 88.7991L-22.3744 91.4188L9.25845 83.0358L-7.0852 78.8444Z" fill="#85DC30"/>
<path fill-rule="evenodd" clip-rule="evenodd" d="M-6.52812 79.8826L3.59332 82.5296L5.04079 83.0363L-22.9084 89.8639L-39.7725 85.132L-38.1908 84.6081L-6.52812 79.8826ZM-35.0275 85.132L-22.8948 88.783L1.29809 83.0129L-6.58774 80.9506L-35.0275 85.132Z" fill="#C7F85B"/>
<path d="M-5.50365 72.5573L19.8027 97.7061L-1.81315 104.517L-15.5207 93.5147L-22.9017 77.7967L-5.50365 72.5573Z" fill="#88CF42"/>
<path d="M19.8027 97.7063L-1.81307 104.517L-3.39471 112.376L18.7483 105.565L19.8027 97.7063Z" fill="#25951C"/>
<path opacity="0.3" d="M19.2754 101.375C-7.08535 104.518 -22.9018 78.3218 -22.9018 77.7979L-2.86764 80.4175C13.3003 86.3554 21.9114 88.8005 19.2754 101.375Z" fill="#1A7109"/>
<path d="M18.7481 95.6113C12.4215 99.3836 2.75591 96.4845 -1.28607 94.5635L1.35 87.7523C9.78544 88.8002 25.0747 91.839 18.7481 95.6113Z" fill="#25951C"/>
<path d="M10.3127 92.9917C-1.91865 100.536 -16.9267 86.0059 -22.9018 77.7976L-2.34042 70.9865C9.46918 82.7226 22.0872 83.9102 27.7108 83.0369C27.7108 87.2284 18.2372 103.015 10.3127 92.9917Z" fill="#82DC34"/>
<path fill-rule="evenodd" clip-rule="evenodd" d="M-2.6328 72.375L-2.13575 72.8513C5.11651 79.801 11.6775 82.7223 16.3743 83.9207C18.7266 84.521 20.6216 84.6916 21.914 84.7148C22.5604 84.7264 23.0562 84.7012 23.3833 84.6742C23.5469 84.6608 23.6682 84.6469 23.7451 84.637C23.7835 84.632 23.8107 84.6281 23.8266 84.6257L23.8396 84.6237L23.8408 84.6235L23.8429 84.6232L25.9269 84.263L24.958 86.1353L24.0203 85.6561C24.958 86.1353 24.958 86.1353 24.958 86.1353L24.9559 86.1394L24.9526 86.1456L24.9425 86.1647C24.9341 86.1803 24.9226 86.2017 24.9078 86.2286C24.8782 86.2823 24.8356 86.358 24.7796 86.4533C24.6677 86.644 24.5019 86.9139 24.2792 87.2452C23.834 87.9074 23.1596 88.8174 22.2299 89.8325C20.371 91.8622 18.0732 94.1589 13.9497 95.8892C13.9497 95.8892 12.9291 95.5125 12.2696 95.0173C11.6102 94.522 11.0788 93.8794 11.0788 93.8794C14.8635 92.2913 18.9705 90.2779 20.6703 88.4219C21.2101 87.8324 21.6535 87.2842 22.0063 86.8121C21.9634 86.8116 21.9199 86.811 21.8759 86.8102C20.4334 86.7843 18.3742 86.5948 15.8498 85.9506C10.9054 84.689 4.21475 81.6933 -3.10057 74.833C-5.63879 75.8582 -9.12389 77.1702 -12.0554 78.2551C-13.6504 78.8454 -15.0856 79.37 -16.1222 79.7471C-16.1939 79.7732 -16.2637 79.7986 -16.3315 79.8232C-16.092 80.0791 -15.8132 80.3714 -15.4984 80.6927C-14.3084 81.9075 -12.6094 83.5314 -10.5738 85.1691C-6.45887 88.4795 4.16401 93.3063 9.34726 93.5516C9.34726 93.5516 8.3192 94.0185 8.0144 94.1577C7.7096 94.2969 6.64529 94.6047 6.64529 94.6047C0.757032 94.326 -7.71189 90.1678 -11.9006 86.798C-14.0168 85.0956 -15.7776 83.4122 -17.0095 82.1546C-17.626 81.5253 -18.1115 81.0011 -18.4443 80.6326C-18.6107 80.4483 -18.7391 80.3028 -18.8266 80.2025C-18.8704 80.1523 -18.904 80.1134 -18.927 80.0865L-18.9537 80.0554L-18.961 80.0467L-18.9638 80.0434C-18.9638 80.0434 -18.9643 80.0429 -18.1569 79.3689L-18.5158 78.3836L-18.0695 78.2225C-17.7814 78.1183 -17.364 77.9671 -16.8471 77.7791C-15.8132 77.403 -14.3818 76.8797 -12.7914 76.2912C-9.60588 75.1122 -5.79963 73.6773 -3.27083 72.6374L-2.6328 72.375ZM-18.1569 79.3689L-18.5158 78.3836L-19.9351 78.8943L-18.9638 80.0434L-18.1569 79.3689Z" fill="#D4FD5F"/>
<ellipse cx="1.35011" cy="85.6565" rx="7.90822" ry="5.76327" fill="#D4FD5F"/>
<path d="M19.8124 66.6018L25.7048 70.0467C28.4206 71.6803 30.5625 74.1164 31.8352 77.0189L25.9427 73.5968C24.674 70.6859 22.5317 68.2414 19.8124 66.6018V66.6018Z" fill="#EBA500"/>
<path d="M-6.0175 124.3L-11.9054 120.856C-14.6307 119.217 -16.7782 116.771 -18.0495 113.856C-19.9664 109.702 -20.552 104.455 -19.7239 98.7862C-18.7928 92.8195 -16.6488 87.1069 -13.4243 82.0009C-10.3165 76.9163 -6.1752 72.5413 -1.26876 69.1592C3.35189 66.0803 8.17841 64.4882 12.5154 64.5843L18.4125 68.0292C14.0709 67.924 9.26267 69.516 4.6283 72.6041C-0.279905 75.9823 -4.42162 80.3562 -7.52721 85.4413C-10.753 90.5471 -12.8985 96.2596 -13.8314 102.227C-14.6549 107.895 -14.0739 113.142 -12.157 117.296C-10.8859 120.211 -8.74049 122.658 -6.0175 124.3V124.3Z" fill="#FFD000"/>
<path d="M-2.7876 84.7277L-8.70294 81.2828C-6.42457 78.1908 -3.6405 75.5057 -0.468124 73.3407C3.37022 70.7697 7.37326 69.4521 11.0378 69.5527C11.9031 69.5765 12.7641 69.6837 13.6088 69.873L19.5059 73.3179C18.6611 73.1289 17.8001 73.0216 16.9348 72.9976C13.2749 72.9016 9.26726 74.2145 5.42435 76.7856C2.25991 78.9524 -0.516355 81.6374 -2.7876 84.7277V84.7277Z" fill="#FFD000"/>
<path d="M4.96687 84.5676L-0.930176 81.1227L-0.925603 81.1227L4.96687 84.5676Z" fill="#CA820B"/>
<path d="M-0.870702 81.0632L5.02635 84.5081L4.96687 84.5676L-0.925598 81.1227L-0.870702 81.0632Z" fill="#CA820B"/>
<path d="M5.24133 84.2745L5.02632 84.5078L-0.870728 81.0629L-0.655693 80.8296L4.55052 83.8719L5.24133 84.2745Z" fill="#FCDF8F"/>
<path d="M-0.655668 80.8296L5.24136 84.2745C5.21848 84.3523 5.19104 84.43 5.16817 84.5078L-0.728882 81.0629C-0.701432 80.9851 -0.678542 80.9165 -0.655668 80.8296Z" fill="#CA820B"/>
<path d="M-0.728905 81.0632L5.16815 84.5081L5.02175 84.5081L-0.875305 81.0632L-0.728905 81.0632Z" fill="#CA820B"/>
<path d="M5.64855 84.5032L5.19106 84.5032L-0.705994 81.0583L-0.221055 81.0583L5.64855 84.5032Z" fill="#FCDF8F"/>
<path d="M-0.728972 81.0632L5.16808 84.5081C4.88444 85.4231 4.60077 86.4021 4.32171 87.308L-1.57532 83.8631C-1.29625 82.9572 -1.00804 81.9828 -0.728972 81.0632Z" fill="#FCDF8F"/>
<path d="M4.3126 87.5139L-1.58445 84.069C-1.62562 84.069 -1.6302 83.9775 -1.58445 83.8632L4.3126 87.3081C4.26686 87.4224 4.26686 87.4911 4.3126 87.5139Z" fill="#FCDF8F"/>
<path d="M4.31258 87.5136L-1.58447 84.0687C-1.56957 84.0733 -1.55364 84.0733 -1.53873 84.0687L-1.45636 84.0687L4.43608 87.5136L4.35832 87.5136C4.34352 87.5188 4.32738 87.5188 4.31258 87.5136V87.5136Z" fill="#CA820B"/>
<path d="M0.675531 84.206L6.57258 87.6509C6.47134 87.5895 6.35676 87.5534 6.2386 87.5456C6.04645 87.5456 5.84975 87.5136 5.6576 87.509C5.23671 87.509 4.82038 87.509 4.43608 87.509L-1.45636 84.0641C-1.07664 84.0641 -0.660335 84.0641 -0.23487 84.0641C-0.0427239 84.0641 0.149426 84.0641 0.341572 84.1007C0.45987 84.1077 0.574593 84.1439 0.675531 84.206V84.206Z" fill="#CA820B"/>
<path d="M5.72626 75.8433L11.6187 79.2882C11.4037 79.2882 11.3305 79.3888 11.239 79.645L5.34198 76.2001C5.43348 75.9439 5.51124 75.8341 5.72626 75.8433Z" fill="#FCDF8F"/>
<path d="M11.9389 79.302L11.6187 79.302L5.7262 75.8571L6.04644 75.8571L11.9389 79.302Z" fill="#FCDF8F"/>
<path d="M5.34202 76.2002L11.2391 79.6451C10.8136 81.1502 10.3973 82.573 9.97182 84.0782L4.07935 80.6333C4.50024 79.1281 4.91656 77.7145 5.34202 76.2002Z" fill="#FCDF8F"/>
<path d="M5.64849 84.5034C5.59375 84.4781 5.54167 84.4474 5.49296 84.4119L4.98513 84.1145L4.31721 83.7256L-0.25769 81.0585C0.291297 81.0585 0.844849 81.0127 1.38926 81.0264C2.15327 81.0264 2.92187 80.9761 3.7179 80.9898C3.89632 80.9898 3.97407 80.8846 4.06557 80.633L9.95804 84.0779C9.87112 84.3295 9.79334 84.4393 9.61492 84.4347C8.81431 84.4347 8.04575 84.4851 7.28631 84.4713C6.75105 84.4576 6.20205 84.4896 5.64849 84.5034Z" fill="#FCDF8F"/>
<path d="M11.9389 79.3019L11.8886 79.2745L11.8291 79.2379L11.6827 79.151L6.08307 75.8799C6.60003 75.8799 7.08954 75.8799 7.62023 75.8387L13.5127 79.2836C12.9866 79.3202 12.4925 79.3385 11.9801 79.3248L11.9389 79.3019Z" fill="#FCDF8F"/>
<path d="M13.4899 79.2605C13.4899 79.2605 13.4899 79.2605 13.4624 79.2605L7.59741 75.8293L7.73465 75.8293L13.6317 79.2742L13.4899 79.2605Z" fill="#FCDF8F"/>
<path d="M7.86279 75.8386L13.7553 79.2835C13.7158 79.2671 13.6742 79.2563 13.6317 79.2515L7.73468 75.8066C7.7787 75.811 7.82186 75.8218 7.86279 75.8386V75.8386Z" fill="#FCDF8F"/>
<path d="M7.86279 75.8387L13.7553 79.2836C13.8285 79.3294 13.8056 79.4072 13.7553 79.5444L7.86279 76.0995C7.91312 75.9623 7.93142 75.8845 7.86279 75.8387Z" fill="#CA820B"/>
<path d="M0.131167 103.791C0.0259446 103.837 -0.0335335 103.901 -0.102157 104.098L-5.99463 100.653C-5.92601 100.456 -5.87111 100.392 -5.76588 100.346L0.131167 103.791Z" fill="#FCDF8F"/>
<path d="M0.131182 103.791L-5.76587 100.346L-5.61489 100.296L-0.408653 103.338L0.282162 103.741L0.131182 103.791Z" fill="#FCDF8F"/>
<path d="M7.84904 76.0992L13.7415 79.5441C13.3252 80.9669 12.8997 82.472 12.4834 83.8948L6.59094 80.4591C7.00726 79.0271 7.43272 77.522 7.84904 76.0992Z" fill="#CA820B"/>
<path d="M6.59093 80.4592L12.4834 83.9041C12.4739 84.0271 12.4397 84.147 12.3828 84.2564L6.48572 80.8115C6.54314 80.7019 6.57886 80.5823 6.59093 80.4592Z" fill="#CA820B"/>
<path d="M12.8357 84.2428L12.3782 84.2428L6.48114 80.7979L6.93863 80.7979L12.8357 84.2428Z" fill="#FCDF8F"/>
<path d="M15.6904 79.448L9.79797 76.0031C9.79797 75.8612 9.87117 75.7606 10.0267 75.7743L15.9238 79.2192C15.7682 79.2055 15.7087 79.3061 15.6904 79.448Z" fill="#FCDF8F"/>
<path d="M0.396556 103.759L0.282183 103.759L-5.61487 100.314L-5.5005 100.314C-5.06382 100.329 -4.62668 100.313 -4.19208 100.268L1.70039 103.713C1.26747 103.76 0.831705 103.776 0.396556 103.759V103.759Z" fill="#FCDF8F"/>
<path d="M1.70033 103.713L1.67288 103.713L-4.19214 100.282L-4.08235 100.282L1.81929 103.7C1.77998 103.707 1.74024 103.711 1.70033 103.713V103.713Z" fill="#FCDF8F"/>
<path d="M9.79797 76.0032L15.695 79.4481L15.3793 80.514L9.48688 77.0691L9.79797 76.0032Z" fill="#FCDF8F"/>
<path d="M16.1387 79.2287L15.9237 79.2287L10.0267 75.7838L10.2463 75.7838L16.1159 79.215L10.2463 75.7838L16.1433 79.2287L16.1387 79.2287Z" fill="#FCDF8F"/>
<path d="M5.6257 84.6268L11.5227 88.0717L11.4861 88.0717C11.3031 88.0717 11.2299 88.1723 11.1384 88.4331L5.24597 84.9882C5.33289 84.7274 5.41067 84.6222 5.58909 84.6268L5.6257 84.6268Z" fill="#CA820B"/>
<path d="M2.95386 102.629C2.91475 102.912 2.7798 103.172 2.57159 103.367C2.36339 103.562 2.09458 103.679 1.81014 103.7L-4.08234 100.255C-3.79846 100.233 -3.53052 100.115 -3.32264 99.9201C-3.11476 99.7255 -2.97933 99.466 -2.93861 99.1841L2.95386 102.629Z" fill="#FCDF8F"/>
<path d="M12.8357 84.2428C12.8048 84.2278 12.7756 84.2094 12.7488 84.1878L11.0149 83.1768L6.94324 80.7979C7.3687 80.7979 7.81246 80.7979 8.21962 80.7979L14.1167 84.2428C13.7141 84.2199 13.2566 84.2336 12.8357 84.2428Z" fill="#FCDF8F"/>
<path d="M14.199 84.1419C14.1778 84.1738 14.1497 84.2004 14.1167 84.2197L8.22418 80.7748C8.25915 80.7561 8.28779 80.7274 8.30653 80.6924L14.199 84.1419Z" fill="#FCDF8F"/>
<path d="M9.48229 77.0692L15.3793 80.5141C14.9859 81.6852 14.6748 82.7512 14.3546 83.8995L8.45752 80.4592C8.77776 79.3063 9.09343 78.2403 9.48229 77.0692Z" fill="#FCDF8F"/>
<path d="M14.199 84.1421L8.30194 80.6926C8.35684 80.624 8.40718 80.5233 8.4575 80.4547L14.3546 83.8996C14.3042 83.9682 14.2493 84.0689 14.199 84.1421Z" fill="#FCDF8F"/>
<path d="M18.0373 79.2562C17.3008 79.215 16.7152 79.2562 16.1433 79.2287L10.2463 75.7838C10.8227 75.7838 11.4037 75.7838 12.1403 75.8113L18.0373 79.2562Z" fill="#FCDF8F"/>
<path d="M-2.59089 104.107L3.30158 107.552C3.27695 107.673 3.24332 107.793 3.20095 107.909L-2.69611 104.464C-2.65177 104.348 -2.6166 104.229 -2.59089 104.107V104.107Z" fill="#FCDF8F"/>
<path d="M19.5059 73.3179C19.4517 73.2935 19.3996 73.2644 19.3504 73.231L13.6089 69.873C14.7772 70.1388 15.8986 70.5799 16.9348 71.1815L22.8273 74.6264C21.7927 74.0248 20.6728 73.5836 19.5059 73.3179V73.3179Z" fill="#FFD000"/>
<path d="M2.81203 109.107L-3.08044 105.662C-2.95692 105.26 -2.82881 104.857 -2.69614 104.464L3.19175 107.908C3.06823 108.302 2.93555 108.704 2.81203 109.107Z" fill="#FCDF8F"/>
<path d="M-0.0929533 104.093L5.79952 107.538C5.5845 108.33 5.29628 109.144 5.08126 109.94C4.86624 110.736 4.57801 111.55 4.35841 112.346L-1.53406 108.901C-1.31904 108.105 -1.03081 107.291 -0.811216 106.495C-0.591621 105.699 -0.312548 104.885 -0.0929533 104.093Z" fill="#CA820B"/>
<path d="M1.64544 104.057L7.53791 107.501C6.97977 107.501 6.42622 107.501 5.79945 107.538L-0.0930176 104.093C0.529169 104.066 1.0873 104.061 1.64544 104.057Z" fill="#CA820B"/>
<path d="M1.67747 104.07L7.56995 107.515L7.53792 107.515L1.64545 104.07L1.67747 104.07Z" fill="#CA820B"/>
<path d="M1.67749 104.07L7.56996 107.515C7.65689 107.566 7.56996 107.666 7.56996 107.817L1.67749 104.372C1.69579 104.221 1.75984 104.121 1.67749 104.07Z" fill="#FCDF8F"/>
<path d="M7.56543 94.4034L13.4579 97.8483C13.2749 97.7431 13.0736 97.6471 12.8769 97.5556L6.97986 94.1107C7.18115 94.1839 7.37786 94.2982 7.56543 94.4034Z" fill="#CA820B"/>
<path d="M4.35381 100.411L10.2509 103.855C9.10132 104.064 7.93189 104.142 6.76479 104.089L0.867737 100.644C2.03484 100.698 3.20429 100.619 4.35381 100.411V100.411Z" fill="#FCDF8F"/>
<path d="M13.7552 81.5391L19.6476 84.984C20.1706 85.2877 20.6081 85.719 20.9195 86.2375L15.0224 82.7926C14.7114 82.2754 14.2758 81.8444 13.7552 81.5391V81.5391Z" fill="#CA820B"/>
<path d="M7.57459 107.817C7.08507 109.258 6.65959 110.768 6.2387 112.268L0.341675 108.823C0.76714 107.323 1.1926 105.813 1.68212 104.372L7.57459 107.817Z" fill="#FCDF8F"/>
<path d="M14.231 98.6122L12.4331 97.5645L8.3157 95.1673C8.13917 94.8433 7.8721 94.5778 7.54712 94.4033L13.4396 97.8482C13.7735 98.0185 14.0491 98.2845 14.231 98.6122V98.6122Z" fill="#FCDF8F"/>
<path d="M6.22031 112.31C6.16998 112.424 6.16083 112.493 6.22031 112.529L0.323255 109.084C0.259207 109.048 0.272932 108.979 0.323255 108.86L6.22031 112.31Z" fill="#FCDF8F"/>
<path d="M6.80593 99.4357L12.703 102.881C11.9644 103.376 11.1283 103.709 10.2508 103.855L4.35376 100.41C5.23172 100.265 6.06815 99.9331 6.80593 99.4357V99.4357Z" fill="#FCDF8F"/>
<path d="M17.7399 94.5362L11.8429 91.0913L11.788 91.0547L17.6804 94.4996L17.7399 94.5362Z" fill="#CA820B"/>
<path d="M12.0808 90.8854L17.9732 94.3303C17.9046 94.3532 17.8223 94.4584 17.6804 94.4996L11.788 91.0547C11.9298 91.0135 12.0076 90.9083 12.0808 90.8854Z" fill="#CA820B"/>
<path d="M13.6272 101.984C13.3803 102.342 13.0702 102.652 12.7122 102.899L6.81512 99.454C7.1732 99.2071 7.48326 98.8971 7.7301 98.539L13.6272 101.984Z" fill="#FCDF8F"/>
<path d="M14.231 98.6126C14.7206 99.4406 14.4049 100.9 13.6272 101.984L7.7301 98.5394C8.51241 97.4688 8.82351 95.9957 8.33399 95.1677C10.1045 96.2016 12.7991 97.1669 14.231 98.6126Z" fill="#FCDF8F"/>
<path d="M18.4171 94.8748C18.1929 94.7467 17.9595 94.6644 17.7399 94.5363L11.8429 91.0914C12.0671 91.2195 12.3004 91.2972 12.52 91.4299L18.4171 94.8748Z" fill="#FCDF8F"/>
<path d="M-1.804 109.153L4.09302 112.598L3.80483 112.598C3.20094 112.598 2.58791 112.621 1.97487 112.662L-3.92218 109.217C-3.30914 109.176 -2.69611 109.135 -2.09222 109.153L-1.804 109.153Z" fill="#CA820B"/>
<path d="M-1.53411 108.901L4.35836 112.346C4.27601 112.525 4.26685 112.602 4.09301 112.598L-1.80402 109.153C-1.63017 109.158 -1.62104 109.08 -1.53411 108.901Z" fill="#CA820B"/>
<path d="M6.22042 112.31L0.323364 108.86C0.325829 108.848 0.325829 108.836 0.323364 108.824L6.22042 112.269C6.21869 112.282 6.21869 112.296 6.22042 112.31V112.31Z" fill="#FCDF8F"/>
<path d="M6.22499 112.529L0.327942 109.084C0.366714 109.103 0.408641 109.114 0.451473 109.116L6.34852 112.561C6.30569 112.559 6.26376 112.548 6.22499 112.529V112.529Z" fill="#CA820B"/>
<path d="M16.9165 71.1812L22.809 74.6261C23.0286 74.7542 23.2665 74.8915 23.4495 75.0333C25.4022 76.3872 26.9414 78.2558 27.8963 80.4317C28.9912 82.9397 29.558 85.6462 29.5615 88.3828L23.6691 84.9379C23.6618 82.2013 23.0934 79.4952 21.9992 76.9868C21.0461 74.8099 19.5085 72.9398 17.557 71.5838C17.374 71.442 17.1498 71.3093 16.9165 71.1812Z" fill="#FCDF8F"/>
<path d="M-3.41435 119.689L-9.30682 116.244C-8.54549 116.692 -7.7349 117.049 -6.89126 117.31C-5.76373 117.657 -4.59371 117.846 -3.41435 117.873C-0.778778 117.895 1.82887 117.332 4.22116 116.226C8.15099 114.492 11.971 111.477 15.2009 107.534C18.4313 103.6 20.8549 99.0684 22.3332 94.1977C23.2651 91.1925 23.728 88.0616 23.7057 84.9153L29.5981 88.3602C29.6206 91.5065 29.1577 94.6375 28.2256 97.6426C26.7458 102.514 24.3207 107.045 21.0888 110.978C17.8864 114.899 14.048 117.914 10.109 119.671C7.71537 120.778 5.10608 121.34 2.46896 121.318C1.29114 121.291 0.122694 121.101 -1.00337 120.755C-1.84531 120.494 -2.65432 120.136 -3.41435 119.689V119.689Z" fill="#FCDF8F"/>
<path d="M-6.01744 124.301L-11.9053 120.856C-10.9726 121.399 -9.98113 121.835 -8.94994 122.155C-8.16636 122.396 -7.3647 122.573 -6.5527 122.686C-5.95494 122.767 -5.35323 122.816 -4.75019 122.832C-1.5627 122.863 1.59191 122.186 4.48654 120.851C9.24443 118.76 13.8559 115.123 17.7537 110.402C21.656 105.667 24.5822 100.206 26.3637 94.335C28.6512 86.6126 28.5276 79.1463 25.9565 73.5741L31.849 77.019C34.4201 82.5912 34.5665 90.0575 32.2607 97.7799C30.4745 103.656 27.542 109.12 23.6325 113.856C19.7438 118.582 15.1277 122.214 10.3653 124.305C7.47064 125.64 4.31603 126.317 1.12855 126.286C0.52538 126.272 -0.0764743 126.223 -0.673963 126.14C-1.48738 126.027 -2.29052 125.849 -3.07579 125.609C-4.10308 125.287 -5.09006 124.848 -6.01744 124.301V124.301Z" fill="#E48203"/>
<path d="M12.5154 64.6119C8.17841 64.5067 3.36561 66.0987 -1.26876 69.1868C-6.1752 72.5689 -10.3165 76.9439 -13.4243 82.0285C-16.6488 87.1345 -18.7928 92.8471 -19.7239 98.8138C-20.552 104.482 -19.9664 109.73 -18.0495 113.884C-16.1326 118.038 -12.9713 120.92 -8.95916 122.164C-8.17558 122.405 -7.37392 122.582 -6.56192 122.695C-7.41301 122.582 -8.25316 122.399 -9.07353 122.146C-13.0628 120.906 -16.2104 118.028 -18.1135 113.87C-20.0167 109.711 -20.5886 104.468 -19.7651 98.8047C-18.8276 92.8411 -16.6841 87.1312 -13.4654 82.0239C-10.3704 76.9427 -6.24139 72.569 -1.34652 69.1868C3.2787 66.0804 8.10521 64.4929 12.5154 64.6119Z" fill="#FFD000"/>
<path d="M4.5643 103.997L10.4568 107.442C10.2372 107.442 10.0954 107.566 9.99928 107.822L4.10681 104.377C4.19373 104.121 4.33556 103.993 4.5643 103.997Z" fill="#CA820B"/>
<path d="M15.0225 82.7922L20.9195 86.2371C21.4365 87.2985 21.377 88.6115 20.9607 90.0343L15.0865 86.5894C15.4845 85.1666 15.544 83.8536 15.0225 82.7922Z" fill="#CA820B"/>
<path d="M15.0865 86.5897L20.979 90.0346C20.7095 91.0201 20.2664 91.9496 19.6706 92.7796C19.1954 93.3823 18.6288 93.9071 17.9916 94.335L12.0991 90.8901C12.7345 90.4598 13.3006 89.9353 13.7781 89.3347C14.3722 88.5037 14.8151 87.5745 15.0865 86.5897V86.5897Z" fill="#CA820B"/>
<path d="M2.39581 109.103L8.29286 112.548C7.6661 112.575 6.97529 112.548 6.34853 112.548L0.446899 109.117C1.07824 109.089 1.76905 109.13 2.39581 109.103Z" fill="#CA820B"/>
<path d="M4.10682 104.377L9.99929 107.822C9.58298 109.245 9.16209 110.75 8.7412 112.168C8.65427 112.461 8.63596 112.571 8.43924 112.566C8.39051 112.57 8.34159 112.57 8.29286 112.566L2.39581 109.121C2.44455 109.124 2.49347 109.124 2.54221 109.121C2.74351 109.121 2.7618 109.016 2.84872 108.723C3.26504 107.305 3.6905 105.8 4.10682 104.377Z" fill="#CA820B"/>
<path d="M12.52 91.439L18.4171 94.8839L18.472 94.9205C18.8712 95.1755 19.2077 95.5173 19.4565 95.9205C19.7052 96.3237 19.8597 96.7779 19.9085 97.2491L14.0114 93.8042C13.9629 93.3334 13.8089 92.8797 13.561 92.4766C13.3131 92.0734 12.9777 91.7313 12.5795 91.4756L12.52 91.439Z" fill="#CA820B"/>
<path d="M14.0114 93.7952L19.9085 97.2401C19.934 98.2179 19.7917 99.1927 19.4876 100.122C19.1241 101.349 18.5897 102.517 17.9001 103.595C17.1449 104.779 16.0649 105.72 14.7892 106.308C13.4137 106.916 11.9493 107.299 10.4522 107.442L4.56427 103.997C6.06123 103.853 7.52543 103.47 8.90127 102.863C10.1762 102.276 11.2548 101.334 12.0076 100.15C12.7009 99.0746 13.2355 97.9051 13.5951 96.6774C13.9021 95.7486 14.0431 94.773 14.0114 93.7952V93.7952Z" fill="#CA820B"/>
<path d="M25.9428 73.5968C28.5139 79.169 28.6603 86.6352 26.35 94.3577C24.5685 100.229 21.6422 105.69 17.74 110.425C13.8468 115.146 9.23526 118.783 4.47279 120.874C1.57817 122.209 -1.57645 122.885 -4.76393 122.855C-5.36697 122.838 -5.96869 122.79 -6.56644 122.708C-7.37844 122.596 -8.1801 122.418 -8.96368 122.178C-12.9759 120.933 -16.1417 118.06 -18.054 113.897C-19.9663 109.734 -20.5565 104.496 -19.7284 98.8273C-18.7973 92.8606 -16.6533 87.148 -13.4288 82.042C-10.321 76.9574 -6.17973 72.5824 -1.27328 69.2003C3.34737 66.1214 8.17388 64.5293 12.5887 64.6254C18.5909 64.7764 23.3717 68.0017 25.9428 73.5968ZM15.1964 107.579C18.4268 103.646 20.8504 99.1139 22.3286 94.2433C23.2605 91.2381 23.7235 88.1071 23.7011 84.9608C23.6938 82.2241 23.1255 79.518 22.0313 77.0096C21.0781 74.8328 19.5405 72.9626 17.589 71.6067C15.6493 70.3175 13.3802 69.6125 11.0515 69.5754C7.39158 69.4748 3.38398 70.7923 -0.454357 73.3634C-4.51753 76.1721 -7.9463 79.8019 -10.5191 84.0184C-13.1876 88.2594 -14.9652 92.9991 -15.7437 97.9489C-16.4299 102.657 -15.9541 107.007 -14.3712 110.457C-12.7883 113.906 -10.1806 116.303 -6.86837 117.319C-5.74084 117.666 -4.57082 117.855 -3.39146 117.882C-0.755889 117.903 1.85176 117.341 4.24405 116.235C8.17388 114.501 11.9939 111.486 15.2238 107.543" fill="#FFD000"/>
<mask id="mask0_4608_439636" style="mask-type:alpha" maskUnits="userSpaceOnUse" x="-21" y="64" width="49" height="59">
<path d="M25.9428 73.5968C28.5139 79.169 28.6603 86.6352 26.35 94.3577C24.5685 100.229 21.6422 105.69 17.74 110.425C13.8468 115.146 9.23526 118.783 4.47279 120.874C1.57817 122.209 -1.57645 122.885 -4.76393 122.855C-5.36697 122.838 -5.96869 122.79 -6.56644 122.708C-7.37844 122.596 -8.1801 122.418 -8.96368 122.178C-12.9759 120.933 -16.1417 118.06 -18.054 113.897C-19.9663 109.734 -20.5565 104.496 -19.7284 98.8273C-18.7973 92.8606 -16.6533 87.148 -13.4288 82.042C-10.321 76.9574 -6.17973 72.5824 -1.27328 69.2003C3.34737 66.1214 8.17388 64.5293 12.5887 64.6254C18.5909 64.7764 23.3717 68.0017 25.9428 73.5968ZM15.1964 107.579C18.4268 103.646 20.8504 99.1139 22.3286 94.2433C23.2605 91.2381 23.7235 88.1071 23.7011 84.9608C23.6938 82.2241 23.1255 79.518 22.0313 77.0096C21.0781 74.8328 19.5405 72.9626 17.589 71.6067C15.6493 70.3175 13.3802 69.6125 11.0515 69.5754C7.39158 69.4748 3.38398 70.7923 -0.454357 73.3634C-4.51753 76.1721 -7.9463 79.8019 -10.5191 84.0184C-13.1876 88.2594 -14.9652 92.9991 -15.7437 97.9489C-16.4299 102.657 -15.9541 107.007 -14.3712 110.457C-12.7883 113.906 -10.1806 116.303 -6.86837 117.319C-5.74084 117.666 -4.57082 117.855 -3.39146 117.882C-0.755889 117.903 1.85176 117.341 4.24405 116.235C8.17388 114.501 11.9939 111.486 15.2238 107.543" fill="#FFD000"/>
</mask>
<g mask="url(#mask0_4608_439636)">
<rect x="-54.6089" y="114.18" width="118.906" height="5.07103" transform="rotate(-30 -54.6089 114.18)" fill="#FFF3A5"/>
<rect x="-33.799" y="130.467" width="91.2786" height="2.53552" transform="rotate(-30 -33.799 130.467)" fill="#FFF3A5"/>
<rect x="-43.4053" y="115.519" width="91.2786" height="2.53552" transform="rotate(-30 -43.4053 115.519)" fill="#FFF3A5"/>
</g>
<path d="M23.6873 84.9381C23.7097 88.0844 23.2468 91.2154 22.3148 94.2206C20.8366 99.0912 18.413 103.623 15.1826 107.556C11.9802 111.477 8.13725 114.492 4.20284 116.249C1.81056 117.355 -0.797093 117.917 -3.43267 117.896C-4.61202 117.869 -5.78207 117.68 -6.90961 117.333C-10.2218 116.304 -12.857 113.906 -14.4124 110.471C-15.9679 107.035 -16.4666 102.67 -15.7849 97.9628C-15.0028 92.9983 -13.2157 88.2456 -10.5329 83.9957C-7.96008 79.7792 -4.53132 76.1494 -0.468141 73.3407C3.3702 70.7697 7.37325 69.4521 11.0377 69.5527C13.3665 69.5898 15.6356 70.2948 17.5753 71.584C19.5268 72.9399 21.0644 74.8101 22.0175 76.9869C23.1117 79.4953 23.68 82.2014 23.6873 84.9381Z" fill="#EBA500"/>
<path d="M-14.4124 110.471C-12.857 113.906 -10.2218 116.304 -6.90961 117.333C-10.6488 113.827 -15.9358 105.719 -12.3172 92.8619C-8.69385 79.9882 3.00875 71.3736 11.0377 69.5527C7.37325 69.4521 3.3702 70.7697 -0.468142 73.3407C-4.53132 76.1494 -7.96008 79.7792 -10.5329 83.9957C-13.2157 88.2456 -15.0028 92.9983 -15.7849 97.9628C-16.4666 102.67 -15.9679 107.035 -14.4124 110.471Z" fill="#DF7900"/>
<path d="M19.3061 81.8092C20.1021 83.9442 19.8566 86.4604 18.5695 89.3578C17.7872 91.1592 16.7043 92.8146 15.3671 94.253C14.3529 95.3691 13.163 96.3118 11.8444 97.0437C11.6308 97.167 11.4511 97.3415 11.3218 97.5516C11.1924 97.7616 11.1173 98.0006 11.1033 98.2469L11.0667 106.939C11.0667 107.557 10.5177 108.202 10.0053 108.188L5.65457 108.069C5.35263 108.069 5.15135 107.804 5.15592 107.433L5.29316 99.0612C5.29316 98.6906 5.10101 98.439 4.79449 98.4298L3.42202 98.3932C3.21021 98.4185 3.00956 98.5019 2.84237 98.6344C2.67518 98.7669 2.548 98.9431 2.47501 99.1435L-1.01564 107.104C-1.08655 107.306 -1.213 107.484 -1.38051 107.618C-1.54802 107.751 -1.74976 107.835 -1.96262 107.859L-6.36367 107.74C-6.82116 107.74 -6.9996 107.191 -6.75255 106.623L5.33432 79.0551C5.40731 78.8547 5.53449 78.6785 5.70168 78.546C5.86887 78.4136 6.06952 78.3301 6.28133 78.3049L14.6717 78.5336C16.9592 78.5977 18.504 79.6895 19.3061 81.8092ZM12.7869 88.8637C13.2169 87.8847 13.3221 87.0749 13.1162 86.4482C12.9104 85.8214 12.4391 85.492 11.6523 85.4737L9.10862 85.4005C8.89681 85.4257 8.69615 85.5092 8.52896 85.6417C8.36177 85.7741 8.23463 85.9504 8.16164 86.1508L6.08003 90.8904C5.82841 91.4623 6.016 91.9975 6.46434 92.0067L8.98053 92.0753L9.07204 92.0753C9.82568 92.0653 10.5465 91.7655 11.085 91.2381C11.8293 90.588 12.412 89.7735 12.7869 88.8592" fill="#DF7900"/>
<path d="M9.80165 96.4764C9.55549 96.6325 9.34943 96.8442 9.20005 97.0945C9.05066 97.3448 8.96212 97.6267 8.94156 97.9175L8.70824 106.317C8.70824 107.081 8.01744 107.859 7.39982 107.845L2.78832 107.717C2.39945 107.717 2.15697 107.374 2.17985 106.893L2.54128 99.1161C2.56416 98.6586 2.31711 98.3064 1.93281 98.2926L1.23742 98.2926C0.978801 98.325 0.733927 98.4272 0.529155 98.5885C0.324383 98.7497 0.167489 98.9638 0.0754071 99.2076L-3.12702 106.587C-3.2199 106.831 -3.37761 107.045 -3.58317 107.207C-3.78873 107.368 -4.03434 107.47 -4.29362 107.502L-9.0012 107.374C-9.55934 107.374 -9.78351 106.692 -9.45869 106.001L2.43604 78.7624C2.52848 78.5179 2.68608 78.3035 2.89172 78.1422C3.09736 77.9809 3.34323 77.8789 3.60266 77.8474L11.9884 78.0762C14.3521 78.1402 15.9457 79.2229 16.7692 81.3243C17.5927 83.4257 17.3197 86.0182 15.9503 89.1017C14.5107 92.3773 12.4612 94.8355 9.80165 96.4764ZM9.47224 88.6762C9.84281 87.8024 9.92973 87.1207 9.75588 86.6312C9.67798 86.3788 9.51512 86.1612 9.29496 86.0152C9.0748 85.8693 8.81093 85.8041 8.54813 85.8306L6.68614 85.7803C6.42637 85.8108 6.18005 85.9124 5.97425 86.0738C5.76844 86.2352 5.61111 86.4502 5.51955 86.6953L4.14708 89.8702C3.83599 90.5793 4.06473 91.2427 4.60457 91.2427L6.21491 91.2839L6.31558 91.2839C6.94098 91.2871 7.54548 91.059 8.01285 90.6434C8.66381 90.1105 9.16644 89.4188 9.47224 88.635" fill="#FFE12A"/>
<mask id="mask1_4608_439636" style="mask-type:alpha" maskUnits="userSpaceOnUse" x="-10" y="77" width="28" height="31">
<path d="M9.80171 96.476C9.55555 96.6321 9.34949 96.8439 9.20011 97.0942C9.05072 97.3445 8.96218 97.6264 8.94162 97.9171L8.7083 106.317C8.7083 107.081 8.0175 107.858 7.39989 107.845L2.78838 107.717C2.39951 107.717 2.15704 107.373 2.17991 106.893L2.54135 99.1157C2.56422 98.6583 2.31717 98.306 1.93288 98.2923L1.23748 98.2923C0.978862 98.3246 0.733988 98.4269 0.529216 98.5881C0.324444 98.7494 0.167551 98.9634 0.0754682 99.2072L-3.12696 106.587C-3.21984 106.831 -3.37755 107.045 -3.58311 107.206C-3.78867 107.367 -4.03428 107.47 -4.29355 107.502L-9.00114 107.373C-9.55928 107.373 -9.78345 106.692 -9.45863 106.001L2.4361 78.762C2.52855 78.5176 2.68614 78.3031 2.89178 78.1418C3.09742 77.9805 3.34329 77.8786 3.60273 77.847L11.9885 78.0758C14.3522 78.1398 15.9458 79.2226 16.7693 81.324C17.5928 83.4254 17.3198 86.0178 15.9504 89.1013C14.5108 92.3769 12.4612 94.8352 9.80171 96.476ZM9.4723 88.6758C9.84287 87.802 9.92979 87.1204 9.75594 86.6309C9.67804 86.3785 9.51518 86.1608 9.29502 86.0149C9.07486 85.8689 8.81099 85.8037 8.54819 85.8302L6.6862 85.7799C6.42643 85.8105 6.18011 85.912 5.97431 86.0734C5.7685 86.2348 5.61117 86.4499 5.51961 86.6949L4.14714 89.8699C3.83605 90.579 4.06479 91.2423 4.60463 91.2423L6.21497 91.2835L6.31564 91.2835C6.94104 91.2868 7.54555 91.0586 8.01291 90.643C8.66387 90.1101 9.1665 89.4184 9.4723 88.6347" fill="#FFE12A"/>
</mask>
<g mask="url(#mask1_4608_439636)">
<rect x="-54.6088" y="114.179" width="118.906" height="5.07103" transform="rotate(-30 -54.6088 114.179)" fill="#FFF3A5"/>
<rect x="-33.7988" y="130.467" width="91.2786" height="2.53552" transform="rotate(-30 -33.7988 130.467)" fill="#FFF3A5"/>
<rect x="-43.405" y="115.519" width="91.2786" height="2.53552" transform="rotate(-30 -43.405 115.519)" fill="#FFF3A5"/>
</g>
<g clip-path="url(#clip0_4608_439636)">
<path d="M-17.9247 38.7534L0.556294 62.8734L-19.9467 63.8228L-29.2331 52.1261L-34.3867 39.3326L-17.9247 38.7534Z" fill="#88CF42"/>
<path d="M0.556169 62.8732L-19.9468 63.8226L-20.7279 66.0041L-0.782899 65.1386L0.556169 62.8732Z" fill="#25951C"/>
<path d="M-33.4578 68.021C-33.4578 68.021 -42.6589 59.2302 -42.621 50.7507C-34.8738 55.33 -19.8471 52.0156 -13.3022 49.7861C-10.6909 55.6853 0.0203286 61.1455 0.0203286 61.1455C-3.56054 64.2559 -13.6192 72.778 -33.4578 68.021Z" fill="#82DC34"/>
<path opacity="0.3" d="M-0.527433 65.5621C-24.6703 62.7872 -34.4739 39.73 -34.3865 39.3309L-16.873 45.2553C-3.37687 52.9492 3.93095 56.5004 -0.527433 65.5621Z" fill="#1A7109"/>
<path d="M-0.0385064 61.0679C-6.33597 62.7008 -14.5128 58.5969 -17.8141 56.3408L-14.3166 51.6694C-6.93329 54.1218 6.25895 59.435 -0.0385064 61.0679Z" fill="#25951C"/>
<path d="M-7.15961 57.4189C-19.3766 60.7674 -30.401 46.7556 -34.386 39.3311L-19.5046 34.3899C-10.8801 45.6459 4.90426 52.81 10.0885 53.2477C9.38969 56.4406 -1.7305 66.608 -7.15961 57.4189Z" fill="#82DC34"/>
<path d="M-19.801 35.6185L-19.435 36.0788C-14.0959 42.795 -4.22516 49.8647 -0.21673 51.6987C1.79085 52.6172 3.46024 53.1188 4.61436 53.3899C5.19156 53.5255 5.64006 53.6035 5.93764 53.6472C6.08643 53.669 6.19745 53.6822 6.26793 53.6897C6.30317 53.6935 6.32827 53.6958 6.34288 53.6971L6.35487 53.6982L6.35789 53.6984L8.28522 53.8327L7.10487 55.069L7.10233 55.0716L7.09835 55.0758L7.0861 55.0883C7.07601 55.0986 7.06211 55.1126 7.04438 55.1302C7.00892 55.1653 6.95815 55.2146 6.89207 55.2762C6.75995 55.3995 6.56646 55.5726 6.31166 55.7813C5.80234 56.1984 5.04637 56.7593 4.04417 57.3503C2.04022 58.5319 -0.401503 59.8309 -4.38461 60.3402C-4.38461 60.3402 -5.23625 59.8532 -5.74454 59.3466C-6.25283 58.84 -6.62175 58.2463 -6.62175 58.2463C-2.96598 57.7788 1.0495 57.0504 2.88196 55.9699C3.4639 55.6268 3.95252 55.2961 4.3474 55.0057C4.30904 54.9969 4.2702 54.9879 4.23086 54.9787C2.94272 54.676 1.12935 54.1278 -1.02508 53.1421C-5.24489 51.2114 -15.2193 44.0596 -20.6299 37.3991C-20.6299 37.3991 -26.73 40.4415 -29.3868 41.5976C-29.2148 41.8395 -28.4645 42.6828 -28.236 42.9893C-27.3723 44.148 -26.1208 45.7182 -24.5699 47.3649C-21.4349 50.6936 -12.7218 56.4537 -8.11858 57.657C-8.11858 57.657 -9.11755 57.8111 -9.41384 57.8573C-9.71014 57.9036 -10.7151 57.9293 -10.7151 57.9293C-15.9444 56.5623 -22.8391 51.734 -26.0303 48.3456C-27.6425 46.6337 -28.9395 45.0061 -29.8336 43.8066C-30.2811 43.2062 -30.6286 42.7118 -30.8654 42.3658C-30.9838 42.1928 -31.0745 42.0568 -31.1362 41.9631C-31.1671 41.9163 -31.1907 41.8801 -31.2068 41.8551L-31.2255 41.8262L-31.2307 41.8182L-31.2326 41.815L-32.4606 40.1833C-28.3703 39.2633 -20.4688 35.9542 -20.4688 35.9542L-19.801 35.6185Z" fill="#D4FD5F"/>
</g>
<defs>
<clipPath id="clip0_4608_439636">
<rect width="77.9955" height="77.9955" fill="white" transform="translate(-30.7677 0.0741272) rotate(30.5868)"/>
</clipPath>
</defs>
</svg>
