<svg width="125" height="108" viewBox="0 0 125 108" fill="none" xmlns="http://www.w3.org/2000/svg">
<g filter="url(#filter0_d_1555_38589)">
<path d="M88.8031 44.6878L89.0486 45.2189L98.1331 47.9971L109.55 48.9368L101.898 46.2812L98.5832 45.5866L96.2507 45.0147L88.8031 44.6878Z" fill="#FFD742"/>
<path d="M31.8897 62.885C32.391 53.877 44.2202 55.6786 45.3229 55.6786C51.6051 56.2458 65.1118 57.7605 68.8811 59.2818C72.6504 60.8031 68.6472 64.8534 66.1744 66.6883L45.3229 62.885C40.6781 65.8876 31.4888 70.0913 31.8897 62.885Z" fill="#F3E8FF"/>
<path d="M77.6298 71.3611L59.0464 62.5014L43.2739 61.6726L23.3508 73.1378L41.3369 109.882H68.0394L77.6298 71.3611Z" fill="#7854AE"/>
<path d="M64.874 72.443L63.2393 65.6971L52.9952 61.508L38.1741 61.78C38.3557 63.2489 38.7408 66.2411 38.828 66.4587C38.9151 66.6763 40.9349 71.2643 41.9339 73.5311L51.1971 76.7409L64.874 72.443Z" fill="black" fill-opacity="0.23"/>
<path d="M53.9079 107.956C60.4224 108.414 64.9394 106.896 66.3836 106.08V104.203C63.878 104.603 57.8751 105.402 53.9079 105.402C49.9407 105.402 43.8682 103.769 41.3278 102.953L40.0228 104.933C41.9368 105.75 47.3934 107.497 53.9079 107.956Z" fill="#1F0202"/>
<path d="M44.0675 70.3074L45.049 64.8635C45.1152 64.4961 45.4355 64.2288 45.8094 64.2288H57.6765C58.1278 64.2288 58.483 64.6132 58.4466 65.0623L57.6975 74.3154C57.6651 74.716 57.3299 75.0247 56.9274 75.0247H49.1057C48.916 75.0247 48.7329 74.955 48.5914 74.829L44.3136 71.0197C44.1131 70.8411 44.0199 70.5714 44.0675 70.3074Z" fill="#BC896E"/>
<path fill-rule="evenodd" clip-rule="evenodd" d="M59.9756 98.8805C59.3673 100.596 58.5147 102.215 57.444 103.688C57.2709 103.903 57.082 104.106 56.8791 104.294L56.474 104.028L50.8513 100.309C50.8513 100.309 52.6367 88.4259 52.4502 79.1082C51.3521 78.8164 50.3387 78.2704 49.4922 77.5146C49.2794 77.3116 49.0996 77.0768 48.9593 76.8187C48.8588 75.9784 48.924 75.1266 49.1511 74.3113C49.2152 74.1336 49.3301 73.9784 49.4816 73.865C49.4816 73.865 53.8465 73.3338 55.6319 73.4773C56.1139 74.0775 56.3551 74.8347 56.3088 75.6022C56.0465 76.3036 55.7163 76.9779 55.3228 77.6155C55.0655 78.0422 54.7712 78.4457 54.4434 78.8214L54.518 79.0179C54.518 79.087 54.5767 79.172 54.6086 79.2729C54.6406 79.3739 54.7259 79.5704 54.7899 79.7563L54.8431 79.9051L54.9977 80.3407L55.0617 80.516C55.6532 82.1734 56.5913 84.9092 57.5079 88.0594C58.4954 91.3619 59.2767 94.7221 59.8476 98.1208C59.9063 98.3492 59.9436 98.5989 59.9756 98.8805Z" fill="url(#paint0_linear_1555_38589)"/>
<path style="mix-blend-mode:multiply" opacity="0.5" d="M56.3244 75.5656C56.0622 76.267 55.732 76.9413 55.3385 77.5789C55.3385 77.5789 54.9227 74.9228 53.665 74.2163C52.2898 73.9203 50.8671 73.9203 49.4919 74.2163C49.3865 74.242 49.2797 74.2616 49.1721 74.2747C49.2361 74.097 49.351 73.9419 49.5025 73.8285C49.5025 73.8285 53.8675 73.2973 55.6529 73.4407C56.133 74.0417 56.3723 74.7988 56.3244 75.5656Z" fill="url(#paint1_linear_1555_38589)"/>
<path style="mix-blend-mode:multiply" opacity="0.5" d="M59.9514 98.9508C59.9514 98.9508 59.3192 100.844 58.8978 101.475C58.4764 102.106 57.0014 104.42 57.0014 104.42L56.4736 104.002L50.8509 100.284C50.8509 100.284 52.6363 88.4 52.4498 79.0823C51.3517 78.7905 50.3383 78.2444 49.4919 77.4886C49.4919 77.4886 52.4071 78.8273 54.459 78.7954L54.5337 78.992L54.6243 79.247L54.8055 79.7304L54.8588 79.8791L55.0133 80.3147L55.0773 80.49L53.036 83.0612C53.036 83.0612 52.4018 94.4347 53.4677 98.5623C54.4444 99.1744 55.5919 99.4591 56.7425 99.375C57.8931 99.2909 58.9866 98.8424 59.8633 98.0949L59.9514 98.9508Z" fill="url(#paint2_linear_1555_38589)"/>
<path d="M53.2217 73.1663L50.7765 74.1421L48.9208 82.8758C43.9156 79.6637 40.1141 72.3765 40.1141 72.3765L43.6368 66.8588L44.6433 66.8588L44.8038 67.7416C47.2369 70.998 53.2217 73.1663 53.2217 73.1663Z" fill="#ECE6AE"/>
<path d="M61.7915 73.5757C61.7915 73.5757 62.1136 79.2357 60.4642 81.5753C60.4642 81.5753 56.8763 75.1144 55.9979 74.1343L53.5758 73.1331L55.2116 72.3056C55.2116 72.3056 57.216 70.9517 58.0502 69.3393L59.4262 70.8552L61.7915 73.5757Z" fill="#ECE6AE"/>
<path d="M17.0705 97.8492L24.0629 82.1641C26.2423 82.1641 27.9374 86.1534 28.5126 88.148L21.8834 100.479L17.0705 97.8492Z" fill="#BBAAD3"/>
<path opacity="0.24" d="M76.5991 86.4574L77.0998 80.3136C70.7991 77.8102 58.8735 71.8796 58.1791 71.3404C57.4848 70.8012 57.8898 71.5651 58.1791 72.0144L76.5991 86.4574Z" fill="#E4E4F1"/>
<path d="M68.3418 135.027C68.0253 127.444 67.6402 107.734 67.6402 106.464C58.2579 108.006 48.4005 108.954 38.3723 104.075L34.5753 135.027H47.3225C48.0819 135.027 50.2886 130.334 51.6447 122.222L54.7809 135.027H68.3418Z" fill="#4A0E0C"/>
<path d="M14.8784 107.88C2.06139 84.3471 31.706 60.8159 32.3578 60.599C35.9422 65.4068 43.3065 75.1308 44.0886 75.5646C44.8706 75.9983 44.4144 94.398 44.0886 103.544C42.9662 106.544 25.132 126.706 14.8784 107.88Z" fill="url(#paint3_linear_1555_38589)"/>
<path opacity="0.5" d="M20.3724 100.061C24.7429 106.891 33.5156 105.041 37.3556 103.263C40.5622 104.093 36.643 111.563 28.3296 112.274C20.0161 112.986 16.572 105.041 15.6219 103.263C14.6718 101.484 14.9093 91.5237 20.3724 100.061Z" fill="#BE1144"/>
<path d="M91.5132 64.1445C99.6384 49.2263 88.3214 52.2555 85.4161 54.5411C78.6344 57.7417 71.874 60.5915 68.9852 58.7456C65.4008 63.5534 63.8688 59.6534 63.0868 60.0872C62.3047 60.521 71.187 68.9617 61.1622 105.093C62.2846 108.094 81.2596 82.9708 91.5132 64.1445Z" fill="url(#paint4_linear_1555_38589)"/>
<path d="M40.3956 78.6161C38.3318 71.0249 35.613 62.2399 30.2687 62.2399C30.2687 62.2399 26.0356 56.9801 33.5551 55.7138C41.0746 54.4475 39.0922 60.3972 39.0922 60.3972C41.1922 66.6147 44.3059 69.832 45.392 78.6161C46.4782 87.4002 45.6817 93.184 45.392 98.6786L43.98 108.981L43.2937 107.768C43.2937 107.768 42.4594 86.2073 40.3956 78.6161Z" fill="#F3E8FF"/>
<path d="M65.2817 84.5669C65.7846 74.2739 62.4127 63.1892 62.4127 63.1892C62.4127 63.1892 64.0988 59.8874 66.7904 59.2109C69.4821 58.5343 71.9995 60.6817 73.831 64.7342C77.9173 73.776 75.8425 82.3073 72.3223 92.0984C70.6026 101.937 73.1397 112.477 73.1397 112.477C73.1397 112.477 64.4305 113.228 62.4127 113.549C60.3949 113.871 58.0313 112.477 58.0313 112.477C58.0313 112.477 64.7788 94.8599 65.2817 84.5669Z" fill="#F3E8FF"/>
<path d="M44.71 65.7934C44.3596 65.6429 43.9534 65.8046 43.8027 66.1544L42.466 69.2579C42.3154 69.6078 42.4773 70.0134 42.8277 70.1638C43.1781 70.3143 43.5843 70.1526 43.735 69.8028L45.0717 66.6992C45.2224 66.3494 45.0605 65.9438 44.71 65.7934Z" fill="url(#paint5_linear_1555_38589)"/>
<path d="M43.6583 64.4841C43.304 64.6251 43.1313 65.0262 43.2725 65.38L43.8027 66.708C43.9439 67.0618 44.3456 67.2342 44.7 67.0932C45.0543 66.9522 45.227 66.5511 45.0858 66.1974L44.5556 64.8693C44.4144 64.5156 44.0127 64.3431 43.6583 64.4841Z" fill="url(#paint6_linear_1555_38589)"/>
<path d="M39.2025 66.2573C38.8482 66.3983 38.6754 66.7994 38.8167 67.1532L39.3468 68.4812C39.4881 68.835 39.8898 69.0074 40.2441 68.8664C40.5984 68.7254 40.7712 68.3243 40.63 67.9706L40.0998 66.6425C39.9586 66.2888 39.5568 66.1163 39.2025 66.2573Z" fill="url(#paint7_linear_1555_38589)"/>
<path d="M39.3575 67.9233C39.5082 67.5735 39.9144 67.4118 40.2648 67.5623L43.3733 68.8969C43.7237 69.0473 43.8856 69.4529 43.7349 69.8027C43.5843 70.1526 43.178 70.3142 42.8276 70.1638L39.7192 68.8292C39.3688 68.6788 39.2069 68.2732 39.3575 67.9233Z" fill="url(#paint8_linear_1555_38589)"/>
<path d="M39.1903 67.3428C38.8387 67.1952 38.6736 66.7909 38.8215 66.4399L40.1336 63.3259C40.2815 62.9748 40.6864 62.81 41.038 62.9577C41.3896 63.1053 41.5547 63.5096 41.4068 63.8606L40.0947 66.9746C39.9468 67.3257 39.5419 67.4905 39.1903 67.3428Z" fill="url(#paint9_linear_1555_38589)"/>
<path d="M41.2475 71.8826C41.6247 71.939 41.9763 71.6794 42.0328 71.3028L42.534 67.9617C42.5905 67.5851 42.3305 67.2341 41.9533 67.1776C41.5761 67.1212 41.2245 67.3808 41.168 67.7574L40.6668 71.0985C40.6103 71.4751 40.8703 71.8261 41.2475 71.8826Z" fill="#FFBC0E"/>
<path d="M44.8731 67.9273C44.5664 68.1537 44.5017 68.5855 44.7285 68.8917L45.5798 70.0412C45.8066 70.3474 46.2391 70.412 46.5458 70.1856C46.8525 69.9592 46.9172 69.5274 46.6905 69.2212L45.8391 68.0717C45.6123 67.7655 45.1798 67.7009 44.8731 67.9273Z" fill="#FFBC0E"/>
<path d="M41.0163 70.7747C40.7096 71.0012 40.6448 71.433 40.8716 71.7392L41.723 72.8887C41.9498 73.1949 42.3822 73.2595 42.6889 73.0331C42.9956 72.8067 43.0604 72.3749 42.8336 72.0687L41.9822 70.9192C41.7555 70.613 41.323 70.5483 41.0163 70.7747Z" fill="#FFBC0E"/>
<path d="M45.8804 68.4622C45.8239 68.8388 45.4723 69.0984 45.095 69.042L41.7487 68.5415C41.3715 68.4851 41.1115 68.1341 41.168 67.7575C41.2245 67.3808 41.5761 67.1213 41.9533 67.1777L45.2996 67.6781C45.6769 67.7345 45.9369 68.0855 45.8804 68.4622Z" fill="#FFBC0E"/>
<path d="M48.7727 78.5373C49.1488 78.4739 49.4023 78.118 49.3387 77.7425L48.7754 74.4114C48.7119 74.0359 48.3555 73.7829 47.9794 73.8463C47.6033 73.9097 47.3498 74.2655 47.4134 74.641L47.9767 77.9721C48.0402 78.3477 48.3966 78.6007 48.7727 78.5373Z" fill="#FFBC0E"/>
<path d="M49.0159 71.651C48.6398 71.7144 48.3864 72.0702 48.4499 72.4457L49.0133 75.7769C49.0768 76.1524 49.4332 76.4054 49.8093 76.342C50.1854 76.2786 50.4388 75.9228 50.3753 75.5473L49.8119 72.2161C49.7484 71.8406 49.3921 71.5876 49.0159 71.651Z" fill="url(#paint10_linear_1555_38589)"/>
<path d="M47.4211 71.1207C47.2 71.4311 47.2728 71.8616 47.5837 72.0823L48.7506 72.9108C49.0615 73.1315 49.4927 73.0588 49.7137 72.7484C49.9348 72.438 49.862 72.0075 49.5511 71.7868L48.3842 70.9584C48.0733 70.7377 47.6421 70.8104 47.4211 71.1207Z" fill="url(#paint11_linear_1555_38589)"/>
<path d="M50.9837 73.659C50.7643 73.967 50.8342 74.3939 51.1404 74.6162L52.9478 75.9286C53.2586 76.1543 53.6941 76.0832 53.9168 75.7705C54.1362 75.4625 54.0663 75.0356 53.7602 74.8133L51.9527 73.501C51.6419 73.2753 51.2064 73.3463 50.9837 73.659Z" fill="#FFBC0E"/>
<path d="M48.2031 77.5632C47.984 77.8708 48.0533 78.2969 48.3585 78.5195L50.3274 79.9558C50.6382 80.1825 51.0746 80.1118 51.2976 79.7987C51.5166 79.4912 51.4474 79.065 51.1422 78.8424L49.1733 77.4061C48.8625 77.1794 48.4261 77.2501 48.2031 77.5632Z" fill="#FFBC0E"/>
<path d="M52.1118 73.8489C52.1753 74.2244 51.9219 74.5803 51.5458 74.6437L48.2094 75.2062C47.8332 75.2696 47.4769 75.0165 47.4134 74.641C47.3498 74.2655 47.6033 73.9097 47.9794 73.8463L51.3158 73.2838C51.6919 73.2204 52.0483 73.4734 52.1118 73.8489Z" fill="#FFBC0E"/>
<path d="M45.6769 76.3394C45.6134 75.9639 45.8668 75.608 46.2429 75.5446L49.5793 74.9821C49.9554 74.9187 50.3118 75.1718 50.3753 75.5473C50.4388 75.9228 50.1854 76.2786 49.8093 76.342L46.4729 76.9045C46.0968 76.9679 45.7404 76.7149 45.6769 76.3394Z" fill="url(#paint12_linear_1555_38589)"/>
<path d="M44.9599 75.8303C45.336 75.7669 45.5894 75.4111 45.5259 75.0356L44.9625 71.7044C44.899 71.3289 44.5426 71.0759 44.1665 71.1393C43.7904 71.2027 43.537 71.5585 43.6005 71.9341L44.1639 75.2652C44.2274 75.6407 44.5838 75.8937 44.9599 75.8303Z" fill="#FFBC0E"/>
<path d="M46.6026 69.3728C46.2254 69.3164 45.8738 69.576 45.8173 69.9526L45.3161 73.2937C45.2596 73.6703 45.5196 74.0213 45.8968 74.0778C46.2741 74.1342 46.6257 73.8746 46.6822 73.4979L47.1834 70.1569C47.2399 69.7803 46.9799 69.4292 46.6026 69.3728Z" fill="url(#paint13_linear_1555_38589)"/>
<path d="M45.2517 68.3741C44.945 68.6005 44.8803 69.0323 45.1071 69.3385L45.9584 70.488C46.1852 70.7942 46.6177 70.8589 46.9244 70.6324C47.2311 70.406 47.2958 69.9742 47.0691 69.668L46.2177 68.5185C45.9909 68.2123 45.5584 68.1476 45.2517 68.3741Z" fill="url(#paint14_linear_1555_38589)"/>
<path d="M47.1751 70.9461C46.9541 71.2564 47.0269 71.6869 47.3377 71.9076L48.5047 72.7361C48.8155 72.9568 49.2467 72.8841 49.4678 72.5737C49.6888 72.2634 49.616 71.8329 49.3052 71.6122L48.1382 70.7837C47.8273 70.563 47.3961 70.6357 47.1751 70.9461Z" fill="#FFBC0E"/>
<path d="M41.3949 71.2215C41.0882 71.4479 41.0234 71.8797 41.2502 72.1859L42.1016 73.3354C42.3284 73.6416 42.7608 73.7063 43.0675 73.4799C43.3742 73.2534 43.439 72.8216 43.2122 72.5154L42.3608 71.366C42.1341 71.0597 41.7016 70.9951 41.3949 71.2215Z" fill="url(#paint15_linear_1555_38589)"/>
<path d="M44.3953 74.849C44.1743 75.1594 44.2471 75.5899 44.5579 75.8106L45.7249 76.6391C46.0358 76.8598 46.467 76.7871 46.688 76.4767C46.909 76.1664 46.8362 75.7359 46.5254 75.5152L45.3584 74.6867C45.0476 74.466 44.6164 74.5387 44.3953 74.849Z" fill="#FFBC0E"/>
<path d="M48.2989 71.1419C48.3624 71.5174 48.109 71.8732 47.7329 71.9366L44.3964 72.4991C44.0203 72.5625 43.664 72.3095 43.6004 71.934C43.5369 71.5585 43.7903 71.2027 44.1665 71.1393L47.5029 70.5768C47.879 70.5134 48.2354 70.7664 48.2989 71.1419Z" fill="#FFBC0E"/>
<path d="M41.9697 72.7933C42.0262 72.4167 42.3778 72.1571 42.7551 72.2135L46.1014 72.7139C46.4786 72.7703 46.7386 73.1214 46.6821 73.498C46.6256 73.8746 46.274 74.1342 45.8968 74.0778L42.5505 73.5774C42.1732 73.521 41.9132 73.1699 41.9697 72.7933Z" fill="url(#paint16_linear_1555_38589)"/>
<path opacity="0.1" d="M30.1736 62.3124C35.5056 61.9633 37.5597 66.2832 43.1556 69.7547C45.9381 70.5937 50.2583 72.1813 53.6309 72.1813C57.9026 72.1813 60.7217 70.3237 63.8631 69.0575C64.8074 68.6768 64.4864 64.0011 73.0657 63.409C73.0657 63.409 70.1005 53.6592 52.5143 51.5932C47.0634 51.5932 41.2102 52.3645 37.8058 54.3185C36.4081 55.1207 35.1361 54.3368 33.67 55.6799C31.6595 56.1599 26.9831 56.9889 30.1736 62.3124Z" fill="#1F0101"/>
<path d="M60.6778 66.1249C61.0108 65.9392 61.4316 66.0582 61.6176 66.3906L62.3159 67.6388C62.5019 67.9712 62.3827 68.3913 62.0497 68.577C61.7167 68.7627 61.2959 68.6438 61.1099 68.3113L60.4117 67.0632C60.2256 66.7307 60.3448 66.3106 60.6778 66.1249Z" fill="url(#paint17_linear_1555_38589)"/>
<path d="M63.9527 71.4123C63.625 71.6073 63.2011 71.5001 63.0059 71.1729L61.2738 68.2708C61.0785 67.9437 61.1858 67.5204 61.5135 67.3255C61.8412 67.1305 62.2651 67.2377 62.4604 67.5649L64.1925 70.467C64.3877 70.7941 64.2804 71.2174 63.9527 71.4123Z" fill="#FFBC0E"/>
<path d="M58.3559 70.0036C58.5512 70.3308 58.9751 70.438 59.3028 70.243L62.2095 68.5137C62.5371 68.3187 62.6445 67.8955 62.4492 67.5683C62.254 67.2412 61.8301 67.134 61.5024 67.329L58.5957 69.0583C58.268 69.2533 58.1607 69.6765 58.3559 70.0036Z" fill="#FFBC0E"/>
<path d="M56.8437 78.5376C56.4676 78.4742 56.2142 78.1184 56.2777 77.7429L56.8411 74.4117C56.9046 74.0362 57.261 73.7832 57.6371 73.8466C58.0132 73.91 58.2666 74.2658 58.2031 74.6413L57.6397 77.9725C57.5762 78.348 57.2198 78.601 56.8437 78.5376Z" fill="#FFBC0E"/>
<path d="M56.6005 71.6514C56.9766 71.7148 57.2301 72.0706 57.1665 72.4461L56.6032 75.7772C56.5397 76.1527 56.1833 76.4057 55.8072 76.3423C55.4311 76.2789 55.1776 75.9231 55.2411 75.5476L55.8045 72.2165C55.868 71.841 56.2244 71.588 56.6005 71.6514Z" fill="url(#paint18_linear_1555_38589)"/>
<path d="M58.1954 71.1211C58.4165 71.4315 58.3436 71.862 58.0328 72.0827L56.8658 72.9111C56.555 73.1318 56.1238 73.0591 55.9027 72.7488C55.6817 72.4384 55.7545 72.0079 56.0654 71.7872L57.2323 70.9587C57.5432 70.738 57.9744 70.8107 58.1954 71.1211Z" fill="url(#paint19_linear_1555_38589)"/>
<path d="M54.6328 73.6594C54.8522 73.9674 54.7823 74.3943 54.4761 74.6166L52.6687 75.929C52.3579 76.1546 51.9224 76.0836 51.6997 75.7709C51.4803 75.4629 51.5502 75.036 51.8563 74.8137L53.6638 73.5013C53.9746 73.2757 54.4101 73.3467 54.6328 73.6594Z" fill="#FFBC0E"/>
<path d="M57.4134 77.5636C57.6324 77.8711 57.5632 78.2973 57.258 78.5199L55.2891 79.9562C54.9783 80.1829 54.5419 80.1122 54.3189 79.799C54.0998 79.4915 54.1691 79.0654 54.4743 78.8427L56.4432 77.4064C56.754 77.1797 57.1904 77.2504 57.4134 77.5636Z" fill="#FFBC0E"/>
<path d="M53.5047 73.8493C53.4412 74.2248 53.6946 74.5806 54.0707 74.644L57.4071 75.2065C57.7833 75.2699 58.1396 75.0169 58.2031 74.6414C58.2666 74.2659 58.0132 73.91 57.6371 73.8466L54.3007 73.2841C53.9246 73.2207 53.5682 73.4738 53.5047 73.8493Z" fill="#FFBC0E"/>
<path d="M59.9396 76.3397C60.0031 75.9642 59.7497 75.6084 59.3736 75.545L56.0371 74.9825C55.661 74.9191 55.3047 75.1721 55.2411 75.5476C55.1776 75.9231 55.4311 76.2789 55.8072 76.3424L59.1436 76.9048C59.5197 76.9682 59.8761 76.7152 59.9396 76.3397Z" fill="url(#paint20_linear_1555_38589)"/>
<path d="M60.6566 75.8307C60.2805 75.7673 60.0271 75.4114 60.0906 75.0359L60.654 71.7048C60.7175 71.3293 61.0739 71.0763 61.45 71.1397C61.8261 71.2031 62.0795 71.5589 62.016 71.9344L61.4526 75.2655C61.3891 75.6411 61.0327 75.8941 60.6566 75.8307Z" fill="#FFBC0E"/>
<path d="M58.1837 70.6638C58.5114 70.4689 58.9353 70.576 59.1306 70.9032L60.8627 73.8053C61.0579 74.1324 60.9506 74.5557 60.6229 74.7506C60.2953 74.9456 59.8713 74.8384 59.6761 74.5113L57.944 71.6092C57.7487 71.282 57.8561 70.8588 58.1837 70.6638Z" fill="url(#paint21_linear_1555_38589)"/>
<path d="M59.0547 69.2284C59.4245 69.3219 59.6483 69.6969 59.5547 70.0661L59.2032 71.452C59.1096 71.8212 58.7339 72.0447 58.3642 71.9512C57.9944 71.8577 57.7705 71.4826 57.8642 71.1135L58.2157 69.7276C58.3093 69.3584 58.6849 69.1349 59.0547 69.2284Z" fill="url(#paint22_linear_1555_38589)"/>
<path d="M58.4414 70.9464C58.6624 71.2568 58.5896 71.6873 58.2787 71.908L57.1118 72.7365C56.8009 72.9572 56.3697 72.8845 56.1487 72.5741C55.9277 72.2637 56.0005 71.8332 56.3113 71.6125L57.4783 70.7841C57.7891 70.5634 58.2203 70.6361 58.4414 70.9464Z" fill="url(#paint23_linear_1555_38589)"/>
<path d="M63.7047 70.4039C64.0745 70.4974 64.2983 70.8725 64.2047 71.2416L63.8532 72.6275C63.7596 72.9967 63.3839 73.2202 63.0142 73.1267C62.6444 73.0332 62.4205 72.6582 62.5142 72.289L62.8657 70.9031C62.9593 70.5339 63.3349 70.3104 63.7047 70.4039Z" fill="url(#paint24_linear_1555_38589)"/>
<path d="M61.2211 74.8494C61.4422 75.1597 61.3694 75.5903 61.0585 75.8109L59.8916 76.6394C59.5807 76.8601 59.1495 76.7874 58.9285 76.4771C58.7074 76.1667 58.7802 75.7362 59.0911 75.5155L60.2581 74.687C60.5689 74.4663 61.0001 74.539 61.2211 74.8494Z" fill="#FFBC0E"/>
<path d="M57.3176 71.1423C57.2541 71.5178 57.5075 71.8736 57.8836 71.937L61.22 72.4995C61.5961 72.5629 61.9525 72.3099 62.016 71.9344C62.0795 71.5589 61.8261 71.203 61.45 71.1396L58.1136 70.5771C57.7375 70.5137 57.3811 70.7668 57.3176 71.1423Z" fill="#FFBC0E"/>
<path d="M63.7694 72.076C63.5742 71.7488 63.1502 71.6416 62.8226 71.8366L59.9158 73.5659C59.5882 73.7609 59.4808 74.1841 59.6761 74.5113C59.8713 74.8384 60.2953 74.9456 60.6229 74.7507L63.5297 73.0213C63.8573 72.8263 63.9647 72.4031 63.7694 72.076Z" fill="url(#paint25_linear_1555_38589)"/>
<path d="M79.479 30.3551C82.6892 26.3639 78.949 19.4195 76.6777 16.4462L65.4722 12.1375L69.8635 36.6292H76.6777C76.2739 36.2009 76.2688 34.3464 79.479 30.3551Z" fill="#23140D"/>
<path d="M30.4197 41.3642C30.6013 58.5906 40.3414 66.8951 52.3783 67.5858C64.4151 68.2764 75.7448 60.5194 76.5913 49.0451C76.5913 49.0451 77.2802 30.5246 76.9798 23.37C76.5236 3.60715 46.1129 10.9327 30.9646 17.0659C30.7224 19.4232 30.2744 27.5831 30.4197 41.3642Z" fill="url(#paint26_linear_1555_38589)"/>
<path d="M40.7058 41.9118C40.6728 42.9559 42.7257 43.8678 45.2911 43.9486C47.8566 44.0294 49.963 43.2485 49.996 42.2044C50.029 41.1603 47.976 40.2484 45.4106 40.1676C42.8452 40.0868 40.7388 40.8677 40.7058 41.9118Z" fill="#FCA28E"/>
<path d="M65.3238 41.9118C65.2908 42.9559 67.3438 43.8678 69.9092 43.9486C72.4746 44.0294 74.581 43.2485 74.614 42.2044C74.647 41.1603 72.5941 40.2484 70.0287 40.1676C67.4632 40.0868 65.3568 40.8677 65.3238 41.9118Z" fill="#FCA28E"/>
<path opacity="0.2" d="M60.1963 34.0897C60.2257 34.5997 60.5644 34.995 60.9529 34.9727C61.3414 34.9503 61.6324 34.5188 61.603 34.0088C61.5736 33.4988 61.2348 33.1035 60.8464 33.1259C60.4579 33.1482 60.1668 33.5797 60.1963 34.0897Z" fill="#F1B69E"/>
<path opacity="0.2" d="M58.6829 32.8259C58.7123 33.3359 59.0511 33.7312 59.4395 33.7089C59.828 33.6865 60.1191 33.255 60.0896 32.745C60.0602 32.235 59.7215 31.8397 59.333 31.862C58.9446 31.8844 58.6535 32.3159 58.6829 32.8259Z" fill="#F1B69E"/>
<path opacity="0.2" d="M57.1698 34.3332C57.1992 34.8432 57.538 35.2385 57.9264 35.2161C58.3149 35.1938 58.6059 34.7623 58.5765 34.2523C58.5471 33.7423 58.2084 33.347 57.8199 33.3693C57.4314 33.3917 57.1404 33.8232 57.1698 34.3332Z" fill="#F1B69E"/>
<path d="M67.7522 33.6542C67.8637 35.5866 69.5146 37.0633 71.4396 36.9526C73.3646 36.842 74.8348 35.1858 74.7233 33.2534C74.6119 31.3211 72.961 29.8443 71.036 29.955C69.111 30.0657 67.6408 31.7219 67.7522 33.6542Z" fill="#E89979"/>
<path d="M44.2216 33.6542C44.333 35.5866 45.9839 37.0633 47.9089 36.9526C49.8339 36.842 51.3041 35.1858 51.1926 33.2534C51.0812 31.3211 49.4303 29.8443 47.5053 29.955C45.5803 30.0657 44.1101 31.7219 44.2216 33.6542Z" fill="#E89979"/>
<path opacity="0.3" d="M38.4324 19.1401C38.5438 21.0725 42.0513 22.4425 46.2665 22.2001C50.4817 21.9578 53.8085 20.1948 53.697 18.2625C53.5856 16.3301 50.0781 14.9601 45.8629 15.2025C41.6477 15.4448 38.3209 17.2078 38.4324 19.1401Z" fill="#FAEDFF"/>
<path opacity="0.3" d="M41.8903 17.7015C41.9647 18.9918 44.3066 19.9065 47.1211 19.7447C49.9356 19.5829 52.1569 18.4058 52.0825 17.1155C52.0081 15.8253 49.6661 14.9105 46.8516 15.0724C44.0371 15.2342 41.8158 16.4113 41.8903 17.7015Z" fill="#FAEDFF"/>
<path opacity="0.3" d="M51.3619 62.4781C51.4363 63.7684 53.7782 64.6831 56.5927 64.5213C59.4072 64.3595 61.6285 63.1824 61.5541 61.8921C61.4797 60.6019 59.1377 59.6872 56.3232 59.849C53.5087 60.0108 51.2874 61.1879 51.3619 62.4781Z" fill="#FAEDFF"/>
<path opacity="0.3" d="M53.5913 63.349C53.634 64.0893 54.9778 64.6142 56.5927 64.5213C58.2076 64.4285 59.4822 63.7531 59.4395 63.0127C59.3968 62.2724 58.053 61.7475 56.4381 61.8404C54.8231 61.9332 53.5486 62.6087 53.5913 63.349Z" fill="#FAEDFF"/>
<mask id="mask0_1555_38589" style="mask-type:alpha" maskUnits="userSpaceOnUse" x="42" y="44" width="32" height="14">
<path d="M70.2733 45.8932C69.1356 46.198 66.0068 46.3434 64.5847 46.378C61.3588 46.378 54.4561 46.3365 52.6524 46.1703C50.3978 45.9625 40.8242 42.7764 42.732 47.7979C44.6397 52.8195 50.1203 57.6333 58.1676 57.8411C66.2149 58.0489 71.6608 50.9841 72.7361 48.9062C73.8113 46.8283 71.6955 45.5123 70.2733 45.8932Z" fill="#AA2727"/>
</mask>
<g mask="url(#mask0_1555_38589)">
<path d="M70.2733 45.8932C69.1356 46.198 66.0068 46.3434 64.5847 46.378C61.3588 46.378 54.4561 46.3365 52.6524 46.1703C50.3978 45.9625 40.8242 42.7764 42.732 47.7979C44.6397 52.8195 50.1203 57.6333 58.1676 57.8411C66.2149 58.0489 71.6608 50.9841 72.7361 48.9062C73.8113 46.8283 71.6955 45.5123 70.2733 45.8932Z" fill="#AA2727"/>
<path d="M70.5229 46.69C69.4881 46.9672 66.6426 47.0995 65.3492 47.131C62.4153 47.131 56.1375 47.0932 54.497 46.942C52.4465 46.753 43.7395 43.8553 45.4746 48.4223C47.2097 52.9894 52.1941 57.3674 59.513 57.5564C66.8319 57.7454 71.7847 51.32 72.7627 49.4302C73.7406 47.5404 71.8163 46.3435 70.5229 46.69Z" fill="#F35353"/>
<path d="M68.557 48.3149C69.1189 48.1396 69.6109 46.6418 69.7897 45.9035C67.4029 46.0535 62.1728 46.3326 58.9384 46.3326C55.6204 46.3326 48.5135 45.0826 46.1871 45.011C46.1871 45.011 46.1152 46.1902 46.8489 46.9493C47.5827 47.7085 51.8082 49.1167 56.291 49.5043C61.8946 49.9889 67.851 48.5352 68.557 48.3149Z" fill="#E4E4F1"/>
<path d="M52.2837 53.6431C52.2837 54.6713 54.7071 55.5049 57.6966 55.5049C60.6861 55.5049 63.1095 54.6713 63.1095 53.6431C63.1095 52.6149 60.6861 51.7813 57.6966 51.7813C54.7071 51.7813 52.2837 52.6149 52.2837 53.6431Z" fill="#E33867"/>
<path d="M66.5493 53.9462L66.8007 55.4525C65.292 56.2893 61.5706 58.0634 58.7543 58.4651C55.9381 58.8668 51.5461 57.4609 49.7021 56.7077C49.7859 55.7035 49.9858 54.5573 50.0407 54.2786C50.1412 53.7681 50.402 53.1245 50.9049 53.3755C51.4078 53.6265 53.9092 53.9267 58.3609 53.9462C62.8125 53.9657 64.5377 53.4441 65.5435 53.193C66.5493 52.942 66.5493 53.9462 66.5493 53.9462Z" fill="#E4E4F1"/>
</g>
<path d="M45.7643 33.482C45.7643 34.916 46.9286 36.0785 48.3649 36.0785C49.8012 36.0785 50.9655 34.916 50.9655 33.482C50.9655 32.048 49.8012 30.8855 48.3649 30.8855C46.9286 30.8855 45.7643 32.048 45.7643 33.482Z" fill="#261611"/>
<path opacity="0.1" d="M46.1554 34.0446C46.1554 34.4254 47.1446 35.771 48.3649 35.771C49.5851 35.771 50.5744 34.4254 50.5744 34.0446C50.5744 33.6638 49.5851 34.2295 48.3649 34.2295C47.1446 34.2295 46.1554 33.6638 46.1554 34.0446Z" fill="#F3CEC4"/>
<path d="M48.3647 32.5066C48.3647 33.0763 48.8273 33.5381 49.3978 33.5381C49.9684 33.5381 50.4309 33.0763 50.4309 32.5066C50.4309 31.937 49.9684 31.4752 49.3978 31.4752C48.8273 31.4752 48.3647 31.937 48.3647 32.5066Z" fill="#F3CEC4"/>
<path opacity="0.2" d="M46.9847 32.5065C46.9847 32.715 47.1539 32.884 47.3628 32.884C47.5716 32.884 47.7409 32.715 47.7409 32.5065C47.7409 32.298 47.5716 32.129 47.3628 32.129C47.1539 32.129 46.9847 32.298 46.9847 32.5065Z" fill="#F3CEC4"/>
<path d="M73.0087 33.1746C73.0087 34.6086 71.8444 35.771 70.4081 35.771C68.9718 35.771 67.8075 34.6086 67.8075 33.1746C67.8075 31.7406 68.9718 30.5781 70.4081 30.5781C71.8444 30.5781 73.0087 31.7406 73.0087 33.1746Z" fill="#261611"/>
<path opacity="0.1" d="M72.6174 33.7371C72.6174 34.1179 71.6282 35.4635 70.4079 35.4635C69.1876 35.4635 68.1984 34.1179 68.1984 33.7371C68.1984 33.3563 69.1876 33.9221 70.4079 33.9221C71.6282 33.9221 72.6174 33.3563 72.6174 33.7371Z" fill="#F3CEC4"/>
<path d="M70.408 32.1989C70.408 32.7686 69.9455 33.2304 69.3749 33.2304C68.8043 33.2304 68.3418 32.7686 68.3418 32.1989C68.3418 31.6293 68.8043 31.1674 69.3749 31.1674C69.9455 31.1674 70.408 31.6293 70.408 32.1989Z" fill="#F3CEC4"/>
<path opacity="0.2" d="M71.7881 32.1991C71.7881 32.4075 71.6188 32.5766 71.41 32.5766C71.2012 32.5766 71.0319 32.4075 71.0319 32.1991C71.0319 31.9906 71.2012 31.8216 71.41 31.8216C71.6188 31.8216 71.7881 31.9906 71.7881 32.1991Z" fill="#F3CEC4"/>
<path d="M75.6148 21.7237L75.7355 18.0588C74.8151 20.3027 73.4733 22.3563 71.7803 24.1125C71.7803 24.1125 70.6179 16.5751 68.6402 13.8302C68.6402 13.8302 67.7345 13.8302 66.1796 13.8302C64.6246 13.8302 62.2394 13.667 59.4616 13.4444C54.9327 13.0735 45.6635 12.9251 39.1872 15.7739C37.8057 16.3531 37.3032 17.085 36.1744 18.0588C35.3742 20.3811 34.4023 22.9228 34.8295 25.3385C35.2567 27.7541 36.293 30.026 37.8436 31.9467C37.8436 31.9467 35.5188 33.4396 34.2507 40.0571C32.9826 46.6746 34.2507 47.9129 34.2507 47.9129L26.0961 44.6402C23.7323 39.3406 24.0045 40.0946 22.9888 34.3949C21.9471 26.7388 21.3328 17.7769 25.4843 15.7739C35.4381 10.9713 24.823 6.95026 57.2727 -0.844077C71.0497 -10.4142 80.2324 -8.91018 80.2324 5.695C80.2324 14.9398 75.6148 21.7237 75.6148 21.7237Z" fill="url(#paint27_linear_1555_38589)"/>
<path d="M62.7227 -1.52638C62.7227 -1.52638 74.6488 2.64295 71.7805 24.1128C71.7805 24.1128 80.2043 7.79155 71.7805 -0.250353C68.859 -1.18704 65.7943 -1.61877 62.7227 -1.52638Z" fill="url(#paint28_linear_1555_38589)"/>
<path d="M70.4081 -4.84292C70.4081 -4.84292 80.0202 -1.48257 77.7085 15.8214C77.7085 15.8214 84.4978 2.66704 77.7085 -3.81448C75.3538 -4.56942 72.8838 -4.91738 70.4081 -4.84292Z" fill="url(#paint29_linear_1555_38589)"/>
<path d="M35.693 28.1326C35.693 28.1326 35.1577 30.7724 26.3062 33.9936C26.5554 35.9924 26.9285 37.9744 27.4233 39.9286C27.4233 39.9286 33.0059 33.934 36.0855 29.4828L35.693 28.1326Z" fill="url(#paint30_linear_1555_38589)"/>
<path d="M31.4426 31.8239V34.401V42.0434C31.4426 44.606 26.3089 44.0261 25.3604 42.0434C22.8852 36.8691 25.212 28.4025 28.0158 28.4025C30.8195 28.4025 31.4426 30.2243 31.4426 31.8239Z" fill="#F1B69E"/>
<path d="M31.4426 34.0979V35.2977V38.8557C31.4426 40.0487 29.0526 39.7787 28.611 38.8557C27.4587 36.4467 28.5419 32.5051 29.8472 32.5051C31.1525 32.5051 31.4426 33.3532 31.4426 34.0979Z" fill="#D07F5E"/>
<path opacity="0.5" d="M31.4426 31.8238V34.4009V42.0434C31.4426 44.606 26.3089 44.0261 25.3604 42.0434C22.8852 36.869 25.212 28.4025 28.0158 28.4025C30.8195 28.4025 31.4426 30.2243 31.4426 31.8238Z" fill="#D07F5E"/>
<path d="M31.4426 31.8238V34.4009V42.0434C31.4426 44.606 27.1934 44.0261 26.4084 42.0434C24.3596 36.869 26.2855 28.4025 28.6062 28.4025C30.9269 28.4025 31.4426 30.2243 31.4426 31.8238Z" fill="#F1B69E"/>
<path d="M31.4425 34.0979V35.2977V38.8556C31.4425 40.0487 29.0526 39.7787 28.611 38.8556C27.4586 36.4467 28.5419 32.5051 29.8472 32.5051C31.1525 32.5051 31.4425 33.3532 31.4425 34.0979Z" fill="#D07F5E"/>
<path d="M31.4425 36.3293V36.9814V38.9153C31.4425 39.5637 30.4311 39.417 30.2442 38.9153C29.7566 37.6059 30.215 35.4635 30.7674 35.4635C31.3198 35.4635 31.4425 35.9245 31.4425 36.3293Z" fill="#F1B69E"/>
<path opacity="0.45" d="M61.527 13.6192C63.1207 13.8342 62.3884 13.3862 63.1423 13.2966C68.2215 12.7591 74.4818 10.3292 58.8886 4.91036C43.2954 -0.508463 37.6921 12.5261 35.6819 17.8123C36.2742 17.0597 39.8387 11.1141 45.4815 9.04974C52.5351 6.46935 59.5348 13.3504 61.527 13.6192Z" fill="black"/>
<path d="M58.575 27.1313C68.0014 20.139 69.1133 12.3155 68.491 9.27781C68.4633 5.7016 65.8605 -1.25199 55.6707 -0.456664C45.481 0.338664 36.9314 5.12168 33.9304 7.41377C50.2652 2.79292 68.0463 6.72833 58.575 27.1313Z" fill="url(#paint31_linear_1555_38589)"/>
<path d="M58.575 27.1313C68.0014 20.139 69.1133 12.3155 68.491 9.27781C68.4633 5.7016 65.8605 -1.25199 55.6707 -0.456664C45.481 0.338664 36.9314 5.12168 33.9304 7.41377C50.2652 2.79292 68.0463 6.72833 58.575 27.1313Z" fill="url(#paint32_linear_1555_38589)"/>
<path d="M53.5985 28.6176C54.8151 27.4496 54.4324 26.0995 53.3177 24.7867C52.2031 23.4738 42.6957 26.1415 41.6662 26.3751C40.6368 26.6087 40.4028 27.8701 41.1983 28.6176C41.9938 29.3651 52.3819 29.7856 53.5985 28.6176Z" fill="#3B2822"/>
<path d="M64.8186 27.9875C63.785 26.8196 64.1102 25.4695 65.0572 24.1566C66.0041 22.8438 74.0813 25.5115 74.9559 25.745C75.8305 25.9786 76.0293 27.24 75.3534 27.9875C74.6776 28.735 65.8522 29.1555 64.8186 27.9875Z" fill="#3B2822"/>
<path opacity="0.5" d="M52.7674 28.3873C53.8172 27.8619 53.487 27.2545 52.5251 26.6639C51.5633 26.0733 43.3594 27.2734 42.4711 27.3785C41.5827 27.4836 41.3809 28.0511 42.0673 28.3873C42.7537 28.7236 51.7176 28.9128 52.7674 28.3873Z" fill="#201510"/>
<path opacity="0.5" d="M65.5248 27.7573C64.6328 27.2318 64.9134 26.6244 65.7306 26.0338C66.5477 25.4432 73.5175 26.6433 74.2722 26.7484C75.0269 26.8535 75.1984 27.421 74.6152 27.7573C74.0321 28.0936 66.4167 28.2827 65.5248 27.7573Z" fill="#201510"/>
<path d="M63.8282 41.9841C63.8282 41.9841 60.3522 36.2038 60.3522 34.7783C60.3522 34.7783 59.7599 39.3852 56.3927 38.2488C53.0255 37.1124 51.133 42.6179 53.5815 41.9841C56.03 41.3503 54.6697 42.5273 56.3927 43.7949C58.1157 45.0625 62.9785 44.8814 63.8282 41.9841Z" fill="url(#paint33_linear_1555_38589)"/>
<path d="M56.5399 43.8119C55.8714 42.5824 54.2283 40.4923 53.004 41.9677C53.004 41.9677 54.8511 43.8119 56.5399 43.8119Z" fill="#AA2727"/>
<path d="M31.1837 30.2346C31.37 31.1317 40.3011 32.0624 40.3011 32.0624L40.0212 28.4762L28.3587 27.9638L30.1209 28.7905C30.1209 28.7905 30.9975 29.3375 31.1837 30.2346Z" fill="#041A30"/>
<path d="M43.5237 28.5969L53.6528 28.8374C55.0964 28.8374 56.7652 30.6367 55.8186 33.955C54.0499 40.1537 47.4936 41.0696 44.5201 40.9105C41.5465 40.7515 40.2813 39.5257 39.9245 37.982C39.5677 36.4383 39.528 34.4195 39.9245 31.7675C40.1758 30.0863 42.3807 28.717 43.5237 28.5969Z" fill="#001B33" fill-opacity="0.93"/>
<path fill-rule="evenodd" clip-rule="evenodd" d="M43.5137 28.3514L43.498 28.3531L35.8158 28.3514C35.8158 28.3514 39.8206 30.8013 39.6816 31.7313C39.2825 34.4013 39.3191 36.4532 39.6852 38.0371C39.8756 38.8608 40.3119 39.6076 41.0988 40.1654C41.881 40.7198 42.9906 41.0742 44.5069 41.1553C46.0212 41.2363 48.4443 41.0446 50.7203 40.0411C53.0036 39.0345 55.1462 37.2062 56.0547 34.0221C56.5415 32.3156 56.3644 30.9667 55.8468 30.0331C55.3319 29.1044 54.4797 28.5935 53.6558 28.5922L43.5137 28.3514ZM43.5343 28.8423L53.6498 29.0825H53.6528C54.2715 29.0825 54.974 29.4711 55.4172 30.2705C55.8582 31.0661 56.0422 32.276 55.5824 33.8878C54.7222 36.9025 52.7023 38.6314 50.5219 39.5927C48.3343 40.5571 45.9925 40.7438 44.5332 40.6657C43.076 40.5878 42.0661 40.2498 41.3831 39.7656C40.7048 39.2848 40.3301 38.6469 40.1637 37.9268C39.8162 36.4232 39.7735 34.4377 40.1673 31.8036C40.2796 31.0525 40.8377 30.3399 41.5411 29.7898C42.2375 29.245 43.0232 28.9011 43.5343 28.8423Z" fill="url(#paint34_linear_1555_38589)"/>
<path fill-rule="evenodd" clip-rule="evenodd" d="M43.4809 28.0262L28.342 27.9466L28.3885 28.4103L29.3506 28.735L35.6448 28.6302L35.6472 28.6317L35.6554 28.6367C35.6627 28.6412 35.6736 28.6479 35.688 28.6568C35.7167 28.6746 35.759 28.701 35.8129 28.735C35.9208 28.8029 36.0751 28.9012 36.2599 29.0221C36.6301 29.2643 37.1207 29.5958 37.6058 29.9551C38.0932 30.3161 38.5649 30.6978 38.9031 31.0403C39.0729 31.2122 39.1989 31.3642 39.2767 31.4904C39.3593 31.6243 39.3579 31.6812 39.3579 31.683C38.9551 34.377 38.9878 36.4733 39.3663 38.1106C39.5726 39.0034 40.05 39.8227 40.9093 40.4319C41.7577 41.0332 42.9336 41.3985 44.4894 41.4817C46.0404 41.5646 48.5176 41.3695 50.8525 40.3401C53.2045 39.3032 55.4288 37.4086 56.3695 34.1117C56.8743 32.3422 56.7019 30.9005 56.1332 29.8748C55.571 28.8607 54.62 28.2684 53.6601 28.2654L43.5004 28.0242L43.4809 28.0262ZM53.6558 28.5922C54.4797 28.5935 55.332 29.1044 55.8468 30.0331C56.3644 30.9667 56.5415 32.3156 56.0547 34.0221C55.1462 37.2062 53.0036 39.0345 50.7203 40.0411C48.4443 41.0445 46.0212 41.2363 44.5069 41.1553C42.9906 41.0742 41.881 40.7198 41.0989 40.1654C40.3119 39.6076 39.8756 38.8608 39.6852 38.0371C39.3191 36.4532 39.2825 34.4013 39.6816 31.7313C39.7894 31.0106 37.4084 29.3771 36.3314 28.6784C36.0186 28.4755 35.8158 28.3514 35.8158 28.3514L43.498 28.3531L43.5137 28.3514L53.6558 28.5922ZM53.646 29.4093H53.6528C54.1344 29.4093 54.736 29.7166 55.1308 30.4288C55.5208 31.1323 55.7094 32.2496 55.2676 33.7982C54.4396 36.7001 52.5013 38.3627 50.3897 39.2937C48.261 40.2321 45.9733 40.4154 44.5507 40.3394C43.133 40.2635 42.1895 39.9364 41.5726 39.4991C40.9668 39.0697 40.6331 38.5042 40.4827 37.8534C40.1475 36.4032 40.1009 34.4619 40.4911 31.8519C40.5856 31.2198 41.0692 30.5741 41.743 30.047C42.3988 29.5341 43.116 29.2268 43.5505 29.1697L53.646 29.4093ZM43.5343 28.8423L53.6499 29.0825H53.6528C54.2716 29.0825 54.974 29.4711 55.4172 30.2705C55.8582 31.0661 56.0422 32.276 55.5824 33.8878C54.7222 36.9025 52.7023 38.6314 50.5219 39.5926C48.3343 40.5571 45.9925 40.7438 44.5332 40.6657C43.076 40.5878 42.0661 40.2498 41.3831 39.7656C40.7049 39.2848 40.3301 38.6469 40.1637 37.9268C39.8162 36.4232 39.7735 34.4377 40.1673 31.8036C40.2796 31.0525 40.8377 30.3399 41.5411 29.7898C42.2375 29.245 43.0232 28.9011 43.5343 28.8423Z" fill="#FFD742"/>
<path d="M41.8409 30.213L54.183 35.9076L53.7196 36.7513L40.8895 30.7679L41.8409 30.213Z" fill="#FEFCBD" fill-opacity="0.3"/>
<path d="M40.2559 30.9719L53.1713 37.2555L51.6368 39.0366L39.8778 32.1159L40.2559 30.9719Z" fill="#FEFCBD" fill-opacity="0.3"/>
<path d="M73.717 28.4534L63.5879 28.6939C62.1443 28.6939 60.4755 30.4932 61.4221 33.8115C63.1909 40.0102 69.7471 40.9261 72.7207 40.7671C75.6942 40.608 76.9594 39.3822 77.3163 37.8385C77.6731 36.2948 77.7127 34.276 77.3163 31.624C77.0649 29.9428 74.8601 28.5736 73.717 28.4534Z" fill="#001B33" fill-opacity="0.93"/>
<path fill-rule="evenodd" clip-rule="evenodd" d="M73.727 28.208L73.7427 28.2096L77.5555 28.208C77.5555 28.208 77.4201 30.6578 77.5591 31.5878C77.9583 34.2579 77.9216 36.3098 77.5555 37.8936C77.3651 38.7173 76.9288 39.4641 76.1419 40.0219C75.3597 40.5764 74.2502 40.9308 72.7338 41.0118C71.2195 41.0928 68.7965 40.9011 66.5204 39.8977C64.2371 38.891 62.0946 37.0627 61.186 33.8786C60.6992 32.1722 60.8763 30.8233 61.3939 29.8896C61.9088 28.9609 62.7611 28.45 63.5849 28.4488L73.727 28.208ZM73.7065 28.6989L63.5909 28.939H63.588C62.9692 28.939 62.2667 29.3277 61.8235 30.127C61.3825 30.9226 61.1985 32.1325 61.6583 33.7443C62.5185 36.759 64.5385 38.488 66.7188 39.4492C68.9065 40.4136 71.2483 40.6003 72.7075 40.5223C74.1647 40.4443 75.1746 40.1063 75.8576 39.6222C76.5359 39.1414 76.9106 38.5034 77.077 37.7834C77.4246 36.2798 77.4672 34.2942 77.0734 31.6602C76.9611 30.909 76.403 30.1965 75.6996 29.6463C75.0032 29.1016 74.2176 28.7577 73.7065 28.6989Z" fill="url(#paint35_linear_1555_38589)"/>
<path fill-rule="evenodd" clip-rule="evenodd" d="M77.5396 28.5348C77.5085 29.2335 77.4514 30.8671 77.5591 31.5878C77.9583 34.2579 77.9216 36.3098 77.5555 37.8936C77.3651 38.7174 76.9288 39.4641 76.1419 40.0219C75.3597 40.5764 74.2502 40.9308 72.7338 41.0118C71.2195 41.0928 68.7965 40.9011 66.5204 39.8977C64.2371 38.891 62.0946 37.0627 61.186 33.8786C60.6992 32.1722 60.8763 30.8233 61.3939 29.8896C61.9088 28.9609 62.7611 28.45 63.585 28.4488L73.727 28.208L73.7427 28.2096L77.5555 28.208C77.5555 28.208 77.5486 28.332 77.5396 28.5348ZM73.7598 27.8828L73.7403 27.8807L63.5807 28.1219C62.6207 28.1249 61.6697 28.7172 61.1075 29.7313C60.5388 30.7571 60.3664 32.1987 60.8712 33.9682C61.8119 37.2651 64.0362 39.1598 66.3882 40.1967C68.7231 41.2261 71.2004 41.4212 72.7513 41.3382C74.3071 41.255 75.4831 40.8898 76.3314 40.2884C77.1908 39.6793 77.6681 38.86 77.8745 37.9671C78.2529 36.3298 78.2856 34.2336 77.8829 31.5395C77.8182 31.1071 77.8158 30.2907 77.8324 29.5565C77.8406 29.195 77.8531 28.862 77.8636 28.6193C77.8688 28.4981 77.8735 28.3995 77.8769 28.3313C77.8786 28.2972 77.88 28.2708 77.8809 28.2529L77.8824 28.2263L77.8824 28.226L77.9014 27.881L73.7598 27.8828ZM63.5909 28.939H63.588C62.9692 28.939 62.2667 29.3277 61.8235 30.127C61.3825 30.9226 61.1985 32.1325 61.6583 33.7443C62.5185 36.759 64.5385 38.488 66.7188 39.4492C68.9065 40.4136 71.2483 40.6003 72.7075 40.5223C74.1647 40.4444 75.1746 40.1063 75.8576 39.6222C76.5359 39.1414 76.9106 38.5034 77.077 37.7834C77.4246 36.2798 77.4672 34.2942 77.0734 31.6602C76.9611 30.909 76.403 30.1965 75.6996 29.6463C75.0032 29.1016 74.2176 28.7577 73.7065 28.6989L63.5909 28.939ZM73.6903 29.0262L63.5948 29.2659H63.588C63.1063 29.2659 62.5048 29.5732 62.11 30.2853C61.7199 30.9889 61.5314 32.1061 61.9731 33.6548C62.8012 36.5566 64.7394 38.2193 66.851 39.1502C68.9798 40.0887 71.2674 40.272 72.69 40.1959C74.1077 40.1201 75.0512 39.7929 75.6681 39.3557C76.274 38.9262 76.6076 38.3607 76.758 37.7099C77.0932 36.2597 77.1398 34.3185 76.7496 31.7084C76.6552 31.0764 76.1716 30.4306 75.4977 29.9036C74.8419 29.3906 74.1248 29.0834 73.6903 29.0262Z" fill="#FFD742"/>
<path d="M61.3536 34.0252L69.4286 40.2734L69.7739 40.1015L61.5648 32.4474L61.3536 34.0252Z" fill="#FEFCBD" fill-opacity="0.3"/>
<path d="M39.4631 33.5565L39.595 32.0627C39.595 32.0627 39.9684 29.2569 41.8799 28.4234L35.9134 28.2083H28.9689L36.6159 32.0627L39.4631 33.5565Z" fill="#FDC800"/>
<path d="M58.6946 32.5719C59.7896 32.5719 60.826 32.8403 61.2074 32.9745L61.0328 31.9456C60.567 31.7938 59.4474 31.4901 58.6946 31.4901C57.7537 31.4901 55.7862 31.7748 56.0999 31.9456C56.3508 32.0822 56.2044 32.7996 56.0999 33.1413C56.5086 32.9515 57.5997 32.5719 58.6946 32.5719Z" fill="#FBDD02"/>
<path d="M58.7301 29.8792C60.498 29.8792 61.5861 29.1667 62.2018 29.3834L62.5052 28.868C61.7532 28.6228 59.9455 28.1326 58.7301 28.1326C57.2109 28.1326 54.0343 28.5922 54.5407 28.868C54.9458 29.0886 55.2707 29.1165 55.1019 29.6681C55.7618 29.3617 56.9623 29.8792 58.7301 29.8792Z" fill="#FBDD02"/>
<path d="M35.5853 19.7939C35.9865 18.5686 36.2334 18.0299 36.2334 18.0299C29.2537 18.9664 22.2787 23.4193 22.2787 23.4193V27.2108C24.992 23.4906 35.5853 19.7939 35.5853 19.7939Z" fill="url(#paint36_linear_1555_38589)"/>
<path d="M34.7685 24.7219L34.7685 23.1213C27.7888 24.0578 22.3327 28.1177 22.3327 28.1177C22.3327 28.1177 22.6564 30.6822 22.6564 31.7166C25.3697 27.9965 34.7685 24.7219 34.7685 24.7219Z" fill="url(#paint37_linear_1555_38589)"/>
<path d="M59.4051 86.356L58.2301 74.7746C58.2098 74.5738 58.1076 74.3902 57.9477 74.2668L55.9299 72.7098C55.8009 72.6103 55.6425 72.5563 55.4795 72.5563L52.6464 72.5563C52.5031 72.5563 52.3629 72.598 52.243 72.6763L49.4753 74.4849C49.2831 74.6105 49.1606 74.8184 49.144 75.0471L48.321 86.4016C48.2841 86.9105 48.7649 87.3014 49.2567 87.1621L53.8146 85.8712C53.9492 85.833 54.0919 85.834 54.2261 85.8739L58.4618 87.1348C58.9642 87.2844 59.4579 86.8768 59.4051 86.356Z" fill="#EB9E0A"/>
<path fill-rule="evenodd" clip-rule="evenodd" d="M55.4795 72.066L52.6464 72.066C52.4076 72.066 52.174 72.1355 51.9741 72.2661L49.2064 74.0746C48.8861 74.2839 48.6819 74.6305 48.6543 75.0117L47.8312 86.3662C47.7697 87.2145 48.5712 87.8659 49.3907 87.6338L53.9486 86.3428C53.9935 86.3301 54.0411 86.3304 54.0858 86.3438L58.3215 87.6047C59.1589 87.854 59.9817 87.1746 59.8936 86.3066L58.7187 74.7252C58.6847 74.3906 58.5146 74.0846 58.248 73.8789L56.2302 72.3219L55.9299 72.7098L56.2302 72.3219C56.0153 72.156 55.7512 72.066 55.4795 72.066ZM52.6464 73.0465L55.4795 73.0466C55.5339 73.0466 55.5867 73.0646 55.6297 73.0977L57.6475 74.6547C57.7008 74.6959 57.7348 74.7571 57.7416 74.824L58.9165 86.4054C58.9341 86.579 58.7696 86.7149 58.6021 86.665L54.3664 85.4041C54.1429 85.3375 53.905 85.336 53.6806 85.3995L49.1227 86.6905C48.9588 86.7369 48.7985 86.6066 48.8108 86.4369L49.6338 75.0825C49.6393 75.0062 49.6802 74.9369 49.7443 74.8951L52.512 73.0865C52.5519 73.0604 52.5987 73.0465 52.6464 73.0465Z" fill="#FFCD4E"/>
<path d="M53.1824 84.3202C53.1372 84.3202 53.1005 84.2837 53.1005 84.2385V83.3655C53.1005 83.3203 53.0639 83.2837 53.0187 83.2837H50.96C50.9085 83.2837 50.8698 83.2367 50.8797 83.1862L51.1263 81.9363C51.1338 81.898 51.1675 81.8703 51.2066 81.8703H54.8043C54.8217 81.8703 54.8386 81.8649 54.8526 81.8547L55.2535 81.5627C55.2785 81.5445 55.2911 81.5138 55.2861 81.4833L55.1719 80.7942C55.169 80.7771 55.1608 80.7614 55.1484 80.7492L54.8549 80.4615C54.8396 80.4465 54.819 80.4381 54.7976 80.4381H51.9613C51.9397 80.4381 51.919 80.4296 51.9037 80.4144L50.881 79.4031C50.8677 79.3899 50.8594 79.3727 50.8573 79.3541L50.6198 77.2385C50.6163 77.2077 50.6306 77.1776 50.6567 77.1608L51.9073 76.3524C51.9206 76.3438 51.936 76.3393 51.9518 76.3393H53.0074C53.0568 76.3393 53.0949 76.2959 53.0885 76.247L52.9779 75.395C52.9715 75.3461 53.0097 75.3028 53.0591 75.3028H54.7684C54.8136 75.3028 54.8502 75.3393 54.8502 75.3845V76.2575C54.8502 76.3027 54.8869 76.3393 54.9321 76.3393H56.456C56.5094 76.3393 56.5485 76.3896 56.5352 76.4413L56.2133 77.6913C56.204 77.7274 56.1714 77.7527 56.134 77.7527H52.9994C52.9779 77.7527 52.9573 77.7611 52.942 77.7761L52.6539 78.0584C52.6383 78.0738 52.6294 78.0948 52.6294 78.1167V78.6606C52.6294 78.6826 52.6383 78.7036 52.6539 78.7189L52.942 79.0013C52.9573 79.0163 52.9779 79.0247 52.9994 79.0247H55.8358C55.8573 79.0247 55.8779 79.0331 55.8932 79.0481L56.9155 80.0501C56.9291 80.0634 56.9375 80.0809 56.9396 80.0997L57.1776 82.3051C57.1808 82.3346 57.1678 82.3634 57.1436 82.3805L55.8906 83.2687C55.8767 83.2785 55.8602 83.2837 55.8432 83.2837H54.9491C54.8978 83.2837 54.8591 83.3304 54.8687 83.3807L55.0295 84.2232C55.0391 84.2736 55.0004 84.3202 54.9491 84.3202H53.1824Z" fill="#FFB800"/>
<path fill-rule="evenodd" clip-rule="evenodd" d="M52.6913 83.6923V84.2385C52.6913 84.5093 52.9111 84.7288 53.1823 84.7288H54.9491C55.2571 84.7288 55.4891 84.4489 55.4314 84.1468L55.3447 83.6923H55.8432C55.9451 83.6923 56.0444 83.6607 56.1275 83.6018L57.3805 82.7137C57.5255 82.6109 57.6035 82.4379 57.5845 82.2614L57.3464 80.0559C57.3342 79.9431 57.2833 79.838 57.2022 79.7586L56.1798 78.7566C56.088 78.6666 55.9645 78.6161 55.8358 78.6161H53.1332L53.0386 78.5235V78.2539L53.1332 78.1612H56.134C56.3581 78.1612 56.5538 78.0097 56.6096 77.793L56.9315 76.5431C57.0114 76.2328 56.7768 75.9307 56.4559 75.9307H55.2594V75.3845C55.2594 75.1137 55.0396 74.8942 54.7684 74.8942H53.059C52.7628 74.8942 52.534 75.1542 52.5721 75.4475L52.6348 75.9307H51.9518C51.8571 75.9307 51.7644 75.958 51.6849 76.0094L50.4343 76.8178C50.278 76.9188 50.1924 77.0993 50.2131 77.284L50.4506 79.3996C50.4631 79.5109 50.5134 79.6145 50.593 79.6933L51.6157 80.7047C51.7077 80.7956 51.8319 80.8467 51.9613 80.8467H54.6637L54.7856 80.9661L54.8494 81.3513L54.6976 81.4618H51.2066C50.972 81.4618 50.7701 81.6275 50.7248 81.8573L50.4782 83.1073C50.4185 83.4103 50.6507 83.6923 50.96 83.6923H52.6913ZM53.1005 84.2385C53.1005 84.2836 53.1371 84.3202 53.1823 84.3202H54.9491C55.0004 84.3202 55.0391 84.2736 55.0295 84.2232L54.8687 83.3807C54.8591 83.3304 54.8978 83.2837 54.9491 83.2837H55.8432C55.8602 83.2837 55.8767 83.2785 55.8906 83.2687L57.1436 82.3805C57.1678 82.3634 57.1808 82.3346 57.1776 82.3051L56.9396 80.0997C56.9375 80.0809 56.929 80.0634 56.9155 80.0501L55.8932 79.0481C55.8779 79.0331 55.8573 79.0247 55.8358 79.0247H52.9994C52.9779 79.0247 52.9573 79.0163 52.942 79.0013L52.6539 78.7189C52.6383 78.7036 52.6294 78.6826 52.6294 78.6606V78.1167C52.6294 78.0948 52.6383 78.0738 52.6539 78.0584L52.942 77.776C52.9573 77.7611 52.9779 77.7526 52.9994 77.7526H56.134C56.1714 77.7526 56.204 77.7274 56.2133 77.6913L56.5352 76.4413C56.5485 76.3896 56.5094 76.3393 56.4559 76.3393H54.9321C54.8869 76.3393 54.8502 76.3027 54.8502 76.2575V75.3845C54.8502 75.3393 54.8136 75.3028 54.7684 75.3028H53.059C53.0097 75.3028 52.9715 75.3461 52.9779 75.395L53.0885 76.247C53.0949 76.2959 53.0567 76.3393 53.0074 76.3393H51.9518C51.936 76.3393 51.9206 76.3438 51.9073 76.3524L50.6567 77.1608C50.6306 77.1776 50.6163 77.2077 50.6198 77.2385L50.8573 79.3541C50.8593 79.3726 50.8677 79.3899 50.881 79.4031L51.9037 80.4144C51.919 80.4296 51.9397 80.4381 51.9613 80.4381H54.7975C54.819 80.4381 54.8396 80.4465 54.8549 80.4615L55.1484 80.7492C55.1608 80.7614 55.169 80.7771 55.1718 80.7942L55.286 81.4833C55.2911 81.5138 55.2785 81.5445 55.2535 81.5627L54.8525 81.8546C54.8385 81.8648 54.8217 81.8703 54.8043 81.8703H51.2066C51.1675 81.8703 51.1338 81.898 51.1263 81.9363L50.8797 83.1862C50.8698 83.2367 50.9085 83.2837 50.96 83.2837H53.0187C53.0639 83.2837 53.1005 83.3203 53.1005 83.3654V84.2385Z" fill="#B85B06" fill-opacity="0.34"/>
<path d="M53.4772 75.5397C53.7768 75.5015 54.2326 75.4385 54.5472 75.3822C54.6322 75.3669 54.6234 75.3028 54.5371 75.3028H53.0098C52.9592 75.3028 52.9207 75.3481 52.929 75.3979L53.0615 76.1913C53.0698 76.2411 53.0313 76.2865 52.9808 76.2865H51.9533C51.9367 76.2865 51.9206 76.2915 51.9069 76.3009L51.1241 76.8382C51.0453 76.8923 51.1075 77.0144 51.1977 76.9826L52.0036 76.6986C52.0079 76.6971 52.0122 76.696 52.0166 76.6952L53.3382 76.4623C53.3773 76.4555 53.4058 76.4215 53.4058 76.3819V75.6208C53.4058 75.5796 53.4363 75.5449 53.4772 75.5397Z" fill="#FFDF8B"/>
<path d="M53.0562 79.3721C53.0041 79.2995 52.9359 79.2053 52.8672 79.1118C52.8275 79.0577 52.9241 78.9491 52.9817 78.9837C52.9906 78.989 53.0007 78.9918 53.011 78.9918H55.8351C55.8568 78.9918 55.8776 79.0004 55.893 79.0157L56.6756 79.797C56.7375 79.8588 56.672 79.9615 56.5897 79.9316L56.0424 79.7329C56.0363 79.7307 56.03 79.7292 56.0235 79.7285L53.1137 79.4057C53.0906 79.4031 53.0697 79.391 53.0562 79.3721Z" fill="#FFDF8B"/>
<path d="M83.9322 58.8909C83.0793 61.6981 83.7555 64.3879 85.4424 64.8989C87.1294 65.4098 89.1883 63.5483 90.0412 60.7411C90.8942 57.934 90.218 55.2441 88.5311 54.7332C86.8441 54.2223 84.7851 56.0838 83.9322 58.8909Z" fill="#BE1144"/>
<path d="M32.5835 88.3931C33.4364 91.2002 32.7602 93.8901 31.0733 94.401C29.3863 94.9119 27.3274 93.0504 26.4745 90.2433C25.6216 87.4361 26.2977 84.7463 27.9846 84.2353C29.6716 83.7244 31.7306 85.5859 32.5835 88.3931Z" fill="#BE1144"/>
<path d="M83.9322 58.8909C83.2637 61.0911 83.7936 63.1992 85.1158 63.5997C86.4379 64.0001 88.0517 62.5412 88.7201 60.3411C89.3886 58.1409 88.8587 56.0328 87.5365 55.6323C86.2144 55.2319 84.6007 56.6908 83.9322 58.8909Z" fill="#6C0524"/>
<path d="M32.5835 88.3931C33.252 90.5932 32.7221 92.7014 31.3999 93.1018C30.0778 93.5022 28.464 92.0433 27.7956 89.8432C27.1271 87.6431 27.657 85.5349 28.9792 85.1345C30.3013 84.734 31.9151 86.193 32.5835 88.3931Z" fill="#6C0524"/>
<path d="M31.7655 77.6745C32.7185 79.5154 31.541 83.5497 30.8331 85.3367L29.3025 87.676L30.2151 89.0312L34.5636 90.1673L37.1746 89.863L40.6852 88.2842L44.4098 87.4938L44.4098 86.186L39.9696 86.186L39.8376 84.7956L39.2818 83.5018L45.5341 81.0049L45.0111 79.5171C42.0283 80.764 36.1379 81.4181 36.1379 81.4181C35.7566 78.8118 33.22 76.9962 31.7655 77.6745Z" fill="#FBC3A4"/>
<path d="M33.0354 81.3334C33.803 80.0478 32.4883 78.3642 31.7524 77.6843C32.3549 78.5084 32.1 80.7016 31.8799 81.6939C31.9452 82.1094 33.0354 81.3334 33.0354 81.3334Z" fill="#FCD6C1"/>
<path d="M29.0782 92.2117L30.9934 89.2459L29.3323 87.5679H27.5538C27.2255 89.6283 28.4333 91.5223 29.0782 92.2117Z" fill="#FFA777"/>
<path d="M43.4417 25.331L41.4335 27.8937L38.411 26.6768L40.9778 28.6818L39.759 31.6995L41.7672 29.1368L44.7897 30.3537L42.2229 28.3487L43.4417 25.331Z" fill="white" fill-opacity="0.84"/>
<path opacity="0.2" d="M40.0603 27.6275C39.5692 28.4767 39.8606 29.5626 40.7112 30.0528C41.5617 30.5431 42.6493 30.2522 43.1404 29.403C43.6314 28.5538 43.34 27.4679 42.4895 26.9777C41.6389 26.4874 40.5513 26.7783 40.0603 27.6275Z" fill="white"/>
<path d="M67.9848 50.353L65.9766 52.9158L62.954 51.6989L65.5209 53.7039L64.302 56.7216L66.3102 54.1588L69.3327 55.3758L66.7659 53.3708L67.9848 50.353Z" fill="white" fill-opacity="0.84"/>
<path opacity="0.2" d="M64.6033 52.6496C64.1123 53.4988 64.4037 54.5846 65.2542 55.0749C66.1048 55.5652 67.1923 55.2742 67.6834 54.4251C68.1745 53.5759 67.883 52.49 67.0325 51.9997C66.182 51.5094 65.0944 51.8004 64.6033 52.6496Z" fill="white"/>
<g opacity="0.8">
<path d="M77.5365 36.056L75.5283 38.6187L72.5058 37.4018L75.0726 39.4068L73.8537 42.4245L75.8619 39.8618L78.8844 41.0787L76.3176 39.0737L77.5365 36.056Z" fill="white" fill-opacity="0.84"/>
<path opacity="0.2" d="M74.155 38.3525C73.664 39.2017 73.9554 40.2876 74.8059 40.7778C75.6565 41.2681 76.744 40.9772 77.2351 40.128C77.7262 39.2788 77.4348 38.1929 76.5842 37.7027C75.7337 37.2124 74.6461 37.5033 74.155 38.3525Z" fill="white"/>
</g>
<path d="M54.1704 75.5616L52.1623 78.1243L49.1397 76.9074L51.7065 78.9124L50.4877 81.9301L52.4959 79.3674L55.5184 80.5843L52.9516 78.5793L54.1704 75.5616Z" fill="white" fill-opacity="0.84"/>
<path opacity="0.2" d="M50.789 77.8581C50.2979 78.7073 50.5894 79.7932 51.4399 80.2834C52.2904 80.7737 53.378 80.4828 53.8691 79.6336C54.3601 78.7844 54.0687 77.6985 53.2182 77.2083C52.3676 76.718 51.2801 77.0089 50.789 77.8581Z" fill="white"/>
<path d="M52.0726 10.5298C59.593 8.27823 64.3426 6.15676 65.7774 5.37747L61.5879 -14.5233L56.4859 -0.784316L43.5694 -11.5079L38.672 4.46886L24.2925 -4.34327L33.0588 14.514C36.2633 14.1241 44.5523 12.7814 52.0726 10.5298Z" fill="#FBE315"/>
<path d="M43.5746 -11.5039L56.5001 -0.777333L52.2651 2.49581L43.5746 -11.5039Z" fill="#EDFF7B"/>
<path d="M65.952 6.22434C65.1366 2.46356 61.5986 -14.51 61.5986 -14.51L60.1306 10.4645C64.6954 8.89463 65.952 6.22434 65.952 6.22434Z" fill="#EDFF7B"/>
<path d="M52.4685 13.3413C59.9889 11.0897 66.781 7.73735 65.7768 5.3767L64.4485 -0.933353C64.4485 -0.933353 63.7397 4.07351 50.5935 7.55075C37.4472 11.028 36.9431 8.44994 36.9431 8.44994L26.5239 -2.37241L24.2919 -4.34408L33.0582 14.5133C33.806 16.2017 44.9482 15.5929 52.4685 13.3413Z" fill="#FBC815"/>
<path opacity="0.5" d="M65.952 6.22437C65.1366 2.46359 61.5986 -14.51 61.5986 -14.51L60.1306 10.4645C64.6954 8.89466 65.952 6.22437 65.952 6.22437Z" fill="#EDFF7B"/>
<path d="M38.6866 4.45314L24.2912 -4.33643L37.3878 8.88742L38.6866 4.45314Z" fill="#EDFF7B"/>
<path d="M40.4181 81.8564C40.3281 81.5151 40.4556 81.0107 40.5306 80.8012V80.6976L39.4173 80.9589C39.3911 81.1854 39.3545 81.7272 39.4173 82.0826C39.4801 82.438 39.8099 82.9973 39.9669 83.2325L40.9353 82.8218C40.8004 82.6422 40.5081 82.1977 40.4181 81.8564Z" fill="#EB9E0A"/>
<path d="M41.1131 87.0895C41.0803 86.7381 41.2887 86.2614 41.397 86.0669L41.414 85.9647L40.2729 86.0406C40.2099 86.2597 40.0849 86.7882 40.0886 87.1491C40.0923 87.51 40.326 88.1156 40.4424 88.3732L41.465 88.1264C41.3614 87.9272 41.1459 87.4409 41.1131 87.0895Z" fill="#EB9E0A"/>
<path opacity="0.32" d="M43.9656 81.1382C44.41 81.0579 45.3239 80.893 45.4247 80.8762H45.4667L45.0888 79.7339L43.5668 80.4256L43.9656 81.1382Z" fill="white"/>
<path opacity="0.32" d="M43.2389 87.1901C43.5853 87.2449 44.2976 87.358 44.3757 87.3714L44.4065 87.3822L44.4228 86.4481L43.1295 86.5656L43.2389 87.1901Z" fill="white"/>
<path d="M56.7207 107.848L57.1156 104.967C54.2966 105.283 51.5666 104.836 50.554 104.573L50.3413 107.848C50.635 107.909 51.678 108.042 53.5007 108.091C55.3233 108.14 56.4068 107.949 56.7207 107.848Z" fill="#FFCD4E"/>
<path d="M56.1326 107.703L56.4498 105.388C54.1849 105.642 51.9915 105.282 51.178 105.071L51.0071 107.703C51.2431 107.752 52.081 107.859 53.5454 107.898C55.0098 107.937 55.8803 107.784 56.1326 107.703Z" fill="#EB9E0A"/>
<path opacity="0.4" d="M55.1997 107.986C55.4572 107.903 55.9871 107.736 56.0466 107.736L54.0456 105.171H53.5337L55.1997 107.986Z" fill="#FFCD4E"/>
<path opacity="0.4" d="M54.3528 108.04C54.6103 107.957 54.725 108.04 54.7846 108.04L52.6589 105.225H52.4355L54.3528 108.04Z" fill="#FFCD4E"/>
<path d="M40.8497 81.0137L39.8053 82.3466L38.2332 81.7137L39.5682 82.7565L38.9343 84.326L39.9788 82.9931L41.5508 83.626L40.2158 82.5832L40.8497 81.0137Z" fill="white" fill-opacity="0.84"/>
<path opacity="0.2" d="M39.091 82.2081C38.8356 82.6498 38.9872 83.2145 39.4296 83.4695C39.8719 83.7245 40.4376 83.5732 40.693 83.1315C40.9484 82.6899 40.7969 82.1251 40.3545 81.8701C39.9121 81.6151 39.3464 81.7664 39.091 82.2081Z" fill="white"/>
<path d="M42.6671 68.0821L41.6226 69.415L40.0506 68.7821L41.3856 69.8249L40.7517 71.3945L41.7962 70.0616L43.3682 70.6945L42.0332 69.6517L42.6671 68.0821Z" fill="white" fill-opacity="0.84"/>
<path opacity="0.2" d="M40.9084 69.2766C40.653 69.7183 40.8046 70.283 41.247 70.538C41.6893 70.793 42.255 70.6417 42.5104 70.2C42.7658 69.7584 42.6143 69.1936 42.1719 68.9386C41.7295 68.6836 41.1638 68.8349 40.9084 69.2766Z" fill="white"/>
<path opacity="0.1" d="M20.3672 83.3502C22.5451 85.0449 24.0406 81.7954 27.3931 77.5009C30.7455 73.2064 34.6853 69.493 32.5074 67.7983C30.3295 66.1036 25.8463 68.2112 22.4939 72.5057C19.1415 76.8002 18.1893 81.6555 20.3672 83.3502Z" fill="white"/>
<path opacity="0.1" d="M81.072 69.4503C79.7777 70.4574 78.8889 68.5263 76.8966 65.974C74.9042 63.4217 72.5628 61.2149 73.8571 60.2077C75.1514 59.2005 77.8158 60.4531 79.8081 63.0053C81.8005 65.5576 82.3664 68.4431 81.072 69.4503Z" fill="white"/>
<path d="M88.4548 48.7825C89.4077 50.6234 88.2302 54.6577 87.5223 56.4447L85.9917 58.784L83.8107 59.5593C83.4015 61.1603 83.8107 61.9698 83.8107 61.9698L86.9043 60.1392L90.8128 61.1603C91.1054 61.2368 91.4049 61.2846 91.7068 61.3032L93.9909 61.4437C94.8094 61.494 95.6268 61.328 96.3606 60.9625L99.6281 59.3346C100.58 58.8603 102.468 57.1618 102.912 56.1965L103.24 55.0935L101.785 53.9606L102.912 51.7843L102.469 51.171L101.7 50.6251C98.7175 51.8719 92.8271 52.5261 92.8271 52.5261C92.4458 49.9198 89.9092 48.1042 88.4548 48.7825Z" fill="#FBC3A4"/>
<path d="M91.554 63.001L95.196 51.9699L96.0553 47.0264L99.861 48.3338L95.196 64.0224L92.7315 65.0749L91.554 63.001Z" fill="#E9B80C"/>
<path d="M94.1637 62.9912L97.2737 51.7967L96.0554 47.0264L99.861 48.3338L95.196 64.0224L92.7315 65.0749L94.1637 62.9912Z" fill="#C69B02"/>
<path d="M102.275 15.3631L95.728 47.7618L100.966 48.6198L111.892 19.2853L108.086 12.0129L102.275 15.3631Z" fill="#EEEEEE"/>
<path d="M102.275 15.3631L95.728 47.7618L97.9693 48.2014L99.8108 42.0322L108.086 12.0129L102.275 15.3631Z" fill="#D5D5D5"/>
<path opacity="0.4" d="M102.275 15.3631L101.366 20.0926L106.89 16.0479L110.082 23.933L111.146 21.5634L111.892 19.2853L108.086 12.0129L102.275 15.3631Z" fill="white"/>
<path d="M111.943 6.89121L108.192 11.2085L102.998 8.80549L107.322 12.5505L104.914 17.7359L108.666 13.4187L113.859 15.8217L109.536 12.0767L111.943 6.89121Z" fill="white" fill-opacity="0.84"/>
<path opacity="0.2" d="M105.807 10.6196C104.869 12.0657 105.284 13.9963 106.732 14.9319C108.18 15.8674 110.114 15.4536 111.051 14.0075C111.988 12.5615 111.574 10.6308 110.126 9.69529C108.678 8.75974 106.744 9.17359 105.807 10.6196Z" fill="white"/>
<path d="M95.3505 52.1644L98.3377 52.6138L100.015 50.0399L108.813 51.1022L109.559 48.9057L101.57 47.2617L98.2149 47.6294L95.9233 46.1995L88.7714 44.6976L88.4757 46.1995L95.3505 48.9057V52.1644Z" fill="#E9B80C"/>
<path d="M107.095 49.09L109.645 46.8532L110.696 50.1339L108.295 52.8181L107.095 49.09Z" fill="#FFD742"/>
<path d="M87.9438 44.7593L90.4945 42.5225L91.5448 45.8032L89.1441 48.4874L87.9438 44.7593Z" fill="#FFD742"/>
<path d="M92.7724 62.1435L94.2797 60.8259L94.9003 62.7583L93.4817 64.3395L92.7724 62.1435Z" fill="#FFD742"/>
<path d="M97.0282 47.4354L98.5355 46.1178L99.1561 48.0502L97.7375 49.6314L97.0282 47.4354Z" fill="#FFD742"/>
<path d="M101.693 50.6936C101.562 50.5956 98.9106 51.5516 97.6011 52.0419L96.5371 52.9407V54.5341L101.693 54.3298L102.88 51.7967C102.539 51.4699 101.824 50.7917 101.693 50.6936Z" fill="#FED0B6"/>
<path d="M101.857 53.8804C101.722 53.7825 97.7595 55.8061 96.4078 56.2954L95.3095 57.1926V58.7831H100.875L103.532 55.7594C104.637 54.8147 101.992 53.9783 101.857 53.8804Z" fill="#FED0B6"/>
</g>
<defs>
<filter id="filter0_d_1555_38589" x="0.610357" y="-29.6988" width="124.305" height="177.21" filterUnits="userSpaceOnUse" color-interpolation-filters="sRGB">
<feFlood flood-opacity="0" result="BackgroundImageFix"/>
<feColorMatrix in="SourceAlpha" type="matrix" values="0 0 0 0 0 0 0 0 0 0 0 0 0 0 0 0 0 0 127 0" result="hardAlpha"/>
<feOffset dy="1.42668"/>
<feGaussianBlur stdDeviation="5.5284"/>
<feComposite in2="hardAlpha" operator="out"/>
<feColorMatrix type="matrix" values="0 0 0 0 0 0 0 0 0 0 0 0 0 0 0 0 0 0 0.17 0"/>
<feBlend mode="normal" in2="BackgroundImageFix" result="effect1_dropShadow_1555_38589"/>
<feBlend mode="normal" in="SourceGraphic" in2="effect1_dropShadow_1555_38589" result="shape"/>
</filter>
<linearGradient id="paint0_linear_1555_38589" x1="54.4541" y1="104.272" x2="54.4541" y2="73.4135" gradientUnits="userSpaceOnUse">
<stop stop-color="#F50D44"/>
<stop offset="0.99" stop-color="#FB4F54"/>
</linearGradient>
<linearGradient id="paint1_linear_1555_38589" x1="52.7483" y1="77.5789" x2="52.7483" y2="73.4141" gradientUnits="userSpaceOnUse">
<stop offset="0.01" stop-color="#C16688"/>
<stop offset="1" stop-color="#7E70F1"/>
</linearGradient>
<linearGradient id="paint2_linear_1555_38589" x1="2031.55" y1="4310.36" x2="2031.55" y2="2986.28" gradientUnits="userSpaceOnUse">
<stop offset="0.01" stop-color="#B45C7D"/>
<stop offset="1" stop-color="#8A7EEA"/>
</linearGradient>
<linearGradient id="paint3_linear_1555_38589" x1="33.7737" y1="105.266" x2="33.7737" y2="60.5422" gradientUnits="userSpaceOnUse">
<stop stop-color="#F50D44"/>
<stop offset="0.99" stop-color="#FB4F54"/>
</linearGradient>
<linearGradient id="paint4_linear_1555_38589" x1="69.7353" y1="106.179" x2="69.7353" y2="58.6853" gradientUnits="userSpaceOnUse">
<stop stop-color="#F50D44"/>
<stop offset="0.99" stop-color="#FB4F54"/>
</linearGradient>
<linearGradient id="paint5_linear_1555_38589" x1="43.1344" y1="67.7062" x2="44.4027" y2="68.2525" gradientUnits="userSpaceOnUse">
<stop stop-color="#FFD770"/>
<stop offset="1" stop-color="#FDBC12"/>
</linearGradient>
<linearGradient id="paint6_linear_1555_38589" x1="43.5376" y1="66.044" x2="44.8202" y2="65.532" gradientUnits="userSpaceOnUse">
<stop stop-color="#FFD770"/>
<stop offset="1" stop-color="#FDBC12"/>
</linearGradient>
<linearGradient id="paint7_linear_1555_38589" x1="39.0817" y1="67.8172" x2="40.3643" y2="67.3052" gradientUnits="userSpaceOnUse">
<stop stop-color="#FFD770"/>
<stop offset="1" stop-color="#FDBC12"/>
</linearGradient>
<linearGradient id="paint8_linear_1555_38589" x1="41.8191" y1="68.2296" x2="41.2749" y2="69.4971" gradientUnits="userSpaceOnUse">
<stop stop-color="#FFD770"/>
<stop offset="1" stop-color="#FDBC12"/>
</linearGradient>
<linearGradient id="paint9_linear_1555_38589" x1="39.4775" y1="64.8829" x2="40.7501" y2="65.4191" gradientUnits="userSpaceOnUse">
<stop stop-color="#FFD770"/>
<stop offset="1" stop-color="#FDBC12"/>
</linearGradient>
<linearGradient id="paint10_linear_1555_38589" x1="48.7316" y1="74.1113" x2="50.0935" y2="73.881" gradientUnits="userSpaceOnUse">
<stop stop-color="#FFD770"/>
<stop offset="1" stop-color="#FDBC12"/>
</linearGradient>
<linearGradient id="paint11_linear_1555_38589" x1="48.1672" y1="72.4965" x2="48.9659" y2="71.3714" gradientUnits="userSpaceOnUse">
<stop stop-color="#FFD770"/>
<stop offset="1" stop-color="#FDBC12"/>
</linearGradient>
<linearGradient id="paint12_linear_1555_38589" x1="47.9111" y1="75.2634" x2="48.1404" y2="76.6234" gradientUnits="userSpaceOnUse">
<stop stop-color="#FFD770"/>
<stop offset="1" stop-color="#FDBC12"/>
</linearGradient>
<linearGradient id="paint13_linear_1555_38589" x1="45.5667" y1="71.6231" x2="46.9327" y2="71.8281" gradientUnits="userSpaceOnUse">
<stop stop-color="#FFD770"/>
<stop offset="1" stop-color="#FDBC12"/>
</linearGradient>
<linearGradient id="paint14_linear_1555_38589" x1="45.5327" y1="69.9132" x2="46.6421" y2="69.0916" gradientUnits="userSpaceOnUse">
<stop stop-color="#FFD770"/>
<stop offset="1" stop-color="#FDBC12"/>
</linearGradient>
<linearGradient id="paint15_linear_1555_38589" x1="41.6759" y1="72.7607" x2="42.7853" y2="71.939" gradientUnits="userSpaceOnUse">
<stop stop-color="#FFD770"/>
<stop offset="1" stop-color="#FDBC12"/>
</linearGradient>
<linearGradient id="paint16_linear_1555_38589" x1="44.4282" y1="72.4637" x2="44.2243" y2="73.8277" gradientUnits="userSpaceOnUse">
<stop stop-color="#FFD770"/>
<stop offset="1" stop-color="#FDBC12"/>
</linearGradient>
<linearGradient id="paint17_linear_1555_38589" x1="61.9667" y1="67.0147" x2="60.7617" y2="67.6889" gradientUnits="userSpaceOnUse">
<stop stop-color="#FFD770"/>
<stop offset="1" stop-color="#FDBC12"/>
</linearGradient>
<linearGradient id="paint18_linear_1555_38589" x1="56.8849" y1="74.1117" x2="55.523" y2="73.8813" gradientUnits="userSpaceOnUse">
<stop stop-color="#FFD770"/>
<stop offset="1" stop-color="#FDBC12"/>
</linearGradient>
<linearGradient id="paint19_linear_1555_38589" x1="57.4493" y1="72.4969" x2="56.6505" y2="71.3718" gradientUnits="userSpaceOnUse">
<stop stop-color="#FFD770"/>
<stop offset="1" stop-color="#FDBC12"/>
</linearGradient>
<linearGradient id="paint20_linear_1555_38589" x1="57.7054" y1="75.2638" x2="57.4761" y2="76.6237" gradientUnits="userSpaceOnUse">
<stop stop-color="#FFD770"/>
<stop offset="1" stop-color="#FDBC12"/>
</linearGradient>
<linearGradient id="paint21_linear_1555_38589" x1="59.9966" y1="72.3542" x2="58.811" y2="73.0619" gradientUnits="userSpaceOnUse">
<stop stop-color="#FFD770"/>
<stop offset="1" stop-color="#FDBC12"/>
</linearGradient>
<linearGradient id="paint22_linear_1555_38589" x1="59.379" y1="70.759" x2="58.0402" y2="70.4195" gradientUnits="userSpaceOnUse">
<stop stop-color="#FFD770"/>
<stop offset="1" stop-color="#FDBC12"/>
</linearGradient>
<linearGradient id="paint23_linear_1555_38589" x1="57.6953" y1="72.3222" x2="56.8965" y2="71.1971" gradientUnits="userSpaceOnUse">
<stop stop-color="#FFD770"/>
<stop offset="1" stop-color="#FDBC12"/>
</linearGradient>
<linearGradient id="paint24_linear_1555_38589" x1="64.0289" y1="71.9346" x2="62.6902" y2="71.595" gradientUnits="userSpaceOnUse">
<stop stop-color="#FFD770"/>
<stop offset="1" stop-color="#FDBC12"/>
</linearGradient>
<linearGradient id="paint25_linear_1555_38589" x1="61.3692" y1="72.7013" x2="62.0746" y2="73.887" gradientUnits="userSpaceOnUse">
<stop stop-color="#FFD770"/>
<stop offset="1" stop-color="#FDBC12"/>
</linearGradient>
<linearGradient id="paint26_linear_1555_38589" x1="53.7235" y1="10.5032" x2="53.7235" y2="67.6284" gradientUnits="userSpaceOnUse">
<stop stop-color="#FFBC98"/>
<stop offset="1" stop-color="#FAC4A6"/>
</linearGradient>
<linearGradient id="paint27_linear_1555_38589" x1="50.9624" y1="56.206" x2="50.9624" y2="-1.54145" gradientUnits="userSpaceOnUse">
<stop offset="0.01" stop-color="#3D2B2B"/>
<stop offset="0.99" stop-color="#392419"/>
</linearGradient>
<linearGradient id="paint28_linear_1555_38589" x1="2444.1" y1="1225.62" x2="2444.1" y2="781.597" gradientUnits="userSpaceOnUse">
<stop offset="0.01" stop-color="#3B2720"/>
<stop offset="0.99" stop-color="#4A3020"/>
</linearGradient>
<linearGradient id="paint29_linear_1555_38589" x1="1989.72" y1="984.201" x2="1989.72" y2="626.33" gradientUnits="userSpaceOnUse">
<stop offset="0.01" stop-color="#3B2720"/>
<stop offset="0.99" stop-color="#4A3020"/>
</linearGradient>
<linearGradient id="paint30_linear_1555_38589" x1="2034.31" y1="788.952" x2="2034.31" y2="672.741" gradientUnits="userSpaceOnUse">
<stop offset="0.01" stop-color="#3B2821"/>
<stop offset="0.99" stop-color="#6C5045"/>
</linearGradient>
<linearGradient id="paint31_linear_1555_38589" x1="51.4396" y1="26.553" x2="51.4396" y2="1.77633" gradientUnits="userSpaceOnUse">
<stop offset="0.01" stop-color="#3D2B2B"/>
<stop offset="0.99" stop-color="#392419"/>
</linearGradient>
<linearGradient id="paint32_linear_1555_38589" x1="51.2813" y1="-0.519481" x2="68.5946" y2="24.9605" gradientUnits="userSpaceOnUse">
<stop stop-color="#4B3021"/>
<stop offset="1" stop-color="#241610"/>
</linearGradient>
<linearGradient id="paint33_linear_1555_38589" x1="58.6103" y1="36.8233" x2="58.6103" y2="44.679" gradientUnits="userSpaceOnUse">
<stop stop-color="#F5B694"/>
<stop offset="1" stop-color="#FF7762"/>
</linearGradient>
<linearGradient id="paint34_linear_1555_38589" x1="46.0784" y1="28.3514" x2="46.0784" y2="41.1719" gradientUnits="userSpaceOnUse">
<stop stop-color="#FFF601"/>
<stop offset="1" stop-color="#F5C001"/>
</linearGradient>
<linearGradient id="paint35_linear_1555_38589" x1="69.3721" y1="28.208" x2="69.3721" y2="41.0284" gradientUnits="userSpaceOnUse">
<stop stop-color="#FFF601"/>
<stop offset="1" stop-color="#F5C001"/>
</linearGradient>
<linearGradient id="paint36_linear_1555_38589" x1="35.3326" y1="19.3088" x2="29.2653" y2="27.22" gradientUnits="userSpaceOnUse">
<stop stop-color="#6D5145"/>
<stop offset="1" stop-color="#6D5145" stop-opacity="0"/>
</linearGradient>
<linearGradient id="paint37_linear_1555_38589" x1="34.4352" y1="24.4137" x2="28.368" y2="32.325" gradientUnits="userSpaceOnUse">
<stop stop-color="#6D5145"/>
<stop offset="1" stop-color="#6D5145" stop-opacity="0"/>
</linearGradient>
</defs>
</svg>
