<svg width="349" height="247" viewBox="0 0 349 247" fill="none" xmlns="http://www.w3.org/2000/svg">
<g filter="url(#filter0_d_1530_42044)">
<path d="M247.266 118.558L247.955 120.047L273.425 127.836L305.434 130.471L283.98 123.025L274.687 121.078L268.147 119.474L247.266 118.558Z" fill="#FFD742"/>
<path d="M87.6982 169.578C89.1035 144.322 122.269 149.373 125.361 149.373C142.974 150.963 180.843 155.21 191.411 159.475C201.979 163.741 190.755 175.096 183.822 180.241L125.361 169.578C112.338 177.996 86.5739 189.782 87.6982 169.578Z" fill="#F3E8FF"/>
<path d="M215.94 193.342L163.837 168.502L119.616 166.178L63.7576 198.323L114.185 301.342H189.051L215.94 193.342Z" fill="#7854AE"/>
<path d="M180.176 196.375L175.593 177.462L146.872 165.717L105.318 166.48C105.827 170.598 106.906 178.987 107.151 179.597C107.395 180.207 113.058 193.071 115.859 199.426L141.83 208.425L180.176 196.375Z" fill="black" fill-opacity="0.23"/>
<path d="M121.841 190.388L124.593 175.125C124.778 174.095 125.676 173.345 126.725 173.345H159.997C161.262 173.345 162.258 174.423 162.156 175.682L160.055 201.625C159.965 202.748 159.025 203.614 157.896 203.614H135.966C135.435 203.614 134.922 203.418 134.525 203.065L122.531 192.385C121.969 191.884 121.707 191.128 121.841 190.388Z" fill="#BC896E"/>
<path fill-rule="evenodd" clip-rule="evenodd" d="M166.443 270.498C164.737 275.307 162.347 279.847 159.345 283.977C158.859 284.581 158.33 285.149 157.761 285.675L156.625 284.93L140.861 274.505C140.861 274.505 145.867 241.187 145.344 215.063C142.265 214.244 139.424 212.714 137.05 210.595C136.454 210.025 135.949 209.367 135.556 208.643C135.274 206.288 135.457 203.899 136.094 201.613C136.274 201.115 136.596 200.68 137.02 200.362C137.02 200.362 149.258 198.873 154.264 199.275C155.616 200.958 156.292 203.081 156.162 205.233C155.427 207.199 154.501 209.09 153.398 210.878C152.676 212.074 151.851 213.205 150.932 214.258L151.141 214.81C151.141 215.003 151.306 215.241 151.395 215.524C151.485 215.807 151.724 216.358 151.903 216.88L152.053 217.297L152.486 218.518L152.665 219.01C154.324 223.657 156.954 231.327 159.524 240.159C162.292 249.418 164.483 258.839 166.084 268.368C166.248 269.009 166.353 269.709 166.443 270.498Z" fill="url(#paint0_linear_1530_42044)"/>
<path style="mix-blend-mode:multiply" opacity="0.5" d="M156.206 205.13C155.471 207.097 154.545 208.987 153.441 210.775C153.441 210.775 152.276 203.328 148.75 201.347C144.894 200.517 140.905 200.517 137.049 201.347C136.754 201.419 136.455 201.474 136.153 201.511C136.332 201.013 136.655 200.578 137.079 200.26C137.079 200.26 149.317 198.77 154.323 199.173C155.669 200.858 156.34 202.98 156.206 205.13Z" fill="url(#paint1_linear_1530_42044)"/>
<path style="mix-blend-mode:multiply" opacity="0.5" d="M166.375 270.695C166.375 270.695 164.602 276.004 163.421 277.773C162.239 279.543 158.104 286.031 158.104 286.031L156.624 284.858L140.86 274.432C140.86 274.432 145.865 241.114 145.342 214.99C142.264 214.172 139.423 212.641 137.049 210.522C137.049 210.522 145.223 214.275 150.976 214.186L151.185 214.737L151.439 215.452L151.947 216.807L152.097 217.224L152.53 218.445L152.709 218.937L146.986 226.146C146.986 226.146 145.208 258.034 148.197 269.606C150.935 271.322 154.152 272.121 157.378 271.885C160.604 271.649 163.67 270.391 166.128 268.296L166.375 270.695Z" fill="url(#paint2_linear_1530_42044)"/>
<path d="M147.507 198.403L140.651 201.139L135.448 225.626C121.415 216.62 110.757 196.189 110.757 196.189L120.633 180.719L123.455 180.719L123.905 183.194C130.727 192.324 147.507 198.403 147.507 198.403Z" fill="#ECE6AE"/>
<path d="M171.534 199.551C171.534 199.551 172.437 215.42 167.812 221.98C167.812 221.98 157.753 203.865 155.29 201.117L148.5 198.31L153.086 195.99C153.086 195.99 158.706 192.194 161.044 187.673L164.902 191.924L171.534 199.551Z" fill="#ECE6AE"/>
<path d="M46.1494 267.607L65.7539 223.63C71.8644 223.63 76.617 234.815 78.2295 240.408L59.6434 274.979L46.1494 267.607Z" fill="#BBAAD3"/>
<path opacity="0.24" d="M213.05 235.668L214.454 218.442C196.788 211.423 163.353 194.796 161.406 193.284C159.459 191.772 160.595 193.914 161.406 195.174L213.05 235.668Z" fill="#E4E4F1"/>
<path d="M40.0034 295.73C4.06828 229.751 87.1831 163.776 89.0103 163.168C99.06 176.648 119.707 203.911 121.9 205.127C124.093 206.344 122.814 257.931 121.9 283.572C118.753 291.984 68.7514 348.513 40.0034 295.73Z" fill="url(#paint3_linear_1530_42044)"/>
<path d="M254.865 173.109C277.645 131.283 245.916 139.776 237.77 146.184C218.756 155.157 199.802 163.147 191.703 157.972C181.653 171.451 177.358 160.517 175.165 161.733C172.973 162.95 197.876 186.615 169.77 287.918C172.916 296.33 226.117 225.892 254.865 173.109Z" fill="url(#paint4_linear_1530_42044)"/>
<path d="M111.546 213.683C105.76 192.4 98.1372 167.769 83.1532 167.769C83.1532 167.769 71.2848 153.022 92.3674 149.472C113.45 145.921 107.892 162.602 107.892 162.602C113.779 180.035 122.509 189.055 125.555 213.683C128.6 238.311 126.367 254.527 125.555 269.932L121.596 298.817L119.672 295.416C119.672 295.416 117.332 234.966 111.546 213.683Z" fill="#F3E8FF"/>
<path d="M181.319 230.367C182.729 201.509 173.276 170.43 173.276 170.43C173.276 170.43 178.003 161.173 185.549 159.276C193.096 157.38 200.154 163.4 205.289 174.762C216.746 200.113 210.929 224.032 201.059 251.483C196.238 279.067 203.351 308.618 203.351 308.618C203.351 308.618 178.933 310.723 173.276 311.625C167.618 312.528 160.991 308.618 160.991 308.618C160.991 308.618 179.909 259.226 181.319 230.367Z" fill="#F3E8FF"/>
<path d="M123.643 177.732C122.66 177.31 121.521 177.763 121.099 178.744L117.351 187.445C116.928 188.426 117.382 189.563 118.365 189.985C119.347 190.407 120.486 189.954 120.909 188.973L124.656 180.272C125.079 179.291 124.625 178.154 123.643 177.732Z" fill="url(#paint5_linear_1530_42044)"/>
<path d="M120.694 174.061C119.7 174.456 119.216 175.581 119.612 176.573L121.098 180.296C121.494 181.288 122.621 181.772 123.614 181.376C124.608 180.981 125.092 179.856 124.696 178.864L123.21 175.141C122.814 174.149 121.687 173.666 120.694 174.061Z" fill="url(#paint6_linear_1530_42044)"/>
<path d="M108.201 179.033C107.208 179.428 106.723 180.552 107.119 181.544L108.606 185.268C109.002 186.259 110.128 186.743 111.121 186.348C112.115 185.952 112.599 184.828 112.203 183.836L110.717 180.113C110.321 179.121 109.194 178.637 108.201 179.033Z" fill="url(#paint7_linear_1530_42044)"/>
<path d="M108.636 183.704C109.058 182.723 110.197 182.27 111.179 182.691L119.895 186.433C120.877 186.855 121.331 187.992 120.909 188.973C120.486 189.954 119.347 190.407 118.365 189.985L109.65 186.243C108.667 185.822 108.213 184.685 108.636 183.704Z" fill="url(#paint8_linear_1530_42044)"/>
<path d="M108.167 182.076C107.181 181.662 106.718 180.529 107.133 179.544L110.811 170.814C111.226 169.829 112.361 169.367 113.347 169.781C114.333 170.195 114.796 171.329 114.381 172.313L110.702 181.044C110.288 182.028 109.153 182.49 108.167 182.076Z" fill="url(#paint9_linear_1530_42044)"/>
<path d="M113.935 194.804C114.992 194.962 115.978 194.234 116.136 193.178L117.542 183.811C117.7 182.755 116.971 181.771 115.913 181.613C114.856 181.455 113.87 182.182 113.712 183.238L112.306 192.606C112.148 193.662 112.877 194.646 113.935 194.804Z" fill="#FFBC0E"/>
<path d="M124.1 183.715C123.24 184.35 123.058 185.56 123.694 186.419L126.081 189.641C126.717 190.5 127.929 190.681 128.789 190.046C129.649 189.412 129.831 188.201 129.195 187.342L126.808 184.12C126.172 183.261 124.96 183.08 124.1 183.715Z" fill="#FFBC0E"/>
<path d="M113.286 191.698C112.426 192.333 112.245 193.543 112.881 194.402L115.268 197.625C115.903 198.483 117.116 198.665 117.976 198.03C118.836 197.395 119.017 196.184 118.382 195.326L115.995 192.103C115.359 191.245 114.146 191.063 113.286 191.698Z" fill="#FFBC0E"/>
<path d="M126.924 185.214C126.765 186.27 125.78 186.998 124.722 186.84L115.34 185.437C114.282 185.279 113.553 184.294 113.712 183.239C113.87 182.183 114.856 181.455 115.913 181.613L125.296 183.016C126.353 183.174 127.082 184.158 126.924 185.214Z" fill="#FFBC0E"/>
<path d="M135.033 213.462C136.088 213.284 136.798 212.287 136.62 211.234L135.04 201.894C134.862 200.841 133.863 200.132 132.809 200.31C131.754 200.488 131.044 201.485 131.222 202.538L132.801 211.877C132.979 212.93 133.979 213.64 135.033 213.462Z" fill="#FFBC0E"/>
<path d="M135.715 194.155C134.66 194.333 133.95 195.33 134.128 196.383L135.708 205.723C135.886 206.775 136.885 207.485 137.939 207.307C138.994 207.129 139.704 206.132 139.526 205.079L137.947 195.739C137.769 194.686 136.769 193.977 135.715 194.155Z" fill="url(#paint10_linear_1530_42044)"/>
<path d="M131.243 192.668C130.624 193.538 130.828 194.745 131.699 195.364L134.971 197.687C135.843 198.306 137.052 198.102 137.671 197.232C138.291 196.361 138.087 195.154 137.215 194.536L133.944 192.213C133.072 191.594 131.863 191.798 131.243 192.668Z" fill="url(#paint11_linear_1530_42044)"/>
<path d="M141.232 199.785C140.617 200.648 140.813 201.845 141.671 202.468L146.739 206.148C147.61 206.781 148.831 206.581 149.456 205.705C150.071 204.841 149.875 203.644 149.016 203.021L143.949 199.342C143.077 198.709 141.856 198.908 141.232 199.785Z" fill="#FFBC0E"/>
<path d="M133.436 210.731C132.822 211.593 133.016 212.788 133.872 213.412L139.392 217.439C140.263 218.075 141.487 217.876 142.112 216.998C142.726 216.136 142.532 214.941 141.676 214.317L136.156 210.29C135.285 209.655 134.061 209.853 133.436 210.731Z" fill="#FFBC0E"/>
<path d="M144.395 200.317C144.573 201.37 143.862 202.368 142.808 202.545L133.454 204.122C132.399 204.3 131.4 203.591 131.222 202.538C131.044 201.485 131.754 200.488 132.809 200.31L142.163 198.733C143.218 198.555 144.217 199.264 144.395 200.317Z" fill="#FFBC0E"/>
<path d="M126.353 207.3C126.175 206.247 126.886 205.249 127.94 205.071L137.295 203.494C138.349 203.317 139.348 204.026 139.526 205.079C139.704 206.132 138.994 207.129 137.939 207.307L128.585 208.884C127.53 209.062 126.531 208.352 126.353 207.3Z" fill="url(#paint12_linear_1530_42044)"/>
<path d="M124.343 205.872C125.397 205.695 126.108 204.697 125.93 203.644L124.35 194.305C124.172 193.252 123.173 192.542 122.119 192.72C121.064 192.898 120.354 193.896 120.532 194.948L122.111 204.288C122.289 205.341 123.288 206.05 124.343 205.872Z" fill="#FFBC0E"/>
<path d="M128.949 187.768C127.891 187.609 126.905 188.337 126.747 189.393L125.342 198.76C125.183 199.816 125.912 200.801 126.97 200.959C128.028 201.117 129.013 200.389 129.172 199.333L130.577 189.966C130.735 188.91 130.006 187.926 128.949 187.768Z" fill="url(#paint13_linear_1530_42044)"/>
<path d="M125.161 184.967C124.301 185.602 124.12 186.813 124.756 187.671L127.143 190.894C127.778 191.753 128.991 191.934 129.851 191.299C130.711 190.664 130.892 189.454 130.256 188.595L127.869 185.372C127.234 184.514 126.021 184.332 125.161 184.967Z" fill="url(#paint14_linear_1530_42044)"/>
<path d="M130.554 192.178C129.934 193.049 130.138 194.256 131.01 194.874L134.282 197.197C135.153 197.816 136.362 197.612 136.982 196.742C137.602 195.872 137.397 194.665 136.526 194.046L133.254 191.723C132.382 191.104 131.174 191.308 130.554 192.178Z" fill="#FFBC0E"/>
<path d="M114.348 192.951C113.488 193.585 113.306 194.796 113.942 195.655L116.329 198.877C116.965 199.736 118.177 199.917 119.037 199.282C119.897 198.648 120.079 197.437 119.443 196.578L117.056 193.356C116.42 192.497 115.208 192.316 114.348 192.951Z" fill="url(#paint15_linear_1530_42044)"/>
<path d="M122.76 203.121C122.14 203.991 122.345 205.198 123.216 205.817L126.488 208.14C127.359 208.759 128.568 208.555 129.188 207.685C129.808 206.815 129.604 205.608 128.732 204.989L125.46 202.666C124.589 202.047 123.38 202.251 122.76 203.121Z" fill="#FFBC0E"/>
<path d="M133.705 192.727C133.883 193.78 133.172 194.778 132.118 194.956L122.763 196.533C121.709 196.71 120.71 196.001 120.532 194.948C120.353 193.895 121.064 192.898 122.118 192.72L131.473 191.143C132.527 190.965 133.527 191.675 133.705 192.727Z" fill="#FFBC0E"/>
<path d="M115.959 197.357C116.118 196.301 117.104 195.574 118.161 195.732L127.543 197.135C128.601 197.293 129.33 198.277 129.172 199.333C129.013 200.389 128.027 201.117 126.97 200.959L117.588 199.556C116.53 199.398 115.801 198.413 115.959 197.357Z" fill="url(#paint16_linear_1530_42044)"/>
<path opacity="0.1" d="M82.8865 167.972C97.8358 166.994 103.595 179.105 119.284 188.838C127.086 191.191 139.198 195.642 148.654 195.642C160.631 195.642 168.534 190.433 177.342 186.883C179.99 185.816 179.09 172.707 203.143 171.047C203.143 171.047 194.83 143.711 145.523 137.919C130.241 137.919 113.83 140.081 104.285 145.56C100.366 147.809 96.7998 145.611 92.6894 149.377C87.0527 150.722 73.9415 153.047 82.8865 167.972Z" fill="#1F0101"/>
<path d="M168.411 178.661C169.345 178.141 170.525 178.474 171.046 179.406L173.004 182.906C173.525 183.838 173.191 185.016 172.258 185.536C171.324 186.057 170.144 185.723 169.623 184.791L167.665 181.292C167.144 180.36 167.478 179.182 168.411 178.661Z" fill="url(#paint17_linear_1530_42044)"/>
<path d="M177.593 193.486C176.674 194.032 175.486 193.732 174.938 192.814L170.082 184.678C169.535 183.761 169.836 182.574 170.754 182.027C171.673 181.481 172.862 181.781 173.409 182.699L178.265 190.835C178.813 191.752 178.512 192.939 177.593 193.486Z" fill="#FFBC0E"/>
<path d="M161.901 189.536C162.449 190.453 163.637 190.754 164.556 190.207L172.706 185.359C173.624 184.812 173.925 183.625 173.378 182.708C172.83 181.791 171.642 181.491 170.723 182.037L162.574 186.886C161.655 187.432 161.354 188.619 161.901 189.536Z" fill="#FFBC0E"/>
<path d="M157.662 213.463C156.607 213.285 155.897 212.287 156.075 211.235L157.654 201.895C157.832 200.842 158.832 200.133 159.886 200.311C160.941 200.488 161.651 201.486 161.473 202.539L159.893 211.878C159.715 212.931 158.716 213.641 157.662 213.463Z" fill="#FFBC0E"/>
<path d="M156.98 194.156C158.034 194.334 158.745 195.331 158.567 196.384L156.987 205.724C156.809 206.776 155.81 207.486 154.755 207.308C153.701 207.13 152.99 206.133 153.169 205.08L154.748 195.74C154.926 194.687 155.925 193.978 156.98 194.156Z" fill="url(#paint18_linear_1530_42044)"/>
<path d="M161.451 192.669C162.071 193.539 161.867 194.746 160.995 195.365L157.724 197.688C156.852 198.307 155.643 198.103 155.023 197.233C154.404 196.362 154.608 195.155 155.479 194.537L158.751 192.214C159.623 191.595 160.832 191.799 161.451 192.669Z" fill="url(#paint19_linear_1530_42044)"/>
<path d="M151.463 199.786C152.078 200.649 151.882 201.846 151.024 202.47L145.956 206.149C145.085 206.782 143.864 206.583 143.239 205.706C142.624 204.842 142.82 203.645 143.678 203.022L148.746 199.343C149.617 198.71 150.838 198.909 151.463 199.786Z" fill="#FFBC0E"/>
<path d="M159.259 210.732C159.873 211.594 159.679 212.789 158.823 213.413L153.303 217.44C152.432 218.076 151.208 217.878 150.583 217C149.969 216.137 150.163 214.943 151.018 214.318L156.539 210.291C157.41 209.656 158.634 209.854 159.259 210.732Z" fill="#FFBC0E"/>
<path d="M148.3 200.318C148.122 201.371 148.832 202.369 149.887 202.546L159.241 204.123C160.296 204.301 161.295 203.592 161.473 202.539C161.651 201.486 160.941 200.489 159.886 200.311L150.532 198.734C149.477 198.556 148.478 199.265 148.3 200.318Z" fill="#FFBC0E"/>
<path d="M166.342 207.301C166.52 206.248 165.809 205.25 164.755 205.072L155.4 203.495C154.346 203.318 153.347 204.027 153.169 205.08C152.99 206.133 153.701 207.13 154.755 207.308L164.11 208.885C165.164 209.063 166.164 208.353 166.342 207.301Z" fill="url(#paint20_linear_1530_42044)"/>
<path d="M168.352 205.873C167.297 205.696 166.587 204.698 166.765 203.645L168.344 194.306C168.523 193.253 169.522 192.543 170.576 192.721C171.631 192.899 172.341 193.897 172.163 194.949L170.584 204.289C170.406 205.342 169.406 206.051 168.352 205.873Z" fill="#FFBC0E"/>
<path d="M161.419 191.387C162.337 190.84 163.526 191.141 164.073 192.058L168.93 200.195C169.477 201.112 169.176 202.299 168.257 202.845C167.339 203.392 166.15 203.091 165.603 202.174L160.746 194.037C160.199 193.12 160.5 191.934 161.419 191.387Z" fill="url(#paint21_linear_1530_42044)"/>
<path d="M163.861 187.363C164.897 187.625 165.525 188.676 165.262 189.711L164.277 193.597C164.014 194.632 162.961 195.259 161.925 194.996C160.888 194.734 160.26 193.683 160.523 192.648L161.508 188.762C161.771 187.727 162.824 187.1 163.861 187.363Z" fill="url(#paint22_linear_1530_42044)"/>
<path d="M162.141 192.179C162.761 193.05 162.557 194.257 161.685 194.875L158.413 197.198C157.542 197.817 156.333 197.613 155.713 196.743C155.093 195.873 155.297 194.666 156.169 194.047L159.441 191.724C160.312 191.105 161.521 191.309 162.141 192.179Z" fill="url(#paint23_linear_1530_42044)"/>
<path d="M176.898 190.658C177.935 190.92 178.562 191.972 178.3 193.007L177.314 196.893C177.052 197.928 175.998 198.554 174.962 198.292C173.925 198.03 173.297 196.979 173.56 195.944L174.545 192.058C174.808 191.023 175.861 190.396 176.898 190.658Z" fill="url(#paint24_linear_1530_42044)"/>
<path d="M169.935 203.122C170.554 203.992 170.35 205.199 169.479 205.818L166.207 208.141C165.335 208.76 164.126 208.556 163.507 207.686C162.887 206.816 163.091 205.609 163.963 204.99L167.234 202.667C168.106 202.048 169.315 202.252 169.935 203.122Z" fill="#FFBC0E"/>
<path d="M158.99 192.729C158.812 193.781 159.523 194.779 160.577 194.957L169.932 196.534C170.986 196.712 171.985 196.002 172.163 194.949C172.341 193.896 171.631 192.899 170.576 192.721L161.222 191.144C160.167 190.966 159.168 191.676 158.99 192.729Z" fill="#FFBC0E"/>
<path d="M177.079 195.346C176.532 194.429 175.343 194.129 174.425 194.675L166.275 199.524C165.356 200.07 165.055 201.257 165.603 202.174C166.15 203.091 167.339 203.392 168.257 202.845L176.407 197.997C177.326 197.45 177.627 196.264 177.079 195.346Z" fill="url(#paint25_linear_1530_42044)"/>
<path d="M221.124 78.3734C230.125 67.1831 219.638 47.7132 213.27 39.377L181.853 27.2965L194.165 95.9642H213.27C212.138 94.7632 212.124 89.5637 221.124 78.3734Z" fill="#23140D"/>
<path d="M83.5765 109.24C84.0857 157.537 111.394 180.821 145.142 182.757C178.89 184.694 210.655 162.945 213.028 130.775C213.028 130.775 214.96 78.8485 214.117 58.7891C212.838 3.38004 127.576 23.9189 85.1041 41.1144C84.4252 47.7236 83.1691 70.6015 83.5765 109.24Z" fill="url(#paint26_linear_1530_42044)"/>
<path d="M112.416 110.775C112.323 113.702 118.079 116.259 125.272 116.486C132.464 116.712 138.37 114.523 138.463 111.595C138.555 108.668 132.799 106.111 125.607 105.885C118.414 105.658 112.508 107.848 112.416 110.775Z" fill="#FCA28E"/>
<path d="M181.437 110.775C181.345 113.702 187.101 116.259 194.293 116.486C201.486 116.712 207.392 114.523 207.484 111.595C207.577 108.668 201.821 106.111 194.628 105.885C187.436 105.658 181.53 107.848 181.437 110.775Z" fill="#FCA28E"/>
<path opacity="0.2" d="M167.061 88.8441C167.144 90.274 168.093 91.3823 169.182 91.3197C170.272 91.2571 171.088 90.0472 171.005 88.6173C170.923 87.1875 169.973 86.0791 168.884 86.1418C167.795 86.2044 166.979 87.4143 167.061 88.8441Z" fill="#F1B69E"/>
<path opacity="0.2" d="M162.818 85.3008C162.901 86.7306 163.85 87.839 164.94 87.7764C166.029 87.7137 166.845 86.5039 166.762 85.074C166.68 83.6442 165.73 82.5358 164.641 82.5984C163.552 82.661 162.736 83.8709 162.818 85.3008Z" fill="#F1B69E"/>
<path opacity="0.2" d="M158.576 89.5267C158.658 90.9565 159.608 92.0649 160.697 92.0023C161.786 91.9396 162.602 90.7298 162.52 89.2999C162.437 87.8701 161.488 86.7617 160.399 86.8243C159.309 86.8869 158.493 88.0968 158.576 89.5267Z" fill="#F1B69E"/>
<path d="M188.246 87.6231C188.558 93.0408 193.187 97.1812 198.584 96.8709C203.981 96.5606 208.103 91.9171 207.791 86.4994C207.478 81.0816 202.85 76.9413 197.452 77.2516C192.055 77.5619 187.933 82.2054 188.246 87.6231Z" fill="#E89979"/>
<path d="M122.273 87.6231C122.585 93.0408 127.214 97.1812 132.611 96.8709C138.008 96.5606 142.13 91.9171 141.818 86.4994C141.505 81.0816 136.877 76.9413 131.479 77.2516C126.082 77.5619 121.96 82.2054 122.273 87.6231Z" fill="#E89979"/>
<path opacity="0.3" d="M106.042 46.9299C106.354 52.3476 116.188 56.1887 128.006 55.5093C139.824 54.8298 149.152 49.887 148.839 44.4693C148.527 39.0515 138.693 35.2104 126.875 35.8899C115.056 36.5694 105.729 41.5122 106.042 46.9299Z" fill="#FAEDFF"/>
<path opacity="0.3" d="M115.737 42.8965C115.945 46.5139 122.511 49.0787 130.402 48.625C138.293 48.1713 144.521 44.871 144.313 41.2536C144.104 37.6361 137.538 35.0714 129.647 35.5251C121.756 35.9788 115.528 39.2791 115.737 42.8965Z" fill="#FAEDFF"/>
<path opacity="0.3" d="M142.292 168.437C142.501 172.054 149.067 174.619 156.958 174.165C164.849 173.712 171.077 170.411 170.868 166.794C170.659 163.177 164.093 160.612 156.202 161.065C148.311 161.519 142.083 164.819 142.292 168.437Z" fill="#FAEDFF"/>
<path opacity="0.3" d="M148.543 170.878C148.662 172.954 152.43 174.426 156.958 174.165C161.486 173.905 165.059 172.011 164.939 169.936C164.82 167.86 161.052 166.388 156.524 166.649C151.996 166.909 148.423 168.803 148.543 170.878Z" fill="#FAEDFF"/>
<mask id="mask0_1530_42044" style="mask-type:alpha" maskUnits="userSpaceOnUse" x="117" y="119" width="87" height="37">
<path d="M195.314 121.938C192.124 122.792 183.352 123.2 179.365 123.297C170.321 123.297 150.967 123.18 145.91 122.714C139.589 122.132 112.748 113.199 118.096 127.278C123.445 141.357 138.811 154.853 161.373 155.436C183.936 156.019 199.204 136.211 202.219 130.385C205.234 124.559 199.301 120.87 195.314 121.938Z" fill="#AA2727"/>
</mask>
<g mask="url(#mask0_1530_42044)">
<path d="M195.314 121.938C192.124 122.792 183.352 123.2 179.365 123.297C170.321 123.297 150.967 123.18 145.91 122.714C139.589 122.132 112.748 113.199 118.096 127.278C123.445 141.357 138.811 154.853 161.373 155.436C183.936 156.019 199.204 136.211 202.219 130.385C205.234 124.559 199.301 120.87 195.314 121.938Z" fill="#AA2727"/>
<path d="M196.014 124.172C193.113 124.949 185.135 125.32 181.508 125.408C173.283 125.408 155.681 125.302 151.082 124.878C145.333 124.348 120.921 116.224 125.786 129.028C130.651 141.833 144.625 154.108 165.145 154.638C185.665 155.168 199.552 137.153 202.294 131.854C205.036 126.556 199.64 123.2 196.014 124.172Z" fill="#F35353"/>
<path d="M190.502 128.727C192.078 128.236 193.457 124.036 193.958 121.966C187.267 122.387 172.603 123.169 163.534 123.169C154.232 123.169 134.306 119.665 127.784 119.464C127.784 119.464 127.582 122.77 129.639 124.899C131.696 127.027 143.544 130.975 156.112 132.062C171.823 133.421 188.523 129.345 190.502 128.727Z" fill="#E4E4F1"/>
<path d="M144.877 143.666C144.877 146.549 151.671 148.886 160.053 148.886C168.434 148.886 175.229 146.549 175.229 143.666C175.229 140.783 168.434 138.446 160.053 138.446C151.671 138.446 144.877 140.783 144.877 143.666Z" fill="#E33867"/>
<path d="M184.873 144.516L185.578 148.739C181.348 151.085 170.914 156.059 163.018 157.185C155.122 158.312 142.809 154.37 137.639 152.258C137.874 149.443 138.434 146.229 138.588 145.448C138.87 144.016 139.601 142.212 141.011 142.916C142.421 143.619 149.434 144.461 161.915 144.516C174.396 144.571 179.233 143.108 182.053 142.404C184.873 141.7 184.873 144.516 184.873 144.516Z" fill="#E4E4F1"/>
</g>
<path d="M126.598 87.1403C126.598 91.1608 129.863 94.4201 133.89 94.4201C137.916 94.4201 141.181 91.1608 141.181 87.1403C141.181 83.1198 137.916 79.8606 133.89 79.8606C129.863 79.8606 126.598 83.1198 126.598 87.1403Z" fill="#261611"/>
<path opacity="0.1" d="M127.695 88.7177C127.695 89.7854 130.468 93.558 133.889 93.558C137.311 93.558 140.084 89.7854 140.084 88.7177C140.084 87.6501 137.311 89.2362 133.889 89.2362C130.468 89.2362 127.695 87.6501 127.695 88.7177Z" fill="#F3CEC4"/>
<path d="M133.889 84.4056C133.889 86.0028 135.186 87.2975 136.786 87.2975C138.385 87.2975 139.682 86.0028 139.682 84.4056C139.682 82.8085 138.385 81.5137 136.786 81.5137C135.186 81.5137 133.889 82.8085 133.889 84.4056Z" fill="#F3CEC4"/>
<path opacity="0.2" d="M130.02 84.4053C130.02 84.9898 130.494 85.4637 131.08 85.4637C131.665 85.4637 132.14 84.9898 132.14 84.4053C132.14 83.8208 131.665 83.3469 131.08 83.3469C130.494 83.3469 130.02 83.8208 130.02 84.4053Z" fill="#F3CEC4"/>
<path d="M202.983 86.2783C202.983 90.2988 199.719 93.5581 195.692 93.5581C191.665 93.5581 188.401 90.2988 188.401 86.2783C188.401 82.2578 191.665 78.9986 195.692 78.9986C199.719 78.9986 202.983 82.2578 202.983 86.2783Z" fill="#261611"/>
<path opacity="0.1" d="M201.886 87.8557C201.886 88.9233 199.113 92.696 195.692 92.696C192.27 92.696 189.497 88.9233 189.497 87.8557C189.497 86.788 192.27 88.3741 195.692 88.3741C199.113 88.3741 201.886 86.788 201.886 87.8557Z" fill="#F3CEC4"/>
<path d="M195.692 83.5429C195.692 85.1401 194.395 86.4348 192.795 86.4348C191.196 86.4348 189.899 85.1401 189.899 83.5429C189.899 81.9458 191.196 80.651 192.795 80.651C194.395 80.651 195.692 81.9458 195.692 83.5429Z" fill="#F3CEC4"/>
<path opacity="0.2" d="M199.561 83.5434C199.561 84.1279 199.087 84.6018 198.501 84.6018C197.916 84.6018 197.441 84.1279 197.441 83.5434C197.441 82.9588 197.916 82.485 198.501 82.485C199.087 82.485 199.561 82.9588 199.561 83.5434Z" fill="#F3CEC4"/>
<path d="M210.29 54.1735L210.629 43.8983C208.048 50.1894 204.286 55.9471 199.539 60.871C199.539 60.871 196.28 39.7383 190.736 32.0424C190.736 32.0424 188.196 32.0424 183.837 32.0424C179.477 32.0424 172.789 31.5848 165.001 30.9608C152.304 29.9208 126.316 29.5048 108.158 37.492C104.285 39.1159 102.876 41.1681 99.711 43.8983C97.4674 50.4093 94.7425 57.5355 95.9403 64.3082C97.1381 71.081 100.043 77.4508 104.391 82.8358C104.391 82.8358 97.8728 87.0213 94.3174 105.575C90.762 124.128 94.3174 127.6 94.3174 127.6L71.4543 118.425C64.8271 103.566 65.5901 105.68 62.7424 89.6998C59.8219 68.2343 58.0996 43.1079 69.7392 37.492C97.6466 24.0269 67.8849 12.7531 158.864 -9.09987C197.491 -35.9316 223.237 -31.7148 223.237 9.23377C223.237 35.1534 210.29 54.1735 210.29 54.1735Z" fill="url(#paint27_linear_1530_42044)"/>
<path d="M174.144 -11.0128C174.144 -11.0128 207.582 0.676722 199.54 60.8717C199.54 60.8717 223.158 15.1119 199.54 -7.43524C191.349 -10.0614 182.756 -11.2719 174.144 -11.0128Z" fill="url(#paint28_linear_1530_42044)"/>
<path d="M195.692 -20.3114C195.692 -20.3114 222.642 -10.89 216.16 37.6252C216.16 37.6252 235.195 0.744251 216.16 -17.428C209.558 -19.5446 202.633 -20.5202 195.692 -20.3114Z" fill="url(#paint29_linear_1530_42044)"/>
<path d="M98.3612 72.1422C98.3612 72.1422 96.8602 79.5434 72.0432 88.5746C72.7421 94.1787 73.7881 99.7357 75.1754 105.215C75.1754 105.215 90.8272 88.4077 99.4617 75.9277L98.3612 72.1422Z" fill="url(#paint30_linear_1530_42044)"/>
<path d="M86.4443 82.4913V89.7168V111.144C86.4443 118.329 72.0511 116.703 69.3918 111.144C62.4519 96.6366 68.9758 72.8989 76.8366 72.8989C84.6975 72.8989 86.4443 78.0066 86.4443 82.4913Z" fill="#F1B69E"/>
<path d="M86.4443 88.8671V92.2309V102.206C86.4443 105.551 79.7435 104.794 78.5055 102.206C75.2746 95.4525 78.3118 84.4014 81.9714 84.4014C85.6311 84.4014 86.4443 86.7792 86.4443 88.8671Z" fill="#D07F5E"/>
<path opacity="0.5" d="M86.4443 82.4913V89.7167V111.144C86.4443 118.329 72.051 116.703 69.3918 111.144C62.4519 96.6366 68.9757 72.8989 76.8366 72.8989C84.6974 72.8989 86.4443 78.0065 86.4443 82.4913Z" fill="#D07F5E"/>
<path d="M86.4443 82.4913V89.7167V111.144C86.4443 118.329 74.531 116.703 72.3299 111.144C66.5857 96.6366 71.9855 72.8989 78.4919 72.8989C84.9984 72.8989 86.4443 78.0065 86.4443 82.4913Z" fill="#F1B69E"/>
<path d="M86.4443 88.8671V92.2309V102.206C86.4443 105.551 79.7435 104.794 78.5055 102.206C75.2746 95.4525 78.3118 84.4014 81.9714 84.4014C85.631 84.4014 86.4443 86.7792 86.4443 88.8671Z" fill="#D07F5E"/>
<path d="M86.4443 95.1231V96.9515V102.374C86.4443 104.192 83.6085 103.78 83.0846 102.374C81.7173 98.7025 83.0026 92.6958 84.5514 92.6958C86.1001 92.6958 86.4443 93.9883 86.4443 95.1231Z" fill="#F1B69E"/>
<path opacity="0.45" d="M170.792 31.4509C175.26 32.0538 173.207 30.7977 175.321 30.5465C189.562 29.0393 207.113 22.2267 163.395 7.03388C119.676 -8.1589 103.966 28.3862 98.3303 43.2072C99.9908 41.0971 109.985 24.4272 125.805 18.6395C145.581 11.4048 165.207 30.6973 170.792 31.4509Z" fill="black"/>
<path d="M162.516 69.3347C188.944 49.7305 192.062 27.7958 190.317 19.2789C190.239 9.25228 182.942 -10.2435 154.373 -8.01367C125.804 -5.78381 101.833 7.62634 93.4193 14.0527C139.217 1.0972 189.07 12.1309 162.516 69.3347Z" fill="url(#paint31_linear_1530_42044)"/>
<path d="M162.516 69.3347C188.944 49.7305 192.062 27.7958 190.317 19.2789C190.239 9.25228 182.942 -10.2435 154.373 -8.01367C125.804 -5.78381 101.833 7.62634 93.4193 14.0527C139.217 1.0972 189.07 12.1309 162.516 69.3347Z" fill="url(#paint32_linear_1530_42044)"/>
<path d="M148.563 73.502C151.974 70.2273 150.901 66.442 147.776 62.7612C144.651 59.0803 117.995 66.5598 115.108 67.2147C112.222 67.8696 111.566 71.4062 113.797 73.502C116.027 75.5977 145.152 76.7766 148.563 73.502Z" fill="#3B2822"/>
<path d="M180.021 71.7354C177.123 68.4608 178.035 64.6755 180.69 60.9946C183.345 57.3138 205.991 64.7932 208.443 65.4481C210.895 66.1031 211.452 69.6397 209.557 71.7354C207.663 73.8312 182.919 75.0101 180.021 71.7354Z" fill="#3B2822"/>
<path opacity="0.5" d="M146.233 72.8564C149.176 71.3832 148.25 69.6803 145.554 68.0243C142.857 66.3684 119.855 69.7332 117.365 70.0279C114.874 70.3225 114.308 71.9136 116.233 72.8564C118.157 73.7993 143.289 74.3296 146.233 72.8564Z" fill="#201510"/>
<path opacity="0.5" d="M182.001 71.0898C179.5 69.6166 180.287 67.9137 182.578 66.2577C184.869 64.6018 204.41 67.9666 206.526 68.2613C208.642 68.5559 209.123 70.147 207.488 71.0898C205.853 72.0326 184.501 72.563 182.001 71.0898Z" fill="#201510"/>
<path d="M177.244 110.978C177.244 110.978 167.498 94.7714 167.498 90.7746C167.498 90.7746 165.838 103.691 156.397 100.505C146.957 97.3188 141.65 112.755 148.515 110.978C155.38 109.201 151.566 112.501 156.397 116.055C161.228 119.608 174.862 119.101 177.244 110.978Z" fill="url(#paint33_linear_1530_42044)"/>
<path d="M156.81 116.102C154.936 112.655 150.329 106.795 146.896 110.932C146.896 110.932 152.075 116.102 156.81 116.102Z" fill="#AA2727"/>
<path d="M85.7187 78.0355C86.2409 80.5506 111.281 83.1601 111.281 83.1601L110.496 73.1056L77.798 71.6689L82.7388 73.9868C82.7388 73.9868 85.1964 75.5204 85.7187 78.0355Z" fill="#041A30"/>
<path d="M120.316 73.4439L148.715 74.1181C152.763 74.1181 157.441 79.1628 154.787 88.4663C149.828 105.846 131.447 108.414 123.11 107.968C114.773 107.522 111.225 104.085 110.225 99.7569C109.225 95.4287 109.114 89.7688 110.225 82.3332C110.93 77.6198 117.111 73.7807 120.316 73.4439Z" fill="#001B33" fill-opacity="0.93"/>
<path fill-rule="evenodd" clip-rule="evenodd" d="M120.288 72.7557L120.244 72.7604L98.7054 72.7557C98.7054 72.7557 109.934 79.6244 109.544 82.2317C108.425 89.7178 108.528 95.4708 109.554 99.9114C110.088 102.221 111.311 104.315 113.518 105.879C115.711 107.433 118.821 108.427 123.073 108.654C127.318 108.881 134.112 108.343 140.493 105.53C146.895 102.708 152.902 97.5817 155.449 88.6546C156.814 83.8702 156.318 80.0882 154.867 77.4705C153.423 74.8667 151.033 73.4343 148.723 73.4308L120.288 72.7557ZM120.346 74.1321L148.707 74.8054H148.715C150.45 74.8054 152.419 75.895 153.662 78.1362C154.899 80.3667 155.414 83.7589 154.125 88.278C151.713 96.7304 146.05 101.578 139.937 104.273C133.804 106.977 127.238 107.5 123.146 107.281C119.061 107.063 116.23 106.115 114.315 104.758C112.413 103.41 111.362 101.621 110.896 99.6023C109.921 95.3866 109.802 89.8198 110.906 82.4347C111.221 80.3286 112.785 78.3309 114.758 76.7883C116.71 75.2611 118.913 74.2969 120.346 74.1321Z" fill="url(#paint34_linear_1530_42044)"/>
<path fill-rule="evenodd" clip-rule="evenodd" d="M120.196 71.844L77.7512 71.6207L77.8817 72.9208L80.579 73.831L98.2262 73.5372L98.2329 73.5414L98.2558 73.5555C98.2762 73.568 98.3069 73.587 98.3471 73.6119C98.4276 73.6618 98.5462 73.7358 98.6974 73.831C98.9999 74.0215 99.4325 74.2971 99.9508 74.6362C100.989 75.3151 102.364 76.2446 103.724 77.2519C105.091 78.264 106.413 79.3341 107.361 80.2945C107.837 80.7765 108.191 81.2026 108.409 81.5564C108.64 81.9319 108.637 82.0914 108.636 82.0963C107.507 89.6497 107.599 95.5269 108.66 100.117C109.239 102.621 110.577 104.918 112.986 106.626C115.365 108.312 118.662 109.336 123.024 109.569C127.372 109.802 134.318 109.255 140.864 106.368C147.458 103.461 153.695 98.1494 156.332 88.9056C157.747 83.9445 157.264 79.9027 155.67 77.0268C154.093 74.1835 151.427 72.5229 148.736 72.5145L120.251 71.8382L120.196 71.844ZM148.724 73.4308C151.034 73.4343 153.423 74.8667 154.867 77.4705C156.318 80.0882 156.814 83.8702 155.449 88.6546C152.902 97.5817 146.895 102.708 140.493 105.53C134.112 108.343 127.318 108.881 123.073 108.654C118.821 108.427 115.711 107.433 113.518 105.879C111.311 104.315 110.088 102.221 109.554 99.9114C108.528 95.4708 108.425 89.7178 109.544 82.2317C109.846 80.2111 103.171 75.6313 100.151 73.6724C99.2741 73.1036 98.7054 72.7557 98.7054 72.7557L120.244 72.7604L120.288 72.7557L148.724 73.4308ZM148.696 75.7218H148.715C150.066 75.7218 151.752 76.5834 152.859 78.58C153.953 80.5525 154.481 83.6849 153.243 88.0269C150.921 96.1629 145.487 100.824 139.566 103.434C133.598 106.066 127.184 106.58 123.196 106.366C119.221 106.154 116.576 105.237 114.846 104.011C113.147 102.806 112.212 101.221 111.79 99.3963C110.85 95.3305 110.72 89.8877 111.814 82.5699C112.079 80.7979 113.434 78.9873 115.324 77.5097C117.162 76.0715 119.173 75.2101 120.391 75.0498L148.696 75.7218ZM120.346 74.1321L148.707 74.8054H148.715C150.45 74.8054 152.42 75.895 153.662 78.1362C154.899 80.3667 155.414 83.7589 154.125 88.278C151.714 96.7303 146.05 101.578 139.937 104.273C133.804 106.977 127.238 107.5 123.147 107.281C119.061 107.063 116.23 106.115 114.315 104.758C112.413 103.41 111.362 101.621 110.896 99.6023C109.921 95.3866 109.802 89.8197 110.906 82.4346C111.221 80.3286 112.785 78.3308 114.758 76.7883C116.71 75.2611 118.913 74.2969 120.346 74.1321Z" fill="#FFD742"/>
<path d="M115.598 77.9749L150.202 93.9409L148.902 96.3064L112.931 79.5308L115.598 77.9749Z" fill="#FEFCBD" fill-opacity="0.3"/>
<path d="M111.154 80.1027L147.365 97.7201L143.063 102.714L110.094 83.3101L111.154 80.1027Z" fill="#FEFCBD" fill-opacity="0.3"/>
<path d="M204.969 73.0416L176.57 73.7158C172.523 73.7158 167.844 78.7605 170.498 88.064C175.457 105.443 193.839 108.011 202.176 107.565C210.513 107.12 214.06 103.683 215.061 99.3546C216.061 95.0264 216.172 89.3665 215.061 81.9309C214.356 77.2175 208.174 73.3784 204.969 73.0416Z" fill="#001B33" fill-opacity="0.93"/>
<path fill-rule="evenodd" clip-rule="evenodd" d="M204.997 72.3535L205.041 72.3581L215.731 72.3535C215.731 72.3535 215.352 79.2221 215.741 81.8295C216.861 89.3155 216.758 95.0685 215.731 99.5091C215.198 101.819 213.974 103.912 211.768 105.476C209.575 107.031 206.464 108.024 202.213 108.252C197.967 108.479 191.174 107.941 184.792 105.128C178.39 102.306 172.383 97.1794 169.836 88.2523C168.471 83.4679 168.968 79.6859 170.419 77.0683C171.863 74.4644 174.252 73.032 176.562 73.0285L204.997 72.3535ZM204.94 73.7298L176.579 74.4031H176.57C174.836 74.4031 172.866 75.4927 171.624 77.7339C170.387 79.9645 169.871 83.3566 171.16 87.8757C173.572 96.3281 179.235 101.175 185.348 103.87C191.482 106.575 198.048 107.098 202.139 106.879C206.225 106.661 209.056 105.713 210.971 104.355C212.873 103.007 213.923 101.219 214.39 99.2001C215.364 94.9843 215.484 89.4175 214.38 82.0324C214.065 79.9263 212.5 77.9286 210.528 76.3861C208.575 74.8588 206.373 73.8947 204.94 73.7298Z" fill="url(#paint35_linear_1530_42044)"/>
<path fill-rule="evenodd" clip-rule="evenodd" d="M215.687 73.2698C215.599 75.2286 215.439 79.8087 215.741 81.8294C216.861 89.3155 216.758 95.0685 215.731 99.5091C215.198 101.819 213.974 103.912 211.768 105.476C209.575 107.031 206.464 108.024 202.213 108.252C197.967 108.479 191.174 107.941 184.792 105.128C178.39 102.306 172.383 97.1794 169.836 88.2523C168.471 83.4679 168.968 79.6859 170.419 77.0682C171.863 74.4644 174.252 73.032 176.562 73.0285L204.997 72.3534L205.041 72.3581L215.731 72.3534C215.731 72.3534 215.712 72.7012 215.687 73.2698ZM205.089 71.4417L205.035 71.4359L176.55 72.1122C173.859 72.1206 171.192 73.7813 169.616 76.6245C168.022 79.5004 167.538 83.5422 168.953 88.5033C171.591 97.7471 177.827 103.059 184.422 105.966C190.968 108.852 197.913 109.399 202.262 109.167C206.624 108.934 209.921 107.909 212.299 106.224C214.709 104.516 216.047 102.218 216.626 99.7152C217.687 95.1246 217.778 89.2476 216.649 81.6942C216.468 80.4816 216.461 78.1927 216.508 76.1344C216.531 75.1208 216.566 74.1872 216.595 73.5068C216.61 73.1668 216.623 72.8903 216.632 72.6992C216.637 72.6037 216.641 72.5295 216.644 72.4794L216.648 72.4049L216.648 72.4041L216.701 71.4366L205.089 71.4417ZM176.579 74.4031H176.57C174.836 74.4031 172.866 75.4927 171.624 77.7339C170.387 79.9644 169.871 83.3566 171.16 87.8757C173.572 96.3281 179.235 101.175 185.348 103.87C191.482 106.575 198.048 107.098 202.139 106.879C206.225 106.661 209.056 105.713 210.971 104.355C212.873 103.007 213.923 101.219 214.39 99.2001C215.364 94.9843 215.484 89.4175 214.38 82.0324C214.065 79.9263 212.5 77.9286 210.528 76.386C208.575 74.8588 206.373 73.8946 204.94 73.7298L176.579 74.4031ZM204.894 74.6475L176.59 75.3195H176.57C175.22 75.3195 173.534 76.1811 172.427 78.1777C171.333 80.1502 170.804 83.2826 172.043 87.6247C174.364 95.7606 179.799 100.422 185.719 103.032C191.688 105.663 198.101 106.177 202.09 105.964C206.065 105.751 208.71 104.834 210.44 103.608C212.138 102.404 213.074 100.819 213.495 98.994C214.435 94.9282 214.566 89.4854 213.472 82.1676C213.207 80.3956 211.851 78.5851 209.962 77.1074C208.123 75.6692 206.113 74.8078 204.894 74.6475Z" fill="#FFD742"/>
<path d="M170.306 88.6632L192.946 106.181L193.914 105.699L170.898 84.2395L170.306 88.6632Z" fill="#FEFCBD" fill-opacity="0.3"/>
<path d="M108.932 87.3493L109.301 83.1611C109.301 83.1611 110.348 75.2945 115.707 72.9574L98.9793 72.3545H79.5088L100.949 83.1611L108.932 87.3493Z" fill="#FDC800"/>
<path d="M162.851 84.5886C165.921 84.5886 168.827 85.3411 169.896 85.7174L169.406 82.8326C168.101 82.4069 164.962 81.5555 162.851 81.5555C160.213 81.5555 154.697 82.3537 155.576 82.8326C156.28 83.2157 155.869 85.2271 155.576 86.1849C156.722 85.6529 159.781 84.5886 162.851 84.5886Z" fill="#FBDD02"/>
<path d="M162.951 77.0392C167.907 77.0392 170.958 75.0416 172.684 75.649L173.535 74.2039C171.426 73.5166 166.358 72.142 162.951 72.142C158.691 72.142 149.785 73.4307 151.205 74.2039C152.341 74.8225 153.251 74.9008 152.778 76.4472C154.628 75.5881 157.994 77.0392 162.951 77.0392Z" fill="#FBDD02"/>
<path d="M98.0593 48.763C99.1842 45.3275 99.8764 43.8171 99.8764 43.8171C80.3072 46.4428 60.7514 58.9274 60.7514 58.9274V69.5576C68.3588 59.1275 98.0593 48.763 98.0593 48.763Z" fill="url(#paint36_linear_1530_42044)"/>
<path d="M95.7692 62.5796L95.7693 58.0919C76.2001 60.7176 60.9029 72.1003 60.9029 72.1003C60.9029 72.1003 61.8104 79.2905 61.8104 82.1907C69.4178 71.7605 95.7692 62.5796 95.7692 62.5796Z" fill="url(#paint37_linear_1530_42044)"/>
<path d="M164.843 235.383L161.549 202.912C161.492 202.349 161.205 201.835 160.757 201.489L155.1 197.123C154.738 196.844 154.294 196.693 153.837 196.693L145.894 196.693C145.492 196.693 145.099 196.81 144.763 197.03L137.003 202.1C136.464 202.452 136.121 203.035 136.074 203.676L133.766 235.511C133.663 236.938 135.011 238.034 136.39 237.643L149.169 234.024C149.546 233.917 149.947 233.92 150.323 234.032L162.198 237.567C163.607 237.986 164.991 236.843 164.843 235.383Z" fill="#EB9E0A"/>
<path fill-rule="evenodd" clip-rule="evenodd" d="M153.837 195.318L145.894 195.318C145.224 195.318 144.569 195.513 144.009 195.879L136.249 200.95C135.351 201.537 134.778 202.508 134.701 203.577L132.393 235.412C132.221 237.79 134.468 239.617 136.766 238.966L149.545 235.346C149.671 235.311 149.804 235.312 149.929 235.349L161.805 238.884C164.153 239.583 166.46 237.678 166.213 235.245L162.919 202.774C162.823 201.836 162.346 200.978 161.599 200.401L155.942 196.036L155.1 197.123L155.942 196.036C155.339 195.571 154.599 195.318 153.837 195.318ZM145.894 198.067L153.837 198.068C153.989 198.068 154.137 198.118 154.258 198.211L159.915 202.576C160.065 202.692 160.16 202.863 160.179 203.051L163.473 235.522C163.523 236.008 163.061 236.389 162.592 236.25L150.716 232.714C150.089 232.528 149.422 232.523 148.793 232.702L136.014 236.321C135.555 236.451 135.105 236.086 135.14 235.61L137.447 203.776C137.463 203.562 137.577 203.368 137.757 203.25L145.517 198.18C145.629 198.106 145.76 198.067 145.894 198.067Z" fill="#FFCD4E"/>
<path d="M147.396 229.676C147.27 229.676 147.167 229.573 147.167 229.447V226.999C147.167 226.872 147.064 226.77 146.937 226.77H141.166C141.021 226.77 140.913 226.638 140.94 226.496L141.632 222.992C141.653 222.884 141.747 222.807 141.857 222.807H151.944C151.992 222.807 152.04 222.791 152.079 222.763L153.203 221.944C153.273 221.893 153.309 221.807 153.294 221.722L152.974 219.79C152.966 219.742 152.943 219.698 152.909 219.664L152.086 218.857C152.043 218.815 151.985 218.791 151.925 218.791H143.973C143.912 218.791 143.854 218.767 143.811 218.725L140.944 215.889C140.907 215.853 140.883 215.804 140.877 215.752L140.212 209.82C140.202 209.734 140.242 209.65 140.315 209.603L143.822 207.336C143.859 207.312 143.902 207.299 143.946 207.299H146.906C147.044 207.299 147.151 207.178 147.133 207.041L146.823 204.652C146.805 204.515 146.912 204.393 147.051 204.393H151.843C151.97 204.393 152.073 204.496 152.073 204.622V207.07C152.073 207.197 152.175 207.299 152.302 207.299H156.575C156.724 207.299 156.834 207.441 156.797 207.585L155.894 211.09C155.868 211.191 155.777 211.262 155.672 211.262H146.883C146.823 211.262 146.765 211.286 146.723 211.328L145.915 212.119C145.871 212.162 145.846 212.221 145.846 212.283V213.808C145.846 213.869 145.871 213.928 145.915 213.971L146.723 214.763C146.765 214.805 146.823 214.829 146.883 214.829H154.836C154.896 214.829 154.954 214.852 154.997 214.894L157.863 217.704C157.901 217.741 157.925 217.79 157.93 217.842L158.598 224.026C158.607 224.108 158.57 224.189 158.503 224.237L154.989 226.727C154.951 226.755 154.904 226.77 154.857 226.77H152.35C152.206 226.77 152.098 226.9 152.124 227.042L152.575 229.404C152.602 229.545 152.494 229.676 152.35 229.676H147.396Z" fill="#FFB800"/>
<path fill-rule="evenodd" clip-rule="evenodd" d="M146.02 227.915V229.447C146.02 230.206 146.636 230.821 147.396 230.821H152.35C153.213 230.821 153.864 230.036 153.702 229.189L153.459 227.915H154.857C155.142 227.915 155.421 227.826 155.653 227.661L159.167 225.171C159.573 224.883 159.792 224.398 159.739 223.903L159.071 217.72C159.037 217.404 158.894 217.109 158.667 216.886L155.8 214.077C155.543 213.824 155.197 213.683 154.836 213.683H147.258L146.993 213.423V212.667L147.258 212.408H155.672C156.3 212.408 156.849 211.983 157.005 211.375L157.908 207.871C158.132 207.001 157.474 206.154 156.574 206.154H153.22V204.622C153.22 203.863 152.603 203.248 151.843 203.248H147.051C146.22 203.248 145.578 203.977 145.685 204.799L145.861 206.154H143.946C143.681 206.154 143.421 206.231 143.198 206.375L139.691 208.641C139.253 208.924 139.013 209.43 139.071 209.948L139.737 215.88C139.772 216.192 139.913 216.482 140.137 216.703L143.004 219.539C143.262 219.794 143.61 219.937 143.973 219.937H151.55L151.891 220.272L152.07 221.352L151.645 221.661H141.857C141.199 221.661 140.633 222.126 140.506 222.77L139.815 226.275C139.647 227.124 140.298 227.915 141.166 227.915H146.02ZM147.167 229.447C147.167 229.573 147.27 229.676 147.396 229.676H152.35C152.494 229.676 152.602 229.545 152.575 229.404L152.124 227.042C152.097 226.9 152.206 226.77 152.35 226.77H154.857C154.904 226.77 154.951 226.755 154.989 226.727L158.502 224.237C158.57 224.189 158.607 224.108 158.598 224.026L157.93 217.842C157.925 217.79 157.901 217.741 157.863 217.704L154.997 214.894C154.954 214.852 154.896 214.829 154.836 214.829H146.883C146.823 214.829 146.765 214.805 146.723 214.763L145.915 213.971C145.871 213.928 145.846 213.869 145.846 213.808V212.283C145.846 212.221 145.871 212.162 145.915 212.119L146.723 211.328C146.765 211.286 146.823 211.262 146.883 211.262H155.672C155.777 211.262 155.868 211.191 155.894 211.09L156.797 207.586C156.834 207.441 156.724 207.299 156.574 207.299H152.302C152.175 207.299 152.073 207.197 152.073 207.07V204.622C152.073 204.496 151.97 204.393 151.843 204.393H147.051C146.912 204.393 146.805 204.515 146.823 204.652L147.133 207.041C147.151 207.178 147.044 207.299 146.906 207.299H143.946C143.902 207.299 143.859 207.312 143.821 207.336L140.315 209.603C140.242 209.65 140.202 209.734 140.212 209.82L140.877 215.752C140.883 215.804 140.907 215.853 140.944 215.889L143.811 218.725C143.854 218.767 143.912 218.791 143.973 218.791H151.925C151.985 218.791 152.043 218.815 152.086 218.857L152.909 219.664C152.943 219.698 152.966 219.742 152.974 219.79L153.294 221.722C153.309 221.807 153.273 221.893 153.203 221.944L152.079 222.763C152.04 222.791 151.992 222.807 151.944 222.807H141.857C141.747 222.807 141.653 222.884 141.632 222.992L140.94 226.496C140.912 226.638 141.021 226.77 141.166 226.77H146.937C147.064 226.77 147.167 226.872 147.167 226.999V229.447Z" fill="#B85B06" fill-opacity="0.34"/>
<path d="M148.223 205.058C149.063 204.95 150.341 204.774 151.223 204.616C151.461 204.573 151.437 204.393 151.194 204.393H146.912C146.771 204.393 146.663 204.52 146.686 204.66L147.057 206.885C147.081 207.024 146.973 207.151 146.831 207.151H143.95C143.904 207.151 143.859 207.165 143.82 207.192L141.625 208.698C141.405 208.85 141.579 209.192 141.832 209.103L144.091 208.307C144.103 208.303 144.116 208.299 144.128 208.297L147.833 207.644C147.943 207.625 148.023 207.53 148.023 207.419V205.285C148.023 205.17 148.108 205.072 148.223 205.058Z" fill="#FFDF8B"/>
<path d="M147.043 215.803C146.897 215.599 146.705 215.335 146.513 215.073C146.401 214.921 146.672 214.617 146.834 214.713C146.859 214.728 146.887 214.736 146.916 214.736H154.834C154.895 214.736 154.953 214.76 154.996 214.803L157.19 216.994C157.364 217.167 157.18 217.455 156.95 217.371L155.415 216.814C155.398 216.808 155.38 216.804 155.362 216.802L147.204 215.897C147.139 215.889 147.081 215.855 147.043 215.803Z" fill="#FFDF8B"/>
<path d="M233.61 158.379C231.219 166.25 233.114 173.791 237.844 175.224C242.574 176.656 248.346 171.437 250.738 163.567C253.129 155.696 251.233 148.155 246.504 146.722C241.774 145.29 236.001 150.509 233.61 158.379Z" fill="#BE1144"/>
<path d="M89.6432 241.095C92.0345 248.965 90.1388 256.507 85.4091 257.939C80.6793 259.372 74.9066 254.153 72.5153 246.282C70.124 238.412 72.0197 230.87 76.7494 229.438C81.4791 228.005 87.2519 233.224 89.6432 241.095Z" fill="#BE1144"/>
<path d="M233.61 158.38C231.736 164.548 233.221 170.459 236.928 171.581C240.635 172.704 245.16 168.614 247.034 162.445C248.908 156.277 247.422 150.366 243.715 149.243C240.008 148.121 235.484 152.211 233.61 158.38Z" fill="#6C0524"/>
<path d="M89.6433 241.095C91.5175 247.263 90.0317 253.174 86.3248 254.297C82.6179 255.419 78.0935 251.329 76.2193 245.16C74.3451 238.992 75.8308 233.081 79.5378 231.958C83.2447 230.836 87.7691 234.926 89.6433 241.095Z" fill="#6C0524"/>
<path d="M87.3499 211.043C90.0218 216.204 86.7203 227.515 84.7356 232.526L80.4443 239.084L83.0029 242.884L95.1948 246.069L102.515 245.216L112.358 240.789L122.801 238.573L122.801 234.907L110.352 234.907L109.982 231.008L108.423 227.381L125.953 220.38L124.487 216.209C116.124 219.705 99.6087 221.539 99.6087 221.539C98.5396 214.232 91.4278 209.141 87.3499 211.043Z" fill="#FBC3A4"/>
<path d="M90.9103 221.301C93.0625 217.697 89.3765 212.977 87.313 211.071C89.0023 213.381 88.2876 219.53 87.6706 222.312C87.8538 223.477 90.9103 221.301 90.9103 221.301Z" fill="#FCD6C1"/>
<path d="M79.8154 251.801L85.1851 243.486L80.5278 238.781H75.5416C74.621 244.558 78.0072 249.868 79.8154 251.801Z" fill="#FFA777"/>
<path d="M120.086 64.2871L114.456 71.4723L105.982 68.0605L113.178 73.6818L109.761 82.1427L115.392 74.9575L123.866 78.3694L116.669 72.748L120.086 64.2871Z" fill="white" fill-opacity="0.84"/>
<path opacity="0.2" d="M110.606 70.726C109.229 73.1069 110.046 76.1513 112.431 77.5259C114.816 78.9005 117.865 78.0848 119.242 75.7039C120.618 73.323 119.801 70.2786 117.417 68.904C115.032 67.5294 111.983 68.3452 110.606 70.726Z" fill="white"/>
<path d="M188.898 134.442L183.268 141.627L174.793 138.215L181.99 143.836L178.573 152.297L184.203 145.112L192.677 148.524L185.481 142.903L188.898 134.442Z" fill="white" fill-opacity="0.84"/>
<path opacity="0.2" d="M179.417 140.881C178.041 143.261 178.858 146.306 181.242 147.68C183.627 149.055 186.676 148.239 188.053 145.858C189.43 143.478 188.613 140.433 186.228 139.059C183.843 137.684 180.794 138.5 179.417 140.881Z" fill="white"/>
<g opacity="0.8">
<path d="M215.678 94.357L210.048 101.542L201.573 98.1303L208.77 103.752L205.353 112.213L210.983 105.027L219.457 108.439L212.261 102.818L215.678 94.357Z" fill="white" fill-opacity="0.84"/>
<path opacity="0.2" d="M206.198 100.796C204.821 103.177 205.638 106.221 208.023 107.596C210.407 108.97 213.456 108.155 214.833 105.774C216.21 103.393 215.393 100.348 213.008 98.9738C210.624 97.5992 207.574 98.4149 206.198 100.796Z" fill="white"/>
</g>
<path d="M150.167 205.119L144.536 212.304L136.062 208.892L143.259 214.514L139.841 222.974L145.472 215.789L153.946 219.201L146.749 213.58L150.167 205.119Z" fill="white" fill-opacity="0.84"/>
<path opacity="0.2" d="M140.686 211.558C139.309 213.939 140.126 216.983 142.511 218.358C144.896 219.732 147.945 218.917 149.322 216.536C150.699 214.155 149.882 211.11 147.497 209.736C145.112 208.361 142.063 209.177 140.686 211.558Z" fill="white"/>
<path d="M144.285 22.7892C165.37 16.4764 178.686 10.5285 182.709 8.34358L170.963 -47.4524L156.658 -8.93225L120.444 -38.9979L106.713 5.79611L66.3976 -18.9105L90.9758 33.9597C99.9601 32.8665 123.2 29.1019 144.285 22.7892Z" fill="#FBE315"/>
<path d="M120.459 -38.9867L156.698 -8.91267L144.825 0.264273L120.459 -38.9867Z" fill="#EDFF7B"/>
<path d="M183.199 10.7179C180.912 0.173825 170.993 -47.4151 170.993 -47.4151L166.877 22.6061C179.675 18.2046 183.199 10.7179 183.199 10.7179Z" fill="#EDFF7B"/>
<path d="M145.395 30.6718C166.48 24.359 185.523 14.9599 182.707 8.34137L178.983 -9.35013C178.983 -9.35013 176.996 4.68763 140.138 14.4368C103.28 24.186 101.866 16.9578 101.866 16.9578L72.6537 -13.3848L66.3959 -18.9128L90.9742 33.9576C93.0706 38.6915 124.31 36.9845 145.395 30.6718Z" fill="#FBC815"/>
<path opacity="0.5" d="M183.199 10.718C180.913 0.173898 170.993 -47.415 170.993 -47.415L166.877 22.6061C179.675 18.2047 183.199 10.718 183.199 10.718Z" fill="#EDFF7B"/>
<path d="M106.755 5.75198L66.3941 -18.8914L103.113 18.1844L106.755 5.75198Z" fill="#EDFF7B"/>
<path d="M111.609 222.768C111.357 221.811 111.714 220.397 111.924 219.809V219.519L108.803 220.252C108.73 220.887 108.627 222.406 108.803 223.402C108.979 224.398 109.904 225.966 110.344 226.626L113.059 225.475C112.681 224.971 111.861 223.725 111.609 222.768Z" fill="#EB9E0A"/>
<path d="M113.558 237.44C113.466 236.455 114.05 235.118 114.354 234.573L114.401 234.286L111.202 234.499C111.025 235.113 110.675 236.595 110.685 237.607C110.696 238.619 111.351 240.317 111.677 241.039L114.544 240.347C114.254 239.788 113.65 238.425 113.558 237.44Z" fill="#EB9E0A"/>
<path opacity="0.32" d="M121.555 220.754C122.801 220.529 125.364 220.067 125.646 220.02H125.764L124.704 216.817L120.437 218.756L121.555 220.754Z" fill="white"/>
<path opacity="0.32" d="M119.518 237.722C120.489 237.876 122.486 238.193 122.705 238.23L122.792 238.26L122.837 235.641L119.211 235.971L119.518 237.722Z" fill="white"/>
<path d="M112.819 220.405L109.891 224.142L105.483 222.368L109.226 225.291L107.449 229.692L110.377 225.955L114.785 227.729L111.042 224.806L112.819 220.405Z" fill="white" fill-opacity="0.84"/>
<path opacity="0.2" d="M107.888 223.754C107.172 224.992 107.597 226.576 108.838 227.291C110.078 228.005 111.664 227.581 112.38 226.343C113.096 225.105 112.671 223.521 111.431 222.806C110.19 222.091 108.604 222.516 107.888 223.754Z" fill="white"/>
<path d="M117.915 184.149L114.986 187.886L110.579 186.111L114.322 189.035L112.544 193.436L115.473 189.699L119.88 191.473L116.137 188.549L117.915 184.149Z" fill="white" fill-opacity="0.84"/>
<path opacity="0.2" d="M112.984 187.498C112.268 188.736 112.693 190.319 113.933 191.034C115.173 191.749 116.759 191.325 117.475 190.087C118.191 188.848 117.766 187.265 116.526 186.55C115.286 185.835 113.7 186.259 112.984 187.498Z" fill="white"/>
<path opacity="0.1" d="M55.3924 226.956C61.4986 231.707 65.6916 222.597 75.0908 210.556C84.49 198.516 95.5361 188.104 89.43 183.353C83.3238 178.602 70.7542 184.511 61.355 196.551C51.9558 208.592 49.2863 222.204 55.3924 226.956Z" fill="white"/>
<path opacity="0.1" d="M225.591 187.985C221.962 190.808 219.47 185.394 213.884 178.238C208.298 171.082 201.733 164.895 205.362 162.071C208.991 159.247 216.461 162.759 222.047 169.915C227.633 177.071 229.22 185.161 225.591 187.985Z" fill="white"/>
<path d="M246.29 130.038C248.962 135.2 245.66 146.511 243.675 151.521L239.384 158.08L233.269 160.253C232.122 164.742 233.269 167.012 233.269 167.012L241.943 161.879L252.901 164.742C253.721 164.956 254.561 165.091 255.407 165.143L261.811 165.537C264.106 165.678 266.398 165.212 268.455 164.187L277.616 159.623C280.285 158.294 285.579 153.532 286.824 150.825L287.744 147.732L283.663 144.556L286.824 138.455L285.583 136.735L283.426 135.204C275.063 138.7 258.548 140.534 258.548 140.534C257.479 133.227 250.368 128.137 246.29 130.038Z" fill="#FBC3A4"/>
<path d="M254.979 169.903L265.19 138.975L267.599 125.115L278.269 128.78L265.19 172.767L258.28 175.717L254.979 169.903Z" fill="#E9B80C"/>
<path d="M262.296 169.875L271.015 138.489L267.599 125.115L278.269 128.78L265.19 172.767L258.28 175.717L262.296 169.875Z" fill="#C69B02"/>
<path d="M285.038 36.3403L266.682 127.177L281.367 129.582L312 47.3368L301.33 26.9474L285.038 36.3403Z" fill="#EEEEEE"/>
<path d="M285.038 36.3403L266.682 127.177L272.966 128.409L278.129 111.112L301.33 26.9474L285.038 36.3403Z" fill="#D5D5D5"/>
<path opacity="0.4" d="M285.038 36.3403L282.488 49.6004L297.977 38.2601L306.926 60.3678L309.909 53.7241L312 47.3368L301.33 26.9474L285.038 36.3403Z" fill="white"/>
<path d="M312.144 12.5877L301.626 24.692L287.066 17.9547L299.187 28.4545L292.437 42.9931L302.955 30.8887L317.515 37.626L305.394 27.1262L312.144 12.5877Z" fill="white" fill-opacity="0.84"/>
<path opacity="0.2" d="M294.939 23.0411C292.311 27.0953 293.473 32.5083 297.533 35.1313C301.593 37.7543 307.014 36.594 309.642 32.5397C312.27 28.4854 311.109 23.0724 307.049 20.4495C302.988 17.8265 297.567 18.9868 294.939 23.0411Z" fill="white"/>
<path d="M265.623 139.52L273.998 140.78L278.702 133.564L303.369 136.542L305.46 130.384L283.062 125.775L273.654 126.805L267.229 122.796L247.178 118.585L246.348 122.796L265.623 130.384V139.52Z" fill="#E9B80C"/>
<path d="M298.551 130.901L305.702 124.629L308.647 133.827L301.916 141.353L298.551 130.901Z" fill="#FFD742"/>
<path d="M244.857 118.759L252.008 112.487L254.953 121.685L248.222 129.211L244.857 118.759Z" fill="#FFD742"/>
<path d="M258.395 167.499L262.621 163.804L264.361 169.222L260.384 173.656L258.395 167.499Z" fill="#FFD742"/>
<path d="M270.327 126.261L274.553 122.567L276.293 127.985L272.316 132.418L270.327 126.261Z" fill="#FFD742"/>
<path d="M283.406 135.397C283.039 135.122 275.605 137.802 271.933 139.177L268.95 141.697V146.164L283.406 145.591L286.733 138.489C285.777 137.573 283.773 135.671 283.406 135.397Z" fill="#FED0B6"/>
<path d="M283.865 144.331C283.486 144.057 272.377 149.73 268.588 151.102L265.508 153.618V158.077H281.112L288.562 149.6C291.659 146.951 284.244 144.606 283.865 144.331Z" fill="#FED0B6"/>
</g>
<defs>
<filter id="filter0_d_1530_42044" x="1.90735e-06" y="-90" width="348.515" height="496.844" filterUnits="userSpaceOnUse" color-interpolation-filters="sRGB">
<feFlood flood-opacity="0" result="BackgroundImageFix"/>
<feColorMatrix in="SourceAlpha" type="matrix" values="0 0 0 0 0 0 0 0 0 0 0 0 0 0 0 0 0 0 127 0" result="hardAlpha"/>
<feOffset dy="4"/>
<feGaussianBlur stdDeviation="15.5"/>
<feComposite in2="hardAlpha" operator="out"/>
<feColorMatrix type="matrix" values="0 0 0 0 0 0 0 0 0 0 0 0 0 0 0 0 0 0 0.17 0"/>
<feBlend mode="normal" in2="BackgroundImageFix" result="effect1_dropShadow_1530_42044"/>
<feBlend mode="normal" in="SourceGraphic" in2="effect1_dropShadow_1530_42044" result="shape"/>
</filter>
<linearGradient id="paint0_linear_1530_42044" x1="150.962" y1="285.616" x2="150.962" y2="199.096" gradientUnits="userSpaceOnUse">
<stop stop-color="#F50D44"/>
<stop offset="0.99" stop-color="#FB4F54"/>
</linearGradient>
<linearGradient id="paint1_linear_1530_42044" x1="146.179" y1="210.775" x2="146.179" y2="199.098" gradientUnits="userSpaceOnUse">
<stop offset="0.01" stop-color="#C16688"/>
<stop offset="1" stop-color="#7E70F1"/>
</linearGradient>
<linearGradient id="paint2_linear_1530_42044" x1="5694.16" y1="12078.3" x2="5694.16" y2="8365.92" gradientUnits="userSpaceOnUse">
<stop offset="0.01" stop-color="#B45C7D"/>
<stop offset="1" stop-color="#8A7EEA"/>
</linearGradient>
<linearGradient id="paint3_linear_1530_42044" x1="92.9802" y1="288.4" x2="92.9802" y2="163.009" gradientUnits="userSpaceOnUse">
<stop stop-color="#F50D44"/>
<stop offset="0.99" stop-color="#FB4F54"/>
</linearGradient>
<linearGradient id="paint4_linear_1530_42044" x1="193.806" y1="290.961" x2="193.806" y2="157.803" gradientUnits="userSpaceOnUse">
<stop stop-color="#F50D44"/>
<stop offset="0.99" stop-color="#FB4F54"/>
</linearGradient>
<linearGradient id="paint5_linear_1530_42044" x1="119.225" y1="183.095" x2="122.781" y2="184.626" gradientUnits="userSpaceOnUse">
<stop stop-color="#FFD770"/>
<stop offset="1" stop-color="#FDBC12"/>
</linearGradient>
<linearGradient id="paint6_linear_1530_42044" x1="120.355" y1="178.434" x2="123.951" y2="176.999" gradientUnits="userSpaceOnUse">
<stop stop-color="#FFD770"/>
<stop offset="1" stop-color="#FDBC12"/>
</linearGradient>
<linearGradient id="paint7_linear_1530_42044" x1="107.862" y1="183.406" x2="111.458" y2="181.97" gradientUnits="userSpaceOnUse">
<stop stop-color="#FFD770"/>
<stop offset="1" stop-color="#FDBC12"/>
</linearGradient>
<linearGradient id="paint8_linear_1530_42044" x1="115.537" y1="184.562" x2="114.011" y2="188.116" gradientUnits="userSpaceOnUse">
<stop stop-color="#FFD770"/>
<stop offset="1" stop-color="#FDBC12"/>
</linearGradient>
<linearGradient id="paint9_linear_1530_42044" x1="108.972" y1="175.179" x2="112.54" y2="176.682" gradientUnits="userSpaceOnUse">
<stop stop-color="#FFD770"/>
<stop offset="1" stop-color="#FDBC12"/>
</linearGradient>
<linearGradient id="paint10_linear_1530_42044" x1="134.918" y1="201.053" x2="138.736" y2="200.407" gradientUnits="userSpaceOnUse">
<stop stop-color="#FFD770"/>
<stop offset="1" stop-color="#FDBC12"/>
</linearGradient>
<linearGradient id="paint11_linear_1530_42044" x1="133.335" y1="196.525" x2="135.575" y2="193.371" gradientUnits="userSpaceOnUse">
<stop stop-color="#FFD770"/>
<stop offset="1" stop-color="#FDBC12"/>
</linearGradient>
<linearGradient id="paint12_linear_1530_42044" x1="132.617" y1="204.283" x2="133.26" y2="208.096" gradientUnits="userSpaceOnUse">
<stop stop-color="#FFD770"/>
<stop offset="1" stop-color="#FDBC12"/>
</linearGradient>
<linearGradient id="paint13_linear_1530_42044" x1="126.044" y1="194.077" x2="129.874" y2="194.651" gradientUnits="userSpaceOnUse">
<stop stop-color="#FFD770"/>
<stop offset="1" stop-color="#FDBC12"/>
</linearGradient>
<linearGradient id="paint14_linear_1530_42044" x1="125.949" y1="189.283" x2="129.059" y2="186.979" gradientUnits="userSpaceOnUse">
<stop stop-color="#FFD770"/>
<stop offset="1" stop-color="#FDBC12"/>
</linearGradient>
<linearGradient id="paint15_linear_1530_42044" x1="115.136" y1="197.266" x2="118.246" y2="194.962" gradientUnits="userSpaceOnUse">
<stop stop-color="#FFD770"/>
<stop offset="1" stop-color="#FDBC12"/>
</linearGradient>
<linearGradient id="paint16_linear_1530_42044" x1="122.852" y1="196.433" x2="122.281" y2="200.258" gradientUnits="userSpaceOnUse">
<stop stop-color="#FFD770"/>
<stop offset="1" stop-color="#FDBC12"/>
</linearGradient>
<linearGradient id="paint17_linear_1530_42044" x1="172.025" y1="181.156" x2="168.647" y2="183.046" gradientUnits="userSpaceOnUse">
<stop stop-color="#FFD770"/>
<stop offset="1" stop-color="#FDBC12"/>
</linearGradient>
<linearGradient id="paint18_linear_1530_42044" x1="157.777" y1="201.054" x2="153.959" y2="200.408" gradientUnits="userSpaceOnUse">
<stop stop-color="#FFD770"/>
<stop offset="1" stop-color="#FDBC12"/>
</linearGradient>
<linearGradient id="paint19_linear_1530_42044" x1="159.36" y1="196.526" x2="157.12" y2="193.372" gradientUnits="userSpaceOnUse">
<stop stop-color="#FFD770"/>
<stop offset="1" stop-color="#FDBC12"/>
</linearGradient>
<linearGradient id="paint20_linear_1530_42044" x1="160.077" y1="204.284" x2="159.435" y2="208.097" gradientUnits="userSpaceOnUse">
<stop stop-color="#FFD770"/>
<stop offset="1" stop-color="#FDBC12"/>
</linearGradient>
<linearGradient id="paint21_linear_1530_42044" x1="166.501" y1="196.126" x2="163.177" y2="198.11" gradientUnits="userSpaceOnUse">
<stop stop-color="#FFD770"/>
<stop offset="1" stop-color="#FDBC12"/>
</linearGradient>
<linearGradient id="paint22_linear_1530_42044" x1="164.77" y1="191.654" x2="161.016" y2="190.702" gradientUnits="userSpaceOnUse">
<stop stop-color="#FFD770"/>
<stop offset="1" stop-color="#FDBC12"/>
</linearGradient>
<linearGradient id="paint23_linear_1530_42044" x1="160.049" y1="196.037" x2="157.81" y2="192.882" gradientUnits="userSpaceOnUse">
<stop stop-color="#FFD770"/>
<stop offset="1" stop-color="#FDBC12"/>
</linearGradient>
<linearGradient id="paint24_linear_1530_42044" x1="177.807" y1="194.95" x2="174.053" y2="193.998" gradientUnits="userSpaceOnUse">
<stop stop-color="#FFD770"/>
<stop offset="1" stop-color="#FDBC12"/>
</linearGradient>
<linearGradient id="paint25_linear_1530_42044" x1="170.35" y1="197.099" x2="172.328" y2="200.424" gradientUnits="userSpaceOnUse">
<stop stop-color="#FFD770"/>
<stop offset="1" stop-color="#FDBC12"/>
</linearGradient>
<linearGradient id="paint26_linear_1530_42044" x1="148.913" y1="22.7145" x2="148.913" y2="182.877" gradientUnits="userSpaceOnUse">
<stop stop-color="#FFBC98"/>
<stop offset="1" stop-color="#FAC4A6"/>
</linearGradient>
<linearGradient id="paint27_linear_1530_42044" x1="141.172" y1="150.852" x2="141.172" y2="-11.0551" gradientUnits="userSpaceOnUse">
<stop offset="0.01" stop-color="#3D2B2B"/>
<stop offset="0.99" stop-color="#392419"/>
</linearGradient>
<linearGradient id="paint28_linear_1530_42044" x1="6850.83" y1="3429.55" x2="6850.83" y2="2184.63" gradientUnits="userSpaceOnUse">
<stop offset="0.01" stop-color="#3B2720"/>
<stop offset="0.99" stop-color="#4A3020"/>
</linearGradient>
<linearGradient id="paint29_linear_1530_42044" x1="5576.89" y1="2752.67" x2="5576.89" y2="1749.31" gradientUnits="userSpaceOnUse">
<stop offset="0.01" stop-color="#3B2720"/>
<stop offset="0.99" stop-color="#4A3020"/>
</linearGradient>
<linearGradient id="paint30_linear_1530_42044" x1="5701.89" y1="2205.25" x2="5701.89" y2="1879.43" gradientUnits="userSpaceOnUse">
<stop offset="0.01" stop-color="#3B2821"/>
<stop offset="0.99" stop-color="#6C5045"/>
</linearGradient>
<linearGradient id="paint31_linear_1530_42044" x1="142.51" y1="67.7135" x2="142.51" y2="-1.75302" gradientUnits="userSpaceOnUse">
<stop offset="0.01" stop-color="#3D2B2B"/>
<stop offset="0.99" stop-color="#392419"/>
</linearGradient>
<linearGradient id="paint32_linear_1530_42044" x1="142.066" y1="-8.18979" x2="190.608" y2="63.2485" gradientUnits="userSpaceOnUse">
<stop stop-color="#4B3021"/>
<stop offset="1" stop-color="#241610"/>
</linearGradient>
<linearGradient id="paint33_linear_1530_42044" x1="162.615" y1="96.5082" x2="162.615" y2="118.533" gradientUnits="userSpaceOnUse">
<stop stop-color="#F5B694"/>
<stop offset="1" stop-color="#FF7762"/>
</linearGradient>
<linearGradient id="paint34_linear_1530_42044" x1="127.479" y1="72.7557" x2="127.479" y2="108.7" gradientUnits="userSpaceOnUse">
<stop stop-color="#FFF601"/>
<stop offset="1" stop-color="#F5C001"/>
</linearGradient>
<linearGradient id="paint35_linear_1530_42044" x1="192.788" y1="72.3535" x2="192.788" y2="108.298" gradientUnits="userSpaceOnUse">
<stop stop-color="#FFF601"/>
<stop offset="1" stop-color="#F5C001"/>
</linearGradient>
<linearGradient id="paint36_linear_1530_42044" x1="97.3508" y1="47.4029" x2="80.34" y2="69.5836" gradientUnits="userSpaceOnUse">
<stop stop-color="#6D5145"/>
<stop offset="1" stop-color="#6D5145" stop-opacity="0"/>
</linearGradient>
<linearGradient id="paint37_linear_1530_42044" x1="94.8349" y1="61.7156" x2="77.8242" y2="83.8963" gradientUnits="userSpaceOnUse">
<stop stop-color="#6D5145"/>
<stop offset="1" stop-color="#6D5145" stop-opacity="0"/>
</linearGradient>
</defs>
</svg>
