<svg width="22" height="22" viewBox="0 0 22 22" fill="none" xmlns="http://www.w3.org/2000/svg">
<path d="M11.0002 10.0834C12.2157 10.0834 13.3815 10.5663 14.2411 11.4258C15.1006 12.2853 15.5835 13.4511 15.5835 14.6667V20.1667H6.41683V14.6667C6.41683 13.4511 6.89971 12.2853 7.75926 11.4258C8.6188 10.5663 9.78459 10.0834 11.0002 10.0834ZM4.8475 12.8389C4.70162 13.3309 4.61544 13.8387 4.59083 14.3514L4.5835 14.6667V20.1667H1.8335V16.0417C1.83332 15.2511 2.12502 14.4884 2.65266 13.8996C3.1803 13.3109 3.90672 12.9378 4.69258 12.8517L4.84841 12.8389H4.8475ZM17.1528 12.8389C17.9686 12.8886 18.7346 13.2477 19.2947 13.8428C19.8548 14.438 20.1667 15.2244 20.1668 16.0417V20.1667H17.4168V14.6667C17.4168 14.0315 17.3252 13.4182 17.1528 12.8389ZM5.04183 7.33337C5.64962 7.33337 6.23251 7.57482 6.66228 8.00459C7.09205 8.43436 7.3335 9.01725 7.3335 9.62504C7.3335 10.2328 7.09205 10.8157 6.66228 11.2455C6.23251 11.6753 5.64962 11.9167 5.04183 11.9167C4.43404 11.9167 3.85115 11.6753 3.42138 11.2455C2.99161 10.8157 2.75016 10.2328 2.75016 9.62504C2.75016 9.01725 2.99161 8.43436 3.42138 8.00459C3.85115 7.57482 4.43404 7.33337 5.04183 7.33337V7.33337ZM16.9585 7.33337C17.5663 7.33337 18.1492 7.57482 18.5789 8.00459C19.0087 8.43436 19.2502 9.01725 19.2502 9.62504C19.2502 10.2328 19.0087 10.8157 18.5789 11.2455C18.1492 11.6753 17.5663 11.9167 16.9585 11.9167C16.3507 11.9167 15.7678 11.6753 15.338 11.2455C14.9083 10.8157 14.6668 10.2328 14.6668 9.62504C14.6668 9.01725 14.9083 8.43436 15.338 8.00459C15.7678 7.57482 16.3507 7.33337 16.9585 7.33337V7.33337ZM11.0002 1.83337C11.9726 1.83337 12.9053 2.21968 13.5929 2.90732C14.2805 3.59495 14.6668 4.52758 14.6668 5.50004C14.6668 6.4725 14.2805 7.40513 13.5929 8.09277C12.9053 8.7804 11.9726 9.16671 11.0002 9.16671C10.0277 9.16671 9.09507 8.7804 8.40744 8.09277C7.7198 7.40513 7.3335 6.4725 7.3335 5.50004C7.3335 4.52758 7.7198 3.59495 8.40744 2.90732C9.09507 2.21968 10.0277 1.83337 11.0002 1.83337V1.83337Z" fill="white"/>
</svg>
