<svg width="13" height="16" viewBox="0 0 13 16" fill="none" xmlns="http://www.w3.org/2000/svg">
<path d="M0.848443 2.82128C1.31161 2.82047 1.76474 2.78125 2.2279 2.78043C2.69107 2.77961 3.1442 2.74039 3.60737 2.73957C3.73551 2.74633 3.76485 2.69738 3.77412 2.5716C3.76104 1.87647 3.75799 1.21975 3.7449 0.524619C3.75417 0.398846 3.78351 0.349889 3.91165 0.35665C4.33545 0.366383 4.70984 0.348257 5.1236 0.319582C5.25175 0.326343 5.26178 0.364751 5.24247 0.452116C5.24552 1.10884 5.25861 1.80397 5.26166 2.46069C5.27169 2.4991 5.28172 2.53751 5.26242 2.62488C5.59744 2.6173 5.97183 2.59917 6.30686 2.5916C6.34623 2.58105 6.36553 2.49368 6.39487 2.44473C6.38255 1.91377 6.38026 1.42123 6.40731 0.879732L6.40502 0.38719C6.38496 0.310374 6.41429 0.261417 6.50307 0.278727C6.92686 0.28846 7.34062 0.259785 7.80379 0.258969C7.84316 0.24842 7.85319 0.286828 7.89256 0.276279C7.90488 0.807229 7.90717 1.29977 7.90946 1.79231C7.92025 1.9949 7.93105 2.19749 7.90247 2.41063C7.8932 2.5364 7.9426 2.56426 8.07075 2.57102L9.52044 2.79902C9.97433 2.92398 10.4089 3.1363 10.7848 3.44654C11.2897 3.92772 11.4896 4.53169 11.4926 5.18842C11.4849 5.64255 11.4277 6.06883 11.193 6.46048C11.017 6.75423 10.7422 6.99225 10.4573 7.19187C10.418 7.20242 10.3886 7.25137 10.3099 7.27247C10.4975 7.3455 10.675 7.38012 10.8626 7.45314C11.4253 7.67223 11.8506 8.01032 12.1486 8.50584C12.3377 8.90723 12.4187 9.37867 12.411 9.83281C12.3939 10.4127 12.3175 10.9264 12.0735 11.4438C11.7709 12.0591 11.2899 12.4757 10.6801 12.7213C9.88342 13.058 9.07597 13.1922 8.25847 13.2879C8.13033 13.2812 8.06162 13.3407 8.05235 13.4665C8.0554 14.1232 8.06849 14.8183 8.07154 15.475C8.0723 15.6392 8.08233 15.6776 7.86542 15.6536C7.49102 15.6717 7.06723 15.662 6.69284 15.6801C6.56469 15.6733 6.55466 15.6349 6.57396 15.5475C6.56088 14.8524 6.5478 14.1573 6.58412 13.49C6.56405 13.4132 6.59339 13.3642 6.50462 13.3469C6.16959 13.3545 5.83457 13.3621 5.46018 13.3802C5.47174 13.747 5.44392 14.1243 5.45548 14.4911C5.46704 14.8578 5.43923 15.2352 5.45079 15.6019C5.43148 15.6893 5.44151 15.7277 5.31337 15.7209C4.88958 15.7112 4.47581 15.7399 4.06205 15.7686C3.93391 15.7618 3.92388 15.7234 3.94318 15.636C3.9301 14.9409 3.91702 14.2458 3.95334 13.5785C3.9433 13.5401 3.97264 13.4911 3.95257 13.4143C2.98687 13.4265 2.02117 13.4387 1.0161 13.4614C1.05471 13.2867 1.06398 13.1609 1.10259 12.9862C1.16977 12.5983 1.23695 12.2104 1.2748 11.8715C1.28407 11.7457 1.32344 11.7352 1.44155 11.7035C1.7372 11.7065 2.07222 11.6989 2.35784 11.6635C2.69287 11.6559 2.88895 11.439 2.85809 11.1596C2.85821 9.06366 2.85834 6.96771 2.80906 4.84391C2.80753 4.51555 2.52039 4.22262 2.13596 4.20234C1.75153 4.18206 1.37714 4.20018 1.04212 4.20776C0.96338 4.22886 0.913977 4.201 0.933281 4.11363C0.941026 3.6595 0.93874 3.16696 0.946486 2.71282C0.819106 2.87024 0.819106 2.87024 0.848443 2.82128ZM5.33445 11.77C5.37382 11.7595 5.42322 11.7874 5.42322 11.7874C6.09326 11.7722 6.81271 11.7849 7.49203 11.644C7.9745 11.5558 8.40757 11.4398 8.8005 11.1701C9.48832 10.7392 9.55246 9.69462 8.95886 9.19613C8.68175 8.94161 8.31663 8.83397 7.95151 8.72632C7.14252 8.53212 6.27563 8.60002 5.4481 8.65737C5.31996 8.65061 5.32999 8.68902 5.32072 8.81479C5.34231 9.21997 5.3145 9.59729 5.33609 10.0025C5.31908 10.5824 5.34143 11.1517 5.33445 11.77ZM7.61813 6.96631C7.69687 6.94522 7.88369 6.85406 8.03113 6.77346C8.73902 6.41939 8.91199 5.46893 8.34773 4.92148C8.06059 4.62856 7.64606 4.49305 7.25161 4.43436C6.64023 4.3516 6.05896 4.38406 5.42828 4.38867C5.30014 4.38191 5.2708 4.43086 5.26153 4.55664C5.27538 5.41595 5.27919 6.23685 5.25366 7.10672C5.23436 7.19408 5.28376 7.22194 5.37254 7.23925C5.54005 7.23546 5.66819 7.24222 5.8357 7.23843C6.44631 7.15701 6.98822 7.1351 7.61813 6.96631Z" fill="white"/>
</svg>
