<svg width="24" height="24" viewBox="0 0 24 24" fill="none" xmlns="http://www.w3.org/2000/svg">
<path d="M10.2455 2.40009C8.88536 2.39998 7.54886 2.75552 6.36859 3.43144C5.18832 4.10736 4.2053 5.08015 3.51709 6.2533C2.82887 7.42644 2.45938 8.75915 2.44528 10.1192C2.43117 11.4792 2.77294 12.8193 3.43668 14.0065L2.48148 16.5049C2.40207 16.7126 2.38193 16.9382 2.4233 17.1567C2.46466 17.3752 2.56592 17.5778 2.71575 17.7421C2.86559 17.9064 3.05813 18.0258 3.27188 18.087C3.48562 18.1483 3.71218 18.1489 3.92628 18.0889L6.91068 17.2525C7.96782 17.752 9.12372 18.0074 10.2929 17.9999C11.4621 17.9924 12.6146 17.7222 13.6653 17.2092C14.7159 16.6962 15.6378 15.9535 16.3627 15.0362C17.0876 14.1188 17.597 13.0502 17.8533 11.9095C18.1095 10.7687 18.106 9.58488 17.843 8.44564C17.58 7.3064 17.0643 6.24085 16.3339 5.32781C15.6036 4.41478 14.6773 3.67761 13.6237 3.17084C12.57 2.66406 11.4159 2.40065 10.2467 2.40009H10.2455ZM7.88868 18.8881C8.62019 19.7399 9.52736 20.4233 10.5479 20.8915C11.5685 21.3596 12.6783 21.6013 13.8011 21.6001C14.9927 21.6001 16.1243 21.3325 17.1371 20.8525L20.1203 21.6889C20.3344 21.7489 20.5609 21.7483 20.7747 21.687C20.9884 21.6258 21.181 21.5064 21.3308 21.3421C21.4806 21.1778 21.5819 20.9752 21.6233 20.7567C21.6646 20.5382 21.6445 20.3126 21.5651 20.1049L20.6111 17.6065C21.2399 16.4797 21.5999 15.1801 21.5999 13.8001C21.5999 11.4721 20.5799 9.38169 18.9611 7.95249C19.1384 8.64364 19.2331 9.35341 19.2431 10.0669C19.9727 11.1289 20.3999 12.4153 20.3999 13.8001C20.3999 15.0601 20.0471 16.2373 19.4339 17.2393L19.2803 17.4913L20.4443 20.5333L17.0123 19.5733L16.8023 19.6789C15.9023 20.1397 14.8823 20.4001 13.7999 20.4001C12.439 20.4022 11.111 19.9816 9.99948 19.1965C9.28573 19.1778 8.57675 19.0743 7.88748 18.8881H7.88868Z" fill="white"/>
</svg>
