<svg width="24" height="24" viewBox="0 0 24 24" fill="none" xmlns="http://www.w3.org/2000/svg">
<path fill-rule="evenodd" clip-rule="evenodd" d="M5.25 0.375C5.0429 0.375023 4.87502 0.542903 4.875 0.75L5.625 6.75C5.62502 6.9571 5.7929 7.12498 6 7.125H7.125V8.25H6C5.60232 8.25 5.22065 8.40825 4.93945 8.68945C4.65825 8.97066 4.5 9.35232 4.5 9.75V10.5C4.5 10.8977 4.65825 11.2793 4.93945 11.5605C5.22065 11.8418 5.60232 12 6 12H7.48828C7.36652 16.8431 4.94968 18.8557 3.29736 19.6926C2.6568 20.0077 2.25 20.6612 2.25 21.375V22.125C2.25 22.5227 2.40825 22.9044 2.68945 23.1856C2.97065 23.4668 3.35232 23.625 3.75 23.625H11.2639C11.0236 23.3097 10.875 22.9222 10.875 22.5V22.125C10.875 21.6328 11.021 21.1565 11.332 20.7861C11.6132 20.4514 11.9378 20.2786 12.1567 20.157C12.6171 19.9012 12.9169 19.7777 13.3499 19.2004C13.6037 18.862 13.7146 18.4198 13.7827 17.9041C12.984 17.6895 12.375 16.9864 12.375 16.125V15.75C12.375 15.0563 12.779 14.468 13.3469 14.1438C13.2094 13.7651 13.125 13.3618 13.125 12.9375C13.125 11.0592 14.6011 9.51092 16.4495 9.38672C16.3839 9.12567 16.254 8.88291 16.0605 8.68945C15.7793 8.40825 15.3977 8.25 15 8.25H13.875V7.125H15C15.2071 7.12498 15.375 6.9571 15.375 6.75L16.125 0.75C16.125 0.542903 15.9571 0.375023 15.75 0.375H13.5C13.2929 0.375023 13.125 0.542903 13.125 0.75V2.25H12V0.75C12 0.542903 11.8321 0.375023 11.625 0.375H9.375C9.1679 0.375023 9.00002 0.542903 9 0.75V2.25H7.875V0.75C7.87498 0.542903 7.7071 0.375023 7.5 0.375H5.25ZM16.6875 10.125C15.1342 10.125 13.875 11.3842 13.875 12.9375C13.875 13.5712 14.0861 14.1547 14.4397 14.625H14.25C13.6287 14.625 13.125 15.1287 13.125 15.75V16.125C13.125 16.7463 13.6287 17.25 14.25 17.25H14.6104C14.5768 18.1961 14.4458 18.9888 13.9497 19.6502C13.4322 20.3402 12.955 20.5713 12.5208 20.8125C12.3036 20.9331 12.0854 21.0555 11.9063 21.2688C11.7271 21.4821 11.625 21.7813 11.625 22.125V22.5C11.625 23.1213 12.1287 23.625 12.75 23.625H20.625C21.2463 23.625 21.75 23.1213 21.75 22.5V22.125C21.75 21.7813 21.6479 21.4821 21.4688 21.2688C21.2896 21.0555 21.0714 20.9331 20.8542 20.8125C20.42 20.5713 19.9428 20.3402 19.4253 19.6502C18.9292 18.9888 18.7982 18.1961 18.7647 17.25H19.125C19.7463 17.25 20.25 16.7463 20.25 16.125V15.75C20.25 15.1287 19.7463 14.625 19.125 14.625H18.9353C19.2889 14.1547 19.5 13.5712 19.5 12.9375C19.5 11.3842 18.2408 10.125 16.6875 10.125Z" fill="white"/>
</svg>
