<svg width="24" height="24" viewBox="0 0 24 24" fill="none" xmlns="http://www.w3.org/2000/svg">
<path d="M17.8333 1H17H7H6.16667H2V1.83333C2 5.9125 4.32167 9.76917 6.16667 10.7533V11C6.16667 13.9333 8.34417 16.3608 11.1667 16.7667V19.3333H7.83333V21H16.1667V19.3333H12.8333V16.7667C15.6558 16.3608 17.8333 13.9333 17.8333 11V10.7533C19.6783 9.76917 22 5.91167 22 1.83333V1H17.8333ZM3.70167 2.66667H6.16667V8.63C5.2175 7.56583 3.92833 5.39083 3.70167 2.66667ZM16.1667 11C16.1667 13.2975 14.2975 15.1667 12 15.1667C9.7025 15.1667 7.83333 13.2975 7.83333 11V2.66667H16.1667V11ZM17.8333 8.63V2.66667H20.2983C20.0717 5.39083 18.7825 7.56583 17.8333 8.63Z" fill="url(#paint0_linear_936_40226)"/>
<path d="M10.1125 10.4607L12 9.09072L13.8875 10.4607L13.1666 8.24155L15.0541 6.87072H12.7208L12 4.65155L11.2791 6.87072H8.9458L10.8333 8.24155L10.1125 10.4607Z" fill="white"/>
<defs>
<linearGradient id="paint0_linear_936_40226" x1="-3" y1="5.25926" x2="21.7543" y2="14.4275" gradientUnits="userSpaceOnUse">
<stop stop-color="#FBC55C"/>
<stop offset="1" stop-color="#FF9518"/>
</linearGradient>
</defs>
</svg>
