<svg width="17" height="18" viewBox="0 0 17 18" fill="none" xmlns="http://www.w3.org/2000/svg">
<path d="M2.65625 14.3125C2.65625 14.8761 2.88013 15.4166 3.27865 15.8151C3.67716 16.2136 4.21766 16.4375 4.78125 16.4375H7.83594C7.87116 16.4375 7.90494 16.4235 7.92985 16.3986C7.95476 16.3737 7.96875 16.3399 7.96875 16.3047V10.1953C7.96875 10.1601 7.95476 10.1263 7.92985 10.1014C7.90494 10.0765 7.87116 10.0625 7.83594 10.0625H2.92188C2.85143 10.0625 2.78386 10.0905 2.73405 10.1403C2.68424 10.1901 2.65625 10.2577 2.65625 10.3281V14.3125Z" fill="white"/>
<path d="M7.96875 8.86716V5.28122H9.03125V8.86716C9.03125 8.90238 9.04524 8.93616 9.07015 8.96107C9.09506 8.98598 9.12884 8.99997 9.16406 8.99997H13.8125C13.9935 8.99996 14.1731 8.96908 14.3438 8.90866C14.6542 8.79843 14.923 8.59487 15.1132 8.32589C15.3034 8.05691 15.4058 7.73567 15.4062 7.40622V6.87497C15.4062 6.45228 15.2383 6.0469 14.9395 5.74802C14.6406 5.44913 14.2352 5.28122 13.8125 5.28122H12.4664C12.4549 5.28104 12.4436 5.27783 12.4336 5.27193C12.4237 5.26603 12.4154 5.25763 12.4097 5.24756C12.404 5.2375 12.4011 5.22612 12.4011 5.21455C12.4011 5.20298 12.4042 5.19163 12.41 5.18161C12.7174 4.66261 12.8172 4.04658 12.6895 3.45705C12.5618 2.86752 12.2159 2.34807 11.7212 2.00286C11.2266 1.65766 10.6197 1.51221 10.0223 1.59569C9.42486 1.67917 8.88109 1.9854 8.5 2.45298C8.11891 1.9854 7.57514 1.67917 6.97774 1.59569C6.38033 1.51221 5.77345 1.65766 5.27878 2.00286C4.78412 2.34807 4.43823 2.86752 4.31049 3.45705C4.18275 4.04658 4.28259 4.66261 4.59 5.18161C4.59579 5.19163 4.59885 5.20298 4.5989 5.21455C4.59895 5.22612 4.59597 5.2375 4.59027 5.24756C4.58457 5.25763 4.57633 5.26603 4.56639 5.27193C4.55644 5.27783 4.54512 5.28104 4.53355 5.28122H3.1875C2.76481 5.28122 2.35943 5.44913 2.06055 5.74802C1.76166 6.0469 1.59375 6.45228 1.59375 6.87497V7.40622C1.59422 7.73567 1.69658 8.05691 1.8868 8.32589C2.07702 8.59487 2.34579 8.79843 2.65625 8.90866C2.82685 8.96908 3.00651 8.99996 3.1875 8.99997H7.83594C7.87116 8.99997 7.90494 8.98598 7.92985 8.96107C7.95476 8.93616 7.96875 8.90238 7.96875 8.86716ZM9.03125 3.9531C9.03125 3.69042 9.10914 3.43364 9.25508 3.21523C9.40102 2.99682 9.60844 2.82659 9.85112 2.72607C10.0938 2.62555 10.3608 2.59924 10.6185 2.65049C10.8761 2.70174 11.1128 2.82823 11.2985 3.01397C11.4842 3.19971 11.6107 3.43636 11.662 3.69399C11.7132 3.95162 11.6869 4.21866 11.5864 4.46135C11.4859 4.70403 11.3157 4.91145 11.0972 5.05739C10.8788 5.20333 10.6221 5.28122 10.3594 5.28122H9.03125V3.9531ZM6.54566 2.62829C6.72762 2.61525 6.9103 2.63983 7.08234 2.7005C7.25437 2.76117 7.41207 2.85663 7.54558 2.98092C7.6791 3.10522 7.78558 3.25569 7.85839 3.42295C7.93119 3.59021 7.96876 3.77068 7.96875 3.9531V5.28122H6.64062C6.2972 5.28034 5.96747 5.14646 5.72063 4.90769C5.4738 4.66892 5.32905 4.34382 5.31676 4.00062C5.30447 3.65741 5.42561 3.32279 5.65474 3.06698C5.88387 2.81117 6.20318 2.65406 6.54566 2.62862V2.62829Z" fill="white"/>
<path d="M9.16406 16.4375H12.2188C12.7823 16.4375 13.3228 16.2136 13.7214 15.8151C14.1199 15.4166 14.3438 14.8761 14.3438 14.3125V10.3281C14.3438 10.2577 14.3158 10.1901 14.266 10.1403C14.2161 10.0905 14.1486 10.0625 14.0781 10.0625H9.16406C9.12884 10.0625 9.09506 10.0765 9.07015 10.1014C9.04524 10.1263 9.03125 10.1601 9.03125 10.1953V16.3047C9.03125 16.3399 9.04524 16.3737 9.07015 16.3986C9.09506 16.4235 9.12884 16.4375 9.16406 16.4375Z" fill="white"/>
</svg>
