<svg width="24" height="24" viewBox="0 0 24 24" fill="none" xmlns="http://www.w3.org/2000/svg">
<path d="M21.9998 8.65002C21.9111 7.38551 21.3454 6.2019 20.4172 5.33864C19.4889 4.47538 18.2674 3.99691 16.9998 4.00002H6.99983C5.71759 3.99828 4.48369 4.48923 3.55314 5.37139C2.62259 6.25356 2.06651 7.45951 1.99983 8.74002C1.9942 8.82659 1.9942 8.91344 1.99983 9.00002V16.5C1.99718 16.9604 2.0859 17.4167 2.26085 17.8425C2.4358 18.2684 2.69351 18.6553 3.01905 18.9808C3.34458 19.3063 3.73147 19.564 4.15731 19.739C4.58315 19.914 5.03947 20.0027 5.49983 20C6.92983 20 7.81983 18.94 8.68983 17.91C9.00983 17.54 9.33983 17.15 9.68983 16.81C10.1542 16.4699 10.6758 16.2159 11.2298 16.06C11.7414 16 12.2583 16 12.7698 16.06C13.3239 16.2159 13.8455 16.4699 14.3098 16.81C14.6598 17.15 14.9898 17.54 15.3098 17.91C16.1798 18.91 17.0698 20 18.4998 20C18.9602 20.0027 19.4165 19.914 19.8424 19.739C20.2682 19.564 20.6551 19.3063 20.9806 18.9808C21.3062 18.6553 21.5639 18.2684 21.7388 17.8425C21.9138 17.4167 22.0025 16.9604 21.9998 16.5V9.00002C22.0052 8.91343 22.0052 8.8266 21.9998 8.74002V8.65002ZM19.9998 16.5C19.9998 16.8978 19.8418 17.2794 19.5605 17.5607C19.2792 17.842 18.8977 18 18.4998 18C17.9998 18 17.4998 17.36 16.8398 16.62C16.4998 16.23 16.1198 15.77 15.6898 15.36C14.9658 14.7767 14.1279 14.3509 13.2298 14.11C12.4164 13.9633 11.5833 13.9633 10.7698 14.11C9.87178 14.3509 9.0339 14.7767 8.30983 15.36C7.87983 15.77 7.49983 16.23 7.15983 16.62C6.53983 17.36 5.99983 18 5.49983 18C5.10201 18 4.72048 17.842 4.43917 17.5607C4.15787 17.2794 3.99983 16.8978 3.99983 16.5V9.00002C4.00472 8.95014 4.00472 8.8999 3.99983 8.85002C4.03835 8.08065 4.37135 7.35558 4.92983 6.82501C5.48832 6.29445 6.2295 5.99905 6.99983 6.00002H16.9998C17.7493 5.99674 18.4728 6.2741 19.028 6.77749C19.5832 7.28088 19.9299 7.97385 19.9998 8.72002V8.84002C19.9949 8.89323 19.9949 8.9468 19.9998 9.00002V16.5Z" fill="url(#paint0_linear_936_40185)"/>
<path d="M16 13C16.5523 13 17 12.5523 17 12C17 11.4477 16.5523 11 16 11C15.4477 11 15 11.4477 15 12C15 12.5523 15.4477 13 16 13Z" fill="white"/>
<path d="M18 11C18.5523 11 19 10.5523 19 10C19 9.44772 18.5523 9 18 9C17.4477 9 17 9.44772 17 10C17 10.5523 17.4477 11 18 11Z" fill="white"/>
<path d="M16 9C16.5523 9 17 8.55228 17 8C17 7.44772 16.5523 7 16 7C15.4477 7 15 7.44772 15 8C15 8.55228 15.4477 9 16 9Z" fill="white"/>
<path d="M14 11C14.5523 11 15 10.5523 15 10C15 9.44772 14.5523 9 14 9C13.4477 9 13 9.44772 13 10C13 10.5523 13.4477 11 14 11Z" fill="white"/>
<path d="M8 12C9.10457 12 10 11.1046 10 10C10 8.89543 9.10457 8 8 8C6.89543 8 6 8.89543 6 10C6 11.1046 6.89543 12 8 12Z" fill="white"/>
<defs>
<linearGradient id="paint0_linear_936_40185" x1="-3.00646" y1="7.40742" x2="20.1812" y2="18.1468" gradientUnits="userSpaceOnUse">
<stop stop-color="#FBC55C"/>
<stop offset="1" stop-color="#FF9518"/>
</linearGradient>
</defs>
</svg>
