<svg width="24" height="24" viewBox="0 0 24 24" fill="none" xmlns="http://www.w3.org/2000/svg">
<path d="M20 8.00006H14.388L15.511 4.63306C15.713 4.02506 15.611 3.35106 15.236 2.83106C14.861 2.31106 14.253 2.00006 13.612 2.00006H12C11.703 2.00006 11.422 2.13206 11.231 2.36006L6.531 8.00006H4C2.897 8.00006 2 8.89706 2 10.0001V19.0001C2 20.1031 2.897 21.0001 4 21.0001H17.307C17.7139 20.9987 18.1108 20.8739 18.4452 20.6421C18.7797 20.4104 19.0359 20.0826 19.18 19.7021L21.937 12.3511C21.9789 12.2388 22.0002 12.1199 22 12.0001V10.0001C22 8.89706 21.103 8.00006 20 8.00006ZM4 10.0001H6V19.0001H4V10.0001ZM20 11.8191L17.307 19.0001H8V9.36206L12.468 4.00006H13.614L12.052 8.68306C12.0013 8.83338 11.9871 8.99361 12.0107 9.15049C12.0343 9.30736 12.095 9.45635 12.1877 9.5851C12.2803 9.71385 12.4024 9.81866 12.5436 9.89082C12.6849 9.96299 12.8414 10.0004 13 10.0001H20V11.8191Z" fill="#FFBB55"/>
</svg>
