<svg width="24" height="24" viewBox="0 0 24 24" fill="none" xmlns="http://www.w3.org/2000/svg">
<path d="M18.0921 1.03033H8.20409C7.35036 1.03033 6.62009 1.55148 6.31494 2.29548H15.7949C17.3001 2.29548 18.5241 3.51948 18.5241 5.02463V20.9743C19.4464 20.7755 20.1355 19.956 20.1355 18.9755V3.07034C20.1355 1.94234 19.2201 1.03033 18.0921 1.03033Z" fill="#587DFF"/>
<path d="M15.1225 21.0187L15.4729 20.0641H14.7725L15.1225 21.0187Z" fill="white"/>
<path d="M15.7963 2.98044H5.90686C4.77876 2.98044 3.86426 3.89494 3.86426 5.02304V20.9271C3.86426 22.0552 4.77876 22.9697 5.90686 22.9697H15.7963C16.9244 22.9697 17.8389 22.0552 17.8389 20.9271V5.02304C17.8389 3.89494 16.9244 2.98044 15.7963 2.98044ZM7.59241 6.66088C7.57904 6.67323 7.56391 6.6794 7.54752 6.6794H7.27159C7.22821 6.6794 7.1982 6.65973 7.18182 6.62051L7.03931 6.24547H6.12175L5.97924 6.62051C5.96261 6.65973 5.93285 6.6794 5.88947 6.6794H5.61353C5.59487 6.6794 5.57949 6.67323 5.56714 6.66088C5.55477 6.64839 5.54847 6.63288 5.54847 6.61434L5.55477 6.58647L6.29856 4.58741C6.31923 4.53583 6.35632 4.50999 6.41003 4.50999H6.75103C6.80474 4.50999 6.84183 4.53583 6.8625 4.58741L7.60628 6.58647L7.61258 6.61434C7.61259 6.63288 7.60578 6.64839 7.59241 6.66088ZM13.8342 13.1681L11.1855 17.7348C11.0373 17.9904 10.6682 17.9905 10.5198 17.7349L7.86906 13.1683C7.79971 13.0488 7.79971 12.9013 7.86906 12.7819L10.5198 8.21525C10.6682 7.95966 11.0373 7.95972 11.1855 8.21536L13.8342 12.782C13.9035 12.9014 13.9035 13.0487 13.8342 13.1681ZM16.1484 19.3637L15.4046 21.3627C15.3839 21.4143 15.3468 21.4402 15.2931 21.4402H14.9521C14.8984 21.4402 14.8613 21.4143 14.8406 21.3627L14.0969 19.3637L14.0905 19.3358C14.0905 19.3173 14.0974 19.3018 14.1107 19.2893C14.1241 19.2769 14.1392 19.2707 14.1556 19.2707H14.4315C14.4749 19.2707 14.5049 19.2904 14.5213 19.3296L14.6638 19.7047H15.5814L15.7239 19.3296C15.7405 19.2904 15.7703 19.2707 15.8137 19.2707H16.0896C16.1083 19.2707 16.1237 19.2769 16.136 19.2893C16.1484 19.3018 16.1547 19.3173 16.1547 19.3358L16.1484 19.3637Z" fill="white"/>
<path d="M6.22998 5.88607H6.93036L6.58031 4.93146L6.22998 5.88607Z" fill="white"/>
</svg>
