<svg width="24" height="30" viewBox="0 0 24 30" fill="none" xmlns="http://www.w3.org/2000/svg">
<g clip-path="url(#clip0_936_40248)">
<path d="M22 19.0001C22.0025 19.5522 21.8526 20.0943 21.5667 20.5667C21.2809 21.0391 20.8702 21.4235 20.3799 21.6774C19.8897 21.9314 19.3388 22.0451 18.7881 22.0061C18.2373 21.9671 17.708 21.7769 17.2584 21.4563C16.8088 21.1358 16.4565 20.6974 16.2401 20.1894C16.0237 19.6814 15.9516 19.1236 16.0319 18.5773C16.1122 18.0311 16.3417 17.5175 16.6951 17.0933C17.0486 16.6691 17.5122 16.3507 18.035 16.1731C18.0178 16.1167 18.0061 16.0587 18 16.0001V14.5001C18 14.3675 17.9473 14.2403 17.8536 14.1465C17.7598 14.0527 17.6326 14.0001 17.5 14.0001H6.50001C6.3674 14.0001 6.24022 14.0527 6.14645 14.1465C6.05269 14.2403 6.00001 14.3675 6.00001 14.5001V16.0001C5.99394 16.0587 5.98222 16.1167 5.96501 16.1731C6.6381 16.4017 7.20812 16.862 7.57347 17.4718C7.93882 18.0816 8.07576 18.8013 7.95988 19.5027C7.844 20.204 7.48282 20.8415 6.94074 21.3013C6.39865 21.7612 5.71088 22.0136 5.00001 22.0136C4.28914 22.0136 3.60136 21.7612 3.05928 21.3013C2.51719 20.8415 2.15602 20.204 2.04014 19.5027C1.92425 18.8013 2.06119 18.0816 2.42654 17.4718C2.79189 16.862 3.36192 16.4017 4.03501 16.1731C4.01779 16.1167 4.00607 16.0587 4.00001 16.0001V13.0001C4.00001 12.7349 4.10536 12.4805 4.2929 12.293C4.48044 12.1054 4.73479 12.0001 5.00001 12.0001H11V9.85907C10.0573 9.61567 9.23582 9.03684 8.6894 8.23106C8.14299 7.42528 7.90921 6.44788 8.03189 5.48207C8.15456 4.51625 8.62527 3.62833 9.35577 2.98475C10.0863 2.34116 11.0264 1.98608 12 1.98608C12.9736 1.98608 13.9137 2.34116 14.6442 2.98475C15.3747 3.62833 15.8455 4.51625 15.9681 5.48207C16.0908 6.44788 15.857 7.42528 15.3106 8.23106C14.7642 9.03684 13.9427 9.61567 13 9.85907V12.0001H19C19.2652 12.0001 19.5196 12.1054 19.7071 12.293C19.8946 12.4805 20 12.7349 20 13.0001V16.0001C19.9939 16.0587 19.9822 16.1167 19.965 16.1731C20.5571 16.3725 21.0719 16.7524 21.4369 17.2595C21.8019 17.7666 21.9988 18.3753 22 19.0001Z" fill="#4378FF"/>
</g>
<defs>
<clipPath id="clip0_936_40248">
<rect width="24" height="30" fill="white"/>
</clipPath>
</defs>
</svg>
