<svg width="24" height="24" viewBox="0 0 24 24" fill="none" xmlns="http://www.w3.org/2000/svg">
<g clip-path="url(#clip0_936_40206)">
<path d="M23.0416 3.81612e-05H21.0866C18.7719 -0.00223077 16.4871 0.500661 14.4062 1.47043C12.3253 2.4402 10.5032 3.85129 9.07846 5.59629C8.95034 5.53516 8.80952 5.50227 8.66637 5.50004H7.80385C6.20589 5.5051 4.6586 6.03686 3.42268 7.00572C2.18676 7.97458 1.33776 9.3213 1.01872 10.819C0.968803 11.057 1.01964 11.3043 1.16008 11.5065C1.30102 11.7083 1.51986 11.8484 1.76863 11.8961L6.27049 12.76L10.6597 16.9584L11.5606 21.2713C11.6057 21.4775 11.7238 21.6625 11.8948 21.7952C12.0659 21.928 12.2795 22.0003 12.4998 22C12.5633 21.9995 12.6267 21.9934 12.689 21.9817C14.2548 21.6765 15.6628 20.8645 16.6757 19.6823C17.6886 18.5001 18.2446 17.0201 18.2499 15.4917V14.6667C18.2475 14.5298 18.2132 14.3951 18.1493 14.2725C20.2188 12.7181 21.8366 10.6815 22.8476 8.35774C23.6101 6.59104 24.0017 4.69805 24 2.7867V0.916704C24 0.673589 23.899 0.440432 23.7193 0.268524C23.5396 0.0966152 23.2958 3.81612e-05 23.0416 3.81612e-05ZM7.80385 7.33337H7.85177C7.50829 7.88809 7.2049 8.46464 6.94373 9.05899L6.16267 10.8694L3.17741 10.2988C3.55607 9.42265 4.19757 8.67343 5.02095 8.14567C5.84433 7.61791 6.8127 7.33525 7.80385 7.33337ZM16.3332 15.4917C16.3312 16.4397 16.0357 17.366 15.4839 18.1536C14.9322 18.9411 14.1489 19.5547 13.2329 19.9169L12.6363 17.0615L14.5291 16.3144C15.1505 16.0646 15.7532 15.7744 16.3332 15.4459V15.4917ZM22.0833 2.7867C22.0848 4.45832 21.742 6.11385 21.0746 7.65879C19.7093 10.8094 17.0922 13.3126 13.7983 14.6186L11.7666 15.4207L7.87812 11.7013L8.71668 9.75795C10.082 6.60737 12.6991 4.10409 15.993 2.79816C17.6082 2.1598 19.339 1.83197 21.0866 1.83337H22.0833V2.7867Z" fill="url(#paint0_linear_936_40206)"/>
<path d="M14.88 6.00601C14.3104 6.00601 13.7536 6.16859 13.28 6.47318C12.8063 6.77777 12.4372 7.2107 12.2192 7.71721C12.0012 8.22373 11.9442 8.78109 12.0553 9.3188C12.1665 9.85652 12.4408 10.3504 12.8435 10.7381C13.2463 11.1258 13.7595 11.3898 14.3181 11.4968C14.8768 11.6037 15.4559 11.5488 15.9821 11.339C16.5084 11.1292 16.9582 10.7739 17.2746 10.3181C17.5911 9.8622 17.76 9.32626 17.76 8.77801C17.76 8.04283 17.4566 7.33776 16.9165 6.81791C16.3764 6.29806 15.6438 6.00601 14.88 6.00601ZM14.88 9.70201C14.6901 9.70201 14.5045 9.64782 14.3467 9.54629C14.1888 9.44476 14.0657 9.30045 13.9931 9.13161C13.9204 8.96277 13.9014 8.77699 13.9384 8.59775C13.9755 8.41851 14.0669 8.25387 14.2012 8.12465C14.3354 7.99542 14.5065 7.90742 14.6927 7.87177C14.8789 7.83611 15.072 7.85441 15.2474 7.92435C15.4228 7.99428 15.5727 8.11271 15.6782 8.26467C15.7837 8.41662 15.84 8.59526 15.84 8.77801C15.84 9.02307 15.7389 9.2581 15.5588 9.43138C15.3788 9.60466 15.1346 9.70201 14.88 9.70201Z" fill="white"/>
<path d="M11.0401 13.398C11.5703 13.398 12.0001 12.9843 12.0001 12.474C12.0001 11.9637 11.5703 11.55 11.0401 11.55C10.5099 11.55 10.0801 11.9637 10.0801 12.474C10.0801 12.9843 10.5099 13.398 11.0401 13.398Z" fill="white"/>
<path d="M1.43998 22.6379H4.16398C5.24952 22.6392 6.30785 22.3111 7.18854 21.7002C8.06922 21.0894 8.72742 20.2268 9.06958 19.2353C9.13949 19.0059 9.11437 18.7595 8.99948 18.5476C8.88459 18.3357 8.68888 18.1749 8.45344 18.099C8.218 18.0231 7.96115 18.0379 7.73682 18.1403C7.5125 18.2428 7.33815 18.425 7.25038 18.6485C7.035 19.2724 6.62087 19.815 6.06682 20.1994C5.51277 20.5838 4.84697 20.7904 4.16398 20.7899H2.39998V19.092C2.39943 18.4347 2.61409 17.7938 3.01347 17.2606C3.41285 16.7273 3.97665 16.3287 4.62478 16.1214C4.74869 16.0864 4.86399 16.0277 4.96379 15.9488C5.06358 15.8699 5.14581 15.7725 5.20556 15.6623C5.2653 15.5521 5.30134 15.4314 5.31151 15.3075C5.32169 15.1836 5.30578 15.059 5.26475 14.9412C5.22372 14.8233 5.15841 14.7147 5.07273 14.6217C4.98705 14.5287 4.88275 14.4533 4.76609 14.4C4.64943 14.3467 4.5228 14.3166 4.39377 14.3115C4.26475 14.3064 4.13598 14.3265 4.01518 14.3704C2.98498 14.6997 2.08886 15.3333 1.4542 16.1809C0.81954 17.0286 0.478648 18.0472 0.479984 19.092V21.7139C0.479984 21.959 0.581127 22.194 0.761162 22.3673C0.941197 22.5405 1.18538 22.6379 1.43998 22.6379Z" fill="url(#paint1_linear_936_40206)"/>
</g>
<defs>
<linearGradient id="paint0_linear_936_40206" x1="25.3829" y1="11" x2="-2.42089" y2="11" gradientUnits="userSpaceOnUse">
<stop stop-color="#6ABD37"/>
<stop offset="1" stop-color="#8EDC5D"/>
</linearGradient>
<linearGradient id="paint1_linear_936_40206" x1="9.62722" y1="18.4743" x2="-0.803364" y2="18.4743" gradientUnits="userSpaceOnUse">
<stop stop-color="#6ABD37"/>
<stop offset="1" stop-color="#8EDC5D"/>
</linearGradient>
<clipPath id="clip0_936_40206">
<rect width="24" height="24" fill="white"/>
</clipPath>
</defs>
</svg>
