<svg width="24" height="14" viewBox="0 0 24 14" fill="none" xmlns="http://www.w3.org/2000/svg">
<path fill-rule="evenodd" clip-rule="evenodd" d="M0 0H24V2.04C21.2 4.488 21.2 8.976 24 11.424V13.6H0V11.424C2.8 8.976 2.8 4.488 0 2.04V0ZM10.6667 1.904C13.3333 1.904 15.4667 4.08 15.4667 6.8C15.4667 9.384 13.3333 11.56 10.6667 11.56C8 11.56 5.86667 9.384 5.86667 6.8C5.86667 4.08 8 1.904 10.6667 1.904ZM19.6 13.328H19.2V12.92H19.6V13.328ZM19.6 12.512H19.2V12.104H19.6V12.512ZM19.6 11.696H19.2V11.288H19.6V11.696ZM19.6 10.88H19.2V10.472H19.6V10.88ZM19.6 10.064H19.2V9.792H19.6V10.064ZM19.6 9.384H19.2V8.976H19.6V9.384ZM19.6 8.568H19.2V8.16H19.6V8.568ZM19.6 7.752H19.2V7.344H19.6V7.752ZM19.6 6.936H19.2V6.528H19.6V6.936ZM19.6 6.12H19.2V5.848H19.6V6.12ZM19.6 5.44H19.2V5.032H19.6V5.44ZM19.6 4.624H19.2V4.216H19.6V4.624ZM19.6 3.808H19.2V3.4H19.6V3.808ZM19.6 2.992H19.2V2.584H19.6V2.992ZM19.6 2.312H19.2V1.904H19.6V2.312ZM19.6 1.496H19.2V1.088H19.6V1.496ZM19.6 0.68H19.2V0.272H19.6V0.68Z" fill="#446DFF"/>
<path fill-rule="evenodd" clip-rule="evenodd" d="M10.6668 3.39996L11.4668 5.98396L14.0002 6.79996L11.4668 7.61596L10.6668 10.064L9.86683 7.61596L7.3335 6.79996L9.86683 5.98396L10.6668 3.39996Z" fill="white"/>
</svg>
