<svg width="24" height="24" viewBox="0 0 24 24" fill="none" xmlns="http://www.w3.org/2000/svg">
<g clip-path="url(#clip0_936_41944)">
<path d="M11.9999 22.0541C17.5526 22.0541 22.0539 17.5527 22.0539 12C22.0539 6.44731 17.5526 1.94595 11.9999 1.94595C6.44715 1.94595 1.9458 6.44731 1.9458 12C1.9458 17.5527 6.44715 22.0541 11.9999 22.0541Z" fill="#4CAE1E"/>
<path d="M11.9998 21.3606C17.1696 21.3606 21.3605 17.1697 21.3605 12C21.3605 6.8302 17.1696 2.63928 11.9998 2.63928C6.83008 2.63928 2.63916 6.8302 2.63916 12C2.63916 17.1697 6.83008 21.3606 11.9998 21.3606Z" fill="#258E23"/>
<path d="M11.9999 12L4.49463 7.66634C5.2554 6.35017 6.35007 5.25553 7.66621 4.49477L11.9999 12Z" fill="#F43535"/>
<path d="M12.0002 3.33266V12L7.6665 4.49472C8.9409 3.7532 10.4208 3.33266 12.0002 3.33266Z" fill="#AAFF55"/>
<path d="M16.3337 4.49472L12 12V3.33266C13.5794 3.33266 15.0593 3.7532 16.3337 4.49472Z" fill="#F43535"/>
<path d="M19.5052 7.66634L12 12L16.3337 4.49477C17.6498 5.25553 18.7445 6.35017 19.5052 7.66634Z" fill="#AAFF55"/>
<path d="M20.6673 12H12L19.5052 7.66632C20.2468 8.94071 20.6673 10.4206 20.6673 12Z" fill="#F43535"/>
<path d="M20.6673 12C20.6673 13.5794 20.2468 15.0592 19.5052 16.3337L12 12H20.6673Z" fill="#AAFF55"/>
<path d="M19.5052 16.3337C18.7445 17.6498 17.6498 18.7445 16.3337 19.5052L12 12L19.5052 16.3337Z" fill="#F43535"/>
<path d="M16.3337 19.5052C15.0593 20.2468 13.5794 20.6673 12 20.6673V12L16.3337 19.5052Z" fill="#AAFF55"/>
<path d="M12.0002 12V20.6673C10.4208 20.6673 8.9409 20.2468 7.6665 19.5052L12.0002 12Z" fill="#F43535"/>
<path d="M11.9999 12L7.66621 19.5052C6.35007 18.7445 5.2554 17.6498 4.49463 16.3337L11.9999 12Z" fill="#AAFF55"/>
<path d="M11.9998 12L4.49459 16.3337C3.75306 15.0592 3.33252 13.5794 3.33252 12H11.9998Z" fill="#F43535"/>
<path d="M11.9998 12H3.33252C3.33252 10.4206 3.75306 8.94071 4.49459 7.66632L11.9998 12Z" fill="#AAFF55"/>
<path d="M12 13.5601C12.8617 13.5601 13.5602 12.8616 13.5602 12C13.5602 11.1383 12.8617 10.4399 12 10.4399C11.1384 10.4399 10.4399 11.1383 10.4399 12C10.4399 12.8616 11.1384 13.5601 12 13.5601Z" fill="#EFF2FA"/>
<path d="M12 12.6934C12.383 12.6934 12.6934 12.383 12.6934 12C12.6934 11.6171 12.383 11.3066 12 11.3066C11.6171 11.3066 11.3066 11.6171 11.3066 12C11.3066 12.383 11.6171 12.6934 12 12.6934Z" fill="white"/>
<path d="M10.8521 0.454471C10.2429 1.06373 10.2429 2.05153 10.8521 2.66079C11.4614 3.27005 12.4492 3.27005 13.0585 2.66079C13.6677 2.05153 13.6677 1.06373 13.0585 0.454471C12.4492 -0.154788 11.4614 -0.154788 10.8521 0.454471Z" fill="#EFF2FA"/>
<path d="M10.9154 2.32619L11.9555 5.09971L12.9955 2.32619L12.3021 2.59032L12.1078 0.712324C12.1078 0.866145 12.214 0.617098 12.1078 0.712324C12.395 0.712351 12.1078 0.425119 12.1078 0.712324C12.1078 0.425091 11.8206 0.712296 12.1078 0.712324C12.0016 0.617126 12.1078 0.866173 12.1078 0.712324L11.6088 2.59032L10.9154 2.32619Z" fill="white"/>
<path d="M11.4652 1.06734C11.1944 1.33812 11.1944 1.77714 11.4652 2.04792C11.7359 2.3187 12.175 2.3187 12.4457 2.04792C12.7165 1.77714 12.7165 1.33812 12.4457 1.06734C12.175 0.79656 11.7359 0.79656 11.4652 1.06734Z" fill="#D7DEED"/>
</g>
<defs>
<clipPath id="clip0_936_41944">
<rect width="24" height="24" fill="white"/>
</clipPath>
</defs>
</svg>
