<svg width="24" height="24" viewBox="0 0 24 24" fill="none" xmlns="http://www.w3.org/2000/svg">
<path d="M18.16 4.50998C14.0681 3.83001 9.89194 3.83001 5.8 4.50998C3.46 4.99998 2 6.50998 2 8.47998V15.48C2 17.48 3.46 18.97 5.84 19.48C7.87551 19.8227 9.93585 19.9966 12 20C14.0705 19.9995 16.1374 19.8289 18.18 19.49C20.5 19.05 22 17.49 22 15.49V8.48998C22 6.49998 20.5 4.93998 18.16 4.50998ZM15.26 12.45L10.26 15.45C10.1818 15.4976 10.0916 15.5219 10 15.52C9.91319 15.5193 9.82768 15.4988 9.75 15.46C9.67137 15.4123 9.6068 15.3445 9.56289 15.2637C9.51897 15.1829 9.49727 15.0919 9.5 15V8.99998C9.50075 8.91142 9.52411 8.82452 9.56786 8.74752C9.61162 8.67051 9.67431 8.60596 9.75 8.55998C9.82843 8.51796 9.91603 8.49598 10.005 8.49598C10.094 8.49598 10.1816 8.51796 10.26 8.55998L15.26 11.56C15.3323 11.6061 15.3918 11.6696 15.433 11.7448C15.4742 11.8199 15.4958 11.9043 15.4958 11.99C15.4958 12.0757 15.4742 12.16 15.433 12.2352C15.3918 12.3103 15.3323 12.3739 15.26 12.42V12.45Z" fill="#FF4B4B"/>
</svg>
