<svg width="49" height="49" viewBox="0 0 49 49" fill="none" xmlns="http://www.w3.org/2000/svg">
<path d="M37.75 9.04171H39.9583V11.25C39.9583 11.8357 40.191 12.3974 40.6051 12.8116C41.0193 13.2257 41.581 13.4584 42.1667 13.4584C42.7524 13.4584 43.3141 13.2257 43.7282 12.8116C44.1423 12.3974 44.375 11.8357 44.375 11.25V9.04171H46.5833C47.169 9.04171 47.7307 8.80904 48.1449 8.3949C48.559 7.98076 48.7917 7.41906 48.7917 6.83337C48.7917 6.24769 48.559 5.68599 48.1449 5.27184C47.7307 4.8577 47.169 4.62504 46.5833 4.62504H44.375V2.41671C44.375 1.83102 44.1423 1.26932 43.7282 0.855179C43.3141 0.441036 42.7524 0.208373 42.1667 0.208373C41.581 0.208373 41.0193 0.441036 40.6051 0.855179C40.191 1.26932 39.9583 1.83102 39.9583 2.41671V4.62504H37.75C37.1643 4.62504 36.6026 4.8577 36.1885 5.27184C35.7743 5.68599 35.5417 6.24769 35.5417 6.83337C35.5417 7.41906 35.7743 7.98076 36.1885 8.3949C36.6026 8.80904 37.1643 9.04171 37.75 9.04171ZM13.4583 13.4584V35.5417C13.4583 36.1274 13.691 36.6891 14.1051 37.1032C14.5193 37.5174 15.081 37.75 15.6667 37.75C16.2524 37.75 16.8141 37.5174 17.2282 37.1032C17.6423 36.6891 17.875 36.1274 17.875 35.5417V13.4584C17.875 12.8727 17.6423 12.311 17.2282 11.8968C16.8141 11.4827 16.2524 11.25 15.6667 11.25C15.081 11.25 14.5193 11.4827 14.1051 11.8968C13.691 12.311 13.4583 12.8727 13.4583 13.4584ZM45.7 17.875C45.4158 17.933 45.1457 18.0464 44.9053 18.2087C44.6649 18.371 44.4589 18.5791 44.2989 18.8211C44.139 19.0631 44.0282 19.3342 43.9731 19.619C43.9179 19.9038 43.9194 20.1967 43.9775 20.4809C44.8397 24.6683 44.3287 29.0222 42.5203 32.8962C40.7118 36.7702 37.7024 39.9578 33.9387 41.9858C30.175 44.0138 25.8577 44.7741 21.6276 44.1539C17.3976 43.5337 13.4802 41.566 10.4571 38.5429C7.43404 35.5198 5.46635 31.6025 4.84613 27.3724C4.22592 23.1423 4.98625 18.825 7.01427 15.0613C9.04229 11.2976 12.2299 8.28821 16.1039 6.47978C19.9778 4.67135 24.3317 4.16032 28.5192 5.02254C29.1049 5.13968 29.7131 5.01935 30.2101 4.68804C30.707 4.35672 31.052 3.84156 31.1692 3.25587C31.2863 2.67019 31.166 2.06196 30.8347 1.56498C30.5034 1.06801 29.9882 0.72301 29.4025 0.605873C27.7864 0.304769 26.1435 0.171561 24.5 0.208373C19.6956 0.208373 14.999 1.63305 11.0043 4.30226C7.00953 6.97146 3.89601 10.7653 2.05743 15.204C0.218854 19.6427 -0.262203 24.527 0.675097 29.2391C1.6124 33.9512 3.92595 38.2796 7.3232 41.6768C10.7205 45.0741 15.0488 47.3876 19.7609 48.3249C24.4731 49.2622 29.3573 48.7812 33.796 46.9426C38.2347 45.104 42.0286 41.9905 44.6978 37.9958C47.367 34.001 48.7917 29.3045 48.7917 24.5C48.7964 22.8682 48.6336 21.2403 48.3058 19.6417C48.2529 19.3535 48.1432 19.0787 47.9831 18.8333C47.8229 18.588 47.6155 18.3769 47.373 18.2125C47.1305 18.0481 46.8577 17.9335 46.5704 17.8756C46.2832 17.8177 45.9873 17.8175 45.7 17.875ZM22.2917 17.875V20.0834C22.3014 21.7177 22.9149 23.2907 24.0142 24.5C22.9149 25.7094 22.3014 27.2824 22.2917 28.9167V31.125C22.2917 32.8821 22.9897 34.5672 24.2321 35.8096C25.4745 37.052 27.1596 37.75 28.9167 37.75H31.125C32.8821 37.75 34.5672 37.052 35.8096 35.8096C37.052 34.5672 37.75 32.8821 37.75 31.125V28.9167C37.7403 27.2824 37.1268 25.7094 36.0275 24.5C37.1268 23.2907 37.7403 21.7177 37.75 20.0834V17.875C37.75 16.118 37.052 14.4329 35.8096 13.1905C34.5672 11.948 32.8821 11.25 31.125 11.25H28.9167C27.1596 11.25 25.4745 11.948 24.2321 13.1905C22.9897 14.4329 22.2917 16.118 22.2917 17.875ZM33.3333 31.125C33.3333 31.7107 33.1007 32.2724 32.6865 32.6866C32.2724 33.1007 31.7107 33.3334 31.125 33.3334H28.9167C28.331 33.3334 27.7693 33.1007 27.3551 32.6866C26.941 32.2724 26.7083 31.7107 26.7083 31.125V28.9167C26.7083 28.331 26.941 27.7693 27.3551 27.3552C27.7693 26.941 28.331 26.7084 28.9167 26.7084H31.125C31.7107 26.7084 32.2724 26.941 32.6865 27.3552C33.1007 27.7693 33.3333 28.331 33.3333 28.9167V31.125ZM33.3333 17.875V20.0834C33.3333 20.6691 33.1007 21.2308 32.6865 21.6449C32.2724 22.059 31.7107 22.2917 31.125 22.2917H28.9167C28.331 22.2917 27.7693 22.059 27.3551 21.6449C26.941 21.2308 26.7083 20.6691 26.7083 20.0834V17.875C26.7083 17.2894 26.941 16.7277 27.3551 16.3135C27.7693 15.8994 28.331 15.6667 28.9167 15.6667H31.125C31.7107 15.6667 32.2724 15.8994 32.6865 16.3135C33.1007 16.7277 33.3333 17.2894 33.3333 17.875Z" fill="#6B6C77"/>
</svg>
