<svg width="19" height="19" viewBox="0 0 19 19" fill="none" xmlns="http://www.w3.org/2000/svg">
<path d="M9.5 0.75C4.67525 0.75 0.75 4.67525 0.75 9.5V13.1251C0.75 14.0211 1.53487 14.75 2.5 14.75H3.375C3.60706 14.75 3.82962 14.6578 3.99372 14.4937C4.15781 14.3296 4.25 14.1071 4.25 13.875V9.37488C4.25 9.14281 4.15781 8.92025 3.99372 8.75616C3.82962 8.59206 3.60706 8.49988 3.375 8.49988H2.5805C3.067 5.11363 5.98075 2.5 9.5 2.5C13.0192 2.5 15.933 5.11363 16.4195 8.49988H15.625C15.3929 8.49988 15.1704 8.59206 15.0063 8.75616C14.8422 8.92025 14.75 9.14281 14.75 9.37488V14.75C14.75 15.7151 13.9651 16.5 13 16.5H11.25V15.625H7.75V18.25H13C14.9303 18.25 16.5 16.6803 16.5 14.75C17.4651 14.75 18.25 14.0211 18.25 13.1251V9.5C18.25 4.67525 14.3247 0.75 9.5 0.75Z" fill="white"/>
</svg>
