<svg width="13" height="8" viewBox="0 0 13 8" fill="none" xmlns="http://www.w3.org/2000/svg">
<path d="M12.9168 6.33343C12.9172 6.54761 12.8426 6.75518 12.7059 6.9201C12.629 7.01292 12.5345 7.08964 12.4278 7.14588C12.3212 7.20212 12.2045 7.23677 12.0844 7.24784C11.9644 7.25891 11.8433 7.24618 11.7282 7.21039C11.613 7.1746 11.5061 7.11645 11.4134 7.03926L6.50011 2.9326L1.57761 6.8926C1.48384 6.96874 1.37596 7.0256 1.26015 7.05991C1.14433 7.09423 1.02288 7.10531 0.902774 7.09253C0.782665 7.07976 0.666265 7.04337 0.560265 6.98546C0.454265 6.92755 0.360754 6.84926 0.285108 6.7551C0.201658 6.66025 0.138713 6.54918 0.100223 6.42886C0.0617329 6.30854 0.0485295 6.18155 0.0614407 6.05589C0.0743518 5.93022 0.113099 5.80857 0.175251 5.69859C0.237402 5.58861 0.321617 5.49266 0.422608 5.41676L5.92261 0.989265C6.08663 0.85444 6.29237 0.780735 6.50469 0.780735C6.71701 0.780735 6.92275 0.85444 7.08678 0.989265L12.5868 5.5726C12.6977 5.66455 12.7854 5.78137 12.8427 5.91356C12.9001 6.04575 12.9254 6.1896 12.9168 6.33343Z" fill="#484B5C"/>
</svg>
