<svg width="11" height="15" viewBox="0 0 11 15" fill="none" xmlns="http://www.w3.org/2000/svg">
<path d="M0.21206 2.80105C0.620081 2.79902 1.01916 2.76275 1.42718 2.76072C1.8352 2.75868 2.23427 2.72241 2.64229 2.72038C2.7552 2.72605 2.78091 2.68229 2.78872 2.57006C2.77526 1.94998 2.77075 1.36413 2.75729 0.744043C2.7651 0.631816 2.79081 0.588059 2.90372 0.593729C3.27709 0.601217 3.60685 0.583991 3.97128 0.557244C4.08418 0.562914 4.09313 0.597149 4.07637 0.675141C4.08088 1.26099 4.09434 1.88108 4.09885 2.46693C4.1078 2.50116 4.11675 2.5354 4.09998 2.61339C4.3951 2.60569 4.72487 2.58846 5.01999 2.58076C5.05464 2.57123 5.0714 2.49324 5.09711 2.44949C5.08478 1.97586 5.08139 1.53648 5.10371 1.05333L5.10033 0.613943C5.08243 0.545473 5.10814 0.501716 5.18639 0.516907C5.55976 0.524395 5.92418 0.497648 6.33221 0.495614C6.36686 0.486092 6.3758 0.520327 6.41046 0.510806C6.42279 0.984429 6.42617 1.42382 6.42956 1.8632C6.43963 2.0439 6.44971 2.2246 6.42513 2.41482C6.41731 2.52705 6.46091 2.55176 6.57382 2.55743L7.85155 2.75674C8.25176 2.86693 8.6352 3.05512 8.96723 3.33082C9.41328 3.75865 9.59107 4.29689 9.59558 4.88274C9.59002 5.2879 9.54086 5.66833 9.3352 6.01839C9.18096 6.28093 8.93951 6.49405 8.68912 6.67293C8.65447 6.68245 8.62876 6.72621 8.55946 6.74525C8.72491 6.80987 8.88141 6.84025 9.04686 6.90487C9.54321 7.09872 9.91883 7.39914 10.1827 7.84034C10.3504 8.19789 10.4231 8.61823 10.4175 9.02339C10.4041 9.54076 10.3382 9.99919 10.1247 10.4615C9.85985 11.0113 9.43733 11.3842 8.90077 11.605C8.19989 11.9077 7.48893 12.0297 6.76903 12.1174C6.65613 12.1117 6.59577 12.165 6.58795 12.2772C6.59247 12.8631 6.60593 13.4832 6.61044 14.069C6.61157 14.2155 6.62052 14.2497 6.42936 14.2289C6.09959 14.2461 5.72622 14.2386 5.39645 14.2558C5.28355 14.2502 5.2746 14.2159 5.29137 14.1379C5.2779 13.5178 5.26444 12.8978 5.29458 12.3024C5.27669 12.2339 5.3024 12.1902 5.22415 12.175C4.92903 12.1827 4.63392 12.1904 4.30415 12.2076C4.31535 12.5348 4.2919 12.8714 4.3031 13.1986C4.31431 13.5258 4.29086 13.8624 4.30206 14.1896C4.2853 14.2676 4.29424 14.3018 4.18134 14.2962C3.80797 14.2887 3.44355 14.3154 3.07912 14.3422C2.96622 14.3365 2.95727 14.3023 2.97404 14.2243C2.96058 13.6042 2.94712 12.9841 2.97725 12.3887C2.96831 12.3545 2.99402 12.3107 2.97612 12.2423C2.12543 12.2559 1.27473 12.2694 0.389387 12.2926C0.422911 12.1366 0.430728 12.0243 0.464252 11.8684C0.522356 11.5222 0.580459 11.176 0.612855 10.8735C0.620671 10.7613 0.655325 10.7518 0.759284 10.7232C1.01975 10.725 1.31486 10.7173 1.56638 10.6849C1.8615 10.6772 2.03363 10.4831 2.00567 10.2339C1.99994 8.36417 1.99421 6.49439 1.94489 4.59989C1.94263 4.30697 1.68885 4.04646 1.35014 4.02945C1.01142 4.01244 0.681655 4.02967 0.386539 4.03737C0.317233 4.05641 0.273634 4.0317 0.290396 3.95371C0.295956 3.54856 0.292569 3.10917 0.298129 2.70402C0.186353 2.84481 0.186353 2.84481 0.21206 2.80105ZM4.1889 10.7715C4.22355 10.762 4.26715 10.7867 4.26715 10.7867C4.85738 10.7713 5.49122 10.7806 6.08926 10.653C6.51405 10.573 6.89523 10.4682 7.24063 10.2265C7.84537 9.84022 7.89896 8.90817 7.37465 8.46514C7.12982 8.23887 6.80786 8.14387 6.48591 8.04887C5.7727 7.87791 5.0092 7.94092 4.28036 7.99442C4.16745 7.98875 4.1764 8.02298 4.16858 8.13521C4.18873 8.49661 4.16528 8.83329 4.18543 9.19468C4.17205 9.71206 4.19333 10.2199 4.1889 10.7715ZM6.18733 6.47972C6.25663 6.46067 6.42095 6.37883 6.55062 6.30651C7.17325 5.98865 7.32298 5.14026 6.82437 4.65348C6.5706 4.39297 6.20505 4.27326 5.85739 4.22201C5.31857 4.14991 4.80659 4.18051 4.25101 4.18639C4.13811 4.18072 4.1124 4.22448 4.10458 4.33671C4.11917 5.10325 4.12482 5.83557 4.10475 6.61164C4.08799 6.68963 4.13159 6.71434 4.20984 6.72953C4.3574 6.72568 4.4703 6.73135 4.61786 6.7275C5.15555 6.65314 5.63288 6.63207 6.18733 6.47972Z" fill="white"/>
</svg>
