<svg width="26" height="26" viewBox="0 0 26 26" fill="none" xmlns="http://www.w3.org/2000/svg">
<path d="M11.0994 2.59998C9.62593 2.59986 8.17806 2.98503 6.89943 3.71728C5.6208 4.44952 4.55587 5.50338 3.8103 6.77429C3.06473 8.04519 2.66445 9.48896 2.64917 10.9623C2.63389 12.4357 3.00414 13.8875 3.72319 15.1736L2.68839 17.8802C2.60237 18.1052 2.58054 18.3496 2.62536 18.5863C2.67017 18.823 2.77986 19.0425 2.94219 19.2205C3.10451 19.3985 3.31309 19.5278 3.54465 19.5942C3.77622 19.6605 4.02165 19.6612 4.25359 19.5962L7.48669 18.6901C8.63192 19.2312 9.88416 19.5079 11.1508 19.4998C12.4174 19.4917 13.666 19.1989 14.8042 18.6432C15.9424 18.0874 16.9411 17.2829 17.7264 16.2891C18.5117 15.2953 19.0636 14.1376 19.3412 12.9018C19.6188 11.6659 19.615 10.3835 19.3301 9.14932C19.0452 7.91514 18.4864 6.7608 17.6952 5.77168C16.904 4.78256 15.9006 3.98396 14.7591 3.43496C13.6176 2.88595 12.3673 2.60059 11.1007 2.59998H11.0994ZM8.54619 20.462C9.33866 21.3848 10.3214 22.1252 11.427 22.6323C12.5327 23.1394 13.7349 23.4013 14.9513 23.4C16.2422 23.4 17.4681 23.1101 18.5653 22.5901L21.7971 23.4962C22.029 23.5612 22.2745 23.5605 22.506 23.4942C22.7376 23.4278 22.9462 23.2985 23.1085 23.1205C23.2708 22.9425 23.3805 22.723 23.4253 22.4863C23.4701 22.2496 23.4483 22.0052 23.3623 21.7802L22.3288 19.0736C23.01 17.8529 23.4 16.445 23.4 14.95C23.4 12.428 22.295 10.1634 20.5413 8.61508C20.7334 9.36382 20.836 10.1327 20.8468 10.9057C21.6372 12.0562 22.1 13.4498 22.1 14.95C22.1 16.315 21.7178 17.5903 21.0535 18.6758L20.8871 18.9488L22.1481 22.2443L18.4301 21.2043L18.2026 21.3187C17.2276 21.8179 16.1226 22.1 14.95 22.1C13.4757 22.1022 12.0371 21.6466 10.8329 20.7961C10.0597 20.7759 9.2916 20.6637 8.54489 20.462H8.54619Z" fill="white"/>
</svg>
