<svg width="25" height="13" viewBox="0 0 25 13" fill="none" xmlns="http://www.w3.org/2000/svg">
<path d="M0 8C0 3.58172 3.58172 0 8 0H25V7.5C25 10.5376 22.5376 13 19.5 13H0V8Z" fill="#F30058"/>
<path d="M7.84 5.28H5.48V6.848H7.76V7.728H5.48V10H4.56V4.4H7.84V5.28ZM11.8926 10L10.7086 7.96H9.62063V10H8.70063V4.4H10.9406C11.442 4.4 11.866 4.576 12.2126 4.928C12.5646 5.27467 12.7406 5.69867 12.7406 6.2C12.7406 6.55733 12.6366 6.88533 12.4286 7.184C12.226 7.47733 11.9593 7.69067 11.6286 7.824L12.9006 10H11.8926ZM9.62063 5.264V7.136H10.9406C11.186 7.136 11.394 7.04533 11.5646 6.864C11.7353 6.68267 11.8206 6.46133 11.8206 6.2C11.8206 5.93867 11.7353 5.71733 11.5646 5.536C11.394 5.35467 11.186 5.264 10.9406 5.264H9.62063ZM14.5269 9.12H17.0069V10H13.6069V4.4H16.9669V5.28H14.5269V6.736H16.7669V7.608H14.5269V9.12ZM18.7691 9.12H21.2491V10H17.8491V4.4H21.2091V5.28H18.7691V6.736H21.0091V7.608H18.7691V9.12Z" fill="white"/>
</svg>
