<svg width="17" height="17" viewBox="0 0 17 17" fill="none" xmlns="http://www.w3.org/2000/svg">
<path d="M2.65625 13.8125C2.65625 14.3761 2.88013 14.9166 3.27865 15.3151C3.67716 15.7136 4.21766 15.9375 4.78125 15.9375H7.83594C7.87116 15.9375 7.90494 15.9235 7.92985 15.8986C7.95476 15.8737 7.96875 15.8399 7.96875 15.8047V9.69531C7.96875 9.66009 7.95476 9.62631 7.92985 9.6014C7.90494 9.57649 7.87116 9.5625 7.83594 9.5625H2.92188C2.85143 9.5625 2.78386 9.59049 2.73405 9.6403C2.68424 9.69011 2.65625 9.75768 2.65625 9.82812V13.8125Z" fill="white"/>
<path d="M7.96875 8.36711V4.78117H9.03125V8.36711C9.03125 8.40234 9.04524 8.43612 9.07015 8.46102C9.09506 8.48593 9.12884 8.49992 9.16406 8.49992H13.8125C13.9935 8.49992 14.1731 8.46904 14.3438 8.40862C14.6542 8.29839 14.923 8.09483 15.1132 7.82584C15.3034 7.55686 15.4058 7.23562 15.4062 6.90617V6.37492C15.4062 5.95224 15.2383 5.54686 14.9395 5.24797C14.6406 4.94909 14.2352 4.78117 13.8125 4.78117H12.4664C12.4549 4.78099 12.4436 4.77779 12.4336 4.77188C12.4237 4.76598 12.4154 4.75758 12.4097 4.74752C12.404 4.73745 12.4011 4.72607 12.4011 4.7145C12.4011 4.70294 12.4042 4.69158 12.41 4.68157C12.7174 4.16256 12.8172 3.54653 12.6895 2.957C12.5618 2.36747 12.2159 1.84803 11.7212 1.50282C11.2266 1.15761 10.6197 1.01216 10.0223 1.09564C9.42486 1.17912 8.88109 1.48535 8.5 1.95293C8.11891 1.48535 7.57514 1.17912 6.97774 1.09564C6.38033 1.01216 5.77345 1.15761 5.27878 1.50282C4.78412 1.84803 4.43823 2.36747 4.31049 2.957C4.18275 3.54653 4.28259 4.16256 4.59 4.68157C4.59579 4.69158 4.59885 4.70294 4.5989 4.7145C4.59895 4.72607 4.59597 4.73745 4.59027 4.74752C4.58457 4.75758 4.57633 4.76598 4.56639 4.77188C4.55644 4.77779 4.54512 4.78099 4.53355 4.78117H3.1875C2.76481 4.78117 2.35943 4.94909 2.06055 5.24797C1.76166 5.54686 1.59375 5.95224 1.59375 6.37492V6.90617C1.59422 7.23562 1.69658 7.55686 1.8868 7.82584C2.07702 8.09483 2.34579 8.29839 2.65625 8.40862C2.82685 8.46904 3.00651 8.49992 3.1875 8.49992H7.83594C7.87116 8.49992 7.90494 8.48593 7.92985 8.46102C7.95476 8.43612 7.96875 8.40234 7.96875 8.36711ZM9.03125 3.45305C9.03125 3.19037 9.10914 2.93359 9.25508 2.71518C9.40102 2.49677 9.60844 2.32654 9.85112 2.22602C10.0938 2.1255 10.3608 2.0992 10.6185 2.15044C10.8761 2.20169 11.1128 2.32818 11.2985 2.51392C11.4842 2.69967 11.6107 2.93631 11.662 3.19395C11.7132 3.45158 11.6869 3.71862 11.5864 3.9613C11.4859 4.20398 11.3157 4.41141 11.0972 4.55735C10.8788 4.70328 10.6221 4.78117 10.3594 4.78117H9.03125V3.45305ZM6.54566 2.12825C6.72762 2.1152 6.9103 2.13978 7.08234 2.20045C7.25437 2.26112 7.41207 2.35658 7.54558 2.48088C7.6791 2.60517 7.78558 2.75564 7.85839 2.9229C7.93119 3.09016 7.96876 3.27063 7.96875 3.45305V4.78117H6.64062C6.2972 4.78029 5.96747 4.64642 5.72063 4.40765C5.4738 4.16888 5.32905 3.84377 5.31676 3.50057C5.30447 3.15737 5.42561 2.82274 5.65474 2.56693C5.88387 2.31112 6.20318 2.15401 6.54566 2.12858V2.12825Z" fill="white"/>
<path d="M9.16406 15.9375H12.2188C12.7823 15.9375 13.3228 15.7136 13.7214 15.3151C14.1199 14.9166 14.3438 14.3761 14.3438 13.8125V9.82812C14.3438 9.75768 14.3158 9.69011 14.266 9.6403C14.2161 9.59049 14.1486 9.5625 14.0781 9.5625H9.16406C9.12884 9.5625 9.09506 9.57649 9.07015 9.6014C9.04524 9.62631 9.03125 9.66009 9.03125 9.69531V15.8047C9.03125 15.8399 9.04524 15.8737 9.07015 15.8986C9.09506 15.9235 9.12884 15.9375 9.16406 15.9375Z" fill="white"/>
</svg>
