<svg width="21" height="20" viewBox="0 0 21 20" fill="none" xmlns="http://www.w3.org/2000/svg">
<path d="M10.5 1.66663C9.67591 1.66663 8.87033 1.911 8.18512 2.36884C7.49992 2.82667 6.96587 3.47742 6.6505 4.23878C6.33514 5.00014 6.25262 5.83791 6.41339 6.64617C6.57417 7.45442 6.971 8.19685 7.55372 8.77957C8.13644 9.36229 8.87887 9.75913 9.68712 9.9199C10.4954 10.0807 11.3332 9.99816 12.0945 9.68279C12.8559 9.36742 13.5066 8.83337 13.9645 8.14817C14.4223 7.46296 14.6667 6.65738 14.6667 5.83329C14.6667 4.72822 14.2277 3.66842 13.4463 2.88701C12.6649 2.10561 11.6051 1.66663 10.5 1.66663ZM10.5 8.33329C10.0055 8.33329 9.5222 8.18667 9.11107 7.91197C8.69995 7.63726 8.37952 7.24682 8.1903 6.79C8.00108 6.33319 7.95157 5.83052 8.04804 5.34557C8.1445 4.86061 8.3826 4.41516 8.73223 4.06553C9.08186 3.71589 9.52732 3.47779 10.0123 3.38133C10.4972 3.28487 10.9999 3.33437 11.4567 3.52359C11.9135 3.71281 12.304 4.03324 12.5787 4.44437C12.8534 4.85549 13 5.33884 13 5.83329C13 6.49633 12.7366 7.13222 12.2678 7.60106C11.7989 8.0699 11.163 8.33329 10.5 8.33329ZM18 17.5V16.6666C18 15.1195 17.3854 13.6358 16.2915 12.5418C15.1975 11.4479 13.7138 10.8333 12.1667 10.8333H8.83333C7.28624 10.8333 5.80251 11.4479 4.70854 12.5418C3.61458 13.6358 3 15.1195 3 16.6666V17.5H4.66667V16.6666C4.66667 15.5616 5.10565 14.5017 5.88705 13.7203C6.66846 12.9389 7.72826 12.5 8.83333 12.5H12.1667C13.2717 12.5 14.3315 12.9389 15.1129 13.7203C15.8943 14.5017 16.3333 15.5616 16.3333 16.6666V17.5H18Z" fill="white"/>
</svg>
