<svg width="17" height="18" viewBox="0 0 17 18" fill="none" xmlns="http://www.w3.org/2000/svg">
<g clip-path="url(#clip0_1101_98129)">
<path d="M8.5 17.5C13.1944 17.5 17 13.6944 17 9C17 4.30558 13.1944 0.5 8.5 0.5C3.80558 0.5 0 4.30558 0 9C0 13.6944 3.80558 17.5 8.5 17.5Z" fill="#F0F0F0"/>
<path d="M16.4713 11.9565C16.813 11.0356 17 10.0397 17 8.99996C17 7.96024 16.813 6.96428 16.4713 6.04346H0.528693C0.187033 6.96428 0 7.96024 0 8.99996C0 10.0397 0.187033 11.0356 0.528693 11.9565L8.5 12.6956L16.4713 11.9565Z" fill="#0052B4"/>
<path d="M8.49999 17.5C12.1547 17.5 15.2703 15.1934 16.4713 11.9565H0.528687C1.72968 15.1934 4.84529 17.5 8.49999 17.5Z" fill="#D80027"/>
</g>
<defs>
<clipPath id="clip0_1101_98129">
<rect width="17" height="17" fill="white" transform="translate(0 0.5)"/>
</clipPath>
</defs>
</svg>
