<svg width="38" height="37" viewBox="0 0 38 37" fill="none" xmlns="http://www.w3.org/2000/svg">
<path d="M19 29.3919C25.0154 29.3919 29.8919 24.5155 29.8919 18.5C29.8919 12.4846 25.0154 7.60815 19 7.60815C12.9846 7.60815 8.10812 12.4846 8.10812 18.5C8.10812 24.5155 12.9846 29.3919 19 29.3919Z" fill="#4CAE1E"/>
<g filter="url(#filter0_d_1101_98154)">
<path d="M19 28.6407C24.6006 28.6407 29.1407 24.1006 29.1407 18.5C29.1407 12.8994 24.6006 8.35925 19 8.35925C13.3994 8.35925 8.85925 12.8994 8.85925 18.5C8.85925 24.1006 13.3994 28.6407 19 28.6407Z" fill="#258E23"/>
</g>
<path d="M19 18.4999L10.8694 13.8051C11.6935 12.3793 12.8794 11.1934 14.3052 10.3693L19 18.4999Z" fill="#F43535"/>
<path d="M19 9.11035V18.4999L14.3052 10.3693C15.6858 9.56594 17.289 9.11035 19 9.11035Z" fill="#AAFF55"/>
<path d="M23.6948 10.3693L19 18.4999V9.11035C20.711 9.11035 22.3142 9.56594 23.6948 10.3693Z" fill="#F43535"/>
<path d="M27.1307 13.8051L19 18.4999L23.6948 10.3693C25.1206 11.1934 26.3065 12.3793 27.1307 13.8051Z" fill="#AAFF55"/>
<path d="M28.3896 18.5H19L27.1307 13.8052C27.934 15.1858 28.3896 16.789 28.3896 18.5Z" fill="#F43535"/>
<path d="M28.3896 18.5C28.3896 20.211 27.934 21.8142 27.1307 23.1948L19 18.5H28.3896Z" fill="#AAFF55"/>
<path d="M27.1307 23.1948C26.3065 24.6206 25.1206 25.8065 23.6948 26.6307L19 18.5L27.1307 23.1948Z" fill="#F43535"/>
<path d="M23.6948 26.6307C22.3142 27.434 20.711 27.8896 19 27.8896V18.5L23.6948 26.6307Z" fill="#AAFF55"/>
<path d="M19 18.5V27.8896C17.289 27.8896 15.6858 27.434 14.3052 26.6307L19 18.5Z" fill="#F43535"/>
<path d="M19 18.5L14.3052 26.6307C12.8794 25.8065 11.6935 24.6206 10.8694 23.1948L19 18.5Z" fill="#AAFF55"/>
<path d="M19 18.5L10.8693 23.1948C10.066 21.8142 9.61041 20.211 9.61041 18.5H19Z" fill="#F43535"/>
<path d="M19 18.5H9.61041C9.61041 16.789 10.066 15.1858 10.8693 13.8052L19 18.5Z" fill="#AAFF55"/>
<path d="M19 20.1902C19.9334 20.1902 20.6901 19.4335 20.6901 18.5001C20.6901 17.5666 19.9334 16.8099 19 16.8099C18.0666 16.8099 17.3099 17.5666 17.3099 18.5001C17.3099 19.4335 18.0666 20.1902 19 20.1902Z" fill="#EFF2FA"/>
<path d="M19 19.2512C19.4149 19.2512 19.7512 18.9149 19.7512 18.5001C19.7512 18.0852 19.4149 17.7489 19 17.7489C18.5852 17.7489 18.2489 18.0852 18.2489 18.5001C18.2489 18.9149 18.5852 19.2512 19 19.2512Z" fill="white"/>
<path d="M17.7562 5.99229C17.0962 6.65232 17.0962 7.72244 17.7562 8.38247C18.4162 9.0425 19.4864 9.0425 20.1464 8.38247C20.8064 7.72244 20.8064 6.65232 20.1464 5.99229C19.4864 5.33226 18.4162 5.33226 17.7562 5.99229Z" fill="#EFF2FA"/>
<path d="M17.8245 8.02002L18.9512 11.0247L20.078 8.02002L19.3268 8.30615L19.1163 6.27166C19.1162 6.4383 19.2313 6.1685 19.1163 6.27166C19.4274 6.27169 19.1163 5.96052 19.1163 6.27166C19.1163 5.96049 18.8051 6.27163 19.1163 6.27166C19.0012 6.16853 19.1163 6.43833 19.1163 6.27166L18.5757 8.30615L17.8245 8.02002Z" fill="white"/>
<path d="M18.4201 6.65623C18.1267 6.94957 18.1267 7.42518 18.4201 7.71853C18.7134 8.01187 19.189 8.01187 19.4824 7.71853C19.7757 7.42518 19.7757 6.94957 19.4824 6.65623C19.189 6.36288 18.7134 6.36288 18.4201 6.65623Z" fill="#D7DEED"/>
<defs>
<filter id="filter0_d_1101_98154" x="0.859253" y="0.359253" width="36.2815" height="36.2815" filterUnits="userSpaceOnUse" color-interpolation-filters="sRGB">
<feFlood flood-opacity="0" result="BackgroundImageFix"/>
<feColorMatrix in="SourceAlpha" type="matrix" values="0 0 0 0 0 0 0 0 0 0 0 0 0 0 0 0 0 0 127 0" result="hardAlpha"/>
<feOffset/>
<feGaussianBlur stdDeviation="4"/>
<feComposite in2="hardAlpha" operator="out"/>
<feColorMatrix type="matrix" values="0 0 0 0 0.666667 0 0 0 0 1 0 0 0 0 0.333333 0 0 0 0.51 0"/>
<feBlend mode="normal" in2="BackgroundImageFix" result="effect1_dropShadow_1101_98154"/>
<feBlend mode="normal" in="SourceGraphic" in2="effect1_dropShadow_1101_98154" result="shape"/>
</filter>
</defs>
</svg>
