<svg width="64" height="92" viewBox="0 0 64 92" fill="none" xmlns="http://www.w3.org/2000/svg">
<path d="M0 4C0 1.79086 1.79086 0 4 0H60C62.2091 0 64 1.79086 64 4V88C64 90.2091 62.2091 92 60 92H4C1.79086 92 0 90.2091 0 88V4Z" fill="url(#paint0_linear_2929_273875)"/>
<rect x="4" y="4" width="56" height="84" rx="2" fill="#838383"/>
<mask id="mask0_2929_273875" style="mask-type:alpha" maskUnits="userSpaceOnUse" x="4" y="4" width="56" height="84">
<rect x="4" y="4" width="56" height="84" rx="2.12057" fill="url(#paint1_linear_2929_273875)"/>
</mask>
<g mask="url(#mask0_2929_273875)">
<rect x="4" y="4" width="56" height="84" rx="2.12057" fill="#838383"/>
<rect opacity="0.24" x="-47.5449" y="62.0884" width="130" height="6" transform="rotate(-30 -47.5449 62.0884)" fill="#05124F"/>
<rect opacity="0.24" x="-60.7051" y="59.2942" width="129" height="6" transform="rotate(-30 -60.7051 59.2942)" fill="#05124F"/>
<rect opacity="0.24" x="-36.9824" y="66.3828" width="129" height="6" transform="rotate(-30 -36.9824 66.3828)" fill="#05124F"/>
<rect opacity="0.24" x="-27.2871" y="71.177" width="129" height="6" transform="rotate(-30 -27.2871 71.177)" fill="#05124F"/>
<rect opacity="0.24" x="-17.5898" y="75.9712" width="130" height="6" transform="rotate(-30 -17.5898 75.9712)" fill="#05124F"/>
<rect opacity="0.24" x="-7.89453" y="80.7654" width="130" height="6" transform="rotate(-30 -7.89453 80.7654)" fill="#05124F"/>
<rect opacity="0.24" x="1.80078" y="85.5596" width="130" height="6" transform="rotate(-30 1.80078 85.5596)" fill="#05124F"/>
<rect opacity="0.24" x="11.498" y="90.3538" width="130" height="6" transform="rotate(-30 11.498 90.3538)" fill="#05124F"/>
<rect opacity="0.24" x="21.1934" y="95.1482" width="130" height="6" transform="rotate(-30 21.1934 95.1482)" fill="#05124F"/>
<rect opacity="0.24" x="-73" y="56" width="130" height="6" transform="rotate(-30 -73 56)" fill="#05124F"/>
<rect opacity="0.24" width="130" height="6" transform="matrix(-0.866025 -0.5 -0.5 0.866025 111.322 62.0884)" fill="#05124F"/>
<rect opacity="0.24" width="129" height="6" transform="matrix(-0.866025 -0.5 -0.5 0.866025 124.482 59.2942)" fill="#05124F"/>
<rect opacity="0.24" width="129" height="6" transform="matrix(-0.866025 -0.5 -0.5 0.866025 100.76 66.3828)" fill="#05124F"/>
<rect opacity="0.24" width="129" height="6" transform="matrix(-0.866025 -0.5 -0.5 0.866025 91.0645 71.177)" fill="#05124F"/>
<rect opacity="0.24" width="130" height="6" transform="matrix(-0.866025 -0.5 -0.5 0.866025 81.3672 75.9712)" fill="#05124F"/>
<rect opacity="0.24" width="130" height="6" transform="matrix(-0.866025 -0.5 -0.5 0.866025 71.6719 80.7654)" fill="#05124F"/>
<rect opacity="0.24" width="130" height="6" transform="matrix(-0.866025 -0.5 -0.5 0.866025 61.9766 85.5596)" fill="#05124F"/>
<rect opacity="0.24" width="130" height="6" transform="matrix(-0.866025 -0.5 -0.5 0.866025 52.2793 90.3538)" fill="#05124F"/>
<rect opacity="0.24" width="130" height="6" transform="matrix(-0.866025 -0.5 -0.5 0.866025 42.584 95.1482)" fill="#05124F"/>
<rect opacity="0.24" width="130" height="6" transform="matrix(-0.866025 -0.5 -0.5 0.866025 136.777 56)" fill="#05124F"/>
</g>
<defs>
<linearGradient id="paint0_linear_2929_273875" x1="2.06452" y1="92" x2="56.6415" y2="5.15165" gradientUnits="userSpaceOnUse">
<stop stop-color="#DAD7C9"/>
<stop offset="1" stop-color="#FFFCED"/>
</linearGradient>
<linearGradient id="paint1_linear_2929_273875" x1="32" y1="4" x2="32" y2="88" gradientUnits="userSpaceOnUse">
<stop stop-color="#D1013E"/>
<stop offset="1" stop-color="#6A152E"/>
</linearGradient>
</defs>
</svg>
