<svg width="14" height="22" viewBox="0 0 14 22" fill="none" xmlns="http://www.w3.org/2000/svg">
<path d="M4 7V4H10V7C10 8.65685 8.65685 10 7 10C5.34315 10 4 8.65685 4 7Z" fill="#FCC2A2"/>
<path d="M6.2 5H11C11 2.79086 9.20914 1 7 1C4.79086 1 3 2.79086 3 5V7H5.66597L6.2 5Z" fill="#2D9D7B"/>
<path d="M10 11H4C2.34315 11 1 12.3431 1 14V15V20H2L4 16H5H6H7H9H10L11 18L14 17V16H13V14C13 12.3431 11.6569 11 10 11Z" fill="#30E3AE"/>
<path d="M5 20V16H7V20H5Z" fill="#2D9D7B"/>
<path d="M9 20V16H7V20H9Z" fill="#2D9D7B"/>
<path d="M3 22V21L5 20H7V22H6H5H3Z" fill="#30E3AE"/>
<path d="M11 22V21L9 20H7V22H8H9H11Z" fill="#30E3AE"/>
</svg>
