<svg width="14" height="14" viewBox="0 0 14 14" fill="none" xmlns="http://www.w3.org/2000/svg">
<path fill-rule="evenodd" clip-rule="evenodd" d="M8.217 2.20002L6.6574 0L5.09779 2.20002L2.5429 1.33688L2.57429 4.03345L0 4.83688L1.6104 7L0 9.16312L2.57429 9.96655L2.5429 12.6631L5.09779 11.8L6.6574 14L8.217 11.8L10.7719 12.6631L10.7405 9.96655L13.3148 9.16312L11.7044 7L13.3148 4.83688L10.7405 4.03345L10.7719 1.33688L8.217 2.20002ZM6.6574 9C7.76197 9 8.6574 8.10457 8.6574 7C8.6574 5.89543 7.76197 5 6.6574 5C5.55283 5 4.6574 5.89543 4.6574 7C4.6574 8.10457 5.55283 9 6.6574 9Z" fill="#ED4700"/>
</svg>
