<svg width="189" height="189" viewBox="0 0 189 189" fill="none" xmlns="http://www.w3.org/2000/svg">
<g clip-path="url(#clip0_3281_313694)">
<path d="M0 22C0 9.84973 9.84974 0 22 0H167C179.15 0 189 9.84974 189 22V167C189 179.15 179.15 189 167 189H22C9.84973 189 0 179.15 0 167V22Z" fill="url(#paint0_linear_3281_313694)"/>
<circle opacity="0.7" cx="161.286" cy="6.81487" r="114.036" fill="url(#paint1_radial_3281_313694)"/>
<g opacity="0.4">
<rect width="31.1861" height="10.3954" transform="matrix(-0.866044 -0.499967 -0.866044 0.499967 72.3875 74.314)" fill="#FFD702"/>
<path d="M72.3817 65.4791L45.3731 49.887L45.373 58.7227L72.3816 74.3147L72.3817 65.4791Z" fill="#E3C108"/>
<rect width="31.1861" height="10.3954" transform="matrix(-0.866044 -0.499967 -0.866044 0.499967 81.3701 60.2818)" fill="#FFD702"/>
<path d="M81.3641 51.4469L54.3555 35.8548L54.3554 44.6905L81.364 60.2825L81.3641 51.4469Z" fill="#E3C108"/>
<rect width="31.1861" height="10.3954" transform="matrix(-0.866044 -0.499967 -0.866044 0.499967 90.3594 46.2533)" fill="#FFD702"/>
<path d="M90.3531 37.4184L63.3445 21.8264L63.3444 30.662L90.353 46.2541L90.3531 37.4184Z" fill="#E3C108"/>
</g>
<g opacity="0.4">
<rect width="31.0118" height="10.3373" transform="matrix(0.870911 -0.49144 0.870911 0.49144 142.934 116.783)" fill="#FFD702"/>
<path d="M142.941 108.147L169.949 92.9067L169.949 101.543L142.941 116.784L142.941 108.147Z" fill="#E3C108"/>
<rect width="31.0118" height="10.3373" transform="matrix(0.870911 -0.49144 0.870911 0.49144 133.952 103.067)" fill="#FFD702"/>
<path d="M133.958 94.4316L160.967 79.1911L160.967 87.8275L133.959 103.068L133.958 94.4316Z" fill="#E3C108"/>
<rect width="31.0118" height="10.3373" transform="matrix(0.870911 -0.49144 0.870911 0.49144 124.963 89.3548)" fill="#FFD702"/>
<path d="M124.968 80.7191L151.977 65.4786L151.977 74.1151L124.969 89.3555L124.968 80.7191Z" fill="#E3C108"/>
</g>
<rect width="31.1861" height="10.3954" transform="matrix(0.866044 -0.499967 0.866044 0.499967 129.868 143.696)" fill="#FFD702"/>
<path d="M129.874 134.861L156.883 119.269L156.883 128.104L129.875 143.696L129.874 134.861Z" fill="#E3C108"/>
<rect width="31.1861" height="10.3954" transform="matrix(0.866044 -0.499967 0.866044 0.499967 120.885 129.664)" fill="#FFD702"/>
<path d="M120.891 120.829L147.899 105.237L147.899 114.072L120.891 129.664L120.891 120.829Z" fill="#E3C108"/>
<rect width="31.1861" height="10.3954" transform="matrix(0.866044 -0.499967 0.866044 0.499967 111.896 115.635)" fill="#FFD702"/>
<path d="M111.902 106.8L138.911 91.208L138.911 100.044L111.902 115.636L111.902 106.8Z" fill="#E3C108"/>
<rect width="31.1861" height="10.3954" transform="matrix(0.866044 -0.499967 0.866044 0.499967 102.92 101.597)" fill="#FFD702"/>
<path d="M102.926 92.7617L129.935 77.1696L129.935 86.0053L102.926 101.597L102.926 92.7617Z" fill="#E3C108"/>
<rect width="31.1861" height="10.3954" transform="matrix(0.866044 -0.499967 0.866044 0.499967 93.937 87.5645)" fill="#FFD702"/>
<path d="M93.9433 78.7296L120.952 63.1376L120.952 71.9732L93.9434 87.5653L93.9433 78.7296Z" fill="#E3C108"/>
<rect width="31.1861" height="10.3954" transform="matrix(0.866044 -0.499967 0.866044 0.499967 84.9478 73.5359)" fill="#FFD702"/>
<path d="M84.9538 64.701L111.962 49.1089L111.962 57.9446L84.9539 73.5366L84.9538 64.701Z" fill="#E3C108"/>
<g opacity="0.4">
<rect width="31.1861" height="10.3954" transform="matrix(0.866044 -0.499967 0.866044 0.499967 86.2153 166.432)" fill="#FFD702"/>
<path d="M86.2216 157.597L113.23 142.005L113.23 150.84L86.2217 166.432L86.2216 157.597Z" fill="#E3C108"/>
<rect width="31.1861" height="10.3954" transform="matrix(0.866044 -0.499967 0.866044 0.499967 77.2329 152.399)" fill="#FFD702"/>
<path d="M77.2392 143.564L104.248 127.972L104.248 136.808L77.2393 152.4L77.2392 143.564Z" fill="#E3C108"/>
<rect width="31.1861" height="10.3954" transform="matrix(0.866044 -0.499967 0.866044 0.499967 68.2434 138.371)" fill="#FFD702"/>
<path d="M68.2492 129.536L95.2578 113.944L95.2579 122.779L68.2493 138.371L68.2492 129.536Z" fill="#E3C108"/>
<rect width="31.1861" height="10.3954" transform="matrix(0.866044 -0.499967 0.866044 0.499967 59.2676 124.332)" fill="#FFD702"/>
<path d="M59.2736 115.497L86.2822 99.9054L86.2823 108.741L59.2737 124.333L59.2736 115.497Z" fill="#E3C108"/>
<rect width="31.1861" height="10.3954" transform="matrix(0.866044 -0.499967 0.866044 0.499967 50.2849 110.3)" fill="#FFD702"/>
<path d="M50.2907 101.465L77.2993 85.8732L77.2994 94.7089L50.2908 110.301L50.2907 101.465Z" fill="#E3C108"/>
</g>
<path d="M49.6465 148.438L22.638 132.846L22.6379 141.682L49.6465 157.274L49.6465 148.438Z" fill="#E3C108"/>
<rect width="31.1861" height="10.3954" transform="matrix(-0.866044 -0.499967 -0.866044 0.499967 58.636 143.241)" fill="#FFD702"/>
<path d="M58.6302 134.406L31.6216 118.814L31.6215 127.65L58.6301 143.242L58.6302 134.406Z" fill="#E3C108"/>
<rect width="31.1861" height="10.3954" transform="matrix(-0.866044 -0.499967 -0.866044 0.499967 67.6248 129.213)" fill="#FFD702"/>
<path d="M67.6192 120.378L40.6106 104.786L40.6106 113.621L67.6191 129.213L67.6192 120.378Z" fill="#E3C108"/>
<rect width="31.1861" height="10.3954" transform="matrix(-0.866044 -0.499967 -0.866044 0.499967 76.6008 115.174)" fill="#FFD702"/>
<path d="M76.595 106.339L49.5865 90.7472L49.5864 99.5829L76.595 115.175L76.595 106.339Z" fill="#E3C108"/>
<rect width="31.1861" height="10.3954" transform="matrix(-0.866044 -0.499967 -0.866044 0.499967 85.5833 101.142)" fill="#FFD702"/>
<path d="M85.5777 92.307L58.5691 76.715L58.569 85.5506L85.5776 101.143L85.5777 92.307Z" fill="#E3C108"/>
<rect width="31.1861" height="10.3954" transform="matrix(-0.866044 -0.499967 -0.866044 0.499967 94.5732 87.1135)" fill="#FFD702"/>
<path d="M94.5674 78.2786L67.5589 62.6865L67.5588 71.5222L94.5674 87.1142L94.5674 78.2786Z" fill="#E3C108"/>
<path d="M147.548 145.387L152.754 153.538C154.532 156.321 157.936 157.592 161.102 156.654L170.376 153.909L162.225 159.115C159.442 160.892 158.172 164.297 159.109 167.463L161.855 176.737L156.648 168.586C154.871 165.803 151.467 164.532 148.301 165.47L139.027 168.215L147.178 163.009C149.96 161.232 151.231 157.827 150.294 154.661L147.548 145.387Z" fill="white"/>
<ellipse opacity="0.2" cx="154.7" cy="161.062" rx="8.31972" ry="8.31973" transform="rotate(-24.5303 154.7 161.062)" fill="white"/>
<g style="mix-blend-mode:lighten" opacity="0.5">
<rect x="165.425" y="84.6565" width="29.5751" height="144.414" transform="rotate(179.218 165.425 84.6565)" fill="url(#paint2_linear_3281_313694)"/>
</g>
<g style="mix-blend-mode:lighten" opacity="0.5">
<rect x="90.6064" y="73.5255" width="29.5752" height="144.414" transform="rotate(179.218 90.6064 73.5255)" fill="url(#paint3_linear_3281_313694)"/>
</g>
<g style="mix-blend-mode:lighten" opacity="0.5">
<rect x="112.414" y="62.6217" width="29.5752" height="144.414" transform="rotate(179.218 112.414 62.6217)" fill="url(#paint4_linear_3281_313694)"/>
</g>
<g filter="url(#filter0_f_3281_313694)">
<circle cx="149.987" cy="84.2095" r="20.167" transform="rotate(-120 149.987 84.2095)" fill="#E1E6A8" fill-opacity="0.2"/>
</g>
<g filter="url(#filter1_i_3281_313694)">
<circle cx="149.987" cy="84.2091" r="15.7555" transform="rotate(-120 149.987 84.2091)" fill="#FEFFF0"/>
</g>
<g filter="url(#filter2_f_3281_313694)">
<ellipse cx="146.496" cy="88.6649" rx="2.73845" ry="2.17864" transform="rotate(-152.354 146.496 88.6649)" fill="white"/>
</g>
<g filter="url(#filter3_f_3281_313694)">
<circle cx="97.5747" cy="51.1937" r="20.167" transform="rotate(-120 97.5747 51.1937)" fill="#E1E6A8" fill-opacity="0.2"/>
</g>
<g filter="url(#filter4_i_3281_313694)">
<circle cx="97.5745" cy="51.1932" r="15.7555" transform="rotate(-120 97.5745 51.1932)" fill="#FEFFF0"/>
</g>
<g filter="url(#filter5_f_3281_313694)">
<ellipse cx="94.0841" cy="55.6491" rx="2.73845" ry="2.17864" transform="rotate(-152.354 94.0841 55.6491)" fill="white"/>
</g>
<g filter="url(#filter6_f_3281_313694)">
<circle cx="77.5672" cy="74.8388" r="20.167" transform="rotate(-120 77.5672 74.8388)" fill="#E1E6A8" fill-opacity="0.2"/>
</g>
<g filter="url(#filter7_i_3281_313694)">
<circle cx="77.5672" cy="74.8383" r="15.7555" transform="rotate(-120 77.5672 74.8383)" fill="#FEFFF0"/>
</g>
<g filter="url(#filter8_f_3281_313694)">
<ellipse cx="74.0768" cy="79.2942" rx="2.73845" ry="2.17864" transform="rotate(-152.354 74.0768 79.2942)" fill="white"/>
</g>
<path d="M36.5514 62.5572L36.1313 75.5025C35.9878 79.9219 38.7861 83.903 42.993 85.2646L55.3157 89.2531L42.3704 88.8329C37.9509 88.6895 33.9699 91.4877 32.6083 95.6946L28.6198 108.017L29.0399 95.0721C29.1834 90.6526 26.3851 86.6716 22.1782 85.3099L9.85548 81.3215L22.8008 81.7416C27.2202 81.885 31.2013 79.0868 32.5629 74.8799L36.5514 62.5572Z" fill="white"/>
<ellipse opacity="0.2" cx="32.5851" cy="85.2864" rx="11.1415" ry="11.1415" transform="rotate(9.89698 32.5851 85.2864)" fill="white"/>
<path fill-rule="evenodd" clip-rule="evenodd" d="M53.7209 32.1212L56.566 26.6209L59.586 28.3668L63.6106 24.9422L66.6529 26.586V28.1923L71.4511 30.2029L66.5615 34.2364L69.4635 36.3617L65.7517 41.2074L66.4135 45.8343L62.0255 48.3242L60.237 53.9838L56.566 53.3274L56.0318 59.8475L52.5361 57.7775L52.79 55.4926L49.802 58.8125L47.1656 57.426L47.439 52.5242L46.8531 52.8952L43.6685 51.2544L46.5704 45.7783L44.7133 42.2596L48.9341 38.437L49.5213 33.0766L53.7209 32.1212ZM57.5593 47.1533C54.9444 48.6631 52.8245 47.4392 52.8245 44.4197C52.8245 41.4001 54.9444 37.7284 57.5593 36.2187C60.1743 34.7089 62.2942 35.9328 62.2942 38.9523C62.2942 41.9719 60.1743 45.6436 57.5593 47.1533Z" fill="#C20C0A"/>
<path fill-rule="evenodd" clip-rule="evenodd" d="M56.8786 33.7549L59.7237 28.2546L62.5687 30.4697L66.7683 26.5759L67.3555 31.2582L71.5763 30.2071L69.7192 35.8701L72.6212 37.9954L68.9095 42.8411L69.5712 47.468L65.1833 49.9579L63.3947 55.6175L59.7237 54.9611L56.0527 59.8564L54.2641 56.2621L49.8762 58.8389L50.5379 53.4479L46.8262 52.8881L49.7281 47.412L47.8711 43.8933L52.0919 40.0707L52.6791 34.7103L56.8786 33.7549ZM60.4274 48.4601C57.8124 49.9699 55.6926 48.746 55.6926 45.7264C55.6926 42.7069 57.8124 39.0352 60.4274 37.5255C63.0424 36.0157 65.1622 37.2396 65.1622 40.2591C65.1622 43.2786 63.0424 46.9503 60.4274 48.4601Z" fill="#FE4947"/>
<path fill-rule="evenodd" clip-rule="evenodd" d="M112.386 114.269L109.541 108.769L106.521 110.515L102.496 107.09L99.454 108.734V110.34L94.6559 112.351L99.5454 116.385L96.6435 118.51L100.355 123.356L99.6935 127.982L104.081 130.472L105.87 136.132L109.541 135.476L110.075 141.996L113.571 139.926L113.317 137.641L116.305 140.961L118.941 139.574L118.668 134.672L119.254 135.043L122.438 133.403L119.537 127.926L121.394 124.408L117.173 120.585L116.586 115.225L112.386 114.269ZM108.548 129.301C111.163 130.811 113.282 129.587 113.282 126.568C113.282 123.548 111.163 119.877 108.548 118.367C105.933 116.857 103.813 118.081 103.813 121.1C103.813 124.12 105.933 127.792 108.548 129.301Z" fill="#C20C0A"/>
<path fill-rule="evenodd" clip-rule="evenodd" d="M109.228 115.903L106.383 110.403L103.538 112.618L99.3386 108.724L98.7514 113.406L94.5306 112.355L96.3877 118.018L93.4858 120.144L97.1975 124.989L96.5357 129.616L100.924 132.106L102.712 137.766L106.383 137.109L110.054 142.005L111.843 138.41L116.231 140.987L115.569 135.596L119.281 135.036L116.379 129.56L118.236 126.041L114.015 122.219L113.428 116.858L109.228 115.903ZM105.68 130.608C108.295 132.118 110.414 130.894 110.414 127.875C110.414 124.855 108.295 121.183 105.68 119.674C103.065 118.164 100.945 119.388 100.945 122.407C100.945 125.427 103.065 129.098 105.68 130.608Z" fill="#FE4947"/>
</g>
<defs>
<filter id="filter0_f_3281_313694" x="117.937" y="52.1598" width="64.0996" height="64.0995" filterUnits="userSpaceOnUse" color-interpolation-filters="sRGB">
<feFlood flood-opacity="0" result="BackgroundImageFix"/>
<feBlend mode="normal" in="SourceGraphic" in2="BackgroundImageFix" result="shape"/>
<feGaussianBlur stdDeviation="5.93969" result="effect1_foregroundBlur_3281_313694"/>
</filter>
<filter id="filter1_i_3281_313694" x="129.627" y="63.4491" width="36.1178" height="36.518" filterUnits="userSpaceOnUse" color-interpolation-filters="sRGB">
<feFlood flood-opacity="0" result="BackgroundImageFix"/>
<feBlend mode="normal" in="SourceGraphic" in2="BackgroundImageFix" result="shape"/>
<feColorMatrix in="SourceAlpha" type="matrix" values="0 0 0 0 0 0 0 0 0 0 0 0 0 0 0 0 0 0 127 0" result="hardAlpha"/>
<feOffset dx="-4.60169" dy="-5.00184"/>
<feGaussianBlur stdDeviation="4.54713"/>
<feComposite in2="hardAlpha" operator="arithmetic" k2="-1" k3="1"/>
<feColorMatrix type="matrix" values="0 0 0 0 0.6 0 0 0 0 0.35795 0 0 0 0 0.3425 0 0 0 1 0"/>
<feBlend mode="normal" in2="shape" result="effect1_innerShadow_3281_313694"/>
</filter>
<filter id="filter2_f_3281_313694" x="140.742" y="83.2279" width="11.5099" height="10.8741" filterUnits="userSpaceOnUse" color-interpolation-filters="sRGB">
<feFlood flood-opacity="0" result="BackgroundImageFix"/>
<feBlend mode="normal" in="SourceGraphic" in2="BackgroundImageFix" result="shape"/>
<feGaussianBlur stdDeviation="1.56308" result="effect1_foregroundBlur_3281_313694"/>
</filter>
<filter id="filter3_f_3281_313694" x="65.5249" y="19.1439" width="64.0996" height="64.0995" filterUnits="userSpaceOnUse" color-interpolation-filters="sRGB">
<feFlood flood-opacity="0" result="BackgroundImageFix"/>
<feBlend mode="normal" in="SourceGraphic" in2="BackgroundImageFix" result="shape"/>
<feGaussianBlur stdDeviation="5.93969" result="effect1_foregroundBlur_3281_313694"/>
</filter>
<filter id="filter4_i_3281_313694" x="77.2147" y="30.4333" width="36.1178" height="36.518" filterUnits="userSpaceOnUse" color-interpolation-filters="sRGB">
<feFlood flood-opacity="0" result="BackgroundImageFix"/>
<feBlend mode="normal" in="SourceGraphic" in2="BackgroundImageFix" result="shape"/>
<feColorMatrix in="SourceAlpha" type="matrix" values="0 0 0 0 0 0 0 0 0 0 0 0 0 0 0 0 0 0 127 0" result="hardAlpha"/>
<feOffset dx="-4.60169" dy="-5.00184"/>
<feGaussianBlur stdDeviation="4.54713"/>
<feComposite in2="hardAlpha" operator="arithmetic" k2="-1" k3="1"/>
<feColorMatrix type="matrix" values="0 0 0 0 0.6 0 0 0 0 0.35795 0 0 0 0 0.3425 0 0 0 1 0"/>
<feBlend mode="normal" in2="shape" result="effect1_innerShadow_3281_313694"/>
</filter>
<filter id="filter5_f_3281_313694" x="88.3292" y="50.212" width="11.5099" height="10.8741" filterUnits="userSpaceOnUse" color-interpolation-filters="sRGB">
<feFlood flood-opacity="0" result="BackgroundImageFix"/>
<feBlend mode="normal" in="SourceGraphic" in2="BackgroundImageFix" result="shape"/>
<feGaussianBlur stdDeviation="1.56308" result="effect1_foregroundBlur_3281_313694"/>
</filter>
<filter id="filter6_f_3281_313694" x="45.5174" y="42.7891" width="64.0996" height="64.0995" filterUnits="userSpaceOnUse" color-interpolation-filters="sRGB">
<feFlood flood-opacity="0" result="BackgroundImageFix"/>
<feBlend mode="normal" in="SourceGraphic" in2="BackgroundImageFix" result="shape"/>
<feGaussianBlur stdDeviation="5.93969" result="effect1_foregroundBlur_3281_313694"/>
</filter>
<filter id="filter7_i_3281_313694" x="57.2074" y="54.0784" width="36.1178" height="36.518" filterUnits="userSpaceOnUse" color-interpolation-filters="sRGB">
<feFlood flood-opacity="0" result="BackgroundImageFix"/>
<feBlend mode="normal" in="SourceGraphic" in2="BackgroundImageFix" result="shape"/>
<feColorMatrix in="SourceAlpha" type="matrix" values="0 0 0 0 0 0 0 0 0 0 0 0 0 0 0 0 0 0 127 0" result="hardAlpha"/>
<feOffset dx="-4.60169" dy="-5.00184"/>
<feGaussianBlur stdDeviation="4.54713"/>
<feComposite in2="hardAlpha" operator="arithmetic" k2="-1" k3="1"/>
<feColorMatrix type="matrix" values="0 0 0 0 0.6 0 0 0 0 0.35795 0 0 0 0 0.3425 0 0 0 1 0"/>
<feBlend mode="normal" in2="shape" result="effect1_innerShadow_3281_313694"/>
</filter>
<filter id="filter8_f_3281_313694" x="68.3218" y="73.8571" width="11.5099" height="10.8741" filterUnits="userSpaceOnUse" color-interpolation-filters="sRGB">
<feFlood flood-opacity="0" result="BackgroundImageFix"/>
<feBlend mode="normal" in="SourceGraphic" in2="BackgroundImageFix" result="shape"/>
<feGaussianBlur stdDeviation="1.56308" result="effect1_foregroundBlur_3281_313694"/>
</filter>
<linearGradient id="paint0_linear_3281_313694" x1="94.5" y1="0" x2="18.1731" y2="181.276" gradientUnits="userSpaceOnUse">
<stop stop-color="#00A3FF"/>
<stop offset="1" stop-color="#CC00FF"/>
</linearGradient>
<radialGradient id="paint1_radial_3281_313694" cx="0" cy="0" r="1" gradientUnits="userSpaceOnUse" gradientTransform="translate(161.286 6.81487) rotate(90) scale(114.036)">
<stop stop-color="#FFE600"/>
<stop offset="1" stop-color="#1D1E25" stop-opacity="0"/>
</radialGradient>
<linearGradient id="paint2_linear_3281_313694" x1="180.212" y1="47.1089" x2="179.909" y2="239.935" gradientUnits="userSpaceOnUse">
<stop stop-color="#FAFF00"/>
<stop offset="0.520833" stop-color="#FF823C" stop-opacity="0.67"/>
<stop offset="1" stop-color="#B504E1" stop-opacity="0"/>
</linearGradient>
<linearGradient id="paint3_linear_3281_313694" x1="105.394" y1="35.9779" x2="105.09" y2="228.804" gradientUnits="userSpaceOnUse">
<stop stop-color="#FAFF00"/>
<stop offset="0.520833" stop-color="#FF823C" stop-opacity="0.67"/>
<stop offset="1" stop-color="#B504E1" stop-opacity="0"/>
</linearGradient>
<linearGradient id="paint4_linear_3281_313694" x1="127.202" y1="25.0741" x2="126.898" y2="217.9" gradientUnits="userSpaceOnUse">
<stop stop-color="#FAFF00"/>
<stop offset="0.520833" stop-color="#FF823C" stop-opacity="0.67"/>
<stop offset="1" stop-color="#B504E1" stop-opacity="0"/>
</linearGradient>
<clipPath id="clip0_3281_313694">
<path d="M0 22C0 9.84973 9.84974 0 22 0H167C179.15 0 189 9.84974 189 22V167C189 179.15 179.15 189 167 189H22C9.84973 189 0 179.15 0 167V22Z" fill="white"/>
</clipPath>
</defs>
</svg>
