<svg width="7" height="11" viewBox="0 0 7 11" fill="none" xmlns="http://www.w3.org/2000/svg">
<path d="M6.00094 5.49979C6.00128 5.67503 5.94025 5.84486 5.82844 5.97979L2.07844 10.4798C1.95114 10.633 1.7682 10.7293 1.56988 10.7476C1.37156 10.7658 1.1741 10.7046 1.02094 10.5773C0.867776 10.45 0.771458 10.2671 0.753174 10.0687C0.734889 9.87042 0.796135 9.67296 0.923439 9.51979L4.28344 5.49979L1.04344 1.47979C0.98114 1.40307 0.934616 1.3148 0.906542 1.22005C0.878468 1.12529 0.869398 1.02593 0.879852 0.927654C0.890307 0.829383 0.920079 0.734146 0.96746 0.647419C1.01484 0.560691 1.07889 0.484182 1.15594 0.422291C1.23305 0.353605 1.32352 0.301586 1.42168 0.269492C1.51984 0.237397 1.62356 0.22592 1.72636 0.235778C1.82916 0.245635 1.92881 0.276614 2.01908 0.326776C2.10934 0.376939 2.18828 0.445204 2.25094 0.527291L5.87344 5.02729C5.96758 5.1661 6.01247 5.33247 6.00094 5.49979Z" fill="white"/>
</svg>
