<svg width="9" height="6" viewBox="0 0 9 6" fill="none" xmlns="http://www.w3.org/2000/svg">
<path d="M4.50078 5.00005C4.35475 5.00034 4.21323 4.94948 4.10078 4.8563L0.350783 1.7313C0.223147 1.62521 0.142882 1.47277 0.127645 1.3075C0.112407 1.14224 0.163446 0.977685 0.269533 0.85005C0.375619 0.722415 0.528064 0.64215 0.69333 0.626912C0.858597 0.611675 1.02315 0.662713 1.15078 0.7688L4.50078 3.5688L7.85078 0.8688C7.91471 0.816884 7.98827 0.778114 8.06724 0.75472C8.1462 0.731325 8.229 0.723766 8.3109 0.732478C8.39279 0.74119 8.47215 0.766001 8.54443 0.805484C8.6167 0.844968 8.68046 0.898346 8.73203 0.96255C8.78927 1.02681 8.83262 1.10221 8.85937 1.184C8.88611 1.2658 8.89568 1.35223 8.88746 1.4379C8.87925 1.52356 8.85343 1.60661 8.81163 1.68183C8.76983 1.75706 8.71294 1.82283 8.64453 1.87505L4.89453 4.8938C4.77886 4.97225 4.64022 5.00966 4.50078 5.00005Z" fill="white"/>
</svg>
