<svg width="15" height="8" viewBox="0 0 15 8" fill="none" xmlns="http://www.w3.org/2000/svg">
<path d="M7.50055 7.33331C7.27663 7.33375 7.05963 7.25577 6.88722 7.1129L1.13722 2.32123C0.941508 2.15856 0.818435 1.92481 0.795071 1.67141C0.771707 1.418 0.849966 1.16569 1.01263 0.969979C1.1753 0.774271 1.40905 0.651198 1.66246 0.627835C1.91586 0.604471 2.16817 0.682729 2.36388 0.845396L7.50055 5.13873L12.6372 0.99873C12.7352 0.919125 12.848 0.859678 12.9691 0.823806C13.0902 0.787934 13.2172 0.776344 13.3427 0.789702C13.4683 0.80306 13.59 0.841103 13.7008 0.901645C13.8116 0.962186 13.9094 1.04403 13.9885 1.14248C14.0762 1.24102 14.1427 1.35662 14.1837 1.48204C14.2247 1.60746 14.2394 1.74 14.2268 1.87135C14.2142 2.0027 14.1746 2.13004 14.1105 2.24538C14.0464 2.36072 13.9592 2.46158 13.8543 2.54165L8.1043 7.1704C7.92693 7.29068 7.71436 7.34804 7.50055 7.33331V7.33331Z" fill="white"/>
</svg>
