<svg width="42" height="32" viewBox="0 0 42 32" fill="none" xmlns="http://www.w3.org/2000/svg">
<path d="M0 4.12193C0 2.45183 2.02431 1.37963 3.50787 2.14664C7.04105 3.97331 13.0965 6.30303 21 6.30303C28.9035 6.30303 34.9589 3.97331 38.4921 2.14664C39.9757 1.37963 42 2.45183 42 4.12193V30C42 31.1046 41.1046 32 40 32H2C0.89543 32 0 31.1046 0 30V4.12193Z" fill="#FF9648"/>
<path d="M0 26.668V27.0922C0 28.1968 0.895431 29.0922 2 29.0922H40C41.1046 29.0922 42 28.1968 42 27.0922V26.668V30.0013C42 31.1059 41.1046 32.0013 40 32.0013H2C0.89543 32.0013 0 31.1059 0 30.0013V26.668Z" fill="black" fill-opacity="0.3"/>
</svg>
