<svg width="21" height="44" viewBox="0 0 21 44" fill="none" xmlns="http://www.w3.org/2000/svg">
<path d="M2.22529e-05 1.63929C1.57808e-05 0.638194 1.5022 0.120786 2.22544 0.812977C4.03552 2.54535 6.88007 4.50024 10.5 4.50024C14.12 4.50024 16.9645 2.54531 18.7746 0.81292C19.4978 0.120731 21 0.63812 21 1.63921L21.0003 42.0004C21.0003 43.105 20.1049 44.0004 19.0003 44.0004H2.00028C0.895718 44.0004 0.000290327 43.105 0.000283186 42.0004L2.22529e-05 1.63929Z" fill="#FFBF57"/>
<path d="M0 38.667V39.0912C0 40.1958 0.895431 41.0912 2 41.0912H19C20.1046 41.0912 21 40.1958 21 39.0912V38.667V42.0003C21 43.1049 20.1046 44.0003 19 44.0003H2C0.89543 44.0003 0 43.1049 0 42.0003V38.667Z" fill="black" fill-opacity="0.3"/>
</svg>
