<svg width="64" height="92" viewBox="0 0 64 92" fill="none" xmlns="http://www.w3.org/2000/svg">
<path d="M0 4C0 1.79086 1.79086 0 4 0H60C62.2091 0 64 1.79086 64 4V88C64 90.2091 62.2091 92 60 92H4C1.79086 92 0 90.2091 0 88V4Z" fill="url(#paint0_linear_2928_266603)"/>
<path d="M8.56342 5.37389V17.018H6.11582V5.37389H8.56342ZM17.1622 7.55154V14.8044C17.1622 16.3881 16.4183 17.18 14.9306 17.18H12.7889C11.3012 17.18 10.5573 16.3881 10.5573 14.8044V7.55154C10.5573 5.9678 11.3012 5.17592 12.7889 5.17592H14.9306C16.4183 5.17592 17.1622 5.9678 17.1622 7.55154ZM14.7146 15.0923V7.24559C14.7146 7.1496 14.6786 7.06562 14.6066 6.99363C14.5466 6.92164 14.4687 6.88565 14.3727 6.88565H13.3468C13.2509 6.88565 13.1669 6.92164 13.0949 6.99363C13.0349 7.06562 13.0049 7.1496 13.0049 7.24559V15.0923C13.0049 15.1883 13.0349 15.2723 13.0949 15.3443C13.1669 15.4163 13.2509 15.4523 13.3468 15.4523H14.3727C14.4687 15.4523 14.5466 15.4163 14.6066 15.3443C14.6786 15.2723 14.7146 15.1883 14.7146 15.0923Z" fill="black"/>
<path d="M49.7511 74.3739V86.018H47.3035V74.3739H49.7511ZM58.3499 76.5515V83.8044C58.3499 85.3881 57.606 86.18 56.1182 86.18H53.9766C52.4888 86.18 51.7449 85.3881 51.7449 83.8044V76.5515C51.7449 74.9678 52.4888 74.1759 53.9766 74.1759H56.1182C57.606 74.1759 58.3499 74.9678 58.3499 76.5515ZM55.9023 84.0923V76.2456C55.9023 76.1496 55.8663 76.0656 55.7943 75.9936C55.7343 75.9216 55.6563 75.8856 55.5603 75.8856H54.5345C54.4385 75.8856 54.3545 75.9216 54.2825 75.9936C54.2225 76.0656 54.1925 76.1496 54.1925 76.2456V84.0923C54.1925 84.1883 54.2225 84.2723 54.2825 84.3443C54.3545 84.4163 54.4385 84.4523 54.5345 84.4523H55.5603C55.6563 84.4523 55.7343 84.4163 55.7943 84.3443C55.8663 84.2723 55.9023 84.1883 55.9023 84.0923Z" fill="black"/>
<path d="M32 58.0258C30.983 63.0668 26 65 26 65H30.8441H33.1559H38C38 65 33.017 63.0668 32 58.0258Z" fill="black"/>
<circle cx="40" cy="51" r="9" fill="black"/>
<circle cx="32" cy="38" r="9" fill="black"/>
<circle cx="24" cy="51" r="9" fill="black"/>
<g clip-path="url(#clip0_2928_266603)">
<path d="M53 14.6751C52.661 16.3555 51 16.9998 51 16.9998H52.6147H53.3853H55C55 16.9998 53.339 16.3555 53 14.6751Z" fill="black"/>
<circle cx="55.667" cy="12.3335" r="3" fill="black"/>
<circle cx="53" cy="8" r="3" fill="black"/>
<circle cx="50.333" cy="12.3335" r="3" fill="black"/>
</g>
<g clip-path="url(#clip1_2928_266603)">
<path d="M11 83.6751C10.661 85.3555 9 85.9998 9 85.9998H10.6147H11.3853H13C13 85.9998 11.339 85.3555 11 83.6751Z" fill="black"/>
<circle cx="13.667" cy="81.3335" r="3" fill="black"/>
<circle cx="11" cy="77" r="3" fill="black"/>
<circle cx="8.33301" cy="81.3335" r="3" fill="black"/>
</g>
<defs>
<linearGradient id="paint0_linear_2928_266603" x1="2.06452" y1="92" x2="56.6415" y2="5.15165" gradientUnits="userSpaceOnUse">
<stop stop-color="#DAD7C9"/>
<stop offset="1" stop-color="#FFFCED"/>
</linearGradient>
<clipPath id="clip0_2928_266603">
<rect width="12" height="12" fill="white" transform="translate(47 5)"/>
</clipPath>
<clipPath id="clip1_2928_266603">
<rect width="12" height="12" fill="white" transform="translate(5 74)"/>
</clipPath>
</defs>
</svg>
