<svg width="64" height="92" viewBox="0 0 64 92" fill="none" xmlns="http://www.w3.org/2000/svg">
<path d="M0 4C0 1.79086 1.79086 0 4 0H60C62.2091 0 64 1.79086 64 4V88C64 90.2091 62.2091 92 60 92H4C1.79086 92 0 90.2091 0 88V4Z" fill="url(#paint0_linear_2928_266413)"/>
<path d="M8.11349 7.28158V9.35124C8.11349 9.44723 8.14349 9.53122 8.20348 9.6032C8.27547 9.67519 8.35945 9.71119 8.45544 9.71119H10.1652C11.6529 9.71119 12.3968 10.5031 12.3968 12.0868V14.8044C12.3968 16.3881 11.6529 17.18 10.1652 17.18H8.16748C6.67973 17.18 5.93585 16.3881 5.93585 14.8044V13.9405H8.32946V14.8583C8.32946 14.9543 8.35945 15.0383 8.41944 15.1103C8.49143 15.1823 8.57542 15.2183 8.6714 15.2183H9.73323C9.82921 15.2183 9.9072 15.1823 9.96719 15.1103C10.0392 15.0383 10.0752 14.9543 10.0752 14.8583V12.2848C10.0752 12.1888 10.0392 12.1048 9.96719 12.0328C9.9072 11.9608 9.82921 11.9248 9.73323 11.9248H8.04151C6.55375 11.9248 5.80987 11.133 5.80987 9.54921V5.3559H11.9289V7.28158H8.11349Z" fill="black"/>
<path d="M53.7828 76.2816V78.3512C53.7828 78.4472 53.8128 78.5312 53.8728 78.6032C53.9448 78.6752 54.0288 78.7112 54.1248 78.7112H55.8345C57.3222 78.7112 58.0661 79.5031 58.0661 81.0868V83.8044C58.0661 85.3881 57.3222 86.18 55.8345 86.18H53.8368C52.3491 86.18 51.6052 85.3881 51.6052 83.8044V82.9405H53.9988V83.8583C53.9988 83.9543 54.0288 84.0383 54.0888 84.1103C54.1608 84.1823 54.2447 84.2183 54.3407 84.2183H55.4026C55.4985 84.2183 55.5765 84.1823 55.6365 84.1103C55.7085 84.0383 55.7445 83.9543 55.7445 83.8583V81.2848C55.7445 81.1888 55.7085 81.1048 55.6365 81.0328C55.5765 80.9608 55.4985 80.9248 55.4026 80.9248H53.7108C52.2231 80.9248 51.4792 80.133 51.4792 78.5492V74.3559H57.5982V76.2816H53.7828Z" fill="black"/>
<path d="M32 58.0258C30.983 63.0668 26 65 26 65H30.8441H33.1559H38C38 65 33.017 63.0668 32 58.0258Z" fill="black"/>
<circle cx="40" cy="51" r="9" fill="black"/>
<circle cx="32" cy="38" r="9" fill="black"/>
<circle cx="24" cy="51" r="9" fill="black"/>
<g clip-path="url(#clip0_2928_266413)">
<path d="M53 14.6751C52.661 16.3555 51 16.9998 51 16.9998H52.6147H53.3853H55C55 16.9998 53.339 16.3555 53 14.6751Z" fill="black"/>
<circle cx="55.667" cy="12.3335" r="3" fill="black"/>
<circle cx="53" cy="8" r="3" fill="black"/>
<circle cx="50.333" cy="12.3335" r="3" fill="black"/>
</g>
<g clip-path="url(#clip1_2928_266413)">
<path d="M11 83.6751C10.661 85.3555 9 85.9998 9 85.9998H10.6147H11.3853H13C13 85.9998 11.339 85.3555 11 83.6751Z" fill="black"/>
<circle cx="13.667" cy="81.3335" r="3" fill="black"/>
<circle cx="11" cy="77" r="3" fill="black"/>
<circle cx="8.33301" cy="81.3335" r="3" fill="black"/>
</g>
<defs>
<linearGradient id="paint0_linear_2928_266413" x1="2.06452" y1="92" x2="56.6415" y2="5.15165" gradientUnits="userSpaceOnUse">
<stop stop-color="#DAD7C9"/>
<stop offset="1" stop-color="#FFFCED"/>
</linearGradient>
<clipPath id="clip0_2928_266413">
<rect width="12" height="12" fill="white" transform="translate(47 5)"/>
</clipPath>
<clipPath id="clip1_2928_266413">
<rect width="12" height="12" fill="white" transform="translate(5 74)"/>
</clipPath>
</defs>
</svg>
