<svg width="64" height="92" viewBox="0 0 64 92" fill="none" xmlns="http://www.w3.org/2000/svg">
<path d="M0 4C0 1.79086 1.79086 0 4 0H60C62.2091 0 64 1.79086 64 4V88C64 90.2091 62.2091 92 60 92H4C1.79086 92 0 90.2091 0 88V4Z" fill="url(#paint0_linear_2928_266451)"/>
<path d="M10.3631 9.94515C11.8509 9.94515 12.5948 10.737 12.5948 12.3208V14.8044C12.5948 16.3881 11.8509 17.18 10.3631 17.18H8.23947C6.75171 17.18 6.00784 16.3881 6.00784 14.8044V7.55154C6.00784 5.9678 6.75171 5.17592 8.23947 5.17592H10.1832C11.6709 5.17592 12.4148 5.9678 12.4148 7.55154V8.4154H10.1112V7.49755C10.1112 7.40156 10.0752 7.31758 10.0032 7.24559C9.9432 7.1736 9.86521 7.1376 9.76922 7.1376H8.59941C8.50343 7.1376 8.41944 7.1736 8.34746 7.24559C8.28746 7.31758 8.25747 7.40156 8.25747 7.49755V10.1791C8.58142 10.0231 8.98335 9.94515 9.46327 9.94515H10.3631ZM10.3631 14.6064V12.5187C10.3631 12.4227 10.3271 12.3388 10.2551 12.2668C10.1952 12.1948 10.1172 12.1588 10.0212 12.1588H8.59941C8.50343 12.1588 8.41944 12.1948 8.34746 12.2668C8.28746 12.3388 8.25747 12.4227 8.25747 12.5187V14.6064C8.25747 14.7024 8.28746 14.7864 8.34746 14.8583C8.41944 14.9303 8.50343 14.9663 8.59941 14.9663H10.0212C10.1172 14.9663 10.1952 14.9303 10.2551 14.8583C10.3271 14.7864 10.3631 14.7024 10.3631 14.6064Z" fill="black"/>
<path d="M55.9797 78.9451C57.4675 78.9451 58.2114 79.737 58.2114 81.3208V83.8044C58.2114 85.3881 57.4675 86.18 55.9797 86.18H53.8561C52.3683 86.18 51.6244 85.3881 51.6244 83.8044V76.5515C51.6244 74.9678 52.3683 74.1759 53.8561 74.1759H55.7998C57.2875 74.1759 58.0314 74.9678 58.0314 76.5515V77.4154H55.7278V76.4975C55.7278 76.4016 55.6918 76.3176 55.6198 76.2456C55.5598 76.1736 55.4818 76.1376 55.3858 76.1376H54.216C54.12 76.1376 54.036 76.1736 53.9641 76.2456C53.9041 76.3176 53.8741 76.4016 53.8741 76.4975V79.1791C54.198 79.0231 54.6 78.9451 55.0799 78.9451H55.9797ZM55.9797 83.6064V81.5187C55.9797 81.4227 55.9437 81.3388 55.8717 81.2668C55.8118 81.1948 55.7338 81.1588 55.6378 81.1588H54.216C54.12 81.1588 54.036 81.1948 53.9641 81.2668C53.9041 81.3388 53.8741 81.4227 53.8741 81.5187V83.6064C53.8741 83.7024 53.9041 83.7864 53.9641 83.8583C54.036 83.9303 54.12 83.9663 54.216 83.9663H55.6378C55.7338 83.9663 55.8118 83.9303 55.8717 83.8583C55.9437 83.7864 55.9797 83.7024 55.9797 83.6064Z" fill="black"/>
<path d="M32 58.0258C30.983 63.0668 26 65 26 65H30.8441H33.1559H38C38 65 33.017 63.0668 32 58.0258Z" fill="black"/>
<circle cx="40" cy="51" r="9" fill="black"/>
<circle cx="32" cy="38" r="9" fill="black"/>
<circle cx="24" cy="51" r="9" fill="black"/>
<g clip-path="url(#clip0_2928_266451)">
<path d="M53 14.6751C52.661 16.3555 51 16.9998 51 16.9998H52.6147H53.3853H55C55 16.9998 53.339 16.3555 53 14.6751Z" fill="black"/>
<circle cx="55.667" cy="12.3335" r="3" fill="black"/>
<circle cx="53" cy="8" r="3" fill="black"/>
<circle cx="50.333" cy="12.3335" r="3" fill="black"/>
</g>
<g clip-path="url(#clip1_2928_266451)">
<path d="M11 83.6751C10.661 85.3555 9 85.9998 9 85.9998H10.6147H11.3853H13C13 85.9998 11.339 85.3555 11 83.6751Z" fill="black"/>
<circle cx="13.667" cy="81.3335" r="3" fill="black"/>
<circle cx="11" cy="77" r="3" fill="black"/>
<circle cx="8.33301" cy="81.3335" r="3" fill="black"/>
</g>
<defs>
<linearGradient id="paint0_linear_2928_266451" x1="2.06452" y1="92" x2="56.6415" y2="5.15165" gradientUnits="userSpaceOnUse">
<stop stop-color="#DAD7C9"/>
<stop offset="1" stop-color="#FFFCED"/>
</linearGradient>
<clipPath id="clip0_2928_266451">
<rect width="12" height="12" fill="white" transform="translate(47 5)"/>
</clipPath>
<clipPath id="clip1_2928_266451">
<rect width="12" height="12" fill="white" transform="translate(5 74)"/>
</clipPath>
</defs>
</svg>
