<svg width="64" height="92" viewBox="0 0 64 92" fill="none" xmlns="http://www.w3.org/2000/svg">
<path d="M0 4C0 1.79086 1.79086 0 4 0H60C62.2091 0 64 1.79086 64 4V88C64 90.2091 62.2091 92 60 92H4C1.79086 92 0 90.2091 0 88V4Z" fill="url(#paint0_linear_2928_266489)"/>
<path d="M5.88186 5.3559H11.8209L9.40928 17H7.12365L9.01335 7.28158H5.88186V5.3559Z" fill="black"/>
<path d="M52.3069 74.3559H58.246L55.8343 86H53.5487L55.4384 76.2816H52.3069V74.3559Z" fill="black"/>
<path d="M32 58.0258C30.983 63.0668 26 65 26 65H30.8441H33.1559H38C38 65 33.017 63.0668 32 58.0258Z" fill="black"/>
<circle cx="40" cy="51" r="9" fill="black"/>
<circle cx="32" cy="38" r="9" fill="black"/>
<circle cx="24" cy="51" r="9" fill="black"/>
<g clip-path="url(#clip0_2928_266489)">
<path d="M53 14.6751C52.661 16.3555 51 16.9998 51 16.9998H52.6147H53.3853H55C55 16.9998 53.339 16.3555 53 14.6751Z" fill="black"/>
<circle cx="55.667" cy="12.3335" r="3" fill="black"/>
<circle cx="53" cy="8" r="3" fill="black"/>
<circle cx="50.333" cy="12.3335" r="3" fill="black"/>
</g>
<g clip-path="url(#clip1_2928_266489)">
<path d="M11 83.6751C10.661 85.3555 9 85.9998 9 85.9998H10.6147H11.3853H13C13 85.9998 11.339 85.3555 11 83.6751Z" fill="black"/>
<circle cx="13.667" cy="81.3335" r="3" fill="black"/>
<circle cx="11" cy="77" r="3" fill="black"/>
<circle cx="8.33301" cy="81.3335" r="3" fill="black"/>
</g>
<defs>
<linearGradient id="paint0_linear_2928_266489" x1="2.06452" y1="92" x2="56.6415" y2="5.15165" gradientUnits="userSpaceOnUse">
<stop stop-color="#DAD7C9"/>
<stop offset="1" stop-color="#FFFCED"/>
</linearGradient>
<clipPath id="clip0_2928_266489">
<rect width="12" height="12" fill="white" transform="translate(47 5)"/>
</clipPath>
<clipPath id="clip1_2928_266489">
<rect width="12" height="12" fill="white" transform="translate(5 74)"/>
</clipPath>
</defs>
</svg>
