<svg width="64" height="92" viewBox="0 0 64 92" fill="none" xmlns="http://www.w3.org/2000/svg">
<path d="M0 4C0 1.79086 1.79086 0 4 0H60C62.2091 0 64 1.79086 64 4V88C64 90.2091 62.2091 92 60 92H4C1.79086 92 0 90.2091 0 88V4Z" fill="url(#paint0_linear_2928_266717)"/>
<path d="M13.1527 5.3559L11.173 10.701L13.5306 17H10.957L9.22931 12.3927H8.41944V17H5.89985V5.3559H8.41944V10.2331H9.03134L10.849 5.3559H13.1527Z" fill="black"/>
<path d="M58.6638 74.3559L56.6841 79.701L59.0418 86H56.4682L54.7405 81.3927H53.9306V86H51.411V74.3559H53.9306V79.2331H54.5425L56.3602 74.3559H58.6638Z" fill="black"/>
<path d="M42.9639 49.3265C42.8878 57.4261 38.8105 61.3308 33.7717 61.6556C28.7329 61.9803 23.9902 58.333 23.6358 52.9379C23.6358 52.9379 23.3474 44.2298 23.4732 40.8657C23.6641 31.5735 36.3945 35.0179 42.7358 37.9016C42.8371 39.01 43.0247 42.8467 42.9639 49.3265Z" fill="url(#paint1_linear_2928_266717)"/>
<path d="M24.0136 51.6163C24.3189 51.6163 24.0136 41.2387 25.2345 39.7126L27.3711 38.5242C27.1676 36.4894 26.5088 35.5941 23.8229 38.5242C22.0725 40.4337 18.3616 52.1815 24.0136 51.6163Z" fill="#140D0A"/>
<path opacity="0.5" d="M40.5332 45.2826V46.7291V51.0186C40.5332 52.4569 43.4107 52.1315 43.9423 51.0186C45.3297 48.1144 44.0255 43.3623 42.454 43.3623C40.8824 43.3623 40.5332 44.3848 40.5332 45.2826Z" fill="#D07F5E"/>
<path d="M40.5332 45.2826V46.7291V51.0186C40.5332 52.4569 42.9149 52.1315 43.3549 51.0186C44.5033 48.1144 43.4238 43.3623 42.123 43.3623C40.8223 43.3623 40.5332 44.3848 40.5332 45.2826Z" fill="#FCC2A2"/>
<path d="M40.5332 46.559V47.2324V49.2294C40.5332 49.899 41.8728 49.7475 42.1203 49.2294C42.7662 47.8774 42.159 45.665 41.4274 45.665C40.6958 45.665 40.5332 46.1411 40.5332 46.559Z" fill="#D07F5E"/>
<path d="M40.5332 47.8116V48.1776V49.2631C40.5332 49.627 41.1001 49.5447 41.2049 49.2631C41.4782 48.5282 41.2213 47.3257 40.9116 47.3257C40.602 47.3257 40.5332 47.5844 40.5332 47.8116Z" fill="#FCC2A2"/>
<path d="M36.7722 45.9121C36.7168 46.8731 35.8969 47.6075 34.9408 47.5525C33.9847 47.4975 33.2546 46.6738 33.3099 45.7127C33.3653 44.7517 34.1852 44.0173 35.1413 44.0723C36.0973 44.1274 36.8275 44.9511 36.7722 45.9121Z" fill="#E89979"/>
<path d="M36.007 45.8265C36.007 46.5396 35.4288 47.1178 34.7154 47.1178C34.0021 47.1178 33.4238 46.5396 33.4238 45.8265C33.4238 45.1133 34.0021 44.5352 34.7154 44.5352C35.4288 44.5352 36.007 45.1133 36.007 45.8265Z" fill="#261611"/>
<path opacity="0.1" d="M35.8119 46.1065C35.8119 46.2959 35.3206 46.9651 34.7146 46.9651C34.1085 46.9651 33.6172 46.2959 33.6172 46.1065C33.6172 45.9172 34.1085 46.1985 34.7146 46.1985C35.3206 46.1985 35.8119 45.9172 35.8119 46.1065Z" fill="#F3CEC4"/>
<path d="M34.7156 45.3416C34.7156 45.6249 34.4859 45.8546 34.2025 45.8546C33.9192 45.8546 33.6895 45.6249 33.6895 45.3416C33.6895 45.0583 33.9192 44.8286 34.2025 44.8286C34.4859 44.8286 34.7156 45.0583 34.7156 45.3416Z" fill="#F3CEC4"/>
<path opacity="0.2" d="M35.401 45.3411C35.401 45.4448 35.3169 45.5288 35.2132 45.5288C35.1095 45.5288 35.0254 45.4448 35.0254 45.3411C35.0254 45.2374 35.1095 45.1533 35.2132 45.1533C35.3169 45.1533 35.401 45.2374 35.401 45.3411Z" fill="#F3CEC4"/>
<path d="M32.9025 43.2234C32.412 42.7518 32.5663 42.2067 33.0157 41.6767C33.4651 41.1467 37.2982 42.2237 37.7133 42.318C38.1283 42.4123 38.2227 42.9216 37.9019 43.2234C37.5812 43.5251 33.393 43.6949 32.9025 43.2234Z" fill="#3B2822"/>
<path opacity="0.5" d="M33.2379 43.1306C32.8147 42.9185 32.9478 42.6732 33.3356 42.4348C33.7234 42.1964 37.031 42.6809 37.3891 42.7233C37.7473 42.7657 37.8287 42.9948 37.5519 43.1306C37.2752 43.2664 33.6612 43.3427 33.2379 43.1306Z" fill="#201510"/>
<path d="M30.4647 43.2234C30.9552 42.7518 30.8009 42.2067 30.3515 41.6767C29.9021 41.1467 26.069 42.2237 25.6539 42.318C25.2389 42.4123 25.1445 42.9216 25.4653 43.2234C25.786 43.5251 29.9742 43.6949 30.4647 43.2234Z" fill="#3B2822"/>
<path opacity="0.5" d="M30.1293 43.1306C30.5525 42.9185 30.4194 42.6732 30.0316 42.4348C29.6438 42.1964 26.3362 42.6809 25.978 42.7233C25.6199 42.7657 25.5385 42.9948 25.8152 43.1306C26.092 43.2664 29.706 43.3427 30.1293 43.1306Z" fill="#201510"/>
<path d="M28.8366 45.9121C28.7813 46.8731 27.9613 47.6075 27.0053 47.5525C26.0492 47.4975 25.319 46.6738 25.3744 45.7127C25.4297 44.7517 26.2497 44.0173 27.2057 44.0723C28.1618 44.1274 28.892 44.9511 28.8366 45.9121Z" fill="#E89979"/>
<path d="M28.0715 45.8265C28.0715 46.5396 27.4932 47.1178 26.7799 47.1178C26.0666 47.1178 25.4883 46.5396 25.4883 45.8265C25.4883 45.1133 26.0666 44.5352 26.7799 44.5352C27.4932 44.5352 28.0715 45.1133 28.0715 45.8265Z" fill="#261611"/>
<path opacity="0.1" d="M27.8764 46.1065C27.8764 46.2959 27.3851 46.9651 26.779 46.9651C26.1729 46.9651 25.6816 46.2959 25.6816 46.1065C25.6816 45.9172 26.1729 46.1985 26.779 46.1985C27.3851 46.1985 27.8764 45.9172 27.8764 46.1065Z" fill="#F3CEC4"/>
<path d="M26.7801 45.3416C26.7801 45.6249 26.5504 45.8546 26.267 45.8546C25.9836 45.8546 25.7539 45.6249 25.7539 45.3416C25.7539 45.0583 25.9836 44.8286 26.267 44.8286C26.5504 44.8286 26.7801 45.0583 26.7801 45.3416Z" fill="#F3CEC4"/>
<path opacity="0.2" d="M27.4654 45.3411C27.4654 45.4448 27.3813 45.5288 27.2776 45.5288C27.1739 45.5288 27.0898 45.4448 27.0898 45.3411C27.0898 45.2374 27.1739 45.1533 27.2776 45.1533C27.3813 45.1533 27.4654 45.2374 27.4654 45.3411Z" fill="#F3CEC4"/>
<path d="M29.6795 50.8463L30.6667 44.5L31.8333 49.5L33 50.75V52H30.6676C30.054 52 29.5852 51.4526 29.6795 50.8463Z" fill="url(#paint2_linear_2928_266717)"/>
<path d="M24.0533 57.7077C23.7481 54.045 25.8846 53.1293 25.8846 53.1293C25.8846 53.1293 28.0212 52.4596 31.226 52.4892C34.4309 52.5189 36.8726 53.1293 36.8726 53.1293C36.8726 53.1293 38.0934 54.3502 38.3986 57.7077C38.7039 61.0651 33.9732 64.7278 31.226 64.7278C28.4789 64.7278 24.3585 61.3703 24.0533 57.7077Z" fill="#140D0A"/>
<path d="M30.7681 55.8765C31.6049 55.8765 32.4896 55.8287 33.1272 55.7331C33.3271 55.7031 33.487 55.9583 33.339 56.0961C32.62 56.7654 31.5411 57.4026 30.7681 57.4026C30.0347 57.4026 29.2554 56.829 28.7403 56.1986C28.6106 56.0398 28.8422 55.7489 29.045 55.7789C29.485 55.844 30.0778 55.8765 30.7681 55.8765Z" fill="#F35353"/>
<path d="M42.6719 54.0452C40.2301 53.8011 40.6371 45.7024 40.2301 40.6154L39.3145 36.9527C39.5179 34.9179 39.9859 34.633 42.6719 37.5631C44.4223 39.4726 48.324 54.6104 42.6719 54.0452Z" fill="#140D0A"/>
<path d="M34.7355 31.4586C35.634 31.5784 36.5263 31.7252 37.381 31.8844L39.7491 29.75L40.1951 32.4763C41.5649 32.7965 42.6652 33.1005 43.2806 33.2899L42.3649 36.3422C37.4814 36.9526 27.6532 38.1735 27.409 38.1735C27.1648 38.1735 24.4585 37.7665 23.1358 37.563L22.5254 35.4265C23.456 34.9613 24.7894 34.272 26.2865 33.5951L26.2865 30.25L28.9351 32.5033C30.9883 31.7519 33.0884 31.239 34.7355 31.4586Z" fill="#DEAD00"/>
<path d="M42.2222 35.9085C41.8753 38.7816 33.799 38.0123 28.698 38.3112L24.9991 39.2612C22.9741 38.9484 22.7091 38.3859 25.7506 35.3205C27.7326 33.3228 43.0251 29.2581 42.2222 35.9085Z" fill="#33221C"/>
<path d="M34.5709 39.0053C39.2133 38.7427 42.2419 38.1736 43.1758 37.9219L43.5887 29.9324L38.7045 34.2055L33.2106 29.3219L28.3257 35.4264L21.6121 31.1533L23.0694 38.6843C24.9689 38.9008 29.9285 39.2679 34.5709 39.0053Z" fill="#FBE315"/>
<path d="M34.4098 40.6817C39.0522 40.4191 43.4271 39.4216 43.1747 37.9224L43.2812 34.8164C43.2812 34.8164 42.2496 37.9224 32.2926 37.8686C22.3356 37.8148 22.5262 35.8365 22.5262 35.8365L23.0682 38.6849C23.2658 39.7612 29.7674 40.9443 34.4098 40.6817Z" fill="#FBC815"/>
<path d="M37.677 49.1378C37.6925 49.6303 36.8481 50.0566 35.7909 50.09C34.7336 50.1233 33.864 49.7511 33.8485 49.2585C33.8329 48.766 34.6774 48.3397 35.7346 48.3063C36.7918 48.273 37.6615 48.6452 37.677 49.1378Z" fill="#FCA28E"/>
<path d="M24.6902 49.1378C24.6746 49.6303 25.5191 50.0566 26.5763 50.09C27.6335 50.1233 28.5032 49.7511 28.5187 49.2585C28.5343 48.766 27.6898 48.3397 26.6326 48.3063C25.5754 48.273 24.7057 48.6452 24.6902 49.1378Z" fill="#FCA28E"/>
<path d="M31.5007 52.0103C32.0077 51.6993 33.001 50.7603 33.0009 52.0103L31.5007 52.0103Z" fill="#AA2727"/>
<g clip-path="url(#clip0_2928_266717)">
<path d="M53 14.6751C52.661 16.3555 51 16.9998 51 16.9998H52.6147H53.3853H55C55 16.9998 53.339 16.3555 53 14.6751Z" fill="black"/>
<circle cx="55.666" cy="12.3335" r="3" fill="black"/>
<circle cx="53" cy="8" r="3" fill="black"/>
<circle cx="50.334" cy="12.3335" r="3" fill="black"/>
</g>
<g clip-path="url(#clip1_2928_266717)">
<path d="M11 83.6751C10.661 85.3555 9 85.9998 9 85.9998H10.6147H11.3853H13C13 85.9998 11.339 85.3555 11 83.6751Z" fill="black"/>
<circle cx="13.666" cy="81.3335" r="3" fill="black"/>
<circle cx="11" cy="77" r="3" fill="black"/>
<circle cx="8.33398" cy="81.3335" r="3" fill="black"/>
</g>
<defs>
<linearGradient id="paint0_linear_2928_266717" x1="2.06452" y1="92" x2="56.6415" y2="5.15165" gradientUnits="userSpaceOnUse">
<stop stop-color="#DAD7C9"/>
<stop offset="1" stop-color="#FFFCED"/>
</linearGradient>
<linearGradient id="paint1_linear_2928_266717" x1="33.2086" y1="34.8159" x2="33.2086" y2="61.6756" gradientUnits="userSpaceOnUse">
<stop stop-color="#FFBC98"/>
<stop offset="1" stop-color="#FAC4A6"/>
</linearGradient>
<linearGradient id="paint2_linear_2928_266717" x1="31.1079" y1="46.0707" x2="31.1079" y2="52.1045" gradientUnits="userSpaceOnUse">
<stop stop-color="#F5B694"/>
<stop offset="1" stop-color="#FF7762"/>
</linearGradient>
<clipPath id="clip0_2928_266717">
<rect width="12" height="12" fill="white" transform="translate(47 5)"/>
</clipPath>
<clipPath id="clip1_2928_266717">
<rect width="12" height="12" fill="white" transform="translate(5 74)"/>
</clipPath>
</defs>
</svg>
