<svg width="33" height="33" viewBox="0 0 33 33" fill="none" xmlns="http://www.w3.org/2000/svg">
<path d="M11.3435 26.8125V29.3906C11.3435 29.6752 11.5745 29.9062 11.8592 29.9062H13.9217C14.0584 29.9062 14.1896 29.8519 14.2863 29.7552C14.383 29.6585 14.4373 29.5274 14.4373 29.3906V26.8125H15.4685V29.3906C15.4685 29.6752 15.6995 29.9062 15.9842 29.9062H18.0467C18.1834 29.9062 18.3146 29.8519 18.4113 29.7552C18.508 29.6585 18.5623 29.5274 18.5623 29.3906V26.8125H18.7355C22.844 26.8125 25.781 24.6819 25.781 20.9963C25.781 17.8984 23.7041 16.2051 21.2724 15.9637V15.7822C23.273 15.2831 24.7436 13.7734 24.7436 11.2654C24.7436 8.10562 22.3717 6.1875 18.752 6.1875H18.5623V3.60938C18.5623 3.47262 18.508 3.34147 18.4113 3.24477C18.3146 3.14807 18.1834 3.09375 18.0467 3.09375H15.9842C15.8474 3.09375 15.7163 3.14807 15.6196 3.24477C15.5229 3.34147 15.4685 3.47262 15.4685 3.60938V6.1875H14.2867V3.60938C14.2867 3.47262 14.2324 3.34147 14.1357 3.24477C14.039 3.14807 13.9078 3.09375 13.7711 3.09375H11.8592C11.7224 3.09375 11.5913 3.14807 11.4946 3.24477C11.3979 3.34147 11.3435 3.47262 11.3435 3.60938V6.1875L7.22266 6.21019C7.0859 6.21019 6.95475 6.26451 6.85805 6.36121C6.76136 6.45791 6.70703 6.58906 6.70703 6.72581V8.76562C6.70703 9.04819 6.93391 9.28125 7.21853 9.28125L8.77572 9.27094C9.18419 9.27366 9.57499 9.43784 9.86286 9.72764C10.1507 10.0174 10.3123 10.4093 10.3123 10.8178V22.1719C10.3123 22.5821 10.1493 22.9756 9.85921 23.2657C9.56912 23.5558 9.17566 23.7188 8.76541 23.7188L7.22266 23.7414C7.0859 23.7414 6.95475 23.7958 6.85805 23.8925C6.76136 23.9892 6.70703 24.1203 6.70703 24.2571V26.3196C6.70703 26.6042 6.93803 26.8352 7.22266 26.8352L11.3435 26.8125ZM14.2867 9.25444H17.8322C19.7008 9.25444 20.798 10.2816 20.798 11.9604C20.798 13.7569 19.6121 14.7696 16.9267 14.7696H14.2867V9.25444V9.25444ZM14.2867 17.6096H18.0817C20.4268 17.6096 21.7035 18.8059 21.7035 20.7529C21.7035 22.7184 20.4123 23.7435 17.2526 23.7435H14.2867V17.6117V17.6096Z" fill="url(#paint0_linear_961_34100)"/>
<defs>
<linearGradient id="paint0_linear_961_34100" x1="26.9279" y1="16.5" x2="3.87008" y2="16.5" gradientUnits="userSpaceOnUse">
<stop stop-color="#2C50FF"/>
<stop offset="1" stop-color="#4785F6"/>
</linearGradient>
</defs>
</svg>
