<svg width="29" height="29" viewBox="0 0 29 29" fill="none" xmlns="http://www.w3.org/2000/svg">
<path d="M9.96903 23.5625V25.8281C9.96903 26.0782 10.172 26.2812 10.4222 26.2812H12.2347C12.3548 26.2812 12.4701 26.2335 12.5551 26.1485C12.64 26.0636 12.6878 25.9483 12.6878 25.8281V23.5625H13.594V25.8281C13.594 26.0782 13.797 26.2812 14.0472 26.2812H15.8597C15.9798 26.2812 16.0951 26.2335 16.1801 26.1485C16.265 26.0636 16.3128 25.9483 16.3128 25.8281V23.5625H16.465C20.0755 23.5625 22.6565 21.6902 22.6565 18.4513C22.6565 15.7289 20.8313 14.2408 18.6944 14.0287V13.8692C20.4525 13.4306 21.7448 12.1039 21.7448 9.89987C21.7448 7.12312 19.6605 5.4375 16.4795 5.4375H16.3128V3.17188C16.3128 3.0517 16.265 2.93644 16.1801 2.85147C16.0951 2.76649 15.9798 2.71875 15.8597 2.71875H14.0472C13.927 2.71875 13.8117 2.76649 13.7267 2.85147C13.6418 2.93644 13.594 3.0517 13.594 3.17188V5.4375H12.5555V3.17188C12.5555 3.0517 12.5077 2.93644 12.4228 2.85147C12.3378 2.76649 12.2225 2.71875 12.1023 2.71875H10.4222C10.302 2.71875 10.1867 2.76649 10.1017 2.85147C10.0168 2.93644 9.96903 3.0517 9.96903 3.17188V5.4375L6.34766 5.45744C6.22748 5.45744 6.11223 5.50518 6.02725 5.59015C5.94227 5.67513 5.89453 5.79039 5.89453 5.91056V7.70312C5.89453 7.95144 6.09391 8.15625 6.34403 8.15625L7.71247 8.14719C8.07143 8.14958 8.41486 8.29386 8.66784 8.54853C8.92081 8.8032 9.06279 9.1476 9.06278 9.50656V19.4844C9.06278 19.8449 8.91956 20.1907 8.66463 20.4456C8.4097 20.7005 8.06394 20.8438 7.70341 20.8438L6.34766 20.8637C6.22748 20.8637 6.11223 20.9114 6.02725 20.9964C5.94227 21.0814 5.89453 21.1966 5.89453 21.3168V23.1293C5.89453 23.3794 6.09753 23.5824 6.34766 23.5824L9.96903 23.5625ZM12.5555 8.13269H15.6712C17.3133 8.13269 18.2775 9.03531 18.2775 10.5107C18.2775 12.0894 17.2353 12.9793 14.8755 12.9793H12.5555V8.13269V8.13269ZM12.5555 15.4751H15.8905C17.9513 15.4751 19.0732 16.5264 19.0732 18.2374C19.0732 19.9647 17.9386 20.8655 15.1618 20.8655H12.5555V15.4769V15.4751Z" fill="#6BFFA6"/>
</svg>
