<svg width="28" height="28" viewBox="0 0 28 28" fill="none" xmlns="http://www.w3.org/2000/svg">
<path d="M9.62541 22.75V24.9375C9.62541 25.179 9.82141 25.375 10.0629 25.375H11.8129C11.9289 25.375 12.0402 25.3289 12.1223 25.2469C12.2043 25.1648 12.2504 25.0535 12.2504 24.9375V22.75H13.1254V24.9375C13.1254 25.179 13.3214 25.375 13.5629 25.375H15.3129C15.4289 25.375 15.5402 25.3289 15.6223 25.2469C15.7043 25.1648 15.7504 25.0535 15.7504 24.9375V22.75H15.8974C19.3834 22.75 21.8754 20.9423 21.8754 17.815C21.8754 15.1865 20.1132 13.7497 18.0499 13.545V13.391C19.7474 12.9675 20.9952 11.6865 20.9952 9.5585C20.9952 6.8775 18.9827 5.25 15.9114 5.25H15.7504V3.0625C15.7504 2.94647 15.7043 2.83519 15.6223 2.75314C15.5402 2.67109 15.4289 2.625 15.3129 2.625H13.5629C13.4469 2.625 13.3356 2.67109 13.2535 2.75314C13.1715 2.83519 13.1254 2.94647 13.1254 3.0625V5.25H12.1227V3.0625C12.1227 2.94647 12.0766 2.83519 11.9945 2.75314C11.9125 2.67109 11.8012 2.625 11.6852 2.625H10.0629C9.94687 2.625 9.83559 2.67109 9.75355 2.75314C9.6715 2.83519 9.62541 2.94647 9.62541 3.0625V5.25L6.12891 5.26925C6.01287 5.26925 5.90159 5.31534 5.81955 5.39739C5.7375 5.47944 5.69141 5.59072 5.69141 5.70675V7.4375C5.69141 7.67725 5.88391 7.875 6.12541 7.875L7.44666 7.86625C7.79323 7.86856 8.12483 8.00786 8.36908 8.25375C8.61333 8.49964 8.75041 8.83216 8.75041 9.17875V18.8125C8.75041 19.1606 8.61213 19.4944 8.36598 19.7406C8.11984 19.9867 7.786 20.125 7.43791 20.125L6.12891 20.1442C6.01287 20.1442 5.90159 20.1903 5.81955 20.2724C5.7375 20.3544 5.69141 20.4657 5.69141 20.5817V22.3317C5.69141 22.5732 5.88741 22.7692 6.12891 22.7692L9.62541 22.75ZM12.1227 7.85225H15.1309C16.7164 7.85225 17.6474 8.72375 17.6474 10.1482C17.6474 11.6725 16.6412 12.5317 14.3627 12.5317H12.1227V7.85225ZM12.1227 14.9415H15.3427C17.3324 14.9415 18.4157 15.9565 18.4157 17.6085C18.4157 19.2763 17.3202 20.146 14.6392 20.146H12.1227V14.9432V14.9415Z" fill="url(#paint0_linear_961_34144)"/>
<defs>
<linearGradient id="paint0_linear_961_34144" x1="15.3977" y1="47.049" x2="-5.2015" y2="44.2026" gradientUnits="userSpaceOnUse">
<stop stop-color="#5C00F3"/>
<stop offset="1" stop-color="#905BFF"/>
</linearGradient>
</defs>
</svg>
