<svg width="43" height="42" viewBox="0 0 43 42" fill="none" xmlns="http://www.w3.org/2000/svg">
<path d="M15.2444 5.09099C8.95247 5.09099 3.81247 7.58726 3.4975 10.7255C3.67353 12.4826 5.51677 13.7032 6.71313 14.3315C8.83962 15.4186 11.88 16.1345 15.2444 16.1345C16.1942 16.1345 17.1174 16.0695 18.0006 15.9622C20.189 13.8442 23.1056 12.4817 26.335 12.3164C26.6534 11.8103 26.935 11.2686 26.9913 10.752C26.3539 6.13751 18.418 5.07533 15.2444 5.09099ZM3.4975 14.1194V15.8561C3.62639 17.1057 4.71954 18.39 6.71313 19.4092C8.7193 20.4348 11.5423 21.1236 14.68 21.1989C15.0954 19.9716 15.6909 18.8253 16.4256 17.7917C16.0362 17.8108 15.6434 17.8181 15.2444 17.8181C11.65 17.8181 8.38569 17.0869 5.95188 15.8427C5.00196 15.3571 4.16894 14.7735 3.4975 14.1194ZM3.4975 19.2103V20.9471C3.62639 22.1966 4.71954 23.4809 6.71313 24.5001C8.5766 25.4527 11.1405 26.1261 14.0106 26.2766C13.9939 26.0039 13.9844 25.7316 13.9844 25.4547C13.9844 24.5744 14.0705 23.7145 14.2338 22.8827C11.0429 22.7563 8.15378 22.0462 5.95188 20.9206C5.00196 20.4349 4.16894 19.8644 3.4975 19.2103ZM3.4975 24.3012C3.4975 24.8767 3.4975 25.4683 3.4975 26.038C3.62639 27.2875 4.71954 28.5718 6.71313 29.591C9.66477 31.0502 12.7349 31.3739 15.3888 31.394C14.8541 30.3289 14.4525 29.1811 14.2206 27.9736C11.035 27.8458 8.15077 27.1356 5.95188 26.0115C5.00196 25.5258 4.16894 24.9554 3.4975 24.3012ZM3.48438 29.3921V31.394C3.48438 34.6743 8.75143 37.3334 15.2444 37.3334C17.0736 37.3334 18.794 37.1134 20.3369 36.7368C18.7769 35.794 17.4207 34.5449 16.3731 33.0512C16.0008 33.069 15.6267 33.0911 15.2444 33.0911C11.65 33.0911 8.38569 32.3466 5.95188 31.1024C4.99879 30.6152 4.15693 30.0489 3.48438 29.3921Z" fill="#5960FF"/>
<path d="M16.124 25C16.124 18.9249 21.0489 14 27.124 14C33.1992 14 38.124 18.9249 38.124 25C38.124 31.0751 33.1992 36 27.124 36C21.0489 36 16.124 31.0751 16.124 25Z" fill="#5960FF"/>
</svg>
