<svg width="25" height="25" viewBox="0 0 25 25" fill="none" xmlns="http://www.w3.org/2000/svg">
<g clip-path="url(#clip0_964_148553)">
<path d="M24.6261 15.523C22.9559 22.223 16.1678 26.2958 9.47733 24.6256C2.77713 22.9555 -1.29572 16.1676 0.374498 9.47726C2.04462 2.77726 8.82294 -1.29559 15.5231 0.374621C22.2136 2.03497 26.2963 8.82286 24.6261 15.523Z" fill="url(#paint0_linear_964_148553)"/>
<path d="M18.4512 10.9424C18.6953 9.28223 17.4355 8.38379 15.6973 7.78808L16.2637 5.53223L14.8965 5.19043L14.3496 7.38769C13.9883 7.2998 13.6172 7.21191 13.2461 7.13379L13.793 4.92676L12.4258 4.58496L11.8691 6.83105C11.5664 6.76269 11.2734 6.69433 10.9902 6.62598V6.61621L9.0957 6.14746L8.73437 7.6123C8.73437 7.6123 9.75 7.84668 9.73047 7.85644C10.2871 7.99316 10.3848 8.36426 10.3652 8.65723L9.7207 11.2256C9.75977 11.2353 9.80859 11.2451 9.86719 11.2744C9.81836 11.2646 9.76953 11.2549 9.7207 11.2354L8.82227 14.8291C8.75391 14.9951 8.57812 15.249 8.19727 15.1514C8.20703 15.1709 7.20117 14.9072 7.20117 14.9072L6.51758 16.4795L8.30469 16.9287C8.63672 17.0166 8.95898 17.0947 9.28125 17.1826L8.71484 19.458L10.082 19.7998L10.6484 17.5439C11.0195 17.6416 11.3906 17.7393 11.7422 17.8271L11.1855 20.0732L12.5527 20.415L13.1191 18.1396C15.4629 18.5791 17.2207 18.4033 17.9531 16.2842C18.5488 14.585 17.9238 13.5986 16.6934 12.9541C17.6016 12.749 18.2754 12.1533 18.4512 10.9424ZM15.3164 15.3369C14.8965 17.0361 12.0254 16.1182 11.0977 15.8838L11.8496 12.8662C12.7773 13.1006 15.7656 13.5596 15.3164 15.3369ZM15.7461 10.9131C15.3555 12.4658 12.9727 11.6748 12.2012 11.4795L12.8848 8.74512C13.6563 8.94043 16.1465 9.30176 15.7461 10.9131Z" fill="white"/>
</g>
<defs>
<linearGradient id="paint0_linear_964_148553" x1="12.4932" y1="-0.00587792" x2="12.4932" y2="24.9976" gradientUnits="userSpaceOnUse">
<stop stop-color="#F9AA4B"/>
<stop offset="1" stop-color="#F7931A"/>
</linearGradient>
<clipPath id="clip0_964_148553">
<rect width="25" height="25" fill="white"/>
</clipPath>
</defs>
</svg>
