<svg width="17" height="17" viewBox="0 0 17 17" fill="none" xmlns="http://www.w3.org/2000/svg">
<rect width="17" height="17" rx="6" fill="#628CFF"/>
<g clip-path="url(#clip0_964_148277)">
<path d="M8.4999 4.00012L8.44531 4.22794V10.8387L8.4999 10.9056L10.9992 9.09173L8.4999 4.00012Z" fill="#F4F4F4"/>
<path d="M8.49926 4L6 9.09161L8.49926 10.9055V7.69683V4Z" fill="white"/>
<path d="M8.49951 11.4863L8.46875 11.5323V13.8872L8.49951 13.9975L11.0003 9.67334L8.49951 11.4863Z" fill="#F4F4F4"/>
<path d="M8.49926 13.9976V11.4863L6 9.67334L8.49926 13.9976Z" fill="white"/>
<path d="M8.5 10.9054L10.9992 9.09155L8.5 7.69678V10.9054Z" fill="white"/>
<path d="M6 9.09155L8.49922 10.9054V7.69678L6 9.09155Z" fill="white"/>
</g>
<defs>
<clipPath id="clip0_964_148277">
<rect width="5" height="10" fill="white" transform="translate(6 4)"/>
</clipPath>
</defs>
</svg>
