<svg width="27" height="27" viewBox="0 0 27 27" fill="none" xmlns="http://www.w3.org/2000/svg">
<path d="M5.91668 13.5001L8.08334 9.16675V8.08342H4.83334V9.16675H7.00001L4.83334 13.5001H5.91668ZM10.25 13.5001L12.4167 9.16675V8.08342H9.16668V9.16675H11.3333L9.16668 13.5001H10.25ZM14.5833 13.5001L16.75 9.16675V8.08342H13.5V9.16675H15.6667L13.5 13.5001H14.5833ZM23.25 2.66675C22.0583 2.66675 21.0833 3.64175 21.0833 4.83341C21.0833 5.59175 21.5167 6.35008 22.1667 6.67508V18.9167H18.9167V16.7501C19.5667 16.7501 20 16.3167 20 15.6667V5.91675C20 5.26675 19.5667 4.83341 18.9167 4.83341H14.8C13.9333 3.53341 12.4167 2.66675 10.7917 2.66675C9.16668 2.66675 7.65001 3.53341 6.78334 4.83341H2.66668C2.01668 4.83341 1.58334 5.26675 1.58334 5.91675V15.6667C1.58334 16.3167 2.01668 16.7501 2.66668 16.7501V24.3334H18.9167V21.0834H22.1667C23.3583 21.0834 24.3333 20.1084 24.3333 18.9167V6.67508C24.9833 6.35008 25.4167 5.59175 25.4167 4.83341C25.4167 3.64175 24.4417 2.66675 23.25 2.66675ZM3.75001 7.00008H17.8333V14.5834H3.75001V7.00008ZM16.75 22.1667H4.83334V16.7501H16.75V22.1667ZM14.5833 21.0834H7.00001V18.9167H14.5833V21.0834Z" fill="#6B6C77"/>
</svg>
