<svg width="49" height="19" viewBox="0 0 49 19" fill="none" xmlns="http://www.w3.org/2000/svg">
<path d="M7.71506 19.5972H7.67937H7.6401H7.60083H7.56157H7.5223L7.48303 19.5793H7.44729H7.4116L4.98389 18.5975C5.3399 17.5425 5.77302 16.515 6.27983 15.5236C6.95184 14.214 7.75321 12.9749 8.67189 11.8248L11.4031 12.9316C10.4844 14.0817 9.68306 15.3207 9.01105 16.6303C8.50804 17.5867 8.07491 18.5782 7.71506 19.5972Z" fill="#FFD000"/>
<path d="M18.0191 14.5061L15.2915 13.3993L18.0191 14.5061Z" fill="#CA820B"/>
<path d="M15.3379 13.3494L18.0691 14.4561L18.0191 14.5061L15.2915 13.3993L15.3379 13.3494Z" fill="#CA820B"/>
<path d="M18.2328 14.2705L18.0686 14.4561L15.3374 13.3493C15.3731 13.3136 15.4231 13.253 15.5016 13.1637L17.9044 14.1491L18.2328 14.2705Z" fill="#FCDF8F"/>
<path d="M15.5019 13.1637L18.2331 14.2705C18.2331 14.3347 18.2153 14.399 18.2081 14.4633L15.4805 13.3565L15.5019 13.1637Z" fill="#CA820B"/>
<path d="M15.4802 13.3564L18.2078 14.4632H18.0686L15.3374 13.3564H15.4802Z" fill="#CA820B"/>
<path d="M18.069 15.62L17.9119 15.5557L17.7441 15.4879L17.5692 15.4165L17.3942 15.3451L17.2157 15.2736L17.0407 15.2022L16.8765 15.1344L16.7159 15.0701L16.5552 15.0059L16.3838 14.9345L16.2089 14.8631L16.0268 14.7917L15.8483 14.7167L15.6698 14.6453L15.502 14.5775L15.3413 14.5132C15.3842 14.124 15.4306 13.7349 15.4806 13.3564L18.2082 14.4632C18.1618 14.8381 18.1154 15.2201 18.069 15.62Z" fill="#FCDF8F"/>
<path d="M18.0687 15.6201C18.0222 16.0164 17.9759 16.4091 17.9259 16.7911L15.1982 15.6843C15.2447 15.3023 15.291 14.9096 15.341 14.5133L18.0687 15.6201Z" fill="#FCDF8F"/>
<path d="M17.9686 16.966L15.2374 15.8628C15.1838 15.8414 15.166 15.7807 15.1981 15.6843L17.9258 16.7911C17.9044 16.8875 17.9044 16.9446 17.9686 16.966Z" fill="#FCDF8F"/>
<path d="M17.9685 16.966L15.2373 15.8628H15.2801C15.3049 15.8679 15.3304 15.8679 15.3551 15.8628L18.0863 16.9696C18.0614 16.9728 18.0363 16.9728 18.0114 16.9696C17.997 16.9726 17.9821 16.9713 17.9685 16.966Z" fill="#CA820B"/>
<path d="M17.4512 16.0377L20.1824 17.1445C20.0868 17.1082 19.9874 17.0831 19.8861 17.0695C19.6897 17.0445 19.4969 17.0302 19.3041 17.016C18.8793 16.991 18.4687 16.9838 18.0867 16.9696L15.3555 15.8628C15.7375 15.8628 16.1481 15.8842 16.5729 15.9092C16.7657 15.9092 16.9621 15.9413 17.1549 15.9628C17.2563 15.9759 17.3557 16.0011 17.4512 16.0377Z" fill="#CA820B"/>
<path d="M20.8682 9.2258L23.5958 10.329C23.3816 10.329 23.3281 10.4004 23.2888 10.6182L20.5576 9.51142C20.5969 9.29364 20.654 9.20795 20.8682 9.2258Z" fill="#FCDF8F"/>
<path d="M23.9273 10.3539C23.8202 10.3539 23.7095 10.3539 23.5953 10.3289L20.8677 9.22571L21.1961 9.2507L23.9273 10.3539Z" fill="#FCDF8F"/>
<path d="M20.1824 17.1444C20.4052 17.2349 20.5923 17.396 20.7148 17.603C20.8373 17.81 20.8886 18.0515 20.8607 18.2904L18.4508 17.3157L18.1331 17.1836C18.1595 16.9444 18.1072 16.7032 17.9841 16.4964C17.8611 16.2896 17.674 16.1285 17.4512 16.0376L20.1824 17.1444Z" fill="#FCDF8F"/>
<path d="M20.5572 9.50781L23.2884 10.6146C23.167 11.8641 23.0385 13.0459 22.9314 14.2955L20.2002 13.1887C20.3073 11.9427 20.4394 10.761 20.5572 9.50781Z" fill="#FCDF8F"/>
<path d="M20.3288 14.5061C19.6148 14.4633 18.9007 14.4847 18.2081 14.449L15.7982 13.4707L15.4805 13.3422C16.1945 13.3779 16.9086 13.3422 17.5976 13.4029L20.311 14.5025L19.9932 14.374L19.6576 14.2383L19.3006 14.0955L18.9436 13.9527L18.5866 13.8099L18.2296 13.6671L17.8725 13.5314L17.5584 13.4029C18.3152 13.4457 19.0685 13.4029 19.8647 13.4707C20.0396 13.4707 20.0932 13.3922 20.1325 13.178L22.8637 14.2847C22.8244 14.499 22.7708 14.5882 22.5923 14.5739C21.8319 14.5418 21.0929 14.5632 20.3288 14.5061Z" fill="#FCDF8F"/>
<path d="M23.9275 10.3539L21.207 9.25427C21.7711 9.28997 22.2995 9.29355 22.8743 9.28283L25.602 10.3896C25.0307 10.3896 24.5023 10.3896 23.9382 10.361L23.9275 10.3539Z" fill="#FCDF8F"/>
<path d="M22.9889 9.30786L25.7201 10.4146C25.6811 10.3997 25.6403 10.3901 25.5987 10.3861L22.8711 9.2793C22.9116 9.28288 22.9513 9.29251 22.9889 9.30786Z" fill="#FCDF8F"/>
<path d="M22.9888 9.30786L25.72 10.4146C25.8092 10.4503 25.8057 10.5182 25.77 10.636L23.0388 9.52921C23.0745 9.4114 23.0816 9.34356 22.9888 9.30786Z" fill="#CA820B"/>
<path d="M23.0386 9.52905L25.7698 10.6358C25.6413 11.8176 25.5163 13.0707 25.3878 14.2524L22.6602 13.1457C22.7887 11.9639 22.903 10.7144 23.0386 9.52905Z" fill="#CA820B"/>
<path d="M22.66 13.1458L25.3877 14.2525C25.404 14.3512 25.3929 14.4525 25.3556 14.5453L22.6279 13.4385C22.6617 13.3448 22.6727 13.2445 22.66 13.1458Z" fill="#CA820B"/>
<path d="M18.1327 17.1837L20.8603 18.2905C20.5033 22.1177 20.0784 25.8879 19.65 29.6544L16.9224 28.5477C17.3508 24.7811 17.7792 21.011 18.1327 17.1837Z" fill="#FCDF8F"/>
<path d="M24.9667 9.52905L27.6943 10.6358L27.5979 11.5248L24.8667 10.418L24.9667 9.52905Z" fill="#FCDF8F"/>
<path d="M22.5456 16.6481L25.2769 17.7549H25.2412C25.0627 17.7549 25.0091 17.8298 24.9698 18.0405L22.2422 16.9337C22.2779 16.7231 22.3314 16.6374 22.51 16.6481H22.5456Z" fill="#CA820B"/>
<path d="M26.6051 14.5775C26.1874 14.5775 25.7554 14.5775 25.3556 14.5454L22.6279 13.4386C23.0242 13.4386 23.4562 13.46 23.8739 13.4707L26.6051 14.5775Z" fill="#FCDF8F"/>
<path d="M26.6052 14.5774H26.5588L26.466 14.5382L26.4196 14.5203L26.3196 14.481L26.2197 14.4382L26.1697 14.4203L26.0697 14.3775L25.9733 14.3382L25.8805 14.3025L25.7234 14.2383L25.4878 14.1419L25.2379 14.0419L24.9844 13.9384L24.7273 13.8348L24.4703 13.7313L24.2239 13.6313L23.9847 13.5349L23.874 13.4885H24.3525L27.0836 14.5953L26.6052 14.5774Z" fill="#FCDF8F"/>
<path d="M24.5275 13.2314L27.2586 14.3382C27.2015 14.4239 27.148 14.5774 27.0837 14.5917L24.3525 13.4849C24.4204 13.4706 24.4704 13.3171 24.5275 13.2314Z" fill="#FCDF8F"/>
<path d="M27.598 11.525C27.4445 12.4961 27.3445 13.378 27.241 14.3384L24.5098 13.2316C24.599 12.2748 24.6954 11.3929 24.8668 10.4254L27.5873 11.5286L27.2695 11.4001L26.9339 11.2644L26.5769 11.1216L26.2199 10.9788L24.8596 10.4254L27.598 11.525Z" fill="#FCDF8F"/>
<path d="M22.2318 16.9124L24.9595 18.0191C24.8059 19.5686 24.6417 21.0467 24.4239 22.6068L21.6963 21.5001C21.9141 19.9399 22.0783 18.4618 22.2318 16.9124Z" fill="#CA820B"/>
<path d="M11.4031 12.8281L11.2496 12.7674L11.0889 12.7031L10.9211 12.6353L10.7497 12.5639L10.5784 12.4961L10.4141 12.4282L10.2499 12.364L10.1 12.2997L9.38592 12.0105L9.20026 11.9356L9.0146 11.8606L8.83966 11.7892L8.67188 11.7213C10.2084 9.78956 12.0731 8.14354 14.1807 6.85872C17.3889 4.87868 21.1272 3.93039 24.8913 4.14179C26.283 4.23249 27.6584 4.49389 28.9864 4.9201L31.714 6.02686C30.3873 5.60066 29.0131 5.33926 27.6225 5.24856C23.8584 5.03715 20.1201 5.98545 16.9119 7.96548C14.8028 9.24825 12.9377 10.8946 11.4031 12.8281Z" fill="#FFD000"/>
<path d="M27.8765 10.4504C27.723 10.4504 27.6802 10.5146 27.6944 10.636L24.9668 9.52924C24.9668 9.40785 24.9918 9.32931 25.1489 9.34359L25.4131 9.36501C25.9772 9.40071 26.5412 9.40071 27.266 9.46498L29.9972 10.5717C29.2832 10.5075 28.7084 10.5075 28.1443 10.4718L27.8765 10.4504Z" fill="#FCDF8F"/>
<path d="M29.9966 10.5789L29.8395 10.5182L29.5146 10.3861L29.1576 10.2469L28.8006 10.1041L28.4436 9.96129L28.0865 9.81848L27.7295 9.67924L27.4046 9.54714L27.2476 9.48645L29.9787 10.5932L29.9966 10.5789Z" fill="#FCDF8F"/>
<path d="M27.2945 9.43982L30.0257 10.5466C30.0533 11.4723 30.0068 12.3988 29.8865 13.3171L27.1553 12.2103C27.2773 11.2922 27.3239 10.3656 27.2945 9.43982Z" fill="#CA820B"/>
<path d="M30.165 10.5788H30.0007L27.2695 9.47205H27.4337L30.165 10.5788Z" fill="#FCDF8F"/>
<path d="M31.7247 6.02693L31.6319 5.98766L31.532 5.94838L31.4284 5.90554L31.3213 5.8627L31.2178 5.81986L31.1142 5.77702L31.0142 5.73774L30.9214 5.69847L30.8108 5.65563L30.5787 5.55923L30.3359 5.46284L30.0824 5.3593L29.8325 5.25933L29.5826 5.1558L29.3398 5.0594L29.1078 4.96301L28.9971 4.92017C29.3934 5.04512 29.7825 5.18793 30.1681 5.34502L32.8993 6.45178C32.5137 6.2947 32.121 6.15189 31.7247 6.02693Z" fill="#FFD000"/>
<path d="M25.5306 16.8947L28.2618 18.0014C27.7589 17.9006 27.2495 17.8361 26.7373 17.8086C26.2553 17.7765 25.7698 17.7622 25.2664 17.7372L22.5459 16.6483C23.0529 16.6733 23.5384 16.6876 24.0168 16.7197C24.525 16.7416 25.0308 16.8001 25.5306 16.8947Z" fill="#CA820B"/>
<path d="M27.1554 12.2104L29.8866 13.3172C29.8708 13.6905 29.8242 14.0619 29.7473 14.4275L27.0161 13.3208C27.0932 12.9552 27.1398 12.5838 27.1554 12.2104Z" fill="#CA820B"/>
<path d="M10.4857 38.6657C12.3442 41.1225 14.8306 43.033 17.6833 44.1959L14.952 43.0892C12.0994 41.9262 9.613 40.0158 7.75449 37.5589C5.44426 34.4822 4.09199 30.7928 3.86658 26.9518C3.68222 24.0866 4.06189 21.2131 4.98405 18.494L7.71523 19.5972C6.79323 22.3175 6.41358 25.1922 6.59775 28.0586C6.82316 31.8996 8.17547 35.5889 10.4857 38.6657Z" fill="#FFD000"/>
<path d="M29.84 14.6989L27.1088 13.5921C27.016 13.5529 26.9874 13.4815 27.016 13.3208L29.7472 14.4276C29.7186 14.5847 29.7472 14.6596 29.84 14.6989Z" fill="#CA820B"/>
<path d="M29.8396 14.6989L27.1084 13.5922C27.157 13.6085 27.2073 13.6193 27.2583 13.6243L29.9895 14.7311C29.9385 14.726 29.8882 14.7153 29.8396 14.6989Z" fill="#FCDF8F"/>
<path d="M26.1515 17.0873L28.8827 18.1941C28.6812 18.1131 28.4734 18.0487 28.2615 18.0013L25.5303 16.8945C25.7422 16.9419 25.95 17.0064 26.1515 17.0873Z" fill="#CA820B"/>
<path d="M29.9644 18.9866L27.2332 17.8799C26.9559 17.5222 26.5852 17.2479 26.1621 17.0873L28.8933 18.194C29.316 18.3555 29.6864 18.6296 29.9644 18.9866Z" fill="#FCDF8F"/>
<path d="M29.5968 14.1811L32.328 15.2879L29.9895 14.7309L27.2583 13.6241L29.5968 14.1811Z" fill="#FCDF8F"/>
<path d="M32.3279 15.2879L31.496 14.9309L31.3211 14.8595L30.964 14.7167L30.7855 14.6453L30.4285 14.4989L30.0715 14.3597L29.9037 14.2919L29.5859 14.1633L29.7216 14.2169L32.4528 15.3236L32.3279 15.2879Z" fill="#FCDF8F"/>
<path d="M29.9651 18.9866C30.2464 19.3854 30.3868 19.8666 30.3642 20.354C30.3415 20.8415 30.1571 21.3076 29.8401 21.6786L29.5224 21.5501L29.1654 21.4144L28.8083 21.2716L28.4513 21.1252L28.0943 20.9824L27.7373 20.8396L27.3803 20.7039L27.0625 20.5718C27.379 20.2004 27.5627 19.7341 27.5847 19.2467C27.6067 18.7592 27.4656 18.2783 27.1839 17.8799C28.055 18.2119 29.2582 18.4547 29.9651 18.9866Z" fill="#FCDF8F"/>
<path d="M29.7363 14.2346L32.4675 15.3414C33.1535 15.6168 33.7712 16.0383 34.2776 16.5767L31.5464 15.4735C31.0414 14.9325 30.4234 14.5095 29.7363 14.2346Z" fill="#CA820B"/>
<path d="M31.5459 15.4735L34.2771 16.5767C34.6215 17.0302 34.8708 17.5485 35.01 18.1006C35.1493 18.6528 35.1757 19.2273 35.0876 19.7899L32.3563 18.6831C32.4446 18.1211 32.4183 17.5471 32.279 16.9955C32.1397 16.444 31.8903 15.9263 31.5459 15.4735Z" fill="#CA820B"/>
<path d="M32.3567 18.6797L35.0879 19.7864C35.0208 20.588 34.7625 21.3617 34.3346 22.0428C33.9643 22.541 33.5012 22.9629 32.9708 23.2853L30.2432 22.1785C30.7732 21.857 31.2353 21.4349 31.6034 20.9361C32.0324 20.2555 32.2908 19.4815 32.3567 18.6797Z" fill="#CA820B"/>
<path d="M40.6291 17.6442C41.2799 20.1809 41.4542 22.8163 41.1432 25.4166C40.6746 29.3994 39.143 33.1828 36.709 36.37C34.355 39.4825 31.1621 41.8592 27.505 43.2212C25.1741 44.0794 22.6903 44.4441 20.211 44.2922C19.0025 44.2126 17.8058 44.0055 16.6408 43.6746C13.1 42.6488 9.98634 40.5046 7.7653 37.5624C5.45506 34.4856 4.10274 30.7963 3.87733 26.9553C3.62744 22.9641 4.46135 18.9796 6.2908 15.4236C8.08417 11.8937 10.8185 8.92826 14.1917 6.85506C17.3999 4.87502 21.1382 3.92673 24.9023 4.13813C27.3273 4.29717 29.6896 4.97663 31.8285 6.13031C33.9842 7.30216 35.8667 8.91817 37.3516 10.8715C38.8831 12.889 39.9973 15.1914 40.6291 17.6442ZM32.032 29.9864C32.5062 29.0994 32.8067 28.13 32.9174 27.1303C33.0322 26.3234 32.9775 25.5014 32.7567 24.7168C32.3904 23.8347 31.7152 23.1163 30.8574 22.6961C30.5611 22.5461 30.2754 22.464 29.9827 22.3141C30.1184 22.2855 30.1755 22.1998 30.2433 22.1855C30.7734 21.864 31.2355 21.4419 31.6036 20.9431C32.0326 20.2626 32.291 19.4885 32.3569 18.6867C32.4456 18.1242 32.4195 17.5495 32.2803 16.9973C32.141 16.445 31.8914 15.9267 31.5464 15.4735C31.0073 14.8972 30.341 14.4546 29.6007 14.1811L27.2586 13.6242C27.048 13.6027 26.9766 13.5456 27.0159 13.3207C27.093 12.9551 27.1395 12.5837 27.1551 12.2104C27.2479 11.3214 27.3479 10.4253 27.4336 9.47916C26.6267 9.40062 26.0055 9.40419 25.4128 9.36491L25.1487 9.34349C24.9916 9.34349 24.9487 9.40776 24.9666 9.52914L24.8666 10.4181C24.7131 11.3892 24.6167 12.2711 24.5096 13.2314C24.4525 13.3171 24.4025 13.4707 24.3346 13.4849C23.7813 13.4635 23.1636 13.4599 22.6102 13.4385C22.644 13.3449 22.655 13.2445 22.6424 13.1458C22.7709 11.964 22.8923 10.7145 23.0208 9.52914C23.0708 9.37205 23.0636 9.30779 22.853 9.27923C22.2782 9.27923 21.7498 9.27923 21.1857 9.25067L20.8501 9.22568C20.6359 9.22568 20.5788 9.29351 20.5395 9.51129C20.4217 10.7609 20.2896 11.9426 20.1825 13.1922C20.1432 13.4064 20.0897 13.4956 19.9147 13.4849C19.1114 13.4349 18.3581 13.4599 17.5941 13.4171C16.88 13.3743 16.166 13.3921 15.4769 13.3564L15.4984 13.1636C15.4198 13.2529 15.3699 13.3136 15.3342 13.3493H15.4769C15.3805 14.1097 15.2913 14.9237 15.1949 15.677C15.1521 15.7984 15.1949 15.8591 15.277 15.8627C15.3018 15.8678 15.3273 15.8678 15.352 15.8627C15.734 15.8627 16.1446 15.8841 16.5694 15.9091C16.7622 15.9091 16.9586 15.9412 17.1514 15.9627C17.2959 15.9782 17.436 16.0222 17.5635 16.092C17.691 16.1619 17.8035 16.2563 17.8944 16.3698C17.9853 16.4832 18.0529 16.6135 18.0933 16.7532C18.1336 16.8929 18.146 17.0392 18.1296 17.1837C17.7726 21.0109 17.3477 24.7811 16.9193 28.5476C16.922 28.6671 16.8992 28.7857 16.8525 28.8957C16.8058 29.0056 16.7362 29.1044 16.6485 29.1854C16.5607 29.2665 16.4567 29.3279 16.3433 29.3657C16.23 29.4034 16.1099 29.4167 15.9911 29.4045C15.5513 29.4348 15.1099 29.4348 14.6701 29.4045H14.4773C14.2738 29.4545 14.206 29.4687 14.1667 29.6937C14.0346 30.297 13.8454 30.9897 13.6561 31.6787C13.5562 31.9893 13.5169 32.2178 13.4134 32.5284C15.0735 32.5855 16.6658 32.6605 18.2581 32.7355C18.2581 32.8747 18.2153 32.9604 18.226 33.0318C18.0297 34.2278 17.9083 35.481 17.7869 36.7341C17.7369 36.8876 17.7476 36.9555 17.9583 36.984C18.5616 36.984 19.165 36.9662 19.7719 37.0055H20.0254C20.236 37.0055 20.2289 36.9483 20.2753 36.8055C20.3324 36.145 20.4574 35.4667 20.511 34.8062C20.5645 34.1457 20.6894 33.471 20.7466 32.8105C21.3642 32.8105 21.9176 32.8355 22.471 32.8533C22.6138 32.8961 22.5567 32.9818 22.5745 33.1211C22.3781 34.3171 22.2568 35.5667 22.1354 36.8198C22.0854 36.9733 22.0961 37.0447 22.3067 37.0697C22.9244 37.0697 23.617 37.1376 24.2382 37.1411L24.3918 37.1625C24.5917 37.1625 24.5881 37.084 24.6167 36.8412C24.7452 35.6559 24.8666 34.4063 24.9951 33.2246C25.0344 33.0104 25.1522 32.9069 25.3521 32.9211C26.7598 32.8796 28.1524 32.6182 29.4793 32.1464C30.5626 31.7652 31.4708 31.0041 32.0356 30.0043" fill="#EBA500"/>
<path d="M7.76529 37.5625C9.98634 40.5046 13.1 42.6489 16.6408 43.6746C-2.60117 31.2074 6.99055 13.9336 14.1917 6.8551C10.8185 8.92831 8.08417 11.8937 6.2908 15.4236C4.46135 18.9796 3.62744 22.9642 3.87733 26.9554C4.10274 30.7963 5.45506 34.4857 7.76529 37.5625Z" fill="#DF7900"/>
<path d="M16.2169 48.0662L13.4857 46.9594C10.0467 45.557 7.0461 43.2591 4.79579 40.3046C2.00355 36.5998 0.365544 32.154 0.0866618 27.5232C-0.218694 22.7143 0.788281 17.9127 2.99996 13.6316C5.16924 9.37615 8.4749 5.8048 12.5503 3.31367C16.4027 0.942395 20.8855 -0.200701 25.403 0.0362171L28.1342 1.14298C23.6167 0.906744 19.1342 2.04979 15.2815 4.42043C11.2066 6.91261 7.90206 10.4853 5.73475 14.7419C3.52137 19.0224 2.51429 23.8245 2.82145 28.6336C3.10033 33.2644 4.7383 37.7101 7.53053 41.4149C9.78144 44.3665 12.7804 46.6629 16.2169 48.0662Z" fill="#FFD000"/>
<path d="M22.0568 21.7608H21.8604C21.7212 21.7179 21.6462 21.6608 21.6962 21.5073C21.914 19.9471 22.0782 18.469 22.2317 16.9196C22.2674 16.7089 22.321 16.6232 22.4995 16.6339H22.5352C23.0421 16.6589 23.5277 16.6732 24.0061 16.7054C24.5183 16.7326 25.0278 16.7971 25.5306 16.8981C26.197 17.0145 26.8005 17.3637 27.2336 17.8835C28.0512 18.926 27.5727 20.6183 26.3339 21.186C26.1046 21.3066 25.8658 21.4081 25.6198 21.4894C24.6318 21.6679 23.6317 21.7718 22.628 21.8C22.4888 21.8 22.3674 21.8 22.246 21.7786L22.0568 21.7608Z" fill="#EBA500"/>
<path d="M31.9141 1.5105L34.6453 2.61726C38.0781 4.01842 41.0735 6.31245 43.3209 9.26142L40.5897 8.15465C38.3439 5.20407 35.348 2.90968 31.9141 1.5105Z" fill="#FFF3A5"/>
<path d="M30.168 5.34485L32.8992 6.45161C33.47 6.68279 34.0278 6.945 34.5701 7.23706C36.7253 8.40667 38.6068 10.0217 40.0896 11.9747C41.6189 13.996 42.7295 16.3022 43.3563 18.7581L40.6287 17.6514C40.0015 15.1955 38.8909 12.8895 37.3619 10.868C35.8736 8.91472 33.9874 7.29987 31.8281 6.1303C31.2901 5.83725 30.7358 5.57501 30.168 5.34485Z" fill="#FCDF8F"/>
<path d="M17.6834 44.1958L14.9521 43.0926C15.501 43.3147 16.0611 43.5077 16.6302 43.671C17.7952 44.0019 18.9919 44.209 20.2004 44.2886C22.6796 44.4405 25.1634 44.0758 27.4943 43.2176C31.1514 41.8556 34.3443 39.4789 36.6983 36.3664C39.1323 33.1792 40.6639 29.3958 41.1325 25.413C41.4436 22.8127 41.2692 20.1773 40.6184 17.6406L43.346 18.7474C43.9986 21.2838 44.1729 23.9195 43.8601 26.5197C43.3933 30.5013 41.8629 34.2837 39.4295 37.4696C37.0736 40.5826 33.8798 42.9602 30.2219 44.3244C27.8922 45.1823 25.4096 45.547 22.9316 45.3954C21.7227 45.3163 20.5258 45.1081 19.3613 44.7742C18.7919 44.6121 18.2318 44.419 17.6834 44.1958Z" fill="#FCDF8F"/>
<path d="M40.5907 8.1549C44.2787 12.964 45.946 19.269 45.1784 25.6846C44.6139 30.484 42.7636 35.0417 39.8231 38.8765C36.9718 42.6295 33.1105 45.4927 28.6912 47.1308C25.8706 48.163 22.867 48.6006 19.8692 48.4161C19.3265 48.3804 18.7981 48.3269 18.2519 48.2483C17.3356 48.116 16.4291 47.9228 15.5385 47.6699C11.2591 46.4352 7.49177 43.8536 4.79579 40.3082C2.00355 36.6034 0.365544 32.1576 0.0866618 27.5268C-0.218694 22.7179 0.788281 17.9163 2.99996 13.6352C5.1687 9.37844 8.47441 5.80581 12.5503 3.3137C16.4217 0.935039 20.9268 -0.205853 25.4637 0.0433926C28.42 0.228846 31.3015 1.04943 33.9119 2.44922C36.5224 3.84901 38.8004 5.79511 40.5907 8.1549ZM36.7099 36.3595C39.1439 33.1724 40.6755 29.389 41.144 25.4061C41.4551 22.8059 41.2808 20.1704 40.6299 17.6338C40.0028 15.178 38.8922 12.8719 37.3632 10.8504C35.873 8.90363 33.9869 7.29498 31.8294 6.1306C29.6893 4.98189 27.3271 4.30732 24.9032 4.1527C21.1391 3.94129 17.4007 4.88959 14.1926 6.86963C10.8194 8.94283 8.08505 11.9082 6.29168 15.4381C4.46224 18.9942 3.62832 22.9787 3.87822 26.9699C4.10363 30.8108 5.45594 34.5002 7.76618 37.577C9.98722 40.5192 13.1009 42.6634 16.6417 43.6892C17.8067 44.0201 19.0034 44.2271 20.2119 44.3068C22.6912 44.4587 25.1749 44.094 27.5059 43.2358C31.163 41.8738 34.3558 39.4971 36.7099 36.3845" fill="#FFD000"/>
<mask id="mask0_3485_43059" style="mask-type:alpha" maskUnits="userSpaceOnUse" x="0" y="0" width="46" height="49">
<path d="M40.5907 8.15478C44.2787 12.9638 45.946 19.2688 45.1784 25.6845C44.6139 30.4838 42.7636 35.0416 39.8231 38.8764C36.9718 42.6294 33.1105 45.4925 28.6912 47.1307C25.8706 48.1629 22.867 48.6005 19.8692 48.416C19.3265 48.3803 18.7981 48.3267 18.2519 48.2482C17.3356 48.1159 16.4291 47.9226 15.5385 47.6698C11.2591 46.4351 7.49177 43.8535 4.79579 40.3081C2.00355 36.6033 0.365544 32.1575 0.0866618 27.5267C-0.218694 22.7177 0.788281 17.9162 2.99996 13.635C5.1687 9.37831 8.47441 5.80568 12.5503 3.31358C16.4217 0.934917 20.9268 -0.205975 25.4637 0.0432705C28.42 0.228724 31.3015 1.04931 33.9119 2.4491C36.5224 3.84889 38.8004 5.79499 40.5907 8.15478ZM36.7099 36.3594C39.1439 33.1722 40.6755 29.3888 41.144 25.406C41.4551 22.8057 41.2808 20.1703 40.6299 17.6337C40.0028 15.1779 38.8922 12.8718 37.3632 10.8503C35.873 8.90351 33.9869 7.29486 31.8294 6.13047C29.6893 4.98177 27.3271 4.3072 24.9032 4.15258C21.1391 3.94117 17.4007 4.88947 14.1926 6.86951C10.8194 8.94271 8.08505 11.9081 6.29168 15.438C4.46224 18.994 3.62832 22.9786 3.87822 26.9698C4.10363 30.8107 5.45594 34.5001 7.76618 37.5769C9.98722 40.519 13.1009 42.6633 16.6417 43.689C17.8067 44.02 19.0034 44.227 20.2119 44.3067C22.6912 44.4586 25.1749 44.0938 27.5059 43.2356C31.163 41.8737 34.3558 39.497 36.7099 36.3844" fill="#FFD000"/>
</mask>
<g mask="url(#mask0_3485_43059)">
<rect x="-26.9131" y="38.7" width="92.7928" height="3.95739" transform="rotate(-30 -26.9131 38.7)" fill="#FFF3A5"/>
<rect x="-10.6729" y="51.4108" width="71.2329" height="1.97869" transform="rotate(-30 -10.6729 51.4108)" fill="#FFF3A5"/>
<rect x="-18.1699" y="39.7452" width="71.2329" height="1.97869" transform="rotate(-30 -18.1699 39.7452)" fill="#FFF3A5"/>
</g>
<path d="M15.2915 13.4004C15.2915 13.4004 15.2915 13.3785 15.3206 13.3494L15.2915 13.4004Z" fill="#CA820B"/>
<path d="M15.3374 13.3493C15.3731 13.3136 15.4231 13.253 15.5016 13.1637L15.4802 13.3565L15.3374 13.3493Z" fill="#CA820B"/>
<path d="M16.2161 48.0661L13.4849 46.9593C14.1562 47.233 14.8415 47.4713 15.5377 47.6734C16.4283 47.9262 17.3348 48.1194 18.2511 48.2517C18.7866 48.3303 19.3222 48.3838 19.8684 48.4195C22.8662 48.604 25.8698 48.1664 28.6904 47.1343C33.1097 45.4961 36.971 42.6329 39.8223 38.8799C42.7628 35.0452 44.6131 30.4874 45.1776 25.688C45.9273 19.2617 44.2779 12.9674 40.5899 8.15833L43.3211 9.26509C47.0055 14.0742 48.6764 20.3791 47.9088 26.7948C47.3447 31.5932 45.4944 36.1499 42.5535 39.9831C39.7057 43.7389 35.845 46.6037 31.4252 48.241C28.6035 49.2737 25.5986 49.7113 22.5996 49.5263C22.0605 49.4906 21.5285 49.4335 20.9823 49.3585C20.0636 49.2266 19.1547 49.0334 18.2618 48.7801C17.5676 48.579 16.8847 48.3406 16.2161 48.0661Z" fill="#E48203"/>
<path d="M25.402 0.036071C20.8845 -0.200847 16.4017 0.942248 12.5493 3.31352C8.47341 5.80562 5.1677 9.37825 2.99896 13.635C0.78728 17.9161 -0.219695 22.7177 0.0856603 27.5267C0.364542 32.1574 2.00255 36.6032 4.79479 40.308C7.49077 43.8534 11.2581 46.4351 15.5375 47.6698C16.4281 47.9226 17.3346 48.1158 18.2509 48.2481C17.2953 48.1171 16.3504 47.9179 15.4233 47.6519C11.1526 46.4192 7.39535 43.8379 4.71268 40.2937C1.93878 36.5843 0.318352 32.1403 0.0535406 27.516C-0.251739 22.7089 0.752645 17.9091 2.95969 13.6278C5.11702 9.37667 8.40889 5.80554 12.4707 3.30995C16.344 0.91967 20.858 -0.223162 25.402 0.036071Z" fill="#FFD000"/>
<path d="M33.4706 25.4237C33.6914 26.2083 33.7461 27.0303 33.6313 27.8372C33.5206 28.8369 33.2201 29.8063 32.7459 30.6933C32.1811 31.6932 31.2729 32.4543 30.1896 32.8355C28.8716 33.304 27.4891 33.5666 26.0911 33.6138C26.046 33.605 25.9996 33.606 25.955 33.6169C25.9105 33.6277 25.8687 33.6481 25.8328 33.6766C25.7968 33.7051 25.7675 33.741 25.7467 33.7819C25.726 33.8229 25.7143 33.8678 25.7126 33.9137C25.5841 35.0954 25.4627 36.345 25.3342 37.5303C25.3056 37.7731 25.3092 37.8623 25.1092 37.8516L24.9557 37.8302C24.3345 37.8302 23.6419 37.7659 23.0242 37.7588C22.8136 37.7338 22.8029 37.6624 22.8528 37.5089C22.9742 36.2557 23.0956 35.0097 23.292 33.8101C23.292 33.6709 23.3313 33.5852 23.1885 33.5424C22.6351 33.5424 22.0817 33.5031 21.464 33.4995C21.4069 34.16 21.2856 34.8348 21.2284 35.4953C21.1713 36.1557 21.0499 36.8341 20.9928 37.4946C20.9464 37.6374 20.9535 37.7088 20.7786 37.6981L20.4894 37.6767C19.8824 37.6374 19.2791 37.6445 18.6757 37.6552C18.4651 37.6267 18.4544 37.5588 18.5044 37.4053C18.6257 36.1522 18.7471 34.9062 18.9435 33.703C18.9435 33.6316 18.9935 33.5459 18.9756 33.4067C17.3833 33.3317 15.791 33.2567 14.1309 33.1996C14.2344 32.889 14.2736 32.6605 14.3736 32.3499C14.5628 31.6609 14.7521 30.9682 14.8842 30.3649C14.9234 30.1399 14.9913 30.1257 15.1948 30.0757H15.3875C15.8273 30.106 16.2687 30.106 16.7085 30.0757C16.8274 30.0879 16.9474 30.0746 17.0608 30.0369C17.1741 29.9991 17.2781 29.9377 17.3659 29.8566C17.4537 29.7756 17.5232 29.6768 17.5699 29.5669C17.6166 29.4569 17.6394 29.3383 17.6368 29.2188C18.0652 25.4523 18.4936 21.6821 18.8471 17.8549C18.8635 17.7104 18.8511 17.5641 18.8107 17.4244C18.7703 17.2847 18.7027 17.1544 18.6118 17.0409C18.5209 16.9275 18.4085 16.8331 18.281 16.7632C18.1535 16.6934 18.0134 16.6494 17.8689 16.6339C17.6761 16.6124 17.4797 16.5946 17.2869 16.5803C16.8621 16.5553 16.4515 16.5482 16.0695 16.5339C16.0447 16.539 16.0192 16.539 15.9945 16.5339C15.9088 16.5339 15.8695 16.4696 15.9124 16.3482C16.0088 15.5949 16.098 14.7809 16.1944 14.0205C16.9084 14.0562 17.6225 14.0205 18.3116 14.0812C19.0756 14.124 19.8289 14.0812 20.5929 14.1454C20.8071 14.1454 20.8607 14.0704 20.9 13.8562C21.0213 12.6067 21.1534 11.4249 21.257 10.1754C21.2963 9.95757 21.3534 9.87188 21.5355 9.88616L21.8925 9.91472C22.4566 9.95043 22.9849 9.954 23.5597 9.94329C23.7704 9.97185 23.7776 10.0361 23.7276 10.1932C23.599 11.3785 23.4776 12.6281 23.3491 13.8098C23.3617 13.9086 23.3507 14.0089 23.317 14.1026C23.8704 14.124 24.488 14.1276 25.0414 14.149C25.1092 14.149 25.1592 13.9812 25.2163 13.8955C25.3056 12.9351 25.402 12.0533 25.5733 11.0822L25.6733 10.1932C25.6733 10.0718 25.6983 9.99327 25.8018 10.0004L26.1196 10.029C26.7265 10.0682 27.3335 10.0647 28.0011 10.1039C28.0305 11.0297 27.9839 11.9563 27.8619 12.8744C27.8463 13.2478 27.7997 13.6191 27.7226 13.9848C27.6833 14.2097 27.7548 14.2668 27.9654 14.2882L30.3074 14.8452C31.0478 15.1187 31.714 15.5612 32.2532 16.1376C32.5981 16.5908 32.8477 17.1091 32.987 17.6613C33.1263 18.2135 33.1524 18.7882 33.0636 19.3508C32.9978 20.1526 32.7394 20.9266 32.3103 21.6072C31.9422 22.106 31.4802 22.5281 30.9501 22.8496C30.8823 22.8496 30.8251 22.9495 30.6895 22.9781C30.9822 23.1281 31.2678 23.2102 31.5642 23.3601C32.4324 23.7894 33.1113 24.5243 33.4706 25.4237ZM27.4013 29.8793C28.6187 29.1653 28.94 27.3016 28.0653 26.3448C27.6323 25.9025 27.0943 25.577 26.5016 25.3987C25.858 25.1949 25.1909 25.0749 24.5166 25.0417C23.8025 24.9953 23.0885 25.0096 22.3959 25.0203H22.3602C22.1852 25.0203 22.1924 25.0845 22.1531 25.2952C22.1067 26.0092 21.9853 26.7018 21.9389 27.4373C21.789 28.4798 21.7104 29.5045 21.5819 30.6184H21.614C21.6539 30.6233 21.6919 30.638 21.7247 30.6612C22.8684 30.7567 24.0187 30.74 25.1592 30.6112C25.9539 30.5439 26.7236 30.3 27.412 29.8972L27.4013 29.8793ZM22.4137 22.2319C22.3637 22.3855 22.4387 22.4426 22.5779 22.4854H22.7743H22.96C23.0814 22.4854 23.2027 22.4854 23.342 22.5068C24.3456 22.4786 25.3457 22.3747 26.3338 22.1962C26.5798 22.1149 26.8186 22.0134 27.0478 21.8928C28.2867 21.3251 28.7651 19.6328 27.9475 18.5903C27.5145 18.0705 26.911 17.7214 26.2445 17.605C25.7417 17.5039 25.2322 17.4394 24.7201 17.4122C24.2417 17.38 23.7561 17.3657 23.2491 17.3408H23.2134C23.0349 17.3408 22.9814 17.4157 22.9457 17.6264C22.7922 19.1758 22.6279 20.6539 22.4101 22.2141" fill="#DF7900"/>
<path d="M32.7568 24.7096C32.9775 25.4942 33.0323 26.3161 32.9175 27.1231C32.8067 28.1228 32.5062 29.0922 32.032 29.9792C31.4672 30.9791 30.559 31.7402 29.4758 32.1213C28.1577 32.5899 26.7753 32.8525 25.3772 32.8997C25.3322 32.8909 25.2857 32.8919 25.2412 32.9028C25.1966 32.9136 25.1549 32.934 25.1189 32.9625C25.083 32.991 25.0536 33.0269 25.0328 33.0678C25.0121 33.1088 25.0004 33.1537 24.9987 33.1995C24.8702 34.3813 24.7488 35.6309 24.6203 36.8162C24.5917 37.0589 24.5953 37.1482 24.3954 37.1375L24.2418 37.1161C23.6206 37.1161 22.928 37.0518 22.3103 37.0447C22.0997 37.0197 22.089 36.9483 22.139 36.7947C22.2604 35.5416 22.3818 34.2956 22.5781 33.096C22.5781 32.9568 22.6174 32.8711 22.4746 32.8282C21.9212 32.8282 21.3678 32.789 20.7502 32.7854C20.693 33.4459 20.5717 34.1207 20.5146 34.7811C20.4574 35.4416 20.336 36.12 20.2789 36.7805C20.2325 36.9233 20.2397 36.9947 20.0647 36.984L19.7755 36.9625C19.1686 36.9233 18.5652 36.9304 17.9619 36.9411C17.7512 36.9126 17.7405 36.8447 17.7905 36.6912C17.9119 35.4381 18.0333 34.1921 18.2296 32.9889C18.2296 32.9175 18.2796 32.8318 18.2617 32.6926C16.6694 32.6176 15.0771 32.5426 13.417 32.4855C13.5205 32.1749 13.5598 31.9464 13.6597 31.6358C13.849 30.9467 14.0382 30.2541 14.1703 29.6508C14.2096 29.4258 14.2774 29.4116 14.4809 29.3616H14.6737C15.1135 29.3919 15.5549 29.3919 15.9947 29.3616C16.1135 29.3738 16.2336 29.3605 16.3469 29.3228C16.4602 29.285 16.5643 29.2235 16.6521 29.1425C16.7398 29.0615 16.8094 28.9627 16.8561 28.8528C16.9028 28.7428 16.9256 28.6242 16.9229 28.5047C17.3513 24.7382 17.7798 20.968 18.1332 17.1408C18.1496 16.9963 18.1372 16.85 18.0968 16.7103C18.0565 16.5706 17.9889 16.4403 17.898 16.3268C17.8071 16.2134 17.6947 16.119 17.5671 16.0491C17.4396 15.9793 17.2996 15.9353 17.155 15.9197C16.9622 15.8983 16.7658 15.8805 16.573 15.8662C16.1482 15.8412 15.7376 15.8341 15.3556 15.8198C15.3309 15.8249 15.3054 15.8249 15.2806 15.8198C15.1949 15.8198 15.1557 15.7555 15.1985 15.6341C15.2949 14.8808 15.3841 14.0668 15.4805 13.3064C16.1946 13.3421 16.9086 13.3064 17.5977 13.367C18.3617 13.4099 19.115 13.367 19.8791 13.4313C20.0933 13.4313 20.1468 13.3563 20.1861 13.1421C20.3075 11.8925 20.4396 10.7108 20.5431 9.46124C20.5824 9.24346 20.6395 9.15777 20.8216 9.17205L21.1786 9.20061C21.7427 9.23632 22.2711 9.23989 22.8459 9.22918C23.0565 9.25774 23.0637 9.322 23.0137 9.47909C22.8852 10.6644 22.7638 11.914 22.6352 13.0957C22.6479 13.1945 22.6369 13.2948 22.6031 13.3885C23.1565 13.4099 23.7741 13.4135 24.3275 13.4349C24.3954 13.4349 24.4453 13.2671 24.5025 13.1814C24.5917 12.221 24.6881 11.3392 24.8595 10.3681L24.9595 9.47909C24.9595 9.3577 24.9844 9.27916 25.088 9.2863L25.4057 9.31486C26.0127 9.35413 26.6196 9.35056 27.2872 9.38983C27.3166 10.3156 27.2701 11.2422 27.148 12.1603C27.1324 12.5336 27.0858 12.905 27.0087 13.2706C26.9695 13.4956 27.0409 13.5527 27.2515 13.5741L29.5936 14.1311C30.3339 14.4045 31.0002 14.8471 31.5393 15.4235C31.8842 15.8767 32.1339 16.395 32.2731 16.9472C32.4124 17.4994 32.4385 18.0741 32.3498 18.6367C32.2839 19.4385 32.0255 20.2125 31.5965 20.893C31.2284 21.3919 30.7663 21.814 30.2362 22.1355C30.1684 22.1355 30.1113 22.2354 29.9756 22.264C30.2684 22.4139 30.554 22.4961 30.8503 22.646C31.7185 23.0753 32.3975 23.8102 32.7568 24.7096ZM26.6874 29.1652C27.9049 28.4512 28.2262 26.5875 27.3515 25.6307C26.9184 25.1884 26.3805 24.8629 25.7877 24.6846C25.1441 24.4808 24.477 24.3608 23.8027 24.3276C23.0887 24.2812 22.3746 24.2954 21.682 24.3062H21.6463C21.4714 24.3062 21.4785 24.3704 21.4392 24.5811C21.3928 25.2951 21.2714 25.9877 21.225 26.7232C21.0751 27.7657 20.9965 28.7903 20.868 29.9042H20.9001C20.94 29.9092 20.978 29.9239 21.0108 29.9471C22.1545 30.0426 23.3049 30.0259 24.4453 29.8971C25.2401 29.8298 26.0098 29.5859 26.6981 29.1831L26.6874 29.1652ZM21.6999 21.5178C21.6499 21.6713 21.7248 21.7285 21.8641 21.7713H22.0604H22.2461C22.3675 21.7713 22.4889 21.7713 22.6281 21.7927C23.6318 21.7645 24.6319 21.6606 25.6199 21.4821C25.8659 21.4008 26.1047 21.2993 26.334 21.1787C27.5728 20.611 28.0513 18.9187 27.2337 17.8762C26.8006 17.3564 26.1971 17.0072 25.5307 16.8908C25.0279 16.7898 24.5183 16.7253 24.0062 16.698C23.5278 16.6659 23.0422 16.6516 22.5353 16.6266H22.4996C22.3211 16.6266 22.2675 16.7016 22.2318 16.9123C22.0783 18.4617 21.9141 19.9398 21.6963 21.5" fill="#FFE12A"/>
<mask id="mask1_3485_43059" style="mask-type:alpha" maskUnits="userSpaceOnUse" x="13" y="9" width="20" height="29">
<path d="M32.7568 24.7096C32.9775 25.4942 33.0323 26.3161 32.9175 27.1231C32.8067 28.1228 32.5062 29.0922 32.032 29.9792C31.4672 30.9791 30.559 31.7402 29.4758 32.1213C28.1577 32.5899 26.7753 32.8525 25.3772 32.8997C25.3322 32.8909 25.2857 32.8919 25.2412 32.9028C25.1966 32.9136 25.1549 32.934 25.1189 32.9625C25.083 32.991 25.0536 33.0269 25.0328 33.0678C25.0121 33.1088 25.0004 33.1537 24.9987 33.1995C24.8702 34.3813 24.7488 35.6309 24.6203 36.8162C24.5917 37.0589 24.5953 37.1482 24.3954 37.1375L24.2418 37.1161C23.6206 37.1161 22.928 37.0518 22.3103 37.0447C22.0997 37.0197 22.089 36.9483 22.139 36.7947C22.2604 35.5416 22.3818 34.2956 22.5781 33.096C22.5781 32.9568 22.6174 32.8711 22.4746 32.8282C21.9212 32.8282 21.3678 32.789 20.7502 32.7854C20.693 33.4459 20.5717 34.1207 20.5146 34.7811C20.4574 35.4416 20.336 36.12 20.2789 36.7805C20.2325 36.9233 20.2397 36.9947 20.0647 36.984L19.7755 36.9625C19.1686 36.9233 18.5652 36.9304 17.9619 36.9411C17.7512 36.9126 17.7405 36.8447 17.7905 36.6912C17.9119 35.4381 18.0333 34.1921 18.2296 32.9889C18.2296 32.9175 18.2796 32.8318 18.2617 32.6926C16.6694 32.6176 15.0771 32.5426 13.417 32.4855C13.5205 32.1749 13.5598 31.9464 13.6597 31.6358C13.849 30.9467 14.0382 30.2541 14.1703 29.6508C14.2096 29.4258 14.2774 29.4116 14.4809 29.3616H14.6737C15.1135 29.3919 15.5549 29.3919 15.9947 29.3616C16.1135 29.3738 16.2336 29.3605 16.3469 29.3228C16.4602 29.285 16.5643 29.2235 16.6521 29.1425C16.7398 29.0615 16.8094 28.9627 16.8561 28.8528C16.9028 28.7428 16.9256 28.6242 16.9229 28.5047C17.3513 24.7382 17.7798 20.968 18.1332 17.1408C18.1496 16.9963 18.1372 16.85 18.0968 16.7103C18.0565 16.5706 17.9889 16.4403 17.898 16.3268C17.8071 16.2134 17.6947 16.119 17.5671 16.0491C17.4396 15.9793 17.2996 15.9353 17.155 15.9197C16.9622 15.8983 16.7658 15.8805 16.573 15.8662C16.1482 15.8412 15.7376 15.8341 15.3556 15.8198C15.3309 15.8249 15.3054 15.8249 15.2806 15.8198C15.1949 15.8198 15.1557 15.7555 15.1985 15.6341C15.2949 14.8808 15.3841 14.0668 15.4805 13.3064C16.1946 13.3421 16.9086 13.3064 17.5977 13.367C18.3617 13.4099 19.115 13.367 19.8791 13.4313C20.0933 13.4313 20.1468 13.3563 20.1861 13.1421C20.3075 11.8925 20.4396 10.7108 20.5431 9.46124C20.5824 9.24346 20.6395 9.15777 20.8216 9.17205L21.1786 9.20061C21.7427 9.23632 22.2711 9.23989 22.8459 9.22918C23.0565 9.25774 23.0637 9.322 23.0137 9.47909C22.8852 10.6644 22.7638 11.914 22.6352 13.0957C22.6479 13.1945 22.6369 13.2948 22.6031 13.3885C23.1565 13.4099 23.7741 13.4135 24.3275 13.4349C24.3954 13.4349 24.4453 13.2671 24.5025 13.1814C24.5917 12.221 24.6881 11.3392 24.8595 10.3681L24.9595 9.47909C24.9595 9.3577 24.9844 9.27916 25.088 9.2863L25.4057 9.31486C26.0127 9.35413 26.6196 9.35056 27.2872 9.38983C27.3166 10.3156 27.2701 11.2422 27.148 12.1603C27.1324 12.5336 27.0858 12.905 27.0087 13.2706C26.9695 13.4956 27.0409 13.5527 27.2515 13.5741L29.5936 14.1311C30.3339 14.4045 31.0002 14.8471 31.5393 15.4235C31.8842 15.8767 32.1339 16.395 32.2731 16.9472C32.4124 17.4994 32.4385 18.0741 32.3498 18.6367C32.2839 19.4385 32.0255 20.2125 31.5965 20.893C31.2284 21.3919 30.7663 21.814 30.2362 22.1355C30.1684 22.1355 30.1113 22.2354 29.9756 22.264C30.2684 22.4139 30.554 22.4961 30.8503 22.646C31.7185 23.0753 32.3975 23.8102 32.7568 24.7096ZM26.6874 29.1652C27.9049 28.4512 28.2262 26.5875 27.3515 25.6307C26.9184 25.1884 26.3805 24.8629 25.7877 24.6846C25.1441 24.4808 24.477 24.3608 23.8027 24.3276C23.0887 24.2812 22.3746 24.2954 21.682 24.3062H21.6463C21.4714 24.3062 21.4785 24.3704 21.4392 24.5811C21.3928 25.2951 21.2714 25.9877 21.225 26.7232C21.0751 27.7657 20.9965 28.7903 20.868 29.9042H20.9001C20.94 29.9092 20.978 29.9239 21.0108 29.9471C22.1545 30.0426 23.3049 30.0259 24.4453 29.8971C25.2401 29.8298 26.0098 29.5859 26.6981 29.1831L26.6874 29.1652ZM21.6999 21.5178C21.6499 21.6713 21.7248 21.7285 21.8641 21.7713H22.0604H22.2461C22.3675 21.7713 22.4889 21.7713 22.6281 21.7927C23.6318 21.7645 24.6319 21.6606 25.6199 21.4821C25.8659 21.4008 26.1047 21.2993 26.334 21.1787C27.5728 20.611 28.0513 18.9187 27.2337 17.8762C26.8006 17.3564 26.1971 17.0072 25.5307 16.8908C25.0279 16.7898 24.5183 16.7253 24.0062 16.698C23.5278 16.6659 23.0422 16.6516 22.5353 16.6266H22.4996C22.3211 16.6266 22.2675 16.7016 22.2318 16.9123C22.0783 18.4617 21.9141 19.9398 21.6963 21.5" fill="#FFE12A"/>
</mask>
<g mask="url(#mask1_3485_43059)">
<rect x="-26.9131" y="38.7003" width="92.7928" height="3.95739" transform="rotate(-30 -26.9131 38.7003)" fill="#FFF3A5"/>
<rect x="-10.6733" y="51.411" width="71.2329" height="1.97869" transform="rotate(-30 -10.6733 51.411)" fill="#FFF3A5"/>
<rect x="-18.1699" y="39.7456" width="71.2329" height="1.97869" transform="rotate(-30 -18.1699 39.7456)" fill="#FFF3A5"/>
</g>
</svg>
