<svg width="43" height="18" viewBox="0 0 43 18" fill="none" xmlns="http://www.w3.org/2000/svg">
<path d="M11.0151 15.6051L6.42022 12.9167C4.29339 11.6382 2.61754 9.72896 1.62544 7.45433C0.129519 4.21258 -0.327479 0.117554 0.318728 -4.30593C1.04536 -8.9623 2.71851 -13.4204 5.23491 -17.405C7.66021 -21.373 10.892 -24.7872 14.721 -27.4266C18.3269 -29.8293 22.0934 -31.0718 25.478 -30.9968L30.08 -28.3084C26.6919 -28.3905 22.9396 -27.1481 19.323 -24.7382C15.4926 -22.1019 12.2605 -18.6885 9.83691 -14.7202C7.31953 -10.7357 5.64517 -6.27769 4.91716 -1.62114C4.27452 2.80235 4.72795 6.89738 6.22386 10.1391C7.21582 12.4137 8.89009 14.3237 11.0151 15.6051Z" fill="#FFD000"/>
<path d="M8.01181 -2.28867C7.87849 -1.3958 7.79979 -0.495632 7.77616 0.406827L3.17773 -2.28154C3.20014 -3.18393 3.27764 -4.08411 3.40981 -4.97704C3.48121 -5.4733 3.57046 -5.96956 3.674 -6.46582L8.276 -3.77746C8.16889 -3.2812 8.08321 -2.78493 8.01181 -2.28867Z" fill="#FFD000"/>
<path d="M15.6301 -0.150136C15.4124 0.421097 15.1339 1.07445 14.8518 1.7278L10.2534 -0.960574C10.5319 -1.61392 10.8139 -2.26727 11.0317 -2.8385L15.6301 -0.150136Z" fill="#FCDF8F"/>
<path d="M10.2541 -0.960571L14.8526 1.7278C14.7169 2.02056 14.6419 2.23477 14.4956 2.52752L9.89355 -0.160843C10.0399 -0.4536 10.1185 -0.667814 10.2541 -0.960571Z" fill="#FCDF8F"/>
<path d="M13.6886 -0.153809L18.287 2.53456C18.2678 2.62921 18.2415 2.72229 18.2084 2.81303L13.6064 0.124667C13.641 0.0341276 13.6685 -0.058982 13.6886 -0.153809Z" fill="#FCDF8F"/>
<path d="M9.07942 7.47588C9.8993 9.36116 11.2856 10.9446 13.0459 12.0065L8.44748 9.31811C6.68416 8.25713 5.2962 6.67196 4.47742 4.78395C3.51648 2.55709 3.07218 0.141553 3.17786 -2.28149L7.77628 0.406871C7.67119 2.83139 8.11672 5.24821 9.07942 7.47588Z" fill="#FFD000"/>
<path d="M17.9046 3.74839L13.3062 1.06003C13.4025 0.745848 13.5025 0.431672 13.6061 0.124634L18.2009 2.813C18.1045 3.12004 18.001 3.43421 17.9046 3.74839Z" fill="#FCDF8F"/>
<path d="M15.6378 -0.164429L20.2362 2.52394C20.0684 3.14158 19.8435 3.77708 19.6757 4.3983C19.5079 5.01951 19.283 5.65501 19.1116 6.27622L14.5132 3.58786C14.681 2.96664 14.9059 2.33115 15.0773 1.70993C15.2487 1.08871 15.4664 0.453217 15.6378 -0.164429Z" fill="#CA820B"/>
<path d="M16.9944 -0.192993L21.5928 2.49537C21.1572 2.49537 20.7252 2.49537 20.2361 2.52393L15.6377 -0.164431C16.1232 -0.185852 16.5588 -0.189423 16.9944 -0.192993Z" fill="#CA820B"/>
<path d="M17.0191 -0.182373L21.6176 2.50599H21.5926L16.9941 -0.182373H17.0191Z" fill="#CA820B"/>
<path d="M17.0195 -0.182373L21.618 2.50599C21.6858 2.54526 21.618 2.62381 21.618 2.74163L17.0195 0.0532619C17.0338 -0.0645549 17.0838 -0.143101 17.0195 -0.182373Z" fill="#FCDF8F"/>
<path d="M21.6215 2.74171C21.2395 3.86633 20.9075 5.04449 20.579 6.21552L15.9771 3.52715C16.3091 2.35613 16.6411 1.17796 17.0231 0.0533447L21.6215 2.74171Z" fill="#FCDF8F"/>
<path d="M20.5648 6.2476C20.5255 6.33685 20.5184 6.39041 20.5648 6.41897L15.9628 3.73061C15.9128 3.70204 15.9235 3.64849 15.9628 3.55566L20.5648 6.2476Z" fill="#FCDF8F"/>
<path d="M14.3024 3.78425L18.9044 6.47262H18.6795C18.2082 6.47262 17.7298 6.49047 17.2514 6.5226L12.6494 3.83423C13.1278 3.8021 13.6062 3.76997 14.0775 3.78425H14.3024Z" fill="#CA820B"/>
<path d="M14.5134 3.58789L19.1118 6.27626C19.0475 6.41549 19.0404 6.47619 18.9047 6.47262L14.3027 3.78425C14.4384 3.78782 14.4455 3.72713 14.5134 3.58789Z" fill="#CA820B"/>
<path d="M20.5644 6.2476L15.9624 3.55566C15.9643 3.54624 15.9643 3.53652 15.9624 3.5271L20.5644 6.21546C20.5631 6.22613 20.5631 6.23693 20.5644 6.2476Z" fill="#FCDF8F"/>
<path d="M20.5683 6.41908L15.9663 3.73071C15.9966 3.74508 16.0293 3.75356 16.0627 3.7557L20.6647 6.44407C20.6313 6.44192 20.5986 6.43344 20.5683 6.41908Z" fill="#CA820B"/>
<path d="M13.0457 12.0064L8.44727 9.31804C9.0414 9.66716 9.67398 9.94631 10.3323 10.1499C11.2123 10.4205 12.1253 10.5683 13.0457 10.589C15.1025 10.606 17.1375 10.167 19.0044 9.30375C22.0712 7.95064 25.0523 5.59788 27.5729 2.52036C30.0939 -0.549353 31.9852 -4.08577 33.1388 -7.88679C33.8661 -10.232 34.2273 -12.6754 34.2099 -15.1307L38.8083 -12.4424C38.8259 -9.98702 38.4646 -7.54364 37.7372 -5.19843C36.5824 -1.3972 34.6898 2.13921 32.1677 5.20873C29.6686 8.2684 26.6732 10.6212 23.5992 11.9921C21.7312 12.8559 19.695 13.2949 17.637 13.2774C16.7178 13.2563 15.806 13.1086 14.9272 12.8383C14.2702 12.6342 13.6388 12.355 13.0457 12.0064Z" fill="#FCDF8F"/>
<path d="M11.0143 15.6051L6.41943 12.9168C7.1473 13.3411 7.92106 13.6812 8.72579 13.9307C9.3373 14.1186 9.9629 14.2571 10.5966 14.3448C11.0631 14.4083 11.5326 14.4464 12.0032 14.4591C14.4907 14.483 16.9526 13.955 19.2115 12.9132C22.9245 11.2816 26.5233 8.44329 29.5651 4.75884C32.6103 1.06371 34.894 -3.19772 36.2842 -7.77972C38.0693 -13.8062 37.9729 -19.6328 35.9665 -23.9813L40.5649 -21.293C42.5714 -16.9444 42.6856 -11.1179 40.8862 -5.09136C39.4922 -0.505829 37.2037 3.75814 34.1528 7.45435C31.1181 11.1424 27.5158 13.9771 23.7992 15.6087C21.5403 16.6505 19.0784 17.1785 16.5909 17.1546C16.1202 17.1438 15.6506 17.1057 15.1843 17.0404C14.5495 16.9522 13.9227 16.8138 13.3099 16.6262C12.5082 16.3746 11.738 16.032 11.0143 15.6051Z" fill="#E48203"/>
<path d="M25.4771 -30.9739C22.0926 -31.056 18.3367 -29.8136 14.7201 -27.4037C10.8911 -24.7644 7.65934 -21.3501 5.23405 -17.3821C2.71764 -13.3975 1.0445 -8.93941 0.317864 -4.28304C-0.328343 0.140448 0.128656 4.23547 1.62457 7.47722C3.12049 10.719 5.5875 12.9682 8.71857 13.9393C9.33007 14.1272 9.95568 14.2657 10.5894 14.3534C9.92517 14.2657 9.26953 14.1224 8.62932 13.925C5.5161 12.9575 3.05979 10.7118 1.57458 7.46651C0.0893781 4.2212 -0.356893 0.12974 0.285745 -4.29017C1.01734 -8.94412 2.69014 -13.4 5.20193 -17.3857C7.61729 -21.3511 10.8395 -24.7643 14.6594 -27.4037C18.2689 -29.8279 22.0354 -31.0667 25.4771 -30.9739Z" fill="#FFD000"/>
<path d="M10.9568 15.6052L6.3584 12.9169C7.07428 13.3364 7.83621 13.6718 8.62904 13.9165C9.26926 14.1139 9.9249 14.2572 10.5891 14.345L15.1911 17.0333C14.5269 16.9475 13.8712 16.8054 13.231 16.6085C12.4375 16.361 11.6746 16.0244 10.9568 15.6052Z" fill="#DF7900"/>
<path d="M19.2721 -0.239532L23.8705 2.44883C23.6991 2.44883 23.5884 2.54523 23.5135 2.74516L18.915 0.0567961C18.9829 -0.143135 19.0935 -0.243102 19.2721 -0.239532Z" fill="#CA820B"/>
<path d="M17.5795 3.74487L22.1815 6.43324C21.6924 6.45466 21.1533 6.43324 20.6642 6.43324L16.0586 3.75558C16.5513 3.73416 17.0904 3.76629 17.5795 3.74487Z" fill="#CA820B"/>
<path d="M18.9148 0.0570068L23.5133 2.74537C23.1884 3.85571 22.8599 5.0303 22.5315 6.13707C22.4636 6.36556 22.4493 6.45124 22.2958 6.44767C22.2578 6.45053 22.2196 6.45053 22.1816 6.44767L17.5796 3.75931C17.6176 3.76195 17.6558 3.76195 17.6938 3.75931C17.8509 3.75931 17.8652 3.6772 17.933 3.4487C18.2579 2.34194 18.59 1.16734 18.9148 0.0570068Z" fill="#CA820B"/>
<path d="M26.6449 -8.20105L31.2469 -5.51268C31.2669 -4.74967 31.1558 -3.98889 30.9185 -3.26345C30.6348 -2.3065 30.2178 -1.39427 29.6796 -0.553661C29.0902 0.370331 28.2475 1.10526 27.2519 1.56347C26.1785 2.03821 25.0357 2.33716 23.8673 2.44888L19.2725 -0.239487C20.4407 -0.352057 21.5833 -0.650977 22.657 -1.1249C23.6519 -1.58265 24.4937 -2.31776 25.0812 -3.24203C25.6222 -4.08108 26.0394 -4.99372 26.32 -5.95182C26.5596 -6.67666 26.6696 -7.43804 26.6449 -8.20105Z" fill="#CA820B"/>
<path d="M35.9565 -23.9628C37.963 -19.6143 38.0772 -13.7877 36.2743 -7.76119C34.884 -3.17919 32.6004 1.08225 29.5551 4.77738C26.5169 8.46183 22.9181 11.3001 19.2015 12.9317C16.9426 13.9735 14.4808 14.5015 11.9933 14.4776C11.5227 14.465 11.0531 14.4268 10.5866 14.3634C9.95293 14.2757 9.32733 14.1372 8.71583 13.9492C5.58476 12.9781 3.11418 10.736 1.62183 7.48716C0.129485 4.23827 -0.331062 0.150387 0.315145 -4.2731C1.04178 -8.92947 2.7149 -13.3875 5.2313 -17.3722C7.6566 -21.3402 10.8884 -24.7544 14.7173 -27.3938C18.3233 -29.7965 22.0898 -31.0389 25.5351 -30.964C30.2192 -30.8461 33.95 -28.3291 35.9565 -23.9628ZM27.5701 2.55671C30.0911 -0.513002 31.9824 -4.04942 33.136 -7.85044C33.8633 -10.1957 34.2246 -12.639 34.2071 -15.0944C34.2014 -17.2301 33.7579 -19.3419 32.904 -21.2994C32.1602 -22.9982 30.9602 -24.4576 29.4373 -25.5158C27.9236 -26.5219 26.1528 -27.0721 24.3355 -27.101C21.4793 -27.1795 18.3518 -26.1513 15.3564 -24.1449C12.1856 -21.953 9.50979 -19.1203 7.50197 -15.8299C5.41954 -12.5202 4.03232 -8.82139 3.42478 -4.95858C2.88925 -1.28483 3.26055 2.11044 4.49584 4.80237C5.73113 7.49431 7.76616 9.3651 10.351 10.1577C11.2309 10.4283 12.144 10.5761 13.0643 10.5968C15.1211 10.6138 17.1561 10.1748 19.023 9.31154C22.0898 7.95843 25.0709 5.60566 27.5915 2.52814" fill="#FFD000"/>
<mask id="mask0_3485_42959" style="mask-type:alpha" maskUnits="userSpaceOnUse" x="0" y="-31" width="38" height="46">
<path d="M35.9565 -23.9627C37.963 -19.6142 38.0772 -13.7876 36.2743 -7.76106C34.884 -3.17906 32.6004 1.08237 29.5551 4.7775C26.5169 8.46195 22.9181 11.3003 19.2015 12.9319C16.9426 13.9736 14.4808 14.5016 11.9933 14.4777C11.5227 14.4651 11.0531 14.427 10.5866 14.3635C9.95293 14.2758 9.32733 14.1373 8.71583 13.9494C5.58476 12.9783 3.11418 10.7362 1.62183 7.48729C0.129485 4.2384 -0.331062 0.150509 0.315145 -4.27298C1.04178 -8.92934 2.7149 -13.3874 5.2313 -17.3721C7.6566 -21.34 10.8884 -24.7543 14.7173 -27.3936C18.3233 -29.7964 22.0898 -31.0388 25.5351 -30.9638C30.2192 -30.846 33.95 -28.329 35.9565 -23.9627ZM27.5701 2.55683C30.0911 -0.51288 31.9824 -4.0493 33.136 -7.85032C33.8633 -10.1956 34.2246 -12.6389 34.2071 -15.0943C34.2014 -17.2299 33.7579 -19.3418 32.904 -21.2993C32.1602 -22.9981 30.9602 -24.4575 29.4373 -25.5157C27.9236 -26.5218 26.1528 -27.072 24.3355 -27.1009C21.4793 -27.1794 18.3518 -26.1512 15.3564 -24.1447C12.1856 -21.9529 9.50979 -19.1202 7.50197 -15.8297C5.41954 -12.5201 4.03232 -8.82127 3.42478 -4.95846C2.88925 -1.28471 3.26055 2.11056 4.49584 4.80249C5.73113 7.49443 7.76616 9.36522 10.351 10.1578C11.2309 10.4284 12.144 10.5762 13.0643 10.5969C15.1211 10.6139 17.1561 10.1749 19.023 9.31166C22.0898 7.95855 25.0709 5.60579 27.5915 2.52827" fill="#FFD000"/>
</mask>
<g mask="url(#mask0_3485_42959)">
<rect x="-26.9062" y="7.70691" width="92.7928" height="3.95739" transform="rotate(-30 -26.9062 7.70691)" fill="#FFF3A5"/>
<rect x="-10.6665" y="20.4176" width="71.2329" height="1.97869" transform="rotate(-30 -10.6665 20.4176)" fill="#FFF3A5"/>
<rect x="-18.1631" y="8.75244" width="71.2329" height="1.97869" transform="rotate(-30 -18.1631 8.75244)" fill="#FFF3A5"/>
</g>
<path d="M34.1957 -15.1127C34.2131 -12.6574 33.8519 -10.214 33.1246 -7.8688C31.971 -4.06778 30.0797 -0.531359 27.5587 2.53835C25.0596 5.59802 22.0606 7.95079 18.9902 9.32175C17.1233 10.185 15.0883 10.624 13.0315 10.607C12.1112 10.5863 11.1981 10.4385 10.3182 10.1679C7.73333 9.36459 5.6769 7.4938 4.46303 4.81258C3.24916 2.13135 2.86001 -1.27463 3.39197 -4.94837C4.00232 -8.82267 5.39697 -12.5316 7.49056 -15.8482C9.49837 -19.1387 12.1742 -21.9714 15.345 -24.1632C18.3404 -26.1697 21.4644 -27.1979 24.3241 -27.1193C26.1414 -27.0904 27.9122 -26.5402 29.4259 -25.5342C30.9488 -24.476 32.1488 -23.0165 32.8926 -21.3178C33.7465 -19.3602 34.19 -17.2484 34.1957 -15.1127Z" fill="#EBA500"/>
<path d="M4.46303 4.81258C5.6769 7.4938 7.73333 9.36459 10.3182 10.1679C7.40012 7.43194 3.27424 1.10437 6.09815 -8.92908C8.92575 -18.9756 18.0583 -25.6984 24.3241 -27.1193C21.4644 -27.1979 18.3404 -26.1697 15.345 -24.1632C12.1742 -21.9714 9.49837 -19.1387 7.49056 -15.8482C5.39697 -12.5316 4.00232 -8.82267 3.39197 -4.94837C2.86001 -1.27463 3.24916 2.13135 4.46303 4.81258Z" fill="#DF7900"/>
<path d="M27.48 -7.4872C27.5035 -6.72398 27.3923 -5.96258 27.1515 -5.23796C26.8709 -4.27987 26.4536 -3.36723 25.9126 -2.52818C25.3251 -1.60391 24.4834 -0.868792 23.4885 -0.411043C22.4148 0.0628777 21.2721 0.361797 20.1039 0.474367C19.929 0.474367 19.8183 0.570763 19.7469 0.770695C19.422 1.88103 19.09 3.05563 18.7651 4.16239C18.6972 4.39088 18.683 4.47657 18.5259 4.473C18.4878 4.47564 18.4497 4.47564 18.4116 4.473C17.9225 4.49442 17.3834 4.473 16.8943 4.473C16.7336 4.473 16.7408 4.39445 16.8086 4.2445C17.1406 3.07348 17.4727 1.89531 17.8547 0.770695C17.8547 0.638597 17.9261 0.55648 17.8261 0.524349C17.3905 0.524349 16.955 0.524349 16.4694 0.552912C16.2981 1.17056 16.0767 1.80605 15.9089 2.42727C15.7411 3.04849 15.5126 3.68398 15.3448 4.3052C15.277 4.44444 15.2698 4.50513 15.1342 4.50156H14.9128C14.438 4.50156 13.9596 4.51941 13.4847 4.55154C13.3241 4.53369 13.3277 4.473 13.3991 4.32305C13.7311 3.15202 14.0631 1.97385 14.4416 0.849239C14.4762 0.758699 14.5036 0.66559 14.5237 0.570765C13.2812 0.570765 12.0245 0.552912 10.7393 0.570765C10.8749 0.278008 10.9535 0.0637932 11.0963 -0.228964C11.3748 -0.882313 11.6568 -1.53566 11.8746 -2.10689C11.9496 -2.31753 12.0031 -2.33538 12.1709 -2.38537H12.2602C12.6297 -2.37051 12.9999 -2.38604 13.3669 -2.43178C13.5885 -2.44896 13.7976 -2.54105 13.9598 -2.6929C14.122 -2.84474 14.2277 -3.04729 14.2595 -3.26721C15.3091 -6.80528 16.3588 -10.3469 17.362 -13.935C17.5226 -14.4884 17.3013 -15.006 16.8193 -15.0382C16.6694 -15.0382 16.5194 -15.0632 16.3695 -15.0667C16.0375 -15.0667 15.7125 -15.0667 15.4162 -15.0667H15.352C15.2877 -15.0667 15.2698 -15.1239 15.3234 -15.2381C15.5412 -15.9522 15.7661 -16.7055 15.9839 -17.4231C16.5408 -17.4231 17.0978 -17.4659 17.6476 -17.4516C18.1974 -17.4374 18.8436 -17.4909 19.4327 -17.4802C19.6005 -17.4802 19.6612 -17.5623 19.7326 -17.7587C20.0611 -18.9333 20.386 -20.0436 20.718 -21.2182C20.7894 -21.4181 20.8501 -21.5038 20.9965 -21.5003H21.2785C21.7177 -21.5003 22.1318 -21.5003 22.5852 -21.5395C22.7494 -21.5395 22.7423 -21.4574 22.6745 -21.311C22.3496 -20.2007 22.0175 -19.0261 21.6927 -17.9158C21.6832 -17.8197 21.6554 -17.7264 21.6105 -17.6409C22.0425 -17.6409 22.5316 -17.6623 22.9636 -17.6623C23.0208 -17.6837 23.0886 -17.8265 23.1493 -17.9122C23.3992 -18.8083 23.6456 -19.6402 23.949 -20.5541L24.1954 -21.386C24.1954 -21.4967 24.2525 -21.5752 24.3346 -21.5717C24.4167 -21.5681 24.4881 -21.5717 24.5452 -21.5717C25.0272 -21.5717 25.5199 -21.5717 26.0519 -21.5717C25.8981 -20.6948 25.687 -19.829 25.4199 -18.9797C25.3406 -18.611 25.2357 -18.2484 25.1058 -17.8943C25.0308 -17.6837 25.0808 -17.6337 25.2414 -17.6194L26.9837 -17.191C27.5237 -16.959 27.977 -16.5631 28.2797 -16.0593C28.6831 -15.231 28.6367 -14.2063 28.3154 -13.096C28.1035 -12.3275 27.7579 -11.6024 27.2943 -10.9539C26.9217 -10.4851 26.4799 -10.0758 25.984 -9.74C25.9269 -9.72214 25.8662 -9.64003 25.7555 -9.60789C25.959 -9.47937 26.1697 -9.4151 26.3732 -9.28658C26.6797 -9.08769 26.9381 -8.823 27.1296 -8.51175C27.321 -8.20049 27.4407 -7.8505 27.48 -7.4872ZM21.8569 -3.08513C22.9529 -3.79917 23.5599 -5.55571 23.0493 -6.41613C22.7996 -6.80767 22.4206 -7.09945 21.9783 -7.24085C21.4967 -7.40561 20.9913 -7.49004 20.4823 -7.49076C19.9325 -7.49076 19.3649 -7.46577 18.8079 -7.43007H18.7758C18.6473 -7.43007 18.633 -7.36581 18.5651 -7.16945C18.3902 -6.48397 18.1653 -5.84847 17.9903 -5.16299C17.6797 -4.18475 17.4227 -3.22079 17.1049 -2.1783H17.1299C17.16 -2.17514 17.1879 -2.16118 17.2085 -2.13902C18.1193 -2.09699 19.0319 -2.15807 19.929 -2.32111C20.6141 -2.43399 21.2668 -2.69338 21.8426 -3.08156L21.8569 -3.08513ZM19.3434 -10.0506C19.272 -9.90422 19.3434 -9.85781 19.4291 -9.82568H19.5934H19.7469H20.0218C20.8384 -9.89544 21.6479 -10.0316 22.4424 -10.2327C22.6587 -10.3206 22.8676 -10.4256 23.0672 -10.5469C24.1382 -11.1217 24.8523 -12.7247 24.4024 -13.6672C24.2911 -13.8917 24.1277 -14.0862 23.9258 -14.2347C23.724 -14.3831 23.4896 -14.4811 23.2421 -14.5205C22.8539 -14.5967 22.4595 -14.6374 22.0639 -14.6419C21.7069 -14.6419 21.3178 -14.6419 20.9286 -14.6419H20.9001C20.7608 -14.6419 20.7001 -14.5633 20.6323 -14.3598C20.2181 -12.9103 19.8111 -11.5251 19.3434 -10.0542" fill="#DF7900"/>
<path d="M26.645 -8.20106C26.6685 -7.43784 26.5573 -6.67645 26.3165 -5.95183C26.0359 -4.99374 25.6187 -4.08109 25.0777 -3.24205C24.4902 -2.31778 23.6484 -1.58266 22.6535 -1.12491C21.5798 -0.65099 20.4372 -0.35207 19.2689 -0.2395C19.094 -0.2395 18.9833 -0.143105 18.9119 0.0568275C18.587 1.16716 18.255 2.34176 17.9301 3.44852C17.8623 3.67702 17.848 3.7627 17.6909 3.75913C17.6529 3.76177 17.6147 3.76177 17.5767 3.75913C17.0876 3.78055 16.5484 3.75913 16.0593 3.75913C15.8987 3.75913 15.9058 3.68059 15.9736 3.53064C16.3057 2.35961 16.6377 1.18144 17.0197 0.0568275C17.0197 -0.0752697 17.0911 -0.157387 16.9911 -0.189518C16.5556 -0.189518 16.12 -0.189518 15.6345 -0.160955C15.4631 0.45669 15.2417 1.09219 15.0739 1.7134C14.9061 2.33462 14.6777 2.97011 14.5099 3.59133C14.442 3.73057 14.4349 3.79126 14.2992 3.78769H14.0779C13.603 3.78769 13.1246 3.80554 12.6498 3.83768C12.4891 3.81982 12.4927 3.75913 12.5641 3.60918C12.8961 2.43815 13.2282 1.25999 13.6066 0.135372C13.6412 0.0448322 13.6686 -0.0482769 13.6887 -0.143103C12.4463 -0.143103 11.1896 -0.160955 9.9043 -0.143103C10.04 -0.43586 10.1185 -0.650074 10.2613 -0.942831C10.5398 -1.59618 10.8218 -2.24953 11.0396 -2.82076C11.1146 -3.0314 11.1682 -3.04925 11.336 -3.09923H11.4252C11.7948 -3.08438 12.1649 -3.0999 12.532 -3.14565C12.7535 -3.16283 12.9626 -3.25492 13.1248 -3.40676C13.2871 -3.55861 13.3927 -3.76116 13.4245 -3.98108C14.4742 -7.51915 15.5238 -11.0608 16.527 -14.6489C16.6877 -15.2022 16.4663 -15.7199 15.9843 -15.752C15.8344 -15.752 15.6845 -15.777 15.5345 -15.7806C15.2025 -15.7806 14.8776 -15.7806 14.5813 -15.7806H14.517C14.4527 -15.7806 14.4349 -15.8377 14.4884 -15.952C14.7062 -16.666 14.9311 -17.4193 15.1489 -18.1369C15.7059 -18.1369 16.2628 -18.1798 16.8126 -18.1655C17.3625 -18.1512 18.0087 -18.2048 18.5977 -18.1941C18.7655 -18.1941 18.8262 -18.2762 18.8976 -18.4725C19.2261 -19.6471 19.551 -20.7575 19.883 -21.9321C19.9544 -22.132 20.0151 -22.2177 20.1615 -22.2141H20.4436C20.8827 -22.2141 21.2968 -22.2141 21.7502 -22.2534C21.9145 -22.2534 21.9073 -22.1713 21.8395 -22.0249C21.5146 -20.9146 21.1826 -19.74 20.8577 -18.6296C20.8483 -18.5336 20.8204 -18.4402 20.7756 -18.3547C21.2076 -18.3547 21.6967 -18.3761 22.1287 -18.3761C22.1858 -18.3976 22.2536 -18.5404 22.3143 -18.6261C22.5643 -19.5222 22.8106 -20.354 23.1141 -21.268L23.3604 -22.0999C23.3604 -22.2106 23.4175 -22.2891 23.4997 -22.2855C23.5818 -22.282 23.6532 -22.2855 23.7103 -22.2855C24.1923 -22.2855 24.685 -22.2855 25.2169 -22.2855C25.0631 -21.4087 24.852 -20.5428 24.585 -19.6936C24.5057 -19.3249 24.4007 -18.9622 24.2708 -18.6082C24.1958 -18.3976 24.2458 -18.3476 24.4065 -18.3333L26.1487 -17.9049C26.6887 -17.6728 27.1421 -17.2769 27.4447 -16.7731C27.8482 -15.9448 27.8017 -14.9202 27.4804 -13.8099C27.2686 -13.0414 26.9229 -12.3162 26.4593 -11.6677C26.0867 -11.199 25.6449 -10.7897 25.1491 -10.4539C25.092 -10.436 25.0313 -10.3539 24.9206 -10.3218C25.1241 -10.1932 25.3347 -10.129 25.5382 -10.0004C25.8448 -9.80155 26.1032 -9.53686 26.2946 -9.22561C26.4861 -8.91436 26.6058 -8.56437 26.645 -8.20106ZM21.0219 -3.799C22.118 -4.51304 22.7249 -6.26958 22.2144 -7.13C21.9646 -7.52154 21.5857 -7.81331 21.1433 -7.95472C20.6617 -8.11948 20.1564 -8.20391 19.6474 -8.20463C19.0976 -8.20463 18.5299 -8.17964 17.973 -8.14394H17.9408C17.8123 -8.14394 17.798 -8.07968 17.7302 -7.88332C17.5552 -7.19783 17.3303 -6.56233 17.1554 -5.87685C16.8448 -4.89862 16.5877 -3.93466 16.27 -2.89216H16.295C16.325 -2.88901 16.3529 -2.87505 16.3735 -2.85289C17.2843 -2.81086 18.1969 -2.87194 19.094 -3.03497C19.7792 -3.14786 20.4319 -3.40725 21.0076 -3.79542L21.0219 -3.799ZM18.5085 -10.7645C18.4371 -10.6181 18.5085 -10.5717 18.5942 -10.5395H18.7584H18.9119H19.1868C20.0034 -10.6093 20.8129 -10.7454 21.6074 -10.9465C21.8237 -11.0344 22.0327 -11.1395 22.2322 -11.2607C23.3033 -11.8355 24.0173 -13.4386 23.5675 -14.3811C23.4561 -14.6055 23.2927 -14.8001 23.0909 -14.9485C22.889 -15.097 22.6546 -15.195 22.4072 -15.2344C22.019 -15.3106 21.6246 -15.3512 21.229 -15.3558C20.872 -15.3558 20.4828 -15.3558 20.0937 -15.3558H20.0651C19.9259 -15.3558 19.8652 -15.2772 19.7973 -15.0737C19.3832 -13.6242 18.9762 -12.239 18.5085 -10.768" fill="#FFE12A"/>
<mask id="mask1_3485_42959" style="mask-type:alpha" maskUnits="userSpaceOnUse" x="9" y="-23" width="19" height="27">
<path d="M26.645 -8.20106C26.6685 -7.43784 26.5573 -6.67645 26.3165 -5.95183C26.0359 -4.99374 25.6187 -4.08109 25.0777 -3.24205C24.4902 -2.31778 23.6484 -1.58266 22.6535 -1.12491C21.5798 -0.65099 20.4372 -0.35207 19.2689 -0.2395C19.094 -0.2395 18.9833 -0.143105 18.9119 0.0568275C18.587 1.16716 18.255 2.34176 17.9301 3.44852C17.8623 3.67702 17.848 3.7627 17.6909 3.75913C17.6529 3.76177 17.6147 3.76177 17.5767 3.75913C17.0876 3.78055 16.5484 3.75913 16.0593 3.75913C15.8987 3.75913 15.9058 3.68059 15.9736 3.53064C16.3057 2.35961 16.6377 1.18144 17.0197 0.0568275C17.0197 -0.0752697 17.0911 -0.157387 16.9911 -0.189518C16.5556 -0.189518 16.12 -0.189518 15.6345 -0.160955C15.4631 0.45669 15.2417 1.09219 15.0739 1.7134C14.9061 2.33462 14.6777 2.97011 14.5099 3.59133C14.442 3.73057 14.4349 3.79126 14.2992 3.78769H14.0779C13.603 3.78769 13.1246 3.80554 12.6498 3.83768C12.4891 3.81982 12.4927 3.75913 12.5641 3.60918C12.8961 2.43815 13.2282 1.25999 13.6066 0.135372C13.6412 0.0448322 13.6686 -0.0482769 13.6887 -0.143103C12.4463 -0.143103 11.1896 -0.160955 9.9043 -0.143103C10.04 -0.43586 10.1185 -0.650074 10.2613 -0.942831C10.5398 -1.59618 10.8218 -2.24953 11.0396 -2.82076C11.1146 -3.0314 11.1682 -3.04925 11.336 -3.09923H11.4252C11.7948 -3.08438 12.1649 -3.0999 12.532 -3.14565C12.7535 -3.16283 12.9626 -3.25492 13.1248 -3.40676C13.2871 -3.55861 13.3927 -3.76116 13.4245 -3.98108C14.4742 -7.51915 15.5238 -11.0608 16.527 -14.6489C16.6877 -15.2022 16.4663 -15.7199 15.9843 -15.752C15.8344 -15.752 15.6845 -15.777 15.5345 -15.7806C15.2025 -15.7806 14.8776 -15.7806 14.5813 -15.7806H14.517C14.4527 -15.7806 14.4349 -15.8377 14.4884 -15.952C14.7062 -16.666 14.9311 -17.4193 15.1489 -18.1369C15.7059 -18.1369 16.2628 -18.1798 16.8126 -18.1655C17.3625 -18.1512 18.0087 -18.2048 18.5977 -18.1941C18.7655 -18.1941 18.8262 -18.2762 18.8976 -18.4725C19.2261 -19.6471 19.551 -20.7575 19.883 -21.9321C19.9544 -22.132 20.0151 -22.2177 20.1615 -22.2141H20.4436C20.8827 -22.2141 21.2968 -22.2141 21.7502 -22.2534C21.9145 -22.2534 21.9073 -22.1713 21.8395 -22.0249C21.5146 -20.9146 21.1826 -19.74 20.8577 -18.6296C20.8483 -18.5336 20.8204 -18.4402 20.7756 -18.3547C21.2076 -18.3547 21.6967 -18.3761 22.1287 -18.3761C22.1858 -18.3976 22.2536 -18.5404 22.3143 -18.6261C22.5643 -19.5222 22.8106 -20.354 23.1141 -21.268L23.3604 -22.0999C23.3604 -22.2106 23.4175 -22.2891 23.4997 -22.2855C23.5818 -22.282 23.6532 -22.2855 23.7103 -22.2855C24.1923 -22.2855 24.685 -22.2855 25.2169 -22.2855C25.0631 -21.4087 24.852 -20.5428 24.585 -19.6936C24.5057 -19.3249 24.4007 -18.9622 24.2708 -18.6082C24.1958 -18.3976 24.2458 -18.3476 24.4065 -18.3333L26.1487 -17.9049C26.6887 -17.6728 27.1421 -17.2769 27.4447 -16.7731C27.8482 -15.9448 27.8017 -14.9202 27.4804 -13.8099C27.2686 -13.0414 26.9229 -12.3162 26.4593 -11.6677C26.0867 -11.199 25.6449 -10.7897 25.1491 -10.4539C25.092 -10.436 25.0313 -10.3539 24.9206 -10.3218C25.1241 -10.1932 25.3347 -10.129 25.5382 -10.0004C25.8448 -9.80155 26.1032 -9.53686 26.2946 -9.22561C26.4861 -8.91436 26.6058 -8.56437 26.645 -8.20106ZM21.0219 -3.799C22.118 -4.51304 22.7249 -6.26958 22.2144 -7.13C21.9646 -7.52154 21.5857 -7.81331 21.1433 -7.95472C20.6617 -8.11948 20.1564 -8.20391 19.6474 -8.20463C19.0976 -8.20463 18.5299 -8.17964 17.973 -8.14394H17.9408C17.8123 -8.14394 17.798 -8.07968 17.7302 -7.88332C17.5552 -7.19783 17.3303 -6.56233 17.1554 -5.87685C16.8448 -4.89862 16.5877 -3.93466 16.27 -2.89216H16.295C16.325 -2.88901 16.3529 -2.87505 16.3735 -2.85289C17.2843 -2.81086 18.1969 -2.87194 19.094 -3.03497C19.7792 -3.14786 20.4319 -3.40725 21.0076 -3.79542L21.0219 -3.799ZM18.5085 -10.7645C18.4371 -10.6181 18.5085 -10.5717 18.5942 -10.5395H18.7584H18.9119H19.1868C20.0034 -10.6093 20.8129 -10.7454 21.6074 -10.9465C21.8237 -11.0344 22.0327 -11.1395 22.2322 -11.2607C23.3033 -11.8355 24.0173 -13.4386 23.5675 -14.3811C23.4561 -14.6055 23.2927 -14.8001 23.0909 -14.9485C22.889 -15.097 22.6546 -15.195 22.4072 -15.2344C22.019 -15.3106 21.6246 -15.3512 21.229 -15.3558C20.872 -15.3558 20.4828 -15.3558 20.0937 -15.3558H20.0651C19.9259 -15.3558 19.8652 -15.2772 19.7973 -15.0737C19.3832 -13.6242 18.9762 -12.239 18.5085 -10.768" fill="#FFE12A"/>
</mask>
<g mask="url(#mask1_3485_42959)">
<rect x="-26.9062" y="7.70691" width="92.7928" height="3.95739" transform="rotate(-30 -26.9062 7.70691)" fill="#FFF3A5"/>
<rect x="-10.6665" y="20.4177" width="71.2329" height="1.97869" transform="rotate(-30 -10.6665 20.4177)" fill="#FFF3A5"/>
<rect x="-18.1631" y="8.75244" width="71.2329" height="1.97869" transform="rotate(-30 -18.1631 8.75244)" fill="#FFF3A5"/>
</g>
</svg>
