<svg width="33" height="33" viewBox="0 0 33 33" fill="none" xmlns="http://www.w3.org/2000/svg">
<path d="M30.25 11.8938C30.128 10.1551 29.3502 8.52762 28.0738 7.34063C26.7975 6.15365 25.118 5.49575 23.375 5.50002H9.62502C7.86194 5.49764 6.16532 6.17269 4.88581 7.38566C3.6063 8.59864 2.8417 10.2568 2.75002 12.0175C2.74226 12.1366 2.74226 12.256 2.75002 12.375V22.6875C2.74637 23.3205 2.86836 23.948 3.10892 24.5335C3.34947 25.119 3.70382 25.651 4.15143 26.0986C4.59904 26.5462 5.13102 26.9006 5.71655 27.1411C6.30207 27.3817 6.92951 27.5037 7.56252 27.5C9.52877 27.5 10.7525 26.0425 11.9488 24.6263C12.3888 24.1175 12.8425 23.5813 13.3238 23.1138C13.9622 22.6461 14.6794 22.2968 15.4413 22.0825C16.1447 22 16.8553 22 17.5588 22.0825C18.3206 22.2968 19.0378 22.6461 19.6763 23.1138C20.1575 23.5813 20.6113 24.1175 21.0513 24.6263C22.2475 26.0013 23.4713 27.5 25.4375 27.5C26.0705 27.5037 26.698 27.3817 27.2835 27.1411C27.869 26.9006 28.401 26.5462 28.8486 26.0986C29.2962 25.651 29.6506 25.119 29.8911 24.5335C30.1317 23.948 30.2537 23.3205 30.25 22.6875V12.375C30.2574 12.256 30.2574 12.1366 30.25 12.0175V11.8938ZM27.5 22.6875C27.5 23.2345 27.2827 23.7591 26.8959 24.1459C26.5091 24.5327 25.9845 24.75 25.4375 24.75C24.75 24.75 24.0625 23.87 23.155 22.8525C22.6875 22.3163 22.165 21.6838 21.5738 21.12C20.5782 20.3179 19.4261 19.7325 18.1913 19.4013C17.0728 19.1996 15.9272 19.1996 14.8088 19.4013C13.5739 19.7325 12.4219 20.3179 11.4263 21.12C10.835 21.6838 10.3125 22.3163 9.84502 22.8525C8.99252 23.87 8.25002 24.75 7.56252 24.75C7.01551 24.75 6.4909 24.5327 6.10411 24.1459C5.71732 23.7591 5.50002 23.2345 5.50002 22.6875V12.375C5.50673 12.3064 5.50673 12.2374 5.50002 12.1688C5.55298 11.1109 6.01084 10.1139 6.77877 9.3844C7.54669 8.65487 8.56581 8.2487 9.62502 8.25002H23.375C24.4055 8.24552 25.4003 8.62688 26.1637 9.31904C26.9272 10.0112 27.4039 10.964 27.5 11.99V12.155C27.4932 12.2282 27.4932 12.3018 27.5 12.375V22.6875Z" fill="white"/>
<path d="M22 17.875C22.7594 17.875 23.375 17.2594 23.375 16.5C23.375 15.7406 22.7594 15.125 22 15.125C21.2406 15.125 20.625 15.7406 20.625 16.5C20.625 17.2594 21.2406 17.875 22 17.875Z" fill="white"/>
<path d="M24.75 15.125C25.5094 15.125 26.125 14.5094 26.125 13.75C26.125 12.9906 25.5094 12.375 24.75 12.375C23.9906 12.375 23.375 12.9906 23.375 13.75C23.375 14.5094 23.9906 15.125 24.75 15.125Z" fill="white"/>
<path d="M22 12.375C22.7594 12.375 23.375 11.7594 23.375 11C23.375 10.2406 22.7594 9.625 22 9.625C21.2406 9.625 20.625 10.2406 20.625 11C20.625 11.7594 21.2406 12.375 22 12.375Z" fill="white"/>
<path d="M19.25 15.125C20.0094 15.125 20.625 14.5094 20.625 13.75C20.625 12.9906 20.0094 12.375 19.25 12.375C18.4906 12.375 17.875 12.9906 17.875 13.75C17.875 14.5094 18.4906 15.125 19.25 15.125Z" fill="white"/>
<path d="M11 16.5C12.5188 16.5 13.75 15.2688 13.75 13.75C13.75 12.2312 12.5188 11 11 11C9.48122 11 8.25 12.2312 8.25 13.75C8.25 15.2688 9.48122 16.5 11 16.5Z" fill="white"/>
</svg>
