<svg width="26" height="26" viewBox="0 0 26 26" fill="none" xmlns="http://www.w3.org/2000/svg">
<path fill-rule="evenodd" clip-rule="evenodd" d="M18.4513 3.25H18.382C17.9068 3.24999 17.4968 3.24998 17.1574 3.27313C16.8001 3.29751 16.4427 3.35114 16.0896 3.49739C15.2933 3.82725 14.6606 4.45994 14.3307 5.25628C14.1845 5.60937 14.1308 5.96677 14.1065 6.32409C14.0833 6.66344 14.0833 7.07345 14.0833 7.54864V7.61798C14.0833 8.09317 14.0833 8.50323 14.1065 8.84258C14.1308 9.1999 14.1845 9.5573 14.3307 9.91039C14.6606 10.7067 15.2933 11.3394 16.0896 11.6693C16.4427 11.8155 16.8001 11.8692 17.1574 11.8935C17.4968 11.9167 17.9068 11.9167 18.382 11.9167H18.4513C18.9265 11.9167 19.3366 11.9167 19.6759 11.8935C20.0332 11.8692 20.3906 11.8155 20.7437 11.6693C21.5401 11.3394 22.1728 10.7067 22.5026 9.91039C22.6489 9.5573 22.7025 9.1999 22.7269 8.84258C22.75 8.50322 22.75 8.09319 22.75 7.61799V7.54868C22.75 7.07348 22.75 6.66345 22.7269 6.32409C22.7025 5.96677 22.6489 5.60937 22.5026 5.25628C22.1728 4.45994 21.5401 3.82725 20.7437 3.49739C20.3906 3.35114 20.0332 3.29751 19.6759 3.27313C19.3366 3.24998 18.9265 3.24999 18.4513 3.25ZM16.9188 5.49913C16.9638 5.48046 17.0579 5.45162 17.3049 5.43477C17.5616 5.41726 17.8971 5.41667 18.4167 5.41667C18.9363 5.41667 19.2717 5.41726 19.5284 5.43477C19.7754 5.45162 19.8695 5.48046 19.9146 5.49913C20.18 5.60908 20.3909 5.81998 20.5009 6.08543C20.5195 6.13051 20.5484 6.22458 20.5652 6.47158C20.5828 6.7283 20.5833 7.06374 20.5833 7.58334C20.5833 8.10293 20.5828 8.43837 20.5652 8.6951C20.5484 8.94209 20.5195 9.03616 20.5009 9.08124C20.3909 9.34669 20.18 9.55759 19.9146 9.66754C19.8695 9.68621 19.7754 9.71505 19.5284 9.7319C19.2717 9.74942 18.9363 9.75 18.4167 9.75C17.8971 9.75 17.5616 9.74942 17.3049 9.7319C17.0579 9.71505 16.9638 9.68621 16.9188 9.66754C16.6533 9.55759 16.4424 9.34669 16.3325 9.08124C16.3138 9.03616 16.285 8.94209 16.2681 8.6951C16.2506 8.43837 16.25 8.10293 16.25 7.58334C16.25 7.06374 16.2506 6.7283 16.2681 6.47158C16.285 6.22458 16.3138 6.13051 16.3325 6.08543C16.4424 5.81998 16.6533 5.60908 16.9188 5.49913Z" fill="white"/>
<path fill-rule="evenodd" clip-rule="evenodd" d="M7.54869 14.0833H7.61798C8.09317 14.0833 8.50323 14.0833 8.84258 14.1065C9.1999 14.1308 9.5573 14.1845 9.91039 14.3307C10.7067 14.6606 11.3394 15.2933 11.6693 16.0896C11.8155 16.4427 11.8692 16.8001 11.8935 17.1574C11.9167 17.4968 11.9167 17.9068 11.9167 18.382V18.4513C11.9167 18.9265 11.9167 19.3366 11.8935 19.6759C11.8692 20.0332 11.8155 20.3906 11.6693 20.7437C11.3394 21.5401 10.7067 22.1728 9.91039 22.5026C9.5573 22.6489 9.1999 22.7025 8.84258 22.7269C8.50322 22.75 8.09319 22.75 7.61799 22.75H7.54868C7.07348 22.75 6.66345 22.75 6.32409 22.7269C5.96677 22.7025 5.60937 22.6489 5.25628 22.5026C4.45994 22.1728 3.82725 21.5401 3.49739 20.7437C3.35114 20.3906 3.29751 20.0332 3.27313 19.6759C3.24998 19.3366 3.24999 18.9266 3.25 18.4514V18.382C3.24999 17.9068 3.24998 17.4968 3.27313 17.1574C3.29751 16.8001 3.35114 16.4427 3.49739 16.0896C3.82725 15.2933 4.45994 14.6606 5.25628 14.3307C5.60937 14.1845 5.96677 14.1308 6.32409 14.1065C6.66344 14.0833 7.0735 14.0833 7.54869 14.0833ZM6.47158 16.2681C6.22458 16.285 6.13051 16.3138 6.08543 16.3325C5.81998 16.4424 5.60908 16.6533 5.49913 16.9188C5.48046 16.9638 5.45162 17.0579 5.43477 17.3049C5.41726 17.5616 5.41667 17.8971 5.41667 18.4167C5.41667 18.9363 5.41726 19.2717 5.43477 19.5284C5.45162 19.7754 5.48046 19.8695 5.49913 19.9146C5.60908 20.18 5.81998 20.3909 6.08543 20.5009C6.13051 20.5195 6.22458 20.5484 6.47158 20.5652C6.7283 20.5828 7.06374 20.5833 7.58334 20.5833C8.10293 20.5833 8.43837 20.5828 8.6951 20.5652C8.94209 20.5484 9.03616 20.5195 9.08124 20.5009C9.34669 20.3909 9.55759 20.18 9.66754 19.9146C9.68621 19.8695 9.71505 19.7754 9.7319 19.5284C9.74942 19.2717 9.75 18.9363 9.75 18.4167C9.75 17.8971 9.74942 17.5616 9.7319 17.3049C9.71505 17.0579 9.68621 16.9638 9.66754 16.9188C9.55759 16.6533 9.34669 16.4424 9.08124 16.3325C9.03616 16.3138 8.94209 16.285 8.6951 16.2681C8.43837 16.2506 8.10293 16.25 7.58334 16.25C7.06374 16.25 6.7283 16.2506 6.47158 16.2681Z" fill="white"/>
<path fill-rule="evenodd" clip-rule="evenodd" d="M18.382 14.0833H18.4513C18.9265 14.0833 19.3366 14.0833 19.6759 14.1065C20.0332 14.1308 20.3906 14.1845 20.7437 14.3307C21.5401 14.6606 22.1728 15.2933 22.5026 16.0896C22.6489 16.4427 22.7025 16.8001 22.7269 17.1574C22.75 17.4968 22.75 17.9068 22.75 18.382V18.4513C22.75 18.9265 22.75 19.3366 22.7269 19.6759C22.7025 20.0332 22.6489 20.3906 22.5026 20.7437C22.1728 21.5401 21.5401 22.1728 20.7437 22.5026C20.3906 22.6489 20.0332 22.7025 19.6759 22.7269C19.3366 22.75 18.9265 22.75 18.4513 22.75H18.382C17.9068 22.75 17.4968 22.75 17.1574 22.7269C16.8001 22.7025 16.4427 22.6489 16.0896 22.5026C15.2933 22.1728 14.6606 21.5401 14.3307 20.7437C14.1845 20.3906 14.1308 20.0332 14.1065 19.6759C14.0833 19.3366 14.0833 18.9266 14.0833 18.4514V18.382C14.0833 17.9068 14.0833 17.4968 14.1065 17.1574C14.1308 16.8001 14.1845 16.4427 14.3307 16.0896C14.6606 15.2933 15.2933 14.6606 16.0896 14.3307C16.4427 14.1845 16.8001 14.1308 17.1574 14.1065C17.4968 14.0833 17.9068 14.0833 18.382 14.0833ZM17.3049 16.2681C17.0579 16.285 16.9638 16.3138 16.9188 16.3325C16.6533 16.4424 16.4424 16.6533 16.3325 16.9188C16.3138 16.9638 16.285 17.0579 16.2681 17.3049C16.2506 17.5616 16.25 17.8971 16.25 18.4167C16.25 18.9363 16.2506 19.2717 16.2681 19.5284C16.285 19.7754 16.3138 19.8695 16.3325 19.9146C16.4424 20.18 16.6533 20.3909 16.9188 20.5009C16.9638 20.5195 17.0579 20.5484 17.3049 20.5652C17.5616 20.5828 17.8971 20.5833 18.4167 20.5833C18.9363 20.5833 19.2717 20.5828 19.5284 20.5652C19.7754 20.5484 19.8695 20.5195 19.9146 20.5009C20.18 20.3909 20.3909 20.18 20.5009 19.9146C20.5195 19.8695 20.5484 19.7754 20.5652 19.5284C20.5828 19.2717 20.5833 18.9363 20.5833 18.4167C20.5833 17.8971 20.5828 17.5616 20.5652 17.3049C20.5484 17.0579 20.5195 16.9638 20.5009 16.9188C20.3909 16.6533 20.18 16.4424 19.9146 16.3325C19.8695 16.3138 19.7754 16.285 19.5284 16.2681C19.2717 16.2506 18.9363 16.25 18.4167 16.25C17.8971 16.25 17.5616 16.2506 17.3049 16.2681Z" fill="white"/>
<path fill-rule="evenodd" clip-rule="evenodd" d="M7.54869 3.25H7.61798C8.09319 3.24999 8.50322 3.24998 8.84258 3.27313C9.1999 3.29751 9.5573 3.35114 9.91039 3.49739C10.7067 3.82725 11.3394 4.45994 11.6693 5.25628C11.8155 5.60937 11.8692 5.96677 11.8935 6.32409C11.9167 6.66345 11.9167 7.07348 11.9167 7.54868V7.61799C11.9167 8.09319 11.9167 8.50322 11.8935 8.84258C11.8692 9.1999 11.8155 9.5573 11.6693 9.91039C11.3394 10.7067 10.7067 11.3394 9.91039 11.6693C9.5573 11.8155 9.1999 11.8692 8.84258 11.8935C8.50322 11.9167 8.09319 11.9167 7.61799 11.9167H7.54868C7.07348 11.9167 6.66345 11.9167 6.32409 11.8935C5.96677 11.8692 5.60937 11.8155 5.25628 11.6693C4.45994 11.3394 3.82725 10.7067 3.49739 9.91039C3.35114 9.5573 3.29751 9.1999 3.27313 8.84258C3.24998 8.50322 3.24999 8.09319 3.25 7.61798V7.54869C3.24999 7.07348 3.24998 6.66345 3.27313 6.32409C3.29751 5.96677 3.35114 5.60937 3.49739 5.25628C3.82725 4.45994 4.45994 3.82725 5.25628 3.49739C5.60937 3.35114 5.96677 3.29751 6.32409 3.27313C6.66345 3.24998 7.07348 3.24999 7.54869 3.25ZM6.47157 5.43477C6.22458 5.45162 6.13051 5.48046 6.08543 5.49913C5.81998 5.60908 5.60908 5.81998 5.49913 6.08543C5.48046 6.13051 5.45162 6.22458 5.43477 6.47157C5.41725 6.7283 5.41667 7.06374 5.41667 7.58333C5.41667 8.10293 5.41725 8.43837 5.43477 8.6951C5.45162 8.94209 5.48046 9.03616 5.49913 9.08124C5.60908 9.34669 5.81998 9.55759 6.08543 9.66754C6.13051 9.68621 6.22458 9.71505 6.47157 9.7319C6.7283 9.74941 7.06374 9.75 7.58333 9.75C8.10293 9.75 8.43837 9.74941 8.6951 9.7319C8.94209 9.71505 9.03616 9.68621 9.08124 9.66754C9.34669 9.55759 9.55759 9.34669 9.66754 9.08124C9.68621 9.03616 9.71505 8.94209 9.7319 8.6951C9.74941 8.43837 9.75 8.10293 9.75 7.58333C9.75 7.06374 9.74941 6.7283 9.7319 6.47157C9.71505 6.22458 9.68621 6.13051 9.66754 6.08543C9.55759 5.81998 9.34669 5.60908 9.08124 5.49913C9.03616 5.48046 8.94209 5.45162 8.6951 5.43477C8.43837 5.41725 8.10293 5.41667 7.58333 5.41667C7.06374 5.41667 6.7283 5.41725 6.47157 5.43477Z" fill="white"/>
</svg>
