<svg width="63" height="48" viewBox="0 0 63 48" fill="none" xmlns="http://www.w3.org/2000/svg">
<path d="M75.984 57.8027L29.7114 70.2101L29.7718 57.5121L77.5446 45.3953L75.984 57.8027Z" fill="#1F8616"/>
<path d="M53.3545 39.1913C33.8465 42.8101 1.24851 48.3516 0 48.3516L29.7709 57.5118L77.5445 45.395L53.3545 39.1913Z" fill="#85D637"/>
<path fill-rule="evenodd" clip-rule="evenodd" d="M52.9721 40.6879L69.1593 44.6451L72.9822 45.643L29.9347 55.5005L17.2071 51.8525L6.56104 48.9269L52.9721 40.6879ZM11.4765 48.9269L29.9347 53.8419L68.2917 45.3951L52.9721 41.4066L11.4765 48.9269Z" fill="#C7F85B"/>
<ellipse cx="41.65" cy="47.7214" rx="9.36389" ry="3.87732" fill="#C7F85B"/>
<path opacity="0.3" d="M44.8912 66.0837C44.8912 66.0837 40.2397 56.1635 40.2397 55.388L72.4444 46.6687C77.6768 61.4334 44.8912 66.0837 44.8912 66.0837Z" fill="#1A7109"/>
<path d="M6.56152 45.0924V33.6421L36.3324 42.8024V55.3976C36.3324 55.3976 22.4607 50.8475 20.1198 50.0721C17.7788 49.2966 6.56152 45.0924 6.56152 45.0924Z" fill="#25951C"/>
<path d="M82.5455 43.0928L36.2729 55.5003L36.3333 42.8022L84.1061 30.6854L82.5455 43.0928Z" fill="#247D1D"/>
<path d="M14.3647 45.4436L6.56152 42.3417V40.7908L33.7757 52.0458L14.3647 45.4436Z" fill="#248E1B"/>
<path d="M59.9166 24.4818C40.4086 28.1006 7.81052 33.6421 6.56201 33.6421L36.3329 42.8024L84.1065 30.6855L59.9166 24.4818Z" fill="#85DC30"/>
<path fill-rule="evenodd" clip-rule="evenodd" d="M59.5127 25.9818C59.5265 25.9793 59.5407 25.9798 59.5544 25.9831L75.721 29.9353L79.1446 30.8289C79.2469 30.8556 79.2447 31.0016 79.1416 31.0252L36.5216 40.7849C36.505 40.7887 36.4876 40.7882 36.4712 40.7835L23.7687 37.1427L13.5544 34.3358C13.4505 34.3072 13.4575 34.1576 13.5635 34.1388L59.5127 25.9818ZM18.4832 34.1364C18.377 34.1557 18.3709 34.3057 18.4753 34.3335L36.4725 39.1258C36.4881 39.1299 36.5045 39.1303 36.5202 39.1268L74.8534 30.6852L59.5552 26.7023C59.541 26.6986 59.5262 26.6981 59.5118 26.7007L18.4832 34.1364Z" fill="#C7F85B"/>
<ellipse cx="48.211" cy="33.0118" rx="9.36384" ry="3.87732" fill="#C7F85B"/>
<path opacity="0.3" d="M51.4528 51.3741C51.4528 51.3741 46.8013 41.4539 46.8013 40.6784L79.0061 31.9591C84.2385 46.7238 51.4528 51.3741 51.4528 51.3741Z" fill="#1A7109"/>
<path d="M12.1235 36.4052V24.9548L41.8944 34.1151V46.7104C41.8944 46.7104 28.0227 42.1603 25.6818 41.3848C23.3408 40.6093 12.1235 36.4052 12.1235 36.4052Z" fill="#56B729"/>
<path opacity="0.3" d="M12.1333 36.3654L12.1333 24.6816L41.8773 34.1322L34.2045 42.037L12.1333 36.3654Z" fill="#1A7109"/>
<path d="M88.1075 34.4056L41.835 46.813L41.8953 34.115L89.6682 21.9982L88.1075 34.4056Z" fill="#25951C"/>
<path d="M12.1235 29.1389V27.588L28.8522 34.2041L12.1235 29.1389Z" fill="#25951C"/>
<path d="M19.9267 36.7562L12.1235 33.6543V32.1034L39.3377 43.3584L19.9267 36.7562Z" fill="#25951C"/>
<path d="M65.4781 15.7944C45.9701 19.4133 13.372 24.9547 12.1235 24.9547L41.8944 34.115L89.668 21.9981L65.4781 15.7944Z" fill="#85DC30"/>
<path fill-rule="evenodd" clip-rule="evenodd" d="M65.0956 17.2913L81.2829 21.2485L85.1057 22.2463L42.0582 32.1039L29.3307 28.4559L18.6846 25.5303L65.0956 17.2913ZM25.6976 25.9166L42.3756 29.8733L79.6383 22.2605L64.6631 18.8547L25.6976 25.9166Z" fill="#C7F85B"/>
<path d="M6.56152 23.5522V12.1018L36.3324 21.2621V33.8573C36.3324 33.8573 22.4607 29.3072 20.1198 28.5318C17.7788 27.7563 6.56152 23.5522 6.56152 23.5522Z" fill="#56B729"/>
<path d="M82.5455 21.5526L36.2729 33.96L36.3333 21.2619L84.1061 9.14514L82.5455 21.5526Z" fill="#25951C"/>
<path d="M6.56152 16.2862V14.7352L23.2902 21.3513L6.56152 16.2862Z" fill="#25951C"/>
<path d="M14.3647 23.9034L6.56152 20.8015V19.2506L33.7757 30.5057L14.3647 23.9034Z" fill="#25951C"/>
<path d="M59.9166 2.94153C40.4086 6.56036 7.81052 12.1018 6.56201 12.1018L36.3329 21.2621L84.1065 9.14524L59.9166 2.94153Z" fill="#85DC30"/>
<path fill-rule="evenodd" clip-rule="evenodd" d="M59.5337 4.43823L75.721 8.39551L79.5438 9.39332L36.4962 19.2509L23.7687 15.6029L13.1226 12.6773L59.5337 4.43823ZM20.1356 13.0636L36.8137 17.0202L74.0764 9.40743L59.1012 6.0017L20.1356 13.0636Z" fill="#C7F85B"/>
<ellipse cx="53.7735" cy="24.3245" rx="9.36384" ry="3.87732" fill="#C7F85B"/>
<path d="M28.8532 56.76C42.357 70.5238 75.3926 70.3333 75.3926 70.3333L75.3322 57.6352C75.3322 57.6352 60.2468 56.4521 28.8532 45.7141V56.76Z" fill="#56B729"/>
<path d="M51.5296 37.8578C72.5683 48.9978 103.574 48.4567 104.823 48.4567L75.4819 57.5851C75.4819 57.5851 48.381 56.9707 28.8523 45.7068L51.5296 37.8578Z" fill="#85DC30"/>
<path fill-rule="evenodd" clip-rule="evenodd" d="M51.8609 39.8776L34.0248 46.051L36.1979 47.3044C42.8521 51.1424 52.6278 53.3354 60.6206 54.5764C65.4015 55.3187 70.229 55.871 75.0617 56.1339L75.0808 56.1349C75.0808 56.1349 75.0826 56.1349 75.1379 54.9912L75.0808 56.1349L75.2975 56.1453L97.856 49.0822C90.6283 48.6572 83.4476 48.2303 76.2842 47.0938C68.4371 45.8489 59.0826 43.7015 52.3008 40.1105L51.8609 39.8776ZM75.1379 54.3314C63.3537 53.6819 49.3489 51.5186 38.7112 46.491L51.3398 41.8988C62.7166 47.7351 76.0098 48.7502 88.4695 49.9911L75.1379 54.3314Z" fill="#C7F85B"/>
<ellipse cx="62.4352" cy="49.5914" rx="9.36389" ry="3.87732" fill="#C7F85B"/>
<path opacity="0.3" d="M38.1904 32.9407C38.1904 32.9407 36.333 22.3134 36.333 21.538L66.0769 30.9885L58.4041 38.8934L60.3162 52.3122C50.9518 50.1547 42.0464 41.1116 42.0464 41.1116V34.1342L38.1904 32.9407Z" fill="#1A7109"/>
<path opacity="0.3" d="M49.4219 37.6825C49.4219 37.6825 47.5645 27.0552 47.5645 26.2798L77.3084 35.7303L91.8799 47.9303L75.743 55.5469C64.5762 55.0951 60.1224 52.0613 60.1224 52.0613L53.2778 38.876L49.4219 37.6825Z" fill="#1A7109"/>
<path d="M62.841 4.89746L94.3951 38.908L63.366 43.2942L45.8967 27.9678L37.9013 8.14087L62.841 4.89746Z" fill="#88CF42"/>
<path d="M35.7331 19.8148L37.9004 8.13928C39.2365 11.8213 55.4335 33.109 63.365 43.2926L60.034 52.3126C52.5933 49.8973 40.7331 29.641 35.7331 19.8148Z" fill="#56B729"/>
<path d="M94.3942 38.9067L63.3651 43.2929L60.0341 52.3129L91.7961 48.016L94.3942 38.9067Z" fill="#25951C"/>
<path opacity="0.3" d="M93.1328 43.1516C56.0363 42.3992 37.8249 8.75861 37.9004 8.1394L65.372 14.6308C86.9911 24.3885 98.609 28.7375 93.1328 43.1516Z" fill="#1A7109"/>
<path d="M81.8854 31.7255C63.7957 38.569 45.027 18.8529 37.9038 8.13946L67.4672 3.57456C82.1924 19.4462 99.5614 22.9882 107.504 22.9092C106.901 27.8629 91.4568 44.9139 81.8854 31.7255Z" fill="#82DC34"/>
<path fill-rule="evenodd" clip-rule="evenodd" d="M66.8573 5.16663L67.4796 5.8138C76.5594 15.2563 85.2588 19.8207 91.615 22.0331C94.7985 23.1411 97.408 23.6639 99.2012 23.9104C100.098 24.0337 100.791 24.0878 101.25 24.1114C101.479 24.1232 101.65 24.1274 101.758 24.1287C101.812 24.1294 101.85 24.1294 101.873 24.1292L101.891 24.1291L101.893 24.129L101.896 24.129L104.845 24.0565L103.228 26.1051L101.994 25.3798C103.228 26.1051 103.228 26.1051 103.228 26.1051L103.224 26.1095L103.219 26.1163L103.202 26.1372C103.188 26.1542 103.169 26.1776 103.145 26.2068C103.096 26.2653 103.026 26.3474 102.934 26.4507C102.751 26.6571 102.482 26.9479 102.124 27.3017C101.41 28.0089 100.342 28.97 98.903 30.0121C96.0265 32.0959 92.5015 34.4208 86.5201 35.7668C86.5201 35.7668 85.1557 35.1487 84.3103 34.4516C83.465 33.7546 82.819 32.905 82.819 32.905C88.3088 31.6697 94.3079 29.9862 96.9383 28.0807C97.7736 27.4756 98.4688 26.9028 99.0274 26.4047C98.9678 26.3969 98.9075 26.3887 98.8464 26.3803C96.8449 26.1052 94.0098 25.5322 90.5935 24.3432C83.9021 22.0141 75.0333 17.3398 65.8529 7.99229C62.1768 8.77378 57.1432 9.73362 52.9118 10.519C50.6097 10.9463 48.5389 11.3231 47.0437 11.5931C46.9403 11.6117 46.8395 11.6299 46.7417 11.6475C47.0378 11.9905 47.3832 12.3832 47.7745 12.8164C49.2537 14.4537 51.3814 16.6608 53.9752 18.9413C59.2182 23.551 73.2894 31.0559 80.4592 32.2242C80.4592 32.2242 78.9628 32.6018 78.5191 32.7146C78.0753 32.8274 76.5515 33.0108 76.5515 33.0108C68.4065 31.6836 57.2332 25.3339 51.896 20.6415C49.1997 18.2709 46.9946 15.9829 45.4634 14.288C44.697 13.4397 44.0977 12.7379 43.6882 12.246C43.4834 12 43.326 11.8063 43.2187 11.6729C43.1651 11.6062 43.124 11.5545 43.0959 11.5188L43.0633 11.4775L43.0544 11.4661L43.0509 11.4616C43.0509 11.4616 43.0504 11.4609 44.2698 10.8012L43.9129 9.57593L44.5565 9.46119C44.972 9.3869 45.574 9.27894 46.3196 9.14432C47.811 8.87506 49.8762 8.49929 52.1717 8.07321C56.7697 7.21977 62.2675 6.16897 65.9326 5.36858L66.8573 5.16663ZM44.2698 10.8012L43.9129 9.57593L41.8663 9.93895L43.0509 11.4616L44.2698 10.8012Z" fill="#D4FD5F"/>
<path d="M42.4156 24.876L40.8638 20.4399L46.8353 30.62L51.255 36.3641L46.4196 31.1218L42.4156 24.876Z" fill="#25951C"/>
<ellipse cx="70.4805" cy="21.5378" rx="11.0745" ry="6.86165" transform="rotate(6.95121 70.4805 21.5378)" fill="#D4FD5F"/>
<g clip-path="url(#clip0_1521_47742)">
<path d="M45.7259 37.4253L44.3451 33.6208C43.6318 31.6187 43.4794 29.4577 43.9045 27.3743C44.4959 24.2748 46.2256 21.2022 48.8631 18.5399C51.6553 15.7823 55.0272 13.6904 58.7301 12.4184C62.3599 11.1165 66.2347 10.6539 70.0666 11.0649L71.4504 14.8783C67.6185 14.4672 63.7437 14.9298 60.1139 16.2317C56.4106 17.5034 53.0379 19.5942 50.244 22.3503C47.6094 25.0274 45.8826 28.0882 45.2883 31.1847C44.8642 33.266 45.0156 35.4244 45.7259 37.4253Z" fill="#FFD000"/>
<path d="M60.563 18.7479C60.1017 17.4778 59.6434 16.2077 59.1792 14.9346L59.4512 14.8394C59.6612 14.765 59.8741 14.6937 60.0869 14.6252L60.2052 14.9524L60.3294 15.2975L60.4595 15.6544L60.5926 16.0203L60.7256 16.3862L60.8557 16.7431L60.9799 17.0882L61.0982 17.4154L61.1425 17.5343L61.1869 17.6622L61.2342 17.7931L61.2845 17.927L61.3318 18.0608L61.3791 18.1917L61.4264 18.3196L61.4678 18.4386C61.2579 18.507 61.045 18.5784 60.835 18.6528L60.563 18.7479Z" fill="#FFD000"/>
<path d="M51.5503 24.9618L50.1665 21.1484C50.5125 20.726 50.888 20.3096 51.2871 19.908C53.526 17.6886 56.2192 15.9873 59.179 14.9227C59.6432 16.1958 60.1015 17.466 60.5628 18.7361C57.6025 19.8014 54.9085 21.5026 52.668 23.7214C52.2718 24.123 51.8963 24.5394 51.5503 24.9618Z" fill="#FFD000"/>
<path d="M50.6011 26.2407L49.2114 22.4274C49.5063 21.9853 49.823 21.5584 50.1606 21.1483L50.2788 21.4725L50.403 21.8176L50.5331 22.1745L50.6662 22.5404L50.7963 22.9033L50.9264 23.2602L51.0506 23.6053L51.1689 23.9295L51.2132 24.0515L51.2605 24.1794L51.3078 24.3102L51.3581 24.4471L51.4054 24.5809L51.4527 24.7148L51.5 24.8427L51.5444 24.9617C51.2089 25.3719 50.8941 25.7987 50.6011 26.2407Z" fill="#FFD000"/>
<path d="M61.4678 18.4269C61.0104 17.1578 60.5502 15.8867 60.0869 14.6136C62.9344 13.6878 65.9454 13.3836 68.919 13.7212C70.826 13.9366 72.6745 14.5161 74.3655 15.4286C75.8743 16.2404 77.1641 17.4093 78.1237 18.8345C78.4782 19.3717 78.7755 19.945 79.0107 20.5448L79.1024 20.8036L79.2029 21.0802L79.3064 21.3777L79.4128 21.6751L79.5193 21.9726L79.6228 22.27L79.7203 22.5467L79.815 22.8055L79.883 22.9899L79.9539 23.1892L80.0279 23.3914L80.1047 23.5997L80.1787 23.8079L80.2526 24.0131L80.3265 24.2094L80.3916 24.3968C80.157 23.7957 79.8596 23.2214 79.5045 22.6835C78.544 21.26 77.2543 20.0923 75.7464 19.2806C74.0554 18.3681 72.2068 17.7886 70.2999 17.5733C67.329 17.2237 64.3181 17.5147 61.4678 18.4269Z" fill="#FFD000"/>
<path d="M59.4157 18.9978L60.7995 22.8112L60.6221 22.9212L59.2383 19.1079L59.4157 18.9978Z" fill="#FCDF8F"/>
<path d="M60.5747 22.951L59.1909 19.1377L60.5747 22.951Z" fill="#CA820B"/>
<path d="M59.2382 19.1079L60.622 22.9213C60.6079 22.9329 60.5919 22.9419 60.5747 22.948L59.1909 19.1347C59.1909 19.1347 59.2087 19.1287 59.2382 19.1079Z" fill="#CA820B"/>
<path d="M59.4156 18.9978L60.7994 22.8112C60.7787 22.8498 60.7609 22.8915 60.7432 22.9331L59.3594 19.1227C59.3771 19.0781 59.3949 19.0454 59.4156 18.9978Z" fill="#CA820B"/>
<path d="M59.3595 19.1228L60.7433 22.9332H60.6221L59.2383 19.1199L59.3595 19.1228Z" fill="#CA820B"/>
<path d="M61.0714 22.9658L60.7432 22.9331L59.3594 19.1227L59.6905 19.1524C60.1498 20.4255 60.6101 21.6966 61.0714 22.9658Z" fill="#FCDF8F"/>
<path d="M61.0718 22.9661L61.057 22.9274L59.6909 19.1527C60.167 19.1973 60.646 19.2271 61.125 19.2866H61.1398C61.3704 19.9172 61.5991 20.5468 61.8258 21.1754L62.5117 23.0642H62.5177C62.0298 23.0404 61.5508 23.0107 61.0718 22.9661Z" fill="#FCDF8F"/>
<path d="M59.3596 19.1227L60.7434 22.9331C60.5246 23.4239 60.3028 23.9414 60.084 24.4203L58.7002 20.6099C58.919 20.1281 59.1408 19.6105 59.3596 19.1227Z" fill="#FCDF8F"/>
<path d="M60.0839 24.4234C60.0725 24.4356 60.0639 24.4502 60.0588 24.4662C60.0537 24.4821 60.0522 24.499 60.0543 24.5156L58.6735 20.7023C58.6711 20.6861 58.6725 20.6696 58.6777 20.6541C58.6828 20.6386 58.6915 20.6245 58.703 20.613C59.1141 21.7553 59.667 23.2812 60.0839 24.4234Z" fill="#FCDF8F"/>
<path d="M60.0547 24.5156L58.6738 20.7023C58.6738 20.7231 58.7034 20.735 58.7389 20.738C58.7605 20.741 58.7823 20.741 58.8039 20.738L60.1877 24.5513C60.1652 24.5543 60.1423 24.5543 60.1197 24.5513C60.1068 24.5511 60.0942 24.5477 60.0828 24.5415C60.0715 24.5353 60.0618 24.5264 60.0547 24.5156Z" fill="#CA820B"/>
<path d="M62.5175 23.0997V23.064L61.8315 21.1752L61.6541 20.6814L61.4767 20.1966L61.3081 19.7296L61.1455 19.2864C61.7724 19.3607 62.4022 19.3905 63.0556 19.4678C63.2035 19.4857 63.2656 19.4321 63.3336 19.2983L64.7174 23.1116C64.6494 23.2455 64.5873 23.299 64.4394 23.2812C63.7801 23.2098 63.1502 23.1741 62.5175 23.0997Z" fill="#FCDF8F"/>
<path d="M60.9031 21.3478L62.2869 25.1612C62.2325 25.0403 62.1471 24.9362 62.0396 24.8593C61.9321 24.7825 61.8062 24.7358 61.6748 24.7239C61.5152 24.6971 61.3525 24.6733 61.1958 24.6555C60.844 24.6109 60.501 24.5811 60.1846 24.5514L58.8008 20.738C59.1172 20.7708 59.4602 20.7975 59.812 20.8421C59.9687 20.86 60.1314 20.8838 60.291 20.9106C60.4224 20.9224 60.5483 20.9692 60.6558 21.046C60.7633 21.1228 60.8487 21.227 60.9031 21.3478Z" fill="#CA820B"/>
<path d="M62.2692 25.5895L62.1095 25.1433L62.0238 24.9113L61.8493 24.4294L61.7577 24.1825C61.462 23.3794 61.1663 22.5793 60.8706 21.7761C60.9307 21.6461 60.9371 21.4974 60.8884 21.3627L62.2722 25.176C62.3256 25.3088 62.3245 25.4575 62.2692 25.5895Z" fill="#FCDF8F"/>
<path d="M48.5552 31.0536C48.5374 31.1488 48.5197 31.244 48.5049 31.3511L47.1211 27.5377C47.1211 27.4426 47.1536 27.3474 47.1714 27.2403C47.5251 25.5151 48.2188 23.8786 49.2116 22.4275L49.3003 22.6714L49.3949 22.9332L49.4925 23.2038L49.593 23.4775L49.6935 23.7541L49.7911 24.0248L49.8857 24.2836L49.9744 24.5305L50.5954 26.2408C49.6014 27.6913 48.9076 29.328 48.5552 31.0536Z" fill="#FFD000"/>
<path d="M48.5047 31.3393C48.414 31.8739 48.3666 32.415 48.3628 32.9574L46.979 29.1589C46.9827 28.6166 47.0302 28.0754 47.1209 27.5408C47.322 28.094 47.5231 28.6443 47.7123 29.1976C47.8927 29.6884 48.0701 30.1822 48.2504 30.6849L48.3332 30.9169C48.4069 31.0503 48.4645 31.1921 48.5047 31.3393Z" fill="#FFD000"/>
<path d="M62.5765 26.5979L63.9603 30.4113H63.9248C63.7859 30.3934 63.777 30.444 63.709 30.5779L62.3252 26.7645C62.3932 26.6307 62.4021 26.5801 62.541 26.5979H62.5765Z" fill="#CA820B"/>
<path d="M48.3628 32.9574C48.352 34.0725 48.5392 35.1805 48.9157 36.2294L47.5319 32.4309C47.1554 31.3821 46.9682 30.274 46.979 29.1589L47.1416 29.6051L47.3131 30.0781L47.4905 30.5689L47.6709 31.0656L47.8512 31.5653L47.9399 31.8122L48.1173 32.2941L48.2829 32.7551C48.3145 32.8205 48.3412 32.8881 48.3628 32.9574Z" fill="#FFD000"/>
<path d="M55.6132 29.4564L56.997 33.2698C56.8196 33.2876 56.7605 33.2906 56.6865 33.4334L55.3027 29.623C55.3767 29.4802 55.4358 29.4743 55.6132 29.4564Z" fill="#FCDF8F"/>
<path d="M57.0917 33.2817H56.9971L55.6133 29.4564H55.7079L56.184 29.507L56.2815 29.7717L56.3821 30.0513L56.4885 30.3488L56.595 30.6462L56.7014 30.9437L56.8078 31.2411L56.9084 31.5207L57.003 31.7855L57.071 31.9669L57.139 32.1603L57.2129 32.3596L57.2869 32.5618L57.3608 32.7671L57.4317 32.9664L57.5027 33.1597L57.5678 33.3412L57.0917 33.2817Z" fill="#FCDF8F"/>
<path d="M60.8852 21.7612L62.269 25.5746C61.2784 28.0345 60.2347 30.4528 59.1939 32.8711L57.8101 29.0607C58.8509 26.6424 59.8946 24.2212 60.8852 21.7612Z" fill="#FCDF8F"/>
<path d="M56.4053 33.918L55.0215 30.1047C55.122 29.9441 55.2166 29.7864 55.3024 29.6377L56.6862 33.4481C56.6034 33.5849 56.5058 33.7426 56.4053 33.918Z" fill="#FCDF8F"/>
<path d="M57.5679 33.3232L56.1841 29.5099C56.4206 29.5337 56.6572 29.5486 56.8789 29.5515L58.2627 33.3619C58.041 33.3708 57.8044 33.353 57.5679 33.3232Z" fill="#FCDF8F"/>
<path d="M59.1941 32.8711C59.1205 33.05 58.9873 33.1977 58.8174 33.2888C58.6475 33.38 58.4515 33.4089 58.2627 33.3708L56.8789 29.5604C57.0676 29.5974 57.2632 29.5679 57.4328 29.4769C57.6024 29.3859 57.7357 29.2389 57.8103 29.0607C58.2243 30.2029 59.1616 31.6545 59.1941 32.8711Z" fill="#FCDF8F"/>
<path d="M62.3251 26.7584L63.7089 30.5718C63.5374 31.0418 63.3097 31.4641 63.1382 31.943L61.7544 28.1297C61.9259 27.6716 62.1536 27.2284 62.3251 26.7584Z" fill="#CA820B"/>
<path d="M56.4056 33.9182C56.2459 34.174 56.0714 34.4417 55.897 34.7094L54.5132 30.8961C54.6876 30.6284 54.8621 30.3607 55.0218 30.1049L55.1193 30.3785L55.2258 30.676L55.3352 30.9734L55.4446 31.2709L55.557 31.5683L55.6634 31.8658L55.7698 32.1632L55.8674 32.4339L55.9325 32.6064L55.9975 32.7909L56.0655 32.9812L56.1365 33.1746L56.2075 33.3679L56.2755 33.5553L56.3405 33.7397L56.4056 33.9182Z" fill="#FCDF8F"/>
<path d="M55.7641 34.8878C55.3029 33.6187 54.8426 32.3476 54.3833 31.0745C54.4217 31.015 54.4631 30.9495 54.5134 30.8811L55.8972 34.6945C55.8469 34.7629 55.8055 34.8253 55.7641 34.8878Z" fill="#FCDF8F"/>
<path d="M65.9445 27.0768L67.3283 30.8902C66.8117 30.7187 66.2784 30.603 65.7375 30.5451C65.1461 30.4708 64.5548 30.438 63.9634 30.4023L62.5796 26.589C63.171 26.6247 63.7623 26.6574 64.3537 26.7318C64.8946 26.7896 65.4279 26.9053 65.9445 27.0768Z" fill="#CA820B"/>
<path d="M55.7643 34.8877C55.6933 34.9977 55.6312 35.1019 55.5425 35.2268L54.1587 31.4134C54.2474 31.2885 54.3125 31.1844 54.3834 31.0743L54.4869 31.3718L54.5963 31.6692L54.7087 31.9816L54.824 32.3028L54.9423 32.6211L55.0546 32.9364L55.164 33.2338L55.2675 33.5313L55.3266 33.6919L55.3887 33.8615L55.4508 34.037L55.5159 34.2184L55.5809 34.3969L55.646 34.5724L55.7081 34.7419L55.7643 34.8877Z" fill="#FCDF8F"/>
<path d="M61.7547 28.1295L63.1385 31.9429C62.8251 32.6092 62.5738 33.2695 62.2515 33.9834L60.8677 30.17C61.19 29.4562 61.4413 28.7958 61.7547 28.1295Z" fill="#CA820B"/>
<path d="M60.9829 30.2061L62.3667 34.0195C62.343 34.0001 62.3143 33.9877 62.2839 33.9838H62.2573L60.8735 30.1704H60.9001C60.9305 30.1744 60.9591 30.1867 60.9829 30.2061Z" fill="#FCDF8F"/>
<path d="M58.1741 31.8358L59.5579 35.6492C58.2391 35.5064 56.9204 35.3517 55.5425 35.2208L54.1587 31.4075C55.5366 31.5532 56.8553 31.699 58.1741 31.8358Z" fill="#CA820B"/>
<path d="M58.1737 31.8361L59.5575 35.6494C59.5575 35.7416 59.4836 35.7922 59.4777 35.8398L58.082 32.0324C58.0998 31.9848 58.1619 31.9342 58.1737 31.8361Z" fill="#FCDF8F"/>
<path d="M63.8688 30.3785L65.2526 34.1918C64.2877 34.2078 63.3229 34.1502 62.3667 34.0193L60.9829 30.2059C61.9391 30.3368 62.9039 30.3945 63.8688 30.3785Z" fill="#FCDF8F"/>
<path d="M61.6777 32.184L63.0615 35.9944C62.6032 35.9498 62.142 35.9052 61.6245 35.8635L60.2407 32.0502C60.7582 32.0918 61.2194 32.1335 61.6777 32.184Z" fill="#CA820B"/>
<path d="M61.7398 32.2256L63.1236 36.039C63.1236 36.0211 63.1 36.0092 63.0615 35.9943L61.6777 32.184C61.7162 32.1959 61.7339 32.2078 61.7398 32.2256Z" fill="#CA820B"/>
<path d="M61.74 32.2256L63.1238 36.0389C63.1238 36.0717 63.106 36.1133 63.1001 36.1728L61.7163 32.3594C61.7222 32.2999 61.7518 32.2583 61.74 32.2256Z" fill="#FCDF8F"/>
<path d="M58.0823 32.0321L59.4661 35.8455C59.0847 36.6099 58.7564 37.413 58.4282 38.2251L57.0444 34.4117C57.3845 33.6027 57.7127 32.7966 58.0823 32.0321Z" fill="#FCDF8F"/>
<path d="M62.8931 36.5952L61.5093 32.7819C61.5743 32.6361 61.6453 32.4844 61.7163 32.3506L63.1001 36.1639C63.0291 36.3156 62.9581 36.4584 62.8931 36.5952Z" fill="#FCDF8F"/>
<path d="M58.3955 38.3293L57.0117 34.513C57.0117 34.4862 57.0117 34.4505 57.0561 34.403L58.4399 38.2163C58.4044 38.2669 58.3778 38.3026 58.3955 38.3293Z" fill="#FCDF8F"/>
<path d="M58.3955 38.3294L57.0117 34.5131C57.0117 34.5398 57.0649 34.5607 57.1507 34.5755L58.5345 38.3889C58.4487 38.38 58.4073 38.3562 58.3955 38.3294Z" fill="#CA820B"/>
<path d="M60.2403 32.0502L61.6241 35.8635C61.4585 36.2889 61.2308 36.7202 61.0652 37.1426C60.8996 37.565 60.672 38.0022 60.5034 38.4276L59.1196 34.6142C59.2882 34.1889 59.5129 33.7576 59.6814 33.3292C59.85 32.9009 60.0747 32.4755 60.2403 32.0502Z" fill="#CA820B"/>
<path d="M58.9072 34.7332L60.291 38.5465L60.0515 38.5138C59.5489 38.4513 59.0403 38.4216 58.5347 38.3918L57.1509 34.5785C57.6565 34.6082 58.1651 34.638 58.6677 34.7004L58.9072 34.7332Z" fill="#CA820B"/>
<path d="M59.1201 34.614L60.5039 38.4274C60.4389 38.5196 60.433 38.5642 60.291 38.5463L58.9072 34.733C59.0492 34.7508 59.058 34.7062 59.1201 34.614Z" fill="#CA820B"/>
<path d="M62.8929 36.5953C62.5972 37.2289 62.3252 37.8833 62.0591 38.5377L60.6782 34.7244C60.9443 34.07 61.2105 33.4156 61.5091 32.782L61.6392 33.1449L61.7782 33.5286L61.9231 33.9272L62.0709 34.3347L62.2187 34.7392L62.3636 35.1408L62.5026 35.5245L62.6357 35.8874L62.6652 35.9707L62.6977 36.0569L62.7303 36.1492L62.7628 36.2414L62.7953 36.3336L62.8308 36.4228L62.8604 36.512L62.8929 36.5953Z" fill="#FCDF8F"/>
<path d="M62.0181 38.6566L60.6343 34.8462C60.6343 34.8164 60.6343 34.7837 60.6786 34.7332L62.0595 38.5465C62.0269 38.5971 62.0063 38.6298 62.0181 38.6566Z" fill="#FCDF8F"/>
<path d="M62.0181 38.6566L60.6343 34.8462C60.6343 34.873 60.6845 34.8908 60.7703 34.9057L62.1541 38.719C62.0683 38.7042 62.0269 38.6774 62.0181 38.6566Z" fill="#CA820B"/>
<path d="M62.3785 35.0692L63.7623 38.8826C63.2449 38.8409 62.6713 38.7606 62.1538 38.719L60.77 34.9056C61.2904 34.9473 61.8611 35.0276 62.3785 35.0692Z" fill="#CA820B"/>
<path d="M63.7238 32.5737L65.1076 36.3871C64.7853 37.1456 64.4541 37.9517 64.1318 38.7102C64.0668 38.8649 64.049 38.9244 63.8835 38.9035L63.7622 38.8827L62.3784 35.0694C62.4182 35.0794 62.4588 35.0864 62.4996 35.0902C62.6652 35.111 62.683 35.0545 62.748 34.8968C63.0703 34.1383 63.4044 33.3233 63.7238 32.5737Z" fill="#CA820B"/>
<path d="M48.916 36.2442L47.5322 32.4309C47.7791 33.1071 48.1036 33.7519 48.4991 34.3524C49.8622 36.4197 52.0473 37.9843 54.8208 38.847C55.7622 39.1406 56.7281 39.3477 57.7067 39.4657C59.8055 39.7106 61.9295 39.6243 64.0018 39.2098C67.2306 38.5816 70.2847 37.254 72.9522 35.3192C75.5601 33.4095 77.5442 31.0299 78.653 28.4777C79.367 26.8921 79.7022 25.1603 79.6317 23.421L81.0155 27.2344C81.0879 28.9786 80.7527 30.7157 80.0368 32.306C78.928 34.8522 76.9439 37.2318 74.336 39.1474C71.6685 41.0822 68.6144 42.4099 65.3856 43.0381C63.3133 43.4526 61.1893 43.5389 59.0905 43.2939C58.1121 43.1748 57.1463 42.9678 56.2046 42.6752C53.4429 41.8126 51.246 40.248 49.8829 38.1807C49.4864 37.5755 49.1619 36.9256 48.916 36.2442Z" fill="#FCDF8F"/>
<path d="M81.3233 17.2609C83.5351 20.6013 83.7746 24.7895 81.9827 28.9033C80.6462 31.973 78.2541 34.8375 75.1051 37.1368C71.8808 39.4676 68.1911 41.0651 64.2919 41.8187C61.7837 42.3149 59.214 42.4152 56.6751 42.1161C56.1695 42.0537 55.6698 41.9734 55.1789 41.8752C54.5061 41.7428 53.8408 41.574 53.186 41.3695C49.8478 40.3255 47.1836 38.4426 45.5337 35.9499C44.7105 34.7006 44.1425 33.299 43.8628 31.8268C43.5831 30.3545 43.5973 28.841 43.9045 27.3744C44.4959 24.2749 46.2256 21.2022 48.8631 18.54C51.6553 15.7824 55.0272 13.6904 58.7301 12.4184C62.3813 11.1112 66.279 10.6516 70.1317 11.0739C75.0992 11.6986 79.1087 13.9146 81.3233 17.2609ZM72.9525 35.3253C75.5605 33.4156 77.5445 31.036 78.6533 28.4839C79.3673 26.8982 79.7025 25.1665 79.632 23.4272C79.5492 21.7886 79.0282 20.2029 78.124 18.8374C77.1645 17.4123 75.8747 16.2434 74.3659 15.4316C72.6749 14.5191 70.8263 13.9396 68.9194 13.7242C65.7219 13.3699 62.4862 13.7523 59.4575 14.8426C56.3897 15.8943 53.5958 17.6254 51.2818 19.9083C49.0938 22.1154 47.6627 24.6675 47.1659 27.2405C46.9103 28.4555 46.896 29.7093 47.1238 30.9299C47.3516 32.1505 47.8171 33.3137 48.4935 34.3526C49.8566 36.4199 52.0417 37.9845 54.8153 38.8471C55.7566 39.1408 56.7225 39.3479 57.7011 39.4658C59.7999 39.7108 61.9239 39.6245 63.9963 39.21C67.225 38.5818 70.2791 37.2542 72.9466 35.3193" fill="#FFD000"/>
<path d="M78.1235 18.8223C79.0277 20.1877 79.5487 21.7734 79.6315 23.412C79.7015 25.1547 79.3643 26.8897 78.6469 28.4776C77.5381 31.0297 75.554 33.4094 72.9461 35.319C70.2786 37.2539 67.2245 38.5815 63.9957 39.2097C61.9234 39.6242 59.7994 39.7105 57.7006 39.4655C56.722 39.3476 55.7561 39.1405 54.8147 38.8468C52.0412 37.9842 49.8561 36.4196 48.493 34.3523C47.8166 33.3134 47.3511 32.1502 47.1233 30.9296C46.8954 29.709 46.9097 28.4552 47.1654 27.2402C47.6621 24.6672 49.0932 22.1151 51.2813 19.908C53.5938 17.6197 56.3878 15.8835 59.457 14.8275C62.4857 13.7371 65.7214 13.3547 68.9189 13.709C70.8258 13.9244 72.6744 14.5039 74.3654 15.4164C75.8742 16.2282 77.164 17.3971 78.1235 18.8223Z" fill="#EBA500"/>
<path d="M59.457 14.8275C62.4857 13.7371 65.7214 13.3547 68.9189 13.709C61.4581 14.2173 52.4979 17.5093 49.5799 25.2081C46.662 32.907 51.7796 37.4848 51.7796 37.4848C50.4223 36.6499 49.31 35.5914 48.493 34.3523C47.8166 33.3134 47.3511 32.1502 47.1233 30.9296C46.8954 29.709 46.9097 28.4552 47.1654 27.2402C47.6621 24.6672 49.0932 22.1151 51.2813 19.908C53.5938 17.6197 56.3878 15.8835 59.457 14.8275Z" fill="#DF7900"/>
<path d="M59.1909 19.1359L59.2311 19.1079C59.2095 19.1297 59.194 19.139 59.1909 19.1359Z" fill="#CA820B"/>
<path d="M59.2383 19.1079L59.4157 18.9978C59.395 19.0394 59.3773 19.0781 59.3595 19.1227L59.2383 19.1079Z" fill="#CA820B"/>
<path d="M82.5057 19.5986L83.8895 23.412C84.9244 26.2675 84.7588 29.5098 83.3662 32.7104C82.0297 35.7801 79.6376 38.6446 76.4886 40.9439C73.263 43.2776 69.5712 44.8772 65.6695 45.6318C63.1613 46.1279 60.5915 46.2283 58.0526 45.9292C57.547 45.8667 57.0473 45.7864 56.5565 45.6883C55.8835 45.5562 55.2183 45.3874 54.5636 45.1826C51.2253 44.1385 48.5612 42.2557 46.9113 39.763C46.4254 39.032 46.0283 38.2451 45.7285 37.4191L44.3447 33.6206C44.6445 34.4466 45.0416 35.2335 45.5275 35.9645C47.1774 38.4572 49.8415 40.3401 53.1798 41.3841C53.8346 41.5886 54.4998 41.7574 55.1727 41.8898C55.6635 41.9879 56.1632 42.0683 56.6688 42.1307C59.2078 42.4298 61.7775 42.3294 64.2857 41.8333C68.1874 41.0787 71.8792 39.4791 75.1048 37.1454C78.2538 34.8461 80.6459 31.9816 81.9824 28.9119C83.375 25.6964 83.5406 22.4542 82.5057 19.5986Z" fill="#E48203"/>
<path d="M70.0663 11.0776C66.2344 10.6665 62.3596 11.1291 58.7298 12.431C55.0269 13.703 51.655 15.795 48.8628 18.5526C46.2253 21.2148 44.5015 24.2875 43.9042 27.3869C43.5969 28.8523 43.5822 30.3645 43.8609 31.8356C44.1396 33.3068 44.7061 34.7076 45.5275 35.9566C47.1774 38.4492 49.8415 40.3321 53.1798 41.3762C53.8346 41.5806 54.4999 41.7494 55.1727 41.8818C54.4736 41.7465 53.7826 41.5717 53.1029 41.3583C49.7794 40.3172 47.1301 38.4343 45.4891 35.9447C44.6735 34.6931 44.1122 33.2915 43.8377 31.8207C43.5631 30.3499 43.5807 28.839 43.8894 27.375C44.4808 24.2785 46.2105 21.2029 48.8392 18.5407C51.6231 15.7893 54.9831 13.6988 58.6736 12.4221C62.3207 11.1105 66.2165 10.6508 70.0663 11.0776Z" fill="#FFD000"/>
<path d="M45.6929 37.44L44.3091 33.6207C44.6052 34.4367 44.9962 35.2145 45.4741 35.9379C47.1151 38.4276 49.7645 40.3105 53.0879 41.3515C53.7676 41.5649 54.4586 41.7397 55.1577 41.8751L56.5415 45.6884C55.8374 45.5536 55.1415 45.3788 54.457 45.1649C51.1335 44.1238 48.4841 42.2409 46.8431 39.7512C46.3708 39.029 45.9847 38.2532 45.6929 37.44Z" fill="#E48907"/>
<mask id="mask0_1521_47742" style="mask-type:alpha" maskUnits="userSpaceOnUse" x="43" y="10" width="41" height="33">
<path d="M81.3248 17.2616C83.5365 20.602 83.776 24.7901 81.9842 28.9039C80.6477 31.9736 78.2556 34.8381 75.1066 37.1374C71.8822 39.4682 68.1926 41.0657 64.2934 41.8193C61.7852 42.3155 59.2155 42.4158 56.6766 42.1168C56.171 42.0543 55.6712 41.974 55.1804 41.8758C54.5076 41.7434 53.8423 41.5746 53.1875 41.3701C49.8492 40.3261 47.1851 38.4432 45.5352 35.9505C44.712 34.7012 44.144 33.2996 43.8643 31.8274C43.5846 30.3551 43.5988 28.8416 43.906 27.375C44.4973 24.2755 46.2271 21.2028 48.8646 18.5406C51.6568 15.783 55.0287 13.6911 58.7316 12.419C62.3827 11.1118 66.2805 10.6522 70.1332 11.0745C75.1007 11.6992 79.1101 13.9152 81.3248 17.2616ZM72.954 35.3259C75.5619 33.4162 77.546 31.0366 78.6548 28.4845C79.3688 26.8988 79.704 25.1671 79.6335 23.4278C79.5507 21.7892 79.0297 20.2035 78.1255 18.8381C77.166 17.4129 75.8762 16.244 74.3674 15.4322C72.6764 14.5197 70.8278 13.9402 68.9209 13.7248C65.7234 13.3705 62.4877 13.7529 59.459 14.8433C56.3912 15.8949 53.5973 17.626 51.2833 19.9089C49.0952 22.116 47.6641 24.6681 47.1674 27.2411C46.9117 28.4561 46.8974 29.7099 47.1253 30.9305C47.3531 32.1511 47.8186 33.3143 48.495 34.3532C49.8581 36.4205 52.0432 37.9851 54.8167 38.8477C55.7581 39.1414 56.724 39.3485 57.7026 39.4664C59.8014 39.7114 61.9254 39.6251 63.9977 39.2106C67.2265 38.5824 70.2806 37.2548 72.9481 35.3199" fill="#FADD23"/>
</mask>
<g mask="url(#mask0_1521_47742)">
<rect x="33.7217" y="32.4617" width="61.8934" height="2.6396" transform="rotate(-30 33.7217 32.4617)" fill="#FFF3A5"/>
<rect x="44.5537" y="40.9395" width="47.5128" height="1.3198" transform="rotate(-30 44.5537 40.9395)" fill="#FFF3A5"/>
<rect x="39.5532" y="33.1586" width="47.5128" height="1.3198" transform="rotate(-30 39.5532 33.1586)" fill="#FFF3A5"/>
</g>
</g>
<path d="M71.7929 28.3081C71.8343 28.8497 71.7323 29.3926 71.4972 29.8816C71.2003 30.5606 70.7722 31.1733 70.2376 31.6842C69.5267 32.3306 68.6498 32.7635 67.7066 32.9335C66.5284 33.1544 65.3291 33.2402 64.1317 33.1893C64.0606 33.1714 63.9854 33.1784 63.9188 33.2092C63.8521 33.24 63.7979 33.2928 63.7651 33.3588C63.4428 34.1203 63.1116 34.9234 62.7893 35.682C62.7243 35.8396 62.7065 35.8961 62.541 35.8753C62.5001 35.8715 62.4595 35.8645 62.4197 35.8545C61.9023 35.8128 61.3316 35.7325 60.8112 35.6909C60.6427 35.6611 60.6486 35.6195 60.7195 35.5184C61.0448 34.7152 61.376 33.9121 61.7574 33.1387C61.7574 33.0495 61.8313 32.9959 61.719 32.9632C61.2606 32.9156 60.7994 32.871 60.2819 32.8294C60.1163 33.2547 59.8887 33.686 59.7231 34.1084C59.5575 34.5308 59.3298 34.9681 59.1613 35.3934C59.0992 35.4856 59.0903 35.5303 58.9484 35.5124L58.7089 35.4797C58.2062 35.4172 57.6977 35.3875 57.192 35.3577C57.0235 35.328 57.0264 35.2834 57.0974 35.1852C57.4256 34.3821 57.7538 33.576 58.1353 32.8056C58.1353 32.758 58.2033 32.7074 58.2151 32.6152C56.8963 32.4724 55.5776 32.3178 54.1997 32.1869C54.3387 31.9935 54.4156 31.8478 54.5545 31.6544C54.8502 31.2172 55.1222 30.7799 55.344 30.3962C55.4179 30.2534 55.4771 30.2475 55.6545 30.2296H55.7491C56.1414 30.2813 56.5362 30.3121 56.9318 30.3218C57.1205 30.3589 57.3161 30.3294 57.4857 30.2384C57.6554 30.1474 57.7887 30.0004 57.8632 29.8221C58.904 27.4038 59.933 24.9826 60.9384 22.5226C61.101 22.1449 60.8556 21.7582 60.347 21.6719C60.1873 21.6451 60.0247 21.6213 59.868 21.6035C59.5161 21.5589 59.1731 21.5321 58.8567 21.4994C58.8352 21.5024 58.8133 21.5024 58.7917 21.4994C58.7207 21.4994 58.7 21.4518 58.7562 21.3744C58.975 20.8896 59.1968 20.372 59.4156 19.8872C60.0069 19.9496 60.5983 19.9794 61.1897 20.0508C61.781 20.1222 62.4552 20.1549 63.085 20.2293C63.1461 20.2436 63.2103 20.2345 63.265 20.2036C63.3197 20.1728 63.361 20.1225 63.3807 20.0627C63.7119 19.2566 64.0342 18.4981 64.3624 17.6831C64.4333 17.5462 64.4954 17.4927 64.6581 17.5135L64.9537 17.5522C65.4209 17.6087 65.8615 17.6444 66.3405 17.6712C66.512 17.7009 66.5061 17.7485 66.4351 17.8437C66.1128 18.6022 65.7876 19.4083 65.4653 20.1668C65.4545 20.2355 65.426 20.3001 65.3825 20.3542C65.8438 20.4018 66.3612 20.4434 66.8195 20.491C66.8786 20.491 66.9467 20.3869 67.0117 20.3334C67.2601 19.7206 67.5025 19.1435 67.8071 18.5308L68.0496 17.9597C68.0495 17.9418 68.0535 17.9241 68.0613 17.908C68.069 17.8918 68.0802 17.8777 68.0942 17.8665C68.1081 17.8554 68.1243 17.8475 68.1417 17.8436C68.1591 17.8396 68.1771 17.8396 68.1944 17.8437C68.295 17.8615 68.3571 17.8675 68.4162 17.8764C68.9307 17.9389 69.4511 17.9746 70.0159 18.043C69.8686 18.6572 69.6606 19.2551 69.3949 19.8277C69.3092 20.0884 69.1952 20.3388 69.0549 20.5743C68.981 20.7171 69.0342 20.7587 69.2057 20.7885L71.0655 21.2882C71.6003 21.4889 72.0791 21.8164 72.4612 22.243C72.9076 22.8825 72.8781 23.6113 72.5528 24.3698C72.3301 24.9226 71.9733 25.4104 71.515 25.7887C71.1005 26.0991 70.6407 26.3429 70.1519 26.5115C70.0729 26.5404 69.9918 26.5632 69.9094 26.5799C70.1282 26.6959 70.3529 26.7643 70.5717 26.8773C70.8669 27.0115 71.1292 27.2091 71.3402 27.4563C71.5512 27.7035 71.7057 27.9943 71.7929 28.3081ZM65.9147 30.8364C67.0649 30.4498 67.6711 29.257 67.1122 28.5817C66.8007 28.2513 66.4096 28.0075 65.9768 27.8738C65.4602 27.7023 64.927 27.5866 64.386 27.5288C63.7947 27.4544 63.2033 27.4217 62.6119 27.386H62.5764C62.4375 27.3681 62.4286 27.4187 62.3606 27.5526C62.1891 28.0225 61.9614 28.4449 61.7899 28.9238C61.4765 29.5901 61.2252 30.2505 60.9029 30.9643H60.9295C60.9598 30.9683 60.9885 30.9807 61.0123 31C61.9685 31.1309 62.9332 31.1886 63.8981 31.1726C64.5828 31.1743 65.2631 31.0627 65.9118 30.8424L65.9147 30.8364ZM63.1116 25.5685C63.0436 25.6667 63.1116 25.7054 63.2092 25.7411L63.3837 25.7619L63.5463 25.7827L63.842 25.8184C64.6926 25.8526 65.5445 25.8397 66.3937 25.7797C66.6155 25.7418 66.8347 25.6901 67.0501 25.6251C68.1915 25.3276 68.8982 24.2657 68.4044 23.5429C68.0916 23.1503 67.6466 22.8868 67.1536 22.8022C66.7417 22.7029 66.3239 22.6294 65.9029 22.5821C65.5126 22.5345 65.1105 22.4958 64.6995 22.4483H64.6699C64.522 22.4304 64.4599 22.4839 64.389 22.6178C63.9809 23.6113 63.5759 24.5602 63.1087 25.5596" fill="#DF7900"/>
<path d="M71.7607 27.5228C71.8021 28.0644 71.7001 28.6073 71.465 29.0963C71.1681 29.7753 70.7399 30.388 70.2054 30.8989C69.4945 31.5454 68.6176 31.9782 67.6743 32.1482C66.4962 32.3691 65.2969 32.4549 64.0995 32.404C64.0283 32.3861 63.9532 32.3931 63.8865 32.4239C63.8199 32.4548 63.7657 32.5075 63.7329 32.5736C63.4106 33.335 63.0794 34.1382 62.7571 34.8967C62.6921 35.0543 62.6743 35.1108 62.5087 35.09C62.4678 35.0862 62.4273 35.0793 62.3875 35.0692C61.8701 35.0276 61.2994 34.9472 60.779 34.9056C60.6104 34.8759 60.6164 34.8342 60.6873 34.7331C61.0126 33.93 61.3437 33.1268 61.7252 32.3535C61.7252 32.2642 61.7991 32.2107 61.6867 32.178C61.2284 32.1304 60.7672 32.0857 60.2497 32.0441C60.0841 32.4695 59.8564 32.9008 59.6909 33.3231C59.5253 33.7455 59.2976 34.1828 59.1291 34.6081C59.067 34.7004 59.0581 34.745 58.9162 34.7271L58.6767 34.6944C58.174 34.6319 57.6654 34.6022 57.1598 34.5725C56.9913 34.5427 56.9942 34.4981 57.0652 34.3999C57.3934 33.5968 57.7216 32.7907 58.103 32.0203C58.103 31.9727 58.171 31.9221 58.1829 31.8299C56.8641 31.6872 55.5454 31.5325 54.1675 31.4016C54.3065 31.2083 54.3833 31.0625 54.5223 30.8692C54.818 30.4319 55.09 29.9946 55.3118 29.6109C55.3857 29.4682 55.4448 29.4622 55.6222 29.4444H55.7169C56.1092 29.4961 56.504 29.5268 56.8996 29.5366C57.0883 29.5736 57.2839 29.5441 57.4535 29.4531C57.6231 29.3621 57.7564 29.2151 57.831 29.0368C58.8718 26.6185 59.9008 24.1973 60.9061 21.7373C61.0688 21.3596 60.8233 20.9729 60.3148 20.8866C60.1551 20.8599 59.9925 20.8361 59.8357 20.8182C59.4839 20.7736 59.1409 20.7468 58.8245 20.7141C58.8029 20.7171 58.781 20.7171 58.7595 20.7141C58.6885 20.7141 58.6678 20.6665 58.724 20.5892C58.9428 20.1043 59.1645 19.5868 59.3833 19.1019C59.9747 19.1644 60.5661 19.1941 61.1575 19.2655C61.7488 19.3369 62.423 19.3696 63.0528 19.444C63.1138 19.4583 63.178 19.4492 63.2327 19.4184C63.2874 19.3875 63.3287 19.3373 63.3485 19.2774C63.6796 18.4713 64.0019 17.7128 64.3301 16.8978C64.4011 16.7609 64.4632 16.7074 64.6258 16.7282L64.9215 16.7669C65.3887 16.8234 65.8293 16.8591 66.3083 16.8859C66.4798 16.9156 66.4739 16.9632 66.4029 17.0584C66.0806 17.8169 65.7553 18.623 65.433 19.3815C65.4223 19.4502 65.3937 19.5148 65.3503 19.5689C65.8115 19.6165 66.329 19.6581 66.7873 19.7057C66.8464 19.7057 66.9144 19.6016 66.9795 19.5481C67.2278 18.9353 67.4703 18.3583 67.7749 17.7455L68.0173 17.1744C68.0173 17.1565 68.0213 17.1388 68.029 17.1227C68.0368 17.1066 68.048 17.0924 68.0619 17.0812C68.0759 17.0701 68.0921 17.0622 68.1095 17.0583C68.1268 17.0543 68.1449 17.0544 68.1622 17.0584C68.2627 17.0762 68.3248 17.0822 68.384 17.0911C68.8985 17.1536 69.4189 17.1893 69.9836 17.2577C69.8364 17.872 69.6284 18.4698 69.3627 19.0424C69.277 19.3031 69.163 19.5535 69.0227 19.789C68.9487 19.9318 69.002 19.9734 69.1734 20.0032L71.0333 20.5029C71.5681 20.7036 72.0468 21.0312 72.4289 21.4577C72.8754 22.0973 72.8458 22.826 72.5206 23.5845C72.2979 24.1373 71.9411 24.6251 71.4827 25.0034C71.0683 25.3138 70.6084 25.5576 70.1196 25.7262C70.0406 25.7551 69.9596 25.778 69.8772 25.7946C70.096 25.9106 70.3207 25.979 70.5395 26.0921C70.8347 26.2262 71.097 26.4238 71.308 26.671C71.519 26.9183 71.6735 27.209 71.7607 27.5228ZM65.8825 30.0512C67.0327 29.6645 67.6388 28.4717 67.08 27.7965C66.7684 27.4661 66.3773 27.2222 65.9446 27.0885C65.428 26.917 64.8947 26.8014 64.3538 26.7435C63.7624 26.6691 63.1711 26.6364 62.5797 26.6007H62.5442C62.4052 26.5829 62.3964 26.6334 62.3284 26.7673C62.1569 27.2373 61.9292 27.6596 61.7577 28.1385C61.4443 28.8048 61.1929 29.4652 60.8706 30.1791H60.8973C60.9276 30.183 60.9563 30.1954 60.98 30.2148C61.9363 30.3456 62.901 30.4033 63.8659 30.3873C64.5506 30.389 65.2309 30.2775 65.8795 30.0571L65.8825 30.0512ZM63.0794 24.7833C63.0114 24.8814 63.0794 24.9201 63.177 24.9558L63.3514 24.9766L63.5141 24.9974L63.8097 25.0331C64.6604 25.0673 65.5123 25.0544 66.3615 24.9945C66.5832 24.9565 66.8025 24.9048 67.0179 24.8398C68.1593 24.5423 68.8659 23.4804 68.3721 22.7576C68.0594 22.3651 67.6144 22.1015 67.1214 22.0169C66.7094 21.9176 66.2917 21.8441 65.8707 21.7968C65.4804 21.7492 65.0782 21.7106 64.6672 21.663H64.6377C64.4898 21.6451 64.4277 21.6987 64.3568 21.8325C63.9487 22.826 63.5436 23.7749 63.0764 24.7743" fill="#FFE12A"/>
<path d="M71.7607 27.5228C71.8021 28.0644 71.7001 28.6073 71.465 29.0963C71.1681 29.7753 70.7399 30.388 70.2054 30.8989C69.4945 31.5454 68.6176 31.9782 67.6743 32.1482C66.4962 32.3691 65.2969 32.4549 64.0995 32.404C64.0283 32.3861 63.9532 32.3931 63.8865 32.4239C63.8199 32.4548 63.7657 32.5075 63.7329 32.5736C63.4106 33.335 63.0794 34.1382 62.7571 34.8967C62.6921 35.0543 62.6743 35.1108 62.5087 35.09C62.4678 35.0862 62.4273 35.0793 62.3875 35.0692C61.8701 35.0276 61.2994 34.9472 60.779 34.9056C60.6104 34.8759 60.6164 34.8342 60.6873 34.7331C61.0126 33.93 61.3437 33.1268 61.7252 32.3535C61.7252 32.2642 61.7991 32.2107 61.6867 32.178C61.2284 32.1304 60.7672 32.0857 60.2497 32.0441C60.0841 32.4695 59.8564 32.9008 59.6909 33.3231C59.5253 33.7455 59.2976 34.1828 59.1291 34.6081C59.067 34.7004 59.0581 34.745 58.9162 34.7271L58.6767 34.6944C58.174 34.6319 57.6654 34.6022 57.1598 34.5725C56.9913 34.5427 56.9942 34.4981 57.0652 34.3999C57.3934 33.5968 57.7216 32.7907 58.103 32.0203C58.103 31.9727 58.171 31.9221 58.1829 31.8299C56.8641 31.6872 55.5454 31.5325 54.1675 31.4016C54.3065 31.2083 54.3833 31.0625 54.5223 30.8692C54.818 30.4319 55.09 29.9946 55.3118 29.6109C55.3857 29.4682 55.4448 29.4622 55.6222 29.4444H55.7169C56.1092 29.4961 56.504 29.5268 56.8996 29.5366C57.0883 29.5736 57.2839 29.5441 57.4535 29.4531C57.6231 29.3621 57.7564 29.2151 57.831 29.0368C58.8718 26.6185 59.9008 24.1973 60.9061 21.7373C61.0688 21.3596 60.8233 20.9729 60.3148 20.8866C60.1551 20.8599 59.9925 20.8361 59.8357 20.8182C59.4839 20.7736 59.1409 20.7468 58.8245 20.7141C58.8029 20.7171 58.781 20.7171 58.7595 20.7141C58.6885 20.7141 58.6678 20.6665 58.724 20.5892C58.9428 20.1043 59.1645 19.5868 59.3833 19.1019C59.9747 19.1644 60.5661 19.1941 61.1575 19.2655C61.7488 19.3369 62.423 19.3696 63.0528 19.444C63.1138 19.4583 63.178 19.4492 63.2327 19.4184C63.2874 19.3875 63.3287 19.3373 63.3485 19.2774C63.6796 18.4713 64.0019 17.7128 64.3301 16.8978C64.4011 16.7609 64.4632 16.7074 64.6258 16.7282L64.9215 16.7669C65.3887 16.8234 65.8293 16.8591 66.3083 16.8859C66.4798 16.9156 66.4739 16.9632 66.4029 17.0584C66.0806 17.8169 65.7553 18.623 65.433 19.3815C65.4223 19.4502 65.3937 19.5148 65.3503 19.5689C65.8115 19.6165 66.329 19.6581 66.7873 19.7057C66.8464 19.7057 66.9144 19.6016 66.9795 19.5481C67.2278 18.9353 67.4703 18.3583 67.7749 17.7455L68.0173 17.1744C68.0173 17.1565 68.0213 17.1388 68.029 17.1227C68.0368 17.1066 68.048 17.0924 68.0619 17.0812C68.0759 17.0701 68.0921 17.0622 68.1095 17.0583C68.1268 17.0543 68.1449 17.0544 68.1622 17.0584C68.2627 17.0762 68.3248 17.0822 68.384 17.0911C68.8985 17.1536 69.4189 17.1893 69.9836 17.2577C69.8364 17.872 69.6284 18.4698 69.3627 19.0424C69.277 19.3031 69.163 19.5535 69.0227 19.789C68.9487 19.9318 69.002 19.9734 69.1734 20.0032L71.0333 20.5029C71.5681 20.7036 72.0468 21.0312 72.4289 21.4577C72.8754 22.0973 72.8458 22.826 72.5206 23.5845C72.2979 24.1373 71.9411 24.6251 71.4827 25.0034C71.0683 25.3138 70.6084 25.5576 70.1196 25.7262C70.0406 25.7551 69.9596 25.778 69.8772 25.7946C70.096 25.9106 70.3207 25.979 70.5395 26.0921C70.8347 26.2262 71.097 26.4238 71.308 26.671C71.519 26.9183 71.6735 27.209 71.7607 27.5228ZM65.8825 30.0512C67.0327 29.6645 67.6388 28.4717 67.08 27.7965C66.7684 27.4661 66.3773 27.2222 65.9446 27.0885C65.428 26.917 64.8947 26.8014 64.3538 26.7435C63.7624 26.6691 63.1711 26.6364 62.5797 26.6007H62.5442C62.4052 26.5829 62.3964 26.6334 62.3284 26.7673C62.1569 27.2373 61.9292 27.6596 61.7577 28.1385C61.4443 28.8048 61.1929 29.4652 60.8706 30.1791H60.8973C60.9276 30.183 60.9563 30.1954 60.98 30.2148C61.9363 30.3456 62.901 30.4033 63.8659 30.3873C64.5506 30.389 65.2309 30.2775 65.8795 30.0571L65.8825 30.0512ZM63.0794 24.7833C63.0114 24.8814 63.0794 24.9201 63.177 24.9558L63.3514 24.9766L63.5141 24.9974L63.8097 25.0331C64.6604 25.0673 65.5123 25.0544 66.3615 24.9945C66.5832 24.9565 66.8025 24.9048 67.0179 24.8398C68.1593 24.5423 68.8659 23.4804 68.3721 22.7576C68.0594 22.3651 67.6144 22.1015 67.1214 22.0169C66.7094 21.9176 66.2917 21.8441 65.8707 21.7968C65.4804 21.7492 65.0782 21.7106 64.6672 21.663H64.6377C64.4898 21.6451 64.4277 21.6987 64.3568 21.8325C63.9487 22.826 63.5436 23.7749 63.0764 24.7743" fill="#FFE12A"/>
<mask id="mask1_1521_47742" style="mask-type:alpha" maskUnits="userSpaceOnUse" x="54" y="16" width="19" height="20">
<path d="M71.7607 27.5228C71.8021 28.0644 71.7001 28.6073 71.465 29.0963C71.1681 29.7753 70.7399 30.388 70.2054 30.8989C69.4945 31.5454 68.6176 31.9782 67.6743 32.1482C66.4962 32.3691 65.2969 32.4549 64.0995 32.404C64.0283 32.3861 63.9532 32.3931 63.8865 32.4239C63.8199 32.4548 63.7657 32.5075 63.7329 32.5736C63.4106 33.335 63.0794 34.1382 62.7571 34.8967C62.6921 35.0543 62.6743 35.1108 62.5087 35.09C62.4678 35.0862 62.4273 35.0793 62.3875 35.0692C61.8701 35.0276 61.2994 34.9472 60.779 34.9056C60.6104 34.8759 60.6164 34.8342 60.6873 34.7331C61.0126 33.93 61.3437 33.1268 61.7252 32.3535C61.7252 32.2642 61.7991 32.2107 61.6867 32.178C61.2284 32.1304 60.7672 32.0857 60.2497 32.0441C60.0841 32.4695 59.8564 32.9008 59.6909 33.3231C59.5253 33.7455 59.2976 34.1828 59.1291 34.6081C59.067 34.7004 59.0581 34.745 58.9162 34.7271L58.6767 34.6944C58.174 34.6319 57.6654 34.6022 57.1598 34.5725C56.9913 34.5427 56.9942 34.4981 57.0652 34.3999C57.3934 33.5968 57.7216 32.7907 58.103 32.0203C58.103 31.9727 58.171 31.9221 58.1829 31.8299C56.8641 31.6872 55.5454 31.5325 54.1675 31.4016C54.3065 31.2083 54.3833 31.0625 54.5223 30.8692C54.818 30.4319 55.09 29.9946 55.3118 29.6109C55.3857 29.4682 55.4448 29.4622 55.6222 29.4444H55.7169C56.1092 29.4961 56.504 29.5268 56.8996 29.5366C57.0883 29.5736 57.2839 29.5441 57.4535 29.4531C57.6231 29.3621 57.7564 29.2151 57.831 29.0368C58.8718 26.6185 59.9008 24.1973 60.9061 21.7373C61.0688 21.3596 60.8233 20.9729 60.3148 20.8866C60.1551 20.8599 59.9925 20.8361 59.8357 20.8182C59.4839 20.7736 59.1409 20.7468 58.8245 20.7141C58.8029 20.7171 58.781 20.7171 58.7595 20.7141C58.6885 20.7141 58.6678 20.6665 58.724 20.5892C58.9428 20.1043 59.1645 19.5868 59.3833 19.1019C59.9747 19.1644 60.5661 19.1941 61.1575 19.2655C61.7488 19.3369 62.423 19.3696 63.0528 19.444C63.1138 19.4583 63.178 19.4492 63.2327 19.4184C63.2874 19.3875 63.3287 19.3373 63.3485 19.2774C63.6796 18.4713 64.0019 17.7128 64.3301 16.8978C64.4011 16.7609 64.4632 16.7074 64.6258 16.7282L64.9215 16.7669C65.3887 16.8234 65.8293 16.8591 66.3083 16.8859C66.4798 16.9156 66.4739 16.9632 66.4029 17.0584C66.0806 17.8169 65.7553 18.623 65.433 19.3815C65.4223 19.4502 65.3937 19.5148 65.3503 19.5689C65.8115 19.6165 66.329 19.6581 66.7873 19.7057C66.8464 19.7057 66.9144 19.6016 66.9795 19.5481C67.2278 18.9353 67.4703 18.3583 67.7749 17.7455L68.0173 17.1744C68.0173 17.1565 68.0213 17.1388 68.029 17.1227C68.0368 17.1066 68.048 17.0924 68.0619 17.0812C68.0759 17.0701 68.0921 17.0622 68.1095 17.0583C68.1268 17.0543 68.1449 17.0544 68.1622 17.0584C68.2627 17.0762 68.3248 17.0822 68.384 17.0911C68.8985 17.1536 69.4189 17.1893 69.9836 17.2577C69.8364 17.872 69.6284 18.4698 69.3627 19.0424C69.277 19.3031 69.163 19.5535 69.0227 19.789C68.9487 19.9318 69.002 19.9734 69.1734 20.0032L71.0333 20.5029C71.5681 20.7036 72.0468 21.0312 72.4289 21.4577C72.8754 22.0973 72.8458 22.826 72.5206 23.5845C72.2979 24.1373 71.9411 24.6251 71.4827 25.0034C71.0683 25.3138 70.6084 25.5576 70.1196 25.7262C70.0406 25.7551 69.9596 25.778 69.8772 25.7946C70.096 25.9106 70.3207 25.979 70.5395 26.0921C70.8347 26.2262 71.097 26.4238 71.308 26.671C71.519 26.9183 71.6735 27.209 71.7607 27.5228ZM65.8825 30.0512C67.0327 29.6645 67.6388 28.4717 67.08 27.7965C66.7684 27.4661 66.3773 27.2222 65.9446 27.0885C65.428 26.917 64.8947 26.8014 64.3538 26.7435C63.7624 26.6691 63.1711 26.6364 62.5797 26.6007H62.5442C62.4052 26.5829 62.3964 26.6334 62.3284 26.7673C62.1569 27.2373 61.9292 27.6596 61.7577 28.1385C61.4443 28.8048 61.1929 29.4652 60.8706 30.1791H60.8973C60.9276 30.183 60.9563 30.1954 60.98 30.2148C61.9363 30.3456 62.901 30.4033 63.8659 30.3873C64.5506 30.389 65.2309 30.2775 65.8795 30.0571L65.8825 30.0512ZM63.0794 24.7833C63.0114 24.8814 63.0794 24.9201 63.177 24.9558L63.3514 24.9766L63.5141 24.9974L63.8097 25.0331C64.6604 25.0673 65.5123 25.0544 66.3615 24.9945C66.5832 24.9565 66.8025 24.9048 67.0179 24.8398C68.1593 24.5423 68.8659 23.4804 68.3721 22.7576C68.0594 22.3651 67.6144 22.1015 67.1214 22.0169C66.7094 21.9176 66.2917 21.8441 65.8707 21.7968C65.4804 21.7492 65.0782 21.7106 64.6672 21.663H64.6377C64.4898 21.6451 64.4277 21.6987 64.3568 21.8325C63.9487 22.826 63.5436 23.7749 63.0764 24.7743" fill="#FFE12A"/>
</mask>
<g mask="url(#mask1_1521_47742)">
<rect x="33.7212" y="32.4612" width="61.8934" height="2.6396" transform="rotate(-30 33.7212 32.4612)" fill="#FFF3A5"/>
<rect x="44.5537" y="40.9396" width="47.5128" height="1.3198" transform="rotate(-30 44.5537 40.9396)" fill="#FFF3A5"/>
<rect x="39.5537" y="33.1584" width="47.5128" height="1.3198" transform="rotate(-30 39.5537 33.1584)" fill="#FFF3A5"/>
</g>
<defs>
<clipPath id="clip0_1521_47742">
<rect width="40.9138" height="35.1947" fill="white" transform="translate(43.6411 10.9103)"/>
</clipPath>
</defs>
</svg>
