<svg width="102" height="75" viewBox="0 0 102 75" fill="none" xmlns="http://www.w3.org/2000/svg">
<path d="M40.984 81.8027L-5.28857 94.2101L-5.22819 81.5121L42.5446 69.3953L40.984 81.8027Z" fill="#1F8616"/>
<path d="M18.3545 63.1913C-1.15346 66.8101 -33.7515 72.3516 -35 72.3516L-5.2291 81.5118L42.5445 69.395L18.3545 63.1913Z" fill="#85D637"/>
<path fill-rule="evenodd" clip-rule="evenodd" d="M17.9721 64.6879L34.1593 68.6451L37.9822 69.643L-5.06533 79.5005L-17.7929 75.8525L-28.439 72.9269L17.9721 64.6879ZM-23.5235 72.9269L-5.06533 77.8419L33.2917 69.3951L17.9721 65.4066L-23.5235 72.9269Z" fill="#C7F85B"/>
<ellipse cx="6.64997" cy="71.7214" rx="9.36384" ry="3.87732" fill="#C7F85B"/>
<path opacity="0.3" d="M9.89123 90.0837C9.89123 90.0837 5.23975 80.1635 5.23975 79.388L37.4444 70.6687C42.6768 85.4334 9.89123 90.0837 9.89123 90.0837Z" fill="#1A7109"/>
<path d="M-28.4385 69.0924V57.6421L1.33243 66.8024V79.3976C1.33243 79.3976 -12.5393 74.8475 -14.8802 74.0721C-17.2212 73.2966 -28.4385 69.0924 -28.4385 69.0924Z" fill="#25951C"/>
<path d="M47.5455 67.0928L1.27295 79.5003L1.33333 66.8022L49.1061 54.6854L47.5455 67.0928Z" fill="#247D1D"/>
<path d="M24.9166 48.4818C5.40855 52.1006 -27.1895 57.6421 -28.438 57.6421L1.33292 66.8024L49.1065 54.6855L24.9166 48.4818Z" fill="#85DC30"/>
<path fill-rule="evenodd" clip-rule="evenodd" d="M24.5126 49.9818C24.5265 49.9793 24.5407 49.9798 24.5543 49.9831L40.7208 53.9353L44.1445 54.8289C44.2468 54.8556 44.2446 55.0016 44.1415 55.0252L1.52157 64.7849C1.50492 64.7887 1.48758 64.7882 1.47116 64.7835L-11.2313 61.1427L-21.4456 58.3358C-21.5495 58.3072 -21.5425 58.1576 -21.4365 58.1388L24.5126 49.9818ZM-16.5168 58.1364C-16.623 58.1557 -16.6291 58.3057 -16.5247 58.3335L1.47245 63.1258C1.48805 63.1299 1.50442 63.1303 1.52019 63.1268L39.8532 54.6852L24.5552 50.7023C24.541 50.6986 24.5261 50.6981 24.5117 50.7007L-16.5168 58.1364Z" fill="#C7F85B"/>
<ellipse cx="13.211" cy="57.0118" rx="9.36384" ry="3.87732" fill="#C7F85B"/>
<path opacity="0.3" d="M16.4528 75.3741C16.4528 75.3741 11.8013 65.4539 11.8013 64.6784L44.0059 55.9591C49.2383 70.7238 16.4528 75.3741 16.4528 75.3741Z" fill="#1A7109"/>
<path d="M-22.8765 60.4052V48.9548L6.89444 58.1151V70.7104C6.89444 70.7104 -6.97728 66.1603 -9.31824 65.3848C-11.6592 64.6093 -22.8765 60.4052 -22.8765 60.4052Z" fill="#56B729"/>
<path opacity="0.3" d="M-22.8667 60.3654L-22.8667 48.6816L6.87726 58.1322L-0.79554 66.037L-22.8667 60.3654Z" fill="#1A7109"/>
<path d="M53.1075 58.4056L6.83496 70.813L6.89534 58.115L54.6682 45.9982L53.1075 58.4056Z" fill="#25951C"/>
<path d="M-15.0733 60.7562L-22.8765 57.6543V56.1034L4.33774 67.3584L-15.0733 60.7562Z" fill="#25951C"/>
<path d="M30.4781 39.7944C10.9701 43.4133 -21.628 48.9547 -22.8765 48.9547L6.89444 58.115L54.668 45.9981L30.4781 39.7944Z" fill="#85DC30"/>
<path fill-rule="evenodd" clip-rule="evenodd" d="M30.0956 41.2913L46.2829 45.2485L50.1057 46.2463L7.0582 56.1039L-5.66933 52.4559L-16.3154 49.5303L30.0956 41.2913ZM-9.30241 49.9166L7.37564 53.8733L44.6383 46.2605L29.6631 42.8547L-9.30241 49.9166Z" fill="#C7F85B"/>
<path d="M-28.4385 47.5522V36.1018L1.33243 45.2621V57.8573C1.33243 57.8573 -12.5393 53.3072 -14.8802 52.5318C-17.2212 51.7563 -28.4385 47.5522 -28.4385 47.5522Z" fill="#56B729"/>
<path d="M47.5455 45.5526L1.27295 57.96L1.33333 45.2619L49.1061 33.1451L47.5455 45.5526Z" fill="#25951C"/>
<path d="M24.9166 26.9415C5.40855 30.5604 -27.1895 36.1018 -28.438 36.1018L1.33292 45.2621L49.1065 33.1452L24.9166 26.9415Z" fill="#85DC30"/>
<path fill-rule="evenodd" clip-rule="evenodd" d="M24.5336 28.4382L40.7208 32.3955L44.5437 33.3933L1.49619 43.2509L-11.2313 39.6029L-21.8774 36.6773L24.5336 28.4382ZM-14.8644 37.0636L1.81363 41.0202L39.0763 33.4074L24.1011 30.0017L-14.8644 37.0636Z" fill="#C7F85B"/>
<ellipse cx="18.7735" cy="48.3245" rx="9.36384" ry="3.87732" fill="#C7F85B"/>
<path opacity="0.3" d="M0.293048 92.5153C0.293048 92.5153 -5.22949 82.2499 -5.22949 81.4744L26.9752 72.7551C31.5657 86.9233 0.293048 92.5153 0.293048 92.5153Z" fill="#1A7109"/>
<path d="M69.8838 83.8018V72.3514L40.1129 81.5117V94.107C40.1129 94.107 53.9846 89.5569 56.3256 88.7814C58.6665 88.006 69.8838 83.8018 69.8838 83.8018Z" fill="#25951C"/>
<path d="M-6.14677 80.76C7.35699 94.5238 40.3926 94.3333 40.3926 94.3333L40.3322 81.6352C40.3322 81.6352 25.2468 80.4521 -6.14677 69.7141V80.76Z" fill="#56B729"/>
<path d="M-6.1589 73.4829C-4.30092 75.6372 5.97136 78.6321 5.97136 78.6321L8.67866 78.5977L5.99359 78.1472C5.99359 78.1472 -2.27807 75.6062 -6.14633 73.2872L-6.1589 73.4829Z" fill="#25951C"/>
<path d="M69.8843 75.7117V74.1608L53.1556 80.7768L69.8843 75.7117Z" fill="#227B18"/>
<path d="M53.7114 53.8124L53.8975 52.2023L37.1688 58.8183L53.7114 53.8124Z" fill="#227B18"/>
<path d="M16.5296 61.8578C37.5683 72.9978 68.5742 72.4567 69.8228 72.4567L40.4819 81.5851C40.4819 81.5851 13.381 80.9707 -6.14767 69.7068L16.5296 61.8578Z" fill="#85DC30"/>
<path fill-rule="evenodd" clip-rule="evenodd" d="M16.8609 63.8776L-0.975177 70.051L1.1979 71.3044C7.85212 75.1424 17.6278 77.3354 25.6206 78.5764C30.4015 79.3187 35.229 79.871 40.0617 80.1339L40.0808 80.1349C40.0808 80.1349 40.0826 80.1349 40.1379 78.9912L40.0808 80.1349L40.2975 80.1453L62.856 73.0822C55.6283 72.6572 48.4476 72.2303 41.2842 71.0938C33.4371 69.8489 24.0826 67.7015 17.3008 64.1105L16.8609 63.8776ZM40.1379 78.3314C28.3537 77.6819 14.3489 75.5186 3.71119 70.491L16.3398 65.8988C27.7166 71.7351 41.0098 72.7502 53.4695 73.9911L40.1379 78.3314Z" fill="#C7F85B"/>
<ellipse cx="27.4351" cy="73.5914" rx="9.36384" ry="3.87732" fill="#C7F85B"/>
<path opacity="0.3" d="M3.19043 56.9407C3.19043 56.9407 1.33301 46.3134 1.33301 45.538L31.0769 54.9885L23.4041 62.8934L25.3162 76.3122C15.9518 74.1547 7.04637 65.1116 7.04637 65.1116V58.1342L3.19043 56.9407Z" fill="#1A7109"/>
<path opacity="0.3" d="M14.4219 61.6825C14.4219 61.6825 12.5645 51.0552 12.5645 50.2798L42.3084 59.7303L56.8799 71.9303L40.743 79.5469C29.5762 79.0951 25.1224 76.0613 25.1224 76.0613L18.2778 62.876L14.4219 61.6825Z" fill="#1A7109"/>
<path d="M27.841 28.8975L59.3951 62.908L28.366 67.2942L10.8967 51.9678L2.90132 32.1409L27.841 28.8975Z" fill="#88CF42"/>
<path d="M0.73311 43.8148L2.90035 32.1393C4.23648 35.8213 20.4335 57.109 28.365 67.2926L25.034 76.3126C17.5933 73.8973 5.73313 53.641 0.73311 43.8148Z" fill="#56B729"/>
<path d="M59.3942 62.9067L28.3651 67.2929L25.0341 76.3129L56.7961 72.016L59.3942 62.9067Z" fill="#25951C"/>
<path opacity="0.3" d="M58.1328 67.1516C21.0363 66.3992 2.8249 32.7586 2.90039 32.1394L30.372 38.6308C51.9911 48.3885 63.609 52.7375 58.1328 67.1516Z" fill="#1A7109"/>
<path d="M58.2308 60.2505C48.8928 63.6366 35.8746 58.5722 30.5327 55.6168L35.1785 48.0139C46.7534 50.6819 67.5688 56.8645 58.2308 60.2505Z" fill="#25951C"/>
<path d="M46.8854 55.7255C28.7957 62.569 10.027 42.8529 2.90384 32.1395L32.4672 27.5746C47.1924 43.4462 64.5614 46.9882 72.5045 46.9092C71.9005 51.8629 56.4568 68.9139 46.8854 55.7255Z" fill="#82DC34"/>
<path fill-rule="evenodd" clip-rule="evenodd" d="M31.8573 29.1666L32.4796 29.8138C41.5594 39.2563 50.2588 43.8207 56.615 46.0331C59.7985 47.1411 62.408 47.6639 64.2012 47.9104C65.0981 48.0337 65.791 48.0878 66.2496 48.1114C66.4789 48.1232 66.6496 48.1274 66.7578 48.1287C66.8119 48.1294 66.8504 48.1294 66.8728 48.1292L66.8911 48.1291L66.8929 48.129L66.8958 48.129L69.8447 48.0565L68.2279 50.1051L66.9935 49.3798C68.2279 50.1051 68.2279 50.1051 68.2279 50.1051L68.2244 50.1095L68.219 50.1163L68.2022 50.1372C68.1883 50.1542 68.1692 50.1776 68.1448 50.2068C68.0959 50.2653 68.0258 50.3474 67.9342 50.4507C67.7511 50.6571 67.4818 50.9479 67.1245 51.3017C66.4101 52.0089 65.3416 52.97 63.903 54.0121C61.0265 56.0959 57.5015 58.4208 51.5201 59.7668C51.5201 59.7668 50.1557 59.1487 49.3103 58.4516C48.465 57.7546 47.819 56.905 47.819 56.905C53.3088 55.6697 59.3079 53.9862 61.9383 52.0807C62.7736 51.4756 63.4688 50.9028 64.0274 50.4047C63.9678 50.3969 63.9075 50.3887 63.8464 50.3803C61.8449 50.1052 59.0098 49.5322 55.5935 48.3432C48.9021 46.0141 40.0333 41.3398 30.8529 31.9923C27.1768 32.7738 22.1432 33.7336 17.9118 34.519C15.6097 34.9463 13.5389 35.3231 12.0437 35.5931C11.9403 35.6117 11.8395 35.6299 11.7417 35.6475C12.0378 35.9905 12.3832 36.3832 12.7745 36.8164C14.2537 38.4537 16.3814 40.6608 18.9752 42.9413C24.2182 47.551 38.2894 55.0559 45.4592 56.2242C45.4592 56.2242 43.9628 56.6018 43.5191 56.7146C43.0753 56.8274 41.5515 57.0108 41.5515 57.0108C33.4065 55.6836 22.2332 49.3339 16.896 44.6415C14.1997 42.2709 11.9946 39.9829 10.4634 38.288C9.69705 37.4397 9.09771 36.7379 8.68821 36.246C8.48342 36 8.32598 35.8063 8.21874 35.6729C8.16512 35.6062 8.12405 35.5545 8.09587 35.5188L8.06331 35.4775L8.05437 35.4661L8.0509 35.4616C8.0509 35.4616 8.05037 35.4609 9.2698 34.8012L8.91291 33.5759L9.55647 33.4612C9.97196 33.3869 10.574 33.2789 11.3196 33.1443C12.811 32.8751 14.8762 32.4993 17.1717 32.0732C21.7697 31.2198 27.2675 30.169 30.9326 29.3686L31.8573 29.1666ZM9.2698 34.8012L8.91291 33.5759L6.86631 33.939L8.0509 35.4616L9.2698 34.8012Z" fill="#D4FD5F"/>
<path d="M7.41559 48.876L5.86377 44.4399L11.8353 54.62L16.255 60.3641L11.4196 55.1218L7.41559 48.876Z" fill="#25951C"/>
<ellipse cx="35.4805" cy="45.5378" rx="11.0745" ry="6.86165" transform="rotate(6.95121 35.4805 45.5378)" fill="#D4FD5F"/>
<path d="M57.5705 69.3901L57.7822 68.6832L42.3166 70.1888L40.1744 71.0863L57.5705 69.3901Z" fill="#227B18"/>
<path d="M58.4758 66.3077L58.6875 65.6008L52.6645 66.3077L50.5222 67.2052L58.4758 66.3077Z" fill="#227B18"/>
<g clip-path="url(#clip0_3485_43186)">
<path d="M45.8906 103.215L43.919 97.7832C42.9005 94.9245 42.6829 91.8391 43.2899 88.8643C44.1343 84.4389 46.6041 80.0517 50.3699 76.2505C54.3566 72.3132 59.171 69.3263 64.4581 67.5101C69.6408 65.6512 75.1733 64.9907 80.6445 65.5776L82.6203 71.0224C77.1491 70.4355 71.6166 71.0959 66.4339 72.9548C61.1463 74.7705 56.3307 77.7558 52.3415 81.691C48.5799 85.5134 46.1143 89.8836 45.2657 94.3048C44.6603 97.2766 44.8764 100.358 45.8906 103.215V103.215Z" fill="#FFD000"/>
<path d="M67.0764 76.5482C66.4178 74.7347 65.7634 72.9212 65.1006 71.1034L65.489 70.9675C65.7887 70.8614 66.0927 70.7594 66.3967 70.6617L66.5655 71.1289L66.7429 71.6216L66.9286 72.1312L67.1186 72.6536L67.3086 73.176L67.4944 73.6857L67.6717 74.1783L67.8405 74.6455L67.9039 74.8154L67.9672 74.998L68.0347 75.1849L68.1065 75.376L68.1741 75.5671L68.2416 75.754L68.3092 75.9366L68.3683 76.1065C68.0685 76.2042 67.7645 76.3061 67.4648 76.4123L67.0764 76.5482Z" fill="#FFD000"/>
<path d="M54.2082 85.4203L52.2324 79.9756C52.7264 79.3725 53.2625 78.7779 53.8325 78.2045C57.0292 75.0356 60.8746 72.6064 65.1005 71.0864C65.7633 72.9042 66.4177 74.7177 67.0763 76.5312C62.8497 78.0522 59.0031 80.4813 55.8041 83.6493C55.2384 84.2226 54.7022 84.8172 54.2082 85.4203Z" fill="#FFD000"/>
<path d="M68.3686 76.0897C67.7156 74.2776 67.0584 72.4627 66.397 70.6449C70.4626 69.323 74.7618 68.8887 79.0075 69.3708C81.7303 69.6783 84.3697 70.5057 86.7841 71.8086C88.9384 72.9677 90.78 74.6367 92.15 76.6715C92.6562 77.4386 93.0807 78.2571 93.4166 79.1136L93.5475 79.4831L93.691 79.8781L93.8388 80.3028L93.9907 80.7275L94.1427 81.1522L94.2905 81.5769L94.4298 81.9719L94.5649 82.3414L94.662 82.6047L94.7633 82.8892L94.8689 83.178L94.9786 83.4753L95.0842 83.7726L95.1897 84.0657L95.2953 84.346L95.3882 84.6135C95.0533 83.7553 94.6287 82.9353 94.1216 82.1672C92.7501 80.1347 90.9088 78.4675 88.7557 77.3086C86.3413 76.0056 83.7019 75.1782 80.9791 74.8708C76.7373 74.3716 72.4383 74.7871 68.3686 76.0897V76.0897Z" fill="#FFD000"/>
<path d="M74.4011 79.398L73.4132 76.6756L72.4253 73.9532C72.4535 73.8631 72.5158 73.7877 72.5987 73.7433C72.6815 73.6988 72.7785 73.6888 72.8686 73.7154L74.8444 79.1602C74.7543 79.1336 74.6574 79.1436 74.5745 79.188C74.4916 79.2325 74.4294 79.3079 74.4011 79.398V79.398Z" fill="#FCDF8F"/>
<path d="M75.2413 79.2112L74.8445 79.1602L72.8687 73.7155L73.2655 73.7664L73.637 73.8089L73.827 74.327L74.0254 74.8707L74.2323 75.4398L74.4392 76.0174L74.6503 76.595L74.8571 77.1641L75.0555 77.7119L75.2413 78.2258L75.2835 78.349L75.33 78.4722L75.3806 78.6081L75.4271 78.7397L75.4777 78.8756L75.5242 79.0073L75.5706 79.1347L75.6128 79.2536L75.2413 79.2112Z" fill="#FCDF8F"/>
<path d="M75.613 79.2536L73.6372 73.8088C74.1692 73.8683 74.6884 73.9023 75.2457 73.9362L77.2215 79.381C76.6643 79.347 76.145 79.3088 75.613 79.2536Z" fill="#FCDF8F"/>
<path d="M75.444 74.0253L77.4198 79.4701C77.4198 79.4319 77.3438 79.4021 77.2214 79.3809L75.2456 73.9362C75.3554 73.9574 75.4271 73.9999 75.444 74.0253Z" fill="#FCDF8F"/>
<path d="M75.4437 74.0256L77.4195 79.4704C77.4195 79.5086 77.4195 79.5596 77.3562 79.6275L75.3804 74.1828C75.431 74.1148 75.4564 74.0639 75.4437 74.0256Z" fill="#CA820B"/>
<path d="M79.6614 79.7928L79.1885 78.4805C79.0154 78.0133 78.8465 77.5419 78.6735 77.0705C78.5004 76.599 78.3315 76.1276 78.1626 75.6604L77.9177 74.9851L77.6855 74.3481C77.6855 74.2377 77.77 74.1655 77.9515 74.1952L79.9273 79.6399C79.7458 79.6102 79.674 79.6824 79.6614 79.7928Z" fill="#FCDF8F"/>
<path d="M80.185 79.6739L79.9275 79.6399L77.9517 74.1952L78.2092 74.2292L78.4372 74.862L78.682 75.5373L78.9353 76.2338L79.1929 76.943L79.4504 77.6566L79.7037 78.3531L79.9486 79.0241L80.1808 79.6612C79.5222 77.8463 78.865 76.0356 78.2092 74.2292L80.185 79.6739V79.6739Z" fill="#FCDF8F"/>
<path d="M74.4014 79.398C73.9328 80.5447 73.4726 81.6277 72.9997 82.7957L71.0239 77.3509C71.4968 76.1999 71.9569 75.1169 72.4256 73.9532C73.0166 75.5841 74.4309 77.6567 74.4014 79.398Z" fill="#FCDF8F"/>
<path d="M77.686 74.3524L79.6618 79.7929L79.3157 80.6084L77.3398 75.1636L77.686 74.3524Z" fill="#FCDF8F"/>
<path d="M82.4313 79.9456C81.5616 79.8182 80.8692 79.7715 80.1853 79.6866L78.2095 74.2418C78.8934 74.3268 79.5858 74.3735 80.4555 74.5009L80.6835 75.1295L80.9241 75.7963L81.1774 76.4843L81.4307 77.1893L81.6882 77.8943L81.9373 78.5866L82.178 79.2491L82.406 79.8777V79.9456H82.4313Z" fill="#FCDF8F"/>
<path d="M82.4309 79.9458L80.4551 74.5011C80.5268 74.6922 80.6155 74.9258 80.6873 75.1382L80.9321 75.8092L81.1855 76.51L81.443 77.2235L81.7005 77.937L81.9538 78.6335L82.1987 79.3088L82.4309 79.9458V79.9458Z" fill="#FCDF8F"/>
<path d="M80.4935 74.4672L82.4693 79.9119C82.2601 80.7892 81.963 81.643 81.5827 82.4602L79.6069 77.0197C79.9865 76.2008 80.2835 75.3457 80.4935 74.4672V74.4672Z" fill="#CA820B"/>
<path d="M82.6253 79.9457L82.4353 79.9202L80.4595 74.4755L80.6495 74.5052C81.2658 76.1488 82.0342 78.3276 82.6253 79.9457Z" fill="#FCDF8F"/>
<path d="M75.3804 74.1826L77.3562 79.6274C76.896 80.7104 76.4316 81.8613 75.9672 82.9443L73.9956 77.4996C74.4558 76.4166 74.9328 75.2741 75.3804 74.1826Z" fill="#CA820B"/>
<path d="M96.7171 74.4242C99.875 79.1937 100.217 85.1736 97.6585 91.0473C95.7503 95.4302 92.3348 99.5202 87.8386 102.803C83.2348 106.131 77.9667 108.412 72.3994 109.488C68.8182 110.196 65.1491 110.34 61.524 109.913C60.8021 109.824 60.0886 109.709 59.3878 109.569C58.4271 109.38 57.4772 109.139 56.5423 108.847C51.7759 107.356 47.972 104.668 45.6162 101.109C44.4409 99.3248 43.6299 97.3236 43.2305 95.2215C42.8312 93.1194 42.8514 90.9584 43.29 88.8643C44.1344 84.4388 46.6041 80.0516 50.37 76.2505C54.3567 72.3131 59.1711 69.3262 64.4582 67.51C69.6713 65.6435 75.2366 64.9873 80.7375 65.5903C87.8301 66.4822 93.5549 69.6463 96.7171 74.4242ZM84.7651 100.217C88.4887 97.4901 91.3216 94.0924 92.9048 90.4484C93.9242 88.1844 94.4028 85.7118 94.3022 83.2284C94.1839 80.8888 93.44 78.6248 92.1491 76.6752C90.779 74.6403 88.9374 72.9714 86.7831 71.8123C84.3687 70.5093 81.7293 69.6819 79.0066 69.3744C74.4412 68.8685 69.8212 69.4146 65.4968 70.9713C61.1165 72.4729 57.1273 74.9446 53.8234 78.2041C50.6993 81.3554 48.6559 84.9994 47.9467 88.6731C47.5817 90.4079 47.5612 92.1982 47.8866 93.9409C48.2119 95.6837 48.8765 97.3445 49.8423 98.8279C51.7885 101.78 54.9085 104.014 58.8685 105.245C60.2126 105.665 61.5918 105.96 62.989 106.129C65.9857 106.478 69.0183 106.355 71.9772 105.763C76.5873 104.866 80.948 102.971 84.7567 100.208" fill="#FFD000"/>
<path d="M92.1499 76.6542C93.4409 78.6038 94.1847 80.8679 94.303 83.2074C94.403 85.6958 93.9215 88.173 92.8972 90.4402C91.314 94.0842 88.4812 97.4819 84.7575 100.208C80.9489 102.971 76.5881 104.867 71.9781 105.764C69.0192 106.355 65.9866 106.479 62.9899 106.129C61.5926 105.96 60.2135 105.665 58.8694 105.246C54.9093 104.014 51.7894 101.78 49.8431 98.8282C48.8774 97.3448 48.2127 95.6839 47.8874 93.9412C47.5621 92.1985 47.5825 90.4082 47.9475 88.6734C48.6568 84.9997 50.7002 81.3557 53.8243 78.2044C57.1261 74.9372 61.1155 72.4582 65.4976 70.9504C69.8221 69.3936 74.442 68.8475 79.0074 69.3535C81.7302 69.6609 84.3696 70.4884 86.784 71.7913C88.9383 72.9504 90.7799 74.6194 92.1499 76.6542Z" fill="#EBA500"/>
<path d="M65.4976 70.9504C69.8221 69.3936 74.442 68.8475 79.0074 69.3535C68.3549 70.0791 55.5613 74.7795 51.3951 85.772C47.2288 96.7645 54.5358 103.301 54.5358 103.301C52.5978 102.109 51.0097 100.597 49.8431 98.8282C48.8774 97.3448 48.2127 95.6839 47.8874 93.9412C47.5621 92.1984 47.5825 90.4082 47.9475 88.6734C48.6568 84.9997 50.7002 81.3557 53.8243 78.2044C57.1261 74.9372 61.1155 72.4581 65.4976 70.9504Z" fill="#DF7900"/>
<path d="M80.6455 65.5956C75.1742 65.0087 69.6418 65.6692 64.459 67.528C59.172 69.3443 54.3576 72.3312 50.3709 76.2685C46.605 80.0696 44.1437 84.4569 43.2909 88.8823C42.8522 90.9746 42.8312 93.1337 43.2291 95.2342C43.6269 97.3347 44.4358 99.3348 45.6086 101.118C47.9644 104.677 51.7683 107.366 56.5347 108.856C57.4696 109.148 58.4195 109.389 59.3802 109.578C58.382 109.385 57.3953 109.135 56.4249 108.831C51.6796 107.344 47.8969 104.656 45.5538 101.101C44.3893 99.3142 43.5879 97.313 43.1959 95.2129C42.8039 93.1129 42.829 90.9555 43.2698 88.8653C44.1141 84.4441 46.5839 80.0526 50.3371 76.2515C54.312 72.3231 59.1095 69.3382 64.3788 67.5153C69.5862 65.6427 75.1487 64.9862 80.6455 65.5956V65.5956Z" fill="#FFD000"/>
<mask id="mask0_3485_43186" style="mask-type:alpha" maskUnits="userSpaceOnUse" x="42" y="65" width="58" height="46">
<path d="M96.7175 74.4245C99.8755 79.1939 100.217 85.1738 97.659 91.0475C95.7507 95.4305 92.3353 99.5204 87.8391 102.803C83.2353 106.131 77.9672 108.412 72.3999 109.488C68.8186 110.197 65.1496 110.34 61.5245 109.913C60.8026 109.824 60.0891 109.709 59.3883 109.569C58.4276 109.38 57.4777 109.139 56.5428 108.847C51.7764 107.356 47.9725 104.668 45.6167 101.109C44.4413 99.325 43.6304 97.3238 43.231 95.2217C42.8316 93.1196 42.8519 90.9586 43.2905 88.8645C44.1349 84.4391 46.6046 80.0518 50.3705 76.2507C54.3572 72.3134 59.1716 69.3265 64.4587 67.5102C69.6718 65.6438 75.2371 64.9875 80.738 65.5905C87.8306 66.4824 93.5554 69.6465 96.7175 74.4245ZM84.7656 100.217C88.4892 97.4903 91.3221 94.0926 92.9052 90.4487C93.9247 88.1846 94.4033 85.712 94.3027 83.2286C94.1844 80.8891 93.4405 78.625 92.1495 76.6754C90.7795 74.6406 88.9379 72.9716 86.7836 71.8125C84.3692 70.5096 81.7298 69.6821 79.007 69.3747C74.4417 68.8687 69.8217 69.4148 65.4972 70.9716C61.117 72.4731 57.1278 74.9448 53.8239 78.2044C50.6998 81.3557 48.6564 84.9997 47.9472 88.6734C47.5822 90.4082 47.5617 92.1984 47.887 93.9412C48.2124 95.6839 48.877 97.3448 49.8428 98.8281C51.789 101.78 54.9089 104.014 58.869 105.245C60.2131 105.665 61.5922 105.96 62.9895 106.129C65.9862 106.479 69.0188 106.355 71.9777 105.764C76.5878 104.867 80.9485 102.971 84.7571 100.208" fill="#FADD23"/>
</mask>
<g mask="url(#mask0_3485_43186)">
<rect x="28.7515" y="96.1285" width="88.3721" height="3.76885" transform="rotate(-30 28.7515 96.1285)" fill="#FFF3A5"/>
<rect x="44.2178" y="108.233" width="67.8393" height="1.88443" transform="rotate(-30 44.2178 108.233)" fill="#FFF3A5"/>
<rect x="37.0781" y="97.1237" width="67.8393" height="1.88443" transform="rotate(-30 37.0781 97.1237)" fill="#FFF3A5"/>
</g>
</g>
<path d="M83.11 90.1981C83.1692 90.9714 83.0235 91.7466 82.6878 92.4448C82.2639 93.4142 81.6526 94.2891 80.8893 95.0186C79.8743 95.9416 78.6223 96.5596 77.2755 96.8023C75.5933 97.1178 73.8809 97.2403 72.1713 97.1676C72.0697 97.142 71.9624 97.152 71.8672 97.196C71.772 97.24 71.6946 97.3154 71.6478 97.4097C71.1876 98.4969 70.7148 99.6436 70.2546 100.727C70.1617 100.952 70.1364 101.032 69.9 101.003C69.8416 100.997 69.7837 100.987 69.7269 100.973C68.9881 100.913 68.1732 100.799 67.4302 100.739C67.1896 100.697 67.198 100.637 67.2993 100.493C67.7637 99.3463 68.2366 98.1996 68.7812 97.0954C68.7812 96.968 68.8867 96.8915 68.7263 96.8448C68.0719 96.7768 67.4133 96.7131 66.6745 96.6537C66.4381 97.261 66.113 97.8768 65.8766 98.4799C65.6402 99.083 65.3151 99.7073 65.0744 100.315C64.9858 100.446 64.9731 100.51 64.7705 100.485L64.4285 100.438C63.7108 100.349 62.9846 100.306 62.2627 100.264C62.0221 100.221 62.0263 100.158 62.1276 100.017C62.5962 98.8707 63.0649 97.7197 63.6095 96.6197C63.6095 96.5518 63.7066 96.4796 63.7235 96.3479C61.8405 96.144 59.9576 95.9232 57.9902 95.7363C58.1887 95.4603 58.2984 95.2522 58.4969 94.9761C58.919 94.3518 59.3074 93.7275 59.6241 93.1796C59.7296 92.9757 59.8141 92.9672 60.0674 92.9417H60.2025C60.7627 93.0156 61.3264 93.0595 61.8912 93.0734C62.1606 93.1262 62.4399 93.0842 62.6821 92.9542C62.9243 92.8243 63.1146 92.6144 63.2211 92.3599C64.7071 88.907 66.1763 85.4499 67.6117 81.9376C67.8439 81.3982 67.4935 80.8461 66.7674 80.7229C66.5394 80.6847 66.3072 80.6507 66.0834 80.6252C65.5811 80.5615 65.0913 80.5233 64.6396 80.4766C64.6088 80.4809 64.5775 80.4809 64.5467 80.4766C64.4454 80.4766 64.4158 80.4086 64.496 80.2982C64.8085 79.6059 65.1251 78.8669 65.4375 78.1747C66.2819 78.2639 67.1262 78.3063 67.9706 78.4083C68.815 78.5102 69.7775 78.5569 70.6768 78.6631C70.764 78.6836 70.8556 78.6705 70.9337 78.6265C71.0118 78.5825 71.0708 78.5107 71.099 78.4252C71.5718 77.2743 72.032 76.1913 72.5006 75.0276C72.6019 74.8322 72.6906 74.7558 72.9228 74.7855L73.345 74.8407C74.012 74.9214 74.6411 74.9724 75.325 75.0106C75.5699 75.0531 75.5614 75.121 75.4601 75.2569C74.9999 76.3399 74.5355 77.4909 74.0753 78.5739C74.06 78.672 74.0192 78.7643 73.9571 78.8415C74.6157 78.9094 75.3545 78.9689 76.0089 79.0368C76.0934 79.0368 76.1905 78.8882 76.2833 78.8117C76.638 77.9368 76.9842 77.1129 77.419 76.238L77.7652 75.4226C77.7652 75.397 77.7709 75.3718 77.7819 75.3487C77.793 75.3257 77.809 75.3055 77.8289 75.2895C77.8488 75.2736 77.872 75.2624 77.8968 75.2568C77.9216 75.2511 77.9473 75.2512 77.9721 75.2569C78.1156 75.2824 78.2043 75.2909 78.2887 75.3036C79.0233 75.3928 79.7663 75.4438 80.5727 75.5415C80.3625 76.4185 80.0655 77.2722 79.6861 78.0897C79.5638 78.462 79.401 78.8195 79.2006 79.1557C79.0951 79.3596 79.1711 79.4191 79.4159 79.4615L82.0715 80.175C82.835 80.4616 83.5186 80.9293 84.0641 81.5384C84.7016 82.4515 84.6594 83.492 84.195 84.575C83.8771 85.3642 83.3676 86.0607 82.7132 86.6009C82.1214 87.0441 81.4648 87.3923 80.7669 87.6329C80.6541 87.6742 80.5384 87.7068 80.4207 87.7306C80.7331 87.8962 81.054 87.9939 81.3664 88.1553C81.7879 88.3468 82.1624 88.629 82.4637 88.982C82.7649 89.3349 82.9856 89.7501 83.11 90.1981ZM74.7171 93.8081C76.3593 93.256 77.2248 91.5529 76.4269 90.5889C75.982 90.1171 75.4236 89.7689 74.8057 89.5781C74.0681 89.3332 73.3067 89.168 72.5344 89.0854C71.69 88.9792 70.8457 88.9325 70.0013 88.8815H69.9506C69.7522 88.8561 69.7395 88.9283 69.6424 89.1194C69.3976 89.7904 69.0725 90.3935 68.8276 91.0773C68.3801 92.0286 68.0213 92.9715 67.5611 93.9908H67.5991C67.6424 93.9964 67.6833 94.0141 67.7173 94.0417C69.0826 94.2286 70.4601 94.3109 71.8378 94.2881C72.8153 94.2905 73.7866 94.1313 74.7128 93.8166L74.7171 93.8081ZM70.7148 86.2866C70.6177 86.4267 70.7148 86.4819 70.8541 86.5329L71.1032 86.5626L71.3354 86.5924L71.7576 86.6433C72.9721 86.6922 74.1884 86.6737 75.401 86.5881C75.7176 86.5339 76.0306 86.4601 76.3382 86.3673C77.9679 85.9426 78.9769 84.4264 78.2718 83.3943C77.8253 82.8338 77.1899 82.4576 76.486 82.3368C75.8978 82.1949 75.3013 82.09 74.7002 82.0225C74.1429 81.9546 73.5687 81.8994 72.9819 81.8314H72.9397C72.7286 81.8059 72.6399 81.8824 72.5386 82.0735C71.956 83.492 71.3776 84.8468 70.7106 86.2738" fill="#DF7900"/>
<path d="M83.0646 89.0769C83.1238 89.8502 82.9781 90.6254 82.6424 91.3236C82.2185 92.293 81.6072 93.1679 80.8439 93.8973C79.8289 94.8204 78.5769 95.4384 77.2301 95.6811C75.5479 95.9965 73.8355 96.1191 72.1259 96.0464C72.0243 96.0207 71.917 96.0308 71.8218 96.0748C71.7266 96.1188 71.6492 96.1942 71.6024 96.2884C71.1422 97.3757 70.6694 98.5224 70.2092 99.6054C70.1163 99.8305 70.091 99.9112 69.8546 99.8815C69.7962 99.8761 69.7383 99.8661 69.6815 99.8517C68.9426 99.7923 68.1278 99.6776 67.3848 99.6182C67.1442 99.5757 67.1526 99.5162 67.2539 99.3718C67.7183 98.2251 68.1912 97.0784 68.7358 95.9742C68.7358 95.8468 68.8413 95.7703 68.6809 95.7236C68.0265 95.6556 67.3679 95.5919 66.6291 95.5325C66.3927 96.1398 66.0676 96.7556 65.8312 97.3587C65.5948 97.9618 65.2697 98.5861 65.029 99.1934C64.9404 99.3251 64.9277 99.3888 64.7251 99.3633L64.3831 99.3166C63.6654 99.2274 62.9392 99.185 62.2173 99.1425C61.9767 99.1 61.9809 99.0363 62.0822 98.8961C62.5508 97.7494 63.0194 96.5985 63.5641 95.4985C63.5641 95.4305 63.6612 95.3583 63.678 95.2267C61.7951 95.0228 59.9122 94.802 57.9448 94.6151C58.1432 94.339 58.253 94.1309 58.4514 93.8549C58.8736 93.2306 59.262 92.6062 59.5787 92.0584C59.6842 91.8545 59.7686 91.846 60.022 91.8205H60.1571C60.7173 91.8944 61.281 91.9383 61.8458 91.9522C62.1152 92.005 62.3945 91.9629 62.6367 91.833C62.8789 91.7031 63.0692 91.4932 63.1756 91.2387C64.6617 87.7858 66.1309 84.3287 67.5663 80.8164C67.7985 80.277 67.4481 79.7249 66.722 79.6017C66.494 79.5635 66.2618 79.5295 66.038 79.504C65.5356 79.4403 65.0459 79.4021 64.5942 79.3554C64.5634 79.3597 64.5321 79.3597 64.5013 79.3554C64.4 79.3554 64.3704 79.2874 64.4506 79.177C64.7631 78.4847 65.0797 77.7457 65.3921 77.0535C66.2365 77.1426 67.0808 77.1851 67.9252 77.287C68.7695 77.389 69.7321 77.4357 70.6314 77.5419C70.7186 77.5623 70.8102 77.5493 70.8883 77.5053C70.9664 77.4613 71.0254 77.3895 71.0536 77.304C71.5264 76.1531 71.9866 75.0701 72.4552 73.9064C72.5565 73.711 72.6452 73.6346 72.8774 73.6643L73.2996 73.7195C73.9666 73.8002 74.5957 73.8512 75.2796 73.8894C75.5245 73.9319 75.516 73.9998 75.4147 74.1357C74.9545 75.2187 74.4901 76.3697 74.0299 77.4527C74.0146 77.5508 73.9738 77.6431 73.9117 77.7202C74.5703 77.7882 75.3091 77.8477 75.9635 77.9156C76.048 77.9156 76.1451 77.767 76.2379 77.6905C76.5926 76.8156 76.9388 75.9917 77.3736 75.1168L77.7198 74.3014C77.7198 74.2758 77.7255 74.2505 77.7365 74.2275C77.7476 74.2045 77.7636 74.1842 77.7835 74.1683C77.8034 74.1524 77.8266 74.1412 77.8514 74.1356C77.8762 74.1299 77.9019 74.13 77.9267 74.1357C78.0702 74.1612 78.1589 74.1697 78.2433 74.1824C78.9779 74.2716 79.7209 74.3226 80.5273 74.4203C80.3171 75.2973 80.0201 76.151 79.6407 76.9685C79.5184 77.3407 79.3556 77.6982 79.1552 78.0345C79.0497 78.2384 79.1257 78.2978 79.3705 78.3403L82.026 79.0538C82.7896 79.3404 83.4732 79.8081 84.0187 80.4171C84.6562 81.3303 84.614 82.3708 84.1496 83.4538C83.8317 84.243 83.3222 84.9395 82.6678 85.4796C82.076 85.9229 81.4194 86.271 80.7215 86.5117C80.6087 86.553 80.493 86.5856 80.3753 86.6094C80.6877 86.775 81.0086 86.8727 81.321 87.0341C81.7424 87.2256 82.117 87.5078 82.4182 87.8608C82.7195 88.2137 82.9401 88.6289 83.0646 89.0769ZM74.6716 92.6869C76.3139 92.1348 77.1794 90.4317 76.3815 89.4676C75.9366 88.9959 75.3782 88.6477 74.7603 88.4568C74.0227 88.212 73.2613 88.0468 72.489 87.9642C71.6446 87.858 70.8002 87.8113 69.9559 87.7603H69.9052C69.7068 87.7348 69.6941 87.807 69.597 87.9982C69.3522 88.6692 69.0271 89.2723 68.7822 89.9561C68.3347 90.9074 67.9758 91.8503 67.5157 92.8696H67.5537C67.597 92.8752 67.6379 92.8929 67.6719 92.9205C69.0372 93.1074 70.4147 93.1897 71.7924 93.1669C72.7699 93.1693 73.7412 93.0101 74.6674 92.6954L74.6716 92.6869ZM70.6694 85.1654C70.5723 85.3055 70.6694 85.3607 70.8087 85.4117L71.0578 85.4414L71.29 85.4712L71.7122 85.5221C72.9267 85.5709 74.143 85.5525 75.3556 85.4669C75.6722 85.4127 75.9852 85.3389 76.2928 85.2461C77.9224 84.8213 78.9315 83.3051 78.2264 82.2731C77.7798 81.7126 77.1445 81.3364 76.4406 81.2156C75.8524 81.0737 75.2559 80.9688 74.6548 80.9013C74.0975 80.8333 73.5233 80.7781 72.9365 80.7102H72.8943C72.6832 80.6847 72.5945 80.7611 72.4932 80.9523C71.9106 82.3708 71.3322 83.7256 70.6651 85.1526" fill="#FFE12A"/>
<path d="M83.0646 89.0769C83.1238 89.8502 82.9781 90.6254 82.6424 91.3236C82.2185 92.293 81.6072 93.1679 80.8439 93.8973C79.8289 94.8204 78.5769 95.4384 77.2301 95.6811C75.5479 95.9965 73.8355 96.1191 72.1259 96.0464C72.0243 96.0207 71.917 96.0308 71.8218 96.0748C71.7266 96.1188 71.6492 96.1942 71.6024 96.2884C71.1422 97.3757 70.6694 98.5224 70.2092 99.6054C70.1163 99.8305 70.091 99.9112 69.8546 99.8815C69.7962 99.8761 69.7383 99.8661 69.6815 99.8517C68.9426 99.7923 68.1278 99.6776 67.3848 99.6182C67.1442 99.5757 67.1526 99.5162 67.2539 99.3718C67.7183 98.2251 68.1912 97.0784 68.7358 95.9742C68.7358 95.8468 68.8413 95.7703 68.6809 95.7236C68.0265 95.6556 67.3679 95.5919 66.6291 95.5325C66.3927 96.1398 66.0676 96.7556 65.8312 97.3587C65.5948 97.9618 65.2697 98.5861 65.029 99.1934C64.9404 99.3251 64.9277 99.3888 64.7251 99.3633L64.3831 99.3166C63.6654 99.2274 62.9392 99.185 62.2173 99.1425C61.9767 99.1 61.9809 99.0363 62.0822 98.8961C62.5508 97.7494 63.0194 96.5985 63.5641 95.4985C63.5641 95.4305 63.6612 95.3583 63.678 95.2267C61.7951 95.0228 59.9122 94.802 57.9448 94.6151C58.1432 94.339 58.253 94.1309 58.4514 93.8549C58.8736 93.2306 59.262 92.6062 59.5787 92.0584C59.6842 91.8545 59.7686 91.846 60.022 91.8205H60.1571C60.7173 91.8944 61.281 91.9383 61.8458 91.9522C62.1152 92.005 62.3945 91.9629 62.6367 91.833C62.8789 91.7031 63.0692 91.4932 63.1756 91.2387C64.6617 87.7858 66.1309 84.3287 67.5663 80.8164C67.7985 80.277 67.4481 79.7249 66.722 79.6017C66.494 79.5635 66.2618 79.5295 66.038 79.504C65.5356 79.4403 65.0459 79.4021 64.5942 79.3554C64.5634 79.3597 64.5321 79.3597 64.5013 79.3554C64.4 79.3554 64.3704 79.2874 64.4506 79.177C64.7631 78.4847 65.0797 77.7457 65.3921 77.0535C66.2365 77.1426 67.0808 77.1851 67.9252 77.287C68.7695 77.389 69.7321 77.4357 70.6314 77.5419C70.7186 77.5623 70.8102 77.5493 70.8883 77.5053C70.9664 77.4613 71.0254 77.3895 71.0536 77.304C71.5264 76.1531 71.9866 75.0701 72.4552 73.9064C72.5565 73.711 72.6452 73.6346 72.8774 73.6643L73.2996 73.7195C73.9666 73.8002 74.5957 73.8512 75.2796 73.8894C75.5245 73.9319 75.516 73.9998 75.4147 74.1357C74.9545 75.2187 74.4901 76.3697 74.0299 77.4527C74.0146 77.5508 73.9738 77.6431 73.9117 77.7202C74.5703 77.7882 75.3091 77.8477 75.9635 77.9156C76.048 77.9156 76.1451 77.767 76.2379 77.6905C76.5926 76.8156 76.9388 75.9917 77.3736 75.1168L77.7198 74.3014C77.7198 74.2758 77.7255 74.2505 77.7365 74.2275C77.7476 74.2045 77.7636 74.1842 77.7835 74.1683C77.8034 74.1524 77.8266 74.1412 77.8514 74.1356C77.8762 74.1299 77.9019 74.13 77.9267 74.1357C78.0702 74.1612 78.1589 74.1697 78.2433 74.1824C78.9779 74.2716 79.7209 74.3226 80.5273 74.4203C80.3171 75.2973 80.0201 76.151 79.6407 76.9685C79.5184 77.3407 79.3556 77.6982 79.1552 78.0345C79.0497 78.2384 79.1257 78.2978 79.3705 78.3403L82.026 79.0538C82.7896 79.3404 83.4732 79.8081 84.0187 80.4171C84.6562 81.3303 84.614 82.3708 84.1496 83.4538C83.8317 84.243 83.3222 84.9395 82.6678 85.4796C82.076 85.9229 81.4194 86.271 80.7215 86.5117C80.6087 86.553 80.493 86.5856 80.3753 86.6094C80.6877 86.775 81.0086 86.8727 81.321 87.0341C81.7424 87.2256 82.117 87.5078 82.4182 87.8608C82.7195 88.2137 82.9401 88.6289 83.0646 89.0769ZM74.6716 92.6869C76.3139 92.1348 77.1794 90.4317 76.3815 89.4676C75.9366 88.9959 75.3782 88.6477 74.7603 88.4568C74.0227 88.212 73.2613 88.0468 72.489 87.9642C71.6446 87.858 70.8002 87.8113 69.9559 87.7603H69.9052C69.7068 87.7348 69.6941 87.807 69.597 87.9982C69.3522 88.6692 69.0271 89.2723 68.7822 89.9561C68.3347 90.9074 67.9758 91.8503 67.5157 92.8696H67.5537C67.597 92.8752 67.6379 92.8929 67.6719 92.9205C69.0372 93.1074 70.4147 93.1897 71.7924 93.1669C72.7699 93.1693 73.7412 93.0101 74.6674 92.6954L74.6716 92.6869ZM70.6694 85.1654C70.5723 85.3055 70.6694 85.3607 70.8087 85.4117L71.0578 85.4414L71.29 85.4712L71.7122 85.5221C72.9267 85.5709 74.143 85.5525 75.3556 85.4669C75.6722 85.4127 75.9852 85.3389 76.2928 85.2461C77.9224 84.8213 78.9315 83.3051 78.2264 82.2731C77.7798 81.7126 77.1445 81.3364 76.4406 81.2156C75.8524 81.0737 75.2559 80.9688 74.6548 80.9013C74.0975 80.8333 73.5233 80.7781 72.9365 80.7102H72.8943C72.6832 80.6847 72.5945 80.7611 72.4932 80.9523C71.9106 82.3708 71.3322 83.7256 70.6651 85.1526" fill="#FFE12A"/>
<mask id="mask1_3485_43186" style="mask-type:alpha" maskUnits="userSpaceOnUse" x="57" y="73" width="28" height="27">
<path d="M83.0646 89.0768C83.1238 89.8501 82.9781 90.6253 82.6424 91.3235C82.2185 92.2929 81.6072 93.1678 80.8439 93.8972C79.8289 94.8202 78.5769 95.4382 77.2301 95.681C75.5479 95.9964 73.8355 96.119 72.1259 96.0462C72.0243 96.0206 71.917 96.0307 71.8218 96.0747C71.7266 96.1187 71.6492 96.1941 71.6024 96.2883C71.1422 97.3756 70.6694 98.5223 70.2092 99.6053C70.1163 99.8304 70.091 99.9111 69.8546 99.8813C69.7962 99.8759 69.7383 99.866 69.6815 99.8516C68.9426 99.7922 68.1278 99.6775 67.3848 99.618C67.1442 99.5756 67.1526 99.5161 67.2539 99.3717C67.7183 98.225 68.1912 97.0783 68.7358 95.974C68.7358 95.8466 68.8413 95.7702 68.6809 95.7235C68.0265 95.6555 67.3679 95.5918 66.6291 95.5323C66.3927 96.1397 66.0676 96.7555 65.8312 97.3586C65.5948 97.9617 65.2697 98.586 65.029 99.1933C64.9404 99.325 64.9277 99.3887 64.7251 99.3632L64.3831 99.3165C63.6654 99.2273 62.9392 99.1848 62.2173 99.1424C61.9767 99.0999 61.9809 99.0362 62.0822 98.896C62.5508 97.7493 63.0194 96.5984 63.5641 95.4984C63.5641 95.4304 63.6612 95.3582 63.678 95.2266C61.7951 95.0227 59.9122 94.8018 57.9448 94.615C58.1432 94.3389 58.253 94.1308 58.4514 93.8548C58.8736 93.2304 59.262 92.6061 59.5787 92.0582C59.6842 91.8544 59.7686 91.8459 60.022 91.8204H60.1571C60.7173 91.8942 61.281 91.9382 61.8458 91.9521C62.1152 92.0049 62.3945 91.9628 62.6367 91.8329C62.8789 91.7029 63.0692 91.4931 63.1756 91.2386C64.6617 87.7857 66.1309 84.3286 67.5663 80.8162C67.7985 80.2769 67.4481 79.7247 66.722 79.6016C66.494 79.5634 66.2618 79.5294 66.038 79.5039C65.5356 79.4402 65.0459 79.402 64.5942 79.3552C64.5634 79.3595 64.5321 79.3595 64.5013 79.3552C64.4 79.3552 64.3704 79.2873 64.4506 79.1769C64.7631 78.4846 65.0797 77.7456 65.3921 77.0533C66.2365 77.1425 67.0808 77.185 67.9252 77.2869C68.7695 77.3889 69.7321 77.4356 70.6314 77.5417C70.7186 77.5622 70.8102 77.5492 70.8883 77.5052C70.9664 77.4612 71.0254 77.3894 71.0536 77.3039C71.5264 76.153 71.9866 75.0699 72.4552 73.9063C72.5565 73.7109 72.6452 73.6344 72.8774 73.6642L73.2996 73.7194C73.9666 73.8001 74.5957 73.851 75.2796 73.8893C75.5245 73.9317 75.516 73.9997 75.4147 74.1356C74.9545 75.2186 74.4901 76.3696 74.0299 77.4526C74.0146 77.5506 73.9738 77.6429 73.9117 77.7201C74.5703 77.7881 75.3091 77.8475 75.9635 77.9155C76.048 77.9155 76.1451 77.7668 76.2379 77.6904C76.5926 76.8155 76.9388 75.9916 77.3736 75.1167L77.7198 74.3012C77.7198 74.2757 77.7255 74.2504 77.7365 74.2274C77.7476 74.2044 77.7636 74.1841 77.7835 74.1682C77.8034 74.1523 77.8266 74.1411 77.8514 74.1354C77.8762 74.1298 77.9019 74.1298 77.9267 74.1356C78.0702 74.1611 78.1589 74.1696 78.2433 74.1823C78.9779 74.2715 79.7209 74.3225 80.5273 74.4201C80.3171 75.2972 80.0201 76.1509 79.6407 76.9684C79.5184 77.3406 79.3556 77.6981 79.1552 78.0344C79.0497 78.2383 79.1257 78.2977 79.3705 78.3402L82.026 79.0537C82.7896 79.3403 83.4732 79.808 84.0187 80.417C84.6562 81.3301 84.614 82.3707 84.1496 83.4537C83.8317 84.2429 83.3222 84.9394 82.6678 85.4795C82.076 85.9228 81.4194 86.2709 80.7215 86.5116C80.6087 86.5528 80.493 86.5855 80.3753 86.6092C80.6877 86.7749 81.0086 86.8726 81.321 87.034C81.7424 87.2255 82.117 87.5077 82.4182 87.8606C82.7195 88.2136 82.9401 88.6287 83.0646 89.0768ZM74.6716 92.6868C76.3139 92.1347 77.1794 90.4316 76.3815 89.4675C75.9366 88.9958 75.3782 88.6476 74.7603 88.4567C74.0227 88.2118 73.2613 88.0467 72.489 87.9641C71.6446 87.8579 70.8002 87.8112 69.9559 87.7602H69.9052C69.7068 87.7347 69.6941 87.8069 69.597 87.998C69.3522 88.6691 69.0271 89.2722 68.7822 89.9559C68.3347 90.9073 67.9758 91.8501 67.5157 92.8694H67.5537C67.597 92.8751 67.6379 92.8927 67.6719 92.9204C69.0372 93.1073 70.4147 93.1896 71.7924 93.1667C72.7699 93.1692 73.7412 93.0099 74.6674 92.6953L74.6716 92.6868ZM70.6694 85.1652C70.5723 85.3054 70.6694 85.3606 70.8087 85.4116L71.0578 85.4413L71.29 85.471L71.7122 85.522C72.9267 85.5708 74.143 85.5524 75.3556 85.4668C75.6722 85.4126 75.9852 85.3388 76.2928 85.2459C77.9224 84.8212 78.9315 83.305 78.2264 82.273C77.7798 81.7125 77.1445 81.3362 76.4406 81.2155C75.8524 81.0736 75.2559 80.9686 74.6548 80.9012C74.0975 80.8332 73.5233 80.778 72.9365 80.7101H72.8943C72.6832 80.6846 72.5945 80.761 72.4932 80.9521C71.9106 82.3707 71.3322 83.7255 70.6651 85.1525" fill="#FFE12A"/>
</mask>
<g mask="url(#mask1_3485_43186)">
<rect x="28.752" y="96.1279" width="88.3721" height="3.76885" transform="rotate(-30 28.752 96.1279)" fill="#FFF3A5"/>
<rect x="44.2183" y="108.233" width="67.8393" height="1.88443" transform="rotate(-30 44.2183 108.233)" fill="#FFF3A5"/>
<rect x="37.0786" y="97.1237" width="67.8393" height="1.88443" transform="rotate(-30 37.0786 97.1237)" fill="#FFF3A5"/>
</g>
<g clip-path="url(#clip1_3485_43186)">
<path d="M-9.91521 20.515L-11.2961 16.7106C-12.0093 14.7084 -12.1618 12.5475 -11.7366 10.464C-11.1453 7.36457 -9.4155 4.29188 -6.778 1.62967C-3.98581 -1.12793 -0.613935 -3.21988 3.08898 -4.49192C6.71883 -5.79381 10.5936 -6.2564 14.4255 -5.84534L15.8093 -2.03198C11.9774 -2.44305 8.10263 -1.98046 4.47278 -0.67857C0.769512 0.59312 -2.60319 2.68394 -5.39715 5.44005C-8.0317 8.11713 -9.7585 11.1779 -10.3528 14.2744C-10.7769 16.3557 -10.6255 18.5142 -9.91521 20.515V20.515Z" fill="#FFD000"/>
<path d="M4.92188 1.83767C4.46062 0.567544 4.00231 -0.702582 3.53809 -1.97568L3.81011 -2.07087C4.02005 -2.14523 4.23294 -2.21662 4.44583 -2.28503L4.56411 -1.95784L4.6883 -1.61279L4.81839 -1.25585L4.95146 -0.889977L5.08451 -0.524111L5.21461 -0.167166L5.3388 0.177879L5.45707 0.505077L5.50143 0.624059L5.54578 0.751964L5.59309 0.882844L5.64335 1.0167L5.69067 1.15055L5.73797 1.28143L5.78528 1.40934L5.82668 1.52832C5.61674 1.59673 5.40385 1.66812 5.19391 1.74248L4.92188 1.83767Z" fill="#FFD000"/>
<path d="M-4.09081 8.0515L-5.47461 4.23815C-5.12866 3.81577 -4.75314 3.39933 -4.35396 2.99777C-2.1151 0.778363 0.578123 -0.922967 3.53785 -1.98755C4.00207 -0.714448 4.46038 0.555677 4.92165 1.8258C1.96141 2.89112 -0.732629 4.59233 -2.97312 6.81112C-3.36934 7.21268 -3.74485 7.62912 -4.09081 8.0515Z" fill="#FFD000"/>
<path d="M5.82665 1.51667C5.36932 0.247537 4.90904 -1.02358 4.4458 -2.29668C7.29327 -3.22248 10.3043 -3.5267 13.2779 -3.18904C15.1848 -2.97371 17.0334 -2.39421 18.7244 -1.48166C20.2332 -0.66985 21.523 0.499045 22.4825 1.92418C22.837 2.46142 23.1344 3.0347 23.3696 3.63454L23.4613 3.89333L23.5618 4.16995L23.6653 4.46741L23.7717 4.76486L23.8782 5.06231L23.9817 5.35977L24.0792 5.6364L24.1739 5.89519L24.2419 6.0796L24.3128 6.2789L24.3867 6.48117L24.4636 6.68939L24.5375 6.8976L24.6115 7.10285L24.6854 7.29917L24.7504 7.48656C24.5159 6.88547 24.2185 6.31114 23.8634 5.77323C22.9028 4.34973 21.6132 3.18202 20.1052 2.37036C18.4143 1.45781 16.5657 0.878317 14.6587 0.662982C11.6878 0.313404 8.67701 0.604422 5.82665 1.51667V1.51667Z" fill="#FFD000"/>
<path d="M10.0518 3.83354L9.35987 1.92686L8.66797 0.0201878C8.68775 -0.0429293 8.73135 -0.0957272 8.78939 -0.126871C8.84744 -0.158015 8.91531 -0.16502 8.97844 -0.146385L10.3622 3.66697C10.2991 3.64833 10.2312 3.65534 10.1732 3.68648C10.1151 3.71763 10.0716 3.77042 10.0518 3.83354V3.83354Z" fill="#FCDF8F"/>
<path d="M10.6407 3.7028L10.3628 3.66711L8.979 -0.14624L9.25695 -0.110547L9.51715 -0.0808001L9.65021 0.282091L9.78918 0.662833L9.93406 1.06142L10.0789 1.46596L10.2268 1.87049L10.3717 2.26908L10.5106 2.65279L10.6407 3.01271L10.6703 3.09897L10.7028 3.18524L10.7383 3.28042L10.7708 3.37263L10.8063 3.46782L10.8389 3.56003L10.8714 3.64926L10.901 3.73255L10.6407 3.7028Z" fill="#FCDF8F"/>
<path d="M3.77458 2.08752L5.15838 5.90088L4.98097 6.01093L3.59717 2.19758L3.77458 2.08752Z" fill="#FCDF8F"/>
<path d="M4.93361 6.04077L3.5498 2.22742L4.93361 6.04077Z" fill="#CA820B"/>
<path d="M3.59712 2.19763L4.98092 6.01098C4.96681 6.02261 4.9508 6.03166 4.9336 6.03775L3.5498 2.2244C3.5498 2.2244 3.56755 2.21845 3.59712 2.19763Z" fill="#CA820B"/>
<path d="M3.77444 2.08752L5.15824 5.90088C5.13754 5.93955 5.1198 5.98119 5.10206 6.02284L3.71826 2.21246C3.736 2.16784 3.75374 2.13512 3.77444 2.08752Z" fill="#CA820B"/>
<path d="M3.7184 2.21257L5.1022 6.02295H4.98097L3.59717 2.20959L3.7184 2.21257Z" fill="#CA820B"/>
<path d="M5.43027 6.0555L5.10206 6.02278L3.71826 2.2124L4.04943 2.24215C4.50872 3.51525 4.969 4.78636 5.43027 6.0555Z" fill="#FCDF8F"/>
<path d="M10.9009 3.73254L9.51709 -0.0808105C9.88965 -0.0391671 10.2533 -0.0153722 10.6437 0.00842408L12.0275 3.82178C11.6372 3.79798 11.2735 3.77121 10.9009 3.73254Z" fill="#FCDF8F"/>
<path d="M10.782 0.0708878L12.1658 3.88424C12.1658 3.85747 12.1126 3.83665 12.0269 3.82177L10.6431 0.00842285C10.7199 0.0232955 10.7702 0.0530406 10.782 0.0708878Z" fill="#FCDF8F"/>
<path d="M10.7821 0.0710449L12.1659 3.8844C12.1659 3.91117 12.1659 3.94686 12.1216 3.99446L10.7378 0.181103C10.7733 0.133511 10.791 0.0978157 10.7821 0.0710449Z" fill="#CA820B"/>
<path d="M5.43065 6.05578L5.41586 6.01711L4.0498 2.24243C4.52586 2.28705 5.00486 2.31679 5.48387 2.37628H5.49865C5.72929 3.00689 5.95795 3.6365 6.18464 4.26511L6.87063 6.15394H6.87654C6.38866 6.13014 5.90966 6.1004 5.43065 6.05578Z" fill="#FCDF8F"/>
<path d="M3.71846 2.2124L5.10226 6.02278C4.88345 6.51358 4.66169 7.03115 4.44289 7.51005L3.05908 3.69967C3.27789 3.21779 3.49965 2.70023 3.71846 2.2124Z" fill="#FCDF8F"/>
<path d="M13.7363 4.1102L13.4052 3.19107C13.2839 2.86387 13.1657 2.5337 13.0444 2.20352C12.9232 1.87335 12.8049 1.54318 12.6867 1.21598L12.5152 0.743025L12.3525 0.296846C12.3525 0.219508 12.4117 0.16894 12.5388 0.189762L13.9226 4.00311C13.7955 3.98229 13.7452 4.03286 13.7363 4.1102Z" fill="#FCDF8F"/>
<path d="M14.1032 4.02685L13.9229 4.00305L12.5391 0.189697L12.7194 0.213494L12.8791 0.656699L13.0506 1.12965L13.228 1.61747L13.4084 2.11422L13.5887 2.61394L13.7662 3.10177L13.9377 3.57174L14.1003 4.01792C13.639 2.74681 13.1787 1.47866 12.7194 0.213494L14.1032 4.02685V4.02685Z" fill="#FCDF8F"/>
<path d="M4.44278 7.51314C4.43137 7.52534 4.42279 7.53995 4.41768 7.55589C4.41256 7.57184 4.41104 7.58873 4.41321 7.60535L3.03237 3.792C3.02999 3.77583 3.03142 3.75933 3.03656 3.74383C3.0417 3.72833 3.05039 3.71425 3.06194 3.70276C3.47294 4.84498 4.02587 6.37092 4.44278 7.51314Z" fill="#FCDF8F"/>
<path d="M4.41356 7.60534L3.03271 3.79199C3.03271 3.81281 3.06228 3.82471 3.09777 3.82769C3.11935 3.8307 3.14124 3.8307 3.16282 3.82769L4.54662 7.64104C4.52404 7.64403 4.50118 7.64403 4.47861 7.64104C4.46571 7.64082 4.45305 7.63746 4.44172 7.63124C4.43039 7.62502 4.42073 7.61614 4.41356 7.60534V7.60534Z" fill="#CA820B"/>
<path d="M10.052 3.83362C9.72379 4.63674 9.40149 5.39525 9.07032 6.21324L7.68652 2.39989C8.01769 1.59379 8.33998 0.835286 8.66819 0.0202637C9.08215 1.16248 10.0727 2.61406 10.052 3.83362Z" fill="#FCDF8F"/>
<path d="M12.3523 0.299927L13.7361 4.1103L13.4937 4.68141L12.1099 0.868062L12.3523 0.299927Z" fill="#FCDF8F"/>
<path d="M6.87637 6.18945V6.15376L6.19038 4.26493L6.01297 3.77116L5.83556 3.28631L5.66702 2.81931L5.50439 2.3761C6.13124 2.45046 6.76105 2.48021 7.41452 2.55755C7.56236 2.57539 7.62445 2.52185 7.69246 2.388L9.07626 6.20135C9.00825 6.3352 8.94616 6.38875 8.79832 6.3709C8.13894 6.29951 7.50913 6.26382 6.87637 6.18945Z" fill="#FCDF8F"/>
<path d="M15.6761 4.21733C15.067 4.1281 14.5821 4.09538 14.103 4.03589L12.7192 0.222534C13.1982 0.282025 13.6832 0.314745 14.2923 0.403981L14.4519 0.844213L14.6205 1.31121L14.7979 1.79309L14.9753 2.28686L15.1557 2.78063L15.3301 3.26548L15.4987 3.72951L15.6583 4.16974V4.21733H15.6761Z" fill="#FCDF8F"/>
<path d="M15.6758 4.21728L14.292 0.403931C14.3423 0.537785 14.4044 0.701384 14.4546 0.850111L14.6261 1.32009L14.8035 1.81089L14.9839 2.3106L15.1643 2.81033L15.3417 3.29815L15.5132 3.7711L15.6758 4.21728V4.21728Z" fill="#FCDF8F"/>
<path d="M14.3187 0.380249L15.7025 4.1936C15.5559 4.80807 15.3479 5.40602 15.0816 5.97832L13.6978 2.16794C13.9636 1.59443 14.1716 0.995531 14.3187 0.380249V0.380249Z" fill="#CA820B"/>
<path d="M15.8123 4.21718L15.6792 4.19934L14.2954 0.385986L14.4285 0.406808C14.8602 1.55795 15.3983 3.08389 15.8123 4.21718Z" fill="#FCDF8F"/>
<path d="M10.7379 0.180908L12.1217 3.99426C11.7994 4.75276 11.4742 5.55886 11.1489 6.31737L9.76807 2.50402C10.0904 1.74551 10.4245 0.945363 10.7379 0.180908Z" fill="#CA820B"/>
<path d="M9.76834 2.50391L11.1492 6.31726C11.1416 6.38629 11.1138 6.45151 11.0693 6.50465L9.68555 2.6913C9.72904 2.63724 9.75759 2.57261 9.76834 2.50391V2.50391Z" fill="#CA820B"/>
<path d="M11.2231 6.51963L11.0693 6.50476L9.68555 2.69141H9.8393L9.98123 3.08999L10.0581 3.29821L10.2148 3.72654C10.5519 4.66253 10.888 5.59356 11.2231 6.51963Z" fill="#FCDF8F"/>
<path d="M5.26198 4.43754L6.64579 8.25089C6.59136 8.13003 6.50603 8.02588 6.39849 7.94906C6.29096 7.87224 6.16508 7.8255 6.03372 7.81363C5.87405 7.78686 5.71142 7.76307 5.55471 7.74522C5.20285 7.7006 4.85985 7.67085 4.54347 7.64111L3.15967 3.82776C3.47605 3.86048 3.81905 3.88725 4.17091 3.93186C4.32762 3.94971 4.49025 3.97351 4.64992 4.00028C4.78128 4.01215 4.90715 4.05888 5.01469 4.1357C5.12222 4.21252 5.20756 4.31668 5.26198 4.43754V4.43754Z" fill="#CA820B"/>
<path d="M6.62808 8.67921L6.46841 8.23303L6.38266 8.00101L6.20821 7.51914L6.11655 7.27225C5.82086 6.46913 5.52518 5.66898 5.22949 4.86585C5.2896 4.73583 5.29599 4.58714 5.24724 4.45239L6.63104 8.26575C6.68447 8.39853 6.68341 8.54721 6.62808 8.67921V8.67921Z" fill="#FCDF8F"/>
<path d="M12.1099 0.86792L13.4937 4.68127C13.198 5.29998 12.9467 5.87108 12.6983 6.48384L11.3115 2.67049C11.5629 2.05773 11.8053 1.48662 12.1099 0.86792Z" fill="#FCDF8F"/>
<path d="M11.2232 6.51978L9.8335 2.70642C10.2534 2.74806 10.7205 2.78376 11.1168 2.82838L12.5006 6.64173C12.0984 6.59711 11.6431 6.56142 11.2232 6.51978Z" fill="#FCDF8F"/>
<path d="M11.3113 2.67053L12.6951 6.48388C12.6301 6.53742 12.5621 6.63261 12.5029 6.64153L11.1191 2.82818C11.1812 2.81926 11.2492 2.73002 11.3113 2.67053Z" fill="#FCDF8F"/>
<path d="M13.6977 2.16785L15.0815 5.97822C15.0007 6.22695 14.8936 6.46627 14.7622 6.69211L13.3813 2.87876C13.5112 2.65355 13.6172 2.41528 13.6977 2.16785V2.16785Z" fill="#CA820B"/>
<path d="M14.7356 6.81992L13.3518 3.00954C13.347 2.98706 13.3469 2.96382 13.3515 2.9413C13.3561 2.91877 13.3653 2.89745 13.3784 2.87866L14.7622 6.69202C14.7491 6.71027 14.74 6.73109 14.7354 6.75312C14.7308 6.77516 14.7309 6.79791 14.7356 6.81992V6.81992Z" fill="#CA820B"/>
<path d="M14.7861 6.87071C14.7745 6.86656 14.764 6.85987 14.7553 6.85113C14.7466 6.84238 14.74 6.8318 14.7359 6.82014L13.3521 3.00977C13.3564 3.02098 13.3631 3.03107 13.3718 3.03931C13.3805 3.04755 13.3909 3.05371 13.4023 3.05736L13.5117 3.35481L13.63 3.67606L13.7512 4.00921L13.8725 4.34831L13.9966 4.69037L14.1179 5.02353L14.2332 5.34477L14.3455 5.64222L14.3958 5.78203L14.449 5.93373L14.5082 6.09138L14.5644 6.24903L14.6235 6.40965L14.6797 6.5673L14.7329 6.71603L14.7861 6.87071Z" fill="#FCDF8F"/>
<path d="M14.7861 6.87067C14.7614 6.82604 14.7434 6.7779 14.7329 6.72789L14.6797 6.57917L14.5644 6.26089L14.3456 5.66598C14.0302 4.7994 13.7158 3.93381 13.4023 3.06921C13.4429 3.08699 13.4857 3.09901 13.5295 3.10491L14.9133 6.91826C14.8689 6.90859 14.8261 6.89256 14.7861 6.87067Z" fill="#FCDF8F"/>
<path d="M9.03179 4.75577L10.4156 8.56912H10.386C10.2382 8.5483 10.1761 8.60482 10.0903 8.73867L8.70654 4.92532C8.77751 4.79147 8.8396 4.73792 8.98744 4.75577H9.03179Z" fill="#CA820B"/>
<path d="M15.3862 3.59262L16.77 7.40597L14.9131 6.90625L13.5293 3.0929L15.3862 3.59262Z" fill="#FCDF8F"/>
<path d="M12.7367 5.85037L14.1205 9.66372C13.8072 9.2718 13.3624 9.00843 12.8697 8.92306C12.458 8.82253 12.0402 8.749 11.619 8.70294C11.2287 8.65535 10.8265 8.61668 10.4155 8.56909L9.03174 4.75574C9.44274 4.80333 9.84487 4.842 10.2352 4.88959C10.6562 4.93684 11.0739 5.01035 11.4859 5.10971C11.9789 5.19429 12.4239 5.45782 12.7367 5.85037V5.85037Z" fill="#CA820B"/>
<path d="M8.72123 4.92224L10.105 8.7356C9.69699 9.72909 9.2919 10.678 8.82472 11.6774L7.44092 7.86405C7.9081 6.86461 8.31319 5.91574 8.72123 4.92224Z" fill="#CA820B"/>
<path d="M8.79835 11.7725L7.41455 7.9592C7.41455 7.9354 7.41455 7.90566 7.44116 7.86401L8.82496 11.6774C8.79539 11.719 8.78948 11.7488 8.79835 11.7725Z" fill="#CA820B"/>
<path d="M16.773 7.40612L15.3892 3.59277C15.9239 3.79349 16.4027 4.12103 16.7848 4.5476C17.1909 5.67197 17.5979 6.79436 18.006 7.91477L18.1656 8.36095C17.7854 7.93361 17.3074 7.60589 16.773 7.40612Z" fill="#FCDF8F"/>
<path d="M12.8433 6.05546L14.2271 9.86881C14.1999 9.79634 14.1642 9.72743 14.1206 9.66357L12.7368 5.85022C12.7804 5.91408 12.8161 5.98299 12.8433 6.05546V6.05546Z" fill="#CA820B"/>
<path d="M8.92254 11.85C8.85453 11.8292 8.81018 11.8084 8.79835 11.7727L7.41455 7.95935C7.41455 7.99505 7.47073 8.01587 7.53874 8.03669C7.9527 9.18188 8.50562 10.7078 8.92254 11.85Z" fill="#FCDF8F"/>
<path d="M7.71303 8.05757L9.09387 11.8709L8.92237 11.8501L7.53857 8.03674L7.71303 8.05757Z" fill="#FCDF8F"/>
<path d="M7.87601 8.0843L9.25981 11.8977L9.09422 11.8768L7.71338 8.06348L7.87601 8.0843Z" fill="#FCDF8F"/>
<path d="M8.16821 8.1141L9.55202 11.9274L9.25634 11.8918L7.87549 8.08435L8.16821 8.1141Z" fill="#FCDF8F"/>
<path d="M18.4084 8.79809C18.3515 8.6425 18.2739 8.4954 18.1777 8.36084C17.7716 7.23844 17.3646 6.11606 16.9565 4.99367L16.7969 4.54749C16.8911 4.68282 16.9676 4.82978 17.0246 4.98474C17.4267 6.12994 17.9796 7.6529 18.4084 8.79809Z" fill="#FCDF8F"/>
<path d="M14.2271 9.86902C14.4134 10.3806 14.1059 10.9993 13.5293 11.4009L12.1455 7.59052C12.7369 7.18599 13.0326 6.56728 12.8433 6.05566C13.2573 7.19194 13.8102 8.72382 14.2271 9.86902Z" fill="#FCDF8F"/>
<path d="M11.383 7.93542L12.7668 11.7488C12.5514 11.8138 12.3322 11.8655 12.1104 11.9035C11.2589 11.9587 10.4051 11.9666 9.55275 11.9273L8.16895 8.1139C9.01943 8.15106 9.8713 8.14113 10.7207 8.08415C10.9443 8.04837 11.1655 7.9987 11.383 7.93542Z" fill="#FCDF8F"/>
<path d="M13.529 11.4007C13.2983 11.5632 13.0396 11.6812 12.7661 11.7487L11.3823 7.93538C11.6552 7.86753 11.9136 7.75064 12.1452 7.59033L12.3078 8.03354L12.4793 8.50649L12.6567 8.99729L12.8371 9.49404L13.0175 9.99376L13.1949 10.4846L13.3664 10.9575L13.529 11.4007Z" fill="#FCDF8F"/>
<path d="M6.93541 9.68766L8.31921 13.501H8.28373C8.14476 13.4832 8.13589 13.5337 8.06788 13.6676L6.68408 9.85424C6.75209 9.72038 6.76096 9.66982 6.89993 9.68766H6.93541Z" fill="#CA820B"/>
<path d="M-0.0279146 12.5461L1.35589 16.3595C1.17848 16.3773 1.11934 16.3803 1.04542 16.5231L-0.338379 12.7127C-0.264458 12.5699 -0.205325 12.564 -0.0279146 12.5461Z" fill="#FCDF8F"/>
<path d="M1.45059 16.3714H1.35597L-0.027832 12.5461H0.0667892L0.542841 12.5967L0.640418 12.8614L0.740949 13.141L0.847396 13.4385L0.953843 13.736L1.06029 14.0334L1.16674 14.3309L1.26727 14.6105L1.36189 14.8752L1.42989 15.0567L1.4979 15.25L1.57182 15.4493L1.64574 15.6516L1.71966 15.8568L1.79063 16.0561L1.86159 16.2494L1.92664 16.4309L1.45059 16.3714Z" fill="#FCDF8F"/>
<path d="M17.0124 4.98486L18.408 8.79821C18.581 9.35796 18.5322 9.96329 18.272 10.4878L16.8882 6.6744C17.1445 6.14837 17.189 5.54309 17.0124 4.98486Z" fill="#CA820B"/>
<path d="M5.24406 4.85095L6.62786 8.6643C5.63732 11.1242 4.59355 13.5425 3.55275 15.9608L2.16895 12.1505C3.20975 9.73216 4.25352 7.31089 5.24406 4.85095Z" fill="#FCDF8F"/>
<path d="M0.764176 17.0078L-0.619629 13.1944C-0.519096 13.0338 -0.424474 12.8761 -0.338725 12.7274L1.04508 16.5378C0.962284 16.6746 0.864709 16.8323 0.764176 17.0078Z" fill="#FCDF8F"/>
<path d="M1.92677 16.413L0.542969 12.5996C0.779516 12.6234 1.01606 12.6383 1.23782 12.6413L2.62163 16.4516C2.39986 16.4606 2.16332 16.4427 1.92677 16.413Z" fill="#FCDF8F"/>
<path d="M3.553 15.9608C3.47935 16.1397 3.34621 16.2874 3.17632 16.3785C3.00644 16.4697 2.81036 16.4987 2.6216 16.4605L1.23779 12.6501C1.42648 12.6871 1.62209 12.6576 1.79171 12.5666C1.96133 12.4756 2.09463 12.3286 2.1692 12.1504C2.58316 13.2926 3.52048 14.7442 3.553 15.9608Z" fill="#FCDF8F"/>
<path d="M6.68395 9.84814L8.06775 13.6615C7.89626 14.1315 7.66858 14.5539 7.49709 15.0328L6.11328 11.2194C6.28478 10.7613 6.51246 10.3181 6.68395 9.84814Z" fill="#CA820B"/>
<path d="M0.76445 17.0079C0.604781 17.2637 0.430327 17.5315 0.255873 17.7992L-1.12793 13.9858C-0.953476 13.7181 -0.779022 13.4504 -0.619353 13.1946L-0.521777 13.4682L-0.41533 13.7657L-0.305924 14.0631L-0.196523 14.3606L-0.0841613 14.6581L0.0222851 14.9555L0.128727 15.253L0.226303 15.5236L0.291354 15.6962L0.356405 15.8806L0.424411 16.071L0.495377 16.2643L0.566342 16.4576L0.634348 16.645L0.699399 16.8295L0.76445 17.0079Z" fill="#FCDF8F"/>
<path d="M0.123031 17.9775C-0.338236 16.7084 -0.798517 15.4373 -1.25781 14.1642C-1.21937 14.1047 -1.17798 14.0392 -1.12772 13.9708L0.256088 17.7842C0.205822 17.8526 0.164427 17.9151 0.123031 17.9775Z" fill="#FCDF8F"/>
<path d="M10.3034 10.1665L11.6872 13.9799C11.1706 13.8084 10.6373 13.6927 10.0964 13.6348C9.50501 13.5605 8.91364 13.5278 8.32228 13.4921L6.93848 9.67871C7.52984 9.71441 8.12121 9.74712 8.71258 9.82149C9.25352 9.87936 9.78678 9.99503 10.3034 10.1665Z" fill="#CA820B"/>
<path d="M0.123145 17.9774C0.0521809 18.0875 -0.00991271 18.1916 -0.0986179 18.3165L-1.48242 14.5032C-1.39372 14.3782 -1.32866 14.2741 -1.2577 14.1641L-1.15421 14.4615L-1.04481 14.759L-0.932449 15.0713L-0.817133 15.3925L-0.698856 15.7108L-0.586499 16.0261L-0.477093 16.3236L-0.373607 16.621L-0.314471 16.7817L-0.252375 16.9512L-0.190279 17.1267L-0.125228 17.3081L-0.0601821 17.4866L0.00486878 17.6621L0.0669644 17.8317L0.123145 17.9774Z" fill="#FCDF8F"/>
<path d="M14.4754 8.81592L15.8592 12.6293C15.7802 12.6582 15.6991 12.681 15.6167 12.6977L14.2329 8.88433C14.3153 8.8677 14.3964 8.84483 14.4754 8.81592V8.81592Z" fill="#CA820B"/>
<path d="M14.5641 9.80353L14.2329 8.8844L14.3867 9.31273L14.5523 9.76486L14.7237 10.2378L14.8982 10.7167L15.0727 11.1986L15.2442 11.6686L15.4068 12.1237L15.5635 12.552V12.5698V12.5877V12.6055V12.6234V12.6442V12.6621V12.6799V12.6978C15.2481 11.734 14.915 10.7693 14.5641 9.80353Z" fill="#FCDF8F"/>
<path d="M16.8761 6.67444L18.2599 10.4878C18.0372 11.0405 17.6804 11.5283 17.222 11.9066C16.8075 12.2171 16.3477 12.4609 15.8589 12.6295L14.4751 8.81611C14.9639 8.64756 15.4237 8.40372 15.8382 8.09329C16.2966 7.71499 16.6534 7.22719 16.8761 6.67444V6.67444Z" fill="#CA820B"/>
<path d="M15.6283 12.7065C15.6258 12.6948 15.6258 12.6826 15.6283 12.6708L15.6135 12.6322L15.5869 12.5608L14.2563 8.89319C14.4633 9.00027 14.6792 9.06571 14.8861 9.1728L15.0429 9.6041L15.2084 10.0622L15.3799 10.5381L15.5574 11.023L15.7318 11.5048L15.9033 11.9808L16.0718 12.4388L16.2286 12.8701V12.885V12.8999V12.9148V12.9296C16.0423 12.8791 15.8353 12.8136 15.6283 12.7065Z" fill="#FCDF8F"/>
<path d="M16.2583 12.9864L16.2199 12.8763C15.7704 11.6448 15.3229 10.4124 14.8774 9.17896H14.8981C15.3594 10.4501 15.8197 11.7212 16.279 12.9923L16.2583 12.9864Z" fill="#FCDF8F"/>
<path d="M11.4386 10.8834L12.8225 14.6967C12.5109 14.3663 12.1198 14.1225 11.687 13.9888L10.3032 10.1665C10.7369 10.3027 11.1281 10.5497 11.4386 10.8834V10.8834Z" fill="#CA820B"/>
<path d="M6.11362 11.2192L7.49742 15.0326C7.184 15.6989 6.93266 16.3592 6.61037 17.0731L5.22656 13.2598C5.54886 12.5459 5.80019 11.8855 6.11362 11.2192Z" fill="#CA820B"/>
<path d="M5.34182 13.2958L6.72563 17.1092C6.70184 17.0898 6.67318 17.0775 6.64283 17.0735H6.61622L5.23242 13.2601H5.25903C5.28938 13.2641 5.31804 13.2765 5.34182 13.2958V13.2958Z" fill="#FCDF8F"/>
<path d="M11.6074 11.1539L12.9912 14.9642C12.955 14.8671 12.9031 14.7766 12.8374 14.6965L11.4536 10.8832C11.5199 10.9639 11.5719 11.0554 11.6074 11.1539V11.1539Z" fill="#CA820B"/>
<path d="M2.53297 14.9255L3.91677 18.7389C2.59802 18.5961 1.27927 18.4414 -0.0986177 18.3105L-1.48242 14.4972C-0.104534 14.6429 1.21422 14.7887 2.53297 14.9255Z" fill="#CA820B"/>
<path d="M2.53258 14.9258L3.91638 18.7391C3.91638 18.8313 3.84246 18.8819 3.83655 18.9295L2.44092 15.1221C2.45866 15.0745 2.52075 15.0239 2.53258 14.9258Z" fill="#FCDF8F"/>
<path d="M17.4439 14.2325C17.224 13.6821 16.7998 13.2394 16.2612 12.998C15.8039 11.7249 15.3436 10.4538 14.8804 9.18469C15.4119 9.43034 15.8291 9.87238 16.0454 10.4191C16.4741 11.5613 17.027 13.0873 17.4439 14.2325Z" fill="#FCDF8F"/>
<path d="M8.22768 13.4682L9.61148 17.2815C8.64656 17.2976 7.68183 17.2399 6.7256 17.109L5.3418 13.2957C6.29803 13.4265 7.26276 13.4842 8.22768 13.4682V13.4682Z" fill="#FCDF8F"/>
<path d="M16.0605 10.4193L17.4444 14.2327C17.465 14.2951 17.4857 14.3576 17.5035 14.426L16.1197 10.6127C16.1035 10.5472 16.0838 10.4826 16.0605 10.4193Z" fill="#CA820B"/>
<path d="M10.2411 13.141L11.622 16.9543C10.9744 17.175 10.2951 17.2866 9.61134 17.2845L8.22754 13.4712C8.9122 13.4729 9.59248 13.3613 10.2411 13.141V13.141Z" fill="#FCDF8F"/>
<path d="M11.6073 11.1538L12.9911 14.9642C13.2394 15.6513 12.6481 16.6121 11.6368 16.9512L10.2412 13.1408C11.2495 12.7987 11.8409 11.838 11.6073 11.1538Z" fill="#FCDF8F"/>
<path d="M6.03663 15.2737L7.42043 19.0841C6.96212 19.0395 6.50086 18.9949 5.98341 18.9532L4.59961 15.1399C5.11706 15.1815 5.57832 15.2232 6.03663 15.2737Z" fill="#CA820B"/>
<path d="M6.09871 15.3153L7.48252 19.1287C7.48252 19.1108 7.45886 19.0989 7.42042 19.0841L6.03662 15.2737C6.07506 15.2856 6.0928 15.2975 6.09871 15.3153Z" fill="#CA820B"/>
<path d="M6.09885 15.3153L7.48266 19.1287C7.48266 19.1614 7.46491 19.203 7.459 19.2625L6.0752 15.4492C6.08111 15.3897 6.11068 15.348 6.09885 15.3153Z" fill="#FCDF8F"/>
<path d="M2.44117 15.1218L3.82497 18.9352C3.44354 19.6996 3.11533 20.5028 2.78712 21.3148L1.40332 17.5015C1.74336 16.6924 2.07157 15.8863 2.44117 15.1218Z" fill="#FCDF8F"/>
<path d="M7.25197 19.685L5.86816 15.8716C5.93321 15.7259 6.00418 15.5742 6.07514 15.4403L7.45895 19.2537C7.38798 19.4054 7.31702 19.5481 7.25197 19.685Z" fill="#FCDF8F"/>
<path d="M2.75441 21.4191L1.37061 17.6027C1.37061 17.576 1.3706 17.5403 1.41496 17.4927L2.79876 21.306C2.76328 21.3566 2.73667 21.3923 2.75441 21.4191Z" fill="#FCDF8F"/>
<path d="M2.75441 21.4191L1.37061 17.6028C1.37061 17.6296 1.42383 17.6504 1.50958 17.6653L2.89338 21.4786C2.80763 21.4697 2.76623 21.4459 2.75441 21.4191Z" fill="#CA820B"/>
<path d="M8.44966 15.4939L9.83346 19.3072C9.76229 19.2893 9.68716 19.2963 9.62049 19.3271C9.55383 19.3579 9.49961 19.4107 9.46681 19.4768L8.08301 15.6634C8.11581 15.5974 8.17003 15.5446 8.23669 15.5138C8.30336 15.4829 8.37849 15.4759 8.44966 15.4939V15.4939Z" fill="#CA820B"/>
<path d="M4.59916 15.1399L5.98296 18.9532C5.81738 19.3786 5.5897 19.8099 5.42412 20.2323C5.25853 20.6547 5.03086 21.0919 4.86232 21.5173L3.47852 17.7039C3.64706 17.2786 3.87178 16.8473 4.04032 16.4189C4.20886 15.9906 4.43358 15.5653 4.59916 15.1399Z" fill="#CA820B"/>
<path d="M3.26613 17.8229L4.64993 21.6362L4.41043 21.6035C3.90776 21.5411 3.39919 21.5113 2.89357 21.4816L1.50977 17.6682C2.01539 17.698 2.52396 17.7277 3.02662 17.7902L3.26613 17.8229Z" fill="#CA820B"/>
<path d="M3.47901 17.7037L4.86281 21.5171C4.79776 21.6093 4.79185 21.6539 4.64992 21.6361L3.26611 17.8227C3.40804 17.8406 3.41691 17.7959 3.47901 17.7037Z" fill="#CA820B"/>
<path d="M7.25179 19.6851C6.9561 20.3186 6.68407 20.973 6.41795 21.6274L5.03711 17.8141C5.30323 17.1597 5.56934 16.5053 5.86798 15.8717L5.99808 16.2346L6.13706 16.6183L6.28194 17.0169L6.42978 17.4244L6.57763 17.8289L6.72251 18.2305L6.86148 18.6142L6.99454 18.9771L7.02411 19.0604L7.05663 19.1467L7.08916 19.2389L7.12169 19.3311L7.15421 19.4233L7.18969 19.5125L7.21926 19.6018L7.25179 19.6851Z" fill="#FCDF8F"/>
<path d="M6.37697 21.7463L4.99316 17.9359C4.99316 17.9062 4.99316 17.8734 5.03751 17.8229L6.41836 21.6362C6.38584 21.6868 6.36514 21.7195 6.37697 21.7463Z" fill="#FCDF8F"/>
<path d="M16.1192 10.6124L17.503 14.4258C17.5444 14.9674 17.4424 15.5103 17.2073 15.9993C16.9104 16.6783 16.4822 17.291 15.9477 17.8019C15.2366 18.4475 14.3597 18.8793 13.4166 19.0482C12.2388 19.2715 11.0393 19.3584 9.84181 19.307L8.45801 15.4936C9.6554 15.5446 10.8547 15.4587 12.0328 15.2378C12.9761 15.0678 13.853 14.635 14.5639 13.9885C15.0984 13.4777 15.5266 12.8649 15.8235 12.186C16.0586 11.697 16.1606 11.154 16.1192 10.6124V10.6124Z" fill="#CA820B"/>
<path d="M6.37696 21.7463L4.99316 17.9359C4.99316 17.9627 5.04343 17.9805 5.12918 17.9954L6.51298 21.8088C6.42723 21.7939 6.38584 21.7671 6.37696 21.7463Z" fill="#CA820B"/>
<path d="M6.73743 18.159L8.12123 21.9723C7.60379 21.9307 7.03016 21.8504 6.51271 21.8087L5.12891 17.9954C5.64931 18.037 6.21998 18.1173 6.73743 18.159Z" fill="#CA820B"/>
<path d="M8.08267 15.6635L9.46647 19.4768C9.14417 20.2353 8.81301 21.0414 8.49072 21.7999C8.42567 21.9546 8.40792 22.0141 8.24234 21.9933L8.12111 21.9724L6.7373 18.1591C6.77712 18.1692 6.81765 18.1761 6.85854 18.1799C7.02412 18.2007 7.04186 18.1442 7.10691 17.9866C7.42921 17.2281 7.76333 16.413 8.08267 15.6635Z" fill="#CA820B"/>
<path d="M24.7534 7.43585C24.7534 7.40908 24.7327 7.37041 24.7209 7.34364L24.1768 5.85637C23.9068 5.11472 23.6387 4.37407 23.3726 3.6344L23.4524 3.84857L24.8362 7.65894C24.8096 7.57863 24.783 7.50724 24.7534 7.43585Z" fill="#FFD000"/>
<path d="M23.4526 3.83667L24.8364 7.64705C25.1469 8.50759 25.3283 9.40984 25.3746 10.3241L23.9908 6.51078C23.9442 5.5975 23.7628 4.69626 23.4526 3.83667Z" fill="#FCDF8F"/>
<path d="M-6.72509 19.334L-8.10889 15.5206C-7.86199 16.1968 -7.5375 16.8417 -7.142 17.4422C-5.7789 19.5095 -3.59379 21.0741 -0.820274 21.9367C0.12109 22.2303 1.08701 22.4374 2.0656 22.5554C4.16441 22.8004 6.28839 22.7141 8.36072 22.2996C11.5895 21.6714 14.6436 20.3437 17.3111 18.4089C19.919 16.4992 21.9031 14.1196 23.0119 11.5675C23.7259 9.9818 24.061 8.25005 23.9906 6.51074L25.3744 10.3241C25.4468 12.0683 25.1116 13.8054 24.3957 15.3957C23.2869 17.9419 21.3028 20.3215 18.6949 22.2371C16.0274 24.172 12.9733 25.4996 9.74452 26.1278C7.67219 26.5423 5.54822 26.6286 3.44941 26.3836C2.471 26.2645 1.50517 26.0575 0.563526 25.7649C-2.19816 24.9023 -4.39509 23.3377 -5.7582 21.2704C-6.15472 20.6652 -6.47924 20.0153 -6.72509 19.334V19.334Z" fill="#FCDF8F"/>
<path d="M25.6822 0.350667C27.8939 3.69107 28.1334 7.87921 26.3416 11.993C25.0051 15.0627 22.613 17.9272 19.464 20.2265C16.2396 22.5573 12.55 24.1549 8.65082 24.9084C6.14261 25.4046 3.5729 25.5049 1.034 25.2059C0.52838 25.1434 0.02867 25.0631 -0.462166 24.9649C-1.13502 24.8325 -1.80029 24.6637 -2.45507 24.4593C-5.79335 23.4152 -8.45746 21.5323 -10.1074 19.0397C-10.9306 17.7903 -11.4986 16.3887 -11.7783 14.9165C-12.058 13.4443 -12.0438 11.9308 -11.7366 10.4641C-11.1452 7.36462 -9.41548 4.29192 -6.77798 1.62972C-3.98579 -1.12789 -0.613915 -3.21984 3.089 -4.49187C6.74015 -5.79908 10.6379 -6.25871 14.4906 -5.83636C19.4581 -5.21171 23.4676 -2.99568 25.6822 0.350667ZM17.3114 18.415C19.9193 16.5054 21.9034 14.1257 23.0122 11.5736C23.7262 9.98793 24.0614 8.25618 23.9909 6.51687C23.9081 4.87832 23.3871 3.29264 22.4829 1.92717C21.5234 0.502032 20.2336 -0.666863 18.7248 -1.47867C17.0338 -2.39122 15.1852 -2.97072 13.2783 -3.18605C10.0808 -3.54041 6.84511 -3.15794 3.81638 -2.06763C0.748608 -1.01598 -2.04532 0.715134 -4.35928 2.998C-6.54734 5.20511 -7.97845 7.75726 -8.4752 10.3302C-8.73085 11.5452 -8.74516 12.7991 -8.51732 14.0196C-8.28947 15.2402 -7.82397 16.4034 -7.14758 17.4423C-5.78448 19.5096 -3.59937 21.0742 -0.825856 21.9369C0.115508 22.2305 1.08143 22.4376 2.06002 22.5556C4.15884 22.8005 6.28281 22.7142 8.35514 22.2997C11.5839 21.6715 14.638 20.3439 17.3055 18.4091" fill="#FFD000"/>
<path d="M22.4824 1.91198C23.3866 3.27744 23.9075 4.86312 23.9904 6.50168C24.0604 8.24444 23.7232 9.97943 23.0058 11.5673C21.8969 14.1195 19.9129 16.4991 17.305 18.4087C14.6375 20.3436 11.5834 21.6712 8.35461 22.2994C6.28228 22.7139 4.15831 22.8002 2.0595 22.5552C1.08091 22.4373 0.114984 22.2302 -0.82638 21.9365C-3.5999 21.0739 -5.785 19.5093 -7.1481 17.442C-7.82449 16.4031 -8.29 15.2399 -8.51784 14.0193C-8.74569 12.7987 -8.73137 11.5449 -8.47573 10.3299C-7.97898 7.75693 -6.54787 5.20478 -4.3598 2.99768C-2.04732 0.709442 0.746721 -1.02682 3.81586 -2.08282C6.84459 -3.17313 10.0803 -3.55561 13.2778 -3.20125C15.1847 -2.98591 17.0333 -2.40642 18.7243 -1.49386C20.2331 -0.682055 21.5229 0.486837 22.4824 1.91198Z" fill="#EBA500"/>
<path d="M3.81586 -2.08282C6.84459 -3.17313 10.0803 -3.55561 13.2778 -3.20125C5.81702 -2.69301 -3.14326 0.599001 -6.06118 8.29784C-8.97911 15.9967 -3.86151 20.5746 -3.86151 20.5746C-5.21881 19.7396 -6.3311 18.6811 -7.1481 17.442C-7.82449 16.4031 -8.29 15.2399 -8.51784 14.0193C-8.74569 12.7987 -8.73137 11.5449 -8.47573 10.3299C-7.97898 7.75694 -6.54787 5.20479 -4.35981 2.99768C-2.04732 0.709443 0.746719 -1.02682 3.81586 -2.08282Z" fill="#DF7900"/>
<path d="M3.5498 2.22564L3.59002 2.19763C3.56837 2.21941 3.5529 2.22875 3.5498 2.22564Z" fill="#CA820B"/>
<path d="M3.59717 2.19758L3.77458 2.08752C3.75388 2.12917 3.73614 2.16784 3.7184 2.21245L3.59717 2.19758Z" fill="#CA820B"/>
<path d="M26.8646 2.68835L28.2484 6.5017C29.2833 9.35726 29.1177 12.5995 27.7251 15.8001C26.3886 18.8698 23.9965 21.7343 20.8474 24.0336C17.6219 26.3673 13.9301 27.9669 10.0284 28.7215C7.52015 29.2176 4.95044 29.318 2.41153 29.0189C1.90591 28.9565 1.40621 28.8761 0.915372 28.778C0.242435 28.646 -0.422851 28.4771 -1.07754 28.2723C-4.41581 27.2283 -7.07993 25.3454 -8.72985 22.8527C-9.21576 22.1217 -9.61283 21.3348 -9.91258 20.5088L-11.2964 16.7103C-10.9966 17.5363 -10.5996 18.3233 -10.1136 19.0542C-8.46373 21.5469 -5.79962 23.4298 -2.46134 24.4738C-1.80656 24.6783 -1.14128 24.8471 -0.468428 24.9795C0.0224082 25.0777 0.522114 25.158 1.02773 25.2204C3.56664 25.5195 6.13634 25.4192 8.64456 24.923C12.5463 24.1685 16.2381 22.5688 19.4636 20.2351C22.6127 17.9358 25.0048 15.0713 26.3413 12.0016C27.7339 8.78615 27.8995 5.54391 26.8646 2.68835Z" fill="#E48203"/>
<path d="M14.4252 -5.83271C10.5933 -6.24378 6.71853 -5.78119 3.08868 -4.4793C-0.614236 -3.20726 -3.98611 -1.11531 -6.7783 1.64229C-9.4158 4.3045 -11.1396 7.37719 -11.7369 10.4767C-12.0442 11.942 -12.0589 13.4542 -11.7802 14.9254C-11.5015 16.3965 -10.935 17.7973 -10.1136 19.0463C-8.4637 21.5389 -5.79958 23.4218 -2.46131 24.4659C-1.80653 24.6704 -1.14125 24.8392 -0.468397 24.9716C-1.16753 24.8362 -1.85855 24.6614 -2.53819 24.448C-5.86168 23.4069 -8.51101 21.5241 -10.1521 19.0344C-10.9676 17.7828 -11.5289 16.3812 -11.8034 14.9104C-12.078 13.4396 -12.0604 11.9287 -11.7517 10.4648C-11.1603 7.36827 -9.43058 4.2926 -6.80195 1.63039C-4.01805 -1.12097 -0.657967 -3.21148 3.0325 -4.48822C6.67957 -5.79976 10.5754 -6.25952 14.4252 -5.83271V-5.83271Z" fill="#FFD000"/>
<path d="M-9.94823 20.5298L-11.332 16.7104C-11.036 17.5264 -10.6449 18.3042 -10.167 19.0276C-8.52599 21.5173 -5.87666 23.4002 -2.55317 24.4413C-1.87353 24.6546 -1.18251 24.8294 -0.483378 24.9648L0.900422 28.7781C0.196306 28.6433 -0.49966 28.4685 -1.18415 28.2546C-4.50764 27.2135 -7.15697 25.3306 -8.79802 22.841C-9.27033 22.1187 -9.65639 21.3429 -9.94823 20.5298V20.5298Z" fill="#E48907"/>
<mask id="mask2_3485_43186" style="mask-type:alpha" maskUnits="userSpaceOnUse" x="-12" y="-6" width="40" height="32">
<path d="M25.6837 0.351275C27.8954 3.69168 28.1349 7.87982 26.3431 11.9936C25.0066 15.0633 22.6145 17.9278 19.4655 20.2271C16.2411 22.5579 12.5515 24.1555 8.65229 24.909C6.14407 25.4052 3.57437 25.5055 1.03546 25.2065C0.529845 25.144 0.0301349 25.0637 -0.460701 24.9655C-1.13356 24.8331 -1.79883 24.6643 -2.45361 24.4599C-5.79188 23.4158 -8.456 21.5329 -10.1059 19.0403C-10.9291 17.7909 -11.4971 16.3894 -11.7768 14.9171C-12.0565 13.4449 -12.0423 11.9314 -11.7351 10.4647C-11.1438 7.36523 -9.41401 4.29253 -6.77651 1.63033C-3.98432 -1.12728 -0.612451 -3.21923 3.09047 -4.49126C6.74162 -5.79847 10.6394 -6.2581 14.492 -5.83575C19.4595 -5.2111 23.469 -2.99507 25.6837 0.351275ZM17.3129 18.4156C19.9208 16.506 21.9049 14.1263 23.0137 11.5742C23.7277 9.98853 24.0628 8.25678 23.9924 6.51748C23.9095 4.87892 23.3885 3.29325 22.4844 1.92778C21.5248 0.502641 20.235 -0.666254 18.7262 -1.47806C17.0353 -2.39062 15.1867 -2.97011 13.2797 -3.18544C10.0823 -3.5398 6.84658 -3.15733 3.81785 -2.06702C0.750073 -1.01537 -2.04385 0.715743 -4.35782 2.99861C-6.54588 5.20571 -7.97699 7.75786 -8.47374 10.3308C-8.72939 11.5458 -8.7437 12.7997 -8.51585 14.0202C-8.28801 15.2408 -7.8225 16.404 -7.14612 17.4429C-5.78301 19.5102 -3.59791 21.0748 -0.824391 21.9375C0.116972 22.2311 1.0829 22.4382 2.06149 22.5562C4.1603 22.8011 6.28427 22.7148 8.3566 22.3004C11.5853 21.6721 14.6395 20.3445 17.307 18.4097" fill="#FADD23"/>
</mask>
<g mask="url(#mask2_3485_43186)">
<rect x="-21.9194" y="15.5514" width="61.8934" height="2.6396" transform="rotate(-30 -21.9194 15.5514)" fill="#FFF3A5"/>
<rect x="-11.0874" y="24.0292" width="47.5128" height="1.3198" transform="rotate(-30 -11.0874 24.0292)" fill="#FFF3A5"/>
<rect x="-16.0879" y="16.2483" width="47.5128" height="1.3198" transform="rotate(-30 -16.0879 16.2483)" fill="#FFF3A5"/>
</g>
</g>
<path d="M16.1518 11.3978C16.1932 11.9394 16.0912 12.4823 15.8561 12.9713C15.5592 13.6503 15.1311 14.263 14.5965 14.7739C13.8856 15.4204 13.0087 15.8532 12.0654 16.0232C10.8873 16.2441 9.68802 16.3299 8.49063 16.279C8.41946 16.2611 8.34433 16.2681 8.27766 16.2989C8.211 16.3298 8.15678 16.3825 8.12398 16.4486C7.80168 17.21 7.47051 18.0132 7.14822 18.7717C7.08317 18.9293 7.06543 18.9858 6.89985 18.965C6.85896 18.9612 6.81843 18.9543 6.77861 18.9442C6.26117 18.9026 5.6905 18.8222 5.17009 18.7806C5.00155 18.7509 5.00747 18.7092 5.07843 18.6081C5.40368 17.805 5.73485 17.0018 6.11628 16.2285C6.11628 16.1392 6.1902 16.0857 6.07784 16.053C5.61953 16.0054 5.15827 15.9607 4.64082 15.9191C4.47524 16.3445 4.24756 16.7758 4.08198 17.1981C3.91639 17.6205 3.68871 18.0578 3.52017 18.4831C3.45808 18.5754 3.44921 18.62 3.30728 18.6021L3.06778 18.5694C2.56511 18.5069 2.05654 18.4772 1.55092 18.4475C1.38238 18.4177 1.38533 18.3731 1.4563 18.2749C1.78451 17.4718 2.11272 16.6657 2.49415 15.8953C2.49415 15.8477 2.56216 15.7971 2.57398 15.7049C1.25523 15.5622 -0.0635183 15.4075 -1.44141 15.2766C-1.30243 15.0833 -1.22555 14.9375 -1.08658 14.7442C-0.790898 14.3069 -0.518869 13.8696 -0.297106 13.4859C-0.223185 13.3432 -0.164051 13.3372 0.0133592 13.3194H0.10798C0.500332 13.3711 0.89513 13.4018 1.29072 13.4116C1.4794 13.4486 1.675 13.4191 1.84463 13.3281C2.01425 13.2371 2.14755 13.0901 2.22212 12.9118C3.26293 10.4935 4.29191 8.07228 5.29724 5.61234C5.45986 5.23458 5.21445 4.84789 4.70587 4.76162C4.5462 4.73485 4.38357 4.71106 4.22686 4.69321C3.87499 4.64859 3.532 4.62182 3.21562 4.5891C3.19404 4.59211 3.17215 4.59211 3.15057 4.5891C3.0796 4.5891 3.05891 4.54151 3.11509 4.46417C3.33389 3.97932 3.55566 3.46175 3.77446 2.9769C4.36583 3.03937 4.9572 3.06911 5.54857 3.1405C6.13994 3.21189 6.8141 3.24461 7.4439 3.31897C7.50496 3.33332 7.56914 3.32418 7.62385 3.29336C7.67856 3.26254 7.71984 3.21227 7.73959 3.1524C8.07075 2.3463 8.39305 1.5878 8.72126 0.772774C8.79223 0.635945 8.85432 0.582404 9.01694 0.603225L9.31263 0.641893C9.77981 0.69841 10.2204 0.734104 10.6994 0.760875C10.8709 0.790621 10.865 0.838214 10.794 0.933399C10.4717 1.6919 10.1465 2.498 9.82416 3.25651C9.81342 3.32521 9.78486 3.38985 9.74137 3.44391C10.2026 3.4915 10.7201 3.53314 11.1784 3.58073C11.2375 3.58073 11.3055 3.47663 11.3706 3.42308C11.619 2.81033 11.8614 2.23327 12.166 1.62052L12.4084 1.04941C12.4084 1.0315 12.4124 1.01382 12.4202 0.997688C12.4279 0.981556 12.4391 0.967387 12.4531 0.956236C12.467 0.945084 12.4832 0.937239 12.5006 0.933285C12.518 0.929331 12.536 0.92937 12.5533 0.933399C12.6539 0.951246 12.716 0.957195 12.7751 0.966119C13.2896 1.02858 13.81 1.06428 14.3747 1.13269C14.2275 1.74696 14.0195 2.34485 13.7538 2.91741C13.6681 3.17811 13.5541 3.4285 13.4138 3.66402C13.3398 3.8068 13.3931 3.84844 13.5646 3.87819L15.4244 4.37791C15.9592 4.57862 16.438 4.90617 16.82 5.33273C17.2665 5.97226 17.237 6.70102 16.9117 7.45952C16.689 8.01227 16.3322 8.50008 15.8739 8.87838C15.4594 9.1888 14.9996 9.43264 14.5108 9.60119C14.4318 9.6301 14.3507 9.65297 14.2683 9.6696C14.4871 9.78561 14.7118 9.85403 14.9306 9.96706C15.2258 10.1012 15.4881 10.2988 15.6991 10.546C15.9101 10.7933 16.0646 11.084 16.1518 11.3978ZM10.2736 13.9262C11.4238 13.5395 12.03 12.3467 11.4711 11.6715C11.1596 11.3411 10.7685 11.0972 10.3357 10.9635C9.81911 10.792 9.28585 10.6764 8.74492 10.6185C8.15355 10.5441 7.56218 10.5114 6.97081 10.4757H6.93533C6.79635 10.4579 6.78748 10.5084 6.71948 10.6423C6.54798 11.1123 6.3203 11.5346 6.14881 12.0135C5.83538 12.6798 5.58405 13.3402 5.26175 14.0541H5.28837C5.31871 14.058 5.34737 14.0704 5.37116 14.0898C6.32739 14.2206 7.29212 14.2783 8.25703 14.2623C8.94169 14.264 9.62197 14.1525 10.2706 13.9321L10.2736 13.9262ZM7.47051 8.65826C7.40251 8.75642 7.47051 8.79509 7.56809 8.83078L7.74255 8.85161L7.90517 8.87243L8.20085 8.90812C9.0515 8.94232 9.90337 8.92941 10.7526 8.86945C10.9744 8.83148 11.1936 8.77982 11.409 8.71478C12.5504 8.41732 13.2571 7.35542 12.7633 6.6326C12.4505 6.24006 12.0055 5.97653 11.5125 5.89195C11.1005 5.79259 10.6828 5.71908 10.2618 5.67183C9.87147 5.62424 9.46934 5.58557 9.05834 5.53798H9.02877C8.88093 5.52013 8.81883 5.57367 8.74787 5.70752C8.33983 6.70102 7.93474 7.64989 7.46756 8.64934" fill="#DF7900"/>
<path d="M16.1196 10.6125C16.161 11.1541 16.059 11.6971 15.8239 12.1861C15.527 12.865 15.0988 13.4778 14.5643 13.9886C13.8534 14.6351 12.9765 15.0679 12.0332 15.2379C10.8551 15.4588 9.65579 15.5447 8.4584 15.4937C8.38723 15.4758 8.3121 15.4828 8.24544 15.5136C8.17877 15.5445 8.12455 15.5973 8.09175 15.6633C7.76946 16.4248 7.43829 17.2279 7.11599 17.9864C7.05094 18.144 7.0332 18.2006 6.86762 18.1797C6.82674 18.1759 6.7862 18.169 6.74639 18.1589C6.22894 18.1173 5.65827 18.037 5.13786 17.9953C4.96932 17.9656 4.97524 17.9239 5.0462 17.8228C5.37146 17.0197 5.70262 16.2166 6.08406 15.4432C6.08406 15.3539 6.15798 15.3004 6.04562 15.2677C5.58731 15.2201 5.12604 15.1755 4.60859 15.1338C4.44301 15.5592 4.21533 15.9905 4.04975 16.4129C3.88417 16.8353 3.65649 17.2725 3.48795 17.6979C3.42585 17.7901 3.41699 17.8347 3.27506 17.8168L3.03555 17.7841C2.53289 17.7217 2.02431 17.6919 1.51869 17.6622C1.35015 17.6324 1.35311 17.5878 1.42407 17.4897C1.75228 16.6865 2.08049 15.8804 2.46193 15.11C2.46193 15.0624 2.52993 15.0119 2.54176 14.9197C1.22301 14.7769 -0.0957448 14.6222 -1.47363 14.4913C-1.33466 14.298 -1.25778 14.1522 -1.11881 13.9589C-0.823124 13.5216 -0.551095 13.0844 -0.329332 12.7007C-0.255411 12.5579 -0.196278 12.5519 -0.0188673 12.5341H0.0757537C0.468106 12.5858 0.862903 12.6166 1.25849 12.6263C1.44718 12.6633 1.64278 12.6338 1.8124 12.5428C1.98203 12.4518 2.11533 12.3048 2.18989 12.1266C3.2307 9.70827 4.25969 7.287 5.26501 4.82706C5.42764 4.4493 5.18222 4.06261 4.67364 3.97635C4.51397 3.94958 4.35134 3.92578 4.19463 3.90793C3.84277 3.86331 3.49977 3.83654 3.18339 3.80382C3.16181 3.80684 3.13992 3.80684 3.11834 3.80382C3.04738 3.80382 3.02668 3.75623 3.08286 3.67889C3.30167 3.19404 3.52343 2.67647 3.74224 2.19163C4.3336 2.25409 4.92497 2.28384 5.51634 2.35522C6.10771 2.42661 6.78187 2.45933 7.41168 2.5337C7.47274 2.54804 7.53692 2.5389 7.59162 2.50808C7.64633 2.47726 7.68761 2.42699 7.70736 2.36712C8.03853 1.56102 8.36083 0.802518 8.68903 -0.0125047C8.76 -0.149333 8.82209 -0.202875 8.98472 -0.182053L9.2804 -0.143385C9.74758 -0.0868687 10.1882 -0.0511739 10.6672 -0.0244031C10.8387 0.00534226 10.8327 0.0529354 10.7618 0.14812C10.4395 0.906627 10.1142 1.71272 9.79193 2.47123C9.78119 2.53993 9.75263 2.60457 9.70914 2.65863C10.1704 2.70622 10.6879 2.74786 11.1462 2.79546C11.2053 2.79546 11.2733 2.69135 11.3384 2.63781C11.5867 2.02505 11.8292 1.44799 12.1338 0.835237L12.3762 0.264127C12.3762 0.24622 12.3802 0.228542 12.3879 0.21241C12.3957 0.196278 12.4069 0.182109 12.4208 0.170957C12.4348 0.159806 12.451 0.151961 12.4684 0.148007C12.4857 0.144053 12.5038 0.144091 12.5211 0.14812C12.6216 0.165968 12.6837 0.171917 12.7429 0.18084C13.2574 0.243306 13.7778 0.278999 14.3425 0.347414C14.1953 0.96168 13.9873 1.55957 13.7216 2.13213C13.6359 2.39284 13.5219 2.64322 13.3815 2.87874C13.3076 3.02152 13.3608 3.06316 13.5323 3.09291L15.3922 3.59263C15.927 3.79335 16.4057 4.12089 16.7878 4.54746C17.2343 5.18698 17.2047 5.91574 16.8795 6.67425C16.6568 7.227 16.3 7.7148 15.8416 8.0931C15.4272 8.40352 14.9673 8.64737 14.4785 8.81591C14.3995 8.84482 14.3185 8.86769 14.2361 8.88433C14.4549 9.00033 14.6796 9.06875 14.8984 9.18178C15.1936 9.31592 15.4559 9.51356 15.6669 9.76077C15.8779 10.008 16.0324 10.2987 16.1196 10.6125ZM10.2414 13.1409C11.3916 12.7542 11.9977 11.5614 11.4389 10.8862C11.1273 10.5558 10.7362 10.3119 10.3035 10.1782C9.78689 10.0067 9.25362 9.89108 8.71269 9.8332C8.12132 9.75884 7.52995 9.72612 6.93858 9.69042H6.9031C6.76413 9.67258 6.75526 9.72315 6.68725 9.857C6.51575 10.327 6.28808 10.7494 6.11658 11.2283C5.80315 11.8946 5.55182 12.5549 5.22953 13.2688H5.25614C5.28649 13.2728 5.31514 13.2851 5.33893 13.3045C6.29517 13.4354 7.2599 13.493 8.22481 13.477C8.90946 13.4787 9.58974 13.3672 10.2384 13.1468L10.2414 13.1409ZM7.43829 7.87298C7.37028 7.97114 7.43829 8.00981 7.53586 8.04551L7.71032 8.06633L7.87294 8.08715L8.16863 8.12285C9.01927 8.15704 9.87115 8.14413 10.7204 8.08418C10.9421 8.0462 11.1614 7.99454 11.3768 7.9295C12.5181 7.63205 13.2248 6.57014 12.731 5.84733C12.4183 5.45478 11.9733 5.19125 11.4803 5.10667C11.0683 5.00732 10.6506 4.9338 10.2295 4.88655C9.83924 4.83896 9.43711 4.80029 9.02611 4.7527H8.99654C8.8487 4.73485 8.78661 4.78839 8.71564 4.92225C8.3076 5.91574 7.90251 6.86462 7.43533 7.86406" fill="#FFE12A"/>
<path d="M16.1196 10.6125C16.161 11.1541 16.059 11.6971 15.8239 12.1861C15.527 12.865 15.0988 13.4778 14.5643 13.9886C13.8534 14.6351 12.9765 15.0679 12.0332 15.2379C10.8551 15.4588 9.65579 15.5447 8.4584 15.4937C8.38723 15.4758 8.3121 15.4828 8.24544 15.5136C8.17877 15.5445 8.12455 15.5973 8.09175 15.6633C7.76946 16.4248 7.43829 17.2279 7.11599 17.9864C7.05094 18.144 7.0332 18.2006 6.86762 18.1797C6.82674 18.1759 6.7862 18.169 6.74639 18.1589C6.22894 18.1173 5.65827 18.037 5.13786 17.9953C4.96932 17.9656 4.97524 17.9239 5.0462 17.8228C5.37146 17.0197 5.70262 16.2166 6.08406 15.4432C6.08406 15.3539 6.15798 15.3004 6.04562 15.2677C5.58731 15.2201 5.12604 15.1755 4.60859 15.1338C4.44301 15.5592 4.21533 15.9905 4.04975 16.4129C3.88417 16.8353 3.65649 17.2725 3.48795 17.6979C3.42585 17.7901 3.41699 17.8347 3.27506 17.8168L3.03555 17.7841C2.53289 17.7217 2.02431 17.6919 1.51869 17.6622C1.35015 17.6324 1.35311 17.5878 1.42407 17.4897C1.75228 16.6865 2.08049 15.8804 2.46193 15.11C2.46193 15.0624 2.52993 15.0119 2.54176 14.9197C1.22301 14.7769 -0.0957448 14.6222 -1.47363 14.4913C-1.33466 14.298 -1.25778 14.1522 -1.11881 13.9589C-0.823124 13.5216 -0.551095 13.0844 -0.329332 12.7007C-0.255411 12.5579 -0.196278 12.5519 -0.0188673 12.5341H0.0757537C0.468106 12.5858 0.862903 12.6166 1.25849 12.6263C1.44718 12.6633 1.64278 12.6338 1.8124 12.5428C1.98203 12.4518 2.11533 12.3048 2.18989 12.1266C3.2307 9.70827 4.25969 7.287 5.26501 4.82706C5.42764 4.4493 5.18222 4.06261 4.67364 3.97635C4.51397 3.94958 4.35134 3.92578 4.19463 3.90793C3.84277 3.86331 3.49977 3.83654 3.18339 3.80382C3.16181 3.80684 3.13992 3.80684 3.11834 3.80382C3.04738 3.80382 3.02668 3.75623 3.08286 3.67889C3.30167 3.19404 3.52343 2.67647 3.74224 2.19163C4.3336 2.25409 4.92497 2.28384 5.51634 2.35522C6.10771 2.42661 6.78187 2.45933 7.41168 2.5337C7.47274 2.54804 7.53692 2.5389 7.59162 2.50808C7.64633 2.47726 7.68761 2.42699 7.70736 2.36712C8.03853 1.56102 8.36083 0.802518 8.68903 -0.0125047C8.76 -0.149333 8.82209 -0.202875 8.98472 -0.182053L9.2804 -0.143385C9.74758 -0.0868687 10.1882 -0.0511739 10.6672 -0.0244031C10.8387 0.00534226 10.8327 0.0529354 10.7618 0.14812C10.4395 0.906627 10.1142 1.71272 9.79193 2.47123C9.78119 2.53993 9.75263 2.60457 9.70914 2.65863C10.1704 2.70622 10.6879 2.74786 11.1462 2.79546C11.2053 2.79546 11.2733 2.69135 11.3384 2.63781C11.5867 2.02505 11.8292 1.44799 12.1338 0.835237L12.3762 0.264127C12.3762 0.24622 12.3802 0.228542 12.3879 0.21241C12.3957 0.196278 12.4069 0.182109 12.4208 0.170957C12.4348 0.159806 12.451 0.151961 12.4684 0.148007C12.4857 0.144053 12.5038 0.144091 12.5211 0.14812C12.6216 0.165968 12.6837 0.171917 12.7429 0.18084C13.2574 0.243306 13.7778 0.278999 14.3425 0.347414C14.1953 0.96168 13.9873 1.55957 13.7216 2.13213C13.6359 2.39284 13.5219 2.64322 13.3815 2.87874C13.3076 3.02152 13.3608 3.06316 13.5323 3.09291L15.3922 3.59263C15.927 3.79335 16.4057 4.12089 16.7878 4.54746C17.2343 5.18698 17.2047 5.91574 16.8795 6.67425C16.6568 7.227 16.3 7.7148 15.8416 8.0931C15.4272 8.40352 14.9673 8.64737 14.4785 8.81591C14.3995 8.84482 14.3185 8.86769 14.2361 8.88433C14.4549 9.00033 14.6796 9.06875 14.8984 9.18178C15.1936 9.31592 15.4559 9.51356 15.6669 9.76077C15.8779 10.008 16.0324 10.2987 16.1196 10.6125ZM10.2414 13.1409C11.3916 12.7542 11.9977 11.5614 11.4389 10.8862C11.1273 10.5558 10.7362 10.3119 10.3035 10.1782C9.78689 10.0067 9.25362 9.89108 8.71269 9.8332C8.12132 9.75884 7.52995 9.72612 6.93858 9.69042H6.9031C6.76413 9.67258 6.75526 9.72315 6.68725 9.857C6.51575 10.327 6.28808 10.7494 6.11658 11.2283C5.80315 11.8946 5.55182 12.5549 5.22953 13.2688H5.25614C5.28649 13.2728 5.31514 13.2851 5.33893 13.3045C6.29517 13.4354 7.2599 13.493 8.22481 13.477C8.90946 13.4787 9.58974 13.3672 10.2384 13.1468L10.2414 13.1409ZM7.43829 7.87298C7.37028 7.97114 7.43829 8.00981 7.53586 8.04551L7.71032 8.06633L7.87294 8.08715L8.16863 8.12285C9.01927 8.15704 9.87115 8.14413 10.7204 8.08418C10.9421 8.0462 11.1614 7.99454 11.3768 7.9295C12.5181 7.63205 13.2248 6.57014 12.731 5.84733C12.4183 5.45478 11.9733 5.19125 11.4803 5.10667C11.0683 5.00732 10.6506 4.9338 10.2295 4.88655C9.83924 4.83896 9.43711 4.80029 9.02611 4.7527H8.99654C8.8487 4.73485 8.78661 4.78839 8.71564 4.92225C8.3076 5.91574 7.90251 6.86462 7.43533 7.86406" fill="#FFE12A"/>
<mask id="mask3_3485_43186" style="mask-type:alpha" maskUnits="userSpaceOnUse" x="-2" y="-1" width="20" height="20">
<path d="M16.1196 10.6125C16.161 11.1541 16.059 11.6971 15.8239 12.1861C15.527 12.865 15.0988 13.4778 14.5643 13.9886C13.8534 14.6351 12.9765 15.0679 12.0332 15.2379C10.8551 15.4588 9.65579 15.5447 8.4584 15.4937C8.38723 15.4758 8.3121 15.4828 8.24544 15.5136C8.17877 15.5445 8.12455 15.5973 8.09175 15.6633C7.76946 16.4248 7.43829 17.2279 7.11599 17.9864C7.05094 18.144 7.0332 18.2006 6.86762 18.1797C6.82674 18.1759 6.7862 18.169 6.74639 18.1589C6.22894 18.1173 5.65827 18.037 5.13786 17.9953C4.96932 17.9656 4.97524 17.9239 5.0462 17.8228C5.37146 17.0197 5.70262 16.2166 6.08406 15.4432C6.08406 15.3539 6.15798 15.3004 6.04562 15.2677C5.58731 15.2201 5.12604 15.1755 4.60859 15.1338C4.44301 15.5592 4.21533 15.9905 4.04975 16.4129C3.88417 16.8353 3.65649 17.2725 3.48795 17.6979C3.42585 17.7901 3.41699 17.8347 3.27506 17.8168L3.03555 17.7841C2.53289 17.7217 2.02431 17.6919 1.51869 17.6622C1.35015 17.6324 1.35311 17.5878 1.42407 17.4897C1.75228 16.6865 2.08049 15.8804 2.46193 15.11C2.46193 15.0624 2.52993 15.0119 2.54176 14.9197C1.22301 14.7769 -0.0957448 14.6222 -1.47363 14.4913C-1.33466 14.298 -1.25778 14.1522 -1.11881 13.9589C-0.823124 13.5216 -0.551095 13.0844 -0.329332 12.7007C-0.255411 12.5579 -0.196278 12.5519 -0.0188673 12.5341H0.0757537C0.468106 12.5858 0.862903 12.6166 1.25849 12.6263C1.44718 12.6633 1.64278 12.6338 1.8124 12.5428C1.98203 12.4518 2.11533 12.3048 2.18989 12.1266C3.2307 9.70827 4.25969 7.287 5.26501 4.82706C5.42764 4.4493 5.18222 4.06261 4.67364 3.97635C4.51397 3.94958 4.35134 3.92578 4.19463 3.90793C3.84277 3.86331 3.49977 3.83654 3.18339 3.80382C3.16181 3.80684 3.13992 3.80684 3.11834 3.80382C3.04738 3.80382 3.02668 3.75623 3.08286 3.67889C3.30167 3.19404 3.52343 2.67647 3.74224 2.19163C4.3336 2.25409 4.92497 2.28384 5.51634 2.35522C6.10771 2.42661 6.78187 2.45933 7.41168 2.5337C7.47274 2.54804 7.53692 2.5389 7.59162 2.50808C7.64633 2.47726 7.68761 2.42699 7.70736 2.36712C8.03853 1.56102 8.36083 0.802518 8.68903 -0.0125047C8.76 -0.149333 8.82209 -0.202875 8.98472 -0.182053L9.2804 -0.143385C9.74758 -0.0868687 10.1882 -0.0511739 10.6672 -0.0244031C10.8387 0.00534226 10.8327 0.0529354 10.7618 0.14812C10.4395 0.906627 10.1142 1.71272 9.79193 2.47123C9.78119 2.53993 9.75263 2.60457 9.70914 2.65863C10.1704 2.70622 10.6879 2.74786 11.1462 2.79546C11.2053 2.79546 11.2733 2.69135 11.3384 2.63781C11.5867 2.02505 11.8292 1.44799 12.1338 0.835237L12.3762 0.264127C12.3762 0.24622 12.3802 0.228542 12.3879 0.21241C12.3957 0.196278 12.4069 0.182109 12.4208 0.170957C12.4348 0.159806 12.451 0.151961 12.4684 0.148007C12.4857 0.144053 12.5038 0.144091 12.5211 0.14812C12.6216 0.165968 12.6837 0.171917 12.7429 0.18084C13.2574 0.243306 13.7778 0.278999 14.3425 0.347414C14.1953 0.96168 13.9873 1.55957 13.7216 2.13213C13.6359 2.39284 13.5219 2.64322 13.3815 2.87874C13.3076 3.02152 13.3608 3.06316 13.5323 3.09291L15.3922 3.59263C15.927 3.79335 16.4057 4.12089 16.7878 4.54746C17.2343 5.18698 17.2047 5.91574 16.8795 6.67425C16.6568 7.227 16.3 7.7148 15.8416 8.0931C15.4272 8.40352 14.9673 8.64737 14.4785 8.81591C14.3995 8.84482 14.3185 8.86769 14.2361 8.88433C14.4549 9.00033 14.6796 9.06875 14.8984 9.18178C15.1936 9.31592 15.4559 9.51356 15.6669 9.76077C15.8779 10.008 16.0324 10.2987 16.1196 10.6125ZM10.2414 13.1409C11.3916 12.7542 11.9977 11.5614 11.4389 10.8862C11.1273 10.5558 10.7362 10.3119 10.3035 10.1782C9.78689 10.0067 9.25362 9.89108 8.71269 9.8332C8.12132 9.75884 7.52995 9.72612 6.93858 9.69042H6.9031C6.76413 9.67258 6.75526 9.72315 6.68725 9.857C6.51575 10.327 6.28808 10.7494 6.11658 11.2283C5.80315 11.8946 5.55182 12.5549 5.22953 13.2688H5.25614C5.28649 13.2728 5.31514 13.2851 5.33893 13.3045C6.29517 13.4354 7.2599 13.493 8.22481 13.477C8.90946 13.4787 9.58974 13.3672 10.2384 13.1468L10.2414 13.1409ZM7.43829 7.87298C7.37028 7.97114 7.43829 8.00981 7.53586 8.04551L7.71032 8.06633L7.87294 8.08715L8.16863 8.12285C9.01927 8.15704 9.87115 8.14413 10.7204 8.08418C10.9421 8.0462 11.1614 7.99454 11.3768 7.9295C12.5181 7.63205 13.2248 6.57014 12.731 5.84733C12.4183 5.45478 11.9733 5.19125 11.4803 5.10667C11.0683 5.00732 10.6506 4.9338 10.2295 4.88655C9.83924 4.83896 9.43711 4.80029 9.02611 4.7527H8.99654C8.8487 4.73485 8.78661 4.78839 8.71564 4.92225C8.3076 5.91574 7.90251 6.86462 7.43533 7.86406" fill="#FFE12A"/>
</mask>
<g mask="url(#mask3_3485_43186)">
<rect x="-21.9199" y="15.5509" width="61.8934" height="2.6396" transform="rotate(-30 -21.9199 15.5509)" fill="#FFF3A5"/>
<rect x="-11.0874" y="24.0293" width="47.5128" height="1.3198" transform="rotate(-30 -11.0874 24.0293)" fill="#FFF3A5"/>
<rect x="-16.0874" y="16.2482" width="47.5128" height="1.3198" transform="rotate(-30 -16.0874 16.2482)" fill="#FFF3A5"/>
</g>
<defs>
<clipPath id="clip0_3485_43186">
<rect width="58.4172" height="50.2514" fill="white" transform="translate(42.915 65.3572)"/>
</clipPath>
<clipPath id="clip1_3485_43186">
<rect width="40.9138" height="35.1947" fill="white" transform="translate(-12 -6)"/>
</clipPath>
</defs>
</svg>
