<svg width="26" height="27" viewBox="0 0 26 27" fill="none" xmlns="http://www.w3.org/2000/svg">
<path fill-rule="evenodd" clip-rule="evenodd" d="M9.74998 17.8334C7.95505 17.8334 6.49998 19.2885 6.49998 21.0834C6.49998 21.6817 6.985 22.1667 7.58331 22.1667H18.4166C19.015 22.1667 19.5 21.6817 19.5 21.0834C19.5 19.2885 18.0449 17.8334 16.25 17.8334H9.74998ZM4.33331 21.0834C4.33331 18.0919 6.75844 15.6667 9.74998 15.6667H16.25C19.2415 15.6667 21.6666 18.0919 21.6666 21.0834C21.6666 22.8783 20.2116 24.3334 18.4166 24.3334H7.58331C5.78839 24.3334 4.33331 22.8783 4.33331 21.0834Z" fill="#6B6C77"/>
<path fill-rule="evenodd" clip-rule="evenodd" d="M13 4.83341C11.2051 4.83341 9.74998 6.28849 9.74998 8.08341C9.74998 9.87834 11.2051 11.3334 13 11.3334C14.7949 11.3334 16.25 9.87834 16.25 8.08341C16.25 6.28849 14.7949 4.83341 13 4.83341ZM7.58331 8.08341C7.58331 5.09187 10.0084 2.66675 13 2.66675C15.9915 2.66675 18.4166 5.09187 18.4166 8.08341C18.4166 11.075 15.9915 13.5001 13 13.5001C10.0084 13.5001 7.58331 11.075 7.58331 8.08341Z" fill="#6B6C77"/>
</svg>
