<svg width="10" height="6" viewBox="0 0 10 6" fill="none" xmlns="http://www.w3.org/2000/svg">
<path d="M5.00002 5.16665C4.84425 5.16695 4.6933 5.1127 4.57335 5.01331L0.573354 1.67998C0.43721 1.56682 0.351594 1.40421 0.335341 1.22793C0.319087 1.05165 0.373529 0.876125 0.486688 0.73998C0.599847 0.603836 0.762454 0.51822 0.938739 0.501967C1.11502 0.485713 1.29054 0.540154 1.42669 0.653313L5.00002 3.63998L8.57336 0.759981C8.64155 0.704603 8.72001 0.663249 8.80424 0.638294C8.88846 0.61334 8.97679 0.605277 9.06414 0.61457C9.1515 0.623863 9.23615 0.650327 9.31324 0.692443C9.39033 0.734559 9.45834 0.791496 9.51336 0.85998C9.57441 0.928528 9.62065 1.00895 9.64918 1.09619C9.6777 1.18344 9.68791 1.27564 9.67914 1.36702C9.67038 1.4584 9.64285 1.54698 9.59826 1.62721C9.55367 1.70745 9.49299 1.77762 9.42002 1.83331L5.42002 5.05331C5.29663 5.13699 5.14876 5.17689 5.00002 5.16665Z" fill="#484B5C"/>
</svg>
