<svg width="14" height="7" viewBox="0 0 14 7" fill="none" xmlns="http://www.w3.org/2000/svg">
<path d="M13.4167 1.16663C13.4172 0.952451 13.3426 0.744885 13.2059 0.579966C13.129 0.487145 13.0344 0.410419 12.9278 0.35418C12.8211 0.29794 12.7044 0.263294 12.5844 0.252224C12.4643 0.241155 12.3433 0.25388 12.2281 0.28967C12.113 0.325461 12.006 0.383614 11.9134 0.460799L7.00008 4.56746L2.07758 0.607466C1.98381 0.531322 1.87593 0.474459 1.76011 0.440147C1.6443 0.405835 1.52285 0.394749 1.40274 0.407526C1.28263 0.420304 1.16623 0.456693 1.06023 0.514602C0.954234 0.572511 0.860723 0.650799 0.785078 0.744965C0.701628 0.839809 0.638682 0.950878 0.600192 1.0712C0.561702 1.19152 0.548499 1.31851 0.56141 1.44417C0.574321 1.56984 0.613069 1.69149 0.67522 1.80147C0.737372 1.91145 0.821586 2.0074 0.922578 2.0833L6.42258 6.5108C6.5866 6.64562 6.79234 6.71933 7.00466 6.71933C7.21698 6.71933 7.42272 6.64562 7.58675 6.5108L13.0867 1.92747C13.1977 1.83551 13.2854 1.71869 13.3427 1.5865C13.4 1.45431 13.4254 1.31046 13.4167 1.16663Z" fill="white"/>
</svg>
