<svg width="22" height="22" viewBox="0 0 22 22" fill="none" xmlns="http://www.w3.org/2000/svg">
<path d="M19.1923 6.90248C17.6248 3.77573 14.4861 1.83331 11 1.83331C5.94551 1.83331 1.83334 5.94548 1.83334 11C1.83334 16.0545 5.94551 20.1666 11 20.1666C14.4861 20.1666 17.6248 18.2242 19.1923 15.0975C19.2973 14.888 19.3181 14.6462 19.2504 14.4219C19.1827 14.1975 19.0317 14.0076 18.8283 13.8911L13.7656 11L18.8274 8.10973C19.25 7.86773 19.4104 7.3379 19.1923 6.90248V6.90248ZM11.462 10.2043C11.3216 10.2843 11.2048 10.4001 11.1236 10.5398C11.0424 10.6796 10.9996 10.8383 10.9996 11C10.9996 11.1616 11.0424 11.3204 11.1236 11.4601C11.2048 11.5999 11.3216 11.7156 11.462 11.7956L17.1206 15.0269C16.4569 16.0446 15.5493 16.8802 14.4804 17.4577C13.4114 18.0352 12.215 18.3362 11 18.3333C6.95659 18.3333 3.66668 15.0434 3.66668 11C3.66668 6.95656 6.95659 3.66665 11 3.66665C12.2149 3.66378 13.4112 3.96468 14.4802 4.54198C15.5491 5.11929 16.4568 5.95467 17.1206 6.97215L11.462 10.2043V10.2043Z" fill="#484B5C"/>
<path d="M10.5417 8.25C11.3011 8.25 11.9167 7.63439 11.9167 6.875C11.9167 6.11561 11.3011 5.5 10.5417 5.5C9.78227 5.5 9.16666 6.11561 9.16666 6.875C9.16666 7.63439 9.78227 8.25 10.5417 8.25Z" fill="#484B5C"/>
</svg>
