<svg width="24" height="25" viewBox="0 0 24 25" fill="none" xmlns="http://www.w3.org/2000/svg">
<circle cx="12" cy="12.5" r="12" fill="#272832"/>
<path d="M12.0009 15.5001C11.8257 15.5004 11.6559 15.4394 11.5209 15.3276L7.02094 11.5776C6.86778 11.4503 6.77146 11.2673 6.75317 11.069C6.73489 10.8707 6.79614 10.6732 6.92344 10.5201C7.05074 10.3669 7.23368 10.2706 7.432 10.2523C7.63032 10.234 7.82778 10.2953 7.98094 10.4226L12.0009 13.7826L16.0209 10.5426C16.0977 10.4803 16.1859 10.4338 16.2807 10.4057C16.3754 10.3776 16.4748 10.3685 16.5731 10.379C16.6713 10.3895 16.7666 10.4192 16.8533 10.4666C16.94 10.514 17.0166 10.578 17.0784 10.6551C17.1471 10.7322 17.1991 10.8227 17.2312 10.9208C17.2633 11.019 17.2748 11.1227 17.265 11.2255C17.2551 11.3283 17.2241 11.428 17.174 11.5182C17.1238 11.6085 17.0555 11.6874 16.9734 11.7501L12.4734 15.3726C12.3346 15.4667 12.1683 15.5116 12.0009 15.5001Z" fill="white"/>
</svg>
