<svg width="189" height="189" viewBox="0 0 189 189" fill="none" xmlns="http://www.w3.org/2000/svg">
<g clip-path="url(#clip0_3281_313695)">
<path d="M0 22C0 9.84973 9.84974 0 22 0H167C179.15 0 189 9.84974 189 22V167C189 179.15 179.15 189 167 189H22C9.84973 189 0 179.15 0 167V22Z" fill="url(#paint0_linear_3281_313695)"/>
<g opacity="0.3">
<circle cx="94.5004" cy="94.5" r="70.875" transform="rotate(87.8869 94.5004 94.5)" fill="url(#paint1_linear_3281_313695)" fill-opacity="0.93"/>
<circle r="14.875" transform="matrix(-0.352146 -0.935945 -0.935945 0.352146 56.8743 76.1251)" fill="url(#paint2_linear_3281_313695)" fill-opacity="0.43"/>
<ellipse rx="10.5" ry="10.5" transform="matrix(0.451727 -0.892156 -0.892156 -0.451727 93.6235 49.875)" fill="url(#paint3_linear_3281_313695)" fill-opacity="0.43"/>
<ellipse rx="14.875" ry="14.875" transform="matrix(-1 0 0 1 114.826 98.4711)" fill="url(#paint4_linear_3281_313695)" fill-opacity="0.43"/>
<circle r="7.875" transform="matrix(-1 0 0 1 138.253 64.75)" fill="url(#paint5_linear_3281_313695)" fill-opacity="0.6"/>
<ellipse rx="5.45192" ry="5.45192" transform="matrix(-1 0 0 1 143.567 95.4086)" fill="url(#paint6_linear_3281_313695)" fill-opacity="0.6"/>
<ellipse rx="7.875" ry="7.87499" transform="matrix(-1 0 0 1 51.624 133)" fill="url(#paint7_linear_3281_313695)" fill-opacity="0.43"/>
</g>
<circle opacity="0.7" cx="161.286" cy="6.81487" r="114.036" fill="url(#paint8_radial_3281_313695)"/>
<path d="M92.1056 14.4263L91.7554 25.2167C91.6358 28.9005 93.9683 32.2189 97.4749 33.3539L107.746 36.6784L96.956 36.3282C93.2722 36.2086 89.9538 38.5411 88.8188 42.0477L85.4943 52.3192L85.8445 41.5287C85.9641 37.845 83.6316 34.5266 80.125 33.3916L69.8535 30.0671L80.6439 30.4173C84.3277 30.5369 87.6461 28.2044 88.7811 24.6978L92.1056 14.4263Z" fill="white"/>
<ellipse opacity="0.2" cx="88.799" cy="33.372" rx="9.28686" ry="9.28686" transform="rotate(9.89698 88.799 33.372)" fill="white"/>
<g opacity="0.6">
<path d="M132.273 106.179L140.713 113.306C143.594 115.738 147.738 115.971 150.873 113.876L160.058 107.74L152.932 116.18C150.499 119.061 150.266 123.204 152.361 126.34L158.497 135.524L150.058 128.398C147.176 125.965 143.033 125.733 139.897 127.828L130.713 133.964L137.839 125.524C140.272 122.643 140.505 118.5 138.41 115.364L132.273 106.179Z" fill="white"/>
<ellipse opacity="0.2" cx="145.383" cy="120.852" rx="9.50172" ry="9.50172" transform="rotate(-41.7858 145.383 120.852)" fill="white"/>
</g>
<g style="mix-blend-mode:lighten" opacity="0.5">
<rect x="65.9697" y="83.2001" width="19.616" height="95.7838" transform="rotate(43.5514 65.9697 83.2001)" fill="url(#paint9_linear_3281_313695)"/>
</g>
<g style="mix-blend-mode:lighten" opacity="0.5">
<rect x="98.7078" y="110.895" width="19.616" height="95.7838" transform="rotate(43.5514 98.7078 110.895)" fill="url(#paint10_linear_3281_313695)"/>
</g>
<g style="mix-blend-mode:lighten" opacity="0.5">
<rect x="68.0818" y="64.9876" width="15.3741" height="75.0711" transform="rotate(43.5514 68.0818 64.9876)" fill="url(#paint11_linear_3281_313695)"/>
</g>
<g style="mix-blend-mode:lighten" opacity="0.5">
<rect x="100.82" y="92.6827" width="15.3741" height="75.0711" transform="rotate(43.5514 100.82 92.6827)" fill="url(#paint12_linear_3281_313695)"/>
</g>
<rect x="27.7861" y="22.2632" width="48.5171" height="25.6368" rx="4.54713" transform="rotate(25.8485 27.7861 22.2632)" fill="#0EB400"/>
<rect x="26.7715" y="19.0818" width="48.5171" height="25.6368" rx="4.54713" transform="rotate(25.8485 26.7715 19.0818)" fill="#8FFF00"/>
<path d="M33.9068 39.5651C33.5769 40.2462 33.1386 40.7387 32.5921 41.0426C32.0505 41.3489 31.4421 41.4807 30.7671 41.438C30.0969 41.3977 29.4042 41.2042 28.6888 40.8576C27.9783 40.5134 27.3947 40.0885 26.9378 39.5829C26.4859 39.0796 26.2074 38.5181 26.1022 37.8985C25.9971 37.2789 26.1095 36.6285 26.4394 35.9474C26.665 35.4819 26.9598 35.1105 27.3241 34.8333C27.6956 34.5535 28.1133 34.3656 28.5772 34.2697C29.0411 34.1738 29.5316 34.1664 30.0489 34.2476C30.571 34.3312 31.0967 34.5012 31.6259 34.7575C32.3413 35.1041 32.9214 35.5364 33.3662 36.0544C33.8133 36.5675 34.0906 37.1253 34.198 37.7278C34.3054 38.3304 34.2083 38.9428 33.9068 39.5651ZM31.5114 38.1596C31.6538 37.8656 31.7222 37.5932 31.7167 37.3425C31.7135 37.0868 31.6449 36.86 31.5109 36.662C31.377 36.464 31.185 36.3045 30.9351 36.1834C30.6901 36.0647 30.446 36.013 30.2027 36.0282C29.9642 36.0458 29.7413 36.1314 29.5338 36.2849C29.3336 36.436 29.1622 36.6585 29.0198 36.9525C28.8821 37.2367 28.8162 37.5102 28.8219 37.7732C28.83 38.0312 28.8998 38.2616 29.0314 38.4645C29.1703 38.6649 29.3647 38.8256 29.6146 38.9467C29.8645 39.0678 30.1062 39.1183 30.3397 39.0983C30.5805 39.0758 30.7997 38.9854 30.9974 38.8271C31.2024 38.6663 31.3737 38.4438 31.5114 38.1596ZM36.0578 34.5633C35.7872 35.1219 35.4003 35.5395 34.8973 35.8161C34.4015 36.0901 33.8321 36.2166 33.1889 36.1954C32.5531 36.1717 31.8922 35.9937 31.2062 35.6613C30.5251 35.3314 29.9733 34.9219 29.5508 34.4328C29.1356 33.9413 28.8769 33.4137 28.7749 32.85C28.6802 32.2838 28.7681 31.7214 29.0387 31.1628C29.3568 30.5063 29.7733 30.0274 30.2882 29.7263C30.808 29.4276 31.3883 29.2913 32.0291 29.3174C32.6698 29.3435 33.3283 29.5203 34.0045 29.8479C34.6904 30.1802 35.2422 30.5897 35.6598 31.0764C36.0775 31.563 36.3277 32.1017 36.4106 32.6924C36.4935 33.2831 36.3759 33.9067 36.0578 34.5633ZM33.5168 33.4957C33.6402 33.2409 33.7067 33.0038 33.7161 32.7845C33.7279 32.5604 33.6816 32.3625 33.5772 32.1909C33.4751 32.0144 33.309 31.8704 33.0787 31.7588C32.8582 31.652 32.6482 31.6108 32.4489 31.6352C32.2495 31.6596 32.0655 31.7459 31.8969 31.8941C31.7307 32.0375 31.5847 32.239 31.4589 32.4987C31.3354 32.7534 31.2666 32.9954 31.2524 33.2245C31.2382 33.4535 31.281 33.6588 31.3807 33.8401C31.4852 34.0239 31.6502 34.1704 31.8756 34.2796C32.1059 34.3911 32.3207 34.4286 32.5199 34.3921C32.724 34.3578 32.9091 34.263 33.0752 34.1075C33.2461 33.9544 33.3934 33.7504 33.5168 33.4957ZM34.5409 42.0775C34.7119 41.7247 34.9817 41.4924 35.3504 41.3807C35.7215 41.264 36.108 41.303 36.5098 41.4977C36.9164 41.6947 37.1866 41.9738 37.3202 42.3349C37.461 42.6936 37.446 43.0493 37.2751 43.4021C37.1041 43.7548 36.8331 43.9896 36.462 44.1062C36.0982 44.2204 35.7129 44.1789 35.3062 43.9819C34.9045 43.7872 34.6331 43.5106 34.4923 43.152C34.3538 42.7884 34.37 42.4303 34.5409 42.0775ZM42.7644 41.6057L41.019 40.1884L44.3149 35.0335L50.5696 38.0637L49.6367 39.9893L45.4032 37.9383L44.1316 39.9449C44.2825 39.9333 44.5201 39.9486 44.8445 39.9908C45.1761 40.0305 45.5135 40.1334 45.8565 40.2996C46.3856 40.5559 46.8144 40.8635 47.1428 41.2222C47.4784 41.5784 47.7135 41.9797 47.8482 42.4261C47.9852 42.8675 48.0167 43.3456 47.9428 43.8604C47.8738 44.3775 47.7004 44.9227 47.4227 45.4959C47.1995 45.9565 46.9076 46.3656 46.5468 46.7232C46.1933 47.0783 45.7791 47.3526 45.3042 47.546C44.8366 47.7369 44.3214 47.8201 43.7586 47.7954C43.1982 47.7659 42.5995 47.5969 41.9625 47.2883C41.4872 47.058 41.0598 46.7602 40.6802 46.3948C40.3006 46.0294 39.996 45.6217 39.7664 45.1716C39.544 44.7191 39.4224 44.2457 39.4016 43.7517C39.3881 43.2551 39.5025 42.763 39.7448 42.2754L42.2363 43.4825C42.1252 43.7493 42.0773 44.0043 42.0925 44.2477C42.1077 44.491 42.1799 44.7105 42.3089 44.9061C42.4453 45.0992 42.6335 45.2539 42.8736 45.3702C43.1186 45.4889 43.3457 45.5384 43.5548 45.5187C43.764 45.4991 43.9567 45.4261 44.1329 45.2997C44.309 45.1733 44.4701 45.0093 44.6162 44.8078C44.7646 44.6014 44.8993 44.3733 45.0204 44.1234C45.1485 43.8588 45.2343 43.6069 45.2775 43.3677C45.3257 43.1309 45.3242 42.9093 45.2729 42.703C45.224 42.4918 45.1205 42.2995 44.9625 42.1261C44.8094 41.9551 44.5981 41.8044 44.3286 41.6738C43.9709 41.5005 43.6595 41.4253 43.3943 41.4481C43.1292 41.4709 42.9192 41.5234 42.7644 41.6057Z" fill="#2D0B83"/>
<path d="M56.2305 43.9514L56.2817 46.443L58.3021 44.955L60.6486 46.0918L57.033 48.7025L57.2349 53.3945L54.8683 52.2479L54.7747 49.5537L52.609 51.1534L50.2424 50.0069L54.0496 47.2572L53.864 42.8049L56.2305 43.9514Z" fill="#2D0B83"/>
<rect x="120.798" y="142.303" width="48.5171" height="25.6368" rx="4.54713" transform="rotate(-17.9844 120.798 142.303)" fill="#0EB400"/>
<rect x="117.863" y="140.711" width="48.5171" height="25.6368" rx="4.54713" transform="rotate(-17.9844 117.863 140.711)" fill="#8FFF00"/>
<path d="M134.543 142.348L134.997 143.746L133.989 155.029L131.224 155.927L132.441 145.263L127.043 147.015L126.387 144.995L134.543 142.348ZM139.393 151.919C139.272 151.546 139.306 151.191 139.495 150.855C139.681 150.514 139.987 150.275 140.412 150.137C140.842 149.997 141.23 150.011 141.576 150.179C141.926 150.341 142.162 150.608 142.283 150.981C142.404 151.353 142.371 151.71 142.184 152.052C142.001 152.386 141.694 152.623 141.264 152.762C140.84 152.9 140.452 152.888 140.102 152.727C139.751 152.561 139.514 152.291 139.393 151.919ZM145.422 149.171L145.577 149.121C146.095 148.953 146.543 148.745 146.92 148.496C147.298 148.248 147.595 147.957 147.813 147.623C148.029 147.283 148.153 146.897 148.184 146.463C148.218 146.023 148.146 145.528 147.968 144.979L147.209 142.641C147.091 142.279 146.959 141.975 146.811 141.731C146.661 141.482 146.498 141.289 146.322 141.152C146.146 141.014 145.961 140.931 145.769 140.902C145.574 140.868 145.374 140.884 145.167 140.951C144.959 141.019 144.795 141.138 144.673 141.309C144.555 141.473 144.47 141.673 144.42 141.906C144.374 142.133 144.362 142.378 144.384 142.639C144.404 142.896 144.454 143.146 144.533 143.39C144.622 143.664 144.733 143.911 144.868 144.131C145.006 144.344 145.16 144.52 145.331 144.659C145.506 144.791 145.697 144.878 145.905 144.919C146.118 144.959 146.344 144.94 146.582 144.862C146.82 144.785 147.011 144.677 147.155 144.539C147.303 144.394 147.411 144.233 147.479 144.056C147.546 143.874 147.579 143.692 147.577 143.509C147.58 143.325 147.553 143.153 147.496 142.995L148.451 143.346C148.559 143.677 148.589 144.028 148.543 144.397C148.497 144.767 148.385 145.127 148.207 145.477C148.027 145.822 147.789 146.128 147.492 146.396C147.201 146.662 146.863 146.858 146.48 146.982C145.967 147.148 145.475 147.208 145.001 147.161C144.534 147.113 144.1 146.968 143.701 146.725C143.301 146.483 142.948 146.154 142.642 145.738C142.339 145.315 142.094 144.817 141.907 144.242C141.727 143.688 141.654 143.136 141.688 142.587C141.721 142.038 141.854 141.523 142.087 141.041C142.318 140.554 142.64 140.126 143.053 139.757C143.466 139.388 143.959 139.111 144.534 138.924C145.078 138.748 145.622 138.686 146.165 138.738C146.707 138.785 147.223 138.947 147.714 139.223C148.204 139.499 148.646 139.891 149.04 140.398C149.433 140.906 149.751 141.53 149.991 142.27L150.283 143.171C150.544 143.974 150.681 144.731 150.694 145.442C150.708 146.153 150.613 146.814 150.41 147.424C150.206 148.028 149.909 148.577 149.519 149.069C149.133 149.555 148.666 149.979 148.12 150.339C147.578 150.698 146.973 150.986 146.305 151.203L146.103 151.269L145.422 149.171Z" fill="#2D0B83"/>
<path d="M156.337 138.249L158.099 140.011L158.526 137.538L161.006 136.733L160.206 141.121L163.601 144.365L161.1 145.177L159.167 143.299L158.712 145.953L156.211 146.764L157.053 142.144L153.836 139.061L156.337 138.249Z" fill="#2D0B83"/>
<g filter="url(#filter0_i_3281_313695)">
<path d="M72.6771 97.1477L100.53 56.8745C72.6668 71.0645 71.877 62.9231 55.7221 65.3529C52.337 65.8621 49.2764 67.1462 46.7712 68.6745C44.2233 70.2289 44.3744 73.7241 46.6737 75.6271L72.6771 97.1477Z" fill="#FEFFF1"/>
</g>
<ellipse cx="100.88" cy="78.5621" rx="50.0184" ry="18.6432" transform="rotate(-45 100.88 78.5621)" fill="url(#paint13_linear_3281_313695)"/>
<ellipse cx="100.88" cy="78.5621" rx="50.0184" ry="18.6432" transform="rotate(-45 100.88 78.5621)" fill="url(#paint14_linear_3281_313695)"/>
<g opacity="0.62" filter="url(#filter1_f_3281_313695)">
<ellipse cx="100.88" cy="78.5621" rx="50.0184" ry="18.6432" transform="rotate(-45 100.88 78.5621)" fill="url(#paint15_linear_3281_313695)"/>
</g>
<g filter="url(#filter2_i_3281_313695)">
<path d="M123.326 119.527C123.326 102.992 115.414 102.697 123.899 75.2043C124.185 74.277 123.016 73.5514 122.345 74.2523L120.03 76.6708C120.03 76.6708 110.767 86.5568 104.228 92.2447C98.0917 97.5832 87.8586 104.977 87.8586 104.977L87.404 106.796L114.243 130.822C116.467 132.812 119.944 132.444 121.134 129.707C122.404 126.787 123.326 123.274 123.326 119.527Z" fill="#FFFEFA"/>
</g>
<g filter="url(#filter3_i_3281_313695)">
<path d="M70.5992 79.6241L86.6382 76.0901C87.5259 75.8945 88.1197 76.9785 87.477 77.6213L85.7571 79.3412C81.1014 83.9968 76.7821 88.977 72.8317 94.2443L71.768 95.6625C71.0273 96.6501 69.8363 97.1947 68.6047 97.1088L52.7739 96.0043C52.0392 95.953 51.6669 95.0952 52.1314 94.5236L57.846 87.4903C61.0861 83.5025 65.5814 80.7298 70.5992 79.6241Z" fill="#D7F0FF"/>
</g>
<path d="M75.5678 115.112C74.4942 116.186 72.8708 116.592 71.0361 116.286C69.2029 115.981 67.2155 114.967 65.5369 113.288C63.8583 111.61 62.8443 109.622 62.5387 107.789C62.233 105.954 62.6395 104.331 63.7131 103.257C64.7867 102.184 66.4101 101.777 68.2448 102.083C70.078 102.388 72.0654 103.402 73.744 105.081C75.4226 106.76 76.4366 108.747 76.7422 110.58C77.048 112.415 76.6414 114.038 75.5678 115.112Z" fill="url(#paint16_linear_3281_313695)" stroke="#000AFF" stroke-width="1.28963"/>
<g filter="url(#filter4_i_3281_313695)">
<ellipse rx="5.4714" ry="3.90814" transform="matrix(0.707107 0.707107 0.707107 -0.707107 67.2451 110.658)" fill="#FFFA7E"/>
</g>
<path d="M70.658 114.071C71.2357 113.494 71.4746 112.601 71.2989 111.546C71.1233 110.493 70.5369 109.335 69.5527 108.351C68.5684 107.367 67.4106 106.78 66.3575 106.605C65.3028 106.429 64.4099 106.668 63.8322 107.246C63.2546 107.823 63.0156 108.716 63.1914 109.771C63.3669 110.824 63.9533 111.982 64.9376 112.966C65.9219 113.95 67.0796 114.537 68.1328 114.712C69.1874 114.888 70.0804 114.649 70.658 114.071Z" stroke="#6892FF" stroke-width="1.28963"/>
<g filter="url(#filter5_f_3281_313695)">
<ellipse cx="63.7912" cy="113.652" rx="7.45381" ry="5.59036" transform="rotate(-45 63.7912 113.652)" fill="#7EE8FF"/>
</g>
<g filter="url(#filter6_f_3281_313695)">
<path d="M42.0186 136.043L48.5857 123.797L52.0301 117.835L54.9235 113.674L58.203 111.663L64.3586 113.703L66.3989 119.859L64.4975 123.028L59.9136 125.719L54.264 129.476L42.0186 136.043Z" fill="url(#paint17_linear_3281_313695)"/>
</g>
<g filter="url(#filter7_i_3281_313695)">
<path d="M126.716 55.0447C126.889 56.5319 124.999 56.4047 124.303 55.079C122.831 52.2775 121.072 50.3112 118.276 48.8293C117.615 48.4788 116.994 48.1948 116.524 48.0674C111.995 47.069 110.159 47.9426 109.704 47.9336C109.25 47.9247 116.985 43.4436 122.298 45.4519C125.18 46.8807 126.292 51.4198 126.716 55.0447Z" fill="url(#paint18_linear_3281_313695)"/>
</g>
<path d="M116.583 47.848L116.583 47.8477L116.573 47.8454C114.288 47.3416 112.674 47.3083 111.567 47.4029C111.257 47.4294 110.988 47.4658 110.757 47.5043C110.783 47.4901 110.811 47.4756 110.839 47.461C111.574 47.076 112.653 46.5825 113.912 46.1514C116.438 45.2862 119.63 44.6913 122.207 45.6606C123.568 46.3399 124.535 47.7659 125.217 49.5076C125.898 51.2484 126.279 53.2678 126.49 55.0711C126.528 55.396 126.45 55.5941 126.343 55.7093C126.234 55.8266 126.062 55.8942 125.84 55.8894C125.391 55.8797 124.816 55.5683 124.504 54.9733C123.015 52.1385 121.225 50.1354 118.382 48.6284C117.719 48.2766 117.079 47.9824 116.583 47.848Z" stroke="url(#paint19_linear_3281_313695)" stroke-width="0.454713"/>
</g>
<defs>
<filter id="filter0_i_3281_313695" x="44.9048" y="55.0557" width="55.6252" height="42.092" filterUnits="userSpaceOnUse" color-interpolation-filters="sRGB">
<feFlood flood-opacity="0" result="BackgroundImageFix"/>
<feBlend mode="normal" in="SourceGraphic" in2="BackgroundImageFix" result="shape"/>
<feColorMatrix in="SourceAlpha" type="matrix" values="0 0 0 0 0 0 0 0 0 0 0 0 0 0 0 0 0 0 127 0" result="hardAlpha"/>
<feOffset dy="-2.72828"/>
<feGaussianBlur stdDeviation="0.909426"/>
<feComposite in2="hardAlpha" operator="arithmetic" k2="-1" k3="1"/>
<feColorMatrix type="matrix" values="0 0 0 0 0 0 0 0 0 0.299141 0 0 0 0 0.747852 0 0 0 0.52 0"/>
<feBlend mode="normal" in2="shape" result="effect1_innerShadow_3281_313695"/>
</filter>
<filter id="filter1_f_3281_313695" x="60.3967" y="38.0783" width="80.9675" height="80.9676" filterUnits="userSpaceOnUse" color-interpolation-filters="sRGB">
<feFlood flood-opacity="0" result="BackgroundImageFix"/>
<feBlend mode="normal" in="SourceGraphic" in2="BackgroundImageFix" result="shape"/>
<feGaussianBlur stdDeviation="1.36414" result="effect1_foregroundBlur_3281_313695"/>
</filter>
<filter id="filter2_i_3281_313695" x="87.4041" y="72.1533" width="36.5393" height="59.9277" filterUnits="userSpaceOnUse" color-interpolation-filters="sRGB">
<feFlood flood-opacity="0" result="BackgroundImageFix"/>
<feBlend mode="normal" in="SourceGraphic" in2="BackgroundImageFix" result="shape"/>
<feColorMatrix in="SourceAlpha" type="matrix" values="0 0 0 0 0 0 0 0 0 0 0 0 0 0 0 0 0 0 127 0" result="hardAlpha"/>
<feOffset dy="-2.72828"/>
<feGaussianBlur stdDeviation="0.909426"/>
<feComposite in2="hardAlpha" operator="arithmetic" k2="-1" k3="1"/>
<feColorMatrix type="matrix" values="0 0 0 0 0 0 0 0 0 0.299141 0 0 0 0 0.747852 0 0 0 0.5 0"/>
<feBlend mode="normal" in2="shape" result="effect1_innerShadow_3281_313695"/>
</filter>
<filter id="filter3_i_3281_313695" x="51.9265" y="76.0669" width="35.8208" height="21.9601" filterUnits="userSpaceOnUse" color-interpolation-filters="sRGB">
<feFlood flood-opacity="0" result="BackgroundImageFix"/>
<feBlend mode="normal" in="SourceGraphic" in2="BackgroundImageFix" result="shape"/>
<feColorMatrix in="SourceAlpha" type="matrix" values="0 0 0 0 0 0 0 0 0 0 0 0 0 0 0 0 0 0 127 0" result="hardAlpha"/>
<feOffset dy="1.81885"/>
<feGaussianBlur stdDeviation="0.454713"/>
<feComposite in2="hardAlpha" operator="arithmetic" k2="-1" k3="1"/>
<feColorMatrix type="matrix" values="0 0 0 0 0.992333 0 0 0 0 1 0 0 0 0 0.904167 0 0 0 1 0"/>
<feBlend mode="normal" in2="shape" result="effect1_innerShadow_3281_313695"/>
</filter>
<filter id="filter4_i_3281_313695" x="62.4902" y="105.904" width="9.50977" height="9.50967" filterUnits="userSpaceOnUse" color-interpolation-filters="sRGB">
<feFlood flood-opacity="0" result="BackgroundImageFix"/>
<feBlend mode="normal" in="SourceGraphic" in2="BackgroundImageFix" result="shape"/>
<feColorMatrix in="SourceAlpha" type="matrix" values="0 0 0 0 0 0 0 0 0 0 0 0 0 0 0 0 0 0 127 0" result="hardAlpha"/>
<feOffset dx="2.57925" dy="-1.28963"/>
<feComposite in2="hardAlpha" operator="arithmetic" k2="-1" k3="1"/>
<feColorMatrix type="matrix" values="0 0 0 0 1 0 0 0 0 0.6 0 0 0 0 0 0 0 0 1 0"/>
<feBlend mode="normal" in2="shape" result="effect1_innerShadow_3281_313695"/>
</filter>
<filter id="filter5_f_3281_313695" x="52.0441" y="101.905" width="23.4942" height="23.4944" filterUnits="userSpaceOnUse" color-interpolation-filters="sRGB">
<feFlood flood-opacity="0" result="BackgroundImageFix"/>
<feBlend mode="normal" in="SourceGraphic" in2="BackgroundImageFix" result="shape"/>
<feGaussianBlur stdDeviation="2.57925" result="effect1_foregroundBlur_3281_313695"/>
</filter>
<filter id="filter6_f_3281_313695" x="40.7289" y="110.373" width="26.9596" height="26.9596" filterUnits="userSpaceOnUse" color-interpolation-filters="sRGB">
<feFlood flood-opacity="0" result="BackgroundImageFix"/>
<feBlend mode="normal" in="SourceGraphic" in2="BackgroundImageFix" result="shape"/>
<feGaussianBlur stdDeviation="0.644813" result="effect1_foregroundBlur_3281_313695"/>
</filter>
<filter id="filter7_i_3281_313695" x="109.685" y="44.9341" width="17.0417" height="11.1829" filterUnits="userSpaceOnUse" color-interpolation-filters="sRGB">
<feFlood flood-opacity="0" result="BackgroundImageFix"/>
<feBlend mode="normal" in="SourceGraphic" in2="BackgroundImageFix" result="shape"/>
<feColorMatrix in="SourceAlpha" type="matrix" values="0 0 0 0 0 0 0 0 0 0 0 0 0 0 0 0 0 0 127 0" result="hardAlpha"/>
<feOffset dx="0.909426" dy="1.81885"/>
<feComposite in2="hardAlpha" operator="arithmetic" k2="-1" k3="1"/>
<feColorMatrix type="matrix" values="0 0 0 0 0 0 0 0 0 0 0 0 0 0 0 0 0 0 0.25 0"/>
<feBlend mode="normal" in2="shape" result="effect1_innerShadow_3281_313695"/>
</filter>
<linearGradient id="paint0_linear_3281_313695" x1="94.5" y1="0" x2="18.1731" y2="181.276" gradientUnits="userSpaceOnUse">
<stop stop-color="#00A3FF"/>
<stop offset="1" stop-color="#CC00FF"/>
</linearGradient>
<linearGradient id="paint1_linear_3281_313695" x1="68.6879" y1="26.25" x2="119.875" y2="172.375" gradientUnits="userSpaceOnUse">
<stop offset="0.0644755" stop-color="white"/>
<stop offset="0.445678" stop-color="white"/>
<stop offset="0.990552" stop-color="#6200FF"/>
</linearGradient>
<linearGradient id="paint2_linear_3281_313695" x1="9.45756" y1="0.550926" x2="20.2006" y2="31.2191" gradientUnits="userSpaceOnUse">
<stop stop-color="white"/>
<stop offset="0.990552" stop-color="#6200FF" stop-opacity="0.5"/>
</linearGradient>
<linearGradient id="paint3_linear_3281_313695" x1="6.67592" y1="0.388889" x2="14.2593" y2="22.037" gradientUnits="userSpaceOnUse">
<stop stop-color="white"/>
<stop offset="0.990552" stop-color="#6200FF" stop-opacity="0.5"/>
</linearGradient>
<linearGradient id="paint4_linear_3281_313695" x1="9.45756" y1="0.550926" x2="20.2006" y2="31.2191" gradientUnits="userSpaceOnUse">
<stop stop-color="white"/>
<stop offset="0.990552" stop-color="#6200FF" stop-opacity="0.5"/>
</linearGradient>
<linearGradient id="paint5_linear_3281_313695" x1="5.00694" y1="0.291667" x2="10.6944" y2="16.5278" gradientUnits="userSpaceOnUse">
<stop stop-color="white"/>
<stop offset="0.990552" stop-color="#6200FF" stop-opacity="0.5"/>
</linearGradient>
<linearGradient id="paint6_linear_3281_313695" x1="3.46634" y1="0.201923" x2="7.40385" y2="11.4423" gradientUnits="userSpaceOnUse">
<stop stop-color="white"/>
<stop offset="0.990552" stop-color="#6200FF" stop-opacity="0.5"/>
</linearGradient>
<linearGradient id="paint7_linear_3281_313695" x1="5.00694" y1="0.291667" x2="10.6944" y2="16.5278" gradientUnits="userSpaceOnUse">
<stop stop-color="white"/>
<stop offset="0.990552" stop-color="#6200FF" stop-opacity="0.5"/>
</linearGradient>
<radialGradient id="paint8_radial_3281_313695" cx="0" cy="0" r="1" gradientUnits="userSpaceOnUse" gradientTransform="translate(161.286 6.81487) rotate(90) scale(114.036)">
<stop stop-color="#FFE600"/>
<stop offset="1" stop-color="#1D1E25" stop-opacity="0"/>
</radialGradient>
<linearGradient id="paint9_linear_3281_313695" x1="75.7777" y1="58.2964" x2="75.5763" y2="186.19" gradientUnits="userSpaceOnUse">
<stop stop-color="#FAFF00"/>
<stop offset="0.520833" stop-color="#FF823C" stop-opacity="0.67"/>
<stop offset="1" stop-color="#B504E1" stop-opacity="0"/>
</linearGradient>
<linearGradient id="paint10_linear_3281_313695" x1="108.516" y1="85.9914" x2="108.314" y2="213.885" gradientUnits="userSpaceOnUse">
<stop stop-color="#FAFF00"/>
<stop offset="0.520833" stop-color="#FF823C" stop-opacity="0.67"/>
<stop offset="1" stop-color="#B504E1" stop-opacity="0"/>
</linearGradient>
<linearGradient id="paint11_linear_3281_313695" x1="75.7689" y1="45.4691" x2="75.611" y2="145.707" gradientUnits="userSpaceOnUse">
<stop stop-color="#FAFF00"/>
<stop offset="0.520833" stop-color="#FF823C" stop-opacity="0.67"/>
<stop offset="1" stop-color="#B504E1" stop-opacity="0"/>
</linearGradient>
<linearGradient id="paint12_linear_3281_313695" x1="108.507" y1="73.1642" x2="108.349" y2="173.402" gradientUnits="userSpaceOnUse">
<stop stop-color="#FAFF00"/>
<stop offset="0.520833" stop-color="#FF823C" stop-opacity="0.67"/>
<stop offset="1" stop-color="#B504E1" stop-opacity="0"/>
</linearGradient>
<linearGradient id="paint13_linear_3281_313695" x1="98.0744" y1="55.2365" x2="98.7175" y2="100.894" gradientUnits="userSpaceOnUse">
<stop offset="0.0656552" stop-color="#9CA5FE"/>
<stop offset="0.137047" stop-color="#C7D0FE"/>
<stop offset="0.242909" stop-color="#E4E9FF"/>
<stop offset="0.363202" stop-color="#FFF5DD"/>
<stop offset="0.537762" stop-color="#FFF5DD"/>
<stop offset="0.734364" stop-color="#FCEFCE"/>
<stop offset="0.841588" stop-color="#A57EA1"/>
<stop offset="1" stop-color="#FFF5DD" stop-opacity="0.21"/>
</linearGradient>
<linearGradient id="paint14_linear_3281_313695" x1="154.664" y1="74.5284" x2="82.9625" y2="70.9915" gradientUnits="userSpaceOnUse">
<stop stop-color="white"/>
<stop offset="0.283991" stop-color="white"/>
<stop offset="0.856762" stop-color="#FBFBFB" stop-opacity="0"/>
</linearGradient>
<linearGradient id="paint15_linear_3281_313695" x1="146.304" y1="79.6729" x2="80.5144" y2="118.877" gradientUnits="userSpaceOnUse">
<stop offset="0.123489" stop-color="#A6F4FF" stop-opacity="0"/>
<stop offset="0.452586" stop-color="#8DB4FF" stop-opacity="0"/>
<stop offset="1" stop-color="#3FAEFF"/>
</linearGradient>
<linearGradient id="paint16_linear_3281_313695" x1="61.2769" y1="102.755" x2="75.4627" y2="116.941" gradientUnits="userSpaceOnUse">
<stop offset="0.114583" stop-color="#004CBF"/>
<stop offset="0.487275" stop-color="#4E7FFF"/>
<stop offset="0.895833" stop-color="#004CBF"/>
</linearGradient>
<linearGradient id="paint17_linear_3281_313695" x1="42.0186" y1="136.043" x2="63.7153" y2="114.482" gradientUnits="userSpaceOnUse">
<stop stop-color="#7EE8FF"/>
<stop offset="1" stop-color="#00C2FF" stop-opacity="0.07"/>
</linearGradient>
<linearGradient id="paint18_linear_3281_313695" x1="124.691" y1="46.7735" x2="126.965" y2="54.9584" gradientUnits="userSpaceOnUse">
<stop stop-color="#45339F"/>
<stop offset="0.593986" stop-color="#45339F" stop-opacity="0.406014"/>
<stop offset="1" stop-color="#45339F"/>
</linearGradient>
<linearGradient id="paint19_linear_3281_313695" x1="109.686" y1="45.8641" x2="127.42" y2="61.3243" gradientUnits="userSpaceOnUse">
<stop stop-color="#9F9F9F"/>
<stop offset="0.589274" stop-color="#9F9F9F"/>
<stop offset="1" stop-color="#9F9F9F" stop-opacity="0"/>
</linearGradient>
<clipPath id="clip0_3281_313695">
<path d="M0 22C0 9.84973 9.84974 0 22 0H167C179.15 0 189 9.84974 189 22V167C189 179.15 179.15 189 167 189H22C9.84973 189 0 179.15 0 167V22Z" fill="white"/>
</clipPath>
</defs>
</svg>
