<svg width="584" height="869" viewBox="0 0 584 869" fill="none" xmlns="http://www.w3.org/2000/svg">
<g clip-path="url(#clip0_2404_188725)">
<rect width="584" height="869" fill="#1D1E25"/>
<path opacity="0.5" fill-rule="evenodd" clip-rule="evenodd" d="M263.682 95.6962C253.654 100.438 245.855 102.467 244.606 100.303C243.357 98.1397 249.014 92.3999 258.136 86.086C257.631 80.9809 260.079 75.813 264.811 73.0812C269.571 70.3329 275.311 70.8189 279.486 73.8574C289.081 69.4159 296.456 67.5694 297.668 69.6682C298.88 71.7669 293.594 77.2301 284.951 83.3181C285.498 88.4551 283.049 93.6722 278.287 96.4216C273.553 99.1545 267.851 98.6892 263.682 95.6962Z" fill="url(#paint0_linear_2404_188725)"/>
<path opacity="0.5" fill-rule="evenodd" clip-rule="evenodd" d="M61.8114 285.696C51.7836 290.438 43.9853 292.467 42.7362 290.303C41.487 288.14 47.1441 282.4 56.2659 276.086C55.761 270.981 58.2092 265.813 62.9408 263.081C67.701 260.333 73.441 260.819 77.6161 263.857C87.211 259.416 94.5862 257.569 95.7979 259.668C97.0096 261.767 91.7239 267.23 83.0811 273.318C83.6276 278.455 81.1785 283.672 76.4164 286.422C71.6829 289.155 65.9805 288.689 61.8114 285.696Z" fill="url(#paint1_linear_2404_188725)"/>
<path opacity="0.5" fill-rule="evenodd" clip-rule="evenodd" d="M445.81 211.696C435.783 216.438 427.984 218.467 426.735 216.303C425.486 214.14 431.143 208.4 440.265 202.086C439.76 196.981 442.208 191.813 446.94 189.081C451.7 186.333 457.44 186.819 461.615 189.857C471.21 185.416 478.585 183.569 479.797 185.668C481.009 187.767 475.723 193.23 467.08 199.318C467.627 204.455 465.178 209.672 460.415 212.422C455.682 215.155 449.98 214.689 445.81 211.696Z" fill="url(#paint2_linear_2404_188725)"/>
<path opacity="0.5" fill-rule="evenodd" clip-rule="evenodd" d="M422.315 453.399C407.29 460.504 395.606 463.544 393.735 460.302C391.863 457.061 400.339 448.461 414.006 439.001C413.249 431.352 416.917 423.608 424.006 419.515C431.139 415.397 439.739 416.126 445.995 420.679C460.37 414.025 471.42 411.258 473.235 414.403C475.051 417.547 467.131 425.732 454.182 434.854C455.001 442.55 451.331 450.366 444.196 454.486C437.105 458.58 428.561 457.883 422.315 453.399Z" fill="url(#paint3_linear_2404_188725)"/>
<path opacity="0.5" fill-rule="evenodd" clip-rule="evenodd" d="M216.674 382.479C201.65 389.584 189.966 392.624 188.094 389.383C186.222 386.141 194.698 377.541 208.365 368.081C207.608 360.432 211.276 352.689 218.366 348.595C225.498 344.478 234.099 345.206 240.354 349.759C254.73 343.105 265.779 340.338 267.595 343.483C269.41 346.627 261.491 354.812 248.542 363.934C249.36 371.63 245.69 379.446 238.556 383.566C231.464 387.66 222.921 386.963 216.674 382.479Z" fill="url(#paint4_linear_2404_188725)"/>
<path opacity="0.5" fill-rule="evenodd" clip-rule="evenodd" d="M255.674 269.104C248.535 272.48 242.984 273.924 242.095 272.384C241.205 270.844 245.232 266.758 251.726 262.263C251.366 258.629 253.109 254.949 256.478 253.005C259.866 251.048 263.953 251.394 266.925 253.558C273.755 250.396 279.005 249.081 279.868 250.576C280.73 252.07 276.968 255.959 270.815 260.293C271.204 263.949 269.46 267.663 266.071 269.62C262.701 271.565 258.642 271.234 255.674 269.104Z" fill="url(#paint5_linear_2404_188725)"/>
<path opacity="0.5" fill-rule="evenodd" clip-rule="evenodd" d="M489.236 287.527C483.191 290.385 478.49 291.608 477.737 290.304C476.984 289 480.394 285.54 485.893 281.734C485.588 278.656 487.064 275.541 489.916 273.894C492.786 272.237 496.246 272.53 498.763 274.362C504.547 271.685 508.992 270.572 509.723 271.837C510.453 273.102 507.267 276.395 502.057 280.065C502.386 283.162 500.91 286.307 498.039 287.964C495.186 289.611 491.749 289.331 489.236 287.527Z" fill="url(#paint6_linear_2404_188725)"/>
<path opacity="0.5" fill-rule="evenodd" clip-rule="evenodd" d="M436.56 46.7226C430.515 49.5812 425.814 50.8042 425.061 49.5C424.308 48.1957 427.718 44.7356 433.217 40.9296C432.912 37.8521 434.388 34.7366 437.241 33.0898C440.11 31.4331 443.57 31.7261 446.087 33.558C451.871 30.8807 456.317 29.7677 457.047 31.0328C457.778 32.2979 454.591 35.5912 449.381 39.2611C449.711 42.3576 448.234 45.5023 445.364 47.1596C442.51 48.807 439.073 48.5266 436.56 46.7226Z" fill="url(#paint7_linear_2404_188725)"/>
<path opacity="0.5" fill-rule="evenodd" clip-rule="evenodd" d="M170.139 146.884C161.018 140.57 155.362 134.831 156.611 132.668C157.86 130.504 165.66 132.533 175.689 137.276C179.857 134.286 185.557 133.823 190.288 136.554C195.049 139.303 197.498 144.517 196.954 149.652C205.598 155.74 210.885 161.204 209.673 163.303C208.461 165.402 201.087 163.556 191.493 159.115C187.318 162.157 181.575 162.644 176.813 159.895C172.079 157.162 169.631 151.991 170.139 146.884Z" fill="url(#paint8_linear_2404_188725)"/>
<path opacity="0.5" fill-rule="evenodd" clip-rule="evenodd" d="M536.611 371.659C530.036 367.108 525.959 362.971 526.859 361.411C527.76 359.852 533.382 361.314 540.612 364.733C543.617 362.578 547.726 362.244 551.137 364.213C554.569 366.194 556.334 369.953 555.942 373.655C562.174 378.044 565.986 381.984 565.112 383.497C564.239 385.01 558.923 383.679 552.006 380.477C548.996 382.67 544.855 383.022 541.422 381.04C538.01 379.069 536.245 375.341 536.611 371.659Z" fill="url(#paint9_linear_2404_188725)"/>
<circle opacity="0.5" cx="78.3687" cy="167.5" r="21.5" transform="rotate(-150 78.3687 167.5)" fill="url(#paint10_linear_2404_188725)"/>
<circle opacity="0.5" cx="433.369" cy="364.37" r="21.5" transform="rotate(-150 433.369 364.37)" fill="url(#paint11_linear_2404_188725)"/>
<circle opacity="0.5" cx="296.369" cy="485.37" r="21.5" transform="rotate(-150 296.369 485.37)" fill="url(#paint12_linear_2404_188725)"/>
<circle opacity="0.5" cx="312.195" cy="189.805" r="14.3716" transform="rotate(-150 312.195 189.805)" fill="url(#paint13_linear_2404_188725)"/>
<circle opacity="0.5" cx="393.591" cy="118.15" r="10.2066" transform="rotate(-150 393.591 118.15)" fill="url(#paint14_linear_2404_188725)"/>
<circle opacity="0.5" cx="131.942" cy="305.942" r="10.2066" transform="rotate(-150 131.942 305.942)" fill="url(#paint15_linear_2404_188725)"/>
<circle opacity="0.5" cx="523.811" cy="70.9423" r="10.2066" transform="rotate(-150 523.811 70.9423)" fill="url(#paint16_linear_2404_188725)"/>
<circle opacity="0.5" cx="325.942" cy="311.942" r="10.2066" transform="rotate(-150 325.942 311.942)" fill="url(#paint17_linear_2404_188725)"/>
<circle opacity="0.5" cx="62.9419" cy="377.942" r="10.2066" transform="rotate(-150 62.9419 377.942)" fill="url(#paint18_linear_2404_188725)"/>
<circle opacity="0.5" cx="398.169" cy="373.168" r="4.51566" transform="rotate(-150 398.169 373.168)" fill="url(#paint19_linear_2404_188725)"/>
<circle opacity="0.5" cx="469.169" cy="456.168" r="4.51566" transform="rotate(-150 469.169 456.168)" fill="url(#paint20_linear_2404_188725)"/>
<circle opacity="0.5" cx="186.942" cy="241.942" r="10.2066" transform="rotate(-150 186.942 241.942)" fill="url(#paint21_linear_2404_188725)"/>
<circle opacity="0.5" cx="135.942" cy="436.942" r="10.2066" transform="rotate(-150 135.942 436.942)" fill="url(#paint22_linear_2404_188725)"/>
<path opacity="0.5" fill-rule="evenodd" clip-rule="evenodd" d="M324.287 565.697C334.315 570.439 342.113 572.467 343.362 570.304C344.612 568.14 338.955 562.4 329.833 556.086C330.338 550.981 327.889 545.813 323.158 543.082C318.398 540.333 312.658 540.819 308.483 543.858C298.888 539.416 291.512 537.57 290.301 539.669C289.089 541.767 294.375 547.231 303.017 553.319C302.471 558.456 304.92 563.673 309.682 566.422C314.416 569.155 320.118 568.69 324.287 565.697Z" fill="url(#paint23_linear_2404_188725)"/>
<path opacity="0.5" fill-rule="evenodd" clip-rule="evenodd" d="M526.157 755.697C536.185 760.439 543.983 762.468 545.233 760.304C546.482 758.141 540.825 752.401 531.703 746.087C532.208 740.982 529.76 735.814 525.028 733.082C520.268 730.334 514.528 730.82 510.353 733.858C500.758 729.417 493.383 727.57 492.171 729.669C490.959 731.768 496.245 737.231 504.888 743.319C504.341 748.456 506.79 753.673 511.552 756.423C516.286 759.156 521.988 758.69 526.157 755.697Z" fill="url(#paint24_linear_2404_188725)"/>
<path opacity="0.5" fill-rule="evenodd" clip-rule="evenodd" d="M142.157 681.697C152.185 686.439 159.983 688.468 161.233 686.304C162.482 684.14 156.825 678.401 147.703 672.087C148.208 666.982 145.76 661.814 141.028 659.082C136.268 656.334 130.528 656.82 126.353 659.858C116.758 655.417 109.383 653.57 108.171 655.669C106.959 657.768 112.245 663.231 120.888 669.319C120.341 674.456 122.79 679.673 127.552 682.422C132.286 685.155 137.988 684.69 142.157 681.697Z" fill="url(#paint25_linear_2404_188725)"/>
<path opacity="0.5" fill-rule="evenodd" clip-rule="evenodd" d="M490.726 537.696C500.753 542.438 508.552 544.467 509.801 542.303C511.05 540.14 505.393 534.4 496.271 528.086C496.776 522.981 494.328 517.813 489.596 515.081C484.836 512.333 479.096 512.819 474.921 515.857C465.326 511.416 457.951 509.569 456.739 511.668C455.528 513.767 460.813 519.23 469.456 525.318C468.909 530.455 471.359 535.672 476.121 538.422C480.854 541.155 486.557 540.689 490.726 537.696Z" fill="url(#paint26_linear_2404_188725)"/>
<path opacity="0.5" fill-rule="evenodd" clip-rule="evenodd" d="M165.654 923.4C180.678 930.505 192.363 933.545 194.234 930.303C196.106 927.062 187.63 918.462 173.963 909.002C174.72 901.353 171.052 893.609 163.962 889.516C156.83 885.398 148.23 886.127 141.974 890.68C127.599 884.025 116.549 881.259 114.733 884.404C112.918 887.548 120.837 895.733 133.787 904.855C132.968 912.551 136.638 920.367 143.772 924.487C150.864 928.581 159.407 927.884 165.654 923.4Z" fill="url(#paint27_linear_2404_188725)"/>
<path opacity="0.5" fill-rule="evenodd" clip-rule="evenodd" d="M371.294 852.48C386.319 859.585 398.003 862.625 399.875 859.383C401.746 856.142 393.271 847.542 379.604 838.082C380.361 830.433 376.693 822.69 369.603 818.596C362.471 814.479 353.87 815.207 347.615 819.76C333.239 813.106 322.19 810.339 320.374 813.484C318.559 816.628 326.478 824.813 339.427 833.935C338.609 841.631 342.278 849.447 349.413 853.567C356.505 857.661 365.048 856.964 371.294 852.48Z" fill="url(#paint28_linear_2404_188725)"/>
<path opacity="0.5" fill-rule="evenodd" clip-rule="evenodd" d="M332.295 739.105C339.433 742.481 344.985 743.925 345.874 742.385C346.763 740.845 342.736 736.759 336.243 732.264C336.602 728.63 334.86 724.95 331.491 723.006C328.102 721.049 324.016 721.395 321.044 723.559C314.214 720.397 308.964 719.082 308.101 720.577C307.238 722.071 311.001 725.96 317.154 730.294C316.765 733.95 318.508 737.664 321.898 739.621C325.268 741.566 329.327 741.235 332.295 739.105Z" fill="url(#paint29_linear_2404_188725)"/>
<path opacity="0.5" fill-rule="evenodd" clip-rule="evenodd" d="M98.7329 757.528C104.778 760.386 109.479 761.609 110.232 760.305C110.985 759.001 107.575 755.541 102.076 751.735C102.381 748.657 100.905 745.542 98.0525 743.895C95.1829 742.238 91.7226 742.531 89.2058 744.363C83.422 741.686 78.9763 740.573 78.2458 741.838C77.5154 743.103 80.7017 746.396 85.9117 750.066C85.5824 753.163 87.0587 756.307 89.9293 757.965C92.7825 759.612 96.2198 759.332 98.7329 757.528Z" fill="url(#paint30_linear_2404_188725)"/>
<path opacity="0.5" fill-rule="evenodd" clip-rule="evenodd" d="M151.409 516.723C157.454 519.582 162.155 520.805 162.908 519.5C163.661 518.196 160.251 514.736 154.752 510.93C155.056 507.853 153.581 504.737 150.728 503.09C147.859 501.434 144.398 501.727 141.882 503.558C136.098 500.881 131.652 499.768 130.922 501.033C130.191 502.298 133.378 505.592 138.587 509.262C138.258 512.358 139.735 515.503 142.605 517.16C145.458 518.807 148.896 518.527 151.409 516.723Z" fill="url(#paint31_linear_2404_188725)"/>
<path opacity="0.5" fill-rule="evenodd" clip-rule="evenodd" d="M417.83 616.884C426.951 610.571 432.607 604.832 431.358 602.668C430.108 600.505 422.309 602.534 412.28 607.277C408.112 604.287 402.412 603.823 397.68 606.555C392.92 609.303 390.471 614.517 391.015 619.652C382.371 625.741 377.084 631.205 378.296 633.303C379.508 635.402 386.882 633.556 396.476 629.115C400.651 632.157 406.394 632.645 411.156 629.895C415.889 627.162 418.338 621.991 417.83 616.884Z" fill="url(#paint32_linear_2404_188725)"/>
<path opacity="0.5" fill-rule="evenodd" clip-rule="evenodd" d="M51.358 841.66C57.9327 837.109 62.0099 832.972 61.1094 831.412C60.2089 829.853 54.5865 831.315 47.3567 834.734C44.3515 832.579 40.2426 832.245 36.8316 834.214C33.4001 836.195 31.6345 839.954 32.0264 843.656C25.7943 848.045 21.9827 851.985 22.8563 853.498C23.7298 855.011 29.0462 853.68 35.9629 850.478C38.9731 852.671 43.1133 853.023 46.5465 851.041C49.9591 849.07 51.7241 845.342 51.358 841.66Z" fill="url(#paint33_linear_2404_188725)"/>
<circle opacity="0.5" r="21.5" transform="matrix(0.866025 -0.5 -0.5 -0.866025 509.6 637.5)" fill="url(#paint34_linear_2404_188725)"/>
<circle opacity="0.5" r="21.5" transform="matrix(0.866025 -0.5 -0.5 -0.866025 64.3695 458.37)" fill="url(#paint35_linear_2404_188725)"/>
<circle opacity="0.5" r="21.5" transform="matrix(0.866025 -0.5 -0.5 -0.866025 154.6 834.371)" fill="url(#paint36_linear_2404_188725)"/>
<circle opacity="0.5" r="14.3716" transform="matrix(0.866025 -0.5 -0.5 -0.866025 275.774 659.806)" fill="url(#paint37_linear_2404_188725)"/>
<circle opacity="0.5" r="10.2066" transform="matrix(0.866025 -0.5 -0.5 -0.866025 194.376 588.151)" fill="url(#paint38_linear_2404_188725)"/>
<circle opacity="0.5" r="10.2066" transform="matrix(0.866025 -0.5 -0.5 -0.866025 240.943 448.942)" fill="url(#paint39_linear_2404_188725)"/>
<circle opacity="0.5" r="10.2066" transform="matrix(0.866025 -0.5 -0.5 -0.866025 456.027 775.943)" fill="url(#paint40_linear_2404_188725)"/>
<circle opacity="0.5" r="10.2066" transform="matrix(0.866025 -0.5 -0.5 -0.866025 64.1577 540.943)" fill="url(#paint41_linear_2404_188725)"/>
<circle opacity="0.5" r="10.2066" transform="matrix(0.866025 -0.5 -0.5 -0.866025 262.027 781.943)" fill="url(#paint42_linear_2404_188725)"/>
<circle opacity="0.5" r="10.2066" transform="matrix(0.866025 -0.5 -0.5 -0.866025 525.027 847.943)" fill="url(#paint43_linear_2404_188725)"/>
<circle opacity="0.5" r="4.51566" transform="matrix(0.866025 -0.5 -0.5 -0.866025 189.799 843.169)" fill="url(#paint44_linear_2404_188725)"/>
<circle opacity="0.5" r="10.2066" transform="matrix(0.866025 -0.5 -0.5 -0.866025 401.027 711.943)" fill="url(#paint45_linear_2404_188725)"/>
</g>
<defs>
<linearGradient id="paint0_linear_2404_188725" x1="275.451" y1="93.0416" x2="260.968" y2="68.0001" gradientUnits="userSpaceOnUse">
<stop stop-color="#0E0F13"/>
<stop offset="1" stop-color="#1D1E25"/>
</linearGradient>
<linearGradient id="paint1_linear_2404_188725" x1="73.5812" y1="283.042" x2="59.0977" y2="258" gradientUnits="userSpaceOnUse">
<stop stop-color="#0E0F13"/>
<stop offset="1" stop-color="#1D1E25"/>
</linearGradient>
<linearGradient id="paint2_linear_2404_188725" x1="457.58" y1="209.042" x2="443.097" y2="184" gradientUnits="userSpaceOnUse">
<stop stop-color="#0E0F13"/>
<stop offset="1" stop-color="#1D1E25"/>
</linearGradient>
<linearGradient id="paint3_linear_2404_188725" x1="439.948" y1="449.421" x2="418.248" y2="411.903" gradientUnits="userSpaceOnUse">
<stop stop-color="#0E0F13"/>
<stop offset="1" stop-color="#1D1E25"/>
</linearGradient>
<linearGradient id="paint4_linear_2404_188725" x1="234.308" y1="378.502" x2="212.607" y2="340.983" gradientUnits="userSpaceOnUse">
<stop stop-color="#0E0F13"/>
<stop offset="1" stop-color="#1D1E25"/>
</linearGradient>
<linearGradient id="paint5_linear_2404_188725" x1="264.052" y1="267.214" x2="253.742" y2="249.388" gradientUnits="userSpaceOnUse">
<stop stop-color="#0E0F13"/>
<stop offset="1" stop-color="#1D1E25"/>
</linearGradient>
<linearGradient id="paint6_linear_2404_188725" x1="496.33" y1="285.926" x2="487.6" y2="270.831" gradientUnits="userSpaceOnUse">
<stop stop-color="#0E0F13"/>
<stop offset="1" stop-color="#1D1E25"/>
</linearGradient>
<linearGradient id="paint7_linear_2404_188725" x1="443.655" y1="45.1221" x2="434.924" y2="30.0269" gradientUnits="userSpaceOnUse">
<stop stop-color="#0E0F13"/>
<stop offset="1" stop-color="#1D1E25"/>
</linearGradient>
<linearGradient id="paint8_linear_2404_188725" x1="178.323" y1="155.749" x2="192.767" y2="130.686" gradientUnits="userSpaceOnUse">
<stop stop-color="#0E0F13"/>
<stop offset="1" stop-color="#1D1E25"/>
</linearGradient>
<linearGradient id="paint9_linear_2404_188725" x1="542.511" y1="378.052" x2="552.925" y2="359.983" gradientUnits="userSpaceOnUse">
<stop stop-color="#0E0F13"/>
<stop offset="1" stop-color="#1D1E25"/>
</linearGradient>
<linearGradient id="paint10_linear_2404_188725" x1="78.5734" y1="152.932" x2="78.6548" y2="199.086" gradientUnits="userSpaceOnUse">
<stop stop-color="#0E0F13"/>
<stop offset="1" stop-color="#1D1E25"/>
</linearGradient>
<linearGradient id="paint11_linear_2404_188725" x1="433.573" y1="349.802" x2="433.655" y2="395.956" gradientUnits="userSpaceOnUse">
<stop stop-color="#0E0F13"/>
<stop offset="1" stop-color="#1D1E25"/>
</linearGradient>
<linearGradient id="paint12_linear_2404_188725" x1="296.573" y1="470.802" x2="296.655" y2="516.956" gradientUnits="userSpaceOnUse">
<stop stop-color="#0E0F13"/>
<stop offset="1" stop-color="#1D1E25"/>
</linearGradient>
<linearGradient id="paint13_linear_2404_188725" x1="312.332" y1="180.067" x2="312.386" y2="210.919" gradientUnits="userSpaceOnUse">
<stop stop-color="#0E0F13"/>
<stop offset="1" stop-color="#1D1E25"/>
</linearGradient>
<linearGradient id="paint14_linear_2404_188725" x1="393.688" y1="111.235" x2="393.727" y2="133.145" gradientUnits="userSpaceOnUse">
<stop stop-color="#0E0F13"/>
<stop offset="1" stop-color="#1D1E25"/>
</linearGradient>
<linearGradient id="paint15_linear_2404_188725" x1="132.039" y1="299.027" x2="132.078" y2="320.937" gradientUnits="userSpaceOnUse">
<stop stop-color="#0E0F13"/>
<stop offset="1" stop-color="#1D1E25"/>
</linearGradient>
<linearGradient id="paint16_linear_2404_188725" x1="523.908" y1="64.0265" x2="523.947" y2="85.9371" gradientUnits="userSpaceOnUse">
<stop stop-color="#0E0F13"/>
<stop offset="1" stop-color="#1D1E25"/>
</linearGradient>
<linearGradient id="paint17_linear_2404_188725" x1="326.039" y1="305.027" x2="326.078" y2="326.937" gradientUnits="userSpaceOnUse">
<stop stop-color="#0E0F13"/>
<stop offset="1" stop-color="#1D1E25"/>
</linearGradient>
<linearGradient id="paint18_linear_2404_188725" x1="63.039" y1="371.027" x2="63.0776" y2="392.937" gradientUnits="userSpaceOnUse">
<stop stop-color="#0E0F13"/>
<stop offset="1" stop-color="#1D1E25"/>
</linearGradient>
<linearGradient id="paint19_linear_2404_188725" x1="398.212" y1="370.109" x2="398.23" y2="379.803" gradientUnits="userSpaceOnUse">
<stop stop-color="#0E0F13"/>
<stop offset="1" stop-color="#1D1E25"/>
</linearGradient>
<linearGradient id="paint20_linear_2404_188725" x1="469.212" y1="453.109" x2="469.23" y2="462.803" gradientUnits="userSpaceOnUse">
<stop stop-color="#0E0F13"/>
<stop offset="1" stop-color="#1D1E25"/>
</linearGradient>
<linearGradient id="paint21_linear_2404_188725" x1="187.039" y1="235.026" x2="187.078" y2="256.937" gradientUnits="userSpaceOnUse">
<stop stop-color="#0E0F13"/>
<stop offset="1" stop-color="#1D1E25"/>
</linearGradient>
<linearGradient id="paint22_linear_2404_188725" x1="136.039" y1="430.027" x2="136.078" y2="451.937" gradientUnits="userSpaceOnUse">
<stop stop-color="#0E0F13"/>
<stop offset="1" stop-color="#1D1E25"/>
</linearGradient>
<linearGradient id="paint23_linear_2404_188725" x1="312.517" y1="563.042" x2="327.001" y2="538.001" gradientUnits="userSpaceOnUse">
<stop stop-color="#0E0F13"/>
<stop offset="1" stop-color="#1D1E25"/>
</linearGradient>
<linearGradient id="paint24_linear_2404_188725" x1="514.388" y1="753.043" x2="528.871" y2="728.001" gradientUnits="userSpaceOnUse">
<stop stop-color="#0E0F13"/>
<stop offset="1" stop-color="#1D1E25"/>
</linearGradient>
<linearGradient id="paint25_linear_2404_188725" x1="130.388" y1="679.042" x2="144.871" y2="654.001" gradientUnits="userSpaceOnUse">
<stop stop-color="#0E0F13"/>
<stop offset="1" stop-color="#1D1E25"/>
</linearGradient>
<linearGradient id="paint26_linear_2404_188725" x1="478.956" y1="535.042" x2="493.439" y2="510" gradientUnits="userSpaceOnUse">
<stop stop-color="#0E0F13"/>
<stop offset="1" stop-color="#1D1E25"/>
</linearGradient>
<linearGradient id="paint27_linear_2404_188725" x1="148.02" y1="919.422" x2="169.721" y2="881.904" gradientUnits="userSpaceOnUse">
<stop stop-color="#0E0F13"/>
<stop offset="1" stop-color="#1D1E25"/>
</linearGradient>
<linearGradient id="paint28_linear_2404_188725" x1="353.661" y1="848.503" x2="375.361" y2="810.984" gradientUnits="userSpaceOnUse">
<stop stop-color="#0E0F13"/>
<stop offset="1" stop-color="#1D1E25"/>
</linearGradient>
<linearGradient id="paint29_linear_2404_188725" x1="323.917" y1="737.215" x2="334.227" y2="719.389" gradientUnits="userSpaceOnUse">
<stop stop-color="#0E0F13"/>
<stop offset="1" stop-color="#1D1E25"/>
</linearGradient>
<linearGradient id="paint30_linear_2404_188725" x1="91.6384" y1="755.927" x2="100.369" y2="740.832" gradientUnits="userSpaceOnUse">
<stop stop-color="#0E0F13"/>
<stop offset="1" stop-color="#1D1E25"/>
</linearGradient>
<linearGradient id="paint31_linear_2404_188725" x1="144.314" y1="515.123" x2="153.045" y2="500.027" gradientUnits="userSpaceOnUse">
<stop stop-color="#0E0F13"/>
<stop offset="1" stop-color="#1D1E25"/>
</linearGradient>
<linearGradient id="paint32_linear_2404_188725" x1="409.646" y1="625.75" x2="395.201" y2="600.686" gradientUnits="userSpaceOnUse">
<stop stop-color="#0E0F13"/>
<stop offset="1" stop-color="#1D1E25"/>
</linearGradient>
<linearGradient id="paint33_linear_2404_188725" x1="45.4574" y1="848.053" x2="35.0439" y2="829.984" gradientUnits="userSpaceOnUse">
<stop stop-color="#0E0F13"/>
<stop offset="1" stop-color="#1D1E25"/>
</linearGradient>
<linearGradient id="paint34_linear_2404_188725" x1="21.7047" y1="6.93202" x2="21.786" y2="53.0864" gradientUnits="userSpaceOnUse">
<stop stop-color="#0E0F13"/>
<stop offset="1" stop-color="#1D1E25"/>
</linearGradient>
<linearGradient id="paint35_linear_2404_188725" x1="21.7047" y1="6.93202" x2="21.786" y2="53.0864" gradientUnits="userSpaceOnUse">
<stop stop-color="#0E0F13"/>
<stop offset="1" stop-color="#1D1E25"/>
</linearGradient>
<linearGradient id="paint36_linear_2404_188725" x1="21.7047" y1="6.93202" x2="21.786" y2="53.0864" gradientUnits="userSpaceOnUse">
<stop stop-color="#0E0F13"/>
<stop offset="1" stop-color="#1D1E25"/>
</linearGradient>
<linearGradient id="paint37_linear_2404_188725" x1="14.5084" y1="4.63367" x2="14.5628" y2="35.4853" gradientUnits="userSpaceOnUse">
<stop stop-color="#0E0F13"/>
<stop offset="1" stop-color="#1D1E25"/>
</linearGradient>
<linearGradient id="paint38_linear_2404_188725" x1="10.3038" y1="3.29081" x2="10.3424" y2="25.2015" gradientUnits="userSpaceOnUse">
<stop stop-color="#0E0F13"/>
<stop offset="1" stop-color="#1D1E25"/>
</linearGradient>
<linearGradient id="paint39_linear_2404_188725" x1="10.3038" y1="3.29081" x2="10.3424" y2="25.2015" gradientUnits="userSpaceOnUse">
<stop stop-color="#0E0F13"/>
<stop offset="1" stop-color="#1D1E25"/>
</linearGradient>
<linearGradient id="paint40_linear_2404_188725" x1="10.3038" y1="3.29081" x2="10.3424" y2="25.2015" gradientUnits="userSpaceOnUse">
<stop stop-color="#0E0F13"/>
<stop offset="1" stop-color="#1D1E25"/>
</linearGradient>
<linearGradient id="paint41_linear_2404_188725" x1="10.3038" y1="3.29081" x2="10.3424" y2="25.2015" gradientUnits="userSpaceOnUse">
<stop stop-color="#0E0F13"/>
<stop offset="1" stop-color="#1D1E25"/>
</linearGradient>
<linearGradient id="paint42_linear_2404_188725" x1="10.3038" y1="3.29081" x2="10.3424" y2="25.2015" gradientUnits="userSpaceOnUse">
<stop stop-color="#0E0F13"/>
<stop offset="1" stop-color="#1D1E25"/>
</linearGradient>
<linearGradient id="paint43_linear_2404_188725" x1="10.3038" y1="3.29081" x2="10.3424" y2="25.2015" gradientUnits="userSpaceOnUse">
<stop stop-color="#0E0F13"/>
<stop offset="1" stop-color="#1D1E25"/>
</linearGradient>
<linearGradient id="paint44_linear_2404_188725" x1="4.55866" y1="1.45594" x2="4.57574" y2="11.1498" gradientUnits="userSpaceOnUse">
<stop stop-color="#0E0F13"/>
<stop offset="1" stop-color="#1D1E25"/>
</linearGradient>
<linearGradient id="paint45_linear_2404_188725" x1="10.3038" y1="3.29081" x2="10.3424" y2="25.2015" gradientUnits="userSpaceOnUse">
<stop stop-color="#0E0F13"/>
<stop offset="1" stop-color="#1D1E25"/>
</linearGradient>
<clipPath id="clip0_2404_188725">
<rect width="584" height="869" fill="white"/>
</clipPath>
</defs>
</svg>
