<svg width="139" height="82" viewBox="0 0 139 82" fill="none" xmlns="http://www.w3.org/2000/svg">
<mask id="path-1-inside-1_2403_186849" fill="white">
<path fill-rule="evenodd" clip-rule="evenodd" d="M17.1832 0C8.23036 0 0.972656 7.25771 0.972656 16.2105V54.5263C0.972656 63.4791 8.23035 70.7368 17.1832 70.7368H55.4838C55.4889 70.7369 55.4939 70.7369 55.499 70.7369H57.9839C59.2055 70.7369 60.3587 71.3009 61.1087 72.2652L66.746 79.5132C68.5161 81.7889 71.9556 81.7889 73.7256 79.5132L79.6601 71.8831C80.2226 71.1599 81.0875 70.7369 82.0037 70.7369H83.499C83.504 70.7369 83.5091 70.7369 83.5141 70.7368H121.815C130.768 70.7368 138.025 63.4791 138.025 54.5263V16.2105C138.025 7.2577 130.768 0 121.815 0H17.1832Z"/>
</mask>
<path fill-rule="evenodd" clip-rule="evenodd" d="M17.1832 0C8.23036 0 0.972656 7.25771 0.972656 16.2105V54.5263C0.972656 63.4791 8.23035 70.7368 17.1832 70.7368H55.4838C55.4889 70.7369 55.4939 70.7369 55.499 70.7369H57.9839C59.2055 70.7369 60.3587 71.3009 61.1087 72.2652L66.746 79.5132C68.5161 81.7889 71.9556 81.7889 73.7256 79.5132L79.6601 71.8831C80.2226 71.1599 81.0875 70.7369 82.0037 70.7369H83.499C83.504 70.7369 83.5091 70.7369 83.5141 70.7368H121.815C130.768 70.7368 138.025 63.4791 138.025 54.5263V16.2105C138.025 7.2577 130.768 0 121.815 0H17.1832Z" fill="#ED4700" fill-opacity="0.1"/>
<path d="M55.4838 70.7368L55.5579 63.7372L55.5209 63.7368H55.4838V70.7368ZM61.1087 72.2652L66.6341 67.9676L66.6341 67.9676L61.1087 72.2652ZM66.746 79.5132L61.2206 83.8108H61.2206L66.746 79.5132ZM73.7256 79.5132L68.2001 75.2156L68.2001 75.2157L73.7256 79.5132ZM79.6601 71.8831L85.1856 76.1807L85.1856 76.1807L79.6601 71.8831ZM83.5141 70.7368V63.7368H83.4771L83.44 63.7372L83.5141 70.7368ZM7.97266 16.2105C7.97266 11.1237 12.0964 7 17.1832 7V-7C4.36436 -7 -6.02734 3.39172 -6.02734 16.2105H7.97266ZM7.97266 54.5263V16.2105H-6.02734V54.5263H7.97266ZM17.1832 63.7368C12.0963 63.7368 7.97266 59.6132 7.97266 54.5263H-6.02734C-6.02734 67.3451 4.36435 77.7368 17.1832 77.7368V63.7368ZM55.4838 63.7368H17.1832V77.7368H55.4838V63.7368ZM55.499 63.7369C55.5149 63.7369 55.5348 63.737 55.5579 63.7372L55.4098 77.7365C55.4429 77.7368 55.4729 77.7369 55.499 77.7369V63.7369ZM57.9839 63.7369H55.499V77.7369H57.9839V63.7369ZM66.6341 67.9676C64.558 65.2982 61.3657 63.7369 57.9839 63.7369V77.7369C57.0454 77.7369 56.1594 77.3036 55.5832 76.5628L66.6341 67.9676ZM72.2715 75.2156L66.6341 67.9676L55.5832 76.5628L61.2206 83.8108L72.2715 75.2156ZM68.2001 75.2157C69.2326 73.8881 71.239 73.8882 72.2715 75.2156L61.2206 83.8108C65.7931 89.6897 74.6785 89.6898 79.2511 83.8108L68.2001 75.2157ZM74.1347 67.5855L68.2001 75.2156L79.251 83.8108L85.1856 76.1807L74.1347 67.5855ZM82.0037 63.7369C78.9273 63.7369 76.0233 65.1572 74.1346 67.5855L85.1856 76.1807C84.4219 77.1626 83.2476 77.7369 82.0037 77.7369V63.7369ZM83.499 63.7369H82.0037V77.7369H83.499V63.7369ZM83.44 63.7372C83.4631 63.737 83.483 63.7369 83.499 63.7369V77.7369C83.525 77.7369 83.555 77.7368 83.5882 77.7365L83.44 63.7372ZM121.815 63.7368H83.5141V77.7368H121.815V63.7368ZM131.025 54.5263C131.025 59.6131 126.902 63.7368 121.815 63.7368V77.7368C134.634 77.7368 145.025 67.3451 145.025 54.5263H131.025ZM131.025 16.2105V54.5263H145.025V16.2105H131.025ZM121.815 7C126.902 7 131.025 11.1237 131.025 16.2105H145.025C145.025 3.39171 134.634 -7 121.815 -7V7ZM17.1832 7H121.815V-7H17.1832V7Z" fill="#ED4700" fill-opacity="0.2" mask="url(#path-1-inside-1_2403_186849)"/>
</svg>
