<svg width="139" height="82" viewBox="0 0 139 82" fill="none" xmlns="http://www.w3.org/2000/svg">
<mask id="path-1-inside-1_2403_186199" fill="white">
<path fill-rule="evenodd" clip-rule="evenodd" d="M17.1824 0C8.22956 0 0.971863 7.25771 0.971863 16.2105V54.5263C0.971863 63.4791 8.22956 70.7368 17.1824 70.7368H55.483C55.4881 70.7369 55.4931 70.7369 55.4982 70.7369H57.9831C59.2047 70.7369 60.3579 71.3009 61.1079 72.2652L66.7453 79.5132C68.5153 81.7889 71.9548 81.7889 73.7248 79.5132L79.6593 71.8831C80.2218 71.1599 81.0867 70.7369 82.0029 70.7369H83.4982C83.5032 70.7369 83.5083 70.7369 83.5133 70.7368H121.814C130.767 70.7368 138.024 63.4791 138.024 54.5263V16.2105C138.024 7.2577 130.767 0 121.814 0H17.1824Z"/>
</mask>
<path fill-rule="evenodd" clip-rule="evenodd" d="M17.1824 0C8.22956 0 0.971863 7.25771 0.971863 16.2105V54.5263C0.971863 63.4791 8.22956 70.7368 17.1824 70.7368H55.483C55.4881 70.7369 55.4931 70.7369 55.4982 70.7369H57.9831C59.2047 70.7369 60.3579 71.3009 61.1079 72.2652L66.7453 79.5132C68.5153 81.7889 71.9548 81.7889 73.7248 79.5132L79.6593 71.8831C80.2218 71.1599 81.0867 70.7369 82.0029 70.7369H83.4982C83.5032 70.7369 83.5083 70.7369 83.5133 70.7368H121.814C130.767 70.7368 138.024 63.4791 138.024 54.5263V16.2105C138.024 7.2577 130.767 0 121.814 0H17.1824Z" fill="#7BD245" fill-opacity="0.1"/>
<path d="M55.483 70.7368L55.5571 63.7372L55.5201 63.7368H55.483V70.7368ZM61.1079 72.2652L66.6333 67.9676L66.6333 67.9676L61.1079 72.2652ZM66.7453 79.5132L61.2198 83.8108H61.2198L66.7453 79.5132ZM73.7248 79.5132L68.1993 75.2156L68.1993 75.2157L73.7248 79.5132ZM79.6593 71.8831L85.1848 76.1807L85.1848 76.1807L79.6593 71.8831ZM83.5133 70.7368V63.7368H83.4763L83.4392 63.7372L83.5133 70.7368ZM7.97186 16.2105C7.97186 11.1237 12.0956 7 17.1824 7V-7C4.36357 -7 -6.02814 3.39172 -6.02814 16.2105H7.97186ZM7.97186 54.5263V16.2105H-6.02814V54.5263H7.97186ZM17.1824 63.7368C12.0956 63.7368 7.97186 59.6132 7.97186 54.5263H-6.02814C-6.02814 67.3451 4.36356 77.7368 17.1824 77.7368V63.7368ZM55.483 63.7368H17.1824V77.7368H55.483V63.7368ZM55.4982 63.7369C55.5141 63.7369 55.534 63.737 55.5571 63.7372L55.409 77.7365C55.4421 77.7368 55.4721 77.7369 55.4982 77.7369V63.7369ZM57.9831 63.7369H55.4982V77.7369H57.9831V63.7369ZM66.6333 67.9676C64.5572 65.2982 61.3649 63.7369 57.9831 63.7369V77.7369C57.0446 77.7369 56.1586 77.3036 55.5824 76.5628L66.6333 67.9676ZM72.2707 75.2156L66.6333 67.9676L55.5824 76.5628L61.2198 83.8108L72.2707 75.2156ZM68.1993 75.2157C69.2318 73.8881 71.2382 73.8882 72.2707 75.2156L61.2198 83.8108C65.7923 89.6897 74.6777 89.6898 79.2503 83.8108L68.1993 75.2157ZM74.1339 67.5855L68.1993 75.2156L79.2502 83.8108L85.1848 76.1807L74.1339 67.5855ZM82.0029 63.7369C78.9266 63.7369 76.0225 65.1572 74.1339 67.5855L85.1848 76.1807C84.4211 77.1626 83.2468 77.7369 82.0029 77.7369V63.7369ZM83.4982 63.7369H82.0029V77.7369H83.4982V63.7369ZM83.4392 63.7372C83.4623 63.737 83.4823 63.7369 83.4982 63.7369V77.7369C83.5242 77.7369 83.5542 77.7368 83.5875 77.7365L83.4392 63.7372ZM121.814 63.7368H83.5133V77.7368H121.814V63.7368ZM131.024 54.5263C131.024 59.6131 126.901 63.7368 121.814 63.7368V77.7368C134.633 77.7368 145.024 67.3451 145.024 54.5263H131.024ZM131.024 16.2105V54.5263H145.024V16.2105H131.024ZM121.814 7C126.901 7 131.024 11.1237 131.024 16.2105H145.024C145.024 3.39171 134.633 -7 121.814 -7V7ZM17.1824 7H121.814V-7H17.1824V7Z" fill="#7BD245" fill-opacity="0.2" mask="url(#path-1-inside-1_2403_186199)"/>
</svg>
