<?xml version="1.0" encoding="UTF-8"?>
<svg width="156px" height="15px" viewBox="0 0 156 15" version="1.1" xmlns="http://www.w3.org/2000/svg" xmlns:xlink="http://www.w3.org/1999/xlink">
    <title>logo</title>
    <g id="Page-1" stroke="none" stroke-width="1" fill="none" fill-rule="evenodd">
        <g id="logo" transform="translate(-0.000000, 0.176759)" fill="#6B6C77" fill-rule="nonzero">
            <path d="M9.20229,10.2605294 C9.13675,11.4002294 8.12738,12.1862294 6.98693,12.1076294 L3.99815,12.1076294 L3.99815,8.26928937 L6.71164,8.20378937 C8.20603,8.20378937 9.2154,8.98979937 9.2154,10.1950294 L9.2154,10.2605294 L9.20229,10.2605294 Z M8.78281,4.41783937 C8.70416,5.42654937 7.77345,6.13395937 6.77719,6.05535937 L3.99815,6.05535937 L3.99815,2.64931937 L6.56745,2.64931937 C7.8521,2.64931937 8.78281,3.35672937 8.78281,4.28683937 L8.78281,4.41783937 Z M9.70042,6.98546937 C11.1293,6.27806937 11.5619,5.55755937 11.5619,4.14273937 C11.5619,2.64931937 10.7753,1.36549937 9.42514,0.723599366 C8.70416,0.435389366 7.8521,0.369889366 5.42699,0.369889366 L0,0.369889366 L0,2.64931937 L1.07491,2.64931937 L1.07491,12.1207294 L0,12.1207294 L0,14.4001294 L7.49816,14.4001294 C10.2117,14.4001294 12.0731,12.8412294 12.0731,10.4832294 C12.2042,8.91119937 11.2079,7.48327937 9.70042,6.98546937 Z M16.2679,7.66667937 C16.4776,6.54006937 17.4608,5.62305937 18.6405,5.62305937 L18.7061,5.62305937 C19.8203,5.62305937 20.8035,6.54006937 20.8035,7.73217937 L16.2679,7.66667937 Z M16.1237,9.56622937 L23.6743,9.56622937 C23.7398,8.15138937 23.3203,6.81516937 22.6256,5.62305937 C21.7211,4.20823937 20.1743,3.43532937 18.5619,3.43532937 C15.6255,3.43532937 13.4626,5.76715937 13.4626,9.00289937 C13.4626,12.2386294 15.6255,14.5704294 18.5619,14.5704294 C21.0788,14.5704294 22.9664,13.1556294 23.4514,10.8369294 L20.7904,10.9024294 C20.5151,11.8194294 19.5975,12.5268294 18.6274,12.4482294 C18.1555,12.4613294 16.4121,12.3172294 16.1237,9.56622937 Z M35.8785,14.3870294 L37.4384,14.3870294 L37.4384,7.32607937 L32.5489,7.31297937 L32.5489,7.32607937 L32.4833,8.62298937 L35.8129,8.62298937 C35.8129,8.97669937 35.8129,9.35662937 35.7474,9.71032937 C35.3934,11.5443294 33.8335,12.9460294 31.9196,13.0246294 C29.5076,13.0246294 27.6724,10.5618294 27.6724,7.18197937 C27.6724,2.88511937 30.2155,1.40480937 31.9196,1.40480937 C33.047,1.47030937 34.1874,2.03360937 34.8953,2.95061937 C35.2492,3.44842937 35.5376,3.99863937 35.6687,4.62744937 L37.2286,4.62744937 L37.2286,0.369889366 L35.7474,0.369889366 L35.7474,2.40041937 C34.8953,0.920099366 33.3354,-0.0624136336 31.5657,0.00308736638 C28.3803,0.00308736638 25.8241,3.23882937 25.8241,7.32607937 C25.8241,11.4133294 28.3672,14.5704294 31.6312,14.5704294 C32.7586,14.5704294 33.899,14.1512294 34.8167,13.3783294 C35.2361,12.9591294 35.5901,12.5661294 35.8785,12.0683294 L35.8785,14.3870294 Z M46.1557,10.6273294 C45.9459,12.1731294 44.5826,13.2866294 43.0096,13.3652294 C41.8691,13.3652294 40.8598,12.5268294 40.7942,11.3347294 C40.7942,9.99852937 41.8691,9.44832937 45.1594,9.01599937 L46.1557,8.87189937 L46.1557,10.6273294 Z M46.1557,14.3870294 L49.2231,14.3870294 L49.0789,13.0901294 L47.5845,13.0901294 L47.5845,7.27367937 C47.5845,4.61433937 45.7231,3.63182937 43.5077,3.63182937 C42.5114,3.63182937 41.4365,3.90693937 40.65,4.54883937 C40.0077,5.11214937 39.5751,5.85885937 39.4309,6.69726937 L41.0695,6.69726937 C41.3579,5.29554937 42.1444,4.82394937 43.6388,4.82394937 C45.1463,4.82394937 46.0639,5.59685937 46.0639,6.78896937 L46.0639,7.83698937 L45.0676,7.90248937 C40.7811,8.32168937 38.9983,9.30422937 38.9983,11.3347294 L38.9983,11.5443294 C39.1425,13.2997294 40.7156,14.7014294 42.4983,14.5573294 C43.9927,14.5573294 45.4216,13.7713294 46.1426,12.4351294 L46.1426,14.3870294 L46.1557,14.3870294 Z M63.7475,14.3870294 L66.7101,14.3870294 L66.7101,13.0901294 L65.2288,13.0901294 L65.2288,6.33046937 C65.2288,4.49643937 64.3112,3.43532937 62.6988,3.43532937 C61.8599,3.43532937 61.0864,3.78903937 60.4441,4.35233937 C60.0246,4.77154937 59.7363,5.20384937 59.461,5.68855937 C59.1857,4.20823937 58.4123,3.42222937 56.9965,3.42222937 C55.0302,3.42222937 54.1126,4.98114937 53.6145,5.68855937 L53.549,3.61872937 L50.4553,3.61872937 L50.4553,4.91564937 L52.0021,4.91564937 L52.0021,13.0901294 L50.4553,13.0901294 L50.4553,14.3870294 L55.0302,14.3870294 L55.0302,13.0901294 L53.4834,13.0901294 L53.4834,7.81077937 C53.4834,6.82826937 54.6763,4.77154937 56.3018,4.77154937 C57.3636,4.77154937 57.8486,5.33484937 57.8486,6.68416937 L57.8486,14.3870294 L60.9423,14.3870294 L60.9423,13.0901294 L59.3823,13.0901294 L59.3823,7.67977937 C59.3823,6.90686937 60.3655,4.70604937 62.2007,4.70604937 C63.2494,4.70604937 63.7475,5.41344937 63.7475,6.89376937 L63.7475,14.3870294 Z M77.4592,8.96359937 C77.4592,11.5836294 76.3318,13.2080294 74.5097,13.2080294 C72.8187,13.0639294 71.4947,11.6491294 71.4947,9.89372937 L71.4292,8.05968937 C71.4292,6.50076937 72.976,4.81076745 74.5228,4.81076745 C76.2663,4.79774937 77.4592,6.35666937 77.4592,8.96359937 Z M79.1502,9.18629937 C79.1502,6.08155937 77.3281,3.61872937 74.9292,3.61872937 C73.1071,3.61872937 71.9011,5.15144937 71.4816,5.92435937 L71.4816,0.00308736638 L68.5322,0.00308736638 L68.5322,1.29999937 L69.9348,1.29999937 L69.9348,13.0901294 L68.4535,13.0901294 L68.4535,14.3870294 L71.4816,14.3870294 L71.4816,12.4351294 C72.1108,13.2866294 73.0285,14.5704294 74.9292,14.5704294 C77.1839,14.5704294 79.1502,12.0814294 79.1502,9.18629937 Z M79.9761,14.3870294 L84.5248,14.3870294 L84.5248,13.0901294 L83.109,13.0901294 L83.109,0.00308736638 L80.0547,0.00308736638 L80.0547,1.20829937 L81.5491,1.20829937 L81.5491,13.0901294 L79.9892,13.0901294 L79.9892,14.3870294 L79.9761,14.3870294 Z M87.5004,8.17758937 C87.5004,7.82388937 87.6446,7.47017937 87.7102,7.12957937 C88.0641,5.85885937 89.1915,4.95494937 90.5285,4.87634937 C91.1578,4.81084937 91.8001,5.08594937 92.2982,5.50515937 C93.0061,6.27806937 93.36,7.19507937 93.36,8.17758937 L87.5004,8.17758937 Z M87.4349,9.36972937 L95.1297,9.36972937 C95.1297,5.64925937 93.0192,3.60562937 90.3975,3.60562937 C87.7888,3.60562937 85.7439,5.98985937 85.7439,9.08149937 C85.7439,12.3172294 87.7888,14.5573294 90.6858,14.5573294 C92.0229,14.5573294 93.2289,13.9940294 94.0679,13.0115294 C94.4874,12.5137294 94.7758,12.0290294 94.92,11.4002294 L93.1634,11.4657294 C92.5997,12.7364294 91.8263,13.2866294 90.6203,13.2866294 C89.9124,13.2866294 89.2046,13.0115294 88.6409,12.5137294 C87.933,11.8325294 87.5791,10.9155294 87.4349,9.36972937 Z M105.001,9.21249937 L101.33,9.21249937 L103.165,2.97681937 L105.001,9.21249937 Z M106.626,14.3870294 L109.798,14.3870294 L109.798,12.1600294 L108.736,12.1600294 L104.869,0.369889366 L101.487,0.369889366 L97.6728,12.1600294 L96.611,12.1600294 L96.611,14.3870294 L99.8619,14.3870294 L100.78,11.3478294 L105.721,11.3478294 L106.626,14.3870294 Z M124.414,5.66235937 L125.332,5.66235937 L125.332,3.61872937 L121.098,3.61872937 L121.098,5.66235937 L122.16,5.66235937 L120.744,11.9504294 L118.987,3.61872937 L116.235,3.61872937 L114.465,12.0945294 L112.997,5.66235937 L114.046,5.66235937 L114.046,3.61872937 L109.811,3.61872937 L109.811,5.66235937 L110.729,5.66235937 L113.049,14.3870294 L115.868,14.3870294 L117.559,6.91996937 L119.328,14.3870294 L122.147,14.3870294 L124.414,5.66235937 Z M132.883,10.4308294 C132.817,11.7015294 131.755,12.6840294 130.484,12.6840294 C129.422,12.6840294 128.714,12.1207294 128.714,11.2823294 C128.714,9.80202937 130.34,9.59242937 132.804,9.38282937 L132.87,9.38282937 L132.87,10.3653294 L132.87,10.4308294 L132.883,10.4308294 Z M132.961,14.3870294 L136.278,14.3870294 L136.278,12.3303294 L135.36,12.3303294 L135.426,7.33917937 C135.426,4.95494937 133.866,3.61872937 130.903,3.61872937 C128.36,3.61872937 126.669,4.95494937 126.525,7.06407937 L129.068,7.12957937 L129.068,7.06407937 C129.134,6.08155937 129.632,5.45274937 130.969,5.45274937 C132.306,5.45274937 132.87,5.95055937 132.87,7.56187937 C129.474,7.83698937 125.948,8.19068937 125.948,11.2823294 C125.948,13.1818294 127.574,14.5835294 129.697,14.5835294 C130.969,14.5835294 132.175,14.0857294 132.948,13.1163294 L132.948,14.3870294 L132.961,14.3870294 Z M143.933,5.93745937 C144.353,5.93745937 144.772,6.00295937 145.192,6.08155937 L145.192,3.57942937 C144.772,3.51392937 144.418,3.43532937 143.999,3.43532937 C142.806,3.43532937 142.033,4.01173937 141.338,5.37414937 L141.338,3.61872937 L137.759,3.61872937 L137.759,5.72785937 L138.808,5.72785937 L138.808,12.3303294 L137.759,12.3303294 L137.759,14.3870294 L142.662,14.3870294 L142.662,12.3303294 L141.403,12.3303294 L141.403,8.16448937 C141.482,6.86756937 142.596,5.87195937 143.933,5.93745937 Z M148.521,7.66667937 C148.731,6.54006937 149.714,5.62305937 150.894,5.62305937 L150.96,5.62305937 C152.074,5.62305937 153.057,6.54006937 153.057,7.73217937 L148.521,7.66667937 Z M148.443,9.56622937 L155.993,9.56622937 C156.059,8.15138937 155.639,6.81516937 154.945,5.62305937 C154.04,4.20823937 152.493,3.43532937 150.881,3.43532937 C147.945,3.43532937 145.769,5.76715937 145.769,9.00289937 C145.769,12.2386294 147.931,14.5704294 150.881,14.5704294 C153.398,14.5704294 155.285,13.1556294 155.77,10.8369294 L153.109,10.9024294 C152.834,11.8194294 151.916,12.5268294 150.946,12.4482294 C150.475,12.4613294 148.731,12.3172294 148.443,9.56622937 Z" id="Shape"></path>
        </g>
    </g>
</svg>