<?xml version="1.0" standalone="no"?>
<!DOCTYPE svg PUBLIC "-//W3C//DTD SVG 20010904//EN"
  "http://www.w3.org/TR/2001/REC-SVG-20010904/DTD/svg10.dtd">
<svg version="1.0" xmlns="http://www.w3.org/2000/svg"
     width="832.000000pt" height="832.000000pt" viewBox="0 0 832.000000 832.000000"
     preserveAspectRatio="xMidYMid meet">
  <metadata>
    Created by potrace 1.14, written by Peter Selinger 2001-2017
  </metadata>
  <g transform="translate(0.000000,832.000000) scale(0.100000,-0.100000)"
     fill="#FFD747" stroke="none">
    <path d="M2039 8296 c-31 -12 -70 -33 -88 -45 -34 -24 -85 -93 -101 -137 -6
-15 -112 -604 -236 -1308 -199 -1136 -268 -1527 -464 -2641 -621 -3530 -671
-3822 -666 -3874 10 -108 90 -216 194 -264 l47 -22 930 0 c924 0 930 0 976 21
94 44 159 122 184 222 8 31 96 523 195 1092 201 1147 195 1122 283 1193 84 69
155 87 337 87 229 0 336 -44 402 -167 14 -26 187 -543 383 -1148 196 -605 365
-1115 375 -1135 27 -53 88 -110 150 -139 l55 -26 910 0 910 0 56 26 c116 55
180 150 187 278 l4 76 -423 1210 c-421 1204 -424 1210 -424 1290 0 140 53 222
209 323 597 384 1006 894 1221 1522 128 374 189 734 189 1125 1 426 -63 722
-229 1060 -122 250 -254 431 -466 644 -399 399 -892 642 -1469 726 -230 33
-352 35 -1960 35 l-1615 0 -56 -24z m2938 -2181 c93 -18 202 -69 266 -126 67
-58 135 -158 166 -242 24 -67 26 -82 25 -237 -1 -144 -4 -177 -27 -265 -40
-151 -113 -288 -206 -387 -131 -139 -266 -218 -433 -252 -63 -13 -151 -16
-472 -16 -376 0 -398 1 -451 21 -112 42 -194 155 -202 278 -6 91 153 995 187
1061 40 80 116 145 200 171 14 4 215 8 447 8 334 1 438 -2 500 -14z"/>
  </g>
</svg>
