<?xml version="1.0" standalone="no"?>
<!DOCTYPE svg PUBLIC "-//W3C//DTD SVG 20010904//EN"
 "http://www.w3.org/TR/2001/REC-SVG-20010904/DTD/svg10.dtd">
<svg version="1.0" xmlns="http://www.w3.org/2000/svg"
 width="1734.000000pt" height="1734.000000pt" viewBox="0 0 1734.000000 1734.000000"
 preserveAspectRatio="xMidYMid meet">
<metadata>
Created by potrace 1.14, written by Peter Selinger 2001-2017
</metadata>
<g transform="translate(0.000000,1734.000000) scale(0.100000,-0.100000)"
fill="#000000" stroke="none">
<path d="M2785 17334 c-16 -2 -73 -9 -125 -15 -341 -38 -661 -131 -972 -284
-174 -85 -217 -110 -363 -208 -499 -334 -901 -835 -1120 -1397 -78 -201 -146
-457 -171 -645 -3 -22 -7 -51 -9 -65 -3 -14 -8 -63 -13 -110 -10 -115 -9
-11793 1 -11896 4 -45 10 -93 12 -105 2 -13 6 -40 9 -59 63 -421 226 -845 456
-1190 87 -130 102 -152 145 -206 251 -314 524 -550 873 -757 81 -48 350 -176
402 -192 14 -4 39 -13 55 -20 28 -13 213 -73 245 -80 8 -2 53 -13 100 -24 47
-11 103 -23 125 -26 22 -3 46 -8 54 -11 7 -2 34 -7 60 -10 25 -3 57 -7 71 -10
14 -2 61 -7 105 -12 106 -9 11777 -9 11880 1 133 12 166 17 280 38 596 109
1144 398 1575 829 115 116 176 185 261 295 277 362 484 821 563 1250 26 138
32 184 44 310 9 106 9 11754 -1 11870 -4 50 -9 106 -12 125 -9 58 -25 153 -30
180 -3 14 -7 37 -10 52 -20 106 -107 393 -149 493 -141 327 -252 516 -452 766
-202 254 -469 489 -769 677 -105 66 -372 201 -440 222 -22 7 -44 16 -50 20
-17 13 -293 100 -365 115 -107 23 -160 34 -185 38 -16 3 -41 7 -55 10 -14 3
-50 8 -80 12 -30 3 -68 8 -85 12 -30 7 -11803 13 -11860 7z"/>
</g>
</svg>
