<svg width="16" height="16" viewBox="0 0 16 16" fill="none" xmlns="http://www.w3.org/2000/svg">
  <path d="M13.9104 6.12023C13.6548 7.66938 12.892 8.84485 11.6226 9.64715C11.3967 9.78931 11.285 10.0736 11.3721 10.3326L12.7026 14.2704C12.7308 14.3526 12.7395 14.4405 12.7281 14.5269C12.7167 14.6133 12.6854 14.6956 12.6369 14.767C12.5884 14.8384 12.5241 14.8968 12.4493 14.9373C12.3745 14.9778 12.2914 14.9993 12.2069 15H9.48656C9.37528 14.9997 9.26693 14.9631 9.17705 14.8954C9.08717 14.8277 9.02036 14.7324 8.98621 14.6231L7.83993 10.9777C7.80584 10.8682 7.73899 10.7727 7.649 10.7049C7.559 10.637 7.45049 10.6004 7.33906 10.6002H6.9321C6.67696 10.6002 6.45888 10.7908 6.41401 11.0525L5.81922 14.5477C5.77435 14.8094 5.55626 15 5.3006 15H2.52649C2.44925 14.9995 2.37305 14.9816 2.30322 14.9476C2.23339 14.9135 2.17163 14.8641 2.12227 14.8028C2.07291 14.7415 2.03713 14.6697 2.01746 14.5927C1.99779 14.5156 1.9947 14.435 2.0084 14.3565L4.20442 1.45231C4.24877 1.19062 4.46738 1 4.72251 1H9.66291C11.0596 1 12.1803 1.48677 13.0261 2.45977C13.8718 3.41985 14.1666 4.64 13.911 6.12077L13.9104 6.12023ZM7.93176 4.67985C7.67663 4.67985 7.45802 4.87046 7.41367 5.13215L7.15801 6.63662C7.10062 6.97208 7.34897 7.28008 7.67611 7.28008H8.62568C8.99716 7.29354 9.31073 7.18639 9.56743 6.96023C9.83613 6.73354 10.0031 6.41315 10.0667 6.00015C10.1309 5.58662 10.0667 5.26677 9.87474 5.04008C9.69526 4.79992 9.41351 4.67985 9.02951 4.67985H7.93176V4.67985Z" fill="#FFD12F"/>
</svg>
