<svg width="19" height="18" viewBox="0 0 19 18" fill="none" xmlns="http://www.w3.org/2000/svg">
<path fill-rule="evenodd" clip-rule="evenodd" d="M16.9375 9C16.9375 9.55229 16.4975 10 15.9547 10L0.981088 10C0.438326 10 -0.00168426 9.55229 -0.00168423 9C-0.00168421 8.44772 0.438326 8.00001 0.981088 8.00001L15.9547 8C16.4975 8 16.9375 8.44772 16.9375 9Z" fill="#5C5D6F"/>
<path fill-rule="evenodd" clip-rule="evenodd" d="M8.73782 1.2961C9.09732 1.6802 9.08566 2.29097 8.71179 2.6603L2.29409 9L8.71179 15.3397C9.08566 15.709 9.09732 16.3198 8.73782 16.7039C8.37833 17.088 7.78382 17.1 7.40995 16.7307L0.288211 9.69548C0.104068 9.51357 5.92511e-07 9.26245 6.03983e-07 9C6.15455e-07 8.73755 0.104068 8.48643 0.288212 8.30452L7.40995 1.26935C7.78382 0.90002 8.37833 0.911996 8.73782 1.2961Z" fill="#5C5D6F"/>
</svg>
