<svg width="8" height="15" viewBox="0 0 8 15" fill="none" xmlns="http://www.w3.org/2000/svg">
<path d="M2.14224 15C2.29216 15.0005 2.44028 14.9675 2.57573 14.9035C2.71117 14.8395 2.83051 14.746 2.92495 14.63L7.77172 8.63C7.91931 8.45107 8 8.22662 8 7.995C8 7.76338 7.91931 7.53893 7.77172 7.36L2.75436 1.36C2.58403 1.15578 2.33927 1.02736 2.07393 1.00298C1.80859 0.9786 1.54439 1.06026 1.33946 1.23C1.13454 1.39974 1.00567 1.64365 0.981205 1.90808C0.95674 2.1725 1.03869 2.43578 1.20901 2.64L5.69453 8L1.35953 13.36C1.23683 13.5068 1.15888 13.6855 1.13492 13.8751C1.11096 14.0646 1.14198 14.257 1.22432 14.4296C1.30666 14.6021 1.43687 14.7475 1.59954 14.8486C1.76222 14.9497 1.95055 15.0022 2.14224 15Z" fill="white"/>
</svg>
