<svg width="11" height="12" viewBox="0 0 11 12" fill="none" xmlns="http://www.w3.org/2000/svg">
<g clip-path="url(#clip0_3403_9382)">
<path d="M10.9977 5.90398C11.0509 8.94172 8.62965 11.4458 5.59597 11.4978C2.55814 11.551 0.0541401 9.12993 0.00209619 6.09629C-0.0510903 3.05855 2.36593 0.555636 5.40376 0.502469C8.43633 0.446222 10.9445 2.86618 10.9977 5.90398Z" fill="url(#paint0_linear_3403_9382)"/>
<path d="M7.852 4.66021C7.7667 3.92683 7.12898 3.68845 6.32236 3.63323L6.30618 2.60997L5.6862 2.6204L5.704 3.61653C5.54042 3.62032 5.37269 3.62523 5.20608 3.63429L5.18717 2.634L4.56718 2.64443L4.58639 3.66243C4.44994 3.66785 4.31764 3.67216 4.18949 3.67536L4.18838 3.67121L3.32981 3.68774L3.34306 4.35145C3.34306 4.35145 3.8014 4.33541 3.79421 4.34178C4.04636 4.3365 4.13012 4.48309 4.15518 4.60983L4.17374 5.7748C4.19145 5.7745 4.21332 5.77309 4.24156 5.77887C4.21969 5.78028 4.19783 5.78169 4.17485 5.77895L4.20227 7.40864C4.19212 7.48698 4.14633 7.61491 3.97334 7.61678C3.97971 7.62397 3.52219 7.62645 3.52219 7.62645L3.41071 8.37252L4.2214 8.35993C4.37252 8.35947 4.51838 8.35598 4.66536 8.35663L4.68375 9.38819L5.30374 9.37776L5.28757 8.3545C5.45641 8.35375 5.62525 8.35299 5.78467 8.35031L5.80388 9.36831L6.42387 9.35788L6.40547 8.32632C7.45163 8.24618 8.17869 7.97129 8.24865 6.98723C8.30832 6.19721 7.93037 5.84919 7.33401 5.71539C7.69665 5.5248 7.91519 5.19489 7.852 4.66021ZM7.02015 6.88491C7.03519 7.65491 5.71042 7.59173 5.28943 7.59777L5.26537 6.22964C5.68636 6.2236 7.00867 6.07837 7.02015 6.88491ZM6.69898 4.95581C6.70979 5.66022 5.607 5.59539 5.25687 5.60024L5.23601 4.36026C5.58614 4.35541 6.68565 4.22539 6.69898 4.95581Z" fill="white"/>
</g>
<defs>
<linearGradient id="paint0_linear_3403_9382" x1="4.07271" y1="0.685799" x2="6.92011" y2="11.3125" gradientUnits="userSpaceOnUse">
<stop stop-color="#F9AA4B"/>
<stop offset="1" stop-color="#F7931A"/>
</linearGradient>
<clipPath id="clip0_3403_9382">
<rect width="11" height="11" fill="white" transform="translate(0 0.5)"/>
</clipPath>
</defs>
</svg>
