<svg width="14" height="14" viewBox="0 0 14 14" fill="none" xmlns="http://www.w3.org/2000/svg">
<path d="M1.99998 3.41426C1.60946 3.02374 1.60946 2.39057 1.99998 2.00005C2.39051 1.60952 3.02367 1.60952 3.4142 2.00005L12 10.5858C12.3906 10.9764 12.3906 11.6095 12 12.0001C11.6095 12.3906 10.9763 12.3906 10.5858 12.0001L1.99998 3.41426Z" fill="white"/>
<path d="M12 3.41414C12.3905 3.02361 12.3905 2.39045 12 1.99992C11.6095 1.6094 10.9763 1.6094 10.5858 1.99992L1.99994 10.5857C1.60942 10.9762 1.60942 11.6094 1.99994 11.9999C2.39047 12.3905 3.02363 12.3905 3.41415 11.9999L12 3.41414Z" fill="white"/>
</svg>
