<svg width="14" height="14" viewBox="0 0 14 14" fill="none" xmlns="http://www.w3.org/2000/svg">
<path d="M2.00008 3.4142C1.60955 3.02367 1.60955 2.39051 2.00008 1.99999C2.3906 1.60946 3.02376 1.60946 3.41429 1.99999L12.0001 10.5858C12.3906 10.9763 12.3906 11.6095 12.0001 12C11.6096 12.3905 10.9764 12.3905 10.5859 12L2.00008 3.4142Z" fill="white"/>
<path d="M11.9999 3.4142C12.3904 3.02367 12.3904 2.39051 11.9999 1.99999C11.6094 1.60946 10.9762 1.60946 10.5857 1.99999L1.99988 10.5858C1.60936 10.9763 1.60936 11.6095 1.99988 12C2.3904 12.3905 3.02357 12.3905 3.41409 12L11.9999 3.4142Z" fill="white"/>
</svg>
