<svg width="11" height="12" viewBox="0 0 11 12" fill="none" xmlns="http://www.w3.org/2000/svg">
<path d="M1.01702 7.33564C1.03384 7.39915 1.06307 7.4587 1.10302 7.51085C1.14298 7.56301 1.19286 7.60673 1.24981 7.6395L2.20599 8.19216V9.29297C2.20599 9.42574 2.25873 9.55307 2.35262 9.64694C2.4465 9.74082 2.57384 9.79356 2.70661 9.79356H3.80748L4.36016 10.7497C4.40448 10.8255 4.46776 10.8884 4.54378 10.9323C4.61979 10.9762 4.70592 10.9995 4.7937 11C4.88081 11 4.96741 10.977 5.04451 10.9324L5.99969 10.3803L6.95588 10.9329C7.07083 10.9992 7.20738 11.0172 7.33558 10.9829C7.46378 10.9487 7.57316 10.865 7.63972 10.7502L8.19191 9.79407H9.29277C9.42554 9.79407 9.55288 9.74132 9.64676 9.64744C9.74065 9.55357 9.79339 9.42624 9.79339 9.29347V8.19266L10.7496 7.64001C10.8065 7.60709 10.8564 7.56328 10.8965 7.51107C10.9365 7.45886 10.9658 7.39927 10.9828 7.33572C10.9997 7.27216 11.004 7.20589 10.9954 7.14068C10.9867 7.07548 10.9653 7.01261 10.9323 6.95569L10.3801 6.00006L10.9328 5.04492C10.9992 4.93001 11.0173 4.79341 10.983 4.66518C10.9488 4.53695 10.865 4.42758 10.7501 4.36111L9.79389 3.80845V2.70714C9.79389 2.57437 9.74115 2.44705 9.64726 2.35317C9.55338 2.25929 9.42605 2.20655 9.29327 2.20655H8.19241L7.64022 1.25091C7.57354 1.13623 7.46437 1.05243 7.33635 1.01763C7.27285 1.00042 7.20657 0.995981 7.14134 1.00457C7.07612 1.01317 7.01325 1.03462 6.95638 1.06769L5.99969 1.61985L5.04401 1.06719C4.92909 1.00077 4.79249 0.982705 4.66425 1.01697C4.53601 1.05123 4.42663 1.13502 4.36016 1.24991L3.80748 2.20605H2.70661C2.57384 2.20605 2.4465 2.25879 2.35262 2.35267C2.25873 2.44655 2.20599 2.57387 2.20599 2.70664V3.80745L1.24981 4.36011C1.13494 4.42686 1.05122 4.53641 1.01697 4.66477C0.982724 4.79312 1.00074 4.92982 1.06708 5.04492L1.61976 6.00006L1.06708 6.95519C1.00099 7.07049 0.983004 7.20718 1.01702 7.33564ZM5.99969 6.50065C4.25753 6.50065 3.99721 5.56003 3.99721 4.99887C3.99721 4.3546 4.51235 3.70583 5.49907 3.53963V3.00249H6.50031V3.55765C7.36839 3.7629 7.7018 4.48525 7.7018 4.99887H7.20118L6.70056 5.00788C6.69355 4.81765 6.59293 4.49827 5.99969 4.49827C5.34939 4.49827 4.99845 4.75608 4.99845 4.99887C4.99845 5.18609 4.99845 5.49946 5.99969 5.49946C7.74185 5.49946 8.00217 6.44008 8.00217 7.00125C8.00217 7.64551 7.48704 8.29428 6.50031 8.46048V9.00363H5.49907V8.46298C4.32812 8.27927 3.99721 7.46029 3.99721 7.00125H4.99845C5.00396 7.07283 5.07805 7.50184 5.99969 7.50184C6.69055 7.50184 7.00093 7.20899 7.00093 7.00125C7.00093 6.83855 7.00093 6.50065 5.99969 6.50065Z" fill="#7BD245"/>
</svg>
