<svg width="17" height="17" viewBox="0 0 17 17" fill="none" xmlns="http://www.w3.org/2000/svg">
<path d="M1.99194 10.9555L1.09472 14.8277C1.06377 14.9693 1.06483 15.1159 1.09782 15.257C1.13082 15.3981 1.19492 15.5301 1.28543 15.6432C1.37595 15.7564 1.49059 15.8478 1.621 15.911C1.7514 15.9742 1.89427 16.0074 2.03916 16.0083C2.10668 16.0151 2.17471 16.0151 2.24222 16.0083L6.13805 15.1111L13.6181 7.65939L9.44361 3.49438L1.99194 10.9555Z" fill="white"/>
<path d="M15.9697 3.92894L13.1836 1.14283C13.0005 0.960584 12.7526 0.858276 12.4942 0.858276C12.2358 0.858276 11.9879 0.960584 11.8047 1.14283L10.2559 2.69172L14.4256 6.86144L15.9745 5.31255C16.0651 5.22145 16.1369 5.11337 16.1857 4.9945C16.2346 4.87562 16.2595 4.74828 16.259 4.61977C16.2586 4.49126 16.2328 4.36409 16.1832 4.24555C16.1335 4.12701 16.061 4.01942 15.9697 3.92894Z" fill="white"/>
</svg>
