<svg width="13" height="13" viewBox="0 0 13 13" fill="none" xmlns="http://www.w3.org/2000/svg">
<path d="M11.4583 0.125H1.54167C0.755417 0.125 0.125 0.755417 0.125 1.54167V4.375H1.54167V1.54167H11.4583V11.4583H1.54167V8.625H0.125V11.4583C0.125 11.8341 0.274255 12.1944 0.539932 12.4601C0.805609 12.7257 1.16594 12.875 1.54167 12.875H11.4583C11.8341 12.875 12.1944 12.7257 12.4601 12.4601C12.7257 12.1944 12.875 11.8341 12.875 11.4583V1.54167C12.875 1.16594 12.7257 0.805609 12.4601 0.539932C12.1944 0.274255 11.8341 0.125 11.4583 0.125ZM5.14 9.03583L6.14583 10.0417L9.6875 6.5L6.14583 2.95833L5.14 3.95708L6.97458 5.79167H0.125V7.20833H6.97458L5.14 9.03583Z" fill="white"/>
</svg>
