<svg width="12" height="15" viewBox="0 0 12 15" fill="none" xmlns="http://www.w3.org/2000/svg">
<path d="M6.98 9.64H4.5V10.74H8.96V12.5H4.5V14.5H1.76V12.5H0.26V10.74H1.76V9.64H0.26V7.22H1.76V0.499999H6.98C8.3 0.499999 9.41333 0.953333 10.32 1.86C11.24 2.76667 11.7 3.86 11.7 5.14C11.7 6.42 11.2467 7.49333 10.34 8.36C9.44667 9.21333 8.32667 9.64 6.98 9.64ZM6.98 3.08H4.5V7.22H6.98C7.54 7.22 8.00667 7.02 8.38 6.62C8.76667 6.22 8.96 5.72667 8.96 5.14C8.96 4.55333 8.76667 4.06667 8.38 3.68C8.00667 3.28 7.54 3.08 6.98 3.08Z" fill="#6F6F6F"/>
</svg>
