<svg width="11" height="12" viewBox="0 0 11 12" fill="none" xmlns="http://www.w3.org/2000/svg">
<path d="M5.95817 1.875C5.10727 1.875 4.29122 2.21302 3.68954 2.8147C3.08786 3.41638 2.74984 4.23243 2.74984 5.08333C2.74984 5.93424 3.08786 6.75029 3.68954 7.35197C4.29122 7.95365 5.10727 8.29167 5.95817 8.29167C6.56596 8.29167 7.14885 8.05022 7.57862 7.62045C8.00839 7.19068 8.24984 6.60779 8.24984 6C8.24984 5.39221 8.00839 4.80932 7.57862 4.37955C7.14885 3.94978 6.56596 3.70833 5.95817 3.70833C5.5935 3.70833 5.24376 3.8532 4.9859 4.11106C4.72804 4.36892 4.58317 4.71866 4.58317 5.08333C4.58317 5.44801 4.72804 5.79774 4.9859 6.05561C5.24376 6.31347 5.5935 6.45833 5.95817 6.45833C6.07973 6.45833 6.19631 6.41004 6.28226 6.32409C6.36822 6.23814 6.4165 6.12156 6.4165 6C6.4165 5.87844 6.36822 5.76186 6.28226 5.67591C6.19631 5.58996 6.07973 5.54167 5.95817 5.54167C5.83661 5.54167 5.72003 5.49338 5.63408 5.40742C5.54813 5.32147 5.49984 5.20489 5.49984 5.08333C5.49984 4.96178 5.54813 4.8452 5.63408 4.75924C5.72003 4.67329 5.83661 4.625 5.95817 4.625C6.32284 4.625 6.67258 4.76987 6.93044 5.02773C7.18831 5.28559 7.33317 5.63533 7.33317 6C7.33317 6.36467 7.18831 6.71441 6.93044 6.97227C6.67258 7.23013 6.32284 7.375 5.95817 7.375C5.35038 7.375 4.76749 7.13356 4.33772 6.70379C3.90795 6.27402 3.6665 5.69112 3.6665 5.08333C3.6665 4.47555 3.90795 3.89265 4.33772 3.46288C4.76749 3.03311 5.35038 2.79167 5.95817 2.79167C6.80907 2.79167 7.62513 3.12969 8.2268 3.73137C8.82848 4.33304 9.1665 5.1491 9.1665 6C9.1665 6.8509 8.82848 7.66696 8.2268 8.26863C7.62513 8.87031 6.80907 9.20833 5.95817 9.20833C4.86415 9.20833 3.81494 8.77374 3.04136 8.00015C2.26777 7.22656 1.83317 6.17735 1.83317 5.08333C1.83317 4.96178 1.78488 4.8452 1.69893 4.75924C1.61297 4.67329 1.49639 4.625 1.37484 4.625C1.25328 4.625 1.1367 4.67329 1.05075 4.75924C0.964792 4.8452 0.916504 4.96178 0.916504 5.08333C0.916504 6.42047 1.44768 7.70283 2.39317 8.64833C3.33867 9.59383 4.62104 10.125 5.95817 10.125C7.05219 10.125 8.1014 9.6904 8.87499 8.91682C9.64857 8.14323 10.0832 7.09402 10.0832 6C10.0832 4.90598 9.64857 3.85677 8.87499 3.08318C8.1014 2.3096 7.05219 1.875 5.95817 1.875V1.875Z" fill="#F81AAC"/>
</svg>
