<svg width="11" height="12" viewBox="0 0 11 12" fill="none" xmlns="http://www.w3.org/2000/svg">
<path d="M6.85871 1.42954C6.67588 1.26192 6.43539 1.17136 6.18741 1.17674C5.93943 1.18212 5.7031 1.28303 5.52771 1.45841L0.97921 6.00691C0.889823 6.09629 0.818917 6.2024 0.770541 6.31918C0.722165 6.43596 0.697266 6.56113 0.697266 6.68754C0.697266 6.81394 0.722165 6.93911 0.770541 7.05589C0.818917 7.17267 0.889823 7.27878 0.97921 7.36816L1.61584 8.00479C1.8544 8.24335 2.19746 8.18629 2.39959 8.05085C2.54503 7.95417 2.71946 7.91082 2.89324 7.92815C3.06703 7.94548 3.22946 8.02243 3.35295 8.14592C3.47645 8.26941 3.55339 8.43184 3.57072 8.60563C3.58805 8.77941 3.5447 8.95384 3.44802 9.09929C3.31396 9.3021 3.25621 9.64516 3.49477 9.88372L4.11696 10.5059C4.20806 10.5971 4.31654 10.6691 4.43598 10.7175C4.55542 10.766 4.68338 10.79 4.81226 10.7881C4.94115 10.7861 5.06833 10.7583 5.18627 10.7063C5.30421 10.6543 5.4105 10.5792 5.49884 10.4853L10.035 5.66454C10.1224 5.57173 10.1905 5.46248 10.2354 5.34313C10.2802 5.22378 10.3009 5.09671 10.2962 4.96929C10.2916 4.84188 10.2616 4.71666 10.2082 4.60091C10.1547 4.48516 10.0788 4.38119 9.98477 4.29504L9.37565 3.73679C9.30863 3.67684 9.22857 3.63332 9.14182 3.6097C9.05506 3.58607 8.96399 3.58298 8.87584 3.60066C8.71977 3.62816 8.57196 3.71135 8.46471 3.82822C8.39758 3.90144 8.31669 3.96073 8.22666 4.00268C8.13662 4.04464 8.0392 4.06846 7.93996 4.07277C7.84072 4.07708 7.74161 4.0618 7.64827 4.0278C7.55494 3.9938 7.46921 3.94176 7.39599 3.87463C7.24812 3.73906 7.16015 3.55031 7.15145 3.34988C7.14714 3.25064 7.16242 3.15153 7.19642 3.05819C7.23041 2.96486 7.28246 2.87913 7.34958 2.80591C7.45752 2.68972 7.52696 2.53504 7.5414 2.3776C7.55144 2.28826 7.54052 2.19781 7.50949 2.11344C7.47846 2.02906 7.42818 1.95308 7.36265 1.89154L6.85871 1.42954V1.42954Z" fill="#427BF8"/>
</svg>
