<svg width="13" height="12" viewBox="0 0 13 12" fill="none" xmlns="http://www.w3.org/2000/svg">
<path d="M10.6984 2.69999H1.94844V2.34999L9.64844 1.73399V2.34999H10.6984V1.29999C10.6984 0.52999 10.0747 -0.0104096 9.31314 0.0980904L2.28444 1.10189C1.52214 1.21109 0.898438 1.92999 0.898438 2.69999V9.69999C0.898438 10.0713 1.04594 10.4274 1.30849 10.6899C1.57104 10.9525 1.92713 11.1 2.29844 11.1H10.6984C11.0697 11.1 11.4258 10.9525 11.6884 10.6899C11.9509 10.4274 12.0984 10.0713 12.0984 9.69999V4.09999C12.0984 3.72869 11.9509 3.37259 11.6884 3.11004C11.4258 2.84749 11.0697 2.69999 10.6984 2.69999ZM9.64844 7.60419C9.5105 7.60414 9.37393 7.57693 9.24651 7.5241C9.1191 7.47128 9.00333 7.39387 8.90583 7.2963C8.80833 7.19874 8.731 7.08292 8.67826 6.95547C8.62551 6.82802 8.59839 6.69142 8.59844 6.55349C8.59848 6.41556 8.6257 6.27898 8.67852 6.15157C8.73135 6.02415 8.80876 5.90838 8.90633 5.81088C9.00389 5.71338 9.11971 5.63605 9.24716 5.58331C9.37461 5.53057 9.5112 5.50344 9.64914 5.50349C9.92771 5.50358 10.1948 5.61433 10.3917 5.81138C10.5887 6.00842 10.6992 6.27562 10.6991 6.55419C10.699 6.83276 10.5883 7.09988 10.3912 7.2968C10.1942 7.49371 9.92701 7.60428 9.64844 7.60419Z" fill="white"/>
</svg>
