<svg width="375" height="640" viewBox="0 0 375 640" fill="none" xmlns="http://www.w3.org/2000/svg">
<g clip-path="url(#clip0_2666_250248)">
<rect width="375" height="640" fill="#1D1E25"/>
<g opacity="0.2">
<g clip-path="url(#clip1_2666_250248)">
<rect x="263.623" y="551.843" width="76.1243" height="76.1243" fill="#6E7195"/>
</g>
<g clip-path="url(#clip2_2666_250248)">
<rect x="111.377" y="551.843" width="76.1243" height="76.1243" fill="#6E7195"/>
</g>
<g clip-path="url(#clip3_2666_250248)">
<rect x="-40.8711" y="551.843" width="76.1243" height="76.1243" fill="#6E7195"/>
</g>
<g clip-path="url(#clip4_2666_250248)">
<rect x="339.75" y="551.843" width="76.1243" height="76.1243" fill="#9DA0BF"/>
</g>
<g clip-path="url(#clip5_2666_250248)">
<rect x="187.504" y="551.843" width="76.1243" height="76.1243" fill="#9DA0BF"/>
</g>
<g clip-path="url(#clip6_2666_250248)">
<rect x="35.252" y="551.843" width="76.1243" height="76.1243" fill="#9DA0BF"/>
</g>
<g clip-path="url(#clip7_2666_250248)">
<rect x="263.623" y="399.594" width="76.1243" height="76.1243" fill="#6E7195"/>
</g>
<g clip-path="url(#clip8_2666_250248)">
<rect x="111.377" y="399.594" width="76.1243" height="76.1243" fill="#6E7195"/>
</g>
<g clip-path="url(#clip9_2666_250248)">
<rect x="-40.8711" y="399.594" width="76.1243" height="76.1243" fill="#6E7195"/>
</g>
<g clip-path="url(#clip10_2666_250248)">
<rect x="339.75" y="399.594" width="76.1243" height="76.1243" fill="#9DA0BF"/>
</g>
<g clip-path="url(#clip11_2666_250248)">
<rect x="187.504" y="399.594" width="76.1243" height="76.1243" fill="#9DA0BF"/>
</g>
<g clip-path="url(#clip12_2666_250248)">
<rect x="35.252" y="399.594" width="76.1243" height="76.1243" fill="#9DA0BF"/>
</g>
<g clip-path="url(#clip13_2666_250248)">
<rect x="263.623" y="247.346" width="76.1243" height="76.1243" fill="#6E7195"/>
</g>
<g clip-path="url(#clip14_2666_250248)">
<rect x="111.377" y="247.346" width="76.1243" height="76.1243" fill="#6E7195"/>
</g>
<g clip-path="url(#clip15_2666_250248)">
<rect x="-40.8711" y="247.346" width="76.1243" height="76.1243" fill="#6E7195"/>
</g>
<g clip-path="url(#clip16_2666_250248)">
<rect x="339.75" y="247.346" width="76.1243" height="76.1243" fill="#9DA0BF"/>
</g>
<g clip-path="url(#clip17_2666_250248)">
<rect x="187.504" y="247.346" width="76.1243" height="76.1243" fill="#9DA0BF"/>
</g>
<g clip-path="url(#clip18_2666_250248)">
<rect x="35.252" y="247.346" width="76.1243" height="76.1243" fill="#9DA0BF"/>
</g>
<g clip-path="url(#clip19_2666_250248)">
<rect x="263.623" y="95.0967" width="76.1243" height="76.1243" fill="#6E7195"/>
</g>
<g clip-path="url(#clip20_2666_250248)">
<rect x="111.377" y="95.0967" width="76.1243" height="76.1243" fill="#6E7195"/>
</g>
<g clip-path="url(#clip21_2666_250248)">
<rect x="-40.8711" y="95.0967" width="76.1243" height="76.1243" fill="#6E7195"/>
</g>
<g clip-path="url(#clip22_2666_250248)">
<rect x="339.75" y="95.0967" width="76.1243" height="76.1243" fill="#9DA0BF"/>
</g>
<g clip-path="url(#clip23_2666_250248)">
<rect x="187.504" y="95.0967" width="76.1243" height="76.1243" fill="#9DA0BF"/>
</g>
<g clip-path="url(#clip24_2666_250248)">
<rect x="35.252" y="95.0967" width="76.1243" height="76.1243" fill="#9DA0BF"/>
</g>
<g clip-path="url(#clip25_2666_250248)">
<rect width="76.1243" height="76.1243" transform="matrix(-1 0 0 1 111.379 475.718)" fill="#6E7195"/>
</g>
<g clip-path="url(#clip26_2666_250248)">
<rect width="76.1243" height="76.1243" transform="matrix(-1 0 0 1 263.625 475.718)" fill="#6E7195"/>
</g>
<g clip-path="url(#clip27_2666_250248)">
<rect width="76.1243" height="76.1243" transform="matrix(-1 0 0 1 415.873 475.718)" fill="#6E7195"/>
</g>
<g clip-path="url(#clip28_2666_250248)">
<rect width="76.1243" height="76.1243" transform="matrix(-1 0 0 1 35.252 475.718)" fill="#9DA0BF"/>
</g>
<g clip-path="url(#clip29_2666_250248)">
<rect width="76.1243" height="76.1243" transform="matrix(-1 0 0 1 187.498 475.718)" fill="#9DA0BF"/>
</g>
<g clip-path="url(#clip30_2666_250248)">
<rect width="76.1243" height="76.1243" transform="matrix(-1 0 0 1 339.75 475.718)" fill="#9DA0BF"/>
</g>
<g clip-path="url(#clip31_2666_250248)">
<rect width="76.1243" height="76.1243" transform="matrix(-1 0 0 1 111.379 323.47)" fill="#6E7195"/>
</g>
<g clip-path="url(#clip32_2666_250248)">
<rect width="76.1243" height="76.1243" transform="matrix(-1 0 0 1 263.625 323.47)" fill="#6E7195"/>
</g>
<g clip-path="url(#clip33_2666_250248)">
<rect width="76.1243" height="76.1243" transform="matrix(-1 0 0 1 415.873 323.47)" fill="#6E7195"/>
</g>
<g clip-path="url(#clip34_2666_250248)">
<rect width="76.1243" height="76.1243" transform="matrix(-1 0 0 1 35.252 323.47)" fill="#9DA0BF"/>
</g>
<g clip-path="url(#clip35_2666_250248)">
<rect width="76.1243" height="76.1243" transform="matrix(-1 0 0 1 187.498 323.47)" fill="#9DA0BF"/>
</g>
<g clip-path="url(#clip36_2666_250248)">
<rect width="76.1243" height="76.1243" transform="matrix(-1 0 0 1 339.75 323.47)" fill="#9DA0BF"/>
</g>
<g clip-path="url(#clip37_2666_250248)">
<rect width="76.1243" height="76.1243" transform="matrix(-1 0 0 1 111.379 171.221)" fill="#6E7195"/>
</g>
<g clip-path="url(#clip38_2666_250248)">
<rect width="76.1243" height="76.1243" transform="matrix(-1 0 0 1 263.625 171.221)" fill="#6E7195"/>
</g>
<g clip-path="url(#clip39_2666_250248)">
<rect width="76.1243" height="76.1243" transform="matrix(-1 0 0 1 415.873 171.221)" fill="#6E7195"/>
</g>
<g clip-path="url(#clip40_2666_250248)">
<rect width="76.1243" height="76.1243" transform="matrix(-1 0 0 1 35.252 171.221)" fill="#9DA0BF"/>
</g>
<g clip-path="url(#clip41_2666_250248)">
<rect width="76.1243" height="76.1243" transform="matrix(-1 0 0 1 187.5 171.221)" fill="#9DA0BF"/>
</g>
<g clip-path="url(#clip42_2666_250248)">
<rect width="76.1243" height="76.1243" transform="matrix(-1 0 0 1 339.75 171.221)" fill="#9DA0BF"/>
</g>
<g clip-path="url(#clip43_2666_250248)">
<rect width="76.1243" height="76.1243" transform="matrix(-1 0 0 1 111.379 18.9722)" fill="#6E7195"/>
</g>
<g clip-path="url(#clip44_2666_250248)">
<rect width="76.1243" height="76.1243" transform="matrix(-1 0 0 1 263.625 18.9722)" fill="#6E7195"/>
</g>
<g clip-path="url(#clip45_2666_250248)">
<rect width="76.1243" height="76.1243" transform="matrix(-1 0 0 1 415.873 18.9722)" fill="#6E7195"/>
</g>
<g clip-path="url(#clip46_2666_250248)">
<rect width="76.1243" height="76.1243" transform="matrix(-1 0 0 1 35.252 18.9722)" fill="#9DA0BF"/>
</g>
<g clip-path="url(#clip47_2666_250248)">
<rect width="76.1243" height="76.1243" transform="matrix(-1 0 0 1 187.5 18.9722)" fill="#9DA0BF"/>
</g>
<g clip-path="url(#clip48_2666_250248)">
<rect width="76.1243" height="76.1243" transform="matrix(-1 0 0 1 339.75 18.9722)" fill="#9DA0BF"/>
</g>
<g clip-path="url(#clip49_2666_250248)">
<rect x="263.623" y="551.843" width="76.1243" height="76.1243" fill="#6E7195"/>
</g>
<g clip-path="url(#clip50_2666_250248)">
<rect x="111.377" y="551.843" width="76.1243" height="76.1243" fill="#6E7195"/>
</g>
<g clip-path="url(#clip51_2666_250248)">
<rect x="-40.8711" y="551.843" width="76.1243" height="76.1243" fill="#6E7195"/>
</g>
<g clip-path="url(#clip52_2666_250248)">
<rect x="339.75" y="551.843" width="76.1243" height="76.1243" fill="#9DA0BF"/>
</g>
<g clip-path="url(#clip53_2666_250248)">
<rect x="187.504" y="551.843" width="76.1243" height="76.1243" fill="#9DA0BF"/>
</g>
<g clip-path="url(#clip54_2666_250248)">
<rect x="35.252" y="551.843" width="76.1243" height="76.1243" fill="#9DA0BF"/>
</g>
<g clip-path="url(#clip55_2666_250248)">
<rect x="263.623" y="399.594" width="76.1243" height="76.1243" fill="#6E7195"/>
</g>
<g clip-path="url(#clip56_2666_250248)">
<rect x="111.377" y="399.594" width="76.1243" height="76.1243" fill="#6E7195"/>
</g>
<g clip-path="url(#clip57_2666_250248)">
<rect x="-40.8711" y="399.594" width="76.1243" height="76.1243" fill="#6E7195"/>
</g>
<g clip-path="url(#clip58_2666_250248)">
<rect x="339.75" y="399.594" width="76.1243" height="76.1243" fill="#9DA0BF"/>
</g>
<g clip-path="url(#clip59_2666_250248)">
<rect x="187.504" y="399.594" width="76.1243" height="76.1243" fill="#9DA0BF"/>
</g>
<g clip-path="url(#clip60_2666_250248)">
<rect x="35.252" y="399.594" width="76.1243" height="76.1243" fill="#9DA0BF"/>
</g>
<g clip-path="url(#clip61_2666_250248)">
<rect x="263.623" y="247.346" width="76.1243" height="76.1243" fill="#6E7195"/>
</g>
<g clip-path="url(#clip62_2666_250248)">
<rect x="111.377" y="247.346" width="76.1243" height="76.1243" fill="#6E7195"/>
</g>
<g clip-path="url(#clip63_2666_250248)">
<rect x="-40.8711" y="247.346" width="76.1243" height="76.1243" fill="#6E7195"/>
</g>
<g clip-path="url(#clip64_2666_250248)">
<rect x="339.75" y="247.346" width="76.1243" height="76.1243" fill="#9DA0BF"/>
</g>
<g clip-path="url(#clip65_2666_250248)">
<rect x="187.504" y="247.346" width="76.1243" height="76.1243" fill="#9DA0BF"/>
</g>
<g clip-path="url(#clip66_2666_250248)">
<rect x="35.252" y="247.346" width="76.1243" height="76.1243" fill="#9DA0BF"/>
</g>
<g clip-path="url(#clip67_2666_250248)">
<rect x="263.623" y="95.0967" width="76.1243" height="76.1243" fill="#6E7195"/>
</g>
<g clip-path="url(#clip68_2666_250248)">
<rect x="111.377" y="95.0967" width="76.1243" height="76.1243" fill="#6E7195"/>
</g>
<g clip-path="url(#clip69_2666_250248)">
<rect x="-40.8711" y="95.0967" width="76.1243" height="76.1243" fill="#6E7195"/>
</g>
<g clip-path="url(#clip70_2666_250248)">
<rect x="339.75" y="95.0967" width="76.1243" height="76.1243" fill="#9DA0BF"/>
</g>
<g clip-path="url(#clip71_2666_250248)">
<rect x="187.504" y="95.0967" width="76.1243" height="76.1243" fill="#9DA0BF"/>
</g>
<g clip-path="url(#clip72_2666_250248)">
<rect x="35.252" y="95.0967" width="76.1243" height="76.1243" fill="#9DA0BF"/>
</g>
<g clip-path="url(#clip73_2666_250248)">
<rect width="76.1243" height="76.1243" transform="matrix(-1 0 0 1 111.379 475.718)" fill="#6E7195"/>
</g>
<g clip-path="url(#clip74_2666_250248)">
<rect width="76.1243" height="76.1243" transform="matrix(-1 0 0 1 263.625 475.718)" fill="#6E7195"/>
</g>
<g clip-path="url(#clip75_2666_250248)">
<rect width="76.1243" height="76.1243" transform="matrix(-1 0 0 1 415.873 475.718)" fill="#6E7195"/>
</g>
<g clip-path="url(#clip76_2666_250248)">
<rect width="76.1243" height="76.1243" transform="matrix(-1 0 0 1 35.252 475.718)" fill="#9DA0BF"/>
</g>
<g clip-path="url(#clip77_2666_250248)">
<rect width="76.1243" height="76.1243" transform="matrix(-1 0 0 1 187.498 475.718)" fill="#9DA0BF"/>
</g>
<g clip-path="url(#clip78_2666_250248)">
<rect width="76.1243" height="76.1243" transform="matrix(-1 0 0 1 339.75 475.718)" fill="#9DA0BF"/>
</g>
<g clip-path="url(#clip79_2666_250248)">
<rect width="76.1243" height="76.1243" transform="matrix(-1 0 0 1 111.379 323.47)" fill="#6E7195"/>
</g>
<g clip-path="url(#clip80_2666_250248)">
<rect width="76.1243" height="76.1243" transform="matrix(-1 0 0 1 263.625 323.47)" fill="#6E7195"/>
</g>
<g clip-path="url(#clip81_2666_250248)">
<rect width="76.1243" height="76.1243" transform="matrix(-1 0 0 1 415.873 323.47)" fill="#6E7195"/>
</g>
<g clip-path="url(#clip82_2666_250248)">
<rect width="76.1243" height="76.1243" transform="matrix(-1 0 0 1 35.252 323.47)" fill="#9DA0BF"/>
</g>
<g clip-path="url(#clip83_2666_250248)">
<rect width="76.1243" height="76.1243" transform="matrix(-1 0 0 1 187.498 323.47)" fill="#9DA0BF"/>
</g>
<g clip-path="url(#clip84_2666_250248)">
<rect width="76.1243" height="76.1243" transform="matrix(-1 0 0 1 339.75 323.47)" fill="#9DA0BF"/>
</g>
<g clip-path="url(#clip85_2666_250248)">
<rect width="76.1243" height="76.1243" transform="matrix(-1 0 0 1 111.379 171.221)" fill="#6E7195"/>
</g>
<g clip-path="url(#clip86_2666_250248)">
<rect width="76.1243" height="76.1243" transform="matrix(-1 0 0 1 263.625 171.221)" fill="#6E7195"/>
</g>
<g clip-path="url(#clip87_2666_250248)">
<rect width="76.1243" height="76.1243" transform="matrix(-1 0 0 1 415.873 171.221)" fill="#6E7195"/>
</g>
<g clip-path="url(#clip88_2666_250248)">
<rect width="76.1243" height="76.1243" transform="matrix(-1 0 0 1 35.252 171.221)" fill="#9DA0BF"/>
</g>
<g clip-path="url(#clip89_2666_250248)">
<rect width="76.1243" height="76.1243" transform="matrix(-1 0 0 1 187.5 171.221)" fill="#9DA0BF"/>
</g>
<g clip-path="url(#clip90_2666_250248)">
<rect width="76.1243" height="76.1243" transform="matrix(-1 0 0 1 339.75 171.221)" fill="#9DA0BF"/>
</g>
<g clip-path="url(#clip91_2666_250248)">
<rect width="76.1243" height="76.1243" transform="matrix(-1 0 0 1 111.379 18.9722)" fill="#6E7195"/>
</g>
<g clip-path="url(#clip92_2666_250248)">
<rect width="76.1243" height="76.1243" transform="matrix(-1 0 0 1 263.625 18.9722)" fill="#6E7195"/>
</g>
<g clip-path="url(#clip93_2666_250248)">
<rect width="76.1243" height="76.1243" transform="matrix(-1 0 0 1 415.873 18.9722)" fill="#6E7195"/>
</g>
<g clip-path="url(#clip94_2666_250248)">
<rect width="76.1243" height="76.1243" transform="matrix(-1 0 0 1 35.252 18.9722)" fill="#9DA0BF"/>
</g>
<g clip-path="url(#clip95_2666_250248)">
<rect width="76.1243" height="76.1243" transform="matrix(-1 0 0 1 187.5 18.9722)" fill="#9DA0BF"/>
</g>
<g clip-path="url(#clip96_2666_250248)">
<rect width="76.1243" height="76.1243" transform="matrix(-1 0 0 1 339.75 18.9722)" fill="#9DA0BF"/>
</g>
<rect x="-116.998" y="14.7568" width="608.995" height="324.641" fill="url(#paint0_linear_2666_250248)"/>
</g>
</g>
<defs>
<linearGradient id="paint0_linear_2666_250248" x1="187.499" y1="21.3822" x2="185.547" y2="241.017" gradientUnits="userSpaceOnUse">
<stop stop-color="#1D1E25"/>
<stop offset="0.644924" stop-color="#121216" stop-opacity="0.47"/>
<stop offset="1" stop-opacity="0"/>
</linearGradient>
<clipPath id="clip0_2666_250248">
<rect width="375" height="640" fill="white"/>
</clipPath>
<clipPath id="clip1_2666_250248">
<rect width="76.1243" height="76.1243" fill="white" transform="translate(263.623 551.843)"/>
</clipPath>
<clipPath id="clip2_2666_250248">
<rect width="76.1243" height="76.1243" fill="white" transform="translate(111.377 551.843)"/>
</clipPath>
<clipPath id="clip3_2666_250248">
<rect width="76.1243" height="76.1243" fill="white" transform="translate(-40.8711 551.843)"/>
</clipPath>
<clipPath id="clip4_2666_250248">
<rect width="76.1243" height="76.1243" fill="white" transform="translate(339.75 551.843)"/>
</clipPath>
<clipPath id="clip5_2666_250248">
<rect width="76.1243" height="76.1243" fill="white" transform="translate(187.504 551.843)"/>
</clipPath>
<clipPath id="clip6_2666_250248">
<rect width="76.1243" height="76.1243" fill="white" transform="translate(35.252 551.843)"/>
</clipPath>
<clipPath id="clip7_2666_250248">
<rect width="76.1243" height="76.1243" fill="white" transform="translate(263.623 399.594)"/>
</clipPath>
<clipPath id="clip8_2666_250248">
<rect width="76.1243" height="76.1243" fill="white" transform="translate(111.377 399.594)"/>
</clipPath>
<clipPath id="clip9_2666_250248">
<rect width="76.1243" height="76.1243" fill="white" transform="translate(-40.8711 399.594)"/>
</clipPath>
<clipPath id="clip10_2666_250248">
<rect width="76.1243" height="76.1243" fill="white" transform="translate(339.75 399.594)"/>
</clipPath>
<clipPath id="clip11_2666_250248">
<rect width="76.1243" height="76.1243" fill="white" transform="translate(187.504 399.594)"/>
</clipPath>
<clipPath id="clip12_2666_250248">
<rect width="76.1243" height="76.1243" fill="white" transform="translate(35.252 399.594)"/>
</clipPath>
<clipPath id="clip13_2666_250248">
<rect width="76.1243" height="76.1243" fill="white" transform="translate(263.623 247.346)"/>
</clipPath>
<clipPath id="clip14_2666_250248">
<rect width="76.1243" height="76.1243" fill="white" transform="translate(111.377 247.346)"/>
</clipPath>
<clipPath id="clip15_2666_250248">
<rect width="76.1243" height="76.1243" fill="white" transform="translate(-40.8711 247.346)"/>
</clipPath>
<clipPath id="clip16_2666_250248">
<rect width="76.1243" height="76.1243" fill="white" transform="translate(339.75 247.346)"/>
</clipPath>
<clipPath id="clip17_2666_250248">
<rect width="76.1243" height="76.1243" fill="white" transform="translate(187.504 247.346)"/>
</clipPath>
<clipPath id="clip18_2666_250248">
<rect width="76.1243" height="76.1243" fill="white" transform="translate(35.252 247.346)"/>
</clipPath>
<clipPath id="clip19_2666_250248">
<rect width="76.1243" height="76.1243" fill="white" transform="translate(263.623 95.0967)"/>
</clipPath>
<clipPath id="clip20_2666_250248">
<rect width="76.1243" height="76.1243" fill="white" transform="translate(111.377 95.0967)"/>
</clipPath>
<clipPath id="clip21_2666_250248">
<rect width="76.1243" height="76.1243" fill="white" transform="translate(-40.8711 95.0967)"/>
</clipPath>
<clipPath id="clip22_2666_250248">
<rect width="76.1243" height="76.1243" fill="white" transform="translate(339.75 95.0967)"/>
</clipPath>
<clipPath id="clip23_2666_250248">
<rect width="76.1243" height="76.1243" fill="white" transform="translate(187.504 95.0967)"/>
</clipPath>
<clipPath id="clip24_2666_250248">
<rect width="76.1243" height="76.1243" fill="white" transform="translate(35.252 95.0967)"/>
</clipPath>
<clipPath id="clip25_2666_250248">
<rect width="76.1243" height="76.1243" fill="white" transform="matrix(-1 0 0 1 111.379 475.718)"/>
</clipPath>
<clipPath id="clip26_2666_250248">
<rect width="76.1243" height="76.1243" fill="white" transform="matrix(-1 0 0 1 263.625 475.718)"/>
</clipPath>
<clipPath id="clip27_2666_250248">
<rect width="76.1243" height="76.1243" fill="white" transform="matrix(-1 0 0 1 415.873 475.718)"/>
</clipPath>
<clipPath id="clip28_2666_250248">
<rect width="76.1243" height="76.1243" fill="white" transform="matrix(-1 0 0 1 35.252 475.718)"/>
</clipPath>
<clipPath id="clip29_2666_250248">
<rect width="76.1243" height="76.1243" fill="white" transform="matrix(-1 0 0 1 187.498 475.718)"/>
</clipPath>
<clipPath id="clip30_2666_250248">
<rect width="76.1243" height="76.1243" fill="white" transform="matrix(-1 0 0 1 339.75 475.718)"/>
</clipPath>
<clipPath id="clip31_2666_250248">
<rect width="76.1243" height="76.1243" fill="white" transform="matrix(-1 0 0 1 111.379 323.47)"/>
</clipPath>
<clipPath id="clip32_2666_250248">
<rect width="76.1243" height="76.1243" fill="white" transform="matrix(-1 0 0 1 263.625 323.47)"/>
</clipPath>
<clipPath id="clip33_2666_250248">
<rect width="76.1243" height="76.1243" fill="white" transform="matrix(-1 0 0 1 415.873 323.47)"/>
</clipPath>
<clipPath id="clip34_2666_250248">
<rect width="76.1243" height="76.1243" fill="white" transform="matrix(-1 0 0 1 35.252 323.47)"/>
</clipPath>
<clipPath id="clip35_2666_250248">
<rect width="76.1243" height="76.1243" fill="white" transform="matrix(-1 0 0 1 187.498 323.47)"/>
</clipPath>
<clipPath id="clip36_2666_250248">
<rect width="76.1243" height="76.1243" fill="white" transform="matrix(-1 0 0 1 339.75 323.47)"/>
</clipPath>
<clipPath id="clip37_2666_250248">
<rect width="76.1243" height="76.1243" fill="white" transform="matrix(-1 0 0 1 111.379 171.221)"/>
</clipPath>
<clipPath id="clip38_2666_250248">
<rect width="76.1243" height="76.1243" fill="white" transform="matrix(-1 0 0 1 263.625 171.221)"/>
</clipPath>
<clipPath id="clip39_2666_250248">
<rect width="76.1243" height="76.1243" fill="white" transform="matrix(-1 0 0 1 415.873 171.221)"/>
</clipPath>
<clipPath id="clip40_2666_250248">
<rect width="76.1243" height="76.1243" fill="white" transform="matrix(-1 0 0 1 35.252 171.221)"/>
</clipPath>
<clipPath id="clip41_2666_250248">
<rect width="76.1243" height="76.1243" fill="white" transform="matrix(-1 0 0 1 187.5 171.221)"/>
</clipPath>
<clipPath id="clip42_2666_250248">
<rect width="76.1243" height="76.1243" fill="white" transform="matrix(-1 0 0 1 339.75 171.221)"/>
</clipPath>
<clipPath id="clip43_2666_250248">
<rect width="76.1243" height="76.1243" fill="white" transform="matrix(-1 0 0 1 111.379 18.9722)"/>
</clipPath>
<clipPath id="clip44_2666_250248">
<rect width="76.1243" height="76.1243" fill="white" transform="matrix(-1 0 0 1 263.625 18.9722)"/>
</clipPath>
<clipPath id="clip45_2666_250248">
<rect width="76.1243" height="76.1243" fill="white" transform="matrix(-1 0 0 1 415.873 18.9722)"/>
</clipPath>
<clipPath id="clip46_2666_250248">
<rect width="76.1243" height="76.1243" fill="white" transform="matrix(-1 0 0 1 35.252 18.9722)"/>
</clipPath>
<clipPath id="clip47_2666_250248">
<rect width="76.1243" height="76.1243" fill="white" transform="matrix(-1 0 0 1 187.5 18.9722)"/>
</clipPath>
<clipPath id="clip48_2666_250248">
<rect width="76.1243" height="76.1243" fill="white" transform="matrix(-1 0 0 1 339.75 18.9722)"/>
</clipPath>
<clipPath id="clip49_2666_250248">
<rect width="76.1243" height="76.1243" fill="white" transform="translate(263.623 551.843)"/>
</clipPath>
<clipPath id="clip50_2666_250248">
<rect width="76.1243" height="76.1243" fill="white" transform="translate(111.377 551.843)"/>
</clipPath>
<clipPath id="clip51_2666_250248">
<rect width="76.1243" height="76.1243" fill="white" transform="translate(-40.8711 551.843)"/>
</clipPath>
<clipPath id="clip52_2666_250248">
<rect width="76.1243" height="76.1243" fill="white" transform="translate(339.75 551.843)"/>
</clipPath>
<clipPath id="clip53_2666_250248">
<rect width="76.1243" height="76.1243" fill="white" transform="translate(187.504 551.843)"/>
</clipPath>
<clipPath id="clip54_2666_250248">
<rect width="76.1243" height="76.1243" fill="white" transform="translate(35.252 551.843)"/>
</clipPath>
<clipPath id="clip55_2666_250248">
<rect width="76.1243" height="76.1243" fill="white" transform="translate(263.623 399.594)"/>
</clipPath>
<clipPath id="clip56_2666_250248">
<rect width="76.1243" height="76.1243" fill="white" transform="translate(111.377 399.594)"/>
</clipPath>
<clipPath id="clip57_2666_250248">
<rect width="76.1243" height="76.1243" fill="white" transform="translate(-40.8711 399.594)"/>
</clipPath>
<clipPath id="clip58_2666_250248">
<rect width="76.1243" height="76.1243" fill="white" transform="translate(339.75 399.594)"/>
</clipPath>
<clipPath id="clip59_2666_250248">
<rect width="76.1243" height="76.1243" fill="white" transform="translate(187.504 399.594)"/>
</clipPath>
<clipPath id="clip60_2666_250248">
<rect width="76.1243" height="76.1243" fill="white" transform="translate(35.252 399.594)"/>
</clipPath>
<clipPath id="clip61_2666_250248">
<rect width="76.1243" height="76.1243" fill="white" transform="translate(263.623 247.346)"/>
</clipPath>
<clipPath id="clip62_2666_250248">
<rect width="76.1243" height="76.1243" fill="white" transform="translate(111.377 247.346)"/>
</clipPath>
<clipPath id="clip63_2666_250248">
<rect width="76.1243" height="76.1243" fill="white" transform="translate(-40.8711 247.346)"/>
</clipPath>
<clipPath id="clip64_2666_250248">
<rect width="76.1243" height="76.1243" fill="white" transform="translate(339.75 247.346)"/>
</clipPath>
<clipPath id="clip65_2666_250248">
<rect width="76.1243" height="76.1243" fill="white" transform="translate(187.504 247.346)"/>
</clipPath>
<clipPath id="clip66_2666_250248">
<rect width="76.1243" height="76.1243" fill="white" transform="translate(35.252 247.346)"/>
</clipPath>
<clipPath id="clip67_2666_250248">
<rect width="76.1243" height="76.1243" fill="white" transform="translate(263.623 95.0967)"/>
</clipPath>
<clipPath id="clip68_2666_250248">
<rect width="76.1243" height="76.1243" fill="white" transform="translate(111.377 95.0967)"/>
</clipPath>
<clipPath id="clip69_2666_250248">
<rect width="76.1243" height="76.1243" fill="white" transform="translate(-40.8711 95.0967)"/>
</clipPath>
<clipPath id="clip70_2666_250248">
<rect width="76.1243" height="76.1243" fill="white" transform="translate(339.75 95.0967)"/>
</clipPath>
<clipPath id="clip71_2666_250248">
<rect width="76.1243" height="76.1243" fill="white" transform="translate(187.504 95.0967)"/>
</clipPath>
<clipPath id="clip72_2666_250248">
<rect width="76.1243" height="76.1243" fill="white" transform="translate(35.252 95.0967)"/>
</clipPath>
<clipPath id="clip73_2666_250248">
<rect width="76.1243" height="76.1243" fill="white" transform="matrix(-1 0 0 1 111.379 475.718)"/>
</clipPath>
<clipPath id="clip74_2666_250248">
<rect width="76.1243" height="76.1243" fill="white" transform="matrix(-1 0 0 1 263.625 475.718)"/>
</clipPath>
<clipPath id="clip75_2666_250248">
<rect width="76.1243" height="76.1243" fill="white" transform="matrix(-1 0 0 1 415.873 475.718)"/>
</clipPath>
<clipPath id="clip76_2666_250248">
<rect width="76.1243" height="76.1243" fill="white" transform="matrix(-1 0 0 1 35.252 475.718)"/>
</clipPath>
<clipPath id="clip77_2666_250248">
<rect width="76.1243" height="76.1243" fill="white" transform="matrix(-1 0 0 1 187.498 475.718)"/>
</clipPath>
<clipPath id="clip78_2666_250248">
<rect width="76.1243" height="76.1243" fill="white" transform="matrix(-1 0 0 1 339.75 475.718)"/>
</clipPath>
<clipPath id="clip79_2666_250248">
<rect width="76.1243" height="76.1243" fill="white" transform="matrix(-1 0 0 1 111.379 323.47)"/>
</clipPath>
<clipPath id="clip80_2666_250248">
<rect width="76.1243" height="76.1243" fill="white" transform="matrix(-1 0 0 1 263.625 323.47)"/>
</clipPath>
<clipPath id="clip81_2666_250248">
<rect width="76.1243" height="76.1243" fill="white" transform="matrix(-1 0 0 1 415.873 323.47)"/>
</clipPath>
<clipPath id="clip82_2666_250248">
<rect width="76.1243" height="76.1243" fill="white" transform="matrix(-1 0 0 1 35.252 323.47)"/>
</clipPath>
<clipPath id="clip83_2666_250248">
<rect width="76.1243" height="76.1243" fill="white" transform="matrix(-1 0 0 1 187.498 323.47)"/>
</clipPath>
<clipPath id="clip84_2666_250248">
<rect width="76.1243" height="76.1243" fill="white" transform="matrix(-1 0 0 1 339.75 323.47)"/>
</clipPath>
<clipPath id="clip85_2666_250248">
<rect width="76.1243" height="76.1243" fill="white" transform="matrix(-1 0 0 1 111.379 171.221)"/>
</clipPath>
<clipPath id="clip86_2666_250248">
<rect width="76.1243" height="76.1243" fill="white" transform="matrix(-1 0 0 1 263.625 171.221)"/>
</clipPath>
<clipPath id="clip87_2666_250248">
<rect width="76.1243" height="76.1243" fill="white" transform="matrix(-1 0 0 1 415.873 171.221)"/>
</clipPath>
<clipPath id="clip88_2666_250248">
<rect width="76.1243" height="76.1243" fill="white" transform="matrix(-1 0 0 1 35.252 171.221)"/>
</clipPath>
<clipPath id="clip89_2666_250248">
<rect width="76.1243" height="76.1243" fill="white" transform="matrix(-1 0 0 1 187.5 171.221)"/>
</clipPath>
<clipPath id="clip90_2666_250248">
<rect width="76.1243" height="76.1243" fill="white" transform="matrix(-1 0 0 1 339.75 171.221)"/>
</clipPath>
<clipPath id="clip91_2666_250248">
<rect width="76.1243" height="76.1243" fill="white" transform="matrix(-1 0 0 1 111.379 18.9722)"/>
</clipPath>
<clipPath id="clip92_2666_250248">
<rect width="76.1243" height="76.1243" fill="white" transform="matrix(-1 0 0 1 263.625 18.9722)"/>
</clipPath>
<clipPath id="clip93_2666_250248">
<rect width="76.1243" height="76.1243" fill="white" transform="matrix(-1 0 0 1 415.873 18.9722)"/>
</clipPath>
<clipPath id="clip94_2666_250248">
<rect width="76.1243" height="76.1243" fill="white" transform="matrix(-1 0 0 1 35.252 18.9722)"/>
</clipPath>
<clipPath id="clip95_2666_250248">
<rect width="76.1243" height="76.1243" fill="white" transform="matrix(-1 0 0 1 187.5 18.9722)"/>
</clipPath>
<clipPath id="clip96_2666_250248">
<rect width="76.1243" height="76.1243" fill="white" transform="matrix(-1 0 0 1 339.75 18.9722)"/>
</clipPath>
</defs>
</svg>
