<svg width="1300" height="812" viewBox="0 0 1300 812" fill="none" xmlns="http://www.w3.org/2000/svg">
<g clip-path="url(#clip0_2617_248930)">
<rect width="1300" height="812" rx="18" fill="#1D1E25"/>
<g opacity="0.3">
<g clip-path="url(#clip1_2617_248930)">
<rect x="1137.5" y="487.5" width="162.5" height="162.5" fill="#6E7195"/>
</g>
<g clip-path="url(#clip2_2617_248930)">
<rect x="812.5" y="487.5" width="162.5" height="162.5" fill="#6E7195"/>
</g>
<g clip-path="url(#clip3_2617_248930)">
<rect x="487.5" y="487.5" width="162.5" height="162.5" fill="#6E7195"/>
</g>
<g clip-path="url(#clip4_2617_248930)">
<rect x="162.5" y="487.5" width="162.5" height="162.5" fill="#6E7195"/>
</g>
<g clip-path="url(#clip5_2617_248930)">
<rect x="975" y="487.5" width="162.5" height="162.5" fill="#9DA0BF"/>
</g>
<g clip-path="url(#clip6_2617_248930)">
<rect x="650" y="487.5" width="162.5" height="162.5" fill="#9DA0BF"/>
</g>
<g clip-path="url(#clip7_2617_248930)">
<rect x="325" y="487.5" width="162.5" height="162.5" fill="#9DA0BF"/>
</g>
<g clip-path="url(#clip8_2617_248930)">
<rect y="487.5" width="162.5" height="162.5" fill="#9DA0BF"/>
</g>
<g clip-path="url(#clip9_2617_248930)">
<rect x="1137.5" y="162.5" width="162.5" height="162.5" fill="#6E7195"/>
</g>
<g clip-path="url(#clip10_2617_248930)">
<rect x="812.5" y="162.5" width="162.5" height="162.5" fill="#6E7195"/>
</g>
<g clip-path="url(#clip11_2617_248930)">
<rect x="487.5" y="162.5" width="162.5" height="162.5" fill="#6E7195"/>
</g>
<g clip-path="url(#clip12_2617_248930)">
<rect x="162.5" y="162.5" width="162.5" height="162.5" fill="#6E7195"/>
</g>
<g clip-path="url(#clip13_2617_248930)">
<rect x="975" y="162.5" width="162.5" height="162.5" fill="#9DA0BF"/>
</g>
<g clip-path="url(#clip14_2617_248930)">
<rect x="650" y="162.5" width="162.5" height="162.5" fill="#9DA0BF"/>
</g>
<g clip-path="url(#clip15_2617_248930)">
<rect x="325" y="162.5" width="162.5" height="162.5" fill="#9DA0BF"/>
</g>
<g clip-path="url(#clip16_2617_248930)">
<rect y="162.5" width="162.5" height="162.5" fill="#9DA0BF"/>
</g>
<g clip-path="url(#clip17_2617_248930)">
<rect width="162.5" height="162.5" transform="matrix(-1 0 0 1 162.5 650)" fill="#6E7195"/>
</g>
<g clip-path="url(#clip18_2617_248930)">
<rect width="162.5" height="162.5" transform="matrix(-1 0 0 1 487.5 650)" fill="#6E7195"/>
</g>
<g clip-path="url(#clip19_2617_248930)">
<rect width="162.5" height="162.5" transform="matrix(-1 0 0 1 812.5 650)" fill="#6E7195"/>
</g>
<g clip-path="url(#clip20_2617_248930)">
<rect width="162.5" height="162.5" transform="matrix(-1 0 0 1 1137.5 650)" fill="#6E7195"/>
</g>
<g clip-path="url(#clip21_2617_248930)">
<rect width="162.5" height="162.5" transform="matrix(-1 0 0 1 325 650)" fill="#9DA0BF"/>
</g>
<g clip-path="url(#clip22_2617_248930)">
<rect width="162.5" height="162.5" transform="matrix(-1 0 0 1 650 650)" fill="#9DA0BF"/>
</g>
<g clip-path="url(#clip23_2617_248930)">
<rect width="162.5" height="162.5" transform="matrix(-1 0 0 1 975 650)" fill="#9DA0BF"/>
</g>
<g clip-path="url(#clip24_2617_248930)">
<rect width="162.5" height="162.5" transform="matrix(-1 0 0 1 1300 650)" fill="#9DA0BF"/>
</g>
<g clip-path="url(#clip25_2617_248930)">
<rect width="162.5" height="162.5" transform="matrix(-1 0 0 1 162.5 325)" fill="#6E7195"/>
</g>
<g clip-path="url(#clip26_2617_248930)">
<rect width="162.5" height="162.5" transform="matrix(-1 0 0 1 487.5 325)" fill="#6E7195"/>
</g>
<g clip-path="url(#clip27_2617_248930)">
<rect width="162.5" height="162.5" transform="matrix(-1 0 0 1 812.5 325)" fill="#6E7195"/>
</g>
<g clip-path="url(#clip28_2617_248930)">
<rect width="162.5" height="162.5" transform="matrix(-1 0 0 1 1137.5 325)" fill="#6E7195"/>
</g>
<g clip-path="url(#clip29_2617_248930)">
<rect width="162.5" height="162.5" transform="matrix(-1 0 0 1 325 325)" fill="#9DA0BF"/>
</g>
<g clip-path="url(#clip30_2617_248930)">
<rect width="162.5" height="162.5" transform="matrix(-1 0 0 1 650 325)" fill="#9DA0BF"/>
</g>
<g clip-path="url(#clip31_2617_248930)">
<rect width="162.5" height="162.5" transform="matrix(-1 0 0 1 975 325)" fill="#9DA0BF"/>
</g>
<g clip-path="url(#clip32_2617_248930)">
<rect width="162.5" height="162.5" transform="matrix(-1 0 0 1 1300 325)" fill="#9DA0BF"/>
</g>
<g clip-path="url(#clip33_2617_248930)">
<rect width="162.5" height="162.5" transform="matrix(-1 0 0 1 162.5 0)" fill="#6E7195"/>
</g>
<g clip-path="url(#clip34_2617_248930)">
<rect width="162.5" height="162.5" transform="matrix(-1 0 0 1 487.5 0)" fill="#6E7195"/>
</g>
<g clip-path="url(#clip35_2617_248930)">
<rect width="162.5" height="162.5" transform="matrix(-1 0 0 1 812.5 0)" fill="#6E7195"/>
</g>
<g clip-path="url(#clip36_2617_248930)">
<rect width="162.5" height="162.5" transform="matrix(-1 0 0 1 1137.5 0)" fill="#6E7195"/>
</g>
<g clip-path="url(#clip37_2617_248930)">
<rect width="162.5" height="162.5" transform="matrix(-1 0 0 1 325 0)" fill="#9DA0BF"/>
</g>
<g clip-path="url(#clip38_2617_248930)">
<rect width="162.5" height="162.5" transform="matrix(-1 0 0 1 650 0)" fill="#9DA0BF"/>
</g>
<g clip-path="url(#clip39_2617_248930)">
<rect width="162.5" height="162.5" transform="matrix(-1 0 0 1 975 0)" fill="#9DA0BF"/>
</g>
<g clip-path="url(#clip40_2617_248930)">
<rect width="162.5" height="162.5" transform="matrix(-1 0 0 1 1300 0)" fill="#9DA0BF"/>
</g>
<g clip-path="url(#clip41_2617_248930)">
<rect x="1137.5" y="487.5" width="162.5" height="162.5" fill="#6E7195"/>
</g>
<g clip-path="url(#clip42_2617_248930)">
<rect x="812.5" y="487.5" width="162.5" height="162.5" fill="#6E7195"/>
</g>
<g clip-path="url(#clip43_2617_248930)">
<rect x="487.5" y="487.5" width="162.5" height="162.5" fill="#6E7195"/>
</g>
<g clip-path="url(#clip44_2617_248930)">
<rect x="162.5" y="487.5" width="162.5" height="162.5" fill="#6E7195"/>
</g>
<g clip-path="url(#clip45_2617_248930)">
<rect x="975" y="487.5" width="162.5" height="162.5" fill="#9DA0BF"/>
</g>
<g clip-path="url(#clip46_2617_248930)">
<rect x="650" y="487.5" width="162.5" height="162.5" fill="#9DA0BF"/>
</g>
<g clip-path="url(#clip47_2617_248930)">
<rect x="325" y="487.5" width="162.5" height="162.5" fill="#9DA0BF"/>
</g>
<g clip-path="url(#clip48_2617_248930)">
<rect y="487.5" width="162.5" height="162.5" fill="#9DA0BF"/>
</g>
<g clip-path="url(#clip49_2617_248930)">
<rect x="1137.5" y="162.5" width="162.5" height="162.5" fill="#6E7195"/>
</g>
<g clip-path="url(#clip50_2617_248930)">
<rect x="812.5" y="162.5" width="162.5" height="162.5" fill="#6E7195"/>
</g>
<g clip-path="url(#clip51_2617_248930)">
<rect x="487.5" y="162.5" width="162.5" height="162.5" fill="#6E7195"/>
</g>
<g clip-path="url(#clip52_2617_248930)">
<rect x="162.5" y="162.5" width="162.5" height="162.5" fill="#6E7195"/>
</g>
<g clip-path="url(#clip53_2617_248930)">
<rect x="975" y="162.5" width="162.5" height="162.5" fill="#9DA0BF"/>
</g>
<g clip-path="url(#clip54_2617_248930)">
<rect x="650" y="162.5" width="162.5" height="162.5" fill="#9DA0BF"/>
</g>
<g clip-path="url(#clip55_2617_248930)">
<rect x="325" y="162.5" width="162.5" height="162.5" fill="#9DA0BF"/>
</g>
<g clip-path="url(#clip56_2617_248930)">
<rect y="162.5" width="162.5" height="162.5" fill="#9DA0BF"/>
</g>
<g clip-path="url(#clip57_2617_248930)">
<rect width="162.5" height="162.5" transform="matrix(-1 0 0 1 162.5 650)" fill="#6E7195"/>
</g>
<g clip-path="url(#clip58_2617_248930)">
<rect width="162.5" height="162.5" transform="matrix(-1 0 0 1 487.5 650)" fill="#6E7195"/>
</g>
<g clip-path="url(#clip59_2617_248930)">
<rect width="162.5" height="162.5" transform="matrix(-1 0 0 1 812.5 650)" fill="#6E7195"/>
</g>
<g clip-path="url(#clip60_2617_248930)">
<rect width="162.5" height="162.5" transform="matrix(-1 0 0 1 1137.5 650)" fill="#6E7195"/>
</g>
<g clip-path="url(#clip61_2617_248930)">
<rect width="162.5" height="162.5" transform="matrix(-1 0 0 1 325 650)" fill="#9DA0BF"/>
</g>
<g clip-path="url(#clip62_2617_248930)">
<rect width="162.5" height="162.5" transform="matrix(-1 0 0 1 650 650)" fill="#9DA0BF"/>
</g>
<g clip-path="url(#clip63_2617_248930)">
<rect width="162.5" height="162.5" transform="matrix(-1 0 0 1 975 650)" fill="#9DA0BF"/>
</g>
<g clip-path="url(#clip64_2617_248930)">
<rect width="162.5" height="162.5" transform="matrix(-1 0 0 1 1300 650)" fill="#9DA0BF"/>
</g>
<g clip-path="url(#clip65_2617_248930)">
<rect width="162.5" height="162.5" transform="matrix(-1 0 0 1 162.5 325)" fill="#6E7195"/>
</g>
<g clip-path="url(#clip66_2617_248930)">
<rect width="162.5" height="162.5" transform="matrix(-1 0 0 1 487.5 325)" fill="#6E7195"/>
</g>
<g clip-path="url(#clip67_2617_248930)">
<rect width="162.5" height="162.5" transform="matrix(-1 0 0 1 812.5 325)" fill="#6E7195"/>
</g>
<g clip-path="url(#clip68_2617_248930)">
<rect width="162.5" height="162.5" transform="matrix(-1 0 0 1 1137.5 325)" fill="#6E7195"/>
</g>
<g clip-path="url(#clip69_2617_248930)">
<rect width="162.5" height="162.5" transform="matrix(-1 0 0 1 325 325)" fill="#9DA0BF"/>
</g>
<g clip-path="url(#clip70_2617_248930)">
<rect width="162.5" height="162.5" transform="matrix(-1 0 0 1 650 325)" fill="#9DA0BF"/>
</g>
<g clip-path="url(#clip71_2617_248930)">
<rect width="162.5" height="162.5" transform="matrix(-1 0 0 1 975 325)" fill="#9DA0BF"/>
</g>
<g clip-path="url(#clip72_2617_248930)">
<rect width="162.5" height="162.5" transform="matrix(-1 0 0 1 1300 325)" fill="#9DA0BF"/>
</g>
<g clip-path="url(#clip73_2617_248930)">
<rect width="162.5" height="162.5" transform="matrix(-1 0 0 1 162.5 0)" fill="#6E7195"/>
</g>
<g clip-path="url(#clip74_2617_248930)">
<rect width="162.5" height="162.5" transform="matrix(-1 0 0 1 487.5 0)" fill="#6E7195"/>
</g>
<g clip-path="url(#clip75_2617_248930)">
<rect width="162.5" height="162.5" transform="matrix(-1 0 0 1 812.5 0)" fill="#6E7195"/>
</g>
<g clip-path="url(#clip76_2617_248930)">
<rect width="162.5" height="162.5" transform="matrix(-1 0 0 1 1137.5 0)" fill="#6E7195"/>
</g>
<g clip-path="url(#clip77_2617_248930)">
<rect width="162.5" height="162.5" transform="matrix(-1 0 0 1 325 0)" fill="#9DA0BF"/>
</g>
<g clip-path="url(#clip78_2617_248930)">
<rect width="162.5" height="162.5" transform="matrix(-1 0 0 1 650 0)" fill="#9DA0BF"/>
</g>
<g clip-path="url(#clip79_2617_248930)">
<rect width="162.5" height="162.5" transform="matrix(-1 0 0 1 975 0)" fill="#9DA0BF"/>
</g>
<g clip-path="url(#clip80_2617_248930)">
<rect width="162.5" height="162.5" transform="matrix(-1 0 0 1 1300 0)" fill="#9DA0BF"/>
</g>
<rect y="-9" width="1300" height="1176" fill="url(#paint0_linear_2617_248930)"/>
</g>
</g>
<defs>
<linearGradient id="paint0_linear_2617_248930" x1="650" y1="15" x2="638" y2="810.5" gradientUnits="userSpaceOnUse">
<stop stop-color="#1D1E25"/>
<stop offset="0.644924" stop-color="#121216" stop-opacity="0.47"/>
<stop offset="1" stop-opacity="0"/>
</linearGradient>
<clipPath id="clip0_2617_248930">
<rect width="1300" height="812" rx="18" fill="white"/>
</clipPath>
<clipPath id="clip1_2617_248930">
<rect width="162.5" height="162.5" fill="white" transform="translate(1137.5 487.5)"/>
</clipPath>
<clipPath id="clip2_2617_248930">
<rect width="162.5" height="162.5" fill="white" transform="translate(812.5 487.5)"/>
</clipPath>
<clipPath id="clip3_2617_248930">
<rect width="162.5" height="162.5" fill="white" transform="translate(487.5 487.5)"/>
</clipPath>
<clipPath id="clip4_2617_248930">
<rect width="162.5" height="162.5" fill="white" transform="translate(162.5 487.5)"/>
</clipPath>
<clipPath id="clip5_2617_248930">
<rect width="162.5" height="162.5" fill="white" transform="translate(975 487.5)"/>
</clipPath>
<clipPath id="clip6_2617_248930">
<rect width="162.5" height="162.5" fill="white" transform="translate(650 487.5)"/>
</clipPath>
<clipPath id="clip7_2617_248930">
<rect width="162.5" height="162.5" fill="white" transform="translate(325 487.5)"/>
</clipPath>
<clipPath id="clip8_2617_248930">
<rect width="162.5" height="162.5" fill="white" transform="translate(0 487.5)"/>
</clipPath>
<clipPath id="clip9_2617_248930">
<rect width="162.5" height="162.5" fill="white" transform="translate(1137.5 162.5)"/>
</clipPath>
<clipPath id="clip10_2617_248930">
<rect width="162.5" height="162.5" fill="white" transform="translate(812.5 162.5)"/>
</clipPath>
<clipPath id="clip11_2617_248930">
<rect width="162.5" height="162.5" fill="white" transform="translate(487.5 162.5)"/>
</clipPath>
<clipPath id="clip12_2617_248930">
<rect width="162.5" height="162.5" fill="white" transform="translate(162.5 162.5)"/>
</clipPath>
<clipPath id="clip13_2617_248930">
<rect width="162.5" height="162.5" fill="white" transform="translate(975 162.5)"/>
</clipPath>
<clipPath id="clip14_2617_248930">
<rect width="162.5" height="162.5" fill="white" transform="translate(650 162.5)"/>
</clipPath>
<clipPath id="clip15_2617_248930">
<rect width="162.5" height="162.5" fill="white" transform="translate(325 162.5)"/>
</clipPath>
<clipPath id="clip16_2617_248930">
<rect width="162.5" height="162.5" fill="white" transform="translate(0 162.5)"/>
</clipPath>
<clipPath id="clip17_2617_248930">
<rect width="162.5" height="162.5" fill="white" transform="matrix(-1 0 0 1 162.5 650)"/>
</clipPath>
<clipPath id="clip18_2617_248930">
<rect width="162.5" height="162.5" fill="white" transform="matrix(-1 0 0 1 487.5 650)"/>
</clipPath>
<clipPath id="clip19_2617_248930">
<rect width="162.5" height="162.5" fill="white" transform="matrix(-1 0 0 1 812.5 650)"/>
</clipPath>
<clipPath id="clip20_2617_248930">
<rect width="162.5" height="162.5" fill="white" transform="matrix(-1 0 0 1 1137.5 650)"/>
</clipPath>
<clipPath id="clip21_2617_248930">
<rect width="162.5" height="162.5" fill="white" transform="matrix(-1 0 0 1 325 650)"/>
</clipPath>
<clipPath id="clip22_2617_248930">
<rect width="162.5" height="162.5" fill="white" transform="matrix(-1 0 0 1 650 650)"/>
</clipPath>
<clipPath id="clip23_2617_248930">
<rect width="162.5" height="162.5" fill="white" transform="matrix(-1 0 0 1 975 650)"/>
</clipPath>
<clipPath id="clip24_2617_248930">
<rect width="162.5" height="162.5" fill="white" transform="matrix(-1 0 0 1 1300 650)"/>
</clipPath>
<clipPath id="clip25_2617_248930">
<rect width="162.5" height="162.5" fill="white" transform="matrix(-1 0 0 1 162.5 325)"/>
</clipPath>
<clipPath id="clip26_2617_248930">
<rect width="162.5" height="162.5" fill="white" transform="matrix(-1 0 0 1 487.5 325)"/>
</clipPath>
<clipPath id="clip27_2617_248930">
<rect width="162.5" height="162.5" fill="white" transform="matrix(-1 0 0 1 812.5 325)"/>
</clipPath>
<clipPath id="clip28_2617_248930">
<rect width="162.5" height="162.5" fill="white" transform="matrix(-1 0 0 1 1137.5 325)"/>
</clipPath>
<clipPath id="clip29_2617_248930">
<rect width="162.5" height="162.5" fill="white" transform="matrix(-1 0 0 1 325 325)"/>
</clipPath>
<clipPath id="clip30_2617_248930">
<rect width="162.5" height="162.5" fill="white" transform="matrix(-1 0 0 1 650 325)"/>
</clipPath>
<clipPath id="clip31_2617_248930">
<rect width="162.5" height="162.5" fill="white" transform="matrix(-1 0 0 1 975 325)"/>
</clipPath>
<clipPath id="clip32_2617_248930">
<rect width="162.5" height="162.5" fill="white" transform="matrix(-1 0 0 1 1300 325)"/>
</clipPath>
<clipPath id="clip33_2617_248930">
<rect width="162.5" height="162.5" fill="white" transform="matrix(-1 0 0 1 162.5 0)"/>
</clipPath>
<clipPath id="clip34_2617_248930">
<rect width="162.5" height="162.5" fill="white" transform="matrix(-1 0 0 1 487.5 0)"/>
</clipPath>
<clipPath id="clip35_2617_248930">
<rect width="162.5" height="162.5" fill="white" transform="matrix(-1 0 0 1 812.5 0)"/>
</clipPath>
<clipPath id="clip36_2617_248930">
<rect width="162.5" height="162.5" fill="white" transform="matrix(-1 0 0 1 1137.5 0)"/>
</clipPath>
<clipPath id="clip37_2617_248930">
<rect width="162.5" height="162.5" fill="white" transform="matrix(-1 0 0 1 325 0)"/>
</clipPath>
<clipPath id="clip38_2617_248930">
<rect width="162.5" height="162.5" fill="white" transform="matrix(-1 0 0 1 650 0)"/>
</clipPath>
<clipPath id="clip39_2617_248930">
<rect width="162.5" height="162.5" fill="white" transform="matrix(-1 0 0 1 975 0)"/>
</clipPath>
<clipPath id="clip40_2617_248930">
<rect width="162.5" height="162.5" fill="white" transform="matrix(-1 0 0 1 1300 0)"/>
</clipPath>
<clipPath id="clip41_2617_248930">
<rect width="162.5" height="162.5" fill="white" transform="translate(1137.5 487.5)"/>
</clipPath>
<clipPath id="clip42_2617_248930">
<rect width="162.5" height="162.5" fill="white" transform="translate(812.5 487.5)"/>
</clipPath>
<clipPath id="clip43_2617_248930">
<rect width="162.5" height="162.5" fill="white" transform="translate(487.5 487.5)"/>
</clipPath>
<clipPath id="clip44_2617_248930">
<rect width="162.5" height="162.5" fill="white" transform="translate(162.5 487.5)"/>
</clipPath>
<clipPath id="clip45_2617_248930">
<rect width="162.5" height="162.5" fill="white" transform="translate(975 487.5)"/>
</clipPath>
<clipPath id="clip46_2617_248930">
<rect width="162.5" height="162.5" fill="white" transform="translate(650 487.5)"/>
</clipPath>
<clipPath id="clip47_2617_248930">
<rect width="162.5" height="162.5" fill="white" transform="translate(325 487.5)"/>
</clipPath>
<clipPath id="clip48_2617_248930">
<rect width="162.5" height="162.5" fill="white" transform="translate(0 487.5)"/>
</clipPath>
<clipPath id="clip49_2617_248930">
<rect width="162.5" height="162.5" fill="white" transform="translate(1137.5 162.5)"/>
</clipPath>
<clipPath id="clip50_2617_248930">
<rect width="162.5" height="162.5" fill="white" transform="translate(812.5 162.5)"/>
</clipPath>
<clipPath id="clip51_2617_248930">
<rect width="162.5" height="162.5" fill="white" transform="translate(487.5 162.5)"/>
</clipPath>
<clipPath id="clip52_2617_248930">
<rect width="162.5" height="162.5" fill="white" transform="translate(162.5 162.5)"/>
</clipPath>
<clipPath id="clip53_2617_248930">
<rect width="162.5" height="162.5" fill="white" transform="translate(975 162.5)"/>
</clipPath>
<clipPath id="clip54_2617_248930">
<rect width="162.5" height="162.5" fill="white" transform="translate(650 162.5)"/>
</clipPath>
<clipPath id="clip55_2617_248930">
<rect width="162.5" height="162.5" fill="white" transform="translate(325 162.5)"/>
</clipPath>
<clipPath id="clip56_2617_248930">
<rect width="162.5" height="162.5" fill="white" transform="translate(0 162.5)"/>
</clipPath>
<clipPath id="clip57_2617_248930">
<rect width="162.5" height="162.5" fill="white" transform="matrix(-1 0 0 1 162.5 650)"/>
</clipPath>
<clipPath id="clip58_2617_248930">
<rect width="162.5" height="162.5" fill="white" transform="matrix(-1 0 0 1 487.5 650)"/>
</clipPath>
<clipPath id="clip59_2617_248930">
<rect width="162.5" height="162.5" fill="white" transform="matrix(-1 0 0 1 812.5 650)"/>
</clipPath>
<clipPath id="clip60_2617_248930">
<rect width="162.5" height="162.5" fill="white" transform="matrix(-1 0 0 1 1137.5 650)"/>
</clipPath>
<clipPath id="clip61_2617_248930">
<rect width="162.5" height="162.5" fill="white" transform="matrix(-1 0 0 1 325 650)"/>
</clipPath>
<clipPath id="clip62_2617_248930">
<rect width="162.5" height="162.5" fill="white" transform="matrix(-1 0 0 1 650 650)"/>
</clipPath>
<clipPath id="clip63_2617_248930">
<rect width="162.5" height="162.5" fill="white" transform="matrix(-1 0 0 1 975 650)"/>
</clipPath>
<clipPath id="clip64_2617_248930">
<rect width="162.5" height="162.5" fill="white" transform="matrix(-1 0 0 1 1300 650)"/>
</clipPath>
<clipPath id="clip65_2617_248930">
<rect width="162.5" height="162.5" fill="white" transform="matrix(-1 0 0 1 162.5 325)"/>
</clipPath>
<clipPath id="clip66_2617_248930">
<rect width="162.5" height="162.5" fill="white" transform="matrix(-1 0 0 1 487.5 325)"/>
</clipPath>
<clipPath id="clip67_2617_248930">
<rect width="162.5" height="162.5" fill="white" transform="matrix(-1 0 0 1 812.5 325)"/>
</clipPath>
<clipPath id="clip68_2617_248930">
<rect width="162.5" height="162.5" fill="white" transform="matrix(-1 0 0 1 1137.5 325)"/>
</clipPath>
<clipPath id="clip69_2617_248930">
<rect width="162.5" height="162.5" fill="white" transform="matrix(-1 0 0 1 325 325)"/>
</clipPath>
<clipPath id="clip70_2617_248930">
<rect width="162.5" height="162.5" fill="white" transform="matrix(-1 0 0 1 650 325)"/>
</clipPath>
<clipPath id="clip71_2617_248930">
<rect width="162.5" height="162.5" fill="white" transform="matrix(-1 0 0 1 975 325)"/>
</clipPath>
<clipPath id="clip72_2617_248930">
<rect width="162.5" height="162.5" fill="white" transform="matrix(-1 0 0 1 1300 325)"/>
</clipPath>
<clipPath id="clip73_2617_248930">
<rect width="162.5" height="162.5" fill="white" transform="matrix(-1 0 0 1 162.5 0)"/>
</clipPath>
<clipPath id="clip74_2617_248930">
<rect width="162.5" height="162.5" fill="white" transform="matrix(-1 0 0 1 487.5 0)"/>
</clipPath>
<clipPath id="clip75_2617_248930">
<rect width="162.5" height="162.5" fill="white" transform="matrix(-1 0 0 1 812.5 0)"/>
</clipPath>
<clipPath id="clip76_2617_248930">
<rect width="162.5" height="162.5" fill="white" transform="matrix(-1 0 0 1 1137.5 0)"/>
</clipPath>
<clipPath id="clip77_2617_248930">
<rect width="162.5" height="162.5" fill="white" transform="matrix(-1 0 0 1 325 0)"/>
</clipPath>
<clipPath id="clip78_2617_248930">
<rect width="162.5" height="162.5" fill="white" transform="matrix(-1 0 0 1 650 0)"/>
</clipPath>
<clipPath id="clip79_2617_248930">
<rect width="162.5" height="162.5" fill="white" transform="matrix(-1 0 0 1 975 0)"/>
</clipPath>
<clipPath id="clip80_2617_248930">
<rect width="162.5" height="162.5" fill="white" transform="matrix(-1 0 0 1 1300 0)"/>
</clipPath>
</defs>
</svg>
