<svg width="24" height="24" viewBox="0 0 24 24" fill="none" xmlns="http://www.w3.org/2000/svg">
<g clip-path="url(#clip0_3848_368635)">
<path d="M20.8089 0.00488281L10.1912 0.00488281C9.88301 0.00488281 9.60074 0.177458 9.46023 0.451797L5.58451 8.01931C5.3983 8.3829 5.50761 8.82808 5.84105 9.06407L14.034 14.8627C14.2713 15.0307 14.4022 15.3116 14.378 15.6014L9.47333 23.9829H12.606L21.6777 13.9969C21.8616 13.721 21.8617 13.3616 21.6777 13.0857L19.0269 9.10947C18.882 8.89209 18.8492 8.61874 18.9384 8.37322L21.5807 1.10686C21.7755 0.571218 21.3788 0.00488281 20.8089 0.00488281Z" fill="url(#paint0_linear_3848_368635)"/>
<path d="M17.8655 0.00488281L7.24788 0.00488281C6.93965 0.00488281 6.65738 0.177458 6.51687 0.451797L2.64115 8.01931C2.45494 8.3829 2.56425 8.82808 2.89769 9.06407L11.0907 14.8627C11.328 15.0307 11.4588 15.3116 11.4347 15.6014L9.13816 23.1081C9.06764 23.9536 10.1693 24.3379 10.64 23.632L18.7344 13.9969C18.9183 13.721 18.9183 13.3616 18.7344 13.0857L16.0836 9.10947C15.9386 8.89209 15.9058 8.61874 15.9951 8.37322L18.6374 1.10686C18.8322 0.571218 18.4355 0.00488281 17.8655 0.00488281Z" fill="url(#paint1_linear_3848_368635)"/>
</g>
<defs>
<linearGradient id="paint0_linear_3848_368635" x1="13.6549" y1="0.0048829" x2="13.6549" y2="23.9999" gradientUnits="userSpaceOnUse">
<stop stop-color="#FFC426"/>
<stop offset="1" stop-color="#790057"/>
</linearGradient>
<linearGradient id="paint1_linear_3848_368635" x1="10.6774" y1="0.00488281" x2="10.6774" y2="26.2814" gradientUnits="userSpaceOnUse">
<stop stop-color="#FF7A00"/>
<stop offset="1" stop-color="#DC0552"/>
</linearGradient>
<clipPath id="clip0_3848_368635">
<rect width="24" height="24" fill="white"/>
</clipPath>
</defs>
</svg>
