<svg width="24" height="24" viewBox="0 0 24 24" fill="none" xmlns="http://www.w3.org/2000/svg">
<path d="M20.6195 8.48443C20.9506 9.73603 21.0393 11.0364 20.881 12.3193C20.6426 14.2845 19.8634 16.1512 18.625 17.7238C17.4272 19.2596 15.8027 20.4322 13.942 21.1042C12.7561 21.5277 11.4924 21.7076 10.2309 21.6327C9.61607 21.5934 9.0072 21.4912 8.41444 21.3279C6.61292 20.8218 5.0287 19.7638 3.89865 18.3122C2.72323 16.7941 2.03518 14.9737 1.92049 13.0786C1.79335 11.1093 2.21764 9.14331 3.14844 7.38874C4.06089 5.64707 5.4521 4.18394 7.16834 3.16101C8.80063 2.18405 10.7027 1.71615 12.6178 1.82046C13.8516 1.89893 15.0535 2.23418 16.1418 2.80341C17.2386 3.38161 18.1964 4.17896 18.9519 5.14276C19.7311 6.13817 20.298 7.27418 20.6195 8.48443Z" fill="url(#paint0_linear_3848_368610)"/>
<path d="M3.86167 18.183C4.97082 19.6078 6.52574 20.6463 8.29395 21.143C-1.31517 15.1054 3.47477 6.73999 7.07089 3.31201C5.38639 4.31603 4.02091 5.75211 3.12533 7.46157C2.21174 9.18369 1.79529 11.1133 1.92009 13.0462C2.03265 14.9063 2.70797 16.693 3.86167 18.183Z" fill="black" fill-opacity="0.48"/>
<path d="M20.2537 3.94112C22.0955 6.27006 22.9281 9.32344 22.5447 12.4304C22.2628 14.7547 21.3388 16.9619 19.8704 18.819C18.4465 20.6365 16.5183 22.0231 14.3113 22.8164C12.9027 23.3163 11.4028 23.5282 9.90575 23.4389C9.63475 23.4216 9.37088 23.3956 9.09809 23.3576C8.64052 23.2935 8.18785 23.1999 7.74309 23.0775C5.606 22.4796 3.72468 21.2293 2.37835 19.5123C0.983959 17.7182 0.165965 15.5652 0.0266964 13.3226C-0.125793 10.9937 0.377073 8.66837 1.48155 6.59511C2.56458 4.53365 4.21539 2.80349 6.25081 1.59662C8.18414 0.444674 10.4339 -0.107838 12.6996 0.0128669C14.1759 0.102679 15.6148 0.500071 16.9185 1.17796C18.2221 1.85586 19.3597 2.79832 20.2537 3.94112ZM18.3157 17.6001C19.5312 16.0566 20.2961 14.2244 20.5301 12.2956C20.6854 11.0363 20.5983 9.76002 20.2733 8.53157C19.9601 7.34227 19.4055 6.22547 18.642 5.2465C17.8978 4.30371 16.9559 3.52467 15.8785 2.96078C14.8098 2.40449 13.6301 2.0778 12.4196 2.00293C10.5399 1.90055 8.67305 2.35979 7.07094 3.31868C5.38644 4.3227 4.02096 5.75878 3.12538 7.46824C2.21179 9.19036 1.79534 11.12 1.92014 13.0529C2.0327 14.913 2.70802 16.6996 3.86172 18.1897C4.97087 19.6145 6.52579 20.6529 8.294 21.1497C8.8758 21.31 9.47341 21.4102 10.0769 21.4488C11.315 21.5223 12.5554 21.3457 13.7194 20.9301C15.5457 20.2705 17.1401 19.1195 18.3157 17.6122" fill="url(#paint1_linear_3848_368610)"/>
<path d="M15.9221 0.723633L17.286 1.25962C19.0003 1.93817 20.4961 3.04913 21.6184 4.47726L20.2545 3.94127C19.133 2.51236 17.6369 1.40123 15.9221 0.723633Z" fill="url(#paint2_linear_3848_368610)"/>
<path d="M8.08267 23.2696L6.71875 22.7336C7.05402 22.8661 7.39621 22.9816 7.74392 23.0794C8.18867 23.2018 8.64134 23.2954 9.09892 23.3595C9.36635 23.3975 9.63379 23.4235 9.90658 23.4408C11.4036 23.5301 12.9036 23.3182 14.3121 22.8183C16.5191 22.025 18.4474 20.6384 19.8712 18.8209C21.3397 16.9638 22.2637 14.7566 22.5456 12.4323C22.92 9.32016 22.0963 6.27196 20.2545 3.94302L21.6184 4.479C23.4584 6.80794 24.2928 9.86133 23.9095 12.9683C23.6278 15.2921 22.7038 17.4988 21.2351 19.3552C19.813 21.174 17.885 22.5614 15.6778 23.3543C14.2687 23.8544 12.7682 24.0663 11.2705 23.9767C11.0013 23.9595 10.7356 23.9318 10.4628 23.8955C10.004 23.8316 9.55018 23.7381 9.10427 23.6154C8.75759 23.518 8.41657 23.4025 8.08267 23.2696Z" fill="url(#paint3_linear_3848_368610)"/>
<path d="M13.7145 10.6157C13.8184 11.0084 13.8462 11.4165 13.7966 11.8191C13.7218 12.4357 13.4772 13.0215 13.0886 13.515C12.7128 13.9969 12.203 14.3649 11.6191 14.5758C11.247 14.7086 10.8504 14.7651 10.4546 14.7416C10.2616 14.7293 10.0706 14.6972 9.88457 14.646C9.31925 14.4871 8.82212 14.1552 8.46751 13.6996C8.09866 13.2232 7.88275 12.652 7.84677 12.0573C7.80687 11.4393 7.94001 10.8224 8.2321 10.2718C8.51842 9.7253 8.95499 9.26617 9.49354 8.94517C10.0058 8.6386 10.6026 8.49178 11.2036 8.52451C11.5908 8.54913 11.9679 8.65434 12.3094 8.83296C12.6536 9.0144 12.9542 9.26461 13.1912 9.56705C13.4358 9.87941 13.6136 10.2359 13.7145 10.6157Z" fill="#3F3F3F"/>
<path d="M19.9066 9.93013L12.3081 10.2093L9.19087 12.2427L13.552 12.5941L19.9066 9.93013Z" fill="#333333"/>
<path d="M19.9065 9.93002L19.9033 10.4965L14.6666 12.6272L9.36532 12.6538L9.19078 12.2426L14.0664 12.0554L19.9065 9.93002Z" fill="#1A1A1A"/>
<path opacity="0.35" d="M19.9066 9.93013L14.2211 11.9988L13.5321 10.9879L12.0614 10.3935L12.3081 10.2093L19.9066 9.93013Z" fill="url(#paint4_linear_3848_368610)"/>
<path d="M12.0296 3.84814L8.92969 11.978L9.93384 13.7234L12.0296 11.734L12.0296 3.84814Z" fill="#262626"/>
<path d="M12.0293 3.84814L12.6321 4.10488L12.5632 9.25928L12.0293 9.46227L11.8915 10.9511L11.5548 12.2036L11.6849 12.6077L10.5108 13.9716L9.90234 13.6921L11.6849 10.9511L12.0293 3.84814Z" fill="#1A1A1A"/>
<path opacity="0.5" d="M12.0296 3.84814L11.6938 10.7628L10.3074 11.0367L9.0158 12.3203L8.92969 11.978L12.0296 3.84814Z" fill="url(#paint5_linear_3848_368610)"/>
<defs>
<linearGradient id="paint0_linear_3848_368610" x1="9.96652" y1="21.8431" x2="14.5695" y2="1.86128" gradientUnits="userSpaceOnUse">
<stop stop-color="#4F565F"/>
<stop offset="1" stop-color="#B5C3DA"/>
</linearGradient>
<linearGradient id="paint1_linear_3848_368610" x1="11.3181" y1="-0.00341797" x2="11.3181" y2="23.4588" gradientUnits="userSpaceOnUse">
<stop stop-color="#E0EBF9"/>
<stop offset="1" stop-color="#5E6267"/>
</linearGradient>
<linearGradient id="paint2_linear_3848_368610" x1="15.3598" y1="0.723633" x2="15.3598" y2="23.9968" gradientUnits="userSpaceOnUse">
<stop stop-color="#C7C7C7"/>
<stop offset="1" stop-color="#000209" stop-opacity="0"/>
</linearGradient>
<linearGradient id="paint3_linear_3848_368610" x1="15.3598" y1="0.723633" x2="15.3598" y2="23.9968" gradientUnits="userSpaceOnUse">
<stop stop-color="#C7C7C7"/>
<stop offset="1" stop-color="#000209" stop-opacity="0"/>
</linearGradient>
<linearGradient id="paint4_linear_3848_368610" x1="15.4478" y1="8.89573" x2="16.484" y2="11.3676" gradientUnits="userSpaceOnUse">
<stop stop-color="#4D4D4D"/>
<stop offset="1" stop-color="#999999"/>
</linearGradient>
<linearGradient id="paint5_linear_3848_368610" x1="10.4797" y1="7.03422" x2="12.0324" y2="8.08302" gradientUnits="userSpaceOnUse">
<stop stop-color="#4D4D4D"/>
<stop offset="1" stop-color="#999999"/>
</linearGradient>
</defs>
</svg>
