<svg width="24" height="24" viewBox="0 0 24 24" fill="none" xmlns="http://www.w3.org/2000/svg">
<g clip-path="url(#clip0_3848_368648)">
<path d="M21.0747 14.843L21.2487 11.8342L12.1899 18.6583L16.6897 17.8755L17.6332 22.4795L19.1418 20.353C20.2902 18.734 20.96 16.8246 21.0747 14.843Z" fill="url(#paint0_linear_3848_368648)"/>
<path d="M8.44755 3.40678L11.4563 3.23271L4.6322 12.2915L5.41506 7.79173L0.810981 6.8482L2.93754 5.33969C4.55651 4.19125 6.46592 3.52143 8.44755 3.40678Z" fill="url(#paint1_linear_3848_368648)"/>
<path d="M23.3144 0.650834C23.3144 0.650834 15.8498 -1.54464 11.9117 2.3935C7.97354 6.33163 3.62837 13.4577 3.62837 13.4577C4.65292 13.7993 6.98012 14.7604 8.09249 15.8728C9.20486 16.9851 10.166 19.3123 10.5075 20.3369C10.5075 20.3369 17.6336 15.9917 21.5717 12.0536C25.5099 8.11543 23.3144 0.650834 23.3144 0.650834Z" fill="url(#paint2_linear_3848_368648)"/>
<path opacity="0.2" d="M3.6288 13.4578C3.6288 13.4578 7.97397 6.33169 11.9121 2.39355C9.54131 4.76436 5.61935 10.6183 9.48337 14.4824C13.3474 18.3464 19.2014 14.4244 21.5722 12.0536C17.634 15.9918 10.5079 20.3369 10.5079 20.3369C10.1664 19.3124 9.20529 16.9852 8.09292 15.8728C6.98055 14.7604 4.65335 13.7993 3.6288 13.4578Z" fill="#011095" fill-opacity="0.74"/>
<g filter="url(#filter0_d_3848_368648)">
<ellipse cx="6.99717" cy="16.9723" rx="4.86428" ry="1.65593" transform="rotate(45 6.99717 16.9723)" fill="#191C1C"/>
</g>
<ellipse cx="6.77579" cy="17.1917" rx="4.03632" ry="1.34544" transform="rotate(45 6.77579 17.1917)" fill="#25054A"/>
<ellipse cx="6.55624" cy="17.4105" rx="3.41535" ry="1.03495" transform="rotate(45 6.55624 17.4105)" fill="#AB1FA5"/>
<path opacity="0.9" d="M23.3144 0.650833C23.3144 0.650833 15.8498 -1.54464 11.9117 2.3935C14.1023 1.76354 17.0207 1.67539 19.6553 4.30995C22.2899 6.94451 22.2017 9.86294 21.5717 12.0536C25.5099 8.11543 23.3144 0.650833 23.3144 0.650833Z" fill="#F6ECFF" fill-opacity="0.31"/>
<path opacity="0.4" d="M7.83543 20.1002C3.69205 24.2436 0.183252 23.7367 0.183252 23.7367C0.183252 23.7367 -0.323641 20.2279 3.81974 16.0846C4.84722 15.0571 5.82863 15.8736 6.93753 16.9825C8.04643 18.0914 8.86291 19.0728 7.83543 20.1002Z" fill="url(#paint3_linear_3848_368648)"/>
<ellipse opacity="0.4" cx="22.7771" cy="6.14942" rx="1.03495" ry="0.517478" transform="rotate(84.7273 22.7771 6.14942)" fill="white"/>
<ellipse opacity="0.2" cx="22.1072" cy="6.20939" rx="2.34825" ry="1.17412" transform="rotate(84.7273 22.1072 6.20939)" fill="white"/>
<ellipse opacity="0.45" cx="15.3794" cy="8.58512" rx="3.49456" ry="1.74728" transform="rotate(135 15.3794 8.58512)" fill="white"/>
</g>
<defs>
<filter id="filter0_d_3848_368648" x="-2.63672" y="7.33789" width="19.2676" height="19.269" filterUnits="userSpaceOnUse" color-interpolation-filters="sRGB">
<feFlood flood-opacity="0" result="BackgroundImageFix"/>
<feColorMatrix in="SourceAlpha" type="matrix" values="0 0 0 0 0 0 0 0 0 0 0 0 0 0 0 0 0 0 127 0" result="hardAlpha"/>
<feOffset/>
<feGaussianBlur stdDeviation="3"/>
<feComposite in2="hardAlpha" operator="out"/>
<feColorMatrix type="matrix" values="0 0 0 0 1 0 0 0 0 0 0 0 0 0 0 0 0 0 0.57 0"/>
<feBlend mode="lighten" in2="BackgroundImageFix" result="effect1_dropShadow_3848_368648"/>
<feBlend mode="normal" in="SourceGraphic" in2="effect1_dropShadow_3848_368648" result="shape"/>
</filter>
<linearGradient id="paint0_linear_3848_368648" x1="17.2319" y1="18.8348" x2="20.7031" y2="11.6755" gradientUnits="userSpaceOnUse">
<stop stop-color="#BB55FD"/>
<stop offset="1" stop-color="#4B0F86"/>
</linearGradient>
<linearGradient id="paint1_linear_3848_368648" x1="4.45569" y1="7.24952" x2="11.615" y2="3.77833" gradientUnits="userSpaceOnUse">
<stop stop-color="#BB55FD"/>
<stop offset="1" stop-color="#4B0F86"/>
</linearGradient>
<linearGradient id="paint2_linear_3848_368648" x1="23.3144" y1="0.650833" x2="7.06794" y2="16.8973" gradientUnits="userSpaceOnUse">
<stop stop-color="#5855FF"/>
<stop offset="1" stop-color="#D355FF" stop-opacity="0.99"/>
</linearGradient>
<linearGradient id="paint3_linear_3848_368648" x1="6.93753" y1="16.9825" x2="1.18172" y2="24.5011" gradientUnits="userSpaceOnUse">
<stop stop-color="#FAFF00"/>
<stop offset="0.651042" stop-color="#FF640D"/>
<stop offset="1" stop-color="#B504E1" stop-opacity="0.46"/>
</linearGradient>
<clipPath id="clip0_3848_368648">
<rect width="24" height="24" fill="white"/>
</clipPath>
</defs>
</svg>
