<svg width="24" height="23" viewBox="0 0 24 23" fill="none" xmlns="http://www.w3.org/2000/svg">
<path d="M8.98114 3.49086C8.96598 3.46079 8.95287 3.42973 8.94192 3.39789C8.72886 2.88944 8.5158 2.38051 8.30273 1.87109C8.38033 1.96879 8.44389 2.07685 8.49158 2.19214L9.17 3.81191C9.12086 3.69735 9.0574 3.58947 8.98114 3.49086Z" fill="#FE3030"/>
<path d="M11.4817 4.1187L11.1912 3.41414L10.8105 2.49894C10.8942 2.48017 10.9811 2.48017 11.0648 2.49894L11.1432 2.68924L11.2275 2.88971L11.3146 3.09745L11.4032 3.30955L11.4919 3.52164L11.579 3.72938L11.6633 3.92985L11.7417 4.12016C11.6564 4.09892 11.5672 4.09842 11.4817 4.1187Z" fill="#FE3030"/>
<path d="M11.7356 4.11682L11.0586 2.49561L11.137 2.68591L11.2213 2.88638L11.3085 3.09412L11.3971 3.30621L11.4857 3.51831L11.5728 3.72605L11.6571 3.92652L11.7356 4.11682Z" fill="#FE3030"/>
<path d="M13.4266 3.5984L12.7555 1.97864C12.6138 1.62794 12.6101 1.23657 12.7453 0.883301L13.4266 2.50307C13.2882 2.85505 13.2882 3.24641 13.4266 3.5984Z" fill="#FE3030"/>
<path d="M10.3633 3.01904L10.4228 3.16431L10.4839 3.30958L10.5478 3.46212L10.6131 3.61901L10.68 3.77735L10.7468 3.93715L10.8122 4.0955L10.8775 4.25094L10.3633 3.0205V3.01904Z" fill="#FE3030"/>
<path d="M11.0426 4.63837C11.0454 4.66788 11.0528 4.69679 11.0644 4.72408L10.3874 3.10286C10.3758 3.076 10.3679 3.04764 10.3642 3.0186C10.5908 3.55901 10.8164 4.09893 11.0411 4.63837C10.8164 4.09796 10.5908 3.55804 10.3642 3.0186C10.3351 2.79343 10.5327 2.55955 10.8 2.49854L11.4784 4.1183C11.2096 4.17931 11.0121 4.41901 11.0426 4.63837Z" fill="#FE3030"/>
<path d="M12.0072 4.32892C11.982 4.27455 11.9442 4.22696 11.897 4.19008C11.8497 4.1532 11.7944 4.12809 11.7356 4.11682L11.0586 2.49561C11.1173 2.50734 11.1724 2.53281 11.2193 2.56993C11.2663 2.60705 11.3038 2.65476 11.3288 2.70915L12.0072 4.32892Z" fill="#FE3030"/>
<path d="M8.48733 2.19238L9.16574 3.81215C9.44756 4.48766 9.16574 5.34039 8.40888 5.91276L7.73047 4.29299C8.49459 3.72063 8.77787 2.86789 8.48733 2.19238Z" fill="#F67067"/>
<path d="M11.3276 2.70947L12.006 4.32924C12.0164 4.35644 12.0237 4.3847 12.0278 4.41349C12.0554 4.63866 11.8593 4.87255 11.592 4.93356C11.5084 4.95313 11.4214 4.95313 11.3378 4.93356C11.2792 4.92197 11.2242 4.89672 11.1773 4.85987C11.1303 4.82301 11.0927 4.77559 11.0676 4.72147L10.3906 3.10025C10.415 3.15469 10.4521 3.20242 10.4989 3.23935C10.5457 3.27629 10.6008 3.30134 10.6594 3.31234C10.743 3.33196 10.83 3.33196 10.9136 3.31234C11.1853 3.25133 11.3828 3.0218 11.3494 2.79228C11.346 2.76381 11.3386 2.73595 11.3276 2.70947Z" fill="#FFFCED"/>
<path d="M11.0581 2.49601C11.1301 2.50962 11.1964 2.54463 11.2482 2.59646C11.3 2.64828 11.335 2.71453 11.3486 2.78655C11.3762 3.01172 11.1787 3.2456 10.9128 3.30662C10.8292 3.32623 10.7422 3.32623 10.6586 3.30662C10.5861 3.29416 10.5192 3.25954 10.4672 3.20751C10.4151 3.15547 10.3805 3.0886 10.3681 3.01607C10.339 2.7909 10.5366 2.55702 10.8039 2.49601C10.8876 2.47724 10.9744 2.47724 11.0581 2.49601Z" fill="#FFFCED"/>
<path d="M7.73466 4.2915L8.41307 5.91127L5.40743 8.17458L4.73047 6.55482L7.73466 4.2915Z" fill="#F67067"/>
<path d="M13.427 3.59877L12.7559 1.979C12.8606 2.21095 13.0195 2.41435 13.2192 2.5721C13.4189 2.72985 13.6536 2.83732 13.9035 2.88549L14.5892 4.50526C14.3366 4.45947 14.0988 4.35307 13.8964 4.19518C13.694 4.03729 13.5329 3.83263 13.427 3.59877Z" fill="#F67067"/>
<path d="M4.7297 6.55469L5.40665 8.17445C5.11154 8.40007 4.77132 8.55952 4.40912 8.64199C4.04691 8.72446 3.6712 8.72801 3.3075 8.65239C3.06095 8.5966 2.82884 8.4897 2.62618 8.33861L1.94922 6.71884C2.15242 6.86994 2.385 6.97682 2.63199 7.03263C2.99547 7.10793 3.37089 7.10422 3.73281 7.02176C4.09473 6.9393 4.43471 6.78001 4.7297 6.55469Z" fill="#F67067"/>
<path d="M3.24609 8.37793L3.3042 8.5232L3.36667 8.66847L3.43059 8.82246L3.49596 8.9779L3.56278 9.13769L3.62815 9.29604L3.69498 9.45438L3.76035 9.60982L3.24609 8.38084V8.37793Z" fill="#FE3030"/>
<path d="M3.26795 10.2998C3.24324 10.3463 3.22889 10.3977 3.22588 10.4504C3.22287 10.503 3.23128 10.5557 3.25052 10.6048L2.57211 8.98506C2.55287 8.93595 2.54446 8.88327 2.54747 8.83062C2.55048 8.77796 2.56483 8.72658 2.58954 8.67999L3.26795 10.2998L2.58954 8.67999C2.65208 8.56619 2.74946 8.47544 2.86738 8.42105C2.9853 8.36667 3.11755 8.35152 3.24471 8.37783C3.46939 8.9163 3.69504 9.45622 3.92167 9.99759C3.69698 9.45718 3.47133 8.91726 3.24471 8.37783C3.30326 8.38895 3.35827 8.41404 3.40505 8.45096C3.45184 8.48789 3.48903 8.53556 3.51346 8.58992L4.19187 10.2097C4.16741 10.1551 4.13003 10.1072 4.08295 10.0703C4.03588 10.0333 3.98053 10.0084 3.92167 9.99759C3.7947 9.97115 3.6626 9.98625 3.54488 10.0407C3.42716 10.0951 3.33007 10.1859 3.26795 10.2998Z" fill="#FE3030"/>
<path d="M3.51362 8.58984L4.19203 10.2096C4.21134 10.2584 4.21978 10.3109 4.21677 10.3633C4.21376 10.4158 4.19937 10.4669 4.1746 10.5132C4.11249 10.6276 4.01529 10.7189 3.89734 10.7738C3.77939 10.8288 3.64691 10.8443 3.51943 10.8183C3.46086 10.8067 3.40591 10.7812 3.35917 10.7441C3.31242 10.7069 3.27522 10.6592 3.25068 10.6047L2.57227 8.98498C2.59693 9.03945 2.63437 9.08717 2.68141 9.12409C2.72845 9.16101 2.78369 9.18605 2.84247 9.19707C2.9698 9.22349 3.10225 9.20823 3.22024 9.15356C3.33822 9.09888 3.43548 9.00768 3.49764 8.89346C3.52181 8.84692 3.53574 8.79575 3.53849 8.74338C3.54125 8.69101 3.53277 8.63866 3.51362 8.58984Z" fill="#FFFCED"/>
<path d="M3.24585 8.37801C3.30141 8.38693 3.35402 8.40906 3.39926 8.44254C3.4445 8.47602 3.48103 8.51987 3.5058 8.5704C3.53057 8.62093 3.54285 8.67667 3.5416 8.73294C3.54034 8.7892 3.5256 8.84434 3.49861 8.89372C3.43646 9.00795 3.3392 9.09914 3.22121 9.15382C3.10323 9.2085 2.97077 9.22376 2.84344 9.19734C2.78767 9.18851 2.73485 9.16637 2.68944 9.1328C2.64403 9.09923 2.60738 9.05522 2.58258 9.00449C2.55779 8.95375 2.54558 8.89779 2.54698 8.84134C2.54839 8.78489 2.56338 8.72961 2.59067 8.68018C2.65305 8.56622 2.7504 8.47533 2.86837 8.42092C2.98634 8.36651 3.11867 8.35147 3.24585 8.37801Z" fill="#FFFCED"/>
<path d="M17.3046 3.68424L17.983 5.30401L14.5808 4.50502L13.9023 2.88525L17.3046 3.68424Z" fill="#F67067"/>
<path d="M19.8905 2.71973L20.5689 4.33949C20.2709 4.72568 19.8708 5.02081 19.4139 5.19152C18.9569 5.36224 18.4613 5.40173 17.9831 5.30554L17.3047 3.69304C17.7836 3.78947 18.28 3.74934 18.7372 3.57725C19.1944 3.40515 19.594 3.10801 19.8905 2.71973Z" fill="#F67067"/>
<path d="M11.4084 7.07324L12.0854 8.69301C12.0249 8.6804 11.9621 8.68517 11.9043 8.70676C11.8464 8.72836 11.7959 8.7659 11.7585 8.81504L11.0801 7.19527C11.1178 7.14615 11.1686 7.10865 11.2267 7.08707C11.2848 7.06549 11.3477 7.06069 11.4084 7.07324Z" fill="#FFFCED"/>
<path d="M1.65867 12.0358C1.4208 11.9803 1.17552 11.9636 0.932321 11.9864L0.253906 10.3666C0.497039 10.3444 0.742161 10.3605 0.980258 10.4146C1.20494 10.955 1.4306 11.4949 1.65722 12.0343L1.49452 11.645L0.980258 10.416C1.22986 10.4644 1.46433 10.5716 1.66418 10.7287C1.86404 10.8859 2.02351 11.0884 2.12935 11.3196L2.80776 12.9394C2.70192 12.7082 2.54245 12.5056 2.3426 12.3485C2.14275 12.1913 1.90828 12.0841 1.65867 12.0358Z" fill="#FE3030"/>
<path d="M2.125 11.3198L2.80341 12.9396C2.85062 13.0551 2.88284 13.1762 2.89929 13.2999L2.22087 11.683C2.20537 11.5582 2.17312 11.436 2.125 11.3198Z" fill="#F67067"/>
<path d="M20.0891 6.30782L19.7506 5.49721C19.6373 5.227 19.524 4.95825 19.4121 4.68805C19.4812 4.63482 19.561 4.59724 19.646 4.57793C19.7311 4.55861 19.8193 4.55802 19.9046 4.57619L19.983 4.76504L20.0252 4.86383L20.1109 5.06866L20.198 5.2793L20.2881 5.4914L20.3317 5.59744L20.3753 5.70204L20.461 5.90687L20.5423 6.10298C20.5613 6.13112 20.5747 6.1627 20.5815 6.19596C20.4963 6.17779 20.408 6.17838 20.323 6.19769C20.238 6.21701 20.1581 6.25458 20.0891 6.30782Z" fill="#FE3030"/>
<path d="M20.5832 6.1974C20.3576 5.657 20.1319 5.11707 19.9062 4.57764L19.9847 4.76649L20.069 4.96696L20.1561 5.1747L20.2447 5.38679L20.3333 5.59889L20.4205 5.80663L20.5048 6.0071L20.5832 6.1974Z" fill="#FE3030"/>
<path d="M20.7819 6.30779C20.6991 6.10732 20.6149 5.9083 20.5321 5.70928C20.3868 5.36934 20.2415 5.02796 20.1035 4.69238C20.1485 4.70836 20.1297 4.75485 20.1427 4.78536L20.2241 4.98147L20.2677 5.08316L20.3548 5.2909L20.4434 5.50299L20.487 5.60904L20.5756 5.81968L20.6614 6.02451L20.702 6.1233L20.7819 6.30779Z" fill="#FE3030"/>
<path d="M20.7837 6.30782C20.7289 6.25279 20.6592 6.21492 20.5832 6.19887C20.3576 5.65846 20.1319 5.11854 19.9062 4.5791C19.9816 4.59493 20.0507 4.63228 20.1053 4.6866L20.1852 4.87545L20.2258 4.97424L20.3116 5.17907L20.3566 5.28366L20.7837 6.30056V6.30782Z" fill="#FE3030"/>
<path d="M20.0887 6.30777C20.0082 6.35842 19.9468 6.43453 19.9145 6.52401C19.8821 6.61349 19.8805 6.71122 19.91 6.80169L19.236 5.18337C19.2081 5.09266 19.2107 4.99534 19.2432 4.90619C19.2757 4.81704 19.3364 4.74095 19.4161 4.68945C19.6137 5.17466 19.8853 5.82256 20.0887 6.30777Z" fill="#FE3030"/>
<path d="M20.8546 6.41087C20.8383 6.37151 20.814 6.33592 20.7834 6.30628L20.1094 4.68506C20.1397 4.71548 20.1639 4.75149 20.1806 4.79111L20.8546 6.41087Z" fill="#FE3030"/>
<path d="M4.70997 11.9601C4.32945 13.1922 4.38693 14.5179 4.87267 15.7124L4.19571 14.0927C3.70854 12.8985 3.65104 11.5722 4.03301 10.3403L4.11145 10.5306L4.19571 10.7311L4.28287 10.9388L4.37149 11.1509L4.41652 11.257L4.50368 11.4676L4.54726 11.5708L4.58939 11.6725L4.63152 11.7712C4.66696 11.8299 4.6934 11.8936 4.70997 11.9601Z" fill="#FE3030"/>
<path d="M5.14598 10.8546C4.96964 11.2101 4.82385 11.5799 4.71016 11.9601C4.48451 11.4207 4.25886 10.8807 4.0332 10.3403C4.14689 9.96014 4.29268 9.5903 4.46901 9.23482C6.24131 5.61613 10.9437 3.43707 14.9503 4.37988C17.0785 4.87961 18.582 6.1609 19.2706 7.79519L19.949 9.41495C19.2663 7.78066 17.7554 6.49937 15.6272 5.99964C11.6134 5.05684 6.91101 7.2359 5.14598 10.8546Z" fill="#FE3030"/>
<path d="M18.995 7.9058L19.672 9.52557C19.0139 7.95084 17.5569 6.71459 15.5056 6.23229C11.64 5.32435 7.1061 7.42496 5.39627 10.9158C4.59438 12.553 4.55515 14.2091 5.13623 15.6008L4.45927 13.981C3.87819 12.5893 3.91741 10.9303 4.71785 9.29604C6.42769 5.80955 10.9645 3.70313 14.8272 4.61252C16.8784 5.09482 18.3355 6.33107 18.995 7.9058Z" fill="#C62525"/>
<path d="M18.1123 7.91746C17.9932 7.80996 17.8682 7.70537 17.7375 7.60658C17.5128 7.06618 17.2872 6.52625 17.0605 5.98682C17.1913 6.0856 17.3162 6.18874 17.4339 6.2977L17.4818 6.41101L17.5312 6.53158L17.5835 6.65506L17.6373 6.7829L17.6896 6.90928L17.7419 7.03422L17.7927 7.15479L17.8392 7.26665L17.8712 7.34364L17.9046 7.42354L17.9394 7.5078L17.9758 7.59205L18.0106 7.67776L18.0469 7.76057L18.0803 7.84192L18.1123 7.91746Z" fill="#FE3030"/>
<path d="M14.2081 7.72985L14.885 9.34962L12.0871 8.69154L11.4102 7.07178L14.2081 7.72985Z" fill="#FFFCED"/>
<path d="M20.1748 4.79102L20.8532 6.41078C20.8812 6.50134 20.8789 6.59855 20.8466 6.68768C20.8144 6.77682 20.7539 6.853 20.6745 6.9047C20.6048 6.95729 20.5247 6.99446 20.4396 7.01374C20.3544 7.03303 20.2661 7.03399 20.1806 7.01656C20.1054 6.99956 20.0364 6.96181 19.9816 6.90761C19.9513 6.87771 19.9271 6.84218 19.9104 6.80301L19.2363 5.18325C19.2535 5.22213 19.2777 5.25757 19.3075 5.28784C19.3625 5.3418 19.4314 5.3795 19.5065 5.39679C19.5921 5.41422 19.6804 5.41326 19.7655 5.39397C19.8507 5.37469 19.9308 5.33752 20.0005 5.28494C20.0802 5.23365 20.1407 5.15727 20.1722 5.06784C20.2038 4.97841 20.2047 4.88101 20.1748 4.79102Z" fill="#FFFCED"/>
<path d="M12.2507 9.06762L12.9276 10.6874C12.8672 10.6751 12.8045 10.6801 12.7468 10.7016C12.689 10.7232 12.6384 10.7605 12.6008 10.8094L11.9238 9.18964C11.9614 9.14077 12.012 9.10343 12.0698 9.08186C12.1276 9.06029 12.1902 9.05536 12.2507 9.06762Z" fill="#FE3030"/>
<path d="M18.112 7.91713C18.1052 7.90522 18.0998 7.89254 18.096 7.87936L18.0292 7.71956L17.9929 7.6353L17.9755 7.59172L17.8389 7.26632L17.4336 6.29736C17.6093 6.45645 17.7729 6.62834 17.9232 6.81162L18.0031 7.00047L18.0873 7.20095L18.1745 7.40868L18.2631 7.62078L18.3517 7.83287L18.4389 8.04061L18.5217 8.24108L18.6016 8.43139C18.4501 8.24914 18.2866 8.07733 18.112 7.91713Z" fill="#FE3030"/>
<path d="M18.7824 8.6613C18.7243 8.58286 18.6648 8.50586 18.6023 8.43178C18.3757 7.8875 18.1515 7.34758 17.9297 6.81201C17.9922 6.8861 18.0532 6.95728 18.1098 7.04154L18.1694 7.18681L18.2318 7.33208L18.2972 7.48897L18.364 7.64732L18.4309 7.80712L18.4962 7.96401L18.5587 8.10928L18.6183 8.25455L18.6386 8.30249L18.6589 8.35188L18.6807 8.40417L18.7025 8.45647L18.7258 8.50877L18.7476 8.56107L18.7679 8.61046L18.7824 8.6613Z" fill="#FE3030"/>
<path d="M13.0984 9.27127L13.7753 10.891L12.927 10.692L12.25 9.0708L13.0984 9.27127Z" fill="#FE3030"/>
<path d="M11.9233 9.19434L12.6003 10.8141L11.8405 11.8659L11.1621 10.2461L11.9233 9.19434Z" fill="#FE3030"/>
<path d="M11.8096 12.0634L11.1326 10.4437C11.12 10.4109 11.1161 10.3755 11.1215 10.3408C11.1268 10.3061 11.1412 10.2735 11.1631 10.2461L11.8415 11.8673C11.8195 11.8943 11.8049 11.9267 11.7993 11.9611C11.7937 11.9955 11.7973 12.0308 11.8096 12.0634Z" fill="#FE3030"/>
<path d="M13.5601 9.58478L14.2385 11.2045C14.1746 11.0593 14.0206 10.9489 13.7766 10.8922L13.0996 9.271C13.3422 9.3291 13.4977 9.4337 13.5601 9.58478Z" fill="#FE3030"/>
<path d="M11.955 12.1764C11.9236 12.1704 11.894 12.157 11.8687 12.1373C11.8435 12.1176 11.8233 12.0922 11.8098 12.0631L11.1328 10.4434C11.1461 10.4726 11.1663 10.4981 11.1915 10.5178C11.2168 10.5376 11.2465 10.5509 11.2781 10.5567L11.955 12.1764Z" fill="#FFFCED"/>
<path d="M14.238 11.2047C14.238 11.2178 14.2481 11.2309 14.251 11.2439L13.5712 9.62418C13.5712 9.61111 13.5625 9.59804 13.5566 9.58496L14.238 11.2047Z" fill="#FFFCED"/>
<path d="M16.3701 10.4843C16.129 9.90324 15.6341 9.52553 14.8854 9.35121L14.207 7.73145C14.9547 7.90674 15.4501 8.28396 15.6931 8.8631L16.3701 10.4843Z" fill="#FFFCED"/>
<path d="M15.6934 8.86279L16.3703 10.4826C16.3748 10.492 16.3787 10.5017 16.3819 10.5116L15.705 8.89039C15.7006 8.88168 15.6977 8.87296 15.6934 8.86279Z" fill="#FE3030"/>
<path d="M12.117 10.7528L12.794 12.374L11.9543 12.1764L11.2773 10.5566L12.117 10.7528Z" fill="#FFFCED"/>
<path d="M14.2514 11.2468C14.3139 11.4211 14.2659 11.6172 14.1061 11.8351L14.0262 11.6463L13.942 11.4458L13.8548 11.2366L13.7662 11.0245L13.5904 10.6047C13.5367 10.4754 13.4829 10.3446 13.4277 10.2154C13.5832 9.99745 13.6311 9.80134 13.573 9.63428C13.7778 10.1093 14.0626 10.7514 14.2514 11.2468Z" fill="#FFFCED"/>
<path d="M14.112 11.8278L13.4336 10.208L14.112 11.8278Z" fill="#FFFCED"/>
<path d="M2.2207 11.6782L2.89912 13.2994L3.2957 16.3617L2.61874 14.742L2.2207 11.6782Z" fill="#F67067"/>
<path d="M12.8222 12.3814L12.7946 12.3742L12.1191 10.7544H12.1453L12.2179 10.9258L12.2935 11.1074L12.3734 11.2963L12.4533 11.4895L12.5346 11.6812L12.6131 11.8701L12.6886 12.0531L12.7612 12.2245V12.242L12.7685 12.2608L12.7772 12.2797L12.7845 12.2986L12.7932 12.319L12.8019 12.3378L12.8092 12.3567L12.8222 12.3814Z" fill="#FFFCED"/>
<path d="M12.821 12.3815C12.5944 11.8411 12.3682 11.3012 12.1426 10.7617L12.2225 10.9506L12.3067 11.151L12.3939 11.3602L12.4825 11.5723L12.5711 11.7844L12.6583 11.9922L12.7411 12.1926L12.821 12.3815Z" fill="#FFFCED"/>
<path d="M5.71402 10.99C4.94699 12.556 4.90777 14.138 5.4627 15.4658L4.78429 13.846C4.22936 12.5183 4.26858 10.9406 5.0356 9.37025C6.67135 6.02903 10.9917 4.02866 14.6888 4.89883C15.5464 5.09082 16.3537 5.46159 17.0582 5.9869L17.1366 6.17575L17.2209 6.37623L17.3081 6.58396L17.3967 6.79606L17.4853 7.00815L17.5724 7.21589L17.6567 7.41636L17.7351 7.60667C17.0298 7.08099 16.2214 6.7102 15.3629 6.51859C11.6701 5.64987 7.34831 7.6517 5.71402 10.99Z" fill="#FE3030"/>
<path d="M18.7819 8.66127C18.7779 8.6538 18.7745 8.64603 18.7718 8.63802L18.7514 8.58863L18.7413 8.56394L18.6962 8.45934L18.612 8.25742C18.4434 7.8526 18.274 7.44729 18.1035 7.0415C18.3318 7.35126 18.522 7.6873 18.6701 8.04242L19.3485 9.66218C19.1993 9.30762 19.0091 8.9717 18.7819 8.66127Z" fill="#FE3030"/>
<path d="M13.509 12.3135C13.4552 12.1828 13.4 12.0535 13.3463 11.9227C13.2925 11.792 13.2286 11.6424 13.1705 11.5029L12.832 10.6937C13.0741 10.5938 13.2827 10.427 13.4334 10.2129L13.5133 10.4017L13.5962 10.6022L13.6833 10.81L13.7719 11.022L13.8605 11.2341L13.9477 11.4433L14.032 11.6438L14.1119 11.8327C13.9609 12.0472 13.7517 12.214 13.509 12.3135Z" fill="#FFFCED"/>
<path d="M13.5091 12.3131C13.2948 12.4107 13.0543 12.4347 12.8249 12.3814C12.5983 11.8429 12.3721 11.303 12.1465 10.7616C12.3763 10.8149 12.6173 10.791 12.8322 10.6934L13.5091 12.3131Z" fill="#FFFCED"/>
<path d="M13.0992 9.27152C13.3626 9.33447 13.521 9.45214 13.5742 9.62453C13.6367 9.79885 13.5873 9.99497 13.429 10.2056C13.2782 10.4197 13.0696 10.5865 12.8276 10.6865C12.6127 10.784 12.3717 10.808 12.1419 10.7547H12.1128L11.2732 10.5572C11.2399 10.5518 11.2086 10.5376 11.1826 10.5162C11.1566 10.4948 11.1367 10.4668 11.1251 10.4352C11.1134 10.4036 11.1103 10.3694 11.1162 10.3362C11.122 10.303 11.1366 10.272 11.1584 10.2463L11.9196 9.19453C11.9572 9.14566 12.0078 9.10832 12.0656 9.08675C12.1234 9.06518 12.186 9.06024 12.2465 9.0725L13.0992 9.27152Z" fill="#FFFCED"/>
<path d="M11.0822 7.19385L11.7592 8.81507L7.34298 14.9353L6.66602 13.3155L11.0822 7.19385Z" fill="#FFFCED"/>
<path d="M5.26088 15.8738C5.21729 15.7852 5.17517 15.6937 5.1374 15.6022L4.45898 13.9824C4.49821 14.0739 4.53888 14.164 4.58247 14.2541C4.60716 14.3107 4.63912 14.3863 4.66236 14.4429L4.74662 14.6434L4.83378 14.8526L4.9224 15.0647L5.01101 15.2753L5.09817 15.4845L5.18098 15.685L5.26088 15.8738Z" fill="#FE3030"/>
<path d="M10.1765 11.9585L10.8534 13.5783C10.7932 13.5655 10.7305 13.5701 10.6729 13.5917C10.6152 13.6134 10.5649 13.6511 10.528 13.7003L9.84961 12.0806C9.887 12.0314 9.93755 11.9939 9.99539 11.9723C10.0532 11.9507 10.116 11.9459 10.1765 11.9585Z" fill="#FE3030"/>
<path d="M8.24798 13.9707L8.92639 15.5905L7.45771 15.2448L6.7793 13.625L8.24798 13.9707Z" fill="#FE3030"/>
<path d="M7.34441 14.9352C7.32287 14.9625 7.30874 14.9949 7.3034 15.0292C7.29805 15.0636 7.30167 15.0988 7.3139 15.1313L6.63549 13.5115C6.62346 13.4789 6.62008 13.4436 6.62568 13.4093C6.63128 13.3749 6.64566 13.3426 6.66745 13.3154L7.34441 14.9352Z" fill="#FFFCED"/>
<path d="M7.31318 15.1315L6.63477 13.5117C6.64836 13.5408 6.66858 13.5664 6.6938 13.5863C6.71903 13.6062 6.74855 13.62 6.78004 13.6265L7.45845 15.2462C7.42679 15.2402 7.39706 15.2266 7.37177 15.2066C7.34648 15.1867 7.32639 15.1609 7.31318 15.1315Z" fill="#FE3030"/>
<path d="M10.6368 12.065L11.3137 13.6862L10.8547 13.5773L10.1777 11.9575L10.6368 12.065Z" fill="#FE3030"/>
<path d="M10.796 12.2622L11.473 13.882L11.3117 15.9913L10.6348 14.3715L10.796 12.2622Z" fill="#FFFCED"/>
<path d="M10.782 12.1797L11.4589 13.7995C11.4458 13.7702 11.4256 13.7446 11.4003 13.7249C11.375 13.7051 11.3453 13.6918 11.3137 13.6862L10.6367 12.0664C10.6682 12.0723 10.6979 12.0857 10.7231 12.1054C10.7484 12.1251 10.7686 12.1506 10.782 12.1797Z" fill="#FE3030"/>
<path d="M10.7812 12.1797L11.4582 13.7995C11.4691 13.8256 11.4736 13.854 11.4713 13.8823L10.7943 12.2639C10.7961 12.2352 10.7916 12.2065 10.7812 12.1797Z" fill="#FFFCED"/>
<path d="M2.61798 14.7422L3.29494 16.362C3.39808 17.1551 2.8417 17.9715 1.98751 18.3783L1.31055 16.7585C2.16474 16.3503 2.72112 15.5354 2.61798 14.7422Z" fill="#F67067"/>
<path d="M0.974609 10.416L1.03417 10.5613L1.09518 10.7066L1.1591 10.8591L1.22447 11.016L1.2913 11.1743L1.35812 11.3341L1.42349 11.4925L1.48886 11.6479L0.974609 10.4175V10.416Z" fill="#FE3030"/>
<path d="M2.2198 11.6828L2.61784 14.7451C2.72099 15.5383 2.1646 16.3532 1.31041 16.7614C0.097402 14.9528 -0.315166 12.7026 0.248484 10.3696C0.491616 10.3473 0.736739 10.3635 0.974836 10.4175C1.64163 10.5715 2.137 11.0363 2.2198 11.6828Z" fill="#F67067"/>
<path d="M9.85165 12.0791L10.5301 13.6989L9.25459 15.4683L8.57617 13.8485L9.85165 12.0791Z" fill="#FE3030"/>
<path d="M8.57491 13.8486L9.25332 15.4684C9.21593 15.5175 9.16538 15.5551 9.10754 15.5767C9.04969 15.5983 8.98691 15.603 8.92646 15.5904L8.24805 13.9707C8.30849 13.9833 8.37127 13.9785 8.42912 13.9569C8.48697 13.9353 8.53751 13.8978 8.57491 13.8486Z" fill="#FE3030"/>
<path d="M15.7058 8.89062L16.3827 10.5118C16.621 11.1055 16.5047 11.7258 16.0341 12.3728C15.7345 12.7873 15.3483 13.1318 14.9024 13.3824C14.5264 13.6022 14.1157 13.7564 13.6879 13.8385C13.6234 13.8474 13.5633 13.8765 13.5163 13.9216C13.4693 13.9668 13.4378 14.0257 13.4265 14.0899L12.748 12.4701C12.7596 12.406 12.7912 12.3472 12.8381 12.3021C12.8851 12.257 12.945 12.2278 13.0095 12.2188C13.4377 12.1367 13.8489 11.9824 14.2254 11.7626C14.6718 11.5096 15.0579 11.1626 15.3571 10.7457C15.8278 10.1046 15.944 9.48623 15.7058 8.89062Z" fill="#FE3030"/>
<path d="M4.46357 18.0748L3.78516 16.4551C3.80985 16.5117 3.84036 16.5873 3.86505 16.6439L3.94931 16.8444L4.03502 17.0536L4.12509 17.2657L4.2137 17.4778L4.30086 17.6855L4.38367 17.886L4.46357 18.0748Z" fill="#FE3030"/>
<path d="M4.95704 17.9583C4.87163 17.9408 4.78345 17.9419 4.69849 17.9615C4.61352 17.981 4.53375 18.0186 4.46457 18.0716L4.38467 17.8828L4.30187 17.6823L4.12899 17.2625C4.06943 17.1172 4.01133 16.9821 3.95322 16.8412C3.89511 16.7003 3.84427 16.5812 3.78906 16.4519C3.85851 16.3988 3.93853 16.3612 4.02373 16.3417C4.10894 16.3221 4.19734 16.3211 4.28298 16.3386L4.36143 16.5274L4.44568 16.7293L4.53285 16.9371L4.62146 17.1492L4.71008 17.3613L4.79724 17.569L4.88149 17.7695L4.95704 17.9583Z" fill="#FE3030"/>
<path d="M4.95626 17.9586C4.73157 17.4202 4.50592 16.8802 4.2793 16.3389L4.35774 16.5292L4.442 16.7296L4.52916 16.9374L4.61777 17.1495L4.70639 17.3616L4.79355 17.5693L4.87781 17.7698L4.95626 17.9586Z" fill="#FE3030"/>
<path d="M5.15673 18.0749C5.10111 18.021 5.03178 17.9833 4.95626 17.966C4.73157 17.4275 4.50592 16.8876 4.2793 16.3462C4.35452 16.3632 4.42346 16.4009 4.47832 16.4551C4.5082 16.4851 4.53189 16.5206 4.54805 16.5597L5.22646 18.1795C5.20977 18.1407 5.18614 18.1052 5.15673 18.0749Z" fill="#FE3030"/>
<path d="M4.4644 18.0748C4.38355 18.1256 4.32202 18.2019 4.28963 18.2917C4.25724 18.3815 4.25587 18.4796 4.28572 18.5702L3.60731 16.949C3.57933 16.8584 3.58164 16.7612 3.61388 16.6721C3.64613 16.583 3.70655 16.5068 3.78599 16.4551L3.86589 16.6439L3.9487 16.8444L4.03585 17.0536L4.12447 17.2657L4.21309 17.4763L4.30025 17.6855L4.38451 17.886L4.4644 18.0748Z" fill="#FE3030"/>
<path d="M11.3235 16.0742L10.6465 14.4544C10.6355 14.4288 10.631 14.4008 10.6335 14.373L11.3104 15.9928C11.3087 16.0206 11.3132 16.0483 11.3235 16.0742Z" fill="#FFFCED"/>
<path d="M4.54878 16.5522L5.22719 18.172C5.2553 18.2624 5.25322 18.3595 5.22124 18.4486C5.18926 18.5378 5.12914 18.614 5.04996 18.6659C4.9802 18.719 4.89992 18.7565 4.8145 18.7761C4.72907 18.7956 4.64046 18.7967 4.55458 18.7792C4.47914 18.7628 4.41003 18.725 4.35556 18.6703C4.32572 18.6409 4.30202 18.6058 4.28583 18.5671L3.60742 16.9459C3.62374 16.9849 3.64742 17.0205 3.67715 17.0505C3.73236 17.105 3.80186 17.1428 3.87762 17.1595C3.96327 17.177 4.05167 17.1759 4.13687 17.1564C4.22208 17.1368 4.3021 17.0993 4.37155 17.0462C4.45202 16.9955 4.5132 16.9193 4.54533 16.8298C4.57745 16.7402 4.57867 16.6425 4.54878 16.5522Z" fill="#FFFCED"/>
<path d="M11.3234 16.0744L10.6465 14.4546C10.6596 14.4841 10.6797 14.5099 10.705 14.5299C10.7303 14.5499 10.7601 14.5634 10.7918 14.5694L11.4687 16.1862C11.4373 16.1806 11.4077 16.1675 11.3824 16.148C11.3571 16.1285 11.3369 16.1033 11.3234 16.0744Z" fill="#FE3030"/>
<path d="M20.9648 7.40332L21.6418 9.02309L22.0398 12.0854L21.3629 10.4656L20.9648 7.40332Z" fill="#FE3030"/>
<path d="M22.0383 12.0866C22.0545 12.2104 22.0873 12.3316 22.1356 12.4468L21.4572 10.8271C21.4095 10.7117 21.3773 10.5906 21.3613 10.4668C21.5603 10.9564 21.9017 11.5781 22.0383 12.0866Z" fill="#FE3030"/>
<path d="M12.7469 12.4688L13.4253 14.09L13.2917 16.2908L12.6133 14.6711L12.7469 12.4688Z" fill="#FE3030"/>
<path d="M12.2442 14.9107L12.9226 16.5305L11.4699 16.1891L10.793 14.5693L12.2442 14.9107Z" fill="#FE3030"/>
<path d="M12.6126 14.6709L13.291 16.2907C13.2835 16.3313 13.2678 16.3699 13.2448 16.4042C13.2219 16.4386 13.1921 16.4678 13.1574 16.4903C13.1228 16.5127 13.0839 16.5279 13.0432 16.5347C13.0024 16.5416 12.9607 16.5401 12.9206 16.5304L12.2422 14.9106C12.2823 14.9204 12.324 14.9219 12.3647 14.915C12.4055 14.9081 12.4444 14.893 12.479 14.8705C12.5137 14.8481 12.5434 14.8188 12.5664 14.7845C12.5894 14.7502 12.6051 14.7115 12.6126 14.6709Z" fill="#FE3030"/>
<path d="M18.6701 8.04053L19.3471 9.66029C19.9035 10.9881 19.8642 12.5657 19.0972 14.1375C17.4615 17.4787 13.1411 19.4791 9.44543 18.609C7.48283 18.1484 6.09114 16.9703 5.46212 15.4668L4.78516 13.847C5.41272 15.3505 6.80442 16.5287 8.76702 16.9892C12.4627 17.8608 16.7845 15.8561 18.4188 12.5178C19.1858 10.9561 19.225 9.3683 18.6701 8.04053Z" fill="#FFFCED"/>
<path d="M19.4132 14.212C19.199 14.6486 18.9431 15.0636 18.6491 15.4511C18.4225 14.9107 18.1964 14.3708 17.9707 13.8313C18.2651 13.4439 18.5215 13.0289 18.7363 12.5922C19.5382 10.9535 19.5788 9.29745 18.9949 7.90576L19.6733 9.52553C20.2544 10.9172 20.2166 12.5748 19.4132 14.212Z" fill="#FE3030"/>
<path d="M9.30673 18.8937C7.37463 18.4405 5.9655 17.3175 5.26239 15.8736L4.58398 14.2538C5.2929 15.6978 6.69622 16.8193 8.62831 17.274C12.0102 18.07 15.9049 16.5592 17.9707 13.8311C17.9953 13.8877 18.0259 13.9633 18.0506 14.0199L18.1334 14.2204L18.2205 14.4281L18.3091 14.6402L18.3977 14.8523L18.4849 15.06L18.5692 15.2605L18.6491 15.4508C16.5833 18.179 12.6872 19.6898 9.30673 18.8937Z" fill="#FE3030"/>
<path d="M19.2637 7.79395L19.9407 9.41371C20.545 10.8577 20.5029 12.5748 19.6719 14.273C17.8996 17.8917 13.1987 20.0693 9.19212 19.1279C7.0639 18.6268 5.55309 17.3484 4.87032 15.7126L4.19336 14.0929C4.87613 15.7257 6.38694 17.007 8.51515 17.5082C12.5217 18.4495 17.2227 16.2719 18.995 12.6532C19.8259 10.9565 19.868 9.23648 19.2637 7.79395Z" fill="#C62525"/>
<path d="M14.9432 4.37976C18.9498 5.32111 20.7671 9.02841 18.9948 12.6602C17.2225 16.2919 12.5216 18.4565 8.51503 17.5151C4.50847 16.5738 2.68969 12.8665 4.46199 9.24196C6.23429 5.61746 10.9367 3.43695 14.9432 4.37976ZM8.6327 17.274C12.4969 18.1834 17.0308 16.0827 18.7406 12.5919C20.4504 9.10105 18.697 5.52159 14.8328 4.61219C10.9686 3.7028 6.43331 5.80486 4.72347 9.29571C3.01364 12.7866 4.76851 16.366 8.6327 17.274Z" fill="#C62525"/>
<path d="M14.6878 4.89873C18.3835 5.77036 20.0541 9.1784 18.4184 12.5182C16.7826 15.8579 12.4623 17.8583 8.76659 16.9896C5.07091 16.1209 3.40175 12.7099 5.03459 9.37016C6.66743 6.03039 10.9921 4.02856 14.6878 4.89873Z" fill="#FFFCED"/>
<path d="M13.2567 12.1332C13.1812 12.1471 13.1117 12.1834 13.057 12.2372C13.0024 12.2911 12.9652 12.3601 12.9502 12.4354L12.7569 14.5461C12.7463 14.5954 12.726 14.6421 12.6971 14.6835C12.6683 14.7249 12.6315 14.7601 12.5889 14.7871C12.5463 14.8142 12.4988 14.8325 12.4491 14.841C12.3994 14.8495 12.3485 14.848 12.2994 14.8367L10.7609 14.475C10.7029 14.4656 10.6506 14.4343 10.6149 14.3876C10.5792 14.3408 10.5628 14.2821 10.5692 14.2236L10.7973 12.2814C10.8039 12.2228 10.7877 12.164 10.752 12.1171C10.7162 12.0703 10.6637 12.0391 10.6055 12.0301L10.3745 11.9749C10.3001 11.9599 10.223 11.9663 10.152 11.9932C10.0811 12.0202 10.0192 12.0667 9.97357 12.1274L8.79542 13.7646C8.75007 13.8256 8.6883 13.8725 8.61731 13.8998C8.54632 13.9271 8.46904 13.9336 8.39448 13.9186L6.82411 13.5496C6.78258 13.5435 6.74345 13.5264 6.71076 13.5C6.67807 13.4737 6.65302 13.4391 6.6382 13.3999C6.62338 13.3606 6.61934 13.3181 6.62648 13.2767C6.63363 13.2353 6.6517 13.1967 6.67884 13.1646L11.0311 7.1301C11.0768 7.06905 11.1389 7.02229 11.2101 6.99527C11.2814 6.96825 11.3589 6.96211 11.4335 6.97756L14.2271 7.63418C15.0164 7.82013 15.5335 8.20752 15.7786 8.79635C16.0236 9.38518 15.8967 10.0234 15.398 10.711C14.8837 11.4325 14.1212 11.939 13.2567 12.1332ZM13.2567 10.1357C13.3932 9.94108 13.4339 9.77547 13.3802 9.63746C13.3264 9.49946 13.2044 9.40067 12.9879 9.34692L12.3676 9.20165C12.2932 9.18667 12.2161 9.19304 12.1451 9.22003C12.0742 9.24702 12.0123 9.29353 11.9667 9.35419L11.4597 10.0602C11.4325 10.0921 11.4143 10.1307 11.4071 10.172C11.3999 10.2133 11.404 10.2558 11.4188 10.295C11.4336 10.3342 11.4588 10.3686 11.4915 10.3948C11.5243 10.421 11.5634 10.4379 11.605 10.4437L12.141 10.5701L12.1788 10.5803C12.3689 10.6253 12.5682 10.6105 12.7497 10.5381C12.9586 10.4604 13.138 10.3192 13.2625 10.1343" fill="#FE3030"/>
<path d="M20.9395 12.5386L20.9976 12.6838L21.06 12.8291L21.1239 12.9816L21.1893 13.1385L21.2561 13.2969L21.3215 13.4567L21.3883 13.615L21.4537 13.7705L20.9395 12.54V12.5386Z" fill="#FE3030"/>
<path d="M22.1433 12.4469L21.4648 10.8271C21.5707 11.0583 21.7302 11.2609 21.93 11.418C22.1299 11.5752 22.3643 11.6824 22.6139 11.7307C22.7219 11.756 22.8317 11.773 22.9422 11.7816L23.6192 13.4013C23.5086 13.3927 23.3989 13.3757 23.2909 13.3505C23.0416 13.3019 22.8074 13.1946 22.6078 13.0375C22.4082 12.8804 22.249 12.6779 22.1433 12.4469Z" fill="#F67067"/>
<path d="M20.9625 14.4617C20.9378 14.508 20.9234 14.5592 20.9204 14.6116C20.9174 14.664 20.9258 14.7165 20.9451 14.7653L20.2681 13.1456C20.2486 13.0968 20.2399 13.0444 20.2427 12.992C20.2454 12.9396 20.2596 12.8884 20.2841 12.8419C20.5107 13.3814 20.7369 13.9208 20.9625 14.4603C20.7359 13.9218 20.5098 13.3823 20.2841 12.8419C20.3465 12.7279 20.4437 12.6368 20.5617 12.5822C20.6796 12.5275 20.812 12.5121 20.9393 12.5383C21.164 13.0787 21.3896 13.6186 21.6163 14.1581C21.3906 13.6177 21.1649 13.0778 20.9393 12.5383C20.9981 12.5497 21.0534 12.5751 21.1004 12.6122C21.1474 12.6494 21.1848 12.6973 21.2095 12.7519L21.8865 14.3716C21.8618 14.317 21.8244 14.2691 21.7773 14.232C21.7303 14.1948 21.6751 14.1695 21.6163 14.1581C21.4891 14.132 21.357 14.1474 21.2393 14.2021C21.1216 14.2568 21.0246 14.3478 20.9625 14.4617Z" fill="#FE3030"/>
<path d="M21.2089 12.752L21.8859 14.3717C21.9054 14.4205 21.9141 14.4729 21.9113 14.5253C21.9086 14.5777 21.8944 14.6289 21.8699 14.6753C21.8075 14.7897 21.71 14.8809 21.5917 14.9356C21.4735 14.9903 21.3408 15.0055 21.2133 14.979C21.1546 14.9676 21.0996 14.9422 21.0528 14.905C21.006 14.8679 20.9689 14.82 20.9445 14.7654L20.2676 13.1456C20.2921 13.2001 20.3293 13.2478 20.3761 13.285C20.4228 13.3221 20.4778 13.3476 20.5363 13.3592C20.6637 13.3858 20.7962 13.3707 20.9142 13.316C21.0323 13.2613 21.1295 13.17 21.1915 13.0556C21.2163 13.0093 21.2307 12.9581 21.2337 12.9057C21.2367 12.8533 21.2282 12.8008 21.2089 12.752Z" fill="#FFFCED"/>
<path d="M14.8276 4.61231C18.6918 5.5217 20.4452 9.10117 18.7354 12.592C17.0256 16.0829 12.4888 18.1835 8.62748 17.2741C4.76619 16.3647 3.00987 12.7867 4.71825 9.29583C6.42663 5.80498 10.9634 3.70292 14.8276 4.61231ZM8.76693 16.9894C12.4626 17.861 16.7844 15.8562 18.4187 12.5179C20.053 9.17961 18.3838 5.76721 14.6882 4.89849C10.9925 4.02978 6.67068 6.0316 5.03494 9.36992C3.39919 12.7082 5.07125 16.1206 8.76693 16.9894Z" fill="#FE3030"/>
<path d="M13.8039 20.0402C13.5783 19.4998 13.3526 18.9598 13.127 18.4204L13.2054 18.6093L13.2897 18.8097L13.3768 19.0175L13.4654 19.2296L13.554 19.4417L13.6412 19.6494L13.7255 19.8499L13.8039 20.0402Z" fill="#FE3030"/>
<path d="M13.5498 20.0417C13.4485 20.0607 13.3544 20.107 13.2776 20.1757C13.2008 20.2443 13.1442 20.3326 13.114 20.431C12.8873 19.8916 12.6612 19.3517 12.4355 18.8113C12.4661 18.713 12.5228 18.6248 12.5995 18.5563C12.6763 18.4877 12.7703 18.4413 12.8714 18.4219C13.098 18.9604 13.3241 19.5003 13.5498 20.0417C13.3231 19.5013 13.097 18.9614 12.8714 18.4219C12.955 18.4023 13.042 18.4023 13.1256 18.4219L13.204 18.6108L13.2883 18.8113L13.3754 19.019L13.4641 19.2311L13.5527 19.4432L13.6398 19.6509L13.7241 19.8514L13.8025 20.0417C13.7194 20.0221 13.6329 20.0221 13.5498 20.0417Z" fill="#FE3030"/>
<path d="M14.0741 20.2537C14.0494 20.1993 14.012 20.1515 13.965 20.1146C13.9179 20.0777 13.8627 20.0527 13.8039 20.0416C13.5783 19.5012 13.3526 18.9613 13.127 18.4219C13.1856 18.4331 13.2408 18.4583 13.2878 18.4951C13.3348 18.532 13.3723 18.5796 13.3972 18.634L14.0741 20.2537Z" fill="#FE3030"/>
<path d="M13.1101 20.5615C13.1134 20.591 13.1208 20.6198 13.1319 20.6473L12.455 19.0275C12.4435 19.0001 12.4357 18.9712 12.4317 18.9418C12.6584 19.4822 12.884 20.0221 13.1087 20.5615C12.884 20.0211 12.6584 19.4812 12.4317 18.9418C12.4238 18.8986 12.4238 18.8543 12.4317 18.811C12.6584 19.3514 12.8845 19.8914 13.1101 20.4308C13.1022 20.474 13.1022 20.5183 13.1101 20.5615Z" fill="#FE3030"/>
<path d="M11.2815 21.4248C11.0404 21.1479 10.7155 20.9571 10.3561 20.8815L9.67773 19.2617C10.037 19.3379 10.362 19.5279 10.6046 19.8036L10.683 19.9939L10.7673 20.1944L10.8544 20.4021L10.943 20.6142L11.0317 20.8263L11.1188 21.034L11.2031 21.2345L11.2815 21.4248Z" fill="#FE3030"/>
<path d="M11.3623 21.5276C11.3376 21.4927 11.3115 21.4579 11.2824 21.4244L10.6055 19.8032C10.6331 19.8381 10.6607 19.873 10.6854 19.9078L11.1836 21.1019L11.2054 21.1513L11.2272 21.2036L11.2505 21.2588L11.2737 21.314L11.297 21.3707L11.3202 21.4259L11.342 21.4782L11.3623 21.5276Z" fill="#FE3030"/>
<path d="M11.3606 21.5275C11.3533 21.513 11.346 21.4926 11.3402 21.4781L11.3068 21.3982L11.2836 21.343L11.2719 21.3139L11.1819 21.1018L10.6836 19.9077C10.7405 19.9889 10.7891 20.0755 10.8289 20.1663L11.5058 21.7861C11.4667 21.695 11.418 21.6083 11.3606 21.5275Z" fill="#FE3030"/>
<path d="M13.3979 18.6323L14.0749 20.2535C14.0865 20.2809 14.0944 20.3098 14.0981 20.3393C14.1272 20.563 13.9296 20.7969 13.6623 20.8593C13.5787 20.8789 13.4917 20.8789 13.4081 20.8593C13.3494 20.8481 13.2943 20.8229 13.2473 20.7861C13.2003 20.7492 13.1628 20.7016 13.1379 20.6472L12.4609 19.0275C12.4856 19.0819 12.523 19.1297 12.5701 19.1666C12.6171 19.2035 12.6724 19.2285 12.7311 19.2396C12.8143 19.2592 12.9008 19.2592 12.9839 19.2396C13.257 19.1771 13.4546 18.949 13.4197 18.7195C13.4166 18.6896 13.4092 18.6602 13.3979 18.6323Z" fill="#FFFCED"/>
<path d="M10.8281 20.1665L11.5051 21.7863C11.5781 21.9621 11.6151 22.1508 11.614 22.3412L10.9356 20.7214C10.9372 20.5311 10.9007 20.3424 10.8281 20.1665Z" fill="#F67067"/>
<path d="M22.9349 11.7815C22.7736 12.3102 22.57 12.8252 22.3262 13.3214C22.0093 13.9653 21.6334 14.5786 21.2033 15.1532C21.1318 15.1277 21.0591 15.1059 20.9854 15.0878C20.6217 15.013 20.2461 15.0169 19.884 15.0994C19.5219 15.1818 19.1817 15.3408 18.8862 15.5658L15.882 17.8291C15.1906 18.3492 14.8957 19.1031 15.0613 19.7438C13.7402 20.2681 12.35 20.5974 10.9341 20.7214C10.9341 20.0358 10.4678 19.4474 9.67755 19.2615L6.27532 18.461C5.84615 18.3742 5.40204 18.3965 4.98375 18.526C4.56545 18.6554 4.18637 18.8878 3.88126 19.2019C2.86044 18.5802 1.98467 17.747 1.31288 16.7585C2.16416 16.3502 2.72055 15.5353 2.62031 14.7421L2.21936 11.6827C2.13656 11.0392 1.63828 10.5743 0.974399 10.4174C0.736302 10.3634 0.491179 10.3472 0.248047 10.3695C0.422897 9.65759 0.674727 8.96688 0.999092 8.30953C1.27204 7.75436 1.58978 7.22236 1.94916 6.71881C2.15236 6.86991 2.38494 6.97679 2.63194 7.0326C2.99564 7.10811 3.37133 7.10452 3.73352 7.02205C4.09571 6.93959 4.43593 6.78019 4.73109 6.55466L7.73528 4.2928C8.62143 3.62455 8.85532 2.57425 8.30329 1.87114C9.72333 1.31163 11.2223 0.978301 12.7457 0.883301C12.4232 1.77962 12.9098 2.65124 13.9078 2.88513L17.3042 3.69283C17.7825 3.79006 18.2784 3.75106 18.7356 3.58027C19.1927 3.40948 19.5927 3.11376 19.8901 2.72678C20.887 3.41604 21.7174 4.31935 22.3204 5.3707C21.4386 5.76875 20.8576 6.60115 20.9636 7.40449L21.3616 10.4682C21.4459 11.1103 21.9427 11.5752 22.6066 11.7321C22.7146 11.7569 22.8244 11.7734 22.9349 11.7815ZM8.51393 17.508C12.5205 18.4494 17.2214 16.2718 18.9937 12.6531C20.766 9.03442 18.9487 5.32131 14.9421 4.37996C10.9356 3.43861 6.23319 5.61621 4.46089 9.2349C2.68859 12.8536 4.50737 16.5652 8.51393 17.508ZM20.5438 13.3591C20.6711 13.3858 20.8037 13.3706 20.9217 13.3159C21.0397 13.2612 21.137 13.1699 21.1989 13.0555C21.2262 13.0061 21.2412 12.9508 21.2426 12.8943C21.244 12.8379 21.2318 12.7819 21.207 12.7312C21.1822 12.6805 21.1456 12.6365 21.1002 12.6029C21.0548 12.5693 21.0019 12.5472 20.9462 12.5383C20.8189 12.5122 20.6865 12.5275 20.5686 12.5822C20.4506 12.6368 20.3533 12.7279 20.291 12.842C20.2641 12.8915 20.2493 12.9467 20.2481 13.003C20.2469 13.0594 20.2591 13.1152 20.2839 13.1658C20.3086 13.2164 20.3451 13.2604 20.3903 13.294C20.4356 13.3277 20.4882 13.35 20.5438 13.3591ZM2.84984 9.19713C2.97717 9.22355 3.10962 9.20829 3.22761 9.15361C3.34559 9.09893 3.44285 9.00774 3.50501 8.89351C3.532 8.84413 3.54674 8.78899 3.54799 8.73273C3.54924 8.67646 3.53696 8.62072 3.51219 8.57019C3.48743 8.51965 3.45089 8.47581 3.40565 8.44233C3.36042 8.40885 3.3078 8.38672 3.25224 8.3778C3.12507 8.35126 2.99273 8.3663 2.87476 8.42071C2.7568 8.47511 2.65944 8.56601 2.59707 8.67997C2.56977 8.7294 2.55479 8.78468 2.55338 8.84113C2.55197 8.89758 2.56418 8.95354 2.58898 9.00427C2.61377 9.05501 2.65042 9.09902 2.69583 9.13259C2.74124 9.16616 2.79407 9.1883 2.84984 9.19713ZM12.9781 19.2368C13.2512 19.1743 13.4488 18.9462 13.4139 18.7167C13.4028 18.6429 13.3688 18.5744 13.3167 18.5209C13.2645 18.4675 13.1969 18.4318 13.1234 18.4189C13.0398 18.3993 12.9527 18.3993 12.8691 18.4189C12.596 18.4814 12.4014 18.7094 12.4333 18.939C12.4448 19.0126 12.479 19.0809 12.531 19.1343C12.5831 19.1876 12.6505 19.2235 12.7239 19.2368C12.807 19.2564 12.8935 19.2564 12.9766 19.2368H12.9781ZM4.36937 17.0446C4.59018 16.879 4.63812 16.6088 4.47687 16.4461C4.42201 16.3919 4.35307 16.3542 4.27785 16.3372C4.1922 16.3197 4.1038 16.3207 4.0186 16.3403C3.9334 16.3598 3.85338 16.3974 3.78393 16.4505C3.56312 16.6175 3.51518 16.8863 3.67498 17.049C3.73018 17.1035 3.79968 17.1413 3.87545 17.1579C3.96109 17.1755 4.04949 17.1744 4.1347 17.1549C4.2199 17.1353 4.29992 17.0977 4.36937 17.0446ZM19.4107 4.68793C19.1884 4.85499 19.139 5.12374 19.3017 5.28645C19.3568 5.3404 19.4256 5.37811 19.5007 5.3954C19.5863 5.41283 19.6746 5.41187 19.7597 5.39258C19.8449 5.3733 19.925 5.33613 19.9947 5.28354C20.2169 5.11648 20.2649 4.84773 20.1022 4.68357C20.0476 4.62925 19.9785 4.59191 19.9031 4.57608C19.8178 4.5579 19.7296 4.55849 19.6446 4.57781C19.5596 4.59712 19.4797 4.6347 19.4107 4.68793ZM10.8107 2.49871C10.539 2.55972 10.3414 2.78925 10.3748 3.01878C10.3873 3.0913 10.4219 3.15818 10.474 3.21021C10.526 3.26224 10.5929 3.29686 10.6654 3.30932C10.749 3.32894 10.836 3.32894 10.9196 3.30932C11.1913 3.2483 11.3888 3.01878 11.3554 2.78925C11.3418 2.71723 11.3068 2.65098 11.255 2.59916C11.2031 2.54733 11.1369 2.51232 11.0649 2.49871C10.9812 2.47994 10.8944 2.47994 10.8107 2.49871Z" fill="#FE3030"/>
<path d="M8.3019 1.87109C5.75385 2.8691 3.48037 4.56441 1.94922 6.71877C2.15242 6.86986 2.385 6.97675 2.63199 7.03255C2.9957 7.10807 3.37139 7.10447 3.73358 7.02201C4.09577 6.93954 4.43599 6.78014 4.73115 6.55461L7.73534 4.29275C8.62004 3.62451 8.85392 2.5742 8.3019 1.87109Z" fill="#F67067"/>
<path d="M12.7454 0.883206C13.9641 0.806665 15.1875 0.907469 16.3772 1.18246C17.636 1.46557 18.8289 1.9873 19.8913 2.71942C19.5948 3.10771 19.1952 3.40485 18.738 3.57695C18.2808 3.74904 17.7844 3.78916 17.3055 3.69274L13.9032 2.8923C12.9096 2.65115 12.4229 1.77952 12.7454 0.883206Z" fill="#F67067"/>
<path d="M19.9044 4.57766C19.9797 4.59349 20.0489 4.63083 20.1034 4.68516C20.2661 4.84931 20.2182 5.12097 19.9959 5.28512C19.9262 5.33771 19.8461 5.37488 19.761 5.39416C19.6758 5.41345 19.5876 5.41441 19.502 5.39698C19.4269 5.37969 19.358 5.34199 19.303 5.28803C19.1403 5.12387 19.1897 4.85222 19.4119 4.68952C19.481 4.63628 19.5608 4.59871 19.6459 4.57939C19.7309 4.56008 19.8191 4.55948 19.9044 4.57766Z" fill="#FFFCED"/>
<path d="M22.8268 7.06876C22.6022 6.52835 22.376 5.98843 22.1484 5.44899C22.2051 5.41848 22.2617 5.38943 22.3213 5.36328L22.9983 6.98305C22.9402 7.0092 22.8821 7.03389 22.8268 7.06876Z" fill="#FE3030"/>
<path d="M22.8259 7.06898C22.0429 7.49172 21.5432 8.26747 21.6405 9.02287L20.9636 7.40311C20.8648 6.6477 21.3645 5.87341 22.1475 5.44922C22.3117 5.83709 22.3117 5.83709 22.8259 7.06898Z" fill="#FE3030"/>
<path d="M1.28048 17.0578L0.603516 15.438C0.797488 15.8994 1.03537 16.3411 1.31389 16.757L1.99085 18.3768C1.71258 17.9608 1.47471 17.5191 1.28048 17.0578Z" fill="#F67067"/>
<path d="M4.27332 16.3386C4.34854 16.3556 4.41749 16.3933 4.47234 16.4475C4.63359 16.6117 4.58565 16.8833 4.36484 17.046C4.29539 17.0991 4.21537 17.1367 4.13017 17.1563C4.04497 17.1758 3.95657 17.1769 3.87092 17.1593C3.79516 17.1427 3.72566 17.1049 3.67045 17.0504C3.51065 16.8862 3.55859 16.6146 3.7794 16.4519C3.84885 16.3988 3.92887 16.3612 4.01407 16.3417C4.09928 16.3221 4.18768 16.3211 4.27332 16.3386Z" fill="#FFFCED"/>
<path d="M3.88093 19.2017L4.5637 20.8215C3.54289 20.1998 2.66711 19.3666 1.99532 18.3781L1.31836 16.7583C1.98847 17.7463 2.86222 18.5794 3.88093 19.2017Z" fill="#F50000"/>
<path d="M6.27687 18.4611L6.95529 20.0809C6.52589 19.9938 6.0815 20.016 5.66293 20.1454C5.24436 20.2749 4.86503 20.5075 4.55977 20.8217L3.88281 19.202C4.18792 18.8879 4.56701 18.6555 4.9853 18.5261C5.4036 18.3966 5.8477 18.3743 6.27687 18.4611Z" fill="#FE3030"/>
<path d="M22.7227 6.18994L23.3996 7.80971C24.1027 9.49048 24.2073 11.4255 23.6088 13.4012L22.9318 11.7814C23.5333 9.80572 23.4287 7.87072 22.7227 6.18994Z" fill="#FB4242"/>
<path d="M22.3205 5.36328C23.3737 7.21984 23.6279 9.47298 22.9349 11.7813C22.8244 11.7728 22.7146 11.7558 22.6066 11.7305C21.9398 11.5736 21.4445 11.1087 21.3617 10.4666L20.9636 7.40288C20.8576 6.59808 21.4387 5.76132 22.3205 5.36328Z" fill="#F67067"/>
<path d="M20.9384 12.5383C20.9942 12.5472 21.047 12.5693 21.0924 12.6029C21.1378 12.6364 21.1745 12.6804 21.1993 12.7312C21.2241 12.7819 21.2363 12.8379 21.2349 12.8943C21.2334 12.9508 21.2185 13.0061 21.1912 13.0555C21.1292 13.1699 21.032 13.2612 20.9139 13.3159C20.7959 13.3706 20.6633 13.3858 20.536 13.3591C20.4804 13.35 20.4278 13.3276 20.3826 13.294C20.3373 13.2604 20.3008 13.2164 20.2761 13.1658C20.2513 13.1152 20.2391 13.0593 20.2403 13.003C20.2416 12.9467 20.2563 12.8914 20.2832 12.8419C20.3455 12.7279 20.4428 12.6368 20.5608 12.5822C20.6787 12.5275 20.8111 12.5121 20.9384 12.5383Z" fill="#FFFCED"/>
<path d="M9.67762 19.2599L10.356 20.8797L6.9538 20.0792L6.27539 18.4595L9.67762 19.2599Z" fill="#FE3030"/>
<path d="M22.9347 11.7817L23.6117 13.4015C23.4513 13.9306 23.2477 14.4456 23.003 14.9414C22.6869 15.584 22.3109 16.1953 21.8801 16.7674L21.2031 15.1477C21.6332 14.573 22.0091 13.9598 22.3261 13.3158C22.5696 12.8215 22.7731 12.3085 22.9347 11.7817Z" fill="#F50000"/>
<path d="M21.6628 16.7093C21.2994 16.6338 20.9239 16.6374 20.5619 16.7199C20.2 16.8023 19.86 16.9617 19.5651 17.1872L18.8867 15.566C19.1815 15.3419 19.5207 15.1833 19.8818 15.1009C20.2428 15.0185 20.6172 15.0141 20.9801 15.0881C21.0538 15.1061 21.1265 15.1279 21.198 15.1534C21.4227 15.6938 21.6483 16.2338 21.8749 16.7732C21.8057 16.7474 21.7348 16.726 21.6628 16.7093Z" fill="#FE3030"/>
<path d="M18.887 15.5659L19.5654 17.1857L16.5598 19.449L15.8828 17.8278L18.887 15.5659Z" fill="#FE3030"/>
<path d="M13.1267 18.4203C13.2003 18.4332 13.2679 18.4689 13.3201 18.5223C13.3722 18.5758 13.4062 18.6443 13.4173 18.7181C13.4478 18.9418 13.2502 19.1757 12.9815 19.2382C12.8983 19.2578 12.8118 19.2578 12.7287 19.2382C12.6553 19.2249 12.5879 19.1891 12.5359 19.1357C12.4838 19.0823 12.4496 19.014 12.4382 18.9404C12.4106 18.7152 12.6052 18.4828 12.874 18.4203C12.9571 18.4009 13.0436 18.4009 13.1267 18.4203Z" fill="#FFFCED"/>
<path d="M9.67911 19.2615C10.4694 19.4475 10.9386 20.0358 10.9357 20.7215C9.60071 20.8404 8.25533 20.7473 6.94947 20.4455C5.86686 20.1992 4.83125 19.7792 3.88281 19.202C4.18792 18.8879 4.56701 18.6555 4.9853 18.5261C5.4036 18.3966 5.8477 18.3743 6.27687 18.4611L9.67911 19.2615Z" fill="#F67067"/>
<path d="M10.9338 20.7217L11.6122 22.3414C10.2768 22.46 8.93107 22.3674 7.62453 22.0669C6.54405 21.8188 5.51055 21.3985 4.56368 20.8219L3.88672 19.2021C4.83515 19.7794 5.87076 20.1993 6.95338 20.4457C8.25735 20.7468 9.60073 20.84 10.9338 20.7217Z" fill="#FB4242"/>
<path d="M16.5589 19.4489C16.3248 19.6126 16.1275 19.8234 15.9797 20.0678C15.8318 20.3122 15.7367 20.5848 15.7004 20.8682L15.0234 19.2469C15.0606 18.9639 15.1563 18.6917 15.3043 18.4476C15.4524 18.2035 15.6496 17.9929 15.8834 17.8291L16.5589 19.4489Z" fill="#FE3030"/>
<path d="M15.7019 20.8683C15.6864 21.0344 15.6997 21.202 15.7411 21.3637L15.0627 19.7439C15.0219 19.5817 15.0086 19.4137 15.0235 19.2471L15.1034 19.4374L15.1876 19.6378L15.2748 19.8456L15.3634 20.0577L15.407 20.1637L15.452 20.2698L15.5392 20.4775L15.5813 20.5792L15.6627 20.7753C15.6793 20.8047 15.6925 20.8359 15.7019 20.8683Z" fill="#FE3030"/>
<path d="M15.0627 19.7437L15.7411 21.3634C14.42 21.8875 13.0298 22.2168 11.614 22.3411L10.9355 20.7213C12.3514 20.5973 13.7417 20.2679 15.0627 19.7437Z" fill="#F50000"/>
<path d="M18.8875 15.566C19.1823 15.3419 19.5216 15.1833 19.8826 15.1009C20.2436 15.0185 20.6181 15.0141 20.9809 15.0881C21.0546 15.1061 21.1273 15.1279 21.1988 15.1534C19.6778 17.1872 17.4944 18.7852 15.0568 19.744C14.8912 19.1033 15.1861 18.3494 15.8775 17.8293L18.8875 15.566Z" fill="#F67067"/>
<path d="M21.2045 15.1533L21.8815 16.7673C20.362 18.8011 18.1785 20.399 15.7409 21.3578L15.0625 19.7381C17.4943 18.7822 19.6836 17.1886 21.2045 15.1533Z" fill="#FB4242"/>
</svg>
