<svg width="1173" height="381" viewBox="0 0 1173 381" fill="none" xmlns="http://www.w3.org/2000/svg">
<path d="M101.926 360.286V308.032L237.786 349.835V407.314C237.786 407.314 174.482 386.55 163.799 383.011C153.116 379.472 101.926 360.286 101.926 360.286Z" fill="#56B729"/>
<path d="M448.687 351.162L237.521 407.783L237.797 349.835L455.809 294.54L448.687 351.162Z" fill="#1F8616"/>
<path d="M101.926 326.392V319.314L223.541 366.758L101.926 326.392Z" fill="#25951C"/>
<path d="M137.536 361.888L101.926 347.733V340.655L226.118 392.018L137.536 361.888Z" fill="#25951C"/>
<path d="M345.41 266.229C256.385 282.744 107.623 308.032 101.926 308.032L237.786 349.835L455.801 294.54L345.41 266.229Z" fill="#85D637"/>
<path fill-rule="evenodd" clip-rule="evenodd" d="M343.667 273.057L417.538 291.116L434.983 295.669L238.535 340.655L180.453 324.007L131.869 310.656L343.667 273.057ZM154.301 310.656L238.535 333.086L413.578 294.538L343.667 276.336L154.301 310.656Z" fill="#C7F85B"/>
<ellipse cx="291.99" cy="305.157" rx="42.7321" ry="17.6942" fill="#C7F85B"/>
<path opacity="0.3" d="M306.797 388.953C306.797 388.953 285.57 343.682 285.57 340.143L432.537 300.352C456.415 367.731 306.797 388.953 306.797 388.953Z" fill="#1A7109"/>
<path d="M131.871 293.163V240.909L267.731 282.712V340.191C267.731 340.191 204.427 319.426 193.744 315.887C183.061 312.348 131.871 293.163 131.871 293.163Z" fill="#25951C"/>
<path d="M478.633 284.038L267.467 340.66L267.742 282.712L485.755 227.417L478.633 284.038Z" fill="#247D1D"/>
<path d="M167.481 294.765L131.871 280.609V273.532L256.064 324.894L167.481 294.765Z" fill="#1C8813"/>
<path d="M375.356 199.105C286.33 215.62 137.569 240.909 131.871 240.909L267.731 282.712L485.747 227.416L375.356 199.105Z" fill="#85DC30"/>
<path fill-rule="evenodd" clip-rule="evenodd" d="M373.178 206.01C373.464 205.959 373.758 205.969 374.04 206.038L447.483 223.992L456.672 226.391C458.788 226.943 458.742 229.962 456.611 230.45L269.005 273.411C268.661 273.49 268.302 273.48 267.963 273.383L210.398 256.883L170.746 245.987C168.597 245.396 168.741 242.303 170.934 241.913L373.178 206.01ZM193.454 241.864C191.256 242.262 191.131 245.365 193.289 245.94L267.989 265.831C268.312 265.917 268.651 265.925 268.977 265.853L443.524 227.415L374.058 209.329C373.764 209.253 373.457 209.241 373.159 209.295L193.454 241.864Z" fill="#C7F85B"/>
<ellipse cx="321.935" cy="238.033" rx="42.7321" ry="17.6942" fill="#C7F85B"/>
<path opacity="0.3" d="M336.743 321.829C336.743 321.829 315.516 276.558 315.516 273.019L462.482 233.229C486.36 300.607 336.743 321.829 336.743 321.829Z" fill="#115A02"/>
<path d="M157.262 253.518V201.264L293.122 243.067V300.546C293.122 300.546 229.818 279.782 219.135 276.243C208.452 272.704 157.262 253.518 157.262 253.518Z" fill="#56B729"/>
<path d="M504.023 244.393L292.857 301.015L293.133 243.067L511.145 187.772L504.023 244.393Z" fill="#25951C"/>
<path d="M182.633 229.075V221.997L258.974 252.19L182.633 229.075Z" fill="#25951C"/>
<path d="M192.872 255.12L157.262 240.965V233.887L281.454 285.25L192.872 255.12Z" fill="#25951C"/>
<path d="M400.746 159.461C311.721 175.976 162.959 201.264 157.262 201.264L293.122 243.067L511.137 187.772L400.746 159.461Z" fill="#85DC30"/>
<path fill-rule="evenodd" clip-rule="evenodd" d="M399.003 166.289L472.874 184.348L490.319 188.901L293.871 233.886L235.789 217.239L187.205 203.888L399.003 166.289ZM219.209 205.65L295.32 223.707L465.369 188.966L397.029 173.423L219.209 205.65Z" fill="#C7F85B"/>
<ellipse cx="347.326" cy="198.389" rx="42.7321" ry="17.6942" fill="#C7F85B"/>
<path opacity="0.56" d="M263.009 400.056C263.009 400.056 237.807 353.209 237.807 349.671L384.773 309.88C405.722 374.537 263.009 400.056 263.009 400.056Z" fill="#1A7109"/>
<path d="M580.561 360.286V308.032L444.7 349.835V407.314C444.7 407.314 508.004 386.549 518.687 383.01C529.37 379.471 580.561 360.286 580.561 360.286Z" fill="#25951C"/>
<path d="M233.584 346.402C295.208 409.214 445.967 408.344 445.967 408.344L445.691 350.396C445.691 350.396 376.849 344.997 233.584 295.994V346.402Z" fill="#56B729"/>
<path d="M233.472 333.585C250.769 353.64 346.399 381.521 346.399 381.521L371.603 381.201L346.606 377.008C346.606 377.008 269.601 353.351 233.589 331.763L233.472 333.585Z" fill="#25951C"/>
<path d="M233.528 313.191C242.007 323.022 288.884 336.69 288.884 336.69L301.239 336.533L288.986 334.477C288.986 334.477 251.238 322.881 233.585 312.298L233.528 313.191Z" fill="#25951C"/>
<path d="M580.561 323.366V316.288L504.219 346.481L580.561 323.366Z" fill="#227B18"/>
<path d="M506.76 223.425L507.609 216.077L364.159 260.12L380.44 257.84L506.76 223.425Z" fill="#227B18"/>
<path d="M544.95 355.8L580.561 341.645V334.567L456.368 385.929L544.95 355.8Z" fill="#227B18"/>
<path d="M337.071 260.141C433.081 310.978 574.578 308.509 580.275 308.509L446.378 350.167C446.378 350.167 322.702 347.363 233.583 295.96L337.071 260.141Z" fill="#85DC30"/>
<path fill-rule="evenodd" clip-rule="evenodd" d="M338.595 269.357L257.199 297.529L267.116 303.249C297.483 320.764 342.095 330.772 378.57 336.435C400.388 339.823 422.418 342.343 444.472 343.543L444.559 343.547C444.559 343.547 444.567 343.548 444.82 338.328L444.559 343.547L445.548 343.595L548.494 311.363C515.511 309.423 482.741 307.475 450.051 302.289C414.241 296.607 371.551 286.807 340.602 270.42L338.595 269.357ZM444.82 335.317C391.043 332.353 327.131 322.481 278.586 299.537L336.217 278.581C388.135 305.215 448.799 309.847 505.659 315.51L444.82 335.317Z" fill="#C7F85B"/>
<ellipse cx="386.843" cy="313.688" rx="42.7321" ry="17.6942" fill="#C7F85B"/>
<path d="M1010.52 361.083V308.829L874.656 350.632V408.11C874.656 408.11 937.959 387.346 948.642 383.807C959.325 380.268 1010.52 361.083 1010.52 361.083Z" fill="#56B729"/>
<path d="M663.754 351.958L874.92 408.579L874.644 350.632L656.632 295.336L663.754 351.958Z" fill="#1F8616"/>
<path d="M1010.52 327.189V320.111L888.901 367.554L1010.52 327.189Z" fill="#25951C"/>
<path d="M974.906 362.685L1010.52 348.529V341.452L886.323 392.814L974.906 362.685Z" fill="#25951C"/>
<path d="M767.031 267.025C856.056 283.54 1004.82 308.829 1010.52 308.829L874.656 350.632L656.64 295.336L767.031 267.025Z" fill="#85D637"/>
<path fill-rule="evenodd" clip-rule="evenodd" d="M768.775 273.853L694.904 291.912L677.458 296.466L873.906 341.451L931.989 324.803L980.572 311.452L768.775 273.853ZM958.14 311.452L873.906 333.882L698.863 295.334L768.775 277.133L958.14 311.452Z" fill="#C7F85B"/>
<ellipse rx="42.7321" ry="17.6942" transform="matrix(-1 0 0 1 820.452 305.953)" fill="#C7F85B"/>
<path opacity="0.3" d="M805.644 389.749C805.644 389.749 826.871 344.478 826.871 340.939L679.904 301.148C656.026 368.527 805.644 389.749 805.644 389.749Z" fill="#1A7109"/>
<path d="M980.57 293.959V241.705L844.71 283.508V340.987C844.71 340.987 908.014 320.222 918.697 316.684C929.38 313.145 980.57 293.959 980.57 293.959Z" fill="#25951C"/>
<path d="M633.809 284.834L844.975 341.456L844.699 283.508L626.687 228.213L633.809 284.834Z" fill="#247D1D"/>
<path d="M944.96 295.561L980.57 281.406V274.328L856.378 325.691L944.96 295.561Z" fill="#1C8813"/>
<path d="M737.086 199.902C826.111 216.416 974.873 241.705 980.57 241.705L844.71 283.508L626.695 228.213L737.086 199.902Z" fill="#85DC30"/>
<path fill-rule="evenodd" clip-rule="evenodd" d="M739.263 206.806C738.977 206.756 738.683 206.765 738.401 206.834L664.958 224.789L655.769 227.187C653.654 227.739 653.699 230.759 655.831 231.247L843.436 274.207C843.78 274.286 844.139 274.276 844.479 274.179L902.043 257.68L941.696 246.783C943.844 246.193 943.701 243.099 941.507 242.71L739.263 206.806ZM918.988 242.66C921.185 243.058 921.311 246.162 919.153 246.736L844.452 266.628C844.129 266.714 843.791 266.721 843.465 266.649L668.918 228.211L738.383 210.125C738.677 210.049 738.984 210.037 739.283 210.091L918.988 242.66Z" fill="#C7F85B"/>
<ellipse rx="42.7321" ry="17.6942" transform="matrix(-1 0 0 1 790.506 238.829)" fill="#C7F85B"/>
<path opacity="0.3" d="M775.699 322.626C775.699 322.626 796.926 277.354 796.926 273.816L649.959 234.025C626.081 301.404 775.699 322.626 775.699 322.626Z" fill="#115A02"/>
<path d="M955.18 254.309V202.055L819.32 243.858V301.337C819.32 301.337 882.623 280.573 893.306 277.034C903.989 273.495 955.18 254.309 955.18 254.309Z" fill="#56B729"/>
<path d="M608.418 245.185L819.584 301.806L819.308 243.858L601.296 188.563L608.418 245.185Z" fill="#25951C"/>
<path d="M929.809 229.866V222.788L853.467 252.981L929.809 229.866Z" fill="#25951C"/>
<path d="M919.57 255.911L955.18 241.756V234.678L830.987 286.041L919.57 255.911Z" fill="#25951C"/>
<path d="M711.695 160.252C800.72 176.767 949.482 202.055 955.18 202.055L819.32 243.858L601.304 188.563L711.695 160.252Z" fill="#85DC30"/>
<path fill-rule="evenodd" clip-rule="evenodd" d="M713.439 167.08L639.568 185.139L622.122 189.692L818.57 234.678L876.653 218.03L925.236 204.679L713.439 167.08ZM893.232 206.442L817.122 224.498L647.073 189.757L715.412 174.215L893.232 206.442Z" fill="#C7F85B"/>
<ellipse rx="42.7321" ry="17.6942" transform="matrix(-1 0 0 1 765.116 199.18)" fill="#C7F85B"/>
<path opacity="0.56" d="M849.433 400.847C849.433 400.847 874.635 354 874.635 350.462L727.668 310.671C706.719 375.328 849.433 400.847 849.433 400.847Z" fill="#1A7109"/>
<path d="M531.881 361.082V308.828L667.741 350.631V408.11C667.741 408.11 604.437 387.345 593.754 383.807C583.071 380.268 531.881 361.082 531.881 361.082Z" fill="#25951C"/>
<path d="M878.858 347.199C817.233 410.01 666.475 409.141 666.475 409.141L666.75 351.193C666.75 351.193 735.593 345.794 878.858 296.791V347.199Z" fill="#56B729"/>
<path d="M878.97 334.381C861.673 354.436 766.042 382.318 766.042 382.318L740.838 381.997L765.835 377.804C765.835 377.804 842.841 354.148 878.853 332.559L878.97 334.381Z" fill="#25951C"/>
<path d="M878.914 313.988C870.435 323.819 823.557 337.486 823.557 337.486L811.202 337.329L823.456 335.274C823.456 335.274 861.204 323.677 878.856 313.095L878.914 313.988Z" fill="#25951C"/>
<path d="M531.881 324.162V317.084L608.222 347.277L531.881 324.162Z" fill="#227B18"/>
<path d="M605.681 224.222L604.832 216.874L748.282 260.916L732.001 258.637L605.681 224.222Z" fill="#227B18"/>
<path d="M567.491 356.596L531.881 342.441V335.363L656.073 386.726L567.491 356.596Z" fill="#227B18"/>
<path d="M775.37 260.937C679.36 311.775 537.864 309.306 532.166 309.306L666.063 350.963C666.063 350.963 789.739 348.159 878.859 296.756L775.37 260.937Z" fill="#85DC30"/>
<path fill-rule="evenodd" clip-rule="evenodd" d="M773.847 270.153L855.242 298.326L845.325 304.046C814.958 321.561 770.347 331.568 733.871 337.232C712.054 340.619 690.023 343.14 667.969 344.339L667.882 344.344C667.882 344.344 667.874 344.344 667.622 339.125L667.882 344.344L666.893 344.392L563.947 312.159C596.931 310.22 629.7 308.271 662.39 303.085C698.201 297.404 740.89 287.604 771.839 271.216L773.847 270.153ZM667.622 336.113C721.399 333.15 785.31 323.277 833.856 300.334L776.225 279.377C724.306 306.011 663.643 310.644 606.782 316.307L667.622 336.113Z" fill="#C7F85B"/>
<ellipse rx="42.7321" ry="17.6942" transform="matrix(-1 0 0 1 725.598 314.485)" fill="#C7F85B"/>
<path d="M307.209 360.281V308.027L443.069 349.83V407.309C443.069 407.309 379.765 386.544 369.082 383.005C358.399 379.467 307.209 360.281 307.209 360.281Z" fill="#56B729"/>
<path d="M653.97 351.156L442.805 407.778L443.08 349.83L661.092 294.535L653.97 351.156Z" fill="#1F8616"/>
<path d="M307.209 326.387V319.309L428.824 366.752L307.209 326.387Z" fill="#25951C"/>
<path d="M342.819 361.883L307.209 347.728V340.65L431.402 392.013L342.819 361.883Z" fill="#25951C"/>
<path d="M550.694 266.224C461.668 282.738 312.907 308.027 307.209 308.027L443.069 349.83L661.085 294.534L550.694 266.224Z" fill="#85D637"/>
<path fill-rule="evenodd" clip-rule="evenodd" d="M548.95 273.051L622.821 291.11L640.267 295.664L443.818 340.649L385.736 324.002L337.152 310.65L548.95 273.051ZM359.584 310.65L443.818 333.08L618.862 294.533L548.95 276.331L359.584 310.65Z" fill="#C7F85B"/>
<ellipse cx="497.273" cy="305.151" rx="42.7321" ry="17.6942" fill="#C7F85B"/>
<path opacity="0.3" d="M512.081 388.947C512.081 388.947 490.854 343.676 490.854 340.137L637.82 300.347C661.698 367.726 512.081 388.947 512.081 388.947Z" fill="#1A7109"/>
<path d="M337.154 293.157V240.903L473.014 282.706V340.185C473.014 340.185 409.711 319.42 399.028 315.881C388.345 312.343 337.154 293.157 337.154 293.157Z" fill="#25951C"/>
<path d="M683.916 284.032L472.75 340.654L473.026 282.706L691.038 227.411L683.916 284.032Z" fill="#247D1D"/>
<path d="M372.764 294.759L337.154 280.604V273.526L461.347 324.888L372.764 294.759Z" fill="#248E1B"/>
<path d="M580.639 199.1C491.614 215.614 342.852 240.903 337.154 240.903L473.014 282.706L691.03 227.41L580.639 199.1Z" fill="#85DC30"/>
<path fill-rule="evenodd" clip-rule="evenodd" d="M578.462 206.004C578.748 205.953 579.041 205.963 579.323 206.032L652.766 223.986L661.955 226.385C664.071 226.937 664.025 229.957 661.894 230.445L474.289 273.405C473.944 273.484 473.586 273.474 473.246 273.377L415.681 256.877L376.029 245.981C373.881 245.39 374.024 242.297 376.218 241.907L578.462 206.004ZM398.737 241.858C396.54 242.256 396.414 245.36 398.572 245.934L473.273 265.825C473.595 265.911 473.934 265.919 474.26 265.847L648.807 227.409L579.341 209.323C579.048 209.247 578.741 209.235 578.442 209.289L398.737 241.858Z" fill="#C7F85B"/>
<ellipse cx="527.218" cy="238.027" rx="42.7321" ry="17.6942" fill="#C7F85B"/>
<path opacity="0.3" d="M542.026 321.823C542.026 321.823 520.799 276.552 520.799 273.013L667.766 233.223C691.644 300.602 542.026 321.823 542.026 321.823Z" fill="#1A7109"/>
<path d="M362.547 253.507V201.253L498.407 243.057V300.535C498.407 300.535 435.103 279.771 424.42 276.232C413.737 272.693 362.547 253.507 362.547 253.507Z" fill="#56B729"/>
<path opacity="0.3" d="M362.588 253.327L362.588 200.008L498.325 243.136L463.31 279.21L362.588 253.327Z" fill="#1A7109"/>
<path d="M709.308 244.383L498.143 301.004L498.418 243.056L716.43 187.761L709.308 244.383Z" fill="#25951C"/>
<path d="M362.547 220.348V213.271L438.888 243.463L362.547 220.348Z" fill="#25951C"/>
<path d="M398.157 255.11L362.547 240.954V233.876L486.739 285.239L398.157 255.11Z" fill="#25951C"/>
<path d="M606.031 159.45C517.006 175.965 368.244 201.253 362.547 201.253L498.407 243.056L716.423 187.761L606.031 159.45Z" fill="#85DC30"/>
<path fill-rule="evenodd" clip-rule="evenodd" d="M604.288 166.278L678.159 184.337L695.604 188.89L499.156 233.876L441.074 217.228L392.49 203.877L604.288 166.278ZM424.494 205.64L500.605 223.696L670.654 188.955L602.314 173.413L424.494 205.64Z" fill="#C7F85B"/>
<path d="M337.154 194.854V142.6L473.014 184.403V241.882C473.014 241.882 409.711 221.117 399.028 217.579C388.345 214.04 337.154 194.854 337.154 194.854Z" fill="#56B729"/>
<path d="M683.916 185.729L472.75 242.351L473.026 184.403L691.038 129.108L683.916 185.729Z" fill="#25951C"/>
<path d="M337.154 161.695V154.618L413.496 184.81L337.154 161.695Z" fill="#25951C"/>
<path d="M372.764 196.456L337.154 182.301V175.223L461.347 226.586L372.764 196.456Z" fill="#25951C"/>
<path d="M580.639 100.797C491.614 117.311 342.852 142.6 337.154 142.6L473.014 184.403L691.03 129.108L580.639 100.797Z" fill="#85DC30"/>
<path fill-rule="evenodd" clip-rule="evenodd" d="M578.895 107.625L652.766 125.684L670.212 130.237L473.764 175.222L415.681 158.575L367.098 145.224L578.895 107.625ZM399.102 146.986L475.212 165.043L645.261 130.302L576.922 114.759L399.102 146.986Z" fill="#C7F85B"/>
<ellipse cx="552.609" cy="198.377" rx="42.7321" ry="17.6942" fill="#C7F85B"/>
<path opacity="0.3" d="M468.273 400.045C468.273 400.045 443.07 353.198 443.07 349.659L590.037 309.869C610.986 374.525 468.273 400.045 468.273 400.045Z" fill="#1A7109"/>
<path d="M785.844 360.286V308.032L649.984 349.835V407.314C649.984 407.314 713.288 386.549 723.971 383.01C734.654 379.471 785.844 360.286 785.844 360.286Z" fill="#25951C"/>
<path d="M438.867 346.402C500.491 409.214 651.25 408.344 651.25 408.344L650.974 350.396C650.974 350.396 582.132 344.997 438.867 295.994V346.402Z" fill="#56B729"/>
<path d="M438.755 333.585C456.052 353.64 551.683 381.521 551.683 381.521L576.886 381.201L551.889 377.008C551.889 377.008 474.884 353.351 438.872 331.763L438.755 333.585Z" fill="#25951C"/>
<path d="M438.813 313.191C447.292 323.022 494.169 336.69 494.169 336.69L506.524 336.533L494.271 334.477C494.271 334.477 456.523 322.881 438.87 312.298L438.813 313.191Z" fill="#25951C"/>
<path d="M785.844 323.361V316.283L709.502 346.476L785.844 323.361Z" fill="#227B18"/>
<path d="M712.043 223.425L712.893 216.077L636.551 246.27L712.043 223.425Z" fill="#227B18"/>
<path d="M750.234 355.8L785.844 341.645V334.567L661.651 385.929L750.234 355.8Z" fill="#227B18"/>
<path d="M542.354 260.141C638.365 310.978 779.861 308.509 785.559 308.509L651.661 350.167C651.661 350.167 527.985 347.363 438.866 295.96L542.354 260.141Z" fill="#85DC30"/>
<path fill-rule="evenodd" clip-rule="evenodd" d="M543.878 269.357L462.483 297.529L472.4 303.249C502.766 320.764 547.378 330.772 583.853 336.435C605.671 339.823 627.701 342.343 649.755 343.543L649.843 343.547C649.843 343.547 649.851 343.548 650.103 338.328L649.843 343.547L650.831 343.595L753.777 311.363C720.794 309.423 688.024 307.475 655.334 302.289C619.524 296.607 576.834 286.807 545.886 270.42L543.878 269.357ZM650.103 335.317C596.326 332.353 532.414 322.481 483.869 299.537L541.5 278.581C593.418 305.215 654.082 309.847 710.942 315.51L650.103 335.317Z" fill="#C7F85B"/>
<ellipse cx="592.127" cy="313.688" rx="42.7321" ry="17.6942" fill="#C7F85B"/>
<path opacity="0.3" d="M481.49 237.7C481.49 237.7 473.014 189.202 473.014 185.664L608.751 228.791L573.736 264.865L582.462 326.103C539.727 316.257 499.087 274.988 499.087 274.988L499.087 243.147L481.49 237.7Z" fill="#1A7109"/>
<path opacity="0.3" d="M532.744 259.342C532.744 259.342 524.268 210.844 524.268 207.305L660.005 250.433L726.502 306.108L652.861 340.866C601.901 338.804 581.576 324.96 581.576 324.96L550.341 264.788L532.744 259.342Z" fill="#1A7109"/>
<path d="M593.977 109.727L737.975 264.934L596.373 284.951L516.651 215.009L480.164 124.528L593.977 109.727Z" fill="#88CF42"/>
<path d="M470.286 177.801L480.176 124.52C486.274 141.322 560.189 238.469 596.385 284.943L581.184 326.105C547.228 315.083 493.104 222.643 470.286 177.801Z" fill="#56B729"/>
<path d="M737.967 264.927L596.365 284.943L581.164 326.106L726.11 306.497L737.967 264.927Z" fill="#25951C"/>
<path opacity="0.3" d="M732.234 284.299C562.943 280.865 479.835 127.346 480.18 124.52L605.547 154.144C704.206 198.673 757.225 218.52 732.234 284.299Z" fill="#1A7109"/>
<path d="M732.676 252.806C690.062 268.258 630.653 245.147 606.275 231.66L627.476 196.964C680.299 209.14 775.29 237.354 732.676 252.806Z" fill="#25951C"/>
<path d="M680.882 232.154C598.33 263.385 512.678 173.41 480.172 124.519L615.085 103.687C682.284 176.117 761.547 192.281 797.796 191.921C795.039 214.527 724.562 292.34 680.882 232.154Z" fill="#82DC34"/>
<path fill-rule="evenodd" clip-rule="evenodd" d="M612.311 110.954L615.151 113.907C656.587 156.998 696.286 177.828 725.293 187.924C739.821 192.981 751.73 195.366 759.913 196.491C764.006 197.054 767.168 197.301 769.261 197.409C770.307 197.463 771.086 197.482 771.58 197.488C771.827 197.491 772.002 197.49 772.105 197.49L772.188 197.489L772.196 197.489L772.21 197.489L785.667 197.158L778.289 206.507L772.656 203.197C778.289 206.507 778.289 206.507 778.289 206.507L778.273 206.527L778.248 206.558L778.171 206.653C778.108 206.731 778.021 206.838 777.909 206.971C777.686 207.238 777.367 207.613 776.949 208.084C776.113 209.026 774.884 210.353 773.253 211.967C769.993 215.195 765.117 219.581 758.552 224.337C745.425 233.846 729.339 244.456 702.042 250.598C702.042 250.598 695.816 247.777 691.958 244.596C688.1 241.415 685.152 237.538 685.152 237.538C710.205 231.901 737.582 224.218 749.586 215.522C753.398 212.761 756.571 210.147 759.12 207.874C758.848 207.838 758.572 207.801 758.294 207.763C749.16 206.507 736.222 203.893 720.631 198.466C690.095 187.838 649.622 166.506 607.727 123.849C590.951 127.415 567.98 131.795 548.67 135.379C538.165 137.329 528.715 139.049 521.891 140.281C521.419 140.366 520.959 140.449 520.513 140.529C521.864 142.095 523.441 143.887 525.226 145.863C531.976 153.336 541.686 163.408 553.523 173.815C577.45 194.851 641.664 229.1 674.383 234.432C674.383 234.432 667.555 236.155 665.53 236.669C663.505 237.184 656.551 238.021 656.551 238.021C619.381 231.964 568.391 202.988 544.035 181.574C531.73 170.755 521.667 160.314 514.679 152.579C511.182 148.708 508.447 145.506 506.578 143.261C505.644 142.138 504.925 141.254 504.436 140.645C504.191 140.341 504.004 140.105 503.875 139.942L503.727 139.753L503.686 139.701L503.67 139.681C503.67 139.681 503.667 139.678 509.232 136.667L507.604 131.076L510.541 130.552C512.437 130.213 515.184 129.72 518.587 129.106C525.393 127.877 534.817 126.162 545.293 124.218C566.276 120.323 591.365 115.528 608.091 111.875L612.311 110.954ZM509.232 136.667L507.604 131.076L498.264 132.732L503.67 139.681L509.232 136.667Z" fill="#D4FD5F"/>
<path d="M500.773 200.896L493.691 180.652L520.943 227.109L541.112 253.323L519.045 229.399L500.773 200.896Z" fill="#25951C"/>
<ellipse cx="628.84" cy="185.662" rx="50.5385" ry="31.3133" transform="rotate(6.95121 628.84 185.662)" fill="#D4FD5F"/>
<path d="M729.663 294.515L730.629 291.289L660.051 298.16L650.275 302.256L729.663 294.515Z" fill="#227B18"/>
<path d="M733.786 280.451L734.752 277.226L707.266 280.451L697.49 284.547L733.786 280.451Z" fill="#227B18"/>
<g filter="url(#filter0_d_2617_249089)">
<path d="M1046.22 385.62H1096.47L1081.01 362.427L1061.68 319.907H1030.76L1011.43 362.427L995.966 385.62H1046.22Z" fill="#262534"/>
<rect x="992.1" y="370.158" width="108.234" height="7.731" fill="#262534"/>
<path d="M1100.33 370.158V385.62H1046.22H992.1V370.158C992.1 365.889 995.561 362.427 999.831 362.427H1003.7H1088.74H1092.6C1096.87 362.427 1100.33 365.889 1100.33 370.158Z" fill="#2A293B"/>
<rect x="992.1" y="374.024" width="54.117" height="11.5965" fill="#090815"/>
<rect x="1046.22" y="374.024" width="54.117" height="11.5965" fill="#121027"/>
<rect width="11.5965" height="11.5965" transform="matrix(-1 0 0 1 1077.14 362.427)" fill="#393D54"/>
<path d="M1053.95 319.907H1046.22L1061.68 354.696H1069.41L1053.95 319.907Z" fill="#393D54"/>
<path d="M1038.49 319.907H1046.22L1030.75 354.696H1023.02L1038.49 319.907Z" fill="#121027"/>
<rect width="11.5965" height="11.5965" transform="matrix(-1 0 0 1 1015.29 362.427)" fill="#121027"/>
<circle r="23.193" transform="matrix(-1 0 0 1 1046.22 281.252)" fill="#2C2B3E"/>
<path d="M1023.02 281.251C1023.02 294.061 1033.41 304.444 1046.22 304.444C1059.03 304.444 1069.41 294.061 1069.41 281.251C1069.41 281.251 1063.61 292.848 1046.22 292.848C1028.82 292.848 1023.02 281.251 1023.02 281.251Z" fill="#121027"/>
<circle r="5.79825" transform="matrix(-1 0 0 1 1055.88 271.588)" fill="#393D54"/>
<path d="M1023.03 300.579H1069.41L1077.14 312.176H1015.29L1023.03 300.579Z" fill="#2A293B"/>
<path d="M1061.68 300.579H1053.95L1061.68 312.176H1069.41L1061.68 300.579Z" fill="#393D54"/>
<path d="M1030.76 300.579H1038.49L1030.76 312.176H1023.03L1030.76 300.579Z" fill="#121027"/>
<path d="M1023.03 319.907H1069.41L1077.14 312.176H1015.29L1023.03 319.907Z" fill="#090815"/>
<rect x="1088.74" y="362.427" width="46.386" height="7.731" transform="rotate(-180 1088.74 362.427)" fill="#121027"/>
<rect x="1046.22" y="362.427" width="42.5205" height="7.731" transform="rotate(-180 1046.22 362.427)" fill="#090815"/>
</g>
<g filter="url(#filter1_d_2617_249089)">
<circle r="5.79825" transform="matrix(-1 0 0 1 979.669 279.319)" fill="#2C2B3E"/>
<path d="M962.272 246.462L1005.71 293.52C1007.61 295.573 1008.66 298.265 1008.66 301.06C1008.66 307.199 1003.68 312.175 997.542 312.175H970.502C965.957 312.175 962.272 308.491 962.272 303.946V300.579V316.041C981.6 316.041 1000.93 327.637 1000.93 354.696C1000.93 399.149 1000.93 372.091 1000.93 372.091H915.886V310.243V304.444C915.886 278.826 936.654 258.058 962.272 258.058V246.462Z" fill="#262534"/>
<path d="M997.545 312.176H970.505C965.959 312.176 962.275 308.491 962.275 303.946V292.848C962.275 292.848 962.275 308.31 973.871 308.31H989.334C995.131 308.31 997.545 312.176 997.545 312.176Z" fill="#090815"/>
<path d="M962.273 273.521C945.195 273.521 931.349 287.366 931.349 304.445V362.427H915.887V310.243V304.445C915.887 278.826 936.655 258.059 962.273 258.059V273.521Z" fill="#2C2B3E"/>
<path d="M962.273 273.52V273.52C945.195 273.52 931.349 287.366 931.349 304.444V304.444V362.427H923.618V310.243V304.444C923.618 287.05 936.655 265.79 962.273 265.79V273.52Z" fill="#121027"/>
<rect width="23.193" height="7.731" transform="matrix(-1 0 0 1 946.811 300.579)" fill="#121027"/>
<rect width="11.5965" height="7.731" rx="3.8655" transform="matrix(-1 0 0 1 981.6 281.251)" fill="#090815"/>
<path d="M981.6 283.794C981.6 282.39 980.461 281.251 979.057 281.251H968.07C967.003 281.251 966.138 282.117 966.138 283.184V283.184C966.138 284.252 967.003 285.117 968.07 285.117H973.17C973.634 285.117 974.096 285.174 974.547 285.286L978.441 286.26C980.045 286.661 981.6 285.448 981.6 283.794V283.794Z" fill="#090815"/>
<rect width="23.193" height="7.731" transform="matrix(-1 0 0 1 946.811 316.041)" fill="#121027"/>
<rect width="23.193" height="7.731" transform="matrix(-1 0 0 1 946.811 331.503)" fill="#121027"/>
<rect x="904.289" y="370.158" width="108.234" height="7.731" fill="#262534"/>
<path d="M1012.52 370.158V385.62H958.406H904.289V370.158C904.289 365.888 907.751 362.427 912.02 362.427H915.886H1000.93H1004.79C1009.06 362.427 1012.52 365.888 1012.52 370.158Z" fill="#2A293B"/>
<rect x="904.289" y="374.023" width="54.117" height="11.5965" fill="#090815"/>
<rect x="958.406" y="374.023" width="54.117" height="11.5965" fill="#121027"/>
<rect width="11.5965" height="11.5965" transform="matrix(-1 0 0 1 989.33 362.427)" fill="#393D54"/>
<rect width="11.5965" height="11.5965" transform="matrix(-1 0 0 1 927.482 362.427)" fill="#121027"/>
<rect x="1000.93" y="362.427" width="46.386" height="7.731" transform="rotate(-180 1000.93 362.427)" fill="#121027"/>
<rect x="958.406" y="362.427" width="42.5205" height="7.731" transform="rotate(-180 958.406 362.427)" fill="#090815"/>
<rect width="3.8655" height="27.0585" transform="matrix(-1 0 0 1 962.273 246.462)" fill="#121027"/>
<path fill-rule="evenodd" clip-rule="evenodd" d="M974.19 340.446C976.807 343.844 977.736 348.084 977.736 350.83H989.332C989.332 346.349 987.942 339.748 983.601 334.111C979.315 328.545 972.384 324.257 962.274 323.772V334.634C968.452 335.072 972.004 337.608 974.19 340.446Z" fill="#393D54"/>
</g>
<g filter="url(#filter2_d_2617_249089)">
<path d="M901.522 354.696L889.926 362.427H851.27L839.674 354.696L847.405 343.1C831.943 329.571 814.935 295.941 870.598 269.655C926.262 295.941 909.253 329.571 893.791 343.1L901.522 354.696Z" fill="#262534"/>
<path d="M847.401 343.1H893.787C900.563 337.171 907.636 327.381 908.76 316.042C908.76 316.042 897.652 335.369 870.594 335.369C843.535 335.369 832.429 316.042 832.429 316.042C833.552 327.381 840.625 337.171 847.401 343.1Z" fill="#090815"/>
<circle r="15.462" transform="matrix(-1 0 0 1 870.595 261.924)" fill="#2C2B3E"/>
<path d="M855.133 261.924C855.133 270.464 862.055 277.386 870.595 277.386C879.134 277.386 886.057 270.464 886.057 261.924C886.057 261.924 882.191 269.655 870.595 269.655C858.998 269.655 855.133 261.924 855.133 261.924Z" fill="#121027"/>
<path d="M847.403 343.1H893.789L901.52 354.696H839.672L847.403 343.1Z" fill="#2A293B"/>
<path d="M847.403 362.427H893.789L901.52 354.696H839.672L847.403 362.427Z" fill="#090815"/>
<circle r="7.731" transform="matrix(-1 0 0 1 886.056 296.714)" fill="#393D54"/>
<rect x="816.477" y="370.158" width="108.234" height="7.731" fill="#262534"/>
<path d="M924.711 370.158V385.62H870.594H816.477V370.158C816.477 365.889 819.938 362.427 824.208 362.427H828.073H913.114H916.98C921.25 362.427 924.711 365.889 924.711 370.158Z" fill="#2A293B"/>
<rect x="816.477" y="374.024" width="54.117" height="11.5965" fill="#090815"/>
<rect x="870.594" y="374.024" width="54.117" height="11.5965" fill="#121027"/>
<rect width="11.5965" height="11.5965" transform="matrix(-1 0 0 1 901.518 362.427)" fill="#393D54"/>
<path d="M886.056 343.1H878.325L886.056 354.696H893.787L886.056 343.1Z" fill="#393D54"/>
<path d="M855.131 343.1H862.862L855.131 354.696H847.4L855.131 343.1Z" fill="#121027"/>
<rect width="11.5965" height="11.5965" transform="matrix(-1 0 0 1 839.67 362.427)" fill="#121027"/>
</g>
<g filter="url(#filter3_d_2617_249089)">
<path d="M825.302 372.091L836.898 385.62H782.781H728.664L740.261 370.158V362.427V350.831L751.857 339.234V296.714L736.395 285.117V258.059H759.588V269.655H771.185V258.059H794.378V269.655H805.974V258.059H829.167V285.117L813.705 296.714V339.234L825.302 350.831V362.427V372.091Z" fill="#262534"/>
<path d="M829.168 285.117H736.396L751.858 296.714H813.706L829.168 285.117Z" fill="#090815"/>
<path d="M825.303 350.831H740.262L751.858 339.234H813.706L825.303 350.831Z" fill="#2C2B3E"/>
<rect width="46.386" height="15.462" transform="matrix(-1 0 0 1 829.168 269.655)" fill="#121027"/>
<rect width="23.193" height="11.5965" transform="matrix(-1 0 0 1 794.377 258.059)" fill="#262534"/>
<rect width="23.193" height="11.5965" transform="matrix(-1 0 0 1 759.588 258.059)" fill="#262534"/>
<rect width="42.5205" height="11.5965" transform="matrix(-1 0 0 1 825.303 350.831)" fill="#121027"/>
<rect width="46.386" height="15.462" transform="matrix(-1 0 0 1 782.781 269.655)" fill="#090815"/>
<rect width="7.731" height="15.462" transform="matrix(-1 0 0 1 821.436 269.655)" fill="#393D54"/>
<rect width="11.5965" height="42.5205" transform="matrix(-1 0 0 1 805.975 296.713)" fill="#393D54"/>
<rect width="11.5965" height="42.5205" transform="matrix(-1 0 0 1 771.186 296.713)" fill="#121027"/>
<rect width="42.5205" height="11.5965" transform="matrix(-1 0 0 1 782.781 350.831)" fill="#090815"/>
<rect width="11.5965" height="11.5965" transform="matrix(-1 0 0 1 751.857 258.059)" fill="#121027"/>
<rect x="728.664" y="370.158" width="108.234" height="7.731" fill="#262534"/>
<path d="M836.898 370.158V385.62H782.781H728.664V370.158C728.664 365.889 732.126 362.427 736.395 362.427H740.261H825.302H829.167C833.437 362.427 836.898 365.889 836.898 370.158Z" fill="#2A293B"/>
<rect x="728.664" y="374.024" width="54.117" height="11.5965" fill="#090815"/>
<rect x="782.781" y="374.024" width="54.117" height="11.5965" fill="#121027"/>
<rect width="11.5965" height="11.5965" transform="matrix(-1 0 0 1 813.705 362.427)" fill="#393D54"/>
<rect width="11.5965" height="11.5965" transform="matrix(-1 0 0 1 755.723 362.427)" fill="#121027"/>
</g>
<g filter="url(#filter4_d_2617_249089)">
<path d="M741.35 261.924V343.1H694.964H648.578V261.924H660.174L675.636 323.772L691.098 261.924H694.964H698.829L714.291 323.772L729.753 261.924H741.35Z" fill="#262534"/>
<path d="M694.965 261.924H698.83L703.662 281.252L694.965 277.386L686.267 281.252L691.099 261.924H694.965Z" fill="#090815"/>
<path d="M737.484 285.117L729.753 319.907H737.484V285.117Z" fill="#393D54"/>
<path d="M652.443 285.117L660.174 319.907H652.443V285.117Z" fill="#121027"/>
<rect x="640.846" y="370.158" width="108.234" height="7.731" fill="#262534"/>
<path d="M749.08 370.158V385.621H694.963H640.846V370.158C640.846 365.889 644.307 362.427 648.577 362.427H652.443H737.484H741.349C745.619 362.427 749.08 365.889 749.08 370.158Z" fill="#2A293B"/>
<rect x="640.846" y="374.024" width="54.117" height="11.5965" fill="#090815"/>
<rect x="694.963" y="374.024" width="54.117" height="11.5965" fill="#121027"/>
<rect width="11.5965" height="11.5965" transform="matrix(-1 0 0 1 725.887 362.427)" fill="#393D54"/>
<rect width="11.5965" height="11.5965" transform="matrix(-1 0 0 1 664.039 362.427)" fill="#121027"/>
<rect width="50.2515" height="19.3275" transform="matrix(-1 0 0 1 741.352 343.1)" fill="#121027"/>
<rect width="50.2515" height="7.731" transform="matrix(-1 0 0 1 741.352 319.907)" fill="#121027"/>
<rect width="92.772" height="15.462" transform="matrix(-1 0 0 1 741.352 327.638)" fill="#2C2B3E"/>
<rect width="46.386" height="19.3275" transform="matrix(-1 0 0 1 694.965 343.1)" fill="#090815"/>
<rect width="46.386" height="7.731" transform="matrix(-1 0 0 1 694.965 319.907)" fill="#090815"/>
<rect width="92.772" height="7.731" transform="matrix(-1 0 0 1 741.352 354.696)" fill="#262534"/>
<path d="M741.35 265.79L729.753 261.924L724.921 281.252L741.35 273.521V265.79Z" fill="#090815"/>
<path d="M648.578 265.79L660.175 261.924L665.007 281.252L648.578 273.521V265.79Z" fill="#090815"/>
<circle r="11.5965" transform="matrix(-1 0 0 1 733.618 258.059)" fill="#2C2B3E"/>
<path d="M722.022 258.059C722.022 264.464 727.214 269.656 733.618 269.656C740.023 269.656 745.215 264.464 745.215 258.059C745.215 258.059 742.316 263.857 733.618 263.857C724.921 263.857 722.022 258.059 722.022 258.059Z" fill="#121027"/>
<circle r="11.5965" transform="matrix(-1 0 0 1 656.308 258.059)" fill="#2C2B3E"/>
<path d="M644.711 258.059C644.711 264.464 649.903 269.656 656.308 269.656C662.712 269.656 667.904 264.464 667.904 258.059C667.904 258.059 665.005 263.857 656.308 263.857C647.61 263.857 644.711 258.059 644.711 258.059Z" fill="#121027"/>
<circle r="11.5965" transform="matrix(-1 0 0 1 694.964 258.059)" fill="#2C2B3E"/>
<path d="M683.368 258.059C683.368 264.464 688.559 269.656 694.964 269.656C701.369 269.656 706.561 264.464 706.561 258.059C706.561 258.059 703.661 263.857 694.964 263.857C686.267 263.857 683.368 258.059 683.368 258.059Z" fill="#121027"/>
<path d="M694.964 343.1H714.291L694.964 327.638V343.1Z" fill="#121027"/>
<path d="M694.964 343.1H675.637L694.964 327.638V343.1Z" fill="#090815"/>
<path d="M727.82 343.1H741.35L727.82 327.638L714.291 343.1H727.82Z" fill="#121027"/>
<path d="M662.107 343.1H675.637L662.107 327.638L648.578 343.1H662.107Z" fill="#090815"/>
</g>
<g filter="url(#filter5_d_2617_249089)">
<path d="M120.906 385.62H70.6543L86.1163 362.427L105.444 319.907H136.368L155.695 362.427L171.157 385.62H120.906Z" fill="#DFE5FE"/>
<rect width="108.234" height="7.731" transform="matrix(-1 0 0 1 175.025 370.158)" fill="#DFE5FE"/>
<path d="M66.791 370.158V385.62H120.908H175.025V370.158C175.025 365.888 171.564 362.427 167.294 362.427H163.429H78.3875H74.522C70.2523 362.427 66.791 365.888 66.791 370.158Z" fill="#D3DCFF"/>
<rect width="54.117" height="11.5965" transform="matrix(-1 0 0 1 175.025 374.023)" fill="#7D93E9"/>
<rect width="54.117" height="11.5965" transform="matrix(-1 0 0 1 120.908 374.023)" fill="#A8B7F3"/>
<rect x="89.9844" y="362.427" width="11.5965" height="11.5965" fill="white"/>
<path d="M113.177 319.906H120.908L105.446 354.696H97.7148L113.177 319.906Z" fill="white"/>
<path d="M128.64 319.906H120.909L136.371 354.696H144.102L128.64 319.906Z" fill="#A8B7F3"/>
<rect x="151.832" y="362.427" width="11.5965" height="11.5965" fill="#A8B7F3"/>
<circle cx="120.908" cy="281.252" r="23.193" fill="#E9EDFF"/>
<path d="M144.101 281.251C144.101 294.061 133.717 304.444 120.908 304.444C108.099 304.444 97.7148 294.061 97.7148 281.251C97.7148 281.251 103.513 292.848 120.908 292.848C138.303 292.848 144.101 281.251 144.101 281.251Z" fill="#A8B7F3"/>
<circle cx="111.244" cy="271.588" r="5.79825" fill="white"/>
<path d="M144.099 300.579H97.713L89.982 312.176H151.83L144.099 300.579Z" fill="#D3DCFF"/>
<path d="M105.444 300.579H113.175L105.444 312.176H97.7129L105.444 300.579Z" fill="white"/>
<path d="M136.369 300.579H128.638L136.369 312.176H144.1L136.369 300.579Z" fill="#A8B7F3"/>
<path d="M144.099 319.906H97.713L89.982 312.175H151.83L144.099 319.906Z" fill="#7D93E9"/>
<rect width="46.386" height="7.731" transform="matrix(1 0 0 -1 78.3848 362.427)" fill="#A8B7F3"/>
<rect width="42.5205" height="7.731" transform="matrix(1 0 0 -1 120.906 362.427)" fill="#7D93E9"/>
</g>
<g filter="url(#filter6_d_2617_249089)">
<circle cx="187.458" cy="279.319" r="5.79825" fill="#E9EDFF"/>
<path d="M204.853 246.462L161.415 293.52C159.519 295.573 158.467 298.265 158.467 301.06C158.467 307.199 163.444 312.175 169.583 312.175H196.623C201.168 312.175 204.853 308.491 204.853 303.946V300.579V316.041C185.525 316.041 166.198 327.637 166.198 354.696C166.198 399.149 166.198 372.091 166.198 372.091H251.239V310.243V304.444C251.239 278.826 230.471 258.058 204.853 258.058V246.462Z" fill="#DFE5FE"/>
<path d="M169.58 312.176H196.62C201.166 312.176 204.85 308.491 204.85 303.946V292.848C204.85 292.848 204.85 308.31 193.254 308.31H177.791C171.994 308.31 169.58 312.176 169.58 312.176Z" fill="#7D93E9"/>
<path d="M204.854 273.521C221.932 273.521 235.778 287.366 235.778 304.445V362.427H251.24V310.243V304.445C251.24 278.826 230.472 258.059 204.854 258.059V273.521Z" fill="#E9EDFF"/>
<path d="M204.854 273.52V273.52C221.932 273.52 235.778 287.366 235.778 304.444V304.444V362.427H243.509V310.243V304.444C243.509 287.05 230.472 265.79 204.854 265.79V273.52Z" fill="#A8B7F3"/>
<rect x="220.316" y="300.579" width="23.193" height="7.731" fill="#A8B7F3"/>
<rect x="185.525" y="281.251" width="11.5965" height="7.731" rx="3.8655" fill="#7D93E9"/>
<path d="M185.525 283.794C185.525 282.39 186.664 281.251 188.068 281.251H199.055C200.122 281.251 200.987 282.117 200.987 283.184V283.184C200.987 284.252 200.122 285.117 199.055 285.117H193.955C193.491 285.117 193.029 285.174 192.578 285.286L188.684 286.26C187.08 286.661 185.525 285.448 185.525 283.794V283.794Z" fill="#7D93E9"/>
<rect x="220.316" y="316.041" width="23.193" height="7.731" fill="#A8B7F3"/>
<rect x="220.316" y="331.503" width="23.193" height="7.731" fill="#A8B7F3"/>
<rect width="108.234" height="7.731" transform="matrix(-1 0 0 1 262.838 370.158)" fill="#DFE5FE"/>
<path d="M154.604 370.158V385.62H208.721H262.838V370.158C262.838 365.889 259.376 362.427 255.107 362.427H251.241H166.2H162.335C158.065 362.427 154.604 365.889 154.604 370.158Z" fill="#D3DCFF"/>
<rect width="54.117" height="11.5965" transform="matrix(-1 0 0 1 262.838 374.024)" fill="#7D93E9"/>
<rect width="54.117" height="11.5965" transform="matrix(-1 0 0 1 208.721 374.024)" fill="#A8B7F3"/>
<rect x="177.797" y="362.427" width="11.5965" height="11.5965" fill="white"/>
<rect x="239.645" y="362.427" width="11.5965" height="11.5965" fill="#A8B7F3"/>
<rect width="46.386" height="7.731" transform="matrix(1 0 0 -1 166.197 362.427)" fill="#A8B7F3"/>
<rect width="42.5205" height="7.731" transform="matrix(1 0 0 -1 208.719 362.427)" fill="#7D93E9"/>
<rect x="204.854" y="246.462" width="3.8655" height="27.0585" fill="#A8B7F3"/>
<path fill-rule="evenodd" clip-rule="evenodd" d="M192.937 340.446C190.32 343.844 189.391 348.084 189.391 350.83H177.795C177.795 346.349 179.185 339.748 183.526 334.111C187.812 328.545 194.743 324.257 204.853 323.772V334.634C198.675 335.072 195.123 337.608 192.937 340.446Z" fill="white"/>
</g>
<g filter="url(#filter7_d_2617_249089)">
<path d="M265.605 354.696L277.201 362.427H315.856L327.453 354.696L319.722 343.099C335.184 329.57 352.192 295.94 296.529 269.655C240.865 295.94 257.874 329.57 273.336 343.099L265.605 354.696Z" fill="#DFE5FE"/>
<path d="M319.726 343.1H273.34C266.564 337.17 259.491 327.381 258.367 316.041C258.367 316.041 269.475 335.369 296.533 335.369C323.592 335.369 334.698 316.041 334.698 316.041C333.575 327.381 326.502 337.17 319.726 343.1Z" fill="#7D93E9"/>
<circle cx="296.53" cy="261.924" r="15.462" fill="#E9EDFF"/>
<path d="M311.992 261.924C311.992 270.463 305.07 277.386 296.53 277.386C287.991 277.386 281.068 270.463 281.068 261.924C281.068 261.924 284.934 269.655 296.53 269.655C308.127 269.655 311.992 261.924 311.992 261.924Z" fill="#A8B7F3"/>
<path d="M319.724 343.1H273.338L265.607 354.696H327.455L319.724 343.1Z" fill="#D3DCFF"/>
<path d="M319.724 362.427H273.338L265.607 354.696H327.455L319.724 362.427Z" fill="#7D93E9"/>
<circle cx="281.069" cy="296.713" r="7.731" fill="white"/>
<rect width="108.234" height="7.731" transform="matrix(-1 0 0 1 350.65 370.158)" fill="#DFE5FE"/>
<path d="M242.416 370.158V385.62H296.533H350.65V370.158C350.65 365.889 347.189 362.427 342.919 362.427H339.054H254.013H250.147C245.877 362.427 242.416 365.889 242.416 370.158Z" fill="#D3DCFF"/>
<rect width="54.117" height="11.5965" transform="matrix(-1 0 0 1 350.65 374.024)" fill="#7D93E9"/>
<rect width="54.117" height="11.5965" transform="matrix(-1 0 0 1 296.533 374.024)" fill="#A8B7F3"/>
<rect x="265.609" y="362.427" width="11.5965" height="11.5965" fill="white"/>
<path d="M281.071 343.1H288.802L281.071 354.696H273.34L281.071 343.1Z" fill="white"/>
<path d="M311.996 343.1H304.265L311.996 354.696H319.727L311.996 343.1Z" fill="#A8B7F3"/>
<rect x="327.457" y="362.427" width="11.5965" height="11.5965" fill="#A8B7F3"/>
</g>
<g filter="url(#filter8_d_2617_249089)">
<path d="M341.823 372.091L330.227 385.62H384.344H438.461L426.864 370.158V362.427V350.831L415.268 339.234V296.714L430.73 285.117V258.059H407.537V269.655H395.94V258.059H372.747V269.655H361.151V258.059H337.958V285.117L353.42 296.714V339.234L341.823 350.831V362.427V372.091Z" fill="#DFE5FE"/>
<path d="M337.959 285.117H430.731L415.269 296.714H353.421L337.959 285.117Z" fill="#7D93E9"/>
<path d="M341.824 350.831H426.865L415.269 339.234H353.421L341.824 350.831Z" fill="#E9EDFF"/>
<rect x="337.959" y="269.655" width="46.386" height="15.462" fill="#A8B7F3"/>
<rect x="372.748" y="258.059" width="23.193" height="11.5965" fill="#DFE5FE"/>
<rect x="407.537" y="258.059" width="23.193" height="11.5965" fill="#DFE5FE"/>
<rect x="341.824" y="350.831" width="42.5205" height="11.5965" fill="#A8B7F3"/>
<rect x="384.344" y="269.655" width="46.386" height="15.462" fill="#7D93E9"/>
<rect x="345.689" y="269.655" width="7.731" height="15.462" fill="white"/>
<rect x="361.15" y="296.713" width="11.5965" height="42.5205" fill="white"/>
<rect x="395.941" y="296.713" width="11.5965" height="42.5205" fill="#A8B7F3"/>
<rect x="384.344" y="350.831" width="42.5205" height="11.5965" fill="#7D93E9"/>
<rect x="415.268" y="258.059" width="11.5965" height="11.5965" fill="#A8B7F3"/>
<rect width="108.234" height="7.731" transform="matrix(-1 0 0 1 438.463 370.158)" fill="#DFE5FE"/>
<path d="M330.229 370.158V385.62H384.346H438.463V370.158C438.463 365.889 435.001 362.427 430.732 362.427H426.866H341.825H337.96C333.69 362.427 330.229 365.889 330.229 370.158Z" fill="#D3DCFF"/>
<rect width="54.117" height="11.5965" transform="matrix(-1 0 0 1 438.463 374.024)" fill="#7D93E9"/>
<rect width="54.117" height="11.5965" transform="matrix(-1 0 0 1 384.346 374.024)" fill="#A8B7F3"/>
<rect x="353.422" y="362.427" width="11.5965" height="11.5965" fill="white"/>
<rect x="411.404" y="362.427" width="11.5965" height="11.5965" fill="#A8B7F3"/>
</g>
<g filter="url(#filter9_d_2617_249089)">
<path d="M425.771 261.924V343.099H472.158H518.544V261.924H506.947L491.485 323.772L476.023 261.924H472.158H468.292L452.83 323.772L437.368 261.924H425.771Z" fill="#DFE5FE"/>
<path d="M472.156 261.924H468.291L463.459 281.251L472.156 277.386L480.854 281.251L476.022 261.924H472.156Z" fill="#7D93E9"/>
<path d="M429.637 285.117L437.368 319.907H429.637V285.117Z" fill="white"/>
<path d="M514.678 285.117L506.947 319.907H514.678V285.117Z" fill="#A8B7F3"/>
<rect width="108.234" height="7.731" transform="matrix(-1 0 0 1 526.275 370.158)" fill="#DFE5FE"/>
<path d="M418.041 370.158V385.62H472.158H526.275V370.158C526.275 365.889 522.814 362.427 518.544 362.427H514.679H429.638H425.772C421.502 362.427 418.041 365.889 418.041 370.158Z" fill="#D3DCFF"/>
<rect width="54.117" height="11.5965" transform="matrix(-1 0 0 1 526.275 374.024)" fill="#7D93E9"/>
<rect width="54.117" height="11.5965" transform="matrix(-1 0 0 1 472.158 374.024)" fill="#A8B7F3"/>
<rect x="441.234" y="362.427" width="11.5965" height="11.5965" fill="white"/>
<rect x="503.082" y="362.427" width="11.5965" height="11.5965" fill="#A8B7F3"/>
<rect x="425.77" y="343.099" width="50.2515" height="19.3275" fill="#A8B7F3"/>
<rect x="425.77" y="319.906" width="50.2515" height="7.731" fill="#A8B7F3"/>
<rect x="425.77" y="327.637" width="92.772" height="15.462" fill="#E9EDFF"/>
<rect x="472.156" y="343.099" width="46.386" height="19.3275" fill="#7D93E9"/>
<rect x="472.156" y="319.906" width="46.386" height="7.731" fill="#7D93E9"/>
<rect x="425.77" y="354.696" width="92.772" height="7.731" fill="#DFE5FE"/>
<path d="M425.771 265.789L437.368 261.924L442.2 281.251L425.771 273.52V265.789Z" fill="#7D93E9"/>
<path d="M518.543 265.789L506.946 261.924L502.115 281.251L518.543 273.52V265.789Z" fill="#7D93E9"/>
<circle cx="433.503" cy="258.058" r="11.5965" fill="#E9EDFF"/>
<path d="M445.099 258.059C445.099 264.463 439.907 269.655 433.503 269.655C427.098 269.655 421.906 264.463 421.906 258.059C421.906 258.059 424.805 263.857 433.503 263.857C442.2 263.857 445.099 258.059 445.099 258.059Z" fill="#A8B7F3"/>
<circle cx="510.811" cy="258.058" r="11.5965" fill="#E9EDFF"/>
<path d="M522.408 258.059C522.408 264.463 517.216 269.655 510.811 269.655C504.407 269.655 499.215 264.463 499.215 258.059C499.215 258.059 502.114 263.857 510.811 263.857C519.509 263.857 522.408 258.059 522.408 258.059Z" fill="#A8B7F3"/>
<circle cx="472.155" cy="258.058" r="11.5965" fill="#E9EDFF"/>
<path d="M483.752 258.059C483.752 264.463 478.56 269.655 472.155 269.655C465.751 269.655 460.559 264.463 460.559 258.059C460.559 258.059 463.458 263.857 472.155 263.857C480.852 263.857 483.752 258.059 483.752 258.059Z" fill="#A8B7F3"/>
<path d="M472.156 343.1H452.828L472.156 327.638V343.1Z" fill="#A8B7F3"/>
<path d="M472.157 343.1H491.484L472.157 327.638V343.1Z" fill="#7D93E9"/>
<path d="M439.301 343.1H425.771L439.301 327.638L452.83 343.1H439.301Z" fill="#A8B7F3"/>
<path d="M505.014 343.1H491.484L505.014 327.638L518.543 343.1H505.014Z" fill="#7D93E9"/>
</g>
<g filter="url(#filter10_d_2617_249089)">
<rect x="517.262" y="282.043" width="131.478" height="43.8261" fill="#7D93E9"/>
<rect x="577.521" y="188.913" width="10.9565" height="43.8261" fill="#DFE5FE"/>
<rect x="561.086" y="216.304" width="10.9565" height="43.8261" transform="rotate(-90 561.086 216.304)" fill="#DFE5FE"/>
<path d="M582.999 282.043C582.999 282.043 566.564 254.104 566.564 244.609C566.564 235.113 573.83 227.261 582.999 227.261V282.043Z" fill="#A8B7F3"/>
<path d="M583.001 282.043C583.001 282.043 599.436 254.104 599.436 244.609C599.436 235.113 592.17 227.261 583.001 227.261V282.043Z" fill="#7D93E9"/>
<circle cx="632.304" cy="282.044" r="49.3044" fill="#E9EDFF"/>
<path d="M681.609 282.043C681.609 309.274 659.534 331.348 632.304 331.348C605.074 331.348 583 309.274 583 282.043C583 282.043 595.326 306.696 632.304 306.696C669.283 306.696 681.609 282.043 681.609 282.043Z" fill="#A8B7F3"/>
<circle cx="533.697" cy="282.044" r="49.3044" fill="#E9EDFF"/>
<path d="M583.001 282.043C583.001 309.274 560.927 331.348 533.697 331.348C506.467 331.348 484.393 309.274 484.393 282.043C484.393 282.043 496.719 306.696 533.697 306.696C570.675 306.696 583.001 282.043 583.001 282.043Z" fill="#A8B7F3"/>
<rect width="153.391" height="10.9565" transform="matrix(-1 0 0 1 659.693 364.217)" fill="#DFE5FE"/>
<path d="M506.303 364.217V386.13H582.998H659.694V364.217C659.694 358.166 654.789 353.261 648.738 353.261H643.259H522.738H517.259C511.208 353.261 506.303 358.166 506.303 364.217Z" fill="#D3DCFF"/>
<rect width="76.6957" height="16.4348" transform="matrix(-1 0 0 1 659.693 369.696)" fill="#7D93E9"/>
<rect width="76.6957" height="16.4348" transform="matrix(-1 0 0 1 582.998 369.696)" fill="#A8B7F3"/>
<rect x="539.172" y="353.261" width="16.4348" height="16.4348" fill="white"/>
<rect x="626.824" y="353.261" width="16.4348" height="16.4348" fill="#A8B7F3"/>
<rect x="577.521" y="194.391" width="5.47826" height="16.4348" fill="white"/>
<rect x="566.564" y="210.826" width="5.47826" height="16.4348" transform="rotate(-90 566.564 210.826)" fill="white"/>
<circle cx="520" cy="257.391" r="13.6957" fill="white"/>
<circle cx="613.131" cy="257.391" r="13.6957" fill="white"/>
<rect x="517.26" y="325.87" width="71.2174" height="27.3913" fill="#A8B7F3"/>
<rect x="582.998" y="325.87" width="65.7391" height="27.3913" fill="#7D93E9"/>
<rect x="517.26" y="325.87" width="131.478" height="10.9565" fill="#DFE5FE"/>
<mask id="mask0_2617_249089" style="mask-type:alpha" maskUnits="userSpaceOnUse" x="583" y="169" width="126" height="220">
<rect x="583" y="169" width="126" height="220" fill="#C4C4C4"/>
</mask>
<g mask="url(#mask0_2617_249089)">
<rect x="517.262" y="282.043" width="131.478" height="43.8261" fill="#090815"/>
<rect x="577.521" y="188.913" width="10.9565" height="43.8261" fill="#262534"/>
<rect x="561.086" y="216.304" width="10.9565" height="43.8261" transform="rotate(-90 561.086 216.304)" fill="#262534"/>
<path d="M583.001 282.043C583.001 282.043 566.566 254.104 566.566 244.609C566.566 235.113 573.832 227.261 583.001 227.261V282.043Z" fill="#121027"/>
<path d="M583.001 282.043C583.001 282.043 599.436 254.104 599.436 244.609C599.436 235.113 592.17 227.261 583.001 227.261V282.043Z" fill="#090815"/>
<circle cx="632.304" cy="282.044" r="49.3043" fill="#2C2B3E"/>
<path d="M681.609 282.043C681.609 309.273 659.534 331.348 632.304 331.348C605.074 331.348 583 309.273 583 282.043C583 282.043 595.326 306.696 632.304 306.696C669.283 306.696 681.609 282.043 681.609 282.043Z" fill="#121027"/>
<circle cx="533.697" cy="282.044" r="49.3043" fill="#2C2B3E"/>
<path d="M583.001 282.043C583.001 309.273 560.927 331.348 533.697 331.348C506.467 331.348 484.393 309.273 484.393 282.043C484.393 282.043 496.719 306.696 533.697 306.696C570.675 306.696 583.001 282.043 583.001 282.043Z" fill="#121027"/>
<rect width="153.391" height="10.9565" transform="matrix(-1 0 0 1 659.695 364.218)" fill="#262534"/>
<path d="M506.305 364.218V386.131H583H659.696V364.218C659.696 358.166 654.791 353.261 648.739 353.261H643.261H522.739H517.261C511.21 353.261 506.305 358.166 506.305 364.218Z" fill="#2A293B"/>
<rect width="76.6956" height="16.4348" transform="matrix(-1 0 0 1 659.695 369.696)" fill="#090815"/>
<rect x="626.826" y="353.261" width="16.4348" height="16.4348" fill="#121027"/>
<rect x="566.566" y="210.826" width="5.47826" height="16.4348" transform="rotate(-90 566.566 210.826)" fill="#393D54"/>
<circle cx="613.131" cy="257.391" r="13.6957" fill="#393D54"/>
<rect x="517.26" y="325.87" width="71.2174" height="27.3913" fill="#121027"/>
<rect x="582.998" y="325.87" width="65.7391" height="27.3913" fill="#090815"/>
<rect x="517.26" y="325.87" width="131.478" height="10.9565" fill="#262534"/>
</g>
</g>
<defs>
<filter id="filter0_d_2617_249089" x="917.312" y="175" width="289.813" height="289.813" filterUnits="userSpaceOnUse" color-interpolation-filters="sRGB">
<feFlood flood-opacity="0" result="BackgroundImageFix"/>
<feColorMatrix in="SourceAlpha" type="matrix" values="0 0 0 0 0 0 0 0 0 0 0 0 0 0 0 0 0 0 127 0" result="hardAlpha"/>
<feOffset dx="16"/>
<feGaussianBlur stdDeviation="28"/>
<feColorMatrix type="matrix" values="0 0 0 0 0.0136667 0 0 0 0 0.170833 0 0 0 0 0 0 0 0 0.5 0"/>
<feBlend mode="normal" in2="BackgroundImageFix" result="effect1_dropShadow_2617_249089"/>
<feBlend mode="normal" in="SourceGraphic" in2="effect1_dropShadow_2617_249089" result="shape"/>
</filter>
<filter id="filter1_d_2617_249089" x="829.502" y="175" width="289.813" height="289.813" filterUnits="userSpaceOnUse" color-interpolation-filters="sRGB">
<feFlood flood-opacity="0" result="BackgroundImageFix"/>
<feColorMatrix in="SourceAlpha" type="matrix" values="0 0 0 0 0 0 0 0 0 0 0 0 0 0 0 0 0 0 127 0" result="hardAlpha"/>
<feOffset dx="16"/>
<feGaussianBlur stdDeviation="28"/>
<feColorMatrix type="matrix" values="0 0 0 0 0.0136667 0 0 0 0 0.170833 0 0 0 0 0 0 0 0 0.5 0"/>
<feBlend mode="normal" in2="BackgroundImageFix" result="effect1_dropShadow_2617_249089"/>
<feBlend mode="normal" in="SourceGraphic" in2="effect1_dropShadow_2617_249089" result="shape"/>
</filter>
<filter id="filter2_d_2617_249089" x="741.689" y="175" width="289.813" height="289.813" filterUnits="userSpaceOnUse" color-interpolation-filters="sRGB">
<feFlood flood-opacity="0" result="BackgroundImageFix"/>
<feColorMatrix in="SourceAlpha" type="matrix" values="0 0 0 0 0 0 0 0 0 0 0 0 0 0 0 0 0 0 127 0" result="hardAlpha"/>
<feOffset dx="16"/>
<feGaussianBlur stdDeviation="28"/>
<feColorMatrix type="matrix" values="0 0 0 0 0.0136667 0 0 0 0 0.170833 0 0 0 0 0 0 0 0 0.5 0"/>
<feBlend mode="normal" in2="BackgroundImageFix" result="effect1_dropShadow_2617_249089"/>
<feBlend mode="normal" in="SourceGraphic" in2="effect1_dropShadow_2617_249089" result="shape"/>
</filter>
<filter id="filter3_d_2617_249089" x="653.875" y="175" width="289.813" height="289.813" filterUnits="userSpaceOnUse" color-interpolation-filters="sRGB">
<feFlood flood-opacity="0" result="BackgroundImageFix"/>
<feColorMatrix in="SourceAlpha" type="matrix" values="0 0 0 0 0 0 0 0 0 0 0 0 0 0 0 0 0 0 127 0" result="hardAlpha"/>
<feOffset dx="16"/>
<feGaussianBlur stdDeviation="28"/>
<feColorMatrix type="matrix" values="0 0 0 0 0.0136667 0 0 0 0 0.170833 0 0 0 0 0 0 0 0 0.5 0"/>
<feBlend mode="normal" in2="BackgroundImageFix" result="effect1_dropShadow_2617_249089"/>
<feBlend mode="normal" in="SourceGraphic" in2="effect1_dropShadow_2617_249089" result="shape"/>
</filter>
<filter id="filter4_d_2617_249089" x="566.059" y="175" width="289.813" height="289.813" filterUnits="userSpaceOnUse" color-interpolation-filters="sRGB">
<feFlood flood-opacity="0" result="BackgroundImageFix"/>
<feColorMatrix in="SourceAlpha" type="matrix" values="0 0 0 0 0 0 0 0 0 0 0 0 0 0 0 0 0 0 127 0" result="hardAlpha"/>
<feOffset dx="16"/>
<feGaussianBlur stdDeviation="28"/>
<feColorMatrix type="matrix" values="0 0 0 0 0.0136667 0 0 0 0 0.170833 0 0 0 0 0 0 0 0 0.5 0"/>
<feBlend mode="normal" in2="BackgroundImageFix" result="effect1_dropShadow_2617_249089"/>
<feBlend mode="normal" in="SourceGraphic" in2="effect1_dropShadow_2617_249089" result="shape"/>
</filter>
<filter id="filter5_d_2617_249089" x="-34" y="190" width="259.812" height="259.813" filterUnits="userSpaceOnUse" color-interpolation-filters="sRGB">
<feFlood flood-opacity="0" result="BackgroundImageFix"/>
<feColorMatrix in="SourceAlpha" type="matrix" values="0 0 0 0 0 0 0 0 0 0 0 0 0 0 0 0 0 0 127 0" result="hardAlpha"/>
<feOffset dx="-25"/>
<feGaussianBlur stdDeviation="20.5"/>
<feColorMatrix type="matrix" values="0 0 0 0 0 0 0 0 0 0 0 0 0 0 0 0 0 0 0.51 0"/>
<feBlend mode="normal" in2="BackgroundImageFix" result="effect1_dropShadow_2617_249089"/>
<feBlend mode="normal" in="SourceGraphic" in2="effect1_dropShadow_2617_249089" result="shape"/>
</filter>
<filter id="filter6_d_2617_249089" x="53.8125" y="190" width="259.812" height="259.813" filterUnits="userSpaceOnUse" color-interpolation-filters="sRGB">
<feFlood flood-opacity="0" result="BackgroundImageFix"/>
<feColorMatrix in="SourceAlpha" type="matrix" values="0 0 0 0 0 0 0 0 0 0 0 0 0 0 0 0 0 0 127 0" result="hardAlpha"/>
<feOffset dx="-25"/>
<feGaussianBlur stdDeviation="20.5"/>
<feColorMatrix type="matrix" values="0 0 0 0 0 0 0 0 0 0 0 0 0 0 0 0 0 0 0.51 0"/>
<feBlend mode="normal" in2="BackgroundImageFix" result="effect1_dropShadow_2617_249089"/>
<feBlend mode="normal" in="SourceGraphic" in2="effect1_dropShadow_2617_249089" result="shape"/>
</filter>
<filter id="filter7_d_2617_249089" x="141.625" y="190" width="259.812" height="259.813" filterUnits="userSpaceOnUse" color-interpolation-filters="sRGB">
<feFlood flood-opacity="0" result="BackgroundImageFix"/>
<feColorMatrix in="SourceAlpha" type="matrix" values="0 0 0 0 0 0 0 0 0 0 0 0 0 0 0 0 0 0 127 0" result="hardAlpha"/>
<feOffset dx="-25"/>
<feGaussianBlur stdDeviation="20.5"/>
<feColorMatrix type="matrix" values="0 0 0 0 0 0 0 0 0 0 0 0 0 0 0 0 0 0 0.51 0"/>
<feBlend mode="normal" in2="BackgroundImageFix" result="effect1_dropShadow_2617_249089"/>
<feBlend mode="normal" in="SourceGraphic" in2="effect1_dropShadow_2617_249089" result="shape"/>
</filter>
<filter id="filter8_d_2617_249089" x="229.437" y="190" width="259.812" height="259.813" filterUnits="userSpaceOnUse" color-interpolation-filters="sRGB">
<feFlood flood-opacity="0" result="BackgroundImageFix"/>
<feColorMatrix in="SourceAlpha" type="matrix" values="0 0 0 0 0 0 0 0 0 0 0 0 0 0 0 0 0 0 127 0" result="hardAlpha"/>
<feOffset dx="-25"/>
<feGaussianBlur stdDeviation="20.5"/>
<feColorMatrix type="matrix" values="0 0 0 0 0 0 0 0 0 0 0 0 0 0 0 0 0 0 0.51 0"/>
<feBlend mode="normal" in2="BackgroundImageFix" result="effect1_dropShadow_2617_249089"/>
<feBlend mode="normal" in="SourceGraphic" in2="effect1_dropShadow_2617_249089" result="shape"/>
</filter>
<filter id="filter9_d_2617_249089" x="317.25" y="190" width="259.812" height="259.813" filterUnits="userSpaceOnUse" color-interpolation-filters="sRGB">
<feFlood flood-opacity="0" result="BackgroundImageFix"/>
<feColorMatrix in="SourceAlpha" type="matrix" values="0 0 0 0 0 0 0 0 0 0 0 0 0 0 0 0 0 0 127 0" result="hardAlpha"/>
<feOffset dx="-25"/>
<feGaussianBlur stdDeviation="20.5"/>
<feColorMatrix type="matrix" values="0 0 0 0 0 0 0 0 0 0 0 0 0 0 0 0 0 0 0.51 0"/>
<feBlend mode="normal" in2="BackgroundImageFix" result="effect1_dropShadow_2617_249089"/>
<feBlend mode="normal" in="SourceGraphic" in2="effect1_dropShadow_2617_249089" result="shape"/>
</filter>
<filter id="filter10_d_2617_249089" x="405" y="115" width="356" height="356" filterUnits="userSpaceOnUse" color-interpolation-filters="sRGB">
<feFlood flood-opacity="0" result="BackgroundImageFix"/>
<feColorMatrix in="SourceAlpha" type="matrix" values="0 0 0 0 0 0 0 0 0 0 0 0 0 0 0 0 0 0 127 0" result="hardAlpha"/>
<feOffset/>
<feGaussianBlur stdDeviation="26"/>
<feColorMatrix type="matrix" values="0 0 0 0 0.0826667 0 0 0 0 0.258333 0 0 0 0 0 0 0 0 0.74 0"/>
<feBlend mode="normal" in2="BackgroundImageFix" result="effect1_dropShadow_2617_249089"/>
<feBlend mode="normal" in="SourceGraphic" in2="effect1_dropShadow_2617_249089" result="shape"/>
</filter>
</defs>
</svg>
