<svg width="17" height="12" viewBox="0 0 17 12" fill="none" xmlns="http://www.w3.org/2000/svg">
<path d="M11.5967 0.00154686C11.3882 0.00115681 11.1863 0.0707521 11.0258 0.198254C10.9355 0.27005 10.8608 0.358228 10.8061 0.457733C10.7514 0.557239 10.7177 0.666117 10.7069 0.778134C10.6961 0.890152 10.7085 1.00311 10.7433 1.11053C10.7782 1.21795 10.8347 1.31773 10.9098 1.40415L14.9058 5.98827L11.0526 10.5809C10.9785 10.6684 10.9231 10.7691 10.8897 10.8771C10.8564 10.9852 10.8456 11.0985 10.858 11.2106C10.8704 11.3226 10.9058 11.4312 10.9622 11.5301C11.0185 11.629 11.0947 11.7163 11.1864 11.7868C11.2786 11.8647 11.3867 11.9234 11.5038 11.9593C11.6209 11.9952 11.7444 12.0076 11.8667 11.9955C11.989 11.9835 12.1074 11.9473 12.2144 11.8893C12.3214 11.8313 12.4148 11.7528 12.4886 11.6586L16.7967 6.52708C16.9279 6.37404 16.9997 6.18209 16.9997 5.98399C16.9997 5.7859 16.9279 5.59394 16.7967 5.44091L12.337 0.309436C12.2475 0.205936 12.1338 0.124121 12.0052 0.0706253C11.8766 0.0171309 11.7366 -0.00653553 11.5967 0.00154686Z" fill="#6B6C77"/>
<line x1="14.5684" y1="6.05518" x2="0.99968" y2="6.05518" stroke="#6B6C77" stroke-width="2" stroke-linecap="round"/>
</svg>
