<svg width="106" height="106" viewBox="0 0 106 106" fill="none" xmlns="http://www.w3.org/2000/svg">
<g opacity="0.32">
<path d="M52.5918 14.0918L58.2194 39.0055L79.8154 25.3682L66.1781 46.9642L91.0918 52.5918L66.1781 58.2194L79.8154 79.8154L58.2194 66.1781L52.5918 91.0918L46.9642 66.1781L25.3682 79.8154L39.0055 58.2194L14.0918 52.5918L39.0055 46.9642L25.3682 25.3682L46.9642 39.0055L52.5918 14.0918Z" fill="#ED4700"/>
<path opacity="0.4" d="M42.6276 15.4036L54.5116 38.0119L71.8421 19.2498L64.2589 43.6395L89.7803 42.6272L67.172 54.5113L85.9341 71.8418L61.5444 64.2586L62.5567 89.7799L50.6727 67.1717L33.3421 85.9338L40.9253 61.544L15.404 62.5563L38.0122 50.6723L19.2502 33.3418L43.6399 40.925L42.6276 15.4036Z" fill="#ED4700"/>
<path opacity="0.32" d="M33.342 19.25L50.6725 38.0121L62.5565 15.4038L61.5442 40.9252L85.934 33.342L67.1719 50.6725L89.7801 62.5565L64.2588 61.5442L71.842 85.934L54.5115 67.1719L42.6274 89.7801L43.6397 64.2588L19.25 71.842L38.0121 54.5115L15.4038 42.6274L40.9252 43.6397L33.342 19.25Z" fill="#ED4700"/>
</g>
<path d="M63.1706 41.875L39.0967 59.6592L44.8998 67.8524L68.9737 50.0682L63.1706 41.875Z" fill="#A73303"/>
<path d="M64.4682 67.4398L62.4626 68.9214L68.2658 77.1146L70.2714 75.633L64.4682 67.4398Z" fill="#F35210"/>
<path d="M69.6505 68.283L61.6279 74.2095L63.0787 76.2578L71.1012 70.3313L69.6505 68.283Z" fill="#F35210"/>
<path d="M56.8303 58.8413C56.8303 58.8413 63.5379 61.8398 64.7951 63.6262C65.4099 64.4484 65.6802 65.486 65.547 66.5115C65.4138 67.537 64.8878 68.4667 64.0844 69.0968L56.8303 58.8413Z" fill="#F35210"/>
<path d="M56.8303 58.8413C56.8303 58.8413 57.5175 66.2897 58.7747 68.0681C59.3486 68.9196 60.2289 69.5048 61.2237 69.696C62.2184 69.8872 63.2467 69.669 64.0844 69.0889L56.8303 58.8413Z" fill="#A73303"/>
<path d="M47.8034 76.8883C53.9575 76.8883 58.9464 71.7934 58.9464 65.5084C58.9464 59.2234 53.9575 54.1284 47.8034 54.1284C41.6493 54.1284 36.6604 59.2234 36.6604 65.5084C36.6604 71.7934 41.6493 76.8883 47.8034 76.8883Z" fill="#FF8149"/>
<path d="M38.7687 72.1832C37.0377 69.7367 36.3285 66.6884 36.7971 63.7082C37.2656 60.728 38.8735 58.0597 41.2674 56.2896C42.4532 55.4132 43.7966 54.7841 45.2206 54.438C46.6445 54.092 48.1212 54.0358 49.5664 54.2728C51.0117 54.5098 52.397 55.0353 53.6433 55.8192C54.8896 56.6031 55.9727 57.6301 56.8303 58.8415C56.8303 58.8415 51.3095 55.8988 44.5316 60.899C37.7536 65.8991 38.7687 72.1832 38.7687 72.1832Z" fill="#F35210"/>
<path d="M65.8571 63.5544C72.0112 63.5544 77.0001 58.4594 77.0001 52.1744C77.0001 45.8894 72.0112 40.7944 65.8571 40.7944C59.703 40.7944 54.7141 45.8894 54.7141 52.1744C54.7141 58.4594 59.703 63.5544 65.8571 63.5544Z" fill="#FF8149"/>
<path d="M56.8303 58.8414C55.9722 57.6304 55.3562 56.2585 55.0173 54.8043C54.6785 53.35 54.6234 51.8418 54.8555 50.3659C55.0875 48.8899 55.602 47.4751 56.3696 46.2023C57.1371 44.9295 58.1429 43.8235 59.3291 42.9477C61.7241 41.1825 64.7071 40.4597 67.6233 40.9381C70.5396 41.4166 73.1508 43.0571 74.8839 45.4996C74.8839 45.4996 69.3632 42.5569 62.5931 47.5651C55.8229 52.5732 56.8303 58.8414 56.8303 58.8414Z" fill="#F35210"/>
<path d="M58.6453 31.1605L30.5537 51.9126L32.0045 53.9609L60.0961 33.2088L58.6453 31.1605Z" fill="#FE783F"/>
<path d="M60.5238 33.8566L57.0878 29L43.0322 39.3672L28.9766 49.7343L32.4125 54.591C32.6562 54.932 33.0223 55.1605 33.4307 55.2263C33.8391 55.2921 34.2563 55.1898 34.591 54.9419L36.3403 53.6579L58.4075 37.3575L60.149 36.0656C60.4834 35.8218 60.7102 35.4532 60.7804 35.0397C60.8505 34.6262 60.7584 34.2011 60.5238 33.8566V33.8566Z" fill="#FF6E33"/>
<path d="M43.1462 39.4794L29.1003 49.8555L31.2788 52.9312L45.3246 42.5551L43.1462 39.4794Z" fill="#E64300"/>
<path d="M57.1886 29.1049L43.1428 39.481L45.3213 42.5566L59.3671 32.1806L57.1886 29.1049Z" fill="#F35210"/>
<path opacity="0.1" d="M53.3537 36.6336L50.342 38.8584L52.5205 41.9341L55.5321 39.7093L53.3537 36.6336Z" fill="white"/>
<path d="M37.3039 48.491L34.2922 50.7158L36.4707 53.7915L39.4823 51.5667L37.3039 48.491Z" fill="#DD4A0D"/>
<path opacity="0.2" d="M71.6355 58.0841C73.3433 58.0841 74.7277 56.6702 74.7277 54.9261C74.7277 53.182 73.3433 51.7681 71.6355 51.7681C69.9277 51.7681 68.5432 53.182 68.5432 54.9261C68.5432 56.6702 69.9277 58.0841 71.6355 58.0841Z" fill="white"/>
<path opacity="0.2" d="M54.5813 70.6842C56.2891 70.6842 57.6735 69.2703 57.6735 67.5262C57.6735 65.7821 56.2891 64.3682 54.5813 64.3682C52.8735 64.3682 51.489 65.7821 51.489 67.5262C51.489 69.2703 52.8735 70.6842 54.5813 70.6842Z" fill="white"/>
<path d="M59.3996 36.5512L46.3599 46.1841L50.1334 51.5118L63.1732 41.8789L59.3996 36.5512Z" fill="#F35210"/>
<path d="M47.373 45.4366L35.3328 54.3311L39.1012 59.6516L51.1415 50.7572L47.373 45.4366Z" fill="#A73303"/>
<path d="M61.7196 39.8227L37.6455 57.6069L39.0963 59.6552L63.1704 41.8709L61.7196 39.8227Z" fill="#FE783F"/>
</svg>
