<svg width="106" height="106" viewBox="0 0 106 106" fill="none" xmlns="http://www.w3.org/2000/svg">
<g opacity="0.4">
<path d="M52.5918 14.0918L58.2194 39.0055L79.8154 25.3682L66.1781 46.9642L91.0918 52.5918L66.1781 58.2194L79.8154 79.8154L58.2194 66.1781L52.5918 91.0918L46.9642 66.1781L25.3682 79.8154L39.0055 58.2194L14.0918 52.5918L39.0055 46.9642L25.3682 25.3682L46.9642 39.0055L52.5918 14.0918Z" fill="#FACE09"/>
<path opacity="0.4" d="M42.6276 15.4036L54.5116 38.0119L71.8421 19.2498L64.2589 43.6395L89.7803 42.6272L67.172 54.5113L85.9341 71.8418L61.5444 64.2586L62.5567 89.7799L50.6727 67.1717L33.3421 85.9338L40.9253 61.544L15.404 62.5563L38.0122 50.6723L19.2502 33.3418L43.6399 40.925L42.6276 15.4036Z" fill="#FACE09"/>
<path opacity="0.32" d="M33.342 19.25L50.6725 38.0121L62.5565 15.4038L61.5442 40.9252L85.934 33.342L67.1719 50.6725L89.7801 62.5565L64.2588 61.5442L71.842 85.934L54.5115 67.1719L42.6274 89.7801L43.6397 64.2588L19.25 71.842L38.0121 54.5115L15.4038 42.6274L40.9252 43.6397L33.342 19.25Z" fill="#FACE09"/>
</g>
<g clip-path="url(#clip0_3860_413451)">
<mask id="mask0_3860_413451" style="mask-type:alpha" maskUnits="userSpaceOnUse" x="38" y="71" width="30" height="6">
<path d="M67.4909 74.7357C67.4909 75.9862 61.0032 76.9999 53.0003 76.9999C44.9974 76.9999 38.5098 75.9862 38.5098 74.7357L38.5098 72.0187C40.8197 71.2474 47.1899 72.4716 53.0003 72.4716C58.8108 72.4716 65.181 71.2474 67.4909 72.0187V74.7357Z" fill="#FACE09"/>
</mask>
<g mask="url(#mask0_3860_413451)">
<rect x="38.5098" y="71.5659" width="28.9811" height="16.3019" fill="#FACE09"/>
<rect x="42.1326" y="71.5659" width="4.5283" height="16.3019" fill="#FFE97A"/>
<rect x="48.4722" y="71.5659" width="9.05659" height="16.3019" fill="#FBB021"/>
<rect x="59.3401" y="71.5659" width="3.62264" height="16.3019" fill="#F7873B"/>
</g>
<ellipse cx="53.0006" cy="72.0185" rx="14.4906" ry="2.26415" fill="#FFDF53"/>
<path fill-rule="evenodd" clip-rule="evenodd" d="M36.7043 39.8678H41.6522V36.2451H36.7043C32.8136 36.2451 30.1836 40.2143 31.7002 43.7972L35.1641 51.9808C35.175 52.0065 35.186 52.0325 35.197 52.0586C35.7221 53.2996 36.4071 54.9185 37.3662 56.2208C38.37 57.5838 39.8893 58.8866 42.105 58.8866H48.4439L48.4446 55.264H42.105C41.5069 55.264 40.9382 54.9621 40.2832 54.0726C39.6037 53.1499 39.0677 51.9093 38.5002 50.5687L35.0362 42.3851C34.5307 41.1908 35.4074 39.8678 36.7043 39.8678Z" fill="#FACE09"/>
<path d="M35.1639 51.981L35.1968 52.0587V52.0587C35.722 53.2998 36.407 54.9187 37.366 56.221C38.3698 57.584 39.8891 58.8868 42.1048 58.8868H47.0067C40.9016 58.563 36.6183 54.2559 35.1639 51.981Z" fill="#F6873B"/>
<path d="M41.6521 36.2451H36.7042C32.8135 36.2451 30.1835 40.2143 31.7001 43.7972C31.6875 41.2799 33.6603 36.2451 41.6521 36.2451Z" fill="#FFE97A"/>
<path fill-rule="evenodd" clip-rule="evenodd" d="M69.296 39.8678H64.3481V36.2451H69.296C73.1866 36.2451 75.8167 40.2143 74.3001 43.7972L70.8361 51.9808C70.8252 52.0065 70.8143 52.0325 70.8032 52.0586C70.2781 53.2996 69.5931 54.9185 68.634 56.2208C67.6303 57.5838 66.1109 58.8866 63.8952 58.8866H57.5564L57.5557 55.264H63.8952C64.4933 55.264 65.062 54.9621 65.717 54.0726C66.3966 53.1499 66.9326 51.9093 67.5001 50.5687L70.964 42.3851C71.4695 41.1908 70.5928 39.8678 69.296 39.8678Z" fill="#FACE09"/>
<path d="M70.8363 51.981L70.8034 52.0587C70.2783 53.2998 69.5933 54.9187 68.6342 56.221C67.6304 57.584 66.1111 58.8868 63.8954 58.8868H58.9936C65.0986 58.563 69.382 54.2559 70.8363 51.981Z" fill="#F6873B"/>
<path d="M64.3481 36.2451H69.296C73.1867 36.2451 75.8167 40.2143 74.3002 43.7972C74.3127 41.2799 72.3399 36.2451 64.3481 36.2451Z" fill="#FFE97A"/>
<rect x="51.189" y="60.6982" width="3.62264" height="11.7736" fill="#FACE09"/>
<path opacity="0.56" d="M51.189 61.5391H54.8116V63.221C54.8116 63.221 53.9625 62.6604 53.0003 62.6604C52.038 62.6604 51.189 63.221 51.189 63.221V61.5391Z" fill="#AF4D1E"/>
<rect x="51.189" y="60.6982" width="3.62264" height="11.7736" fill="#FACE09"/>
<rect x="52.0945" y="60.6982" width="0.905661" height="11.7736" fill="#FFE97A"/>
<path opacity="0.56" d="M51.189 61.5391H54.8116V63.221C54.8116 63.221 53.9625 62.6604 53.0003 62.6604C52.038 62.6604 51.189 63.221 51.189 63.221V61.5391Z" fill="#AF4D1E"/>
<path d="M41.2266 38.9624H64.7737V46.6857C64.7737 54.2553 60.5697 61.6039 53.0001 61.6039V61.6039V61.6039C45.4306 61.6039 41.2266 54.2553 41.2266 46.6857V38.9624Z" fill="#FACE09"/>
<path d="M50.2831 59.7925C43.0378 56.1699 43.0378 47.1133 43.0378 42.585H46.6605C46.6605 48.4717 45.7548 53.4529 50.2831 59.7925Z" fill="#FFE97A"/>
<path d="M55.7171 59.7925C62.9624 56.1699 62.9624 47.1133 62.9624 42.585H59.3398C59.3398 48.4717 60.2454 53.4529 55.7171 59.7925Z" fill="#F7873B"/>
<rect x="39.4153" y="34.4341" width="27.1698" height="8.15094" fill="#FACE09"/>
<rect x="43.0378" y="34.4341" width="3.62264" height="8.15094" fill="#FFE97A"/>
<rect x="48.4719" y="34.4341" width="9.0566" height="8.15094" fill="#FBB021"/>
<path d="M48.4719 42.585H57.5285V48.3599C57.5285 51.565 56.5474 54.6934 54.7171 57.3245L53.0002 59.7925L51.2834 57.3245C49.453 54.6934 48.4719 51.565 48.4719 48.3599V42.585Z" fill="#FBB021"/>
<rect x="59.3396" y="34.4341" width="3.62264" height="8.15094" fill="#F7873B"/>
<path d="M38.5095 30.8113C38.5095 30.8113 47.1133 29 53.4529 29C59.7925 29 67.4906 30.8113 67.4906 30.8113V34.434H38.5095V30.8113Z" fill="#FACE09"/>
<path opacity="0.56" d="M39.4153 34.4341H66.5851V37.1511C66.5851 37.1511 60.2172 36.2454 53.0002 36.2454C45.7832 36.2454 39.4153 37.1511 39.4153 37.1511V34.4341Z" fill="#AF4D1E"/>
<path opacity="0.56" d="M41.2266 42.585H64.7737V44.3963C64.7737 44.3963 59.2548 43.7925 53.0001 43.7925C46.7454 43.7925 41.2266 44.3963 41.2266 44.3963V42.585Z" fill="#AF4D1E"/>
<path d="M42.1323 30.1348L46.6606 29.4805V34.4338H42.1323V30.1348Z" fill="#FFE97A"/>
<path d="M48.4719 29.2691C48.4719 29.2691 51.6417 29.0059 53.0002 29.0059C54.3587 29.0059 57.5285 29.2274 57.5285 29.2274V34.4341H48.4719V29.2691Z" fill="#FBB021"/>
<path d="M59.3398 29.3999L62.9625 29.9175V34.4341H59.3398L59.3398 29.3999Z" fill="#F7873B"/>
<ellipse cx="46.6606" cy="71.5658" rx="2.71698" ry="0.905661" fill="#FFE97A"/>
<ellipse cx="45.3021" cy="71.113" rx="1.35849" ry="0.452829" fill="#FFF4BE"/>
<circle opacity="0.2" cx="47.5661" cy="38.9621" r="2.71698" fill="#FFF4BE"/>
<circle opacity="0.45" cx="44.8493" cy="51.6413" r="2.71698" fill="#FFF4BE"/>
<ellipse opacity="0.2" cx="72.019" cy="37.1511" rx="2.71698" ry="2.71698" fill="#FFF4BE"/>
<ellipse opacity="0.2" cx="34.4342" cy="38.5094" rx="1.35849" ry="1.35849" fill="#FFF4BE"/>
<ellipse opacity="0.2" cx="42.1321" cy="32.6228" rx="1.81132" ry="1.81132" fill="#FFF4BE"/>
<path d="M46.1754 46.1004L46.856 51.9575L52.6724 52.9254L46.8154 53.606L45.8475 59.4224L45.1669 53.5654L39.3505 52.5975L45.2075 51.9169L46.1754 46.1004Z" fill="white" fill-opacity="0.84"/>
<path opacity="0.2" d="M49.2279 52.8405C49.1842 54.6169 47.7087 56.0215 45.9323 55.9777C44.156 55.934 42.7514 54.4586 42.7951 52.6822C42.8388 50.9058 44.3143 49.5013 46.0907 49.545C47.867 49.5887 49.2716 51.0642 49.2279 52.8405Z" fill="white"/>
</g>
<defs>
<clipPath id="clip0_3860_413451">
<rect width="48" height="48" fill="white" transform="translate(29 29)"/>
</clipPath>
</defs>
</svg>
