<svg width="106" height="106" viewBox="0 0 106 106" fill="none" xmlns="http://www.w3.org/2000/svg">
<g opacity="0.32">
<path d="M52.5918 14.0918L58.2194 39.0055L79.8154 25.3682L66.1781 46.9642L91.0918 52.5918L66.1781 58.2194L79.8154 79.8154L58.2194 66.1781L52.5918 91.0918L46.9642 66.1781L25.3682 79.8154L39.0055 58.2194L14.0918 52.5918L39.0055 46.9642L25.3682 25.3682L46.9642 39.0055L52.5918 14.0918Z" fill="#9DA0BF"/>
<path opacity="0.4" d="M42.6276 15.4036L54.5116 38.0119L71.8421 19.2498L64.2589 43.6395L89.7803 42.6272L67.172 54.5113L85.9341 71.8418L61.5444 64.2586L62.5567 89.7799L50.6727 67.1717L33.3421 85.9338L40.9253 61.544L15.404 62.5563L38.0122 50.6723L19.2502 33.3418L43.6399 40.925L42.6276 15.4036Z" fill="#9DA0BF"/>
<path opacity="0.32" d="M33.342 19.25L50.6725 38.0121L62.5565 15.4038L61.5442 40.9252L85.934 33.342L67.1719 50.6725L89.7801 62.5565L64.2588 61.5442L71.842 85.934L54.5115 67.1719L42.6274 89.7801L43.6397 64.2588L19.25 71.842L38.0121 54.5115L15.4038 42.6274L40.9252 43.6397L33.342 19.25Z" fill="#9DA0BF"/>
</g>
<g clip-path="url(#clip0_3860_412784)">
<path d="M53.0326 76.7881H34.1987L39.9938 68.0955L47.2376 52.1592H58.8276L66.0714 68.0955L71.8665 76.7881H53.0326Z" fill="#C5C6D4"/>
<rect width="40.5652" height="2.89752" transform="matrix(-1 0 0 1 73.3152 70.9932)" fill="#C5C6D4"/>
<path d="M32.75 71.9591V76.7883H53.0326H73.3152V71.9591C73.3152 69.8254 71.5856 68.0957 69.4519 68.0957H68.969H37.0963H36.6134C34.4797 68.0957 32.75 69.8254 32.75 71.9591Z" fill="#BDBECC"/>
<rect width="20.2826" height="4.34628" transform="matrix(-1 0 0 1 73.3152 72.4419)" fill="#80818E"/>
<rect width="20.2826" height="4.34628" transform="matrix(-1 0 0 1 53.0325 72.4419)" fill="#9E9FAD"/>
<rect x="41.4426" y="68.0957" width="4.34628" height="4.34628" fill="#DDDDDF"/>
<path d="M50.1351 52.1592H53.0326L47.2376 65.198H44.3401L50.1351 52.1592Z" fill="#DDDDDF"/>
<path d="M55.9301 52.1592H53.0325L58.8276 65.198H61.7251L55.9301 52.1592Z" fill="#9E9FAD"/>
<rect x="64.6228" y="68.0957" width="4.34628" height="4.34628" fill="#9E9FAD"/>
<ellipse cx="53.0326" cy="37.6716" rx="8.69255" ry="8.69255" fill="#CCCDDB"/>
<path d="M61.7252 37.6714C61.7252 42.4722 57.8334 46.3639 53.0326 46.3639C48.2319 46.3639 44.3401 42.4722 44.3401 37.6714C44.3401 37.6714 46.5132 42.0178 53.0326 42.0177C59.5521 42.0177 61.7252 37.6714 61.7252 37.6714Z" fill="#9E9FAD"/>
<circle cx="49.4107" cy="34.0496" r="2.17314" fill="#DDDDDF"/>
<path d="M61.7253 44.9155H44.3402L41.4427 49.2618H64.6228L61.7253 44.9155Z" fill="#BDBECC"/>
<path d="M47.2378 44.9155H50.1354L47.2378 49.2618H44.3403L47.2378 44.9155Z" fill="#DDDDDF"/>
<path d="M58.8278 44.9155H55.9303L58.8278 49.2618H61.7253L58.8278 44.9155Z" fill="#9E9FAD"/>
<path d="M61.7253 52.1592L44.3402 52.1592L41.4427 49.2617L64.6228 49.2617L61.7253 52.1592Z" fill="#80818E"/>
<rect width="17.3851" height="2.89752" transform="matrix(1 0 0 -1 37.0964 68.0957)" fill="#9E9FAD"/>
<rect width="15.9363" height="2.89751" transform="matrix(1 0 0 -1 53.0327 68.0957)" fill="#80818E"/>
</g>
<defs>
<clipPath id="clip0_3860_412784">
<rect width="48" height="48" fill="white" transform="translate(29 29)"/>
</clipPath>
</defs>
</svg>
