<svg width="19" height="19" viewBox="0 0 19 19" fill="none" xmlns="http://www.w3.org/2000/svg">
<path d="M5.22536 6.40675C5.55501 6.04385 6.09461 5.69995 6.88786 5.69995C7.98226 5.69995 8.68716 6.45235 8.93511 7.2779C9.17546 8.08255 9.03011 9.07815 8.34611 9.765C8.10888 9.99307 7.85724 10.2057 7.59276 10.4015L7.55476 10.431C7.28876 10.6362 7.05126 10.8224 6.84226 11.0295C6.60001 11.2727 6.40146 11.5377 6.28651 11.875H8.31286C8.50183 11.875 8.68306 11.95 8.81668 12.0836C8.9503 12.2173 9.02536 12.3985 9.02536 12.5875C9.02536 12.7764 8.9503 12.9576 8.81668 13.0913C8.68306 13.2249 8.50183 13.3 8.31286 13.3H5.46286C5.2739 13.3 5.09267 13.2249 4.95905 13.0913C4.82543 12.9576 4.75036 12.7764 4.75036 12.5875C4.75036 11.4028 5.24816 10.6086 5.83716 10.0215C6.11836 9.7403 6.42426 9.50375 6.68266 9.3033L6.68551 9.3014C6.95721 9.09145 7.16811 8.92805 7.33626 8.7599C7.59466 8.4996 7.68491 8.07115 7.56996 7.6864C7.46071 7.32445 7.21846 7.12495 6.88786 7.12495C6.55251 7.12495 6.37961 7.2551 6.27986 7.3653C6.2215 7.42971 6.17401 7.50319 6.13926 7.58285V7.5857C6.08106 7.7656 5.95378 7.915 5.78542 8.00106C5.61706 8.08711 5.42141 8.10275 5.24151 8.04455C5.06162 7.98635 4.91221 7.85907 4.82616 7.69071C4.74011 7.52235 4.72446 7.3267 4.78266 7.1468L4.81591 7.0556C4.91352 6.81732 5.05174 6.59778 5.22441 6.40675H5.22536Z" fill="#484B5C"/>
<path d="M10.6876 5.69995C10.8766 5.69995 11.0578 5.77502 11.1914 5.90864C11.325 6.04226 11.4001 6.22348 11.4001 6.41245V9.02495H12.8251V6.41245C12.8251 6.22348 12.9002 6.04226 13.0338 5.90864C13.1674 5.77502 13.3486 5.69995 13.5376 5.69995C13.7266 5.69995 13.9078 5.77502 14.0414 5.90864C14.175 6.04226 14.2501 6.22348 14.2501 6.41245V12.559C14.2501 12.7479 14.175 12.9291 14.0414 13.0628C13.9078 13.1964 13.7266 13.2715 13.5376 13.2715C13.3486 13.2715 13.1674 13.1964 13.0338 13.0628C12.9002 12.9291 12.8251 12.7479 12.8251 12.559V10.45H10.6876C10.4986 10.45 10.3174 10.3749 10.1838 10.2413C10.0502 10.1076 9.9751 9.92642 9.9751 9.73745V6.41245C9.9751 6.22348 10.0502 6.04226 10.1838 5.90864C10.3174 5.77502 10.4986 5.69995 10.6876 5.69995Z" fill="#484B5C"/>
<path fill-rule="evenodd" clip-rule="evenodd" d="M9.5 17.5C13.9183 17.5 17.5 13.9183 17.5 9.5C17.5 5.08172 13.9183 1.5 9.5 1.5C5.08172 1.5 1.5 5.08172 1.5 9.5C1.5 13.9183 5.08172 17.5 9.5 17.5ZM9.5 19C14.7467 19 19 14.7467 19 9.5C19 4.25329 14.7467 0 9.5 0C4.25329 0 0 4.25329 0 9.5C0 14.7467 4.25329 19 9.5 19Z" fill="#484B5C"/>
</svg>
