<svg width="20" height="20" viewBox="0 0 20 20" fill="none" xmlns="http://www.w3.org/2000/svg">
<path fill-rule="evenodd" clip-rule="evenodd" d="M18.9943 7.87237L18.1504 17.5352L18.1508 17.5353C18.0737 18.4179 17.2958 19.0709 16.4133 18.9938L16.4129 18.9938L6.92238 18.1616L6.92241 18.1611C6.0401 18.0838 5.38745 17.3059 5.46452 16.4234L5.52673 15.706L13.2848 15.0261L13.2848 15.0253C14.7553 14.8964 15.843 13.5999 15.7146 12.1291L15.1737 5.92713L17.536 6.13417L17.5359 6.13461C18.4182 6.21194 19.0709 6.98987 18.9938 7.87233L18.9943 7.87237ZM13.6909 2.46624L14.5254 12.1263C14.6016 13.0083 13.9491 13.7853 13.0674 13.8626L3.57868 14.6942C2.6962 14.7715 1.91812 14.1187 1.84079 13.2361L1.84061 13.2342L1.00605 3.57407C0.929853 2.69212 1.58234 1.91512 2.46407 1.83784L11.9528 1.00622C12.8353 0.928878 13.6134 1.58168 13.6907 2.4643L13.6909 2.46624ZM4.41726 5.97177C5.00495 5.92026 5.43968 5.40124 5.38827 4.81251C5.33685 4.22378 4.81876 3.78828 4.23107 3.83979C3.64338 3.89129 3.20863 4.41031 3.26005 4.99904C3.31147 5.58777 3.82957 6.02327 4.41726 5.97177ZM7.86551 8.90476C8.45321 8.85325 8.88794 8.33423 8.83652 7.7455C8.7851 7.15677 8.267 6.72127 7.67931 6.77278C7.09162 6.82428 6.65689 7.3433 6.7083 7.93203C6.75972 8.52076 7.27782 8.95626 7.86551 8.90476ZM11.3138 11.8377C11.9014 11.7862 12.3362 11.2672 12.2848 10.6785C12.2334 10.0898 11.7153 9.65426 11.1276 9.70576C10.5399 9.75727 10.1051 10.2763 10.1565 10.865C10.208 11.4537 10.7261 11.8893 11.3138 11.8377Z" fill="#0085FF"/>
</svg>
