<svg width="32" height="32" viewBox="0 0 32 32" fill="none" xmlns="http://www.w3.org/2000/svg">
<g clip-path="url(#clip0_3678_23729)">
<path d="M11.2437 6.20288C11.2231 6.19379 11.2033 6.1833 11.1841 6.17151C10.8595 5.99931 10.5346 5.82687 10.2095 5.65417C10.2908 5.67178 10.3692 5.70065 10.4425 5.73996L11.4767 6.28866C11.4029 6.25034 11.3246 6.22152 11.2437 6.20288V6.20288Z" fill="#FE3030"/>
<path d="M12.7991 5.46968L12.3516 5.22908L11.7686 4.9179C11.8039 4.87286 11.8487 4.83618 11.8997 4.8105L12.0206 4.8755L12.1487 4.94329L12.2815 5.01359L12.4168 5.08553L12.5521 5.15747L12.6848 5.22778L12.8129 5.29557L12.9338 5.36057C12.8808 5.38566 12.8346 5.42307 12.7991 5.46968V5.46968Z" fill="#FE3030"/>
<path d="M12.9286 5.3622L11.8945 4.81213L12.0154 4.87713L12.1435 4.94492L12.2763 5.01523L12.4116 5.08717L12.5469 5.15911L12.6796 5.22942L12.8077 5.2972L12.9286 5.3622V5.3622Z" fill="#FE3030"/>
<path d="M13.5816 4.3803L12.5512 3.82852C12.3299 3.70753 12.1627 3.50724 12.0832 3.26794L13.1189 3.81542C13.1962 4.05544 13.3615 4.25726 13.5816 4.3803V4.3803Z" fill="#FE3030"/>
<path d="M11.7573 5.375L11.8494 5.42476L11.9423 5.47389L12.0397 5.52555L12.1397 5.57884L12.241 5.63227L12.343 5.68645L12.4436 5.74049L12.543 5.79303L11.7579 5.37575L11.7573 5.375Z" fill="#FE3030"/>
<path d="M12.7915 5.92375C12.8054 5.93776 12.8214 5.94957 12.8389 5.95874L11.8049 5.40867C11.7875 5.39974 11.7715 5.38841 11.7573 5.37504C12.1025 5.55798 12.447 5.74109 12.7907 5.92436C12.4466 5.74059 12.1021 5.55749 11.7573 5.37504C11.6472 5.27119 11.6503 5.0671 11.7623 4.92271L12.7965 5.47142C12.6837 5.61643 12.6831 5.82351 12.7915 5.92375Z" fill="#FE3030"/>
<path d="M13.1583 5.35681C13.1223 5.33942 13.0827 5.33085 13.0428 5.33178C13.0028 5.33272 12.9637 5.34315 12.9286 5.36221L11.8945 4.81213C11.9298 4.79339 11.9689 4.78325 12.0088 4.78255C12.0487 4.78185 12.0882 4.79061 12.1241 4.80811L13.1583 5.35681Z" fill="#FE3030"/>
<path d="M10.4401 5.74189L11.4743 6.29059C11.905 6.51989 12.12 7.07872 11.9715 7.69365L10.9373 7.14495C11.0895 6.52694 10.8753 5.9675 10.4401 5.74189Z" fill="#F67067"/>
<path d="M12.1243 4.80799L13.1585 5.3567C13.1753 5.36637 13.191 5.37785 13.2053 5.39094C13.3147 5.4954 13.3124 5.69888 13.2003 5.84327C13.1655 5.88868 13.1206 5.92544 13.0692 5.95067C13.0341 5.96944 12.9951 5.97965 12.9553 5.98048C12.9155 5.98131 12.8761 5.97273 12.8403 5.95545L11.8062 5.40538C11.8418 5.42318 11.8811 5.4321 11.9208 5.43137C11.9606 5.43065 11.9995 5.4203 12.0344 5.40122C12.0858 5.37602 12.1307 5.33925 12.1655 5.29381C12.2798 5.14758 12.2848 4.94574 12.1705 4.84149C12.1567 4.82826 12.1412 4.81699 12.1243 4.80799V4.80799Z" fill="#FFFCED"/>
<path d="M11.8945 4.81194C11.9374 4.78854 11.9864 4.7786 12.035 4.78344C12.0836 4.78827 12.1296 4.80764 12.1671 4.83903C12.2765 4.94349 12.2734 5.14758 12.1621 5.29136C12.1272 5.3368 12.0824 5.37356 12.031 5.39876C11.9883 5.42298 11.9392 5.43338 11.8904 5.42853C11.8415 5.42368 11.7954 5.40381 11.7584 5.37167C11.6483 5.26783 11.6513 5.06374 11.7634 4.91935C11.7986 4.87431 11.8434 4.83763 11.8945 4.81194Z" fill="#FFFCED"/>
<path d="M10.9389 7.1424L11.9731 7.69111L11.3793 10.1281L10.3459 9.57883L10.9389 7.1424Z" fill="#F67067"/>
<path d="M13.5812 4.38039L12.5508 3.82861C12.7028 3.90398 12.8707 3.94174 13.0403 3.93872C13.2099 3.93569 13.3764 3.89198 13.5256 3.81124L14.5635 4.35688C14.4139 4.43999 14.2464 4.48555 14.0753 4.48964C13.9042 4.49374 13.7346 4.45625 13.5812 4.38039V4.38039Z" fill="#F67067"/>
<path d="M10.346 9.57872L11.3795 10.128C11.3226 10.3691 11.2145 10.595 11.0625 10.7906C10.9106 10.9861 10.7183 11.1467 10.4988 11.2614C10.3481 11.3368 10.1832 11.3797 10.0149 11.3874L8.98146 10.8381C9.15009 10.8301 9.31519 10.787 9.46614 10.7114C9.6854 10.5967 9.87744 10.4362 10.0293 10.2408C10.1811 10.0453 10.2891 9.81954 10.346 9.57872Z" fill="#F67067"/>
<path d="M10.3506 11.146L10.4419 11.1964L10.5355 11.2449L10.6335 11.2973L10.7329 11.3498L10.8349 11.404L10.9355 11.4581L11.0369 11.5115L11.1362 11.564L10.3518 11.1475L10.3506 11.146Z" fill="#FE3030"/>
<path d="M11.1745 12.1276C11.1815 12.162 11.1958 12.1946 11.2165 12.223C11.2372 12.2515 11.2637 12.2751 11.2944 12.2923L10.2602 11.7436C10.2296 11.7264 10.203 11.7027 10.1823 11.6743C10.1616 11.6459 10.1473 11.6133 10.1403 11.5789L11.1745 12.1276L10.1403 11.5789C10.1245 11.4938 10.1364 11.4058 10.1742 11.3279C10.2121 11.2501 10.2739 11.1864 10.3505 11.1462C10.6939 11.329 11.0384 11.5121 11.384 11.6956C11.0398 11.5118 10.6953 11.3287 10.3505 11.1462C10.3854 11.1272 10.4244 11.1169 10.4641 11.1162C10.5039 11.1155 10.5432 11.1244 10.5788 11.1421L11.6129 11.6908C11.5772 11.673 11.5378 11.6641 11.4979 11.6649C11.458 11.6657 11.4189 11.6763 11.384 11.6956C11.3073 11.7356 11.2456 11.7992 11.2079 11.877C11.1701 11.9548 11.1585 12.0426 11.1745 12.1276Z" fill="#FE3030"/>
<path d="M10.5787 11.1421L11.6129 11.6908C11.6435 11.7078 11.67 11.7313 11.6906 11.7596C11.7112 11.7879 11.7254 11.8204 11.7322 11.8547C11.7485 11.9399 11.7369 12.0281 11.6993 12.1063C11.6617 12.1844 11.5999 12.2484 11.5232 12.2889C11.4881 12.3076 11.449 12.3177 11.4092 12.3183C11.3694 12.3189 11.33 12.31 11.2944 12.2923L10.2602 11.7436C10.2959 11.7612 10.3354 11.77 10.3753 11.7692C10.4151 11.7684 10.4542 11.7579 10.4891 11.7388C10.566 11.6986 10.6278 11.6348 10.6656 11.5567C10.7033 11.4787 10.715 11.3906 10.6988 11.3054C10.6916 11.2712 10.6771 11.2389 10.6564 11.2108C10.6357 11.1826 10.6092 11.1592 10.5787 11.1421Z" fill="#FFFCED"/>
<path d="M10.3507 11.1461C10.3832 11.1272 10.4196 11.1164 10.4571 11.1146C10.4946 11.1127 10.5319 11.1199 10.5661 11.1355C10.6002 11.1511 10.6301 11.1746 10.6532 11.2042C10.6763 11.2337 10.692 11.2684 10.699 11.3053C10.7152 11.3904 10.7035 11.4786 10.6658 11.5566C10.628 11.6346 10.5662 11.6985 10.4894 11.7386C10.4569 11.7577 10.4203 11.7686 10.3827 11.7704C10.3451 11.7723 10.3076 11.7651 10.2734 11.7494C10.2391 11.7337 10.2092 11.71 10.1861 11.6803C10.1629 11.6506 10.1473 11.6158 10.1405 11.5787C10.1245 11.4936 10.1363 11.4056 10.1742 11.3277C10.212 11.2498 10.2739 11.1861 10.3507 11.1461V11.1461Z" fill="#FFFCED"/>
<path d="M15.618 2.78582L16.6522 3.33452L14.5601 4.35986L13.5259 3.81116L15.618 2.78582Z" fill="#F67067"/>
<path d="M16.544 1.19587L17.5782 1.74458C17.5876 2.06964 17.506 2.39087 17.3425 2.67196C17.1789 2.95306 16.94 3.1828 16.6528 3.33524L15.6217 2.79027C15.9094 2.63767 16.1484 2.40727 16.3115 2.12535C16.4746 1.84344 16.5551 1.52136 16.544 1.19587V1.19587Z" fill="#F67067"/>
<path d="M14.0096 7.02424L15.043 7.57356C15.0065 7.5926 14.9762 7.62158 14.9555 7.65716C14.9348 7.69273 14.9246 7.73345 14.926 7.77459L13.8918 7.22588C13.8906 7.1846 13.9009 7.1438 13.9217 7.10814C13.9426 7.07247 13.973 7.0434 14.0096 7.02424V7.02424Z" fill="#FFFCED"/>
<path d="M11.0778 13.7027C10.9317 13.7746 10.7981 13.8696 10.6823 13.9841L9.64814 13.4354C9.76411 13.3212 9.89736 13.226 10.043 13.1533C10.3872 13.337 10.7316 13.5201 11.0764 13.7026L10.828 13.5705L10.0436 13.154C10.1927 13.0735 10.3589 13.0297 10.5284 13.0263C10.6979 13.0229 10.8657 13.06 11.0179 13.1345L12.0521 13.6832C11.8999 13.6087 11.732 13.5716 11.5626 13.575C11.3931 13.5784 11.2269 13.6222 11.0778 13.7027Z" fill="#FE3030"/>
<path d="M11.0151 13.1371L12.0493 13.6858C12.1225 13.7254 12.1902 13.7742 12.251 13.8311L11.218 13.2839C11.1573 13.2261 11.089 13.1767 11.0151 13.1371V13.1371Z" fill="#F67067"/>
<path d="M18.1624 2.96233L17.6454 2.68729C17.4728 2.59582 17.3009 2.50509 17.129 2.41301C17.1421 2.35637 17.1674 2.30327 17.2031 2.25739C17.2388 2.2115 17.2841 2.17392 17.3357 2.14726L17.456 2.21151L17.5194 2.24466L17.6502 2.31408L17.7841 2.38588L17.9202 2.45721L17.9874 2.49349L18.0541 2.52902L18.1848 2.59844L18.3096 2.66521C18.3313 2.67168 18.3516 2.68234 18.3692 2.69658C18.3175 2.72324 18.2722 2.76082 18.2366 2.80671C18.2009 2.85259 18.1756 2.90569 18.1624 2.96233V2.96233Z" fill="#FE3030"/>
<path d="M18.3699 2.69739C18.0252 2.51403 17.6807 2.33093 17.3364 2.14807L17.4567 2.21232L17.5848 2.28011L17.7175 2.35042L17.8528 2.42236L17.9881 2.4943L18.1209 2.5646L18.249 2.63239L18.3699 2.69739Z" fill="#FE3030"/>
<path d="M18.5196 2.66938C18.3922 2.60098 18.2647 2.53394 18.1379 2.46629C17.9194 2.35236 17.7002 2.23768 17.4873 2.12292C17.5173 2.11214 17.5272 2.14409 17.5468 2.1543L17.6716 2.22107L17.7371 2.2551L17.8698 2.3254L18.0051 2.39735L18.0724 2.43362L18.207 2.50481L18.3378 2.57424L18.4005 2.608L18.5196 2.66938Z" fill="#FE3030"/>
<path d="M18.5198 2.66961C18.4682 2.66439 18.4163 2.6743 18.3703 2.69812C18.0257 2.51477 17.6812 2.33166 17.3369 2.1488C17.3825 2.12514 17.4339 2.11519 17.485 2.12016V2.12016L17.606 2.1838L17.6687 2.21756L17.7994 2.28698L17.8668 2.32189L18.5167 2.66587L18.5198 2.66961Z" fill="#FE3030"/>
<path d="M18.1627 2.96242C18.1425 3.02258 18.1431 3.08773 18.1642 3.14755C18.1853 3.20738 18.2258 3.25843 18.2792 3.29263L17.2479 2.74283C17.1952 2.70781 17.1554 2.65655 17.1345 2.59684C17.1136 2.53714 17.1127 2.47224 17.1321 2.41201C17.439 2.57876 17.8528 2.79812 18.1627 2.96242Z" fill="#FE3030"/>
<path d="M18.6003 2.6926C18.5752 2.6792 18.5477 2.67108 18.5194 2.66873L17.4868 2.11743C17.5153 2.1203 17.543 2.12865 17.5683 2.14205L18.6003 2.6926Z" fill="#FE3030"/>
<path d="M12.6193 12.3751C12.9436 13.1712 13.5333 13.8306 14.2885 14.2414L13.2551 13.6921C12.4993 13.2821 11.9093 12.6224 11.5859 11.8257L11.7067 11.8907L11.8349 11.9585L11.9676 12.0288L12.1029 12.1008L12.1709 12.1364L12.3049 12.2082L12.3709 12.243L12.4356 12.2777L12.499 12.3108C12.5421 12.3261 12.5826 12.3478 12.6193 12.3751V12.3751Z" fill="#FE3030"/>
<path d="M12.3768 11.6205C12.436 11.8784 12.5171 12.1307 12.6191 12.3748C12.2748 12.1919 11.9303 12.0088 11.5856 11.8255C11.4836 11.5814 11.4026 11.329 11.3433 11.0712C10.7285 8.45627 12.2329 5.34584 14.6974 4.13935C16.0061 3.49793 17.3228 3.52347 18.3684 4.07537L19.4026 4.62408C18.36 4.06972 17.0395 4.04725 15.7309 4.68867C13.2626 5.89822 11.7582 9.00866 12.3768 11.6205Z" fill="#FE3030"/>
<path d="M18.2733 4.24863L19.3068 4.79795C18.3021 4.26387 17.0284 4.24191 15.7668 4.85979C13.3897 6.02473 11.939 9.02352 12.532 11.5461C12.8102 12.7292 13.4896 13.5999 14.3773 14.0721L13.3438 13.5228C12.4562 13.0506 11.7755 12.1784 11.4979 10.9974C10.9067 8.47706 12.3564 5.47405 14.7326 4.31109C15.9942 3.69321 17.2679 3.71517 18.2733 4.24863Z" fill="#C62525"/>
<path d="M17.8229 4.62759C17.7161 4.62248 17.6074 4.62132 17.4983 4.62561C17.1541 4.44185 16.8096 4.25874 16.4648 4.07629C16.574 4.072 16.682 4.07241 16.7887 4.07888L16.8613 4.11706L16.9377 4.15838L17.0169 4.19996L17.0986 4.24318L17.179 4.28627L17.2587 4.3286L17.3359 4.3693L17.4071 4.40735L17.4561 4.43355L17.5071 4.46064L17.5607 4.48936L17.615 4.51747L17.6692 4.54694L17.7229 4.5743L17.7745 4.60214L17.8229 4.62759Z" fill="#FE3030"/>
<path d="M15.7297 6.18074L16.7632 6.73006L15.0422 7.57276L14.0088 7.02344L15.7297 6.18074Z" fill="#FFFCED"/>
<path d="M17.566 2.14381L18.6002 2.69251C18.6529 2.72739 18.6927 2.7785 18.7138 2.83809C18.7348 2.89768 18.7358 2.9625 18.7167 3.02272C18.703 3.07929 18.6774 3.13229 18.6416 3.17821C18.6058 3.22413 18.5607 3.26192 18.5092 3.28908C18.4633 3.31209 18.4118 3.32175 18.3606 3.31697C18.3323 3.31436 18.3048 3.30625 18.2797 3.29311L17.2477 2.74256C17.273 2.75534 17.3005 2.76343 17.3286 2.76643C17.3798 2.771 17.4313 2.76135 17.4773 2.73853C17.5288 2.71137 17.5739 2.67358 17.6097 2.62766C17.6454 2.58174 17.671 2.52874 17.6848 2.47217C17.7042 2.41202 17.7031 2.3471 17.6816 2.28764C17.6601 2.22819 17.6194 2.17758 17.566 2.14381V2.14381Z" fill="#FFFCED"/>
<path d="M15.2861 7.69758L16.3195 8.2469C16.2832 8.26611 16.2529 8.29513 16.2323 8.33067C16.2116 8.3662 16.2013 8.40682 16.2025 8.44792L15.1691 7.8986C15.1678 7.8575 15.1781 7.81688 15.1988 7.78135C15.2195 7.74581 15.2497 7.71679 15.2861 7.69758V7.69758Z" fill="#FE3030"/>
<path d="M17.8228 4.62769C17.8142 4.62442 17.8061 4.62015 17.7986 4.61496L17.6966 4.56078L17.6423 4.53267L17.6149 4.51756L17.407 4.40744L16.7886 4.07898C16.9464 4.0868 17.1034 4.10631 17.2583 4.13735L17.3793 4.20099L17.5074 4.26878L17.6402 4.33909L17.7755 4.41103L17.9108 4.48297L18.0435 4.55327L18.1709 4.62168L18.2925 4.68606C18.1374 4.65605 17.9805 4.63655 17.8228 4.62769V4.62769Z" fill="#FE3030"/>
<path d="M18.4828 4.72807C18.4197 4.71216 18.3564 4.69762 18.2929 4.6858C17.9461 4.50086 17.6024 4.31714 17.2617 4.13464C17.3252 4.14646 17.3868 4.15739 17.4516 4.17691L17.5437 4.22666L17.6373 4.27519L17.7373 4.32848L17.8386 4.38191L17.9406 4.43608L18.0406 4.48938L18.1342 4.5379L18.2263 4.58766L18.257 4.60378L18.2884 4.62067L18.3217 4.63843L18.355 4.65619L18.3891 4.67334L18.4224 4.69111L18.4538 4.70799L18.4828 4.72807Z" fill="#FE3030"/>
<path d="M15.8093 7.44393L16.8428 7.99325L16.3212 8.24904L15.2871 7.69897L15.8093 7.44393Z" fill="#FE3030"/>
<path d="M15.1709 7.90044L16.2043 8.44976L16.2569 9.31315L15.2227 8.76444L15.1709 7.90044Z" fill="#FE3030"/>
<path d="M16.324 9.42884L15.2906 8.87952C15.2703 8.86799 15.2533 8.85132 15.2414 8.83118C15.2295 8.81104 15.2231 8.78813 15.2229 8.76474L16.2577 9.3142C16.2577 9.33745 16.2639 9.36027 16.2755 9.38039C16.2872 9.40051 16.3039 9.41722 16.324 9.42884V9.42884Z" fill="#FE3030"/>
<path d="M16.1796 7.41111L17.2138 7.95982C17.1195 7.91191 16.9934 7.92003 16.8436 7.99392L15.8096 7.44385C15.9592 7.37132 16.0836 7.35959 16.1796 7.41111Z" fill="#FE3030"/>
<path d="M16.4463 9.42602C16.4275 9.43621 16.4066 9.4418 16.3852 9.44231C16.3639 9.44282 16.3427 9.43824 16.3235 9.42896L15.29 8.87964C15.3092 8.88908 15.3304 8.89374 15.3518 8.89323C15.3732 8.89272 15.3941 8.88705 15.4128 8.8767L16.4463 9.42602Z" fill="#FFFCED"/>
<path d="M17.2134 7.95983C17.2189 7.96658 17.2297 7.96902 17.2367 7.97454L16.2018 7.42644C16.1963 7.4197 16.1863 7.41664 16.1777 7.41235L17.2134 7.95983Z" fill="#FFFCED"/>
<path d="M18.009 6.68721C17.6392 6.48942 17.2244 6.50372 16.7647 6.7301L15.7305 6.1814C16.1901 5.95592 16.6049 5.94117 16.975 6.13714L18.009 6.68721Z" fill="#FFFCED"/>
<path d="M16.9751 6.13733L18.0085 6.68665C18.0148 6.68961 18.0209 6.69297 18.0268 6.69672L16.9928 6.14665C16.9868 6.144 16.9816 6.14073 16.9751 6.13733Z" fill="#FE3030"/>
<path d="M15.929 8.62286L16.963 9.17293L16.4465 9.42579L15.4131 8.87646L15.929 8.62286Z" fill="#FFFCED"/>
<path d="M17.2384 7.97614C17.3442 8.03965 17.4024 8.16104 17.412 8.34093L17.291 8.27729L17.1629 8.20951L17.0295 8.13845L16.8942 8.06651L16.6262 7.92426C16.5439 7.88029 16.4609 7.83558 16.3778 7.79222C16.3659 7.61418 16.3078 7.49278 16.2072 7.43118C16.5136 7.58962 16.9317 7.80046 17.2384 7.97614Z" fill="#FFFCED"/>
<path d="M17.4116 8.33447L16.3774 7.78577L17.4116 8.33447Z" fill="#FFFCED"/>
<path d="M11.2158 13.2816L12.2506 13.8311L13.7489 15.2428L12.7155 14.6934L11.2158 13.2816Z" fill="#F67067"/>
<path d="M16.9807 9.16507L16.9634 9.17298L15.9307 8.62305L15.9441 8.612L16.054 8.66971L16.1697 8.73144L16.2907 8.79508L16.4135 8.86097L16.5365 8.92549L16.6567 8.98974L16.773 9.05222L16.8829 9.10993L16.8903 9.11892L16.902 9.12559L16.9145 9.13165L16.9262 9.13832L16.9393 9.14513L16.9518 9.15118L16.9635 9.15785L16.9807 9.16507Z" fill="#FFFCED"/>
<path d="M16.9805 9.16516C16.6353 8.98221 16.2906 8.79931 15.9463 8.61646L16.0673 8.68009L16.1954 8.74788L16.3288 8.81894L16.4641 8.89088L16.5994 8.96282L16.7321 9.03312L16.8595 9.10152L16.9805 9.16516V9.16516Z" fill="#FFFCED"/>
<path d="M12.7269 11.4503C12.9929 12.5819 13.6411 13.4144 14.4882 13.8646L13.454 13.3159C12.6069 12.8656 11.9606 12.0355 11.6927 10.9016C11.1246 8.4874 12.5075 5.63053 14.7818 4.51731C15.3052 4.25403 15.8782 4.10414 16.4634 4.07742L16.5836 4.14167L16.7118 4.20946L16.8445 4.27977L16.9798 4.35171L17.1151 4.42365L17.2478 4.49395L17.376 4.56174L17.4968 4.62674C16.911 4.65363 16.3375 4.80395 15.8137 5.06785C13.5423 6.17998 12.1593 9.03822 12.7269 11.4503Z" fill="#FE3030"/>
<path d="M18.4824 4.72827C18.4772 4.72611 18.4722 4.72354 18.4674 4.72058L18.436 4.7037L18.4203 4.69526L18.3529 4.66035L18.2242 4.59181C17.9662 4.45424 17.7076 4.31682 17.4482 4.17957C17.6968 4.24288 17.9369 4.33582 18.1633 4.45638L19.1975 5.00509C18.9707 4.88529 18.7307 4.79239 18.4824 4.72827V4.72827Z" fill="#FE3030"/>
<path d="M17.3059 8.83978C17.223 8.79506 17.1399 8.7517 17.0569 8.70699C16.974 8.66227 16.8778 8.61211 16.7889 8.56474L16.2725 8.29046C16.3551 8.13664 16.3922 7.96251 16.3795 7.78839L16.5005 7.85203L16.6279 7.92043L16.7606 7.99074L16.8959 8.06268L17.0312 8.13462L17.1645 8.20567L17.2927 8.27346L17.4137 8.3371C17.4265 8.51151 17.3891 8.68593 17.3059 8.83978V8.83978Z" fill="#FFFCED"/>
<path d="M17.306 8.83947C17.2367 8.98033 17.1228 9.09434 16.982 9.16375C16.6376 8.9818 16.2929 8.7989 15.9478 8.61505C16.0888 8.54543 16.203 8.43123 16.2726 8.29015L17.306 8.83947Z" fill="#FFFCED"/>
<path d="M15.8093 7.44401C15.9717 7.36519 16.1031 7.35897 16.2034 7.42537C16.3092 7.48888 16.3666 7.61088 16.374 7.78641C16.3866 7.96053 16.3495 8.13466 16.267 8.28847C16.1974 8.42956 16.0832 8.54376 15.9422 8.61337L15.9272 8.62565L15.4107 8.8785C15.3913 8.88978 15.3692 8.8957 15.3467 8.89564C15.3243 8.89558 15.3022 8.88956 15.2828 8.87818C15.2634 8.86681 15.2474 8.85049 15.2364 8.83089C15.2254 8.8113 15.2198 8.78913 15.2202 8.76667L15.1684 7.90267C15.1672 7.86157 15.1775 7.82095 15.1981 7.78541C15.2188 7.74988 15.2491 7.72086 15.2854 7.70164L15.8093 7.44401Z" fill="#FFFCED"/>
<path d="M13.8922 7.22443L14.9263 7.7745L15.2345 12.7965L14.2011 12.2472L13.8922 7.22443Z" fill="#FFFCED"/>
<path d="M14.5574 14.1598C14.4974 14.1325 14.4371 14.1031 14.3789 14.0719L13.3447 13.5232C13.4036 13.5538 13.4626 13.5831 13.5232 13.6111C13.5598 13.6299 13.6082 13.6554 13.6442 13.6748L13.7723 13.7425L13.9056 13.8136L14.0409 13.8855L14.1756 13.9567L14.309 14.0278L14.4364 14.0962L14.5574 14.1598Z" fill="#FE3030"/>
<path d="M15.4381 10.0643L16.4715 10.6136C16.435 10.6325 16.4047 10.6613 16.3841 10.6968C16.3635 10.7324 16.3535 10.773 16.3552 10.814L15.3211 10.2653C15.3196 10.2242 15.3298 10.1835 15.3505 10.1479C15.3712 10.1123 15.4016 10.0833 15.4381 10.0643V10.0643Z" fill="#FE3030"/>
<path d="M15.2936 11.9168L16.3278 12.4655L15.4243 12.9077L14.3901 12.359L15.2936 11.9168Z" fill="#FE3030"/>
<path d="M15.2346 12.7964C15.235 12.8196 15.2414 12.8423 15.2531 12.8623C15.2649 12.8822 15.2816 12.8988 15.3017 12.9105L14.2675 12.3618C14.2475 12.35 14.2309 12.3332 14.2192 12.3132C14.2076 12.2931 14.2014 12.2703 14.2011 12.2471L15.2346 12.7964Z" fill="#FFFCED"/>
<path d="M15.3013 12.9105L14.2671 12.3618C14.2864 12.3711 14.3076 12.3757 14.3291 12.3753C14.3505 12.375 14.3715 12.3696 14.3905 12.3596L15.4247 12.9083C15.4058 12.9186 15.3847 12.9241 15.3632 12.9245C15.3418 12.9249 15.3205 12.9201 15.3013 12.9105V12.9105Z" fill="#FE3030"/>
<path d="M15.7197 9.92485L16.7537 10.4749L16.4709 10.6127L15.4375 10.0634L15.7197 9.92485Z" fill="#FE3030"/>
<path d="M15.8849 9.95983L16.9183 10.5091L17.7263 11.6651L16.6929 11.1157L15.8849 9.95983Z" fill="#FFFCED"/>
<path d="M15.843 9.92272L16.8764 10.472C16.8573 10.4625 16.8361 10.4578 16.8147 10.4583C16.7933 10.4588 16.7723 10.4646 16.7537 10.475L15.7202 9.92566C15.739 9.91539 15.7599 9.90976 15.7813 9.90925C15.8026 9.90874 15.8238 9.91336 15.843 9.92272Z" fill="#FE3030"/>
<path d="M15.8433 9.92249L16.8767 10.4718C16.8934 10.4807 16.9077 10.4934 16.9184 10.509L15.8856 9.96041C15.8744 9.94486 15.8599 9.93192 15.8433 9.92249V9.92249Z" fill="#FFFCED"/>
<path d="M12.7158 14.6935L13.7492 15.2428C14.1375 15.6083 14.1955 16.2644 13.9268 16.835L12.8934 16.2857C13.1614 15.7143 13.1041 15.059 12.7158 14.6935Z" fill="#F67067"/>
<path d="M10.0405 13.1566L10.1326 13.2064L10.2255 13.2555L10.3229 13.3072L10.4229 13.3605L10.5242 13.4139L10.6262 13.4681L10.7268 13.5221L10.8262 13.5746L10.0411 13.1574L10.0405 13.1566Z" fill="#FE3030"/>
<path d="M11.2178 13.2838L12.7169 14.6949C13.1052 15.0604 13.1626 15.7157 12.8945 16.2871C11.5048 15.8669 10.3414 14.8807 9.6464 13.4394C9.76238 13.3252 9.89562 13.23 10.0412 13.1573C10.4502 12.955 10.902 12.9854 11.2178 13.2838Z" fill="#F67067"/>
<path d="M15.3204 10.2645L16.3546 10.8132L16.4443 12.2645L15.4101 11.7158L15.3204 10.2645Z" fill="#FE3030"/>
<path d="M15.4108 11.7157L16.4449 12.2644C16.4464 12.3055 16.4362 12.3462 16.4155 12.3818C16.3948 12.4174 16.3644 12.4464 16.3279 12.4654L15.2937 11.9167C15.3302 11.8977 15.3606 11.8687 15.3813 11.8331C15.402 11.7975 15.4122 11.7568 15.4108 11.7157V11.7157Z" fill="#FE3030"/>
<path d="M16.9926 6.14666L18.0266 6.69673C18.4003 6.90224 18.6025 7.27123 18.633 7.80371C18.6537 8.14409 18.6001 8.48488 18.476 8.80249C18.3749 9.07471 18.2283 9.32777 18.0424 9.55082C18.0128 9.58266 17.9941 9.62305 17.989 9.66619C17.9838 9.70933 17.9925 9.753 18.0137 9.7909L16.9795 9.24219C16.9585 9.20425 16.9499 9.16062 16.955 9.11751C16.9602 9.07441 16.9788 9.03402 17.0082 9.00211C17.1944 8.77886 17.3412 8.52561 17.4426 8.25317C17.5658 7.93408 17.6184 7.59203 17.5965 7.25065C17.5684 6.72116 17.3671 6.35317 16.9926 6.14666Z" fill="#FE3030"/>
<path d="M15.0757 15.632L14.0415 15.0833C14.0782 15.102 14.1258 15.1281 14.1625 15.1469L14.2906 15.2147L14.4232 15.2863L14.5593 15.3577L14.6946 15.4296L14.8273 15.4999L14.9547 15.5683L15.0757 15.632Z" fill="#FE3030"/>
<path d="M15.2807 15.364C15.2292 15.3911 15.1842 15.4289 15.1486 15.4749C15.1131 15.5208 15.0878 15.5739 15.0746 15.6305L14.9536 15.5669L14.8262 15.4985L14.5597 15.355C14.4676 15.3052 14.3805 15.2601 14.291 15.212C14.2015 15.1639 14.125 15.1239 14.0419 15.0806C14.0553 15.0239 14.0807 14.9707 14.1163 14.9246C14.152 14.8785 14.1972 14.8406 14.2487 14.8135L14.369 14.8777L14.4977 14.9463L14.6304 15.0166L14.7657 15.0885L14.9011 15.1604L15.0338 15.2307L15.1619 15.2985L15.2807 15.364Z" fill="#FE3030"/>
<path d="M15.2805 15.364C14.9371 15.1813 14.5927 14.9981 14.2471 14.8147L14.3679 14.8797L14.4961 14.9475L14.6288 15.0178L14.7641 15.0897L14.8994 15.1617L15.0321 15.232L15.1603 15.2998L15.2805 15.364Z" fill="#FE3030"/>
<path d="M15.4328 15.3393C15.3814 15.335 15.3297 15.3448 15.2834 15.3678C14.9401 15.185 14.5956 15.0019 14.25 14.8185C14.296 14.7955 14.3475 14.7858 14.3987 14.7906C14.4267 14.7934 14.454 14.8017 14.4788 14.8151L15.513 15.3638C15.488 15.3508 15.4608 15.3425 15.4328 15.3393V15.3393Z" fill="#FE3030"/>
<path d="M15.0758 15.6319C15.0555 15.6922 15.0561 15.7576 15.0773 15.8176C15.0985 15.8775 15.1392 15.9287 15.1929 15.9628L14.1581 15.4134C14.1055 15.3785 14.0656 15.3274 14.0445 15.2678C14.0235 15.2082 14.0225 15.1434 14.0416 15.0832L14.1626 15.1468L14.29 15.2152L14.4233 15.2863L14.5586 15.3582L14.6933 15.4294L14.8267 15.5005L14.9548 15.5682L15.0758 15.6319Z" fill="#FE3030"/>
<path d="M17.7682 11.7024L16.7348 11.1531C16.7183 11.1445 16.7042 11.132 16.6937 11.1167L17.7271 11.666C17.738 11.681 17.752 11.6934 17.7682 11.7024Z" fill="#FFFCED"/>
<path d="M14.4762 14.8112L15.5104 15.3599C15.5631 15.3946 15.603 15.4456 15.6242 15.505C15.6453 15.5645 15.6465 15.6292 15.6276 15.6895C15.6141 15.7463 15.5885 15.7996 15.5527 15.8457C15.5169 15.8919 15.4717 15.9299 15.42 15.9572C15.3742 15.9806 15.3226 15.9903 15.2714 15.9851C15.2436 15.9825 15.2165 15.9744 15.1918 15.9613L14.157 15.4119C14.1819 15.4251 14.2092 15.4334 14.2372 15.4364C14.2887 15.4412 14.3405 15.4313 14.3866 15.4079C14.4382 15.3807 14.4833 15.3428 14.519 15.2967C14.5547 15.2507 14.5801 15.1975 14.5935 15.1408C14.6135 15.0806 14.6129 15.0155 14.5917 14.9557C14.5704 14.896 14.5297 14.8451 14.4762 14.8112Z" fill="#FFFCED"/>
<path d="M17.7683 11.7024L16.7349 11.1531C16.7541 11.1627 16.7753 11.1676 16.7968 11.1672C16.8183 11.1668 16.8394 11.1612 16.8583 11.1509L17.8905 11.6987C17.8719 11.7091 17.8511 11.7148 17.8298 11.7155C17.8086 11.7161 17.7875 11.7116 17.7683 11.7024V11.7024Z" fill="#FE3030"/>
<path d="M19.0762 3.15759L20.1096 3.70691L21.6086 5.118L20.5752 4.56868L19.0762 3.15759Z" fill="#FE3030"/>
<path d="M21.6096 5.11878C21.6703 5.1758 21.7384 5.22445 21.812 5.26345L20.7778 4.71474C20.7045 4.67541 20.6367 4.62656 20.5762 4.56946C20.8856 4.73785 21.3244 4.91426 21.6096 5.11878Z" fill="#FE3030"/>
<path d="M16.9791 9.24126L18.0139 9.79072L18.8748 10.9822L17.8406 10.4335L16.9791 9.24126Z" fill="#FE3030"/>
<path d="M17.751 10.7137L18.7852 11.2624L17.8918 11.7001L16.8584 11.1508L17.751 10.7137Z" fill="#FE3030"/>
<path d="M17.8405 10.4337L18.8746 10.9824C18.8879 11.0065 18.8961 11.0331 18.8988 11.0605C18.9014 11.0879 18.8985 11.1156 18.8901 11.1418C18.8817 11.168 18.868 11.1923 18.8499 11.213C18.8318 11.2338 18.8097 11.2506 18.7849 11.2625L17.7507 10.7138C17.7755 10.7019 17.7976 10.6851 17.8157 10.6643C17.8338 10.6435 17.8475 10.6193 17.8559 10.5931C17.8643 10.5669 17.8673 10.5392 17.8646 10.5118C17.862 10.4844 17.8537 10.4578 17.8405 10.4337V10.4337Z" fill="#FE3030"/>
<path d="M18.1625 4.45575L19.196 5.00507C20.0438 5.45475 20.6901 6.28492 20.9587 7.41957C21.5267 9.83374 20.1438 12.6906 17.8703 13.8032C16.6636 14.3949 15.4481 14.3753 14.4885 13.8657L13.4551 13.3163C14.4139 13.8266 15.6294 13.8462 16.8361 13.2545C19.1102 12.1427 20.492 9.28292 19.9245 6.87087C19.6603 5.74146 19.0097 4.90604 18.1625 4.45575Z" fill="#FFFCED"/>
<path d="M21.1528 7.32434C21.2268 7.64005 21.2702 7.96217 21.2823 8.28621C20.9371 8.10326 20.5924 7.92036 20.2481 7.7375C20.2362 7.41328 20.1931 7.09097 20.1194 6.77502C19.8406 5.59117 19.1619 4.71993 18.2728 4.24895L19.307 4.79766C20.1946 5.26987 20.8754 6.14063 21.1528 7.32434Z" fill="#FE3030"/>
<path d="M17.9192 14.0089C16.7313 14.5914 15.5302 14.6077 14.5575 14.16L13.5233 13.6113C14.499 14.0565 15.6965 14.042 16.885 13.4602C18.9654 12.4419 20.3356 10.0174 20.2483 7.73768C20.285 7.75646 20.3326 7.78253 20.3693 7.80131L20.4967 7.86972L20.6294 7.94002L20.7647 8.01196L20.9 8.0839L21.0328 8.15421L21.1609 8.222L21.2825 8.28638C21.3698 10.5661 19.9988 12.9913 17.9192 14.0089Z" fill="#FE3030"/>
<path d="M18.3642 4.07786L19.3976 4.62718C20.3193 5.11654 21.023 6.01986 21.312 7.2467C21.9268 9.86165 20.4225 12.9707 17.9586 14.178C16.6493 14.8186 15.3301 14.7977 14.2869 14.2425L13.2535 13.6932C14.2954 14.2468 15.6159 14.2693 16.9252 13.6286C19.3891 12.4214 20.8934 9.31233 20.2785 6.69738C19.9902 5.47129 19.2853 4.56647 18.3642 4.07786Z" fill="#C62525"/>
<path d="M14.6938 4.14247C17.1577 2.93523 19.6612 4.07932 20.2816 6.70101C20.9019 9.3227 19.3921 12.425 16.9282 13.6323C14.4643 14.8395 11.96 13.696 11.3427 11.0781C10.7254 8.46014 12.2293 5.34896 14.6938 4.14247ZM16.887 13.4582C19.264 12.2946 20.7147 9.29583 20.1216 6.7732C19.5286 4.25057 17.1121 3.1454 14.7351 4.30898C12.3581 5.47255 10.9072 8.4727 11.5003 10.9953C12.0933 13.518 14.5106 14.6225 16.887 13.4582" fill="#C62525"/>
<path d="M14.7817 4.51744C17.0559 3.40558 19.3573 4.45733 19.9247 6.87075C20.4921 9.28416 19.1092 12.141 16.8363 13.2544C14.5634 14.3678 12.2615 13.3139 11.6926 10.9017C11.1237 8.48952 12.5082 5.63005 14.7817 4.51744ZM17.5997 7.25428C17.5696 6.72229 17.3674 6.3533 16.9933 6.14729C16.6192 5.94128 16.1981 5.95243 15.7299 6.18072L14.009 7.02342C13.9724 7.04257 13.942 7.07165 13.9212 7.10731C13.9003 7.14297 13.89 7.18378 13.8913 7.22505L14.2002 12.2465C14.1995 12.269 14.2049 12.2913 14.2157 12.3111C14.2266 12.3308 14.2425 12.3473 14.2619 12.3588C14.2813 12.3703 14.3034 12.3763 14.3259 12.3764C14.3485 12.3764 14.3706 12.3704 14.39 12.3589L15.2929 11.916C15.3294 11.8969 15.3597 11.868 15.3804 11.8324C15.4012 11.7968 15.4114 11.7561 15.4099 11.715L15.3207 10.2643C15.3193 10.2232 15.3295 10.1825 15.3502 10.1469C15.3709 10.1113 15.4012 10.0824 15.4377 10.0633L15.7199 9.92483C15.7467 9.90905 15.7784 9.90382 15.8088 9.91015C15.8392 9.91648 15.8662 9.93392 15.8844 9.95906L16.693 11.1157C16.7113 11.1409 16.7382 11.1583 16.7687 11.1646C16.7991 11.171 16.8308 11.1657 16.8575 11.15L17.7509 10.7123C17.7758 10.7004 17.7979 10.6835 17.816 10.6628C17.8341 10.642 17.8477 10.6178 17.8561 10.5916C17.8645 10.5653 17.8675 10.5377 17.8649 10.5103C17.8622 10.4829 17.854 10.4563 17.8407 10.4322L16.9798 9.24071C16.9587 9.20277 16.9501 9.15914 16.9553 9.11603C16.9604 9.07293 16.979 9.03254 17.0085 9.00063C17.1946 8.77738 17.3415 8.52413 17.4428 8.25169C17.5661 7.9326 17.6186 7.59055 17.5968 7.24917" fill="#FFFCED"/>
<path d="M16.993 6.1465C17.3665 6.35383 17.5689 6.72307 17.6001 7.25424C17.6219 7.59562 17.5694 7.93767 17.4461 8.25676C17.3448 8.52921 17.1979 8.78245 17.0117 9.0057C16.9823 9.03761 16.9637 9.078 16.9585 9.1211C16.9534 9.16421 16.962 9.20784 16.9831 9.24578L17.844 10.4372C17.8572 10.4614 17.8655 10.4879 17.8681 10.5153C17.8708 10.5428 17.8678 10.5704 17.8594 10.5966C17.851 10.6229 17.8373 10.6471 17.8192 10.6678C17.8012 10.6886 17.779 10.7054 17.7542 10.7174L16.8608 11.155C16.834 11.1708 16.8023 11.176 16.7719 11.1697C16.7415 11.1634 16.7145 11.1459 16.6963 11.1208L15.886 9.96052C15.8677 9.93538 15.8407 9.91794 15.8103 9.91161C15.7799 9.90528 15.7482 9.91051 15.7214 9.92629L15.4393 10.0648C15.4028 10.0838 15.3724 10.1128 15.3517 10.1484C15.331 10.184 15.3208 10.2247 15.3223 10.2658L15.4114 11.7164C15.4129 11.7576 15.4027 11.7983 15.382 11.8338C15.3613 11.8694 15.3309 11.8984 15.2944 11.9174L14.3916 12.3604C14.3721 12.3718 14.35 12.3778 14.3275 12.3778C14.3049 12.3778 14.2828 12.3717 14.2634 12.3602C14.2441 12.3487 14.2281 12.3323 14.2173 12.3125C14.2064 12.2928 14.2011 12.2705 14.2018 12.2479L13.8928 7.22652C13.8915 7.18524 13.9019 7.14443 13.9227 7.10877C13.9435 7.07311 13.974 7.04403 14.0106 7.02488L15.7315 6.18218C16.1984 5.95239 16.619 5.9405 16.993 6.1465ZM16.3799 7.78814C16.3672 7.61071 16.3098 7.48871 16.2093 7.4271C16.1087 7.3655 15.9771 7.36687 15.8152 7.44575L15.2864 7.69738C15.25 7.7166 15.2198 7.74562 15.1991 7.78115C15.1785 7.81669 15.1681 7.85731 15.1694 7.8984L15.2212 8.7624C15.2208 8.78487 15.2264 8.80704 15.2374 8.82663C15.2484 8.84622 15.2644 8.86254 15.2838 8.87392C15.3032 8.8853 15.3252 8.89132 15.3477 8.89138C15.3702 8.89143 15.3923 8.88552 15.4117 8.87424L15.9282 8.62139L15.9432 8.60911C16.0842 8.5395 16.1984 8.4253 16.2679 8.28421C16.3505 8.1304 16.3876 7.95627 16.3749 7.78215" fill="#FE3030"/>
<path d="M21.2334 5.81641L21.3247 5.86677L21.4183 5.9153L21.5157 5.96696L21.6157 6.02025L21.7171 6.07368L21.8183 6.12847L21.9197 6.1819L22.0191 6.23444L21.234 5.81716L21.2334 5.81641Z" fill="#FE3030"/>
<path d="M21.8149 5.26111L20.7808 4.7124C20.933 4.7869 21.1008 4.82399 21.2703 4.8206C21.4398 4.81721 21.606 4.77344 21.7551 4.69292C21.8215 4.66033 21.8853 4.62273 21.9459 4.58043L22.9793 5.12975C22.9186 5.17198 22.8549 5.20958 22.7885 5.24224C22.6394 5.32254 22.4733 5.36614 22.304 5.36942C22.1347 5.3727 21.967 5.33557 21.8149 5.26111Z" fill="#F67067"/>
<path d="M22.0575 6.7986C22.0643 6.83294 22.0785 6.8654 22.0991 6.89371C22.1197 6.92202 22.1462 6.94551 22.1768 6.96254L21.1434 6.41322C21.1127 6.39634 21.0861 6.37298 21.0653 6.34478C21.0446 6.31657 21.0303 6.28419 21.0233 6.24989C21.3681 6.43234 21.7126 6.61499 22.0569 6.79785C21.7125 6.6159 21.368 6.43325 21.0233 6.24989C21.0073 6.16473 21.019 6.07667 21.0567 5.99866C21.0944 5.92065 21.1562 5.8568 21.2329 5.81652C21.5771 6.00028 21.9216 6.18339 22.2664 6.36583C21.9217 6.18248 21.5772 5.99937 21.2329 5.81652C21.2681 5.79754 21.3073 5.78727 21.3472 5.78657C21.3872 5.78587 21.4267 5.79476 21.4625 5.81249L22.4959 6.36181C22.4601 6.34408 22.4206 6.33519 22.3807 6.33589C22.3407 6.33659 22.3015 6.34686 22.2664 6.36583C22.1898 6.40609 22.1282 6.46986 22.0906 6.54777C22.053 6.62568 22.0414 6.71361 22.0575 6.7986Z" fill="#FE3030"/>
<path d="M21.4625 5.81238L22.4959 6.3617C22.5266 6.37858 22.5532 6.40193 22.574 6.43014C22.5947 6.45834 22.609 6.49072 22.616 6.52503C22.6321 6.61036 22.6204 6.69862 22.5825 6.77676C22.5446 6.85491 22.4826 6.91881 22.4056 6.95902C22.3706 6.97792 22.3315 6.98811 22.2916 6.9887C22.2518 6.9893 22.2124 6.98028 22.1768 6.96243L21.1434 6.41311C21.179 6.43081 21.2184 6.43973 21.2582 6.43914C21.298 6.43854 21.3371 6.42845 21.3722 6.40969C21.4491 6.36964 21.5111 6.30583 21.5488 6.22776C21.5866 6.14968 21.5982 6.06149 21.5818 5.97632C21.575 5.94197 21.5608 5.90952 21.5402 5.88121C21.5196 5.85289 21.4931 5.82941 21.4625 5.81238V5.81238Z" fill="#FFFCED"/>
<path d="M14.7329 4.31094C17.1099 3.14737 19.5264 4.25253 20.1195 6.77516C20.7125 9.29779 19.2604 12.2978 16.8849 13.4602C14.5094 14.6225 12.092 13.5193 11.4982 10.9973C10.9044 8.47528 12.3559 5.47452 14.7329 4.31094ZM16.8365 13.2544C19.1106 12.1425 20.4924 9.2828 19.9249 6.87075C19.3573 4.4587 17.0548 3.40409 14.7819 4.51745C12.509 5.6308 11.126 8.48904 11.6928 10.9017C12.2596 13.3144 14.5636 14.3678 16.8365 13.2544" fill="#FE3030"/>
<path d="M20.7224 12.6998C20.3777 12.5165 20.0332 12.3334 19.689 12.1505L19.8092 12.2148L19.9374 12.2826L20.0701 12.3529L20.2054 12.4248L20.3407 12.4967L20.4734 12.567L20.6015 12.6348L20.7224 12.6998V12.6998Z" fill="#FE3030"/>
<path d="M20.5933 12.8074C20.5491 12.8599 20.5202 12.9236 20.5095 12.9914C20.4989 13.0592 20.507 13.1287 20.533 13.1923C20.1882 13.0098 19.8435 12.8269 19.4988 12.6435C19.4731 12.58 19.465 12.5105 19.4757 12.4428C19.4863 12.375 19.5151 12.3113 19.5591 12.2586C19.9035 12.4406 20.2482 12.6235 20.5933 12.8074C20.2481 12.6244 19.9034 12.4415 19.5591 12.2586C19.5939 12.2132 19.6388 12.1764 19.6902 12.1512L19.8104 12.2155L19.9386 12.2833L20.0713 12.3536L20.2066 12.4255L20.3419 12.4975L20.4746 12.5678L20.6028 12.6356L20.7236 12.7006C20.6725 12.7256 20.6279 12.7621 20.5933 12.8074V12.8074Z" fill="#FE3030"/>
<path d="M20.9518 12.6958C20.9161 12.6781 20.8766 12.6693 20.8368 12.6702C20.7969 12.671 20.7579 12.6814 20.7229 12.7006C20.3782 12.5172 20.0337 12.3341 19.6895 12.1512C19.7245 12.1323 19.7635 12.1219 19.8034 12.1211C19.8432 12.1203 19.8826 12.129 19.9184 12.1465L20.9518 12.6958Z" fill="#FE3030"/>
<path d="M20.5852 13.2616C20.5993 13.2754 20.6153 13.2871 20.6326 13.2966L19.5992 12.7472C19.5817 12.7379 19.5655 12.7264 19.551 12.7129C19.8962 12.8958 20.2406 13.0789 20.5844 13.2622C20.2402 13.0784 19.8958 12.8953 19.551 12.7129C19.5286 12.6939 19.5099 12.6711 19.4957 12.6454C19.8409 12.8284 20.1857 13.0113 20.5299 13.1941C20.5441 13.2198 20.5628 13.2426 20.5852 13.2616V13.2616Z" fill="#FE3030"/>
<path d="M20.0071 14.4792C19.7657 14.4383 19.5176 14.4772 19.3003 14.59L18.2661 14.0413C18.4835 13.9288 18.7314 13.8894 18.973 13.9291L19.0939 13.9941L19.222 14.0619L19.3547 14.1322L19.49 14.2042L19.6253 14.2761L19.7581 14.3464L19.8862 14.4142L20.0071 14.4792Z" fill="#FE3030"/>
<path d="M20.0915 14.4987C20.064 14.4912 20.0358 14.4842 20.0067 14.4793L18.9727 13.9292C19.0016 13.9355 19.0306 13.9418 19.0581 13.9494L19.8195 14.3547L19.8516 14.371L19.8849 14.3887L19.9203 14.4074L19.9556 14.426L19.9915 14.4454L20.0268 14.4641L20.0601 14.4818L20.0915 14.4987Z" fill="#FE3030"/>
<path d="M20.0915 14.4988C20.0817 14.4944 20.0693 14.4869 20.0602 14.4819L20.0092 14.4548L19.9739 14.4362L19.9556 14.4261L19.8196 14.3548L19.0581 13.9495C19.1217 13.9673 19.1834 13.9914 19.2423 14.0214L20.2757 14.5708C20.217 14.5403 20.1553 14.5162 20.0915 14.4988V14.4988Z" fill="#FE3030"/>
<path d="M19.9183 12.1455L20.9523 12.6956C20.9699 12.7048 20.9861 12.7164 21.0005 12.73C21.11 12.8331 21.1069 13.0372 20.9955 13.1823C20.9607 13.2277 20.9158 13.2645 20.8644 13.2897C20.8294 13.3087 20.7903 13.319 20.7505 13.3199C20.7107 13.3207 20.6712 13.312 20.6354 13.2945L19.602 12.7452C19.6377 12.7628 19.6772 12.7716 19.7171 12.7708C19.7569 12.77 19.796 12.7595 19.8309 12.7404C19.8821 12.7154 19.9267 12.6788 19.9613 12.6336C20.0758 12.486 20.0813 12.2849 19.9663 12.1813C19.9521 12.1672 19.9359 12.1551 19.9183 12.1455V12.1455Z" fill="#FFFCED"/>
<path d="M19.2407 14.0225L20.2742 14.5718C20.3861 14.6316 20.4849 14.7133 20.5648 14.8119L19.5306 14.2632C19.451 14.1644 19.3525 14.0826 19.2407 14.0225V14.0225Z" fill="#F67067"/>
<path d="M21.9427 4.5827C22.0829 4.92355 22.1955 5.27511 22.2794 5.63398C22.388 6.09999 22.4533 6.57506 22.4742 7.0531C22.4266 7.07014 22.3799 7.08962 22.3342 7.11145C22.115 7.22653 21.923 7.38721 21.7711 7.5827C21.6192 7.7782 21.511 8.00395 21.4536 8.24479L20.8605 10.6812C20.7237 11.2416 20.8901 11.755 21.2462 12.0154C20.7864 12.8439 20.2086 13.6011 19.5308 14.2632C19.2411 13.9096 18.7521 13.8032 18.266 14.0412L16.1733 15.0658C15.9152 15.2023 15.6957 15.4015 15.5346 15.6449C15.3736 15.8884 15.2763 16.1684 15.2516 16.4593C14.4625 16.57 13.6589 16.5103 12.8948 16.2843C13.1613 15.7141 13.104 15.0588 12.7172 14.6921L11.2179 13.2837C10.9033 12.9868 10.4499 12.9576 10.0412 13.1572C9.89563 13.2299 9.76239 13.3251 9.64641 13.4393C9.43583 12.9983 9.27388 12.5357 9.16344 12.0597C9.06965 11.6581 9.00875 11.2495 8.98135 10.838C9.14998 10.83 9.31508 10.7869 9.46603 10.7113C9.6855 10.5966 9.87773 10.436 10.0297 10.2405C10.1816 10.0449 10.2897 9.819 10.3467 9.57799L10.9403 7.14232C11.115 6.42332 10.7919 5.78285 10.2102 5.65348C10.7061 4.76499 11.3383 3.95979 12.0838 3.26722C12.2961 3.86571 12.9154 4.1096 13.5289 3.80858L15.6217 2.79019C15.9094 2.63829 16.1486 2.40865 16.3122 2.12744C16.4758 1.84622 16.5572 1.52472 16.547 1.19953C17.3524 1.13378 18.1622 1.24882 18.9174 1.53623C18.6308 2.11404 18.6828 2.78881 19.0769 3.1583L20.5766 4.57013C20.8913 4.86567 21.3439 4.8955 21.7526 4.69593C21.8187 4.66308 21.8823 4.62523 21.9427 4.5827V4.5827ZM16.9251 13.6285C19.389 12.4213 20.8933 9.31223 20.2785 6.69729C19.6636 4.08234 17.1577 2.93525 14.6938 4.14249C12.2299 5.34973 10.7248 8.45942 11.3397 11.0744C11.9545 13.6893 14.4606 14.835 16.9251 13.6285V13.6285ZM21.3761 6.40652C21.4531 6.36647 21.515 6.30266 21.5528 6.22458C21.5905 6.1465 21.6021 6.05832 21.5857 5.97314C21.5789 5.93612 21.5633 5.90128 21.5402 5.87157C21.5171 5.84186 21.4871 5.81816 21.4529 5.80248C21.4187 5.78679 21.3812 5.77958 21.3436 5.78145C21.306 5.78332 21.2694 5.79422 21.2369 5.81323C21.1602 5.85352 21.0984 5.91737 21.0607 5.99538C21.0229 6.07339 21.0112 6.16145 21.0273 6.2466C21.0343 6.28351 21.05 6.31821 21.0732 6.34779C21.0964 6.37737 21.1263 6.40097 21.1604 6.41663C21.1946 6.43228 21.232 6.43953 21.2695 6.43778C21.307 6.43602 21.3436 6.4253 21.3761 6.40652V6.40652ZM10.4929 11.7355C10.5697 11.6954 10.6316 11.6315 10.6693 11.5535C10.7071 11.4754 10.7187 11.3873 10.7025 11.3022C10.6955 11.2653 10.6798 11.2306 10.6567 11.2011C10.6336 11.1715 10.6037 11.148 10.5696 11.1324C10.5355 11.1168 10.4981 11.1096 10.4606 11.1115C10.4232 11.1133 10.3867 11.1241 10.3543 11.143C10.2775 11.183 10.2156 11.2467 10.1777 11.3246C10.1399 11.4025 10.1281 11.4905 10.144 11.5756C10.1508 11.6126 10.1665 11.6475 10.1896 11.6772C10.2127 11.7069 10.2427 11.7306 10.2769 11.7463C10.3111 11.762 10.3486 11.7692 10.3862 11.7673C10.4238 11.7654 10.4604 11.7545 10.4929 11.7355ZM19.9577 12.634C20.0721 12.4864 20.0776 12.2853 19.9627 12.1817C19.9258 12.1483 19.8793 12.1273 19.8298 12.1218C19.7804 12.1163 19.7304 12.1264 19.687 12.1509C19.6356 12.1761 19.5908 12.2128 19.5559 12.2583C19.4415 12.4059 19.4375 12.6057 19.5509 12.7106C19.588 12.7437 19.6344 12.7645 19.6838 12.77C19.7332 12.7756 19.7831 12.7656 19.8266 12.7414C19.8777 12.7164 19.9223 12.6799 19.9569 12.6346L19.9577 12.634ZM14.5919 15.1406C14.6359 14.9619 14.5464 14.8023 14.3945 14.7865C14.3433 14.7817 14.2918 14.7914 14.2459 14.8144C14.1943 14.8415 14.1492 14.8794 14.1135 14.9255C14.0778 14.9716 14.0524 15.0248 14.039 15.0815C13.9957 15.2609 14.0845 15.4198 14.2357 15.4362C14.2872 15.441 14.339 15.4311 14.3851 15.4077C14.4367 15.3805 14.4818 15.3426 14.5175 15.2966C14.5532 15.2505 14.5786 15.1973 14.5919 15.1406V15.1406ZM17.1284 2.41344C17.0843 2.5935 17.1724 2.75296 17.325 2.76813C17.3762 2.7727 17.4277 2.76305 17.4737 2.74024C17.5252 2.71308 17.5703 2.67529 17.6061 2.62937C17.6418 2.58345 17.6674 2.53044 17.6812 2.47388C17.7252 2.29382 17.6364 2.13497 17.4831 2.11906C17.432 2.11408 17.3806 2.12403 17.3351 2.1477C17.2834 2.17436 17.2382 2.21194 17.2025 2.25782C17.1668 2.30371 17.1415 2.35681 17.1284 2.41344V2.41344ZM11.7684 4.9178C11.654 5.06403 11.6491 5.26587 11.7633 5.37012C11.8004 5.40226 11.8465 5.42212 11.8953 5.42697C11.9441 5.43182 11.9933 5.42143 12.0359 5.39721C12.0873 5.37201 12.1322 5.33524 12.167 5.2898C12.2813 5.14357 12.2863 4.94173 12.1721 4.83748C12.1346 4.80609 12.0886 4.78672 12.0399 4.78189C11.9913 4.77705 11.9424 4.78699 11.8995 4.81039C11.8484 4.83608 11.8036 4.87276 11.7684 4.9178Z" fill="#FE3030"/>
<path d="M10.2097 5.65412C9.31731 7.2453 8.8611 9.08009 8.98165 10.838C9.15028 10.8301 9.31538 10.7869 9.46633 10.7114C9.6858 10.5966 9.87803 10.4361 10.03 10.2405C10.1819 10.045 10.29 9.81903 10.347 9.57802L10.9406 7.14234C11.1146 6.42396 10.7914 5.78349 10.2097 5.65412Z" fill="#F67067"/>
<path d="M12.083 3.26787C12.6791 2.71352 13.3526 2.24866 14.0823 1.88784C14.8511 1.50202 15.6867 1.26711 16.5439 1.19582C16.5551 1.52131 16.4745 1.84339 16.3114 2.1253C16.1484 2.40722 15.9093 2.63762 15.6216 2.79022L13.5289 3.81482C12.9146 4.11025 12.2954 3.86636 12.083 3.26787Z" fill="#F67067"/>
<path d="M17.3364 2.14773C17.382 2.12406 17.4334 2.11411 17.4845 2.11908C17.6377 2.135 17.7278 2.29535 17.6825 2.47391C17.6688 2.53047 17.6432 2.58347 17.6074 2.6294C17.5716 2.67532 17.5265 2.71311 17.475 2.74027C17.429 2.76308 17.3776 2.77274 17.3264 2.76816C17.1731 2.75225 17.0838 2.59128 17.1297 2.41347C17.1428 2.35684 17.1681 2.30374 17.2038 2.25785C17.2395 2.21197 17.2847 2.17439 17.3364 2.14773V2.14773Z" fill="#FFFCED"/>
<path d="M19.8956 2.19838C19.5514 2.01461 19.2067 1.83171 18.8614 1.64967C18.8777 1.61 18.8947 1.57108 18.9143 1.53243L19.9478 2.08175C19.9289 2.11979 19.9093 2.15708 19.8956 2.19838Z" fill="#FE3030"/>
<path d="M19.8958 2.19842C19.6706 2.74723 19.7406 3.35842 20.1099 3.70686L19.0765 3.15754C18.7064 2.80971 18.637 2.19927 18.8616 1.64971C19.1101 1.78038 19.1101 1.78039 19.8958 2.19842Z" fill="#FE3030"/>
<path d="M13.0041 16.4526L11.9707 15.9033C12.2657 16.0593 12.575 16.1866 12.8943 16.2834L13.9278 16.8328C13.6085 16.7358 13.2992 16.6085 13.0041 16.4526Z" fill="#F67067"/>
<path d="M14.2442 14.8171C14.2901 14.7941 14.3416 14.7844 14.3928 14.7892C14.5453 14.8057 14.6354 14.9661 14.5902 15.1433C14.5769 15.2 14.5515 15.2532 14.5158 15.2992C14.4801 15.3453 14.435 15.3832 14.3834 15.4104C14.3373 15.4338 14.2855 15.4437 14.234 15.4389C14.0822 15.4217 13.9922 15.2614 14.0373 15.0842C14.0507 15.0275 14.0761 14.9743 14.1118 14.9282C14.1474 14.8821 14.1926 14.8442 14.2442 14.8171V14.8171Z" fill="#FFFCED"/>
<path d="M15.2513 16.4596L16.2877 17.0064C15.4986 17.1171 14.695 17.0574 13.9309 16.8314L12.8975 16.2821C13.6604 16.5085 14.463 16.569 15.2513 16.4596V16.4596Z" fill="#F50000"/>
<path d="M16.1731 15.0661L17.2073 15.6148C16.949 15.7513 16.7292 15.9505 16.5681 16.1941C16.4069 16.4377 16.3095 16.7179 16.2849 17.009L15.2515 16.4596C15.2761 16.1688 15.3734 15.8888 15.5344 15.6453C15.6955 15.4018 15.9151 15.2027 16.1731 15.0661V15.0661Z" fill="#FE3030"/>
<path d="M19.4712 1.78882L20.5046 2.33814C21.5773 2.90788 22.4488 3.86158 22.9748 5.13331L21.9414 4.58399C21.4168 3.31103 20.5454 2.35733 19.4712 1.78882Z" fill="#FB4242"/>
<path d="M18.9142 1.53234C20.2417 2.04482 21.3247 3.09937 21.9426 4.58256C21.8819 4.62486 21.8181 4.66246 21.7518 4.69504C21.3416 4.89584 20.8898 4.86539 20.5758 4.56924L19.0761 3.15741C18.6814 2.78717 18.6276 2.11016 18.9142 1.53234Z" fill="#F67067"/>
<path d="M21.233 5.81644C21.2655 5.79743 21.3021 5.78653 21.3397 5.78466C21.3773 5.78278 21.4148 5.79 21.449 5.80568C21.4832 5.82137 21.5131 5.84507 21.5363 5.87478C21.5594 5.90449 21.575 5.93933 21.5818 5.97635C21.5982 6.06153 21.5866 6.14971 21.5489 6.22779C21.5111 6.30587 21.4492 6.36967 21.3722 6.40973C21.3397 6.42851 21.3031 6.43922 21.2656 6.44098C21.2281 6.44274 21.1907 6.43549 21.1565 6.41983C21.1224 6.40418 21.0925 6.38057 21.0693 6.351C21.0461 6.32142 21.0304 6.28672 21.0234 6.24981C21.0073 6.16466 21.019 6.0766 21.0568 5.99859C21.0945 5.92057 21.1563 5.85673 21.233 5.81644V5.81644Z" fill="#FFFCED"/>
<path d="M18.2651 14.0405L19.2993 14.5892L17.2065 15.6138L16.1724 15.0651L18.2651 14.0405Z" fill="#FE3030"/>
<path d="M21.9423 4.58287L22.9758 5.13219C23.1165 5.47283 23.2291 5.82443 23.3124 6.18347C23.4209 6.64843 23.4853 7.12256 23.5048 7.5996L22.4714 7.05028C22.4504 6.57224 22.3852 6.09717 22.2765 5.63116C22.1933 5.27337 22.0815 4.92282 21.9423 4.58287V4.58287Z" fill="#F50000"/>
<path d="M23.3682 7.66156C23.1489 7.77619 22.9568 7.93668 22.805 8.13213C22.6532 8.32757 22.5452 8.5534 22.4884 8.79428L21.4536 8.24483C21.5109 8.0047 21.6188 7.7796 21.7702 7.58457C21.9216 7.38954 22.1128 7.22909 22.3312 7.11395C22.3768 7.09211 22.4236 7.07264 22.4712 7.0556C22.8154 7.23936 23.1598 7.42247 23.5046 7.60492C23.458 7.62085 23.4124 7.63977 23.3682 7.66156Z" fill="#FE3030"/>
<path d="M21.4536 8.24482L22.4878 8.79353L21.8939 11.2306L20.8599 10.6805L21.4536 8.24482Z" fill="#FE3030"/>
<path d="M19.6893 12.1505C19.7326 12.1261 19.7826 12.116 19.8321 12.1215C19.8815 12.127 19.928 12.148 19.9649 12.1814C20.0752 12.2839 20.0721 12.4879 19.9599 12.6337C19.9253 12.6789 19.8807 12.7155 19.8295 12.7405C19.7861 12.7646 19.7362 12.7746 19.6868 12.7691C19.6374 12.7636 19.5909 12.7428 19.5539 12.7097C19.4445 12.6052 19.4467 12.4031 19.5589 12.2573C19.5936 12.2122 19.6382 12.1757 19.6893 12.1505V12.1505Z" fill="#FFFCED"/>
<path d="M18.2658 14.0415C18.7519 13.8035 19.2425 13.9087 19.5306 14.2635C18.8924 14.8889 18.1592 15.4092 17.3583 15.8053C16.6959 16.1357 15.9844 16.3566 15.2515 16.4596C15.2761 16.1688 15.3734 15.8888 15.5344 15.6453C15.6955 15.4018 15.9151 15.2027 16.1731 15.0661L18.2658 14.0415Z" fill="#F67067"/>
<path d="M19.5306 14.2634L20.5648 14.8121C19.9262 15.4374 19.1931 15.9582 18.3923 16.3552C17.7303 16.6838 17.0197 16.9036 16.2878 17.0064L15.2544 16.457C15.9874 16.354 16.6989 16.1331 17.3613 15.8027C18.161 15.4071 18.8931 14.8876 19.5306 14.2634V14.2634Z" fill="#FB4242"/>
<path d="M21.8942 11.2305C21.8426 11.4139 21.8299 11.6059 21.8569 11.7945C21.8839 11.983 21.9501 12.1637 22.051 12.3252L21.017 11.7751C20.9166 11.6135 20.8509 11.4327 20.8241 11.2442C20.7974 11.0558 20.8101 10.8639 20.8615 10.6806L21.8942 11.2305Z" fill="#FE3030"/>
<path d="M22.051 12.3252C22.1132 12.4174 22.1909 12.4982 22.2805 12.5641L21.2464 12.0154C21.1568 11.9489 21.079 11.8679 21.0162 11.7757L21.1378 11.8401L21.266 11.9079L21.3987 11.9782L21.534 12.0501L21.6013 12.0864L21.6693 12.1221L21.802 12.1924L21.8667 12.227L21.9915 12.2938C22.0125 12.3019 22.0325 12.3124 22.051 12.3252Z" fill="#FE3030"/>
<path d="M21.2461 12.0154L22.2802 12.5641C21.8204 13.3925 21.2425 14.1497 20.5649 14.8119L19.5307 14.2632C20.2085 13.6011 20.7863 12.8439 21.2461 12.0154V12.0154Z" fill="#F50000"/>
<path d="M21.4538 8.24481C21.5111 8.00469 21.6191 7.77958 21.7705 7.58455C21.9218 7.38952 22.1131 7.22907 22.3314 7.11393C22.3771 7.09209 22.4238 7.07262 22.4714 7.05558C22.5463 8.747 22.0954 10.4935 21.2434 12.0179C20.8873 11.7574 20.7209 11.244 20.8577 10.6837L21.4538 8.24481Z" fill="#F67067"/>
<path d="M22.4741 7.05317L23.5051 7.59949C23.5807 9.2903 23.1298 11.0368 22.2778 12.5612L21.2436 12.0125C22.0939 10.4921 22.5496 8.74534 22.4741 7.05317Z" fill="#FB4242"/>
<path d="M18.2486 27.007L10.5892 22.5355L15.0097 20.3762L21.7392 15.615L26.4527 18.3667L25.6151 26.5675L25.908 31.4785L18.2486 27.007Z" fill="#C5C6D4"/>
<rect width="19.1028" height="1.36448" transform="matrix(-0.863607 -0.504166 -0.504166 0.863607 27.873 29.4658)" fill="#C5C6D4"/>
<path d="M11.0316 20.4241L9.9997 22.1916L18.2483 27.0071L26.497 31.8226L27.5289 30.055C28.0988 29.0788 27.7694 27.8255 26.7932 27.2556L13.831 19.6884C12.8548 19.1185 11.6015 19.4479 11.0316 20.4241Z" fill="#BDBECC"/>
<rect width="9.55138" height="2.04672" transform="matrix(-0.863607 -0.504166 -0.504166 0.863607 27.5288 30.0551)" fill="#80818E"/>
<rect width="9.55138" height="2.04672" transform="matrix(-0.863607 -0.504166 -0.504166 0.863607 19.2803 25.2395)" fill="#9E9FAD"/>
<rect x="15.5986" y="20.7203" width="2.04672" height="2.04672" transform="rotate(30.276 15.5986 20.7203)" fill="#DDDDDF"/>
<path d="M22.9173 16.303L24.0957 16.9909L18.6433 20.9177L17.4649 20.2298L22.9173 16.303Z" fill="#DDDDDF"/>
<path d="M25.2741 17.6788L24.0957 16.9909L23.3568 23.6695L24.5352 24.3574L25.2741 17.6788Z" fill="#9E9FAD"/>
<rect width="2.04673" height="2.04672" transform="matrix(0.863607 0.504165 -0.504166 0.863607 25.0259 26.2238)" fill="#9E9FAD"/>
<circle cx="27.5358" cy="11.0989" r="4.09345" transform="rotate(30.276 27.5358 11.0989)" fill="#CCCDDB"/>
<path d="M31.0707 13.1627C29.931 15.1151 27.4242 15.7739 25.4718 14.6341C23.5194 13.4943 22.8607 10.9876 24.0005 9.03516C24.0005 9.03516 23.8524 11.3187 26.5037 12.8665C29.1551 14.4143 31.0707 13.1627 31.0707 13.1627Z" fill="#9E9FAD"/>
<ellipse cx="26.9225" cy="8.76606" rx="1.02336" ry="1.02336" transform="rotate(30.276 26.9225 8.76606)" fill="#DDDDDF"/>
<path d="M29.3514 16.1087L22.2812 11.9812L20.0709 13.0608L29.4979 18.5642L29.3514 16.1087Z" fill="#BDBECC"/>
<path d="M23.4591 12.6691L24.6375 13.3571L22.4273 14.4367L21.2489 13.7488L23.4591 12.6691Z" fill="#DDDDDF"/>
<path d="M28.1727 15.4207L26.9943 14.7328L27.1408 17.1883L28.3192 17.8762L28.1727 15.4207Z" fill="#9E9FAD"/>
<path d="M27.6312 19.0546L20.5609 14.9271L20.0705 13.0608L29.4975 18.5642L27.6312 19.0546Z" fill="#80818E"/>
<rect width="8.1869" height="1.36448" transform="matrix(0.863607 0.504166 0.504166 -0.863607 13.8315 19.6882)" fill="#9E9FAD"/>
<rect width="7.50465" height="1.36448" transform="matrix(0.863607 0.504166 0.504166 -0.863607 20.3125 23.4718)" fill="#80818E"/>
<path d="M13.1601 24.528L14.8603 27.3459L8.86654 28.5302L0.446882 14.0257C0.36011 13.8785 0.306275 13.7143 0.289053 13.5444C0.272602 13.3827 0.290503 13.2193 0.341591 13.0649C0.392829 12.909 0.475359 12.765 0.584157 12.6417C0.700156 12.5109 0.840978 12.4041 0.998491 12.3277L11.4354 7.24377C11.5864 7.17526 11.7489 7.13572 11.9144 7.12721C12.075 7.11756 12.2359 7.13675 12.3895 7.18388C12.5425 7.22891 12.6861 7.30051 12.814 7.39538C12.9446 7.49148 13.056 7.61109 13.1424 7.74804L13.5032 8.32158L16.1964 18.8185C16.0537 18.7846 17.3372 22.7017 17.1906 22.6935C17.0455 22.6854 16.8999 22.6905 16.7556 22.7089C16.6085 22.7275 16.4633 22.7584 16.3213 22.8013C16.1729 22.8477 16.0281 22.9051 15.8883 22.9732L13.2869 24.2384C13.2601 24.2517 13.2358 24.2695 13.2151 24.291C13.1953 24.3118 13.1796 24.336 13.1686 24.3625C13.1574 24.3884 13.1511 24.4162 13.1502 24.4444C13.1481 24.4727 13.1515 24.501 13.1601 24.528Z" fill="white"/>
<path d="M11.7493 17.7736L11.7421 17.7754L11.7338 17.7775L11.7183 17.7815L11.2748 18.0067L11.7174 16.0822C11.7655 16.1028 11.8111 16.129 11.8531 16.1601C11.8963 16.1919 11.9355 16.2286 11.9702 16.2694C12.0072 16.3117 12.0399 16.3577 12.0677 16.4064C12.0976 16.4607 12.1232 16.5172 12.1442 16.5755C12.1654 16.6362 12.1815 16.6986 12.1921 16.7621C12.2044 16.8211 12.2117 16.8811 12.2139 16.9414C12.2152 17.0003 12.2116 17.0593 12.2031 17.1176C12.1937 17.1761 12.1791 17.2337 12.1595 17.2897C12.1434 17.3414 12.1221 17.3914 12.096 17.4389C12.0696 17.4857 12.0382 17.5294 12.0022 17.5694C11.9676 17.6102 11.9284 17.6471 11.8854 17.6791C11.8433 17.715 11.7977 17.7466 11.7493 17.7736V17.7736Z" fill="#F9FAFF"/>
<path d="M20.61 23.1214C20.6252 23.1125 20.6411 23.1051 20.6577 23.0991C20.6727 23.0932 20.6883 23.0892 20.7042 23.0871C20.7195 23.0853 20.735 23.0856 20.7503 23.088C20.7648 23.0906 20.779 23.0946 20.7928 23.0999C20.8068 23.1063 20.8202 23.1138 20.8329 23.1225C20.8464 23.1316 20.8587 23.1425 20.8692 23.155C20.8802 23.1677 20.89 23.1812 20.8987 23.1955C20.9083 23.2116 20.9161 23.2287 20.922 23.2465C20.9279 23.2648 20.9327 23.2835 20.9363 23.3024C20.942 23.3195 20.9465 23.3369 20.9497 23.3547C20.9505 23.3721 20.9499 23.3897 20.9479 23.407C20.9469 23.4247 20.9437 23.4421 20.9383 23.4589C20.9346 23.4744 20.929 23.4894 20.9218 23.5037C20.9151 23.5169 20.9073 23.5295 20.8984 23.5413C20.8891 23.5538 20.8783 23.565 20.8663 23.5749C20.8539 23.5855 20.8406 23.5949 20.8264 23.6029L20.818 23.605L20.6056 23.7241C20.5966 23.7295 20.5862 23.7322 20.5758 23.7317C20.5654 23.7321 20.555 23.7304 20.5453 23.7269C20.5354 23.723 20.5265 23.7171 20.5192 23.7095C20.5113 23.7015 20.5053 23.6918 20.5017 23.6811L20.3654 23.3235C20.362 23.3155 20.3599 23.3071 20.359 23.2985C20.3586 23.29 20.3599 23.2815 20.3628 23.2735C20.3653 23.2657 20.3689 23.2584 20.3737 23.2517C20.3794 23.2452 20.3862 23.2396 20.3936 23.2352L20.61 23.1214Z" fill="#F9FAFF"/>
<path d="M11.0496 16.1318C11.1064 16.1036 11.1655 16.08 11.2261 16.0612C11.2811 16.045 11.3376 16.0343 11.3948 16.0293C11.4485 16.0254 11.5024 16.0277 11.5556 16.0362C11.6074 16.0455 11.658 16.061 11.7061 16.0824L11.2635 18.0069L10.9255 18.1772C10.8916 18.195 10.854 18.2046 10.8157 18.2054C10.7787 18.2069 10.7419 18.2004 10.7078 18.1862C10.6732 18.173 10.6419 18.1525 10.616 18.1262C10.5893 18.0993 10.5689 18.067 10.5561 18.0314L10.1276 16.8078C10.1178 16.7805 10.1134 16.7515 10.1146 16.7225C10.1155 16.6945 10.1213 16.6668 10.1319 16.6408C10.1432 16.6149 10.1585 16.5909 10.1772 16.5696C10.1976 16.5484 10.2215 16.5307 10.2478 16.5173L11.0496 16.1318Z" fill="white"/>
<path d="M2.56067 13.2137C2.5778 13.2054 2.59567 13.1987 2.61405 13.1937C2.63002 13.1883 2.64639 13.1841 2.66299 13.1812C2.67899 13.1808 2.69499 13.1818 2.71081 13.1841C2.72602 13.1862 2.74083 13.1905 2.75479 13.1969C2.76969 13.2028 2.7837 13.2107 2.79645 13.2204C2.80917 13.2296 2.82084 13.2402 2.83127 13.252C2.84198 13.2647 2.85146 13.2783 2.85957 13.2928C2.86768 13.3087 2.87447 13.3251 2.87984 13.3421C2.8855 13.3592 2.88998 13.3766 2.89326 13.3944C2.89605 13.4116 2.89753 13.429 2.8977 13.4464C2.89695 13.4631 2.89485 13.4798 2.89139 13.4962C2.88853 13.513 2.8838 13.5295 2.87729 13.5454C2.87149 13.56 2.86447 13.5741 2.85628 13.5875C2.84768 13.6004 2.83805 13.6126 2.8275 13.624C2.81602 13.6351 2.80378 13.6454 2.79089 13.6549L2.74651 13.6802L2.73814 13.6824L2.50265 13.7909C2.49264 13.796 2.48164 13.7988 2.47042 13.7992C2.45947 13.7994 2.44859 13.7975 2.43842 13.7935C2.42901 13.7888 2.42024 13.783 2.41233 13.7761C2.40522 13.7681 2.3998 13.7587 2.39636 13.7485L2.28222 13.3979C2.27838 13.3906 2.27629 13.3824 2.27612 13.3741C2.27633 13.3662 2.27824 13.3584 2.28169 13.3512C2.28442 13.3434 2.28923 13.3364 2.29562 13.3311C2.30192 13.3249 2.30916 13.3196 2.31706 13.3155L2.56067 13.2137Z" fill="white"/>
<path d="M23.0819 23.5243C23.1752 23.6784 23.2402 23.8478 23.2739 24.0247C23.3052 24.1894 23.3055 24.3585 23.2746 24.5235C23.245 24.6822 23.1839 24.8335 23.0949 24.9685C23.0042 25.1058 22.8855 25.2226 22.7465 25.3112L12.3739 31.7717C12.2099 31.868 12.0286 31.9313 11.8403 31.958C11.6616 31.9823 11.48 31.9717 11.3056 31.9267C11.1323 31.8817 10.9698 31.8028 10.8275 31.6948C10.6811 31.5817 10.5586 31.441 10.4668 31.2807L8.87189 28.5353L10.1394 23.0178L10.2022 23.2031C10.2153 23.2404 10.2366 23.2743 10.2646 23.3023C10.291 23.3289 10.3228 23.3497 10.3578 23.3632C10.3934 23.3772 10.4314 23.3838 10.4697 23.3827C10.5087 23.3815 10.547 23.3716 10.5818 23.3539L11.9765 22.6161C12.0038 22.602 12.0282 22.5828 12.0485 22.5597C12.0677 22.5373 12.0831 22.512 12.0941 22.4846C12.104 22.4569 12.1094 22.4277 12.1101 22.3982C12.1103 22.3676 12.1055 22.3372 12.0959 22.3082L11.3534 20.1976C11.343 20.1692 11.3378 20.1392 11.3383 20.109C11.3387 20.0797 11.3446 20.0506 11.3558 20.0235C11.3659 19.9966 11.3812 19.972 11.4009 19.9511C11.421 19.9292 11.4446 19.9107 11.4708 19.8965L11.9 19.6749C11.9234 19.6624 11.9487 19.6538 11.9748 19.6494C12.0005 19.6454 12.0265 19.6451 12.0522 19.6485C12.0783 19.6519 12.1036 19.659 12.1276 19.6697C12.152 19.6801 12.1746 19.6944 12.1945 19.7121L14.0477 21.3173C14.0673 21.3357 14.0901 21.3504 14.1149 21.3608C14.139 21.371 14.1644 21.3781 14.1903 21.382C14.2164 21.3844 14.2427 21.3836 14.2686 21.3797C14.2942 21.3748 14.319 21.3663 14.3422 21.3544L15.6659 20.6476C15.7022 20.6285 15.7327 20.6001 15.7542 20.5654C15.7757 20.5326 15.7884 20.4949 15.791 20.4559C15.7939 20.4144 15.7872 20.3728 15.7713 20.3343C15.7541 20.2954 15.7283 20.2609 15.6958 20.2334L13.7503 18.6011C13.7244 18.5808 13.7031 18.5552 13.6878 18.526C13.6729 18.4984 13.663 18.4683 13.6587 18.4372C13.6542 18.4065 13.6557 18.3752 13.663 18.3449C13.6694 18.3141 13.6817 18.2847 13.6993 18.2584C13.7543 18.1755 13.805 18.0898 13.851 18.0016C13.8962 17.915 13.9367 17.826 13.9721 17.735C14.0075 17.6448 14.0373 17.5525 14.0616 17.4588C14.0849 17.3656 14.1031 17.2713 14.1163 17.1763C14.1364 17.0608 14.149 16.9442 14.154 16.8272C14.1575 16.7109 14.1527 16.5944 14.1396 16.4788C14.1272 16.3603 14.1072 16.2428 14.0799 16.1269C14.0516 16.0073 14.0162 15.8895 13.9741 15.7741C13.9108 15.5981 13.8303 15.4287 13.7337 15.2684C13.6431 15.1173 13.5354 14.9771 13.4127 14.8505C13.2915 14.7262 13.1565 14.616 13.0104 14.5219C12.8571 14.4242 12.6938 14.343 12.5233 14.2796L12.435 14.2478C12.4041 14.2367 12.3751 14.2277 12.3449 14.219C12.3147 14.2103 12.2856 14.2013 12.2554 14.1926L12.1659 14.1712L13.5065 8.32851L23.0819 23.5243Z" fill="#F9FAFF"/>
<path d="M21.6377 23.9045C21.634 23.9126 21.6315 23.9211 21.6301 23.9298C21.6311 23.9385 21.6334 23.9471 21.6367 23.9552C21.6371 23.9641 21.6393 23.9728 21.6433 23.9807C21.647 23.989 21.6525 23.9964 21.6593 24.0024L22.1946 24.4745C22.2018 24.4802 22.2083 24.4868 22.2139 24.4941C22.2187 24.5017 22.2229 24.5097 22.2266 24.5179C22.23 24.526 22.2322 24.5346 22.2332 24.5433C22.236 24.5516 22.2382 24.5601 22.2398 24.5688L22.2349 24.5946C22.2322 24.6028 22.2286 24.6106 22.2242 24.6181C22.2197 24.6251 22.2145 24.6317 22.2086 24.6376C22.2029 24.6436 22.1964 24.6487 22.1893 24.653L21.7995 24.8837C21.7892 24.8883 21.7781 24.8912 21.7668 24.8923C21.7562 24.8938 21.7454 24.8941 21.7347 24.8929C21.7234 24.8918 21.7124 24.8885 21.7024 24.8832C21.6914 24.8786 21.6814 24.872 21.6728 24.8637L21.1869 24.4175C21.1811 24.4124 21.1747 24.408 21.1679 24.4043C21.161 24.401 21.1534 24.3991 21.1458 24.3985C21.1386 24.399 21.1316 24.4008 21.1252 24.4038C21.1176 24.4045 21.1103 24.4064 21.1034 24.4095L21.0448 24.4428L21.0259 24.4594C21.0213 24.466 21.0175 24.473 21.0145 24.4804C21.0124 24.4883 21.0115 24.4963 21.0117 24.5044C21.0127 24.5132 21.015 24.5218 21.0184 24.5299L21.239 25.0994C21.2448 25.1116 21.2482 25.1247 21.2491 25.1382C21.2495 25.1508 21.248 25.1634 21.2446 25.1756C21.2403 25.1869 21.2344 25.1976 21.227 25.2073C21.2191 25.2174 21.2096 25.226 21.1987 25.2327L20.7968 25.4666L20.7738 25.4726L20.7508 25.4786L20.729 25.4843L20.7052 25.4775C20.6977 25.4741 20.6905 25.4699 20.6839 25.465C20.6772 25.4604 20.671 25.455 20.6655 25.4491C20.6596 25.4434 20.6544 25.4369 20.6501 25.4298C20.6469 25.4225 20.6449 25.4148 20.6442 25.4068L19.8386 23.305C19.8335 23.293 19.8302 23.2804 19.8288 23.2675C19.8293 23.2547 19.8312 23.2421 19.8345 23.2298C19.8384 23.2182 19.8443 23.2075 19.8521 23.198C19.8599 23.1887 19.8691 23.1806 19.8795 23.1741L20.5954 22.7706C20.6444 22.7428 20.696 22.7199 20.7495 22.702C20.7999 22.685 20.8521 22.674 20.9051 22.6693C20.9571 22.6646 21.0094 22.6658 21.0611 22.6726C21.1148 22.6793 21.1676 22.692 21.2184 22.7106C21.2704 22.7283 21.32 22.7523 21.3662 22.782C21.4113 22.809 21.4528 22.8417 21.4898 22.8791C21.5292 22.92 21.5639 22.9651 21.5933 23.0137C21.6257 23.0665 21.6531 23.1221 21.6753 23.1799C21.6978 23.2415 21.7144 23.3052 21.7248 23.3699C21.7364 23.43 21.7415 23.4911 21.7399 23.5522C21.738 23.6125 21.7293 23.6724 21.714 23.7308C21.6946 23.7912 21.669 23.8494 21.6377 23.9045V23.9045ZM21.0645 23.4901C21.0586 23.4759 21.052 23.4621 21.0446 23.4487C21.038 23.4369 21.0299 23.426 21.0207 23.4162C21.0129 23.4069 21.0038 23.3988 20.9937 23.3922C20.9846 23.3855 20.9745 23.3802 20.9638 23.3767C20.9538 23.3713 20.9429 23.368 20.9316 23.367C20.9208 23.3649 20.9097 23.3643 20.8988 23.3652L20.8637 23.3743C20.8504 23.3759 20.8373 23.3793 20.8249 23.3844L20.6662 23.4748C20.659 23.4793 20.6526 23.4849 20.6472 23.4914C20.642 23.4975 20.6381 23.5047 20.6359 23.5124C20.6332 23.5203 20.6318 23.5285 20.6319 23.5368C20.6329 23.5455 20.6351 23.5541 20.6385 23.5622L20.7328 23.8052L20.7369 23.821C20.7377 23.8259 20.7389 23.8308 20.7407 23.8355C20.7444 23.8394 20.7487 23.8426 20.7535 23.8451C20.7578 23.8489 20.7629 23.8515 20.7684 23.8529L20.7828 23.8582L20.7973 23.8544L20.8118 23.8506L20.8264 23.8468L20.9637 23.7684L20.9734 23.7659L21.0053 23.7447C21.0147 23.7368 21.0232 23.7281 21.0309 23.7186L21.0515 23.6887C21.0571 23.6781 21.0616 23.667 21.0648 23.6555C21.0695 23.6426 21.0725 23.6292 21.0739 23.6156C21.0754 23.6021 21.0762 23.5886 21.0762 23.575C21.0737 23.5601 21.0699 23.5456 21.0649 23.5314C21.0621 23.5158 21.058 23.5004 21.0529 23.4854" fill="#FF9900"/>
<path d="M3.36757 13.7902C3.36244 13.7976 3.3589 13.806 3.35719 13.8149C3.35558 13.8231 3.35514 13.8314 3.3559 13.8398C3.35629 13.8486 3.35854 13.8573 3.36252 13.8652C3.36633 13.873 3.37167 13.88 3.37821 13.8857L3.90344 14.354C3.91 14.3596 3.91595 14.3658 3.92122 14.3726C3.92401 14.3805 3.92612 14.3886 3.92752 14.3968C3.9302 14.4048 3.9323 14.4128 3.93383 14.4211C3.93703 14.4288 3.93915 14.437 3.94013 14.4453C3.93906 14.4538 3.93689 14.4622 3.9337 14.4702L3.92116 14.4916C3.91594 14.4987 3.90976 14.5051 3.90282 14.5106C3.8958 14.5157 3.88834 14.5203 3.88051 14.5241L3.44794 14.7298C3.43719 14.7345 3.42574 14.7375 3.41404 14.7386C3.40249 14.7406 3.39071 14.7406 3.37916 14.7387C3.36745 14.7368 3.35606 14.7332 3.34536 14.7281C3.33494 14.723 3.32536 14.7163 3.31696 14.7083L2.84175 14.2683C2.83613 14.2626 2.82963 14.2577 2.82249 14.254L2.79996 14.2469C2.79245 14.2476 2.7851 14.2495 2.77818 14.2526L2.75516 14.2585L2.68963 14.2898C2.68195 14.2935 2.67491 14.2984 2.66882 14.3043C2.66309 14.3103 2.65836 14.3173 2.65477 14.3248C2.65158 14.3322 2.6497 14.3401 2.64922 14.3482C2.65013 14.3565 2.65225 14.3647 2.65552 14.3724L2.84049 14.9241C2.84613 14.9354 2.84935 14.9478 2.84995 14.9604C2.84923 14.9728 2.84625 14.985 2.84119 14.9963C2.83672 15.008 2.82979 15.0187 2.82086 15.0275C2.81166 15.0367 2.80095 15.0443 2.78921 15.0499L2.34396 15.2615C2.33584 15.2649 2.32728 15.2671 2.31854 15.2681L2.29553 15.2741L2.27033 15.2716L2.24537 15.2652C2.23782 15.2618 2.23066 15.2576 2.22401 15.2526C2.21746 15.2484 2.21141 15.2435 2.20597 15.2379C2.20033 15.2321 2.19557 15.2255 2.19182 15.2183C2.18914 15.2109 2.18714 15.2032 2.18584 15.1953L1.51256 13.1599C1.5076 13.1483 1.50442 13.1361 1.50311 13.1236C1.50394 13.1116 1.507 13.0998 1.51217 13.0889C1.51714 13.0777 1.52415 13.0676 1.53283 13.059C1.54179 13.0495 1.55254 13.0418 1.56446 13.0365L2.35477 12.6705C2.40901 12.6447 2.46548 12.624 2.52349 12.6085C2.57842 12.5945 2.6345 12.5856 2.69104 12.5817C2.74625 12.5789 2.8016 12.5818 2.8562 12.5904C2.91195 12.5986 2.9667 12.6125 3.01957 12.6319C3.07184 12.6498 3.12163 12.6742 3.16774 12.7045C3.21229 12.732 3.25336 12.7647 3.29006 12.802C3.32731 12.8419 3.35999 12.8859 3.38752 12.933C3.41653 12.9848 3.44062 13.0391 3.45949 13.0953C3.4811 13.1533 3.49673 13.2133 3.50612 13.2745C3.51278 13.333 3.51254 13.3921 3.5054 13.4505C3.49863 13.5089 3.48492 13.5663 3.46456 13.6214C3.43845 13.681 3.40594 13.7376 3.36757 13.7902V13.7902ZM2.79614 13.3778C2.79322 13.3635 2.78954 13.3494 2.78511 13.3355C2.77829 13.3245 2.77079 13.3139 2.76265 13.3038C2.75528 13.2945 2.74661 13.2863 2.73693 13.2795C2.72729 13.2726 2.7167 13.2671 2.70551 13.2631C2.69513 13.2582 2.68419 13.2545 2.67293 13.2522L2.63772 13.251L2.60019 13.2608L2.55903 13.2715L2.38381 13.3533C2.37575 13.357 2.36832 13.362 2.3618 13.3681L2.34775 13.3885C2.34456 13.396 2.34268 13.4039 2.3422 13.412C2.34232 13.42 2.34437 13.4279 2.34818 13.435L2.42695 13.673C2.42766 13.678 2.42892 13.6829 2.43073 13.6876C2.43151 13.6925 2.43278 13.6974 2.43451 13.7021C2.43805 13.7058 2.44195 13.7091 2.44615 13.712L2.46109 13.7197L2.47661 13.7247L2.49235 13.7206L2.52262 13.7128L2.67368 13.6424L2.68578 13.6393L2.72079 13.6198C2.73141 13.6135 2.74113 13.6057 2.7497 13.5968C2.75853 13.5882 2.76646 13.5788 2.7734 13.5686C2.78039 13.5587 2.7863 13.5481 2.791 13.5369C2.79683 13.525 2.80137 13.5126 2.8046 13.4998C2.80764 13.4867 2.80893 13.4733 2.80846 13.46C2.80864 13.4459 2.8076 13.4319 2.80533 13.4181C2.80277 13.4033 2.79897 13.3887 2.79399 13.3745" fill="#FF9900"/>
<path d="M14.0261 18.2284C14.0104 18.2547 14 18.2838 13.9954 18.314C13.9902 18.3435 13.9902 18.3737 13.9953 18.4032C13.9972 18.433 14.0048 18.4622 14.0177 18.4892C14.0326 18.516 14.0515 18.5403 14.0739 18.5612L15.899 20.174C15.9221 20.1944 15.9432 20.2171 15.9618 20.2417C15.9792 20.2664 15.9939 20.2929 16.0057 20.3208C16.0167 20.3484 16.0242 20.3772 16.028 20.4067C16.0331 20.4363 16.0344 20.4663 16.0319 20.4962C16.0295 20.5259 16.0236 20.5551 16.0146 20.5835C16.0056 20.6112 15.9929 20.6375 15.9768 20.6618C15.9615 20.6863 15.943 20.7085 15.9216 20.7279C15.8998 20.7478 15.8756 20.7649 15.8496 20.779L14.4464 21.532C14.4117 21.5511 14.3739 21.564 14.3348 21.5701C14.2961 21.5772 14.2566 21.5778 14.2177 21.5721C14.1784 21.5663 14.1402 21.5549 14.1041 21.5383C14.0669 21.5206 14.0325 21.4973 14.0021 21.4692L12.342 19.9337C12.3224 19.9146 12.2995 19.8991 12.2745 19.8879C12.2505 19.8761 12.2248 19.868 12.1984 19.8638C12.1723 19.8602 12.1458 19.8606 12.1198 19.8648C12.0935 19.8672 12.0677 19.8739 12.0435 19.8847L11.8286 19.9975C11.8024 20.011 11.7791 20.0294 11.7599 20.0516C11.7415 20.073 11.7269 20.0974 11.7166 20.1236C11.7068 20.1506 11.7015 20.1791 11.701 20.2078C11.7011 20.2378 11.7062 20.2675 11.7161 20.2957L12.4175 22.2553C12.4333 22.2981 12.4411 22.3433 12.4406 22.3889C12.4409 22.4329 12.433 22.4766 12.4173 22.5178C12.4022 22.5588 12.3796 22.5967 12.3507 22.6295C12.3208 22.6644 12.2844 22.6932 12.2435 22.7143L10.7561 23.5164C10.7316 23.5305 10.7053 23.5413 10.6779 23.5484C10.6507 23.5555 10.6229 23.5601 10.5948 23.5622C10.5663 23.5632 10.5378 23.5615 10.5095 23.5573C10.4808 23.5527 10.4527 23.5449 10.4258 23.5338C10.3989 23.523 10.3733 23.5093 10.3493 23.493C10.3258 23.4771 10.3037 23.459 10.2835 23.439C10.2638 23.4182 10.2463 23.3955 10.231 23.3712C10.2163 23.3463 10.2039 23.3201 10.1938 23.293L7.674 16.0952C7.66059 16.0552 7.65403 16.0132 7.65459 15.971C7.65654 15.9291 7.66547 15.8879 7.68102 15.849C7.69685 15.8098 7.71998 15.7739 7.74919 15.7434C7.78058 15.711 7.81739 15.6843 7.85797 15.6646L10.4553 14.3887C10.5998 14.3169 10.7495 14.2559 10.903 14.2063C11.0487 14.1597 11.1979 14.1251 11.3493 14.1031C11.4963 14.0816 11.6448 14.0724 11.7933 14.0754C11.9415 14.0793 12.0891 14.0963 12.2344 14.1261C12.2696 14.1324 12.304 14.1403 12.3372 14.1484C12.3703 14.1566 12.4062 14.1654 12.44 14.176C12.4738 14.1866 12.5085 14.1957 12.5422 14.2062L12.6445 14.2417C12.8197 14.3042 12.9873 14.3864 13.144 14.4866C13.2978 14.5854 13.4393 14.7022 13.5655 14.8345C13.6962 14.9711 13.811 15.1221 13.9076 15.2846C14.0133 15.4594 14.1013 15.6444 14.1702 15.8368C14.2481 16.0371 14.3048 16.2451 14.3395 16.4572C14.3722 16.6577 14.3818 16.8612 14.3681 17.0638C14.3563 17.2642 14.3211 17.4625 14.2633 17.6548C14.2052 17.854 14.1256 18.0463 14.0261 18.2284V18.2284ZM12.0643 16.8154C12.0472 16.7679 12.0262 16.7219 12.0014 16.6779C11.9791 16.6392 11.9531 16.6026 11.9238 16.5688C11.8981 16.5373 11.8683 16.5094 11.835 16.4859C11.804 16.4626 11.77 16.4436 11.7338 16.4296C11.6969 16.4135 11.6583 16.4019 11.6187 16.3949C11.5794 16.3884 11.5395 16.3866 11.4997 16.3896C11.4581 16.3941 11.417 16.4022 11.3768 16.4139C11.331 16.4286 11.2865 16.4471 11.2438 16.4692L10.6724 16.7575C10.6462 16.7705 10.6228 16.7885 10.6034 16.8104C10.5848 16.8308 10.5699 16.8544 10.5595 16.88C10.5496 16.906 10.5445 16.9336 10.5445 16.9614C10.5443 16.991 10.5493 17.0203 10.5593 17.0481L10.8528 17.8676C10.8587 17.8849 10.8665 17.9015 10.876 17.9171C10.8865 17.9327 10.8981 17.9474 10.9107 17.9611C10.9237 17.9744 10.9381 17.9862 10.9535 17.9965C10.9691 18.0067 10.9857 18.0154 11.0029 18.0224C11.0204 18.0298 11.0387 18.035 11.0574 18.038C11.0756 18.0414 11.0942 18.0427 11.1127 18.0417C11.1304 18.039 11.1479 18.0345 11.1647 18.0282C11.1829 18.0253 11.2008 18.0207 11.218 18.0143L11.404 17.9193L11.7144 17.761L11.7217 17.7591L11.7374 17.755L11.7447 17.7531C11.7835 17.7326 11.8206 17.7091 11.8557 17.6828C11.8901 17.6583 11.9217 17.6301 11.9502 17.5988C11.9787 17.5696 12.0037 17.537 12.0245 17.5019C12.0462 17.4662 12.0646 17.4285 12.0792 17.3894C12.0967 17.3471 12.1095 17.303 12.1174 17.2579C12.1254 17.2142 12.1295 17.1699 12.1295 17.1255C12.1285 17.077 12.1229 17.0286 12.1126 16.9812C12.1035 16.929 12.0901 16.8775 12.0726 16.8274" fill="#FF9900"/>
</g>
<defs>
<clipPath id="clip0_3678_23729">
<rect width="32" height="32" fill="white"/>
</clipPath>
</defs>
</svg>
