<svg width="20" height="20" viewBox="0 0 20 20" fill="none" xmlns="http://www.w3.org/2000/svg">
<g clip-path="url(#clip0_935_23619)">
<path d="M12.8751 2.03506L19.1252 3.72218C19.7528 3.8916 20.1253 4.54148 19.9571 5.17373L17.3689 14.9045C17.2008 15.5368 16.5556 15.912 15.928 15.7426L9.67794 14.0555C9.05033 13.8861 8.67788 13.2362 8.84604 12.6039L11.4342 2.87312C11.6024 2.24086 12.2475 1.86565 12.8751 2.03506ZM16.8161 7.72641C16.4255 7.04487 15.6227 6.75257 14.9081 6.98461C14.4044 6.42371 13.564 6.27247 12.8875 6.66596C12.1088 7.11888 11.842 8.12197 12.2916 8.90645L13.4354 10.9023C13.5978 11.1858 13.9576 11.2829 14.2389 11.1192L16.2202 9.9669C16.9989 9.51399 17.2657 8.51089 16.8161 7.72641ZM15.6319 8.94052L14.1601 9.79653L13.3104 8.31385C13.1857 8.09624 13.2597 7.81798 13.4757 7.69234C13.6917 7.56671 13.9679 7.64127 14.0927 7.85888L14.1966 8.04033C14.3591 8.32376 14.7188 8.42087 15.0002 8.25723L15.1803 8.15247C15.3963 8.02683 15.6725 8.1014 15.7972 8.31901C15.9219 8.53662 15.8479 8.81488 15.6319 8.94052Z" fill="#FE3030"/>
<path d="M9.8184 4.36934L9.55417 4.05879C9.31941 3.78287 8.89568 3.78287 8.66092 4.05879L6.89621 6.13287C6.7074 6.35479 6.7074 6.68225 6.89621 6.90417L8.60881 8.91701L7.70974 12.2972C7.6967 12.3463 7.68528 12.3954 7.67545 12.4444H6.7546C6.10485 12.4444 5.57812 11.9138 5.57812 11.2593V1.18519C5.57812 0.530625 6.10485 0 6.7546 0H13.2252C13.8749 0 14.4017 0.530625 14.4017 1.18519V1.22018L13.1797 0.890318C11.9245 0.551492 10.6343 1.30191 10.2979 2.56642L9.8184 4.36934ZM9.44937 5.75676L8.97784 7.52959L8.11758 6.51852L9.10754 5.35502L9.44937 5.75676Z" fill="#0085FF"/>
<path d="M7.7403 13.6296C7.85489 13.9912 8.05442 14.3214 8.32166 14.5901L4.05188 15.7427C3.42427 15.9121 2.77916 15.5369 2.611 14.9046L0.022801 5.17381C-0.145366 4.54155 0.227085 3.89168 0.854692 3.72227L4.40186 2.76477V6.43599C4.20394 6.44114 4.01329 6.54682 3.90704 6.7322L2.76319 8.72808C2.3136 9.51255 2.58042 10.5157 3.35913 10.9686C3.68721 11.1594 4.0538 11.2221 4.40186 11.1721V11.2592C4.40186 12.5684 5.45531 13.6296 6.7548 13.6296H7.7403ZM4.40186 9.94057C4.26631 10.0206 4.09314 10.027 3.94736 9.94218C3.73135 9.81654 3.65733 9.53828 3.78205 9.32067L4.40186 8.23916V9.94057Z" fill="#FFC700"/>
</g>
<defs>
<clipPath id="clip0_935_23619">
<rect width="20" height="20" fill="white"/>
</clipPath>
</defs>
</svg>
