<svg width="32" height="32" viewBox="0 0 32 32" fill="none" xmlns="http://www.w3.org/2000/svg">
<g clip-path="url(#clip0_3678_24120)">
<path d="M5.98743 18.898C5.97732 18.8779 5.96858 18.8572 5.96128 18.836C5.81924 18.497 5.6772 18.1577 5.53516 17.8181C5.58689 17.8832 5.62926 17.9553 5.66106 18.0321L6.11333 19.112C6.08057 19.0356 6.03827 18.9637 5.98743 18.898Z" fill="#FE3030"/>
<path d="M7.65495 19.3163L7.46126 18.8466L7.20752 18.2364C7.26332 18.2239 7.3212 18.2239 7.377 18.2364L7.4293 18.3633L7.48547 18.497L7.54358 18.6354L7.60265 18.7768L7.66173 18.9182L7.71984 19.0567L7.77601 19.1904L7.82831 19.3172C7.77143 19.3031 7.71199 19.3028 7.65495 19.3163Z" fill="#FE3030"/>
<path d="M7.82338 19.3153L7.37207 18.2345L7.42437 18.3614L7.48054 18.495L7.53865 18.6335L7.59772 18.7749L7.6568 18.9163L7.71491 19.0548L7.77108 19.1884L7.82338 19.3153Z" fill="#FE3030"/>
<path d="M8.95075 18.9695L8.50332 17.8896C8.40884 17.6558 8.40642 17.3949 8.49654 17.1594L8.95075 18.2393C8.85846 18.4739 8.85846 18.7348 8.95075 18.9695Z" fill="#FE3030"/>
<path d="M6.90918 18.583L6.94888 18.6799L6.98956 18.7767L7.03217 18.8784L7.07576 18.983L7.12031 19.0885L7.16485 19.1951L7.20844 19.3006L7.25202 19.4043L6.90918 18.584L6.90918 18.583Z" fill="#FE3030"/>
<path d="M7.36139 19.663C7.36329 19.6827 7.36819 19.702 7.37592 19.7201L6.92461 18.6393C6.91685 18.6214 6.91164 18.6025 6.90912 18.5832C7.0602 18.9434 7.21063 19.3034 7.36042 19.663C7.21063 19.3027 7.0602 18.9428 6.90912 18.5832C6.88975 18.4331 7.02146 18.2771 7.19966 18.2365L7.65193 19.3163C7.47277 19.357 7.34105 19.5168 7.36139 19.663Z" fill="#FE3030"/>
<path d="M8.00448 19.4567C7.98768 19.4205 7.96249 19.3887 7.931 19.3641C7.8995 19.3396 7.86261 19.3228 7.82338 19.3153L7.37207 18.2345C7.4112 18.2423 7.44793 18.2593 7.47924 18.284C7.51054 18.3088 7.53555 18.3406 7.5522 18.3769L8.00448 19.4567Z" fill="#FE3030"/>
<path d="M5.6574 18.032L6.10968 19.1118C6.29756 19.5622 6.10968 20.1307 5.60511 20.5122L5.15283 19.4324C5.66225 19.0508 5.8511 18.4823 5.6574 18.032Z" fill="#F67067"/>
<path d="M7.5524 18.377L8.00468 19.4568C8.01156 19.4749 8.01643 19.4938 8.0192 19.513C8.0376 19.6631 7.90686 19.819 7.72866 19.8597C7.67292 19.8727 7.61492 19.8727 7.55918 19.8597C7.52014 19.852 7.48348 19.8351 7.45218 19.8106C7.42088 19.786 7.39582 19.7544 7.37904 19.7183L6.92773 18.6375C6.94395 18.6738 6.96872 18.7056 6.99993 18.7302C7.03113 18.7548 7.06784 18.7715 7.1069 18.7789C7.16264 18.7919 7.22065 18.7919 7.27638 18.7789C7.45749 18.7382 7.5892 18.5852 7.56693 18.4322C7.56463 18.4132 7.55974 18.3946 7.5524 18.377Z" fill="#FFFCED"/>
<path d="M7.37207 18.2345C7.42008 18.2436 7.46425 18.2669 7.4988 18.3014C7.53335 18.336 7.55669 18.3802 7.56576 18.4282C7.58417 18.5783 7.45245 18.7342 7.27522 18.7749C7.21949 18.788 7.16148 18.788 7.10574 18.7749C7.05739 18.7666 7.01281 18.7435 6.97812 18.7088C6.94343 18.6741 6.92035 18.6295 6.91205 18.5812C6.89268 18.4311 7.02439 18.2752 7.20259 18.2345C7.25839 18.222 7.31627 18.222 7.37207 18.2345Z" fill="#FFFCED"/>
<path d="M5.15612 19.4316L5.60839 20.5115L3.60463 22.0204L3.15332 20.9405L5.15612 19.4316Z" fill="#F67067"/>
<path d="M8.95036 18.9696L8.50293 17.8898C8.57275 18.0444 8.67869 18.18 8.81183 18.2852C8.94497 18.3903 9.10142 18.462 9.26802 18.4941L9.72514 19.5739C9.55674 19.5434 9.39826 19.4725 9.26331 19.3672C9.12836 19.262 9.02097 19.1255 8.95036 18.9696Z" fill="#F67067"/>
<path d="M3.15346 20.9406L3.60476 22.0204C3.40802 22.1708 3.18121 22.2771 2.93974 22.3321C2.69827 22.3871 2.44779 22.3894 2.20532 22.339C2.04096 22.3018 1.88622 22.2306 1.75111 22.1298L1.2998 21.05C1.43527 21.1507 1.59033 21.222 1.75499 21.2592C1.99731 21.3094 2.24758 21.3069 2.48887 21.2519C2.73015 21.197 2.9568 21.0908 3.15346 20.9406Z" fill="#F67067"/>
<path d="M2.16357 22.1558L2.20231 22.2526L2.24396 22.3495L2.28657 22.4521L2.33015 22.5557L2.3747 22.6623L2.41828 22.7678L2.46283 22.8734L2.50641 22.977L2.16357 22.1577L2.16357 22.1558Z" fill="#FE3030"/>
<path d="M2.17896 23.4371C2.16249 23.4682 2.15292 23.5025 2.15091 23.5376C2.14891 23.5727 2.15451 23.6078 2.16734 23.6405L1.71506 22.5607C1.70224 22.5279 1.69663 22.4928 1.69864 22.4577C1.70065 22.4226 1.71021 22.3884 1.72668 22.3573L2.17896 23.4371L1.72668 22.3573C1.76838 22.2814 1.8333 22.2209 1.91191 22.1847C1.99053 22.1484 2.07869 22.1383 2.16347 22.1559C2.31326 22.5148 2.46369 22.8748 2.61477 23.2357C2.46498 22.8754 2.31455 22.5155 2.16347 22.1559C2.2025 22.1633 2.23917 22.18 2.27036 22.2046C2.30155 22.2292 2.32634 22.261 2.34263 22.2973L2.79491 23.3771C2.7786 23.3407 2.75368 23.3088 2.7223 23.2842C2.69091 23.2595 2.65401 23.2429 2.61477 23.2357C2.53013 23.2181 2.44206 23.2281 2.36358 23.2644C2.2851 23.3007 2.22037 23.3612 2.17896 23.4371Z" fill="#FE3030"/>
<path d="M2.3429 22.2972L2.79518 23.3771C2.80805 23.4096 2.81368 23.4446 2.81167 23.4796C2.80966 23.5145 2.80007 23.5486 2.78355 23.5795C2.74215 23.6557 2.67735 23.7166 2.59872 23.7532C2.52008 23.7899 2.43176 23.8002 2.34677 23.7829C2.30773 23.7751 2.2711 23.7582 2.23993 23.7334C2.20877 23.7086 2.18397 23.6768 2.16761 23.6405L1.71533 22.5607C1.73178 22.597 1.75674 22.6288 1.78809 22.6534C1.81945 22.678 1.85628 22.6947 1.89547 22.7021C1.98035 22.7197 2.06865 22.7095 2.14731 22.673C2.22597 22.6366 2.29081 22.5758 2.33225 22.4997C2.34836 22.4686 2.35765 22.4345 2.35949 22.3996C2.36132 22.3647 2.35567 22.3298 2.3429 22.2972Z" fill="#FFFCED"/>
<path d="M2.16373 22.1557C2.20078 22.1617 2.23585 22.1764 2.26601 22.1988C2.29617 22.2211 2.32053 22.2503 2.33704 22.284C2.35355 22.3177 2.36174 22.3548 2.3609 22.3924C2.36007 22.4299 2.35024 22.4666 2.33225 22.4995C2.29081 22.5757 2.22597 22.6365 2.14731 22.6729C2.06866 22.7094 1.98035 22.7196 1.89547 22.702C1.85828 22.6961 1.82307 22.6813 1.7928 22.6589C1.76253 22.6365 1.73809 22.6072 1.72156 22.5734C1.70503 22.5396 1.69689 22.5023 1.69783 22.4646C1.69877 22.427 1.70876 22.3901 1.72695 22.3572C1.76853 22.2812 1.83344 22.2206 1.91208 22.1843C1.99073 22.1481 2.07895 22.138 2.16373 22.1557Z" fill="#FFFCED"/>
<path d="M11.5362 19.0267L11.9885 20.1065L9.72034 19.5739L9.26807 18.494L11.5362 19.0267Z" fill="#F67067"/>
<path d="M13.2605 18.3835L13.7128 19.4634C13.5141 19.7208 13.2474 19.9176 12.9427 20.0314C12.6381 20.1452 12.3077 20.1716 11.9889 20.1074L11.5366 19.0324C11.8559 19.0967 12.1868 19.07 12.4916 18.9552C12.7964 18.8405 13.0629 18.6424 13.2605 18.3835Z" fill="#F67067"/>
<path d="M7.60608 21.2861L8.05739 22.3659C8.01709 22.3575 7.97524 22.3607 7.93667 22.3751C7.89811 22.3895 7.86441 22.4145 7.83948 22.4472L7.38721 21.3674C7.41237 21.3347 7.44624 21.3097 7.48495 21.2953C7.52366 21.2809 7.56564 21.2777 7.60608 21.2861Z" fill="#FFFCED"/>
<path d="M1.10595 24.5944C0.947361 24.5575 0.783842 24.5463 0.621711 24.5615L0.169434 23.4817C0.331522 23.4668 0.494937 23.4776 0.653669 23.5136C0.803459 23.8739 0.953895 24.2339 1.10498 24.5935L0.996508 24.3339L0.653669 23.5146C0.820071 23.5468 0.976384 23.6183 1.10962 23.7231C1.24285 23.8278 1.34917 23.9629 1.41973 24.117L1.87201 25.1968C1.80144 25.0427 1.69513 24.9077 1.5619 24.8029C1.42866 24.6981 1.27235 24.6267 1.10595 24.5944Z" fill="#FE3030"/>
<path d="M1.41602 24.1171L1.86829 25.1969C1.89976 25.2739 1.92124 25.3546 1.93221 25.4371L1.47993 24.3592C1.4696 24.276 1.4481 24.1945 1.41602 24.1171Z" fill="#F67067"/>
<path d="M13.3932 20.7758L13.1675 20.2354C13.092 20.0552 13.0165 19.8761 12.9419 19.6959C12.9879 19.6604 13.0412 19.6354 13.0978 19.6225C13.1545 19.6096 13.2133 19.6092 13.2702 19.6214L13.3225 19.7473L13.3506 19.8131L13.4077 19.9497L13.4658 20.0901L13.5259 20.2315L13.5549 20.3022L13.584 20.3719L13.6411 20.5085L13.6954 20.6392C13.708 20.658 13.7169 20.679 13.7215 20.7012C13.6647 20.6891 13.6058 20.6895 13.5492 20.7024C13.4925 20.7152 13.4392 20.7403 13.3932 20.7758Z" fill="#FE3030"/>
<path d="M13.7213 20.7023C13.5709 20.342 13.4205 19.9821 13.27 19.6224L13.3223 19.7483L13.3785 19.882L13.4366 20.0205L13.4957 20.1619L13.5547 20.3033L13.6129 20.4418L13.669 20.5754L13.7213 20.7023Z" fill="#FE3030"/>
<path d="M13.8551 20.7757C13.7999 20.642 13.7437 20.5093 13.6885 20.3767C13.5917 20.15 13.4948 19.9224 13.4028 19.6987C13.4329 19.7094 13.4203 19.7404 13.429 19.7607L13.4832 19.8915L13.5123 19.9592L13.5704 20.0977L13.6295 20.2391L13.6585 20.3098L13.7176 20.4503L13.7747 20.5868L13.8018 20.6527L13.8551 20.7757Z" fill="#FE3030"/>
<path d="M13.855 20.7758C13.8184 20.7391 13.772 20.7138 13.7213 20.7031C13.5709 20.3429 13.4205 19.9829 13.27 19.6233C13.3202 19.6338 13.3663 19.6587 13.4027 19.695L13.456 19.8209L13.4831 19.8867L13.5402 20.0233L13.5702 20.093L13.855 20.7709L13.855 20.7758Z" fill="#FE3030"/>
<path d="M13.3928 20.7759C13.3391 20.8097 13.2982 20.8604 13.2766 20.9201C13.2551 20.9797 13.254 21.0449 13.2737 21.1052L12.8243 20.0263C12.8057 19.9658 12.8074 19.9009 12.8291 19.8415C12.8508 19.7821 12.8913 19.7314 12.9444 19.697C13.0761 20.0205 13.2572 20.4524 13.3928 20.7759Z" fill="#FE3030"/>
<path d="M13.9026 20.8445C13.8917 20.8183 13.8755 20.7945 13.8551 20.7748L13.4058 19.694C13.426 19.7142 13.4421 19.7383 13.4532 19.7647L13.9026 20.8445Z" fill="#FE3030"/>
<path d="M3.13982 24.5441C2.88614 25.3655 2.92446 26.2493 3.24828 27.0456L2.79698 25.9658C2.4722 25.1697 2.43386 24.2855 2.68851 23.4642L2.74081 23.5911L2.79698 23.7248L2.85508 23.8632L2.91416 24.0046L2.94419 24.0753L3.00229 24.2158L3.03135 24.2845L3.05943 24.3523L3.08752 24.4182C3.11114 24.4573 3.12877 24.4997 3.13982 24.5441Z" fill="#FE3030"/>
<path d="M3.43033 23.8071C3.31277 24.0441 3.21557 24.2906 3.13978 24.5441C2.98935 24.1845 2.83891 23.8245 2.68848 23.4642C2.76427 23.2108 2.86146 22.9642 2.97902 22.7272C4.16055 20.3148 7.29549 18.8621 9.96653 19.4906C11.3853 19.8238 12.3877 20.6779 12.8468 21.7675L13.299 22.8473C12.8439 21.7578 11.8366 20.9036 10.4178 20.5704C7.74195 19.9419 4.60702 21.3946 3.43033 23.8071Z" fill="#FE3030"/>
<path d="M12.6637 21.8411L13.115 22.921C12.6763 21.8712 11.7049 21.047 10.3374 20.7255C7.76032 20.1202 4.73773 21.5206 3.59784 23.8478C3.06324 24.9393 3.03709 26.0433 3.42448 26.9711L2.97318 25.8913C2.58579 24.9635 2.61194 23.8575 3.14556 22.768C4.28545 20.4436 7.30998 19.0394 9.88515 19.6456C11.2526 19.9671 12.224 20.7913 12.6637 21.8411Z" fill="#C62525"/>
<path d="M12.0752 21.8489C11.9958 21.7772 11.9125 21.7075 11.8253 21.6416C11.6755 21.2813 11.5251 20.9214 11.374 20.5618C11.4612 20.6276 11.5445 20.6964 11.6229 20.769L11.6549 20.8446L11.6878 20.9249L11.7227 21.0073L11.7585 21.0925L11.7934 21.1767L11.8282 21.26L11.8621 21.3404L11.8931 21.415L11.9144 21.4663L11.9367 21.5196L11.9599 21.5758L11.9842 21.6319L12.0074 21.6891L12.0316 21.7443L12.0539 21.7985L12.0752 21.8489Z" fill="#FE3030"/>
<path d="M9.47172 21.7239L9.92303 22.8037L8.05775 22.365L7.60645 21.2852L9.47172 21.7239Z" fill="#FFFCED"/>
<path d="M13.4503 19.7646L13.9026 20.8445C13.9213 20.9049 13.9197 20.9697 13.8982 21.0291C13.8767 21.0885 13.8365 21.1393 13.7835 21.1738C13.737 21.2088 13.6836 21.2336 13.6269 21.2465C13.5701 21.2593 13.5112 21.26 13.4542 21.2483C13.4041 21.237 13.3581 21.2118 13.3215 21.1757C13.3013 21.1558 13.2852 21.1321 13.2741 21.106L12.8247 20.0261C12.8362 20.0521 12.8523 20.0757 12.8722 20.0959C12.9089 20.1318 12.9548 20.157 13.0048 20.1685C13.0619 20.1801 13.1207 20.1795 13.1775 20.1666C13.2343 20.1538 13.2877 20.129 13.3341 20.0939C13.3873 20.0597 13.4276 20.0088 13.4486 19.9492C13.4697 19.8896 13.4703 19.8246 13.4503 19.7646Z" fill="#FFFCED"/>
<path d="M8.16712 22.616L8.61843 23.6958C8.57814 23.6876 8.53636 23.6909 8.49784 23.7053C8.45932 23.7197 8.42561 23.7446 8.40053 23.7772L7.94922 22.6973C7.9743 22.6647 8.00801 22.6398 8.04653 22.6255C8.08505 22.6111 8.12683 22.6078 8.16712 22.616Z" fill="#FE3030"/>
<path d="M12.0748 21.8488C12.0703 21.8408 12.0667 21.8324 12.0642 21.8236L12.0196 21.7171L11.9954 21.6609L11.9838 21.6318L11.8928 21.4149L11.6226 20.7689C11.7397 20.875 11.8488 20.9896 11.9489 21.1118L12.0022 21.2377L12.0584 21.3713L12.1165 21.5098L12.1756 21.6512L12.2346 21.7926L12.2927 21.9311L12.3479 22.0647L12.4012 22.1916C12.3003 22.0701 12.1912 21.9556 12.0748 21.8488Z" fill="#FE3030"/>
<path d="M12.5216 22.3446C12.4829 22.2923 12.4432 22.2409 12.4015 22.1915C12.2504 21.8287 12.101 21.4687 11.9531 21.1117C11.9948 21.1611 12.0354 21.2085 12.0732 21.2647L12.1129 21.3616L12.1546 21.4584L12.1981 21.563L12.2427 21.6686L12.2872 21.7751L12.3308 21.8797L12.3725 21.9765L12.4122 22.0734L12.4257 22.1053L12.4393 22.1383L12.4538 22.1731L12.4684 22.208L12.4838 22.2429L12.4984 22.2777L12.5119 22.3107L12.5216 22.3446Z" fill="#FE3030"/>
<path d="M8.73258 22.7514L9.18389 23.8313L8.6183 23.6986L8.16699 22.6178L8.73258 22.7514Z" fill="#FE3030"/>
<path d="M7.94937 22.7001L8.40068 23.7799L7.89417 24.4811L7.44189 23.4012L7.94937 22.7001Z" fill="#FE3030"/>
<path d="M7.87289 24.6129L7.42158 23.5331C7.41315 23.5113 7.41059 23.4876 7.41416 23.4645C7.41773 23.4414 7.4273 23.4196 7.44192 23.4014L7.8942 24.4822C7.8795 24.5002 7.8698 24.5218 7.86606 24.5447C7.86232 24.5676 7.86467 24.5912 7.87289 24.6129Z" fill="#FE3030"/>
<path d="M9.03992 22.9605L9.49219 24.0404C9.44958 23.9435 9.34692 23.8699 9.18422 23.8322L8.73291 22.7513C8.89464 22.7901 8.99827 22.8598 9.03992 22.9605Z" fill="#FE3030"/>
<path d="M7.96954 24.6883C7.94856 24.6843 7.92884 24.6754 7.912 24.6623C7.89516 24.6491 7.88169 24.6322 7.87269 24.6128L7.42139 23.533C7.43025 23.5524 7.44368 23.5695 7.46054 23.5826C7.47741 23.5958 7.4972 23.6046 7.51823 23.6085L7.96954 24.6883Z" fill="#FFFCED"/>
<path d="M9.49181 24.0404C9.49181 24.0491 9.49859 24.0578 9.50053 24.0666L9.04728 22.9867C9.04728 22.978 9.04147 22.9693 9.0376 22.9606L9.49181 24.0404Z" fill="#FFFCED"/>
<path d="M10.9137 23.5601C10.753 23.1727 10.423 22.9209 9.92395 22.8047L9.47168 21.7249C9.97012 21.8417 10.3004 22.0932 10.4624 22.4793L10.9137 23.5601Z" fill="#FFFCED"/>
<path d="M10.4624 22.4794L10.9137 23.5592C10.9167 23.5655 10.9193 23.572 10.9215 23.5786L10.4702 22.4978C10.4672 22.492 10.4653 22.4861 10.4624 22.4794Z" fill="#FE3030"/>
<path d="M8.07833 23.7393L8.52964 24.8201L7.96986 24.6884L7.51855 23.6085L8.07833 23.7393Z" fill="#FFFCED"/>
<path d="M9.50078 24.0687C9.54243 24.1849 9.51047 24.3156 9.40393 24.4609L9.35067 24.335L9.2945 24.2013L9.23639 24.0619L9.17731 23.9205L9.06013 23.6406C9.02429 23.5544 8.98846 23.4672 8.95166 23.381C9.05529 23.2358 9.08725 23.105 9.04851 22.9937C9.18506 23.3103 9.37488 23.7384 9.50078 24.0687Z" fill="#FFFCED"/>
<path d="M9.40784 24.4558L8.95557 23.376L9.40784 24.4558Z" fill="#FFFCED"/>
<path d="M1.47949 24.3562L1.93177 25.437L2.19616 27.4785L1.74485 26.3987L1.47949 24.3562Z" fill="#F67067"/>
<path d="M8.54784 24.8249L8.52944 24.8201L8.0791 23.7402L8.09653 23.7402L8.14496 23.8545L8.19532 23.9756L8.24858 24.1015L8.30185 24.2303L8.35608 24.3581L8.40838 24.484L8.45874 24.606L8.50717 24.7203L8.50717 24.7319L8.51201 24.7445L8.51782 24.7571L8.52266 24.7697L8.52847 24.7833L8.53428 24.7959L8.53913 24.8085L8.54784 24.8249Z" fill="#FFFCED"/>
<path d="M8.54798 24.8251C8.3969 24.4648 8.24614 24.1049 8.0957 23.7452L8.14897 23.8711L8.20514 24.0048L8.26325 24.1442L8.32232 24.2856L8.3814 24.427L8.43951 24.5655L8.49471 24.6992L8.54798 24.8251Z" fill="#FFFCED"/>
<path d="M3.80902 23.8972C3.29767 24.9412 3.27152 25.9958 3.64148 26.881L3.1892 25.8012C2.81925 24.916 2.84539 23.8642 3.35674 22.8173C4.44724 20.5898 7.32747 19.2562 9.79223 19.8364C10.3639 19.9644 10.9022 20.2115 11.3718 20.5617L11.4241 20.6876L11.4803 20.8213L11.5384 20.9598L11.5975 21.1012L11.6565 21.2426L11.7146 21.3811L11.7708 21.5147L11.8231 21.6416C11.3529 21.2911 10.814 21.0439 10.2416 20.9162C7.77975 20.3371 4.89855 21.6716 3.80902 23.8972Z" fill="#FE3030"/>
<path d="M12.5216 22.3446C12.5189 22.3396 12.5167 22.3345 12.5148 22.3291L12.5013 22.2962L12.4945 22.2797L12.4645 22.21L12.4083 22.0754C12.296 21.8055 12.183 21.5353 12.0693 21.2648C12.2215 21.4713 12.3483 21.6953 12.447 21.932L12.8993 23.0119C12.7998 22.7755 12.6731 22.5516 12.5216 22.3446Z" fill="#FE3030"/>
<path d="M9.00551 24.7794C8.96967 24.6923 8.93287 24.6061 8.89704 24.5189C8.86121 24.4318 8.81859 24.332 8.77985 24.239L8.5542 23.6996C8.71555 23.6329 8.85462 23.5218 8.95514 23.379L9.00841 23.5049L9.06362 23.6386L9.12172 23.7771L9.1808 23.9185L9.23987 24.0599L9.29798 24.1993L9.35416 24.333L9.40742 24.4589C9.30679 24.6019 9.16733 24.7131 9.00551 24.7794Z" fill="#FFFCED"/>
<path d="M9.00608 24.7793C8.86321 24.8444 8.70284 24.8604 8.54993 24.8248C8.39885 24.4658 8.24809 24.1059 8.09766 23.745C8.25089 23.7805 8.41156 23.7645 8.55477 23.6995L9.00608 24.7793Z" fill="#FFFCED"/>
<path d="M8.73264 22.7514C8.90826 22.7934 9.01382 22.8719 9.04933 22.9868C9.09098 23.103 9.05805 23.2337 8.95248 23.3742C8.85196 23.5169 8.71289 23.6281 8.55154 23.6947C8.40833 23.7598 8.24765 23.7758 8.09442 23.7403L8.07505 23.7403L7.51527 23.6085C7.49309 23.605 7.47226 23.5955 7.45491 23.5812C7.43757 23.567 7.42432 23.5483 7.41654 23.5272C7.40876 23.5062 7.40672 23.4834 7.41062 23.4613C7.41453 23.4391 7.42424 23.4184 7.43877 23.4013L7.94624 22.7001C7.97133 22.6675 8.00504 22.6426 8.04356 22.6283C8.08208 22.6139 8.12386 22.6106 8.16415 22.6188L8.73264 22.7514Z" fill="#FFFCED"/>
<path d="M7.38848 21.3666L7.83979 22.4474L4.89564 26.5276L4.44434 25.4477L7.38848 21.3666Z" fill="#FFFCED"/>
<path d="M3.50823 27.153C3.47917 27.094 3.45109 27.0329 3.42591 26.9719L2.97363 25.8921C2.99978 25.9531 3.0269 26.0131 3.05595 26.0732C3.07242 26.111 3.09372 26.1613 3.10922 26.1991L3.16539 26.3327L3.2235 26.4722L3.28258 26.6136L3.34165 26.754L3.39976 26.8935L3.45496 27.0271L3.50823 27.153Z" fill="#FE3030"/>
<path d="M6.7848 24.5432L7.2361 25.623C7.19595 25.6144 7.15418 25.6175 7.11574 25.632C7.0773 25.6464 7.04379 25.6715 7.01917 25.7044L6.56689 24.6245C6.59182 24.5918 6.62552 24.5667 6.66408 24.5523C6.70265 24.5379 6.7445 24.5348 6.7848 24.5432Z" fill="#FE3030"/>
<path d="M5.49914 25.8844L5.95142 26.9643L4.9723 26.7338L4.52002 25.6539L5.49914 25.8844Z" fill="#FE3030"/>
<path d="M4.89595 26.5275C4.88159 26.5457 4.87217 26.5673 4.8686 26.5902C4.86504 26.6131 4.86746 26.6365 4.87561 26.6582L4.42333 25.5784C4.41531 25.5566 4.41306 25.5331 4.41679 25.5102C4.42053 25.4873 4.43012 25.4657 4.44464 25.4476L4.89595 26.5275Z" fill="#FFFCED"/>
<path d="M4.87562 26.6583L4.42334 25.5785C4.43241 25.5979 4.44588 25.6149 4.4627 25.6282C4.47951 25.6415 4.4992 25.6507 4.52019 25.655L4.97246 26.7348C4.95136 26.7308 4.93154 26.7218 4.91468 26.7084C4.89782 26.6951 4.88442 26.6779 4.87562 26.6583Z" fill="#FE3030"/>
<path d="M7.09119 24.6138L7.5425 25.6946L7.23646 25.622L6.78516 24.5421L7.09119 24.6138Z" fill="#FE3030"/>
<path d="M7.19637 24.7454L7.64767 25.8252L7.54017 27.2314L7.08887 26.1516L7.19637 24.7454Z" fill="#FFFCED"/>
<path d="M7.18767 24.6903L7.63897 25.7701C7.63018 25.7506 7.61677 25.7335 7.5999 25.7204C7.58302 25.7072 7.56319 25.6984 7.54213 25.6946L7.09082 24.6147C7.11183 24.6187 7.13158 24.6276 7.14844 24.6407C7.16529 24.6539 7.17874 24.6709 7.18767 24.6903Z" fill="#FE3030"/>
<path d="M7.18799 24.6903L7.6393 25.7702C7.64657 25.7876 7.64956 25.8065 7.64801 25.8254L7.19671 24.7465C7.19789 24.7273 7.19492 24.7082 7.18799 24.6903Z" fill="#FFFCED"/>
<path d="M1.74516 26.3987L2.19647 27.4785C2.26523 28.0073 1.8943 28.5516 1.32484 28.8228L0.873535 27.7429C1.443 27.4708 1.81392 26.9275 1.74516 26.3987Z" fill="#F67067"/>
<path d="M0.649902 23.5146L0.68961 23.6115L0.730284 23.7083L0.772897 23.81L0.816479 23.9146L0.861028 24.0202L0.905577 24.1267L0.949159 24.2323L0.992739 24.3359L0.649902 23.5156L0.649902 23.5146Z" fill="#FE3030"/>
<path d="M1.47987 24.3591L1.74523 26.4007C1.81399 26.9294 1.44307 27.4728 0.873608 27.7449C0.0649348 26.5392 -0.210111 25.039 0.165656 23.4836C0.327744 23.4688 0.49116 23.4796 0.649891 23.5156C1.09442 23.6182 1.42467 23.9282 1.47987 24.3591Z" fill="#F67067"/>
<path d="M6.56711 24.6234L7.01939 25.7033L6.16907 26.8829L5.7168 25.803L6.56711 24.6234Z" fill="#FE3030"/>
<path d="M5.71693 25.8031L6.16921 26.8829C6.14428 26.9157 6.11058 26.9407 6.07202 26.9551C6.03345 26.9695 5.9916 26.9727 5.9513 26.9643L5.49902 25.8845C5.53932 25.8929 5.58117 25.8897 5.61974 25.8753C5.6583 25.8609 5.692 25.8359 5.71693 25.8031Z" fill="#FE3030"/>
<path d="M10.4699 22.4977L10.9212 23.5785C11.08 23.9743 11.0025 24.3878 10.6887 24.8191C10.489 25.0955 10.2316 25.3252 9.93429 25.4922C9.6836 25.6387 9.40982 25.7416 9.12465 25.7963C9.0816 25.8022 9.04153 25.8216 9.01021 25.8517C8.97888 25.8818 8.95792 25.9211 8.95032 25.9638L8.49805 24.884C8.50578 24.8413 8.52679 24.8021 8.55809 24.772C8.58939 24.7419 8.62938 24.7225 8.67237 24.7164C8.95785 24.6617 9.23195 24.5589 9.48298 24.4123C9.78057 24.2436 10.038 24.0123 10.2374 23.7344C10.5512 23.307 10.6287 22.8948 10.4699 22.4977Z" fill="#FE3030"/>
<path d="M2.9762 28.6202L2.52393 27.5404C2.54039 27.5782 2.56073 27.6285 2.57719 27.6663L2.63336 27.8L2.6905 27.9394L2.75055 28.0808L2.80962 28.2222L2.86773 28.3607L2.92293 28.4943L2.9762 28.6202Z" fill="#FE3030"/>
<path d="M3.30453 28.5429C3.24759 28.5313 3.18881 28.532 3.13216 28.545C3.07552 28.5581 3.02234 28.5831 2.97622 28.6185L2.92295 28.4926L2.86775 28.3589L2.7525 28.079C2.71279 27.9822 2.67406 27.8921 2.63532 27.7982C2.59658 27.7042 2.56268 27.6248 2.52588 27.5386C2.57218 27.5032 2.62553 27.4782 2.68233 27.4652C2.73913 27.4521 2.79806 27.4514 2.85516 27.4631L2.90746 27.589L2.96363 27.7236L3.02174 27.8621L3.08081 28.0035L3.13989 28.1449L3.198 28.2834L3.25417 28.417L3.30453 28.5429Z" fill="#FE3030"/>
<path d="M3.30433 28.5429C3.15454 28.1839 3.00411 27.8239 2.85303 27.463L2.90532 27.5899L2.9615 27.7235L3.0196 27.862L3.07868 28.0034L3.13776 28.1448L3.19586 28.2833L3.25204 28.417L3.30433 28.5429Z" fill="#FE3030"/>
<path d="M3.43798 28.6204C3.4009 28.5844 3.35468 28.5593 3.30433 28.5477C3.15454 28.1888 3.00411 27.8288 2.85303 27.4679C2.90317 27.4792 2.94914 27.5044 2.98571 27.5405C3.00563 27.5605 3.02142 27.5842 3.03219 27.6103L3.48447 28.6901C3.47335 28.6642 3.45759 28.6406 3.43798 28.6204Z" fill="#FE3030"/>
<path d="M2.97643 28.6202C2.92253 28.6541 2.88151 28.705 2.85992 28.7648C2.83833 28.8247 2.83741 28.8901 2.85731 28.9505L2.40504 27.8697C2.38638 27.8093 2.38792 27.7445 2.40942 27.6851C2.43092 27.6257 2.4712 27.5749 2.52416 27.5404L2.57742 27.6663L2.63263 27.8L2.69073 27.9394L2.74981 28.0808L2.80889 28.2212L2.867 28.3607L2.92317 28.4943L2.97643 28.6202Z" fill="#FE3030"/>
<path d="M7.54883 27.2869L7.09753 26.2071C7.09018 26.19 7.08718 26.1714 7.08881 26.1528L7.54012 27.2327C7.539 27.2512 7.54197 27.2697 7.54883 27.2869Z" fill="#FFFCED"/>
<path d="M3.03236 27.6055L3.48463 28.6853C3.50338 28.7456 3.50198 28.8103 3.48067 28.8697C3.45935 28.9291 3.41926 28.98 3.36648 29.0146C3.31997 29.05 3.26645 29.075 3.2095 29.088C3.15255 29.101 3.09348 29.1018 3.03623 29.0901C2.98593 29.0792 2.93986 29.054 2.90355 29.0175C2.88365 28.9979 2.86785 28.9745 2.85706 28.9487L2.40479 27.8679C2.41567 27.8939 2.43145 27.9176 2.45127 27.9377C2.48808 27.974 2.53441 27.9992 2.58492 28.0103C2.64202 28.022 2.70095 28.0213 2.75775 28.0082C2.81455 27.9952 2.8679 27.9701 2.9142 27.9347C2.96785 27.901 3.00864 27.8502 3.03006 27.7905C3.05147 27.7308 3.05228 27.6657 3.03236 27.6055Z" fill="#FFFCED"/>
<path d="M7.54896 27.2869L7.09766 26.207C7.10639 26.2267 7.11977 26.2439 7.13664 26.2572C7.15351 26.2706 7.17337 26.2796 7.1945 26.2835L7.64581 27.3614C7.62487 27.3577 7.60514 27.349 7.58829 27.336C7.57143 27.323 7.55795 27.3062 7.54896 27.2869Z" fill="#FE3030"/>
<path d="M13.9761 21.506L14.4274 22.5858L14.6927 24.6274L14.2414 23.5475L13.9761 21.506Z" fill="#FE3030"/>
<path d="M14.693 24.6284C14.7038 24.711 14.7257 24.7918 14.7579 24.8686L14.3056 23.7888C14.2738 23.7119 14.2523 23.6311 14.2417 23.5486C14.3744 23.875 14.602 24.2895 14.693 24.6284Z" fill="#FE3030"/>
<path d="M8.49828 24.8829L8.95055 25.9637L8.86146 27.431L8.40918 26.3511L8.49828 24.8829Z" fill="#FE3030"/>
<path d="M8.16233 26.5112L8.6146 27.591L7.64613 27.3634L7.19482 26.2836L8.16233 26.5112Z" fill="#FE3030"/>
<path d="M8.40907 26.3513L8.86135 27.4312C8.85633 27.4582 8.84585 27.484 8.83053 27.5069C8.81522 27.5298 8.7954 27.5493 8.77228 27.5642C8.74916 27.5792 8.72324 27.5893 8.69609 27.5939C8.66894 27.5985 8.64114 27.5975 8.61439 27.591L8.16211 26.5111C8.18886 26.5176 8.21666 26.5186 8.24381 26.514C8.27096 26.5094 8.29689 26.4994 8.32 26.4844C8.34312 26.4694 8.36294 26.4499 8.37826 26.427C8.39357 26.4042 8.40406 26.3784 8.40907 26.3513Z" fill="#FE3030"/>
<path d="M12.4466 21.9312L12.8979 23.011C13.2688 23.8962 13.2427 24.9479 12.7313 25.9958C11.6408 28.2233 8.76058 29.5569 6.2968 28.9768C4.98839 28.6698 4.0606 27.8843 3.64125 26.882L3.18994 25.8021C3.60832 26.8045 4.53612 27.5899 5.84452 27.8969C8.30831 28.478 11.1895 27.1415 12.279 24.916C12.7904 23.8749 12.8165 22.8163 12.4466 21.9312Z" fill="#FFFCED"/>
<path d="M12.9417 26.0452C12.7988 26.3363 12.6282 26.613 12.4323 26.8713C12.2812 26.511 12.1304 26.1511 11.98 25.7915C12.1763 25.5331 12.3472 25.2565 12.4904 24.9653C13.025 23.8729 13.0521 22.7689 12.6628 21.8411L13.115 22.9209C13.5024 23.8487 13.4772 24.9537 12.9417 26.0452Z" fill="#FE3030"/>
<path d="M6.20416 29.1666C4.9161 28.8645 3.97668 28.1158 3.50794 27.1532L3.05566 26.0733C3.52828 27.036 4.46382 27.7836 5.75189 28.0868C8.00648 28.6175 10.603 27.6103 11.9801 25.7915C11.9966 25.8293 12.0169 25.8796 12.0334 25.9174L12.0886 26.0511L12.1467 26.1895L12.2058 26.3309L12.2648 26.4723L12.323 26.6108L12.3791 26.7445L12.4324 26.8713C11.0552 28.6901 8.45779 29.6973 6.20416 29.1666Z" fill="#FE3030"/>
<path d="M12.8418 21.7665L13.2931 22.8463C13.696 23.809 13.6679 24.9537 13.114 26.0859C11.9324 28.4983 8.79847 29.9501 6.12743 29.3225C4.70862 28.9884 3.70141 28.1361 3.24623 27.0456L2.79492 25.9658C3.2501 27.0543 4.25731 27.9085 5.67612 28.2426C8.34716 28.8702 11.4811 27.4185 12.6627 25.006C13.2166 23.8748 13.2447 22.7282 12.8418 21.7665Z" fill="#C62525"/>
<path d="M9.96201 19.4906C12.6331 20.1182 13.8446 22.5897 12.6631 25.0109C11.4815 27.4321 8.34757 28.8751 5.67653 28.2475C3.00549 27.62 1.79296 25.1484 2.9745 22.7321C4.15603 20.3158 7.29097 18.8621 9.96201 19.4906ZM5.75497 28.0868C8.33111 28.693 11.3537 27.2926 12.4936 24.9654C13.6335 22.6382 12.4645 20.2519 9.8884 19.6456C7.31227 19.0393 4.28871 20.4407 3.14882 22.7679C2.00893 25.0952 3.17884 27.4815 5.75497 28.0868Z" fill="#C62525"/>
<path d="M9.79205 19.8363C12.2558 20.4174 13.3696 22.6894 12.2791 24.9159C11.1886 27.1424 8.30835 28.476 5.84456 27.8969C3.38077 27.3177 2.268 25.0438 3.35656 22.8172C4.44512 20.5907 7.32826 19.2562 9.79205 19.8363ZM10.2375 23.7392C10.5513 23.3086 10.6288 22.895 10.47 22.4986C10.3111 22.1022 9.97831 21.8439 9.47148 21.7238L7.60621 21.2851C7.56577 21.2768 7.52379 21.28 7.48508 21.2943C7.44637 21.3087 7.41249 21.3337 7.38733 21.3665L4.44415 25.4466C4.42932 25.4636 4.41932 25.4843 4.41519 25.5064C4.41106 25.5286 4.41296 25.5514 4.42068 25.5726C4.42839 25.5938 4.44165 25.6125 4.45907 25.6268C4.47648 25.6411 4.49742 25.6504 4.51969 25.6539L5.49881 25.8834C5.53911 25.8918 5.58097 25.8887 5.61953 25.8743C5.65809 25.8599 5.69179 25.8348 5.71672 25.8021L6.56704 24.6234C6.59197 24.5907 6.62566 24.5657 6.66423 24.5513C6.70279 24.5369 6.74465 24.5337 6.78495 24.5421L7.09098 24.6138C7.12168 24.6185 7.14951 24.6346 7.16903 24.6587C7.18855 24.6829 7.19836 24.7135 7.19655 24.7445L7.08904 26.1517C7.08723 26.1827 7.09704 26.2133 7.11656 26.2375C7.13608 26.2616 7.1639 26.2777 7.19461 26.2824L8.16308 26.51C8.18983 26.5165 8.21763 26.5175 8.24478 26.5129C8.27193 26.5084 8.29785 26.4983 8.32097 26.4833C8.34409 26.4684 8.36391 26.4488 8.37922 26.426C8.39454 26.4031 8.40503 26.3773 8.41004 26.3502L8.49914 24.883C8.50687 24.8403 8.52788 24.8011 8.55918 24.771C8.59048 24.7409 8.63047 24.7215 8.67346 24.7155C8.95894 24.6607 9.23304 24.5579 9.48407 24.4114C9.78166 24.2426 10.0391 24.0113 10.2385 23.7334" fill="#FFFCED"/>
<path d="M10.4705 22.4977C10.628 22.8948 10.5505 23.3087 10.2381 23.7393C10.0386 24.0172 9.7812 24.2485 9.48362 24.4172C9.23258 24.5638 8.95848 24.6666 8.67301 24.7213C8.63002 24.7274 8.59002 24.7468 8.55872 24.7769C8.52742 24.807 8.50641 24.8462 8.49868 24.8889L8.40958 26.3561C8.40457 26.3832 8.39408 26.409 8.37877 26.4318C8.36345 26.4547 8.34363 26.4743 8.32051 26.4892C8.2974 26.5042 8.27147 26.5143 8.24432 26.5188C8.21717 26.5234 8.18937 26.5224 8.16262 26.5159L7.19415 26.2883C7.16345 26.2836 7.13562 26.2675 7.1161 26.2434C7.09658 26.2192 7.08677 26.1886 7.08859 26.1576L7.19706 24.7465C7.19887 24.7155 7.18906 24.6849 7.16954 24.6608C7.15002 24.6366 7.1222 24.6205 7.09149 24.6158L6.78546 24.5441C6.74516 24.5357 6.70331 24.5389 6.66474 24.5533C6.62618 24.5677 6.59248 24.5927 6.56755 24.6255L5.71723 25.8041C5.6923 25.8369 5.65861 25.8619 5.62004 25.8763C5.58148 25.8907 5.53962 25.8939 5.49933 25.8854L4.5202 25.6559C4.49793 25.6525 4.477 25.6431 4.45958 25.6288C4.44216 25.6145 4.42891 25.5958 4.42119 25.5746C4.41347 25.5534 4.41158 25.5306 4.41571 25.5084C4.41984 25.4863 4.42984 25.4656 4.44466 25.4487L7.38784 21.3685C7.413 21.3358 7.44688 21.3108 7.48559 21.2964C7.5243 21.282 7.56628 21.2788 7.60672 21.2872L9.47199 21.7259C9.97883 21.844 10.3117 22.1013 10.4705 22.4977ZM8.9558 23.379C9.05846 23.2338 9.09138 23.103 9.05264 22.9917C9.01391 22.8803 8.91125 22.798 8.73596 22.7563L8.16746 22.6159C8.12717 22.6077 8.08539 22.611 8.04687 22.6254C8.00835 22.6398 7.97464 22.6647 7.94956 22.6972L7.44208 23.3984C7.42755 23.4156 7.41784 23.4363 7.41394 23.4584C7.41003 23.4805 7.41207 23.5033 7.41986 23.5244C7.42764 23.5455 7.44088 23.5641 7.45823 23.5784C7.47557 23.5927 7.49641 23.6021 7.51859 23.6057L8.07836 23.7374L8.09773 23.7374C8.25096 23.7729 8.41164 23.7569 8.55485 23.6919C8.71621 23.6252 8.85527 23.514 8.9558 23.3713" fill="#FE3030"/>
<path d="M13.9595 24.9296L13.9982 25.0264L14.0399 25.1233L14.0825 25.2249L14.126 25.3295L14.1706 25.4351L14.2142 25.5416L14.2587 25.6472L14.3023 25.7508L13.9595 24.9305L13.9595 24.9296Z" fill="#FE3030"/>
<path d="M14.7614 24.8687L14.3091 23.7888C14.3796 23.9429 14.486 24.078 14.6192 24.1827C14.7524 24.2875 14.9087 24.359 15.0751 24.3912C15.1471 24.4081 15.2203 24.4194 15.294 24.4251L15.7453 25.5049C15.6716 25.4992 15.5985 25.4878 15.5264 25.4711C15.3602 25.4387 15.2041 25.3672 15.071 25.2624C14.938 25.1576 14.8318 25.0227 14.7614 24.8687Z" fill="#F67067"/>
<path d="M13.9749 26.2118C13.9583 26.2427 13.9488 26.2768 13.9467 26.3117C13.9447 26.3467 13.9504 26.3817 13.9632 26.4142L13.5119 25.3344C13.4989 25.3019 13.4931 25.267 13.495 25.232C13.4968 25.197 13.5062 25.1629 13.5226 25.132C13.6737 25.4916 13.8244 25.8512 13.9749 26.2108C13.8238 25.8519 13.673 25.4922 13.5226 25.132C13.5641 25.0559 13.629 24.9952 13.7076 24.9588C13.7862 24.9224 13.8745 24.9121 13.9594 24.9296C14.1092 25.2898 14.2596 25.6498 14.4107 26.0094C14.2602 25.6491 14.1098 25.2892 13.9594 24.9296C13.9986 24.9372 14.0354 24.9541 14.0668 24.9788C14.0981 25.0036 14.123 25.0355 14.1395 25.0719L14.5908 26.1518C14.5744 26.1154 14.5494 26.0834 14.5181 26.0587C14.4867 26.0339 14.4499 26.017 14.4107 26.0094C14.3259 25.992 14.2378 26.0023 14.1594 26.0387C14.0809 26.0752 14.0162 26.1358 13.9749 26.2118Z" fill="#FE3030"/>
<path d="M14.1398 25.0718L14.5911 26.1516C14.6041 26.1841 14.6099 26.219 14.6081 26.254C14.6062 26.289 14.5968 26.3231 14.5804 26.354C14.5388 26.4303 14.4738 26.4911 14.395 26.5275C14.3162 26.564 14.2277 26.5741 14.1427 26.5564C14.1036 26.5489 14.0669 26.5319 14.0357 26.5072C14.0045 26.4824 13.9797 26.4505 13.9635 26.4141L13.5122 25.3342C13.5286 25.3705 13.5534 25.4024 13.5845 25.4271C13.6157 25.4519 13.6523 25.4689 13.6914 25.4766C13.7763 25.4944 13.8646 25.4843 13.9433 25.4478C14.022 25.4113 14.0868 25.3504 14.1282 25.2742C14.1447 25.2433 14.1543 25.2092 14.1563 25.1743C14.1583 25.1393 14.1526 25.1043 14.1398 25.0718Z" fill="#FFFCED"/>
<path d="M9.88541 19.6457C12.4615 20.2519 13.6305 22.6382 12.4906 24.9655C11.3507 27.2927 8.32617 28.6931 5.75198 28.0869C3.17778 27.4806 2.0069 25.0953 3.14582 22.768C4.28475 20.4408 7.30928 19.0394 9.88541 19.6457ZM5.84495 27.897C8.30874 28.4781 11.1899 27.1416 12.2795 24.9161C13.369 22.6905 12.2562 20.4156 9.79244 19.8365C7.32865 19.2573 4.44745 20.5919 3.35695 22.8174C2.26645 25.043 3.38116 27.3179 5.84495 27.897Z" fill="#FE3030"/>
<path d="M9.20228 29.9307C9.05185 29.5704 8.90141 29.2105 8.75098 28.8508L8.80327 28.9767L8.85944 29.1104L8.91755 29.2489L8.97663 29.3903L9.03571 29.5317L9.09382 29.6702L9.14999 29.8038L9.20228 29.9307Z" fill="#FE3030"/>
<path d="M9.03432 29.9318C8.96684 29.9445 8.9041 29.9754 8.8529 30.0211C8.80169 30.0669 8.76396 30.1257 8.74378 30.1914C8.5927 29.8317 8.44194 29.4718 8.2915 29.1115C8.31187 29.046 8.34966 28.9872 8.40084 28.9415C8.45201 28.8958 8.51464 28.8649 8.58205 28.852C8.73313 29.211 8.88388 29.5709 9.03432 29.9318C8.88324 29.5715 8.73248 29.2116 8.58205 28.852C8.63778 28.8389 8.69579 28.8389 8.75153 28.852L8.80383 28.9779L8.86 29.1115L8.9181 29.25L8.97718 29.3914L9.03626 29.5328L9.09437 29.6713L9.15054 29.8049L9.20284 29.9318C9.14742 29.9187 9.08973 29.9187 9.03432 29.9318Z" fill="#FE3030"/>
<path d="M9.38242 30.073C9.36597 30.0367 9.34101 30.0049 9.30966 29.9803C9.2783 29.9557 9.24147 29.939 9.20228 29.9317C9.05185 29.5714 8.90141 29.2114 8.75098 28.8518C8.7901 28.8593 8.82686 28.8761 8.8582 28.9007C8.88953 28.9253 8.91453 28.957 8.93111 28.9932L9.38242 30.073Z" fill="#FE3030"/>
<path d="M8.74042 30.2783C8.74262 30.298 8.74751 30.3172 8.75495 30.3355L8.30365 29.2556C8.296 29.2373 8.29079 29.2181 8.28815 29.1985C8.43923 29.5588 8.58967 29.9187 8.73946 30.2783C8.58967 29.9181 8.43923 29.5581 8.28815 29.1985C8.28286 29.1697 8.28286 29.1401 8.28815 29.1113C8.43923 29.4716 8.58999 29.8315 8.74042 30.1912C8.73513 30.22 8.73513 30.2495 8.74042 30.2783Z" fill="#FE3030"/>
<path d="M7.52134 30.8537C7.36057 30.6691 7.14398 30.5419 6.90442 30.4915L6.45215 29.4116C6.69163 29.4624 6.90833 29.5891 7.07003 29.7729L7.12233 29.8997L7.1785 30.0334L7.23661 30.1719L7.29569 30.3133L7.35476 30.4547L7.41287 30.5932L7.46904 30.7268L7.52134 30.8537Z" fill="#FE3030"/>
<path d="M7.5744 30.9224C7.55794 30.8992 7.5405 30.8759 7.52113 30.8536L7.06982 29.7728C7.08823 29.7961 7.10663 29.8193 7.12309 29.8426L7.45528 30.6386L7.4698 30.6716L7.48433 30.7064L7.49983 30.7432L7.51532 30.78L7.53082 30.8178L7.54631 30.8546L7.56084 30.8895L7.5744 30.9224Z" fill="#FE3030"/>
<path d="M7.57435 30.9224C7.56951 30.9127 7.56467 30.8991 7.56079 30.8894L7.53852 30.8362L7.52303 30.7994L7.51528 30.78L7.45523 30.6386L7.12305 29.8425C7.16096 29.8966 7.19341 29.9544 7.21989 30.0149L7.6712 31.0948C7.6451 31.034 7.61264 30.9763 7.57435 30.9224Z" fill="#FE3030"/>
<path d="M8.9313 28.9922L9.38261 30.073C9.39037 30.0912 9.39559 30.1105 9.3981 30.1301C9.41747 30.2793 9.28576 30.4352 9.10756 30.4769C9.05183 30.4899 8.99382 30.4899 8.93808 30.4769C8.89896 30.4694 8.8622 30.4526 8.83086 30.428C8.79953 30.4034 8.77453 30.3717 8.75795 30.3355L8.30664 29.2556C8.32309 29.2919 8.34805 29.3237 8.37941 29.3484C8.41076 29.373 8.44759 29.3897 8.48677 29.397C8.54219 29.4101 8.59988 29.4101 8.65529 29.397C8.83736 29.3554 8.96907 29.2033 8.94583 29.0503C8.94372 29.0303 8.93883 29.0108 8.9313 28.9922Z" fill="#FFFCED"/>
<path d="M7.21826 30.0149L7.66957 31.0947C7.71823 31.212 7.74292 31.3378 7.7422 31.4647L7.28993 30.3848C7.29098 30.258 7.26661 30.1322 7.21826 30.0149Z" fill="#F67067"/>
<path d="M15.2906 24.4249C15.1831 24.7774 15.0474 25.1207 14.8848 25.4515C14.6735 25.8808 14.4229 26.2896 14.1362 26.6727C14.0886 26.6557 14.0401 26.6412 13.9909 26.6291C13.7484 26.5792 13.4981 26.5819 13.2567 26.6368C13.0153 26.6918 12.7885 26.7978 12.5915 26.9478L10.5887 28.4566C10.1277 28.8033 9.9311 29.306 10.0415 29.7331C9.16082 30.0826 8.23398 30.3022 7.29008 30.3849C7.29008 29.9277 6.9792 29.5355 6.45236 29.4115L4.1842 28.8779C3.89808 28.82 3.60202 28.8349 3.32315 28.9212C3.04429 29.0075 2.79156 29.1625 2.58816 29.3718C1.90762 28.9574 1.32376 28.4019 0.875903 27.7429C1.44343 27.4707 1.81435 26.9274 1.74753 26.3986L1.48023 24.359C1.42502 23.93 1.09284 23.6201 0.650251 23.5155C0.49152 23.4795 0.328104 23.4687 0.166016 23.4835C0.282582 23.009 0.45047 22.5485 0.666713 22.1102C0.848677 21.7401 1.06051 21.3855 1.30009 21.0498C1.43556 21.1505 1.59061 21.2218 1.75528 21.259C1.99775 21.3093 2.24821 21.3069 2.48967 21.2519C2.73113 21.197 2.95794 21.0907 3.15471 20.9403L5.15751 19.4324C5.74828 18.9869 5.9042 18.2867 5.53618 17.818C6.48287 17.445 7.48221 17.2228 8.49777 17.1594C8.28276 17.757 8.6072 18.3381 9.27254 18.494L11.5368 19.0324C11.8556 19.0973 12.1863 19.0713 12.491 18.9574C12.7958 18.8435 13.0625 18.6464 13.2607 18.3884C13.9253 18.8479 14.4789 19.4501 14.881 20.151C14.2931 20.4164 13.9057 20.9713 13.9764 21.5069L14.2418 23.5494C14.2979 23.9775 14.6292 24.2874 15.0717 24.392C15.1438 24.4085 15.2169 24.4195 15.2906 24.4249ZM5.67661 28.2426C8.34765 28.8702 11.4816 27.4184 12.6632 25.006C13.8447 22.5935 12.6331 20.1181 9.96209 19.4905C7.29105 18.863 4.15611 20.3147 2.97458 22.7272C1.79305 25.1396 3.00557 27.6141 5.67661 28.2426ZM13.6965 25.4766C13.7814 25.4944 13.8698 25.4843 13.9485 25.4479C14.0272 25.4114 14.092 25.3505 14.1333 25.2742C14.1515 25.2413 14.1615 25.2044 14.1624 25.1668C14.1634 25.1292 14.1552 25.0919 14.1387 25.058C14.1222 25.0242 14.0977 24.9949 14.0675 24.9725C14.0372 24.9501 14.002 24.9353 13.9648 24.9295C13.8799 24.912 13.7917 24.9223 13.713 24.9587C13.6344 24.9951 13.5696 25.0558 13.528 25.1319C13.51 25.1649 13.5002 25.2017 13.4994 25.2392C13.4986 25.2768 13.5067 25.314 13.5232 25.3478C13.5397 25.3815 13.5641 25.4108 13.5942 25.4333C13.6244 25.4557 13.6594 25.4706 13.6965 25.4766ZM1.90055 22.702C1.98543 22.7196 2.07373 22.7094 2.15239 22.673C2.23105 22.6365 2.29589 22.5757 2.33732 22.4996C2.35532 22.4666 2.36514 22.4299 2.36598 22.3924C2.36681 22.3549 2.35863 22.3177 2.34212 22.284C2.3256 22.2503 2.30125 22.2211 2.27109 22.1988C2.24093 22.1765 2.20586 22.1617 2.16881 22.1558C2.08403 22.1381 1.99581 22.1481 1.91716 22.1844C1.83852 22.2206 1.77361 22.2812 1.73203 22.3572C1.71383 22.3902 1.70384 22.427 1.7029 22.4646C1.70196 22.5023 1.71011 22.5396 1.72664 22.5734C1.74317 22.6072 1.7676 22.6366 1.79787 22.659C1.82815 22.6813 1.86336 22.6961 1.90055 22.702ZM8.65272 29.3951C8.83479 29.3534 8.96651 29.2014 8.94326 29.0484C8.93588 28.9991 8.91321 28.9535 8.87845 28.9178C8.84368 28.8822 8.7986 28.8584 8.74957 28.8498C8.69383 28.8367 8.63582 28.8367 8.58009 28.8498C8.39801 28.8915 8.26824 29.0435 8.28955 29.1965C8.2972 29.2457 8.31997 29.2912 8.35468 29.3267C8.38939 29.3623 8.43433 29.3862 8.48324 29.3951C8.53865 29.4081 8.59634 29.4081 8.65175 29.3951L8.65272 29.3951ZM2.91357 27.9337C3.06077 27.8233 3.09273 27.6431 2.98523 27.5346C2.94866 27.4985 2.9027 27.4733 2.85255 27.462C2.79546 27.4503 2.73652 27.451 2.67972 27.4641C2.62292 27.4771 2.56957 27.5022 2.52327 27.5376C2.37606 27.6489 2.34411 27.8281 2.45064 27.9366C2.48744 27.9729 2.53378 27.9981 2.58429 28.0092C2.64138 28.0209 2.70032 28.0202 2.75712 28.0071C2.81392 27.9941 2.86727 27.969 2.91357 27.9337ZM12.9411 19.6958C12.7929 19.8072 12.76 19.9864 12.8685 20.0949C12.9052 20.1308 12.9511 20.156 13.0012 20.1675C13.0582 20.1791 13.117 20.1785 13.1738 20.1656C13.2306 20.1528 13.284 20.128 13.3304 20.0929C13.4786 19.9815 13.5106 19.8024 13.4021 19.6929C13.3657 19.6567 13.3196 19.6318 13.2694 19.6213C13.2126 19.6092 13.1537 19.6096 13.0971 19.6224C13.0404 19.6353 12.9872 19.6604 12.9411 19.6958ZM7.20776 18.2364C7.02666 18.277 6.89495 18.4301 6.91722 18.5831C6.92552 18.6314 6.94861 18.676 6.9833 18.7107C7.01798 18.7454 7.06257 18.7685 7.11092 18.7768C7.16665 18.7898 7.22466 18.7898 7.2804 18.7768C7.4615 18.7361 7.59321 18.5831 7.57094 18.4301C7.56186 18.382 7.53852 18.3379 7.50397 18.3033C7.46942 18.2688 7.42526 18.2454 7.37724 18.2364C7.32144 18.2239 7.26356 18.2239 7.20776 18.2364Z" fill="#FE3030"/>
<path d="M5.53493 17.8181C3.83623 18.4835 2.32057 19.6137 1.2998 21.0499C1.43527 21.1506 1.59033 21.2219 1.75499 21.2591C1.99746 21.3094 2.24792 21.307 2.48938 21.2521C2.73084 21.1971 2.95765 21.0908 3.15443 20.9405L5.15722 19.4326C5.74702 18.9871 5.90295 18.2869 5.53493 17.8181Z" fill="#F67067"/>
<path d="M8.49662 17.1595C9.30908 17.1085 10.1246 17.1757 10.9178 17.359C11.757 17.5477 12.5523 17.8955 13.2605 18.3836C13.0629 18.6425 12.7965 18.8406 12.4917 18.9553C12.1868 19.07 11.8559 19.0968 11.5367 19.0325L9.26849 18.4989C8.60606 18.3381 8.28162 17.757 8.49662 17.1595Z" fill="#F67067"/>
<path d="M13.2701 19.6222C13.3203 19.6328 13.3664 19.6577 13.4028 19.6939C13.5112 19.8033 13.4793 19.9844 13.3311 20.0938C13.2846 20.1289 13.2313 20.1537 13.1745 20.1665C13.1177 20.1794 13.0589 20.18 13.0018 20.1684C12.9517 20.1569 12.9058 20.1318 12.8691 20.0958C12.7607 19.9863 12.7936 19.8052 12.9418 19.6968C12.9878 19.6613 13.041 19.6362 13.0977 19.6234C13.1544 19.6105 13.2132 19.6101 13.2701 19.6222Z" fill="#FFFCED"/>
<path d="M15.2179 21.2831C15.0681 20.9228 14.9174 20.5629 14.7656 20.2033C14.8034 20.1829 14.8412 20.1636 14.8809 20.1461L15.3322 21.226C15.2934 21.2434 15.2547 21.2599 15.2179 21.2831Z" fill="#FE3030"/>
<path d="M15.2176 21.2832C14.6956 21.565 14.3625 22.0822 14.4274 22.5858L13.976 21.506C13.9102 21.0024 14.2433 20.4862 14.7653 20.2034C14.8748 20.462 14.8748 20.462 15.2176 21.2832Z" fill="#FE3030"/>
<path d="M0.853651 27.9423L0.402344 26.8624C0.531659 27.17 0.690248 27.4645 0.875924 27.7418L1.32723 28.8216C1.14172 28.5443 0.983144 28.2498 0.853651 27.9423Z" fill="#F67067"/>
<path d="M2.84953 27.4631C2.89968 27.4744 2.94564 27.4996 2.98221 27.5357C3.08971 27.6452 3.05775 27.8263 2.91055 27.9347C2.86425 27.9701 2.8109 27.9952 2.7541 28.0082C2.6973 28.0213 2.63836 28.022 2.58127 28.0103C2.53076 27.9992 2.48442 27.974 2.44762 27.9376C2.34109 27.8282 2.37304 27.6471 2.52025 27.5386C2.56655 27.5032 2.6199 27.4782 2.6767 27.4652C2.7335 27.4521 2.79244 27.4514 2.84953 27.4631Z" fill="#FFFCED"/>
<path d="M2.58777 29.372L3.04296 30.4519C2.36241 30.0374 1.77856 29.4819 1.3307 28.8229L0.879395 27.743C1.32614 28.4017 1.90863 28.9571 2.58777 29.372Z" fill="#F50000"/>
<path d="M4.18393 28.8781L4.63621 29.958C4.34995 29.8999 4.05369 29.9147 3.77464 30.001C3.49559 30.0873 3.2427 30.2424 3.0392 30.4519L2.58789 29.372C2.7913 29.1627 3.04402 29.0077 3.32289 28.9214C3.60175 28.8351 3.89782 28.8202 4.18393 28.8781Z" fill="#FE3030"/>
<path d="M15.1489 20.6973L15.6002 21.7771C16.069 22.8976 16.1387 24.1876 15.7397 25.5048L15.2884 24.4249C15.6893 23.1078 15.6196 21.8178 15.1489 20.6973Z" fill="#FB4242"/>
<path d="M14.8806 20.1461C15.5828 21.3838 15.7523 22.8859 15.2903 24.4248C15.2166 24.4191 15.1434 24.4078 15.0714 24.3909C14.6269 24.2863 14.2966 23.9764 14.2414 23.5484L13.9761 21.5058C13.9054 20.9693 14.2928 20.4115 14.8806 20.1461Z" fill="#F67067"/>
<path d="M13.9596 24.9296C13.9968 24.9354 14.032 24.9502 14.0623 24.9726C14.0925 24.995 14.117 25.0243 14.1335 25.0581C14.15 25.092 14.1582 25.1293 14.1572 25.1669C14.1563 25.2045 14.1463 25.2414 14.1281 25.2743C14.0868 25.3506 14.022 25.4115 13.9433 25.448C13.8646 25.4844 13.7762 25.4945 13.6913 25.4767C13.6542 25.4707 13.6192 25.4558 13.589 25.4334C13.5589 25.4109 13.5345 25.3816 13.518 25.3479C13.5015 25.3141 13.4934 25.2769 13.4942 25.2393C13.495 25.2018 13.5048 25.165 13.5228 25.132C13.5644 25.0559 13.6292 24.9952 13.7078 24.9588C13.7865 24.9224 13.8747 24.9121 13.9596 24.9296Z" fill="#FFFCED"/>
<path d="M6.45224 29.4106L6.90451 30.4904L4.63636 29.9568L4.18408 28.877L6.45224 29.4106Z" fill="#FE3030"/>
<path d="M15.2902 24.4249L15.7415 25.5048C15.6345 25.8575 15.4988 26.2008 15.3357 26.5314C15.1249 26.9597 14.8743 27.3673 14.587 27.7487L14.1357 26.6689C14.4225 26.2858 14.6731 25.877 14.8844 25.4476C15.0467 25.1181 15.1824 24.7761 15.2902 24.4249Z" fill="#F50000"/>
<path d="M14.4421 27.71C14.1997 27.6597 13.9494 27.6621 13.7081 27.7171C13.4668 27.772 13.2402 27.8783 13.0436 28.0286L12.5913 26.9478C12.7878 26.7984 13.014 26.6927 13.2547 26.6377C13.4953 26.5828 13.745 26.5799 13.9869 26.6292C14.036 26.6412 14.0845 26.6558 14.1321 26.6728C14.2819 27.033 14.4324 27.393 14.5835 27.7526C14.5373 27.7354 14.4901 27.7212 14.4421 27.71Z" fill="#FE3030"/>
<path d="M12.5912 26.9479L13.0435 28.0277L11.0397 29.5366L10.5884 28.4558L12.5912 26.9479Z" fill="#FE3030"/>
<path d="M8.75132 28.8509C8.80035 28.8595 8.84544 28.8833 8.8802 28.9189C8.91496 28.9545 8.93763 29.0002 8.94501 29.0494C8.96535 29.1986 8.83364 29.3545 8.65447 29.3961C8.59906 29.4092 8.54137 29.4092 8.48596 29.3961C8.43705 29.3873 8.39211 29.3634 8.3574 29.3278C8.32269 29.2922 8.29992 29.2467 8.29227 29.1976C8.27386 29.0475 8.40364 28.8925 8.58281 28.8509C8.63823 28.838 8.69589 28.838 8.75132 28.8509Z" fill="#FFFCED"/>
<path d="M6.45209 29.4118C6.97894 29.5357 7.29175 29.9279 7.28982 30.3851C6.39983 30.4643 5.5029 30.4022 4.63233 30.2011C3.91059 30.0368 3.22018 29.7569 2.58789 29.372C2.7913 29.1627 3.04402 29.0077 3.32289 28.9214C3.60175 28.8351 3.89782 28.8202 4.18393 28.8781L6.45209 29.4118Z" fill="#F67067"/>
<path d="M7.28936 30.3848L7.74163 31.4647C6.85137 31.5438 5.95421 31.482 5.08318 31.2817C4.36287 31.1163 3.67386 30.836 3.04262 30.4517L2.59131 29.3718C3.2236 29.7567 3.91401 30.0366 4.63575 30.2008C5.50507 30.4016 6.40065 30.4637 7.28936 30.3848Z" fill="#FB4242"/>
<path d="M11.0398 29.5365C10.8837 29.6456 10.7522 29.7862 10.6536 29.9491C10.555 30.1121 10.4916 30.2938 10.4674 30.4827L10.0161 29.4019C10.0409 29.2132 10.1047 29.0317 10.2034 28.869C10.3021 28.7063 10.4336 28.5659 10.5894 28.4567L11.0398 29.5365Z" fill="#FE3030"/>
<path d="M10.4674 30.4827C10.4571 30.5934 10.466 30.7052 10.4936 30.8129L10.0413 29.7331C10.0141 29.6249 10.0053 29.5129 10.0152 29.4019L10.0684 29.5287L10.1246 29.6624L10.1827 29.8009L10.2418 29.9423L10.2708 30.013L10.3009 30.0837L10.359 30.2221L10.3871 30.2899L10.4413 30.4207C10.4524 30.4403 10.4611 30.4611 10.4674 30.4827Z" fill="#FE3030"/>
<path d="M10.041 29.733L10.4932 30.8129C9.61252 31.1622 8.68569 31.3818 7.74182 31.4647L7.28955 30.3848C8.23345 30.3021 9.16029 30.0826 10.041 29.733Z" fill="#F50000"/>
<path d="M12.5912 26.9478C12.7877 26.7984 13.0139 26.6927 13.2546 26.6377C13.4952 26.5828 13.7449 26.5799 13.9868 26.6292C14.0359 26.6412 14.0844 26.6558 14.132 26.6728C13.1181 28.0286 11.6624 29.0939 10.0374 29.7331C9.92695 29.306 10.1235 28.8034 10.5845 28.4567L12.5912 26.9478Z" fill="#F67067"/>
<path d="M14.1357 26.6729L14.587 27.7488C13.574 29.1047 12.1184 30.17 10.4933 30.8092L10.041 29.7293C11.6622 29.0921 13.1217 28.0297 14.1357 26.6729Z" fill="#FB4242"/>
<path d="M0.53591 5.91712C0.484539 5.76872 0.470773 5.6099 0.495844 5.45487C0.520915 5.29984 0.584039 5.15345 0.679567 5.02881C0.775094 4.90416 0.900042 4.80515 1.04322 4.74064C1.1864 4.67613 1.34335 4.64814 1.5 4.65916C5.45105 4.70018 9.38744 4.17226 13.1881 3.09165C13.4973 2.99 13.8335 3.008 14.1301 3.14208C14.4268 3.27616 14.6624 3.51659 14.7904 3.81589C17.1284 10.1331 20.403 15.9164 24.1727 21.4805C24.6441 22.1506 24.4897 23.0091 23.7931 23.3764C19.8134 25.3324 15.6413 26.8697 11.344 27.9638C10.5601 28.1437 9.54026 27.6197 9.09519 26.8217C5.49859 20.145 2.51481 13.2556 0.53591 5.91712Z" fill="url(#paint0_linear_3678_24120)"/>
<path opacity="0.67" d="M5.1442 18.8569C8.57122 17.1427 12.6246 11.6956 15.4303 5.47212C17.8056 11.0855 20.7346 16.4481 24.1738 21.4803C24.6453 22.1504 24.4908 23.0088 23.7943 23.3762C19.8146 25.3321 15.6425 26.8695 11.3452 27.9635C10.5612 28.1435 9.54261 27.6175 9.09754 26.8194C8.54968 25.8552 5.64524 19.8208 5.1442 18.8569Z" fill="url(#paint1_linear_3678_24120)"/>
<path d="M12.0813 17.58C12.3086 17.2954 12.4213 17.1525 12.6446 16.8654C13.0668 16.973 13.2792 17.0248 13.703 17.125C14.1389 17.2326 14.596 17.2179 15.0241 17.0824L15.2282 17.0133C16.3197 16.6461 16.7095 15.4525 16.1883 14.4296C15.8966 13.8809 15.4088 13.4623 14.8221 13.2574C13.2234 12.6976 11.6559 12.0525 10.1262 11.3249C9.22963 12.7805 8.78113 13.511 7.89187 14.9681C7.75425 15.219 7.6799 15.4996 7.67526 15.7857C7.67061 16.0718 7.73582 16.3547 7.86523 16.6099C8.37217 17.7404 9.75032 18.5025 10.8788 18.2403L11.0814 18.1923C11.4731 18.104 11.8246 17.8888 12.0813 17.58Z" fill="black"/>
<path d="M9.84554 18.2448L10.0774 18.2916C10.9672 15.8678 11.4365 14.68 12.3925 12.326C11.4771 11.947 11.0244 11.7467 10.1194 11.3269C9.23695 12.7633 8.79657 13.4848 7.91784 14.9289C7.7689 15.2008 7.68875 15.505 7.68441 15.8149C7.68007 16.1249 7.75165 16.4312 7.89292 16.7071C8.07918 17.0956 8.35205 17.4363 8.69055 17.7028C9.02906 17.9694 9.42418 18.1548 9.84554 18.2448Z" fill="#404660"/>
<path d="M12.6479 16.8599L12.6815 16.8964C13.7688 18.1349 15.1408 19.0907 16.6793 19.6816C15.1411 19.7755 13.6487 20.2411 12.33 21.0385C12.8152 19.7183 12.9272 18.29 12.6538 16.9103L12.6479 16.8599Z" fill="black"/>
<path d="M2.1563 5.49188L2.52721 5.48606C2.63863 5.89771 2.70821 6.1104 2.81798 6.51554C2.84648 6.59964 2.84837 6.69048 2.8234 6.7757C2.81342 6.8155 2.79554 6.85288 2.77083 6.88563C2.74612 6.91839 2.71507 6.94584 2.67955 6.96637C2.60309 7.01314 2.51495 7.03731 2.42532 7.03609C2.27227 7.04396 2.12076 7.00224 1.9933 6.91714C1.87343 6.83056 1.78803 6.70439 1.75219 6.56093L2.12718 6.55754C2.13911 6.61421 2.16617 6.6666 2.20549 6.70912C2.24348 6.74094 2.29218 6.75707 2.34165 6.75423C2.36305 6.75628 2.38457 6.75167 2.40326 6.74104C2.42195 6.73041 2.4369 6.71426 2.44608 6.69482C2.46322 6.6426 2.46172 6.58605 2.44183 6.53482C2.3271 6.11015 2.26773 5.90353 2.1563 5.49188Z" fill="black"/>
<path d="M20.8914 19.0035C20.855 19.0648 20.8368 19.0954 20.7991 19.1586L20.5975 19.1353C20.5116 19.1248 20.4245 19.1379 20.3456 19.1733L20.3371 19.1876C20.2882 19.2093 20.2447 19.2416 20.2098 19.2823C20.1749 19.3229 20.1495 19.3708 20.1354 19.4224C20.1214 19.4741 20.119 19.5282 20.1284 19.581C20.1378 19.6337 20.1589 19.6836 20.19 19.7272C20.259 19.8343 20.3652 19.9122 20.488 19.946C20.8817 20.0504 21.077 20.103 21.4743 20.2013C21.5814 19.8589 21.6333 19.6882 21.7424 19.347C21.7589 19.2913 21.7629 19.2327 21.7541 19.1754C21.7452 19.118 21.7237 19.0633 21.6911 19.0153C21.6301 18.9169 21.5353 18.8441 21.4244 18.8107C21.3136 18.7772 21.1943 18.7855 21.0891 18.8339L21.0692 18.8441C20.9948 18.8776 20.9327 18.9333 20.8914 19.0035Z" fill="black"/>
<path d="M20.8047 19.1627L20.7904 19.1542C20.5684 18.9462 20.3039 18.7888 20.0152 18.6929C20.3035 18.6492 20.5724 18.5206 20.7874 18.3236C20.7165 18.591 20.7209 18.8728 20.8002 19.1379L20.8047 19.1627Z" fill="black"/>
<path d="M22.7071 22.3842L22.3457 22.5642C22.0666 22.1605 21.9303 21.9578 21.6617 21.5549C21.5992 21.4717 21.5625 21.3721 21.556 21.2682C21.5509 21.1757 21.5763 21.0841 21.6284 21.0074C21.6851 20.9261 21.7626 20.8616 21.8529 20.8205C21.9921 20.7433 22.1546 20.7193 22.3103 20.7529C22.4613 20.7921 22.5912 20.8882 22.6728 21.0211L22.3144 21.2056C22.2835 21.1505 22.2372 21.1057 22.1812 21.0766C22.1569 21.0676 22.1309 21.0642 22.1051 21.0665C22.0793 21.0689 22.0544 21.077 22.0322 21.0902C22.0109 21.1012 21.9932 21.1179 21.981 21.1385C21.9688 21.159 21.9625 21.1826 21.963 21.2065C21.9633 21.2694 21.9843 21.3304 22.0226 21.3802C22.2952 21.7717 22.4279 21.9805 22.7071 22.3842Z" fill="black"/>
<path fill-rule="evenodd" clip-rule="evenodd" d="M3.36122 9.23711C3.28288 9.30377 3.24228 9.33486 3.16636 9.39743C3.07272 9.47395 2.95588 9.51643 2.83496 9.51793L2.77512 9.52099C2.59463 9.51708 2.41972 9.45765 2.27421 9.35079C2.1287 9.24392 2.01964 9.09482 1.96189 8.92378C1.93167 8.84702 1.92196 8.76371 1.93373 8.68206C1.9455 8.60041 1.97834 8.52324 2.02902 8.45814C2.34441 8.07671 2.50089 7.88804 2.81833 7.50782C3.35257 7.8589 3.61498 8.02611 4.16506 8.3645C4.33081 8.46419 4.45685 8.61828 4.52169 8.80051C4.54892 8.87015 4.55933 8.94524 4.55205 9.01966C4.54477 9.09409 4.52002 9.16574 4.47981 9.22879C4.4396 9.29183 4.38506 9.34449 4.32065 9.38247C4.25624 9.42045 4.18376 9.44269 4.10913 9.44736L4.04807 9.45246C3.91364 9.45804 3.77981 9.43145 3.65773 9.37488L3.35918 9.2359L3.37142 9.24318C3.63332 9.65679 3.97815 10.0116 4.38414 10.2851C3.94236 10.1963 3.48501 10.2252 3.05791 10.3689C3.27214 10.0374 3.37775 9.64733 3.36006 9.253L3.36122 9.23711Z" fill="black"/>
<g clip-path="url(#clip1_3678_24120)">
<path d="M17.6271 12.7974C17.7338 12.9972 17.8405 13.2045 17.9333 13.4036C18.0261 13.6027 18.1239 13.8132 18.2101 14.0211C18.2964 14.2291 18.3793 14.4377 18.4578 14.6479C18.5362 14.8581 18.6068 15.0705 18.6741 15.2835L10.002 16.8984L19.8978 1.43059C19.9877 1.28927 20.1119 1.17292 20.2588 1.09237C20.402 1.01532 20.5617 0.974337 20.7242 0.972982C20.8993 0.969915 21.0732 1.00306 21.2348 1.07033C21.4177 1.14504 21.5862 1.251 21.7327 1.38347L31.6273 10.2318C31.765 10.3631 31.882 10.5144 31.9743 10.6807C32.0671 10.8418 32.1369 11.0152 32.1814 11.1957C32.2252 11.3703 32.2416 11.5507 32.2299 11.7304C32.2196 11.8997 32.1775 12.0656 32.1056 12.2193L31.8094 12.8392L24.0526 14.2844C24.029 14.0891 24.0072 13.8962 23.9872 13.7056C23.9709 13.5141 23.9583 13.3199 23.9508 13.1273C23.9433 12.9348 23.94 12.7428 23.9398 12.5523C23.9395 12.3618 23.9441 12.1675 23.9551 11.9817C23.5117 12.2397 23.0436 12.4526 22.5578 12.6173C22.0573 12.786 21.5418 12.9067 21.0184 12.9776C20.4701 13.0502 19.9163 13.0722 19.364 13.0434C18.779 13.0115 18.1978 12.9292 17.6271 12.7974ZM18.7638 7.95582C18.928 7.87109 19.0997 7.80216 19.2769 7.74997C19.4552 7.70033 19.6378 7.66773 19.8223 7.65262C20.0091 7.63616 20.1971 7.63777 20.3836 7.65741C20.5756 7.67556 20.7656 7.71058 20.9514 7.76204C20.8475 7.5683 20.7564 7.36794 20.6788 7.16226C20.6046 6.95917 20.5436 6.75152 20.4961 6.54058C20.4478 6.33478 20.4139 6.12583 20.3947 5.91526C20.3771 5.70921 20.3753 5.50208 20.3894 5.29572C20.2289 5.37381 20.0608 5.43535 19.8878 5.47937C19.7107 5.52522 19.5297 5.55404 19.3471 5.56545C19.1579 5.57742 18.9679 5.57231 18.7797 5.5502C18.5812 5.52705 18.385 5.48729 18.1932 5.43135C18.2983 5.63013 18.3901 5.83562 18.4682 6.04651C18.545 6.25322 18.6073 6.46507 18.6546 6.68051C18.7021 6.89149 18.7342 7.10565 18.7508 7.32131C18.7682 7.53376 18.7692 7.74726 18.7536 7.9599L18.7638 7.95582ZM21.7669 2.62338L19.9262 3.82678L20.4286 4.26425L20.7525 4.01385L21.3913 4.57095L21.2935 5.01268L21.791 5.4463L22.1929 3.00162L21.765 2.621" fill="white"/>
<path d="M22.1951 3.00404L21.7931 5.44873L21.2957 5.0151L21.3934 4.57337L20.7547 4.01628L20.4307 4.26667L19.9284 3.8292L21.769 2.6258L22.1951 3.00404ZM21.073 3.77593L21.4861 4.13745L21.6673 3.32426L21.0767 3.7807" fill="#F04E5E"/>
<path d="M21.6717 3.3206L21.4906 4.13379L21.0784 3.77346L21.6717 3.3206Z" fill="white"/>
<path d="M20.395 5.29544C20.3809 5.5018 20.3827 5.70892 20.4003 5.91497C20.4195 6.12555 20.4533 6.3345 20.5017 6.5403C20.5492 6.75123 20.6102 6.95889 20.6843 7.16198C20.762 7.36766 20.8531 7.56802 20.957 7.76176C20.7712 7.71029 20.5812 7.67528 20.3892 7.65712C20.2027 7.63748 20.0147 7.63588 19.8279 7.65234C19.6434 7.66745 19.4608 7.70004 19.2825 7.74968C19.1053 7.80187 18.9335 7.8708 18.7694 7.95553C18.785 7.74289 18.784 7.52939 18.7666 7.31694C18.75 7.10128 18.7179 6.88712 18.6704 6.67614C18.6231 6.4607 18.5608 6.24885 18.484 6.04214C18.4059 5.83126 18.3141 5.62577 18.209 5.427C18.4008 5.48293 18.597 5.52269 18.7955 5.54584C18.9837 5.56796 19.1737 5.57306 19.3629 5.5611C19.5455 5.54969 19.7265 5.52085 19.9036 5.475C20.073 5.43164 20.2376 5.37149 20.395 5.29544Z" fill="#F04E5E"/>
<path d="M23.1171 31.052C23.0211 31.246 22.8895 31.4202 22.7291 31.5655C22.5855 31.6964 22.4153 31.7948 22.2302 31.8539C22.0545 31.9085 21.8686 31.9216 21.687 31.8923C21.4914 31.8602 21.3057 31.7839 21.1442 31.6692L8.42751 22.7422C8.36464 22.6955 8.30535 22.6459 8.25399 22.6017C8.2032 22.5558 8.15484 22.5072 8.1091 22.4563C8.06591 22.4077 8.02613 22.3563 7.99006 22.3023C7.95242 22.2516 7.91789 22.1987 7.88667 22.1438C7.79976 21.9946 7.73313 21.8344 7.68854 21.6676C7.64451 21.5015 7.62204 21.3305 7.62167 21.1586C7.62286 20.9863 7.6471 20.8149 7.69373 20.649C7.7403 20.4827 7.81041 20.3238 7.90194 20.1772L9.99534 16.9019L18.6762 15.286C18.8086 15.7043 18.9199 16.1274 19.0115 16.5524C19.1032 16.9774 19.1778 17.4099 19.2319 17.843C19.2859 18.2761 19.3189 18.714 19.3325 19.1516C19.3461 19.5893 19.3378 20.0305 19.3091 20.4703C19.7911 20.1572 20.3016 19.8903 20.8337 19.6733C21.3442 19.4665 21.8731 19.3087 22.4133 19.2019C22.9396 19.0989 23.4744 19.0463 24.0105 19.0448C24.5442 19.0433 25.0767 19.0928 25.6008 19.1925C25.3983 18.8094 25.2131 18.4166 25.0471 18.0167C24.8812 17.6167 24.7314 17.208 24.6004 16.7963C24.4693 16.3846 24.3596 15.9659 24.2661 15.5461C24.1727 15.1263 24.1031 14.7052 24.0522 14.2811L31.809 12.8359L23.1171 31.052ZM20.6079 29.6808C20.776 29.5541 20.9549 29.4426 21.1427 29.3475C21.3236 29.2557 21.5127 29.1811 21.7075 29.1246C21.8977 29.0688 22.0928 29.0317 22.2901 29.0137C22.4866 28.9953 22.6845 28.9963 22.8807 29.0168C22.7711 28.8147 22.6766 28.6048 22.5977 28.3888C22.517 28.171 22.4511 27.9479 22.4006 27.7212C22.3522 27.4949 22.3192 27.2656 22.3016 27.0348C22.2817 26.8024 22.278 26.5689 22.2904 26.3359C22.1263 26.4559 21.9514 26.5605 21.7679 26.6482C21.5883 26.7347 21.4009 26.8041 21.2084 26.8557C21.0152 26.9066 20.8178 26.9399 20.6186 26.9549C20.4154 26.9694 20.2113 26.9643 20.0092 26.9397C20.1209 27.1459 20.2174 27.36 20.2981 27.5803C20.3796 27.8021 20.4461 28.0292 20.4969 28.26C20.5475 28.4929 20.5826 28.7289 20.6019 28.9665C20.6205 29.2071 20.6229 29.4486 20.6089 29.6896L20.6079 29.6808ZM23.684 23.0446L21.787 24.7779L22.3114 25.1698L22.6479 24.822L23.3112 25.3219L23.2136 25.8455L23.7322 26.2323L24.1319 23.3869L23.6792 23.0483" fill="#F9FAFF"/>
<path d="M23.5947 23.8384L23.4123 24.7956L22.9837 24.4709L23.5947 23.8384Z" fill="#F9FAFF"/>
<path d="M24.1344 23.3754L23.7347 26.2208L23.2161 25.834L23.3137 25.3104L22.6504 24.8105L22.3139 25.1583L21.7895 24.7664L23.6865 23.0332L24.1344 23.3754ZM22.9827 24.4697L23.4123 24.7956L23.5935 23.8393L22.9827 24.4697Z" fill="#F04E5E"/>
<path d="M23.958 11.9777C23.9535 12.172 23.9446 12.3581 23.9427 12.5484C23.9408 12.7386 23.9443 12.9285 23.9537 13.1234C23.963 13.3183 23.9739 13.5102 23.9901 13.7017C24.0064 13.8932 24.0263 14.0895 24.0555 14.2805C24.11 14.7018 24.1817 15.1231 24.2695 15.5455C24.3572 15.9678 24.4738 16.383 24.6037 16.7956C24.7336 17.2082 24.8824 17.6157 25.0505 18.016C25.2185 18.4163 25.4016 18.8088 25.6042 19.1919C25.0801 19.0921 24.5475 19.0426 24.0139 19.0442C23.4777 19.0457 22.9429 19.0983 22.4166 19.2012C21.8764 19.308 21.3475 19.4659 20.8371 19.6727C20.3049 19.8897 19.7944 20.1565 19.3125 20.4697C19.341 20.0306 19.3488 19.591 19.3358 19.151C19.3229 18.7109 19.2893 18.2747 19.2352 17.8423C19.1804 17.4091 19.107 16.979 19.0149 16.5518C18.9223 16.1256 18.811 15.7024 18.6795 15.2853C18.6122 15.0722 18.5416 14.8598 18.4632 14.6497C18.3847 14.4395 18.303 14.2299 18.2155 14.0229C18.1281 13.8159 18.0364 13.6083 17.9387 13.4054C17.8411 13.2024 17.7392 12.999 17.6325 12.7992C18.2042 12.9298 18.7863 13.0108 19.3721 13.0413C19.9243 13.0701 20.4781 13.048 21.0265 12.9754C21.5498 12.9045 22.0653 12.7839 22.5659 12.6151C23.05 12.4496 23.5163 12.2361 23.958 11.9777Z" fill="#FF1D25"/>
<path d="M22.2891 26.3273C22.2748 26.5591 22.2765 26.7917 22.2942 27.0232C22.3118 27.254 22.3448 27.4833 22.3932 27.7096C22.4437 27.9364 22.5096 28.1594 22.5903 28.3772C22.6691 28.5932 22.7637 28.8031 22.8733 29.0053C22.6771 28.9848 22.4792 28.9837 22.2827 29.0021C22.0854 29.0201 21.8903 29.0572 21.7001 29.113C21.5053 29.1695 21.3162 29.2441 21.1353 29.336C20.9475 29.431 20.7685 29.5426 20.6005 29.6693C20.6144 29.4283 20.6121 29.1868 20.5934 28.9462C20.5742 28.7086 20.5391 28.4726 20.4885 28.2397C20.4376 28.0089 20.3712 27.7818 20.2896 27.56C20.209 27.3397 20.1124 27.1256 20.0007 26.9194C20.2029 26.944 20.407 26.9491 20.6102 26.9346C20.8094 26.9195 21.0068 26.8863 21.2 26.8354C21.3925 26.7838 21.5798 26.7144 21.7595 26.6279C21.9449 26.5443 22.1222 26.4437 22.2891 26.3273Z" fill="#F04E5E"/>
<path d="M21.1412 31.6678C21.2979 31.7808 21.4776 31.8581 21.6675 31.8941C21.8441 31.9241 22.0251 31.9144 22.1976 31.8659C22.3742 31.8172 22.5388 31.7322 22.6807 31.6164C22.8354 31.4898 22.9645 31.3349 23.0613 31.1601C22.9645 31.3349 22.8354 31.4898 22.6807 31.6164C22.5392 31.7328 22.3745 31.8179 22.1976 31.8659C22.0251 31.9144 21.8441 31.9241 21.6675 31.8941C21.4775 31.8584 21.2978 31.7811 21.1412 31.6678Z" fill="white"/>
<path d="M8.38218 22.7107L8.38956 22.7202L8.39695 22.7298L8.40525 22.7405L8.41263 22.7501L21.1293 31.6771L8.41328 22.7534L8.4059 22.7438L8.39852 22.7343L8.39021 22.7235L8.38283 22.714C8.33101 22.6756 8.28133 22.6344 8.23401 22.5906C8.18729 22.5466 8.14256 22.5011 8.09982 22.4541C8.06014 22.4027 8.0223 22.3538 7.98355 22.3036C7.94479 22.2535 7.91201 22.1987 7.88135 22.1442C7.91201 22.1987 7.94718 22.2516 7.98262 22.3024C8.01806 22.3532 8.06013 22.4027 8.09797 22.4517C8.1358 22.5006 8.18504 22.5446 8.23217 22.5882C8.27979 22.6319 8.32988 22.6728 8.38218 22.7107Z" fill="white"/>
</g>
</g>
<defs>
<linearGradient id="paint0_linear_3678_24120" x1="-4.99125" y1="1.57371" x2="26.9539" y2="27.5664" gradientUnits="userSpaceOnUse">
<stop offset="0.11" stop-color="#ECE7E7"/>
<stop offset="0.5" stop-color="#FDF8F8"/>
<stop offset="1" stop-color="white"/>
</linearGradient>
<linearGradient id="paint1_linear_3678_24120" x1="7.17271" y1="13.3842" x2="19.7524" y2="20.6852" gradientUnits="userSpaceOnUse">
<stop offset="0.15" stop-color="#D1CFDE"/>
<stop offset="1" stop-color="#EEEBFF" stop-opacity="0"/>
</linearGradient>
<clipPath id="clip0_3678_24120">
<rect width="32" height="32" rx="1" fill="white"/>
</clipPath>
<clipPath id="clip1_3678_24120">
<rect width="25.6406" height="26.1155" fill="white" transform="translate(22.9668 -1.01001) rotate(52.2982)"/>
</clipPath>
</defs>
</svg>
