<svg width="20" height="20" viewBox="0 0 20 20" fill="none" xmlns="http://www.w3.org/2000/svg">
<path fill-rule="evenodd" clip-rule="evenodd" d="M13.9062 8.4375C12.6118 8.4375 11.5625 9.48683 11.5625 10.7812C11.5625 11.3093 11.7384 11.7956 12.0331 12.1875H11.875C11.3572 12.1875 10.9375 12.6072 10.9375 13.125V13.4375C10.9375 13.9553 11.3572 14.375 11.875 14.375H12.1753C12.1473 15.1634 12.0381 15.824 11.6248 16.3751C11.1935 16.9501 10.7958 17.1427 10.434 17.3438C10.253 17.4443 10.0712 17.5463 9.92188 17.724C9.77257 17.9017 9.6875 18.151 9.6875 18.4375V18.75C9.6875 19.2678 10.1072 19.6875 10.625 19.6875H17.1875C17.7053 19.6875 18.125 19.2678 18.125 18.75V18.4375C18.125 18.151 18.0399 17.9017 17.8906 17.724C17.7413 17.5463 17.5595 17.4443 17.3785 17.3438C17.0167 17.1427 16.619 16.9501 16.1877 16.3751C15.7744 15.824 15.6652 15.1634 15.6372 14.375H15.9375C16.4553 14.375 16.875 13.9553 16.875 13.4375V13.125C16.875 12.6072 16.4553 12.1875 15.9375 12.1875H15.7794C16.0741 11.7956 16.25 11.3093 16.25 10.7812C16.25 9.48683 15.2007 8.4375 13.9062 8.4375Z" fill="#0085FF"/>
<path fill-rule="evenodd" clip-rule="evenodd" d="M4.375 0.3125C4.20242 0.312519 4.06252 0.452419 4.0625 0.625L4.6875 5.625C4.68752 5.79758 4.82742 5.93748 5 5.9375H5.9375V6.875H5C4.6686 6.875 4.35055 7.00688 4.11621 7.24121C3.88187 7.47555 3.75 7.7936 3.75 8.125V8.75C3.75 9.0814 3.88187 9.39946 4.11621 9.63379C4.35055 9.86815 4.6686 10 5 10H6.24023C6.13877 14.0359 4.12473 15.7131 2.7478 16.4105C2.214 16.673 1.875 17.2176 1.875 17.8125V18.4375C1.875 18.7689 2.00687 19.087 2.24121 19.3213C2.47555 19.5556 2.7936 19.6875 3.125 19.6875H9.3866C9.1863 19.4248 9.0625 19.1019 9.0625 18.75V18.4375C9.0625 18.0273 9.18414 17.6304 9.44336 17.3218C9.67769 17.0428 9.9482 16.8988 10.1306 16.7975C10.5143 16.5843 10.7641 16.4814 11.1249 16.0004C11.3364 15.7184 11.4288 15.3498 11.4856 14.92C10.82 14.7412 10.3125 14.1553 10.3125 13.4375V13.125C10.3125 12.5469 10.6491 12.0566 11.1224 11.7865C11.0078 11.4709 10.9375 11.1348 10.9375 10.7813C10.9375 9.21603 12.1676 7.92577 13.7079 7.82227C13.6532 7.60473 13.545 7.40242 13.3838 7.24121C13.1495 7.00688 12.8314 6.875 12.5 6.875H11.5625V5.9375H12.5C12.6726 5.93748 12.8125 5.79758 12.8125 5.625L13.4375 0.625C13.4375 0.452419 13.2976 0.312519 13.125 0.3125H11.25C11.0774 0.312519 10.9375 0.452419 10.9375 0.625V1.875H10V0.625C9.99998 0.452419 9.86008 0.312519 9.6875 0.3125H7.8125C7.63992 0.312519 7.50002 0.452419 7.5 0.625V1.875H6.5625V0.625C6.56248 0.452419 6.42258 0.312519 6.25 0.3125H4.375Z" fill="#00F963"/>
</svg>
