<svg width="32" height="32" viewBox="0 0 32 32" fill="none" xmlns="http://www.w3.org/2000/svg">
<rect width="7.33333" height="10.6667" transform="matrix(-1 0 0 1 23.3335 9.33337)" fill="#C7CFEF"/>
<rect x="8.6665" y="9.33337" width="7.33333" height="10.6667" fill="#ECEEF6"/>
<rect width="11.3333" height="3.33333" transform="matrix(-1 0 0 1 27.3335 3.33337)" fill="#8B9AD6"/>
<rect x="4" y="3.33337" width="12" height="3.33333" fill="#B4BCDE"/>
<rect width="3.33333" height="3.33333" transform="matrix(-1 0 0 1 19.3335 0)" fill="#B7BEE6"/>
<rect x="12.6665" width="3.33333" height="3.33333" fill="white"/>
<path d="M27.3335 1.33333C27.3335 0.596953 26.7365 0 26.0002 0L21.3335 0V3.33333L27.3335 3.33333V1.33333Z" fill="#B7BEE6"/>
<path d="M4 1.33333C4 0.596953 4.59695 0 5.33333 0L10.6667 0V3.33333L4 3.33333L4 1.33333Z" fill="white"/>
<rect width="10.6667" height="3.33333" transform="matrix(-1 0 0 1 26.6665 23.3334)" fill="#8B9AD6"/>
<rect x="5.3335" y="23.3334" width="10.6667" height="3.33333" fill="#B4BCDE"/>
<path d="M30 28C30 27.2636 29.403 26.6666 28.6667 26.6666H16V32H28.6667C29.403 32 30 31.403 30 30.6666V28Z" fill="#B7BEE6"/>
<path d="M2 28C2 27.2636 2.59695 26.6666 3.33333 26.6666L16 26.6666V32H3.33333C2.59695 32 2 31.403 2 30.6666L2 28Z" fill="#ECEEF6"/>
<path d="M23.3332 20H15.9998V23.3333H26.6665L23.3332 20Z" fill="#DCE0F0"/>
<path d="M8.66683 20H16.0002V23.3333H5.3335L8.66683 20Z" fill="white"/>
<path d="M23.3335 9.33337L16.0002 9.33337V6.66671L27.3335 6.66671V6.6891C27.3335 7.21602 27.0232 7.69351 26.5417 7.90751L23.3335 9.33337Z" fill="#697BC6"/>
<path d="M8.66667 9.33337L16 9.33337V6.66671L4 6.66671C4 7.20191 4.33052 7.68151 4.83066 7.87204L8.66667 9.33337Z" fill="#A9B3D9"/>
<rect x="4.6665" y="26.6666" width="2.66667" height="5.33333" fill="white"/>
<rect opacity="0.5" x="4.6665" y="3.33337" width="2.66667" height="3.33333" fill="#EEEEEE"/>
<rect opacity="0.5" x="8.6665" y="3.33337" width="2.66667" height="3.33333" fill="#EEEEEE"/>
<rect x="9.3335" y="26.6666" width="2.66667" height="5.33333" fill="white"/>
<rect x="10" y="9.33337" width="2.66667" height="10.6667" fill="white"/>
<rect opacity="0.4" x="14.6665" y="26.6666" width="2.66667" height="5.33333" fill="#8090D2"/>
<rect opacity="0.4" x="14.6665" y="9.33337" width="2.66667" height="10.6667" fill="#8090D2"/>
<rect opacity="0.4" x="14.6665" width="2.66667" height="3.33333" fill="#8090D2"/>
<rect opacity="0.4" x="7.3335" width="3.33333" height="3.33333" fill="#ECEEF6"/>
<rect opacity="0.4" x="19.3335" y="9.33337" width="2.66667" height="10.6667" fill="#AAB5E3"/>
<rect opacity="0.4" x="20.6665" y="3.33337" width="2.66667" height="3.33333" fill="#9FAEE8"/>
<rect x="20.6665" y="26.6666" width="2.66667" height="5.33333" fill="#9FAEE8"/>
<rect width="1.33333" height="5.33333" transform="matrix(-1 0 0 1 26.6665 26.6666)" fill="#9FAEE8"/>
</svg>
