<svg width="20" height="20" viewBox="0 0 20 20" fill="none" xmlns="http://www.w3.org/2000/svg">
<path d="M15.1332 3.75836C11.7232 3.19171 8.24312 3.19171 4.83317 3.75836C2.88317 4.16669 1.6665 5.42502 1.6665 7.06669V12.9C1.6665 14.5667 2.88317 15.8084 4.8665 16.2334C6.56276 16.5189 8.27971 16.6639 9.99984 16.6667C11.7252 16.6663 13.4477 16.5242 15.1498 16.2417C17.0832 15.875 18.3332 14.575 18.3332 12.9084V7.07502C18.3332 5.41669 17.0832 4.11669 15.1332 3.75836ZM12.7165 10.375L8.54984 12.875C8.48466 12.9147 8.40948 12.935 8.33317 12.9334C8.26082 12.9328 8.18957 12.9157 8.12484 12.8834C8.05931 12.8436 8.00551 12.7872 7.96891 12.7198C7.93231 12.6525 7.91423 12.5766 7.9165 12.5V7.50002C7.91713 7.42622 7.9366 7.35381 7.97306 7.28964C8.00952 7.22547 8.06176 7.17168 8.12484 7.13336C8.1902 7.09834 8.26319 7.08002 8.33734 7.08002C8.41148 7.08002 8.48448 7.09834 8.54984 7.13336L12.7165 9.63336C12.7767 9.67176 12.8263 9.72473 12.8606 9.78736C12.895 9.84999 12.913 9.92026 12.913 9.99169C12.913 10.0631 12.895 10.1334 12.8606 10.196C12.8263 10.2587 12.7767 10.3116 12.7165 10.35V10.375Z" fill="#FE3030"/>
</svg>
