<svg width="32" height="32" viewBox="0 0 32 32" fill="none" xmlns="http://www.w3.org/2000/svg">
<g clip-path="url(#clip0_3678_24950)">
<path d="M16.3102 12.4066C16.2945 12.3754 16.2809 12.3432 16.2696 12.3102C16.0487 11.7831 15.8278 11.2555 15.6069 10.7274C15.6874 10.8287 15.7533 10.9407 15.8027 11.0602L16.506 12.7394C16.4551 12.6206 16.3893 12.5088 16.3102 12.4066Z" fill="#3058FE"/>
<path d="M18.9033 13.0572L18.6021 12.3268L18.2075 11.378C18.2943 11.3585 18.3843 11.3585 18.4711 11.378L18.5524 11.5753L18.6397 11.7831L18.7301 11.9985L18.822 12.2183L18.9138 12.4382L19.0042 12.6536L19.0915 12.8614L19.1729 13.0587C19.0844 13.0367 18.992 13.0361 18.9033 13.0572Z" fill="#3058FE"/>
<path d="M19.1652 13.0557L18.4634 11.375L18.5447 11.5723L18.632 11.7801L18.7224 11.9955L18.8143 12.2153L18.9061 12.4352L18.9965 12.6506L19.0838 12.8584L19.1652 13.0557Z" fill="#3058FE"/>
<path d="M20.9181 12.5181L20.2224 10.8389C20.0754 10.4753 20.0717 10.0696 20.2118 9.70337L20.9181 11.3825C20.7746 11.7474 20.7746 12.1532 20.9181 12.5181Z" fill="#3058FE"/>
<path d="M17.7437 11.9171L17.8054 12.0677L17.8686 12.2183L17.9349 12.3764L18.0027 12.5391L18.072 12.7032L18.1412 12.8689L18.209 13.033L18.2768 13.1942L17.7437 11.9186V11.9171Z" fill="#3058FE"/>
<path d="M18.447 13.5962C18.4499 13.6268 18.4575 13.6568 18.4695 13.6851L17.7678 12.0044C17.7557 11.9766 17.7476 11.9472 17.7437 11.9171C17.9786 12.4773 18.2125 13.037 18.4454 13.5962C18.2125 13.036 17.9786 12.4763 17.7437 11.9171C17.7135 11.6836 17.9184 11.4412 18.1955 11.3779L18.8988 13.0571C18.6201 13.1204 18.4153 13.3688 18.447 13.5962Z" fill="#3058FE"/>
<path d="M19.4468 13.2755C19.4207 13.2192 19.3815 13.1699 19.3325 13.1316C19.2835 13.0934 19.2262 13.0674 19.1652 13.0557L18.4634 11.375C18.5242 11.3872 18.5813 11.4136 18.63 11.4521C18.6787 11.4905 18.7176 11.54 18.7435 11.5964L19.4468 13.2755Z" fill="#3058FE"/>
<path d="M15.7978 11.0602L16.5011 12.7394C16.7933 13.4396 16.5011 14.3236 15.7165 14.917L15.0132 13.2378C15.8053 12.6445 16.099 11.7605 15.7978 11.0602Z" fill="#6783F6"/>
<path d="M18.7438 11.5963L19.4471 13.2755C19.4578 13.3037 19.4654 13.333 19.4697 13.3628C19.4983 13.5963 19.295 13.8387 19.0179 13.902C18.9312 13.9223 18.841 13.9223 18.7544 13.902C18.6937 13.89 18.6367 13.8638 18.588 13.8256C18.5393 13.7874 18.5003 13.7382 18.4742 13.6821L17.7725 12.0014C17.7977 12.0579 17.8362 12.1073 17.8847 12.1456C17.9332 12.1839 17.9903 12.2099 18.0511 12.2213C18.1377 12.2416 18.2279 12.2416 18.3146 12.2213C18.5962 12.158 18.801 11.9201 18.7664 11.6822C18.7628 11.6526 18.7552 11.6238 18.7438 11.5963Z" fill="#FFFCED"/>
<path d="M18.4634 11.3749C18.5381 11.3891 18.6067 11.4253 18.6605 11.4791C18.7142 11.5328 18.7505 11.6015 18.7646 11.6761C18.7932 11.9096 18.5884 12.152 18.3128 12.2153C18.2261 12.2356 18.1359 12.2356 18.0493 12.2153C17.9741 12.2024 17.9047 12.1665 17.8508 12.1125C17.7969 12.0586 17.761 11.9893 17.7481 11.9141C17.7179 11.6807 17.9228 11.4382 18.1999 11.3749C18.2866 11.3555 18.3766 11.3555 18.4634 11.3749Z" fill="#FFFCED"/>
<path d="M15.0177 13.2363L15.721 14.9155L12.6051 17.2618L11.9033 15.5826L15.0177 13.2363Z" fill="#6783F6"/>
<path d="M20.9184 12.518L20.2227 10.8389C20.3312 11.0793 20.496 11.2902 20.703 11.4537C20.91 11.6172 21.1533 11.7287 21.4124 11.7786L22.1232 13.4578C21.8613 13.4103 21.6149 13.3 21.4051 13.1363C21.1952 12.9726 21.0282 12.7605 20.9184 12.518Z" fill="#6783F6"/>
<path d="M11.9034 15.5826L12.6052 17.2618C12.2993 17.4957 11.9466 17.661 11.5711 17.7465C11.1956 17.832 10.8061 17.8357 10.4291 17.7573C10.1735 17.6994 9.93288 17.5886 9.72278 17.432L9.021 15.7528C9.23165 15.9095 9.47276 16.0203 9.72881 16.0781C10.1056 16.1562 10.4948 16.1523 10.87 16.0668C11.2452 15.9814 11.5976 15.8162 11.9034 15.5826Z" fill="#6783F6"/>
<path d="M10.3643 17.4727L10.4245 17.6233L10.4893 17.7739L10.5555 17.9335L10.6233 18.0946L10.6926 18.2603L10.7603 18.4244L10.8296 18.5886L10.8974 18.7497L10.3643 17.4757V17.4727Z" fill="#3058FE"/>
<path d="M10.3886 19.4651C10.363 19.5134 10.3481 19.5666 10.345 19.6212C10.3419 19.6758 10.3506 19.7304 10.3706 19.7813L9.66727 18.1021C9.64732 18.0512 9.63861 17.9966 9.64173 17.942C9.64485 17.8875 9.65973 17.8342 9.68534 17.7859L10.3886 19.4651L9.68534 17.7859C9.75018 17.6679 9.85113 17.5738 9.97338 17.5175C10.0956 17.4611 10.2327 17.4454 10.3645 17.4726C10.5975 18.0309 10.8314 18.5906 11.0663 19.1518C10.8334 18.5916 10.5995 18.0319 10.3645 17.4726C10.4252 17.4842 10.4823 17.5102 10.5308 17.5485C10.5793 17.5867 10.6178 17.6362 10.6431 17.6925L11.3464 19.3717C11.3211 19.3151 11.2823 19.2655 11.2335 19.2272C11.1847 19.1889 11.1273 19.163 11.0663 19.1518C10.9347 19.1244 10.7978 19.1401 10.6757 19.1965C10.5537 19.2529 10.453 19.347 10.3886 19.4651Z" fill="#3058FE"/>
<path d="M10.6429 17.6926L11.3462 19.3718C11.3662 19.4224 11.3749 19.4768 11.3718 19.5312C11.3687 19.5855 11.3538 19.6385 11.3281 19.6865C11.2637 19.8051 11.1629 19.8998 11.0407 19.9567C10.9184 20.0137 10.781 20.0298 10.6489 20.0028C10.5882 19.9908 10.5312 19.9644 10.4828 19.9259C10.4343 19.8874 10.3957 19.8378 10.3703 19.7814L9.66699 18.1023C9.69257 18.1587 9.73138 18.2082 9.78014 18.2465C9.8289 18.2847 9.88618 18.3107 9.9471 18.3221C10.0791 18.3495 10.2164 18.3337 10.3387 18.277C10.461 18.2203 10.5619 18.1258 10.6263 18.0074C10.6514 17.9591 10.6658 17.9061 10.6687 17.8518C10.6715 17.7975 10.6627 17.7432 10.6429 17.6926Z" fill="#FFFCED"/>
<path d="M10.3643 17.4727C10.4219 17.482 10.4764 17.5049 10.5233 17.5396C10.5702 17.5743 10.6081 17.6198 10.6337 17.6722C10.6594 17.7245 10.6721 17.7823 10.6709 17.8407C10.6696 17.899 10.6543 17.9562 10.6263 18.0073C10.5619 18.1258 10.461 18.2203 10.3387 18.277C10.2164 18.3337 10.0791 18.3495 9.94709 18.3221C9.88927 18.3129 9.83451 18.29 9.78744 18.2552C9.74037 18.2204 9.70237 18.1748 9.67667 18.1222C9.65096 18.0696 9.6383 18.0116 9.63976 17.953C9.64122 17.8945 9.65676 17.8372 9.68505 17.786C9.74971 17.6678 9.85064 17.5736 9.97293 17.5172C10.0952 17.4608 10.2324 17.4452 10.3643 17.4727Z" fill="#FFFCED"/>
<path d="M24.9391 12.6069L25.6424 14.286L22.1154 13.4577L21.4121 11.7786L24.9391 12.6069Z" fill="#6783F6"/>
<path d="M27.6201 11.6069L28.3234 13.2861C28.0145 13.6865 27.5997 13.9924 27.126 14.1694C26.6523 14.3464 26.1385 14.3873 25.6427 14.2876L24.9395 12.6159C25.4359 12.7159 25.9505 12.6743 26.4245 12.4959C26.8985 12.3175 27.3128 12.0095 27.6201 11.6069Z" fill="#6783F6"/>
<path d="M18.8281 16.1204L19.5299 17.7995C19.4673 17.7865 19.4022 17.7914 19.3422 17.8138C19.2823 17.8362 19.2299 17.8751 19.1911 17.926L18.4878 16.2469C18.5269 16.1959 18.5796 16.1571 18.6398 16.1347C18.7 16.1123 18.7653 16.1074 18.8281 16.1204Z" fill="#FFFCED"/>
<path d="M8.71996 21.2647C8.47336 21.2072 8.21908 21.1899 7.96697 21.2135L7.26367 19.5343C7.51572 19.5113 7.76983 19.528 8.01666 19.584C8.24959 20.1443 8.48352 20.704 8.71845 21.2632L8.54978 20.8596L8.01666 19.5855C8.27542 19.6357 8.51849 19.7468 8.72567 19.9097C8.93285 20.0726 9.09817 20.2826 9.2079 20.5223L9.91119 22.2014C9.80147 21.9618 9.63615 21.7518 9.42897 21.5889C9.22178 21.426 8.97872 21.3148 8.71996 21.2647Z" fill="#3058FE"/>
<path d="M9.20166 20.5223L9.90495 22.2015C9.95389 22.3212 9.9873 22.4468 10.0043 22.575L9.30105 20.8988C9.28498 20.7694 9.25155 20.6428 9.20166 20.5223Z" fill="#6783F6"/>
<path d="M27.8263 15.3266L27.4754 14.4863C27.3579 14.2062 27.2405 13.9276 27.1245 13.6475C27.1961 13.5923 27.2789 13.5533 27.367 13.5333C27.4552 13.5133 27.5466 13.5127 27.635 13.5315L27.7164 13.7273L27.76 13.8297L27.8489 14.042L27.9392 14.2604L28.0326 14.4803L28.0778 14.5902L28.123 14.6986L28.2118 14.911L28.2962 15.1143C28.3159 15.1435 28.3297 15.1762 28.3368 15.2107C28.2484 15.1918 28.157 15.1925 28.0688 15.2125C27.9806 15.2325 27.8979 15.2715 27.8263 15.3266Z" fill="#3058FE"/>
<path d="M28.337 15.2123C28.1031 14.652 27.8692 14.0923 27.6353 13.5331L27.7166 13.7289L27.8039 13.9367L27.8943 14.152L27.9861 14.3719L28.078 14.5918L28.1684 14.8071L28.2557 15.015L28.337 15.2123Z" fill="#3058FE"/>
<path d="M28.5446 15.3266C28.4588 15.1188 28.3714 14.9125 28.2856 14.7062C28.135 14.3538 27.9844 13.9999 27.8413 13.652C27.888 13.6685 27.8684 13.7167 27.882 13.7484L27.9663 13.9517L28.0115 14.0571L28.1018 14.2724L28.1937 14.4923L28.2389 14.6023L28.3308 14.8206L28.4196 15.033L28.4618 15.1354L28.5446 15.3266Z" fill="#3058FE"/>
<path d="M28.5449 15.3267C28.488 15.2696 28.4158 15.2304 28.337 15.2137C28.1031 14.6535 27.8692 14.0938 27.6353 13.5345C27.7134 13.551 27.785 13.5897 27.8416 13.646L27.9244 13.8418L27.9666 13.9442L28.0554 14.1565L28.1021 14.2649L28.5449 15.3191V15.3267Z" fill="#3058FE"/>
<path d="M27.8263 15.3267C27.7428 15.3792 27.6792 15.4581 27.6456 15.5509C27.6121 15.6437 27.6104 15.745 27.641 15.8387L26.9422 14.1611C26.9134 14.067 26.916 13.9661 26.9497 13.8737C26.9834 13.7813 27.0464 13.7024 27.129 13.649C27.3338 14.152 27.6154 14.8237 27.8263 15.3267Z" fill="#3058FE"/>
<path d="M28.6183 15.4336C28.6013 15.3928 28.5762 15.3559 28.5445 15.3252L27.8457 13.6445C27.8772 13.6761 27.9022 13.7134 27.9195 13.7545L28.6183 15.4336Z" fill="#3058FE"/>
<path d="M11.8826 21.1865C11.4882 22.4637 11.5477 23.8381 12.0513 25.0765L11.3495 23.3973C10.8445 22.1593 10.7849 20.7844 11.1808 19.5073L11.2622 19.7046L11.3495 19.9124L11.4399 20.1278L11.5317 20.3477L11.5784 20.4576L11.6688 20.676L11.714 20.7829L11.7576 20.8883L11.8013 20.9907C11.838 21.0515 11.8655 21.1175 11.8826 21.1865Z" fill="#3058FE"/>
<path d="M12.3342 20.0404C12.1514 20.4089 12.0003 20.7923 11.8825 21.1865C11.6485 20.6272 11.4146 20.0675 11.1807 19.5073C11.2985 19.1132 11.4497 18.7298 11.6325 18.3612C13.4698 14.6098 18.3446 12.3509 22.4981 13.3282C24.7044 13.8463 26.2631 15.1746 26.9769 16.8688L27.6802 18.548C26.9724 16.8538 25.4062 15.5255 23.1999 15.0074C19.0389 14.03 14.164 16.289 12.3342 20.0404Z" fill="#3058FE"/>
<path d="M26.6925 16.9832L27.3943 18.6624C26.7121 17.0299 25.2016 15.7483 23.0751 15.2483C19.0677 14.3071 14.3676 16.4847 12.595 20.1036C11.7637 21.8008 11.7231 23.5177 12.3254 24.9604L11.6237 23.2812C11.0213 21.8385 11.0619 20.1187 11.8917 18.4244C13.6643 14.8101 18.3674 12.6264 22.3719 13.5691C24.4983 14.0691 26.0088 15.3507 26.6925 16.9832Z" fill="#2545C6"/>
<path d="M25.7769 16.9952C25.6534 16.8838 25.5238 16.7754 25.3883 16.6729C25.1554 16.1127 24.9215 15.553 24.6865 14.9938C24.8221 15.0962 24.9516 15.2031 25.0736 15.3161L25.1233 15.4335L25.1745 15.5585L25.2287 15.6865L25.2844 15.8191L25.3386 15.9501L25.3928 16.0796L25.4455 16.2046L25.4937 16.3205L25.5269 16.4004L25.5615 16.4832L25.5976 16.5705L25.6353 16.6579L25.6714 16.7467L25.7091 16.8326L25.7437 16.9169L25.7769 16.9952Z" fill="#3058FE"/>
<path d="M21.7287 16.801L22.4304 18.4802L19.5299 17.7979L18.8281 16.1188L21.7287 16.801Z" fill="#FFFCED"/>
<path d="M27.9152 13.7544L28.6185 15.4336C28.6475 15.5274 28.6451 15.6282 28.6117 15.7206C28.5783 15.813 28.5157 15.892 28.4333 15.9456C28.361 16.0001 28.278 16.0386 28.1898 16.0586C28.1015 16.0786 28.01 16.0796 27.9213 16.0616C27.8433 16.0439 27.7718 16.0048 27.715 15.9486C27.6835 15.9176 27.6585 15.8808 27.6412 15.8402L26.9424 14.161C26.9602 14.2013 26.9852 14.2381 27.0162 14.2694C27.0732 14.3254 27.1446 14.3645 27.2225 14.3824C27.3112 14.4005 27.4027 14.3995 27.491 14.3795C27.5793 14.3595 27.6623 14.3209 27.7345 14.2664C27.8172 14.2133 27.8799 14.1341 27.9126 14.0414C27.9453 13.9487 27.9462 13.8477 27.9152 13.7544Z" fill="#FFFCED"/>
<path d="M19.7002 18.188L20.402 19.8671C20.3393 19.8544 20.2743 19.8596 20.2144 19.8819C20.1545 19.9043 20.1021 19.943 20.0631 19.9936L19.3613 18.3145C19.4003 18.2638 19.4528 18.2251 19.5127 18.2027C19.5725 18.1804 19.6375 18.1753 19.7002 18.188Z" fill="#3058FE"/>
<path d="M25.7765 16.9953C25.7695 16.983 25.7639 16.9698 25.76 16.9562L25.6907 16.7905L25.653 16.7032L25.635 16.658L25.4934 16.3207L25.0732 15.3162C25.2554 15.4811 25.425 15.6593 25.5808 15.8493L25.6636 16.0451L25.7509 16.2529L25.8413 16.4682L25.9332 16.6881L26.025 16.908L26.1154 17.1233L26.2012 17.3312L26.2841 17.5284C26.1271 17.3395 25.9575 17.1614 25.7765 16.9953Z" fill="#3058FE"/>
<path d="M26.4709 17.7664C26.4107 17.685 26.3489 17.6052 26.2842 17.5284C26.0493 16.9642 25.8168 16.4044 25.5869 15.8492C25.6517 15.926 25.7149 15.9998 25.7737 16.0872L25.8354 16.2378L25.9002 16.3884L25.9679 16.551L26.0372 16.7152L26.1065 16.8808L26.1742 17.0435L26.239 17.1941L26.3007 17.3447L26.3218 17.3944L26.3429 17.4456L26.3655 17.4998L26.3881 17.554L26.4122 17.6082L26.4348 17.6624L26.4559 17.7136L26.4709 17.7664Z" fill="#3058FE"/>
<path d="M20.5797 18.3989L21.2815 20.078L20.402 19.8717L19.7002 18.191L20.5797 18.3989Z" fill="#3058FE"/>
<path d="M19.3614 18.3191L20.0632 19.9983L19.2756 21.0886L18.5723 19.4094L19.3614 18.3191Z" fill="#3058FE"/>
<path d="M19.2421 21.2934L18.5403 19.6142C18.5272 19.5803 18.5233 19.5435 18.5288 19.5076C18.5344 19.4717 18.5492 19.4378 18.572 19.4094L19.2753 21.0901C19.2524 21.1181 19.2373 21.1516 19.2315 21.1873C19.2257 21.223 19.2294 21.2596 19.2421 21.2934Z" fill="#3058FE"/>
<path d="M21.057 18.7242L21.7603 20.4034C21.694 20.2528 21.5344 20.1383 21.2814 20.0796L20.5796 18.3989C20.8311 18.4592 20.9922 18.5676 21.057 18.7242Z" fill="#3058FE"/>
<path d="M19.3929 21.4108C19.3603 21.4045 19.3296 21.3906 19.3034 21.3702C19.2772 21.3498 19.2563 21.3234 19.2423 21.2933L18.5405 19.6141C18.5543 19.6444 18.5752 19.6709 18.6014 19.6913C18.6276 19.7118 18.6584 19.7256 18.6911 19.7316L19.3929 21.4108Z" fill="#FFFCED"/>
<path d="M21.76 20.4033C21.76 20.4168 21.7706 20.4304 21.7736 20.444L21.0688 18.7648C21.0688 18.7512 21.0597 18.7377 21.0537 18.7241L21.76 20.4033Z" fill="#FFFCED"/>
<path d="M23.9709 19.6563C23.7209 19.0539 23.2079 18.6624 22.4318 18.4817L21.7285 16.8025C22.5036 16.9842 23.0171 17.3753 23.2691 17.9756L23.9709 19.6563Z" fill="#FFFCED"/>
<path d="M23.269 17.9757L23.9708 19.6549C23.9755 19.6646 23.9795 19.6747 23.9829 19.685L23.2811 18.0043C23.2766 17.9953 23.2736 17.9862 23.269 17.9757Z" fill="#3058FE"/>
<path d="M19.5614 19.935L20.2632 21.6157L19.3927 21.4109L18.6909 19.7317L19.5614 19.935Z" fill="#FFFCED"/>
<path d="M21.7738 20.447C21.8386 20.6278 21.7889 20.8311 21.6232 21.057L21.5404 20.8612L21.453 20.6534L21.3627 20.4365L21.2708 20.2166L21.0886 19.7814C21.0329 19.6474 20.9771 19.5118 20.9199 19.3778C21.0811 19.1519 21.1308 18.9486 21.0705 18.7754C21.2829 19.2678 21.578 19.9335 21.7738 20.447Z" fill="#FFFCED"/>
<path d="M21.6291 21.0494L20.9258 19.3702L21.6291 21.0494Z" fill="#FFFCED"/>
<path d="M9.30127 20.8943L10.0046 22.575L10.4157 25.7496L9.71391 24.0704L9.30127 20.8943Z" fill="#6783F6"/>
<path d="M20.2919 21.6232L20.2633 21.6157L19.563 19.9365H19.5901L19.6654 20.1142L19.7437 20.3025L19.8265 20.4983L19.9094 20.6986L19.9937 20.8973L20.075 21.0931L20.1533 21.2829L20.2286 21.4606V21.4787L20.2362 21.4982L20.2452 21.5178L20.2527 21.5374L20.2618 21.5585L20.2708 21.578L20.2783 21.5976L20.2919 21.6232Z" fill="#FFFCED"/>
<path d="M20.2917 21.6231C20.0567 21.0629 19.8223 20.5032 19.5884 19.944L19.6712 20.1397L19.7586 20.3476L19.8489 20.5644L19.9408 20.7843L20.0326 21.0042L20.123 21.2195L20.2088 21.4274L20.2917 21.6231Z" fill="#FFFCED"/>
<path d="M12.923 20.1805C12.1279 21.8039 12.0872 23.4439 12.6625 24.8204L11.9592 23.1412C11.3839 21.7648 11.4246 20.1293 12.2197 18.5013C13.9155 15.0375 18.3943 12.9638 22.227 13.8659C23.116 14.0649 23.953 14.4493 24.6833 14.9939L24.7646 15.1896L24.8519 15.3975L24.9423 15.6128L25.0342 15.8327L25.126 16.0526L25.2164 16.2679L25.3037 16.4758L25.385 16.673C24.6539 16.1281 23.8158 15.7437 22.9258 15.5451C19.0976 14.6445 14.6173 16.7197 12.923 20.1805Z" fill="#3058FE"/>
<path d="M26.4709 17.7663C26.4667 17.7586 26.4632 17.7505 26.4603 17.7422L26.4392 17.691L26.4287 17.6654L26.382 17.557L26.2947 17.3477C26.12 16.928 25.9443 16.5078 25.7676 16.0872C26.0042 16.4083 26.2014 16.7566 26.3549 17.1248L27.0582 18.8039C26.9035 18.4364 26.7064 18.0881 26.4709 17.7663Z" fill="#3058FE"/>
<path d="M21.004 21.5524C20.9483 21.4169 20.8911 21.2828 20.8354 21.1473C20.7796 21.0118 20.7134 20.8566 20.6531 20.7121L20.3022 19.8732C20.5532 19.7696 20.7694 19.5967 20.9257 19.3748L21.0086 19.5705L21.0944 19.7784L21.1847 19.9937L21.2766 20.2136L21.3685 20.4335L21.4588 20.6503L21.5462 20.8581L21.629 21.0539C21.4725 21.2763 21.2557 21.4493 21.004 21.5524Z" fill="#FFFCED"/>
<path d="M21.0044 21.5525C20.7822 21.6536 20.5329 21.6785 20.2951 21.6232C20.0602 21.065 19.8257 20.5053 19.5918 19.9441C19.8301 19.9993 20.0799 19.9745 20.3026 19.8733L21.0044 21.5525Z" fill="#FFFCED"/>
<path d="M20.5793 18.3989C20.8523 18.4642 21.0165 18.5862 21.0717 18.7649C21.1365 18.9456 21.0853 19.1489 20.9211 19.3673C20.7648 19.5892 20.5486 19.7621 20.2976 19.8658C20.075 19.9669 19.8251 19.9918 19.5868 19.9365H19.5567L18.6862 19.7317C18.6518 19.7261 18.6194 19.7115 18.5924 19.6893C18.5654 19.6671 18.5448 19.6381 18.5327 19.6053C18.5206 19.5725 18.5174 19.5371 18.5235 19.5027C18.5296 19.4683 18.5447 19.4361 18.5673 19.4094L19.3564 18.3191C19.3954 18.2685 19.4478 18.2297 19.5077 18.2074C19.5676 18.185 19.6326 18.1799 19.6953 18.1926L20.5793 18.3989Z" fill="#FFFCED"/>
<path d="M18.4893 16.2454L19.1911 17.926L14.6129 24.2707L13.9111 22.5916L18.4893 16.2454Z" fill="#FFFCED"/>
<path d="M12.4548 25.2435C12.4097 25.1516 12.366 25.0568 12.3268 24.9619L11.6235 23.2827C11.6642 23.3776 11.7064 23.471 11.7515 23.5643C11.7771 23.6231 11.8103 23.7014 11.8344 23.7601L11.9217 23.9679L12.0121 24.1848L12.1039 24.4047L12.1958 24.623L12.2862 24.8399L12.372 25.0477L12.4548 25.2435Z" fill="#3058FE"/>
<path d="M17.5508 21.185L18.2525 22.8642C18.1901 22.8508 18.1252 22.8557 18.0654 22.8781C18.0056 22.9005 17.9535 22.9396 17.9152 22.9907L17.2119 21.3115C17.2507 21.2606 17.3031 21.2216 17.363 21.1993C17.423 21.1769 17.4881 21.1719 17.5508 21.185Z" fill="#3058FE"/>
<path d="M15.5509 23.2708L16.2542 24.9499L14.7316 24.5915L14.0283 22.9124L15.5509 23.2708Z" fill="#3058FE"/>
<path d="M14.613 24.2707C14.5907 24.299 14.5761 24.3326 14.5705 24.3682C14.565 24.4038 14.5687 24.4403 14.5814 24.474L13.8781 22.7949C13.8657 22.761 13.8622 22.7245 13.868 22.6888C13.8738 22.6532 13.8887 22.6197 13.9113 22.5916L14.613 24.2707Z" fill="#FFFCED"/>
<path d="M14.5812 24.474L13.8779 22.7948C13.892 22.825 13.913 22.8515 13.9391 22.8721C13.9653 22.8928 13.9959 22.907 14.0285 22.9138L14.7318 24.5929C14.699 24.5867 14.6682 24.5726 14.642 24.5519C14.6157 24.5312 14.5949 24.5044 14.5812 24.474Z" fill="#3058FE"/>
<path d="M18.0267 21.2949L18.7285 22.9756L18.2526 22.8626L17.5508 21.1835L18.0267 21.2949Z" fill="#3058FE"/>
<path d="M18.1911 21.4996L18.8929 23.1788L18.7257 25.3655L18.0239 23.6863L18.1911 21.4996Z" fill="#FFFCED"/>
<path d="M18.1775 21.4139L18.8792 23.093C18.8656 23.0627 18.8447 23.0361 18.8185 23.0157C18.7922 22.9952 18.7614 22.9814 18.7286 22.9756L18.0269 21.2964C18.0595 21.3025 18.0902 21.3164 18.1164 21.3368C18.1427 21.3572 18.1636 21.3837 18.1775 21.4139Z" fill="#3058FE"/>
<path d="M18.1772 21.4138L18.879 23.093C18.8904 23.1201 18.895 23.1495 18.8926 23.1788L18.1908 21.5012C18.1926 21.4714 18.188 21.4416 18.1772 21.4138Z" fill="#FFFCED"/>
<path d="M9.71378 24.0704L10.4156 25.7496C10.5225 26.5719 9.9457 27.4182 9.06019 27.8399L8.3584 26.1607C9.24392 25.7376 9.82071 24.8927 9.71378 24.0704Z" fill="#6783F6"/>
<path d="M8.01074 19.5856L8.07249 19.7362L8.13574 19.8868L8.202 20.0449L8.26977 20.2075L8.33905 20.3717L8.40832 20.5374L8.47609 20.7015L8.54386 20.8626L8.01074 19.5871V19.5856Z" fill="#3058FE"/>
<path d="M9.30121 20.8988L9.71385 24.0734C9.82078 24.8957 9.24399 25.7405 8.35847 26.1637C7.10097 24.2888 6.67328 21.956 7.2576 19.5374C7.50965 19.5143 7.76376 19.5311 8.01059 19.5871C8.70183 19.7467 9.21537 20.2286 9.30121 20.8988Z" fill="#6783F6"/>
<path d="M17.2119 21.3099L17.9152 22.9891L16.5929 24.8234L15.8896 23.1442L17.2119 21.3099Z" fill="#3058FE"/>
<path d="M15.8901 23.1442L16.5934 24.8233C16.5546 24.8743 16.5022 24.9132 16.4423 24.9356C16.3823 24.958 16.3172 24.9629 16.2546 24.9498L15.5513 23.2707C15.6139 23.2837 15.679 23.2788 15.739 23.2564C15.799 23.234 15.8514 23.1951 15.8901 23.1442Z" fill="#3058FE"/>
<path d="M23.281 18.0043L23.9828 19.685C24.2298 20.3004 24.1093 20.9434 23.6214 21.6141C23.3108 22.0439 22.9105 22.401 22.4482 22.6608C22.0584 22.8886 21.6327 23.0485 21.1892 23.1337C21.1223 23.1428 21.06 23.173 21.0113 23.2198C20.9626 23.2666 20.9299 23.3277 20.9181 23.3942L20.2148 21.715C20.2269 21.6486 20.2595 21.5876 20.3082 21.5409C20.3569 21.4941 20.4191 21.4639 20.4859 21.4545C20.9298 21.3694 21.3561 21.2095 21.7464 20.9816C22.2092 20.7193 22.6094 20.3596 22.9196 19.9274C23.4075 19.2628 23.528 18.6217 23.281 18.0043Z" fill="#3058FE"/>
<path d="M11.6281 27.5251L10.9248 25.8459C10.9504 25.9047 10.982 25.983 11.0076 26.0417L11.095 26.2495L11.1838 26.4664L11.2772 26.6863L11.3691 26.9062L11.4594 27.1215L11.5453 27.3293L11.6281 27.5251Z" fill="#3058FE"/>
<path d="M12.1385 27.4047C12.05 27.3865 11.9586 27.3876 11.8705 27.4079C11.7824 27.4282 11.6997 27.4671 11.628 27.5221L11.5452 27.3263L11.4593 27.1185L11.2801 26.6833C11.2184 26.5327 11.1582 26.3926 11.0979 26.2466C11.0377 26.1005 10.985 25.977 10.9277 25.843C10.9997 25.7879 11.0827 25.749 11.171 25.7287C11.2593 25.7084 11.351 25.7073 11.4398 25.7255L11.5211 25.9213L11.6084 26.1306L11.6988 26.346L11.7907 26.5658L11.8825 26.7857L11.9729 27.0011L12.0602 27.2089L12.1385 27.4047Z" fill="#3058FE"/>
<path d="M12.1383 27.4046C11.9054 26.8464 11.6715 26.2867 11.4365 25.7255L11.5178 25.9227L11.6052 26.1306L11.6956 26.3459L11.7874 26.5658L11.8793 26.7857L11.9696 27.001L12.057 27.2089L12.1383 27.4046Z" fill="#3058FE"/>
<path d="M12.3461 27.5252C12.2885 27.4692 12.2166 27.4302 12.1383 27.4122C11.9054 26.854 11.6715 26.2943 11.4365 25.733C11.5145 25.7507 11.586 25.7898 11.6428 25.846C11.6738 25.877 11.6984 25.9139 11.7151 25.9544L12.4184 27.6336C12.4011 27.5933 12.3766 27.5566 12.3461 27.5252Z" fill="#3058FE"/>
<path d="M11.6279 27.5251C11.5441 27.5777 11.4803 27.6569 11.4467 27.7499C11.4131 27.843 11.4117 27.9447 11.4427 28.0387L10.7394 26.358C10.7104 26.2641 10.7128 26.1633 10.7462 26.0709C10.7796 25.9785 10.8423 25.8995 10.9246 25.8459L11.0074 26.0417L11.0933 26.2495L11.1836 26.4664L11.2755 26.6863L11.3674 26.9047L11.4577 27.1215L11.5451 27.3293L11.6279 27.5251Z" fill="#3058FE"/>
<path d="M18.739 25.4514L18.0372 23.7722C18.0257 23.7456 18.0211 23.7167 18.0236 23.6879L18.7254 25.367C18.7237 25.3958 18.7283 25.4246 18.739 25.4514Z" fill="#FFFCED"/>
<path d="M11.7151 25.9469L12.4184 27.6261C12.4476 27.7198 12.4454 27.8205 12.4123 27.9128C12.3791 28.0052 12.3168 28.0843 12.2347 28.1381C12.1624 28.1931 12.0792 28.232 11.9906 28.2523C11.902 28.2725 11.8102 28.2737 11.7212 28.2556C11.6429 28.2386 11.5713 28.1994 11.5148 28.1426C11.4839 28.1121 11.4593 28.0758 11.4425 28.0357L10.7393 26.355C10.7562 26.3955 10.7807 26.4323 10.8115 26.4635C10.8688 26.52 10.9408 26.5591 11.0194 26.5764C11.1082 26.5945 11.1998 26.5935 11.2881 26.5732C11.3765 26.5529 11.4594 26.514 11.5314 26.4589C11.6148 26.4064 11.6783 26.3274 11.7116 26.2346C11.7449 26.1418 11.7461 26.0405 11.7151 25.9469Z" fill="#FFFCED"/>
<path d="M18.7394 25.4514L18.0376 23.7722C18.0512 23.8028 18.072 23.8296 18.0982 23.8503C18.1245 23.871 18.1553 23.885 18.1882 23.8912L18.89 25.5673C18.8574 25.5615 18.8267 25.5479 18.8005 25.5277C18.7743 25.5076 18.7534 25.4814 18.7394 25.4514Z" fill="#3058FE"/>
<path d="M28.7329 16.4622L29.4347 18.1413L29.8473 21.3159L29.1455 19.6368L28.7329 16.4622Z" fill="#3058FE"/>
<path d="M29.8473 21.3175C29.8642 21.4459 29.8981 21.5715 29.9482 21.691L29.2449 20.0118C29.1955 19.8922 29.162 19.7666 29.1455 19.6383C29.3518 20.1458 29.7057 20.7904 29.8473 21.3175Z" fill="#3058FE"/>
<path d="M20.2152 21.7135L20.9185 23.3942L20.78 25.6757L20.0767 23.9966L20.2152 21.7135Z" fill="#3058FE"/>
<path d="M19.6925 24.2451L20.3958 25.9243L18.8898 25.5704L18.188 23.8912L19.6925 24.2451Z" fill="#3058FE"/>
<path d="M20.0764 23.9966L20.7797 25.6758C20.7719 25.7179 20.7556 25.7579 20.7318 25.7935C20.708 25.8291 20.6772 25.8594 20.6412 25.8827C20.6053 25.906 20.5649 25.9216 20.5227 25.9288C20.4805 25.9359 20.4373 25.9344 20.3957 25.9242L19.6924 24.2451C19.734 24.2552 19.7772 24.2568 19.8194 24.2496C19.8616 24.2425 19.902 24.2268 19.9379 24.2035C19.9739 24.1803 20.0047 24.1499 20.0285 24.1143C20.0523 24.0788 20.0686 24.0387 20.0764 23.9966Z" fill="#3058FE"/>
<path d="M26.3551 17.1233L27.0569 18.8025C27.6337 20.1789 27.593 21.8144 26.7979 23.4439C25.1021 26.9077 20.6234 28.9814 16.7921 28.0793C14.7576 27.6019 13.3148 26.3806 12.6627 24.8219L11.9609 23.1427C12.6115 24.7014 14.0543 25.9227 16.0888 26.4001C19.9201 27.3037 24.4004 25.2255 26.0946 21.7647C26.8897 20.1458 26.9304 18.4998 26.3551 17.1233Z" fill="#FFFCED"/>
<path d="M27.1243 23.5207C26.9022 23.9734 26.637 24.4036 26.3322 24.8054C26.0973 24.2451 25.8628 23.6854 25.6289 23.1262C25.9341 22.7245 26.1999 22.2943 26.4226 21.8416C27.2539 20.1428 27.296 18.426 26.6906 16.9833L27.3939 18.6624C27.9963 20.1052 27.9572 21.8235 27.1243 23.5207Z" fill="#3058FE"/>
<path d="M16.6474 28.3745C14.6445 27.9046 13.1837 26.7405 12.4548 25.2435L11.7515 23.5643C12.4864 25.0613 13.9412 26.2239 15.9441 26.6953C19.45 27.5206 23.4876 25.9543 25.6291 23.1261C25.6547 23.1848 25.6863 23.2631 25.7119 23.3219L25.7978 23.5297L25.8881 23.7451L25.98 23.9649L26.0719 24.1848L26.1622 24.4002L26.2496 24.608L26.3324 24.8053C24.1909 27.6335 20.1518 29.1997 16.6474 28.3745Z" fill="#3058FE"/>
<path d="M26.9693 16.8673L27.671 18.5465C28.2975 20.0434 28.2539 21.8235 27.3924 23.584C25.5551 27.3354 20.6818 29.5929 16.5283 28.617C14.322 28.0974 12.7558 26.7722 12.048 25.0764L11.3462 23.3973C12.054 25.09 13.6202 26.4183 15.8265 26.9378C19.98 27.9137 24.8533 25.6562 26.6906 21.9048C27.5521 20.1458 27.5957 18.3628 26.9693 16.8673Z" fill="#2545C6"/>
<path d="M22.4907 13.3282C26.6442 14.3041 28.5282 18.1474 26.6909 21.9123C24.8536 25.6773 19.9803 27.9212 15.8268 26.9453C11.6733 25.9695 9.78777 22.1262 11.6251 18.3688C13.4624 14.6113 18.3372 12.3509 22.4907 13.3282ZM15.9487 26.6953C19.9547 27.6381 24.6548 25.4604 26.4274 21.8416C28.1999 18.2227 26.3822 14.5119 22.3763 13.5692C18.3704 12.6265 13.6687 14.8056 11.8961 18.4245C10.1236 22.0434 11.9428 25.7541 15.9487 26.6953Z" fill="#2545C6"/>
<path d="M22.2269 13.8659C26.0581 14.7695 27.79 18.3025 26.0943 21.7648C24.3986 25.227 19.9198 27.3008 16.0885 26.4002C12.2573 25.4996 10.527 21.9636 12.2197 18.5013C13.9124 15.0391 18.3957 12.9638 22.2269 13.8659Z" fill="#FFFCED"/>
<path d="M20.7436 21.3657C20.6654 21.3801 20.5933 21.4177 20.5367 21.4735C20.48 21.5294 20.4414 21.6009 20.4259 21.6789L20.2256 23.8671C20.2145 23.9182 20.1934 23.9666 20.1635 24.0095C20.1336 24.0524 20.0955 24.0889 20.0514 24.117C20.0072 24.145 19.958 24.164 19.9064 24.1728C19.8549 24.1816 19.8021 24.1801 19.7512 24.1683L18.1563 23.7933C18.0961 23.7837 18.0419 23.7512 18.0049 23.7027C17.968 23.6543 17.951 23.5934 17.9576 23.5328L18.194 21.5193C18.2009 21.4586 18.1841 21.3976 18.1471 21.349C18.11 21.3004 18.0556 21.2681 17.9952 21.2588L17.7558 21.2015C17.6786 21.186 17.5986 21.1926 17.5251 21.2206C17.4515 21.2486 17.3874 21.2968 17.3401 21.3597L16.1187 23.0569C16.0717 23.1202 16.0077 23.1688 15.9341 23.1971C15.8605 23.2253 15.7804 23.2321 15.7031 23.2165L14.0751 22.834C14.0321 22.8277 13.9915 22.8099 13.9576 22.7827C13.9237 22.7554 13.8978 22.7195 13.8824 22.6788C13.867 22.6381 13.8629 22.594 13.8703 22.5511C13.8777 22.5082 13.8964 22.4681 13.9245 22.4349L18.4365 16.1791C18.4838 16.1158 18.5481 16.0673 18.622 16.0393C18.6959 16.0113 18.7762 16.0049 18.8536 16.021L21.7496 16.7017C22.5679 16.8944 23.104 17.296 23.358 17.9064C23.612 18.5169 23.4805 19.1785 22.9634 19.8913C22.4303 20.6393 21.6398 21.1643 20.7436 21.3657ZM20.7436 19.295C20.8852 19.0932 20.9273 18.9215 20.8716 18.7784C20.8159 18.6353 20.6894 18.5329 20.465 18.4772L19.822 18.3266C19.7448 18.3111 19.6649 18.3177 19.5913 18.3457C19.5178 18.3737 19.4536 18.4219 19.4063 18.4847L18.8807 19.2167C18.8525 19.2497 18.8337 19.2897 18.8262 19.3325C18.8188 19.3753 18.8229 19.4194 18.8383 19.46C18.8537 19.5007 18.8798 19.5364 18.9137 19.5635C18.9477 19.5907 18.9883 19.6082 19.0313 19.6142L19.587 19.7453L19.6262 19.7558C19.8233 19.8024 20.0299 19.7872 20.218 19.7121C20.4346 19.6316 20.6206 19.4852 20.7496 19.2935" fill="#3058FE"/>
<path d="M28.7075 21.7858L28.7678 21.9364L28.8325 22.087L28.8988 22.2451L28.9665 22.4077L29.0358 22.5719L29.1036 22.7375L29.1729 22.9017L29.2406 23.0628L28.7075 21.7873V21.7858Z" fill="#3058FE"/>
<path d="M29.9543 21.6909L29.251 20.0117C29.3607 20.2514 29.526 20.4614 29.7332 20.6243C29.9404 20.7872 30.1835 20.8983 30.4422 20.9484C30.5542 20.9746 30.6679 20.9923 30.7826 21.0011L31.4844 22.6803C31.3697 22.6713 31.256 22.6537 31.144 22.6276C30.8855 22.5773 30.6428 22.466 30.4358 22.3031C30.2289 22.1402 30.0639 21.9303 29.9543 21.6909Z" fill="#6783F6"/>
<path d="M28.7316 23.7798C28.706 23.8278 28.691 23.8808 28.6879 23.9352C28.6848 23.9895 28.6935 24.0439 28.7136 24.0945L28.0118 22.4154C27.9915 22.3648 27.9825 22.3105 27.9854 22.2561C27.9882 22.2018 28.0029 22.1487 28.0283 22.1006C28.2633 22.6598 28.4977 23.219 28.7316 23.7783C28.4967 23.22 28.2623 22.6608 28.0283 22.1006C28.093 21.9823 28.1938 21.888 28.3161 21.8313C28.4383 21.7746 28.5755 21.7587 28.7075 21.7858C28.9405 22.3461 29.1744 22.9058 29.4093 23.465C29.1754 22.9048 28.9415 22.3451 28.7075 21.7858C28.7685 21.7977 28.8258 21.8239 28.8745 21.8625C28.9233 21.901 28.9621 21.9506 28.9877 22.0072L29.6894 23.6864C29.6638 23.6298 29.6251 23.5802 29.5763 23.5416C29.5276 23.5031 29.4703 23.4768 29.4093 23.465C29.2776 23.438 29.1406 23.454 29.0186 23.5106C28.8966 23.5673 28.796 23.6616 28.7316 23.7798Z" fill="#3058FE"/>
<path d="M28.9876 22.0072L29.6894 23.6864C29.7096 23.7369 29.7186 23.7912 29.7158 23.8456C29.7129 23.8999 29.6983 23.953 29.6728 24.0011C29.6081 24.1197 29.507 24.2142 29.3845 24.2709C29.2619 24.3276 29.1243 24.3434 28.9921 24.3159C28.9313 24.3041 28.8742 24.2778 28.8257 24.2392C28.7772 24.2007 28.7387 24.1511 28.7135 24.0945L28.0117 22.4153C28.0372 22.4717 28.0757 22.5213 28.1242 22.5598C28.1727 22.5983 28.2296 22.6247 28.2903 22.6367C28.4223 22.6643 28.5597 22.6486 28.6821 22.5919C28.8045 22.5352 28.9053 22.4405 28.9695 22.322C28.9952 22.2739 29.0101 22.2209 29.0132 22.1666C29.0164 22.1122 29.0076 22.0578 28.9876 22.0072Z" fill="#FFFCED"/>
<path d="M22.3718 13.5692C26.3777 14.5119 28.1954 18.2227 26.4229 21.8415C24.6503 25.4604 19.9471 27.6381 15.9442 26.6953C11.9413 25.7526 10.1206 22.0433 11.8916 18.4245C13.6627 14.8056 18.3659 12.6264 22.3718 13.5692ZM16.0888 26.4001C19.92 27.3037 24.4003 25.2255 26.0946 21.7647C27.7888 18.304 26.0584 14.7664 22.2272 13.8659C18.396 12.9653 13.9157 15.0405 12.2199 18.5013C10.5242 21.962 12.2576 25.4996 16.0888 26.4001Z" fill="#3058FE"/>
<path d="M21.3097 29.5627C21.0758 29.0025 20.8418 28.4428 20.6079 27.8835L20.6892 28.0793L20.7766 28.2871L20.8669 28.5025L20.9588 28.7224L21.0507 28.9422L21.141 29.1576L21.2284 29.3654L21.3097 29.5627Z" fill="#3058FE"/>
<path d="M21.0477 29.5642C20.9427 29.5839 20.8452 29.6319 20.7656 29.703C20.6859 29.7742 20.6272 29.8657 20.5959 29.9678C20.3609 29.4086 20.1265 28.8488 19.8926 28.2886C19.9242 28.1867 19.983 28.0953 20.0626 28.0242C20.1422 27.9532 20.2396 27.905 20.3444 27.885C20.5793 28.4432 20.8137 29.0029 21.0477 29.5642C20.8127 29.0039 20.5783 28.4442 20.3444 27.885C20.431 27.8647 20.5212 27.8647 20.6079 27.885L20.6892 28.0808L20.7766 28.2886L20.8669 28.504L20.9588 28.7238L21.0507 28.9437L21.141 29.1591L21.2284 29.3669L21.3097 29.5642C21.2235 29.5439 21.1338 29.5439 21.0477 29.5642Z" fill="#3058FE"/>
<path d="M21.5898 29.7841C21.5642 29.7276 21.5254 29.6781 21.4767 29.6398C21.4279 29.6016 21.3706 29.5756 21.3097 29.5642C21.0758 29.004 20.8418 28.4442 20.6079 27.885C20.6687 27.8967 20.7259 27.9227 20.7746 27.961C20.8234 27.9992 20.8622 28.0486 20.888 28.1049L21.5898 29.7841Z" fill="#3058FE"/>
<path d="M20.5918 30.1034C20.5952 30.1339 20.6028 30.1638 20.6144 30.1923L19.9126 28.5131C19.9007 28.4846 19.8926 28.4548 19.8885 28.4242C20.1234 28.9845 20.3574 29.5442 20.5903 30.1034C20.3574 29.5432 20.1234 28.9835 19.8885 28.4242C19.8803 28.3794 19.8803 28.3335 19.8885 28.2887C20.1234 28.8489 20.3579 29.4086 20.5918 29.9679C20.5836 30.0127 20.5836 30.0586 20.5918 30.1034Z" fill="#3058FE"/>
<path d="M18.6953 30.9979C18.4453 30.7108 18.1085 30.5131 17.736 30.4347L17.0327 28.7555C17.4051 28.8344 17.7421 29.0314 17.9935 29.3172L18.0749 29.5145L18.1622 29.7223L18.2526 29.9377L18.3444 30.1576L18.4363 30.3774L18.5266 30.5928L18.614 30.8006L18.6953 30.9979Z" fill="#3058FE"/>
<path d="M18.7783 31.1049C18.7527 31.0687 18.7256 31.0326 18.6954 30.9979L17.9937 29.3173C18.0223 29.3534 18.0509 29.3895 18.0765 29.4257L18.593 30.6636L18.6156 30.7148L18.6382 30.769L18.6623 30.8263L18.6864 30.8835L18.7105 30.9422L18.7346 30.9994L18.7572 31.0537L18.7783 31.1049Z" fill="#3058FE"/>
<path d="M18.7784 31.1048C18.7709 31.0898 18.7634 31.0687 18.7574 31.0536L18.7227 30.9708L18.6986 30.9136L18.6866 30.8835L18.5932 30.6636L18.0767 29.4257C18.1356 29.5098 18.1861 29.5996 18.2273 29.6937L18.929 31.3729C18.8885 31.2785 18.838 31.1886 18.7784 31.1048Z" fill="#3058FE"/>
<path d="M20.8883 28.1034L21.5901 29.7841C21.6022 29.8124 21.6103 29.8423 21.6142 29.8729C21.6444 30.1048 21.4395 30.3473 21.1624 30.4121C21.0758 30.4324 20.9856 30.4324 20.8989 30.4121C20.8381 30.4004 20.7809 30.3744 20.7322 30.3361C20.6834 30.2979 20.6446 30.2485 20.6188 30.1922L19.917 28.513C19.9426 28.5695 19.9814 28.619 20.0301 28.6572C20.0789 28.6955 20.1362 28.7215 20.1971 28.7329C20.2833 28.7532 20.373 28.7532 20.4591 28.7329C20.7423 28.6681 20.9471 28.4317 20.9109 28.1938C20.9077 28.1627 20.9001 28.1323 20.8883 28.1034Z" fill="#FFFCED"/>
<path d="M18.2241 29.6937L18.9259 31.3729C19.0016 31.5552 19.04 31.7508 19.0389 31.9482L18.3356 30.269C18.3372 30.0717 18.2993 29.8761 18.2241 29.6937Z" fill="#6783F6"/>
<path d="M30.7767 21.0013C30.6095 21.5494 30.3985 22.0832 30.1457 22.5976C29.8172 23.2652 29.4275 23.9009 28.9816 24.4966C28.9075 24.4702 28.8321 24.4476 28.7557 24.4289C28.3786 24.3513 27.9893 24.3554 27.614 24.4408C27.2386 24.5263 26.8859 24.6912 26.5796 24.9243L23.4652 27.2707C22.7483 27.8098 22.4426 28.5914 22.6143 29.2555C21.2448 29.7991 19.8036 30.1405 18.3358 30.2691C18.3358 29.5582 17.8524 28.9483 17.0331 28.7556L13.5061 27.9258C13.0612 27.8357 12.6008 27.8589 12.1672 27.9931C11.7336 28.1273 11.3406 28.3682 11.0243 28.6938C9.96602 28.0493 9.05812 27.1856 8.3617 26.1607C9.2442 25.7376 9.82099 24.8927 9.71708 24.0704L9.30143 20.8988C9.21559 20.2317 8.69904 19.7498 8.0108 19.5871C7.76397 19.5311 7.50986 19.5144 7.25781 19.5374C7.43908 18.7995 7.70014 18.0834 8.0364 17.402C8.31936 16.8264 8.64875 16.2749 9.02132 15.7529C9.23197 15.9095 9.47308 16.0203 9.72913 16.0782C10.1062 16.1565 10.4956 16.1528 10.8711 16.0673C11.2466 15.9818 11.5993 15.8165 11.9053 15.5827L15.0196 13.2379C15.9383 12.5452 16.1808 11.4563 15.6085 10.7274C17.0806 10.1474 18.6346 9.80185 20.2138 9.70337C19.8795 10.6326 20.384 11.5361 21.4186 11.7786L24.9396 12.6159C25.4353 12.7167 25.9494 12.6763 26.4234 12.4992C26.8973 12.3222 27.312 12.0156 27.6202 11.6145C28.6537 12.329 29.5145 13.2654 30.1397 14.3553C29.2256 14.768 28.6232 15.6309 28.7331 16.4637L29.1458 19.6398C29.2331 20.3055 29.7482 20.7874 30.4364 20.95C30.5484 20.9757 30.6622 20.9929 30.7767 21.0013ZM15.8269 26.9378C19.9804 27.9137 24.8537 25.6562 26.691 21.9048C28.5283 18.1534 26.6443 14.3041 22.4908 13.3283C18.3373 12.3524 13.4625 14.6099 11.6252 18.3613C9.78786 22.1127 11.6734 25.9605 15.8269 26.9378ZM28.2979 22.6367C28.4299 22.6644 28.5673 22.6487 28.6897 22.592C28.812 22.5353 28.9128 22.4406 28.9771 22.322C29.0054 22.2708 29.0209 22.2134 29.0224 22.1549C29.0238 22.0964 29.0112 22.0384 28.9855 21.9858C28.9598 21.9332 28.9218 21.8876 28.8747 21.8528C28.8276 21.818 28.7729 21.795 28.715 21.7859C28.5831 21.7587 28.4458 21.7747 28.3236 21.8313C28.2013 21.888 28.1005 21.9824 28.0359 22.1006C28.0079 22.1519 27.9927 22.2092 27.9914 22.2676C27.9901 22.326 28.0028 22.3839 28.0285 22.4363C28.0541 22.4888 28.092 22.5344 28.1388 22.5693C28.1857 22.6041 28.2402 22.6273 28.2979 22.6367ZM9.95503 18.3221C10.087 18.3495 10.2243 18.3337 10.3466 18.277C10.469 18.2203 10.5698 18.1258 10.6342 18.0074C10.6622 17.9562 10.6775 17.899 10.6788 17.8407C10.6801 17.7823 10.6673 17.7246 10.6417 17.6722C10.616 17.6198 10.5781 17.5743 10.5312 17.5396C10.4843 17.5049 10.4298 17.482 10.3722 17.4727C10.2403 17.4452 10.1032 17.4608 9.98087 17.5172C9.85857 17.5736 9.75764 17.6678 9.69298 17.786C9.66469 17.8372 9.64915 17.8945 9.64769 17.9531C9.64623 18.0116 9.65889 18.0696 9.6846 18.1222C9.7103 18.1748 9.7483 18.2204 9.79537 18.2552C9.84244 18.29 9.89721 18.313 9.95503 18.3221ZM20.4547 28.73C20.7379 28.6652 20.9427 28.4288 20.9065 28.1908C20.8951 28.1143 20.8598 28.0433 20.8057 27.9879C20.7517 27.9324 20.6816 27.8954 20.6053 27.8821C20.5187 27.8617 20.4285 27.8617 20.3418 27.8821C20.0587 27.9468 19.8569 28.1833 19.89 28.4212C19.9019 28.4976 19.9373 28.5684 19.9913 28.6237C20.0453 28.679 20.1151 28.7162 20.1912 28.73C20.2774 28.7503 20.3671 28.7503 20.4532 28.73H20.4547ZM11.5303 26.4574C11.7592 26.2857 11.8089 26.0056 11.6417 25.837C11.5849 25.7808 11.5134 25.7416 11.4354 25.724C11.3466 25.7059 11.255 25.707 11.1667 25.7272C11.0783 25.7475 10.9954 25.7864 10.9234 25.8415C10.6945 26.0147 10.6448 26.2933 10.8104 26.4619C10.8677 26.5184 10.9397 26.5576 11.0183 26.5749C11.107 26.593 11.1987 26.592 11.287 26.5717C11.3753 26.5514 11.4583 26.5125 11.5303 26.4574ZM27.1232 13.6475C26.8928 13.8207 26.8416 14.0993 27.0103 14.268C27.0673 14.3239 27.1387 14.363 27.2166 14.381C27.3053 14.399 27.3968 14.398 27.4851 14.378C27.5734 14.358 27.6564 14.3195 27.7286 14.265C27.959 14.0918 28.0087 13.8132 27.8401 13.643C27.7835 13.5867 27.7119 13.548 27.6338 13.5316C27.5453 13.5127 27.4539 13.5134 27.3657 13.5334C27.2776 13.5534 27.1948 13.5924 27.1232 13.6475ZM18.2078 11.378C17.9262 11.4413 17.7214 11.6792 17.756 11.9172C17.7689 11.9923 17.8048 12.0617 17.8588 12.1156C17.9127 12.1696 17.982 12.2054 18.0572 12.2184C18.1439 12.2387 18.2341 12.2387 18.3208 12.2184C18.6024 12.1551 18.8072 11.9172 18.7726 11.6792C18.7584 11.6046 18.7221 11.5359 18.6684 11.4822C18.6147 11.4284 18.546 11.3921 18.4714 11.378C18.3846 11.3586 18.2946 11.3586 18.2078 11.378Z" fill="#3058FE"/>
<path d="M15.6067 10.7274C12.9652 11.762 10.6083 13.5195 9.021 15.7529C9.23165 15.9095 9.47276 16.0203 9.72881 16.0782C10.1059 16.1565 10.4953 16.1527 10.8708 16.0672C11.2463 15.9818 11.599 15.8165 11.905 15.5827L15.0193 13.2379C15.9365 12.5451 16.1789 11.4563 15.6067 10.7274Z" fill="#6783F6"/>
<path d="M20.2119 9.70333C21.4753 9.62398 22.7435 9.72848 23.9769 10.0136C25.2819 10.3071 26.5185 10.8479 27.6199 11.6069C27.3125 12.0094 26.8982 12.3175 26.4243 12.4959C25.9503 12.6743 25.4357 12.7159 24.9392 12.6159L21.4122 11.7861C20.3821 11.5361 19.8776 10.6325 20.2119 9.70333Z" fill="#6783F6"/>
<path d="M27.6351 13.5331C27.7132 13.5495 27.7848 13.5882 27.8414 13.6445C28.01 13.8147 27.9604 14.0963 27.7299 14.2665C27.6577 14.321 27.5747 14.3596 27.4864 14.3795C27.3981 14.3995 27.3066 14.4005 27.2179 14.3825C27.14 14.3645 27.0686 14.3255 27.0116 14.2695C26.8429 14.0993 26.8941 13.8177 27.1245 13.6491C27.1961 13.5939 27.2789 13.5549 27.367 13.5349C27.4552 13.5149 27.5466 13.5143 27.6351 13.5331Z" fill="#FFFCED"/>
<path d="M30.6637 16.1158C30.4308 15.5556 30.1964 14.9959 29.9604 14.4366C30.0192 14.405 30.0779 14.3749 30.1397 14.3478L30.8414 16.0269C30.7812 16.0541 30.721 16.0797 30.6637 16.1158Z" fill="#3058FE"/>
<path d="M30.6637 16.1158C29.852 16.5541 29.334 17.3583 29.4349 18.1414L28.7331 16.4622C28.6307 15.6791 29.1487 14.8764 29.9605 14.4366C30.1306 14.8387 30.1306 14.8387 30.6637 16.1158Z" fill="#3058FE"/>
<path d="M8.32679 26.4709L7.625 24.7917C7.82609 25.2701 8.07269 25.728 8.36142 26.1592L9.06321 27.8384C8.77474 27.407 8.52815 26.9491 8.32679 26.4709Z" fill="#6783F6"/>
<path d="M11.4307 25.7255C11.5087 25.7431 11.5802 25.7823 11.637 25.8384C11.8042 26.0086 11.7545 26.2902 11.5256 26.4589C11.4536 26.5139 11.3706 26.5529 11.2823 26.5732C11.194 26.5934 11.1024 26.5945 11.0136 26.5764C10.935 26.5591 10.863 26.5199 10.8057 26.4634C10.6401 26.2932 10.6898 26.0116 10.9187 25.843C10.9907 25.7879 11.0736 25.749 11.162 25.7287C11.2503 25.7084 11.3419 25.7073 11.4307 25.7255Z" fill="#FFFCED"/>
<path d="M11.0242 28.6938L11.732 30.373C10.6738 29.7285 9.76589 28.8648 9.06946 27.8399L8.36768 26.1608C9.06236 27.185 9.96816 28.0486 11.0242 28.6938Z" fill="#0030F5"/>
<path d="M13.5058 27.9257L14.2091 29.6048C13.7639 29.5146 13.3033 29.5376 12.8693 29.6718C12.4354 29.806 12.0422 30.0471 11.7257 30.3729L11.0239 28.6937C11.3402 28.3681 11.7332 28.1272 12.1669 27.993C12.6005 27.8588 13.0609 27.8356 13.5058 27.9257Z" fill="#3058FE"/>
<path d="M30.5566 15.2047L31.2584 16.8839C31.9873 18.6263 32.0958 20.6323 31.4753 22.6804L30.7735 21.0012C31.397 18.9531 31.2885 16.9471 30.5566 15.2047Z" fill="#4266FB"/>
<path d="M30.1397 14.3478C31.2316 16.2724 31.4951 18.6082 30.7767 21.0012C30.6621 20.9923 30.5483 20.9747 30.4364 20.9485C29.7451 20.7859 29.2316 20.3039 29.1458 19.6383L28.7331 16.4622C28.6232 15.6279 29.2256 14.7604 30.1397 14.3478Z" fill="#6783F6"/>
<path d="M28.7072 21.7858C28.765 21.795 28.8197 21.818 28.8668 21.8528C28.9139 21.8876 28.9519 21.9332 28.9776 21.9858C29.0033 22.0384 29.016 22.0964 29.0145 22.1549C29.013 22.2134 28.9975 22.2707 28.9692 22.322C28.905 22.4406 28.8042 22.5352 28.6818 22.592C28.5594 22.6487 28.422 22.6644 28.29 22.6367C28.2324 22.6273 28.1778 22.6041 28.1309 22.5693C28.0841 22.5344 28.0462 22.4888 28.0206 22.4363C27.9949 22.3838 27.9822 22.326 27.9835 22.2676C27.9848 22.2092 28 22.1519 28.028 22.1006C28.0926 21.9824 28.1934 21.888 28.3157 21.8313C28.438 21.7746 28.5752 21.7587 28.7072 21.7858Z" fill="#FFFCED"/>
<path d="M17.0329 28.754L17.7362 30.4332L14.2092 29.6034L13.5059 27.9242L17.0329 28.754Z" fill="#3058FE"/>
<path d="M30.7766 21.0012L31.4784 22.6804C31.312 23.2289 31.101 23.7628 30.8474 24.2767C30.5196 24.9429 30.1299 25.5767 29.6832 26.1698L28.9814 24.4906C29.4273 23.8949 29.817 23.2591 30.1456 22.5915C30.398 22.0791 30.609 21.5473 30.7766 21.0012Z" fill="#0030F5"/>
<path d="M29.4575 26.1095C29.0807 26.0313 28.6915 26.035 28.3163 26.1205C27.941 26.206 27.5886 26.3712 27.2829 26.605L26.5796 24.9243C26.8852 24.692 27.2369 24.5276 27.6111 24.4421C27.9854 24.3567 28.3736 24.3522 28.7497 24.4289C28.8261 24.4476 28.9015 24.4702 28.9756 24.4966C29.2085 25.0569 29.4425 25.6166 29.6774 26.1758C29.6056 26.149 29.5322 26.1269 29.4575 26.1095Z" fill="#3058FE"/>
<path d="M26.5792 24.9243L27.2825 26.6035L24.1666 28.9498L23.4648 27.2691L26.5792 24.9243Z" fill="#3058FE"/>
<path d="M20.6081 27.8835C20.6844 27.8968 20.7545 27.9338 20.8085 27.9893C20.8626 28.0447 20.8979 28.1157 20.9093 28.1922C20.941 28.4241 20.7361 28.6666 20.4575 28.7314C20.3714 28.7517 20.2817 28.7517 20.1955 28.7314C20.1194 28.7176 20.0496 28.6804 19.9956 28.6251C19.9416 28.5698 19.9062 28.499 19.8943 28.4226C19.8657 28.1892 20.0675 27.9482 20.3461 27.8835C20.4323 27.8634 20.5219 27.8634 20.6081 27.8835Z" fill="#FFFCED"/>
<path d="M17.0328 28.7555C17.8521 28.9482 18.3385 29.5581 18.3355 30.269C16.9515 30.3922 15.5568 30.2956 14.2031 29.9828C13.0807 29.7275 12.0071 29.2921 11.0239 28.6937C11.3402 28.3681 11.7332 28.1272 12.1669 27.993C12.6005 27.8588 13.0609 27.8356 13.5058 27.9257L17.0328 28.7555Z" fill="#6783F6"/>
<path d="M18.3358 30.269L19.0391 31.9482C17.6547 32.0711 16.2596 31.9751 14.9052 31.6635C13.7851 31.4064 12.7137 30.9706 11.7321 30.3729L11.0303 28.6937C12.0135 29.2921 13.0871 29.7275 14.2094 29.9829C15.5612 30.295 16.9538 30.3916 18.3358 30.269Z" fill="#4266FB"/>
<path d="M24.1665 28.9498C23.9238 29.1195 23.7193 29.338 23.566 29.5914C23.4128 29.8448 23.3141 30.1274 23.2765 30.4211L22.5747 28.7405C22.6133 28.447 22.7124 28.1648 22.8659 27.9118C23.0194 27.6588 23.2238 27.4404 23.4662 27.2706L24.1665 28.9498Z" fill="#3058FE"/>
<path d="M23.2768 30.4212C23.2607 30.5934 23.2745 30.7671 23.3174 30.9347L22.6142 29.2555C22.5718 29.0873 22.5581 28.9132 22.5735 28.7405L22.6563 28.9378L22.7437 29.1456L22.834 29.3609L22.9259 29.5808L22.9711 29.6908L23.0178 29.8007L23.1081 30.016L23.1518 30.1215L23.2361 30.3248C23.2534 30.3552 23.267 30.3876 23.2768 30.4212Z" fill="#3058FE"/>
<path d="M22.6139 29.2555L23.3172 30.9347C21.9477 31.4779 20.5065 31.8193 19.0387 31.9482L18.3354 30.269C19.8032 30.1404 21.2445 29.799 22.6139 29.2555Z" fill="#0030F5"/>
<path d="M26.5795 24.9243C26.8851 24.692 27.2368 24.5276 27.611 24.4421C27.9853 24.3567 28.3735 24.3522 28.7496 24.4289C28.826 24.4476 28.9014 24.4702 28.9755 24.4966C27.3988 26.605 25.1353 28.2616 22.6082 29.2555C22.4365 28.5914 22.7423 27.8098 23.4591 27.2706L26.5795 24.9243Z" fill="#6783F6"/>
<path d="M28.9816 24.4966L29.6833 26.1697C28.1081 28.2781 25.8446 29.9347 23.3175 30.9286L22.6143 29.2495C25.1353 28.2585 27.4048 26.6065 28.9816 24.4966Z" fill="#4266FB"/>
<path d="M3.12665 14.092C3.31014 14.0163 3.47011 13.893 3.59003 13.7349L2.59424 15.0626C2.4745 15.2209 2.31448 15.3443 2.13086 15.4197L3.12665 14.092Z" fill="#3058FE"/>
<path d="M4.61523 17.8017L5.60969 16.4739C5.94162 16.0225 6.61345 15.8685 7.30387 16.138L6.30808 17.4657C5.61766 17.1962 4.94716 17.3516 4.61523 17.8017Z" fill="#6783F6"/>
<path d="M5.18602 14.7399C5.24362 14.7661 5.30714 14.7766 5.3701 14.7703C5.43306 14.764 5.49324 14.7411 5.54451 14.7041L4.54872 16.0318C4.49758 16.0687 4.43757 16.0913 4.37481 16.0974C4.31206 16.1034 4.24882 16.0927 4.19156 16.0663L5.18602 14.7386L4.19156 16.0663C4.12518 16.0408 4.06499 16.0014 4.01497 15.9508C3.95027 15.8975 3.90671 15.823 3.8921 15.7404C3.8775 15.6579 3.89282 15.5729 3.93531 15.5007L4.92977 14.173C4.88743 14.2453 4.87232 14.3305 4.88717 14.413C4.90202 14.4955 4.94585 14.57 5.01076 14.6231C5.06049 14.6737 5.12016 14.7135 5.18602 14.7399Z" fill="#3058FE"/>
<path d="M5.54462 14.708C5.55991 14.6959 5.57332 14.6816 5.58445 14.6655L4.58999 15.9932C4.57766 16.0087 4.56387 16.0229 4.54883 16.0357C4.84757 15.6414 5.20207 15.0705 5.54462 14.708Z" fill="#3058FE"/>
<path d="M3.93555 15.5099L4.93001 14.1822C4.94234 14.1668 4.95612 14.1526 4.97117 14.1397C5.0223 14.1029 5.08232 14.0802 5.14507 14.0742C5.20783 14.0681 5.27107 14.0788 5.32832 14.1052L4.33253 15.4329C4.27523 15.4064 4.21188 15.3958 4.14906 15.4021C4.08625 15.4084 4.02627 15.4314 3.97538 15.4688C3.96051 15.4809 3.94714 15.4947 3.93555 15.5099Z" fill="#FFFCED"/>
<path d="M5.58456 14.6656L4.5901 15.9933C4.63232 15.921 4.64749 15.8361 4.6329 15.7536C4.61831 15.6712 4.57491 15.5966 4.51044 15.5432C4.45977 15.4925 4.3992 15.4527 4.33252 15.4264L5.32831 14.0986C5.39469 14.1242 5.45489 14.1636 5.5049 14.2141C5.57016 14.2673 5.61412 14.3421 5.62875 14.425C5.64337 14.5079 5.62769 14.5933 5.58456 14.6656Z" fill="#FFFCED"/>
<path d="M4.33259 15.4316C4.39928 15.458 4.45984 15.4978 4.51051 15.5485C4.66851 15.7065 4.68577 15.9269 4.54901 16.0411C4.49788 16.0779 4.43786 16.1006 4.37511 16.1066C4.31235 16.1127 4.24911 16.102 4.19186 16.0756C4.12547 16.05 4.06528 16.0107 4.01527 15.9601C3.85727 15.8021 3.84001 15.5804 3.97544 15.4675C4.02633 15.4301 4.08631 15.4071 4.14912 15.4008C4.21194 15.3945 4.27529 15.4052 4.33259 15.4316Z" fill="#FFFCED"/>
<path d="M3.59003 13.7348L2.59424 15.0626C2.71383 14.8916 2.78864 14.6933 2.81183 14.486C2.83503 14.2786 2.80586 14.0688 2.72701 13.8756L3.7228 12.5479C3.80141 12.7411 3.83045 12.9509 3.80726 13.1582C3.78407 13.3655 3.70939 13.5637 3.59003 13.7348Z" fill="#6783F6"/>
<path d="M6.30811 17.4657L7.30389 16.134L10.0934 17.2241L9.09765 18.5571L6.30811 17.4657Z" fill="#6783F6"/>
<path d="M9.09766 18.5571L10.0934 17.2294C10.3987 17.3448 10.6725 17.5304 10.8928 17.7712C11.1131 18.012 11.2736 18.3012 11.3614 18.6155L10.367 19.9432C10.2784 19.6291 10.1175 19.34 9.89704 19.0993C9.67661 18.8586 9.40283 18.6729 9.09766 18.5571Z" fill="#6783F6"/>
<path d="M9.09762 18.5571C9.40279 18.6729 9.67657 18.8586 9.897 19.0993C10.1174 19.34 10.2784 19.6291 10.3669 19.9432C9.29237 19.8658 8.23606 19.624 7.23482 19.2263C6.30586 18.862 5.42589 18.3834 4.61523 17.8016C4.94716 17.3515 5.61766 17.1962 6.30808 17.467L9.09762 18.5571Z" fill="#6783F6"/>
<path d="M1.78711 11.2454L2.7829 9.91235L3.71894 12.5479L2.72315 13.8796L1.78711 11.2454Z" fill="#6783F6"/>
<path d="M3.99396 8.11326C3.36994 10.9626 5.53943 14.3283 8.83084 15.6149L7.83505 16.9426C4.54364 15.656 2.37415 12.2956 2.9995 9.44098C3.12163 8.86776 3.36571 8.32754 3.71515 7.85702L4.70961 6.5293C4.3607 7.00014 4.11668 7.54024 3.99396 8.11326Z" fill="#3058FE"/>
<path d="M3.92747 8.02035L4.92193 6.69263C4.58752 7.14342 4.35305 7.66033 4.23417 8.20888C3.63404 10.9427 5.71724 14.1717 8.88119 15.4065L7.88673 16.7342C4.72809 15.4981 2.64622 12.2704 3.23971 9.53527C3.35787 8.98689 3.59241 8.47026 3.92747 8.02035Z" fill="#2545C6"/>
<path d="M6.23749 13.4042C6.71015 13.8939 7.24595 14.3186 7.83075 14.6668L6.83628 15.9946C6.25131 15.6491 5.71506 15.2272 5.2417 14.7399L6.23749 13.4042Z" fill="#3058FE"/>
<path d="M8.42457 14.9789C8.09441 15.4214 7.76293 15.864 7.43011 16.3066C7.2283 16.211 7.03268 16.1065 6.84326 15.9932L7.83772 14.6655C8.02759 14.7784 8.22409 14.8833 8.42457 14.9789Z" fill="#3058FE"/>
<path d="M6.23757 13.4043L5.93618 13.8026L5.56176 14.3084L5.46617 14.4412L5.3334 14.6271C5.29928 14.6608 5.27021 14.6992 5.24709 14.7413C5.17805 14.6696 5.11431 14.5965 5.04395 14.5235L6.03973 13.1958C6.10081 13.2631 6.16676 13.3326 6.23757 13.4043Z" fill="#3058FE"/>
<path d="M5.86067 12.9846C5.91776 13.0523 5.97485 13.1174 6.0346 13.1851L5.03881 14.5128C4.98039 14.4464 4.92198 14.3801 4.86621 14.311L5.86067 12.9846Z" fill="#3058FE"/>
<path d="M8.42415 14.9789C8.58746 15.0572 8.75342 15.1289 8.92204 15.1953L7.92758 16.523C7.75763 16.4566 7.59167 16.3836 7.42969 16.3066C7.76162 15.8658 8.0931 15.4232 8.42415 14.9789Z" fill="#3058FE"/>
<path d="M8.83075 15.6149C9.22744 15.7718 9.63704 15.894 10.0549 15.98L9.05912 17.3077C8.64161 17.2203 8.23213 17.0982 7.83496 16.9426L8.83075 15.6149Z" fill="#3058FE"/>
<path d="M12.6331 17.6078C12.6725 17.6053 12.7109 17.5944 12.7457 17.5759C12.7805 17.5573 12.8109 17.5315 12.8349 17.5002L11.8405 18.828C11.8163 18.859 11.7858 18.8845 11.751 18.9028C11.7162 18.9211 11.6779 18.9318 11.6387 18.9342L12.6331 17.6078Z" fill="#3058FE"/>
<path d="M12.4383 17.5786C12.5002 17.6032 12.567 17.6132 12.6335 17.6078L11.639 18.9355C11.5726 18.9417 11.5056 18.9316 11.4438 18.9063C11.3785 18.8812 11.3191 18.8427 11.2695 18.7934C11.2198 18.744 11.1811 18.6847 11.1557 18.6195L12.1515 17.2918L11.1557 18.6195C11.1373 18.574 11.1306 18.5247 11.1362 18.476C11.1417 18.4273 11.1594 18.3808 11.1876 18.3407L12.1821 17.0129C12.1541 17.0534 12.1367 17.1002 12.1313 17.1491C12.126 17.1981 12.1329 17.2475 12.1515 17.2931C12.177 17.3579 12.2157 17.4167 12.265 17.4658C12.3144 17.515 12.3734 17.5533 12.4383 17.5786Z" fill="#3058FE"/>
<path d="M11.186 18.3446L12.1818 17.0169C12.2062 16.986 12.2367 16.9605 12.2714 16.9419C12.3062 16.9234 12.3444 16.9123 12.3836 16.9094C12.4501 16.9046 12.5167 16.9146 12.5788 16.9386L11.583 18.2663C11.5217 18.241 11.4552 18.231 11.3892 18.2371C11.3497 18.2399 11.3112 18.2509 11.2762 18.2694C11.2413 18.2879 11.2105 18.3135 11.186 18.3446Z" fill="#FFFCED"/>
<path d="M12.8351 17.5003L11.8406 18.828C11.8683 18.7874 11.8856 18.7406 11.891 18.6918C11.8963 18.6429 11.8895 18.5935 11.8711 18.5479C11.8458 18.4826 11.807 18.4234 11.7574 18.374C11.7078 18.3246 11.6484 18.2861 11.583 18.2611L12.5788 16.9333C12.6439 16.9589 12.703 16.9977 12.7524 17.0473C12.8018 17.0969 12.8403 17.1562 12.8656 17.2215C12.8845 17.2667 12.8917 17.316 12.8863 17.3648C12.881 17.4136 12.8634 17.4602 12.8351 17.5003Z" fill="#FFFCED"/>
<path d="M11.5829 18.2663C11.6483 18.2913 11.7077 18.3298 11.7573 18.3792C11.807 18.4286 11.8457 18.4878 11.8711 18.5531C11.8895 18.5935 11.8977 18.6377 11.8952 18.682C11.8927 18.7263 11.8794 18.7694 11.8565 18.8074C11.8337 18.8454 11.8019 18.8773 11.7639 18.9003C11.726 18.9233 11.683 18.9368 11.6387 18.9394C11.5722 18.9456 11.5053 18.9356 11.4435 18.9102C11.3782 18.8852 11.3188 18.8467 11.2691 18.7973C11.2195 18.7479 11.1808 18.6887 11.1554 18.6234C11.137 18.583 11.1287 18.5386 11.1313 18.4942C11.1339 18.4498 11.1473 18.4067 11.1703 18.3686C11.1933 18.3306 11.2253 18.2987 11.2634 18.2758C11.3015 18.2528 11.3447 18.2396 11.3891 18.2371C11.4551 18.231 11.5216 18.241 11.5829 18.2663Z" fill="#FFFCED"/>
<path d="M1.78711 11.2453L2.71652 13.8808C2.95949 14.5633 2.69793 15.1847 2.12435 15.425C0.817875 13.7494 0.0371761 11.7977 0 9.89636C0.194707 9.91104 0.385963 9.95583 0.566939 10.0291C0.84398 10.1354 1.09569 10.2985 1.30585 10.508C1.516 10.7175 1.67994 10.9686 1.78711 11.2453Z" fill="#6783F6"/>
<path d="M0 9.89632L0.99446 8.5686C1.18958 8.58342 1.38125 8.6282 1.56273 8.70138C1.84016 8.80808 2.0921 8.97181 2.30228 9.18199C2.51247 9.39217 2.6762 9.64412 2.7829 9.92155L1.78711 11.2493C1.68041 10.9718 1.51668 10.7199 1.3065 10.5097C1.09631 10.2995 0.844367 10.1358 0.566939 10.0291C0.385963 9.95579 0.194707 9.911 0 9.89632Z" fill="#6783F6"/>
<path d="M5.55247 13.1679L6.54826 11.8402C6.53217 11.8969 6.53903 11.9576 6.56735 12.0093C6.59567 12.061 6.64318 12.0994 6.69962 12.1164L5.70383 13.4441C5.64739 13.4272 5.59988 13.3887 5.57156 13.337C5.54324 13.2854 5.53638 13.2246 5.55247 13.1679Z" fill="#FFFCED"/>
<path d="M5.7041 13.4441L6.69989 12.1111L7.90413 12.5824L6.90967 13.9155L5.7041 13.4441Z" fill="#FFFCED"/>
<path d="M7.90399 12.5823C7.93871 12.5996 7.97813 12.605 8.01624 12.5979C8.05435 12.5907 8.08906 12.5712 8.11509 12.5425L7.12063 13.8702C7.09426 13.8989 7.05933 13.9182 7.02104 13.9254C6.98275 13.9326 6.94317 13.9272 6.9082 13.91L7.90399 12.5823Z" fill="#FFFCED"/>
<path d="M8.11507 12.5426L7.12061 13.8703C7.12553 13.8626 7.12997 13.8546 7.13389 13.8464L8.12968 12.5187C8.1253 12.5269 8.12041 12.5349 8.11507 12.5426Z" fill="#3058FE"/>
<path d="M14.4113 16.9519C14.1458 17.3104 14.1245 17.8136 14.3436 18.2889L13.3491 19.6166C13.1301 19.1426 13.1473 18.6394 13.4155 18.281L14.4113 16.9519Z" fill="#3058FE"/>
<path d="M9.88753 13.3298C9.91547 13.3593 9.94944 13.3824 9.98711 13.3975L8.99132 14.7253C8.9542 14.7104 8.9207 14.6878 8.89307 14.6589C9.22411 14.2172 9.5556 13.7742 9.88753 13.3298Z" fill="#FFFCED"/>
<path d="M13.415 18.2849L14.4095 16.9572C14.46 16.8902 14.5179 16.8292 14.5821 16.7753L13.5876 18.103C13.5228 18.1562 13.4648 18.2173 13.415 18.2849Z" fill="#6783F6"/>
<path d="M9.88743 13.3298C9.5555 13.7724 9.22402 14.215 8.89297 14.6576C8.86065 14.6254 8.83888 14.5842 8.83057 14.5394L9.82503 13.2117C9.83451 13.2561 9.85611 13.297 9.88743 13.3298Z" fill="#FFFCED"/>
<path d="M1.45654 8.75594C1.46952 8.73605 1.48371 8.71699 1.49903 8.69885L1.58799 8.58068L1.68093 8.4572L1.72739 8.39347L1.82432 8.2607L2.21202 7.74023L1.45654 8.75196V8.75594Z" fill="#3058FE"/>
<path d="M8.99268 14.7293L9.98714 13.3962L11.1781 13.8623L10.1823 15.1953L8.99268 14.7293Z" fill="#FFFCED"/>
<path d="M2.7536 7.89158C2.81916 7.9246 2.89382 7.93495 2.9659 7.92101C3.03797 7.90708 3.10338 7.86965 3.15192 7.81458L2.15613 9.14229C2.1075 9.19721 2.04218 9.23462 1.97021 9.24877C1.89824 9.26293 1.82361 9.25304 1.75781 9.22063L2.7536 7.89158Z" fill="#3058FE"/>
<path d="M2.75354 7.89152L2.32071 8.47041L1.99807 8.89794L1.81485 9.14224L1.75775 9.21924C1.66192 9.18672 1.57994 9.12267 1.5252 9.03754C1.47046 8.95242 1.4462 8.85125 1.45637 8.75056L2.45216 7.42284L1.45637 8.75056C1.46397 8.71488 1.47939 8.68132 1.50151 8.65231L2.4973 7.32458C2.47492 7.35394 2.45949 7.38799 2.45216 7.42416C2.44181 7.52472 2.46602 7.6258 2.5208 7.71075C2.57559 7.79571 2.65768 7.85946 2.75354 7.89152Z" fill="#3058FE"/>
<path d="M10.0693 13.1945L11.0651 11.8615L11.413 13.7043L10.4185 15.0374L10.0693 13.1945Z" fill="#3058FE"/>
<path d="M11.1779 13.8623C11.2127 13.8802 11.2525 13.8859 11.2909 13.8787C11.3294 13.8715 11.3644 13.8517 11.3904 13.8225L10.3946 15.1502C10.3686 15.1795 10.3337 15.1994 10.2953 15.2068C10.2569 15.2143 10.2171 15.2088 10.1821 15.1914L11.1779 13.8623Z" fill="#FFFCED"/>
<path d="M11.3903 13.8224L10.3945 15.1501C10.4064 15.1334 10.4147 15.1143 10.4188 15.0942C10.4229 15.0741 10.4228 15.0533 10.4184 15.0333L11.4129 13.7056C11.4174 13.7255 11.4177 13.7462 11.4138 13.7663C11.4099 13.7864 11.4019 13.8055 11.3903 13.8224Z" fill="#3058FE"/>
<path d="M1.50146 8.65758L2.49593 7.32986C2.54472 7.27517 2.61012 7.23801 2.68208 7.2241C2.75405 7.21019 2.82858 7.22029 2.89424 7.25285L1.89978 8.58057C1.83407 8.54823 1.7596 8.53825 1.68769 8.55215C1.61578 8.56606 1.55039 8.60308 1.50146 8.65758Z" fill="#FFFCED"/>
<path d="M1.89982 8.57923C1.99558 8.61132 2.07752 8.67513 2.13208 8.76011C2.18665 8.8451 2.21056 8.94616 2.19989 9.04658C2.16138 9.2245 1.96355 9.30416 1.75776 9.2245C1.66192 9.19198 1.57994 9.12792 1.5252 9.0428C1.47046 8.95768 1.4462 8.85651 1.45637 8.75581C1.4962 8.5779 1.69403 8.49957 1.89982 8.57923Z" fill="#FFFCED"/>
<path d="M3.15062 7.81449L2.15483 9.14221C2.17721 9.11286 2.19264 9.07881 2.19997 9.04263C2.21064 8.94221 2.18673 8.84115 2.13216 8.75616C2.0776 8.67118 1.99566 8.60737 1.8999 8.57528L2.89436 7.24756C2.99009 7.27982 3.07204 7.34363 3.12679 7.42853C3.18155 7.51343 3.20586 7.6144 3.19576 7.71491C3.1873 7.75072 3.17197 7.78454 3.15062 7.81449Z" fill="#FFFCED"/>
<path d="M7.75516 12.512L8.75095 11.179L8.12958 12.5186L7.13379 13.8503L7.75516 12.512Z" fill="#3058FE"/>
<path d="M7.76997 12.4895L8.76444 11.1617C8.75951 11.1694 8.75508 11.1774 8.75116 11.1856L7.75537 12.5134C7.75913 12.5048 7.76405 12.4967 7.76997 12.4895Z" fill="#3058FE"/>
<path d="M7.77002 12.4894L8.76448 11.1617C8.79086 11.133 8.8258 11.1137 8.86408 11.1065C8.90237 11.0993 8.94194 11.1047 8.97691 11.1219L7.98245 12.4496C7.94768 12.4315 7.90787 12.4256 7.86936 12.4329C7.83086 12.4401 7.79588 12.46 7.77002 12.4894Z" fill="#FFFCED"/>
<path d="M8.52002 12.7802L9.51581 11.4485L9.82517 13.2117L8.83071 14.5447L8.52002 12.7802Z" fill="#FFFCED"/>
<path d="M7.98242 12.4483L8.97688 11.1166L9.35395 11.2626L8.35816 12.5957L7.98242 12.4483Z" fill="#FFFCED"/>
<path d="M9.37627 11.2732L8.38048 12.6009L8.35791 12.5903L9.3537 11.2626L9.37627 11.2732Z" fill="#FFFCED"/>
<path d="M9.37616 11.2732C9.40952 11.2912 9.43864 11.3162 9.46154 11.3464C9.48444 11.3767 9.5006 11.4115 9.50893 11.4485L8.51314 12.7762C8.50577 12.7388 8.48998 12.7036 8.46698 12.6732C8.44397 12.6429 8.41435 12.6181 8.38037 12.6009L9.37616 11.2732Z" fill="#FFFCED"/>
<path d="M10.0933 13.0763L11.0891 11.7485C11.0767 11.7653 11.0681 11.7845 11.064 11.805C11.0599 11.8254 11.0603 11.8465 11.0652 11.8667L10.0694 13.1944C10.0649 13.1741 10.0648 13.1532 10.0689 13.1328C10.073 13.1125 10.0813 13.0932 10.0933 13.0763Z" fill="#3058FE"/>
<path d="M11.0892 11.7446C11.1048 11.7244 11.1249 11.7082 11.148 11.6974C11.1711 11.6865 11.1965 11.6813 11.222 11.6822L10.2275 13.0099C10.2021 13.0097 10.177 13.0151 10.154 13.026C10.131 13.0368 10.1107 13.0526 10.0947 13.0724L11.0892 11.7446Z" fill="#FFFCED"/>
<path d="M0.559082 7.02059L1.55354 5.69287C1.73121 5.83987 1.93109 5.95773 2.14571 6.04206C2.6914 6.25582 3.27692 6.21865 3.66594 5.89469L2.67015 7.2224C2.28113 7.54637 1.69694 7.58354 1.14992 7.37111C0.935627 7.28635 0.736187 7.16803 0.559082 7.02059Z" fill="#3058FE"/>
<path d="M5.86077 12.9847L4.86631 14.3124C3.70987 12.9209 3.14027 11.1949 3.48415 9.63216C3.59658 9.1063 3.82021 8.61059 4.14005 8.17831C4.47109 7.73573 4.80258 7.29316 5.13451 6.85059C4.81422 7.28491 4.59099 7.78298 4.47994 8.31108C4.13739 9.86584 4.70566 11.5932 5.86077 12.9847Z" fill="#3058FE"/>
<path d="M10.0549 15.98C12.1965 16.4208 14.1575 15.7875 15.2184 14.3682L14.2239 15.6959C13.1617 17.1152 11.202 17.7472 9.05908 17.3077L10.0549 15.98Z" fill="#3058FE"/>
<path d="M15.0059 14.2089L14.0101 15.5366C12.8019 17.1564 10.3721 17.7087 7.88135 16.7315L8.88112 15.4038C11.3679 16.381 13.7937 15.8274 15.0059 14.2089Z" fill="#2545C6"/>
<path d="M8.92219 15.1953C11.3121 16.1247 13.6316 15.6016 14.7894 14.0535L13.7936 15.3812C12.6358 16.9306 10.315 17.4577 7.92773 16.5244L8.92219 15.1953Z" fill="#3058FE"/>
<path d="M5.13412 6.84929C4.80351 7.29408 4.47025 7.73754 4.13965 8.17701V8.17037L5.13544 6.84265L5.13412 6.84929Z" fill="#3058FE"/>
<path d="M13.5879 18.1017L14.5837 16.77L16.4358 15.2245L15.4401 16.5575L13.5879 18.1017Z" fill="#6783F6"/>
<path d="M8.3913 11.1233L9.38577 9.79553C9.36999 9.85239 9.37698 9.91315 9.40523 9.96495C9.43348 10.0167 9.48079 10.0555 9.53713 10.073L8.54134 11.4007C8.48485 11.3835 8.43741 11.3448 8.40933 11.2928C8.38124 11.2409 8.37477 11.1799 8.3913 11.1233Z" fill="#3058FE"/>
<path d="M8.54248 11.3993L9.53694 10.0663L10.2247 10.3358L9.23024 11.6675L8.54248 11.3993Z" fill="#3058FE"/>
<path d="M4.92206 6.68867C4.98225 6.609 5.04465 6.53199 5.10927 6.45764L4.1148 7.78536C4.04842 7.85971 3.98203 7.93805 3.92627 8.01771L4.92206 6.68867Z" fill="#3058FE"/>
<path d="M9.23047 11.6689L10.2249 10.3412L10.2488 10.3505C10.4112 10.4235 10.5952 10.4325 10.764 10.3757L9.76819 11.7034C9.59934 11.7596 9.41559 11.7506 9.25304 11.6782L9.23047 11.6689Z" fill="#3058FE"/>
<path d="M15.3605 13.6339C15.2595 13.8356 15.1409 14.028 15.006 14.2088L14.0103 15.5365C14.1456 15.3561 14.2643 15.1636 14.3648 14.9616L15.3605 13.6339Z" fill="#3058FE"/>
<path d="M11.056 10.1633L10.0615 11.491C9.98781 11.5894 9.88521 11.6623 9.76807 11.6995L10.7639 10.3718C10.8808 10.3348 10.983 10.2619 11.056 10.1633Z" fill="#3058FE"/>
<path d="M11.129 10.0385C11.1094 10.0827 11.0849 10.1245 11.056 10.1633L10.0615 11.491C10.0903 11.4522 10.1148 11.4103 10.1345 11.3662L11.129 10.0385Z" fill="#FFFCED"/>
<path d="M11.1287 10.0385L10.1343 11.3662L11.1287 10.0385Z" fill="#FFFCED"/>
<path d="M8.76022 10.3266L9.75601 8.99353L9.38558 9.79016L8.39111 11.1219L8.76022 10.3266Z" fill="#3058FE"/>
<path d="M8.77353 10.304L9.76932 8.97632C9.76413 8.98289 9.75968 8.99002 9.75604 8.99756L8.76025 10.3253L8.77353 10.304Z" fill="#3058FE"/>
<path d="M12.0596 11.4445C12.2516 11.3405 12.4188 11.196 12.5495 11.021L11.5537 12.3487C11.4234 12.5244 11.2562 12.6694 11.0638 12.7736L11.1806 12.6182C11.4727 12.2252 11.7653 11.8331 12.0583 11.4419L11.0638 12.7696C10.8048 12.9124 10.5162 12.9933 10.2207 13.0059L11.2152 11.6782C11.5109 11.6664 11.7999 11.5864 12.0596 11.4445Z" fill="#FFFCED"/>
<path d="M15.44 16.5575C15.8291 16.2336 16.4146 16.1964 16.9603 16.4102C17.0213 16.4341 17.0824 16.4606 17.1422 16.4912C16.388 18.0247 15.0311 19.1054 13.3489 19.6206C13.0833 19.0603 13.1617 18.4588 13.5879 18.103L15.44 16.5575Z" fill="#6783F6"/>
<path d="M15.4399 16.5575L16.4357 15.2298C16.8248 14.9058 17.4089 14.8686 17.956 15.0824C18.017 15.1063 18.0768 15.1329 18.1365 15.1634L17.1421 16.4911C17.0823 16.4606 17.0212 16.434 16.9602 16.4101C16.4145 16.2003 15.829 16.2335 15.4399 16.5575Z" fill="#6783F6"/>
<path d="M17.5778 16.0742L16.582 17.4019C16.7964 17.1148 16.9839 16.8086 17.1423 16.4871L18.1368 15.1594C17.9791 15.481 17.792 15.7872 17.5778 16.0742Z" fill="#6783F6"/>
<path d="M8.77344 10.3041L9.76923 8.97634C9.79519 8.94708 9.83006 8.92719 9.86847 8.91975C9.90687 8.91231 9.94665 8.91773 9.98166 8.93518L8.9872 10.2629C8.95194 10.2456 8.912 10.2402 8.87342 10.2476C8.83484 10.2551 8.79974 10.2749 8.77344 10.3041Z" fill="#FFFCED"/>
<path d="M11.1183 9.56177C11.159 9.63502 11.1811 9.71704 11.183 9.80077C11.1848 9.88451 11.1663 9.96743 11.129 10.0424L10.1345 11.3701C10.1713 11.2952 10.1894 11.2125 10.1874 11.129C10.1853 11.0455 10.163 10.9638 10.1226 10.8908L11.1183 9.56177Z" fill="#FFFCED"/>
<path d="M8.9873 10.2629L9.98176 8.93115L10.6775 9.20201L9.68303 10.535L8.9873 10.2629Z" fill="#FFFCED"/>
<path d="M9.67773 10.5363L10.6722 9.20862C10.8583 9.26753 11.0155 9.394 11.113 9.56312L10.1172 10.8908C10.0203 10.7218 9.86345 10.5953 9.67773 10.5363Z" fill="#FFFCED"/>
<path d="M7.70099 8.53555L8.69678 7.20251L6.54852 11.8349L5.55273 13.168L7.70099 8.53555Z" fill="#FFFCED"/>
<path d="M7.71533 8.51288L8.7098 7.18517C8.73614 7.15602 8.77132 7.13633 8.80995 7.12913C8.84857 7.12193 8.88849 7.12763 8.92356 7.14533L7.92777 8.47305C7.8929 8.45545 7.85321 8.44981 7.81481 8.45701C7.77642 8.46421 7.74146 8.48385 7.71533 8.51288Z" fill="#3058FE"/>
<path d="M11.6149 10.5311C11.9216 11.0621 11.9588 11.572 11.7278 12.0606C11.5909 12.3658 11.3577 12.6177 11.0639 12.7776C10.8049 12.9204 10.5163 13.0013 10.2208 13.0139C10.1981 13.013 10.1754 13.0173 10.1546 13.0264C10.1338 13.0356 10.1153 13.0495 10.1007 13.0669C10.0861 13.0844 10.0757 13.105 10.0702 13.1271C10.0648 13.1492 10.0645 13.1722 10.0694 13.1945L10.4186 15.0373C10.4425 15.1701 10.3204 15.2498 10.1823 15.1953L8.98735 14.7293C8.94737 14.7143 8.91176 14.6895 8.88371 14.6573C8.85567 14.6251 8.83608 14.5864 8.8267 14.5448L8.51601 12.7815C8.50694 12.7394 8.48731 12.7002 8.45899 12.6677C8.43066 12.6352 8.39455 12.6104 8.35403 12.5957L7.97829 12.4496C7.93962 12.4285 7.89421 12.4233 7.85177 12.4352C7.80934 12.4471 7.77325 12.4752 7.75124 12.5133L7.12987 13.8517C7.10764 13.8893 7.0718 13.9169 7.02977 13.9287C6.98775 13.9406 6.94276 13.9358 6.90416 13.9154L5.69992 13.4441C5.64348 13.4271 5.59597 13.3887 5.56765 13.337C5.53933 13.2853 5.53248 13.2246 5.54856 13.1679L7.69681 8.5355C7.71951 8.49806 7.7556 8.47065 7.79775 8.45882C7.83991 8.44698 7.88498 8.45161 7.92385 8.47177L10.2181 9.36931C10.8058 9.58029 11.3004 9.99163 11.6149 10.5311ZM10.1345 11.3702C10.1713 11.2952 10.1894 11.2125 10.1873 11.1291C10.1853 11.0456 10.163 10.9639 10.1225 10.8909C10.0254 10.7218 9.8687 10.5949 9.68307 10.535L8.98735 10.2695C8.9487 10.2489 8.90364 10.2439 8.86141 10.2555C8.81918 10.2671 8.78301 10.2944 8.76032 10.3319L8.39121 11.1285C8.37507 11.185 8.38174 11.2456 8.4098 11.2973C8.43785 11.3489 8.48505 11.3875 8.54124 11.4047L9.23032 11.6702L9.25289 11.6795C9.41545 11.7519 9.5992 11.7609 9.76805 11.7048C9.84949 11.6788 9.92438 11.6356 9.98761 11.5781C10.0508 11.5206 10.101 11.4501 10.1345 11.3715" fill="#3058FE"/>
<path d="M9.67794 10.5364C9.86365 10.5953 10.0205 10.7218 10.1174 10.8909C10.1579 10.9639 10.1801 11.0456 10.1822 11.1291C10.1843 11.2125 10.1662 11.2952 10.1294 11.3702C10.0958 11.4488 10.0457 11.5193 9.98248 11.5768C9.91924 11.6343 9.84435 11.6775 9.76291 11.7034C9.59406 11.7596 9.41031 11.7506 9.24776 11.6782L9.22519 11.6689L8.5361 11.4034C8.47991 11.3862 8.43271 11.3476 8.40466 11.2959C8.3766 11.2443 8.36993 11.1837 8.38607 11.1272L8.75517 10.3306C8.77786 10.2931 8.81404 10.2658 8.85627 10.2542C8.89849 10.2426 8.94357 10.2476 8.98221 10.2682L9.67794 10.5364Z" fill="#FFFCED"/>
<path d="M7.71529 8.5129L8.70975 7.18518C8.70452 7.19267 8.70006 7.20068 8.69647 7.20908L7.70068 8.5368C7.7047 8.52834 7.70959 8.52033 7.71529 8.5129Z" fill="#FFFCED"/>
<path d="M17.2552 13.5622C17.321 13.5946 17.3956 13.6045 17.4676 13.5904C17.5396 13.5762 17.6049 13.5388 17.6535 13.4839L16.6591 14.8116C16.6104 14.8665 16.545 14.9038 16.473 14.9177C16.4009 14.9316 16.3264 14.9214 16.2607 14.8886C16.5595 14.4943 16.9578 13.9619 17.2552 13.5622Z" fill="#3058FE"/>
<path d="M16.9538 13.0935C16.9439 13.1941 16.9683 13.2952 17.023 13.3803C17.0777 13.4653 17.1595 13.5294 17.2552 13.5622L16.2608 14.8899C16.1649 14.8578 16.0828 14.7941 16.028 14.7091C15.9732 14.6242 15.949 14.5231 15.9594 14.4225L16.9538 13.0948L15.9594 14.4225C15.9669 14.3867 15.9819 14.3528 16.0032 14.323L16.999 12.9952C16.9773 13.0245 16.962 13.058 16.9538 13.0935Z" fill="#3058FE"/>
<path d="M2.66992 7.22103L3.66571 5.88799L5.51788 4.34253L4.52342 5.67556L2.66992 7.22103Z" fill="#3058FE"/>
<path d="M16.0029 14.327L16.9987 12.9992C17.0473 12.9443 17.1127 12.9069 17.1846 12.8928C17.2566 12.8786 17.3312 12.8885 17.397 12.9209L16.4012 14.2486C16.3354 14.2162 16.2608 14.2063 16.1888 14.2205C16.1169 14.2346 16.0516 14.272 16.0029 14.327Z" fill="#FFFCED"/>
<path d="M5.69441 4.16199L4.69995 5.48971C4.64909 5.55634 4.59122 5.61732 4.52734 5.6716L5.5218 4.34388C5.58632 4.29028 5.64426 4.22922 5.69441 4.16199Z" fill="#3058FE"/>
<path d="M16.4015 14.25C16.4971 14.2824 16.5789 14.3463 16.6336 14.4311C16.6883 14.516 16.7127 14.6168 16.7029 14.7173C16.6631 14.8952 16.4652 14.9736 16.2608 14.8939C16.1649 14.8619 16.0828 14.7981 16.028 14.7131C15.9732 14.6282 15.949 14.5271 15.9594 14.4266C15.9979 14.2486 16.1957 14.169 16.4015 14.25Z" fill="#FFFCED"/>
<path d="M17.6521 13.4839L16.6576 14.8116C16.679 14.7817 16.6943 14.7479 16.7028 14.7121C16.7126 14.6116 16.6882 14.5107 16.6335 14.4259C16.5788 14.341 16.497 14.2772 16.4014 14.2447L17.3972 12.917C17.4926 12.9495 17.5743 13.0134 17.6288 13.0983C17.6833 13.1832 17.7074 13.284 17.6972 13.3843C17.6899 13.4205 17.6745 13.4546 17.6521 13.4839Z" fill="#FFFCED"/>
<path d="M12.5495 11.0223L11.5537 12.35C11.6217 12.259 11.68 12.1611 11.7276 12.0579C11.9587 11.5693 11.9215 11.0608 11.6148 10.5284L12.6092 9.20068C12.9155 9.73177 12.9536 10.2416 12.7234 10.7302C12.6757 10.8333 12.6174 10.9312 12.5495 11.0223Z" fill="#3058FE"/>
<path d="M7.92773 8.4717L8.92352 7.13867L11.2178 8.03621L10.222 9.36791L7.92773 8.4717Z" fill="#3058FE"/>
<path d="M10.2222 9.36922L11.218 8.0415C11.8033 8.25416 12.2957 8.66523 12.6094 9.20326L11.615 10.531C11.3014 9.99227 10.8084 9.58101 10.2222 9.36922Z" fill="#3058FE"/>
<path d="M17.7847 13.853L18.7805 12.5253C18.7665 12.9385 18.715 13.3495 18.6265 13.7534C18.5209 14.2415 18.3564 14.715 18.1366 15.1634L17.1421 16.4912C17.3611 16.0424 17.5256 15.569 17.632 15.0811C17.7194 14.6771 17.7705 14.2661 17.7847 13.853Z" fill="#1A41E0"/>
<path d="M18.7808 12.52L17.785 13.8477C17.6948 13.8263 17.6061 13.7988 17.5195 13.7654C17.2421 13.6587 16.9901 13.495 16.7799 13.2848C16.5698 13.0746 16.406 12.8227 16.2993 12.5452L17.2951 11.2175C17.4018 11.4946 17.5654 11.7462 17.7754 11.9561C17.9853 12.1661 18.2369 12.3297 18.514 12.4364C18.6009 12.4702 18.6901 12.4981 18.7808 12.52Z" fill="#3058FE"/>
<path d="M4.46384 3.69995C5.03343 4.36381 5.06928 5.22019 4.52359 5.67693L2.66478 7.22106C2.27576 7.54503 1.69156 7.5822 1.14454 7.36977C0.930334 7.28542 0.730907 7.16755 0.553711 7.02058C1.29723 5.38084 2.70461 4.23237 4.46384 3.69995Z" fill="#6783F6"/>
<path d="M1.2041 5.92251L2.19989 4.59479C3.01938 3.52295 4.16234 2.7436 5.45944 2.37219L4.46365 3.69991C3.16635 4.07089 2.02326 4.85033 1.2041 5.92251Z" fill="#A7B8FF"/>
<path d="M5.69459 4.16202L4.70012 5.48974C5.05728 5.01043 4.96567 4.2762 4.46777 3.69466L5.46356 2.36694C5.96013 2.94848 6.04909 3.68271 5.69459 4.16202Z" fill="#6783F6"/>
<path d="M6.28955 4.9148L7.04502 3.90308L6.28955 4.9148Z" fill="#3058FE"/>
<path d="M4.14404 8.17563L5.1385 6.84791C6.29627 5.29846 8.61713 4.77136 11.0057 5.70607L10.0099 7.03379C7.62267 6.10041 5.2965 6.62751 4.14404 8.17563Z" fill="#FFFCED"/>
<path d="M5.10921 6.45764C6.37055 5.01839 8.6821 4.56432 11.0521 5.49106L10.0563 6.81878C7.68764 5.88938 5.37475 6.34744 4.11475 7.78536L4.61132 7.1215L4.80649 6.85596L4.9937 6.60635C5.03087 6.56652 5.07337 6.5081 5.10921 6.45764Z" fill="#3058FE"/>
<path d="M3.71387 7.86229L4.70966 6.53457C5.96966 4.84836 8.50162 4.27744 11.0973 5.28651L10.1029 6.61423C7.50583 5.59852 4.97387 6.17475 3.71387 7.86229Z" fill="#2545C6"/>
<path d="M7.76706 3.90436C7.80631 3.90139 7.84452 3.8903 7.87926 3.87179C7.914 3.85327 7.94452 3.82774 7.96887 3.79681L6.97308 5.12453C6.94884 5.15558 6.91836 5.1812 6.88359 5.19972C6.84883 5.21825 6.81056 5.22927 6.77127 5.23208C6.70473 5.23703 6.63794 5.22658 6.5761 5.20154C6.5108 5.17661 6.4515 5.13818 6.40208 5.08876C6.35266 5.03934 6.31423 4.98005 6.2893 4.91475L7.28775 3.58703L6.29329 4.91475C6.27446 4.86925 6.26739 4.81973 6.27272 4.77077C6.27806 4.72181 6.29563 4.67499 6.32383 4.6346L7.31829 3.30688C7.29054 3.34746 7.27324 3.39426 7.26791 3.44313C7.26259 3.492 7.2694 3.54143 7.28775 3.58703C7.31312 3.65229 7.35185 3.71151 7.40147 3.7609C7.45109 3.8103 7.51049 3.84876 7.57586 3.87382C7.63645 3.8984 7.70183 3.90884 7.76706 3.90436Z" fill="#3058FE"/>
<path d="M6.31982 4.6413L7.31428 3.31358C7.33864 3.28265 7.36915 3.25712 7.40389 3.23861C7.43863 3.22009 7.47684 3.209 7.51609 3.20603C7.58263 3.20108 7.64942 3.21153 7.71127 3.23657L6.71548 4.56429C6.65403 4.53958 6.58764 4.52957 6.52163 4.53508C6.48237 4.53739 6.44405 4.54807 6.40925 4.56638C6.37444 4.5847 6.34396 4.61024 6.31982 4.6413Z" fill="#FFFCED"/>
<path d="M7.96919 3.7968L6.9734 5.12451C7.0017 5.08418 7.01935 5.03735 7.02469 4.98837C7.03003 4.93938 7.02288 4.88985 7.00393 4.84437C6.97857 4.77911 6.93983 4.71989 6.89021 4.67049C6.84059 4.6211 6.78119 4.58264 6.71582 4.55758L7.71161 3.22986C7.77706 3.25478 7.83654 3.29319 7.88618 3.3426C7.93582 3.39201 7.9745 3.45131 7.99972 3.51665C8.01819 3.56223 8.02508 3.61168 8.01975 3.66057C8.01442 3.70946 7.99705 3.75626 7.96919 3.7968Z" fill="#FFFCED"/>
<path d="M6.71544 4.56291C6.78081 4.58797 6.84022 4.62643 6.88984 4.67582C6.93945 4.72521 6.97819 4.78444 7.00356 4.84969C7.02223 4.89014 7.03074 4.93454 7.02835 4.97902C7.02596 5.02351 7.01274 5.06673 6.98984 5.10495C6.96694 5.14316 6.93505 5.1752 6.89695 5.19828C6.85885 5.22136 6.81568 5.23479 6.7712 5.23739C6.70466 5.24234 6.63788 5.23189 6.57603 5.20685C6.51074 5.18192 6.45144 5.14349 6.40202 5.09407C6.3526 5.04465 6.31417 4.98536 6.28924 4.92006C6.27085 4.87968 6.26256 4.83542 6.26509 4.79111C6.26762 4.74681 6.28089 4.70378 6.30376 4.66575C6.32664 4.62772 6.35842 4.59582 6.39637 4.57282C6.43432 4.54981 6.4773 4.53638 6.52159 4.5337C6.5876 4.52819 6.65399 4.53819 6.71544 4.56291Z" fill="#FFFCED"/>
<path d="M14.7896 14.0522L13.7952 15.3799C14.118 14.9459 14.3444 14.448 14.459 13.9194C15.0339 11.2985 13.045 8.2102 10.0151 7.02853L11.0109 5.70081C14.0395 6.8838 16.0297 9.96942 15.4535 12.5903C15.3402 13.1198 15.1137 13.6185 14.7896 14.0522Z" fill="#FFFCED"/>
<path d="M15.3604 13.6339C15.3598 13.6369 15.3598 13.6401 15.3604 13.6432L14.3713 14.9709C14.5207 14.6706 14.6327 14.3531 14.7045 14.0255C15.0537 12.4323 14.4908 10.6664 13.333 9.22982L14.3288 7.9021C15.4866 9.34002 16.0548 11.1032 15.699 12.6978C15.6254 13.0227 15.5117 13.3371 15.3604 13.6339Z" fill="#3058FE"/>
<path d="M14.3248 7.89157L13.329 9.21929C13.2467 9.11573 13.1617 9.01482 13.0728 8.91525L14.0672 7.58752C14.1535 7.68843 14.2398 7.78934 14.3248 7.89157Z" fill="#3058FE"/>
<path d="M13.5731 7.08557C13.7457 7.24755 13.9103 7.41485 14.0643 7.58878L13.0699 8.9165C12.9145 8.74389 12.7512 8.57527 12.5786 8.41462L13.5731 7.08557Z" fill="#3058FE"/>
<path d="M13.5733 7.08556L12.5788 8.41328C12.4553 8.29777 12.3292 8.18624 12.1978 8.0787L13.1935 6.75098C13.3237 6.85852 13.4511 6.97005 13.5733 7.08556Z" fill="#3058FE"/>
<path d="M11.0519 5.49097C11.8278 5.79539 12.5506 6.22065 13.1936 6.75097L12.1978 8.07869C11.5549 7.54786 10.8321 7.12215 10.0562 6.81736L11.0519 5.49097Z" fill="#3058FE"/>
<path d="M9.67773 3.75299L8.68194 5.08071C8.59708 5.03079 8.51588 4.97488 8.43896 4.91341C8.77001 4.47084 9.1015 4.02827 9.43343 3.58569C9.5108 3.64717 9.59244 3.70308 9.67773 3.75299Z" fill="#3058FE"/>
<path d="M9.67792 3.75305C9.77758 3.81238 9.88193 3.86345 9.98993 3.90574L8.99414 5.23346C8.88626 5.19091 8.78193 5.13985 8.68213 5.08077L9.67792 3.75305Z" fill="#3058FE"/>
<path d="M10.1028 6.61431C13.3943 7.90087 15.5651 11.2613 14.9397 14.1146C14.3144 16.9679 11.1278 18.2305 7.8351 16.9479C4.54236 15.6654 2.37419 12.3009 2.99955 9.44633C3.62491 6.59174 6.81143 5.32775 10.1028 6.61431ZM7.88157 16.7395C11.0402 17.9743 14.0979 16.7541 14.6968 14.0203C15.2956 11.2866 13.215 8.05754 10.0564 6.82276C6.89773 5.58798 3.84 6.80682 3.2412 9.5406C2.64239 12.2744 4.72293 15.5034 7.88821 16.7395" fill="#2545C6"/>
<path d="M10.0096 7.03914C13.0395 8.22347 15.0284 11.3091 14.4535 13.93C13.8786 16.5509 10.9563 17.718 7.92778 16.5337C4.89925 15.3493 2.90634 12.2571 3.4839 9.63616C4.06146 7.01524 6.98112 5.8442 10.0096 7.03914ZM11.7277 12.0659C11.9587 11.5773 11.9216 11.0688 11.6149 10.5364C11.3013 9.99764 10.8083 9.58639 10.2221 9.3746L7.92778 8.47706C7.88891 8.45691 7.84383 8.45228 7.80168 8.46411C7.75952 8.47594 7.72344 8.50335 7.70074 8.54079L5.55249 13.1732C5.5364 13.2299 5.54326 13.2906 5.57158 13.3423C5.5999 13.394 5.64741 13.4324 5.70385 13.4494L6.90809 13.9207C6.9467 13.9411 6.99167 13.9459 7.0337 13.934C7.07573 13.9222 7.11158 13.8946 7.13381 13.857L7.75518 12.5186C7.77718 12.4805 7.81327 12.4524 7.85571 12.4405C7.89814 12.4286 7.94355 12.4338 7.98221 12.4549L8.35796 12.601C8.39848 12.6157 8.43459 12.6405 8.46292 12.673C8.49125 12.7055 8.51087 12.7447 8.51995 12.7868L8.83063 14.5501C8.84 14.5917 8.8596 14.6304 8.88765 14.6626C8.91569 14.6948 8.9513 14.7196 8.99128 14.7346L10.1862 15.2006C10.319 15.2551 10.4518 15.1741 10.4226 15.0426L10.076 13.1944C10.0711 13.1722 10.0714 13.1492 10.0768 13.1271C10.0822 13.1049 10.0927 13.0844 10.1073 13.0669C10.1219 13.0495 10.1403 13.0356 10.1612 13.0264C10.182 13.0172 10.2046 13.0129 10.2274 13.0139C10.5229 13.0013 10.8115 12.9204 11.0705 12.7775C11.3645 12.618 11.5978 12.366 11.7343 12.0606" fill="#FFFCED"/>
<path d="M15.2196 14.3668L14.2238 15.6945C14.5735 15.2237 14.8176 14.683 14.9394 14.1093C15.5648 11.2613 13.394 7.89553 10.1025 6.60897L11.097 5.28125C14.3897 6.56914 16.5592 9.92827 15.9352 12.7829C15.8125 13.3559 15.5685 13.896 15.2196 14.3668Z" fill="#2545C6"/>
<path d="M15.3643 9.91494L16.36 8.58191L17.2974 11.2174L16.3016 12.5505L15.3643 9.91494Z" fill="#3058FE"/>
<path d="M13.6504 7.92603L14.4059 6.91431L13.6504 7.92603Z" fill="#3058FE"/>
<path d="M15.1786 6.67394C15.194 6.66147 15.2078 6.6472 15.2198 6.63145L14.224 7.95917C14.2124 7.97565 14.1986 7.99041 14.1828 8.00299C14.1317 8.03987 14.0717 8.0625 14.0089 8.06856C13.9462 8.07463 13.8829 8.06391 13.8257 8.03751C13.7599 8.01158 13.7002 7.97224 13.6504 7.922L14.6449 6.59428L13.6504 7.922C13.5854 7.86932 13.5414 7.79503 13.5265 7.71266C13.5117 7.63029 13.5269 7.54532 13.5694 7.47323L14.5652 6.14551C14.5229 6.21788 14.5078 6.30299 14.5226 6.38551C14.5375 6.46803 14.5813 6.54254 14.6462 6.5956C14.6961 6.6457 14.7558 6.68501 14.8215 6.71112C14.8789 6.73714 14.9423 6.74742 15.0051 6.74089C15.0678 6.73435 15.1277 6.71125 15.1786 6.67394Z" fill="#3058FE"/>
<path d="M15.4945 8.72664L16.489 7.39893C16.3696 7.57001 16.2949 7.76823 16.2717 7.97554C16.2486 8.18286 16.2776 8.39268 16.3562 8.58591L15.3604 9.91362C15.2822 9.72024 15.2535 9.5104 15.277 9.30313C15.3004 9.09586 15.3752 8.89771 15.4945 8.72664Z" fill="#3058FE"/>
<path d="M13.5693 7.47734L14.5651 6.14962C14.5767 6.13313 14.5906 6.11838 14.6063 6.1058C14.6574 6.06892 14.7174 6.04629 14.7802 6.04022C14.8429 6.03416 14.9062 6.04488 14.9634 6.07128L13.9677 7.399C13.9104 7.3726 13.8472 7.36188 13.7844 7.36794C13.7216 7.37401 13.6616 7.39664 13.6105 7.43352C13.5951 7.44646 13.5813 7.46117 13.5693 7.47734Z" fill="#FFFCED"/>
<path d="M13.9674 7.39892C14.034 7.42398 14.0943 7.46342 14.144 7.51443C14.302 7.67243 14.3205 7.89283 14.1825 8.00701C14.1313 8.04389 14.0713 8.06653 14.0086 8.07259C13.9458 8.07866 13.8826 8.06794 13.8253 8.04154C13.7595 8.0156 13.6998 7.97626 13.65 7.92602C13.4907 7.76669 13.4735 7.54629 13.6102 7.43344C13.6613 7.39656 13.7214 7.37393 13.7841 7.36786C13.8469 7.3618 13.9101 7.37251 13.9674 7.39892Z" fill="#FFFCED"/>
<path d="M15.2198 6.63154L14.224 7.95926C14.2667 7.88732 14.2821 7.80245 14.2675 7.72009C14.2529 7.63773 14.2092 7.56335 14.1444 7.51049C14.0947 7.45949 14.0344 7.42005 13.9678 7.39498L14.9636 6.06726C15.0291 6.09372 15.0887 6.13299 15.1388 6.18277C15.2036 6.23562 15.2474 6.30989 15.2623 6.39219C15.2771 6.47448 15.2621 6.55938 15.2198 6.63154Z" fill="#FFFCED"/>
<path d="M15.4946 8.72672L16.4891 7.399C16.6165 7.23075 16.7892 7.10226 16.987 7.02856L15.9925 8.35628C15.7946 8.42971 15.6218 8.55825 15.4946 8.72672Z" fill="#6783F6"/>
<path d="M8.68316 2.07349C8.63536 2.61254 8.93409 3.19408 9.42933 3.58576C9.0974 4.02833 8.76592 4.4709 8.43487 4.91348C7.93831 4.51516 7.63824 3.94026 7.68737 3.40121L8.68316 2.07349Z" fill="#3058FE"/>
<path d="M8.99023 5.23746L9.98602 3.90576L12.7756 4.99582L11.7811 6.32885L8.99023 5.23746Z" fill="#3058FE"/>
<path d="M14.3621 4.78198L13.3677 6.1097C13.0105 6.46155 12.4038 6.56378 11.7744 6.31948L12.7702 4.99176C13.3956 5.24005 14.0063 5.13914 14.3621 4.78198Z" fill="#3058FE"/>
<path d="M7.68594 3.40649C8.66871 3.50407 9.63308 3.73823 10.5512 4.10222C11.6366 4.5284 12.6545 5.1098 13.5731 5.82825C13.2956 6.40581 12.5494 6.62489 11.778 6.33013L8.98976 5.24007C8.1772 4.91478 7.62354 4.12479 7.68594 3.40649Z" fill="#6783F6"/>
<path d="M17.785 13.8529C17.7708 14.266 17.7197 14.677 17.6323 15.0811C17.5259 15.569 17.3614 16.0423 17.1424 16.4911C17.0826 16.4606 17.0216 16.434 16.9605 16.4101C16.4148 16.1963 15.8293 16.2335 15.4403 16.5575L13.5881 18.1029C13.1619 18.4588 13.0889 19.0602 13.3491 19.6205C12.3829 19.9084 11.3724 20.0177 10.367 19.9432C10.2785 19.629 10.1176 19.34 9.89712 19.0992C9.67669 18.8585 9.40291 18.6728 9.09774 18.557L6.30953 17.467C5.61911 17.2014 4.94861 17.3515 4.61668 17.8016C3.67958 17.1318 2.84305 16.3315 2.13252 15.4249C2.70609 15.1846 2.96766 14.5632 2.72468 13.8808L1.79528 11.2453C1.68858 10.9678 1.52484 10.7159 1.31466 10.5057C1.10448 10.2955 0.852535 10.1318 0.575107 10.0251C0.39413 9.9518 0.202875 9.90701 0.00816781 9.89233C-0.00612986 9.33842 0.0460291 8.7848 0.163517 8.2433C0.253555 7.82171 0.38704 7.41057 0.561833 7.01649C0.739029 7.16346 0.938456 7.28133 1.15266 7.36568C1.69968 7.57812 2.28388 7.54094 2.6729 7.21698L4.53171 5.67284C5.0774 5.2161 5.04155 4.35707 4.47196 3.69586C5.51464 3.3925 6.60627 3.2942 7.68637 3.40642C7.62264 4.12472 8.1763 4.92002 8.98886 5.23867L11.7771 6.32873C12.5485 6.63012 13.2947 6.40441 13.5722 5.82685C14.4969 6.54516 15.3115 7.39507 15.9899 8.34952C15.3925 8.57922 15.1163 9.21254 15.3619 9.90826L16.2993 12.5438C16.406 12.8212 16.5697 13.0732 16.7799 13.2833C16.9901 13.4935 17.242 13.6573 17.5195 13.764C17.6059 13.7996 17.6946 13.8293 17.785 13.8529ZM7.83507 16.9478C11.1278 18.2357 14.3157 16.9638 14.9397 14.1145C15.5637 11.2652 13.3956 7.90075 10.1028 6.61419C6.81008 5.32763 3.62355 6.59826 2.99952 9.44622C2.3755 12.2942 4.54366 15.6613 7.83507 16.9478ZM1.7581 9.22449C1.9639 9.30415 2.15642 9.22449 2.20023 9.04657C2.21091 8.94615 2.18699 8.84509 2.13243 8.7601C2.07787 8.67512 1.99593 8.61131 1.90017 8.57922C1.69437 8.49955 1.50186 8.57922 1.45671 8.7558C1.44654 8.8565 1.47081 8.95766 1.52555 9.04279C1.58029 9.12791 1.66226 9.19197 1.7581 9.22449ZM16.2608 14.8939C16.4653 14.9735 16.6591 14.8939 16.7029 14.7173C16.7128 14.6168 16.6884 14.5159 16.6336 14.4311C16.5789 14.3462 16.4971 14.2824 16.4015 14.2499C16.1957 14.1689 16.0032 14.2499 15.9594 14.4265C15.949 14.527 15.9733 14.6281 16.028 14.7131C16.0828 14.798 16.1649 14.8618 16.2608 14.8939ZM6.52196 4.53764C6.47766 4.54033 6.43469 4.55375 6.39674 4.57676C6.35879 4.59976 6.327 4.63166 6.30413 4.66969C6.28126 4.70772 6.26799 4.75075 6.26546 4.79505C6.26293 4.83936 6.27121 4.88362 6.28961 4.924C6.31454 4.9893 6.35297 5.04859 6.40239 5.09801C6.45181 5.14743 6.51111 5.18586 6.5764 5.21079C6.63825 5.23583 6.70503 5.24628 6.77157 5.24133C6.81604 5.23873 6.85921 5.2253 6.89732 5.20222C6.93542 5.17914 6.96731 5.1471 6.99021 5.10889C7.01311 5.07067 7.02633 5.02745 7.02872 4.98296C7.03111 4.93848 7.02259 4.89408 7.00392 4.85363C6.97856 4.78838 6.93982 4.72915 6.8902 4.67976C6.84058 4.63037 6.78118 4.59191 6.71581 4.56685C6.65435 4.54213 6.58797 4.53213 6.52196 4.53764ZM11.639 18.9434C11.6833 18.9407 11.7263 18.9273 11.7642 18.9043C11.8022 18.8813 11.834 18.8494 11.8568 18.8113C11.8797 18.7733 11.893 18.7303 11.8955 18.686C11.898 18.6417 11.8897 18.5974 11.8713 18.557C11.846 18.4918 11.8072 18.4325 11.7576 18.3832C11.708 18.3338 11.6486 18.2953 11.5832 18.2702C11.5219 18.245 11.4554 18.235 11.3894 18.241C11.345 18.2435 11.3018 18.2568 11.2637 18.2797C11.2256 18.3026 11.1936 18.3345 11.1706 18.3726C11.1476 18.4106 11.1342 18.4537 11.1316 18.4981C11.129 18.5425 11.1373 18.5869 11.1557 18.6274C11.1811 18.6927 11.2198 18.7519 11.2694 18.8013C11.319 18.8507 11.3784 18.8891 11.4438 18.9142C11.5056 18.9396 11.5725 18.9496 11.639 18.9434ZM4.54897 16.045C4.68174 15.9308 4.66714 15.7104 4.51047 15.5524C4.4598 15.5017 4.39924 15.4619 4.33255 15.4356C4.27525 15.4091 4.2119 15.3984 4.14908 15.4047C4.08627 15.411 4.02629 15.4341 3.97539 15.4714C3.84262 15.5843 3.85722 15.806 4.01522 15.964C4.06524 16.0146 4.12543 16.0539 4.19181 16.0795C4.24907 16.1059 4.31231 16.1166 4.37506 16.1106C4.43782 16.1045 4.49783 16.0819 4.54897 16.045ZM13.6107 7.43738C13.4779 7.55023 13.4912 7.77064 13.6505 7.92996C13.7003 7.9802 13.7599 8.01954 13.8257 8.04547C13.883 8.07188 13.9462 8.08259 14.009 8.07653C14.0717 8.07046 14.1318 8.04783 14.1829 8.01095C14.3157 7.89677 14.3024 7.67637 14.1444 7.51837C14.0947 7.46736 14.0344 7.42792 13.9678 7.40286C13.9106 7.37645 13.8473 7.36574 13.7846 7.3718C13.7218 7.37787 13.6618 7.4005 13.6107 7.43738Z" fill="#3058FE"/>
<path d="M10.0561 6.82278C6.89743 5.588 3.8397 6.80684 3.2409 9.54062C2.6421 12.2744 4.72263 15.5034 7.88791 16.7395C11.0532 17.9756 14.1043 16.7541 14.7031 14.0203C15.3019 11.2866 13.2147 8.05756 10.0561 6.82278ZM14.4575 13.9247C13.8826 16.5457 10.9603 17.7127 7.93172 16.5284C4.9032 15.3441 2.90631 12.2571 3.48386 9.63621C4.06142 7.0153 6.98108 5.84425 10.0096 7.0392C13.0381 8.23414 15.0284 11.3091 14.4535 13.9301" fill="#3058FE"/>
<path d="M4.46387 3.69992L5.45966 2.3722C6.50501 2.06615 7.59994 1.96649 8.68336 2.07877L7.68757 3.40649C6.60415 3.29435 5.50924 3.39401 4.46387 3.69992Z" fill="#5878FE"/>
<path d="M15.9922 8.35628L16.9866 7.02856C18.1816 8.72406 18.8455 10.6599 18.7804 12.524L17.7846 13.8517C17.8497 11.9876 17.1858 10.0518 15.9922 8.35628Z" fill="#A7B8FF"/>
<path d="M15.9925 8.3562C17.1874 10.0517 17.8513 11.9875 17.7849 13.853C17.6946 13.8315 17.6059 13.804 17.5193 13.7706C17.2419 13.6639 16.99 13.5002 16.7798 13.29C16.5696 13.0798 16.4059 12.8279 16.2992 12.5505L15.3618 9.91494C15.1215 9.21922 15.395 8.5859 15.9925 8.3562Z" fill="#6783F6"/>
<path d="M14.3621 4.78199C14.3994 4.74512 14.434 4.70563 14.4657 4.66382L13.4699 5.99154C13.4391 6.03407 13.4049 6.07403 13.3677 6.11103L14.1285 5.09267L14.2453 4.93467L14.2612 4.91476L14.2918 4.8736L14.3064 4.85368C14.325 4.83642 14.3422 4.80987 14.3621 4.78199Z" fill="#3058FE"/>
<path d="M14.4657 4.66784L13.4712 5.99556C13.5116 5.94176 13.5463 5.88391 13.5747 5.82296L14.5705 4.49524C14.541 4.5559 14.5059 4.61369 14.4657 4.66784Z" fill="#6783F6"/>
<path d="M13.5747 5.82699L14.5705 4.49927C15.4958 5.21657 16.3101 6.06663 16.9869 7.02193L15.9925 8.34965C15.3141 7.3952 14.4995 6.54529 13.5747 5.82699Z" fill="#4C6EF8"/>
<path d="M7.68604 3.40645L8.68182 2.07874C9.66445 2.17716 10.6287 2.4113 11.547 2.77446C12.6322 3.20122 13.6501 3.78257 14.5689 4.5005L13.5731 5.82822C12.6546 5.10976 11.6367 4.52836 10.5513 4.10218C9.63317 3.7382 8.66881 3.50403 7.68604 3.40645Z" fill="#A7B8FF"/>
<path d="M10.3736 13.1141C10.3469 13.1151 10.3208 13.1219 10.297 13.134C10.2732 13.1461 10.2523 13.1632 10.2358 13.1841C10.2193 13.2051 10.2075 13.2294 10.2012 13.2553C10.195 13.2813 10.1945 13.3083 10.1997 13.3345L10.4838 15.1043C10.509 15.265 10.3603 15.3699 10.1904 15.2968L8.92241 14.8029C8.87126 14.7835 8.8259 14.7513 8.7906 14.7095C8.75529 14.6677 8.7312 14.6176 8.72059 14.5639L8.49621 12.9441C8.48583 12.8903 8.46182 12.8401 8.42649 12.7983C8.39115 12.7564 8.34567 12.7244 8.29439 12.7051L8.10453 12.6321C8.05638 12.607 8.0004 12.6014 7.94822 12.6164C7.89605 12.6315 7.85169 12.6661 7.82438 12.7131L7.24948 13.9598C7.22237 14.0073 7.17787 14.0425 7.12537 14.0578C7.07286 14.0732 7.01644 14.0676 6.968 14.0421L5.6748 13.5349C5.60487 13.5134 5.54614 13.4654 5.51116 13.4011C5.47617 13.3369 5.46771 13.2615 5.48759 13.1911L7.61194 8.58521C7.63924 8.53824 7.68369 8.50369 7.73594 8.48883C7.78819 8.47398 7.84417 8.47997 7.89209 8.50554L10.197 9.40574C10.7998 9.62033 11.3097 10.0369 11.6402 10.5848C11.793 10.8168 11.8828 11.0846 11.9007 11.3619C11.9186 11.6391 11.8641 11.9163 11.7425 12.1661C11.4902 12.7184 11.0339 13.0344 10.3736 13.1141ZM9.95803 11.4146C9.99028 11.3514 10.0064 11.2813 10.005 11.2104C10.0036 11.1396 9.98476 11.0701 9.95006 11.0083C9.87018 10.8678 9.74028 10.7625 9.58627 10.7135L9.07509 10.5131C9.02685 10.4877 8.97064 10.4821 8.91835 10.4975C8.86606 10.5128 8.8218 10.548 8.79494 10.5954L8.54799 11.1265C8.52775 11.1969 8.53604 11.2724 8.57108 11.3368C8.60611 11.4011 8.66506 11.4491 8.73519 11.4703L9.176 11.6429L9.20786 11.6562C9.34479 11.7173 9.49852 11.7294 9.64336 11.6907C9.71431 11.672 9.77981 11.6367 9.8345 11.5878C9.88919 11.5389 9.93152 11.4777 9.95803 11.4093" fill="#3058FE"/>
<path d="M31.684 2.1159C31.5156 1.30042 31.0226 0.657443 30.3972 0.437891C29.2548 0.0301514 24.685 0.0301514 24.685 0.0301514C24.685 0.0301514 20.1151 0.0301514 18.9727 0.422209C18.3593 0.641761 17.8543 1.30042 17.6859 2.1159C17.3853 3.60571 17.3853 6.69512 17.3853 6.69512C17.3853 6.69512 17.3853 9.80021 17.6859 11.2744C17.8543 12.0898 18.3473 12.7328 18.9727 12.9524C20.1272 13.3601 24.685 13.3601 24.685 13.3601C24.685 13.3601 29.2548 13.3601 30.3972 12.968C31.0226 12.7485 31.5156 12.1055 31.684 11.29C31.9847 9.80022 31.9847 6.7108 31.9847 6.7108C31.9847 6.7108 31.9967 3.60571 31.684 2.1159Z" fill="#670320"/>
<path opacity="0.45" d="M29.1449 4.65496C28.9766 3.83948 28.4835 3.19651 27.8582 2.97695C26.7157 2.56921 22.1459 2.56921 22.1459 2.56921C22.1459 2.56921 17.5761 2.56921 16.4336 2.96127C15.8203 3.18082 15.3152 3.83948 15.1468 4.65496C14.8462 6.14477 14.8462 9.23418 14.8462 9.23418C14.8462 9.23418 14.8462 12.3393 15.1468 13.8134C15.3152 14.6289 15.8083 15.2719 16.4336 15.4914C17.5881 15.8992 22.1459 15.8992 22.1459 15.8992C22.1459 15.8992 26.7157 15.8992 27.8582 15.5071C28.4835 15.2875 28.9766 14.6446 29.1449 13.8291C29.4456 12.3393 29.4456 9.24987 29.4456 9.24987C29.4456 9.24987 29.4576 6.14477 29.1449 4.65496Z" fill="#670320"/>
<path d="M30.4145 3.38543C30.2461 2.56995 29.7531 1.92697 29.1277 1.70742C27.9852 1.29968 23.4154 1.29968 23.4154 1.29968C23.4154 1.29968 18.8456 1.29968 17.7031 1.69174C17.0898 1.91129 16.5847 2.56995 16.4164 3.38543C16.1157 4.87524 16.1157 7.96465 16.1157 7.96465C16.1157 7.96465 16.1157 11.0697 16.4164 12.5439C16.5847 13.3594 17.0778 14.0023 17.7031 14.2219C18.8576 14.6296 23.4154 14.6296 23.4154 14.6296C23.4154 14.6296 27.9852 14.6296 29.1277 14.2376C29.7531 14.018 30.2461 13.375 30.4145 12.5596C30.7151 11.0697 30.7151 7.98034 30.7151 7.98034C30.7151 7.98034 30.7271 4.87524 30.4145 3.38543Z" fill="#D1013E"/>
<path d="M21.1938 10.8477C21.1938 11.3179 21.6733 11.6097 22.0528 11.3705L26.627 8.48749C26.9999 8.25244 26.9999 7.67693 26.627 7.44188L22.0528 4.55889C21.6733 4.31968 21.1938 4.61149 21.1938 5.0817V10.8477Z" fill="#F7F3E1"/>
</g>
<defs>
<clipPath id="clip0_3678_24950">
<rect width="32" height="32" fill="white"/>
</clipPath>
</defs>
</svg>
