<svg width="20" height="20" viewBox="0 0 20 20" fill="none" xmlns="http://www.w3.org/2000/svg">
<path d="M7.2001 2.42428C4.20395 2.42428 1.75633 3.61298 1.60635 5.10736C1.69017 5.9441 2.56791 6.52533 3.1376 6.82453C4.15021 7.34219 5.59801 7.6831 7.2001 7.6831C7.65242 7.6831 8.092 7.65213 8.5126 7.60104C9.55466 6.59247 10.9435 5.94367 12.4814 5.86493C12.633 5.62394 12.7671 5.36601 12.7939 5.11998C12.4903 2.92262 8.71133 2.41682 7.2001 2.42428ZM1.60635 6.72352V7.55054C1.66772 8.14557 2.18827 8.75714 3.1376 9.24246C4.09292 9.73084 5.43723 10.0588 6.93135 10.0947C7.12914 9.51028 7.41273 8.96442 7.7626 8.47225C7.57716 8.48135 7.39011 8.48478 7.2001 8.48478C5.48848 8.48478 3.93406 8.13662 2.7751 7.54411C2.32276 7.31288 1.92608 7.035 1.60635 6.72352ZM1.60635 9.14775V9.97479C1.66772 10.5698 2.18827 11.1814 3.1376 11.6667C4.02497 12.1203 5.24587 12.441 6.6126 12.5127C6.60464 12.3828 6.6001 12.2531 6.6001 12.1213C6.6001 11.7021 6.6411 11.2926 6.71885 10.8965C5.19938 10.8363 3.82362 10.4982 2.7751 9.96217C2.32276 9.73091 1.92608 9.45924 1.60635 9.14775ZM1.60635 11.572C1.60635 11.8461 1.60635 12.1277 1.60635 12.399C1.66772 12.9941 2.18827 13.6056 3.1376 14.091C4.54314 14.7858 6.00513 14.9399 7.26885 14.9495C7.01423 14.4423 6.82301 13.8957 6.7126 13.3208C5.19561 13.2599 3.82219 12.9217 2.7751 12.3864C2.32276 12.1552 1.92608 11.8835 1.60635 11.572ZM1.6001 13.9962V14.9495C1.6001 16.5116 4.10822 17.7778 7.2001 17.7778C8.07115 17.7778 8.89038 17.673 9.6251 17.4937C8.88224 17.0447 8.23645 16.4499 7.7376 15.7387C7.56029 15.7471 7.38217 15.7576 7.2001 15.7576C5.48848 15.7576 3.93406 15.4032 2.7751 14.8107C2.32125 14.5787 1.92036 14.309 1.6001 13.9962Z" fill="#5960FF"/>
<path d="M7.61914 11.9048C7.61914 9.01186 9.96432 6.66669 12.8572 6.66669C15.7502 6.66669 18.0953 9.01186 18.0953 11.9048C18.0953 14.7977 15.7502 17.1429 12.8572 17.1429C9.96432 17.1429 7.61914 14.7977 7.61914 11.9048Z" fill="#5960FF"/>
</svg>
