<svg width="47" height="18" viewBox="0 0 47 18" fill="none" xmlns="http://www.w3.org/2000/svg">
<path d="M39.8979 3.81079H46.5V5.83782H44.1969V14.4324H42.201V5.83782H39.8979V3.81079Z" fill="#6B6C77"/>
<path d="M31.377 3.81079H33.1426L37.0578 10.2973V3.81079H39.0537V14.4324H37.2881L33.3729 7.94593V14.4324H31.377V3.81079Z" fill="#6B6C77"/>
<path d="M25.0816 3.81081H30.3018V5.83784H25.6957V8.10811H29.6109V10.1351H25.6957V12.4054H30.3018V14.4324H25.0816V18H24.6978V0H25.0816V3.81081Z" fill="#6B6C77"/>
<path d="M9.20703 3.8028H15.7755V5.83483H11.2692V8.11072H15.1645V10.1428H11.2692V12.4186H15.7755V14.4507H9.20703V3.8028Z" fill="#6B6C77"/>
<path d="M0.5 3.8028H2.33305L6.15192 10.3053V3.8028H8.13772V14.4507H6.38105L2.48581 7.94816V14.4507H0.5V3.8028Z" fill="#6B6C77"/>
<path d="M16.6919 3.8028H23.2603V5.83483H20.969V14.4507H18.9832V5.83483H16.6919V3.8028Z" fill="#6B6C77"/>
</svg>
