<svg width="20" height="20" viewBox="0 0 20 20" fill="none" xmlns="http://www.w3.org/2000/svg">
<path d="M8.66502 2.75977C8.39193 2.75977 6.94054 4.51243 6.68182 4.59459C6.40872 4.67672 4.15211 4.07455 3.93651 4.22517C3.70653 4.37578 3.62 6.60728 3.4619 6.82636C3.28942 7.03174 1.09032 7.81241 1.00408 8.05887C0.917843 8.30533 2.22596 10.1674 2.22596 10.4275C2.22596 10.6877 0.917843 12.5498 1.00408 12.7962C1.09032 13.0564 3.28942 13.8231 3.4619 14.0421C3.62 14.2475 3.70653 16.4797 3.93651 16.6303C4.15211 16.7946 6.40872 16.1784 6.68182 16.2605C6.94054 16.3427 8.39193 18.0953 8.66502 18.0953C8.93812 18.0953 10.39 16.3427 10.6631 16.2605C10.9218 16.1784 13.1783 16.7946 13.3939 16.6303C13.6239 16.4797 13.7101 14.2475 13.8826 14.0421C14.0407 13.8231 16.2401 13.0564 16.3264 12.7962C16.4126 12.5498 15.1045 10.6877 15.1045 10.4275C15.1045 10.1674 16.4126 8.30533 16.3264 8.05887C16.2401 7.81241 14.0407 7.03174 13.8826 6.82636C13.7101 6.60728 13.6239 4.37578 13.3939 4.22517C13.1783 4.07455 10.9218 4.67672 10.6631 4.59459C10.39 4.51243 8.93812 2.75977 8.66502 2.75977Z" fill="#FFC700"/>
<path d="M14.1272 1.7739C14.1847 1.70544 14.314 0.966187 14.4002 0.952473C14.5008 0.938779 14.8316 1.62345 14.9178 1.66453C14.9897 1.7056 15.7801 1.59607 15.8233 1.66453C15.8664 1.74668 15.2771 2.2669 15.2627 2.34905C15.2483 2.4312 15.6076 3.11606 15.5358 3.17085C15.4783 3.23931 14.774 2.86956 14.6877 2.88328C14.6015 2.89696 14.0264 3.43068 13.9545 3.3896C13.8683 3.34852 14.0265 2.59571 13.9834 2.52725C13.9403 2.4451 13.2358 2.10263 13.2502 2.00679C13.2646 1.92463 14.0553 1.82869 14.1272 1.7739Z" fill="#00F963"/>
<path d="M16.3549 3.91006C16.5166 3.88439 17.4112 3.01637 17.6408 2.96438C17.6561 2.96091 17.6682 2.96084 17.6772 2.96512C17.8209 3.03358 17.5912 4.38928 17.6631 4.5399C17.735 4.6768 19.0286 5.27924 18.9998 5.44354C18.9855 5.59416 17.548 5.79941 17.433 5.90895C17.318 6.01849 17.1025 7.37414 16.9444 7.4015C16.7862 7.42889 16.1393 6.19653 15.9955 6.12807C15.8518 6.04593 14.4147 6.27875 14.3428 6.14183C14.2709 6.00491 15.3059 5.04647 15.3346 4.88216C15.3633 4.73155 14.6876 3.5129 14.8026 3.40337C14.9175 3.29383 16.1968 3.92378 16.3549 3.91006Z" fill="#00F963"/>
</svg>
