<svg width="32" height="32" viewBox="0 0 32 32" fill="none" xmlns="http://www.w3.org/2000/svg">
<g clip-path="url(#clip0_3678_24286)">
<path d="M32.1125 7.38028L29.8799 8.13593L30.0977 10.4829L27.8473 9.7819L26.644 11.8086L25.2354 9.91878L23.0707 10.8511L23.0419 8.49429L20.7426 7.97616L22.1046 6.05254L20.549 4.28183L22.7816 3.52618L22.5638 1.17925L24.8142 1.88021L26.0175 -0.146494L27.426 1.74333L29.5908 0.81098L29.6196 3.16782L31.9189 3.68595L30.5569 5.60957L32.1125 7.38028Z" fill="url(#paint0_linear_3678_24286)"/>
<path fill-rule="evenodd" clip-rule="evenodd" d="M29.8799 8.13593L32.1125 7.38028L30.5569 5.60957L31.9189 3.68595L29.6196 3.16782L29.5908 0.81098L27.426 1.74333L26.0175 -0.146494L24.8142 1.88021L22.5638 1.17925L22.7816 3.52618L20.549 4.28183L22.1046 6.05254L20.7426 7.97616L23.0419 8.49429L23.0707 10.8511L25.2354 9.91878L26.644 11.8086L27.8473 9.7819L30.0977 10.4829L29.8799 8.13593ZM28.9634 9.08216L28.8112 7.44191L30.3716 6.9138L29.2843 5.67626L30.2363 4.33186L28.6293 3.96974L28.6092 2.32257L27.0962 2.97417L26.1118 1.65339L25.2708 3.06984L23.698 2.57995L23.8502 4.2202L22.2899 4.74831L23.3771 5.98585L22.4252 7.33025L24.0322 7.69237L24.0523 9.33954L25.5652 8.68793L26.5497 10.0087L27.3907 8.59227L28.9634 9.08216Z" fill="#F9F9F9" fill-opacity="0.14"/>
<path d="M13.7498 2.5L16.8631 7.33214L22.1258 5.317L21.9005 11.1204L27.3024 12.692L23.8246 17.25L27.3024 21.808L21.9005 23.3796L22.1258 29.183L16.8631 27.1679L13.7498 32L10.6366 27.1679L5.37388 29.183L5.59918 23.3796L0.197266 21.808L3.67507 17.25L0.197266 12.692L5.59918 11.1204L5.37388 5.317L10.6366 7.33214L13.7498 2.5Z" fill="url(#paint1_linear_3678_24286)"/>
<path fill-rule="evenodd" clip-rule="evenodd" d="M16.8631 7.33214L13.7498 2.5L10.6366 7.33214L5.37388 5.317L5.59918 11.1204L0.197266 12.692L3.67507 17.25L0.197266 21.808L5.59918 23.3796L5.37388 29.183L10.6366 27.1679L13.7498 32L16.8631 27.1679L22.1258 29.183L21.9005 23.3796L27.3024 21.808L23.8246 17.25L27.3024 12.692L21.9005 11.1204L22.1258 5.317L16.8631 7.33214ZM21.0677 6.79295L16.4623 8.55642L13.7498 4.34636L11.0374 8.55642L6.43193 6.79295L6.62873 11.8624L1.87691 13.2448L4.93292 17.25L1.87691 21.2552L6.62873 22.6376L6.43193 27.7071L11.0374 25.9436L13.7498 30.1536L16.4623 25.9436L21.0677 27.7071L20.8709 22.6376L25.6227 21.2552L22.5667 17.25L25.6227 13.2448L20.8709 11.8624L21.0677 6.79295Z" fill="#F9F9F9" fill-opacity="0.14"/>
<path d="M13.1017 1.01153L14.6831 4.99993L18.9534 4.58482L14.965 6.16622L15.3801 10.4366L13.7987 6.44816L9.52839 6.86328L13.5168 5.28187L13.1017 1.01153Z" fill="white" fill-opacity="0.84"/>
<path opacity="0.2" d="M16.5162 5.17399C16.82 6.43073 16.0475 7.69581 14.7908 7.99963C13.534 8.30344 12.2689 7.53093 11.9651 6.27419C11.6613 5.01745 12.4338 3.75237 13.6906 3.44856C14.9473 3.14475 16.2124 3.91725 16.5162 5.17399Z" fill="white"/>
<path d="M18.3904 17.9994L24.6344 20.5173L28.783 15.2147L26.2651 21.4587L31.5677 25.6073L25.3236 23.0893L21.1751 28.392L23.693 22.1479L18.3904 17.9994Z" fill="white" fill-opacity="0.84"/>
<path opacity="0.2" d="M26.8155 18.6221C28.5726 19.6365 29.1746 21.8833 28.1602 23.6404C27.1457 25.3974 24.899 25.9995 23.1419 24.985C21.3848 23.9706 20.7828 21.7238 21.7973 19.9667C22.8117 18.2097 25.0585 17.6076 26.8155 18.6221Z" fill="white"/>
<g style="mix-blend-mode:lighten" opacity="0.5">
<path d="M9.88075 14.8676C11.5808 13.1675 14.3372 13.1675 16.0372 14.8676C17.7373 16.5677 17.7373 19.324 16.0372 21.0241C14.3372 22.7241 11.5808 22.7241 9.88075 21.0241C8.1807 19.324 8.1807 16.5677 9.88075 14.8676Z" fill="url(#paint2_linear_3678_24286)"/>
</g>
</g>
<defs>
<linearGradient id="paint0_linear_3678_24286" x1="32.119" y1="7.35608" x2="19.4559" y2="3.96301" gradientUnits="userSpaceOnUse">
<stop stop-color="#FF7A00"/>
<stop offset="1" stop-color="#FF0000"/>
</linearGradient>
<linearGradient id="paint1_linear_3678_24286" x1="13.6902" y1="2.5" x2="13.6902" y2="34.805" gradientUnits="userSpaceOnUse">
<stop stop-color="#FFC75A"/>
<stop offset="1" stop-color="#DC0552"/>
</linearGradient>
<linearGradient id="paint2_linear_3678_24286" x1="8.28007" y1="22.6247" x2="16.5031" y2="14.4071" gradientUnits="userSpaceOnUse">
<stop stop-color="#FAFF00"/>
<stop offset="0.520833" stop-color="#FF823C" stop-opacity="0.67"/>
<stop offset="1" stop-color="#B504E1" stop-opacity="0"/>
</linearGradient>
<clipPath id="clip0_3678_24286">
<rect width="32" height="32" fill="white"/>
</clipPath>
</defs>
</svg>
