<svg width="32" height="32" viewBox="0 0 32 32" fill="none" xmlns="http://www.w3.org/2000/svg">
<g clip-path="url(#clip0_3678_12862)">
<path d="M0.331768 18.3407C0.213711 18.2411 0.122193 18.1138 0.0654104 17.9701C0.00862729 17.8265 -0.0116488 17.671 0.00639753 17.5176C0.0244439 17.3642 0.0802494 17.2177 0.168817 17.0912C0.257385 16.9647 0.37595 16.8621 0.513897 16.7926C3.87387 14.84 6.93529 12.414 9.60399 9.58916C9.81426 9.3477 10.1074 9.19384 10.4256 9.15797C10.7437 9.12209 11.0638 9.20679 11.3225 9.39535C16.4759 13.5586 22.1522 16.7996 28.1368 19.6062C28.8723 19.9355 29.1735 20.7387 28.7696 21.3995C26.3897 25.0543 23.6368 28.452 20.5551 31.538C19.983 32.0844 18.8575 32.1545 18.08 31.7038C11.6821 27.8698 5.69523 23.5477 0.331768 18.3407Z" fill="#9F9BB6"/>
<path d="M0.331768 17.3629C0.213711 17.2633 0.122193 17.136 0.0654104 16.9924C0.00862729 16.8487 -0.0116488 16.6933 0.00639753 16.5399C0.0244439 16.3865 0.0802494 16.2399 0.168817 16.1134C0.257385 15.9869 0.37595 15.8843 0.513897 15.8148C3.87387 13.8623 6.93529 11.4362 9.60399 8.61137C9.81426 8.36992 10.1074 8.21606 10.4256 8.18018C10.7437 8.1443 11.0638 8.229 11.3225 8.41757C16.4759 12.5808 22.1522 15.8218 28.1368 18.6285C28.8723 18.9577 29.1735 19.7609 28.7696 20.4217C26.3897 24.0765 23.6368 27.4742 20.5551 30.5602C19.983 31.1066 18.8575 31.1767 18.08 30.726C11.6821 26.892 5.69523 22.5699 0.331768 17.3629Z" fill="#DCDAEA"/>
<path d="M0.338604 15.9569C0.220547 15.8573 0.129029 15.73 0.0722463 15.5864C0.0154632 15.4427 -0.00481289 15.2872 0.0132335 15.1339C0.0312798 14.9805 0.0870853 14.8339 0.175653 14.7074C0.264221 14.5809 0.382786 14.4783 0.520733 14.4088C3.8807 12.4562 6.94213 10.0302 9.61083 7.20537C9.8211 6.96391 10.1142 6.81006 10.4324 6.77418C10.7506 6.7383 11.0706 6.823 11.3294 7.01156C16.4827 11.1748 22.159 14.4158 28.1436 17.2225C28.8791 17.5517 29.1803 18.3549 28.7764 19.0157C26.3966 22.6705 23.6437 26.0682 20.5619 29.1542C19.9898 29.7006 18.8644 29.7707 18.0868 29.32C11.689 25.486 5.70206 21.1639 0.338604 15.9569Z" fill="url(#paint0_linear_3678_12862)"/>
<path opacity="0.67" d="M15.768 27.9379C14.4861 21.358 13.461 14.7616 12.7021 8.09058C17.533 11.6402 22.7056 14.6994 28.1434 17.2227C28.8789 17.5519 29.1801 18.3552 28.7762 19.016C26.3964 22.6707 23.6434 26.0684 20.5617 29.1545C19.9896 29.7009 18.8642 29.7686 18.0866 29.3179C17.1386 28.7785 16.6763 28.5007 15.768 27.9379Z" fill="url(#paint1_linear_3678_12862)"/>
<path d="M15.9619 19.1524C16.0109 18.7974 16.0342 18.62 16.0786 18.2651C16.4896 18.1436 16.695 18.0806 17.1037 17.9522C17.5262 17.8239 17.9051 17.5815 18.1988 17.2517L18.3365 17.0906C19.0744 16.2313 18.8035 15.0264 17.8485 14.424C17.326 14.1069 16.7032 13.9986 16.1043 14.1205C14.4715 14.4514 12.8222 14.6946 11.1635 14.849C11.1378 16.5302 11.1261 17.3731 11.1074 19.052C11.1173 19.3332 11.1956 19.6078 11.3356 19.8519C11.4755 20.096 11.6729 20.3024 11.9107 20.4529C12.9077 21.1534 14.4558 21.1044 15.2777 20.3152L15.4248 20.1727C15.7114 19.9011 15.9002 19.5424 15.9619 19.1524Z" fill="black"/>
<path d="M14.4069 20.8383L14.6264 20.7612C14.1594 18.2651 13.9585 17.0252 13.5826 14.5548C12.6183 14.6949 12.1349 14.7533 11.1589 14.8537C11.1355 16.5115 11.1262 17.3428 11.1099 19.0053C11.1207 19.31 11.206 19.6074 11.3582 19.8715C11.5104 20.1357 11.725 20.3585 11.9831 20.5207C12.336 20.7554 12.7379 20.9061 13.1581 20.9611C13.5783 21.0162 14.0055 20.9741 14.4069 20.8383Z" fill="#404660"/>
<path d="M16.0786 18.2582L16.1253 18.2722C17.6672 18.7721 19.3075 18.8899 20.905 18.6154C19.6522 19.4684 18.625 20.6126 17.9116 21.9498C17.6576 20.59 17.034 19.3264 16.109 18.2979L16.0786 18.2582Z" fill="black"/>
<path d="M2.34424 14.5231L2.65479 14.3317C2.956 14.6235 3.12179 14.7683 3.41833 15.0555C3.48472 15.1123 3.532 15.1881 3.55376 15.2727C3.56534 15.3113 3.56903 15.3519 3.56462 15.392C3.56021 15.4321 3.54778 15.4709 3.52808 15.5062C3.48698 15.5842 3.42464 15.6489 3.34828 15.693C3.22288 15.7766 3.07384 15.8175 2.92331 15.8097C2.77846 15.7968 2.64282 15.7331 2.54038 15.6299L2.8556 15.4384C2.89419 15.4804 2.94341 15.511 2.99803 15.5272C3.04615 15.535 3.09541 15.5241 3.1358 15.4968C3.15492 15.4878 3.17079 15.4731 3.18123 15.4547C3.19168 15.4363 3.1962 15.4151 3.19417 15.3941C3.1824 15.3413 3.15269 15.2943 3.11011 15.261C2.79956 14.9598 2.64545 14.815 2.34424 14.5231Z" fill="black"/>
<path d="M24.1252 15.9231C24.1252 15.9932 24.1252 16.0282 24.1252 16.1006L23.9431 16.1823C23.8652 16.2166 23.7982 16.2715 23.7493 16.3411V16.3574C23.7189 16.4004 23.6984 16.4496 23.6894 16.5015C23.6803 16.5534 23.6829 16.6066 23.697 16.6574C23.7111 16.7081 23.7363 16.7551 23.7708 16.7949C23.8053 16.8347 23.8482 16.8663 23.8964 16.8875C24.0086 16.9433 24.1375 16.9558 24.2583 16.9225C24.6436 16.8127 24.8351 16.759 25.2203 16.6423C25.1386 16.299 25.0966 16.1286 25.0172 15.7853C25.0032 15.73 24.9771 15.6785 24.9408 15.6344C24.9044 15.5904 24.8587 15.555 24.807 15.5308C24.706 15.4783 24.5892 15.4645 24.4787 15.492C24.3682 15.5195 24.2716 15.5865 24.207 15.6803L24.1953 15.699C24.1493 15.7646 24.1248 15.8429 24.1252 15.9231Z" fill="black"/>
<path d="M24.1322 16.1006H24.1158C23.8235 16.0365 23.5208 16.0365 23.2285 16.1006C23.4502 15.9187 23.6128 15.6748 23.6955 15.4001C23.7701 15.6618 23.9155 15.8978 24.1158 16.082L24.1322 16.1006Z" fill="black"/>
<path d="M27.3588 17.8682L27.144 18.2021C26.705 18.0013 26.4878 17.8985 26.0582 17.693C25.9635 17.6542 25.8824 17.5884 25.8247 17.5039C25.7738 17.4283 25.7492 17.338 25.7546 17.2471C25.7617 17.1498 25.7948 17.0563 25.8504 16.9762C25.9293 16.841 26.0545 16.7389 26.203 16.689C26.3503 16.6462 26.5084 16.6621 26.6443 16.7334L26.4341 17.0696C26.3804 17.0385 26.3187 17.0239 26.2567 17.0276C26.2316 17.0322 26.2079 17.0423 26.1873 17.0573C26.1667 17.0722 26.1497 17.0916 26.1376 17.114C26.1252 17.1339 26.1186 17.157 26.1186 17.1805C26.1186 17.204 26.1252 17.2271 26.1376 17.2471C26.1695 17.3 26.2179 17.341 26.2754 17.3638C26.7027 17.5576 26.9198 17.6674 27.3588 17.8682Z" fill="black"/>
<path fill-rule="evenodd" clip-rule="evenodd" d="M5.24646 17.0821C5.21377 17.1778 5.19509 17.2245 5.1624 17.3156C5.12174 17.4273 5.04436 17.522 4.94291 17.5841L4.89388 17.6168C4.73936 17.7042 4.56164 17.742 4.38491 17.7249C4.20818 17.7077 4.04102 17.6366 3.90618 17.521C3.84203 17.4714 3.79193 17.4058 3.76081 17.3309C3.72969 17.256 3.71863 17.1742 3.72872 17.0937C3.80344 16.6127 3.8408 16.3746 3.91785 15.8936C4.54597 15.9216 4.85185 15.9309 5.48696 15.9403C5.67719 15.9411 5.86122 16.008 6.00767 16.1294C6.06571 16.1745 6.11227 16.2328 6.14355 16.2993C6.17484 16.3659 6.18995 16.4389 6.18768 16.5124C6.1854 16.5859 6.1658 16.6579 6.13046 16.7224C6.09512 16.7869 6.04505 16.8421 5.98432 16.8836L5.93528 16.9186C5.82447 16.9909 5.69799 17.0358 5.56635 17.0494L5.24413 17.0821H5.25814C5.68751 17.2999 6.1574 17.4263 6.63811 17.4533C6.22008 17.6005 5.84807 17.8549 5.55935 18.1912C5.57366 17.8032 5.46675 17.4205 5.25347 17.0961L5.24646 17.0821Z" fill="black"/>
<g clip-path="url(#clip1_3678_12862)" filter="url(#filter0_d_3678_12862)">
<path d="M14.0214 12.4245C14.2387 12.4615 14.4619 12.503 14.6705 12.5504C14.879 12.5978 15.0993 12.6482 15.3108 12.706C15.5222 12.7638 15.7322 12.8245 15.9408 12.8897C16.1493 12.9549 21.4677 12.8142 21.6718 12.8897L12.6409 20.8008L6.61986 3.84521C6.56458 3.69064 6.54892 3.52448 6.57434 3.36216C6.6002 3.2049 6.66371 3.05637 6.75937 2.92949C6.86125 2.79175 6.99025 2.67674 7.13826 2.59166C7.30466 2.49453 7.48653 2.42735 7.67575 2.39311L20.3787 0.0223229C20.5618 -0.00581337 20.7479 -0.00581337 20.9309 0.0223229C21.1102 0.0468749 21.2852 0.0967549 21.4508 0.170497C21.6113 0.241171 21.76 0.336654 21.8914 0.45351C22.0156 0.563026 22.1183 0.695245 22.1939 0.843208L22.4949 1.44479L19.7017 11.8209C19.5372 11.7221 18.6649 8.13287 18.5063 8.03409C18.3492 7.93185 18.1921 7.82516 18.0393 7.71551C17.8866 7.60586 17.7368 7.49325 17.59 7.37916C17.4431 7.26506 17.2963 7.14504 17.1597 7.02502C17.0945 7.52382 16.9798 8.01476 16.8175 8.49046C16.6495 8.98009 16.4356 9.45243 16.1787 9.90108C15.9082 10.3701 15.5956 10.813 15.2447 11.2243C14.8719 11.6591 14.4626 12.0606 14.0214 12.4245ZM10.9697 8.63863C11.0022 8.46047 11.0513 8.28582 11.1166 8.11706C11.1845 7.94893 11.2681 7.78768 11.3662 7.6355C11.4648 7.48065 11.5779 7.33575 11.704 7.20283C11.8323 7.06474 11.9723 6.9383 12.1225 6.82499C11.9115 6.78941 11.703 6.73991 11.4984 6.67681C11.2979 6.61253 11.1017 6.53532 10.911 6.44566C10.7237 6.35977 10.5426 6.26074 10.3691 6.14932C10.1999 6.03941 10.0394 5.91656 9.88886 5.78184C9.85344 5.95325 9.8008 6.12056 9.73173 6.28119C9.66163 6.44611 9.57606 6.60389 9.47619 6.75238C9.37276 6.90641 9.25578 7.05072 9.12668 7.18357C8.99071 7.32369 8.84334 7.45206 8.68611 7.56734C8.90172 7.60502 9.11463 7.65699 9.32347 7.72292C9.52839 7.78727 9.7286 7.86599 9.92264 7.95852C10.1134 8.04822 10.2974 8.15172 10.4733 8.2682C10.6473 8.3821 10.8123 8.50942 10.9668 8.64901L10.9697 8.63863ZM8.65087 3.11027L8.48199 5.26027L9.11787 5.13284V4.73129L9.92704 4.56978L10.209 4.91058L10.839 4.78463L9.1957 3.00654L8.64793 3.11027" fill="white"/>
<path d="M9.19908 3.00647L10.8424 4.78456L10.2124 4.91051L9.93041 4.56971L9.12124 4.73122V5.13277L8.48535 5.2602L8.65424 3.11019L9.19908 3.00647ZM9.12565 4.34004L9.64991 4.23632L9.13152 3.60806V4.34004" fill="#F04E5E"/>
<path d="M9.13136 3.60205L9.64976 4.23031L9.12695 4.33403L9.13136 3.60205Z" fill="white"/>
<path d="M9.89219 5.77722C10.0427 5.91194 10.2032 6.03479 10.3724 6.14469C10.546 6.25612 10.727 6.35515 10.9143 6.44104C11.105 6.5307 11.3012 6.60791 11.5017 6.67219C11.7063 6.73529 11.9148 6.78479 12.1259 6.82037C11.9756 6.93368 11.8356 7.06012 11.7073 7.19821C11.5812 7.33113 11.4681 7.47603 11.3696 7.63088C11.2714 7.78306 11.1878 7.94431 11.1199 8.11244C11.0547 8.28121 11.0055 8.45585 10.973 8.63402C10.8185 8.49443 10.6536 8.36711 10.4796 8.25321C10.3037 8.13672 10.1196 8.03323 9.9289 7.94352C9.73486 7.851 9.53465 7.77228 9.32973 7.70793C9.1209 7.642 8.90799 7.59003 8.69238 7.55235C8.84961 7.43708 8.99699 7.3087 9.13295 7.16858C9.26206 7.03573 9.37903 6.89142 9.48247 6.73739C9.58233 6.5889 9.6679 6.43112 9.73799 6.26619C9.8054 6.10879 9.85705 5.94499 9.89219 5.77722Z" fill="#F04E5E"/>
<path d="M31.3461 19.113C31.4383 19.3038 31.4941 19.5104 31.5106 19.722C31.5259 19.9119 31.5003 20.103 31.4357 20.2821C31.3731 20.4512 31.2726 20.6033 31.142 20.7266C31.0008 20.8592 30.8316 20.9575 30.6471 21.014L16.2038 25.5274C16.1304 25.5482 16.057 25.5645 15.9924 25.5778C15.9267 25.5897 15.8606 25.5981 15.7941 25.603C15.731 25.6074 15.6677 25.6074 15.6047 25.603C15.5432 25.6018 15.4819 25.5969 15.4211 25.5882C15.2545 25.5661 15.0915 25.5218 14.9365 25.4563C14.7824 25.3909 14.6373 25.3057 14.5047 25.2029C14.3728 25.0987 14.2552 24.9771 14.1552 24.8414C14.0548 24.7055 13.9742 24.5558 13.9158 24.3969L12.6396 20.8081L16.5622 13.103C16.9631 13.2512 17.3552 13.4187 17.737 13.6024C18.1188 13.7861 18.4962 13.9876 18.8619 14.2055C19.2276 14.4233 19.5844 14.6604 19.9296 14.9122C20.2747 15.1641 20.6095 15.4353 20.9311 15.7213C20.9769 15.1595 21.0752 14.6033 21.2248 14.0602C21.3694 13.5401 21.5626 13.0351 21.802 12.5518C22.0359 12.0817 22.3137 11.6352 22.6317 11.2183C22.9481 10.8033 23.3032 10.4197 23.692 10.0729C23.2764 10.0003 22.8637 9.90841 22.4569 9.79728C22.0501 9.68615 21.6463 9.55724 21.2512 9.41203C20.8562 9.26682 20.4685 9.10087 20.0896 8.92158C19.7107 8.74229 19.3451 8.54373 18.9882 8.32888L22.4922 1.44324L31.3461 19.113ZM28.7967 20.2376C28.7992 20.0312 28.8198 19.8254 28.8584 19.6227C28.8953 19.4273 28.9504 19.2358 29.0228 19.0507C29.0931 18.8697 29.1806 18.696 29.2842 18.5321C29.387 18.3686 29.5056 18.2157 29.6382 18.0758C29.4173 18.0396 29.1994 17.9871 28.9861 17.9187C28.7703 17.8507 28.5594 17.768 28.3546 17.6712C28.1516 17.573 27.9554 17.4611 27.7672 17.3364C27.5764 17.2124 27.3944 17.0753 27.2224 16.9259C27.2171 17.1253 27.1935 17.3237 27.1519 17.5186C27.1115 17.7099 27.0535 17.8969 26.9786 18.0772C26.9029 18.2577 26.8109 18.4308 26.704 18.5944C26.5942 18.7607 26.4688 18.9161 26.3295 19.0582C26.5548 19.0952 26.7771 19.1487 26.9948 19.2182C27.2141 19.2879 27.4285 19.3726 27.6365 19.4716C27.846 19.572 28.0486 19.6863 28.243 19.8138C28.4394 19.9437 28.6268 20.0867 28.804 20.2421L28.7967 20.2376ZM25.5174 13.8706L25.723 16.3821L26.3369 16.2103L26.2693 15.7405L27.0491 15.5257L27.3942 15.9154L28.0007 15.745L26.0475 13.7283L25.5174 13.8765" fill="#F9FAFF"/>
<path d="M26.0757 14.4159L26.7042 15.1316L26.199 15.2694L26.0757 14.4159Z" fill="#F9FAFF"/>
<path d="M26.0404 13.7195L27.9936 15.7361L27.3871 15.9065L27.042 15.5168L26.2622 15.7317L26.3297 16.2014L25.7159 16.3733L25.5103 13.8617L26.0404 13.7195ZM26.1975 15.2694L26.7042 15.1316L26.0756 14.4174L26.1975 15.2694Z" fill="#F04E5E"/>
<path d="M17.1588 7.02051C17.3056 7.14053 17.4437 7.25907 17.5891 7.37464C17.7345 7.49022 17.8828 7.60135 18.0385 7.71099C18.1941 7.82064 18.3483 7.92733 18.5055 8.02957C18.6626 8.13181 18.8256 8.23405 18.9901 8.32592C19.3469 8.53633 19.7141 8.7334 20.0915 8.91862C20.4689 9.10383 20.8581 9.26238 21.2531 9.40907C21.6482 9.55576 22.0505 9.68467 22.4588 9.79432C22.8671 9.90397 23.2783 9.99732 23.6939 10.0699C23.3051 10.4168 22.95 10.8003 22.6336 11.2153C22.3156 11.6322 22.0378 12.0788 21.8038 12.5489C21.5645 13.0321 21.3713 13.5372 21.2267 14.0573C21.0771 14.6004 20.9787 15.1565 20.933 15.7183C20.6118 15.4328 20.278 15.1632 19.9314 14.9093C19.5848 14.6554 19.229 14.4198 18.8638 14.2025C18.4976 13.9852 18.1226 13.7842 17.7389 13.5994C17.3556 13.4157 16.9635 13.2483 16.564 13.1001C16.3599 13.0245 16.1543 12.9519 15.9458 12.8867C15.7372 12.8215 15.5272 12.7593 15.3158 12.703C15.1043 12.6467 14.8899 12.5933 14.6755 12.5474C14.4611 12.5015 14.2437 12.4585 14.0264 12.4214C14.4672 12.0561 14.876 11.6531 15.2482 11.2168C15.5991 10.8055 15.9117 10.3626 16.1822 9.8936C16.4391 9.44495 16.653 8.97261 16.821 8.48298C16.9817 8.00808 17.0948 7.51815 17.1588 7.02051Z" fill="#FF1D25"/>
<path d="M27.2152 16.9215C27.3852 17.0717 27.5653 17.2098 27.7541 17.3349C27.9423 17.4597 28.1385 17.5716 28.3416 17.6698C28.5463 17.7666 28.7573 17.8492 28.973 17.9172C29.1863 17.9856 29.4042 18.0381 29.6251 18.0743C29.4925 18.2143 29.3739 18.3672 29.2712 18.5307C29.1675 18.6946 29.08 18.8683 29.0098 19.0493C28.9373 19.2343 28.8822 19.4258 28.8453 19.6212C28.8067 19.824 28.7861 20.0297 28.7836 20.2362C28.6064 20.0808 28.419 19.9378 28.2226 19.8079C28.0282 19.6804 27.8256 19.5661 27.6161 19.4657C27.4081 19.3667 27.1937 19.282 26.9743 19.2123C26.7567 19.1428 26.5344 19.0893 26.3091 19.0523C26.4484 18.9102 26.5738 18.7548 26.6836 18.5885C26.7905 18.4249 26.8824 18.2518 26.9582 18.0713C27.0331 17.891 27.0911 17.704 27.1315 17.5127C27.1774 17.3187 27.2055 17.1208 27.2152 16.9215Z" fill="#F04E5E"/>
<path d="M30.6445 21.0155C30.8249 20.9617 30.9913 20.8686 31.1321 20.7428C31.2602 20.6238 31.3606 20.4775 31.4258 20.3146C31.4935 20.1484 31.526 19.9697 31.5213 19.7901C31.5158 19.5941 31.4735 19.401 31.3964 19.2211C31.4735 19.401 31.5158 19.5941 31.5213 19.7901C31.5267 19.9698 31.4941 20.1486 31.4258 20.3146C31.3606 20.4775 31.2602 20.6238 31.1321 20.7428C30.9915 20.8689 30.825 20.962 30.6445 21.0155Z" fill="white"/>
<path d="M16.1527 25.5437H16.1645H16.1762H16.1894H16.2012L30.6444 21.0303L16.2041 25.5451H16.1924H16.1806H16.1674H16.1557C16.0953 25.5623 16.034 25.5762 15.9721 25.5866C15.9104 25.5965 15.8487 25.6039 15.7871 25.6088C15.7239 25.6088 15.6637 25.6088 15.602 25.6088C15.5403 25.6088 15.4787 25.6014 15.4185 25.5926C15.4787 25.6014 15.5403 25.6059 15.6006 25.6088C15.6608 25.6118 15.7239 25.6088 15.7841 25.6088C15.8443 25.6088 15.9075 25.597 15.9692 25.5866C16.0311 25.5758 16.0924 25.5615 16.1527 25.5437Z" fill="white"/>
</g>
</g>
<defs>
<filter id="filter0_d_3678_12862" x="1.31367" y="0" width="35.4625" height="36.1192" filterUnits="userSpaceOnUse" color-interpolation-filters="sRGB">
<feFlood flood-opacity="0" result="BackgroundImageFix"/>
<feColorMatrix in="SourceAlpha" type="matrix" values="0 0 0 0 0 0 0 0 0 0 0 0 0 0 0 0 0 0 127 0" result="hardAlpha"/>
<feOffset dy="5.25372"/>
<feGaussianBlur stdDeviation="2.62686"/>
<feColorMatrix type="matrix" values="0 0 0 0 0 0 0 0 0 0 0 0 0 0 0 0 0 0 0.25 0"/>
<feBlend mode="normal" in2="BackgroundImageFix" result="effect1_dropShadow_3678_12862"/>
<feBlend mode="normal" in="SourceGraphic" in2="effect1_dropShadow_3678_12862" result="shape"/>
</filter>
<linearGradient id="paint0_linear_3678_12862" x1="-6.51738" y1="15.0659" x2="33.5552" y2="20.9673" gradientUnits="userSpaceOnUse">
<stop offset="0.11" stop-color="#ECE7E7"/>
<stop offset="0.5" stop-color="#FDF8F8"/>
<stop offset="1" stop-color="white"/>
</linearGradient>
<linearGradient id="paint1_linear_3678_12862" x1="9.70216" y1="18.931" x2="24.0063" y2="18.7745" gradientUnits="userSpaceOnUse">
<stop offset="0.15" stop-color="#D1CFDE"/>
<stop offset="1" stop-color="#EEEBFF" stop-opacity="0"/>
</linearGradient>
<clipPath id="clip0_3678_12862">
<rect width="32" height="32" fill="white"/>
</clipPath>
<clipPath id="clip1_3678_12862">
<rect width="24.9552" height="25.6119" fill="white" transform="translate(6.56738)"/>
</clipPath>
</defs>
</svg>
