<svg width="20" height="20" viewBox="0 0 20 20" fill="none" xmlns="http://www.w3.org/2000/svg">
<path d="M15.0765 0.858643H6.8365C6.12505 0.858643 5.5165 1.29293 5.26221 1.91293H13.1622C14.4165 1.91293 15.4365 2.93293 15.4365 4.18722V17.4786C16.2051 17.3129 16.7793 16.6301 16.7793 15.8129V2.55865C16.7794 1.61865 16.0165 0.858643 15.0765 0.858643Z" fill="#FFD000"/>
<path d="M12.6023 17.5156L12.8942 16.7201H12.3105L12.6023 17.5156Z" fill="#FE3030"/>
<path d="M13.1636 2.48376H4.92238C3.9823 2.48376 3.22021 3.24585 3.22021 4.18593V17.4393C3.22021 18.3794 3.9823 19.1415 4.92238 19.1415H13.1636C14.1036 19.1415 14.8657 18.3794 14.8657 17.4393V4.18593C14.8657 3.24585 14.1036 2.48376 13.1636 2.48376ZM6.32701 5.5508C6.31587 5.56109 6.30326 5.56623 6.2896 5.56623H6.05966C6.02351 5.56623 5.9985 5.54984 5.98485 5.51716L5.86609 5.20463H5.10146L4.9827 5.51716C4.96884 5.54984 4.94404 5.56623 4.90789 5.56623H4.67794C4.66239 5.56623 4.64957 5.56109 4.63928 5.5508C4.62898 5.54039 4.62373 5.52747 4.62373 5.51202L4.62898 5.48879L5.2488 3.82291C5.26603 3.77992 5.29693 3.75839 5.34169 3.75839H5.62585C5.67062 3.75839 5.70152 3.77992 5.71875 3.82291L6.33857 5.48879L6.34382 5.51202C6.34382 5.52747 6.33815 5.54039 6.32701 5.5508ZM11.5285 10.9735L9.32129 14.7791C9.19774 14.9921 8.89015 14.9921 8.76651 14.7791L6.55755 10.9736C6.49976 10.8741 6.49976 10.7512 6.55755 10.6516L8.76651 6.84611C8.89015 6.63311 9.19774 6.63316 9.32129 6.8462L11.5285 10.6517C11.5863 10.7512 11.5863 10.874 11.5285 10.9735ZM13.457 16.1365L12.8372 17.8023C12.8199 17.8453 12.789 17.8669 12.7443 17.8669H12.4601C12.4153 17.8669 12.3844 17.8453 12.3672 17.8023L11.7474 16.1365L11.7421 16.1132C11.7421 16.0978 11.7478 16.0849 11.7589 16.0744C11.7701 16.0641 11.7827 16.059 11.7964 16.059H12.0263C12.0624 16.059 12.0875 16.0754 12.1011 16.1081L12.2199 16.4206H12.9845L13.1032 16.1081C13.1171 16.0754 13.1419 16.059 13.1781 16.059H13.408C13.4235 16.059 13.4364 16.0641 13.4467 16.0744C13.457 16.0849 13.4622 16.0978 13.4622 16.1132L13.457 16.1365Z" fill="#FE3030"/>
<path d="M5.19189 4.90513H5.77555L5.48383 4.10962L5.19189 4.90513Z" fill="#FE3030"/>
</svg>
