<svg width="20" height="20" viewBox="0 0 20 20" fill="none" xmlns="http://www.w3.org/2000/svg">
<path fill-rule="evenodd" clip-rule="evenodd" d="M13.6322 3.9981C15.5122 3.19581 18.0322 5.02667 19.2722 8.11238C20.5122 11.1981 20.0122 14.3455 18.1322 15.1478C17.0322 15.621 15.7322 15.189 14.5722 14.1398C13.4522 13.1112 12.0322 12.5352 10.5522 12.5352H10.3522C8.87217 12.5352 7.45217 13.1318 6.33217 14.1398C5.17217 15.189 3.87217 15.621 2.77217 15.1478C0.892169 14.3455 0.392166 11.1775 1.63217 8.11238C2.87217 5.04724 5.39217 3.19581 7.27217 3.9981H7.29217C8.27217 4.4301 9.35217 4.67696 10.4322 4.67696H10.4722C11.5522 4.67696 12.6122 4.4301 13.6122 3.9981H13.6322ZM16.039 7.14224C16.039 7.72397 15.5674 8.19556 14.9857 8.19556C14.404 8.19556 13.9324 7.72397 13.9324 7.14224C13.9324 6.56051 14.404 6.08893 14.9857 6.08893C15.5674 6.08893 16.039 6.56051 16.039 7.14224ZM17.866 8.96915C17.866 8.38742 17.3944 7.91584 16.8126 7.91584C16.2309 7.91584 15.7593 8.38742 15.7593 8.96915C15.7593 9.55088 16.2309 10.0225 16.8126 10.0225C17.3944 10.0225 17.866 9.55088 17.866 8.96915ZM14.9857 11.8494C15.5674 11.8494 16.039 11.3779 16.039 10.7961C16.039 10.2144 15.5674 9.74281 14.9857 9.74281C14.404 9.74281 13.9324 10.2144 13.9324 10.7961C13.9324 11.3779 14.404 11.8494 14.9857 11.8494ZM14.2121 8.96915C14.2121 8.38742 13.7405 7.91584 13.1588 7.91584C12.5771 7.91584 12.1055 8.38742 12.1055 8.96915C12.1055 9.55088 12.5771 10.0225 13.1588 10.0225C13.7405 10.0225 14.2121 9.55088 14.2121 8.96915ZM4.9929 7.0997C4.9929 6.57371 5.41929 6.14732 5.94528 6.14732C6.47126 6.14732 6.89766 6.57371 6.89766 7.0997V8.05208H7.85004C8.37603 8.05208 8.80242 8.47847 8.80242 9.00446C8.80242 9.53044 8.37603 9.95684 7.85004 9.95684H6.89766V10.9092C6.89766 11.4352 6.47126 11.8616 5.94528 11.8616C5.41929 11.8616 4.9929 11.4352 4.9929 10.9092V9.95684H4.04052C3.51453 9.95684 3.08813 9.53045 3.08813 9.00446C3.08813 8.47847 3.51453 8.05208 4.04052 8.05208H4.9929V7.0997Z" fill="#0085FF"/>
</svg>
