<svg width="32" height="32" viewBox="0 0 32 32" fill="none" xmlns="http://www.w3.org/2000/svg">
<path d="M12.8871 6.75H19.1129C20.336 6.75 21.5242 6.34233 22.4896 5.59144L24.1893 4.26943C25.0388 3.60872 26.0843 3.25 27.1605 3.25C29.8333 3.25 32 5.41673 32 8.08952V26.129C32 27.8527 30.6027 29.25 28.879 29.25C27.8583 29.25 26.9022 28.7509 26.3185 27.9136L23.1415 23.3551C22.113 21.8795 20.428 21 18.6293 21H13.3707C11.572 21 9.88701 21.8795 8.85854 23.3551L5.68145 27.9136C5.09784 28.7509 4.14166 29.25 3.121 29.25C1.39732 29.25 0 27.8527 0 26.129V8.08952C0 5.41673 2.16673 3.25 4.83952 3.25C5.91572 3.25 6.96121 3.60872 7.8107 4.26943L9.51042 5.59144C10.4759 6.34233 11.664 6.75 12.8871 6.75Z" fill="#7724FF"/>
<path d="M7.8107 4.26943L9.51042 5.59144C10.4759 6.34233 11.664 6.75 12.8871 6.75H19.1129C20.336 6.75 21.5241 6.34233 22.4896 5.59144L24.1893 4.26943C25.0388 3.60872 26.0843 3.25 27.1605 3.25C29.8333 3.25 32 5.41673 32 8.08952C32 8.08952 31.071 4.75 27.1605 5C23.25 5.25 22.4896 7.75 18.6293 7.75H13.3707C9.51042 7.75 8.75 5.25 4.83952 5C0.929045 4.75 0 8.08952 0 8.08952C0 5.41673 2.16673 3.25 4.83952 3.25C5.91572 3.25 6.96121 3.60872 7.8107 4.26943Z" fill="#A26AFE"/>
<path d="M12.2162 18.4999H19.7838C20.5721 18.4999 21.3378 18.2372 21.96 17.7533C23.7666 16.3481 26.4114 16.9979 27.3612 19.0802L30.5241 26.0142C31.2148 27.5285 30.108 29.2499 28.4436 29.2499C27.6957 29.2499 26.9952 28.8843 26.5676 28.2707L23.1415 23.3551C22.113 21.8794 20.428 20.9999 18.6293 20.9999H13.3708C11.5721 20.9999 9.88703 21.8794 8.85856 23.3551L5.43249 28.2707C5.00488 28.8843 4.3043 29.2499 3.55647 29.2499C1.89205 29.2499 0.785226 27.5285 1.47597 26.0142L4.63885 19.0802C5.58867 16.9979 8.23345 16.3481 10.04 17.7533C10.6622 18.2372 11.428 18.4999 12.2162 18.4999Z" fill="#5A0DD8"/>
<circle cx="27" cy="8.5" r="1.5" fill="#AF8700"/>
<circle cx="26.75" cy="8.25" r="1.25" fill="#EFBD17"/>
<circle cx="24" cy="11.5" r="1.5" fill="#0046AF"/>
<circle cx="23.75" cy="11.25" r="1.25" fill="#1787EF"/>
<circle cx="5.25" cy="10.75" r="3.25" fill="#36007A"/>
<ellipse cx="4.70833" cy="10.2083" rx="2.70833" ry="2.70833" fill="#9643FF"/>
<circle cx="4.75" cy="10.25" r="1.75" fill="#D095FF"/>
<circle cx="19.75" cy="14.75" r="2.25" fill="#36007A"/>
<circle cx="19.375" cy="14.375" r="1.875" fill="#9643FF"/>
<ellipse cx="19.4039" cy="14.4038" rx="1.21154" ry="1.21154" fill="#D095FF"/>
<circle cx="30" cy="11.5" r="1.5" fill="#AF0074"/>
<circle cx="29.75" cy="11.25" r="1.25" fill="#EF177F"/>
<circle cx="27" cy="14.5" r="1.5" fill="#00AF12"/>
<circle cx="26.75" cy="14.25" r="1.25" fill="#69EF17"/>
<rect x="10.75" y="12" width="2" height="5.5" rx="1" fill="#481414"/>
<rect x="9" y="15.75" width="2" height="5.5" rx="1" transform="rotate(-90 9 15.75)" fill="#481414"/>
<path d="M10.25 12C10.25 11.7239 10.4739 11.5 10.75 11.5H11.75C12.0261 11.5 12.25 11.7239 12.25 12V16.5C12.25 16.7761 12.0261 17 11.75 17H10.75C10.4739 17 10.25 16.7761 10.25 16.5V12Z" fill="#E26565"/>
<path d="M9 15.25C8.72386 15.25 8.5 15.0261 8.5 14.75L8.5 13.75C8.5 13.4739 8.72386 13.25 9 13.25L13.5 13.25C13.7761 13.25 14 13.4739 14 13.75V14.75C14 15.0261 13.7761 15.25 13.5 15.25L9 15.25Z" fill="#E26565"/>
<path d="M10.6136 12.8182C10.6136 12.6425 10.7561 12.5 10.9318 12.5H11.5682C11.7439 12.5 11.8864 12.6425 11.8864 12.8182V15.6818C11.8864 15.8575 11.7439 16 11.5682 16H10.9318C10.7561 16 10.6136 15.8575 10.6136 15.6818V12.8182Z" fill="#F98A8A"/>
<path d="M9.81818 14.8864C9.64245 14.8864 9.5 14.7439 9.5 14.5682L9.5 13.9318C9.5 13.7561 9.64245 13.6136 9.81818 13.6136L12.6818 13.6136C12.8575 13.6136 13 13.7561 13 13.9318V14.5682C13 14.7439 12.8575 14.8864 12.6818 14.8864H9.81818Z" fill="#F98A8A"/>
<circle opacity="0.46" cx="4.25" cy="9.75" r="0.75" fill="#E9CDFF"/>
<circle opacity="0.2" cx="23.25" cy="11.25" r="0.75" fill="#E9CDFF"/>
<circle opacity="0.56" cx="26.25" cy="8.25" r="0.75" fill="#E9CDFF"/>
<circle opacity="0.56" cx="29.25" cy="11.25" r="0.75" fill="#E9CDFF"/>
<circle opacity="0.56" cx="26.25" cy="14.25" r="0.75" fill="#E9CDFF"/>
<circle opacity="0.1" cx="24.5" cy="19.5" r="2" fill="#E9CDFF"/>
<circle opacity="0.1" cx="7" cy="19.5" r="2" fill="#E9CDFF"/>
<circle opacity="0.1" cx="16" cy="10.5" r="2" fill="#E9CDFF"/>
<circle opacity="0.1" cx="27" cy="11" r="3" fill="#E9CDFF"/>
</svg>
