<svg width="20" height="20" viewBox="0 0 20 20" fill="none" xmlns="http://www.w3.org/2000/svg">
<path d="M5.0922 10.4606H3.05615C3.13657 12.0854 3.77463 13.6313 4.86064 14.8323L6.29927 13.3785C5.59209 12.5653 5.16809 11.5404 5.0922 10.4606Z" fill="url(#paint0_linear_935_23603)"/>
<path d="M6.28111 6.85299L4.84232 5.39905C3.74942 6.61738 3.116 8.18573 3.05322 9.82892H5.08725C5.14696 8.73045 5.56702 7.68337 6.28111 6.85299Z" fill="#A524C5"/>
<path d="M5.30225 15.2795C6.49333 16.3883 8.03122 17.0402 9.64861 17.122V15.0646C8.5706 14.9871 7.54816 14.5517 6.74041 13.8262L5.30225 15.2795Z" fill="#A524C5"/>
<path d="M10.042 9.38367C10.0156 9.39091 9.98845 9.39463 9.96113 9.39472C9.94155 9.39466 9.92201 9.39275 9.90277 9.38904C9.73872 9.41202 9.58762 9.49174 9.47519 9.61463C9.36277 9.73752 9.29595 9.89598 9.28613 10.063C9.2933 10.0897 9.29698 10.1171 9.29707 10.1447C9.29701 10.1645 9.29513 10.1842 9.29145 10.2037C9.31288 10.3598 9.38418 10.5047 9.49452 10.6162C9.60486 10.7277 9.7482 10.7998 9.90277 10.8215C9.92201 10.8177 9.94155 10.8158 9.96113 10.8158C9.98845 10.8159 10.0156 10.8196 10.042 10.8268C10.2073 10.8169 10.3641 10.7494 10.4857 10.6357C10.6073 10.5221 10.6862 10.3694 10.7089 10.2037C10.7053 10.1842 10.7034 10.1645 10.7033 10.1447C10.7034 10.1171 10.7071 10.0897 10.7143 10.063C10.7039 9.8863 10.6297 9.71953 10.5058 9.59432C10.3819 9.46911 10.2169 9.39417 10.042 9.38367Z" fill="url(#paint1_linear_935_23603)"/>
<path d="M14.6777 4.91197C13.4693 3.79635 11.909 3.14925 10.2734 3.08545V5.14092C11.3699 5.20184 12.4143 5.63319 13.2391 6.36575L14.6777 4.91197Z" fill="#A524C5"/>
<path d="M13.6821 6.81121C14.418 7.64771 14.8517 8.71144 14.9126 9.82898H16.9466C16.883 8.16665 16.2356 6.58156 15.1203 5.35791L13.6821 6.81121Z" fill="url(#paint2_linear_935_23603)"/>
<path d="M9.64834 5.14595V3.0885C8.02148 3.17085 6.47539 3.82996 5.28174 4.95L6.71943 6.40288C7.53023 5.66639 8.56087 5.2241 9.64834 5.14595Z" fill="url(#paint3_linear_935_23603)"/>
<path d="M9.99995 1.01444C8.2207 1.01445 6.48141 1.54762 5.00202 2.54653C3.52263 3.54544 2.36958 4.96522 1.68869 6.62634C1.00781 8.28746 0.829653 10.1153 1.17676 11.8787C1.52388 13.6422 2.38066 15.262 3.63878 16.5334C5.32756 18.23 7.61315 19.1808 9.99452 19.1773C12.3759 19.1738 14.6587 18.2163 16.3426 16.5147C18.0265 14.813 18.974 12.5062 18.9775 10.0997C18.981 7.69331 18.0401 5.38366 16.3611 3.6771C15.5277 2.83029 14.5364 2.15894 13.4445 1.70189C12.3526 1.24485 11.1818 1.01119 9.99995 1.01444ZM9.99995 17.7625C5.82171 17.7625 2.42241 14.3275 2.42241 10.1052C2.42241 5.88296 5.82171 2.44792 9.99995 2.44792C14.1782 2.44792 17.5775 5.88296 17.5775 10.1052C17.5775 14.3275 14.1782 17.7625 9.99995 17.7625V17.7625Z" fill="#A524C5"/>
<path d="M10.2734 15.0696V17.1251C11.8995 17.0616 13.4515 16.4216 14.6571 15.3172L13.2184 13.8632C12.3966 14.5848 11.3605 15.0093 10.2734 15.0696Z" fill="url(#paint4_linear_935_23603)"/>
<path d="M13.6641 13.4203L15.1018 14.8731C16.2102 13.6669 16.8624 12.1046 16.9439 10.4606H14.9079C14.8306 11.5595 14.3929 12.601 13.6641 13.4203Z" fill="#A524C5"/>
<path d="M14.2952 10.1053C14.2952 9.24681 14.0433 8.40762 13.5713 7.69383C13.0994 6.98003 12.4285 6.4237 11.6436 6.09517C10.8588 5.76665 9.99514 5.68069 9.16193 5.84817C8.32872 6.01565 7.56337 6.42905 6.96266 7.03608C6.36195 7.64311 5.95286 8.41652 5.78713 9.25849C5.62139 10.1005 5.70645 10.9732 6.03155 11.7663C6.35665 12.5595 6.9072 13.2374 7.61356 13.7143C8.31992 14.1912 9.15037 14.4458 9.9999 14.4458C11.1387 14.4445 12.2305 13.9868 13.0357 13.1731C13.841 12.3593 14.2939 11.2561 14.2952 10.1053ZM11.9921 10.4605H11.294C11.2287 10.7017 11.0989 10.9199 10.9188 11.0914C10.7388 11.2628 10.5154 11.3807 10.2733 11.4322V12.1184C10.2733 12.2022 10.2404 12.2825 10.1818 12.3417C10.1232 12.401 10.0437 12.4342 9.96084 12.4342C9.87796 12.4342 9.79848 12.401 9.73987 12.3417C9.68127 12.2825 9.64834 12.2022 9.64834 12.1184V11.413C9.42292 11.3506 9.21746 11.23 9.0522 11.063C8.88693 10.896 8.76755 10.6883 8.7058 10.4605H8.00772C7.92484 10.4605 7.84535 10.4273 7.78675 10.3681C7.72814 10.3088 7.69522 10.2285 7.69522 10.1448C7.69522 10.061 7.72814 9.98069 7.78675 9.92146C7.84535 9.86224 7.92484 9.82897 8.00772 9.82897H8.68682C8.73777 9.58434 8.85447 9.35864 9.0241 9.17668C9.19374 8.99472 9.40973 8.86354 9.64834 8.79757V8.09213C9.64834 8.00838 9.68127 7.92806 9.73987 7.86884C9.79848 7.80962 9.87796 7.77635 9.96084 7.77635C10.0437 7.77635 10.1232 7.80962 10.1818 7.86884C10.2404 7.92806 10.2733 8.00838 10.2733 8.09213V8.77838C10.5288 8.83266 10.7632 8.9609 10.9478 9.14744C11.1324 9.33399 11.2593 9.5708 11.313 9.82897H11.9921C12.075 9.82897 12.1545 9.86224 12.2131 9.92146C12.2717 9.98069 12.3046 10.061 12.3046 10.1448C12.3046 10.2285 12.2717 10.3088 12.2131 10.3681C12.1545 10.4273 12.075 10.4605 11.9921 10.4605Z" fill="#A524C5"/>
<defs>
<linearGradient id="paint0_linear_935_23603" x1="2.24537" y1="11.3916" x2="6.48965" y2="12.5577" gradientUnits="userSpaceOnUse">
<stop stop-color="#FBC55C"/>
<stop offset="1" stop-color="#FF9518"/>
</linearGradient>
<linearGradient id="paint1_linear_935_23603" x1="8.9291" y1="9.69101" x2="10.7011" y2="10.3405" gradientUnits="userSpaceOnUse">
<stop stop-color="#FBC55C"/>
<stop offset="1" stop-color="#FF9518"/>
</linearGradient>
<linearGradient id="paint2_linear_935_23603" x1="12.866" y1="6.31008" x2="17.1477" y2="7.46793" gradientUnits="userSpaceOnUse">
<stop stop-color="#FBC55C"/>
<stop offset="1" stop-color="#FF9518"/>
</linearGradient>
<linearGradient id="paint3_linear_935_23603" x1="4.19009" y1="3.79434" x2="9.15414" y2="6.21656" gradientUnits="userSpaceOnUse">
<stop stop-color="#FBC55C"/>
<stop offset="1" stop-color="#FF9518"/>
</linearGradient>
<linearGradient id="paint4_linear_935_23603" x1="9.17751" y1="14.5578" x2="14.1225" y2="17.0191" gradientUnits="userSpaceOnUse">
<stop stop-color="#FBC55C"/>
<stop offset="1" stop-color="#FF9518"/>
</linearGradient>
</defs>
</svg>
