<svg width="32" height="32" viewBox="0 0 32 32" fill="none" xmlns="http://www.w3.org/2000/svg">
<path d="M11.147 13.5984L20.8736 13.5984C19.9701 14.4212 19.4551 15.5866 19.4551 16.8087V17.3302H12.5654V16.8087C12.5654 15.5866 12.0505 14.4212 11.147 13.5984Z" fill="#C4C4C4"/>
<path d="M14.1079 1.52478L17.9698 1.52478L16.033 16.2159L17.958 30.907H14.1079L16.033 16.2159L14.1079 1.52478Z" fill="#FFCA00"/>
<path d="M21.7046 29.9064L17.9743 30.9059L16.0427 16.2141L10.3809 2.5218L14.0998 1.52532L16.0427 16.2141L21.7046 29.9064Z" fill="#280D75"/>
<path d="M25.0576 27.9735L21.7131 29.9044L16.0448 16.2132L7.03204 4.4528L10.3663 2.52775L16.0448 16.2132L25.0576 27.9735Z" fill="#FFCA00"/>
<path d="M27.792 25.2389L25.0612 27.9696L16.0425 16.2119L4.29295 7.18494L7.0154 4.46252L16.0425 16.2119L27.792 25.2389Z" fill="#280D75"/>
<path d="M29.7266 21.8888L27.7956 25.2333L16.041 16.2104L2.35548 10.5319L4.28054 7.19768L16.041 16.2104L29.7266 21.8888Z" fill="#FFCA00"/>
<path d="M30.7285 18.1531L29.729 21.8833L16.0396 16.2102L1.35068 14.2673L2.34717 10.5484L16.0396 16.2102L30.7285 18.1531Z" fill="#280D75"/>
<path d="M30.731 14.2852V18.147L16.0397 16.2102L1.34842 18.1352V14.2852L16.0397 16.2102L30.731 14.2852Z" fill="#FFCA00"/>
<path d="M29.731 10.5483L30.7305 14.2786L16.0385 16.2101L2.34609 21.8719L1.3496 18.153L16.0385 16.2101L29.731 10.5483Z" fill="#280D75"/>
<path d="M27.7964 7.19824L29.7273 10.5427L16.0359 16.2109L4.27543 25.2236L2.35037 21.8894L16.0359 16.2109L27.7964 7.19824Z" fill="#FFCA00"/>
<path d="M25.062 4.46228L27.7928 7.19303L16.0349 16.2117L7.00788 27.9611L4.28543 25.2387L16.0349 16.2117L25.062 4.46228Z" fill="#280D75"/>
<path d="M21.7109 2.52747L25.0554 4.4584L16.0325 16.2129L10.354 29.8983L7.01968 27.9732L16.0325 16.2129L21.7109 2.52747Z" fill="#FFCA00"/>
<path d="M25.0554 4.4584L21.7109 2.52747L16.0325 16.2129L25.0554 4.4584Z" fill="#FFCA00"/>
<path d="M17.9766 1.52563L21.7069 2.52516L16.0337 16.2144L14.0907 30.9032L10.3718 29.9067L16.0337 16.2144L17.9766 1.52563Z" fill="#280D75"/>
<g filter="url(#filter0_i_3678_55981)">
<path fill-rule="evenodd" clip-rule="evenodd" d="M16 2.41514C8.49696 2.41514 2.41483 8.49745 2.41483 16C2.41483 23.5026 8.49696 29.5849 16 29.5849C23.503 29.5849 29.5852 23.5026 29.5852 16C29.5852 8.49745 23.503 2.41514 16 2.41514ZM0 16C0 7.16329 7.1636 0 16 0C24.8364 0 32 7.16329 32 16C32 24.8367 24.8364 32 16 32C7.1636 32 0 24.8367 0 16Z" fill="url(#paint0_linear_3678_55981)"/>
</g>
<circle cx="15.9996" cy="15.9997" r="9.12329" fill="#280D75" stroke="#8D3396" stroke-width="1.15068"/>
<g filter="url(#filter1_i_3678_55981)">
<g filter="url(#filter2_i_3678_55981)">
<path d="M11.022 11.6893C10.9151 11.5636 10.9226 11.3768 11.0394 11.2601C11.1561 11.1434 11.3429 11.1358 11.4686 11.2428L16.1059 15.1866C16.4657 15.4926 16.4878 16.0405 16.1538 16.3745C15.8198 16.7085 15.2719 16.6864 14.9659 16.3266L11.022 11.6893Z" fill="#FFCA00"/>
</g>
<g filter="url(#filter3_i_3678_55981)">
<path d="M20.5286 21.1968C20.6547 21.3035 20.8415 21.2957 20.9583 21.1789C21.0751 21.0621 21.0829 20.8753 20.9762 20.7492L17.1851 16.2688C16.8803 15.9085 16.3326 15.8858 15.9989 16.2195C15.6652 16.5532 15.6879 17.1009 16.0482 17.4057L20.5286 21.1968Z" fill="#FFCA00"/>
</g>
</g>
<g filter="url(#filter4_i_3678_55981)">
<circle cx="11.6603" cy="11.8799" r="0.876712" transform="rotate(-45 11.6603 11.8799)" fill="#FFCA00"/>
</g>
<g filter="url(#filter5_i_3678_55981)">
<circle cx="20.34" cy="20.5588" r="0.876712" transform="rotate(-45 20.34 20.5588)" fill="#FFCA00"/>
</g>
<g filter="url(#filter6_i_3678_55981)">
<g filter="url(#filter7_i_3678_55981)">
<path d="M11.468 21.1954C11.3423 21.3023 11.1555 21.2948 11.0388 21.178C10.922 21.0613 10.9145 20.8745 11.0214 20.7488L14.9653 16.1115C15.2713 15.7517 15.8192 15.7296 16.1532 16.0636C16.4872 16.3976 16.4651 16.9455 16.1053 17.2515L11.468 21.1954Z" fill="#FFCA00"/>
</g>
<g filter="url(#filter8_i_3678_55981)">
<path d="M20.9756 11.689C21.0823 11.5629 21.0745 11.376 20.9577 11.2592C20.8409 11.1424 20.6541 11.1346 20.528 11.2413L16.0476 15.0324C15.6873 15.3373 15.6646 15.8849 15.9983 16.2187C16.332 16.5524 16.8797 16.5296 17.1845 16.1693L20.9756 11.689Z" fill="#FFCA00"/>
</g>
</g>
<g filter="url(#filter9_i_3678_55981)">
<ellipse cx="11.6597" cy="20.5584" rx="0.876712" ry="0.876712" transform="rotate(-135 11.6597 20.5584)" fill="#FFCA00"/>
</g>
<g filter="url(#filter10_i_3678_55981)">
<ellipse cx="20.3394" cy="11.8792" rx="0.876713" ry="0.876712" transform="rotate(-135 20.3394 11.8792)" fill="#FFCA00"/>
</g>
<g filter="url(#filter11_i_3678_55981)">
<circle cx="16.0001" cy="16.2192" r="1.9726" transform="rotate(-45 16.0001 16.2192)" fill="#FFCA00"/>
</g>
<defs>
<filter id="filter0_i_3678_55981" x="0" y="0" width="32" height="32" filterUnits="userSpaceOnUse" color-interpolation-filters="sRGB">
<feFlood flood-opacity="0" result="BackgroundImageFix"/>
<feBlend mode="normal" in="SourceGraphic" in2="BackgroundImageFix" result="shape"/>
<feColorMatrix in="SourceAlpha" type="matrix" values="0 0 0 0 0 0 0 0 0 0 0 0 0 0 0 0 0 0 127 0" result="hardAlpha"/>
<feOffset/>
<feGaussianBlur stdDeviation="0.412765"/>
<feComposite in2="hardAlpha" operator="arithmetic" k2="-1" k3="1"/>
<feColorMatrix type="matrix" values="0 0 0 0 0 0 0 0 0 0 0 0 0 0 0 0 0 0 0.25 0"/>
<feBlend mode="normal" in2="shape" result="effect1_innerShadow_3678_55981"/>
</filter>
<filter id="filter1_i_3678_55981" x="10.9468" y="11.1672" width="10.1045" height="10.1047" filterUnits="userSpaceOnUse" color-interpolation-filters="sRGB">
<feFlood flood-opacity="0" result="BackgroundImageFix"/>
<feBlend mode="normal" in="SourceGraphic" in2="BackgroundImageFix" result="shape"/>
<feColorMatrix in="SourceAlpha" type="matrix" values="0 0 0 0 0 0 0 0 0 0 0 0 0 0 0 0 0 0 127 0" result="hardAlpha"/>
<feOffset/>
<feGaussianBlur stdDeviation="0.412765"/>
<feComposite in2="hardAlpha" operator="arithmetic" k2="-1" k3="1"/>
<feColorMatrix type="matrix" values="0 0 0 0 0 0 0 0 0 0 0 0 0 0 0 0 0 0 0.25 0"/>
<feBlend mode="normal" in2="shape" result="effect1_innerShadow_3678_55981"/>
</filter>
<filter id="filter2_i_3678_55981" x="10.9468" y="11.1672" width="5.44385" height="5.44409" filterUnits="userSpaceOnUse" color-interpolation-filters="sRGB">
<feFlood flood-opacity="0" result="BackgroundImageFix"/>
<feBlend mode="normal" in="SourceGraphic" in2="BackgroundImageFix" result="shape"/>
<feColorMatrix in="SourceAlpha" type="matrix" values="0 0 0 0 0 0 0 0 0 0 0 0 0 0 0 0 0 0 127 0" result="hardAlpha"/>
<feOffset/>
<feGaussianBlur stdDeviation="0.412765"/>
<feComposite in2="hardAlpha" operator="arithmetic" k2="-1" k3="1"/>
<feColorMatrix type="matrix" values="0 0 0 0 0 0 0 0 0 0 0 0 0 0 0 0 0 0 0.25 0"/>
<feBlend mode="normal" in2="shape" result="effect1_innerShadow_3678_55981"/>
</filter>
<filter id="filter3_i_3678_55981" x="15.7627" y="15.9832" width="5.28857" height="5.28882" filterUnits="userSpaceOnUse" color-interpolation-filters="sRGB">
<feFlood flood-opacity="0" result="BackgroundImageFix"/>
<feBlend mode="normal" in="SourceGraphic" in2="BackgroundImageFix" result="shape"/>
<feColorMatrix in="SourceAlpha" type="matrix" values="0 0 0 0 0 0 0 0 0 0 0 0 0 0 0 0 0 0 127 0" result="hardAlpha"/>
<feOffset/>
<feGaussianBlur stdDeviation="0.412765"/>
<feComposite in2="hardAlpha" operator="arithmetic" k2="-1" k3="1"/>
<feColorMatrix type="matrix" values="0 0 0 0 0 0 0 0 0 0 0 0 0 0 0 0 0 0 0.25 0"/>
<feBlend mode="normal" in2="shape" result="effect1_innerShadow_3678_55981"/>
</filter>
<filter id="filter4_i_3678_55981" x="10.7837" y="11.0032" width="1.75342" height="1.75342" filterUnits="userSpaceOnUse" color-interpolation-filters="sRGB">
<feFlood flood-opacity="0" result="BackgroundImageFix"/>
<feBlend mode="normal" in="SourceGraphic" in2="BackgroundImageFix" result="shape"/>
<feColorMatrix in="SourceAlpha" type="matrix" values="0 0 0 0 0 0 0 0 0 0 0 0 0 0 0 0 0 0 127 0" result="hardAlpha"/>
<feOffset/>
<feGaussianBlur stdDeviation="0.412765"/>
<feComposite in2="hardAlpha" operator="arithmetic" k2="-1" k3="1"/>
<feColorMatrix type="matrix" values="0 0 0 0 0 0 0 0 0 0 0 0 0 0 0 0 0 0 0.25 0"/>
<feBlend mode="normal" in2="shape" result="effect1_innerShadow_3678_55981"/>
</filter>
<filter id="filter5_i_3678_55981" x="19.4634" y="19.6821" width="1.75342" height="1.75342" filterUnits="userSpaceOnUse" color-interpolation-filters="sRGB">
<feFlood flood-opacity="0" result="BackgroundImageFix"/>
<feBlend mode="normal" in="SourceGraphic" in2="BackgroundImageFix" result="shape"/>
<feColorMatrix in="SourceAlpha" type="matrix" values="0 0 0 0 0 0 0 0 0 0 0 0 0 0 0 0 0 0 127 0" result="hardAlpha"/>
<feOffset/>
<feGaussianBlur stdDeviation="0.412765"/>
<feComposite in2="hardAlpha" operator="arithmetic" k2="-1" k3="1"/>
<feColorMatrix type="matrix" values="0 0 0 0 0 0 0 0 0 0 0 0 0 0 0 0 0 0 0.25 0"/>
<feBlend mode="normal" in2="shape" result="effect1_innerShadow_3678_55981"/>
</filter>
<filter id="filter6_i_3678_55981" x="10.9458" y="11.1661" width="10.105" height="10.1047" filterUnits="userSpaceOnUse" color-interpolation-filters="sRGB">
<feFlood flood-opacity="0" result="BackgroundImageFix"/>
<feBlend mode="normal" in="SourceGraphic" in2="BackgroundImageFix" result="shape"/>
<feColorMatrix in="SourceAlpha" type="matrix" values="0 0 0 0 0 0 0 0 0 0 0 0 0 0 0 0 0 0 127 0" result="hardAlpha"/>
<feOffset/>
<feGaussianBlur stdDeviation="0.412765"/>
<feComposite in2="hardAlpha" operator="arithmetic" k2="-1" k3="1"/>
<feColorMatrix type="matrix" values="0 0 0 0 0 0 0 0 0 0 0 0 0 0 0 0 0 0 0.25 0"/>
<feBlend mode="normal" in2="shape" result="effect1_innerShadow_3678_55981"/>
</filter>
<filter id="filter7_i_3678_55981" x="10.9458" y="15.8268" width="5.44434" height="5.44409" filterUnits="userSpaceOnUse" color-interpolation-filters="sRGB">
<feFlood flood-opacity="0" result="BackgroundImageFix"/>
<feBlend mode="normal" in="SourceGraphic" in2="BackgroundImageFix" result="shape"/>
<feColorMatrix in="SourceAlpha" type="matrix" values="0 0 0 0 0 0 0 0 0 0 0 0 0 0 0 0 0 0 127 0" result="hardAlpha"/>
<feOffset/>
<feGaussianBlur stdDeviation="0.412765"/>
<feComposite in2="hardAlpha" operator="arithmetic" k2="-1" k3="1"/>
<feColorMatrix type="matrix" values="0 0 0 0 0 0 0 0 0 0 0 0 0 0 0 0 0 0 0.25 0"/>
<feBlend mode="normal" in2="shape" result="effect1_innerShadow_3678_55981"/>
</filter>
<filter id="filter8_i_3678_55981" x="15.7622" y="11.1661" width="5.28857" height="5.28882" filterUnits="userSpaceOnUse" color-interpolation-filters="sRGB">
<feFlood flood-opacity="0" result="BackgroundImageFix"/>
<feBlend mode="normal" in="SourceGraphic" in2="BackgroundImageFix" result="shape"/>
<feColorMatrix in="SourceAlpha" type="matrix" values="0 0 0 0 0 0 0 0 0 0 0 0 0 0 0 0 0 0 127 0" result="hardAlpha"/>
<feOffset/>
<feGaussianBlur stdDeviation="0.412765"/>
<feComposite in2="hardAlpha" operator="arithmetic" k2="-1" k3="1"/>
<feColorMatrix type="matrix" values="0 0 0 0 0 0 0 0 0 0 0 0 0 0 0 0 0 0 0.25 0"/>
<feBlend mode="normal" in2="shape" result="effect1_innerShadow_3678_55981"/>
</filter>
<filter id="filter9_i_3678_55981" x="10.7827" y="19.6816" width="1.75391" height="1.75342" filterUnits="userSpaceOnUse" color-interpolation-filters="sRGB">
<feFlood flood-opacity="0" result="BackgroundImageFix"/>
<feBlend mode="normal" in="SourceGraphic" in2="BackgroundImageFix" result="shape"/>
<feColorMatrix in="SourceAlpha" type="matrix" values="0 0 0 0 0 0 0 0 0 0 0 0 0 0 0 0 0 0 127 0" result="hardAlpha"/>
<feOffset/>
<feGaussianBlur stdDeviation="0.412765"/>
<feComposite in2="hardAlpha" operator="arithmetic" k2="-1" k3="1"/>
<feColorMatrix type="matrix" values="0 0 0 0 0 0 0 0 0 0 0 0 0 0 0 0 0 0 0.25 0"/>
<feBlend mode="normal" in2="shape" result="effect1_innerShadow_3678_55981"/>
</filter>
<filter id="filter10_i_3678_55981" x="19.4624" y="11.0024" width="1.75391" height="1.75342" filterUnits="userSpaceOnUse" color-interpolation-filters="sRGB">
<feFlood flood-opacity="0" result="BackgroundImageFix"/>
<feBlend mode="normal" in="SourceGraphic" in2="BackgroundImageFix" result="shape"/>
<feColorMatrix in="SourceAlpha" type="matrix" values="0 0 0 0 0 0 0 0 0 0 0 0 0 0 0 0 0 0 127 0" result="hardAlpha"/>
<feOffset/>
<feGaussianBlur stdDeviation="0.412765"/>
<feComposite in2="hardAlpha" operator="arithmetic" k2="-1" k3="1"/>
<feColorMatrix type="matrix" values="0 0 0 0 0 0 0 0 0 0 0 0 0 0 0 0 0 0 0.25 0"/>
<feBlend mode="normal" in2="shape" result="effect1_innerShadow_3678_55981"/>
</filter>
<filter id="filter11_i_3678_55981" x="14.0273" y="14.2466" width="3.94531" height="3.94531" filterUnits="userSpaceOnUse" color-interpolation-filters="sRGB">
<feFlood flood-opacity="0" result="BackgroundImageFix"/>
<feBlend mode="normal" in="SourceGraphic" in2="BackgroundImageFix" result="shape"/>
<feColorMatrix in="SourceAlpha" type="matrix" values="0 0 0 0 0 0 0 0 0 0 0 0 0 0 0 0 0 0 127 0" result="hardAlpha"/>
<feOffset/>
<feGaussianBlur stdDeviation="0.412765"/>
<feComposite in2="hardAlpha" operator="arithmetic" k2="-1" k3="1"/>
<feColorMatrix type="matrix" values="0 0 0 0 0 0 0 0 0 0 0 0 0 0 0 0 0 0 0.25 0"/>
<feBlend mode="normal" in2="shape" result="effect1_innerShadow_3678_55981"/>
</filter>
<linearGradient id="paint0_linear_3678_55981" x1="16" y1="0" x2="16" y2="32" gradientUnits="userSpaceOnUse">
<stop stop-color="#601AC2"/>
<stop offset="1" stop-color="#A9427A"/>
</linearGradient>
</defs>
</svg>
