<svg width="32" height="32" viewBox="0 0 32 32" fill="none" xmlns="http://www.w3.org/2000/svg">
<path d="M14 0H20.411C26.8114 0 32 5.18859 32 11.589V30.7451C32 31.4382 31.4382 32 30.7451 32H14V0Z" fill="url(#paint0_linear_3678_26607)"/>
<path d="M1.3335 12C1.3335 5.37258 6.70608 0 13.3335 0C19.9609 0 25.3335 5.37258 25.3335 12V32H2.73837C1.96248 32 1.3335 31.371 1.3335 30.5951V12Z" fill="url(#paint1_linear_3678_26607)"/>
<path d="M4 11.3333C4 6.54682 7.8802 2.66663 12.6667 2.66663H13.3333C18.1198 2.66663 22 6.54682 22 11.3333H4Z" fill="url(#paint2_linear_3678_26607)"/>
<path opacity="0.4" d="M7.3335 11.3333C7.3335 8.38781 9.72131 6 12.6668 6H13.3335C16.279 6 18.6668 8.38781 18.6668 11.3333H7.3335Z" fill="#142664"/>
<path d="M10.667 11.3334C10.667 10.2288 11.5624 9.33337 12.667 9.33337H13.3337C14.4382 9.33337 15.3337 10.2288 15.3337 11.3334H10.667Z" fill="#EF177F"/>
<rect x="3.3335" y="14.6666" width="6" height="8" rx="2.03175" fill="url(#paint3_linear_3678_26607)"/>
<rect x="3.84143" y="15.1746" width="4.98413" height="6.98413" rx="1.52381" stroke="#882C2C" stroke-opacity="0.22" stroke-width="1.01587"/>
<rect x="10" y="14.6666" width="6" height="8" rx="2.03175" fill="url(#paint4_linear_3678_26607)"/>
<rect x="10.5079" y="15.1746" width="4.98413" height="6.98413" rx="1.52381" stroke="#882C2C" stroke-opacity="0.22" stroke-width="1.01587"/>
<rect x="16.667" y="14.6666" width="6" height="8" rx="2.03175" fill="url(#paint5_linear_3678_26607)"/>
<rect x="17.1749" y="15.1746" width="4.98413" height="6.98413" rx="1.52381" stroke="#882C2C" stroke-opacity="0.22" stroke-width="1.01587"/>
<rect x="4.75537" y="24" width="16.6222" height="4.39999" rx="1.01587" fill="#EF177F"/>
<rect x="6.71094" y="24.9778" width="12.7111" height="1.46666" rx="0.733331" fill="#142664"/>
<path d="M4.75537 27.4222H21.3776V29.3778H4.75537V27.4222Z" fill="#142664"/>
<path d="M6.72116 30.3556C4.57005 30.3556 4.19524 28.7259 4.27672 27.9111H20.6443V30.3556H6.72116Z" fill="#EF177F"/>
<path d="M20.4101 30.3556C18.259 30.3556 17.8842 28.7259 17.9657 27.9111H21.3778V30.3556H20.4101Z" fill="#142664"/>
<path d="M6.48236 20.5777H4.66699L5.98927 17.3663H4.88287V16.6666H8.08921L6.48236 20.5777Z" fill="#7518FF"/>
<path d="M13.1489 20.5777H11.3335L12.6558 17.3663H11.5494V16.6666H14.7557L13.1489 20.5777Z" fill="#7518FF"/>
<path d="M19.8154 20.5777H18L19.3223 17.3663H18.2159V16.6666H21.4222L19.8154 20.5777Z" fill="#7518FF"/>
<rect x="28.1333" y="16.2666" width="0.977776" height="9.77775" fill="#FFB8DA"/>
<rect y="11.3334" width="26.6667" height="2" rx="1" fill="#EF177F"/>
<circle cx="28.5" cy="16" r="1.5" fill="#AF0074"/>
<circle cx="28.25" cy="15.75" r="1.25" fill="#EF177F"/>
<circle cx="28.5" cy="25.25" r="2.25" fill="#AF0074"/>
<circle cx="28.125" cy="24.875" r="1.875" fill="#EF177F"/>
<defs>
<linearGradient id="paint0_linear_3678_26607" x1="23" y1="0" x2="23" y2="32" gradientUnits="userSpaceOnUse">
<stop stop-color="#0634D0"/>
<stop offset="1" stop-color="#58008D"/>
</linearGradient>
<linearGradient id="paint1_linear_3678_26607" x1="13.3335" y1="0" x2="13.3335" y2="32" gradientUnits="userSpaceOnUse">
<stop stop-color="#3058FE"/>
<stop offset="1" stop-color="#8F00FF"/>
</linearGradient>
<linearGradient id="paint2_linear_3678_26607" x1="13" y1="2.66663" x2="13" y2="11.3333" gradientUnits="userSpaceOnUse">
<stop stop-color="#FFE615"/>
<stop offset="1" stop-color="#90EF17" stop-opacity="0"/>
</linearGradient>
<linearGradient id="paint3_linear_3678_26607" x1="6.3335" y1="14.6666" x2="6.3335" y2="22.6666" gradientUnits="userSpaceOnUse">
<stop stop-color="#FFF501"/>
<stop offset="1" stop-color="#FD8C8C"/>
</linearGradient>
<linearGradient id="paint4_linear_3678_26607" x1="13" y1="14.6666" x2="13" y2="22.6666" gradientUnits="userSpaceOnUse">
<stop stop-color="#FFF501"/>
<stop offset="1" stop-color="#FD8C8C"/>
</linearGradient>
<linearGradient id="paint5_linear_3678_26607" x1="19.667" y1="14.6666" x2="19.667" y2="22.6666" gradientUnits="userSpaceOnUse">
<stop stop-color="#FFF501"/>
<stop offset="1" stop-color="#FD8C8C"/>
</linearGradient>
</defs>
</svg>
