<svg width="20" height="20" viewBox="0 0 20 20" fill="none" xmlns="http://www.w3.org/2000/svg">
<path d="M9.41177 6.45271L10 6.14709L10.5882 6.45271V7.55711H18.8235C19.4733 7.55711 20 8.07764 20 8.71974V18.6021C20 19.2442 19.4733 19.7647 18.8235 19.7647H1.17647C0.526724 19.7647 0 19.2442 0 18.6021V8.71974C0 8.07764 0.526724 7.55711 1.17647 7.55711H9.41177V6.45271ZM7.35294 10.7543V16.5675C7.35294 16.8885 7.6163 17.1488 7.94118 17.1488H12.0588C12.3837 17.1488 12.6471 16.8885 12.6471 16.5675V10.7543C12.6471 10.4333 12.3837 10.173 12.0588 10.173H7.94118C7.6163 10.173 7.35294 10.4333 7.35294 10.7543ZM2.64706 10.173C1.99731 10.173 1.47059 10.6936 1.47059 11.3357V15.9862C1.47059 16.6283 1.99731 17.1488 2.64706 17.1488H5.88235C6.20723 17.1488 6.47059 16.8885 6.47059 16.5675V10.7543C6.47059 10.4333 6.20723 10.173 5.88235 10.173H2.64706ZM17.3529 10.173H14.1176C13.7928 10.173 13.5294 10.4333 13.5294 10.7543V16.5675C13.5294 16.8885 13.7928 17.1488 14.1176 17.1488H17.3529C18.0027 17.1488 18.5294 16.6283 18.5294 15.9862V11.3357C18.5294 10.6936 18.0027 10.173 17.3529 10.173Z" fill="#FE3030"/>
<path d="M11.471 11.3356H8.52981V15.9862H11.471V11.3356Z" fill="#A5E41E"/>
<path d="M5.29452 15.9862V11.3356H2.94158C2.77914 11.3356 2.64746 11.4658 2.64746 11.6263V15.6955C2.64746 15.856 2.77914 15.9862 2.94158 15.9862H5.29452Z" fill="#A5E41E"/>
<path d="M17.0592 11.3356H14.7063V15.9862H17.0592C17.2217 15.9862 17.3533 15.856 17.3533 15.6955V11.6263C17.3533 11.4658 17.2217 11.3356 17.0592 11.3356Z" fill="#A5E41E"/>
<path d="M7.86473 5.21528C7.78231 5.69016 8.28669 6.05229 8.71823 5.82809L10.0004 5.16194L11.2826 5.82809C11.7141 6.05229 12.2185 5.69016 12.1361 5.21528L11.8912 3.80436L12.9285 2.80514C13.2776 2.46882 13.085 1.88288 12.6025 1.81359L11.169 1.60775L10.5279 0.324045C10.3121 -0.108015 9.68869 -0.108015 9.47292 0.324045L8.83182 1.60775L7.39831 1.81359C6.91583 1.88288 6.72318 2.46882 7.0723 2.80514L8.10961 3.80436L7.86473 5.21528Z" fill="#A5E41E"/>
</svg>
