<svg width="20" height="20" viewBox="0 0 20 20" fill="none" xmlns="http://www.w3.org/2000/svg">
<path fill-rule="evenodd" clip-rule="evenodd" d="M5.35557 0.35559C5.58308 0.128071 5.89162 0.000163443 6.21337 0H13.7866C14.1084 0.000163443 14.4169 0.128071 14.6444 0.35559C14.872 0.583109 14.9998 0.891639 15 1.2134V9L14 10L15 11V18.7858C15.0001 19.1077 14.8723 19.4164 14.6447 19.6441C14.4172 19.8718 14.1085 19.9998 13.7866 20H6.21337C5.89148 19.9998 5.58282 19.8718 5.35528 19.6441C5.12774 19.4164 4.99995 19.1077 5 18.7858V11L6 10L5 9V1.2134C5.00016 0.891639 5.12805 0.583109 5.35557 0.35559ZM7 3C7.55228 3 8 2.55228 8 2C8 1.44772 7.55228 1 7 1C6.44772 1 6 1.44772 6 2C6 2.55228 6.44772 3 7 3ZM7 9C7.55228 9 8 8.55229 8 8C8 7.44772 7.55228 7 7 7C6.44772 7 6 7.44772 6 8C6 8.55229 6.44772 9 7 9ZM11 5C11 5.55228 10.5523 6 10 6C9.44772 6 9 5.55228 9 5C9 4.44772 9.44772 4 10 4C10.5523 4 11 4.44772 11 5ZM13 13C13.5523 13 14 12.5523 14 12C14 11.4477 13.5523 11 13 11C12.4477 11 12 11.4477 12 12C12 12.5523 12.4477 13 13 13ZM11 15C11 15.5523 10.5523 16 10 16C9.44772 16 9 15.5523 9 15C9 14.4477 9.44772 14 10 14C10.5523 14 11 14.4477 11 15ZM7 19C7.55228 19 8 18.5523 8 18C8 17.4477 7.55228 17 7 17C6.44772 17 6 17.4477 6 18C6 18.5523 6.44772 19 7 19ZM14 8C14 8.55229 13.5523 9 13 9C12.4477 9 12 8.55229 12 8C12 7.44772 12.4477 7 13 7C13.5523 7 14 7.44772 14 8ZM13 3C13.5523 3 14 2.55228 14 2C14 1.44772 13.5523 1 13 1C12.4477 1 12 1.44772 12 2C12 2.55228 12.4477 3 13 3Z" fill="#0085FF"/>
</svg>
