<svg width="32" height="32" viewBox="0 0 32 32" fill="none" xmlns="http://www.w3.org/2000/svg">
<path d="M0 10.5C0 4.70101 4.70101 0 10.5 0H21.5C27.299 0 32 4.70101 32 10.5V21.5C32 27.299 27.299 32 21.5 32H10.5C4.70101 32 0 27.299 0 21.5V10.5Z" fill="#56B729"/>
<path fill-rule="evenodd" clip-rule="evenodd" d="M21.5 2H10.5C5.80558 2 2 5.80558 2 10.5V21.5C2 26.1944 5.80558 30 10.5 30H21.5C26.1944 30 30 26.1944 30 21.5V10.5C30 5.80558 26.1944 2 21.5 2ZM10.5 0C4.70101 0 0 4.70101 0 10.5V21.5C0 27.299 4.70101 32 10.5 32H21.5C27.299 32 32 27.299 32 21.5V10.5C32 4.70101 27.299 0 21.5 0H10.5Z" fill="#044930"/>
<path d="M7.75342 9.50711C7.75342 9.09092 8.0908 8.75354 8.50699 8.75354H14.5355C14.9517 8.75354 15.2891 9.09092 15.2891 9.50711V23.0713C15.2891 23.4875 14.9517 23.8249 14.5355 23.8249H8.50699C8.0908 23.8249 7.75342 23.4875 7.75342 23.0713L7.75342 9.50711Z" fill="#044930"/>
<path d="M7.75342 9.50711C7.75342 9.09092 8.0908 8.75354 8.50699 8.75354H14.5355C14.9517 8.75354 15.2891 9.09092 15.2891 9.50711V23.0713C15.2891 23.4875 14.9517 23.8249 14.5355 23.8249H8.50699C8.0908 23.8249 7.75342 23.4875 7.75342 23.0713L7.75342 9.50711Z" fill="#102E23"/>
<path fill-rule="evenodd" clip-rule="evenodd" d="M7.26794 8.26796C7.43939 8.09651 7.67189 8.00012 7.91436 8L13.6213 8C13.8638 8.00012 14.0963 8.09651 14.2677 8.26796C14.4392 8.43941 14.5356 8.67191 14.5357 8.91438V14.7821L13.7821 15.5357L14.5357 16.2892V22.1564C14.5357 22.3989 14.4394 22.6316 14.268 22.8032C14.0965 22.9748 13.8639 23.0712 13.6213 23.0714H7.91436C7.67179 23.0712 7.4392 22.9748 7.26773 22.8032C7.09626 22.6316 6.99996 22.3989 7 22.1564L7 8.91438C7.00012 8.67191 7.09649 8.43941 7.26794 8.26796ZM14.5357 16.2892L14.5357 16.2892V14.7821L14.5357 14.7821V16.2892ZM8.50714 10.2607C8.92333 10.2607 9.26071 9.92331 9.26071 9.50713C9.26071 9.09095 8.92333 8.75356 8.50714 8.75356C8.09096 8.75356 7.75358 9.09095 7.75358 9.50713C7.75358 9.92331 8.09096 10.2607 8.50714 10.2607ZM8.50714 14.7821C8.92333 14.7821 9.26071 14.4447 9.26071 14.0285C9.26071 13.6124 8.92333 13.275 8.50714 13.275C8.09096 13.275 7.75358 13.6124 7.75358 14.0285C7.75358 14.4447 8.09096 14.7821 8.50714 14.7821ZM11.5214 11.7678C11.5214 12.184 11.184 12.5214 10.7678 12.5214C10.3517 12.5214 10.0143 12.184 10.0143 11.7678C10.0143 11.3516 10.3517 11.0143 10.7678 11.0143C11.184 11.0143 11.5214 11.3516 11.5214 11.7678ZM13.0286 17.7964C13.4447 17.7964 13.7821 17.459 13.7821 17.0428C13.7821 16.6266 13.4447 16.2892 13.0286 16.2892C12.6124 16.2892 12.275 16.6266 12.275 17.0428C12.275 17.459 12.6124 17.7964 13.0286 17.7964ZM11.5214 19.3035C11.5214 19.7197 11.184 20.0571 10.7678 20.0571C10.3517 20.0571 10.0143 19.7197 10.0143 19.3035C10.0143 18.8873 10.3517 18.5499 10.7678 18.5499C11.184 18.5499 11.5214 18.8873 11.5214 19.3035ZM8.50714 22.3178C8.92333 22.3178 9.26071 21.9804 9.26071 21.5642C9.26071 21.148 8.92333 20.8106 8.50714 20.8106C8.09096 20.8106 7.75358 21.148 7.75358 21.5642C7.75358 21.9804 8.09096 22.3178 8.50714 22.3178ZM13.7821 14.0285C13.7821 14.4447 13.4447 14.7821 13.0286 14.7821C12.6124 14.7821 12.275 14.4447 12.275 14.0285C12.275 13.6124 12.6124 13.275 13.0286 13.275C13.4447 13.275 13.7821 13.6124 13.7821 14.0285ZM13.0286 10.2607C13.4447 10.2607 13.7821 9.92331 13.7821 9.50713C13.7821 9.09095 13.4447 8.75356 13.0286 8.75356C12.6124 8.75356 12.275 9.09095 12.275 9.50713C12.275 9.92331 12.6124 10.2607 13.0286 10.2607ZM7.00001 14.7821L7.75358 15.5357L7.00001 16.2892V14.7821Z" fill="url(#paint0_linear_3678_12775)"/>
<path d="M17.7759 9.50723C17.7759 9.09105 18.1133 8.75366 18.5294 8.75366H24.558C24.9742 8.75366 25.3116 9.09105 25.3116 9.50723V23.0715C25.3116 23.4876 24.9742 23.825 24.558 23.825H18.5294C18.1133 23.825 17.7759 23.4876 17.7759 23.0715V9.50723Z" fill="#044930"/>
<path d="M17.7759 9.50723C17.7759 9.09105 18.1133 8.75366 18.5294 8.75366H24.558C24.9742 8.75366 25.3116 9.09105 25.3116 9.50723V23.0715C25.3116 23.4876 24.9742 23.825 24.558 23.825H18.5294C18.1133 23.825 17.7759 23.4876 17.7759 23.0715V9.50723Z" fill="#102E23"/>
<path fill-rule="evenodd" clip-rule="evenodd" d="M17.2904 8.26796C17.4619 8.09651 17.6944 8.00012 17.9368 8H23.6438C23.8862 8.00012 24.1188 8.09651 24.2902 8.26796C24.4616 8.43941 24.558 8.67191 24.5581 8.91438V14.7821L23.8046 15.5357L24.5581 16.2893L24.5581 22.1564C24.5582 22.3989 24.4619 22.6316 24.2904 22.8032C24.1189 22.9748 23.8864 23.0712 23.6438 23.0714H17.9368C17.6942 23.0712 17.4617 22.9748 17.2902 22.8032C17.1187 22.6316 17.0224 22.3989 17.0225 22.1564V8.91438C17.0226 8.67191 17.119 8.43941 17.2904 8.26796ZM24.5581 16.2893V14.7821L24.5581 14.7821L24.5581 16.2893ZM23.051 10.2607C23.4672 10.2607 23.8046 9.92334 23.8046 9.50716C23.8046 9.09097 23.4672 8.75359 23.051 8.75359C22.6348 8.75359 22.2974 9.09097 22.2974 9.50716C22.2974 9.92334 22.6348 10.2607 23.051 10.2607ZM21.5439 11.7679C21.5439 12.184 21.2065 12.5214 20.7903 12.5214C20.3741 12.5214 20.0367 12.184 20.0367 11.7679C20.0367 11.3517 20.3741 11.0143 20.7903 11.0143C21.2065 11.0143 21.5439 11.3517 21.5439 11.7679ZM19.2832 14.0286C19.2832 14.4448 18.9458 14.7821 18.5296 14.7821C18.1134 14.7821 17.776 14.4448 17.776 14.0286C17.776 13.6124 18.1134 13.275 18.5296 13.275C18.9458 13.275 19.2832 13.6124 19.2832 14.0286ZM23.051 17.7964C23.4672 17.7964 23.8046 17.459 23.8046 17.0428C23.8046 16.6267 23.4672 16.2893 23.051 16.2893C22.6348 16.2893 22.2974 16.6267 22.2974 17.0428C22.2974 17.459 22.6348 17.7964 23.051 17.7964ZM19.2832 21.5642C19.2832 21.9804 18.9458 22.3178 18.5296 22.3178C18.1134 22.3178 17.776 21.9804 17.776 21.5642C17.776 21.1481 18.1134 20.8107 18.5296 20.8107C18.9458 20.8107 19.2832 21.1481 19.2832 21.5642ZM17.0225 14.7821L17.776 15.5357L17.0225 16.2893V14.7821Z" fill="url(#paint1_linear_3678_12775)"/>
<path opacity="0.5" d="M8 6C8 5.72386 8.22386 5.5 8.5 5.5H23.5C23.7761 5.5 24 5.72386 24 6C24 6.27614 23.7761 6.5 23.5 6.5H8.5C8.22386 6.5 8 6.27614 8 6Z" fill="#FFEDAE"/>
<path opacity="0.5" d="M8 26C8 25.7239 8.22386 25.5 8.5 25.5H23.5C23.7761 25.5 24 25.7239 24 26C24 26.2761 23.7761 26.5 23.5 26.5H8.5C8.22386 26.5 8 26.2761 8 26Z" fill="#FFEDAE"/>
<path opacity="0.5" d="M5 24C4.72386 24 4.5 23.7761 4.5 23.5L4.5 8.5C4.5 8.22386 4.72386 8 5 8C5.27614 8 5.5 8.22386 5.5 8.5L5.5 23.5C5.5 23.7761 5.27614 24 5 24Z" fill="#FFEDAE"/>
<path opacity="0.5" d="M27 24C26.7239 24 26.5 23.7761 26.5 23.5L26.5 8.5C26.5 8.22386 26.7239 8 27 8C27.2761 8 27.5 8.22386 27.5 8.5L27.5 23.5C27.5 23.7761 27.2761 24 27 24Z" fill="#FFEDAE"/>
<defs>
<linearGradient id="paint0_linear_3678_12775" x1="16.0428" y1="13.275" x2="7" y2="22.3178" gradientUnits="userSpaceOnUse">
<stop offset="0.117732" stop-color="#FFEDAD"/>
<stop offset="1" stop-color="#FFEDAB"/>
</linearGradient>
<linearGradient id="paint1_linear_3678_12775" x1="26.0653" y1="13.275" x2="17.0225" y2="22.3178" gradientUnits="userSpaceOnUse">
<stop offset="0.117732" stop-color="#FFEDAD"/>
<stop offset="1" stop-color="#FFEDAB"/>
</linearGradient>
</defs>
</svg>
