<svg width="19" height="19" viewBox="0 0 19 19" fill="none" xmlns="http://www.w3.org/2000/svg">
<path fill-rule="evenodd" clip-rule="evenodd" d="M0 6C0 5.44772 0.447715 5 1 5H18C18.5523 5 19 5.44772 19 6V14C19 14.5523 18.5523 15 18 15H1C0.447715 15 0 14.5523 0 14V6ZM12 10C12 11.6569 10.8807 13 9.5 13C8.11929 13 7 11.6569 7 10C7 8.34315 8.11929 7 9.5 7C10.8807 7 12 8.34315 12 10ZM2.5 7C2.22386 7 2 7.22386 2 7.5C2 7.77614 2.22386 8 2.5 8H3.5C3.77614 8 4 7.77614 4 7.5C4 7.22386 3.77614 7 3.5 7H2.5ZM2.5 12C2.22386 12 2 12.2239 2 12.5C2 12.7761 2.22386 13 2.5 13H3.5C3.77614 13 4 12.7761 4 12.5C4 12.2239 3.77614 12 3.5 12H2.5ZM15 12.5C15 12.2239 15.2239 12 15.5 12H16.5C16.7761 12 17 12.2239 17 12.5C17 12.7761 16.7761 13 16.5 13H15.5C15.2239 13 15 12.7761 15 12.5ZM15.5 7C15.2239 7 15 7.22386 15 7.5C15 7.77614 15.2239 8 15.5 8H16.5C16.7761 8 17 7.77614 17 7.5C17 7.22386 16.7761 7 16.5 7H15.5Z" fill="#484B5C"/>
<path d="M2 2C2 1.44772 2.44772 1 3 1H16C16.5523 1 17 1.44772 17 2V4H2V2Z" fill="#484B5C"/>
<path d="M17 18C17 18.5523 16.5523 19 16 19H3C2.44771 19 2 18.5523 2 18V16H17V18Z" fill="#484B5C"/>
</svg>
