<svg width="32" height="32" viewBox="0 0 32 32" fill="none" xmlns="http://www.w3.org/2000/svg">
<rect x="1.5" y="12" width="29" height="8" fill="#B7FFDC"/>
<path d="M5 21.5H26.5V12.75C26.5 6.81294 21.6871 2 15.75 2C9.81294 2 5 6.81294 5 12.75V21.5Z" fill="url(#paint0_linear_3678_16520)"/>
<circle cx="8.5" cy="5" r="1.5" fill="#AF0074"/>
<circle cx="8.25" cy="4.75" r="1.25" fill="#EF177F"/>
<circle cx="23" cy="5" r="1.5" fill="#AF0074"/>
<circle cx="22.75" cy="4.75" r="1.25" fill="#EF177F"/>
<circle cx="16" cy="2" r="1.5" fill="#AF0074"/>
<circle cx="15.75" cy="1.75" r="1.25" fill="#EF177F"/>
<path d="M5 12.5H26.5V21.25C26.5 27.1871 21.6871 32 15.75 32C9.81294 32 5 27.1871 5 21.25V12.5Z" fill="#FFC46B"/>
<path d="M26.2195 9.53846C25.7287 8.5641 24.9224 8 24.081 8H7.88397C7.04257 8 6.23623 8.5641 5.74541 9.53846L5.5 10H26.5L26.2195 9.53846Z" fill="url(#paint1_linear_3678_16520)"/>
<path d="M26.5355 9.59998H5.49889C4.21023 9.59998 3.2002 10.7865 3.2002 12.2247V19.7753C3.2002 21.2135 4.24506 22.4 5.49889 22.4H11.6288C12.6388 22.4 13.5792 21.7887 14.1016 20.818L14.9723 19.2C15.4251 18.3371 16.5396 18.373 16.9576 19.2359L17.7935 20.9258C18.2462 21.8247 19.0821 22.4 20.0225 22.4H20.0573H26.5007C27.7545 22.4 28.7993 21.2135 28.7993 19.7753V12.2247C28.8342 10.7505 27.7893 9.59998 26.5355 9.59998Z" fill="url(#paint2_linear_3678_16520)"/>
<path d="M30.3999 12.8V19.2001L31.9999 18.8236V13.2183L30.3999 12.8Z" fill="#EF177F"/>
<path d="M0 18.8186L1.6 19.2001V12.8L0 13.1815V18.8186Z" fill="#EF177F"/>
<path d="M15.6373 25.9137L13.3794 25.616C12.9135 25.5545 12.5 25.9171 12.5 26.387C12.5 26.6904 12.6764 26.966 12.9518 27.0931L14.5333 27.8231C15.4639 28.2526 16.5361 28.2526 17.4667 27.8231L19.0482 27.0931C19.3236 26.966 19.5 26.6904 19.5 26.387C19.5 25.9171 19.0865 25.5545 18.6206 25.616L16.3627 25.9137C16.122 25.9455 15.878 25.9455 15.6373 25.9137Z" fill="#A73200"/>
<ellipse opacity="0.4" cx="9.25" cy="24" rx="2.25" ry="1" fill="white"/>
<ellipse opacity="0.4" cx="22.25" cy="24" rx="2.25" ry="1" fill="white"/>
<path d="M14.1318 22.6601L14.7335 21.3362C14.8958 20.9792 15.2518 20.75 15.6439 20.75H16.323C16.7319 20.75 17.0996 20.999 17.2514 21.3786L17.5 22L17.8218 22.6436C18.0612 23.1225 17.881 23.705 17.413 23.965L16.4856 24.4802C16.1836 24.648 15.8164 24.648 15.5144 24.4802L14.5565 23.9481C14.101 23.695 13.9161 23.1345 14.1318 22.6601Z" fill="url(#paint3_linear_3678_16520)"/>
<defs>
<linearGradient id="paint0_linear_3678_16520" x1="15.75" y1="21.5" x2="15.75" y2="2" gradientUnits="userSpaceOnUse">
<stop stop-color="#EF177F"/>
<stop offset="1" stop-color="#8317EF"/>
</linearGradient>
<linearGradient id="paint1_linear_3678_16520" x1="16" y1="8" x2="11.25" y2="10.75" gradientUnits="userSpaceOnUse">
<stop stop-color="#EF177F"/>
<stop offset="1" stop-color="#0E1980"/>
</linearGradient>
<linearGradient id="paint2_linear_3678_16520" x1="16.0002" y1="9.59998" x2="6.75012" y2="22" gradientUnits="userSpaceOnUse">
<stop stop-color="#00F0FF"/>
<stop offset="1" stop-color="#810074"/>
</linearGradient>
<linearGradient id="paint3_linear_3678_16520" x1="16.25" y1="20.75" x2="16.25" y2="23.25" gradientUnits="userSpaceOnUse">
<stop stop-color="#FF9900" stop-opacity="0"/>
<stop offset="1" stop-color="#EB7070"/>
</linearGradient>
</defs>
</svg>
