<svg width="20" height="20" viewBox="0 0 20 20" fill="none" xmlns="http://www.w3.org/2000/svg">
<path d="M16.5846 6H3.43669C2.63127 6 2 6.74157 2 7.64045V12.3595C2 13.2584 2.65304 14 3.43669 14H7.26785C7.89913 14 8.48686 13.618 8.81338 13.0112L9.35758 12C9.64056 11.4607 10.3371 11.4831 10.5984 12.0225L11.1208 13.0787C11.4038 13.6404 11.9262 14 12.5139 14H12.5357H16.5628C17.3464 14 17.9995 13.2584 17.9995 12.3595V7.64045C18.0212 6.7191 17.3682 6 16.5846 6Z" fill="#12AAEC"/>
<path d="M19 8V12L20 11.7647V8.26144L19 8Z" fill="#1AE7C2"/>
<path d="M16.813 4.76923C16.4858 4.28205 15.9482 4 15.3873 4H4.58932C4.02838 4 3.49082 4.28205 3.16361 4.76923L3 5H17L16.813 4.76923Z" fill="#1AE7C2"/>
<path d="M0 11.7616L1 12V8L0 8.23841V11.7616Z" fill="#1AE7C2"/>
</svg>
