<svg width="189" height="189" viewBox="0 0 189 189" fill="none" xmlns="http://www.w3.org/2000/svg">
<g clip-path="url(#clip0_3281_313692)">
<path d="M0 22C0 9.84973 9.84974 0 22 0H167C179.15 0 189 9.84974 189 22V167C189 179.15 179.15 189 167 189H22C9.84973 189 0 179.15 0 167V22Z" fill="url(#paint0_linear_3281_313692)"/>
<g style="mix-blend-mode:lighten">
<circle cx="161.287" cy="6.81487" r="114.036" fill="url(#paint1_radial_3281_313692)"/>
</g>
<g style="mix-blend-mode:lighten">
<ellipse cx="-14.9925" cy="130.392" rx="114.036" ry="114.036" fill="url(#paint2_radial_3281_313692)"/>
</g>
<rect opacity="0.4" x="132.664" y="52.702" width="11.8125" height="102.678" fill="url(#paint3_linear_3281_313692)"/>
<rect opacity="0.6" x="44.5244" y="109.947" width="11.8125" height="70.875" fill="url(#paint4_linear_3281_313692)"/>
<path d="M129.577 134.486C126.263 146.562 104.389 151.087 80.7198 144.592C57.0504 138.098 40.5488 123.043 43.8624 110.967C44.5906 108.313 46.5026 101.346 46.5026 101.346C46.5026 101.346 74.2517 95.7931 92.7195 100.861C109.974 105.595 132.217 124.865 132.217 124.865C132.217 124.865 130.475 131.213 129.577 134.486Z" fill="#BF8A00"/>
<ellipse cx="89.3596" cy="113.106" rx="44.4413" ry="22.6742" transform="rotate(15.3439 89.3596 113.106)" fill="#EFC52C"/>
<g filter="url(#filter0_i_3281_313692)">
<ellipse cx="89.3599" cy="113.105" rx="39.9065" ry="19.0463" transform="rotate(15.3439 89.3599 113.105)" fill="#C3912C"/>
</g>
<g filter="url(#filter1_d_3281_313692)">
<path d="M88.0622 106.253C87.7562 106.913 87.7912 107.506 88.167 108.032C88.5429 108.558 89.3447 109.177 90.5723 109.888C91.7999 110.599 92.9198 111.286 93.9319 111.948C94.944 112.61 95.7687 113.282 96.406 113.964C97.0433 114.646 97.4501 115.345 97.6265 116.061C97.8029 116.777 97.6955 117.557 97.3043 118.4C96.6497 119.812 95.3071 120.753 93.2766 121.225C91.2422 121.705 88.8499 121.654 86.0998 121.073L84.8738 123.717L81.5091 122.798L82.7583 120.105C80.2812 119.175 78.5492 117.992 77.5623 116.556C76.5575 115.125 76.4231 113.615 77.1591 112.029L84.3116 113.98C83.9088 114.849 83.881 115.594 84.2284 116.216C84.5758 116.837 85.2715 117.291 86.3155 117.575C87.2466 117.83 88.0545 117.852 88.7391 117.644C89.4058 117.44 89.8806 117.033 90.1633 116.424C90.45 115.806 90.3823 115.232 89.9602 114.703C89.5342 114.182 88.7427 113.576 87.5856 112.884C86.4247 112.2 85.3491 111.521 84.3588 110.846C83.3506 110.176 82.5278 109.499 81.8905 108.817C81.2533 108.135 80.8342 107.428 80.6335 106.696C80.4327 105.964 80.528 105.176 80.9192 104.333C81.5816 102.904 82.8908 101.949 84.8469 101.467C86.7889 100.98 89.1138 101.022 91.8217 101.591L92.9896 99.0733L96.3543 99.9914L95.1805 102.522C98.1669 103.553 100.241 104.82 101.404 106.323C102.548 107.83 102.72 109.448 101.918 111.177L94.7865 109.231C95.2281 108.279 95.2124 107.456 94.7395 106.763C94.2485 106.074 93.347 105.55 92.035 105.192C91.0757 104.93 90.2435 104.891 89.5383 105.075C88.8293 105.268 88.3373 105.66 88.0622 106.253Z" fill="#EFC52C"/>
</g>
<g filter="url(#filter2_d_3281_313692)">
<path d="M136.379 36.8975C142.751 49.4366 127.994 69.727 103.417 82.2174C82.4585 92.869 65.9753 102.511 56.1968 94.9567C54.5088 93.6526 48.3166 83.9749 47.3785 82.129C41.0059 69.5899 55.7632 49.2995 80.3399 36.8091C104.917 24.3188 130.006 24.3583 136.379 36.8975Z" fill="white"/>
<path d="M143.478 46.9753C149.851 59.5144 135.094 79.8048 110.517 92.2952C85.9401 104.786 60.8507 104.746 54.4781 92.2069C53.0777 89.4513 49.4013 82.2169 49.4013 82.2169C49.4013 82.2169 68.2638 56.6324 87.4395 46.887C105.355 37.7819 138.401 36.9855 138.401 36.9855C138.401 36.9855 141.751 43.5768 143.478 46.9753Z" fill="#CF9A10"/>
<ellipse cx="93.9013" cy="59.6018" rx="49.9172" ry="25.468" transform="rotate(-26.9405 93.9013 59.6018)" fill="#FFF500"/>
<g filter="url(#filter3_i_3281_313692)">
<ellipse cx="93.9015" cy="59.6021" rx="44.8236" ry="21.3931" transform="rotate(-26.9406 93.9015 59.6021)" fill="#FFE600"/>
</g>
<g filter="url(#filter4_d_3281_313692)">
<path d="M87.3937 55.3299C87.7011 56.0869 88.2147 56.5125 88.9347 56.6069C89.6546 56.7013 90.7771 56.517 92.3019 56.054C93.8268 55.591 95.2488 55.1975 96.568 54.8736C97.8872 54.5497 99.071 54.3874 100.119 54.3867C101.168 54.3859 102.054 54.5876 102.777 54.9915C103.5 55.3954 104.058 56.0813 104.451 57.049C105.109 58.6682 104.853 60.4922 103.684 62.521C102.519 64.5594 100.644 66.4852 98.0598 68.2983L99.291 71.3308L95.9587 73.3903L94.7041 70.3004C92.0422 71.6219 89.7435 72.1377 87.808 71.8477C85.8624 71.5759 84.5201 70.5298 83.781 68.7093L90.8648 64.3312C91.2694 65.3277 91.8601 65.9215 92.6368 66.1126C93.4135 66.3038 94.3189 66.0798 95.3528 65.4408C96.275 64.8709 96.9128 64.225 97.2664 63.503C97.6099 62.7993 97.6397 62.0978 97.3557 61.3983C97.0678 60.6893 96.5449 60.3054 95.7869 60.2465C95.0328 60.1972 93.9282 60.3824 92.4732 60.8022C91.0221 61.2316 89.6401 61.5944 88.3271 61.8905C87.004 62.2048 85.8183 62.3623 84.7699 62.3631C83.7215 62.3638 82.8197 62.166 82.0646 61.7698C81.3094 61.3735 80.7354 60.6915 80.3425 59.7238C79.6773 58.0854 79.8961 56.2782 80.9989 54.3022C82.0878 52.3348 83.9036 50.4575 86.4463 48.6702L85.2735 45.7814L88.6058 43.7219L89.7845 46.625C92.9199 44.9629 95.5501 44.2303 97.675 44.4272C99.7898 44.6424 101.25 45.7416 102.055 47.7249L94.9922 52.0901C94.5487 50.9978 93.8609 50.3801 92.9289 50.237C91.9868 50.1121 90.8661 50.4512 89.5667 51.2543C88.6166 51.8415 87.9469 52.4951 87.5576 53.2151C87.1721 53.9447 87.1175 54.6497 87.3937 55.3299Z" fill="#FFF500"/>
</g>
</g>
<rect x="35.0552" y="19.5373" width="48.5171" height="25.6368" rx="4.54713" transform="rotate(25.8485 35.0552 19.5373)" fill="#0F994F"/>
<rect x="34.0405" y="16.3558" width="48.5171" height="25.6368" rx="4.54713" transform="rotate(25.8485 34.0405 16.3558)" fill="#0FE270"/>
<path d="M41.1761 36.8391C40.8462 37.5202 40.4079 38.0127 39.8614 38.3166C39.3198 38.6229 38.7114 38.7547 38.0364 38.712C37.3662 38.6717 36.6734 38.4783 35.9581 38.1317C35.2476 37.7875 34.6639 37.3626 34.2071 36.8569C33.7552 36.3536 33.4767 35.7922 33.3715 35.1725C33.2664 34.5529 33.3788 33.9025 33.7087 33.2215C33.9342 32.756 34.2291 32.3846 34.5933 32.1073C34.9648 31.8275 35.3825 31.6396 35.8464 31.5437C36.3104 31.4478 36.8009 31.4405 37.3182 31.5217C37.8403 31.6053 38.366 31.7752 38.8952 32.0316C39.6106 32.3782 40.1907 32.8104 40.6355 33.3284C41.0826 33.8415 41.3599 34.3993 41.4673 35.0019C41.5746 35.6044 41.4776 36.2169 41.1761 36.8391ZM38.7807 35.4336C38.9231 35.1396 38.9915 34.8673 38.986 34.6165C38.9828 34.3609 38.9142 34.134 38.7802 33.936C38.6462 33.738 38.4543 33.5785 38.2044 33.4574C37.9594 33.3388 37.7153 33.287 37.4719 33.3022C37.2335 33.3198 37.0106 33.4054 36.8031 33.559C36.6029 33.71 36.4315 33.9325 36.2891 34.2265C36.1514 34.5107 36.0854 34.7843 36.0912 35.0472C36.0993 35.3052 36.1691 35.5357 36.3007 35.7386C36.4396 35.939 36.634 36.0997 36.8839 36.2207C37.1337 36.3418 37.3754 36.3924 37.609 36.3724C37.8498 36.3499 38.069 36.2595 38.2667 36.1012C38.4717 35.9403 38.643 35.7178 38.7807 35.4336ZM43.3271 31.8374C43.0564 32.3959 42.6696 32.8135 42.1666 33.0901C41.6708 33.3642 41.1014 33.4906 40.4582 33.4694C39.8224 33.4457 39.1615 33.2677 38.4755 32.9354C37.7944 32.6054 37.2426 32.1959 36.8201 31.7069C36.4048 31.2153 36.1462 30.6877 36.0442 30.124C35.9495 29.5579 36.0374 28.9955 36.308 28.4369C36.6261 27.7803 37.0426 27.3015 37.5575 27.0004C38.0773 26.7017 38.6576 26.5654 39.2983 26.5914C39.9391 26.6175 40.5976 26.7943 41.2737 27.1219C41.9597 27.4543 42.5115 27.8638 42.9291 28.3504C43.3468 28.8371 43.597 29.3758 43.6799 29.9665C43.7627 30.5571 43.6451 31.1808 43.3271 31.8374ZM40.7861 30.7697C40.9095 30.5149 40.976 30.2779 40.9854 30.0586C40.9972 29.8344 40.9509 29.6365 40.8465 29.465C40.7444 29.2885 40.5783 29.1444 40.348 29.0329C40.1275 28.9261 39.9175 28.8848 39.7182 28.9093C39.5188 28.9337 39.3348 29.02 39.1662 29.1682C39 29.3115 38.8539 29.513 38.7281 29.7727C38.6047 30.0275 38.5359 30.2694 38.5217 30.4985C38.5075 30.7276 38.5503 30.9328 38.6499 31.1142C38.7545 31.298 38.9195 31.4444 39.1449 31.5536C39.3752 31.6652 39.5899 31.7027 39.7892 31.6661C39.9933 31.6319 40.1784 31.537 40.3445 31.3816C40.5154 31.2284 40.6626 31.0245 40.7861 30.7697ZM41.8102 39.3515C41.9811 38.9987 42.251 38.7665 42.6197 38.6547C42.9908 38.5381 43.3773 38.5771 43.779 38.7717C44.1857 38.9687 44.4559 39.2478 44.5894 39.609C44.7303 39.9676 44.7153 40.3233 44.5443 40.6761C44.3734 41.0289 44.1024 41.2636 43.7313 41.3803C43.3675 41.4944 42.9822 41.453 42.5755 41.2559C42.1737 41.0613 41.9024 40.7846 41.7616 40.426C41.6231 40.0625 41.6393 39.7043 41.8102 39.3515ZM50.0337 38.8798L48.2883 37.4625L51.5842 32.3075L57.8389 35.3377L56.906 37.2634L52.6725 35.2124L51.4009 37.219C51.5518 37.2073 51.7894 37.2226 52.1138 37.2648C52.4454 37.3045 52.7828 37.4075 53.1257 37.5736C53.6549 37.83 54.0837 38.1375 54.4121 38.4963C54.7477 38.8525 54.9828 39.2537 55.1175 39.7001C55.2545 40.1416 55.286 40.6197 55.2121 41.1344C55.1431 41.6515 54.9697 42.1967 54.692 42.77C54.4688 43.2306 54.1769 43.6397 53.8161 43.9973C53.4626 44.3523 53.0484 44.6266 52.5735 44.82C52.1059 45.011 51.5907 45.0941 51.0279 45.0695C50.4675 45.04 49.8688 44.8709 49.2318 44.5623C48.7565 44.3321 48.3291 44.0342 47.9495 43.6689C47.5699 43.3035 47.2653 42.8957 47.0357 42.4457C46.8133 41.9931 46.6917 41.5198 46.6709 41.0257C46.6574 40.5291 46.7718 40.037 47.014 39.5494L49.5056 40.7565C49.3945 41.0233 49.3466 41.2784 49.3618 41.5217C49.377 41.765 49.4491 41.9845 49.5782 42.1801C49.7146 42.3732 49.9028 42.5279 50.1429 42.6443C50.3879 42.7629 50.615 42.8125 50.8241 42.7928C51.0333 42.7731 51.226 42.7001 51.4022 42.5737C51.5783 42.4473 51.7394 42.2834 51.8855 42.0819C52.0338 41.8755 52.1686 41.6473 52.2896 41.3974C52.4178 41.1328 52.5036 40.8809 52.5468 40.6418C52.595 40.405 52.5935 40.1834 52.5422 39.977C52.4933 39.7658 52.3898 39.5735 52.2318 39.4002C52.0787 39.2292 51.8674 39.0784 51.5979 38.9479C51.2402 38.7746 50.9288 38.6993 50.6636 38.7221C50.3985 38.7449 50.1885 38.7975 50.0337 38.8798Z" fill="white"/>
<path d="M63.4998 41.2255L63.551 43.717L65.5714 42.2291L67.9179 43.3659L64.3022 45.9766L64.5042 50.6685L62.1376 49.522L62.0439 46.8277L59.8783 48.4274L57.5117 47.2809L61.3189 44.5312L61.1332 40.0789L63.4998 41.2255Z" fill="white"/>
<rect x="105.546" y="125.918" width="48.5171" height="25.6368" rx="4.54713" transform="rotate(-6.9135 105.546 125.918)" fill="#0F994F"/>
<rect x="102.97" y="123.792" width="48.5171" height="25.6368" rx="4.54713" transform="rotate(-6.9135 102.97 123.792)" fill="#0FE270"/>
<path d="M120.101 135.768L120.357 137.876L111.86 138.906L111.495 137.256L115.313 129.051L117.47 128.79L115.592 132.909L114.053 136.501L120.101 135.768ZM118.037 128.721L119.469 140.526L116.736 140.857L115.305 129.052L118.037 128.721ZM121.948 138.925C121.901 138.536 122.002 138.195 122.252 137.901C122.501 137.602 122.847 137.426 123.29 137.372C123.739 137.318 124.117 137.406 124.425 137.638C124.737 137.863 124.917 138.17 124.964 138.559C125.011 138.949 124.911 139.293 124.662 139.592C124.417 139.884 124.071 140.058 123.622 140.112C123.179 140.166 122.801 140.08 122.489 139.855C122.176 139.624 121.995 139.314 121.948 138.925ZM133.685 126.824L133.862 128.283L130.706 139.163L127.819 139.513L131.062 129.281L125.428 129.964L125.172 127.856L133.685 126.824Z" fill="white"/>
<path d="M141.202 128.764L142.593 130.831L143.487 128.487L146.075 128.173L144.447 132.325L147.156 136.161L144.546 136.478L143.009 134.263L142.053 136.78L139.443 137.096L141.156 132.724L138.591 129.08L141.202 128.764Z" fill="white"/>
<path d="M38.2141 54.8826L44.7918 63.2901C47.0374 66.1604 50.9113 67.1984 54.2912 65.8355L64.1914 61.8432L55.7838 68.4209C52.9136 70.6665 51.8755 74.5404 53.2385 77.9202L57.2308 87.8205L50.6531 79.4129C48.4075 76.5426 44.5336 75.5046 41.1537 76.8676L31.2535 80.8599L39.661 74.2822C42.5313 72.0366 43.5693 68.1627 42.2064 64.7828L38.2141 54.8826Z" fill="white" fill-opacity="0.84"/>
<ellipse opacity="0.2" cx="47.7224" cy="71.3524" rx="9.18261" ry="9.1826" transform="rotate(-30 47.7224 71.3524)" fill="white"/>
<path d="M151.572 70.0722L153.712 85.2266C154.222 88.8382 157.061 91.6765 160.672 92.1865L175.827 94.3266L160.672 96.4667C157.061 96.9767 154.222 99.815 153.712 103.427L151.572 118.581L149.432 103.427C148.922 99.815 146.084 96.9767 142.472 96.4667L127.318 94.3266L142.472 92.1865C146.084 91.6765 148.922 88.8382 149.432 85.2266L151.572 70.0722Z" fill="white" fill-opacity="0.84"/>
<circle opacity="0.2" cx="151.572" cy="94.3273" r="11.7117" fill="white"/>
</g>
<defs>
<filter id="filter0_i_3281_313692" x="50.543" y="91.9153" width="77.634" height="43.0684" filterUnits="userSpaceOnUse" color-interpolation-filters="sRGB">
<feFlood flood-opacity="0" result="BackgroundImageFix"/>
<feBlend mode="normal" in="SourceGraphic" in2="BackgroundImageFix" result="shape"/>
<feColorMatrix in="SourceAlpha" type="matrix" values="0 0 0 0 0 0 0 0 0 0 0 0 0 0 0 0 0 0 127 0" result="hardAlpha"/>
<feMorphology radius="0.688213" operator="erode" in="SourceAlpha" result="effect1_innerShadow_3281_313692"/>
<feOffset dy="1.25498"/>
<feComposite in2="hardAlpha" operator="arithmetic" k2="-1" k3="1"/>
<feColorMatrix type="matrix" values="0 0 0 0 0 0 0 0 0 0 0 0 0 0 0 0 0 0 0.25 0"/>
<feBlend mode="normal" in2="shape" result="effect1_innerShadow_3281_313692"/>
</filter>
<filter id="filter1_d_3281_313692" x="76.6924" y="99.0733" width="25.7209" height="26.5864" filterUnits="userSpaceOnUse" color-interpolation-filters="sRGB">
<feFlood flood-opacity="0" result="BackgroundImageFix"/>
<feColorMatrix in="SourceAlpha" type="matrix" values="0 0 0 0 0 0 0 0 0 0 0 0 0 0 0 0 0 0 127 0" result="hardAlpha"/>
<feOffset dy="1.94319"/>
<feColorMatrix type="matrix" values="0 0 0 0 0 0 0 0 0 0 0 0 0 0 0 0 0 0 0.25 0"/>
<feBlend mode="normal" in2="BackgroundImageFix" result="effect1_dropShadow_3281_313692"/>
<feBlend mode="normal" in="SourceGraphic" in2="effect1_dropShadow_3281_313692" result="shape"/>
</filter>
<filter id="filter2_d_3281_313692" x="26.7978" y="12.0069" width="137.261" height="112.366" filterUnits="userSpaceOnUse" color-interpolation-filters="sRGB">
<feFlood flood-opacity="0" result="BackgroundImageFix"/>
<feColorMatrix in="SourceAlpha" type="matrix" values="0 0 0 0 0 0 0 0 0 0 0 0 0 0 0 0 0 0 127 0" result="hardAlpha"/>
<feOffset dy="3.6377"/>
<feGaussianBlur stdDeviation="9.54897"/>
<feColorMatrix type="matrix" values="0 0 0 0 0 0 0 0 0 0 0 0 0 0 0 0 0 0 0.32 0"/>
<feBlend mode="normal" in2="BackgroundImageFix" result="effect1_dropShadow_3281_313692"/>
<feBlend mode="normal" in="SourceGraphic" in2="effect1_dropShadow_3281_313692" result="shape"/>
</filter>
<filter id="filter3_i_3281_313692" x="52.7739" y="31.7427" width="82.2549" height="56.4917" filterUnits="userSpaceOnUse" color-interpolation-filters="sRGB">
<feFlood flood-opacity="0" result="BackgroundImageFix"/>
<feBlend mode="normal" in="SourceGraphic" in2="BackgroundImageFix" result="shape"/>
<feColorMatrix in="SourceAlpha" type="matrix" values="0 0 0 0 0 0 0 0 0 0 0 0 0 0 0 0 0 0 127 0" result="hardAlpha"/>
<feMorphology radius="0.773012" operator="erode" in="SourceAlpha" result="effect1_innerShadow_3281_313692"/>
<feOffset dy="1.40961"/>
<feComposite in2="hardAlpha" operator="arithmetic" k2="-1" k3="1"/>
<feColorMatrix type="matrix" values="0 0 0 0 0 0 0 0 0 0 0 0 0 0 0 0 0 0 0.25 0"/>
<feBlend mode="normal" in2="shape" result="effect1_innerShadow_3281_313692"/>
</filter>
<filter id="filter4_d_3281_313692" x="79.967" y="43.7219" width="25.7485" height="31.851" filterUnits="userSpaceOnUse" color-interpolation-filters="sRGB">
<feFlood flood-opacity="0" result="BackgroundImageFix"/>
<feColorMatrix in="SourceAlpha" type="matrix" values="0 0 0 0 0 0 0 0 0 0 0 0 0 0 0 0 0 0 127 0" result="hardAlpha"/>
<feOffset dx="0.909426" dy="2.18262"/>
<feColorMatrix type="matrix" values="0 0 0 0 0 0 0 0 0 0 0 0 0 0 0 0 0 0 0.25 0"/>
<feBlend mode="normal" in2="BackgroundImageFix" result="effect1_dropShadow_3281_313692"/>
<feBlend mode="normal" in="SourceGraphic" in2="effect1_dropShadow_3281_313692" result="shape"/>
</filter>
<linearGradient id="paint0_linear_3281_313692" x1="94.5" y1="0" x2="18.1731" y2="181.276" gradientUnits="userSpaceOnUse">
<stop stop-color="#FF2F00"/>
<stop offset="1" stop-color="#FF5C00"/>
</linearGradient>
<radialGradient id="paint1_radial_3281_313692" cx="0" cy="0" r="1" gradientUnits="userSpaceOnUse" gradientTransform="translate(161.287 6.81487) rotate(90) scale(114.036)">
<stop stop-color="#5729D9"/>
<stop offset="1" stop-color="#1D1E25" stop-opacity="0"/>
</radialGradient>
<radialGradient id="paint2_radial_3281_313692" cx="0" cy="0" r="1" gradientUnits="userSpaceOnUse" gradientTransform="translate(-14.9925 130.392) rotate(90) scale(114.036)">
<stop stop-color="#5729D9"/>
<stop offset="1" stop-color="#1D1E25" stop-opacity="0"/>
</radialGradient>
<linearGradient id="paint3_linear_3281_313692" x1="138.57" y1="26.0057" x2="138.185" y2="163.104" gradientUnits="userSpaceOnUse">
<stop stop-color="#FAFF00"/>
<stop offset="0.520833" stop-color="#FF823C"/>
<stop offset="1" stop-color="#B504E1" stop-opacity="0"/>
</linearGradient>
<linearGradient id="paint4_linear_3281_313692" x1="50.4307" y1="91.5196" x2="50.2475" y2="186.154" gradientUnits="userSpaceOnUse">
<stop stop-color="#FAFF00"/>
<stop offset="0.520833" stop-color="#FF823C"/>
<stop offset="1" stop-color="#B504E1" stop-opacity="0"/>
</linearGradient>
<clipPath id="clip0_3281_313692">
<path d="M0 22C0 9.84973 9.84974 0 22 0H167C179.15 0 189 9.84974 189 22V167C189 179.15 179.15 189 167 189H22C9.84973 189 0 179.15 0 167V22Z" fill="white"/>
</clipPath>
</defs>
</svg>
