<svg width="272" height="256" viewBox="0 0 272 256" fill="none" xmlns="http://www.w3.org/2000/svg">
<g clip-path="url(#clip0_3226_310704)">
<circle cx="144.438" cy="128" r="128" fill="#C76C00"/>
<path d="M256 128C256 198.692 198.692 256 128 256C57.3075 256 0 198.692 0 128C0 57.3075 57.3075 0 128 0C198.692 0 256 57.3075 256 128Z" fill="#EBA500"/>
<path d="M140.438 20C80.7907 20 32.4375 68.3532 32.4375 128C32.4375 187.647 80.7907 236 140.438 236V256C69.7451 256 12.4375 198.692 12.4375 128C12.4375 57.3076 69.7451 0 140.438 0V20Z" fill="#C76C00"/>
<path fill-rule="evenodd" clip-rule="evenodd" d="M128 236C187.647 236 236 187.647 236 128C236 68.3532 187.647 20 128 20C68.3532 20 20 68.3532 20 128C20 187.647 68.3532 236 128 236ZM128 256C198.692 256 256 198.692 256 128C256 57.3076 198.692 0 128 0C57.3076 0 0 57.3076 0 128C0 198.692 57.3076 256 128 256Z" fill="#FFD000"/>
<mask id="mask0_3226_310704" style="mask-type:alpha" maskUnits="userSpaceOnUse" x="0" y="0" width="256" height="256">
<path fill-rule="evenodd" clip-rule="evenodd" d="M128 236C187.647 236 236 187.647 236 128C236 68.3532 187.647 20 128 20C68.3532 20 20 68.3532 20 128C20 187.647 68.3532 236 128 236ZM128 256C198.692 256 256 198.692 256 128C256 57.3076 198.692 0 128 0C57.3076 0 0 57.3076 0 128C0 198.692 57.3076 256 128 256Z" fill="#FFD000"/>
</mask>
<g mask="url(#mask0_3226_310704)">
<rect x="-146.832" y="243.848" width="612" height="12" transform="rotate(-36.7414 -146.832 243.848)" fill="#FFE573"/>
<rect x="-150.348" y="268.901" width="612" height="17.8756" transform="rotate(-36.7414 -150.348 268.901)" fill="#FFE573"/>
<rect x="-88.9414" y="359.263" width="612" height="17.8756" transform="rotate(-36.7414 -88.9414 359.263)" fill="#FFE573"/>
</g>
<path d="M97.0312 143.698V113.07H188.915C191.467 128.384 192.488 163.096 176.153 179.431C159.818 195.765 123.405 198.148 107.241 197.297V148.803L97.0312 143.698Z" fill="#C76C00"/>
<path d="M97.0312 143.698V113.07H188.915C191.467 128.384 192.488 163.096 176.153 179.431C159.818 195.765 123.405 198.148 107.241 197.297V148.803L97.0312 143.698Z" fill="#C76C00"/>
<path d="M100.04 157.007L123.33 161.242C124.395 161.435 125.466 160.936 126.003 159.997L134.933 144.37C135.183 143.932 135.557 143.578 136.007 143.353L152.041 135.336C153.738 134.488 155.735 135.722 155.735 137.619V168.424C155.735 168.944 155.576 169.45 155.281 169.877L133.231 201.727C132.927 202.166 132.493 202.498 131.991 202.678L100.442 213.945C98.7798 214.539 97.0312 213.307 97.0312 211.542V159.518C97.0312 157.926 98.4734 156.722 100.04 157.007Z" fill="#C76C00"/>
<path d="M163.408 136.041L150.646 113.07H188.931L191.483 136.041H176.169H163.408Z" fill="#C76C00"/>
<path d="M91.9375 111.795V99.033C91.9375 98.3282 92.5089 97.7568 93.2137 97.7568H94.7734H192.754C193.459 97.7568 194.03 98.3282 194.03 99.033V111.795C194.03 112.499 193.459 113.071 192.754 113.071H93.2137C92.5089 113.071 91.9375 112.499 91.9375 111.795Z" fill="#C76C00"/>
<path d="M132.794 123.28H112.375V133.49H129.877L132.794 123.28Z" fill="#C76C00"/>
<path d="M97.0312 97.757V60.832L120.438 76.832L144.438 60.832L168.438 76.832L188.438 60.832L188.915 97.757H97.0312Z" fill="#C76C00"/>
<path d="M88.4375 138.593L88.5771 108.832H178.842C181.395 124.146 182.276 157.99 165.941 174.325C149.606 190.66 112.602 192.177 96.4375 191.326V142.832L88.4375 138.593Z" fill="#FFD000"/>
<path d="M91.4432 153.244L113.18 156.225C114.212 156.367 115.226 155.867 115.743 154.963L124.667 139.347C124.946 138.858 125.379 138.475 125.898 138.258L144.9 130.311C146.582 129.608 148.438 130.843 148.438 132.666V163.981C148.438 164.534 148.258 165.071 147.927 165.513L124.901 196.214C124.599 196.617 124.184 196.922 123.709 197.089L93.7137 207.676C92.0892 208.249 90.375 207.082 90.3135 205.36L88.5458 155.864C88.4892 154.281 89.8737 153.029 91.4432 153.244Z" fill="#FFF0AD"/>
<path d="M166.438 128.832H152.438L140.438 108.832V102.832L178.722 107.965L182.438 128.832H166.438Z" fill="#FFF0AD"/>
<path d="M120.438 116.832H100.438V124.832H117.58L120.438 116.832Z" fill="#FFF0AD"/>
<path d="M88.4688 96.918V56.918L108.438 72.832L132.766 56.918L156.438 72.832L176.438 56.832V96.832L88.4688 96.918Z" fill="#FFD000"/>
<path d="M80.4375 107.556V94.1082C80.4375 93.4034 81.0089 92.832 81.7137 92.832H83.3264H183.161C183.866 92.832 184.438 93.4034 184.438 94.1082V107.556C184.438 108.261 183.866 108.832 183.161 108.832H81.7137C81.0089 108.832 80.4375 108.261 80.4375 107.556Z" fill="#FFF0AD"/>
<mask id="mask1_3226_310704" style="mask-type:alpha" maskUnits="userSpaceOnUse" x="80" y="56" width="105" height="149">
<path d="M88.4375 138.593L88.5771 108.832H178.842C181.395 124.146 182.276 157.99 165.941 174.325C149.606 190.66 112.602 192.177 96.4375 191.326V142.832L88.4375 138.593Z" fill="#FFD000"/>
<path d="M100.46 154.481L108.057 155.523C112.185 156.089 116.242 154.09 118.309 150.473L123.375 141.607C124.492 139.653 126.223 138.122 128.3 137.254L134.289 134.749C141.016 131.936 148.438 136.877 148.438 144.168V161.429C148.438 163.638 147.721 165.787 146.396 167.555L126.292 194.359C125.083 195.972 123.423 197.19 121.523 197.861L103.542 204.207C97.0443 206.5 90.1874 201.83 89.9415 194.944L88.8706 164.96C88.6445 158.627 94.1822 153.62 100.46 154.481Z" fill="#FFF0AD"/>
<path d="M152.438 128.832L140.438 108.832V102.832L178.722 107.965L182.438 128.832H152.438Z" fill="#FFF0AD"/>
<path d="M120.438 116.832H100.438V124.832H117.58L120.438 116.832Z" fill="#FFF0AD"/>
<path d="M88.4688 96.918V56.918L108.438 72.832L132.766 56.918L156.438 72.832L176.438 56.832V96.832L88.4688 96.918Z" fill="#FFD000"/>
<path d="M80.4375 103.727V95.7209C80.4375 94.1254 81.7309 92.832 83.3264 92.832H179.333C182.152 92.832 184.438 95.1175 184.438 97.9367V103.727C184.438 106.547 182.152 108.832 179.333 108.832H85.5421C82.7229 108.832 80.4375 106.547 80.4375 103.727Z" fill="#FFF0AD"/>
</mask>
<g mask="url(#mask1_3226_310704)">
<rect opacity="0.45" x="-124.062" y="222.934" width="612" height="12" transform="rotate(-36.7414 -124.062 222.934)" fill="white"/>
<rect opacity="0.45" x="-127.562" y="247.986" width="612" height="17.8756" transform="rotate(-36.7414 -127.562 247.986)" fill="white"/>
<rect opacity="0.45" x="-66.1562" y="338.35" width="612" height="17.8756" transform="rotate(-36.7414 -66.1562 338.35)" fill="white"/>
</g>
<path d="M59.7193 81.6145L80.4848 89.4946L93.807 71.7232L85.9269 92.4887L103.698 105.811L82.9328 97.9308L69.6106 115.702L77.4907 94.9367L59.7193 81.6145Z" fill="white" fill-opacity="0.84"/>
<path opacity="0.2" d="M87.5713 83.043C93.4355 86.2694 95.5739 93.6387 92.3475 99.5029C89.1212 105.367 81.7518 107.505 75.8876 104.279C70.0234 101.053 67.885 93.6834 71.1114 87.8192C74.3377 81.955 81.7071 79.8166 87.5713 83.043Z" fill="white"/>
<path d="M226.5 118.11L238.979 130.94L254.764 122.501L241.933 134.981L250.372 150.765L237.892 137.935L222.108 146.374L234.938 133.894L226.5 118.11Z" fill="white" fill-opacity="0.84"/>
<path opacity="0.2" d="M246.348 128.641C249.532 132.995 248.582 139.106 244.228 142.289C239.874 145.472 233.763 144.522 230.58 140.168C227.397 135.814 228.346 129.703 232.701 126.52C237.055 123.337 243.165 124.287 246.348 128.641Z" fill="white"/>
</g>
<defs>
<clipPath id="clip0_3226_310704">
<rect width="272" height="256" fill="white"/>
</clipPath>
</defs>
</svg>
