<svg width="272" height="256" viewBox="0 0 272 256" fill="none" xmlns="http://www.w3.org/2000/svg">
<g clip-path="url(#clip0_3226_310290)">
<path d="M272 128C272 198.692 214.692 256 144 256C121.507 256 112 256 112 256C72.6405 234.167 16 176.199 16 128C16 57.3075 73.3075 0 144 0C214.692 0 272 57.3075 272 128Z" fill="#C76C00"/>
<path d="M256 128C256 198.692 198.692 256 128 256C57.3075 256 0 198.692 0 128C0 57.3075 57.3075 0 128 0C198.692 0 256 57.3075 256 128Z" fill="#EBA500"/>
<path d="M140.438 20C80.7907 20 32.4375 68.3532 32.4375 128C32.4375 187.647 80.7907 236 140.438 236V256C69.7451 256 12.4375 198.692 12.4375 128C12.4375 57.3076 69.7451 0 140.438 0V20Z" fill="#C76C00"/>
<path fill-rule="evenodd" clip-rule="evenodd" d="M128 236C187.647 236 236 187.647 236 128C236 68.3532 187.647 20 128 20C68.3532 20 20 68.3532 20 128C20 187.647 68.3532 236 128 236ZM128 256C198.692 256 256 198.692 256 128C256 57.3076 198.692 0 128 0C57.3076 0 0 57.3076 0 128C0 198.692 57.3076 256 128 256Z" fill="#FFD000"/>
<mask id="mask0_3226_310290" style="mask-type:alpha" maskUnits="userSpaceOnUse" x="0" y="0" width="256" height="256">
<path fill-rule="evenodd" clip-rule="evenodd" d="M128 236C187.647 236 236 187.647 236 128C236 68.3532 187.647 20 128 20C68.3532 20 20 68.3532 20 128C20 187.647 68.3532 236 128 236ZM128 256C198.692 256 256 198.692 256 128C256 57.3076 198.692 0 128 0C57.3076 0 0 57.3076 0 128C0 198.692 57.3076 256 128 256Z" fill="#FFD000"/>
</mask>
<g mask="url(#mask0_3226_310290)">
<rect x="-146.832" y="243.848" width="612" height="12" transform="rotate(-36.7414 -146.832 243.848)" fill="#FFE573"/>
<rect x="-150.348" y="268.901" width="612" height="17.8756" transform="rotate(-36.7414 -150.348 268.901)" fill="#FFE573"/>
<rect x="-88.9414" y="359.263" width="612" height="17.8756" transform="rotate(-36.7414 -88.9414 359.263)" fill="#FFE573"/>
</g>
<path d="M138.698 110.44C151.661 110.44 162.421 114.341 170.979 122.144C179.663 129.821 184.005 140.644 184.005 154.614C184.005 168.458 179.349 179.281 170.036 187.084C160.722 194.887 149.333 198.788 135.867 198.788C124.917 198.788 115.29 196.46 106.983 191.803C98.6772 187.021 92.5733 179.91 88.6719 170.471L114.723 155.369C117.996 164.682 125.043 169.339 135.867 169.339C141.782 169.339 146.249 167.954 149.27 165.185C152.29 162.417 153.801 158.893 153.801 154.614C153.801 150.335 152.353 146.811 149.459 144.042C146.564 141.273 142.348 139.889 136.81 139.889H95.4679L100.943 64H177.398V92.3168H129.259L127.938 110.44H138.698Z" fill="#C76C00"/>
<path d="M130.026 110.44C142.989 110.44 153.75 114.341 162.308 122.144C170.991 129.821 175.333 140.644 175.333 154.614C175.333 168.458 170.677 179.281 161.364 187.084C152.051 194.887 140.661 198.788 127.195 198.788C116.246 198.788 106.618 196.46 98.3115 191.803C90.0053 187.021 83.9014 179.91 80 170.471L106.051 155.369C109.324 164.682 116.371 169.339 127.195 169.339C133.11 169.339 137.578 167.954 140.598 165.185C143.618 162.417 145.129 158.893 145.129 154.614C145.129 150.335 143.681 146.811 140.787 144.042C137.892 141.273 133.676 139.889 128.139 139.889H86.796L92.2706 64H168V92.3168H120.587L119.266 110.44H130.026Z" fill="#FFD000"/>
<mask id="mask1_3226_310290" style="mask-type:alpha" maskUnits="userSpaceOnUse" x="80" y="64" width="96" height="135">
<path d="M130.026 110.44C142.989 110.44 153.75 114.341 162.308 122.144C170.991 129.821 175.333 140.644 175.333 154.614C175.333 168.458 170.677 179.281 161.364 187.084C152.051 194.887 140.661 198.788 127.195 198.788C116.246 198.788 106.618 196.46 98.3115 191.803C90.0053 187.021 83.9014 179.91 80 170.471L106.051 155.369C109.324 164.682 116.371 169.339 127.195 169.339C133.11 169.339 137.578 167.954 140.598 165.185C143.618 162.417 145.129 158.893 145.129 154.614C145.129 150.335 143.681 146.811 140.787 144.042C137.892 141.273 133.676 139.889 128.139 139.889H86.796L92.2706 64H168V92.3168H120.587L119.266 110.44H130.026Z" fill="#FFD000"/>
</mask>
<g mask="url(#mask1_3226_310290)">
<rect x="-100.484" y="210.102" width="612" height="12" transform="rotate(-36.7414 -100.484 210.102)" fill="#FFE573"/>
<rect x="-104" y="235.154" width="612" height="17.8756" transform="rotate(-36.7414 -104 235.154)" fill="#FFE573"/>
<rect x="-42.5938" y="325.518" width="612" height="17.8756" transform="rotate(-36.7414 -42.5938 325.518)" fill="#FFE573"/>
</g>
<path d="M58.5855 157.479L79.7182 167.984L95.6644 150.587L85.1593 171.719L102.557 187.666L81.4239 177.161L65.4777 194.558L75.9828 173.425L58.5855 157.479Z" fill="white" fill-opacity="0.84"/>
<path opacity="0.2" d="M87.8877 161.904C93.7508 165.929 95.2408 173.945 91.2157 179.808C87.1906 185.671 79.1746 187.161 73.3114 183.136C67.4483 179.111 65.9583 171.095 69.9834 165.232C74.0086 159.369 82.0246 157.879 87.8877 161.904Z" fill="white"/>
<path d="M160.459 37.8351L175.728 29.4522L171.901 12.4591L180.284 27.7279L197.277 23.901L182.008 32.2839L185.835 49.2771L177.452 34.0082L160.459 37.8351Z" fill="white" fill-opacity="0.84"/>
<path opacity="0.2" d="M175.493 21.94C180.402 20.082 185.888 22.5557 187.746 27.465C189.604 32.3743 187.131 37.8604 182.221 39.7183C177.312 41.5763 171.826 39.1027 169.968 34.1934C168.11 29.284 170.583 23.798 175.493 21.94Z" fill="white"/>
<path d="M58.4116 100.401C58.4826 100.245 58.7049 100.245 58.7759 100.401L64.605 113.246C64.6333 113.308 64.6917 113.352 64.7596 113.361L78.195 115.223C78.3587 115.246 78.4258 115.446 78.3088 115.563L68.4675 125.386C68.4213 125.432 68.4005 125.498 68.4118 125.562L70.8805 139.58C70.9099 139.747 70.7316 139.873 70.5844 139.789L58.6929 133.003C58.6314 132.968 58.5561 132.968 58.4946 133.003L46.6031 139.789C46.4559 139.873 46.2776 139.747 46.307 139.58L48.7757 125.562C48.787 125.498 48.7662 125.432 48.72 125.386L38.8787 115.563C38.7617 115.446 38.8288 115.246 38.9925 115.223L52.4279 113.361C52.4958 113.352 52.5542 113.308 52.5825 113.246L58.4116 100.401Z" fill="#C76C00"/>
<path d="M210.412 100.401C210.483 100.245 210.705 100.245 210.776 100.401L216.605 113.246C216.633 113.308 216.692 113.352 216.76 113.361L230.195 115.223C230.359 115.246 230.426 115.446 230.309 115.563L220.468 125.386C220.421 125.432 220.4 125.498 220.412 125.562L222.881 139.58C222.91 139.747 222.732 139.873 222.584 139.789L210.693 133.003C210.631 132.968 210.556 132.968 210.495 133.003L198.603 139.789C198.456 139.873 198.278 139.747 198.307 139.58L200.776 125.562C200.787 125.498 200.766 125.432 200.72 125.386L190.879 115.563C190.762 115.446 190.829 115.246 190.993 115.223L204.428 113.361C204.496 113.352 204.554 113.308 204.583 113.246L210.412 100.401Z" fill="#C76C00"/>
<mask id="mask2_3226_310290" style="mask-type:alpha" maskUnits="userSpaceOnUse" x="36" y="101" width="38" height="38">
<path d="M53.4493 102.508C53.8931 101.53 55.282 101.53 55.7258 102.508L60.3597 112.719C60.5369 113.109 60.9018 113.381 61.3264 113.44L72.0954 114.933C73.1186 115.075 73.5379 116.326 72.8068 117.056L64.8485 124.999C64.5597 125.287 64.4297 125.699 64.5005 126.101L66.4865 137.378C66.6701 138.42 65.5554 139.205 64.6359 138.68L55.2071 133.299C54.8232 133.08 54.352 133.08 53.968 133.299L44.5393 138.68C43.6198 139.205 42.505 138.42 42.6887 137.378L44.6746 126.101C44.7454 125.699 44.6155 125.287 44.3266 124.999L36.3684 117.056C35.6372 116.326 36.0566 115.075 37.0798 114.933L47.8488 113.44C48.2734 113.381 48.6383 113.109 48.8154 112.719L53.4493 102.508Z" fill="#E9AC10"/>
</mask>
<g mask="url(#mask2_3226_310290)">
<path d="M54.5859 99.9998L60.6427 113.346L74.5859 115.278L64.3859 125.459L66.9466 140L54.5859 132.946L42.2253 140L44.7859 125.459L34.5859 115.278L48.5292 113.346L54.5859 99.9998Z" fill="#FFD000"/>
<path d="M66.9466 140L64.3859 125.459L54.5859 120V132.946L66.9466 140Z" fill="#FFA800"/>
<path d="M66.9466 140L64.3859 125.459L54.5859 120L66.9466 140Z" fill="#FFD000"/>
<path d="M42.2266 140L54.5872 132.946V120L44.7872 125.459L42.2266 140Z" fill="#FFA800"/>
<path d="M44.7872 125.459L42.2266 140L54.5872 120L44.7872 125.459Z" fill="#FFF0AD"/>
<path d="M74.5859 115.278L60.6427 113.346L54.5859 120L64.3859 125.459L74.5859 115.278Z" fill="#FFA800"/>
<path d="M74.5859 115.278L60.6427 113.346L54.5859 120L74.5859 115.278Z" fill="#FFF0AD"/>
<path d="M34.5859 115.278L44.7859 125.459L54.5859 120L34.5859 115.278Z" fill="#FFA800"/>
<path d="M54.5841 99.9998L48.5273 113.346L54.5841 119.991V99.9998Z" fill="#FFF0AD"/>
</g>
<mask id="mask3_3226_310290" style="mask-type:alpha" maskUnits="userSpaceOnUse" x="188" y="101" width="38" height="38">
<path d="M205.449 102.508C205.893 101.53 207.282 101.53 207.726 102.508L212.36 112.719C212.537 113.109 212.902 113.381 213.326 113.44L224.095 114.933C225.119 115.075 225.538 116.326 224.807 117.056L216.849 124.999C216.56 125.287 216.43 125.699 216.501 126.101L218.487 137.378C218.67 138.42 217.555 139.205 216.636 138.68L207.207 133.299C206.823 133.08 206.352 133.08 205.968 133.299L196.539 138.68C195.62 139.205 194.505 138.42 194.689 137.378L196.675 126.101C196.745 125.699 196.615 125.287 196.327 124.999L188.368 117.056C187.637 116.326 188.057 115.075 189.08 114.933L199.849 113.44C200.273 113.381 200.638 113.109 200.815 112.719L205.449 102.508Z" fill="#E9AC10"/>
</mask>
<g mask="url(#mask3_3226_310290)">
<path d="M206.586 99.9998L212.643 113.346L226.586 115.278L216.386 125.459L218.947 140L206.586 132.946L194.225 140L196.786 125.459L186.586 115.278L200.529 113.346L206.586 99.9998Z" fill="#FFD000"/>
<path d="M218.947 140L216.386 125.459L206.586 120V132.946L218.947 140Z" fill="#FFA800"/>
<path d="M218.947 140L216.386 125.459L206.586 120L218.947 140Z" fill="#FFD000"/>
<path d="M194.227 140L206.587 132.946V120L196.787 125.459L194.227 140Z" fill="#FFA800"/>
<path d="M196.787 125.459L194.227 140L206.587 120L196.787 125.459Z" fill="#FFF0AD"/>
<path d="M226.586 115.278L212.643 113.346L206.586 120L216.386 125.459L226.586 115.278Z" fill="#FFA800"/>
<path d="M226.586 115.278L212.643 113.346L206.586 120L226.586 115.278Z" fill="#FFF0AD"/>
<path d="M186.586 115.278L196.786 125.459L206.586 120L186.586 115.278Z" fill="#FFA800"/>
<path d="M206.584 99.9998L200.527 113.346L206.584 119.991V99.9998Z" fill="#FFF0AD"/>
</g>
</g>
<defs>
<clipPath id="clip0_3226_310290">
<rect width="272" height="256" fill="white"/>
</clipPath>
</defs>
</svg>
