<svg fill="none" height="92" viewBox="0 0 64 92" width="64" xmlns="http://www.w3.org/2000/svg" xmlns:xlink="http://www.w3.org/1999/xlink"><linearGradient id="a" gradientUnits="userSpaceOnUse" x1="2.06452" x2="56.6415" y1="92" y2="5.15165"><stop offset="0" stop-color="#dad7c9"/><stop offset="1" stop-color="#fffced"/></linearGradient><path d="m0 4c0-2.20914 1.79086-4 4-4h56c2.2091 0 4 1.79086 4 4v84c0 2.2091-1.7909 4-4 4h-56c-2.20914 0-4-1.7909-4-4z" fill="url(#a)"/><g fill="#ed4700"><path d="m8.36545 13.0047v1.9256h3.88735v2.0697h-6.19097v-4.1933c0-1.5838.74388-2.3756 2.23163-2.3756h1.43977c.09598 0 .17397-.036.23396-.108.07201-.072.10801-.156.10801-.252v-2.57355c0-.09599-.036-.17997-.10801-.25196-.05999-.07199-.13798-.10799-.23396-.10799h-1.06183c-.09598 0-.17997.036-.25196.10799-.05999.07199-.08998.15597-.08998.25196v.91785h-2.39361v-.86386c0-1.58374.74388-2.37562 2.23163-2.37562h1.99772c1.4877 0 2.2316.79188 2.2316 2.37562v2.71756c0 1.5837-.7439 2.3756-2.2316 2.3756h-1.4578c-.09599 0-.17997.036-.25196.108-.05999.072-.08999.156-.08999.252z"/><path d="m54.0172 82.0047v1.9256h3.8874v2.0697h-6.191v-4.1933c0-1.5838.7439-2.3756 2.2316-2.3756h1.4398c.096 0 .174-.036.2339-.108.072-.072.108-.156.108-.252v-2.5736c0-.0959-.036-.1799-.108-.2519-.0599-.072-.1379-.108-.2339-.108h-1.0618c-.096 0-.18.036-.252.108-.06.072-.09.156-.09.2519v.9179h-2.3936v-.8639c0-1.5837.7439-2.3756 2.2316-2.3756h1.9977c1.4878 0 2.2316.7919 2.2316 2.3756v2.7176c0 1.5837-.7438 2.3756-2.2316 2.3756h-1.4578c-.0959 0-.1799.036-.2519.108-.06.072-.09.156-.09.252z"/><path d="m15.7071 47.6778c-.3905-.3905-.3905-1.0237 0-1.4142l15.5564-15.5564c.3905-.3905 1.0236-.3905 1.4142 0l15.5563 15.5564c.3905.3905.3905 1.0237 0 1.4142l-15.5563 15.5564c-.3906.3905-1.0237.3905-1.4142 0z"/><path d="m47.5687 11.2259c-.1302-.1301-.1302-.3412 0-.4714l5.1855-5.18542c.1301-.13017.3412-.13017.4714 0l5.1854 5.18542c.1302.1302.1302.3413 0 .4714l-5.1854 5.1855c-.1302.1302-.3413.1302-.4714 0z"/><path d="m5.56871 80.2259c-.13017-.1301-.13017-.3412 0-.4714l5.18549-5.1854c.1301-.1302.3412-.1302.4714 0l5.1854 5.1854c.1302.1302.1302.3413 0 .4714l-5.1854 5.1855c-.1302.1302-.3413.1302-.4714 0z"/></g></svg>