<svg width="64" height="92" viewBox="0 0 64 92" fill="none" xmlns="http://www.w3.org/2000/svg">
<path d="M0 4C0 1.79086 1.79086 0 4 0H60C62.2091 0 64 1.79086 64 4V88C64 90.2091 62.2091 92 60 92H4C1.79086 92 0 90.2091 0 88V4Z" fill="url(#paint0_linear_2928_267399)"/>
<path d="M11.5689 11.043C12.1328 11.4389 12.4148 12.1168 12.4148 13.0766V14.8044C12.4148 16.3881 11.6709 17.18 10.1832 17.18H8.0595C6.57174 17.18 5.82787 16.3881 5.82787 14.8044V13.8505H8.0775V14.9123C8.0775 15.0083 8.10749 15.0923 8.16748 15.1643C8.23947 15.2363 8.32346 15.2723 8.41944 15.2723H9.84121C9.9372 15.2723 10.0152 15.2363 10.0752 15.1643C10.1472 15.0923 10.1832 15.0083 10.1832 14.9123V12.4287C10.1832 12.3328 10.1472 12.2488 10.0752 12.1768C10.0152 12.1048 9.9372 12.0688 9.84121 12.0688H7.98751V10.1251H9.73323C9.82921 10.1251 9.9072 10.0891 9.96719 10.0171C10.0392 9.94515 10.0752 9.86116 10.0752 9.76518V7.49755C10.0752 7.40156 10.0392 7.31758 9.96719 7.24559C9.9072 7.1736 9.82921 7.1376 9.73323 7.1376H8.52743C8.43144 7.1376 8.34746 7.1736 8.27547 7.24559C8.21548 7.31758 8.18548 7.40156 8.18548 7.49755V8.64936H5.93585V7.55154C5.93585 5.9678 6.67973 5.17592 8.16748 5.17592H10.0752C11.5629 5.17592 12.3068 5.9678 12.3068 7.55154V9.09929C12.3068 10.0351 12.0609 10.683 11.5689 11.043Z" fill="#ED4700"/>
<path d="M57.3789 80.043C57.9428 80.4389 58.2247 81.1168 58.2247 82.0766V83.8044C58.2247 85.3881 57.4808 86.18 55.9931 86.18H53.8694C52.3817 86.18 51.6378 85.3881 51.6378 83.8044V82.8505H53.8874V83.9123C53.8874 84.0083 53.9174 84.0923 53.9774 84.1643C54.0494 84.2363 54.1334 84.2723 54.2294 84.2723H55.6511C55.7471 84.2723 55.8251 84.2363 55.8851 84.1643C55.9571 84.0923 55.9931 84.0083 55.9931 83.9123V81.4287C55.9931 81.3328 55.9571 81.2488 55.8851 81.1768C55.8251 81.1048 55.7471 81.0688 55.6511 81.0688H53.7974V79.1251H55.5432C55.6391 79.1251 55.7171 79.0891 55.7771 79.0171C55.8491 78.9451 55.8851 78.8612 55.8851 78.7652V76.4975C55.8851 76.4016 55.8491 76.3176 55.7771 76.2456C55.7171 76.1736 55.6391 76.1376 55.5432 76.1376H54.3374C54.2414 76.1376 54.1574 76.1736 54.0854 76.2456C54.0254 76.3176 53.9954 76.4016 53.9954 76.4975V77.6494H51.7458V76.5515C51.7458 74.9678 52.4897 74.1759 53.9774 74.1759H55.8851C57.3729 74.1759 58.1167 74.9678 58.1167 76.5515V78.0993C58.1167 79.0351 57.8708 79.683 57.3789 80.043Z" fill="#ED4700"/>
<path d="M15.7071 47.6778C15.3166 47.2873 15.3166 46.6541 15.7071 46.2636L31.2635 30.7072C31.654 30.3167 32.2871 30.3167 32.6777 30.7072L48.234 46.2636C48.6245 46.6541 48.6245 47.2873 48.234 47.6778L32.6777 63.2342C32.2871 63.6247 31.654 63.6247 31.2635 63.2342L15.7071 47.6778Z" fill="#ED4700"/>
<path d="M47.5687 11.2259C47.4385 11.0958 47.4385 10.8847 47.5687 10.7545L52.7542 5.56908C52.8843 5.43891 53.0954 5.43891 53.2256 5.56908L58.411 10.7545C58.5412 10.8847 58.5412 11.0958 58.411 11.2259L53.2256 16.4114C53.0954 16.5416 52.8843 16.5416 52.7542 16.4114L47.5687 11.2259Z" fill="#ED4700"/>
<path d="M5.56871 80.2259C5.43854 80.0958 5.43854 79.8847 5.56871 79.7545L10.7542 74.5691C10.8843 74.4389 11.0954 74.4389 11.2256 74.5691L16.411 79.7545C16.5412 79.8847 16.5412 80.0958 16.411 80.2259L11.2256 85.4114C11.0954 85.5416 10.8843 85.5416 10.7542 85.4114L5.56871 80.2259Z" fill="#ED4700"/>
<defs>
<linearGradient id="paint0_linear_2928_267399" x1="2.06452" y1="92" x2="56.6415" y2="5.15165" gradientUnits="userSpaceOnUse">
<stop stop-color="#DAD7C9"/>
<stop offset="1" stop-color="#FFFCED"/>
</linearGradient>
</defs>
</svg>
