<svg fill="none" height="92" viewBox="0 0 64 92" width="64" xmlns="http://www.w3.org/2000/svg" xmlns:xlink="http://www.w3.org/1999/xlink"><linearGradient id="a" gradientUnits="userSpaceOnUse" x1="2.06452" x2="56.6415" y1="92" y2="5.15165"><stop offset="0" stop-color="#dad7c9"/><stop offset="1" stop-color="#fffced"/></linearGradient><path d="m0 4c0-2.20914 1.79086-4 4-4h56c2.2091 0 4 1.79086 4 4v84c0 2.2091-1.7909 4-4 4h-56c-2.20914 0-4-1.7909-4-4z" fill="url(#a)"/><g fill="#ed4700"><path d="m10.2551 5.3559h2.2497v11.6441h-2.2497v-4.5893h-2.10561c-1.48776 0-2.23164-.7918-2.23164-2.3756v-4.6792h2.23164v4.57125c0 .09595.02999.17995.08998.25195.07199.072.15598.108.25196.108h1.42177c.096 0 .174-.036.234-.108.072-.072.1079-.156.1079-.25195z"/><path d="m55.8542 74.3559h2.2496v11.6441h-2.2496v-4.5893h-2.1057c-1.4877 0-2.2316-.7918-2.2316-2.3756v-4.6792h2.2316v4.5713c0 .0959.03.1799.09.2519.072.072.156.108.252.108h1.4217c.096 0 .174-.036.234-.108.072-.072.108-.156.108-.2519z"/><path d="m15.7071 47.6778c-.3905-.3905-.3905-1.0237 0-1.4142l15.5564-15.5564c.3905-.3905 1.0236-.3905 1.4142 0l15.5563 15.5564c.3905.3905.3905 1.0237 0 1.4142l-15.5563 15.5564c-.3906.3905-1.0237.3905-1.4142 0z"/><path d="m47.5687 11.2259c-.1302-.1301-.1302-.3412 0-.4714l5.1855-5.18542c.1301-.13017.3412-.13017.4714 0l5.1854 5.18542c.1302.1302.1302.3413 0 .4714l-5.1854 5.1855c-.1302.1302-.3413.1302-.4714 0z"/><path d="m5.56871 80.2259c-.13017-.1301-.13017-.3412 0-.4714l5.18549-5.1854c.1301-.1302.3412-.1302.4714 0l5.1854 5.1854c.1302.1302.1302.3413 0 .4714l-5.1854 5.1855c-.1302.1302-.3413.1302-.4714 0z"/></g></svg>