<svg width="64" height="92" viewBox="0 0 64 92" fill="none" xmlns="http://www.w3.org/2000/svg">
<path d="M0 4C0 1.79086 1.79086 0 4 0H60C62.2091 0 64 1.79086 64 4V88C64 90.2091 62.2091 92 60 92H4C1.79086 92 0 90.2091 0 88V4Z" fill="url(#paint0_linear_2928_267419)"/>
<path d="M8.11349 7.28158V9.35124C8.11349 9.44723 8.14349 9.53122 8.20348 9.6032C8.27547 9.67519 8.35945 9.71119 8.45544 9.71119H10.1652C11.6529 9.71119 12.3968 10.5031 12.3968 12.0868V14.8044C12.3968 16.3881 11.6529 17.18 10.1652 17.18H8.16748C6.67973 17.18 5.93585 16.3881 5.93585 14.8044V13.9405H8.32946V14.8583C8.32946 14.9543 8.35945 15.0383 8.41944 15.1103C8.49143 15.1823 8.57542 15.2183 8.6714 15.2183H9.73323C9.82921 15.2183 9.9072 15.1823 9.96719 15.1103C10.0392 15.0383 10.0752 14.9543 10.0752 14.8583V12.2848C10.0752 12.1888 10.0392 12.1048 9.96719 12.0328C9.9072 11.9608 9.82921 11.9248 9.73323 11.9248H8.04151C6.55375 11.9248 5.80987 11.133 5.80987 9.54921V5.3559H11.9289V7.28158H8.11349Z" fill="#ED4700"/>
<path d="M53.7828 76.2816V78.3512C53.7828 78.4472 53.8128 78.5312 53.8728 78.6032C53.9448 78.6752 54.0288 78.7112 54.1248 78.7112H55.8345C57.3222 78.7112 58.0661 79.5031 58.0661 81.0868V83.8044C58.0661 85.3881 57.3222 86.18 55.8345 86.18H53.8368C52.3491 86.18 51.6052 85.3881 51.6052 83.8044V82.9405H53.9988V83.8583C53.9988 83.9543 54.0288 84.0383 54.0888 84.1103C54.1608 84.1823 54.2447 84.2183 54.3407 84.2183H55.4026C55.4985 84.2183 55.5765 84.1823 55.6365 84.1103C55.7085 84.0383 55.7445 83.9543 55.7445 83.8583V81.2848C55.7445 81.1888 55.7085 81.1048 55.6365 81.0328C55.5765 80.9608 55.4985 80.9248 55.4026 80.9248H53.7108C52.2231 80.9248 51.4792 80.133 51.4792 78.5492V74.3559H57.5982V76.2816H53.7828Z" fill="#ED4700"/>
<path d="M15.7071 47.6778C15.3166 47.2873 15.3166 46.6541 15.7071 46.2636L31.2635 30.7072C31.654 30.3167 32.2871 30.3167 32.6777 30.7072L48.234 46.2636C48.6245 46.6541 48.6245 47.2873 48.234 47.6778L32.6777 63.2342C32.2871 63.6247 31.654 63.6247 31.2635 63.2342L15.7071 47.6778Z" fill="#ED4700"/>
<path d="M47.5687 11.2259C47.4385 11.0958 47.4385 10.8847 47.5687 10.7545L52.7542 5.56908C52.8843 5.43891 53.0954 5.43891 53.2256 5.56908L58.411 10.7545C58.5412 10.8847 58.5412 11.0958 58.411 11.2259L53.2256 16.4114C53.0954 16.5416 52.8843 16.5416 52.7542 16.4114L47.5687 11.2259Z" fill="#ED4700"/>
<path d="M5.56871 80.2259C5.43854 80.0958 5.43854 79.8847 5.56871 79.7545L10.7542 74.5691C10.8843 74.4389 11.0954 74.4389 11.2256 74.5691L16.411 79.7545C16.5412 79.8847 16.5412 80.0958 16.411 80.2259L11.2256 85.4114C11.0954 85.5416 10.8843 85.5416 10.7542 85.4114L5.56871 80.2259Z" fill="#ED4700"/>
<defs>
<linearGradient id="paint0_linear_2928_267419" x1="2.06452" y1="92" x2="56.6415" y2="5.15165" gradientUnits="userSpaceOnUse">
<stop stop-color="#DAD7C9"/>
<stop offset="1" stop-color="#FFFCED"/>
</linearGradient>
</defs>
</svg>
