<svg width="64" height="92" viewBox="0 0 64 92" fill="none" xmlns="http://www.w3.org/2000/svg">
<path d="M0 4C0 1.79086 1.79086 0 4 0H60C62.2091 0 64 1.79086 64 4V88C64 90.2091 62.2091 92 60 92H4C1.79086 92 0 90.2091 0 88V4Z" fill="url(#paint0_linear_2928_267439)"/>
<path d="M5.88186 5.3559H11.8209L9.40928 17H7.12365L9.01335 7.28158H5.88186V5.3559Z" fill="#ED4700"/>
<path d="M52.3069 74.3559H58.246L55.8343 86H53.5487L55.4384 76.2816H52.3069V74.3559Z" fill="#ED4700"/>
<path d="M15.7071 47.6778C15.3166 47.2873 15.3166 46.6541 15.7071 46.2636L31.2635 30.7072C31.654 30.3167 32.2871 30.3167 32.6777 30.7072L48.234 46.2636C48.6245 46.6541 48.6245 47.2873 48.234 47.6778L32.6777 63.2342C32.2871 63.6247 31.654 63.6247 31.2635 63.2342L15.7071 47.6778Z" fill="#ED4700"/>
<path d="M47.5687 11.2259C47.4385 11.0958 47.4385 10.8847 47.5687 10.7545L52.7542 5.56908C52.8843 5.43891 53.0954 5.43891 53.2256 5.56908L58.411 10.7545C58.5412 10.8847 58.5412 11.0958 58.411 11.2259L53.2256 16.4114C53.0954 16.5416 52.8843 16.5416 52.7542 16.4114L47.5687 11.2259Z" fill="#ED4700"/>
<path d="M5.56871 80.2259C5.43854 80.0958 5.43854 79.8847 5.56871 79.7545L10.7542 74.5691C10.8843 74.4389 11.0954 74.4389 11.2256 74.5691L16.411 79.7545C16.5412 79.8847 16.5412 80.0958 16.411 80.2259L11.2256 85.4114C11.0954 85.5416 10.8843 85.5416 10.7542 85.4114L5.56871 80.2259Z" fill="#ED4700"/>
<defs>
<linearGradient id="paint0_linear_2928_267439" x1="2.06452" y1="92" x2="56.6415" y2="5.15165" gradientUnits="userSpaceOnUse">
<stop stop-color="#DAD7C9"/>
<stop offset="1" stop-color="#FFFCED"/>
</linearGradient>
</defs>
</svg>
