<svg width="64" height="92" viewBox="0 0 64 92" fill="none" xmlns="http://www.w3.org/2000/svg">
<path d="M0 4C0 1.79086 1.79086 0 4 0H60C62.2091 0 64 1.79086 64 4V88C64 90.2091 62.2091 92 60 92H4C1.79086 92 0 90.2091 0 88V4Z" fill="url(#paint0_linear_2928_267449)"/>
<path d="M11.6949 11.043C12.2588 11.4389 12.5408 12.1168 12.5408 13.0766V14.8044C12.5408 16.3881 11.7969 17.18 10.3091 17.18H8.18548C6.69772 17.18 5.95384 16.3881 5.95384 14.8044V13.0766C5.95384 12.1168 6.2358 11.4389 6.79971 11.043C6.30779 10.683 6.06183 10.0351 6.06183 9.09929V7.55154C6.06183 5.9678 6.80571 5.17592 8.29346 5.17592H10.2012C11.6889 5.17592 12.4328 5.9678 12.4328 7.55154V9.09929C12.4328 10.0351 12.1868 10.683 11.6949 11.043ZM8.31146 7.55154V9.74718C8.31146 9.84316 8.34146 9.92715 8.40145 9.99914C8.47343 10.0711 8.55742 10.1071 8.65341 10.1071H9.85921C9.95519 10.1071 10.0332 10.0711 10.0932 9.99914C10.1652 9.92715 10.2012 9.84316 10.2012 9.74718V7.55154C10.2012 7.45555 10.1652 7.37157 10.0932 7.29958C10.0332 7.22759 9.95519 7.1916 9.85921 7.1916H8.65341C8.55742 7.1916 8.47343 7.22759 8.40145 7.29958C8.34146 7.37157 8.31146 7.45555 8.31146 7.55154ZM10.3091 14.8583V12.4647C10.3091 12.3688 10.2731 12.2848 10.2012 12.2128C10.1412 12.1408 10.0632 12.1048 9.96719 12.1048H8.54542C8.44944 12.1048 8.36545 12.1408 8.29346 12.2128C8.23347 12.2848 8.20348 12.3688 8.20348 12.4647V14.8583C8.20348 14.9543 8.23347 15.0383 8.29346 15.1103C8.36545 15.1823 8.44944 15.2183 8.54542 15.2183H9.96719C10.0632 15.2183 10.1412 15.1823 10.2012 15.1103C10.2731 15.0383 10.3091 14.9543 10.3091 14.8583Z" fill="#ED4700"/>
<path d="M57.2588 80.043C57.8227 80.4389 58.1046 81.1168 58.1046 82.0766V83.8044C58.1046 85.3881 57.3608 86.18 55.873 86.18H53.7494C52.2616 86.18 51.5177 85.3881 51.5177 83.8044V82.0766C51.5177 81.1168 51.7997 80.4389 52.3636 80.043C51.8717 79.683 51.6257 79.0351 51.6257 78.0993V76.5515C51.6257 74.9678 52.3696 74.1759 53.8573 74.1759H55.765C57.2528 74.1759 57.9967 74.9678 57.9967 76.5515V78.0993C57.9967 79.0351 57.7507 79.683 57.2588 80.043ZM53.8753 76.5515V78.7472C53.8753 78.8432 53.9053 78.9272 53.9653 78.9991C54.0373 79.0711 54.1213 79.1071 54.2173 79.1071H55.4231C55.5191 79.1071 55.5971 79.0711 55.657 78.9991C55.729 78.9272 55.765 78.8432 55.765 78.7472V76.5515C55.765 76.4556 55.729 76.3716 55.657 76.2996C55.5971 76.2276 55.5191 76.1916 55.4231 76.1916H54.2173C54.1213 76.1916 54.0373 76.2276 53.9653 76.2996C53.9053 76.3716 53.8753 76.4556 53.8753 76.5515ZM55.873 83.8583V81.4647C55.873 81.3688 55.837 81.2848 55.765 81.2128C55.705 81.1408 55.627 81.1048 55.5311 81.1048H54.1093C54.0133 81.1048 53.9293 81.1408 53.8573 81.2128C53.7973 81.2848 53.7674 81.3688 53.7674 81.4647V83.8583C53.7674 83.9543 53.7973 84.0383 53.8573 84.1103C53.9293 84.1823 54.0133 84.2183 54.1093 84.2183H55.5311C55.627 84.2183 55.705 84.1823 55.765 84.1103C55.837 84.0383 55.873 83.9543 55.873 83.8583Z" fill="#ED4700"/>
<path d="M15.7071 47.6778C15.3166 47.2873 15.3166 46.6541 15.7071 46.2636L31.2635 30.7072C31.654 30.3167 32.2871 30.3167 32.6777 30.7072L48.234 46.2636C48.6245 46.6541 48.6245 47.2873 48.234 47.6778L32.6777 63.2342C32.2871 63.6247 31.654 63.6247 31.2635 63.2342L15.7071 47.6778Z" fill="#ED4700"/>
<path d="M47.5687 11.2259C47.4385 11.0958 47.4385 10.8847 47.5687 10.7545L52.7542 5.56908C52.8843 5.43891 53.0954 5.43891 53.2256 5.56908L58.411 10.7545C58.5412 10.8847 58.5412 11.0958 58.411 11.2259L53.2256 16.4114C53.0954 16.5416 52.8843 16.5416 52.7542 16.4114L47.5687 11.2259Z" fill="#ED4700"/>
<path d="M5.56871 80.2259C5.43854 80.0958 5.43854 79.8847 5.56871 79.7545L10.7542 74.5691C10.8843 74.4389 11.0954 74.4389 11.2256 74.5691L16.411 79.7545C16.5412 79.8847 16.5412 80.0958 16.411 80.2259L11.2256 85.4114C11.0954 85.5416 10.8843 85.5416 10.7542 85.4114L5.56871 80.2259Z" fill="#ED4700"/>
<defs>
<linearGradient id="paint0_linear_2928_267449" x1="2.06452" y1="92" x2="56.6415" y2="5.15165" gradientUnits="userSpaceOnUse">
<stop stop-color="#DAD7C9"/>
<stop offset="1" stop-color="#FFFCED"/>
</linearGradient>
</defs>
</svg>
