<svg width="64" height="92" viewBox="0 0 64 92" fill="none" xmlns="http://www.w3.org/2000/svg">
<path d="M0 4C0 1.79086 1.79086 0 4 0H60C62.2091 0 64 1.79086 64 4V88C64 90.2091 62.2091 92 60 92H4C1.79086 92 0 90.2091 0 88V4Z" fill="url(#paint0_linear_2928_267509)"/>
<path d="M10.5251 5.17592C12.0129 5.17592 12.7567 5.9678 12.7567 7.55154V17H10.2371V13.0946H8.41944V17H5.89985V7.55154C5.89985 5.9678 6.64373 5.17592 8.13149 5.17592H10.5251ZM8.41944 11.151H10.2371V7.24559C10.2371 7.1496 10.2012 7.06562 10.1292 6.99363C10.0692 6.92164 9.99119 6.88565 9.8952 6.88565H8.76139C8.6654 6.88565 8.58142 6.92164 8.50943 6.99363C8.44944 7.06562 8.41944 7.1496 8.41944 7.24559V11.151Z" fill="#ED4700"/>
<path d="M55.7902 74.1759C57.278 74.1759 58.0218 74.9678 58.0218 76.5515V86H55.5022V82.0946H53.6845V86H51.1649V76.5515C51.1649 74.9678 51.9088 74.1759 53.3966 74.1759H55.7902ZM53.6845 80.151H55.5022V76.2456C55.5022 76.1496 55.4662 76.0656 55.3943 75.9936C55.3343 75.9216 55.2563 75.8856 55.1603 75.8856H54.0265C53.9305 75.8856 53.8465 75.9216 53.7745 75.9936C53.7145 76.0656 53.6845 76.1496 53.6845 76.2456V80.151Z" fill="#ED4700"/>
<path d="M34.4436 35C37.4812 35 39 36.6073 39 39.8219V59H33.8556V51.0731H30.1444V59H25V39.8219C25 36.6073 26.5188 35 29.5564 35H34.4436ZM30.1444 47.1279H33.8556V39.2009C33.8556 39.0061 33.7822 38.8356 33.6352 38.6895C33.5127 38.5434 33.3535 38.4703 33.1575 38.4703H30.8425C30.6465 38.4703 30.4751 38.5434 30.3281 38.6895C30.2056 38.8356 30.1444 39.0061 30.1444 39.2009V47.1279Z" fill="#ED4700"/>
<path d="M47.5697 11.2259C47.4395 11.0958 47.4395 10.8847 47.5697 10.7545L52.7551 5.56908C52.8853 5.43891 53.0964 5.43891 53.2265 5.56908L58.412 10.7545C58.5422 10.8847 58.5422 11.0958 58.412 11.2259L53.2265 16.4114C53.0964 16.5416 52.8853 16.5416 52.7551 16.4114L47.5697 11.2259Z" fill="#ED4700"/>
<path d="M5.56969 80.2259C5.43951 80.0958 5.43951 79.8847 5.56969 79.7545L10.7551 74.5691C10.8853 74.4389 11.0964 74.4389 11.2265 74.5691L16.412 79.7545C16.5422 79.8847 16.5422 80.0958 16.412 80.2259L11.2265 85.4114C11.0964 85.5416 10.8853 85.5416 10.7551 85.4114L5.56969 80.2259Z" fill="#ED4700"/>
<defs>
<linearGradient id="paint0_linear_2928_267509" x1="2.06452" y1="92" x2="56.6415" y2="5.15165" gradientUnits="userSpaceOnUse">
<stop stop-color="#DAD7C9"/>
<stop offset="1" stop-color="#FFFCED"/>
</linearGradient>
</defs>
</svg>
