<svg width="64" height="92" viewBox="0 0 64 92" fill="none" xmlns="http://www.w3.org/2000/svg">
<path d="M0 4C0 1.79086 1.79086 0 4 0H60C62.2091 0 64 1.79086 64 4V88C64 90.2091 62.2091 92 60 92H4C1.79086 92 0 90.2091 0 88V4Z" fill="url(#paint0_linear_2928_267479)"/>
<path d="M9.22931 5.3559H11.7489V14.8044C11.7489 16.3881 11.005 17.18 9.51726 17.18H7.4296C5.94185 17.18 5.19797 16.3881 5.19797 14.8044V13.3466H7.59158V15.0923C7.59158 15.1883 7.62157 15.2723 7.68156 15.3443C7.75355 15.4163 7.83754 15.4523 7.93352 15.4523H8.88737C8.98335 15.4523 9.06134 15.4163 9.12133 15.3443C9.19332 15.2723 9.22931 15.1883 9.22931 15.0923V5.3559Z" fill="#ED4700"/>
<path d="M55.8829 74.3559H58.4024V83.8044C58.4024 85.3881 57.6586 86.18 56.1708 86.18H54.0831C52.5954 86.18 51.8515 85.3881 51.8515 83.8044V82.3466H54.2451V84.0923C54.2451 84.1883 54.2751 84.2723 54.3351 84.3443C54.4071 84.4163 54.4911 84.4523 54.5871 84.4523H55.5409C55.6369 84.4523 55.7149 84.4163 55.7749 84.3443C55.8469 84.2723 55.8829 84.1883 55.8829 84.0923V74.3559Z" fill="#ED4700"/>
<path d="M42.2998 51.7452C42.2238 59.8448 38.1464 63.7495 33.1076 64.0743C28.0688 64.399 23.3261 60.7517 22.9717 55.3566C22.9717 55.3566 22.6833 46.6485 22.8091 43.2844C23 33.9922 35.7304 37.4366 42.0717 40.3203C42.1731 41.4287 42.3606 45.2654 42.2998 51.7452Z" fill="url(#paint1_linear_2928_267479)"/>
<path d="M36.1071 48.3308C36.0518 49.2918 35.2318 50.0262 34.2758 49.9712C33.3197 49.9162 32.5895 49.0925 32.6449 48.1314C32.7002 47.1704 33.5202 46.436 34.4762 46.491C35.4323 46.5461 36.1625 47.3698 36.1071 48.3308Z" fill="#E89979"/>
<path d="M35.343 48.2452C35.343 48.9583 34.7647 49.5365 34.0514 49.5365C33.338 49.5365 32.7598 48.9583 32.7598 48.2452C32.7598 47.532 33.338 46.9539 34.0514 46.9539C34.7647 46.9539 35.343 47.532 35.343 48.2452Z" fill="#261611"/>
<path opacity="0.1" d="M35.1479 48.525C35.1479 48.7144 34.6565 49.3836 34.0505 49.3836C33.4444 49.3836 32.9531 48.7144 32.9531 48.525C32.9531 48.3356 33.4444 48.617 34.0505 48.617C34.6565 48.617 35.1479 48.3356 35.1479 48.525Z" fill="#F3CEC4"/>
<path d="M34.0506 47.76C34.0506 48.0434 33.8209 48.273 33.5375 48.273C33.2541 48.273 33.0244 48.0434 33.0244 47.76C33.0244 47.4767 33.2541 47.2471 33.5375 47.2471C33.8209 47.2471 34.0506 47.4767 34.0506 47.76Z" fill="#F3CEC4"/>
<path opacity="0.2" d="M34.7379 47.76C34.7379 47.8637 34.6538 47.9478 34.5501 47.9478C34.4464 47.9478 34.3623 47.8637 34.3623 47.76C34.3623 47.6563 34.4464 47.5723 34.5501 47.5723C34.6538 47.5723 34.7379 47.6563 34.7379 47.76Z" fill="#F3CEC4"/>
<path d="M32.2365 45.6421C31.746 45.1705 31.9003 44.6254 32.3497 44.0954C32.7991 43.5654 36.6322 44.6424 37.0473 44.7367C37.4623 44.831 37.5566 45.3403 37.2359 45.6421C36.9152 45.9438 32.727 46.1136 32.2365 45.6421Z" fill="#FF6B00"/>
<path opacity="0.5" d="M32.5719 45.5491C32.1486 45.3369 32.2818 45.0917 32.6696 44.8533C33.0574 44.6148 36.365 45.0993 36.7231 45.1418C37.0813 45.1842 37.1627 45.4133 36.8859 45.5491C36.6092 45.6848 32.9952 45.7612 32.5719 45.5491Z" fill="black" fill-opacity="0.12"/>
<path d="M29.7997 45.6421C30.2902 45.1705 30.1359 44.6254 29.6865 44.0954C29.2371 43.5654 25.4039 44.6424 24.9889 44.7367C24.5738 44.831 24.4795 45.3403 24.8002 45.6421C25.1209 45.9438 29.3091 46.1136 29.7997 45.6421Z" fill="#FF6B00"/>
<path opacity="0.5" d="M29.4642 45.5491C29.8875 45.3369 29.7543 45.0917 29.3665 44.8533C28.9788 44.6148 25.6711 45.0993 25.313 45.1418C24.9549 45.1842 24.8735 45.4133 25.1502 45.5491C25.427 45.6848 29.041 45.7612 29.4642 45.5491Z" fill="black" fill-opacity="0.12"/>
<path d="M28.1706 48.3308C28.1152 49.2918 27.2953 50.0262 26.3393 49.9712C25.3832 49.9162 24.653 49.0925 24.7084 48.1314C24.7637 47.1704 25.5836 46.436 26.5397 46.491C27.4958 46.5461 28.226 47.3698 28.1706 48.3308Z" fill="#E89979"/>
<path d="M27.4065 48.2452C27.4065 48.9583 26.8282 49.5365 26.1148 49.5365C25.4015 49.5365 24.8232 48.9583 24.8232 48.2452C24.8232 47.532 25.4015 46.9539 26.1148 46.9539C26.8282 46.9539 27.4065 47.532 27.4065 48.2452Z" fill="#261611"/>
<path opacity="0.1" d="M27.2113 48.525C27.2113 48.7144 26.72 49.3836 26.114 49.3836C25.5079 49.3836 25.0166 48.7144 25.0166 48.525C25.0166 48.3356 25.5079 48.617 26.114 48.617C26.72 48.617 27.2113 48.3356 27.2113 48.525Z" fill="#F3CEC4"/>
<path d="M26.1141 47.76C26.1141 48.0434 25.8844 48.273 25.601 48.273C25.3176 48.273 25.0879 48.0434 25.0879 47.76C25.0879 47.4767 25.3176 47.2471 25.601 47.2471C25.8844 47.2471 26.1141 47.4767 26.1141 47.76Z" fill="#F3CEC4"/>
<path opacity="0.2" d="M26.8013 47.76C26.8013 47.8637 26.7173 47.9478 26.6136 47.9478C26.5099 47.9478 26.4258 47.8637 26.4258 47.76C26.4258 47.6563 26.5099 47.5723 26.6136 47.5723C26.7173 47.5723 26.8013 47.6563 26.8013 47.76Z" fill="#F3CEC4"/>
<path d="M28.7458 52.6991L30.1023 47.0017L31.3232 51.8853L32.5441 53.1062V54.3271H30.1023L29.2041 53.7882C28.8302 53.5639 28.6448 53.1232 28.7458 52.6991Z" fill="url(#paint2_linear_2928_267479)"/>
<path d="M30.6111 54.3272C31.2301 53.9476 32.4428 52.8011 32.4427 54.3272L30.6111 54.3272Z" fill="#AA2727"/>
<path d="M37.011 51.5562C37.0265 52.0488 36.1821 52.4751 35.1249 52.5084C34.0676 52.5418 33.198 52.1695 33.1824 51.677C33.1669 51.1844 34.0113 50.7581 35.0686 50.7248C36.1258 50.6914 36.9955 51.0637 37.011 51.5562Z" fill="#FCA28E"/>
<path d="M24.0261 51.5562C24.0106 52.0488 24.855 52.4751 25.9123 52.5084C26.9695 52.5418 27.8391 52.1695 27.8547 51.677C27.8702 51.1844 27.0258 50.7581 25.9685 50.7248C24.9113 50.6914 24.0417 51.0637 24.0261 51.5562Z" fill="#FCA28E"/>
<mask id="mask0_2928_267479" style="mask-type:alpha" maskUnits="userSpaceOnUse" x="27" y="56" width="8" height="4">
<path d="M34.2692 56.3744C33.9736 56.4467 33.1608 56.4812 32.7914 56.4894C31.9534 56.4894 30.1602 56.4796 29.6916 56.4401C29.1059 56.3908 26.6188 55.6347 27.1144 56.8264C27.61 58.018 29.0338 59.1603 31.1243 59.2096C33.2149 59.2589 34.6296 57.5824 34.909 57.0893C35.1883 56.5963 34.6387 56.284 34.2692 56.3744Z" fill="#AA2727"/>
</mask>
<g mask="url(#mask0_2928_267479)">
<path d="M34.2692 56.3744C33.9736 56.4467 33.1608 56.4812 32.7914 56.4894C31.9534 56.4894 30.1602 56.4796 29.6916 56.4401C29.1059 56.3908 26.6188 55.6347 27.1144 56.8264C27.61 58.018 29.0338 59.1603 31.1243 59.2096C33.2149 59.2589 34.6296 57.5824 34.909 57.0893C35.1883 56.5963 34.6387 56.284 34.2692 56.3744Z" fill="#AA2727"/>
<path d="M34.334 56.5636C34.0652 56.6293 33.326 56.6607 32.99 56.6682C32.2278 56.6682 30.5969 56.6592 30.1708 56.6234C29.6381 56.5785 27.3762 55.8909 27.8269 56.9746C28.2777 58.0584 29.5725 59.0973 31.4738 59.1422C33.3752 59.187 34.6618 57.6623 34.9159 57.2138C35.17 56.7654 34.67 56.4813 34.334 56.5636Z" fill="#F35353"/>
<path d="M29.5948 58.2133C29.5948 58.4573 30.2244 58.6551 31.001 58.6551C31.7777 58.6551 32.4072 58.4573 32.4072 58.2133C32.4072 57.9693 31.7777 57.7715 31.001 57.7715C30.2244 57.7715 29.5948 57.9693 29.5948 58.2133Z" fill="#E33867"/>
<path d="M29.5948 58.2133C29.5948 58.4573 30.2244 58.6551 31.001 58.6551C31.7777 58.6551 32.4072 58.4573 32.4072 58.2133C32.4072 57.9693 31.7777 57.7715 31.001 57.7715C30.2244 57.7715 29.5948 57.9693 29.5948 58.2133Z" fill="#E33867"/>
</g>
<path d="M38.0382 46.0861C37.3057 43.4001 35.0877 42.3216 34.0703 42.1182C35.4947 41.3042 39.076 40.47 42.0061 43.6443C45.6688 47.6122 43.8375 57.9898 42.0061 57.9898C40.5411 57.9898 41.3957 51.5801 42.0061 49.1383C40.9887 49.2401 38.7708 48.772 38.0382 46.0861Z" fill="#FF6B00"/>
<path d="M41.5 44.5C40.7675 41.814 35.0877 42.3216 34.0703 42.1182C35.4947 41.3042 39.076 40.47 42.0061 43.6443C45.6688 47.6122 43.8375 57.9898 42.0061 57.9898C44.9705 49.8982 41.6364 45 41.5 44.5Z" fill="#CC5804"/>
<path d="M20.946 44.56C19.9693 42.8507 21.9634 42.2199 23.0826 42.1182H23.3875L22.777 47.9174C22.5736 47.5105 21.9227 46.2692 20.946 44.56Z" fill="#FF6B00"/>
<path opacity="0.3" d="M33.7458 61.8101C33.7107 62.4188 32.6074 62.8503 31.2816 62.7739C29.9557 62.6976 28.9093 62.1423 28.9443 61.5337C28.9794 60.925 30.0826 60.4935 31.4085 60.5699C32.7344 60.6462 33.7808 61.2015 33.7458 61.8101Z" fill="#FAEDFF"/>
<path opacity="0.3" d="M32.6961 62.2209C32.676 62.5701 32.043 62.8177 31.2822 62.7739C30.5214 62.7301 29.921 62.4115 29.9411 62.0623C29.9612 61.713 30.5943 61.4654 31.355 61.5092C32.1158 61.553 32.7163 61.8717 32.6961 62.2209Z" fill="#FAEDFF"/>
<path d="M41.0901 32.6563C46.279 34.4876 45.9737 40.5921 42.9215 43.3391C42.9215 43.3391 27.2415 39.3712 23.7883 39.9816C20.3351 40.5921 18.4148 38.1597 18.5029 36.3189C18.5029 30.5197 23.0819 27.4674 29.4916 32.6563C31.4247 32.2493 36.9391 31.1912 41.0901 32.6563Z" fill="#FF6B00"/>
<mask id="mask1_2928_267479" style="mask-type:alpha" maskUnits="userSpaceOnUse" x="18" y="30" width="28" height="14">
<path d="M41.0901 32.6563C46.279 34.4876 45.9737 40.5921 42.9215 43.3391C42.9215 43.3391 27.2415 39.3712 23.7883 39.9816C20.3351 40.5921 18.4148 38.1597 18.5029 36.3189C18.5029 30.5197 23.0819 27.4674 29.4916 32.6563C31.4247 32.2493 36.9391 31.1912 41.0901 32.6563Z" fill="#FF6B00"/>
</mask>
<g mask="url(#mask1_2928_267479)">
<path d="M41.0901 32.6563C46.279 34.4876 45.9737 40.5921 42.9215 43.3391C42.9215 43.3391 27.2415 39.3712 23.7883 39.9816C20.3351 40.5921 18.4148 38.1597 18.5029 36.3189C18.5029 30.5197 23.0819 27.4674 29.4916 32.6563C31.4247 32.2493 36.9391 31.1912 41.0901 32.6563Z" fill="#FF6B00"/>
<path d="M36.2501 41.5001C29.2501 40.7501 23.0834 40.0001 21.2501 39.7501C21.2501 39.7501 18.5001 36.5001 24.5001 35.0001C30.5001 33.5001 42.7501 40.5002 43.0001 43.5001C43.2501 46.5001 44.5835 44.6668 43.7501 45.7501C41.0835 44.2501 43.2501 42.2501 36.2501 41.5001Z" fill="#E05E00"/>
</g>
<mask id="mask2_2928_267479" style="mask-type:alpha" maskUnits="userSpaceOnUse" x="21" y="37" width="24" height="10">
<path d="M23.25 42.25C21.4099 44.359 21.3828 40.8724 21.7336 39.5669C23.5758 35.9517 33.25 36.75 41.75 42.5C44.754 44.5321 45.651 47.4406 43.25 46C35.75 41.5 25.4112 39.7729 23.25 42.25Z" fill="#FBC815"/>
</mask>
<g mask="url(#mask2_2928_267479)">
<path d="M23.25 42.25C21.4099 44.359 21.3828 40.8724 21.7336 39.5669C23.5758 35.9517 33.25 36.75 41.75 42.5C44.754 44.5321 45.651 47.4406 43.25 46C35.75 41.5 25.4112 39.7729 23.25 42.25Z" fill="#FBE315"/>
<path d="M28.5 42.7502C28.5 42.7502 34.6491 41.3055 35 40.0001C36.25 38.2502 35.75 38.0001 41.7499 42.5001C44.6514 44.6762 45.6509 47.4407 43.2499 46.0001C35.7499 41.5001 28.5 42.7502 28.5 42.7502Z" fill="#FBC815"/>
</g>
<path d="M47.5687 11.2259C47.4385 11.0958 47.4385 10.8847 47.5687 10.7545L52.7542 5.56908C52.8843 5.43891 53.0954 5.43891 53.2256 5.56908L58.411 10.7545C58.5412 10.8847 58.5412 11.0958 58.411 11.2259L53.2256 16.4114C53.0954 16.5416 52.8843 16.5416 52.7542 16.4114L47.5687 11.2259Z" fill="#ED4700"/>
<path d="M5.56871 80.2259C5.43854 80.0958 5.43854 79.8847 5.56871 79.7545L10.7542 74.5691C10.8843 74.4389 11.0954 74.4389 11.2256 74.5691L16.411 79.7545C16.5412 79.8847 16.5412 80.0958 16.411 80.2259L11.2256 85.4114C11.0954 85.5416 10.8843 85.5416 10.7542 85.4114L5.56871 80.2259Z" fill="#ED4700"/>
<defs>
<linearGradient id="paint0_linear_2928_267479" x1="2.06452" y1="92" x2="56.6415" y2="5.15165" gradientUnits="userSpaceOnUse">
<stop stop-color="#DAD7C9"/>
<stop offset="1" stop-color="#FFFCED"/>
</linearGradient>
<linearGradient id="paint1_linear_2928_267479" x1="32.5445" y1="37.2346" x2="32.5445" y2="64.0943" gradientUnits="userSpaceOnUse">
<stop stop-color="#FFBC98"/>
<stop offset="1" stop-color="#FAC4A6"/>
</linearGradient>
<linearGradient id="paint2_linear_2928_267479" x1="30.5641" y1="48.5359" x2="30.5641" y2="54.4292" gradientUnits="userSpaceOnUse">
<stop stop-color="#F5B694"/>
<stop offset="1" stop-color="#FF7762"/>
</linearGradient>
</defs>
</svg>
