<svg width="55" height="24" viewBox="0 0 55 24" fill="none" xmlns="http://www.w3.org/2000/svg">
<path d="M10.0533 3.33222C9.407 4.11622 8.37747 4.73747 7.34966 4.64647C7.21388 3.58947 7.72607 2.45722 8.31732 1.75547C8.96185 0.955723 10.0893 0.381723 11.0037 0.334473C11.112 1.43872 10.6892 2.52372 10.055 3.33222H10.0533ZM10.9934 4.85472C9.49982 4.76197 8.21763 5.72797 7.5095 5.72797C6.78591 5.72797 5.70138 4.90022 4.5206 4.92822C2.98919 4.94747 1.55747 5.83822 0.778879 7.27147C-0.841902 10.1222 0.357785 14.3432 1.91497 16.6672C2.67638 17.8152 3.58732 19.0735 4.78872 19.0385C5.92482 18.9912 6.382 18.2737 7.75185 18.2737C9.13888 18.2737 9.53247 19.0385 10.7425 19.0105C11.9851 18.9912 12.7723 17.8625 13.5337 16.7145C14.4017 15.4107 14.7592 14.1332 14.7781 14.0702C14.7592 14.0422 12.3701 13.1042 12.3529 10.278C12.334 7.90672 14.2315 6.77797 14.3123 6.71322C13.2467 5.07347 11.564 4.90022 10.9917 4.85647L10.9934 4.85472ZM19.6147 1.64522V18.8915H22.2186V12.9957H25.8193C29.1039 12.9957 31.4139 10.6717 31.4139 7.31697C31.4139 3.95522 29.1503 1.64697 25.9087 1.64697L19.6147 1.64522ZM22.2186 3.90622H25.2178C27.4728 3.90622 28.7636 5.14522 28.7636 7.32397C28.7636 9.50272 27.4728 10.7522 25.2006 10.7522H22.2186V3.90622ZM36.1559 19.0192C37.7939 19.0192 39.3064 18.1722 39.9973 16.8212H40.0523V18.8915H42.4586V10.3042C42.4586 7.82622 40.5267 6.21447 37.5447 6.21447C34.7878 6.21447 32.7459 7.84547 32.6754 10.0785H35.0112C35.2089 9.01272 36.1576 8.31972 37.4742 8.31972C39.0675 8.31972 39.9543 9.08447 39.9543 10.4897V11.4365L36.7145 11.6377C33.6878 11.8285 32.0584 13.0955 32.0584 15.311C32.0584 17.544 33.7428 19.021 36.1576 19.021L36.1559 19.0192ZM36.864 16.977C35.4753 16.977 34.5901 16.2927 34.5901 15.2462C34.5901 14.1612 35.4409 13.5225 37.06 13.421L39.9526 13.239V14.2137C39.9526 15.829 38.6189 16.977 36.8537 16.977H36.864ZM45.6726 23.585C48.2043 23.585 49.3972 22.5822 50.4353 19.5652L55.0003 6.38597H52.3603L49.2992 16.5657H49.2442L46.1831 6.38597H43.4623L47.8675 18.937L47.6337 19.7017C47.2298 20.988 46.587 21.4867 45.4406 21.4867C45.2343 21.4867 44.8408 21.4605 44.6792 21.443V23.5132C44.8304 23.557 45.4767 23.5762 45.664 23.5762L45.6726 23.585Z" fill="#909194"/>
</svg>
