<svg width="34" height="34" viewBox="0 0 34 34" fill="none" xmlns="http://www.w3.org/2000/svg">
<path fill-rule="evenodd" clip-rule="evenodd" d="M33.49 21.1152C31.2205 30.223 21.9952 35.7664 12.886 33.494C3.78111 31.2245 -1.76231 21.9978 0.508606 12.8915C2.77952 3.78229 12.0034 -1.76255 21.1112 0.509787C30.2204 2.7807 35.7624 12.0075 33.4914 21.1166L33.49 21.1152ZM24.4956 14.5801C24.8356 12.3177 23.1115 11.1008 20.7556 10.2905L21.5206 7.22479L19.6549 6.76012L18.9111 9.74362C18.4141 9.62161 17.9159 9.5045 17.4165 9.39229L18.1674 6.38896L16.3016 5.92429L15.5366 8.98712C15.139 8.89798 14.7424 8.80495 14.3466 8.70804L14.348 8.69812L11.7754 8.05637L11.2795 10.0482C11.2795 10.0482 12.6636 10.3655 12.6339 10.3854C13.3904 10.5738 13.5264 11.0739 13.5037 11.4705L12.6324 14.9612C12.6849 14.9754 12.7529 14.9938 12.8265 15.0235L12.6296 14.974L11.4113 19.8657C11.3178 20.0952 11.084 20.4395 10.5556 20.3077C10.574 20.336 9.19986 19.9691 9.19986 19.9691L8.27336 22.1055L10.7001 22.7104C11.1534 22.8237 11.5954 22.9413 12.0318 23.0532L11.2583 26.1529L13.1226 26.6175L13.8876 23.5519C14.3962 23.6893 14.8892 23.8168 15.3737 23.9372L14.6115 26.9901L16.4773 27.4548L17.2479 24.3608C20.4298 24.9629 22.8211 24.7192 23.8284 21.842C24.6401 19.5257 23.7873 18.1898 22.1142 17.3185C23.3325 17.038 24.2505 16.2362 24.4956 14.5801ZM20.2343 20.557C19.6577 22.8733 15.7576 21.6195 14.4925 21.3079L15.5168 17.1995C16.7819 17.5155 20.8364 18.1402 20.2343 20.557ZM20.8109 14.5461C20.2853 16.6527 17.0383 15.5831 15.9857 15.321L16.915 11.5952C17.9676 11.8587 21.3591 12.3489 20.8109 14.5461Z" fill="#909194"/>
</svg>
