<svg width="80" height="14" viewBox="0 0 80 14" fill="none" xmlns="http://www.w3.org/2000/svg">
<path d="M48.6001 7.00005C48.6001 8.33347 48.2047 9.63696 47.4641 10.7458C46.7234 11.8545 45.6706 12.7189 44.4388 13.2294C43.207 13.74 41.8515 13.874 40.5436 13.6143C39.2357 13.3546 38.0342 12.7131 37.0908 11.7707C36.1475 10.8283 35.5047 9.62733 35.2438 8.31969C34.9828 7.01205 35.1154 5.6564 35.6248 4.4241C36.1342 3.1918 36.9974 2.13818 38.1055 1.39641C39.2135 0.654641 40.5166 0.258032 41.8501 0.256714H41.8567C45.5834 0.256714 48.6001 3.27671 48.6001 7.00005ZM31.2667 0.330045C27.5201 0.330045 24.5167 3.27672 24.5167 6.96338C24.5167 10.6901 27.4434 13.5767 31.2067 13.5767C32.2701 13.5767 33.1834 13.3667 34.3067 12.84V9.93005C33.3201 10.92 32.4434 11.3167 31.3234 11.3167C28.8334 11.3167 27.0667 9.51005 27.0667 6.94338C27.0667 4.51005 28.8901 2.59005 31.2101 2.59005C32.3901 2.59005 33.2834 3.01005 34.3101 4.01671V1.10671C33.377 0.596128 32.3303 0.329005 31.2667 0.330045ZM20.0934 5.48005C18.6101 4.93005 18.1734 4.57005 18.1734 3.88338C18.1734 3.08671 18.9501 2.47671 20.0167 2.47671C20.7567 2.47671 21.3667 2.78005 22.0101 3.50338L23.3034 1.81005C22.2789 0.896945 20.9524 0.395803 19.5801 0.403379C17.3367 0.403379 15.6267 1.96005 15.6267 4.03338C15.6267 5.78005 16.4234 6.67338 18.7467 7.51005C19.7167 7.85338 20.2067 8.08005 20.4567 8.23338C20.6836 8.36904 20.8712 8.56153 21.001 8.79185C21.1308 9.02217 21.1982 9.28236 21.1967 9.54672C21.1967 10.5734 20.3801 11.3334 19.2767 11.3334C18.0967 11.3334 17.1467 10.7434 16.5801 9.64338L14.9834 11.18C16.1234 12.8534 17.4901 13.5934 19.3734 13.5934C21.9434 13.5934 23.7434 11.8834 23.7434 9.43005C23.7367 7.42005 22.9034 6.51005 20.0934 5.48005ZM80.0001 1.33338C80.0009 1.58918 79.9004 1.83491 79.7205 2.01672C79.5405 2.19854 79.2959 2.30162 79.0401 2.30338C78.9126 2.30382 78.7862 2.27903 78.6683 2.23044C78.5505 2.18185 78.4433 2.11042 78.3532 2.02026C78.263 1.93009 78.1916 1.82299 78.143 1.7051C78.0944 1.58722 78.0696 1.46089 78.0701 1.33338V1.32338C78.063 1.19186 78.083 1.0603 78.1286 0.93676C78.1743 0.813222 78.2447 0.700317 78.3356 0.604974C78.4264 0.50963 78.5358 0.433858 78.657 0.38231C78.7782 0.330762 78.9087 0.304526 79.0404 0.305208C79.1721 0.305891 79.3022 0.333479 79.4229 0.38628C79.5436 0.439081 79.6521 0.51598 79.742 0.61226C79.8319 0.70854 79.9011 0.822169 79.9455 0.946173C79.9899 1.07018 80.0084 1.20194 80.0001 1.33338ZM79.8034 1.33671C79.8052 1.23384 79.7866 1.13163 79.7489 1.03591C79.7112 0.940199 79.6549 0.852857 79.5834 0.778876C79.5119 0.704896 79.4265 0.645727 79.3322 0.604748C79.2378 0.563769 79.1363 0.541784 79.0334 0.540047C78.9301 0.540907 78.828 0.56227 78.7331 0.602901C78.6381 0.643532 78.5521 0.702619 78.4802 0.776734C78.4083 0.850848 78.3518 0.938514 78.314 1.03464C78.2762 1.13077 78.2579 1.23345 78.2601 1.33671C78.2601 1.77671 78.6067 2.13338 79.0334 2.13338C79.1363 2.13164 79.2378 2.10966 79.3322 2.06868C79.4265 2.0277 79.5119 1.96853 79.5834 1.89455C79.6549 1.82057 79.7112 1.73323 79.7489 1.63751C79.7866 1.5418 79.8052 1.43958 79.8034 1.33671ZM11.5734 13.2901H14.0467V0.613379H11.5734V13.2901ZM53.9134 9.13005L50.5334 0.616713H47.8334L53.2134 13.6167H54.5434L60.0201 0.616713H57.3401L53.9134 9.13005ZM61.1334 13.2901H68.1467V11.1434H63.6067V7.72005H67.9801V5.57338H63.6067V2.76005H68.1467V0.613379H61.1334V13.2901ZM79.1634 1.43338L79.5301 1.89338H79.2067L78.8934 1.46005V1.89338H78.6267V0.780046H78.9834C79.2534 0.780046 79.4034 0.900048 79.4034 1.12338C79.4067 1.27671 79.3201 1.39005 79.1634 1.43338ZM79.1434 1.12671C79.1434 1.03005 79.0734 0.983379 78.9434 0.983379H78.8967V1.27338H78.9434C79.0734 1.27338 79.1434 1.22671 79.1434 1.12671ZM75.0501 7.95005L79.0401 13.2901H76.0001L72.5767 8.19672H72.2534V13.2901H69.7834V0.613379H73.4501C76.3001 0.613379 77.9367 1.98338 77.9367 4.35671C77.9367 6.30005 76.9101 7.57338 75.0501 7.95005ZM75.3934 4.49005C75.3934 3.25671 74.5567 2.61338 73.0167 2.61338H72.2567V6.45338H72.9801C74.5567 6.45005 75.3934 5.76338 75.3934 4.49005ZM10.4367 6.96338C10.432 7.89333 10.2237 8.81095 9.82635 9.65174C9.42899 10.4925 8.85226 11.2361 8.13673 11.8301C6.92006 12.8401 5.53339 13.2934 3.61339 13.2934H0.00339508V0.616713H3.63339C7.64006 0.616713 10.4367 3.22005 10.4367 6.96338ZM7.89006 6.94338C7.89006 5.73005 7.37673 4.55005 6.52006 3.78672C5.70339 3.04671 4.7334 2.76005 3.13673 2.76005H2.4734V11.1434H3.13673C4.7334 11.1434 5.74339 10.8367 6.52006 10.1367C7.37339 9.37672 7.89006 8.16005 7.89006 6.94338Z" fill="#909194"/>
</svg>
