<svg width="50" height="20" viewBox="0 0 50 20" fill="none" xmlns="http://www.w3.org/2000/svg">
<path d="M50 4.83284L43.4734 19.4157H41.4546L43.8796 14.3125L39.5828 4.83128H41.7062L44.8156 12.0985H44.8562L47.8671 4.83128L50 4.83284ZM22.8843 9.34221V15.25H20.8328V0.667215H26.2609C27.5494 0.631894 28.8042 1.08194 29.7765 1.92815C30.7375 2.71722 31.2656 3.83284 31.25 5.01253C31.2566 5.6062 31.1272 6.19352 30.8718 6.7295C30.6164 7.26547 30.2418 7.73589 29.7765 8.10471C28.8328 8.9344 27.6609 9.34221 26.2609 9.34221H22.8843ZM22.8765 2.46565V7.55159H26.3109C27.0586 7.5784 27.7867 7.3095 28.3375 6.80315C28.8671 6.33128 29.1593 5.68753 29.1593 5.02034C29.1593 4.34534 28.8656 3.70159 28.3375 3.23753C28.0677 2.9808 27.7497 2.78023 27.4018 2.64745C27.0539 2.51468 26.6831 2.45235 26.3109 2.46409L22.8765 2.46565ZM35.3593 4.83284C36.6609 4.83284 37.6953 5.19847 38.4515 5.92347C39.2078 6.64847 39.5828 7.64065 39.5828 8.90159V14.9313H37.8906V13.5719H37.8171C37.0843 14.6875 36.1156 15.2485 34.9031 15.2485C33.8609 15.2485 32.9984 14.9313 32.2984 14.2875C31.9606 13.9886 31.6918 13.6198 31.5105 13.2068C31.3293 12.7938 31.2398 12.3463 31.2484 11.8953C31.2484 10.886 31.614 10.0813 32.3546 9.47815C33.0875 8.8844 34.0718 8.58284 35.3 8.58284C36.35 8.58284 37.2125 8.78596 37.8875 9.1844V8.76097C37.8896 8.45359 37.8261 8.14929 37.701 7.86849C37.576 7.58769 37.3924 7.33687 37.1625 7.13284C36.6994 6.69936 36.0874 6.46049 35.4531 6.46565C34.4687 6.46565 33.6875 6.8969 33.1093 7.7594L31.5546 6.75003C32.4093 5.4719 33.6781 4.82972 35.3546 4.82972L35.3593 4.83284ZM33.0734 11.9375C33.0699 12.1691 33.1212 12.3982 33.223 12.6062C33.3248 12.8141 33.4743 12.9951 33.6593 13.1344C34.05 13.4516 34.539 13.6235 35.0343 13.6141C35.775 13.6141 36.4906 13.3047 37.0203 12.7594C37.5812 12.2391 37.9 11.5063 37.9 10.7407C37.3468 10.2844 36.5812 10.0563 35.5968 10.0563C34.8718 10.0563 34.2781 10.236 33.7984 10.5938C33.3187 10.9594 33.0734 11.4 33.0734 11.936V11.9375ZM8.50464 0.667215C10.6084 0.641842 12.6428 1.41905 14.1937 2.84065L11.7687 5.21722C10.8828 4.39534 9.71282 3.94895 8.50464 3.9719C7.45031 3.97706 6.42378 4.31057 5.56774 4.92607C4.71171 5.54157 4.06869 6.40847 3.72808 7.40628C3.37019 8.43971 3.37019 9.56347 3.72808 10.5969C4.06869 11.5947 4.71171 12.4616 5.56774 13.0771C6.42378 13.6926 7.45031 14.0261 8.50464 14.0313C9.65152 14.0313 10.6375 13.7469 11.4015 13.2422C11.8411 12.956 12.2178 12.5832 12.5087 12.1467C12.7996 11.7102 12.9987 11.219 13.0937 10.7032H8.50308V7.4969H16.5187C16.6171 8.05784 16.6656 8.62034 16.6656 9.18909C16.6656 11.7282 15.7375 13.8766 14.1343 15.325C12.7265 16.5953 10.7984 17.3344 8.50308 17.3344C6.93637 17.3424 5.39782 16.9181 4.05668 16.1082C2.71554 15.2982 1.62378 14.1341 0.901517 12.7438C0.307688 11.5852 -0.00201416 10.3019 -0.00201416 9.00003C-0.00201416 7.69811 0.307688 6.41487 0.901517 5.25628C1.62292 3.86727 2.71317 2.70396 4.05254 1.89411C5.3919 1.08427 6.92855 0.659217 8.4937 0.665654L8.50464 0.667215Z" fill="#909194"/>
</svg>
