<svg width="55" height="36" viewBox="0 0 55 36" fill="none" xmlns="http://www.w3.org/2000/svg">
<path d="M51.3333 36H3.66667C2.69421 36 1.76158 35.6207 1.07394 34.9456C0.386308 34.2705 0 33.3548 0 32.4L0 3.6C0 2.64522 0.386308 1.72955 1.07394 1.05442C1.76158 0.379285 2.69421 0 3.66667 0L51.3333 0C52.3058 0 53.2384 0.379285 53.9261 1.05442C54.6137 1.72955 55 2.64522 55 3.6V32.4C55 33.3548 54.6137 34.2705 53.9261 34.9456C53.2384 35.6207 52.3058 36 51.3333 36ZM22.33 21.2325V31.5015H28.9804C30.1822 31.5003 31.3345 31.031 32.1843 30.1967C33.0342 29.3623 33.5121 28.231 33.5133 27.051V4.7985H26.8644C25.6623 4.79929 24.5097 5.26839 23.6595 6.10281C22.8094 6.93722 22.3312 8.06876 22.33 9.249V15.069C23.9197 13.9746 25.8514 13.4652 27.7857 13.6305L27.7551 13.629C28.0454 13.629 28.3571 13.6365 28.6794 13.65C29.9872 13.734 31.2018 13.9245 32.3767 14.2155L32.2361 14.1855V16.0695C31.1825 15.5136 30.0219 15.181 28.8292 15.093L28.8001 15.0915C28.6471 15.0814 28.4937 15.0764 28.3403 15.0765C26.18 15.0765 24.8906 16.2255 24.8906 18.1485C24.8681 18.5822 24.9433 19.0155 25.1108 19.4175C25.2784 19.8194 25.5342 20.1801 25.8599 20.4739C26.1857 20.7677 26.5735 20.9873 26.9956 21.1171C27.4177 21.247 27.8638 21.2838 28.3021 21.225L28.2868 21.2265C28.4487 21.2265 28.6214 21.219 28.8001 21.2055C30.0192 21.1059 31.2052 20.7651 32.2865 20.2035L32.2376 20.2275V22.1115H32.2239C31.081 22.3939 29.9138 22.5717 28.7375 22.6425L28.6794 22.6455C28.3571 22.6605 28.0469 22.6665 27.7551 22.6665C25.8208 22.8236 23.8917 22.3092 22.304 21.213L22.33 21.231V21.2325ZM34.8318 22.4325V31.4805H41.4822C42.6841 31.4793 43.8363 31.01 44.6861 30.1757C45.536 29.3413 46.0139 28.21 46.0151 27.03V4.8H39.3892C38.1875 4.80119 37.0354 5.27051 36.1858 6.10493C35.3362 6.93934 34.8586 8.07066 34.8578 9.2505V13.872H41.2576L41.3386 13.8705C41.4685 13.8705 41.5953 13.8795 41.719 13.899L41.7053 13.8975C43.2575 13.9755 44.22 14.7705 44.22 15.9765C44.2028 16.5085 43.9797 17.014 43.5963 17.3902C43.2128 17.7664 42.6978 17.985 42.156 18.0015H42.1529V18.051C43.7021 18.153 44.7425 19.0185 44.7425 20.202C44.7425 21.513 43.5539 22.4265 41.855 22.4265L34.8318 22.4325ZM9.77778 22.0875V31.4475H16.4282C17.629 31.4459 18.7801 30.9771 19.6295 30.1437C20.4789 29.3104 20.9572 28.1804 20.9596 27.0015V4.8015H14.3351C13.1334 4.80269 11.9813 5.27201 11.1318 6.10643C10.2822 6.94084 9.80456 8.07216 9.80375 9.252V20.2305C10.9374 20.826 12.2787 21.1935 13.7026 21.234H13.7149C14.0187 21.2696 14.3267 21.2416 14.6187 21.1518C14.9106 21.062 15.1799 20.9125 15.4087 20.7131C15.6375 20.5136 15.8207 20.2689 15.9461 19.9949C16.0715 19.7209 16.1364 19.4239 16.1364 19.1235L16.1349 19.029V19.0335V13.8495H20.02V19.0095C20.02 21.4275 18.1424 22.6545 14.4421 22.6545C12.786 22.6545 11.1788 22.449 9.64639 22.062L9.77931 22.0905L9.77778 22.0875ZM37.0731 18.6645V21.012H39.6871C39.7253 21.012 39.7879 21.006 39.849 21C39.9101 20.994 39.9712 20.988 40.011 20.988C40.2715 20.9331 40.505 20.7923 40.6726 20.589C40.8402 20.3857 40.9319 20.1321 40.9322 19.8705V19.836V19.8375C40.9315 19.5737 40.8413 19.3177 40.6759 19.1099C40.5104 18.9021 40.2791 18.7544 40.0186 18.69L40.011 18.6885C39.9246 18.6706 39.8365 18.6616 39.7482 18.6615L39.6856 18.663H39.6886L37.0731 18.6645ZM37.0731 15.1935V17.3445H39.4411L39.4931 17.346C39.5598 17.3458 39.6262 17.3362 39.6901 17.3175L39.6856 17.319C39.9393 17.2786 40.1701 17.151 40.337 16.959C40.5038 16.7671 40.5958 16.5232 40.5965 16.2708C40.5972 16.0184 40.5067 15.774 40.341 15.5811C40.1752 15.3882 39.9451 15.2593 39.6917 15.2175L39.6856 15.216C39.6497 15.215 39.614 15.2114 39.5786 15.2055H39.5847C39.5366 15.1983 39.4882 15.1938 39.4396 15.192H39.4381L37.0731 15.1935Z" fill="#909194"/>
</svg>
