<svg width="40" height="40" viewBox="0 0 40 40" fill="none" xmlns="http://www.w3.org/2000/svg">
<g opacity="0.53">
<path opacity="0.5" d="M25.455 31.2133C23.2372 31.2136 21.0691 30.5563 19.2249 29.3244C17.3807 28.0926 15.9432 26.3415 15.0942 24.2927C14.2452 22.2438 14.0228 19.9892 14.4551 17.814C14.8875 15.6387 15.9551 13.6406 17.5231 12.0721C19.0911 10.5037 21.089 9.4354 23.2641 9.00241C25.4392 8.56942 27.6939 8.79115 29.7429 9.63955C31.792 10.488 33.5435 11.9249 34.776 13.7688C36.0084 15.6126 36.6663 17.7805 36.6667 19.9983V20C36.6636 22.9727 35.4814 25.8228 33.3795 27.925C31.2777 30.0272 28.4277 31.2098 25.455 31.2133Z" fill="#909194"/>
<path d="M14.545 31.2133C12.3272 31.2133 10.1592 30.5556 8.31521 29.3235C6.47119 28.0914 5.03394 26.3401 4.18523 24.2911C3.33652 22.2421 3.11446 19.9875 3.54713 17.8123C3.9798 15.6372 5.04777 13.6391 6.61598 12.0709C8.18419 10.5027 10.1822 9.43476 12.3574 9.00209C14.5326 8.56942 16.7872 8.79148 18.8362 9.64019C20.8851 10.4889 22.6364 11.9261 23.8685 13.7702C25.1007 15.6142 25.7583 17.7822 25.7583 20C25.7552 22.973 24.5729 25.8233 22.4706 27.9256C20.3684 30.0278 17.518 31.2102 14.545 31.2133Z" fill="#909194"/>
</g>
</svg>
