<svg width="50" height="16" viewBox="0 0 50 16" fill="none" xmlns="http://www.w3.org/2000/svg">
<path d="M33.0209 0.0146554C32.9929 0.0146829 32.965 0.0174736 32.9375 0.0229882C31.5209 0.418821 31.8063 2.41466 29.2271 2.58549H28.9771C28.9407 2.58484 28.9044 2.58833 28.8688 2.59591H28.8667C28.7569 2.62225 28.6593 2.68497 28.5897 2.77386C28.5201 2.86276 28.4826 2.97259 28.4834 3.08549V5.35632C28.4834 5.63549 28.7042 5.85841 28.9771 5.85841H30.3209V15.4897C30.3209 15.7647 30.5375 15.9855 30.8063 15.9855H33.0104C33.1405 15.9838 33.2646 15.9307 33.3555 15.8378C33.4465 15.7449 33.497 15.6197 33.4958 15.4897V5.85841H34.7458C35.0167 5.85841 35.2375 5.63549 35.2375 5.35632V3.08549C35.2381 2.95415 35.1867 2.82791 35.0946 2.73426C35.0025 2.64061 34.8772 2.58714 34.7458 2.58549H33.4709V0.470905C33.4714 0.411262 33.4602 0.352097 33.4379 0.296784C33.4156 0.241472 33.3826 0.191096 33.3408 0.148535C33.299 0.105975 33.2492 0.072062 33.1943 0.0487334C33.1394 0.0254047 33.0805 0.0131179 33.0209 0.0125732V0.0146554ZM41.8229 2.45216C40.9938 2.45216 40.2354 2.76466 39.6521 3.27507V3.01674C39.6448 2.89178 39.5904 2.77423 39.5 2.68767C39.4096 2.60112 39.2898 2.55196 39.1646 2.55007H36.9354C36.8036 2.55227 36.6779 2.60648 36.5858 2.70092C36.4937 2.79535 36.4426 2.92234 36.4438 3.05424V15.3876C36.4426 15.5195 36.4937 15.6465 36.5858 15.7409C36.6779 15.8353 36.8036 15.8895 36.9354 15.8917H39.1646C39.4146 15.8917 39.6167 15.7022 39.65 15.4563V6.60216C39.6415 6.38738 39.7178 6.17786 39.8624 6.01883C40.007 5.8598 40.2083 5.76402 40.4229 5.75215H40.8313C41.0036 5.76558 41.1677 5.83096 41.3021 5.93965C41.399 6.02074 41.4765 6.12256 41.5287 6.23759C41.581 6.35261 41.6068 6.47791 41.6042 6.60424V15.0917L41.6125 15.4147C41.612 15.5465 41.6635 15.6733 41.756 15.7674C41.8485 15.8614 41.9744 15.9151 42.1063 15.9167H44.3354C44.4629 15.9147 44.5846 15.8639 44.6757 15.7747C44.7668 15.6856 44.8202 15.5649 44.825 15.4376L44.8229 6.59174C44.8229 6.30007 44.9521 6.03757 45.1854 5.88341C45.3075 5.8027 45.4479 5.75399 45.5938 5.74174H46.0063C46.4854 5.78341 46.7771 6.15841 46.7771 6.59174C46.7875 9.50007 46.7854 12.4251 46.7854 15.3917C46.7849 15.5236 46.8365 15.6504 46.9289 15.7444C47.0214 15.8385 47.1473 15.8922 47.2792 15.8938H49.5084C49.7792 15.8938 50 15.6688 50 15.3917V5.92716C50 5.28132 49.9292 5.00632 49.8334 4.72507C49.6113 4.06576 49.1887 3.49238 48.6246 3.0852C48.0605 2.67801 47.3832 2.4574 46.6875 2.45424H46.6563C46.2063 2.4546 45.7611 2.54722 45.3483 2.72638C44.9355 2.90555 44.5639 3.16745 44.2563 3.49591C43.65 2.85424 42.7979 2.45424 41.8542 2.45424L41.8229 2.45216ZM0.483351 2.58341C0.419331 2.58395 0.356045 2.5971 0.297107 2.6221C0.23817 2.64711 0.184734 2.68348 0.139852 2.72913C0.0949698 2.77479 0.0595202 2.82884 0.0355274 2.8882C0.0115346 2.94755 -0.000531559 3.01105 1.79593e-05 3.07507V15.4167C1.79593e-05 15.6917 0.200018 15.9126 0.450018 15.9188H2.72085C2.99168 15.9188 3.2146 15.6959 3.2146 15.4188L3.22293 11.9647H5.35418C7.1396 11.9647 8.38127 10.7042 8.38127 8.87924V5.67507C8.38127 3.84799 7.1396 2.58341 5.35418 2.58341H0.483351ZM19.3 2.58341C19.2346 2.58395 19.17 2.59737 19.1098 2.6229C19.0496 2.64842 18.995 2.68556 18.9492 2.73218C18.9033 2.77881 18.8671 2.834 18.8426 2.89462C18.8181 2.95525 18.8057 3.0201 18.8063 3.08549V8.23132C18.8063 10.1897 20.175 11.5813 22.0958 11.5813H23.5021C23.5021 11.5813 23.5354 11.5813 23.5792 11.5897C23.7075 11.6055 23.8255 11.6679 23.9108 11.7651C23.9961 11.8623 24.0427 11.9874 24.0417 12.1167C24.0417 12.3876 23.8417 12.6063 23.5854 12.6397L23.5479 12.648L22.9167 12.6605H20.2896C20.1583 12.6621 20.0329 12.7156 19.9408 12.8093C19.8487 12.9029 19.7974 13.0291 19.7979 13.1605V15.4313C19.7968 15.5632 19.8479 15.6902 19.94 15.7846C20.032 15.8791 20.1577 15.9333 20.2896 15.9355H23.9354C25.8521 15.9355 27.2208 14.5417 27.2208 12.5855V3.08549C27.2214 2.95415 27.1701 2.82791 27.078 2.73426C26.9859 2.64061 26.8605 2.58714 26.7292 2.58549H24.5C24.3687 2.58714 24.2433 2.64061 24.1512 2.73426C24.0591 2.82791 24.0078 2.95415 24.0084 3.08549C23.9979 4.72507 24.0084 6.26257 24.0084 7.78341C24.0067 7.92104 23.9513 8.05257 23.854 8.1499C23.7567 8.24722 23.6251 8.30262 23.4875 8.30424H22.5521C22.4127 8.30259 22.2796 8.24576 22.182 8.14619C22.0843 8.04662 22.0302 7.91242 22.0313 7.77299C22.0417 6.20216 22.0208 4.64799 22.0208 3.08549C22.0214 2.95415 21.9701 2.82791 21.878 2.73426C21.7859 2.64061 21.6605 2.58714 21.5292 2.58549L19.3 2.58341ZM10.9584 2.59591C10.8949 2.59424 10.8317 2.6051 10.7724 2.62787C10.7131 2.65064 10.6589 2.68486 10.6129 2.72858C10.5668 2.77231 10.5298 2.82468 10.504 2.8827C10.4783 2.94072 10.4641 3.00326 10.4625 3.06674V5.19799C10.4625 5.47299 10.6979 5.69799 10.9875 5.69799H13.9313C14.1646 5.73341 14.3479 5.90632 14.375 6.17716V6.46882C14.3479 6.72716 14.1667 6.91466 13.9438 6.93549H12.4854C10.5479 6.93549 9.1646 8.24799 9.1646 10.0917V12.7355C9.1646 14.5688 10.3521 15.873 12.2792 15.873H16.3209C17.0459 15.873 17.6334 15.3105 17.6334 14.623V6.00632C17.6334 3.91466 16.575 2.59591 14.05 2.59591H10.9584ZM3.22293 5.8709H4.63543C4.92502 5.8709 5.15627 6.11049 5.15627 6.40424V8.1459C5.15709 8.21512 5.14428 8.28383 5.11855 8.34809C5.09282 8.41236 5.05468 8.47093 5.00632 8.52045C4.95795 8.56998 4.90031 8.60949 4.83667 8.63673C4.77303 8.66398 4.70465 8.67842 4.63543 8.67924H4.4271C4.0271 8.68341 3.62293 8.67924 3.22293 8.67924V5.8709ZM12.9521 9.98966H13.8792C14.1688 9.98966 14.4042 10.2147 14.4042 10.4897V12.4313C14.4035 12.4854 14.3936 12.5389 14.375 12.5897C14.3379 12.6909 14.2703 12.7782 14.1815 12.8394C14.0927 12.9006 13.987 12.9327 13.8792 12.9313H12.9521C12.8163 12.9341 12.6849 12.8831 12.5866 12.7895C12.4883 12.6958 12.4309 12.5671 12.4271 12.4313V10.4876C12.4271 10.2126 12.6625 9.98966 12.9521 9.98966Z" fill="#909194"/>
</svg>
