<svg width="105" height="42" viewBox="0 0 105 42" fill="none" xmlns="http://www.w3.org/2000/svg">
<g opacity="0.53">
<path d="M34.4074 27.7738C34.4074 28.0023 34.3358 28.1905 34.1925 28.3383C34.0492 28.4861 33.8669 28.5601 33.6455 28.5601C33.4242 28.5601 33.2418 28.4861 33.0986 28.3383C32.9553 28.1905 32.8837 28.0023 32.8837 27.7738V13.6014C32.8837 13.3729 32.9553 13.1847 33.0986 13.0369C33.2418 12.889 33.4242 12.8151 33.6455 12.8151H37.5525C38.5032 12.8151 39.3497 13.0369 40.0921 13.4804C40.8474 13.9105 41.4335 14.5153 41.8502 15.2948C42.2669 16.0609 42.4753 16.9412 42.4753 17.9358C42.4753 18.9169 42.2669 19.7905 41.8502 20.5566C41.4335 21.3226 40.8474 21.9207 40.0921 22.3508C39.3497 22.7809 38.5032 22.9959 37.5525 22.9959H34.4074V27.7738ZM37.5525 21.4839C38.2167 21.4839 38.8093 21.3361 39.3302 21.0404C39.8511 20.7313 40.2548 20.3079 40.5414 19.7703C40.8409 19.2327 40.9907 18.6212 40.9907 17.9358C40.9907 17.2369 40.8409 16.6186 40.5414 16.081C40.2548 15.53 39.8511 15.0999 39.3302 14.7908C38.8093 14.4817 38.2167 14.3271 37.5525 14.3271H34.4074V21.4839H37.5525Z" fill="#909194"/>
<path d="M44.9621 18.3187C44.9621 18.0902 45.0337 17.9021 45.177 17.7542C45.3203 17.6064 45.5025 17.5325 45.724 17.5325C45.9453 17.5325 46.1212 17.6064 46.2514 17.7542C46.3946 17.9021 46.4663 18.0902 46.4663 18.3187V27.7737C46.4663 28.0022 46.3946 28.1904 46.2514 28.3382C46.1212 28.4861 45.9453 28.56 45.724 28.56C45.5025 28.56 45.3203 28.4861 45.177 28.3382C45.0337 28.1904 44.9621 28.0022 44.9621 27.7737V18.3187ZM45.724 13.2384C46.0105 13.2384 46.2579 13.3392 46.4663 13.5408C46.6747 13.7424 46.7788 14.0045 46.7788 14.327C46.7788 14.6361 46.6747 14.8982 46.4663 15.1133C46.2579 15.3283 46.004 15.4358 45.7045 15.4358C45.4049 15.4358 45.151 15.3283 44.9426 15.1133C44.7472 14.8982 44.6495 14.6361 44.6495 14.327C44.6495 14.0045 44.7538 13.7424 44.9621 13.5408C45.1705 13.3392 45.4244 13.2384 45.724 13.2384Z" fill="#909194"/>
<path d="M55.1606 17.4316C56.1764 17.4316 57.0945 17.6803 57.915 18.1775C58.7485 18.6614 59.3997 19.3334 59.8685 20.1936C60.3504 21.0537 60.5913 22.0079 60.5913 23.0563V27.7939C60.5913 28.0089 60.5197 28.1903 60.3764 28.3382C60.2332 28.486 60.0508 28.5599 59.8295 28.5599C59.608 28.5599 59.4258 28.4927 59.2825 28.3583C59.1392 28.2105 59.0676 28.0223 59.0676 27.7939V26.5843C58.6118 27.2294 58.0323 27.7401 57.329 28.1164C56.6257 28.4793 55.8508 28.6607 55.0043 28.6607C54.0146 28.6607 53.116 28.4188 52.3085 27.935C51.5141 27.4377 50.8825 26.7657 50.4136 25.919C49.9578 25.0588 49.7299 24.1046 49.7299 23.0563C49.7299 22.0079 49.9643 21.0537 50.4332 20.1936C50.9151 19.3334 51.5662 18.6614 52.3867 18.1775C53.2201 17.6803 54.1448 17.4316 55.1606 17.4316ZM55.1606 27.2495C55.9029 27.2495 56.5736 27.0681 57.1727 26.7052C57.7718 26.3423 58.2406 25.8451 58.5792 25.2134C58.9309 24.5683 59.1067 23.8492 59.1067 23.0563C59.1067 22.2633 58.9309 21.551 58.5792 20.9193C58.2406 20.2742 57.7718 19.7702 57.1727 19.4073C56.5736 19.031 55.9029 18.8428 55.1606 18.8428C54.4183 18.8428 53.741 19.031 53.129 19.4073C52.5299 19.7702 52.0545 20.2742 51.703 20.9193C51.3644 21.551 51.195 22.2633 51.195 23.0563C51.195 23.8492 51.3644 24.5683 51.703 25.2134C52.0545 25.8451 52.5299 26.3423 53.129 26.7052C53.741 27.0681 54.4183 27.2495 55.1606 27.2495Z" fill="#909194"/>
<path d="M67.2089 17.4316C68.0684 17.4316 68.8173 17.5862 69.4554 17.8953C70.0935 18.191 70.6079 18.6076 70.9986 19.1452C71.1029 19.3199 71.155 19.4745 71.155 19.6089C71.155 19.8374 71.0507 20.0188 70.8424 20.1532C70.7513 20.2204 70.6275 20.254 70.4712 20.254C70.1977 20.254 69.9698 20.1532 69.7875 19.9516C69.1494 19.199 68.2768 18.8227 67.1698 18.8227C66.4535 18.8227 65.8805 18.9772 65.4507 19.2863C65.021 19.582 64.8061 19.9584 64.8061 20.4153C64.8061 20.8992 65.008 21.2889 65.4117 21.5846C65.8154 21.8668 66.5317 22.0953 67.5605 22.27C68.954 22.5119 69.9503 22.9084 70.5493 23.4595C71.1485 23.9971 71.4479 24.6691 71.4479 25.4755C71.4479 26.0937 71.2657 26.6448 70.901 27.1286C70.5493 27.6124 70.0545 27.9887 69.4164 28.2575C68.7782 28.5263 68.0554 28.6607 67.2479 28.6607C66.4405 28.6607 65.6657 28.5196 64.9233 28.2374C64.181 27.9551 63.582 27.5587 63.1261 27.0479C62.9958 26.8867 62.9307 26.7321 62.9307 26.5843C62.9307 26.3558 63.0349 26.1542 63.2433 25.9795C63.3996 25.8585 63.5624 25.798 63.7317 25.798C63.9531 25.798 64.1419 25.8921 64.2982 26.0803C64.6107 26.4566 65.021 26.7456 65.5289 26.9472C66.0499 27.1488 66.6229 27.2495 67.2479 27.2495C68.1596 27.2495 68.8433 27.0883 69.2991 26.7657C69.7549 26.4431 69.9894 26.0198 70.0024 25.4956C70.0024 25.0118 69.7744 24.6086 69.3186 24.286C68.8628 23.9635 68.1401 23.7215 67.1503 23.5603C65.874 23.3452 64.9168 22.9756 64.2786 22.4515C63.6536 21.9139 63.341 21.2687 63.341 20.5161C63.341 19.535 63.7056 18.7756 64.435 18.238C65.1773 17.7004 66.102 17.4316 67.2089 17.4316Z" fill="#909194"/>
<path d="M78.7555 27.0077C78.9639 27.0077 79.1332 27.0817 79.2633 27.2295C79.3933 27.3773 79.4584 27.5655 79.4584 27.794C79.4584 28.009 79.38 28.1904 79.2241 28.3383C79.0674 28.4861 78.8722 28.5601 78.638 28.5601H78.2278C77.5375 28.5601 76.9189 28.392 76.3719 28.0561C75.825 27.7066 75.3952 27.2429 75.0826 26.665C74.7831 26.0737 74.6333 25.4084 74.6333 24.6692V19.2865H73.3636C73.1552 19.2865 72.9859 19.226 72.8557 19.105C72.7384 18.9706 72.6798 18.8093 72.6798 18.6212C72.6798 18.4196 72.7384 18.2583 72.8557 18.1373C72.9859 18.0029 73.1552 17.9357 73.3636 17.9357H74.6333V14.8109C74.6333 14.5825 74.6984 14.3943 74.8287 14.2465C74.9719 14.0986 75.1542 14.0247 75.3757 14.0247C75.597 14.0247 75.7794 14.0986 75.9226 14.2465C76.0659 14.3943 76.1375 14.5825 76.1375 14.8109V17.9357H78.345C78.5533 17.9357 78.7163 18.0029 78.8331 18.1373C78.9639 18.2583 79.029 18.4196 79.029 18.6212C79.029 18.8093 78.9639 18.9706 78.8331 19.105C78.7163 19.226 78.5533 19.2865 78.345 19.2865H76.1375V24.6692C76.1375 25.3546 76.3328 25.9191 76.7236 26.3626C77.1143 26.7927 77.6156 27.0077 78.2278 27.0077H78.7555Z" fill="#909194"/>
<path d="M86.7323 17.4115C87.2793 17.4115 87.7095 17.4854 88.0213 17.6333C88.3473 17.7811 88.5103 17.9894 88.5103 18.2582C88.5103 18.3389 88.5032 18.3994 88.4907 18.4397C88.4382 18.6278 88.3536 18.7555 88.2368 18.8227C88.1326 18.8899 87.9829 18.9235 87.787 18.9235C87.6703 18.9235 87.4681 18.9101 87.1813 18.8832C87.0771 18.8698 86.9212 18.863 86.7127 18.863C85.7364 18.863 84.9348 19.1318 84.3103 19.6694C83.6983 20.207 83.3919 20.9059 83.3919 21.7661V27.7939C83.3919 28.0358 83.3269 28.224 83.1968 28.3584C83.066 28.4928 82.8842 28.56 82.6499 28.56C82.4148 28.56 82.233 28.4928 82.1029 28.3584C81.9721 28.224 81.907 28.0358 81.907 27.7939V18.2986C81.907 18.0566 81.9721 17.8685 82.1029 17.7341C82.233 17.5997 82.4148 17.5325 82.6499 17.5325C82.8842 17.5325 83.066 17.5997 83.1968 17.7341C83.3269 17.8685 83.3919 18.0566 83.3919 18.2986V19.1856C83.7696 18.6211 84.2515 18.1843 84.8376 17.8752C85.4238 17.5661 86.0553 17.4115 86.7323 17.4115Z" fill="#909194"/>
<path d="M91.1667 18.3187C91.1667 18.0902 91.2387 17.9021 91.3821 17.7542C91.5248 17.6064 91.7073 17.5325 91.9291 17.5325C92.1501 17.5325 92.3256 17.6064 92.4564 17.7542C92.599 17.9021 92.6711 18.0902 92.6711 18.3187V27.7737C92.6711 28.0022 92.599 28.1904 92.4564 28.3382C92.3256 28.4861 92.1501 28.56 91.9291 28.56C91.7073 28.56 91.5248 28.4861 91.3821 28.3382C91.2387 28.1904 91.1667 28.0022 91.1667 27.7737V18.3187ZM91.9291 13.2384C92.2151 13.2384 92.4627 13.3392 92.6711 13.5408C92.8796 13.7424 92.9838 14.0045 92.9838 14.327C92.9838 14.6361 92.8796 14.8982 92.6711 15.1133C92.4627 15.3283 92.2088 15.4358 91.9095 15.4358C91.6094 15.4358 91.3555 15.3283 91.1471 15.1133C90.952 14.8982 90.854 14.6361 90.854 14.327C90.854 14.0045 90.9582 13.7424 91.1667 13.5408C91.3751 13.3392 91.629 13.2384 91.9291 13.2384Z" fill="#909194"/>
<path d="M104.412 27.3504C104.556 27.5386 104.627 27.72 104.627 27.8947C104.627 28.0829 104.556 28.2442 104.412 28.3786C104.282 28.4995 104.133 28.56 103.963 28.56C103.807 28.56 103.677 28.5331 103.572 28.4794C103.468 28.4256 103.37 28.3315 103.279 28.1971L100.075 23.9837L96.7544 28.3181C96.6376 28.4794 96.4613 28.56 96.227 28.56C96.0186 28.56 95.8493 28.4928 95.7193 28.3584C95.6017 28.224 95.5437 28.0627 95.5437 27.8746C95.5437 27.6595 95.6088 27.4781 95.7388 27.3303L99.1184 22.9757L95.9144 18.7824C95.7843 18.6346 95.7193 18.4531 95.7193 18.2381C95.7193 18.0365 95.778 17.8685 95.8948 17.7341C96.0123 17.5997 96.1816 17.5325 96.4033 17.5325C96.6243 17.5325 96.8131 17.6131 96.9699 17.7744L100.114 21.9475L103.22 17.8954C103.403 17.6535 103.618 17.5325 103.865 17.5325C104.074 17.5325 104.237 17.5997 104.354 17.7341C104.484 17.8685 104.549 18.0298 104.549 18.2179C104.549 18.4195 104.477 18.6144 104.334 18.8026L101.091 22.9555L104.412 27.3504Z" fill="#909194"/>
<path d="M18.4723 16.8804C18.4082 16.9026 18.3408 16.9199 18.2782 16.949C17.4912 17.2842 16.8389 17.8924 16.4312 18.6707C16.0235 19.4492 15.8853 20.3504 16.0399 21.2228C16.0595 21.3377 16.0794 21.4527 16.1073 21.566C16.1352 21.6793 16.1698 21.7943 16.2076 21.9092C16.4762 22.6784 16.9604 23.3452 17.5974 23.8231C17.6515 23.8608 17.7043 23.8986 17.7618 23.9346C17.8818 24.0122 18.0059 24.0826 18.1335 24.1457C18.2223 24.192 18.3127 24.2367 18.4065 24.2762C18.8462 24.4587 19.3148 24.5537 19.7881 24.5559C19.8324 24.5559 19.8735 24.5439 19.9163 24.5422V24.5285C20.4161 24.5048 20.9078 24.3886 21.3685 24.1852C22.2249 23.7953 22.9127 23.0884 23.2994 22.2007C23.6862 21.3132 23.7444 20.3075 23.463 19.3777C23.1815 18.4479 22.5803 17.6597 21.7751 17.165C20.9699 16.6703 20.0178 16.5042 19.1022 16.6984C19.0479 16.7105 18.9952 16.719 18.9377 16.7327C18.7797 16.7714 18.6242 16.8206 18.4723 16.8804Z" fill="#909194"/>
<mask id="mask0_844_19859" style="mask-type:alpha" maskUnits="userSpaceOnUse" x="0" y="0" width="25" height="42">
<path d="M16.369 16.6899C15.0325 14.4885 14.254 12.2045 14.0336 9.83826C12.0896 8.19057 8.99003 7.38157 4.73475 7.41131C4.62983 9.21068 4.88871 11.013 5.49458 12.7011H5.45181C5.89304 13.7879 6.50814 14.7885 7.2708 15.6601C7.272 15.677 7.27641 15.6934 7.28374 15.7084C7.29107 15.7234 7.30122 15.7368 7.31356 15.7477C7.58287 16.0562 7.88032 16.3368 8.20167 16.5852C10.0733 18.0819 12.2909 19.0087 14.8543 19.3657C15.0908 18.3356 15.6185 17.4033 16.369 16.6899Z" fill="url(#paint0_linear_844_19859)"/>
<path d="M8.19995 27.0859H8.15709C6.9456 28.9979 6.17042 31.7332 5.83162 35.2918C7.69556 35.5859 9.41474 35.4977 10.9893 35.0275C12.3458 34.6035 13.5997 33.8813 14.6666 32.9096V32.8649L14.9199 32.6006H14.966C16.6512 30.7401 17.775 28.4252 18.3375 25.6562C17.567 25.4165 16.8624 24.9888 16.2817 24.4084C13.6975 26.1671 11.0035 27.0596 8.19995 27.0859Z" fill="url(#paint1_linear_844_19859)"/>
<path d="M7.35487 17.6905C7.07427 17.4561 6.80633 17.2058 6.55228 16.9404C4.57871 17.4988 2.39461 18.7781 0 20.7782C0.97755 22.2756 2.26315 23.5264 3.76296 24.4391C5.00337 25.1786 6.39351 25.602 7.82031 25.675H8.20026C10.7221 25.6498 13.1342 24.8597 15.4367 23.3046C14.9958 22.5404 14.749 21.6714 14.7196 20.7799C11.9007 20.3874 9.44577 19.3576 7.35487 17.6905Z" fill="url(#paint2_linear_844_19859)"/>
<path d="M22.4688 16.1166C23.8009 13.9746 24.5542 11.764 24.7285 9.48457V9.3971C24.7575 9.11885 24.7719 8.8393 24.7712 8.55952C24.7538 6.93018 24.3316 5.33347 23.546 3.92531C22.7599 2.4584 21.5933 1.14996 20.0462 0H20.0364C18.486 1.14424 17.3166 2.45324 16.5283 3.92702C15.7427 5.33519 15.3206 6.93189 15.3031 8.56122C15.3024 8.841 15.3168 9.12062 15.3458 9.39879V9.48627C15.5135 11.6844 16.2218 13.819 17.4707 15.8901C18.2505 15.4688 19.1225 15.2683 19.9997 15.3084C20.877 15.3484 21.7288 15.6277 22.4704 16.1183L22.4688 16.1166Z" fill="url(#paint3_linear_844_19859)"/>
<path d="M24.2627 31.7182V31.6736C23.9996 29.5064 23.2698 27.381 22.0737 25.2974C21.3613 25.6792 20.5719 25.8782 19.7711 25.8774C19.7382 25.8774 19.7054 25.8774 19.6724 25.8774C19.0562 28.92 17.8107 31.4699 15.9358 33.5273C15.93 33.5264 15.924 33.5269 15.9185 33.5289C15.9129 33.5308 15.9078 33.5341 15.9037 33.5385C15.8996 33.5428 15.8965 33.548 15.8946 33.5538C15.8927 33.5597 15.8922 33.5659 15.893 33.5719C15.8939 33.578 15.8933 33.5841 15.8914 33.5899C15.8896 33.5958 15.8864 33.6011 15.8823 33.6054C15.8781 33.6097 15.8731 33.6129 15.8675 33.6149C15.8621 33.6168 15.8561 33.6173 15.8502 33.6165C16.2735 35.881 17.5837 38.3983 19.781 41.1685C21.1928 40.1161 22.3745 38.763 23.2479 37.1985C23.8673 36.0579 24.2558 34.7966 24.3892 33.4929C24.3366 33.4156 24.3073 33.3236 24.3054 33.2286C24.3626 32.7257 24.3482 32.2168 24.2627 31.7182Z" fill="url(#paint4_linear_844_19859)"/>
</mask>
<g mask="url(#mask0_844_19859)">
<path d="M25.2326 0H0V41.16H25.2326V0Z" fill="#C4C4C4"/>
</g>
</g>
<defs>
<linearGradient id="paint0_linear_844_19859" x1="4.88355" y1="7.55998" x2="14.9585" y2="17.3226" gradientUnits="userSpaceOnUse">
<stop stop-color="#FF4081"/>
<stop offset="1" stop-color="#FFA73F"/>
</linearGradient>
<linearGradient id="paint1_linear_844_19859" x1="18.7209" y1="24.36" x2="5.37354" y2="34.8683" gradientUnits="userSpaceOnUse">
<stop stop-color="#FFA73F"/>
<stop offset="1" stop-color="#FF4081"/>
</linearGradient>
<linearGradient id="paint2_linear_844_19859" x1="15.4651" y1="23.1001" x2="-0.0160865" y2="21.1262" gradientUnits="userSpaceOnUse">
<stop stop-color="#FFA73F"/>
<stop offset="1" stop-color="#FF4081"/>
</linearGradient>
<linearGradient id="paint3_linear_844_19859" x1="20.0371" y1="0" x2="20.0371" y2="16.1183" gradientUnits="userSpaceOnUse">
<stop stop-color="#FF4081"/>
<stop offset="1" stop-color="#FFA73F"/>
</linearGradient>
<linearGradient id="paint4_linear_844_19859" x1="20.1197" y1="25.2974" x2="20.1197" y2="41.1685" gradientUnits="userSpaceOnUse">
<stop stop-color="#FFA73F"/>
<stop offset="1" stop-color="#FF4081"/>
</linearGradient>
</defs>
</svg>
