<svg width="33" height="32" viewBox="0 0 33 32" fill="none" xmlns="http://www.w3.org/2000/svg">
<path d="M15.213 0C7.10872 0 0.537598 6.37067 0.537598 14.2307C0.537598 22.0907 7.10872 28.4613 15.2143 28.4613C17.369 28.4613 19.5016 28.0707 22.6366 28.048C25.432 28.048 28.5037 29 31.8738 31.896C32.2148 32.1853 32.6631 31.8133 32.3647 31.4613C29.0578 27.3867 25.9847 26.6213 22.9143 25.96C19.1606 25.152 17.2411 23.1253 15.8963 20.8707C15.6406 20.416 15.5113 20.4987 15.4907 21.0787C15.466 21.9307 15.532 22.7827 15.6832 23.6227H15.235C12.6611 23.6205 10.1932 22.6281 8.37315 20.8632C6.55311 19.0983 5.52966 16.7053 5.52747 14.2093C5.53039 11.714 6.5542 9.32173 8.3742 7.55764C10.1942 5.79354 12.6617 4.80176 15.235 4.8C16.6048 4.8007 17.9589 5.08234 19.2085 5.62642C20.4581 6.17051 21.5749 6.96475 22.4855 7.95698C23.3962 8.94921 24.0801 10.117 24.4924 11.3837C24.9047 12.6504 25.0361 13.9873 24.8778 15.3067C24.1518 15.1827 22.7645 15.1627 21.7841 15.2453C21.4211 15.2867 21.4637 15.452 21.7415 15.4947C24.9411 16.0733 27.1383 17.9973 27.6498 21.4933C27.6705 21.576 27.7777 21.596 27.8203 21.5333C29.1733 19.3237 29.8881 16.8018 29.8897 14.232C29.8897 6.37067 23.32 0 15.213 0ZM25.7235 20.1027C25.6399 20.0937 25.5555 20.1088 25.4807 20.146C25.4059 20.1833 25.344 20.241 25.3027 20.312C25.1322 20.6027 25.2615 21.16 25.5805 21.6573C25.8995 22.1533 26.1992 22.4013 26.4137 22.4013C26.6268 22.4013 26.818 22.1533 26.7327 21.512C26.6915 21.16 26.477 20.3547 25.9215 20.1467C25.8568 20.1187 25.7826 20.116 25.7235 20.1027ZM22.6792 22.4853C22.3808 22.4853 22.1457 22.5867 21.9958 22.7733C21.6122 23.228 21.7827 24.056 22.3808 24.5533C22.6366 24.78 23.0216 24.904 23.3846 24.904C23.5493 24.9082 23.7129 24.8771 23.8638 24.813C24.0147 24.749 24.1492 24.6535 24.2577 24.5333C24.6001 24.0773 24.409 23.456 23.7462 22.9187C23.4052 22.6293 23.0216 22.4853 22.6792 22.4853Z" fill="#909194"/>
</svg>
