<svg width="32" height="32" viewBox="0 0 32 32" fill="none" xmlns="http://www.w3.org/2000/svg">
<path d="M27.9872 32H20.6193C22.7215 31.0833 24.475 29.7344 25.8798 27.9531C27.2847 26.1719 27.9872 24.3021 27.9872 22.3438C27.9872 20.9688 27.7374 19.6771 27.2379 18.4688C26.7384 17.2604 26.0099 16.1771 25.0525 15.2188C24.0951 14.2604 22.8359 13.5 21.275 12.9375C19.714 12.375 17.9553 12.0833 15.9989 12.0625V12.0312C15.5826 12.0312 15.2444 12.026 14.9842 12.0156C14.7241 12.0052 14.3858 11.9635 13.9696 11.8906C13.5533 11.8177 13.2203 11.7188 12.9706 11.5938C12.7208 11.4688 12.4971 11.2708 12.2993 11C12.1016 10.7292 12.0028 10.4062 12.0028 10.0312C12.0028 9.55208 12.2265 9.15104 12.674 8.82812C13.1215 8.50521 13.6262 8.29167 14.1881 8.1875C14.7501 8.08333 15.3537 8.03125 15.9989 8.03125C20.0158 8.03125 23.3459 8.69792 25.9891 10.0312V2C25.219 1.22917 23.8558 0.5625 21.8993 0H27.9872C29.0902 0 30.032 0.390625 30.8125 1.17188C31.593 1.95312 31.9833 2.89583 31.9833 4V28C31.9833 29.1042 31.593 30.0469 30.8125 30.8281C30.032 31.6094 29.0902 32 27.9872 32ZM4.01056 9.6875C4.01056 11.0625 4.26032 12.3594 4.75983 13.5781C5.25934 14.7969 5.9878 15.8854 6.9452 16.8438C7.9026 17.8021 9.16178 18.5625 10.7228 19.125C12.2837 19.6875 14.0424 19.9792 15.9989 20C16.4151 20 16.7533 20.0052 17.0135 20.0156C17.2737 20.026 17.6119 20.0677 18.0281 20.1406C18.4444 20.2135 18.7774 20.3125 19.0272 20.4375C19.2769 20.5625 19.5006 20.7604 19.6984 21.0312C19.8961 21.3021 19.995 21.625 19.995 22C19.995 22.4792 19.7712 22.8802 19.3237 23.2031C18.8763 23.526 18.3715 23.7396 17.8096 23.8438C17.2476 23.9479 16.6441 24 15.9989 24C11.9819 24 8.65187 23.3333 6.00861 22V30C6.77869 30.7708 8.14195 31.4375 10.0984 32H4.01056C2.90747 32 1.96569 31.6094 1.1852 30.8281C0.404709 30.0469 0.0144653 29.1042 0.0144653 28V4C0.0144653 2.89583 0.404709 1.95312 1.1852 1.17188C1.96569 0.390625 2.90747 0 4.01056 0H11.3784C9.27626 0.916667 7.52276 2.27083 6.11788 4.0625C4.713 5.85417 4.01056 7.72917 4.01056 9.6875Z" fill="#909194"/>
</svg>
