<svg width="45" height="14" viewBox="0 0 45 14" fill="none" xmlns="http://www.w3.org/2000/svg">
<path d="M32.5236 0.903052C31.497 0.536041 30.4119 0.351873 29.3193 0.35922C25.786 0.35922 23.2906 2.10555 23.2729 4.61239C23.2508 6.45405 25.0462 7.49188 26.4043 8.10722C27.7978 8.73988 28.2637 9.13855 28.2593 9.70405C28.2505 10.5642 27.1463 10.9542 26.1194 10.9542C24.7083 10.9542 23.9376 10.7614 22.7517 10.2782L22.3123 10.0767L21.811 12.9627C22.67 13.3137 24.2181 13.6149 25.8169 13.6409C29.5733 13.6409 32.0289 11.9054 32.0576 9.23822C32.0886 7.76705 31.1169 6.65555 29.072 5.73689C27.8287 5.14105 27.058 4.74239 27.058 4.13789C27.058 3.60272 27.7183 3.03072 29.0985 3.03072C30.0171 3.00891 30.9299 3.178 31.7772 3.52689L32.1084 3.67205L32.6097 0.883553L32.5236 0.903052ZM41.6926 0.59322H38.9322C38.0731 0.59322 37.4261 0.825053 37.0507 1.66139L31.7419 13.4611H35.4982L36.2491 11.5262L40.8336 11.5306C40.9418 11.9834 41.273 13.4611 41.273 13.4611H44.5855L41.6926 0.59322ZM18.1915 0.484886H21.7712L19.532 13.3592H15.9567L18.1915 0.480553V0.484886ZM9.10423 7.58072L9.47523 9.36822L12.9732 0.59322H16.7649L11.1315 13.4437H7.34861L4.25694 2.56272C4.20687 2.3833 4.08927 2.22921 3.9279 2.13155C2.81358 1.56678 1.63288 1.1382 0.412231 0.855385L0.460815 0.584552H6.22236C7.00411 0.614885 7.63348 0.855386 7.84327 1.67439L9.10202 7.58722V7.58072H9.10423ZM37.2759 8.89372L38.7025 5.29272C38.6849 5.33172 38.9962 4.54955 39.1773 4.06639L39.4224 5.17789L40.2506 8.89155H37.2737V8.89372H37.2759Z" fill="#909194"/>
</svg>
