<svg width="49" height="48" viewBox="0 0 49 48" fill="none" xmlns="http://www.w3.org/2000/svg">
<path d="M24.3836 0.364014C28.2056 0.364014 31.8439 1.22401 35.1065 2.75801C35.6189 2.98401 36.1334 3.25401 36.6438 3.52601L34.4062 5.46601L31.0517 2.08201L25.2697 7.04801L21.8662 3.48001L11.2353 12.736L18.0422 20.006L15.384 22.262L22.101 29.532L19.4428 31.788L29.0468 42.128L34.7328 37.07L39.6757 42.49C38.6957 43.212 37.6238 43.936 36.4601 44.568C32.7847 46.5832 28.6425 47.6396 24.4306 47.636C10.9556 47.634 -2.19338e-06 37.024 -2.19338e-06 23.98C-0.0469605 11.02 10.9086 0.364014 24.3836 0.364014ZM19.9062 22.536L25.7352 17.478L30.9578 23.122L25.1288 28.18L19.9062 22.536ZM24.057 32.288L29.839 27.188L35.1065 32.83L29.2775 37.888L24.057 32.288ZM15.7617 12.92L21.5886 7.86201L26.8091 13.506L20.9822 18.562L15.7617 12.92ZM26.4355 10.21L30.772 6.41801L34.69 10.616L30.3535 14.454L26.4355 10.21ZM34.1775 27.592L38.512 23.8L42.4279 28.042L38.0914 31.838L34.1775 27.592ZM37.9995 36.126L42.336 32.332L46.2499 36.532L41.9154 40.368L37.9995 36.126ZM39.7717 16.62L42.6606 14.092L45.2719 16.892L42.3809 19.42L39.7717 16.62ZM36.0415 8.26801L38.9325 5.69601L41.5459 8.54001L38.6508 11.068L36.0415 8.26801ZM43.4528 24.974L46.3438 22.446L49.002 25.246L46.0661 27.774L43.4528 24.974ZM30.4474 18.698L34.7839 14.906L38.6998 19.104L34.3633 22.898L30.4474 18.698Z" fill="#909194"/>
</svg>
