<svg width="24" height="24" viewBox="0 0 24 24" fill="none" xmlns="http://www.w3.org/2000/svg">
<g clip-path="url(#clip0_2617_249341)">
<path d="M0 21.6297L0 18.9961L6.84729 21.103L6.84729 23.9999C6.84729 23.9999 3.6568 22.9533 3.11838 22.775C2.57996 22.5966 0 21.6297 0 21.6297Z" fill="#56B729"/>
<path d="M17.4766 21.1701L6.83398 24.0238L6.84787 21.1033L17.8356 18.3164L17.4766 21.1701Z" fill="#1F8616"/>
<path d="M0 19.9212L0 19.5645L6.12933 21.9556L0 19.9212Z" fill="#25951C"/>
<path d="M1.79473 21.7103L0 20.9968L0 20.6401L6.25925 23.2288L1.79473 21.7103Z" fill="#25951C"/>
<path d="M12.2715 16.8892C7.78468 17.7215 0.287157 18.996 0 18.996L6.84729 21.1029L17.8352 18.316L12.2715 16.8892Z" fill="#85D637"/>
<path fill-rule="evenodd" clip-rule="evenodd" d="M12.1843 17.2334L15.9073 18.1436L16.7866 18.3731L6.88568 20.6403L3.95836 19.8013L1.50977 19.1284L12.1843 17.2334ZM2.64032 19.1284L6.88568 20.2588L15.7078 18.3161L12.1843 17.3987L2.64032 19.1284Z" fill="#C7F85B"/>
<ellipse cx="9.57946" cy="18.8513" rx="2.15368" ry="0.891781" fill="#C7F85B"/>
<path opacity="0.3" d="M10.3257 23.0743C10.3257 23.0743 9.25586 20.7927 9.25586 20.6143L16.6629 18.6089C17.8664 22.0048 10.3257 23.0743 10.3257 23.0743Z" fill="#1A7109"/>
<path d="M1.50977 18.2464L1.50977 15.6128L8.35705 17.7197V20.6166C8.35705 20.6166 5.16657 19.57 4.62815 19.3917C4.08973 19.2133 1.50977 18.2464 1.50977 18.2464Z" fill="#25951C"/>
<path d="M18.9864 17.7863L8.34375 20.64L8.35764 17.7195L19.3453 14.9326L18.9864 17.7863Z" fill="#247D1D"/>
<path d="M3.3045 18.327L1.50977 17.6135V17.2568L7.76901 19.8455L3.3045 18.327Z" fill="#248E1B"/>
<path d="M13.7813 13.5059C9.29445 14.3382 1.79692 15.6127 1.50977 15.6127L8.35705 17.7196L19.3449 14.9327L13.7813 13.5059Z" fill="#85DC30"/>
<path fill-rule="evenodd" clip-rule="evenodd" d="M13.6759 13.8533C13.6878 13.8512 13.7001 13.8516 13.7119 13.8545L17.4171 14.7603L17.9507 14.8995C18.0393 14.9227 18.0374 15.0491 17.9481 15.0695L8.41742 17.252C8.40301 17.2553 8.38799 17.2549 8.37378 17.2508L5.46813 16.418L3.39343 15.8478C3.30349 15.8231 3.30948 15.6936 3.40132 15.6773L13.6759 13.8533ZM4.53553 15.6752C4.44355 15.6919 4.43829 15.8218 4.52862 15.8459L8.37489 16.8701C8.3884 16.8736 8.40257 16.874 8.41622 16.8709L17.2175 14.9328L13.7127 14.0203C13.7004 14.0171 13.6876 14.0166 13.6751 14.0188L4.53553 15.6752Z" fill="#C7F85B"/>
<ellipse cx="11.0892" cy="15.4675" rx="2.15368" ry="0.891781" fill="#C7F85B"/>
<path opacity="0.3" d="M11.8355 19.691C11.8355 19.691 10.7656 17.4094 10.7656 17.231L18.1727 15.2256C19.3761 18.6215 11.8355 19.691 11.8355 19.691Z" fill="#1A7109"/>
<path d="M2.78906 16.2478L2.78906 13.6143L9.63635 15.7211V18.618C9.63635 18.618 6.44586 17.5715 5.90744 17.3931C5.36903 17.2148 2.78906 16.2478 2.78906 16.2478Z" fill="#56B729"/>
<path opacity="0.3" d="M2.79102 16.2385L2.79102 13.5513L9.6321 15.7249L7.86737 17.543L2.79102 16.2385Z" fill="#1A7109"/>
<path d="M20.2657 15.7878L9.62305 18.6415L9.63693 15.7209L20.6246 12.9341L20.2657 15.7878Z" fill="#25951C"/>
<path d="M2.78906 14.5764V14.2197L6.63664 15.7414L2.78906 14.5764Z" fill="#25951C"/>
<path d="M4.58379 16.3284L2.78906 15.615V15.2583L9.04831 17.847L4.58379 16.3284Z" fill="#25951C"/>
<path d="M15.0606 11.5073C10.5737 12.3397 3.07622 13.6142 2.78906 13.6142L9.63635 15.721L20.6242 12.9342L15.0606 11.5073Z" fill="#85DC30"/>
<path fill-rule="evenodd" clip-rule="evenodd" d="M14.9733 11.8516L18.6964 12.7617L19.5756 12.9912L9.67475 15.2585L6.74742 14.4194L4.29883 13.7465L14.9733 11.8516ZM5.91182 13.8354L9.74776 14.7454L18.3181 12.9945L14.8739 12.2112L5.91182 13.8354Z" fill="#C7F85B"/>
<path d="M1.50977 13.2918L1.50977 10.6582L8.35705 12.7651V15.662C8.35705 15.662 5.16657 14.6154 4.62815 14.4371C4.08973 14.2587 1.50977 13.2918 1.50977 13.2918Z" fill="#56B729"/>
<path d="M18.9864 12.8317L8.34375 15.6854L8.35764 12.7649L19.3453 9.97803L18.9864 12.8317Z" fill="#25951C"/>
<path d="M1.50977 11.6204V11.2637L5.35734 12.7854L1.50977 11.6204Z" fill="#25951C"/>
<path d="M3.3045 13.3724L1.50977 12.659V12.3022L7.76901 14.8909L3.3045 13.3724Z" fill="#25951C"/>
<path d="M13.7813 8.55127C9.29445 9.3836 1.79692 10.6581 1.50977 10.6581L8.35705 12.765L19.3449 9.97812L13.7813 8.55127Z" fill="#85DC30"/>
<path fill-rule="evenodd" clip-rule="evenodd" d="M13.694 8.89551L17.4171 9.80568L18.2963 10.0352L8.39545 12.3024L5.46813 11.4634L3.01953 10.7905L13.694 8.89551ZM4.63252 10.8793L8.46846 11.7894L17.0388 10.0384L13.5946 9.2551L4.63252 10.8793Z" fill="#C7F85B"/>
<ellipse cx="12.3685" cy="13.4694" rx="2.15368" ry="0.891781" fill="#C7F85B"/>
<path opacity="0.3" d="M8.11784 23.6337C8.11784 23.6337 6.84766 21.2727 6.84766 21.0943L14.2547 19.0889C15.3105 22.3475 8.11784 23.6337 8.11784 23.6337Z" fill="#1A7109"/>
<path d="M24.123 21.6297V18.9961L17.2758 21.103V23.9999C17.2758 23.9999 20.4662 22.9533 21.0047 22.775C21.5431 22.5966 24.123 21.6297 24.123 21.6297Z" fill="#25951C"/>
<path d="M6.63583 20.9302C9.74168 24.0959 17.3398 24.052 17.3398 24.052L17.326 21.1315C17.326 21.1315 13.8563 20.8594 6.63583 18.3896V20.9302Z" fill="#56B729"/>
<path d="M6.63005 20.2839C7.50181 21.2947 12.3216 22.6999 12.3216 22.6999L13.5918 22.6838L12.332 22.4724C12.332 22.4724 8.45094 21.2802 6.63596 20.1921L6.63005 20.2839Z" fill="#25951C"/>
<path d="M6.63261 19.2564C7.05994 19.7518 9.42256 20.4407 9.42256 20.4407L10.0452 20.4328L9.42767 20.3292C9.42767 20.3292 7.5252 19.7447 6.6355 19.2114L6.63261 19.2564Z" fill="#25951C"/>
<path d="M24.123 19.7688V19.4121L20.2755 20.9338L24.123 19.7688Z" fill="#227B18"/>
<path d="M20.4025 14.7322L20.4453 14.3618L16.5977 15.8835L20.4025 14.7322Z" fill="#227B18"/>
<path d="M22.3283 21.4036L24.123 20.6902V20.3335L17.8638 22.9221L22.3283 21.4036Z" fill="#227B18"/>
<path d="M11.852 16.5825C16.6909 19.1447 23.8222 19.0203 24.1094 19.0203L17.361 21.1198C17.361 21.1198 11.1278 20.9785 6.63623 18.3878L11.852 16.5825Z" fill="#85DC30"/>
<path fill-rule="evenodd" clip-rule="evenodd" d="M11.927 17.0474L7.82475 18.4672L8.32455 18.7555C9.85502 19.6383 12.1034 20.1426 13.9418 20.4281C15.0414 20.5988 16.1517 20.7258 17.2632 20.7863L17.2676 20.7865C17.2676 20.7865 17.268 20.7865 17.2807 20.5235L17.2676 20.7865L17.3174 20.7889L22.5059 19.1644C20.8435 19.0667 19.1919 18.9685 17.5444 18.7071C15.7396 18.4208 13.588 17.9269 12.0282 17.1009L11.927 17.0474ZM17.2807 20.3717C14.5704 20.2224 11.3493 19.7248 8.90261 18.5684L11.8072 17.5122C14.4238 18.8546 17.4813 19.0881 20.347 19.3735L17.2807 20.3717Z" fill="#C7F85B"/>
<ellipse cx="14.3607" cy="19.2814" rx="2.15368" ry="0.89178" fill="#C7F85B"/>
<path opacity="0.3" d="M8.01314 15.4512C8.01314 15.4512 7.58594 13.007 7.58594 12.8286L14.427 15.0022L12.6623 16.8203L13.1021 19.9067C10.9482 19.4104 8.90001 17.3305 8.90001 17.3305V15.7257L8.01314 15.4512Z" fill="#1A7109"/>
<path opacity="0.3" d="M10.5971 16.5421C10.5971 16.5421 10.1699 14.0978 10.1699 13.9194L17.011 16.093L20.3624 18.899L16.651 20.6508C14.0826 20.5469 13.0582 19.8492 13.0582 19.8492L11.484 16.8166L10.5971 16.5421Z" fill="#1A7109"/>
<path d="M13.6836 9.00142L20.941 16.8238L13.8043 17.8326L9.78639 14.3076L7.94746 9.7474L13.6836 9.00142Z" fill="#88CF42"/>
<path d="M7.44744 12.4325L7.9459 9.74711C8.25321 10.594 11.9785 15.4901 13.8028 17.8324L13.0366 19.9069C11.3253 19.3514 8.59744 14.6925 7.44744 12.4325Z" fill="#56B729"/>
<path d="M20.9401 16.8237L13.8034 17.8325L13.0373 19.9071L20.3425 18.9188L20.9401 16.8237Z" fill="#25951C"/>
<path opacity="0.3" d="M20.6487 17.7999C12.1166 17.6268 7.92795 9.88949 7.94531 9.74707L14.2638 11.2401C19.2361 13.4844 21.9083 14.4846 20.6487 17.7999Z" fill="#1A7109"/>
<path d="M20.6722 16.2126C18.5244 16.9914 15.5302 15.8266 14.3016 15.1468L15.3701 13.3982C18.0324 14.0118 22.8199 15.4338 20.6722 16.2126Z" fill="#25951C"/>
<path d="M18.0619 15.1717C13.9013 16.7457 9.58447 12.211 7.94615 9.74691L14.7457 8.69699C18.1325 12.3474 22.1273 13.1621 23.9542 13.144C23.8153 14.2833 20.2633 18.205 18.0619 15.1717Z" fill="#82DC34"/>
<path fill-rule="evenodd" clip-rule="evenodd" d="M14.6061 9.06312L14.7492 9.21196C16.8376 11.3837 18.8384 12.4335 20.3003 12.9424C21.0325 13.1972 21.6327 13.3175 22.0452 13.3742C22.2514 13.4025 22.4108 13.415 22.5163 13.4204C22.569 13.4231 22.6083 13.4241 22.6332 13.4244C22.6456 13.4245 22.6545 13.4245 22.6596 13.4245L22.6638 13.4245L22.6642 13.4245L22.6649 13.4244L23.3431 13.4078L22.9713 13.8789L22.6874 13.7121C22.9713 13.8789 22.9713 13.8789 22.9713 13.8789L22.9705 13.88L22.9692 13.8815L22.9654 13.8863C22.9622 13.8903 22.9578 13.8956 22.9522 13.9023C22.9409 13.9158 22.9248 13.9347 22.9037 13.9584C22.8616 14.0059 22.7997 14.0728 22.7175 14.1542C22.5532 14.3168 22.3074 14.5379 21.9766 14.7776C21.315 15.2568 20.5042 15.7916 19.1285 16.1011C19.1285 16.1011 18.8147 15.959 18.6203 15.7986C18.4258 15.6383 18.2773 15.4429 18.2773 15.4429C19.5399 15.1588 20.9197 14.7716 21.5247 14.3333C21.7168 14.1942 21.8767 14.0624 22.0052 13.9479C21.9915 13.9461 21.9776 13.9442 21.9635 13.9423C21.5032 13.879 20.8511 13.7472 20.0654 13.4737C18.5264 12.938 16.4865 11.8629 14.3751 9.71302C13.5296 9.89276 12.3718 10.1135 11.3986 10.2942C10.8691 10.3924 10.3929 10.4791 10.049 10.5412C10.0252 10.5455 10.002 10.5497 9.97951 10.5537C10.0476 10.6326 10.1271 10.7229 10.217 10.8225C10.5573 11.1991 11.0466 11.7068 11.6432 12.2313C12.8491 13.2915 16.0855 15.0176 17.7345 15.2863C17.7345 15.2863 17.3903 15.3732 17.2883 15.3991C17.1862 15.4251 16.8357 15.4673 16.8357 15.4673C14.9624 15.162 12.3925 13.7016 11.165 12.6223C10.5448 12.0771 10.0377 11.5509 9.68549 11.161C9.50924 10.9659 9.37139 10.8045 9.2772 10.6914C9.2301 10.6348 9.19389 10.5902 9.16923 10.5596C9.15689 10.5442 9.14745 10.5323 9.14097 10.5241L9.13348 10.5146L9.13142 10.512L9.13062 10.511C9.13062 10.511 9.1305 10.5108 9.41097 10.3591L9.32888 10.0773L9.4769 10.0509C9.57246 10.0338 9.71093 10.0089 9.88242 9.97798C10.2254 9.91605 10.7004 9.82962 11.2284 9.73163C12.2859 9.53534 13.5504 9.29365 14.3934 9.10956L14.6061 9.06312ZM9.41097 10.3591L9.32888 10.0773L8.85817 10.1607L9.13062 10.511L9.41097 10.3591Z" fill="#D4FD5F"/>
<path d="M8.98582 13.5965L8.62891 12.5762L10.0024 14.9176L11.0189 16.2387L9.90674 15.033L8.98582 13.5965Z" fill="#25951C"/>
<ellipse cx="15.4409" cy="12.8285" rx="2.54712" ry="1.57818" transform="rotate(6.95121 15.4409 12.8285)" fill="#D4FD5F"/>
<path d="M20.5197 18.3149L20.5684 18.1523L17.0113 18.4986L16.5186 18.705L20.5197 18.3149Z" fill="#227B18"/>
<path d="M20.7286 17.6059L20.7773 17.4434L19.3921 17.6059L18.8993 17.8124L20.7286 17.6059Z" fill="#227B18"/>
<path d="M9.56268 8.625C9.56268 8.625 5.80001 7.74939 4.5 5.52865C7.23214 5.52865 10.6473 2.34288 12.0134 0.75C13.6071 1.88774 17.25 1.66022 17.25 1.66022C16.7946 3.02555 15.4823 6.80456 9.56268 8.625Z" fill="#82DC34"/>
<path d="M9.49451 7.875C9.49451 7.875 7.36958 7.28926 6 6.13414C8.28263 5.44107 11.0705 3.16873 12.1466 1.875C13.633 2.66878 15.75 2.61577 15.75 2.61577C15.1532 4.02898 12.9185 6.9509 9.49451 7.875Z" stroke="#D4FD5F" stroke-width="0.65625"/>
<ellipse cx="11.25" cy="4.875" rx="1.875" ry="1.5" fill="#D4FD5F"/>
</g>
<defs>
<clipPath id="clip0_2617_249341">
<rect width="24" height="24" fill="white"/>
</clipPath>
</defs>
</svg>
