<svg width="65" height="79" viewBox="0 0 65 79" fill="none" xmlns="http://www.w3.org/2000/svg">
<g clip-path="url(#clip0_2230_59188)">
<path d="M17.2011 56.8467C17.5787 50.0546 26.4895 51.413 27.3202 51.413C32.0525 51.8407 42.2269 52.9827 45.0663 54.1299C47.9057 55.277 44.8901 58.3309 43.0274 59.7145L27.3202 56.8467C23.8213 59.1107 16.899 62.2804 17.2011 56.8467Z" fill="#F3E8FF"/>
<path d="M51.6562 63.2368L37.6576 56.5566L25.7764 55.9316L10.7686 64.5765L24.3173 92.2817H44.4319L51.6562 63.2368Z" fill="#7854AE"/>
<path d="M42.0469 64.0527L40.8155 58.9662L33.0988 55.8076L21.9341 56.0127C22.071 57.1203 22.361 59.3764 22.4267 59.5405C22.4924 59.7046 24.0138 63.1639 24.7663 64.8731L31.7442 67.2933L42.0469 64.0527Z" fill="black" fill-opacity="0.23"/>
<path d="M26.3734 62.4429L27.1128 58.3382C27.1627 58.0612 27.4039 57.8596 27.6856 57.8596H36.625C36.9649 57.8596 37.2325 58.1495 37.2051 58.4881L36.6408 65.465C36.6163 65.767 36.3639 65.9997 36.0607 65.9997H30.1686C30.0258 65.9997 29.8879 65.9472 29.7812 65.8522L26.5588 62.98C26.4078 62.8454 26.3376 62.642 26.3734 62.4429Z" fill="#BC896E"/>
<path fill-rule="evenodd" clip-rule="evenodd" d="M38.3564 83.987C37.8982 85.2803 37.2559 86.5011 36.4494 87.6119C36.319 87.7744 36.1767 87.927 36.0238 88.0686L35.7187 87.8683L31.4832 85.0645C31.4832 85.0645 32.8281 76.1042 32.6876 69.0786C31.8605 68.8585 31.097 68.4468 30.4594 67.8769C30.2991 67.7239 30.1636 67.5468 30.0579 67.3522C29.9823 66.7186 30.0314 66.0764 30.2025 65.4616C30.2507 65.3276 30.3373 65.2106 30.4514 65.1251C30.4514 65.1251 33.7394 64.7246 35.0844 64.8327C35.4474 65.2853 35.6291 65.8563 35.5943 66.4349C35.3967 66.9638 35.148 67.4723 34.8515 67.953C34.6577 68.2748 34.436 68.579 34.1891 68.8623L34.2453 69.0105C34.2453 69.0625 34.2895 69.1266 34.3136 69.2027C34.3376 69.2788 34.4019 69.427 34.4501 69.5672L34.4902 69.6794L34.6066 70.0078L34.6548 70.14C35.1004 71.3897 35.807 73.4525 36.4976 75.8278C37.2414 78.3179 37.83 80.8515 38.26 83.4142C38.3042 83.5864 38.3323 83.7747 38.3564 83.987Z" fill="url(#paint0_linear_2230_59188)"/>
<path style="mix-blend-mode:multiply" opacity="0.5" d="M35.6065 66.4071C35.409 66.936 35.1602 67.4444 34.8638 67.9252C34.8638 67.9252 34.5506 65.9224 33.6032 65.3897C32.5673 65.1666 31.4955 65.1666 30.4596 65.3897C30.3803 65.4091 30.2998 65.4238 30.2188 65.4338C30.267 65.2998 30.3535 65.1828 30.4677 65.0973C30.4677 65.0973 33.7557 64.6968 35.1006 64.8049C35.4623 65.2581 35.6425 65.829 35.6065 66.4071Z" fill="url(#paint1_linear_2230_59188)"/>
<path style="mix-blend-mode:multiply" opacity="0.5" d="M38.3399 84.0402C38.3399 84.0402 37.8638 85.4678 37.5463 85.9437C37.2289 86.4195 36.1178 88.1644 36.1178 88.1644L35.7202 87.8489L31.4847 85.0451C31.4847 85.0451 32.8296 76.0848 32.6891 69.0592C31.862 68.8391 31.0985 68.4274 30.4609 67.8575C30.4609 67.8575 32.657 68.8669 34.2027 68.8429L34.2589 68.9911L34.3271 69.1834L34.4636 69.5479L34.5038 69.66L34.6202 69.9885L34.6684 70.1206L33.1307 72.0593C33.1307 72.0593 32.653 80.635 33.4559 83.7473C34.1917 84.2088 35.056 84.4235 35.9227 84.3601C36.7895 84.2967 37.6132 83.9585 38.2736 83.3948L38.3399 84.0402Z" fill="url(#paint2_linear_2230_59188)"/>
<path d="M33.2684 64.5983L31.4264 65.334L30.0285 71.9193C26.2581 69.4973 23.3945 64.0027 23.3945 64.0027L26.0481 59.8423L26.8063 59.8423L26.9272 60.508C28.7601 62.9633 33.2684 64.5983 33.2684 64.5983Z" fill="#ECE6AE"/>
<path d="M39.7239 64.908C39.7239 64.908 39.9666 69.1756 38.7241 70.9397C38.7241 70.9397 36.0214 66.0681 35.3597 65.3291L33.5352 64.5742L34.7674 63.9502C34.7674 63.9502 36.2773 62.9294 36.9057 61.7136L37.9422 62.8567L39.7239 64.908Z" fill="#ECE6AE"/>
<path d="M6.03708 83.2095L11.3044 71.3827C12.9461 71.3827 14.223 74.3907 14.6562 75.8946L9.66261 85.192L6.03708 83.2095Z" fill="#BBAAD3"/>
<path d="M54.666 81.4353L49.3987 69.6085C47.757 69.6085 46.4801 72.6165 46.0469 74.1205L51.0405 83.4178L54.666 81.4353Z" fill="#BBAAD3"/>
<path opacity="0.24" d="M50.8806 74.6206L51.2578 69.9881C46.5115 68.1005 37.5281 63.6288 37.005 63.2222C36.482 62.8157 36.7871 63.3916 37.005 63.7304L50.8806 74.6206Z" fill="#E4E4F1"/>
<path d="M4.38588 90.773C-5.26903 73.0291 17.062 55.2863 17.5529 55.1228C20.253 58.7479 25.8005 66.0799 26.3896 66.407C26.9787 66.734 26.635 80.6076 26.3896 87.5034C25.5441 89.7657 12.1098 104.968 4.38588 90.773Z" fill="url(#paint3_linear_2230_59188)"/>
<path opacity="0.5" d="M8.52662 84.8778C11.8189 90.0277 18.4272 88.6329 21.3198 87.2918C23.7353 87.9177 20.7831 93.5503 14.5206 94.0867C8.25822 94.6231 5.66379 88.6329 4.94809 87.2918C4.23238 85.9507 4.41131 78.4405 8.52662 84.8778Z" fill="#BE1144"/>
<path d="M59.694 88.672C69.3489 70.9281 51.0876 57.5274 45.143 53.7252C42.4429 57.3503 41.2889 54.4098 40.6998 54.7368C40.1107 55.0639 46.8015 61.4282 39.25 88.672C40.0955 90.9343 51.97 102.867 59.694 88.672Z" fill="url(#paint4_linear_2230_59188)"/>
<path d="M23.6082 68.7076C22.0535 62.9837 20.0055 56.3598 15.9797 56.3598C15.9797 56.3598 12.7909 52.3938 18.4553 51.439C24.1197 50.4842 22.6263 54.9703 22.6263 54.9703C24.2082 59.6584 26.5537 62.0843 27.3719 68.7076C28.1901 75.3309 27.5901 79.6919 27.3719 83.8349L26.3082 91.6029L25.7913 90.6884C25.7913 90.6884 25.1628 74.4314 23.6082 68.7076Z" fill="#F3E8FF"/>
<path d="M42.3565 73.194C42.7354 65.433 40.1954 57.075 40.1954 57.075C40.1954 57.075 41.4655 54.5855 43.4931 54.0753C45.5206 53.5652 47.417 55.1844 48.7966 58.24C51.8748 65.0576 50.3119 71.4902 47.6601 78.8728C45.0084 86.2555 42.3565 92.5398 42.3565 92.5398C42.3565 92.5398 41.7154 94.8044 40.1954 95.047C38.6754 95.2896 36.895 94.2382 36.895 94.2382C36.895 94.2382 41.9777 80.955 42.3565 73.194Z" fill="#F3E8FF"/>
<path d="M26.8568 59.0388C26.5929 58.9253 26.2869 59.0472 26.1734 59.311L25.1665 61.6511C25.053 61.9149 25.1749 62.2207 25.4389 62.3342C25.7028 62.4476 26.0088 62.3257 26.1223 62.0619L27.1293 59.7218C27.2428 59.458 27.1208 59.1522 26.8568 59.0388Z" fill="url(#paint5_linear_2230_59188)"/>
<path d="M26.0653 58.0513C25.7984 58.1576 25.6683 58.46 25.7747 58.7268L26.174 59.7281C26.2804 59.9949 26.583 60.1249 26.8499 60.0186C27.1168 59.9123 27.247 59.6099 27.1406 59.3431L26.7412 58.3417C26.6348 58.075 26.3322 57.9449 26.0653 58.0513Z" fill="url(#paint6_linear_2230_59188)"/>
<path d="M22.7098 59.3887C22.4429 59.495 22.3128 59.7974 22.4192 60.0642L22.8186 61.0655C22.925 61.3322 23.2276 61.4623 23.4945 61.356C23.7614 61.2496 23.8915 60.9472 23.7851 60.6805L23.3858 59.6791C23.2794 59.4124 22.9768 59.2824 22.7098 59.3887Z" fill="url(#paint7_linear_2230_59188)"/>
<path d="M22.8257 60.6449C22.9392 60.3811 23.2452 60.2592 23.5092 60.3726L25.8507 61.3789C26.1147 61.4924 26.2367 61.7982 26.1232 62.062C26.0097 62.3258 25.7037 62.4477 25.4397 62.3342L23.0981 61.3279C22.8342 61.2145 22.7122 60.9087 22.8257 60.6449Z" fill="url(#paint8_linear_2230_59188)"/>
<path d="M22.7022 60.207C22.4374 60.0956 22.313 59.7908 22.4244 59.5261L23.4128 57.1782C23.5242 56.9135 23.8292 56.7892 24.094 56.9005C24.3589 57.0119 24.4833 57.3167 24.3719 57.5814L23.3835 59.9293C23.2721 60.194 22.9671 60.3183 22.7022 60.207Z" fill="url(#paint9_linear_2230_59188)"/>
<path d="M24.2511 63.6305C24.5353 63.673 24.8001 63.4773 24.8427 63.1933L25.2203 60.6742C25.2628 60.3902 25.067 60.1255 24.7828 60.083C24.4986 60.0404 24.2338 60.2362 24.1912 60.5201L23.8136 63.0393C23.7711 63.3233 23.9669 63.588 24.2511 63.6305Z" fill="#FFBC0E"/>
<path d="M26.9808 60.6481C26.7498 60.8189 26.701 61.1444 26.8718 61.3753L27.5132 62.242C27.684 62.4729 28.0098 62.5217 28.2408 62.351C28.4718 62.1802 28.5206 61.8547 28.3498 61.6238L27.7085 60.7571C27.5376 60.5262 27.2118 60.4774 26.9808 60.6481Z" fill="#FFBC0E"/>
<path d="M24.0746 62.7952C23.8435 62.966 23.7947 63.2915 23.9656 63.5224L24.6069 64.3892C24.7777 64.6201 25.1035 64.6688 25.3345 64.4981C25.5656 64.3274 25.6144 64.0018 25.4435 63.7709L24.8022 62.9041C24.6314 62.6733 24.3056 62.6245 24.0746 62.7952Z" fill="#FFBC0E"/>
<path d="M27.7411 61.0515C27.6986 61.3355 27.4337 61.5312 27.1495 61.4887L24.6288 61.1113C24.3446 61.0688 24.1488 60.8041 24.1913 60.5201C24.2339 60.2361 24.4987 60.0404 24.7829 60.0829L27.3037 60.4602C27.5878 60.5028 27.7837 60.7675 27.7411 61.0515Z" fill="#FFBC0E"/>
<path d="M29.9167 68.6483C30.2 68.6005 30.3909 68.3322 30.3431 68.0491L29.9187 65.5373C29.8708 65.2541 29.6024 65.0634 29.3191 65.1112C29.0357 65.159 28.8448 65.4273 28.8927 65.7104L29.3171 68.2222C29.3649 68.5054 29.6334 68.6961 29.9167 68.6483Z" fill="#FFBC0E"/>
<path d="M30.1028 63.4555C29.8195 63.5034 29.6286 63.7716 29.6765 64.0548L30.1008 66.5665C30.1487 66.8497 30.4171 67.0404 30.7005 66.9926C30.9838 66.9448 31.1747 66.6765 31.1268 66.3934L30.7024 63.8817C30.6546 63.5985 30.3862 63.4077 30.1028 63.4555Z" fill="url(#paint10_linear_2230_59188)"/>
<path d="M28.8991 63.0555C28.7326 63.2895 28.7875 63.6141 29.0216 63.7805L29.9007 64.4052C30.1349 64.5716 30.4597 64.5168 30.6262 64.2828C30.7927 64.0488 30.7378 63.7242 30.5037 63.5578L29.6246 62.9331C29.3905 62.7667 29.0657 62.8215 28.8991 63.0555Z" fill="url(#paint11_linear_2230_59188)"/>
<path d="M31.5853 64.9697C31.4201 65.2019 31.4727 65.5238 31.7033 65.6914L33.0649 66.6809C33.299 66.8511 33.6271 66.7975 33.7948 66.5617C33.9601 66.3295 33.9074 66.0076 33.6768 65.84L32.3153 64.8505C32.0811 64.6803 31.7531 64.7339 31.5853 64.9697Z" fill="#FFBC0E"/>
<path d="M29.491 67.913C29.326 68.1449 29.3781 68.4662 29.608 68.634L31.0912 69.717C31.3253 69.8879 31.654 69.8346 31.822 69.5985C31.987 69.3666 31.9349 69.0453 31.705 68.8775L30.2218 67.7945C29.9877 67.6236 29.659 67.6769 29.491 67.913Z" fill="#FFBC0E"/>
<path d="M32.4329 65.1128C32.4807 65.396 32.2899 65.6642 32.0065 65.7121L29.4932 66.1361C29.2099 66.184 28.9415 65.9932 28.8936 65.7101C28.8458 65.4269 29.0367 65.1587 29.32 65.1109L31.8333 64.6868C32.1166 64.6389 32.3851 64.8297 32.4329 65.1128Z" fill="#FFBC0E"/>
<path d="M27.5866 66.9902C27.5388 66.7071 27.7297 66.4388 28.013 66.391L30.5263 65.9669C30.8096 65.9191 31.0781 66.1098 31.1259 66.393C31.1738 66.6761 30.9829 66.9444 30.6995 66.9922L28.1862 67.4163C27.9029 67.4641 27.6345 67.2733 27.5866 66.9902Z" fill="url(#paint12_linear_2230_59188)"/>
<path d="M27.0456 66.6072C27.3289 66.5594 27.5198 66.2911 27.472 66.008L27.0476 63.4962C26.9997 63.2131 26.7313 63.0223 26.448 63.0701C26.1646 63.1179 25.9738 63.3862 26.0216 63.6694L26.446 66.1811C26.4938 66.4642 26.7623 66.655 27.0456 66.6072Z" fill="#FFBC0E"/>
<path d="M28.2841 61.737C27.9999 61.6945 27.735 61.8902 27.6925 62.1742L27.3149 64.6934C27.2723 64.9774 27.4682 65.2421 27.7524 65.2846C28.0365 65.3271 28.3014 65.1314 28.344 64.8474L28.7215 62.3283C28.7641 62.0443 28.5682 61.7796 28.2841 61.737Z" fill="url(#paint13_linear_2230_59188)"/>
<path d="M27.266 60.9852C27.0349 61.1559 26.9861 61.4815 27.157 61.7124L27.7983 62.5791C27.9691 62.81 28.2949 62.8588 28.526 62.6881C28.757 62.5173 28.8058 62.1917 28.6349 61.9608L27.9936 61.0941C27.8228 60.8632 27.497 60.8144 27.266 60.9852Z" fill="url(#paint14_linear_2230_59188)"/>
<path d="M28.7156 62.9233C28.549 63.1573 28.6039 63.4819 28.8381 63.6484L29.7171 64.273C29.9513 64.4395 30.2761 64.3846 30.4426 64.1506C30.6091 63.9166 30.5543 63.592 30.3201 63.4256L29.441 62.8009C29.2069 62.6345 28.8821 62.6893 28.7156 62.9233Z" fill="#FFBC0E"/>
<path d="M24.3597 63.1314C24.1287 63.3022 24.0799 63.6277 24.2507 63.8586L24.8921 64.7253C25.0629 64.9562 25.3887 65.005 25.6197 64.8342C25.8507 64.6635 25.8995 64.3379 25.7287 64.1071L25.0874 63.2403C24.9165 63.0095 24.5907 62.9607 24.3597 63.1314Z" fill="url(#paint15_linear_2230_59188)"/>
<path d="M26.6218 65.8669C26.4553 66.1009 26.5101 66.4255 26.7443 66.592L27.6234 67.2167C27.8575 67.3831 28.1823 67.3282 28.3488 67.0942C28.5153 66.8602 28.4605 66.5356 28.2263 66.3692L27.3473 65.7445C27.1131 65.5781 26.7883 65.6329 26.6218 65.8669Z" fill="#FFBC0E"/>
<path d="M29.5618 63.0717C29.6097 63.3548 29.4188 63.6231 29.1354 63.6709L26.6221 64.095C26.3388 64.1428 26.0703 63.9521 26.0225 63.6689C25.9747 63.3858 26.1656 63.1175 26.4489 63.0697L28.9622 62.6456C29.2455 62.5978 29.514 62.7886 29.5618 63.0717Z" fill="#FFBC0E"/>
<path d="M24.794 64.3169C24.8366 64.0329 25.1015 63.8372 25.3856 63.8797L27.9064 64.257C28.1906 64.2996 28.3864 64.5643 28.3438 64.8482C28.3013 65.1322 28.0364 65.3279 27.7523 65.2854L25.2315 64.9081C24.9473 64.8656 24.7515 64.6009 24.794 64.3169Z" fill="url(#paint16_linear_2230_59188)"/>
<path opacity="0.1" d="M15.9086 56.415C19.9251 56.1517 21.4725 59.409 25.6878 62.0265C27.7838 62.6591 31.0382 63.8562 33.5787 63.8562C36.7966 63.8562 38.9201 62.4555 41.2865 61.5008C41.9979 61.2137 41.7561 57.6882 48.2188 57.2418C48.2188 57.2418 45.9851 49.8903 32.7376 48.3325C28.6315 48.3325 24.2223 48.9141 21.6578 50.3874C20.605 50.9923 19.6468 50.4012 18.5424 51.4139C17.0279 51.7759 13.5053 52.401 15.9086 56.415Z" fill="#1F0101"/>
<path d="M38.8856 59.2887C39.1365 59.1487 39.4534 59.2384 39.5936 59.4891L40.1196 60.4302C40.2597 60.6808 40.1699 60.9976 39.9191 61.1376C39.6682 61.2776 39.3513 61.1879 39.2111 60.9372L38.6851 59.9962C38.545 59.7455 38.6348 59.4287 38.8856 59.2887Z" fill="url(#paint17_linear_2230_59188)"/>
<path d="M41.3532 63.2756C41.1063 63.4226 40.787 63.3418 40.6399 63.0951L39.3351 60.9069C39.1881 60.6602 39.2689 60.3411 39.5157 60.1941C39.7626 60.0471 40.0819 60.1279 40.229 60.3746L41.5338 62.5628C41.6809 62.8095 41.6 63.1286 41.3532 63.2756Z" fill="#FFBC0E"/>
<path d="M37.1399 62.2133C37.287 62.4599 37.6063 62.5408 37.8532 62.3938L40.0428 61.0898C40.2896 60.9428 40.3705 60.6237 40.2234 60.377C40.0763 60.1304 39.757 60.0495 39.5102 60.1965L37.3205 61.5005C37.0737 61.6475 36.9928 61.9666 37.1399 62.2133Z" fill="#FFBC0E"/>
<path d="M36.0013 68.648C35.718 68.6002 35.5271 68.3319 35.5749 68.0487L35.9993 65.537C36.0471 65.2539 36.3156 65.0631 36.5989 65.1109C36.8822 65.1587 37.0731 65.427 37.0253 65.7101L36.6009 68.2219C36.553 68.505 36.2846 68.6958 36.0013 68.648Z" fill="#FFBC0E"/>
<path d="M35.8151 63.456C36.0985 63.5038 36.2893 63.7721 36.2415 64.0553L35.8171 66.567C35.7693 66.8501 35.5008 67.0409 35.2175 66.9931C34.9342 66.9453 34.7433 66.677 34.7911 66.3939L35.2155 63.8821C35.2634 63.599 35.5318 63.4082 35.8151 63.456Z" fill="url(#paint18_linear_2230_59188)"/>
<path d="M37.0188 63.056C37.1853 63.29 37.1305 63.6146 36.8963 63.781L36.0172 64.4057C35.7831 64.5721 35.4582 64.5173 35.2917 64.2833C35.1252 64.0493 35.1801 63.7247 35.4142 63.5583L36.2933 62.9336C36.5275 62.7672 36.8523 62.822 37.0188 63.056Z" fill="url(#paint19_linear_2230_59188)"/>
<path d="M34.3327 64.9701C34.4979 65.2024 34.4453 65.5243 34.2147 65.6919L32.8531 66.6814C32.619 66.8516 32.2909 66.798 32.1232 66.5622C31.9579 66.33 32.0106 66.0081 32.2412 65.8405L33.6027 64.851C33.8368 64.6808 34.1649 64.7344 34.3327 64.9701Z" fill="#FFBC0E"/>
<path d="M36.427 67.9145C36.592 68.1463 36.5398 68.4677 36.3099 68.6355L34.8267 69.7185C34.5926 69.8894 34.2639 69.8361 34.0959 69.6C33.9309 69.3681 33.983 69.0468 34.2129 68.8789L35.6961 67.796C35.9302 67.6251 36.259 67.6784 36.427 67.9145Z" fill="#FFBC0E"/>
<path d="M33.4851 65.1133C33.4372 65.3964 33.6281 65.6647 33.9114 65.7125L36.4248 66.1367C36.7081 66.1845 36.9765 65.9937 37.0244 65.7106C37.0722 65.4274 36.8813 65.1591 36.598 65.1113L34.0847 64.6872C33.8014 64.6394 33.5329 64.8301 33.4851 65.1133Z" fill="#FFBC0E"/>
<path d="M38.3313 66.9916C38.3792 66.7084 38.1883 66.4401 37.905 66.3923L35.3916 65.9682C35.1083 65.9204 34.8399 66.1112 34.792 66.3943C34.7442 66.6774 34.9351 66.9457 35.2184 66.9936L37.7317 67.4177C38.015 67.4655 38.2835 67.2747 38.3313 66.9916Z" fill="url(#paint20_linear_2230_59188)"/>
<path d="M38.8724 66.6068C38.589 66.559 38.3982 66.2907 38.446 66.0076L38.8704 63.496C38.9182 63.2128 39.1867 63.0221 39.47 63.0699C39.7533 63.1177 39.9442 63.386 39.8964 63.6691L39.472 66.1807C39.4241 66.4639 39.1557 66.6546 38.8724 66.6068Z" fill="#FFBC0E"/>
<path d="M37.0101 62.7112C37.2569 62.5642 37.5763 62.645 37.7233 62.8917L39.0281 65.0799C39.1752 65.3265 39.0943 65.6457 38.8475 65.7926C38.6007 65.9396 38.2814 65.8588 38.1343 65.6122L36.8295 63.424C36.6824 63.1773 36.7633 62.8582 37.0101 62.7112Z" fill="url(#paint21_linear_2230_59188)"/>
<path d="M37.6636 61.6291C37.9422 61.6996 38.1108 61.9824 38.0403 62.2607L37.7755 63.3057C37.705 63.5841 37.422 63.7526 37.1435 63.6821C36.8649 63.6116 36.6963 63.3288 36.7668 63.0505L37.0316 62.0055C37.1021 61.7271 37.3851 61.5586 37.6636 61.6291Z" fill="url(#paint22_linear_2230_59188)"/>
<path d="M37.2024 62.9247C37.3689 63.1587 37.3141 63.4833 37.0799 63.6497L36.2009 64.2743C35.9667 64.4407 35.6419 64.3859 35.4754 64.1519C35.3089 63.9179 35.3637 63.5933 35.5979 63.4269L36.4769 62.8023C36.7111 62.6359 37.0359 62.6907 37.2024 62.9247Z" fill="url(#paint23_linear_2230_59188)"/>
<path d="M41.1675 62.5152C41.4461 62.5857 41.6147 62.8685 41.5442 63.1468L41.2794 64.1918C41.2089 64.4702 40.9259 64.6387 40.6474 64.5682C40.3688 64.4977 40.2002 64.2149 40.2707 63.9366L40.5355 62.8916C40.606 62.6132 40.889 62.4447 41.1675 62.5152Z" fill="url(#paint24_linear_2230_59188)"/>
<path d="M39.2962 65.8673C39.4627 66.1013 39.4078 66.4259 39.1737 66.5923L38.2946 67.217C38.0604 67.3834 37.7356 67.3286 37.5691 67.0946C37.4026 66.8605 37.4575 66.5359 37.6916 66.3695L38.5707 65.7449C38.8048 65.5785 39.1297 65.6333 39.2962 65.8673Z" fill="#FFBC0E"/>
<path d="M36.3562 63.0722C36.3083 63.3553 36.4992 63.6236 36.7825 63.6714L39.2958 64.0955C39.5792 64.1433 39.8476 63.9525 39.8955 63.6694C39.9433 63.3863 39.7524 63.118 39.4691 63.0702L36.9558 62.6461C36.6725 62.5983 36.404 62.7891 36.3562 63.0722Z" fill="#FFBC0E"/>
<path d="M41.2155 63.7762C41.0685 63.5296 40.7491 63.4488 40.5023 63.5957L38.3127 64.8997C38.0659 65.0467 37.985 65.3658 38.1321 65.6125C38.2792 65.8592 38.5985 65.94 38.8453 65.793L41.0349 64.489C41.2818 64.342 41.3626 64.0229 41.2155 63.7762Z" fill="url(#paint25_linear_2230_59188)"/>
<path d="M53.0491 32.3188C55.4673 29.3094 52.6499 24.0732 50.9389 21.8314L42.498 18.5825L45.8059 37.0496H50.9389C50.6347 36.7266 50.6309 35.3283 53.0491 32.3188Z" fill="#23140D"/>
<path d="M16.0924 40.6199C16.2292 53.6088 23.5663 59.8704 32.6335 60.3912C41.7007 60.912 50.2352 55.0631 50.8728 46.4113C50.8728 46.4113 51.3918 32.4467 51.1655 27.052C50.8219 12.1507 27.9139 17.6742 16.5028 22.2987C16.3204 24.0761 15.9829 30.2288 16.0924 40.6199Z" fill="url(#paint26_linear_2230_59188)"/>
<path d="M23.8435 41.0328C23.8186 41.8201 25.3651 42.5077 27.2976 42.5686C29.2301 42.6296 30.8169 42.0407 30.8417 41.2535C30.8666 40.4662 29.3201 39.7786 27.3876 39.7177C25.4551 39.6568 23.8684 40.2456 23.8435 41.0328Z" fill="#FCA28E"/>
<path d="M42.3864 41.0328C42.3616 41.8201 43.9081 42.5077 45.8406 42.5686C47.7731 42.6296 49.3598 42.0407 49.3847 41.2535C49.4095 40.4662 47.8631 39.7786 45.9306 39.7177C43.9981 39.6568 42.4113 40.2456 42.3864 41.0328Z" fill="#FCA28E"/>
<path opacity="0.2" d="M38.5234 35.1341C38.5455 35.5186 38.8007 35.8167 39.0934 35.7999C39.386 35.783 39.6052 35.4576 39.5831 35.0731C39.5609 34.6886 39.3057 34.3905 39.0131 34.4073C38.7205 34.4242 38.5012 34.7495 38.5234 35.1341Z" fill="#F1B69E"/>
<path opacity="0.2" d="M37.3828 34.1814C37.405 34.5659 37.6601 34.864 37.9528 34.8472C38.2454 34.8303 38.4646 34.505 38.4425 34.1204C38.4203 33.7359 38.1651 33.4378 37.8725 33.4547C37.5799 33.4715 37.3606 33.7969 37.3828 34.1814Z" fill="#F1B69E"/>
<path opacity="0.2" d="M36.2422 35.3183C36.2643 35.7028 36.5195 36.0009 36.8121 35.9841C37.1047 35.9672 37.324 35.6418 37.3018 35.2573C37.2797 34.8728 37.0245 34.5747 36.7319 34.5915C36.4393 34.6084 36.22 34.9337 36.2422 35.3183Z" fill="#F1B69E"/>
<path d="M44.2133 34.806C44.2972 36.263 45.5408 37.3765 46.9909 37.293C48.441 37.2096 49.5485 35.9608 49.4645 34.5038C49.3806 33.0467 48.137 31.9333 46.6869 32.0167C45.2368 32.1002 44.1293 33.3489 44.2133 34.806Z" fill="#E89979"/>
<path d="M26.4906 34.806C26.5746 36.263 27.8182 37.3765 29.2683 37.293C30.7183 37.2096 31.8258 35.9608 31.7419 34.5038C31.6579 33.0467 30.4143 31.9333 28.9642 32.0167C27.5141 32.1002 26.4067 33.3489 26.4906 34.806Z" fill="#E89979"/>
<path opacity="0.3" d="M22.1298 23.8624C22.2138 25.3194 24.8559 26.3524 28.0312 26.1697C31.2065 25.9869 33.7125 24.6577 33.6286 23.2006C33.5446 21.7436 30.9025 20.7106 27.7272 20.8934C24.5519 21.0761 22.0459 22.4054 22.1298 23.8624Z" fill="#FAEDFF"/>
<path opacity="0.3" d="M24.7324 22.7775C24.7885 23.7504 26.5526 24.4401 28.6728 24.3181C30.7929 24.1961 32.4662 23.3085 32.4101 22.3357C32.354 21.3629 30.5899 20.6731 28.4697 20.7951C26.3496 20.9172 24.6763 21.8047 24.7324 22.7775Z" fill="#FAEDFF"/>
<path opacity="0.3" d="M31.8691 56.5395C31.9252 57.5124 33.6893 58.2021 35.8095 58.0801C37.9296 57.9581 39.6029 57.0705 39.5468 56.0977C39.4908 55.1248 37.7266 54.4351 35.6065 54.5571C33.4863 54.6791 31.8131 55.5667 31.8691 56.5395Z" fill="#FAEDFF"/>
<path opacity="0.3" d="M33.5474 57.1967C33.5795 57.7549 34.5918 58.1506 35.8083 58.0806C37.0248 58.0106 37.9849 57.5013 37.9528 56.9431C37.9206 56.3849 36.9083 55.9891 35.6918 56.0591C34.4753 56.1292 33.5152 56.6384 33.5474 57.1967Z" fill="#FAEDFF"/>
<mask id="mask0_2230_59188" style="mask-type:alpha" maskUnits="userSpaceOnUse" x="25" y="43" width="24" height="11">
<path d="M46.1148 44.0342C45.2578 44.264 42.9009 44.3737 41.8296 44.3998C39.3996 44.3998 34.1999 44.3684 32.8412 44.2431C31.1428 44.0864 23.9312 41.6841 25.3683 45.4704C26.8054 49.2567 30.9338 52.8864 36.9957 53.043C43.0577 53.1997 47.16 47.8728 47.97 46.306C48.78 44.7392 47.1861 43.747 46.1148 44.0342Z" fill="#AA2727"/>
</mask>
<g mask="url(#mask0_2230_59188)">
<path d="M46.1148 44.0342C45.2578 44.264 42.9009 44.3737 41.8296 44.3998C39.3996 44.3998 34.1999 44.3684 32.8412 44.2431C31.1428 44.0864 23.9312 41.6841 25.3683 45.4704C26.8054 49.2567 30.9338 52.8864 36.9957 53.043C43.0577 53.1997 47.16 47.8728 47.97 46.306C48.78 44.7392 47.1861 43.747 46.1148 44.0342Z" fill="#AA2727"/>
<path d="M46.3028 44.6345C45.5233 44.8434 43.3798 44.9432 42.4055 44.9669C40.1955 44.9669 35.4665 44.9384 34.2307 44.8244C32.6861 44.6819 26.1273 42.4971 27.4343 45.9406C28.7413 49.3842 32.496 52.6853 38.0092 52.8278C43.5224 52.9703 47.2533 48.1255 47.99 46.7006C48.7267 45.2757 47.2771 44.3732 46.3028 44.6345Z" fill="#F35353"/>
<path d="M44.8215 45.8601C45.2447 45.7279 45.6153 44.5985 45.75 44.0418C43.9521 44.1549 40.0123 44.3654 37.5758 44.3654C35.0764 44.3654 29.7229 43.4228 27.9704 43.3689C27.9704 43.3689 27.9162 44.258 28.469 44.8304C29.0217 45.4028 32.2048 46.4646 35.5816 46.7569C39.8027 47.1223 44.2897 46.0262 44.8215 45.8601Z" fill="#E4E4F1"/>
<path d="M32.5638 49.8777C32.5638 50.653 34.3893 51.2815 36.6413 51.2815C38.8932 51.2815 40.7188 50.653 40.7188 49.8777C40.7188 49.1024 38.8932 48.4739 36.6413 48.4739C34.3893 48.4739 32.5638 49.1024 32.5638 49.8777Z" fill="#E33867"/>
<path d="M43.3106 50.1058L43.5 51.2416C42.3635 51.8726 39.5602 53.2103 37.4387 53.5132C35.3173 53.8161 32.0089 52.756 30.6198 52.1881C30.683 51.4309 30.8335 50.5666 30.8749 50.3565C30.9506 49.9716 31.147 49.4863 31.5258 49.6755C31.9047 49.8648 33.789 50.0911 37.1423 50.1058C40.4957 50.1206 41.7953 49.7272 42.5529 49.5379C43.3106 49.3487 43.3106 50.1058 43.3106 50.1058Z" fill="#E4E4F1"/>
</g>
<path d="M27.6523 34.6771C27.6523 35.7584 28.5294 36.6349 29.6113 36.6349C30.6932 36.6349 31.5703 35.7584 31.5703 34.6771C31.5703 33.5959 30.6932 32.7194 29.6113 32.7194C28.5294 32.7194 27.6523 33.5959 27.6523 34.6771Z" fill="#261611"/>
<path opacity="0.1" d="M27.9486 35.1007C27.9486 35.3878 28.6937 36.4024 29.613 36.4024C30.5322 36.4024 31.2773 35.3878 31.2773 35.1007C31.2773 34.8136 30.5322 35.2401 29.613 35.2401C28.6937 35.2401 27.9486 34.8136 27.9486 35.1007Z" fill="#F3CEC4"/>
<path d="M29.6115 33.941C29.6115 34.3706 29.9599 34.7188 30.3897 34.7188C30.8195 34.7188 31.168 34.3706 31.168 33.941C31.168 33.5115 30.8195 33.1633 30.3897 33.1633C29.9599 33.1633 29.6115 33.5115 29.6115 33.941Z" fill="#F3CEC4"/>
<path opacity="0.2" d="M28.571 33.9414C28.571 34.0986 28.6985 34.2261 28.8558 34.2261C29.0131 34.2261 29.1406 34.0986 29.1406 33.9414C29.1406 33.7842 29.0131 33.6567 28.8558 33.6567C28.6985 33.6567 28.571 33.7842 28.571 33.9414Z" fill="#F3CEC4"/>
<path d="M48.1758 34.4451C48.1758 35.5263 47.2987 36.4028 46.2168 36.4028C45.1349 36.4028 44.2578 35.5263 44.2578 34.4451C44.2578 33.3638 45.1349 32.4873 46.2168 32.4873C47.2987 32.4873 48.1758 33.3638 48.1758 34.4451Z" fill="#261611"/>
<path opacity="0.1" d="M47.8795 34.8686C47.8795 35.1558 47.1344 36.1703 46.2152 36.1703C45.2959 36.1703 44.5508 35.1558 44.5508 34.8686C44.5508 34.5815 45.2959 35.0081 46.2152 35.0081C47.1344 35.0081 47.8795 34.5815 47.8795 34.8686Z" fill="#F3CEC4"/>
<path d="M46.2166 33.7091C46.2166 34.1386 45.8682 34.4868 45.4384 34.4868C45.0086 34.4868 44.6602 34.1386 44.6602 33.7091C44.6602 33.2796 45.0086 32.9314 45.4384 32.9314C45.8682 32.9314 46.2166 33.2796 46.2166 33.7091Z" fill="#F3CEC4"/>
<path opacity="0.2" d="M47.2571 33.7094C47.2571 33.8666 47.1296 33.9941 46.9723 33.9941C46.815 33.9941 46.6875 33.8666 46.6875 33.7094C46.6875 33.5522 46.815 33.4248 46.9723 33.4248C47.1296 33.4248 47.2571 33.5522 47.2571 33.7094Z" fill="#F3CEC4"/>
<path d="M50.1385 25.8101L50.2294 23.0468C49.536 24.7387 48.5253 26.2871 47.25 27.6113C47.25 27.6113 46.3743 21.9281 44.8846 19.8583C44.8846 19.8583 44.2023 19.8583 43.031 19.8583C41.8597 19.8583 40.0629 19.7353 37.9705 19.5675C34.5589 19.2878 27.5765 19.1759 22.698 21.3239C21.6573 21.7607 21.2788 22.3126 20.4285 23.0468C19.8257 24.7978 19.0936 26.7143 19.4154 28.5357C19.7372 30.3571 20.5178 32.0702 21.6859 33.5184C21.6859 33.5184 19.9346 34.644 18.9793 39.6337C18.0241 44.6233 18.9793 45.557 18.9793 45.557L12.8366 43.0894C11.056 39.0935 11.261 39.662 10.4959 35.3643C9.71123 29.5916 9.24849 22.8342 12.3758 21.3239C19.8738 17.7027 11.8776 14.6708 36.3216 8.79383C46.6996 1.57788 53.6169 2.71191 53.6169 13.7244C53.6169 20.695 50.1385 25.8101 50.1385 25.8101Z" fill="url(#paint27_linear_2230_59188)"/>
<path d="M40.4258 8.27875C40.4258 8.27875 49.4096 11.4225 47.249 27.6109C47.249 27.6109 53.5945 15.3046 47.249 9.24089C45.0482 8.53462 42.7396 8.20908 40.4258 8.27875Z" fill="url(#paint28_linear_2230_59188)"/>
<path d="M46.2148 5.77843C46.2148 5.77843 53.4556 8.31216 51.7141 21.3595C51.7141 21.3595 56.8284 11.441 51.7141 6.55388C49.9404 5.98465 48.0797 5.72228 46.2148 5.77843Z" fill="url(#paint29_linear_2230_59188)"/>
<path d="M20.0671 30.6421C20.0671 30.6421 19.6638 32.6325 12.9961 35.0613C13.1839 36.5684 13.4649 38.0629 13.8376 39.5363C13.8376 39.5363 18.0429 35.0164 20.3628 31.6602L20.0671 30.6421Z" fill="url(#paint30_linear_2230_59188)"/>
<path d="M16.8633 33.4273V35.3704V41.1329C16.8633 43.0651 12.9962 42.6279 12.2817 41.1329C10.4171 37.2314 12.1699 30.8475 14.2819 30.8475C16.3939 30.8475 16.8633 32.2212 16.8633 33.4273Z" fill="#F1B69E"/>
<path d="M16.8633 35.1422V36.0468V38.7295C16.8633 39.6291 15.0629 39.4255 14.7303 38.7295C13.8623 36.9132 14.6783 33.9412 15.6615 33.9412C16.6448 33.9412 16.8633 34.5807 16.8633 35.1422Z" fill="#D07F5E"/>
<path opacity="0.5" d="M16.8633 33.4273V35.3704V41.1329C16.8633 43.0651 12.9962 42.6279 12.2817 41.1329C10.4171 37.2314 12.1699 30.8475 14.2819 30.8475C16.3939 30.8475 16.8633 32.2212 16.8633 33.4273Z" fill="#D07F5E"/>
<path d="M16.8633 33.4273V35.3704V41.1329C16.8633 43.0651 13.6625 42.6279 13.0711 41.1329C11.5278 37.2314 12.9786 30.8475 14.7267 30.8475C16.4748 30.8475 16.8633 32.2212 16.8633 33.4273Z" fill="#F1B69E"/>
<path d="M16.8633 35.1422V36.0468V38.7295C16.8633 39.6291 15.0629 39.4255 14.7303 38.7295C13.8623 36.9132 14.6783 33.9412 15.6615 33.9412C16.6448 33.9412 16.8633 34.5807 16.8633 35.1422Z" fill="#D07F5E"/>
<path d="M16.8633 36.8238V37.3155V38.7737C16.8633 39.2626 16.1014 39.152 15.9606 38.7737C15.5933 37.7864 15.9386 36.171 16.3547 36.171C16.7708 36.171 16.8633 36.5186 16.8633 36.8238Z" fill="#F1B69E"/>
<path opacity="0.45" d="M39.5244 19.6995C40.7249 19.8616 40.1733 19.5238 40.7412 19.4563C44.5673 19.0509 49.2831 17.2188 37.5369 13.133C25.7907 9.04713 21.5698 18.8753 20.0556 22.8612C20.5018 22.2937 23.1868 17.8106 27.4375 16.2541C32.7509 14.3085 38.0237 19.4968 39.5244 19.6995Z" fill="black"/>
<path d="M37.3029 29.8882C44.4036 24.616 45.2412 18.717 44.7724 16.4266C44.7516 13.7301 42.7909 8.48699 35.1151 9.08667C27.4393 9.68636 20.999 13.2928 18.7383 15.0211C31.0432 11.5369 44.4375 14.5042 37.3029 29.8882Z" fill="url(#paint31_linear_2230_59188)"/>
<path d="M37.3029 29.8882C44.4036 24.616 45.2412 18.717 44.7724 16.4266C44.7516 13.7301 42.7909 8.48699 35.1151 9.08667C27.4393 9.68636 20.999 13.2928 18.7383 15.0211C31.0432 11.5369 44.4375 14.5042 37.3029 29.8882Z" fill="url(#paint32_linear_2230_59188)"/>
<path d="M33.5552 31.0083C34.4717 30.1276 34.1833 29.1096 33.3437 28.1197C32.504 27.1299 25.3422 29.1413 24.5668 29.3174C23.7913 29.4936 23.6151 30.4447 24.2143 31.0083C24.8135 31.5719 32.6387 31.8889 33.5552 31.0083Z" fill="#3B2822"/>
<path d="M42.0042 30.5329C41.2256 29.6522 41.4706 28.6342 42.1839 27.6443C42.8973 26.6544 48.9817 28.6659 49.6405 28.842C50.2994 29.0181 50.4491 29.9692 49.94 30.5329C49.4309 31.0965 42.7828 31.4135 42.0042 30.5329Z" fill="#3B2822"/>
<path opacity="0.5" d="M32.9257 30.835C33.7166 30.4388 33.4678 29.9808 32.7432 29.5355C32.0187 29.0901 25.8388 29.9951 25.1697 30.0743C24.5005 30.1535 24.3484 30.5814 24.8655 30.835C25.3826 31.0885 32.1349 31.2312 32.9257 30.835Z" fill="#201510"/>
<path opacity="0.5" d="M42.536 30.3595C41.8641 29.9633 42.0755 29.5053 42.691 29.06C43.3066 28.6147 48.5569 29.5196 49.1254 29.5988C49.6939 29.6781 49.8231 30.106 49.3838 30.3595C48.9445 30.6131 43.2078 30.7557 42.536 30.3595Z" fill="#201510"/>
<path d="M28.2541 16.0522C33.8265 14.0687 37.3192 12.2894 38.3691 11.6477L34.4594 -3.17428L31.1439 7.36496L21.0176 -0.21315L17.9411 12.003L6.78688 5.91997L14.1003 19.7808C16.4964 19.3644 22.6817 18.0357 28.2541 16.0522Z" fill="#FBE315"/>
<path d="M21.0187 -0.210807L31.1532 7.37034L28.0911 9.99736L21.0187 -0.210807Z" fill="#EDFF7B"/>
<path d="M38.5273 12.2832C37.7712 9.48223 34.4654 -3.16467 34.4654 -3.16467L34.313 15.6993C37.6845 14.3422 38.5273 12.2832 38.5273 12.2832Z" fill="#EDFF7B"/>
<path d="M28.6595 18.154C34.2319 16.1705 39.2145 13.3862 38.3691 11.6474L37.1295 6.94776C37.1295 6.94776 36.7869 10.7444 27.0284 13.8664C17.2699 16.9883 16.7924 15.0667 16.7924 15.0667L8.54126 7.31851L6.78692 5.9197L14.1004 19.7805C14.7272 21.023 23.0871 20.1374 28.6595 18.154Z" fill="#FBC815"/>
<path opacity="0.5" d="M38.5273 12.2832C37.7712 9.48223 34.4654 -3.16467 34.4654 -3.16467L34.313 15.6993C37.6845 14.3422 38.5273 12.2832 38.5273 12.2832Z" fill="#EDFF7B"/>
<path d="M41.2578 41.0873C41.2578 41.0873 38.6393 36.7289 38.6393 35.6541C38.6393 35.6541 38.1931 39.1277 35.6567 38.2709C33.1203 37.414 31.6946 41.5652 33.539 41.0873C35.3835 40.6094 34.3588 41.4969 35.6567 42.4527C36.9546 43.4084 40.6177 43.2719 41.2578 41.0873Z" fill="url(#paint33_linear_2230_59188)"/>
<path d="M35.7695 42.4658C35.266 41.5388 34.0283 39.9628 33.106 41.0752C33.106 41.0752 34.4974 42.4658 35.7695 42.4658Z" fill="#AA2727"/>
<path d="M17.9492 11.9911L6.78185 5.92139L17.1419 15.3795L17.9492 11.9911Z" fill="#EDFF7B"/>
<path d="M16.6672 32.2278C16.8075 32.9042 23.5352 33.606 23.5352 33.606L23.3244 30.902L14.5391 30.5156L15.8665 31.139C15.8665 31.139 16.5269 31.5514 16.6672 32.2278Z" fill="#041A30"/>
<path d="M25.9673 30.9923L33.5974 31.1736C34.6849 31.1736 35.942 32.5303 35.2289 35.0323C33.8965 39.7062 28.9578 40.3968 26.7179 40.2769C24.478 40.157 23.5249 39.2327 23.2561 38.0687C22.9873 36.9048 22.9574 35.3826 23.2561 33.3829C23.4454 32.1153 25.1063 31.0829 25.9673 30.9923Z" fill="#001B33" fill-opacity="0.93"/>
<path fill-rule="evenodd" clip-rule="evenodd" d="M25.9585 30.808L25.9466 30.8092L20.1597 30.808C20.1597 30.808 23.1765 32.6552 23.0718 33.3564C22.7711 35.3696 22.7988 36.9168 23.0745 38.111C23.2179 38.7321 23.5466 39.2952 24.1394 39.7158C24.7286 40.1338 25.5644 40.401 26.7067 40.4622C27.8473 40.5232 29.6726 40.3787 31.3871 39.6221C33.1071 38.8631 34.7211 37.4845 35.4055 35.0837C35.7722 33.797 35.6388 32.7799 35.2489 32.0759C34.861 31.3757 34.219 30.9905 33.5984 30.9895L25.9585 30.808ZM25.974 31.1781L33.5939 31.3592H33.5961C34.0622 31.3592 34.5914 31.6522 34.9252 32.255C35.2575 32.8548 35.3961 33.7671 35.0497 34.9824C34.4017 37.2555 32.8801 38.5592 31.2377 39.2839C29.5898 40.0111 27.8257 40.1519 26.7264 40.0931C25.6288 40.0343 24.868 39.7794 24.3535 39.4144C23.8426 39.0519 23.5603 38.5708 23.435 38.0279C23.1732 36.8942 23.141 35.3971 23.4377 33.411C23.5223 32.8446 23.9427 32.3073 24.4725 31.8925C24.9971 31.4818 25.589 31.2225 25.974 31.1781Z" fill="url(#paint34_linear_2230_59188)"/>
<path fill-rule="evenodd" clip-rule="evenodd" d="M25.9333 30.5625L14.5293 30.5024L14.5644 30.8521L15.2891 31.0969L20.0305 31.0179L20.0323 31.019L20.0384 31.0228C20.0439 31.0262 20.0522 31.0313 20.063 31.038C20.0846 31.0514 20.1165 31.0713 20.1571 31.0969C20.2384 31.1481 20.3546 31.2222 20.4938 31.3134C20.7727 31.496 21.1422 31.746 21.5076 32.0169C21.8748 32.2891 22.2301 32.5768 22.4849 32.8351C22.6128 32.9648 22.7077 33.0794 22.7663 33.1745C22.8285 33.2755 22.8275 33.3184 22.8275 33.3197C22.5241 35.3511 22.5487 36.9316 22.8338 38.1662C22.9892 38.8394 23.3488 39.4572 23.9962 39.9165C24.6352 40.3699 25.521 40.6453 26.693 40.708C27.8613 40.7706 29.7274 40.6235 31.4863 39.8473C33.258 39.0655 34.9335 37.6369 35.6421 35.151C36.0224 33.8167 35.8925 32.7297 35.4641 31.9563C35.0406 31.1917 34.3242 30.7451 33.6011 30.7428L25.948 30.5609L25.9333 30.5625ZM33.5979 30.9892C34.2185 30.9902 34.8605 31.3754 35.2484 32.0757C35.6383 32.7796 35.7717 33.7967 35.405 35.0834C34.7206 37.4842 33.1067 38.8628 31.3866 39.6218C29.6721 40.3784 27.8469 40.523 26.7062 40.4619C25.5639 40.4008 24.7281 40.1336 24.1389 39.7155C23.5461 39.2949 23.2175 38.7319 23.0741 38.1108C22.7983 36.9165 22.7707 35.3694 23.0714 33.3561C23.1525 32.8127 21.359 31.581 20.5476 31.0542C20.312 30.9012 20.1592 30.8077 20.1592 30.8077L25.9462 30.8089L25.958 30.8077L33.5979 30.9892ZM33.5905 31.6054H33.5956C33.9585 31.6054 34.4116 31.8371 34.709 32.374C35.0028 32.9045 35.1449 33.7469 34.8121 34.9146C34.1883 37.1027 32.7283 38.3563 31.1376 39.0582C29.534 39.7659 27.8108 39.9041 26.7392 39.8467C25.6712 39.7895 24.9605 39.5429 24.4958 39.2132C24.0394 38.8893 23.7881 38.463 23.6748 37.9722C23.4223 36.8788 23.3872 35.4151 23.6811 33.4471C23.7523 32.9705 24.1166 32.4836 24.6241 32.0862C25.1182 31.6994 25.6584 31.4678 25.9857 31.4246L33.5905 31.6054ZM25.9735 31.1778L33.5934 31.3589H33.5956C34.0618 31.3589 34.5909 31.652 34.9248 32.2547C35.257 32.8545 35.3956 33.7668 35.0492 34.9822C34.4012 37.2553 32.8796 38.5589 31.2372 39.2837C29.5893 40.0109 27.8252 40.1516 26.726 40.0928C25.6283 40.034 24.8676 39.7792 24.3531 39.4141C23.8421 39.0516 23.5599 38.5705 23.4345 38.0277C23.1727 36.8939 23.1406 35.3968 23.4372 33.4107C23.5218 32.8443 23.9422 32.307 24.4721 31.8922C24.9967 31.4815 25.5885 31.2222 25.9735 31.1778Z" fill="#FFD742"/>
<path d="M24.6982 32.2106L33.9953 36.5044L33.6462 37.1406L23.9815 32.6291L24.6982 32.2106Z" fill="#FEFCBD" fill-opacity="0.3"/>
<path d="M23.5028 32.7838L33.2318 37.5217L32.0759 38.8647L23.218 33.6464L23.5028 32.7838Z" fill="#FEFCBD" fill-opacity="0.3"/>
<path d="M48.7085 30.885L41.0783 31.0663C39.9909 31.0663 38.7338 32.423 39.4469 34.925C40.7792 39.5989 45.718 40.2895 47.9579 40.1696C50.1979 40.0497 51.1509 39.1254 51.4197 37.9614C51.6885 36.7975 51.7184 35.2753 51.4197 33.2756C51.2304 32.008 49.5695 30.9756 48.7085 30.885Z" fill="#001B33" fill-opacity="0.93"/>
<path fill-rule="evenodd" clip-rule="evenodd" d="M48.7173 30.7008L48.7292 30.7021L51.6013 30.7008C51.6013 30.7008 51.4993 32.548 51.604 33.2492C51.9047 35.2625 51.877 36.8097 51.6013 38.0039C51.4579 38.625 51.1292 39.1881 50.5364 39.6087C49.9472 40.0267 49.1114 40.2939 47.9691 40.3551C46.8285 40.4161 45.0032 40.2716 43.2887 39.515C41.5687 38.756 39.9547 37.3774 39.2703 34.9765C38.9036 33.6899 39.037 32.6728 39.4269 31.9688C39.8148 31.2685 40.4568 30.8833 41.0774 30.8824L48.7173 30.7008ZM48.7018 31.0709L41.0819 31.252H41.0797C40.6136 31.252 40.0844 31.5451 39.7506 32.1478C39.4183 32.7477 39.2797 33.6599 39.6261 34.8753C40.2741 37.1484 41.7957 38.452 43.4381 39.1768C45.086 39.904 46.8501 40.0448 47.9494 39.9859C49.047 39.9272 49.8078 39.6723 50.3223 39.3072C50.8332 38.9447 51.1155 38.4637 51.2408 37.9208C51.5026 36.787 51.5348 35.2899 51.2381 33.3038C51.1535 32.7374 50.7331 32.2001 50.2033 31.7853C49.6787 31.3746 49.0868 31.1153 48.7018 31.0709Z" fill="url(#paint35_linear_2230_59188)"/>
<path fill-rule="evenodd" clip-rule="evenodd" d="M51.5897 30.9468C51.5663 31.4736 51.5233 32.7053 51.6044 33.2488C51.9051 35.262 51.8775 36.8092 51.6017 38.0034C51.4583 38.6245 51.1296 39.1876 50.5368 39.6082C49.9476 40.0263 49.1118 40.2935 47.9696 40.3546C46.8289 40.4157 45.0036 40.2711 43.2891 39.5145C41.5691 38.7555 39.9552 37.3769 39.2708 34.9761C38.9041 33.6894 39.0375 32.6723 39.4274 31.9683C39.8152 31.2681 40.4572 30.8829 41.0779 30.8819L48.7178 30.7004L48.7296 30.7016L51.6017 30.7004C51.6017 30.7004 51.5965 30.7939 51.5897 30.9468ZM48.7425 30.4552L48.7278 30.4536L41.0747 30.6355C40.3515 30.6377 39.6351 31.0844 39.2116 31.849C38.7833 32.6224 38.6534 33.7094 39.0336 35.0436C39.7423 37.5296 41.4178 38.9581 43.1895 39.74C44.9484 40.5161 46.8145 40.6632 47.9828 40.6007C49.1547 40.538 50.0406 40.2626 50.6796 39.8092C51.327 39.3498 51.6865 38.7321 51.842 38.0589C52.1271 36.8243 52.1517 35.2438 51.8483 33.2124C51.7996 32.8863 51.7978 32.2707 51.8103 31.7172C51.8165 31.4446 51.8259 31.1935 51.8338 31.0105C51.8377 30.9191 51.8413 30.8448 51.8438 30.7934C51.8451 30.7677 51.8461 30.7477 51.8468 30.7342L51.8479 30.7142L51.8479 30.714L51.8623 30.4538L48.7425 30.4552ZM41.0823 31.2516H41.0801C40.614 31.2516 40.0849 31.5446 39.751 32.1474C39.4188 32.7472 39.2802 33.6595 39.6266 34.8748C40.2745 37.1479 41.7961 38.4516 43.4386 39.1764C45.0865 39.9036 46.8506 40.0443 47.9498 39.9855C49.0475 39.9267 49.8082 39.6718 50.3227 39.3068C50.8336 38.9443 51.1159 38.4632 51.2413 37.9203C51.5031 36.7866 51.5352 35.2895 51.2386 33.3034C51.154 32.737 50.7336 32.1997 50.2037 31.7849C49.6791 31.3741 49.0873 31.1148 48.7023 31.0705L41.0823 31.2516ZM48.6901 31.3173L41.0853 31.498H41.0801C40.7173 31.498 40.2642 31.7297 39.9668 32.2667C39.673 32.7972 39.5309 33.6396 39.8637 34.8073C40.4874 36.9953 41.9475 38.249 43.5382 38.9509C45.1417 39.6585 46.865 39.7967 47.9366 39.7394C49.0046 39.6822 49.7152 39.4356 50.1799 39.1058C50.6363 38.782 50.8877 38.3556 51.001 37.8649C51.2535 36.7715 51.2886 35.3077 50.9947 33.3397C50.9235 32.8632 50.5592 32.3763 50.0516 31.9789C49.5576 31.5921 49.0174 31.3604 48.6901 31.3173Z" fill="#FFD742"/>
<path d="M41.6871 32.2929L49.7512 38.5272L50.0114 38.3976L42.7494 31.7635L41.6871 32.2929Z" fill="#FEFCBD" fill-opacity="0.3"/>
<path d="M39.3957 35.0869L45.4784 39.7981L45.7386 39.6685L39.5548 33.8973L39.3957 35.0869Z" fill="#FEFCBD" fill-opacity="0.3"/>
<path d="M42.819 31.5219L50.5301 38.192L51.8045 36.9757L43.8146 31.0257L42.819 31.5219Z" fill="#FEFCBD" fill-opacity="0.3"/>
<path d="M22.9061 34.7325L23.0054 33.6062C23.0054 33.6062 23.2867 31.4906 24.7266 30.8621L20.2321 30.7H15.0009L20.7613 33.6062L22.9061 34.7325Z" fill="#FDC800"/>
<path d="M37.3923 33.99C38.2172 33.99 38.9979 34.1924 39.2852 34.2935L39.1536 33.5178C38.8028 33.4033 37.9594 33.1743 37.3923 33.1743C36.6835 33.1743 35.2015 33.389 35.4377 33.5178C35.6267 33.6208 35.5165 34.1617 35.4377 34.4193C35.7456 34.2762 36.5675 33.99 37.3923 33.99Z" fill="#FBDD02"/>
<path d="M37.418 31.9603C38.7497 31.9603 39.5694 31.4231 40.0332 31.5865L40.2617 31.1978C39.6953 31.013 38.3336 30.6433 37.418 30.6433C36.2736 30.6433 33.8807 30.9899 34.2622 31.1978C34.5674 31.3642 34.8121 31.3852 34.6849 31.8011C35.182 31.5701 36.0863 31.9603 37.418 31.9603Z" fill="#FBDD02"/>
<path d="M19.9845 24.3554C20.2867 23.4314 20.4727 23.0253 20.4727 23.0253C15.2149 23.7314 9.96071 27.089 9.96071 27.089V29.9478C12.0046 27.1428 19.9845 24.3554 19.9845 24.3554Z" fill="url(#paint36_linear_2230_59188)"/>
<path d="M19.3672 28.0718L19.3672 26.8649C14.1094 27.571 9.99942 30.6322 9.99942 30.6322C9.99942 30.6322 10.2432 32.5659 10.2432 33.3459C12.2872 30.5408 19.3672 28.0718 19.3672 28.0718Z" fill="url(#paint37_linear_2230_59188)"/>
<path d="M37.9268 74.5427L37.0417 65.8102C37.0263 65.6588 36.9494 65.5204 36.829 65.4274L35.309 64.2534C35.2118 64.1783 35.0925 64.1376 34.9697 64.1376L32.8355 64.1376C32.7276 64.1376 32.622 64.169 32.5317 64.2281L30.4468 65.5918C30.302 65.6865 30.2097 65.8432 30.1972 66.0157L29.5772 74.5771C29.5495 74.9608 29.9117 75.2556 30.2821 75.1505L33.7155 74.1772C33.8169 74.1484 33.9244 74.1491 34.0255 74.1792L37.2162 75.13C37.5947 75.2427 37.9666 74.9354 37.9268 74.5427Z" fill="#EB9E0A"/>
<path fill-rule="evenodd" clip-rule="evenodd" d="M34.9708 63.7682L32.8367 63.7682C32.6568 63.7682 32.4808 63.8206 32.3302 63.9191L30.2453 65.2827C30.004 65.4406 29.8502 65.7018 29.8294 65.9893L29.2094 74.5507C29.1631 75.1903 29.7668 75.6815 30.3842 75.5065L33.8176 74.5331C33.8514 74.5235 33.8872 74.5237 33.9209 74.5338L37.1116 75.4845C37.7424 75.6725 38.3622 75.1602 38.2959 74.5057L37.4108 65.7732C37.3853 65.5209 37.2571 65.2902 37.0563 65.1351L35.5363 63.9612L35.3101 64.2537L35.5363 63.9612C35.3744 63.8361 35.1755 63.7682 34.9708 63.7682ZM32.8367 64.5075L34.9708 64.5076C35.0117 64.5076 35.0515 64.5211 35.0839 64.5462L36.6039 65.7201C36.644 65.7511 36.6697 65.7973 36.6748 65.8478L37.5599 74.5802C37.5731 74.7111 37.4492 74.8136 37.323 74.776L34.1323 73.8253C33.9639 73.7751 33.7847 73.7739 33.6157 73.8218L30.1823 74.7952C30.0588 74.8302 29.938 74.732 29.9473 74.604L30.5673 66.0427C30.5715 65.9852 30.6022 65.9329 30.6505 65.9014L32.7354 64.5377C32.7655 64.518 32.8007 64.5075 32.8367 64.5075Z" fill="#FFCD4E"/>
<path d="M51.4692 77.7765C50.8268 79.8932 51.3361 81.9213 52.6068 82.3066C53.8776 82.6918 55.4286 81.2882 56.0711 79.1716C56.7135 77.055 56.2042 75.0268 54.9335 74.6416C53.6627 74.2563 52.1117 75.6599 51.4692 77.7765Z" fill="#BE1144"/>
<path d="M17.7222 76.0788C18.3647 78.1955 17.8553 80.2237 16.5846 80.6089C15.3138 80.9942 13.7628 79.5906 13.1203 77.4739C12.4779 75.3572 12.9872 73.3291 14.2579 72.9438C15.5287 72.5586 17.0797 73.9622 17.7222 76.0788Z" fill="#BE1144"/>
<path d="M51.4698 77.7762C50.9662 79.4351 51.3654 81.0246 52.3614 81.3266C53.3574 81.6285 54.573 80.5285 55.0765 78.8696C55.5801 77.2107 55.1809 75.6211 54.1849 75.3192C53.1889 75.0172 51.9733 76.1173 51.4698 77.7762Z" fill="#6C0524"/>
<path d="M17.7255 76.0793C18.2291 77.7382 17.8299 79.3278 16.8339 79.6298C15.8379 79.9317 14.6223 78.8316 14.1188 77.1727C13.6152 75.5138 14.0144 73.9242 15.0104 73.6222C16.0064 73.3203 17.222 74.4204 17.7255 76.0793Z" fill="#6C0524"/>
<path d="M50.9929 71.2948L46.3881 61.154L42.0395 66.7358L43.767 71.9436L47.564 75.814L50.9929 71.2948Z" fill="#88CF42"/>
<path d="M44.5938 74.8845L47.5652 75.814C46.8442 75.1245 43.5819 69.4746 42.0408 66.7358L39.568 66.3429C39.3388 68.0838 42.8231 72.7627 44.5938 74.8845Z" fill="#56B729"/>
<path d="M46.3864 61.1542L42.0379 66.7361L39.5651 66.3432L43.971 60.607L46.3864 61.1542Z" fill="#25951C"/>
<path opacity="0.3" d="M45.2556 60.9098C41.4638 68.2791 47.4091 75.7579 47.5625 75.8149L48.9781 69.669C49.0012 64.2929 49.2236 61.5076 45.2556 60.9098Z" fill="#1A7109"/>
<path d="M46.8858 61.6909C45.0924 63.131 44.8881 66.2741 45.0101 67.6657L47.2911 67.6361C47.9033 65.0543 48.6793 60.2508 46.8858 61.6909Z" fill="#25951C"/>
<path d="M46.7315 64.4443C43.1906 67.2011 45.8091 73.1733 47.5609 75.8149L51.7946 70.5414C49.6456 65.809 50.6726 61.9885 51.5408 60.4385C50.3138 59.9822 44.6609 61.0349 46.7315 64.4443Z" fill="#82DC34"/>
<path fill-rule="evenodd" clip-rule="evenodd" d="M51.3575 70.4757L51.2722 70.2784C50.0279 67.4003 49.8875 65.1629 50.0484 63.6585C50.1289 62.905 50.2854 62.3321 50.4194 61.9514C50.4864 61.7611 50.5478 61.6188 50.5913 61.526C50.6131 61.4796 50.6304 61.4457 50.6416 61.4243C50.6473 61.4136 50.6514 61.406 50.6538 61.4016L50.6558 61.3981L50.656 61.3977L50.6564 61.3972L50.9888 60.8267L50.3352 60.9063L50.3733 61.2328C50.3352 60.9063 50.3352 60.9063 50.3352 60.9063L50.3338 60.9065L50.3316 60.9068L50.3249 60.9077C50.3194 60.9084 50.3119 60.9094 50.3024 60.9108C50.2835 60.9137 50.2567 60.9179 50.2227 60.9239C50.1546 60.9359 50.0576 60.955 49.9364 60.9841C49.694 61.0422 49.3542 61.1404 48.9558 61.3019C48.1591 61.6247 47.2365 62.0469 46.2808 63.0648C46.2808 63.0648 46.2799 63.4044 46.353 63.6512C46.4261 63.898 46.5564 64.1234 46.5564 64.1234C47.4335 63.1891 48.4703 62.2069 49.1988 61.9117C49.4301 61.818 49.6389 61.7479 49.8155 61.6961C49.811 61.7087 49.8064 61.7215 49.8019 61.7345C49.6523 62.1593 49.4835 62.7823 49.397 63.5909C49.2277 65.1747 49.3758 67.4581 50.587 70.3449C50.0104 70.9758 49.2467 71.8525 48.6098 72.592C48.2633 72.9943 47.9533 73.3571 47.73 73.6192C47.7146 73.6374 47.6996 73.655 47.6849 73.6722C47.6361 73.5743 47.581 73.4609 47.5212 73.3338C47.2952 72.8534 47.005 72.1796 46.7473 71.4058C46.2266 69.8417 45.9708 66.2086 46.4637 64.6656C46.4637 64.6656 46.215 64.9156 46.1411 64.9896C46.0671 65.0636 45.8611 65.3414 45.8611 65.3414C45.3012 67.0943 45.5959 70.0244 46.126 71.6167C46.3938 72.421 46.6947 73.1194 46.9286 73.6167C47.0457 73.8656 47.1463 74.0647 47.2179 74.2021C47.2537 74.2709 47.2823 74.3243 47.3021 74.3608C47.3121 74.3791 47.3198 74.3931 47.3251 74.4028L47.3314 74.414L47.3331 74.4171L47.3338 74.4183C47.3338 74.4183 47.3339 74.4184 47.6191 74.2556L47.8684 74.4679L47.9642 74.3549C48.0261 74.2819 48.1158 74.1763 48.2272 74.0455C48.4499 73.784 48.759 73.4223 49.1045 73.0211C49.7966 72.2176 50.6313 71.2603 51.2112 70.6338L51.3575 70.4757ZM47.6191 74.2556L47.8684 74.4679L47.5643 74.8275L47.3338 74.4183L47.6191 74.2556Z" fill="#D4FD5F"/>
<path d="M44.1212 72.9864L44.9961 73.8058L43.2462 71.4522L42.3712 69.918L43.084 71.4756L44.1212 72.9864Z" fill="#25951C"/>
<path d="M48.7664 65.5513C47.8347 65.2048 46.6937 65.9596 46.2179 67.2373C45.7421 68.515 46.1117 69.8317 47.0434 70.1782C47.9752 70.5248 49.1162 69.7699 49.592 68.4922C50.0677 67.2145 49.6981 65.8978 48.7664 65.5513Z" fill="#D4FD5F"/>
<path d="M52.086 69.6947C51.3682 71.0828 52.2552 74.1247 52.7884 75.4721L53.9414 77.2359L53.254 78.2578L50.3097 79.0277C50.0893 79.0854 49.8637 79.1214 49.6363 79.1355L47.9157 79.2414C47.2991 79.2794 46.6834 79.1542 46.1306 78.8785L43.6692 77.6511C42.9521 77.2935 41.5298 76.0128 41.1955 75.285L40.9481 74.4533L42.0446 73.5991L41.1955 71.9581L41.5289 71.4957L42.1082 71.0841C44.3552 72.0242 48.7924 72.5175 48.7924 72.5175C49.0796 70.5523 50.9904 69.1833 52.086 69.6947Z" fill="#FBC3A4"/>
<path opacity="0.34" d="M50.809 71.5509C50.5733 70.6918 51.5543 69.9573 52.0742 69.6975C51.686 70.2656 51.7738 71.3661 51.8662 71.8454C51.612 72.1052 51.0447 72.41 50.809 71.5509Z" fill="#F3E8FF"/>
<path d="M17.1077 67.9969C17.8256 69.385 16.9386 72.4268 16.4053 73.7743L15.2523 75.5381L15.9398 76.5599L19.2155 77.4165L21.1823 77.1871L23.8268 75.9967L26.6325 75.4007L26.6325 74.4146L23.2877 74.4146L23.1883 73.3663L22.7696 72.3907L27.4794 70.508L27.0854 69.3862C24.8385 70.3264 20.4014 70.8196 20.4014 70.8196C20.1141 68.8544 18.2034 67.4855 17.1077 67.9969Z" fill="#FBC3A4"/>
<path d="M18.0629 70.7565C18.6411 69.7871 17.6508 68.5176 17.0964 68.005C17.5503 68.6264 17.3583 70.2801 17.1925 71.0284C17.2417 71.3417 18.0629 70.7565 18.0629 70.7565Z" fill="#FCD6C1"/>
<path d="M54.1107 80.6553L52.668 78.4191L53.9193 77.1538H55.259C55.5063 78.7074 54.5965 80.1355 54.1107 80.6553Z" fill="#F3BC9E"/>
<path d="M15.0846 78.9584L16.5273 76.7222L15.276 75.4569H13.9364C13.689 77.0105 14.5988 78.4386 15.0846 78.9584Z" fill="#FFA777"/>
<path d="M25.9022 28.53L24.3894 30.4624L22.1126 29.5448L24.0462 31.0566L23.128 33.332L24.6407 31.3997L26.9176 32.3173L24.984 30.8055L25.9022 28.53Z" fill="white" fill-opacity="0.84"/>
<path opacity="0.2" d="M23.3538 30.2618C22.9839 30.9021 23.2034 31.7209 23.8441 32.0905C24.4848 32.4602 25.3041 32.2408 25.674 31.6005C26.0439 30.9602 25.8244 30.1415 25.1837 29.7718C24.5429 29.4021 23.7237 29.6215 23.3538 30.2618Z" fill="white"/>
<path d="M44.3905 47.3974L42.8777 49.3297L40.6009 48.4121L42.5344 49.9239L41.6163 52.1993L43.129 50.267L45.4059 51.1845L43.4723 49.6728L44.3905 47.3974Z" fill="white" fill-opacity="0.84"/>
<path opacity="0.2" d="M41.842 49.1291C41.4721 49.7694 41.6916 50.5882 42.3324 50.9578C42.9731 51.3275 43.7923 51.1081 44.1622 50.4678C44.5322 49.8275 44.3126 49.0088 43.6719 48.6391C43.0312 48.2694 42.2119 48.4888 41.842 49.1291Z" fill="white"/>
<g opacity="0.8">
<path d="M51.5858 36.6176L50.073 38.5499L47.7962 37.6324L49.7298 39.1441L48.8116 41.4195L50.3243 39.4872L52.6012 40.4048L50.6676 38.893L51.5858 36.6176Z" fill="white" fill-opacity="0.84"/>
<path opacity="0.2" d="M49.0374 38.3493C48.6675 38.9896 48.887 39.8084 49.5277 40.178C50.1684 40.5477 50.9877 40.3283 51.3576 39.688C51.7275 39.0477 51.508 38.229 50.8673 37.8593C50.2266 37.4897 49.4073 37.709 49.0374 38.3493Z" fill="white"/>
</g>
<path d="M33.0674 73.0078C33.0334 73.0078 33.0058 72.9802 33.0058 72.9462V72.2879C33.0058 72.2538 32.9782 72.2263 32.9441 72.2263H31.3934C31.3546 72.2263 31.3254 72.1908 31.3329 72.1527L31.5186 71.2102C31.5243 71.1814 31.5497 71.1605 31.5791 71.1605H34.2893C34.3023 71.1605 34.315 71.1564 34.3256 71.1487L34.6276 70.9286C34.6465 70.9148 34.6559 70.8917 34.6521 70.8687L34.5661 70.3491C34.564 70.3362 34.5578 70.3243 34.5485 70.3152L34.3273 70.0983C34.3158 70.0869 34.3003 70.0806 34.2842 70.0806H32.1476C32.1314 70.0806 32.1158 70.0742 32.1043 70.0628L31.3339 69.3002C31.3239 69.2903 31.3176 69.2772 31.316 69.2633L31.1371 67.668C31.1345 67.6448 31.1453 67.6221 31.1649 67.6095L32.107 66.9999C32.117 66.9935 32.1286 66.99 32.1405 66.99H32.9356C32.9728 66.99 33.0016 66.9574 32.9968 66.9205L32.9134 66.278C32.9086 66.2412 32.9374 66.2085 32.9746 66.2085H34.2622C34.2962 66.2085 34.3238 66.2361 34.3238 66.2701V66.9284C34.3238 66.9624 34.3514 66.99 34.3855 66.99H35.5334C35.5737 66.99 35.6032 67.028 35.5931 67.067L35.3506 68.0095C35.3436 68.0367 35.319 68.0557 35.2909 68.0557H32.9296C32.9135 68.0557 32.898 68.0621 32.8864 68.0734L32.6694 68.2863C32.6576 68.2979 32.6509 68.3137 32.6509 68.3303V68.7404C32.6509 68.7569 32.6576 68.7728 32.6694 68.7843L32.8864 68.9972C32.898 69.0086 32.9135 69.0149 32.9296 69.0149H35.0663C35.0824 69.0149 35.098 69.0212 35.1095 69.0325L35.8796 69.7881C35.8898 69.7981 35.8962 69.8113 35.8977 69.8254L36.077 71.4884C36.0794 71.5106 36.0696 71.5323 36.0514 71.5452L35.1075 72.2149C35.0971 72.2223 35.0846 72.2263 35.0718 72.2263H34.3983C34.3597 72.2263 34.3305 72.2614 34.3378 72.2994L34.4589 72.9347C34.4661 72.9726 34.437 73.0078 34.3983 73.0078H33.0674Z" fill="#FFB800"/>
<path fill-rule="evenodd" clip-rule="evenodd" d="M32.6972 72.5339V72.9458C32.6972 73.1499 32.8628 73.3154 33.0671 73.3154H34.398C34.63 73.3154 34.8047 73.1044 34.7613 72.8766L34.696 72.5339H35.0715C35.1482 72.5339 35.2231 72.5101 35.2856 72.4657L36.2295 71.796C36.3388 71.7185 36.3975 71.5881 36.3832 71.455L36.2039 69.7921C36.1947 69.707 36.1563 69.6278 36.0952 69.5679L35.3251 68.8124C35.2559 68.7445 35.1629 68.7065 35.066 68.7065H33.0301L32.9589 68.6366V68.4334L33.0301 68.3635H35.2906C35.4594 68.3635 35.6068 68.2493 35.6488 68.0859L35.8913 67.1434C35.9515 66.9095 35.7748 66.6817 35.5331 66.6817H34.6318V66.2698C34.6318 66.0657 34.4662 65.9001 34.2619 65.9001H32.9742C32.7511 65.9001 32.5787 66.0962 32.6074 66.3173L32.6547 66.6817H32.1402C32.0688 66.6817 31.999 66.7023 31.9391 66.741L30.997 67.3505C30.8793 67.4267 30.8148 67.5628 30.8304 67.702L31.0093 69.2972C31.0187 69.3811 31.0566 69.4593 31.1166 69.5187L31.887 70.2813C31.9563 70.3498 32.0498 70.3883 32.1473 70.3883H34.183L34.2748 70.4784L34.3229 70.7688L34.2086 70.8521H31.5788C31.4021 70.8521 31.25 70.9771 31.2159 71.1503L31.0301 72.0928C30.9851 72.3213 31.1601 72.5339 31.3931 72.5339H32.6972ZM33.0055 72.9458C33.0055 72.9798 33.0331 73.0074 33.0671 73.0074H34.398C34.4366 73.0074 34.4658 72.9722 34.4585 72.9342L34.3375 72.299C34.3302 72.261 34.3593 72.2259 34.398 72.2259H35.0715C35.0843 72.2259 35.0968 72.2219 35.1072 72.2145L36.0511 71.5448C36.0693 71.5319 36.0791 71.5102 36.0767 71.488L35.8974 69.8251C35.8959 69.8109 35.8895 69.7977 35.8793 69.7877L35.1092 69.0322C35.0976 69.0209 35.0821 69.0146 35.066 69.0146H32.9293C32.9131 69.0146 32.8976 69.0082 32.8861 68.9969L32.6691 68.784C32.6573 68.7724 32.6506 68.7566 32.6506 68.74V68.3299C32.6506 68.3134 32.6573 68.2976 32.6691 68.286L32.8861 68.0731C32.8976 68.0618 32.9131 68.0554 32.9293 68.0554H35.2906C35.3187 68.0554 35.3433 68.0364 35.3503 68.0092L35.5928 67.0667C35.6028 67.0277 35.5734 66.9897 35.5331 66.9897H34.3852C34.3511 66.9897 34.3235 66.9621 34.3235 66.9281V66.2698C34.3235 66.2358 34.2959 66.2082 34.2619 66.2082H32.9742C32.937 66.2082 32.9083 66.2409 32.9131 66.2777L32.9964 66.9202C33.0012 66.957 32.9725 66.9897 32.9353 66.9897H32.1402C32.1283 66.9897 32.1166 66.9932 32.1066 66.9996L31.1645 67.6091C31.1449 67.6218 31.1342 67.6445 31.1368 67.6677L31.3157 69.2629C31.3172 69.2769 31.3235 69.2899 31.3335 69.2998L32.1039 70.0624C32.1155 70.0738 32.1311 70.0803 32.1473 70.0803H34.2838C34.3 70.0803 34.3155 70.0866 34.327 70.0979L34.5481 70.3148C34.5575 70.324 34.5636 70.3359 34.5658 70.3487L34.6518 70.8684C34.6556 70.8913 34.6461 70.9145 34.6273 70.9282L34.3253 71.1483C34.3147 71.156 34.302 71.1602 34.2889 71.1602H31.5788C31.5493 71.1602 31.524 71.181 31.5183 71.2099L31.3326 72.1524C31.3251 72.1904 31.3542 72.2259 31.3931 72.2259H32.9438C32.9779 72.2259 33.0055 72.2535 33.0055 72.2875V72.9458Z" fill="#B85B06" fill-opacity="0.34"/>
<path d="M33.288 66.3871C33.5137 66.3583 33.8571 66.3109 34.094 66.2684C34.1581 66.2569 34.1515 66.2085 34.0864 66.2085H32.9359C32.8978 66.2085 32.8688 66.2427 32.8751 66.2802L32.9749 66.8785C32.9811 66.9161 32.9522 66.9503 32.9141 66.9503H32.1401C32.1276 66.9503 32.1154 66.954 32.1052 66.9611L31.5154 67.3663C31.4561 67.4071 31.5029 67.4991 31.5709 67.4752L32.178 67.261C32.1812 67.2599 32.1845 67.259 32.1878 67.2585L33.1833 67.0829C33.2128 67.0777 33.2343 67.0521 33.2343 67.0222V66.4483C33.2343 66.4173 33.2572 66.3911 33.288 66.3871Z" fill="#FFDF8B"/>
<path d="M32.9736 69.2764C32.9343 69.2217 32.883 69.1507 32.8312 69.0802C32.8013 69.0394 32.8741 68.9575 32.9175 68.9835C32.9241 68.9875 32.9318 68.9896 32.9396 68.9896H35.0669C35.0833 68.9896 35.0989 68.9961 35.1105 69.0077L35.7 69.5969C35.7467 69.6435 35.6973 69.7209 35.6353 69.6983L35.2231 69.5485C35.2185 69.5468 35.2137 69.5457 35.2088 69.5452L33.0169 69.3018C32.9995 69.2998 32.9838 69.2907 32.9736 69.2764Z" fill="#FFDF8B"/>
<path d="M33.4025 66.4041L34.9152 68.3364L37.1921 67.4189L35.2585 68.9306L36.1767 71.206L34.6639 69.2737L32.3871 70.1913L34.3207 68.6795L33.4025 66.4041Z" fill="white" fill-opacity="0.84"/>
<path opacity="0.2" d="M35.9509 68.1349C36.3208 68.7751 36.1013 69.5939 35.4606 69.9635C34.8199 70.3332 34.0006 70.1138 33.6307 69.4735C33.2608 68.8333 33.4803 68.0145 34.121 67.6449C34.7618 67.2752 35.581 67.4946 35.9509 68.1349Z" fill="white"/>
<path d="M35.8162 -4.54172L34.3035 -2.60938L32.0266 -3.52695L33.9602 -2.01517L33.0421 0.260233L34.5548 -1.6721L36.8317 -0.75454L34.8981 -2.26632L35.8162 -4.54172Z" fill="white" fill-opacity="0.84"/>
<path d="M23.626 71.151C23.5582 70.8936 23.6542 70.5133 23.7107 70.3553V70.2772L22.8721 70.4743C22.8524 70.645 22.8248 71.0536 22.8721 71.3215C22.9194 71.5895 23.1678 72.0112 23.2861 72.1885L24.0156 71.8789C23.914 71.7435 23.6938 71.4083 23.626 71.151Z" fill="#EB9E0A"/>
<path d="M24.1483 75.0965C24.1236 74.8316 24.2806 74.4721 24.3622 74.3255L24.375 74.2485L23.5154 74.3057C23.468 74.4709 23.3738 74.8694 23.3766 75.1415C23.3794 75.4136 23.5554 75.8702 23.6431 76.0645L24.4134 75.8784C24.3354 75.7282 24.173 75.3615 24.1483 75.0965Z" fill="#EB9E0A"/>
<path opacity="0.32" d="M26.299 70.61C26.6337 70.5494 27.3222 70.425 27.398 70.4124H27.4297L27.145 69.551L25.9985 70.0726L26.299 70.61Z" fill="white"/>
<path opacity="0.32" d="M25.751 75.1723C26.012 75.2136 26.5486 75.2988 26.6074 75.309L26.6306 75.3171L26.6429 74.6127L25.6686 74.7014L25.751 75.1723Z" fill="white"/>
<path d="M23.9497 70.5151L23.1629 71.5201L21.9786 71.0429L22.9843 71.8292L22.5068 73.0126L23.2936 72.0076L24.4778 72.4848L23.4721 71.6986L23.9497 70.5151Z" fill="white" fill-opacity="0.84"/>
<path opacity="0.2" d="M22.6246 71.416C22.4322 71.749 22.5463 72.1749 22.8796 72.3672C23.2128 72.5595 23.6389 72.4453 23.8313 72.1123C24.0237 71.7793 23.9095 71.3534 23.5763 71.1611C23.2431 70.9688 22.817 71.0829 22.6246 71.416Z" fill="white"/>
<path d="M25.3207 60.7654L24.5339 61.7704L23.3497 61.2931L24.3554 62.0794L23.8779 63.2629L24.6646 62.2579L25.8489 62.7351L24.8432 61.9488L25.3207 60.7654Z" fill="white" fill-opacity="0.84"/>
<path opacity="0.2" d="M23.9957 61.6654C23.8033 61.9984 23.9175 62.4242 24.2507 62.6165C24.5839 62.8088 25.01 62.6947 25.2024 62.3617C25.3948 62.0286 25.2806 61.6028 24.9474 61.4105C24.6142 61.2183 24.1881 61.3324 23.9957 61.6654Z" fill="white"/>
<path opacity="0.1" d="M8.52076 72.277C10.1613 73.5549 11.2879 71.1048 13.8133 67.8666C16.3386 64.6285 19.3064 61.8286 17.6658 60.5508C16.0253 59.2729 12.6481 60.8621 10.1228 64.1002C7.59743 67.3383 6.88018 70.9992 8.52076 72.277Z" fill="white"/>
<path opacity="0.1" d="M59.0519 74.9262C57.7075 75.9733 56.7843 73.9656 54.715 71.3121C52.6456 68.6587 50.2137 66.3643 51.558 65.3172C52.9024 64.2701 55.6697 65.5723 57.7391 68.2258C59.8085 70.8792 60.3962 73.8791 59.0519 74.9262Z" fill="white"/>
</g>
<defs>
<linearGradient id="paint0_linear_2230_59188" x1="34.1971" y1="88.0526" x2="34.1971" y2="64.7847" gradientUnits="userSpaceOnUse">
<stop stop-color="#F50D44"/>
<stop offset="0.99" stop-color="#FB4F54"/>
</linearGradient>
<linearGradient id="paint1_linear_2230_59188" x1="32.9126" y1="67.9252" x2="32.9126" y2="64.7849" gradientUnits="userSpaceOnUse">
<stop offset="0.01" stop-color="#C16688"/>
<stop offset="1" stop-color="#7E70F1"/>
</linearGradient>
<linearGradient id="paint2_linear_2230_59188" x1="1523.52" y1="3259.48" x2="1523.52" y2="2261.11" gradientUnits="userSpaceOnUse">
<stop offset="0.01" stop-color="#B45C7D"/>
<stop offset="1" stop-color="#8A7EEA"/>
</linearGradient>
<linearGradient id="paint3_linear_2230_59188" x1="18.6195" y1="88.8019" x2="18.6195" y2="55.08" gradientUnits="userSpaceOnUse">
<stop stop-color="#F50D44"/>
<stop offset="0.99" stop-color="#FB4F54"/>
</linearGradient>
<linearGradient id="paint4_linear_2230_59188" x1="45.708" y1="89.4906" x2="45.708" y2="53.6798" gradientUnits="userSpaceOnUse">
<stop stop-color="#F50D44"/>
<stop offset="0.99" stop-color="#FB4F54"/>
</linearGradient>
<linearGradient id="paint5_linear_2230_59188" x1="25.6699" y1="60.4811" x2="26.6256" y2="60.8923" gradientUnits="userSpaceOnUse">
<stop stop-color="#FFD770"/>
<stop offset="1" stop-color="#FDBC12"/>
</linearGradient>
<linearGradient id="paint6_linear_2230_59188" x1="25.9743" y1="59.2274" x2="26.9407" y2="58.842" gradientUnits="userSpaceOnUse">
<stop stop-color="#FFD770"/>
<stop offset="1" stop-color="#FDBC12"/>
</linearGradient>
<linearGradient id="paint7_linear_2230_59188" x1="22.6189" y1="60.5648" x2="23.5853" y2="60.1794" gradientUnits="userSpaceOnUse">
<stop stop-color="#FFD770"/>
<stop offset="1" stop-color="#FDBC12"/>
</linearGradient>
<linearGradient id="paint8_linear_2230_59188" x1="24.68" y1="60.8758" x2="24.2693" y2="61.8313" gradientUnits="userSpaceOnUse">
<stop stop-color="#FFD770"/>
<stop offset="1" stop-color="#FDBC12"/>
</linearGradient>
<linearGradient id="paint9_linear_2230_59188" x1="22.9186" y1="58.3522" x2="23.8775" y2="58.7558" gradientUnits="userSpaceOnUse">
<stop stop-color="#FFD770"/>
<stop offset="1" stop-color="#FDBC12"/>
</linearGradient>
<linearGradient id="paint10_linear_2230_59188" x1="29.8887" y1="65.3106" x2="30.9146" y2="65.1373" gradientUnits="userSpaceOnUse">
<stop stop-color="#FFD770"/>
<stop offset="1" stop-color="#FDBC12"/>
</linearGradient>
<linearGradient id="paint11_linear_2230_59188" x1="29.4612" y1="64.0929" x2="30.0636" y2="63.2451" gradientUnits="userSpaceOnUse">
<stop stop-color="#FFD770"/>
<stop offset="1" stop-color="#FDBC12"/>
</linearGradient>
<linearGradient id="paint12_linear_2230_59188" x1="29.2696" y1="66.1789" x2="29.4427" y2="67.2043" gradientUnits="userSpaceOnUse">
<stop stop-color="#FFD770"/>
<stop offset="1" stop-color="#FDBC12"/>
</linearGradient>
<linearGradient id="paint13_linear_2230_59188" x1="27.5037" y1="63.4338" x2="28.5327" y2="63.588" gradientUnits="userSpaceOnUse">
<stop stop-color="#FFD770"/>
<stop offset="1" stop-color="#FDBC12"/>
</linearGradient>
<linearGradient id="paint14_linear_2230_59188" x1="27.4776" y1="62.1458" x2="28.3139" y2="61.527" gradientUnits="userSpaceOnUse">
<stop stop-color="#FFD770"/>
<stop offset="1" stop-color="#FDBC12"/>
</linearGradient>
<linearGradient id="paint15_linear_2230_59188" x1="24.5714" y1="64.292" x2="25.4076" y2="63.6732" gradientUnits="userSpaceOnUse">
<stop stop-color="#FFD770"/>
<stop offset="1" stop-color="#FDBC12"/>
</linearGradient>
<linearGradient id="paint16_linear_2230_59188" x1="26.646" y1="64.0684" x2="26.4921" y2="65.0968" gradientUnits="userSpaceOnUse">
<stop stop-color="#FFD770"/>
<stop offset="1" stop-color="#FDBC12"/>
</linearGradient>
<linearGradient id="paint17_linear_2230_59188" x1="39.8566" y1="59.9596" x2="38.9484" y2="60.4672" gradientUnits="userSpaceOnUse">
<stop stop-color="#FFD770"/>
<stop offset="1" stop-color="#FDBC12"/>
</linearGradient>
<linearGradient id="paint18_linear_2230_59188" x1="36.0293" y1="65.3111" x2="35.0034" y2="65.1378" gradientUnits="userSpaceOnUse">
<stop stop-color="#FFD770"/>
<stop offset="1" stop-color="#FDBC12"/>
</linearGradient>
<linearGradient id="paint19_linear_2230_59188" x1="36.4568" y1="64.0934" x2="35.8543" y2="63.2455" gradientUnits="userSpaceOnUse">
<stop stop-color="#FFD770"/>
<stop offset="1" stop-color="#FDBC12"/>
</linearGradient>
<linearGradient id="paint20_linear_2230_59188" x1="36.6483" y1="66.1802" x2="36.4753" y2="67.2057" gradientUnits="userSpaceOnUse">
<stop stop-color="#FFD770"/>
<stop offset="1" stop-color="#FDBC12"/>
</linearGradient>
<linearGradient id="paint21_linear_2230_59188" x1="38.3757" y1="63.9858" x2="37.4822" y2="64.5186" gradientUnits="userSpaceOnUse">
<stop stop-color="#FFD770"/>
<stop offset="1" stop-color="#FDBC12"/>
</linearGradient>
<linearGradient id="paint22_linear_2230_59188" x1="37.9079" y1="62.7832" x2="36.8993" y2="62.5277" gradientUnits="userSpaceOnUse">
<stop stop-color="#FFD770"/>
<stop offset="1" stop-color="#FDBC12"/>
</linearGradient>
<linearGradient id="paint23_linear_2230_59188" x1="36.6404" y1="63.962" x2="36.0379" y2="63.1142" gradientUnits="userSpaceOnUse">
<stop stop-color="#FFD770"/>
<stop offset="1" stop-color="#FDBC12"/>
</linearGradient>
<linearGradient id="paint24_linear_2230_59188" x1="41.4118" y1="63.6693" x2="40.4032" y2="63.4138" gradientUnits="userSpaceOnUse">
<stop stop-color="#FFD770"/>
<stop offset="1" stop-color="#FDBC12"/>
</linearGradient>
<linearGradient id="paint25_linear_2230_59188" x1="39.4075" y1="64.2477" x2="39.9397" y2="65.1413" gradientUnits="userSpaceOnUse">
<stop stop-color="#FFD770"/>
<stop offset="1" stop-color="#FDBC12"/>
</linearGradient>
<linearGradient id="paint26_linear_2230_59188" x1="33.6468" y1="17.3503" x2="33.6468" y2="60.4234" gradientUnits="userSpaceOnUse">
<stop stop-color="#FFBC98"/>
<stop offset="1" stop-color="#FAC4A6"/>
</linearGradient>
<linearGradient id="paint27_linear_2230_59188" x1="31.5681" y1="51.8101" x2="31.5681" y2="8.26801" gradientUnits="userSpaceOnUse">
<stop offset="0.01" stop-color="#3D2B2B"/>
<stop offset="0.99" stop-color="#392419"/>
</linearGradient>
<linearGradient id="paint28_linear_2230_59188" x1="1834.29" y1="933.562" x2="1834.29" y2="598.762" gradientUnits="userSpaceOnUse">
<stop offset="0.01" stop-color="#3B2720"/>
<stop offset="0.99" stop-color="#4A3020"/>
</linearGradient>
<linearGradient id="paint29_linear_2230_59188" x1="1492.02" y1="751.527" x2="1492.02" y2="481.689" gradientUnits="userSpaceOnUse">
<stop offset="0.01" stop-color="#3B2720"/>
<stop offset="0.99" stop-color="#4A3020"/>
</linearGradient>
<linearGradient id="paint30_linear_2230_59188" x1="1525.6" y1="604.305" x2="1525.6" y2="516.682" gradientUnits="userSpaceOnUse">
<stop offset="0.01" stop-color="#3B2821"/>
<stop offset="0.99" stop-color="#6C5045"/>
</linearGradient>
<linearGradient id="paint31_linear_2230_59188" x1="31.9279" y1="29.4522" x2="31.9279" y2="10.7704" gradientUnits="userSpaceOnUse">
<stop offset="0.01" stop-color="#3D2B2B"/>
<stop offset="0.99" stop-color="#392419"/>
</linearGradient>
<linearGradient id="paint32_linear_2230_59188" x1="31.8086" y1="9.03931" x2="44.8676" y2="28.2398" gradientUnits="userSpaceOnUse">
<stop stop-color="#4B3021"/>
<stop offset="1" stop-color="#241610"/>
</linearGradient>
<linearGradient id="paint33_linear_2230_59188" x1="37.3272" y1="37.196" x2="37.3272" y2="43.1193" gradientUnits="userSpaceOnUse">
<stop stop-color="#F5B694"/>
<stop offset="1" stop-color="#FF7762"/>
</linearGradient>
<linearGradient id="paint34_linear_2230_59188" x1="27.8904" y1="30.808" x2="27.8904" y2="40.4747" gradientUnits="userSpaceOnUse">
<stop stop-color="#FFF601"/>
<stop offset="1" stop-color="#F5C001"/>
</linearGradient>
<linearGradient id="paint35_linear_2230_59188" x1="45.4368" y1="30.7008" x2="45.4368" y2="40.3676" gradientUnits="userSpaceOnUse">
<stop stop-color="#FFF601"/>
<stop offset="1" stop-color="#F5C001"/>
</linearGradient>
<linearGradient id="paint36_linear_2230_59188" x1="19.7941" y1="23.9896" x2="15.2182" y2="29.9505" gradientUnits="userSpaceOnUse">
<stop stop-color="#6D5145"/>
<stop offset="1" stop-color="#6D5145" stop-opacity="0"/>
</linearGradient>
<linearGradient id="paint37_linear_2230_59188" x1="19.1161" y1="27.8394" x2="14.5402" y2="33.8003" gradientUnits="userSpaceOnUse">
<stop stop-color="#6D5145"/>
<stop offset="1" stop-color="#6D5145" stop-opacity="0"/>
</linearGradient>
<clipPath id="clip0_2230_59188">
<rect width="64.4248" height="104" fill="white" transform="translate(0 -5)"/>
</clipPath>
</defs>
</svg>
