<svg width="58" height="95" viewBox="0 0 58 95" fill="none" xmlns="http://www.w3.org/2000/svg">
<g clip-path="url(#clip0_1155_117935)">
<path d="M12.933 54.1775C13.2929 47.7044 21.7852 48.999 22.5769 48.999C27.0869 49.4066 36.7836 50.495 39.4896 51.5882C42.1957 52.6815 39.3217 55.592 37.5464 56.9106L22.5769 54.1775C19.2423 56.3352 12.6451 59.356 12.933 54.1775Z" fill="#F3E8FF"/>
<path d="M45.77 60.2677L32.4288 53.9011L21.1055 53.3055L6.80248 61.5444L19.7149 87.9486H38.885L45.77 60.2677Z" fill="#7854AE"/>
<path d="M36.6123 61.0452L35.4387 56.1975L28.0844 53.1873L17.4441 53.3827C17.5745 54.4383 17.8509 56.5884 17.9135 56.7448C17.9761 56.9012 19.4261 60.1981 20.1433 61.827L26.7935 64.1336L36.6123 61.0452Z" fill="black" fill-opacity="0.23"/>
<path d="M28.7403 86.5652C33.4171 86.8948 36.66 85.8037 37.6968 85.2169V83.8687C35.898 84.1558 31.5884 84.7301 28.7403 84.7301C25.8922 84.7301 21.5327 83.5566 19.7089 82.9698L18.772 84.393C20.1461 84.9798 24.0635 86.2356 28.7403 86.5652Z" fill="#1F0202"/>
<path d="M21.6756 59.5113L22.3803 55.5994C22.4278 55.3354 22.6577 55.1433 22.9262 55.1433H31.4458C31.7697 55.1433 32.0248 55.4196 31.9986 55.7423L31.4608 62.3915C31.4375 62.6794 31.197 62.9012 30.908 62.9012H25.2926C25.1565 62.9012 25.025 62.8511 24.9234 62.7605L21.8523 60.0232C21.7084 59.8949 21.6415 59.7011 21.6756 59.5113Z" fill="#BC896E"/>
<path fill-rule="evenodd" clip-rule="evenodd" d="M33.0964 80.0439C32.6597 81.2764 32.0476 82.4399 31.279 83.4986C31.1547 83.6534 31.0191 83.7989 30.8734 83.9338L30.5826 83.7429L26.546 81.0708C26.546 81.0708 27.8277 72.5313 27.6938 65.8356C26.9055 65.6258 26.178 65.2335 25.5703 64.6904V64.6904C25.4175 64.5445 25.2884 64.3758 25.1877 64.1903C25.1155 63.5865 25.1623 62.9744 25.3254 62.3885C25.3714 62.2608 25.4539 62.1493 25.5626 62.0678C25.5626 62.0678 28.6963 61.6861 29.9781 61.7891C30.3241 62.2205 30.4972 62.7646 30.464 63.3161C30.2757 63.8202 30.0387 64.3047 29.7561 64.7629V64.7629C29.5714 65.0695 29.3601 65.3595 29.1248 65.6294L29.1784 65.7707C29.1784 65.8203 29.2205 65.8814 29.2434 65.9539C29.2664 66.0264 29.3276 66.1677 29.3735 66.3013L29.4118 66.4082L29.5227 66.7212L29.5687 66.8472C29.9934 68.0382 30.6668 70.0042 31.3249 72.2679C32.0338 74.641 32.5947 77.0557 33.0046 79.498C33.0467 79.6621 33.0734 79.8416 33.0964 80.0439Z" fill="url(#paint0_linear_1155_117935)"/>
<path style="mix-blend-mode:multiply" opacity="0.5" d="M30.4756 63.2895C30.2873 63.7935 30.0502 64.2781 29.7677 64.7363V64.7363C29.7677 64.7363 29.4693 62.8276 28.5663 62.3199C27.579 62.1072 26.5577 62.1072 25.5704 62.3199C25.4948 62.3384 25.4181 62.3524 25.3408 62.3619C25.3868 62.2342 25.4693 62.1227 25.578 62.0412C25.578 62.0412 28.7117 61.6595 29.9935 61.7625C30.3381 62.1944 30.5099 62.7385 30.4756 63.2895V63.2895Z" fill="url(#paint1_linear_1155_117935)"/>
<path style="mix-blend-mode:multiply" opacity="0.5" d="M33.0793 80.0943C33.0793 80.0943 32.6255 81.4549 32.323 81.9084C32.0204 82.3619 30.9615 84.0249 30.9615 84.0249L30.5826 83.7242L26.546 81.052C26.546 81.052 27.8278 72.5125 27.6938 65.8168C26.9055 65.6071 26.178 65.2148 25.5703 64.6716C25.5703 64.6716 27.6632 65.6336 29.1363 65.6107L29.1899 65.7519L29.2549 65.9352L29.385 66.2826L29.4233 66.3895L29.5342 66.7025L29.5802 66.8285L28.1147 68.6761C28.1147 68.6761 27.6594 76.8491 28.4246 79.8152C29.1258 80.255 29.9496 80.4596 30.7756 80.3992C31.6017 80.3387 32.3867 80.0164 33.0161 79.4793L33.0793 80.0943Z" fill="url(#paint2_linear_1155_117935)"/>
<path d="M28.2476 61.565L26.4921 62.2662L25.1599 68.5422C21.5665 66.234 18.8374 60.9974 18.8374 60.9974L21.3664 57.0323L22.089 57.0324L22.2042 57.6668C23.951 60.0068 28.2476 61.565 28.2476 61.565Z" fill="#ECE6AE"/>
<path d="M34.3996 61.86C34.3996 61.86 34.6309 65.9272 33.4467 67.6084C33.4467 67.6084 30.8709 62.9657 30.2403 62.2614L28.5015 61.5419L29.6758 60.9473C29.6758 60.9473 31.1148 59.9743 31.7137 58.8157L32.7015 59.905L34.3996 61.86Z" fill="#ECE6AE"/>
<path d="M2.2939 79.3025L7.31382 68.0311C8.87846 68.0311 10.0954 70.8978 10.5083 72.3312L5.74917 81.1919L2.2939 79.3025Z" fill="#BBAAD3"/>
<path d="M48.6397 77.6116L43.6198 66.3402C42.0551 66.3402 40.8382 69.2069 40.4253 70.6403L45.1844 79.501L48.6397 77.6116Z" fill="#BBAAD3"/>
<path opacity="0.24" d="M45.0302 71.1167L45.3896 66.7018C40.8663 64.9028 32.3047 60.6411 31.8062 60.2536C31.3077 59.8662 31.5985 60.4151 31.8062 60.738L45.0302 71.1167Z" fill="#E4E4F1"/>
<path d="M39.1021 106.019C38.8749 100.569 38.5984 86.4056 38.5984 85.4931C31.8627 86.6008 24.786 87.2825 17.5866 83.7764L14.8606 106.019H24.012C24.5572 106.019 26.1414 102.646 27.115 96.8165L29.3666 106.019H39.1021Z" fill="#4A0E0C"/>
<path d="M0.720118 86.5111C-8.48138 69.6004 12.8009 52.6909 13.2688 52.535C15.8421 55.9899 21.129 62.9776 21.6905 63.2893C22.2519 63.601 21.9244 76.823 21.6905 83.395C20.8847 85.5511 8.08131 100.04 0.720118 86.5111Z" fill="url(#paint3_linear_1155_117935)"/>
<path opacity="0.5" d="M4.66443 80.8923C7.80207 85.8003 14.1001 84.471 16.8568 83.1929C19.1589 83.7894 16.3453 89.1575 10.377 89.6687C4.40863 90.18 1.93604 84.471 1.25395 83.1929C0.571853 81.9148 0.742377 74.7573 4.66443 80.8923Z" fill="#BE1144"/>
<path d="M53.4321 84.5086C62.6336 67.5979 45.2299 54.8265 39.5645 51.2029C36.9912 54.6578 35.8914 51.8553 35.3299 52.167C34.7685 52.4787 41.1452 58.5442 33.9482 84.5086C34.754 86.6646 46.0709 98.0371 53.4321 84.5086Z" fill="url(#paint4_linear_1155_117935)"/>
<path d="M19.0394 65.4818C17.5577 60.0268 15.6059 53.7138 11.7691 53.7138C11.7691 53.7138 8.73011 49.9341 14.1285 49.0242C19.5269 48.1142 18.1036 52.3896 18.1036 52.3896C19.6112 56.8576 21.8466 59.1695 22.6264 65.4818C23.4061 71.7941 22.8343 75.9503 22.6264 79.8987L21.6126 87.302L21.1199 86.4304C21.1199 86.4304 20.521 70.9368 19.0394 65.4818Z" fill="#F3E8FF"/>
<path d="M36.9054 69.7577C37.2664 62.3612 34.8457 54.3957 34.8457 54.3957C34.8457 54.3957 36.0562 52.0231 37.9885 51.5369C39.9209 51.0507 41.7282 52.5938 43.043 55.5059C45.9766 62.0034 44.4871 68.1339 41.9599 75.1699C39.4327 82.2058 36.9054 88.195 36.9054 88.195C36.9054 88.195 36.2943 90.3532 34.8457 90.5845C33.3971 90.8157 31.7003 89.8137 31.7003 89.8137C31.7003 89.8137 36.5443 77.1543 36.9054 69.7577Z" fill="#F3E8FF"/>
<path d="M22.1371 56.2674C21.8856 56.1593 21.5939 56.2755 21.4858 56.5269L20.5261 58.7571C20.418 59.0085 20.5342 59.2999 20.7858 59.408C21.0373 59.5161 21.3289 59.4 21.4371 59.1486L22.3968 56.9184C22.5049 56.667 22.3887 56.3755 22.1371 56.2674Z" fill="url(#paint5_linear_1155_117935)"/>
<path d="M21.382 55.3269C21.1276 55.4282 21.0036 55.7165 21.105 55.9707L21.4856 56.925C21.587 57.1792 21.8754 57.3032 22.1297 57.2019C22.3841 57.1005 22.5081 56.8123 22.4067 56.5581L22.0261 55.6037C21.9247 55.3495 21.6363 55.2256 21.382 55.3269Z" fill="url(#paint6_linear_1155_117935)"/>
<path d="M18.1832 56.6008C17.9289 56.7022 17.8048 56.9904 17.9062 57.2446L18.2869 58.1989C18.3882 58.4531 18.6767 58.5771 18.931 58.4757C19.1854 58.3744 19.3094 58.0862 19.208 57.832L18.8274 56.8777C18.726 56.6235 18.4376 56.4995 18.1832 56.6008Z" fill="url(#paint7_linear_1155_117935)"/>
<path d="M18.2944 57.798C18.4025 57.5466 18.6942 57.4304 18.9457 57.5385L21.1773 58.4976C21.4289 58.6057 21.5451 58.8971 21.4369 59.1485C21.3288 59.3999 21.0371 59.5161 20.7856 59.408L18.554 58.449C18.3024 58.3408 18.1862 58.0494 18.2944 57.798Z" fill="url(#paint8_linear_1155_117935)"/>
<path d="M18.1748 57.3813C17.9224 57.2752 17.8039 56.9847 17.91 56.7325L18.852 54.4948C18.9582 54.2425 19.2489 54.1241 19.5013 54.2302C19.7537 54.3363 19.8722 54.6268 19.766 54.8791L18.8241 57.1168C18.7179 57.369 18.4272 57.4875 18.1748 57.3813Z" fill="url(#paint9_linear_1155_117935)"/>
<path d="M19.6512 60.6435C19.9221 60.6841 20.1745 60.4975 20.215 60.2269L20.5749 57.826C20.6154 57.5554 20.4288 57.3031 20.158 57.2626C19.8871 57.222 19.6347 57.4086 19.5942 57.6792L19.2343 60.0801C19.1938 60.3507 19.3804 60.603 19.6512 60.6435Z" fill="#FFBC0E"/>
<path d="M22.2541 57.8013C22.034 57.964 21.9875 58.2743 22.1503 58.4944L22.7615 59.3204C22.9243 59.5404 23.2348 59.5869 23.4549 59.4242C23.6751 59.2615 23.7216 58.9512 23.5588 58.7312L22.9476 57.9051C22.7848 57.6851 22.4743 57.6386 22.2541 57.8013Z" fill="#FFBC0E"/>
<path d="M19.4856 59.8475C19.2654 60.0102 19.2189 60.3205 19.3817 60.5405L19.9929 61.3666C20.1557 61.5866 20.4662 61.6331 20.6864 61.4704C20.9066 61.3077 20.9531 60.9974 20.7903 60.7773L20.1791 59.9513C20.0162 59.7312 19.7058 59.6847 19.4856 59.8475Z" fill="#FFBC0E"/>
<path d="M22.9777 58.1856C22.9372 58.4563 22.6848 58.6428 22.4139 58.6023L20.0115 58.2426C19.7407 58.2021 19.5541 57.9498 19.5946 57.6792C19.6352 57.4085 19.8876 57.222 20.1584 57.2625L22.5608 57.6221C22.8316 57.6627 23.0183 57.9149 22.9777 58.1856Z" fill="#FFBC0E"/>
<path d="M25.0541 65.4258C25.3241 65.3802 25.506 65.1245 25.4604 64.8547L25.056 62.4608C25.0104 62.191 24.7545 62.0091 24.4845 62.0547C24.2145 62.1003 24.0325 62.356 24.0781 62.6258L24.4826 65.0197C24.5282 65.2895 24.784 65.4713 25.0541 65.4258Z" fill="#FFBC0E"/>
<path d="M25.2286 60.4772C24.9586 60.5228 24.7767 60.7784 24.8223 61.0483L25.2267 63.4421C25.2723 63.7119 25.5282 63.8937 25.7982 63.8482C26.0682 63.8026 26.2501 63.5469 26.2045 63.2771L25.8001 60.8833C25.7545 60.6134 25.4987 60.4316 25.2286 60.4772Z" fill="url(#paint10_linear_1155_117935)"/>
<path d="M24.0837 60.0957C23.925 60.3187 23.9773 60.6281 24.2005 60.7867L25.0382 61.382C25.2614 61.5406 25.571 61.4883 25.7297 61.2653C25.8883 61.0423 25.8361 60.7329 25.6129 60.5744L24.7751 59.979C24.552 59.8204 24.2424 59.8727 24.0837 60.0957Z" fill="url(#paint11_linear_1155_117935)"/>
<path d="M26.641 61.9197C26.4835 62.141 26.5336 62.4478 26.7534 62.6075L28.0511 63.5506C28.2742 63.7128 28.5868 63.6617 28.7467 63.437C28.9042 63.2157 28.8541 62.9089 28.6343 62.7492L27.3367 61.8061C27.1135 61.6439 26.8009 61.695 26.641 61.9197Z" fill="#FFBC0E"/>
<path d="M24.6446 64.7255C24.4874 64.9464 24.5371 65.2527 24.7562 65.4126L26.1697 66.4447C26.3928 66.6076 26.7061 66.5568 26.8662 66.3317C27.0235 66.1108 26.9737 65.8046 26.7547 65.6446L25.3411 64.6125C25.118 64.4496 24.8047 64.5004 24.6446 64.7255Z" fill="#FFBC0E"/>
<path d="M27.4511 62.0566C27.4967 62.3264 27.3148 62.5821 27.0448 62.6277L24.6495 63.0318C24.3795 63.0774 24.1237 62.8956 24.0781 62.6258C24.0325 62.3559 24.2144 62.1003 24.4844 62.0547L26.8797 61.6505C27.1497 61.605 27.4055 61.7868 27.4511 62.0566Z" fill="#FFBC0E"/>
<path d="M22.8311 63.8459C22.7855 63.576 22.9674 63.3204 23.2374 63.2748L25.6327 62.8706C25.9027 62.8251 26.1586 63.0069 26.2042 63.2767C26.2498 63.5465 26.0678 63.8022 25.7978 63.8478L23.4025 64.252C23.1325 64.2975 22.8767 64.1157 22.8311 63.8459Z" fill="url(#paint12_linear_1155_117935)"/>
<path d="M22.3168 63.4805C22.5868 63.4349 22.7687 63.1792 22.7231 62.9094L22.3187 60.5156C22.2731 60.2457 22.0172 60.0639 21.7472 60.1095C21.4772 60.1551 21.2952 60.4107 21.3408 60.6806L21.7453 63.0744C21.7909 63.3442 22.0467 63.526 22.3168 63.4805Z" fill="#FFBC0E"/>
<path d="M23.4962 58.8396C23.2254 58.7991 22.973 58.9856 22.9324 59.2563L22.5726 61.6571C22.532 61.9278 22.7187 62.18 22.9895 62.2206C23.2603 62.2611 23.5127 62.0746 23.5533 61.8039L23.9131 59.4031C23.9537 59.1324 23.767 58.8802 23.4962 58.8396Z" fill="url(#paint13_linear_1155_117935)"/>
<path d="M22.5261 58.1224C22.3059 58.2851 22.2594 58.5954 22.4222 58.8154L23.0335 59.6415C23.1963 59.8615 23.5067 59.908 23.7269 59.7453C23.9471 59.5826 23.9936 59.2723 23.8308 59.0522L23.2196 58.2262C23.0568 58.0061 22.7463 57.9597 22.5261 58.1224Z" fill="url(#paint14_linear_1155_117935)"/>
<path d="M23.907 59.9702C23.7483 60.1932 23.8005 60.5026 24.0237 60.6612L24.8615 61.2565C25.0847 61.4151 25.3942 61.3629 25.5529 61.1399C25.7116 60.9168 25.6593 60.6075 25.4361 60.4489L24.5984 59.8535C24.3752 59.6949 24.0657 59.7472 23.907 59.9702Z" fill="#FFBC0E"/>
<path d="M19.7571 60.1682C19.5369 60.3309 19.4904 60.6411 19.6532 60.8612L20.2644 61.6872C20.4272 61.9072 20.7377 61.9537 20.9579 61.791C21.1781 61.6283 21.2246 61.318 21.0617 61.098L20.4505 60.272C20.2877 60.0519 19.9772 60.0054 19.7571 60.1682Z" fill="url(#paint15_linear_1155_117935)"/>
<path d="M21.9114 62.7752C21.7527 62.9983 21.8049 63.3076 22.0281 63.4662L22.8659 64.0616C23.089 64.2202 23.3986 64.1679 23.5573 63.9449C23.716 63.7219 23.6637 63.4125 23.4405 63.2539L22.6028 62.6586C22.3796 62.5 22.07 62.5522 21.9114 62.7752Z" fill="#FFBC0E"/>
<path d="M24.7138 60.1114C24.7594 60.3812 24.5775 60.6369 24.3075 60.6825L21.9122 61.0867C21.6422 61.1322 21.3863 60.9504 21.3407 60.6806C21.2951 60.4107 21.4771 60.1551 21.7471 60.1095L24.1424 59.7053C24.4124 59.6598 24.6682 59.8416 24.7138 60.1114Z" fill="#FFBC0E"/>
<path d="M20.1697 61.298C20.2103 61.0274 20.4627 60.8408 20.7335 60.8814L23.1359 61.241C23.4067 61.2815 23.5934 61.5337 23.5528 61.8044C23.5123 62.075 23.2598 62.2615 22.989 62.221L20.5866 61.8614C20.3158 61.8209 20.1292 61.5686 20.1697 61.298Z" fill="url(#paint16_linear_1155_117935)"/>
<path opacity="0.1" d="M11.7008 53.7657C15.5287 53.5149 17.0034 56.6192 21.0208 59.1138C23.0184 59.7167 26.1199 60.8575 28.5412 60.8575C31.6079 60.8575 33.6317 59.5226 35.8869 58.6127C36.5649 58.3392 36.3345 54.9792 42.4937 54.5537C42.4937 54.5537 40.3649 47.5475 27.7395 46.0629C23.8263 46.0629 19.6241 46.6172 17.1801 48.0213C16.1767 48.5977 15.2634 48.0344 14.2109 48.9996C12.7676 49.3445 9.41034 49.9403 11.7008 53.7657Z" fill="#1F0101"/>
<path d="M33.6003 56.5058C33.8394 56.3723 34.1415 56.4578 34.275 56.6968L34.7763 57.5936C34.9099 57.8326 34.8243 58.1344 34.5852 58.2679C34.3462 58.4013 34.0441 58.3158 33.9106 58.0769L33.4092 57.18C33.2757 56.9411 33.3613 56.6392 33.6003 56.5058Z" fill="url(#paint17_linear_1155_117935)"/>
<path d="M35.9513 60.3053C35.7161 60.4454 35.4118 60.3684 35.2716 60.1333L34.0281 58.0478C33.8879 57.8127 33.9649 57.5086 34.2002 57.3685C34.4354 57.2284 34.7398 57.3054 34.8799 57.5405L36.1234 59.626C36.2636 59.8611 36.1866 60.1652 35.9513 60.3053Z" fill="#FFBC0E"/>
<path d="M31.9337 59.2932C32.0739 59.5283 32.3782 59.6053 32.6134 59.4652L34.7002 58.2225C34.9355 58.0824 35.0125 57.7783 34.8724 57.5432C34.7322 57.3081 34.4278 57.2311 34.1926 57.3712L32.1058 58.6139C31.8706 58.754 31.7935 59.0581 31.9337 59.2932Z" fill="#FFBC0E"/>
<path d="M30.8478 65.4253C30.5778 65.3797 30.3958 65.124 30.4414 64.8542L30.8459 62.4604C30.8915 62.1906 31.1473 62.0087 31.4173 62.0543C31.6874 62.0999 31.8693 62.3556 31.8237 62.6254L31.4192 65.0192C31.3736 65.289 31.1178 65.4708 30.8478 65.4253Z" fill="#FFBC0E"/>
<path d="M30.6737 60.4768C30.9437 60.5224 31.1256 60.7781 31.08 61.0479L30.6756 63.4417C30.63 63.7115 30.3742 63.8934 30.1041 63.8478C29.8341 63.8022 29.6522 63.5465 29.6978 63.2767L30.1022 60.8829C30.1478 60.6131 30.4037 60.4313 30.6737 60.4768Z" fill="url(#paint18_linear_1155_117935)"/>
<path d="M31.8181 60.0962C31.9768 60.3192 31.9246 60.6286 31.7014 60.7871L30.8636 61.3825C30.6404 61.5411 30.3308 61.4888 30.1722 61.2658C30.0135 61.0428 30.0657 60.7334 30.2889 60.5748L31.1267 59.9795C31.3499 59.8209 31.6594 59.8732 31.8181 60.0962Z" fill="url(#paint19_linear_1155_117935)"/>
<path d="M29.2609 61.9202C29.4184 62.1415 29.3682 62.4483 29.1484 62.608L27.8508 63.5511C27.6277 63.7132 27.3151 63.6622 27.1552 63.4375C26.9977 63.2162 27.0478 62.9094 27.2676 62.7496L28.5652 61.8066C28.7883 61.6444 29.101 61.6955 29.2609 61.9202Z" fill="#FFBC0E"/>
<path d="M31.2568 64.7261C31.414 64.947 31.3643 65.2533 31.1452 65.4132L29.7316 66.4453C29.5085 66.6082 29.1952 66.5574 29.0351 66.3324C28.8778 66.1114 28.9276 65.8052 29.1466 65.6452L30.5602 64.6131C30.7833 64.4502 31.0966 64.501 31.2568 64.7261Z" fill="#FFBC0E"/>
<path d="M28.4507 62.0563C28.4051 62.3262 28.5871 62.5819 28.8571 62.6274L31.2524 63.0316C31.5224 63.0772 31.7782 62.8954 31.8238 62.6255C31.8694 62.3557 31.6875 62.1 31.4175 62.0544L29.0222 61.6502C28.7522 61.6046 28.4963 61.7865 28.4507 62.0563Z" fill="#FFBC0E"/>
<path d="M33.0708 63.8463C33.1164 63.5764 32.9344 63.3207 32.6644 63.2752L30.2691 62.871C29.9991 62.8254 29.7433 63.0072 29.6977 63.2771C29.6521 63.5469 29.834 63.8026 30.104 63.8482L32.4993 64.2524C32.7693 64.2979 33.0252 64.1161 33.0708 63.8463Z" fill="url(#paint20_linear_1155_117935)"/>
<path d="M33.5851 63.48C33.3151 63.4344 33.1332 63.1787 33.1787 62.9089L33.5832 60.5152C33.6288 60.2453 33.8846 60.0635 34.1546 60.1091C34.4247 60.1547 34.6066 60.4103 34.561 60.6802L34.1565 63.0739C34.1109 63.3437 33.8551 63.5255 33.5851 63.48Z" fill="#FFBC0E"/>
<path d="M31.8099 59.7673C32.0451 59.6272 32.3495 59.7042 32.4896 59.9393L33.7331 62.0247C33.8733 62.2598 33.7963 62.5639 33.561 62.704C33.3258 62.8441 33.0215 62.7671 32.8813 62.532L31.6378 60.4466C31.4976 60.2115 31.5747 59.9074 31.8099 59.7673Z" fill="url(#paint21_linear_1155_117935)"/>
<path d="M32.4354 58.7358C32.7008 58.803 32.8615 59.0725 32.7943 59.3378L32.542 60.3337C32.4748 60.599 32.2051 60.7596 31.9396 60.6924C31.6742 60.6252 31.5135 60.3557 31.5807 60.0904L31.833 59.0945C31.9002 58.8292 32.1699 58.6686 32.4354 58.7358Z" fill="url(#paint22_linear_1155_117935)"/>
<path d="M31.9949 59.9707C32.1536 60.1937 32.1013 60.5031 31.8781 60.6617L31.0404 61.257C30.8172 61.4156 30.5077 61.3633 30.349 61.1403C30.1903 60.9173 30.2425 60.6079 30.4657 60.4494L31.3035 59.854C31.5266 59.6954 31.8362 59.7477 31.9949 59.9707Z" fill="url(#paint23_linear_1155_117935)"/>
<path d="M35.7737 59.5808C36.0392 59.6479 36.1999 59.9175 36.1327 60.1827L35.8804 61.1786C35.8131 61.4439 35.5434 61.6045 35.278 61.5374C35.0125 61.4702 34.8518 61.2007 34.919 60.9354L35.1714 59.9395C35.2386 59.6742 35.5083 59.5136 35.7737 59.5808Z" fill="url(#paint24_linear_1155_117935)"/>
<path d="M33.9905 62.7749C34.1492 62.9979 34.0969 63.3073 33.8738 63.4659L33.036 64.0612C32.8128 64.2198 32.5033 64.1675 32.3446 63.9445C32.1859 63.7215 32.2381 63.4121 32.4613 63.2536L33.2991 62.6582C33.5223 62.4996 33.8318 62.5519 33.9905 62.7749Z" fill="#FFBC0E"/>
<path d="M31.188 60.111C31.1424 60.3809 31.3244 60.6365 31.5944 60.6821L33.9897 61.0863C34.2597 61.1319 34.5155 60.95 34.5611 60.6802C34.6067 60.4104 34.4248 60.1547 34.1548 60.1091L31.7595 59.705C31.4895 59.6594 31.2336 59.8412 31.188 60.111Z" fill="#FFBC0E"/>
<path d="M35.8197 60.7819C35.6796 60.5468 35.3752 60.4698 35.14 60.6099L33.0532 61.8526C32.818 61.9927 32.7409 62.2968 32.8811 62.5319C33.0213 62.767 33.3256 62.844 33.5608 62.7039L35.6476 61.4612C35.8828 61.3211 35.9599 61.017 35.8197 60.7819Z" fill="url(#paint25_linear_1155_117935)"/>
<path d="M47.0976 30.8013C49.4023 27.9332 46.7171 22.9429 45.0865 20.8063L37.042 17.7101L40.1945 35.3099H45.0865C44.7966 35.0021 44.793 33.6694 47.0976 30.8013Z" fill="#23140D"/>
<path d="M11.8774 38.7129C12.0078 51.0918 19.0003 57.0594 27.6417 57.5557C36.2831 58.0521 44.4168 52.4778 45.0245 44.2324C45.0245 44.2324 45.5191 30.9235 45.3035 25.7822C44.976 11.5806 23.1437 16.8448 12.2685 21.2521C12.0947 22.9461 11.7731 28.8098 11.8774 38.7129Z" fill="url(#paint26_linear_1155_117935)"/>
<path d="M19.2621 39.1063C19.2385 39.8566 20.7123 40.5119 22.554 40.5699C24.3958 40.628 25.908 40.0668 25.9317 39.3165C25.9554 38.5662 24.4816 37.9109 22.6398 37.8529C20.7981 37.7948 19.2858 38.356 19.2621 39.1063Z" fill="#FCA28E"/>
<path d="M36.9355 39.1063C36.9118 39.8566 38.3856 40.5119 40.2274 40.5699C42.0691 40.628 43.5814 40.0668 43.6051 39.3165C43.6287 38.5662 42.1549 37.9109 40.3132 37.8529C38.4714 37.7948 36.9592 38.356 36.9355 39.1063Z" fill="#FCA28E"/>
<path opacity="0.2" d="M33.2539 33.4849C33.275 33.8514 33.5182 34.1354 33.7971 34.1194C34.076 34.1033 34.2849 33.7932 34.2638 33.4268C34.2427 33.0603 33.9995 32.7762 33.7206 32.7922C33.4417 32.8083 33.2328 33.1184 33.2539 33.4849Z" fill="#F1B69E"/>
<path opacity="0.2" d="M32.168 32.5766C32.1891 32.9431 32.4323 33.2272 32.7112 33.2111C32.99 33.1951 33.199 32.885 33.1779 32.5185C33.1568 32.1521 32.9136 31.868 32.6347 31.884C32.3558 31.9001 32.1469 32.2102 32.168 32.5766Z" fill="#F1B69E"/>
<path opacity="0.2" d="M31.0816 33.6598C31.1027 34.0263 31.3459 34.3104 31.6247 34.2943C31.9036 34.2783 32.1126 33.9682 32.0915 33.6017C32.0703 33.2352 31.8272 32.9511 31.5483 32.9672C31.2694 32.9832 31.0604 33.2933 31.0816 33.6598Z" fill="#F1B69E"/>
<path d="M38.6788 33.1723C38.7588 34.5609 39.944 35.6221 41.326 35.5425C42.708 35.463 43.7635 34.2728 43.6835 32.8843C43.6034 31.4957 42.4183 30.4345 41.0363 30.514C39.6543 30.5935 38.5988 31.7837 38.6788 33.1723Z" fill="#E89979"/>
<path d="M21.7858 33.1723C21.8658 34.5609 23.051 35.6221 24.433 35.5425C25.8149 35.463 26.8704 34.2728 26.7904 32.8843C26.7104 31.4957 25.5252 30.4345 24.1432 30.514C22.7612 30.5935 21.7057 31.7837 21.7858 33.1723Z" fill="#E89979"/>
<path opacity="0.3" d="M17.6295 22.7422C17.7095 24.1308 20.2276 25.1153 23.2537 24.9411C26.2799 24.767 28.6683 23.5001 28.5882 22.1115C28.5082 20.723 25.9902 19.7385 22.964 19.9126C19.9378 20.0868 17.5495 21.3536 17.6295 22.7422Z" fill="#FAEDFF"/>
<path opacity="0.3" d="M20.1121 21.7084C20.1655 22.6355 21.8469 23.2929 23.8674 23.1766C25.888 23.0603 27.4827 22.2144 27.4293 21.2873C27.3758 20.3601 25.6945 19.7028 23.674 19.8191C21.6534 19.9354 20.0587 20.7812 20.1121 21.7084Z" fill="#FAEDFF"/>
<path opacity="0.3" d="M26.9119 53.8851C26.9653 54.8123 28.6467 55.4697 30.6672 55.3534C32.6878 55.2371 34.2825 54.3912 34.2291 53.464C34.1756 52.5369 32.4943 51.8795 30.4738 51.9958C28.4532 52.1121 26.8585 52.958 26.9119 53.8851Z" fill="#FAEDFF"/>
<path opacity="0.3" d="M28.5127 54.5111C28.5434 55.0431 29.5081 55.4203 30.6675 55.3535C31.8269 55.2868 32.7419 54.8014 32.7113 54.2694C32.6806 53.7374 31.7159 53.3602 30.5565 53.427C29.3971 53.4937 28.4821 53.9791 28.5127 54.5111Z" fill="#FAEDFF"/>
<mask id="mask0_1155_117935" style="mask-type:alpha" maskUnits="userSpaceOnUse" x="20" y="41" width="23" height="10">
<path d="M40.4887 41.967C39.6719 42.186 37.4257 42.2905 36.4048 42.3154C34.0889 42.3154 29.1333 42.2855 27.8384 42.166C26.2198 42.0167 19.3468 39.7272 20.7164 43.3357C22.0861 46.9442 26.0206 50.4034 31.7979 50.5527C37.5752 50.702 41.4848 45.6252 42.2567 44.1321C43.0287 42.6389 41.5097 41.6932 40.4887 41.967Z" fill="#AA2727"/>
</mask>
<g mask="url(#mask0_1155_117935)">
<path d="M40.4882 41.967C39.6714 42.186 37.4253 42.2905 36.4043 42.3154C34.0884 42.3154 29.1329 42.2855 27.8379 42.166C26.2193 42.0167 19.3463 39.7272 20.716 43.3357C22.0856 46.9442 26.0201 50.4034 31.7974 50.5527C37.5747 50.702 41.4843 45.6252 42.2562 44.1321C43.0282 42.6389 41.5092 41.6932 40.4882 41.967Z" fill="#AA2727"/>
<path d="M40.6674 42.5392C39.9245 42.7384 37.8817 42.8335 36.9531 42.8561C34.8469 42.8561 30.3399 42.8289 29.1622 42.7203C27.6901 42.5845 21.4393 40.5022 22.6849 43.7841C23.9306 47.0659 27.5089 50.212 32.7632 50.3478C38.0176 50.4836 41.5733 45.8664 42.2754 44.5083C42.9774 43.1503 41.5959 42.2903 40.6674 42.5392Z" fill="#F35353"/>
<path d="M39.2562 43.7074C39.6596 43.5815 40.0127 42.5051 40.1411 41.9745C38.4276 42.0824 34.6728 42.2829 32.3508 42.2829C29.9688 42.2829 24.8667 41.3847 23.1965 41.3333C23.1965 41.3333 23.1448 42.1806 23.6716 42.7261C24.1984 43.2716 27.232 44.2836 30.4503 44.5621C34.4731 44.9104 38.7493 43.8657 39.2562 43.7074Z" fill="#E4E4F1"/>
<path d="M27.5732 47.5363C27.5732 48.2751 29.313 48.8741 31.4592 48.8741C33.6054 48.8741 35.3452 48.2751 35.3452 47.5363C35.3452 46.7974 33.6054 46.1984 31.4592 46.1984C29.313 46.1984 27.5732 46.7974 27.5732 47.5363Z" fill="#E33867"/>
<path d="M37.8151 47.7539L37.9956 48.8363C36.9125 49.4377 34.2408 50.7126 32.219 51.0012C30.1972 51.2899 27.0441 50.2796 25.7203 49.7384C25.7805 49.0167 25.924 48.193 25.9634 47.9927C26.0355 47.6259 26.2227 47.1634 26.5838 47.3438C26.9448 47.5241 28.7406 47.7399 31.9365 47.7539C35.1324 47.7679 36.3709 47.3931 37.093 47.2127C37.8151 47.0323 37.8151 47.7539 37.8151 47.7539Z" fill="#E4E4F1"/>
</g>
<path d="M22.8934 33.0487C22.8934 34.0792 23.7293 34.9145 24.7604 34.9145C25.7915 34.9145 26.6274 34.0792 26.6274 33.0487C26.6274 32.0182 25.7915 31.1829 24.7604 31.1829C23.7293 31.1829 22.8934 32.0182 22.8934 33.0487Z" fill="#261611"/>
<path opacity="0.1" d="M23.1742 33.4528C23.1742 33.7265 23.8844 34.6934 24.7605 34.6934C25.6365 34.6934 26.3467 33.7265 26.3467 33.4528C26.3467 33.1792 25.6365 33.5857 24.7605 33.5857C23.8844 33.5857 23.1742 33.1792 23.1742 33.4528Z" fill="#F3CEC4"/>
<path d="M24.7603 32.3479C24.7603 32.7572 25.0924 33.0891 25.502 33.0891C25.9116 33.0891 26.2437 32.7572 26.2437 32.3479C26.2437 31.9385 25.9116 31.6067 25.502 31.6067C25.0924 31.6067 24.7603 31.9385 24.7603 32.3479Z" fill="#F3CEC4"/>
<path opacity="0.2" d="M23.7696 32.3479C23.7696 32.4978 23.8911 32.6192 24.0411 32.6192C24.191 32.6192 24.3125 32.4978 24.3125 32.3479C24.3125 32.1981 24.191 32.0767 24.0411 32.0767C23.8911 32.0767 23.7696 32.1981 23.7696 32.3479Z" fill="#F3CEC4"/>
<path d="M42.4523 32.8276C42.4523 33.8581 41.6164 34.6934 40.5853 34.6934C39.5542 34.6934 38.7183 33.8581 38.7183 32.8276C38.7183 31.7972 39.5542 30.9618 40.5853 30.9618C41.6164 30.9618 42.4523 31.7972 42.4523 32.8276Z" fill="#261611"/>
<path opacity="0.1" d="M42.1715 33.2316C42.1715 33.5053 41.4613 34.4722 40.5852 34.4722C39.7092 34.4722 38.999 33.5053 38.999 33.2316C38.999 32.958 39.7092 33.3645 40.5852 33.3645C41.4613 33.3645 42.1715 32.958 42.1715 33.2316Z" fill="#F3CEC4"/>
<path d="M40.5854 32.1263C40.5854 32.5357 40.2534 32.8675 39.8437 32.8675C39.4341 32.8675 39.1021 32.5357 39.1021 32.1263C39.1021 31.717 39.4341 31.3851 39.8437 31.3851C40.2534 31.3851 40.5854 31.717 40.5854 32.1263Z" fill="#F3CEC4"/>
<path opacity="0.2" d="M41.5761 32.1266C41.5761 32.2764 41.4545 32.3979 41.3046 32.3979C41.1547 32.3979 41.0332 32.2764 41.0332 32.1266C41.0332 31.9768 41.1547 31.8553 41.3046 31.8553C41.4545 31.8553 41.5761 31.9768 41.5761 32.1266Z" fill="#F3CEC4"/>
<path d="M44.3234 24.599L44.4101 21.9654C43.7493 23.5779 42.786 25.0536 41.5706 26.3156C41.5706 26.3156 40.736 20.8992 39.3163 18.9267C39.3163 18.9267 38.666 18.9267 37.5497 18.9267C36.4334 18.9267 34.721 18.8094 32.7268 18.6495C29.4755 18.3829 22.821 18.2763 18.1715 20.3235C17.1798 20.7397 16.819 21.2657 16.0086 21.9654C15.4341 23.6342 14.7364 25.4607 15.0431 27.1966C15.3498 28.9324 16.0938 30.5651 17.207 31.9453C17.207 31.9453 15.5379 33.018 14.6275 37.7734C13.7172 42.5287 14.6275 43.4186 14.6275 43.4186L8.77325 41.0668C7.07629 37.2585 7.27167 37.8003 6.54248 33.7045C5.79467 28.2028 5.35366 21.7629 8.33408 20.3235C15.48 16.8723 7.85928 13.9828 31.1553 8.38179C41.046 1.50471 47.6384 2.58548 47.6384 13.0808C47.6384 19.7241 44.3234 24.599 44.3234 24.599Z" fill="url(#paint27_linear_1155_117935)"/>
<path d="M35.0679 7.89136C35.0679 7.89136 43.6298 10.8874 41.5706 26.3157C41.5706 26.3157 47.6182 14.5872 41.5706 8.80831C39.4732 8.13521 37.273 7.82496 35.0679 7.89136Z" fill="url(#paint28_linear_1155_117935)"/>
<path d="M40.5854 5.50843C40.5854 5.50843 47.4861 7.92317 45.8265 20.3578C45.8265 20.3578 50.7006 10.9051 45.8265 6.24746C44.136 5.70496 42.3627 5.45491 40.5854 5.50843Z" fill="url(#paint29_linear_1155_117935)"/>
<path d="M15.6633 29.2041C15.6633 29.2041 15.2789 31.1011 8.92432 33.4158C9.10327 34.8521 9.37111 36.2764 9.72633 37.6807C9.72633 37.6807 13.7341 33.373 15.9451 30.1744L15.6633 29.2041Z" fill="url(#paint30_linear_1155_117935)"/>
<path d="M12.6113 31.857V33.7089V39.2008C12.6113 41.0422 8.92582 40.6256 8.24489 39.2008C6.46786 35.4825 8.13835 29.3984 10.1512 29.3984C12.164 29.3984 12.6113 30.7076 12.6113 31.857Z" fill="#F1B69E"/>
<path d="M12.6113 33.4915V34.3537V36.9104C12.6113 37.7677 10.8955 37.5737 10.5785 36.9104C9.75123 35.1794 10.5289 32.3469 11.466 32.3469C12.4031 32.3469 12.6113 32.9564 12.6113 33.4915Z" fill="#D07F5E"/>
<path opacity="0.5" d="M12.6118 31.8569V33.7088V39.2006C12.6118 41.0421 8.92631 40.6254 8.24538 39.2006C6.46835 35.4824 8.13884 29.3983 10.1517 29.3983C12.1645 29.3983 12.6118 30.7074 12.6118 31.8569Z" fill="#D07F5E"/>
<path d="M12.6118 31.8569V33.7088V39.2006C12.6118 41.0421 9.56131 40.6254 8.9977 39.2006C7.52685 35.4824 8.90952 29.3983 10.5756 29.3983C12.2416 29.3983 12.6118 30.7074 12.6118 31.8569Z" fill="#F1B69E"/>
<path d="M12.6118 33.4915V34.3537V36.9104C12.6118 37.7677 10.896 37.5737 10.579 36.9104C9.75172 35.1794 10.5294 32.3469 11.4665 32.3469C12.4036 32.3469 12.6118 32.9564 12.6118 33.4915Z" fill="#D07F5E"/>
<path d="M12.6118 35.0942V35.5628V36.9525C12.6118 37.4185 11.8857 37.313 11.7515 36.9525C11.4014 36.0116 11.7306 34.472 12.1271 34.472C12.5237 34.472 12.6118 34.8033 12.6118 35.0942Z" fill="#F1B69E"/>
<path opacity="0.45" d="M34.2099 18.7753C35.3541 18.9298 34.8283 18.6079 35.3695 18.5435C39.016 18.1572 43.5103 16.4111 32.3157 12.5171C21.1212 8.62315 17.0985 17.9898 15.6554 21.7885C16.0806 21.2476 18.6396 16.9751 22.6906 15.4917C27.7545 13.6374 32.7796 18.5821 34.2099 18.7753Z" fill="black"/>
<path d="M32.0903 28.4848C38.8576 23.4602 39.6558 17.8382 39.2091 15.6553C39.1892 13.0855 37.3206 8.08861 30.0053 8.66013C22.6899 9.23165 16.5521 12.6687 14.3976 14.3158C26.1246 10.9953 38.8898 13.8233 32.0903 28.4848Z" fill="url(#paint31_linear_1155_117935)"/>
<path d="M32.0903 28.4848C38.8576 23.4602 39.6558 17.8382 39.2091 15.6553C39.1892 13.0855 37.3206 8.08861 30.0053 8.66013C22.6899 9.23165 16.5521 12.6687 14.3976 14.3158C26.1246 10.9953 38.8898 13.8233 32.0903 28.4848Z" fill="url(#paint32_linear_1155_117935)"/>
<path d="M28.5178 29.5527C29.3912 28.7134 29.1165 27.7432 28.3162 26.7998C27.516 25.8564 20.6905 27.7734 19.9515 27.9413C19.2124 28.1091 19.0445 29.0155 19.6156 29.5527C20.1866 30.0898 27.6444 30.392 28.5178 29.5527Z" fill="#3B2822"/>
<path d="M36.573 29.0999C35.8309 28.2606 36.0643 27.2904 36.7442 26.3469C37.424 25.4035 43.2228 27.3205 43.8507 27.4884C44.4785 27.6563 44.6212 28.5627 44.1361 29.0999C43.6509 29.637 37.315 29.9392 36.573 29.0999Z" fill="#3B2822"/>
<path opacity="0.5" d="M27.9213 29.3872C28.675 29.0096 28.4379 28.5732 27.7474 28.1487C27.0569 27.7243 21.1672 28.5867 20.5295 28.6622C19.8918 28.7378 19.7468 29.1456 20.2396 29.3872C20.7324 29.6289 27.1676 29.7648 27.9213 29.3872Z" fill="#201510"/>
<path opacity="0.5" d="M37.0795 28.9345C36.4391 28.5569 36.6406 28.1204 37.2272 27.696C37.8139 27.2715 42.8176 28.134 43.3594 28.2095C43.9012 28.285 44.0244 28.6928 43.6057 28.9345C43.187 29.1761 37.7198 29.312 37.0795 28.9345Z" fill="#201510"/>
<path d="M23.4651 15.2991C28.7758 13.4088 32.1045 11.713 33.105 11.1015L29.379 -3.02446L26.2191 7.01986L16.5684 -0.202381L13.6364 11.44L3.00597 5.64272L9.97595 18.8526C12.2595 18.4558 18.1544 17.1895 23.4651 15.2991Z" fill="#FBE315"/>
<path d="M16.5702 -0.200294L26.2288 7.02483L23.3105 9.52848L16.5702 -0.200294Z" fill="#EDFF7B"/>
<path d="M33.2578 11.7072C32.5372 9.03785 29.3866 -3.01514 29.3866 -3.01514L29.2414 14.963C32.4545 13.6696 33.2578 11.7072 33.2578 11.7072Z" fill="#EDFF7B"/>
<path d="M23.8511 17.3025C29.1618 15.4122 33.9104 12.7586 33.1047 11.1015L31.9233 6.62258C31.9233 6.62258 31.5967 10.2409 22.2965 13.2163C12.9963 16.1916 12.5413 14.3603 12.5413 14.3603L4.67759 6.97592L3.00564 5.6428L9.97562 18.8527C10.573 20.0368 18.5404 19.1929 23.8511 17.3025Z" fill="#FBC815"/>
<path opacity="0.5" d="M33.2578 11.7075C32.5372 9.0381 29.3866 -3.01489 29.3866 -3.01489L29.2414 14.9632C32.4545 13.6699 33.2578 11.7075 33.2578 11.7075Z" fill="#EDFF7B"/>
<path d="M35.8618 39.1582C35.8618 39.1582 33.3663 35.0045 33.3663 33.9801C33.3663 33.9801 32.9411 37.2906 30.5237 36.474C28.1064 35.6574 26.7477 39.6136 28.5055 39.1582C30.2633 38.7028 29.2868 39.5486 30.5237 40.4595C31.7607 41.3703 35.2518 41.2402 35.8618 39.1582Z" fill="url(#paint33_linear_1155_117935)"/>
<path d="M30.6294 40.4717C30.1495 39.5882 28.9699 38.0863 28.0909 39.1465C28.0909 39.1465 29.417 40.4717 30.6294 40.4717Z" fill="#AA2727"/>
<path d="M13.6475 11.4282L3.00453 5.64355L12.8781 14.6575L13.6475 11.4282Z" fill="#EDFF7B"/>
<path d="M12.4257 30.715C12.5595 31.3597 18.9712 32.0285 18.9712 32.0285L18.7703 29.4515L10.3976 29.0833L11.6627 29.6773C11.6627 29.6773 12.292 30.0704 12.4257 30.715Z" fill="#041A30"/>
<path d="M21.2846 29.5375L28.5564 29.7103C29.5928 29.7103 30.7908 31.0032 30.1113 33.3878C28.8415 37.8422 24.1347 38.5003 21.9999 38.386C19.8652 38.2718 18.9569 37.3909 18.7007 36.2816C18.4445 35.1723 18.4161 33.7216 18.7007 31.8158C18.8811 30.6078 20.464 29.6238 21.2846 29.5375Z" fill="#001B33" fill-opacity="0.93"/>
<path fill-rule="evenodd" clip-rule="evenodd" d="M21.2775 29.3617L21.2662 29.3629L15.751 29.3617C15.751 29.3617 18.6262 31.1221 18.5264 31.7904C18.2398 33.7091 18.2661 35.1836 18.529 36.3218C18.6656 36.9137 18.9789 37.4503 19.5438 37.8512C20.1054 38.2496 20.9019 38.5043 21.9905 38.5625C23.0776 38.6207 24.8172 38.4829 26.4512 37.7619C28.0904 37.0385 29.6286 35.7247 30.2808 33.4366C30.6303 32.2104 30.5032 31.241 30.1316 30.5701C29.7619 29.9027 29.1501 29.5356 28.5586 29.5347L21.2775 29.3617ZM21.2922 29.7145L28.5543 29.887H28.5564C29.0007 29.887 29.505 30.1663 29.8231 30.7407C30.1398 31.3124 30.2719 32.1818 29.9418 33.3401C29.3242 35.5065 27.8741 36.7489 26.3088 37.4396C24.7382 38.1327 23.057 38.2668 22.0094 38.2107C20.9632 38.1547 20.2382 37.9118 19.7479 37.5639C19.261 37.2184 18.9919 36.76 18.8725 36.2426C18.623 35.1621 18.5924 33.7353 18.8751 31.8424C18.9557 31.3026 19.3563 30.7906 19.8613 30.3953C20.3613 30.0038 20.9253 29.7567 21.2922 29.7145Z" fill="url(#paint34_linear_1155_117935)"/>
<path fill-rule="evenodd" clip-rule="evenodd" d="M21.2538 29.1277L10.3854 29.0704L10.4188 29.4037L11.1095 29.637L15.6282 29.5617L15.6299 29.5627L15.6358 29.5663C15.641 29.5696 15.6489 29.5744 15.6592 29.5808C15.6798 29.5936 15.7101 29.6125 15.7489 29.637C15.8263 29.6858 15.9371 29.7564 16.0698 29.8433C16.3355 30.0173 16.6877 30.2556 17.036 30.5138C17.3859 30.7732 17.7245 31.0474 17.9674 31.2936C18.0892 31.4171 18.1797 31.5263 18.2355 31.617C18.2948 31.7132 18.2939 31.7541 18.2938 31.7554C18.0047 33.6914 18.0282 35.1977 18.2998 36.3743C18.448 37.0159 18.7907 37.6046 19.4077 38.0424C20.0167 38.4745 20.8609 38.737 21.9778 38.7968C23.0913 38.8564 24.8697 38.7162 26.546 37.9764C28.2345 37.2313 29.8313 35.8699 30.5067 33.5006C30.8691 32.2291 30.7453 31.1931 30.3371 30.456C29.9335 29.7273 29.2507 29.3017 28.5616 29.2995L21.2678 29.1262L21.2538 29.1277ZM28.5585 29.5344C29.15 29.5353 29.7618 29.9024 30.1315 30.5698C30.503 31.2407 30.6302 32.21 30.2807 33.4363C29.6284 35.7244 28.0903 37.0382 26.4511 37.7616C24.8171 38.4826 23.0775 38.6204 21.9904 38.5622C20.9018 38.504 20.1053 38.2493 19.5437 37.8509C18.9788 37.45 18.6655 36.9134 18.5288 36.3215C18.266 35.1833 18.2397 33.7088 18.5263 31.7901C18.6036 31.2722 16.8943 30.0984 16.1211 29.5963C15.8965 29.4505 15.7509 29.3614 15.7509 29.3614L21.2661 29.3625L21.2774 29.3614L28.5585 29.5344ZM28.5514 30.1216H28.5563C28.9021 30.1216 29.334 30.3424 29.6174 30.8541C29.8974 31.3597 30.0328 32.1625 29.7156 33.2754C29.1212 35.3607 27.7297 36.5555 26.2137 37.2244C24.6855 37.8988 23.0431 38.0306 22.0218 37.9759C21.004 37.9214 20.3267 37.6863 19.8838 37.3721C19.4489 37.0635 19.2094 36.6571 19.1014 36.1894C18.8607 35.1474 18.8273 33.7524 19.1074 31.8768C19.1752 31.4226 19.5224 30.9585 20.0061 30.5798C20.477 30.2112 20.9918 29.9904 21.3037 29.9493L28.5514 30.1216ZM21.2921 29.7141L28.5542 29.8867H28.5563C29.0006 29.8867 29.5049 30.166 29.823 30.7404C30.1396 31.3121 30.2717 32.1815 29.9416 33.3398C29.3241 35.5062 27.8739 36.7486 26.3087 37.4393C24.7381 38.1324 23.0569 38.2665 22.0093 38.2104C20.9631 38.1544 20.2381 37.9115 19.7478 37.5636C19.2608 37.2181 18.9918 36.7597 18.8724 36.2423C18.6228 35.1617 18.5922 33.7349 18.8749 31.8421C18.9556 31.3023 19.3562 30.7903 19.8612 30.3949C20.3612 30.0035 20.9252 29.7564 21.2921 29.7141Z" fill="#FFD742"/>
<path d="M20.0767 30.6987L28.9372 34.7909L28.6045 35.3972L19.3937 31.0975L20.0767 30.6987Z" fill="#FEFCBD" fill-opacity="0.3"/>
<path d="M18.9386 31.2447L28.2107 35.7601L27.1091 37.04L18.6671 32.0668L18.9386 31.2447Z" fill="#FEFCBD" fill-opacity="0.3"/>
<path d="M42.961 29.4349L35.6892 29.6077C34.6528 29.6077 33.4548 30.9007 34.1343 33.2852C35.4041 37.7396 40.1109 38.3978 42.2457 38.2835C44.3804 38.1692 45.2888 37.2884 45.5449 36.179C45.8011 35.0697 45.8296 33.6191 45.5449 31.7133C45.3645 30.5052 43.7816 29.5213 42.961 29.4349Z" fill="#001B33" fill-opacity="0.93"/>
<path fill-rule="evenodd" clip-rule="evenodd" d="M42.9681 29.2585L42.9794 29.2597L45.7167 29.2585C45.7167 29.2585 45.6194 31.019 45.7192 31.6873C46.0058 33.606 45.9795 35.0805 45.7167 36.2187C45.58 36.8106 45.2668 37.3472 44.7018 37.7481C44.1403 38.1465 43.3437 38.4012 42.2551 38.4594C41.168 38.5176 39.4284 38.3798 37.7944 37.6588C36.1552 36.9354 34.617 35.6216 33.9648 33.3335C33.6153 32.1072 33.7424 31.1379 34.114 30.467C34.4837 29.7996 35.0955 29.4325 35.687 29.4316L42.9681 29.2585ZM42.9534 29.6113L35.6913 29.7839H35.6892C35.2449 29.7839 34.7406 30.0632 34.4225 30.6376C34.1058 31.2093 33.9737 32.0787 34.3038 33.237C34.9214 35.4033 36.3715 36.6458 37.9368 37.3365C39.5074 38.0296 41.1886 38.1637 42.2362 38.1076C43.2824 38.0516 44.0074 37.8087 44.4977 37.4608C44.9847 37.1153 45.2537 36.6569 45.3732 36.1395C45.6227 35.0589 45.6533 33.6321 45.3706 31.7393C45.29 31.1995 44.8893 30.6875 44.3843 30.2921C43.8843 29.9007 43.3203 29.6536 42.9534 29.6113Z" fill="url(#paint35_linear_1155_117935)"/>
<path fill-rule="evenodd" clip-rule="evenodd" d="M45.7053 29.4932C45.683 29.9953 45.642 31.1692 45.7193 31.6871C46.0059 33.6058 45.9796 35.0803 45.7167 36.2185C45.5801 36.8104 45.2668 37.347 44.7019 37.7479C44.1403 38.1463 43.3438 38.401 42.2552 38.4592C41.1681 38.5174 39.4285 38.3796 37.7945 37.6586C36.1553 36.9352 34.6172 35.6214 33.9649 33.3333C33.6154 32.107 33.7426 31.1377 34.1142 30.4668C34.4838 29.7994 35.0956 29.4323 35.6871 29.4314L42.9682 29.2584L42.9795 29.2595L45.7167 29.2584C45.7167 29.2584 45.7118 29.3475 45.7053 29.4932ZM42.9918 29.0247L42.9778 29.0232L35.6841 29.1965C34.9949 29.1987 34.3121 29.6243 33.9085 30.353C33.5003 31.0901 33.3765 32.1261 33.7389 33.3976C34.4143 35.7668 36.0111 37.1283 37.6996 37.8735C39.3759 38.6132 41.1543 38.7534 42.2678 38.6938C43.3847 38.634 44.2289 38.3715 44.8379 37.9394C45.4549 37.5017 45.7976 36.9129 45.9458 36.2713C46.2174 35.0947 46.2409 33.5884 45.9518 31.6524C45.9054 31.3416 45.9037 30.755 45.9156 30.2274C45.9214 29.9676 45.9304 29.7284 45.9379 29.554C45.9417 29.4668 45.9451 29.396 45.9475 29.347C45.9487 29.3225 45.9497 29.3035 45.9504 29.2906L45.9514 29.2716L45.9514 29.2713L45.9651 29.0234L42.9918 29.0247ZM35.6914 29.7837H35.6893C35.2451 29.7837 34.7407 30.063 34.4226 30.6374C34.106 31.2091 33.9739 32.0785 34.304 33.2368C34.9215 35.4032 36.3717 36.6456 37.9369 37.3363C39.5075 38.0294 41.1887 38.1635 42.2363 38.1074C43.2825 38.0514 44.0075 37.8085 44.4978 37.4606C44.9848 37.1151 45.2538 36.6567 45.3732 36.1393C45.6228 35.0588 45.6534 33.6319 45.3707 31.7391C45.29 31.1993 44.8894 30.6873 44.3844 30.2919C43.8844 29.9005 43.3204 29.6534 42.9535 29.6111L35.6914 29.7837ZM42.9419 29.8463L35.6942 30.0186H35.6893C35.3435 30.0186 34.9116 30.2394 34.6282 30.7511C34.3482 31.2567 34.2128 32.0595 34.53 33.1724C35.1244 35.2577 36.5159 36.4525 38.0319 37.1214C39.5601 37.7958 41.2025 37.9276 42.2238 37.8729C43.2416 37.8184 43.9189 37.5833 44.3618 37.2691C44.7967 36.9605 45.0362 36.5541 45.1442 36.0864C45.3849 35.0444 45.4183 33.6494 45.1382 31.7738C45.0704 31.3196 44.7232 30.8556 44.2395 30.4768C43.7686 30.1082 43.2538 29.8874 42.9419 29.8463Z" fill="#FFD742"/>
<path d="M36.2677 30.7763L43.9531 36.7178L44.2011 36.5943L37.2801 30.2718L36.2677 30.7763Z" fill="#FEFCBD" fill-opacity="0.3"/>
<path d="M34.085 33.4391L39.8821 37.9291L40.1301 37.8056L34.2367 32.3053L34.085 33.4391Z" fill="#FEFCBD" fill-opacity="0.3"/>
<path d="M37.3483 30.0422L44.6973 36.399L45.9118 35.2399L38.2971 29.5693L37.3483 30.0422Z" fill="#FEFCBD" fill-opacity="0.3"/>
<path d="M18.3695 33.1018L18.4641 32.0283C18.4641 32.0283 18.7322 30.0121 20.1045 29.4131L15.8211 29.2585H10.8355L16.3254 32.0283L18.3695 33.1018Z" fill="#FDC800"/>
<path d="M32.1765 32.3946C32.9626 32.3946 33.7067 32.5874 33.9805 32.6838L33.8551 31.9445C33.5208 31.8354 32.717 31.6172 32.1765 31.6172C31.501 31.6172 30.0885 31.8218 30.3137 31.9445C30.4939 32.0427 30.3888 32.5582 30.3137 32.8037C30.6071 32.6673 31.3905 32.3946 32.1765 32.3946Z" fill="#FBDD02"/>
<path d="M32.202 30.4596C33.4711 30.4596 34.2523 29.9476 34.6943 30.1033L34.9121 29.7329C34.3723 29.5568 33.0745 29.2045 32.202 29.2045C31.1113 29.2045 28.8308 29.5348 29.1944 29.7329C29.4852 29.8915 29.7184 29.9115 29.5972 30.3079C30.0709 30.0877 30.9328 30.4596 32.202 30.4596Z" fill="#FBDD02"/>
<path d="M15.5855 23.212C15.8736 22.3314 16.0508 21.9443 16.0508 21.9443C11.0399 22.6173 6.03249 25.8172 6.03249 25.8172V28.5418C7.98043 25.8685 15.5855 23.212 15.5855 23.212Z" fill="url(#paint36_linear_1155_117935)"/>
<path d="M14.9995 26.7539L14.9995 25.6036C9.98866 26.2766 6.07166 29.1941 6.07166 29.1941C6.07166 29.1941 6.30404 31.037 6.30404 31.7803C8.25198 29.107 14.9995 26.7539 14.9995 26.7539Z" fill="url(#paint37_linear_1155_117935)"/>
<path d="M32.6867 71.0431L31.8432 62.7207C31.8285 62.5764 31.7552 62.4445 31.6404 62.3558L30.1918 61.2369C30.0992 61.1654 29.9855 61.1266 29.8685 61.1266L27.8345 61.1266C27.7317 61.1266 27.631 61.1566 27.5449 61.2129L25.558 62.5125C25.42 62.6027 25.332 62.7521 25.3201 62.9165L24.7293 71.0758C24.7028 71.4416 25.048 71.7225 25.401 71.6224L28.6732 70.6947C28.7698 70.6673 28.8723 70.668 28.9686 70.6967L32.0095 71.6028C32.3702 71.7103 32.7246 71.4173 32.6867 71.0431Z" fill="#EB9E0A"/>
<path fill-rule="evenodd" clip-rule="evenodd" d="M29.8684 60.7743L27.8345 60.7743C27.663 60.7743 27.4953 60.8243 27.3518 60.9181L25.3649 62.2177C25.1349 62.3681 24.9883 62.6171 24.9685 62.8911L24.3776 71.0504C24.3334 71.66 24.9088 72.1281 25.4971 71.9613L28.7693 71.0336C28.8015 71.0245 28.8357 71.0247 28.8678 71.0343L31.9087 71.9404C32.5099 72.1195 33.1006 71.6313 33.0373 71.0076L32.1938 62.6852C32.1695 62.4447 32.0473 62.2248 31.8559 62.077L30.4073 60.9582L30.1918 61.237L30.4073 60.9582C30.253 60.839 30.0635 60.7743 29.8684 60.7743ZM27.8345 61.4789L29.8684 61.4789C29.9074 61.4789 29.9453 61.4919 29.9762 61.5157L31.4248 62.6346C31.463 62.6641 31.4875 62.7081 31.4924 62.7562L32.3359 71.0786C32.3485 71.2033 32.2304 71.301 32.1101 71.2651L29.0693 70.3591C28.9088 70.3112 28.738 70.3101 28.5769 70.3558L25.3047 71.2834C25.187 71.3168 25.072 71.2232 25.0808 71.1013L25.6717 62.942C25.6756 62.8872 25.705 62.8374 25.751 62.8073L27.7379 61.5077C27.7666 61.4889 27.8002 61.4789 27.8345 61.4789Z" fill="#FFCD4E"/>
<path d="M45.592 74.1246C44.9797 76.1418 45.4651 78.0748 46.6762 78.4419C47.8873 78.8091 49.3654 77.4714 49.9777 75.4542C50.5901 73.4369 50.1047 71.504 48.8936 71.1369C47.6825 70.7697 46.2043 72.1074 45.592 74.1246Z" fill="#BE1144"/>
<path d="M13.4309 72.5068C14.0432 74.5241 13.5578 76.457 12.3468 76.8242C11.1357 77.1913 9.65752 75.8537 9.04521 73.8364C8.4329 71.8191 8.9183 69.8862 10.1294 69.519C11.3405 69.1519 12.8186 70.4896 13.4309 72.5068Z" fill="#BE1144"/>
<path d="M45.5921 74.1242C45.1122 75.7052 45.4927 77.2201 46.4419 77.5079C47.3911 77.7956 48.5496 76.7472 49.0295 75.1662C49.5094 73.5852 49.129 72.0703 48.1798 71.7826C47.2306 71.4948 46.072 72.5432 45.5921 74.1242Z" fill="#6C0524"/>
<path d="M13.4308 72.5073C13.9107 74.0883 13.5303 75.6033 12.5811 75.891C11.6319 76.1788 10.4734 75.1304 9.99345 73.5493C9.51355 71.9683 9.89399 70.4534 10.8432 70.1656C11.7924 69.8779 12.9509 70.9263 13.4308 72.5073Z" fill="#6C0524"/>
<path d="M45.1393 67.9471L40.7507 58.2824L36.6064 63.6022L38.2527 68.5654L41.8714 72.254L45.1393 67.9471Z" fill="#88CF42"/>
<path d="M39.0393 71.3683L41.8711 72.2541C41.184 71.5969 38.0748 66.2124 36.6062 63.6023L34.2495 63.2278C34.031 64.8869 37.3517 69.3461 39.0393 71.3683Z" fill="#56B729"/>
<path d="M40.7506 58.2822L36.6064 63.602L34.2497 63.2275L38.4487 57.7607L40.7506 58.2822Z" fill="#25951C"/>
<path opacity="0.3" d="M39.673 58.0495C36.0592 65.0727 41.7254 72.2003 41.8716 72.2546L43.2207 66.3973C43.2427 61.2737 43.4546 58.6192 39.673 58.0495Z" fill="#1A7109"/>
<path d="M41.2259 58.7936C39.5167 60.1661 39.3219 63.1617 39.4382 64.4879L41.6121 64.4596C42.1955 61.9991 42.9351 57.4212 41.2259 58.7936Z" fill="#25951C"/>
<path d="M41.0809 61.4179C37.7063 64.0452 40.2018 69.737 41.8713 72.2545L45.9062 67.2287C43.8582 62.7185 44.8369 59.0774 45.6643 57.6002C44.495 57.1653 39.1075 58.1686 41.0809 61.4179Z" fill="#82DC34"/>
<path fill-rule="evenodd" clip-rule="evenodd" d="M45.4882 67.1659L45.407 66.9779C44.2211 64.2349 44.0873 62.1026 44.2406 60.6688C44.3173 59.9507 44.4665 59.4047 44.5942 59.042C44.658 58.8606 44.7166 58.7249 44.758 58.6365C44.7788 58.5923 44.7953 58.5599 44.806 58.5395C44.8114 58.5294 44.8153 58.5222 44.8176 58.518L44.8195 58.5146L44.8197 58.5142L44.82 58.5137L45.1369 57.97L44.5139 58.0459L44.5503 58.3571C44.5139 58.0459 44.5139 58.0459 44.5139 58.0459L44.5126 58.0461L44.5105 58.0464L44.5041 58.0472C44.4989 58.0479 44.4917 58.0489 44.4827 58.0502C44.4646 58.0529 44.4391 58.0569 44.4067 58.0627C44.3419 58.0741 44.2494 58.0923 44.1338 58.12C43.9029 58.1754 43.579 58.269 43.1993 58.4229C42.44 58.7306 41.5607 59.1329 40.6499 60.103C40.6499 60.103 40.6491 60.4266 40.7188 60.6619C40.7885 60.8971 40.9126 61.1119 40.9126 61.1119C41.7485 60.2215 42.7366 59.2854 43.4309 59.0041C43.6514 58.9147 43.8503 58.848 44.0187 58.7986C44.0143 58.8106 44.01 58.8228 44.0057 58.8352C43.8631 59.24 43.7022 59.8338 43.6198 60.6044C43.4585 62.1138 43.5996 64.29 44.7539 67.0413C44.2044 67.6426 43.4766 68.4781 42.8696 69.1828C42.5393 69.5662 42.2439 69.912 42.0311 70.1618C42.0164 70.1791 42.0021 70.1959 41.9881 70.2123C41.9416 70.119 41.889 70.0109 41.8321 69.8898C41.6167 69.432 41.3401 68.7898 41.0945 68.0524C40.5982 66.5617 40.3545 63.0992 40.8242 61.6287C40.8242 61.6287 40.5872 61.8669 40.5168 61.9374C40.4463 62.008 40.2499 62.2727 40.2499 62.2727C39.7164 63.9433 39.9972 66.7358 40.5024 68.2533C40.7576 69.0199 41.0444 69.6855 41.2674 70.1594C41.3789 70.3966 41.4747 70.5863 41.543 70.7173C41.5771 70.7829 41.6044 70.8337 41.6233 70.8686C41.6328 70.886 41.6401 70.8994 41.6452 70.9086L41.6512 70.9192L41.6528 70.9222L41.6534 70.9233C41.6534 70.9233 41.6535 70.9235 41.9254 70.7683L42.163 70.9706L42.2543 70.8629C42.3132 70.7934 42.3988 70.6927 42.5049 70.5681C42.7171 70.3189 43.0117 69.9741 43.341 69.5918C44.0007 68.826 44.7961 67.9137 45.3488 67.3165L45.4882 67.1659ZM41.9254 70.7683L42.163 70.9706L41.8732 71.3133L41.6534 70.9233L41.9254 70.7683Z" fill="#D4FD5F"/>
<path d="M38.5886 69.5588L39.4224 70.3397L37.7547 68.0966L36.9207 66.6345L37.6001 68.1189L38.5886 69.5588Z" fill="#25951C"/>
<path d="M43.0181 62.4731C42.1302 62.1428 41.0427 62.8623 40.5893 64.0799C40.1359 65.2976 40.4881 66.5525 41.3761 66.8827C42.264 67.213 43.3515 66.4936 43.8049 65.2759C44.2584 64.0582 43.9061 62.8033 43.0181 62.4731Z" fill="#D4FD5F"/>
<path d="M46.1795 66.4223C45.4953 67.7452 46.3407 70.6443 46.8489 71.9284L47.9478 73.6094L47.2926 74.5833L44.4866 75.317C44.2765 75.372 44.0616 75.4064 43.8448 75.4197L42.205 75.5207C41.6174 75.5569 41.0306 75.4376 40.5038 75.1749L38.158 74.0051C37.4746 73.6643 36.119 72.4437 35.8004 71.75L35.5646 70.9574L36.6096 70.1433L35.8004 68.5795L36.1181 68.1387L36.6703 67.7464C38.8117 68.6424 43.0405 69.1125 43.0405 69.1125C43.3143 67.2396 45.1353 65.9349 46.1795 66.4223Z" fill="#FBC3A4"/>
<path opacity="0.34" d="M44.9612 68.1916C44.7366 67.3728 45.6715 66.6729 46.167 66.4253C45.797 66.9667 45.8807 68.0155 45.9688 68.4723C45.7265 68.7199 45.1858 69.0104 44.9612 68.1916Z" fill="#F3E8FF"/>
<path d="M12.8436 64.8045C13.5277 66.1274 12.6824 69.0265 12.1742 70.3106L11.0753 71.9916L11.7305 72.9655L14.8523 73.7818L16.7268 73.5632L19.2471 72.4287L21.9211 71.8607L21.9211 70.9209L18.7334 70.9209L18.6386 69.9218L18.2396 68.9921L22.7282 67.1978L22.3527 66.1286C20.2113 67.0246 15.9825 67.4947 15.9825 67.4947C15.7088 65.6218 13.8878 64.3171 12.8436 64.8045Z" fill="#FBC3A4"/>
<path d="M13.7557 67.4343C14.3068 66.5104 13.363 65.3006 12.8346 64.812C13.2672 65.4042 13.0842 66.9803 12.9262 67.6934C12.9731 67.992 13.7557 67.4343 13.7557 67.4343Z" fill="#FCD6C1"/>
<path d="M48.1085 76.8687L46.7335 74.7375L47.9261 73.5316H49.2028C49.4385 75.0123 48.5715 76.3733 48.1085 76.8687Z" fill="#F3BC9E"/>
<path d="M10.9145 75.251L12.2894 73.1198L11.0969 71.9139H9.82013C9.58443 73.3946 10.4515 74.7556 10.9145 75.251Z" fill="#FFA777"/>
<path d="M21.2264 27.1913L19.7847 29.0329L17.6148 28.1585L19.4576 29.5993L18.5825 31.7678L20.0242 29.9262L22.1942 30.8007L20.3514 29.3599L21.2264 27.1913Z" fill="white" fill-opacity="0.84"/>
<path opacity="0.2" d="M18.7989 28.8416C18.4463 29.4519 18.6555 30.2322 19.2662 30.5845C19.8768 30.9368 20.6576 30.7277 21.0101 30.1175C21.3626 29.5073 21.1534 28.727 20.5428 28.3746C19.9322 28.0223 19.1514 28.2314 18.7989 28.8416Z" fill="white"/>
<path d="M38.8461 45.1727L37.4044 47.0143L35.2344 46.1398L37.0772 47.5806L36.2022 49.7491L37.6439 47.9075L39.8138 48.782L37.971 47.3412L38.8461 45.1727Z" fill="white" fill-opacity="0.84"/>
<path opacity="0.2" d="M36.4185 46.8228C36.0659 47.4331 36.2752 48.2134 36.8858 48.5657C37.4964 48.918 38.2772 48.7089 38.6297 48.0987C38.9823 47.4885 38.7731 46.7082 38.1624 46.3559C37.5518 46.0035 36.771 46.2126 36.4185 46.8228Z" fill="white"/>
<g opacity="0.8">
<path d="M45.7035 34.898L44.2618 36.7396L42.0919 35.8651L43.9346 37.3059L43.0596 39.4745L44.5013 37.6329L46.6712 38.5073L44.8285 37.0666L45.7035 34.898Z" fill="white" fill-opacity="0.84"/>
<path opacity="0.2" d="M43.2759 36.5481C42.9234 37.1583 43.1326 37.9386 43.7432 38.2909C44.3538 38.6432 45.1346 38.4341 45.4872 37.8239C45.8397 37.2137 45.6305 36.4334 45.0199 36.0811C44.4093 35.7288 43.6285 35.9378 43.2759 36.5481Z" fill="white"/>
</g>
<path d="M28.053 69.5809C28.0205 69.5809 27.9942 69.5547 27.9942 69.5222V68.8948C27.9942 68.8624 27.9679 68.8361 27.9354 68.8361H26.4575C26.4205 68.8361 26.3927 68.8023 26.3999 68.7661L26.5769 67.8678C26.5823 67.8403 26.6064 67.8204 26.6345 67.8204H29.2174C29.2298 67.8204 29.242 67.8165 29.252 67.8092L29.5399 67.5994C29.5578 67.5863 29.5669 67.5642 29.5632 67.5423L29.4812 67.0471C29.4792 67.0348 29.4733 67.0235 29.4644 67.0148L29.2537 66.808C29.2427 66.7973 29.2279 66.7912 29.2125 66.7912H27.1763C27.1608 66.7912 27.146 66.7851 27.135 66.7742L26.4008 66.0474C26.3912 66.038 26.3852 66.0256 26.3837 66.0123L26.2133 64.492C26.2108 64.4698 26.221 64.4482 26.2397 64.4361L27.1376 63.8552C27.1471 63.8491 27.1582 63.8458 27.1695 63.8458H27.9273C27.9628 63.8458 27.9902 63.8146 27.9856 63.7795L27.9062 63.1672C27.9016 63.1321 27.929 63.101 27.9644 63.101H29.1916C29.224 63.101 29.2503 63.1272 29.2503 63.1597V63.7871C29.2503 63.8195 29.2767 63.8458 29.3091 63.8458H30.4031C30.4415 63.8458 30.4696 63.882 30.46 63.9191L30.2289 64.8174C30.2222 64.8433 30.1988 64.8615 30.172 64.8615H27.9216C27.9062 64.8615 27.8914 64.8675 27.8804 64.8783L27.6736 65.0812C27.6623 65.0922 27.656 65.1073 27.656 65.1231V65.5139C27.656 65.5297 27.6623 65.5448 27.6736 65.5558L27.8804 65.7587C27.8914 65.7695 27.9062 65.7756 27.9216 65.7756H29.9579C29.9733 65.7756 29.9881 65.7816 29.9991 65.7924L30.7331 66.5124C30.7428 66.522 30.7489 66.5345 30.7503 66.548L30.9212 68.1329C30.9235 68.154 30.9141 68.1748 30.8968 68.1871L29.9972 68.8253C29.9873 68.8323 29.9754 68.8361 29.9632 68.8361H29.3213C29.2845 68.8361 29.2567 68.8696 29.2636 68.9058L29.379 69.5112C29.3859 69.5474 29.3582 69.5809 29.3213 69.5809H28.053Z" fill="#FFB800"/>
<path fill-rule="evenodd" clip-rule="evenodd" d="M27.7003 69.1296V69.5221C27.7003 69.7167 27.8581 69.8744 28.0528 69.8744H29.3211C29.5423 69.8744 29.7088 69.6733 29.6674 69.4562L29.6052 69.1296H29.9631C30.0362 69.1296 30.1075 69.1069 30.1671 69.0646L31.0667 68.4264C31.1708 68.3525 31.2268 68.2282 31.2131 68.1014L31.0422 66.5165C31.0335 66.4355 30.9969 66.36 30.9387 66.3029L30.2047 65.5828C30.1388 65.5182 30.0501 65.4819 29.9578 65.4819H28.0175L27.9496 65.4153V65.2216L28.0175 65.155H30.1718C30.3327 65.155 30.4732 65.0462 30.5133 64.8905L30.7444 63.9922C30.8017 63.7693 30.6333 63.5522 30.403 63.5522H29.544V63.1597C29.544 62.9651 29.3861 62.8074 29.1914 62.8074H27.9643C27.7516 62.8074 27.5873 62.9942 27.6147 63.205L27.6597 63.5522H27.1694C27.1014 63.5522 27.0348 63.5718 26.9778 63.6088L26.0799 64.1897C25.9677 64.2622 25.9063 64.3919 25.9211 64.5246L26.0916 66.0449C26.1006 66.1249 26.1367 66.1994 26.1939 66.256L26.9281 66.9828C26.9941 67.0481 27.0833 67.0848 27.1762 67.0848H29.1163L29.2038 67.1706L29.2496 67.4474L29.1406 67.5268H26.6344C26.4659 67.5268 26.321 67.6459 26.2885 67.811L26.1115 68.7092C26.0685 68.927 26.2353 69.1296 26.4573 69.1296H27.7003ZM27.994 69.5221C27.994 69.5546 28.0203 69.5808 28.0528 69.5808H29.3211C29.358 69.5808 29.3858 69.5473 29.3789 69.5111L29.2635 68.9057C29.2566 68.8696 29.2843 68.836 29.3212 68.836H29.9631C29.9752 68.836 29.9871 68.8322 29.9971 68.8252L30.8966 68.187C30.914 68.1747 30.9233 68.154 30.921 68.1328L30.7502 66.548C30.7487 66.5345 30.7426 66.5219 30.7329 66.5124L29.9989 65.7923C29.9879 65.7816 29.9732 65.7755 29.9578 65.7755H27.9214C27.906 65.7755 27.8913 65.7695 27.8803 65.7587L27.6734 65.5558C27.6622 65.5448 27.6558 65.5297 27.6558 65.5139V65.1231C27.6558 65.1073 27.6622 65.0922 27.6734 65.0812L27.8803 64.8782C27.8913 64.8675 27.906 64.8614 27.9214 64.8614H30.1718C30.1986 64.8614 30.2221 64.8433 30.2287 64.8173L30.4599 63.9191C30.4694 63.882 30.4413 63.8458 30.403 63.8458H29.3089C29.2765 63.8458 29.2502 63.8195 29.2502 63.7871V63.1597C29.2502 63.1272 29.2239 63.101 29.1914 63.101H27.9643C27.9288 63.101 27.9014 63.1321 27.906 63.1672L27.9854 63.7795C27.99 63.8146 27.9626 63.8458 27.9272 63.8458H27.1694C27.158 63.8458 27.1469 63.849 27.1374 63.8552L26.2396 64.4361C26.2209 64.4482 26.2106 64.4698 26.2131 64.4919L26.3836 66.0122C26.3851 66.0256 26.3911 66.038 26.4006 66.0474L27.1348 66.7742C27.1458 66.7851 27.1607 66.7912 27.1762 66.7912H29.2124C29.2278 66.7912 29.2425 66.7972 29.2535 66.808L29.4643 67.0147C29.4732 67.0235 29.479 67.0348 29.4811 67.0471L29.5631 67.5423C29.5667 67.5642 29.5577 67.5862 29.5397 67.5993L29.2519 67.8091C29.2418 67.8164 29.2297 67.8204 29.2172 67.8204H26.6344C26.6063 67.8204 26.5821 67.8402 26.5767 67.8677L26.3997 68.766C26.3925 68.8023 26.4203 68.836 26.4573 68.836H27.9353C27.9677 68.836 27.994 68.8623 27.994 68.8947V69.5221Z" fill="#B85B06" fill-opacity="0.34"/>
<path d="M28.2646 63.2712C28.4796 63.2437 28.8069 63.1985 29.0327 63.158C29.0937 63.1471 29.0874 63.101 29.0254 63.101H27.929C27.8927 63.101 27.865 63.1335 27.871 63.1693L27.9661 63.7395C27.9721 63.7753 27.9445 63.8079 27.9082 63.8079H27.1705C27.1586 63.8079 27.147 63.8115 27.1372 63.8182L26.5752 64.2044C26.5186 64.2433 26.5633 64.331 26.628 64.3081L27.2066 64.1041C27.2097 64.103 27.2128 64.1022 27.216 64.1016L28.1647 63.9343C28.1928 63.9293 28.2133 63.9049 28.2133 63.8764V63.3295C28.2133 63.2999 28.2352 63.275 28.2646 63.2712Z" fill="#FFDF8B"/>
<path d="M27.9627 66.0252C27.9253 65.973 27.8763 65.9053 27.827 65.8381C27.7985 65.7992 27.8678 65.7212 27.9092 65.746C27.9156 65.7498 27.9228 65.7518 27.9302 65.7518H29.9577C29.9733 65.7518 29.9882 65.758 29.9992 65.769L30.5611 66.3305C30.6055 66.3749 30.5585 66.4487 30.4994 66.4272L30.1065 66.2844C30.1021 66.2828 30.0976 66.2818 30.0929 66.2813L28.0039 66.0493C27.9873 66.0474 27.9724 66.0387 27.9627 66.0252Z" fill="#FFDF8B"/>
<path d="M28.3717 63.2872L29.8134 65.1288L31.9833 64.2543L30.1406 65.6951L31.0156 67.8636L29.5739 66.022L27.404 66.8965L29.2467 65.4557L28.3717 63.2872Z" fill="white" fill-opacity="0.84"/>
<path opacity="0.2" d="M30.7993 64.9373C31.1518 65.5476 30.9426 66.3278 30.332 66.6802C29.7214 67.0325 28.9406 66.8234 28.588 66.2132C28.2355 65.603 28.4447 64.8227 29.0553 64.4704C29.666 64.1181 30.4467 64.3271 30.7993 64.9373Z" fill="white"/>
<path d="M30.6722 -4.32709L29.2305 -2.4855L27.0606 -3.35997L28.9034 -1.91919L28.0283 0.249361L29.47 -1.59223L31.64 -0.717756L29.7972 -2.15854L30.6722 -4.32709Z" fill="white" fill-opacity="0.84"/>
<path d="M19.0559 67.8101C18.9913 67.5649 19.0828 67.2024 19.1367 67.0518V66.9774L18.3374 67.1652C18.3186 67.328 18.2923 67.7173 18.3374 67.9727C18.3825 68.2281 18.6193 68.6299 18.732 68.799L19.4272 68.5039C19.3304 68.3748 19.1205 68.0554 19.0559 67.8101Z" fill="#EB9E0A"/>
<path d="M19.5544 71.5705C19.5309 71.318 19.6805 70.9754 19.7583 70.8357L19.7705 70.7623L18.9512 70.8168C18.9061 70.9743 18.8163 71.354 18.819 71.6134C18.8216 71.8727 18.9894 72.3078 19.0729 72.493L19.8071 72.3157C19.7327 72.1725 19.578 71.823 19.5544 71.5705Z" fill="#EB9E0A"/>
<path opacity="0.32" d="M21.6021 67.2944C21.9211 67.2366 22.5772 67.1181 22.6495 67.1061H22.6797L22.4084 66.2852L21.3157 66.7822L21.6021 67.2944Z" fill="white"/>
<path opacity="0.32" d="M21.0806 71.6428C21.3292 71.6822 21.8406 71.7635 21.8967 71.7731L21.9188 71.7809L21.9305 71.1096L21.002 71.194L21.0806 71.6428Z" fill="white"/>
<path opacity="0.5" d="M41.7714 84.176C45.1049 86.8718 49.1915 84.4787 50.818 82.9451C52.5639 82.8259 51.8504 87.2275 47.8035 88.973C43.7565 90.7184 40.7006 87.3088 39.9268 86.5753C39.1529 85.8419 37.6046 80.8061 41.7714 84.176Z" fill="#BE1144"/>
<path d="M30.7595 86.4883L31.043 84.4179C29.0191 84.6445 27.0592 84.3234 26.3322 84.1345L26.1796 86.4883C26.3904 86.5319 27.1392 86.6278 28.4477 86.6627C29.7562 86.6975 30.5341 86.561 30.7595 86.4883Z" fill="#FFCD4E"/>
<path d="M30.3372 86.3831L30.5649 84.7196C28.9389 84.9017 27.3643 84.6437 26.7802 84.4919L26.6576 86.3831C26.827 86.4181 27.4285 86.4952 28.4798 86.5232C29.5312 86.5512 30.1561 86.4415 30.3372 86.3831Z" fill="#EB9E0A"/>
<path opacity="0.4" d="M29.6673 86.5874C29.8522 86.5273 30.2326 86.4071 30.2754 86.4071L28.8388 84.5642H28.4713L29.6673 86.5874Z" fill="#FFCD4E"/>
<path opacity="0.4" d="M29.0591 86.6257C29.244 86.5656 29.3264 86.6257 29.3691 86.6257L27.8431 84.6025H27.6828L29.0591 86.6257Z" fill="#FFCD4E"/>
<path d="M19.3658 67.2039L18.6159 68.1617L17.4873 67.7069L18.4458 68.4562L17.9906 69.5841L18.7405 68.6263L19.8691 69.0811L18.9106 68.3317L19.3658 67.2039Z" fill="white" fill-opacity="0.84"/>
<path opacity="0.2" d="M18.1033 68.0623C17.92 68.3797 18.0288 68.7856 18.3464 68.9689C18.664 69.1521 19.0701 69.0434 19.2534 68.726C19.4368 68.4086 19.328 68.0027 19.0104 67.8194C18.6928 67.6362 18.2867 67.7449 18.1033 68.0623Z" fill="white"/>
<path d="M20.6699 57.9114L19.9201 58.8692L18.7915 58.4144L19.7499 59.1638L19.2948 60.2916L20.0447 59.3338L21.1733 59.7886L20.2148 59.0393L20.6699 57.9114Z" fill="white" fill-opacity="0.84"/>
<path opacity="0.2" d="M19.4076 58.7697C19.2242 59.0871 19.333 59.493 19.6506 59.6762C19.9682 59.8594 20.3743 59.7507 20.5576 59.4333C20.741 59.1159 20.6322 58.7101 20.3146 58.5269C19.997 58.3436 19.5909 58.4524 19.4076 58.7697Z" fill="white"/>
<path opacity="0.1" d="M4.66082 68.8838C6.22435 70.1016 7.29803 67.7666 9.70478 64.6805C12.1115 61.5945 14.94 58.926 13.3764 57.7082C11.8129 56.4904 8.59435 58.0049 6.1876 61.091C3.78085 64.177 3.09729 67.666 4.66082 68.8838Z" fill="white"/>
<path opacity="0.1" d="M52.8182 71.408C51.5369 72.4059 50.6571 70.4925 48.6849 67.9636C46.7128 65.4348 44.395 63.2482 45.6762 62.2503C46.9575 61.2523 49.5949 62.4934 51.5671 65.0222C53.5392 67.5511 54.0994 70.4101 52.8182 71.408Z" fill="white"/>
</g>
<defs>
<linearGradient id="paint0_linear_1155_117935" x1="29.1325" y1="83.9185" x2="29.1325" y2="61.7433" gradientUnits="userSpaceOnUse">
<stop stop-color="#F50D44"/>
<stop offset="0.99" stop-color="#FB4F54"/>
</linearGradient>
<linearGradient id="paint1_linear_1155_117935" x1="27.9082" y1="64.7363" x2="27.9082" y2="61.7434" gradientUnits="userSpaceOnUse">
<stop offset="0.01" stop-color="#C16688"/>
<stop offset="1" stop-color="#7E70F1"/>
</linearGradient>
<linearGradient id="paint2_linear_1155_117935" x1="1448.52" y1="3106.41" x2="1448.52" y2="2154.93" gradientUnits="userSpaceOnUse">
<stop offset="0.01" stop-color="#B45C7D"/>
<stop offset="1" stop-color="#8A7EEA"/>
</linearGradient>
<linearGradient id="paint3_linear_1155_117935" x1="14.2853" y1="84.6325" x2="14.2853" y2="52.4942" gradientUnits="userSpaceOnUse">
<stop stop-color="#F50D44"/>
<stop offset="0.99" stop-color="#FB4F54"/>
</linearGradient>
<linearGradient id="paint4_linear_1155_117935" x1="40.103" y1="85.2886" x2="40.103" y2="51.1596" gradientUnits="userSpaceOnUse">
<stop stop-color="#F50D44"/>
<stop offset="0.99" stop-color="#FB4F54"/>
</linearGradient>
<linearGradient id="paint5_linear_1155_117935" x1="21.006" y1="57.642" x2="21.9168" y2="58.0339" gradientUnits="userSpaceOnUse">
<stop stop-color="#FFD770"/>
<stop offset="1" stop-color="#FDBC12"/>
</linearGradient>
<linearGradient id="paint6_linear_1155_117935" x1="21.2953" y1="56.4479" x2="22.2163" y2="56.0805" gradientUnits="userSpaceOnUse">
<stop stop-color="#FFD770"/>
<stop offset="1" stop-color="#FDBC12"/>
</linearGradient>
<linearGradient id="paint7_linear_1155_117935" x1="18.0965" y1="57.7218" x2="19.0176" y2="57.3544" gradientUnits="userSpaceOnUse">
<stop stop-color="#FFD770"/>
<stop offset="1" stop-color="#FDBC12"/>
</linearGradient>
<linearGradient id="paint8_linear_1155_117935" x1="20.0615" y1="58.018" x2="19.6702" y2="58.9286" gradientUnits="userSpaceOnUse">
<stop stop-color="#FFD770"/>
<stop offset="1" stop-color="#FDBC12"/>
</linearGradient>
<linearGradient id="paint9_linear_1155_117935" x1="18.381" y1="55.6136" x2="19.2949" y2="55.9983" gradientUnits="userSpaceOnUse">
<stop stop-color="#FFD770"/>
<stop offset="1" stop-color="#FDBC12"/>
</linearGradient>
<linearGradient id="paint10_linear_1155_117935" x1="25.0245" y1="62.2452" x2="26.0023" y2="62.08" gradientUnits="userSpaceOnUse">
<stop stop-color="#FFD770"/>
<stop offset="1" stop-color="#FDBC12"/>
</linearGradient>
<linearGradient id="paint11_linear_1155_117935" x1="24.6194" y1="61.0843" x2="25.1935" y2="60.2763" gradientUnits="userSpaceOnUse">
<stop stop-color="#FFD770"/>
<stop offset="1" stop-color="#FDBC12"/>
</linearGradient>
<linearGradient id="paint12_linear_1155_117935" x1="24.4351" y1="63.0727" x2="24.6" y2="64.0499" gradientUnits="userSpaceOnUse">
<stop stop-color="#FFD770"/>
<stop offset="1" stop-color="#FDBC12"/>
</linearGradient>
<linearGradient id="paint13_linear_1155_117935" x1="22.7525" y1="60.4567" x2="23.7332" y2="60.6037" gradientUnits="userSpaceOnUse">
<stop stop-color="#FFD770"/>
<stop offset="1" stop-color="#FDBC12"/>
</linearGradient>
<linearGradient id="paint14_linear_1155_117935" x1="22.7278" y1="59.2284" x2="23.5248" y2="58.6387" gradientUnits="userSpaceOnUse">
<stop stop-color="#FFD770"/>
<stop offset="1" stop-color="#FDBC12"/>
</linearGradient>
<linearGradient id="paint15_linear_1155_117935" x1="19.9588" y1="61.2742" x2="20.7558" y2="60.6845" gradientUnits="userSpaceOnUse">
<stop stop-color="#FFD770"/>
<stop offset="1" stop-color="#FDBC12"/>
</linearGradient>
<linearGradient id="paint16_linear_1155_117935" x1="21.9347" y1="61.0612" x2="21.788" y2="62.0413" gradientUnits="userSpaceOnUse">
<stop stop-color="#FFD770"/>
<stop offset="1" stop-color="#FDBC12"/>
</linearGradient>
<linearGradient id="paint17_linear_1155_117935" x1="34.5257" y1="57.1452" x2="33.6602" y2="57.629" gradientUnits="userSpaceOnUse">
<stop stop-color="#FFD770"/>
<stop offset="1" stop-color="#FDBC12"/>
</linearGradient>
<linearGradient id="paint18_linear_1155_117935" x1="30.8778" y1="62.2448" x2="29.9001" y2="62.0796" gradientUnits="userSpaceOnUse">
<stop stop-color="#FFD770"/>
<stop offset="1" stop-color="#FDBC12"/>
</linearGradient>
<linearGradient id="paint19_linear_1155_117935" x1="31.2825" y1="61.0848" x2="30.7083" y2="60.2768" gradientUnits="userSpaceOnUse">
<stop stop-color="#FFD770"/>
<stop offset="1" stop-color="#FDBC12"/>
</linearGradient>
<linearGradient id="paint20_linear_1155_117935" x1="31.4668" y1="63.0731" x2="31.3019" y2="64.0503" gradientUnits="userSpaceOnUse">
<stop stop-color="#FFD770"/>
<stop offset="1" stop-color="#FDBC12"/>
</linearGradient>
<linearGradient id="paint21_linear_1155_117935" x1="33.1114" y1="60.982" x2="32.2598" y2="61.4898" gradientUnits="userSpaceOnUse">
<stop stop-color="#FFD770"/>
<stop offset="1" stop-color="#FDBC12"/>
</linearGradient>
<linearGradient id="paint22_linear_1155_117935" x1="32.6681" y1="59.8357" x2="31.7069" y2="59.5922" gradientUnits="userSpaceOnUse">
<stop stop-color="#FFD770"/>
<stop offset="1" stop-color="#FDBC12"/>
</linearGradient>
<linearGradient id="paint23_linear_1155_117935" x1="31.4593" y1="60.9593" x2="30.8851" y2="60.1513" gradientUnits="userSpaceOnUse">
<stop stop-color="#FFD770"/>
<stop offset="1" stop-color="#FDBC12"/>
</linearGradient>
<linearGradient id="paint24_linear_1155_117935" x1="36.0065" y1="60.6807" x2="35.0453" y2="60.4371" gradientUnits="userSpaceOnUse">
<stop stop-color="#FFD770"/>
<stop offset="1" stop-color="#FDBC12"/>
</linearGradient>
<linearGradient id="paint25_linear_1155_117935" x1="34.0966" y1="61.2312" x2="34.6038" y2="62.0828" gradientUnits="userSpaceOnUse">
<stop stop-color="#FFD770"/>
<stop offset="1" stop-color="#FDBC12"/>
</linearGradient>
<linearGradient id="paint26_linear_1155_117935" x1="28.6075" y1="16.5361" x2="28.6075" y2="57.5864" gradientUnits="userSpaceOnUse">
<stop stop-color="#FFBC98"/>
<stop offset="1" stop-color="#FAC4A6"/>
</linearGradient>
<linearGradient id="paint27_linear_1155_117935" x1="26.6251" y1="49.378" x2="26.6251" y2="7.88066" gradientUnits="userSpaceOnUse">
<stop offset="0.01" stop-color="#3D2B2B"/>
<stop offset="0.99" stop-color="#392419"/>
</linearGradient>
<linearGradient id="paint28_linear_1155_117935" x1="1744.69" y1="889.722" x2="1744.69" y2="570.645" gradientUnits="userSpaceOnUse">
<stop offset="0.01" stop-color="#3B2720"/>
<stop offset="0.99" stop-color="#4A3020"/>
</linearGradient>
<linearGradient id="paint29_linear_1155_117935" x1="1418.49" y1="716.235" x2="1418.49" y2="459.07" gradientUnits="userSpaceOnUse">
<stop offset="0.01" stop-color="#3B2720"/>
<stop offset="0.99" stop-color="#4A3020"/>
</linearGradient>
<linearGradient id="paint30_linear_1155_117935" x1="1450.49" y1="575.927" x2="1450.49" y2="492.419" gradientUnits="userSpaceOnUse">
<stop offset="0.01" stop-color="#3B2821"/>
<stop offset="0.99" stop-color="#6C5045"/>
</linearGradient>
<linearGradient id="paint31_linear_1155_117935" x1="26.9677" y1="28.0693" x2="26.9677" y2="10.2648" gradientUnits="userSpaceOnUse">
<stop offset="0.01" stop-color="#3D2B2B"/>
<stop offset="0.99" stop-color="#392419"/>
</linearGradient>
<linearGradient id="paint32_linear_1155_117935" x1="26.8541" y1="8.61499" x2="39.2998" y2="26.9138" gradientUnits="userSpaceOnUse">
<stop stop-color="#4B3021"/>
<stop offset="1" stop-color="#241610"/>
</linearGradient>
<linearGradient id="paint33_linear_1155_117935" x1="32.1158" y1="35.4496" x2="32.1158" y2="41.0948" gradientUnits="userSpaceOnUse">
<stop stop-color="#F5B694"/>
<stop offset="1" stop-color="#FF7762"/>
</linearGradient>
<linearGradient id="paint34_linear_1155_117935" x1="23.1187" y1="29.3617" x2="23.1187" y2="38.5744" gradientUnits="userSpaceOnUse">
<stop stop-color="#FFF601"/>
<stop offset="1" stop-color="#F5C001"/>
</linearGradient>
<linearGradient id="paint35_linear_1155_117935" x1="39.8417" y1="29.2585" x2="39.8417" y2="38.4713" gradientUnits="userSpaceOnUse">
<stop stop-color="#FFF601"/>
<stop offset="1" stop-color="#F5C001"/>
</linearGradient>
<linearGradient id="paint36_linear_1155_117935" x1="15.4041" y1="22.8634" x2="11.043" y2="28.5444" gradientUnits="userSpaceOnUse">
<stop stop-color="#6D5145"/>
<stop offset="1" stop-color="#6D5145" stop-opacity="0"/>
</linearGradient>
<linearGradient id="paint37_linear_1155_117935" x1="14.7603" y1="26.5324" x2="10.3992" y2="32.2134" gradientUnits="userSpaceOnUse">
<stop stop-color="#6D5145"/>
<stop offset="1" stop-color="#6D5145" stop-opacity="0"/>
</linearGradient>
<clipPath id="clip0_1155_117935">
<rect width="61.3993" height="99.116" fill="white" transform="translate(-3.4585 -4.76514)"/>
</clipPath>
</defs>
</svg>
