<svg width="117" height="99" viewBox="0 0 117 99" fill="none" xmlns="http://www.w3.org/2000/svg">
<path d="M104.844 1.6554L109.669 4.47623C111.893 5.81392 113.646 7.80867 114.689 10.1853L109.864 7.38323C108.825 4.99964 107.07 2.99799 104.844 1.6554V1.6554Z" fill="#EBA500"/>
<path d="M83.6949 48.9016L78.8736 46.0808C76.642 44.7392 74.8836 42.7359 73.8426 40.3492C72.2729 36.9477 71.7934 32.6509 72.4715 28.0094C73.2339 23.1236 74.9895 18.4459 77.6299 14.2649C80.1747 10.1014 83.5658 6.51889 87.5834 3.74949C91.367 1.22835 95.3191 -0.0753071 98.8705 0.00336162L103.699 2.8242C100.144 2.73804 96.207 4.04169 92.4121 6.57033C88.3931 9.3365 85.0017 12.9181 82.4587 17.082C79.8172 21.2628 78.0604 25.9405 77.2965 30.8265C76.6222 35.468 77.098 39.7648 78.6676 43.1663C79.7084 45.5529 81.4652 47.5571 83.6949 48.9016V48.9016Z" fill="#FFD000"/>
<path d="M84.8219 18.7228C83.7192 20.4946 82.7932 22.3705 82.0573 24.3233L77.2285 21.4987C77.9641 19.5398 78.8901 17.6577 79.9932 15.8795C80.4727 15.1153 80.9721 14.3748 81.4916 13.6581L86.3204 16.4789C85.8072 17.2132 85.2977 17.9549 84.8219 18.7228Z" fill="#FFD000"/>
<path d="M80.821 28.5638L75.9922 25.7392C76.2968 24.2954 76.7101 22.8765 77.2284 21.4949L82.0572 24.3195C81.5348 25.6997 81.1214 27.1189 80.821 28.5638V28.5638Z" fill="#FFD000"/>
<path d="M80.543 30.126C80.4031 31.0629 80.3205 32.0074 80.2957 32.9543L75.4707 30.1335C75.4942 29.1867 75.5755 28.2421 75.7142 27.3052C75.7891 26.7845 75.8828 26.2638 75.9914 25.743L80.8202 28.5639C80.7078 29.0846 80.6179 29.6053 80.543 30.126Z" fill="#FFD000"/>
<path d="M86.3379 16.4976L81.4941 13.6767C83.3598 11.1449 85.6395 8.94624 88.2372 7.17345C91.3802 5.06812 94.658 3.98924 97.6587 4.07165C98.3673 4.09109 99.0723 4.1789 99.764 4.33388L104.593 7.15472C103.901 6.99997 103.196 6.91215 102.487 6.89249C99.4905 6.81382 96.2089 7.88896 93.0622 9.99428C90.471 11.7685 88.1977 13.9671 86.3379 16.4976V16.4976Z" fill="#FFD000"/>
<path d="M92.6881 16.3664L87.8594 13.5455H87.8631L92.6881 16.3664Z" fill="#CA820B"/>
<path d="M87.8633 13.5467L87.9015 13.4969L87.8633 13.5467Z" fill="#CA820B"/>
<path d="M87.9082 13.4969L92.737 16.3178L92.6883 16.3665L87.8633 13.5456L87.9082 13.4969Z" fill="#CA820B"/>
<path d="M92.913 16.1267L92.737 16.3178L87.9082 13.497L88.0843 13.3059L92.3474 15.7971L92.913 16.1267Z" fill="#FCDF8F"/>
<path d="M88.0834 13.3059L92.9121 16.1267C92.8934 16.1904 92.8709 16.2541 92.8522 16.3178L88.0234 13.497C88.0459 13.4333 88.0647 13.3771 88.0834 13.3059Z" fill="#CA820B"/>
<path d="M88.0242 13.4969L92.8529 16.3178H92.7331L87.9043 13.4969H88.0242Z" fill="#CA820B"/>
<path d="M87.9082 13.497L88.0843 13.3059C88.0656 13.3696 88.0468 13.4333 88.0243 13.497H87.9082Z" fill="#CA820B"/>
<path d="M93.2463 16.3141H92.8717L88.043 13.4933H88.4401L93.2463 16.3141Z" fill="#FCDF8F"/>
<path d="M88.0251 13.4969L92.8538 16.3178C92.6216 17.067 92.3893 17.8687 92.1608 18.6104L87.332 15.7896C87.5605 15.0478 87.7965 14.2499 88.0251 13.4969Z" fill="#FCDF8F"/>
<path d="M92.1524 18.779L87.3236 15.9581C87.2899 15.9581 87.2861 15.8832 87.3236 15.7896L92.1524 18.6104C92.1149 18.704 92.1149 18.7602 92.1524 18.779Z" fill="#FCDF8F"/>
<path d="M92.153 18.779L87.3242 15.9581C87.3364 15.9619 87.3495 15.9619 87.3617 15.9581H87.4291L92.2541 18.779H92.1904C92.1783 18.7833 92.1651 18.7833 92.153 18.779V18.779Z" fill="#CA820B"/>
<path d="M89.1734 16.0705L94.0022 18.8913C93.9193 18.841 93.8255 18.8115 93.7287 18.8052C93.5714 18.8052 93.4103 18.7789 93.253 18.7752C92.9083 18.7752 92.5674 18.7752 92.2527 18.7752L87.4277 15.9543C87.7387 15.9543 88.0796 15.9543 88.4279 15.9543C88.5853 15.9543 88.7426 15.9543 88.9 15.9843C88.9968 15.99 89.0908 16.0196 89.1734 16.0705V16.0705Z" fill="#CA820B"/>
<path d="M93.3108 9.22248L98.1358 12.0433C97.9597 12.0433 97.8998 12.1257 97.8249 12.3355L92.9961 9.51467C93.071 9.30489 93.1347 9.21498 93.3108 9.22248Z" fill="#FCDF8F"/>
<path d="M98.3978 12.0546H98.1356L93.3105 9.23376H93.5728L98.3978 12.0546Z" fill="#FCDF8F"/>
<path d="M92.9949 9.51477L97.8236 12.3356C97.4752 13.5681 97.1343 14.7331 96.786 15.9656L91.9609 13.1448C92.3056 11.9123 92.6465 10.7547 92.9949 9.51477Z" fill="#FCDF8F"/>
<path d="M93.2464 16.314C93.2016 16.2933 93.1589 16.2682 93.119 16.2391L92.7032 15.9956L92.1563 15.6772L88.4102 13.4932C88.8597 13.4932 89.313 13.4557 89.7588 13.4669C90.3844 13.4669 91.0137 13.4257 91.6655 13.437C91.8116 13.437 91.8753 13.3508 91.9502 13.1448L96.7752 15.9656C96.7041 16.1717 96.6404 16.2616 96.4943 16.2578C95.8387 16.2578 95.2094 16.299 94.5875 16.2878C94.1492 16.2765 93.6997 16.3028 93.2464 16.314Z" fill="#FCDF8F"/>
<path d="M98.3966 12.0547L98.3554 12.0322L98.3067 12.0022L98.1868 11.9311L93.6016 9.25259C94.0249 9.25259 94.4257 9.25259 94.8603 9.21887L99.6853 12.0397C99.2545 12.0697 98.8499 12.0847 98.4303 12.0734L98.3966 12.0547Z" fill="#FCDF8F"/>
<path d="M99.6668 12.021C99.6668 12.021 99.6668 12.021 99.6443 12.021L94.8418 9.21143H94.9542L99.7829 12.0323L99.6668 12.021Z" fill="#FCDF8F"/>
<path d="M95.06 9.21885L99.885 12.0397C99.8527 12.0263 99.8186 12.0174 99.7838 12.0135L94.9551 9.19263C94.9911 9.19625 95.0265 9.20508 95.06 9.21885V9.21885Z" fill="#FCDF8F"/>
<path d="M95.0605 9.21887L99.8856 12.0397C99.9455 12.0772 99.9268 12.1409 99.8856 12.2532L95.0605 9.4324C95.1018 9.32002 95.1167 9.25633 95.0605 9.21887Z" fill="#CA820B"/>
<path d="M88.729 32.1076C88.6428 32.145 88.5941 32.1975 88.5379 32.3586L83.7129 29.5377C83.7691 29.3766 83.814 29.3242 83.9002 29.2867L88.729 32.1076Z" fill="#FCDF8F"/>
<path d="M88.7292 32.1076L83.9004 29.2868L84.024 29.2456L88.2871 31.7368L88.8528 32.0664L88.7292 32.1076Z" fill="#FCDF8F"/>
<path d="M88.5382 32.3699C88.3096 32.9693 88.0174 33.6548 87.7215 34.3404L82.8965 31.5195C83.1887 30.834 83.4846 30.1485 83.7131 29.5491L88.5382 32.3699Z" fill="#FCDF8F"/>
<path d="M82.8959 31.5197L87.721 34.3405C87.5786 34.6477 87.4999 34.8724 87.3463 35.1796L82.5176 32.3588C82.6712 32.0516 82.7536 31.8268 82.8959 31.5197Z" fill="#FCDF8F"/>
<path d="M95.0478 9.43237L99.8728 12.2532C99.5319 13.4183 99.1835 14.6507 98.8426 15.8158L94.0176 13.0024C94.3585 11.8299 94.7069 10.5974 95.0478 9.43237Z" fill="#CA820B"/>
<path d="M94.0178 13.0023L98.8428 15.8232C98.8351 15.9239 98.807 16.022 98.7604 16.1116L93.9316 13.2908C93.9787 13.2011 94.0079 13.1031 94.0178 13.0023Z" fill="#CA820B"/>
<path d="M99.1311 16.1004H98.7565L93.9277 13.2795H94.3023L99.1311 16.1004Z" fill="#FCDF8F"/>
<path d="M101.47 12.1744L96.6445 9.35361C96.6445 9.23748 96.7045 9.15507 96.8318 9.16631L101.661 11.9871C101.533 11.9759 101.485 12.0583 101.47 12.1744Z" fill="#FCDF8F"/>
<path d="M88.9459 32.0814H88.8522L84.0234 29.2606H84.1171C84.4747 29.2724 84.8326 29.2599 85.1885 29.2231L90.0135 32.044C89.659 32.0825 89.3022 32.095 88.9459 32.0814V32.0814Z" fill="#FCDF8F"/>
<path d="M90.0125 32.044H89.99L85.1875 29.2344H85.2774L90.1099 32.0327C90.0777 32.0386 90.0452 32.0424 90.0125 32.044V32.044Z" fill="#FCDF8F"/>
<path d="M96.6434 9.35376L101.472 12.1746L101.214 13.0474L96.3887 10.2266L96.6434 9.35376Z" fill="#FCDF8F"/>
<path d="M101.837 11.9948H101.661L96.832 9.17395H97.0118L101.818 11.9835L97.0118 9.17395L101.841 11.9948H101.837Z" fill="#FCDF8F"/>
<path d="M93.227 16.4152L98.0557 19.236H98.0257C97.8759 19.236 97.816 19.3184 97.741 19.5319L92.916 16.7111C92.9872 16.4976 93.0509 16.4114 93.197 16.4152H93.227Z" fill="#CA820B"/>
<path d="M91.0408 31.156C91.0088 31.3874 90.8983 31.6006 90.7278 31.7602C90.5573 31.9198 90.3372 32.016 90.1043 32.0326L85.2793 29.2118C85.5118 29.1938 85.7312 29.0971 85.9014 28.9378C86.0716 28.7785 86.1825 28.566 86.2158 28.3352L91.0408 31.156Z" fill="#FCDF8F"/>
<path d="M99.1317 16.1004C99.1063 16.0881 99.0824 16.073 99.0605 16.0554L97.6407 15.2275L94.3066 13.2795C94.655 13.2795 95.0184 13.2795 95.3518 13.2795L100.181 16.1004C99.8509 16.0816 99.4763 16.0929 99.1317 16.1004Z" fill="#FCDF8F"/>
<path d="M100.248 16.0181C100.231 16.0441 100.208 16.0659 100.18 16.0817L95.3555 13.2609C95.3841 13.2456 95.4076 13.2221 95.4229 13.1935L100.248 16.0181Z" fill="#FCDF8F"/>
<path d="M96.386 10.2266L101.215 13.0474C100.893 14.0064 100.638 14.8793 100.376 15.8195L95.5469 13.0024C95.8091 12.0584 96.0676 11.1856 96.386 10.2266Z" fill="#FCDF8F"/>
<path d="M100.249 16.0182L95.4199 13.1936C95.4649 13.1374 95.5061 13.055 95.5473 12.9988L100.376 15.8196C100.335 15.8758 100.29 15.9582 100.249 16.0182Z" fill="#FCDF8F"/>
<path d="M103.391 12.0173C102.788 11.9835 102.309 12.0173 101.84 11.9948L97.0117 9.17395C97.4837 9.17395 97.9595 9.17395 98.5626 9.19643L103.391 12.0173Z" fill="#FCDF8F"/>
<path d="M86.5002 32.3661L91.3252 35.1869C91.3051 35.2862 91.2775 35.3839 91.2428 35.4791L86.4141 32.6583C86.4504 32.5633 86.4792 32.4656 86.5002 32.3661V32.3661Z" fill="#FCDF8F"/>
<path d="M104.592 7.15458C104.548 7.13454 104.505 7.11073 104.465 7.0834L99.7637 4.33374C100.72 4.55134 101.639 4.91256 102.487 5.40513L107.312 8.22597C106.465 7.73338 105.548 7.37215 104.592 7.15458V7.15458Z" fill="#FFD000"/>
<path d="M81.6635 40.3717C82.5237 42.3499 83.9783 44.0113 85.8254 45.1256L81.0004 42.3047C79.1502 41.1915 77.6938 39.5282 76.8347 37.5471C75.8264 35.2105 75.3602 32.676 75.4711 30.1335L80.2961 32.9544C80.1858 35.4984 80.6533 38.0343 81.6635 40.3717Z" fill="#FFD000"/>
<path d="M90.9227 36.4606L86.0977 33.6398C86.1988 33.3101 86.3037 32.9805 86.4123 32.6583L91.2336 35.4792C91.1325 35.8013 91.0238 36.131 90.9227 36.4606Z" fill="#FCDF8F"/>
<path d="M88.5453 32.355L93.3703 35.1758C93.1942 35.8239 92.9582 36.4907 92.7821 37.1425C92.6061 37.7944 92.3701 38.4612 92.1903 39.113L87.3652 36.2922C87.5413 35.6403 87.7773 34.9735 87.9571 34.3217C88.1369 33.6699 88.3655 33.0031 88.5453 32.355Z" fill="#CA820B"/>
<path d="M89.9684 32.325L94.7935 35.1458C94.3364 35.1458 93.8832 35.1458 93.3699 35.1758L88.5449 32.3549C89.0544 32.3324 89.5114 32.3287 89.9684 32.325Z" fill="#CA820B"/>
<path d="M89.995 32.3362L94.82 35.157H94.7938L89.9688 32.3362H89.995Z" fill="#CA820B"/>
<path d="M89.9941 32.3362L94.8192 35.157C94.8903 35.1982 94.8192 35.2806 94.8192 35.4043L89.9941 32.5834C90.0091 32.4598 90.0616 32.3774 89.9941 32.3362Z" fill="#FCDF8F"/>
<path d="M94.8154 24.4207L99.6404 27.2415C99.4906 27.1553 99.3258 27.0767 99.1647 27.0017L94.3359 24.1809C94.5008 24.2408 94.6618 24.3345 94.8154 24.4207Z" fill="#CA820B"/>
<path d="M92.1866 29.3394L97.0153 32.1602C96.0741 32.3311 95.1165 32.3952 94.1608 32.3512L89.332 29.5304C90.2877 29.5745 91.2453 29.5104 92.1866 29.3394V29.3394Z" fill="#FCDF8F"/>
<path d="M99.8848 13.8865L104.71 16.7073C105.138 16.9561 105.496 17.3092 105.751 17.7338L100.922 14.9129C100.668 14.4894 100.311 14.1365 99.8848 13.8865V13.8865Z" fill="#CA820B"/>
<path d="M94.823 35.4043C94.4222 36.5844 94.0738 37.8206 93.7291 39.0493L88.9004 36.2285C89.2488 34.9997 89.5972 33.7635 89.998 32.5835L94.823 35.4043Z" fill="#FCDF8F"/>
<path d="M100.274 27.8671L98.8016 27.0092L95.4301 25.0463C95.2856 24.781 95.0669 24.5636 94.8008 24.4207L99.6258 27.2415C99.8992 27.3809 100.125 27.5988 100.274 27.8671V27.8671Z" fill="#FCDF8F"/>
<path d="M93.7136 39.083C93.6724 39.1767 93.6649 39.2329 93.7136 39.2628L88.8849 36.442C88.8324 36.412 88.8436 36.3558 88.8849 36.2584L93.7136 39.083Z" fill="#FCDF8F"/>
<path d="M94.1935 28.5414L99.0222 31.3622C98.4175 31.7683 97.7328 32.0403 97.0143 32.1601L92.1855 29.3393C92.9045 29.2209 93.5894 28.9487 94.1935 28.5414V28.5414Z" fill="#FCDF8F"/>
<path d="M103.147 24.5293L98.3184 21.7084L98.2734 21.6785L103.098 24.4993L103.147 24.5293Z" fill="#CA820B"/>
<path d="M98.5132 21.5399L103.338 24.3608C103.282 24.3795 103.215 24.4656 103.098 24.4994L98.2734 21.6785C98.3896 21.6448 98.4533 21.5586 98.5132 21.5399Z" fill="#CA820B"/>
<path d="M99.7792 30.628C99.577 30.9212 99.3231 31.1751 99.0299 31.3772L94.2012 28.5564C94.4944 28.3542 94.7483 28.1003 94.9504 27.8071L99.7792 30.628Z" fill="#FCDF8F"/>
<path d="M100.274 27.8671C100.675 28.5451 100.417 29.7402 99.7799 30.628L94.9512 27.8072C95.5918 26.9306 95.8465 25.7243 95.4457 25.0463C96.8954 25.8929 99.1019 26.6833 100.274 27.8671Z" fill="#FCDF8F"/>
<path d="M103.702 24.8065C103.518 24.7016 103.327 24.6342 103.147 24.5293L98.3184 21.7085C98.5019 21.8134 98.693 21.8771 98.8728 21.9857L103.702 24.8065Z" fill="#FCDF8F"/>
<path d="M87.1446 36.4982L91.9734 39.319H91.7374C91.2429 39.319 90.7409 39.3377 90.2389 39.3714L85.4102 36.5506C85.9121 36.5169 86.4141 36.4832 86.9086 36.4982H87.1446Z" fill="#CA820B"/>
<path d="M87.3655 36.2921L92.1906 39.1129C92.1231 39.259 92.1156 39.3227 91.9733 39.319L87.1445 36.4982C87.2869 36.5019 87.2944 36.4382 87.3655 36.2921Z" fill="#CA820B"/>
<path d="M93.7155 39.0829L88.8867 36.2584C88.8887 36.2485 88.8887 36.2383 88.8867 36.2284L93.7155 39.0492C93.7141 39.0604 93.7141 39.0717 93.7155 39.0829V39.0829Z" fill="#FCDF8F"/>
<path d="M93.7194 39.2629L88.8906 36.442C88.9224 36.4571 88.9567 36.466 88.9918 36.4682L93.8205 39.2891C93.7855 39.2868 93.7511 39.2779 93.7194 39.2629V39.2629Z" fill="#CA820B"/>
<path d="M102.473 5.40527L107.298 8.22611C107.477 8.331 107.672 8.44338 107.822 8.55951C109.421 9.66816 110.681 11.1983 111.463 12.9799C112.36 15.0336 112.824 17.2499 112.827 19.4907L108.002 16.6699C107.996 14.429 107.531 12.2131 106.635 10.1591C105.854 8.37664 104.595 6.84526 102.997 5.73493C102.847 5.6188 102.664 5.51017 102.473 5.40527Z" fill="#FCDF8F"/>
<path d="M85.825 45.1256L81 42.3047C81.6234 42.6711 82.2872 42.964 82.978 43.1776C83.9012 43.4615 84.8593 43.6166 85.825 43.6384C87.9831 43.6561 90.1184 43.1956 92.0773 42.2898C95.2952 40.87 98.4233 38.4013 101.068 35.1721C103.713 31.9511 105.698 28.2405 106.908 24.2521C107.671 21.7913 108.05 19.2276 108.032 16.6512L112.857 19.4721C112.876 22.0484 112.496 24.6122 111.733 27.073C110.521 31.0615 108.536 34.7722 105.889 37.9929C103.267 41.2034 100.124 43.6721 96.8986 45.1106C94.9385 46.0169 92.8019 46.4775 90.6425 46.4592C89.6781 46.4371 88.7213 46.282 87.7992 45.9984C87.1098 45.7843 86.4474 45.4914 85.825 45.1256V45.1256Z" fill="#FCDF8F"/>
<path d="M83.6943 48.9016L78.873 46.0808C79.6368 46.526 80.4487 46.8829 81.2931 47.1447C81.9347 47.3418 82.5911 47.4872 83.256 47.5792C83.7455 47.6458 84.2382 47.6858 84.732 47.6991C87.3421 47.7241 89.9252 47.1701 92.2954 46.077C96.1914 44.365 99.9675 41.3869 103.159 37.5208C106.355 33.6436 108.751 29.1722 110.209 24.3644C112.082 18.041 111.981 11.9273 109.876 7.3645L114.701 10.1853C116.806 14.7481 116.926 20.8618 115.038 27.1853C113.576 31.9968 111.174 36.4708 107.973 40.3492C104.789 44.2189 101.009 47.1934 97.1092 48.9053C94.739 49.9985 92.1558 50.5525 89.5458 50.5274C89.0519 50.5161 88.559 50.4761 88.0698 50.4075C87.4037 50.3151 86.7461 50.1698 86.1031 49.973C85.2619 49.709 84.4537 49.3495 83.6943 48.9016V48.9016Z" fill="#E48203"/>
<path d="M98.8692 0.0263387C95.3179 -0.0598223 91.377 1.24383 87.5821 3.77247C83.5645 6.54187 80.1735 10.1244 77.6287 14.2879C74.9883 18.4689 73.2327 23.1466 72.4702 28.0324C71.7922 32.6739 72.2717 36.9707 73.8413 40.3722C75.411 43.7736 77.9995 46.1337 81.2849 47.1527C81.9265 47.3498 82.583 47.4951 83.2479 47.5872C82.551 47.4952 81.863 47.3448 81.1912 47.1377C77.9246 46.1225 75.3473 43.7661 73.7889 40.3609C72.2305 36.9557 71.7622 32.6626 72.4365 28.0249C73.2042 23.1416 74.9594 18.4661 77.595 14.2841C80.1294 10.1233 83.5103 6.54196 87.5185 3.77247C91.3058 1.22885 95.258 -0.0710607 98.8692 0.0263387Z" fill="#FFD000"/>
<path d="M83.6336 48.9016L78.8086 46.0808C79.5598 46.521 80.3592 46.873 81.1911 47.1297C81.8629 47.3368 82.5508 47.4872 83.2477 47.5793L88.0765 50.4001C87.3796 50.3101 86.6916 50.161 86.0199 49.9543C85.1873 49.6946 84.3867 49.3415 83.6336 48.9016V48.9016Z" fill="#DF7900"/>
<path d="M92.359 32.2762L97.184 35.0971C97.0042 35.0971 96.8881 35.1982 96.8094 35.408L91.9844 32.5871C92.0556 32.3774 92.1717 32.2725 92.359 32.2762Z" fill="#CA820B"/>
<path d="M100.922 14.913L105.751 17.7338C106.174 18.6029 106.125 19.678 105.784 20.8431L100.974 18.0222C101.3 16.8572 101.349 15.7821 100.922 14.913Z" fill="#CA820B"/>
<path d="M100.974 18.0223L105.799 20.8432C105.578 21.6501 105.215 22.4112 104.727 23.0909C104.338 23.5844 103.874 24.0142 103.352 24.3645L98.5273 21.5437C99.0476 21.1914 99.5112 20.7619 99.9022 20.27C100.389 19.5896 100.751 18.8287 100.974 18.0223V18.0223Z" fill="#CA820B"/>
<path d="M90.5822 36.4569L95.4109 39.2777C94.8977 39.3002 94.3321 39.2777 93.8188 39.2777L88.9863 36.4681C89.5033 36.4457 90.069 36.4794 90.5822 36.4569Z" fill="#CA820B"/>
<path d="M91.9831 32.5873L96.8081 35.4081C96.4672 36.5732 96.1226 37.8056 95.7779 38.9669C95.7067 39.2067 95.6917 39.2966 95.5307 39.2928C95.4908 39.2958 95.4507 39.2958 95.4108 39.2928L90.582 36.472C90.6219 36.4748 90.662 36.4748 90.7019 36.472C90.8667 36.472 90.8817 36.3859 90.9529 36.1461C91.2938 34.9848 91.6422 33.7523 91.9831 32.5873Z" fill="#CA820B"/>
<path d="M98.873 21.9932L103.702 24.814L103.747 24.844C104.074 25.0528 104.349 25.3327 104.553 25.6629C104.757 25.993 104.883 26.3649 104.923 26.7507L100.094 23.9299C100.055 23.5445 99.9284 23.1729 99.7255 22.8428C99.5225 22.5127 99.2478 22.2326 98.9217 22.0231L98.873 21.9932Z" fill="#CA820B"/>
<path d="M100.095 23.9224L104.924 26.7432C104.945 27.5438 104.828 28.3421 104.579 29.1033C104.282 30.1074 103.844 31.0645 103.279 31.9466C102.661 32.9161 101.777 33.6872 100.732 34.168C99.6057 34.6662 98.4066 34.9798 97.1806 35.0971L92.3594 32.2762C93.5852 32.1581 94.7841 31.8445 95.9107 31.3472C96.9547 30.8669 97.8379 30.0956 98.4543 29.1257C99.022 28.2453 99.4598 27.2877 99.7542 26.2824C100.006 25.5219 100.121 24.723 100.095 23.9224V23.9224Z" fill="#CA820B"/>
<path d="M109.864 7.38395C111.97 11.9467 112.09 18.0604 110.198 24.3839C108.739 29.1917 106.343 33.6631 103.148 37.5403C99.9597 41.4063 96.1836 44.3845 92.2839 46.0964C89.9136 47.1896 87.3305 47.7436 84.7205 47.7185C84.2267 47.7052 83.7339 47.6652 83.2445 47.5986C82.5796 47.5066 81.9231 47.3613 81.2815 47.1641C77.9962 46.1451 75.4038 43.7926 73.838 40.3836C72.2721 36.9746 71.7888 32.6853 72.4669 28.0438C73.2293 23.158 74.9849 18.4803 77.6253 14.2993C80.1701 10.1358 83.5611 6.55331 87.5788 3.78391C91.3623 1.26277 95.3145 -0.0408833 98.9295 0.0377854C103.844 0.161408 107.759 2.80243 109.864 7.38395ZM101.065 35.2102C103.71 31.9892 105.695 28.2785 106.905 24.2902C107.668 21.8294 108.047 19.2657 108.029 16.6893C108.023 14.4484 107.558 12.2325 106.662 10.1786C105.881 8.39608 104.622 6.86471 103.024 5.75438C101.436 4.69874 99.5777 4.12143 97.6708 4.0911C94.6739 4.00868 91.3923 5.08757 88.2493 7.19289C84.9222 9.49275 82.1146 12.465 80.0078 15.9176C77.8228 19.3904 76.3672 23.2714 75.7297 27.3246C75.1678 31.1794 75.5574 34.7419 76.8536 37.5665C78.1497 40.3911 80.285 42.3541 82.9972 43.1857C83.9205 43.4697 84.8786 43.6247 85.8443 43.6465C88.0024 43.6643 90.1377 43.2037 92.0966 42.2979C95.3145 40.8781 98.4425 38.4094 101.087 35.1802" fill="#FFD000"/>
<mask id="mask0_1545_125520" style="mask-type:alpha" maskUnits="userSpaceOnUse" x="72" y="0" width="40" height="48">
<path d="M109.864 7.38407C111.97 11.9469 112.09 18.0605 110.198 24.384C108.739 29.1918 106.343 33.6632 103.148 37.5404C99.9597 41.4064 96.1836 44.3846 92.2839 46.0966C89.9136 47.1897 87.3305 47.7437 84.7205 47.7186C84.2267 47.7054 83.7339 47.6654 83.2445 47.5988C82.5796 47.5067 81.9231 47.3614 81.2815 47.1642C77.9962 46.1453 75.4038 43.7927 73.838 40.3837C72.2721 36.9747 71.7888 32.6854 72.4669 28.044C73.2293 23.1582 74.9849 18.4804 77.6253 14.2994C80.1701 10.1359 83.5611 6.55343 87.5788 3.78404C91.3623 1.26289 95.3145 -0.0407612 98.9295 0.0379075C103.844 0.16153 107.759 2.80255 109.864 7.38407ZM101.065 35.2103C103.71 31.9893 105.695 28.2787 106.905 24.2904C107.668 21.8295 108.047 19.2658 108.029 16.6895C108.023 14.4485 107.558 12.2327 106.662 10.1787C105.881 8.3962 104.622 6.86483 103.024 5.7545C101.436 4.69886 99.5777 4.12155 97.6708 4.09122C94.6739 4.0088 91.3923 5.08769 88.2493 7.19301C84.9222 9.49287 82.1146 12.4651 80.0078 15.9178C77.8228 19.3905 76.3672 23.2716 75.7297 27.3247C75.1678 31.1795 75.5574 34.7421 76.8536 37.5666C78.1497 40.3912 80.285 42.3542 82.9972 43.1858C83.9205 43.4698 84.8786 43.6248 85.8443 43.6466C88.0024 43.6644 90.1377 43.2038 92.0966 42.298C95.3145 40.8782 98.4425 38.4095 101.087 35.1803" fill="#FFD000"/>
</mask>
<g mask="url(#mask0_1545_125520)">
<rect x="43.9043" y="40.6141" width="97.3652" height="4.15239" transform="rotate(-30 43.9043 40.6141)" fill="#FFF3A5"/>
<rect x="60.9453" y="53.9512" width="74.743" height="2.07619" transform="rotate(-30 60.9453 53.9512)" fill="#FFF3A5"/>
<rect x="53.0781" y="41.7111" width="74.743" height="2.07619" transform="rotate(-30 53.0781 41.7111)" fill="#FFF3A5"/>
</g>
<path d="M108.017 16.67C108.035 19.2463 107.656 21.8101 106.893 24.2709C105.683 28.2592 103.698 31.9699 101.053 35.1909C98.4307 38.4013 95.2839 40.87 92.0623 42.3085C90.1034 43.2143 87.9681 43.6749 85.81 43.6571C84.8443 43.6354 83.8862 43.4803 82.9629 43.1964C80.2507 42.3535 78.093 40.3905 76.8193 37.5772C75.5456 34.7638 75.1373 31.19 75.6954 27.3352C76.3359 23.27 77.7992 19.3783 79.996 15.8983C82.1027 12.4457 84.9104 9.47343 88.2375 7.17357C91.3805 5.06825 94.6583 3.98936 97.659 4.07178C99.5659 4.10211 101.424 4.67942 103.012 5.73506C104.61 6.84538 105.869 8.37676 106.65 10.1592C107.546 12.2132 108.011 14.4291 108.017 16.67Z" fill="#EBA500"/>
<path d="M76.8193 37.5772C78.093 40.3905 80.2507 42.3535 82.9629 43.1964C79.9011 40.3256 75.5719 33.6862 78.535 23.1584C81.5019 12.6168 91.0845 5.56279 97.659 4.07178C94.6583 3.98936 91.3805 5.06825 88.2375 7.17357C84.9104 9.47343 82.1027 12.4457 79.996 15.8983C77.7992 19.3783 76.3359 23.27 75.6954 27.3352C75.1373 31.19 75.5456 34.7638 76.8193 37.5772Z" fill="#DF7900"/>
<path d="M100.97 24.6714C100.995 25.4723 100.878 26.2712 100.625 27.0315C100.331 28.0368 99.893 28.9944 99.3254 29.8748C98.7089 30.8446 97.8257 31.616 96.7817 32.0963C95.6551 32.5935 94.4562 32.9072 93.2304 33.0253C93.0468 33.0253 92.9307 33.1264 92.8558 33.3362C92.5149 34.5013 92.1665 35.7337 91.8256 36.895C91.7544 37.1348 91.7394 37.2247 91.5746 37.221C91.5347 37.2237 91.4946 37.2237 91.4547 37.221C90.9415 37.2434 90.3758 37.221 89.8626 37.221C89.694 37.221 89.7015 37.1385 89.7727 36.9812C90.1211 35.7525 90.4695 34.5163 90.8703 33.3362C90.8703 33.1976 90.9452 33.1115 90.8404 33.0777C90.3833 33.0777 89.9263 33.0777 89.4168 33.1077C89.237 33.7558 89.0048 34.4226 88.8287 35.0744C88.6526 35.7263 88.4129 36.3931 88.2368 37.0449C88.1656 37.191 88.1581 37.2547 88.0158 37.2509H87.7835C87.2853 37.2509 86.7833 37.2697 86.2851 37.3034C86.1165 37.2846 86.1202 37.221 86.1952 37.0636C86.5436 35.8349 86.8919 34.5987 87.289 33.4186C87.3253 33.3236 87.3541 33.2259 87.3752 33.1264C86.0715 33.1264 84.7529 33.1077 83.4043 33.1264C83.5466 32.8193 83.6291 32.5945 83.7789 32.2873C84.0711 31.6018 84.367 30.9162 84.5956 30.3168C84.6742 30.0958 84.7304 30.0771 84.9065 30.0246H85.0002C85.3879 30.0402 85.7763 30.0239 86.1614 29.9759C86.3939 29.9579 86.6133 29.8613 86.7835 29.702C86.9537 29.5426 87.0646 29.3301 87.098 29.0994C88.1993 25.3869 89.3007 21.6708 90.3534 17.9059C90.5219 17.3253 90.2897 16.7821 89.7839 16.7484C89.6266 16.7484 89.4693 16.7221 89.312 16.7184C88.9636 16.7184 88.6226 16.7184 88.3117 16.7184H88.2443C88.1769 16.7184 88.1581 16.6585 88.2143 16.5386C88.4428 15.7894 88.6788 14.9989 88.9074 14.2459C89.4918 14.2459 90.0761 14.201 90.653 14.216C91.23 14.231 91.908 14.1748 92.5261 14.186C92.7022 14.186 92.7659 14.0998 92.8408 13.8938C93.1854 12.6613 93.5263 11.4963 93.8747 10.2638C93.9497 10.054 94.0133 9.96412 94.1669 9.96787H94.4629C94.9237 9.96787 95.3582 9.96787 95.834 9.92666C96.0063 9.92666 95.9988 10.0128 95.9276 10.1664C95.5867 11.3315 95.2383 12.5639 94.8974 13.729C94.8875 13.8298 94.8583 13.9277 94.8113 14.0174C95.2645 14.0174 95.7778 13.995 96.231 13.995C96.291 13.9725 96.3622 13.8226 96.4258 13.7327C96.6881 12.7924 96.9466 11.9196 97.265 10.9606L97.5235 10.0877C97.5235 9.97162 97.5834 9.8892 97.6696 9.89294C97.7557 9.89669 97.8306 9.89294 97.8906 9.89294C98.3963 9.89294 98.9133 9.89294 99.4715 9.89294C99.3101 10.813 99.0886 11.7215 98.8084 12.6126C98.7252 12.9995 98.615 13.38 98.4787 13.7515C98.4001 13.9725 98.4525 14.0249 98.6211 14.0399L100.449 14.4894C101.016 14.7329 101.491 15.1483 101.809 15.677C102.232 16.5461 102.184 17.6212 101.846 18.7863C101.624 19.5926 101.262 20.3535 100.775 21.0339C100.384 21.5258 99.9205 21.9553 99.4003 22.3076C99.3403 22.3263 99.2766 22.4125 99.1605 22.4462C99.374 22.5811 99.5951 22.6485 99.8086 22.7834C100.13 22.9921 100.401 23.2698 100.602 23.5964C100.803 23.923 100.929 24.2902 100.97 24.6714V24.6714ZM95.0698 29.2904C96.2198 28.5412 96.8566 26.6981 96.3209 25.7953C96.0589 25.3844 95.6613 25.0783 95.1971 24.9299C94.6918 24.757 94.1615 24.6684 93.6275 24.6677C93.0506 24.6677 92.4549 24.6939 91.8705 24.7314H91.8368C91.702 24.7314 91.687 24.7988 91.6158 25.0048C91.4322 25.7241 91.1962 26.3909 91.0127 27.1102C90.6868 28.1366 90.4171 29.1481 90.0837 30.2419H90.1099C90.1414 30.2452 90.1707 30.2599 90.1923 30.2831C91.148 30.3272 92.1056 30.2631 93.0468 30.0921C93.7657 29.9736 94.4506 29.7015 95.0548 29.2942L95.0698 29.2904ZM92.4325 21.9817C92.3575 22.1353 92.4325 22.184 92.5224 22.2177H92.6947H92.8558H93.1442C94.001 22.1445 94.8505 22.0017 95.6841 21.7907C95.9111 21.6984 96.1303 21.5882 96.3397 21.461C97.4635 20.8579 98.2128 19.1759 97.7407 18.1869C97.6239 17.9514 97.4524 17.7472 97.2407 17.5915C97.0289 17.4357 96.7829 17.3329 96.5233 17.2916C96.1159 17.2115 95.7021 17.1689 95.287 17.1642C94.9124 17.1642 94.5041 17.1642 94.0957 17.1642H94.0658C93.9197 17.1642 93.856 17.2466 93.7848 17.4601C93.3503 18.9811 92.9232 20.4346 92.4325 21.978" fill="#DF7900"/>
<path d="M100.095 23.9223C100.12 24.7231 100.003 25.522 99.7502 26.2823C99.4558 27.2876 99.018 28.2453 98.4504 29.1257C97.8339 30.0955 96.9507 30.8668 95.9067 31.3471C94.7801 31.8444 93.5812 32.158 92.3554 32.2762C92.1718 32.2762 92.0557 32.3773 91.9808 32.5871C91.6399 33.7521 91.2915 34.9846 90.9506 36.1459C90.8794 36.3857 90.8644 36.4756 90.6996 36.4718C90.6597 36.4746 90.6196 36.4746 90.5797 36.4718C90.0665 36.4943 89.5008 36.4718 88.9876 36.4718C88.819 36.4718 88.8265 36.3894 88.8977 36.2321C89.2461 35.0033 89.5945 33.7671 89.9953 32.5871C89.9953 32.4485 90.0702 32.3623 89.9654 32.3286C89.5083 32.3286 89.0513 32.3286 88.5418 32.3586C88.362 33.0066 88.1298 33.6735 87.9537 34.3253C87.7776 34.9771 87.5379 35.6439 87.3618 36.2957C87.2906 36.4418 87.2831 36.5055 87.1408 36.5018H86.9085C86.4103 36.5018 85.9083 36.5205 85.4101 36.5542C85.2415 36.5355 85.2452 36.4718 85.3202 36.3145C85.6686 35.0857 86.0169 33.8495 86.414 32.6695C86.4503 32.5745 86.4791 32.4768 86.5002 32.3773C85.1965 32.3773 83.8779 32.3586 82.5293 32.3773C82.6716 32.0701 82.7541 31.8453 82.9039 31.5382C83.1961 30.8526 83.492 30.1671 83.7206 29.5677C83.7992 29.3467 83.8554 29.3279 84.0315 29.2755H84.1252C84.5129 29.2911 84.9013 29.2748 85.2864 29.2268C85.5189 29.2088 85.7383 29.1121 85.9085 28.9528C86.0787 28.7935 86.1896 28.581 86.223 28.3502C87.3243 24.6378 88.4257 20.9216 89.4784 17.1568C89.6469 16.5761 89.4147 16.0329 88.9089 15.9992C88.7516 15.9992 88.5943 15.973 88.437 15.9692C88.0886 15.9692 87.7476 15.9692 87.4367 15.9692H87.3693C87.3019 15.9692 87.2831 15.9093 87.3393 15.7894C87.5678 15.0402 87.8038 14.2498 88.0324 13.4968C88.6168 13.4968 89.2011 13.4518 89.778 13.4668C90.355 13.4818 91.033 13.4256 91.6511 13.4369C91.8272 13.4369 91.8909 13.3507 91.9658 13.1447C92.3104 11.9122 92.6513 10.7471 92.9997 9.51467C93.0747 9.30489 93.1383 9.21498 93.2919 9.21872H93.5879C94.0487 9.21872 94.4832 9.21872 94.959 9.17752C95.1313 9.17752 95.1238 9.26368 95.0526 9.41727C94.7117 10.5823 94.3633 11.8148 94.0224 12.9798C94.0125 13.0806 93.9833 13.1786 93.9363 13.2683C94.3895 13.2683 94.9028 13.2458 95.356 13.2458C95.416 13.2233 95.4872 13.0735 95.5508 12.9836C95.8131 12.0433 96.0716 11.1705 96.39 10.2114L96.6485 9.3386C96.6485 9.22247 96.7084 9.14005 96.7946 9.1438C96.8807 9.14755 96.9556 9.1438 97.0156 9.1438C97.5213 9.1438 98.0383 9.1438 98.5965 9.1438C98.4351 10.0639 98.2136 10.9724 97.9334 11.8635C97.8502 12.2503 97.74 12.6309 97.6037 13.0023C97.5251 13.2233 97.5775 13.2758 97.7461 13.2908L99.5742 13.7403C100.141 13.9838 100.616 14.3992 100.934 14.9278C101.357 15.7969 101.309 16.8721 100.971 18.0371C100.749 18.8435 100.387 19.6043 99.9001 20.2848C99.5091 20.7766 99.0455 21.2061 98.5253 21.5585C98.4653 21.5772 98.4016 21.6634 98.2855 21.6971C98.499 21.8319 98.7201 21.8994 98.9336 22.0342C99.2552 22.2429 99.5264 22.5207 99.7272 22.8472C99.9281 23.1738 100.054 23.5411 100.095 23.9223V23.9223ZM94.1948 28.5413C95.3448 27.792 95.9816 25.9489 95.4459 25.0461C95.1839 24.6353 94.7863 24.3291 94.3221 24.1808C93.8168 24.0079 93.2865 23.9193 92.7525 23.9185C92.1756 23.9185 91.5799 23.9448 90.9955 23.9822H90.9618C90.827 23.9822 90.812 24.0496 90.7408 24.2557C90.5572 24.9749 90.3212 25.6418 90.1377 26.361C89.8118 27.3875 89.5421 28.3989 89.2087 29.4928H89.2349C89.2664 29.4961 89.2957 29.5107 89.3173 29.534C90.273 29.5781 91.2306 29.514 92.1718 29.3429C92.8907 29.2245 93.5756 28.9523 94.1798 28.545L94.1948 28.5413ZM91.5575 21.2326C91.4825 21.3862 91.5575 21.4349 91.6474 21.4686H91.8197H91.9808H92.2692C93.126 21.3954 93.9755 21.2525 94.8091 21.0415C95.0361 20.9493 95.2553 20.8391 95.4647 20.7119C96.5885 20.1087 97.3378 18.4267 96.8657 17.4377C96.7489 17.2022 96.5774 16.9981 96.3657 16.8423C96.1539 16.6866 95.9079 16.5837 95.6483 16.5424C95.2409 16.4624 94.8271 16.4198 94.412 16.415C94.0374 16.415 93.6291 16.415 93.2207 16.415H93.1908C93.0447 16.415 92.981 16.4975 92.9098 16.711C92.4753 18.2319 92.0482 19.6854 91.5575 21.2288" fill="#FFE12A"/>
<mask id="mask1_1545_125520" style="mask-type:alpha" maskUnits="userSpaceOnUse" x="82" y="9" width="20" height="28">
<path d="M100.095 23.9223C100.12 24.7231 100.003 25.522 99.7502 26.2823C99.4558 27.2876 99.018 28.2453 98.4504 29.1257C97.8339 30.0955 96.9507 30.8668 95.9067 31.3471C94.7801 31.8444 93.5812 32.158 92.3554 32.2762C92.1718 32.2762 92.0557 32.3773 91.9808 32.5871C91.6399 33.7521 91.2915 34.9846 90.9506 36.1459C90.8794 36.3857 90.8644 36.4756 90.6996 36.4718C90.6597 36.4746 90.6196 36.4746 90.5797 36.4718C90.0665 36.4943 89.5008 36.4718 88.9876 36.4718C88.819 36.4718 88.8265 36.3894 88.8977 36.2321C89.2461 35.0033 89.5945 33.7671 89.9953 32.5871C89.9953 32.4485 90.0702 32.3623 89.9654 32.3286C89.5083 32.3286 89.0513 32.3286 88.5418 32.3586C88.362 33.0066 88.1298 33.6735 87.9537 34.3253C87.7776 34.9771 87.5379 35.6439 87.3618 36.2957C87.2906 36.4418 87.2831 36.5055 87.1408 36.5018H86.9085C86.4103 36.5018 85.9083 36.5205 85.4101 36.5542C85.2415 36.5355 85.2452 36.4718 85.3202 36.3145C85.6686 35.0857 86.0169 33.8495 86.414 32.6695C86.4503 32.5745 86.4791 32.4768 86.5002 32.3773C85.1965 32.3773 83.8779 32.3586 82.5293 32.3773C82.6716 32.0701 82.7541 31.8453 82.9039 31.5382C83.1961 30.8526 83.492 30.1671 83.7206 29.5677C83.7992 29.3467 83.8554 29.3279 84.0315 29.2755H84.1252C84.5129 29.2911 84.9013 29.2748 85.2864 29.2268C85.5189 29.2088 85.7383 29.1121 85.9085 28.9528C86.0787 28.7935 86.1896 28.581 86.223 28.3502C87.3243 24.6378 88.4257 20.9216 89.4784 17.1568C89.6469 16.5761 89.4147 16.0329 88.9089 15.9992C88.7516 15.9992 88.5943 15.973 88.437 15.9692C88.0886 15.9692 87.7476 15.9692 87.4367 15.9692H87.3693C87.3019 15.9692 87.2831 15.9093 87.3393 15.7894C87.5678 15.0402 87.8038 14.2498 88.0324 13.4968C88.6168 13.4968 89.2011 13.4518 89.778 13.4668C90.355 13.4818 91.033 13.4256 91.6511 13.4369C91.8272 13.4369 91.8909 13.3507 91.9658 13.1447C92.3104 11.9122 92.6513 10.7471 92.9997 9.51467C93.0747 9.30489 93.1383 9.21498 93.2919 9.21872H93.5879C94.0487 9.21872 94.4832 9.21872 94.959 9.17752C95.1313 9.17752 95.1238 9.26368 95.0526 9.41727C94.7117 10.5823 94.3633 11.8148 94.0224 12.9798C94.0125 13.0806 93.9833 13.1786 93.9363 13.2683C94.3895 13.2683 94.9028 13.2458 95.356 13.2458C95.416 13.2233 95.4872 13.0735 95.5508 12.9836C95.8131 12.0433 96.0716 11.1705 96.39 10.2114L96.6485 9.3386C96.6485 9.22247 96.7084 9.14005 96.7946 9.1438C96.8807 9.14755 96.9556 9.1438 97.0156 9.1438C97.5213 9.1438 98.0383 9.1438 98.5965 9.1438C98.4351 10.0639 98.2136 10.9724 97.9334 11.8635C97.8502 12.2503 97.74 12.6309 97.6037 13.0023C97.5251 13.2233 97.5775 13.2758 97.7461 13.2908L99.5742 13.7403C100.141 13.9838 100.616 14.3992 100.934 14.9278C101.357 15.7969 101.309 16.8721 100.971 18.0371C100.749 18.8435 100.387 19.6043 99.9001 20.2848C99.5091 20.7766 99.0455 21.2061 98.5253 21.5585C98.4653 21.5772 98.4016 21.6634 98.2855 21.6971C98.499 21.8319 98.7201 21.8994 98.9336 22.0342C99.2552 22.2429 99.5264 22.5207 99.7272 22.8472C99.9281 23.1738 100.054 23.5411 100.095 23.9223V23.9223ZM94.1948 28.5413C95.3448 27.792 95.9816 25.9489 95.4459 25.0461C95.1839 24.6353 94.7863 24.3291 94.3221 24.1808C93.8168 24.0079 93.2865 23.9193 92.7525 23.9185C92.1756 23.9185 91.5799 23.9448 90.9955 23.9822H90.9618C90.827 23.9822 90.812 24.0496 90.7408 24.2557C90.5572 24.9749 90.3212 25.6418 90.1377 26.361C89.8118 27.3875 89.5421 28.3989 89.2087 29.4928H89.2349C89.2664 29.4961 89.2957 29.5107 89.3173 29.534C90.273 29.5781 91.2306 29.514 92.1718 29.3429C92.8907 29.2245 93.5756 28.9523 94.1798 28.545L94.1948 28.5413ZM91.5575 21.2326C91.4825 21.3862 91.5575 21.4349 91.6474 21.4686H91.8197H91.9808H92.2692C93.126 21.3954 93.9755 21.2525 94.8091 21.0415C95.0361 20.9493 95.2553 20.8391 95.4647 20.7119C96.5885 20.1087 97.3378 18.4267 96.8657 17.4377C96.7489 17.2022 96.5774 16.9981 96.3657 16.8423C96.1539 16.6866 95.9079 16.5837 95.6483 16.5424C95.2409 16.4624 94.8271 16.4198 94.412 16.415C94.0374 16.415 93.6291 16.415 93.2207 16.415H93.1908C93.0447 16.415 92.981 16.4975 92.9098 16.711C92.4753 18.2319 92.0482 19.6854 91.5575 21.2288" fill="#FFE12A"/>
</mask>
<g mask="url(#mask1_1545_125520)">
<rect x="43.9062" y="40.6141" width="97.3652" height="4.15239" transform="rotate(-30 43.9062 40.6141)" fill="#FFF3A5"/>
<rect x="60.9473" y="53.9513" width="74.743" height="2.07619" transform="rotate(-30 60.9473 53.9513)" fill="#FFF3A5"/>
<rect x="53.0801" y="41.7111" width="74.743" height="2.07619" transform="rotate(-30 53.0801 41.7111)" fill="#FFF3A5"/>
</g>
<path d="M70.0943 48.5628H70.0568H70.0156H69.9744H69.9332H69.892L69.8508 48.5441H69.8133H69.7759L67.2285 47.5139C67.6021 46.4068 68.0565 45.3288 68.5883 44.2885C69.2934 42.9143 70.1343 41.6142 71.0983 40.4075L73.964 41.5688C73.0001 42.7755 72.1592 44.0756 71.4541 45.4498C70.9263 46.4533 70.4719 47.4937 70.0943 48.5628V48.5628Z" fill="#FFD000"/>
<path d="M80.907 43.2209L78.0449 42.0596L80.907 43.2209Z" fill="#CA820B"/>
<path d="M78.0936 42.0072L80.9594 43.1685L80.9069 43.2209L78.0449 42.0596L78.0936 42.0072Z" fill="#CA820B"/>
<path d="M81.1319 42.9737L80.9595 43.1685L78.0938 42.0072C78.1312 41.9697 78.1836 41.906 78.2661 41.8124L80.7872 42.8463L81.1319 42.9737Z" fill="#FCDF8F"/>
<path d="M78.2666 41.8124L81.1324 42.9737C81.1324 43.0411 81.1137 43.1085 81.1062 43.176L78.2441 42.0147L78.2666 41.8124Z" fill="#CA820B"/>
<path d="M78.2436 42.0146L81.1056 43.1759H80.9595L78.0938 42.0146H78.2436Z" fill="#CA820B"/>
<path d="M80.9597 44.3897L80.7949 44.3223L80.6188 44.2511L80.4353 44.1762L80.2517 44.1012L80.0644 44.0263L79.8808 43.9514L79.7085 43.8802L79.54 43.8128L79.3713 43.7454L79.1915 43.6704L79.008 43.5955L78.8169 43.5206L78.6296 43.4419L78.4423 43.367L78.2663 43.2958L78.0977 43.2284C78.1426 42.8201 78.1913 42.4117 78.2438 42.0146L81.1058 43.1759C81.0571 43.5693 81.0084 43.9701 80.9597 44.3897Z" fill="#FCDF8F"/>
<path d="M80.9591 44.3897C80.9104 44.8055 80.8618 45.2176 80.8093 45.6184L77.9473 44.4571C77.996 44.0563 78.0446 43.6442 78.0971 43.2284L80.9591 44.3897Z" fill="#FCDF8F"/>
<path d="M80.8535 45.802L77.9877 44.6445C77.9315 44.622 77.9128 44.5583 77.9465 44.4572L80.8085 45.6185C80.7861 45.7196 80.7861 45.7795 80.8535 45.802Z" fill="#FCDF8F"/>
<path d="M80.8541 45.8021L77.9883 44.6445H78.0332C78.0592 44.6499 78.0859 44.6499 78.1119 44.6445L80.9777 45.8058C80.9516 45.8092 80.9251 45.8092 80.899 45.8058C80.884 45.809 80.8684 45.8077 80.8541 45.8021V45.8021Z" fill="#CA820B"/>
<path d="M80.3103 44.8281L83.1761 45.9894C83.0758 45.9514 82.9715 45.925 82.8652 45.9107C82.6592 45.8845 82.4569 45.8695 82.2546 45.8545C81.8088 45.8283 81.378 45.8208 80.9771 45.8058L78.1113 44.6445C78.5122 44.6445 78.943 44.667 79.3888 44.6932C79.5911 44.6932 79.7971 44.7269 79.9994 44.7494C80.1058 44.7632 80.2101 44.7896 80.3103 44.8281V44.8281Z" fill="#CA820B"/>
<path d="M83.8962 37.6804L86.7582 38.8379C86.5335 38.8379 86.4773 38.9129 86.4361 39.1414L83.5703 37.9801C83.6115 37.7516 83.6715 37.6617 83.8962 37.6804Z" fill="#FCDF8F"/>
<path d="M87.1069 38.8641C86.9945 38.8641 86.8784 38.8641 86.7585 38.8379L83.8965 37.6803L84.2411 37.7065L87.1069 38.8641Z" fill="#FCDF8F"/>
<path d="M83.1763 45.9893C83.4102 46.0843 83.6064 46.2534 83.735 46.4706C83.8635 46.6878 83.9173 46.9411 83.8881 47.1918L81.3595 46.1691L81.0261 46.0305C81.0537 45.7795 80.9989 45.5264 80.8698 45.3094C80.7407 45.0924 80.5443 44.9234 80.3105 44.828L83.1763 45.9893Z" fill="#FCDF8F"/>
<path d="M83.5699 37.9764L86.4357 39.1377C86.3083 40.4489 86.1734 41.6889 86.0611 43L83.1953 41.8387C83.3077 40.5313 83.4463 39.2913 83.5699 37.9764Z" fill="#FCDF8F"/>
<path d="M83.3314 43.2208C82.5822 43.1759 81.8329 43.1984 81.1062 43.1609L78.5776 42.1345L78.2441 41.9996C78.9934 42.0371 79.7426 41.9996 80.4656 42.0633L83.3127 43.2171L82.9793 43.0822L82.6271 42.9399L82.2525 42.79L81.8779 42.6402L81.5033 42.4903L81.1287 42.3405L80.7541 42.1981L80.4244 42.0633C81.2186 42.1082 82.009 42.0633 82.8444 42.1345C83.028 42.1345 83.0842 42.052 83.1254 41.8273L85.9912 42.9886C85.9499 43.2133 85.8938 43.307 85.7064 43.292C84.9085 43.2583 84.1331 43.2808 83.3314 43.2208Z" fill="#FCDF8F"/>
<path d="M77.1951 58.8311L80.0571 59.9924C79.8473 60.0448 79.7761 60.0598 79.7349 60.2958L76.8691 59.1345C76.9103 58.8985 76.9815 58.8835 77.1951 58.8311Z" fill="#FCDF8F"/>
<path d="M76.8677 59.1344L79.7335 60.2957C79.5911 60.9288 79.3964 61.6555 79.1941 62.3785L76.332 61.2172C76.5306 60.4942 76.7291 59.7675 76.8677 59.1344Z" fill="#FCDF8F"/>
<path d="M76.3328 61.2023L79.1949 62.3636C79.0937 62.6895 79.0488 62.9292 78.9439 63.2514L76.0781 62.0939C76.1868 61.7829 76.2279 61.5432 76.3328 61.2023Z" fill="#FCDF8F"/>
<path d="M87.1065 38.8641L84.252 37.7103C84.8438 37.7478 85.3983 37.7515 86.0014 37.7403L88.8635 38.9016C88.2641 38.9016 87.7096 38.9016 87.1178 38.8716L87.1065 38.8641Z" fill="#FCDF8F"/>
<path d="M86.1217 37.7667L88.9875 38.928C88.9465 38.9123 88.9037 38.9023 88.8601 38.898L85.998 37.7367C86.0405 37.7405 86.0822 37.7506 86.1217 37.7667V37.7667Z" fill="#FCDF8F"/>
<path d="M86.1211 37.7665L88.9869 38.9278C89.0805 38.9652 89.0768 39.0364 89.0393 39.16L86.1735 37.9987C86.211 37.8751 86.2185 37.8039 86.1211 37.7665Z" fill="#CA820B"/>
<path d="M78.7837 58.8535L81.6457 60.0148C81.1855 60.0466 80.7236 60.0466 80.2634 60.0148H80.0574L77.1953 58.8535H77.3976C77.859 58.8853 78.3222 58.8853 78.7837 58.8535V58.8535Z" fill="#FCDF8F"/>
<path d="M86.1745 37.9988L89.0403 39.1601C88.9054 40.4001 88.7743 41.7149 88.6394 42.9549L85.7773 41.7936C85.9122 40.5536 86.0321 39.2425 86.1745 37.9988Z" fill="#CA820B"/>
<path d="M85.7759 41.7936L88.6379 42.9549C88.655 43.0584 88.6434 43.1647 88.6042 43.2621L85.7422 42.1008C85.7776 42.0025 85.7891 41.8972 85.7759 41.7936V41.7936Z" fill="#CA820B"/>
<path d="M81.0258 46.0304L83.8879 47.1917C83.5132 51.2075 83.0674 55.1635 82.6179 59.1156L79.7559 57.9543C80.2054 54.0022 80.6549 50.0462 81.0258 46.0304Z" fill="#FCDF8F"/>
<path d="M79.7572 57.9545L82.6192 59.1158C82.6226 59.2413 82.5991 59.366 82.5503 59.4817C82.5015 59.5974 82.4286 59.7013 82.3363 59.7864C82.2441 59.8716 82.1347 59.936 82.0155 59.9754C81.8963 60.0148 81.7701 60.0282 81.6453 60.0148L78.7832 58.8535C78.9079 58.8663 79.0339 58.8524 79.1528 58.8128C79.2717 58.7732 79.3809 58.7087 79.473 58.6237C79.5651 58.5387 79.638 58.435 79.687 58.3196C79.736 58.2043 79.76 58.0798 79.7572 57.9545V57.9545Z" fill="#FCDF8F"/>
<path d="M88.1967 37.9988L91.0587 39.1601L90.9576 40.0929L88.0918 38.9316L88.1967 37.9988Z" fill="#FCDF8F"/>
<path d="M85.6563 45.4685L88.5221 46.6298H88.4846C88.2973 46.6298 88.2411 46.7084 88.1999 46.9295L85.3379 45.7682C85.3754 45.5471 85.4315 45.4572 85.6189 45.4685H85.6563Z" fill="#CA820B"/>
<path d="M89.9154 43.2958C89.4771 43.2958 89.0238 43.2958 88.6042 43.2621L85.7422 42.1008C86.158 42.1008 86.6113 42.1233 87.0496 42.1345L89.9154 43.2958Z" fill="#FCDF8F"/>
<path d="M89.9166 43.2958H89.8679L89.7705 43.2546L89.7218 43.2358L89.6169 43.1946L89.512 43.1497L89.4596 43.1309L89.3547 43.086L89.2535 43.0448L89.1561 43.0073L88.9913 42.9399L88.744 42.8387L88.4818 42.7338L88.2158 42.6252L87.9461 42.5166L87.6764 42.4079L87.4179 42.303L87.1669 42.2019L87.0508 42.1532H87.5528L90.4185 43.3145L89.9166 43.2958Z" fill="#FCDF8F"/>
<path d="M87.7363 41.8834L90.602 43.0447C90.5421 43.1346 90.4859 43.2957 90.4185 43.3107L87.5527 42.1494C87.6239 42.1344 87.6764 41.9733 87.7363 41.8834Z" fill="#FCDF8F"/>
<path d="M90.9572 40.0929C90.7961 41.1118 90.6912 42.0371 90.5826 43.0448L87.7168 41.8835C87.8105 40.8796 87.9116 39.9543 88.0914 38.9391L90.946 40.0966L90.6125 39.9618L90.2604 39.8194L89.8858 39.6696L89.5112 39.5197L88.0839 38.9391L90.9572 40.0929Z" fill="#FCDF8F"/>
<path d="M85.3275 45.7457L88.1896 46.907C88.0285 48.5328 87.8562 50.0837 87.6277 51.7208L84.7656 50.5595C84.9941 48.9224 85.1665 47.3715 85.3275 45.7457Z" fill="#CA820B"/>
<path d="M87.7368 51.9606L84.8748 50.8031C84.8498 50.797 84.8265 50.7852 84.8067 50.7688C84.7869 50.7523 84.7712 50.7315 84.7607 50.708C84.7503 50.6845 84.7453 50.6589 84.7462 50.6331C84.7471 50.6074 84.754 50.5823 84.7661 50.5596L87.6282 51.7209C87.616 51.7433 87.6091 51.7682 87.6082 51.7937C87.6072 51.8192 87.6122 51.8446 87.6228 51.8678C87.6333 51.8911 87.6491 51.9115 87.6689 51.9276C87.6887 51.9438 87.7119 51.955 87.7368 51.9606V51.9606Z" fill="#CA820B"/>
<path d="M87.7351 51.9607L84.873 50.8031L84.9367 50.8256L87.8025 51.9831C87.779 51.979 87.7563 51.9715 87.7351 51.9607Z" fill="#FCDF8F"/>
<path d="M85.1436 50.833L88.0094 51.9943H87.8033L84.9375 50.8368L85.1436 50.833Z" fill="#FCDF8F"/>
<path d="M73.9654 41.4602L73.8043 41.3965L73.6357 41.3291L73.4596 41.2579L73.2798 41.183L73.1 41.1118L72.9277 41.0406L72.7554 40.9732L72.5981 40.9058L71.8488 40.6023L71.654 40.5237L71.4592 40.445L71.2757 40.3701L71.0996 40.2989C72.7118 38.2719 74.6684 36.5448 76.8799 35.1967C80.2461 33.1191 84.1687 32.124 88.1183 32.3459C89.5786 32.441 91.0217 32.7153 92.4151 33.1625L95.2771 34.3238C93.885 33.8766 92.4431 33.6023 90.9841 33.5072C87.0345 33.2853 83.1119 34.2804 79.7457 36.358C77.5327 37.7039 75.5757 39.4314 73.9654 41.4602V41.4602Z" fill="#FFD000"/>
<path d="M85.3393 50.848L88.2014 52.0093H88.0103L85.1445 50.848H85.3393Z" fill="#FCDF8F"/>
<path d="M91.2504 38.9653C91.0893 38.9653 91.0443 39.0327 91.0593 39.1601L88.1973 37.9988C88.1973 37.8714 88.2235 37.789 88.3883 37.804L88.6655 37.8265C89.2574 37.8639 89.8493 37.8639 90.6098 37.9314L93.4755 39.0927C92.7263 39.0252 92.1232 39.0252 91.5313 38.9878L91.2504 38.9653Z" fill="#FCDF8F"/>
<path d="M93.4743 39.1002L93.3095 39.0365L92.9686 38.8979L92.594 38.7518L92.2194 38.6019L91.8448 38.4521L91.4702 38.3022L91.0956 38.1561L90.7547 38.0175L90.5898 37.9539L93.4556 39.1152L93.4743 39.1002Z" fill="#FCDF8F"/>
<path d="M90.6383 37.9052L93.504 39.0665C93.533 40.0378 93.4842 41.0099 93.358 41.9734L90.4922 40.8121C90.6203 39.8488 90.6691 38.8765 90.6383 37.9052V37.9052Z" fill="#CA820B"/>
<path d="M93.6514 39.1001H93.4791L90.6133 37.9388H90.7856L93.6514 39.1001Z" fill="#FCDF8F"/>
<path d="M85.7387 50.8706L88.6045 52.0282C88.4584 52.0282 88.3273 52.0282 88.1999 52.0282L85.3379 50.8669C85.4653 50.8594 85.5926 50.8669 85.7387 50.8706Z" fill="#FCDF8F"/>
<path d="M81.1616 62.3262L84.0237 63.4875C82.3566 63.4088 80.6858 63.3301 78.9439 63.2664L76.0781 62.1089C77.8201 62.1688 79.4908 62.2475 81.1616 62.3262Z" fill="#CA820B"/>
<path d="M84.7645 53.5078L87.6303 54.6654H87.5929C87.4093 54.6654 87.4168 54.7291 87.3756 54.9538L84.5098 53.7925C84.551 53.5715 84.5435 53.4929 84.7271 53.5041L84.7645 53.5078Z" fill="#CA820B"/>
<path d="M84.0227 63.4875C84.0452 63.6336 83.9815 63.7235 83.9928 63.7984L81.127 62.6371C81.127 62.5622 81.1794 62.4723 81.1607 62.3262L83.3334 63.2103L83.5357 63.2927L83.6481 63.3339C83.6598 63.3438 83.6741 63.3503 83.6893 63.3526L84.0227 63.4875Z" fill="#FCDF8F"/>
<path d="M84.5099 53.7925L87.3757 54.9538C87.327 55.703 87.1959 56.426 87.1472 57.2015L84.2852 56.0402C84.3339 55.2685 84.4612 54.5567 84.5099 53.7925Z" fill="#CA820B"/>
<path d="M95.2878 34.3239L95.1904 34.2827L95.0856 34.2415L94.9769 34.1965L94.8645 34.1516L94.7559 34.1066L94.6473 34.0617L94.5424 34.0205L94.445 33.9793L94.3288 33.9343L94.0853 33.8332L93.8306 33.732L93.5646 33.6234L93.3024 33.5185L93.0402 33.4098L92.7854 33.3087L92.5419 33.2075L92.4258 33.1626C92.8416 33.2937 93.2499 33.4436 93.6545 33.6084L96.5203 34.7697C96.1157 34.6049 95.7037 34.455 95.2878 34.3239Z" fill="#FFD000"/>
<path d="M88.788 45.7271L91.6538 46.8884C91.1262 46.7826 90.5916 46.715 90.0542 46.6861C89.5485 46.6524 89.039 46.6374 88.5108 46.6112L85.6562 45.4686C86.1882 45.4949 86.6977 45.5098 87.1997 45.5435C87.7328 45.5665 88.2636 45.6279 88.788 45.7271Z" fill="#CA820B"/>
<path d="M90.4938 40.8123L93.3596 41.9736C93.343 42.3653 93.2942 42.7549 93.2135 43.1386L90.3477 41.9773C90.4285 41.5937 90.4774 41.204 90.4938 40.8123V40.8123Z" fill="#CA820B"/>
<path d="M73.0026 68.5709C74.9527 71.1488 77.5616 73.1534 80.5548 74.3737L77.689 73.2124C74.6958 71.9921 72.0869 69.9875 70.1368 67.4096C67.7127 64.1812 66.2938 60.3101 66.0573 56.2799C65.8638 53.2734 66.2622 50.2583 67.2298 47.4053L70.0956 48.5628C69.1282 51.4172 68.7298 54.4335 68.923 57.4412C69.1596 61.4714 70.5785 65.3425 73.0026 68.5709V68.5709Z" fill="#FFD000"/>
<path d="M93.3103 43.4232L90.4445 42.2619C90.3471 42.2207 90.3171 42.1457 90.3471 41.9772L93.2129 43.1385C93.1829 43.3033 93.2129 43.382 93.3103 43.4232Z" fill="#CA820B"/>
<path d="M81.1287 62.6371L83.9945 63.7984C83.7885 65.0533 83.6573 66.3645 83.5337 67.6794L80.668 66.5218C80.7878 65.2069 80.9227 63.892 81.1287 62.6371Z" fill="#FCDF8F"/>
<path d="M83.5103 67.7656L83.4466 67.7393L83.3755 67.7094L83.3043 67.6832L83.2331 67.6532L83.1582 67.6232L83.087 67.5932L83.0196 67.567L82.9522 67.5408L82.6824 67.4322L82.3977 67.316L82.1018 67.1962L81.7983 67.0725L81.4987 66.9489L81.199 66.829L80.9142 66.7129L80.6445 66.6043C80.6445 66.578 80.6446 66.5518 80.667 66.5219L83.5328 67.6794C83.5227 67.7074 83.5152 67.7362 83.5103 67.7656V67.7656Z" fill="#FCDF8F"/>
<path d="M93.3092 43.4233L90.4434 42.262C90.4944 42.2791 90.5471 42.2904 90.6007 42.2957L93.4665 43.457C93.4129 43.4517 93.3602 43.4404 93.3092 43.4233V43.4233Z" fill="#FCDF8F"/>
<path d="M83.5108 67.7657C83.5056 67.7804 83.5033 67.7961 83.5043 67.8117C83.5052 67.8273 83.5094 67.8426 83.5164 67.8566C83.5234 67.8706 83.5331 67.883 83.545 67.8931C83.557 67.9033 83.5708 67.9109 83.5857 67.9155L80.7237 66.7542C80.7084 66.75 80.6942 66.7426 80.6818 66.7327C80.6695 66.7227 80.6594 66.7103 80.652 66.6963C80.6446 66.6823 80.6402 66.6669 80.639 66.6511C80.6378 66.6352 80.6399 66.6194 80.645 66.6044L83.5108 67.7657Z" fill="#FCDF8F"/>
<path d="M83.5847 67.9154L80.7227 66.7542C80.7621 66.7703 80.8038 66.7804 80.8463 66.7841L83.7084 67.9454C83.6663 67.9394 83.6249 67.9294 83.5847 67.9154V67.9154Z" fill="#CA820B"/>
<path d="M84.2866 56.0328L87.1486 57.1941C86.995 58.288 86.9126 59.3631 86.774 60.5319L83.9082 59.3706C84.0468 58.2056 84.1292 57.1267 84.2866 56.0328Z" fill="#CA820B"/>
<path d="M89.4409 45.9293L92.3067 47.0906C92.0952 47.0057 91.8772 46.938 91.6549 46.8884L88.7891 45.7271C89.0114 45.7767 89.2294 45.8444 89.4409 45.9293V45.9293Z" fill="#CA820B"/>
<path d="M83.9977 59.3817L86.8598 60.543C86.84 60.5391 86.8197 60.5391 86.7999 60.543H86.7661L83.9004 59.3817H83.9341C83.9551 59.3778 83.9767 59.3778 83.9977 59.3817V59.3817Z" fill="#FCDF8F"/>
<path d="M83.9961 59.3817L86.8581 60.543C86.8784 60.5498 86.8974 60.5599 86.9143 60.573L84.0485 59.4117C84.0327 59.3991 84.015 59.389 83.9961 59.3817V59.3817Z" fill="#CA820B"/>
<path d="M93.4408 47.9223L90.575 46.761C90.284 46.3856 89.8952 46.0979 89.4512 45.9293L92.317 47.0906C92.7605 47.26 93.1492 47.5476 93.4408 47.9223Z" fill="#FCDF8F"/>
<path d="M91.7415 51.7059C90.706 51.8921 89.6578 51.9998 88.606 52.0281L85.7402 50.8705C86.7934 50.8409 87.8427 50.7319 88.8795 50.5446C89.1376 50.4593 89.3882 50.3527 89.6287 50.2262L92.1574 51.2526L92.4908 51.3875C92.2508 51.5153 92.0001 51.6219 91.7415 51.7059V51.7059Z" fill="#FCDF8F"/>
<path d="M83.0522 66.8215L85.9142 67.9828L85.6145 67.9604C84.9777 67.9192 84.3446 67.9266 83.7078 67.9379L80.8457 66.7766C81.4788 66.7766 82.1119 66.7579 82.7487 66.7991L83.0522 66.8215Z" fill="#CA820B"/>
<path d="M83.7835 62.4236L86.6456 63.5849C86.5894 64.2779 86.4583 64.9859 86.3983 65.679C86.3384 66.372 86.2148 67.0838 86.1548 67.7768L83.2891 66.6155C83.349 65.9225 83.4801 65.2107 83.5363 64.5177C83.5925 63.8246 83.7124 63.1166 83.7835 62.4236Z" fill="#CA820B"/>
<path d="M83.2775 66.6155L86.1433 67.7768C86.0946 67.9266 86.0983 68.0015 85.9147 67.9903L83.0527 66.829C83.2363 66.8402 83.2288 66.7653 83.2775 66.6155Z" fill="#CA820B"/>
<path d="M93.0553 42.8801L95.9211 44.0414L93.4673 43.457L90.6016 42.2957L93.0553 42.8801Z" fill="#FCDF8F"/>
<path d="M93.2421 50.8293C93.0336 51.065 92.7785 51.2551 92.4929 51.3874L89.6309 50.2261C89.9166 50.094 90.1717 49.904 90.3801 49.668L93.2421 50.8293Z" fill="#FCDF8F"/>
<path d="M93.2429 50.8293H93.2092H93.1755H93.138H93.1006H93.0594H93.0219H92.9882H92.9544L92.6548 50.7094L92.3326 50.5783L92.0029 50.4434L91.6658 50.3086L91.3286 50.17L90.999 50.0388L90.6806 49.9077L90.3809 49.7879L90.4483 49.7054L93.3104 50.8667C93.2872 50.8556 93.2646 50.8431 93.2429 50.8293V50.8293Z" fill="#FCDF8F"/>
<path d="M95.92 44.0412L95.0471 43.6666L94.8636 43.5917L94.489 43.4419L94.3017 43.3669L93.927 43.2133L93.5524 43.0672L93.3764 42.9961L93.043 42.8612L93.1853 42.9174L96.0511 44.0787L95.92 44.0412Z" fill="#FCDF8F"/>
<path d="M93.4421 47.9223C93.7372 48.3407 93.8846 48.8456 93.8608 49.3571C93.8371 49.8686 93.6436 50.3576 93.311 50.7469L92.9776 50.612L92.603 50.4697L92.2283 50.3198L91.8537 50.1662L91.4791 50.0164L91.1045 49.8665L90.7299 49.7242L90.3965 49.5856C90.7286 49.1959 90.9213 48.7066 90.9444 48.1951C90.9675 47.6836 90.8195 47.179 90.5238 46.761C91.4379 47.1094 92.7004 47.3641 93.4421 47.9223Z" fill="#FCDF8F"/>
<path d="M85.5809 62.4685L88.4466 63.6298C87.866 63.6298 87.2854 63.5886 86.6335 63.5849L83.7715 62.4236C84.4196 62.4273 85.0002 62.4498 85.5809 62.4685Z" fill="#CA820B"/>
<path d="M89.0737 53.9012L91.9395 55.0625C91.2637 54.8508 90.5639 54.7249 89.8566 54.6879C89.1074 54.643 88.3582 54.658 87.6314 54.6655L84.7656 53.5079C85.5149 53.5079 86.2641 53.4817 86.9909 53.5304C87.6982 53.564 88.3982 53.6887 89.0737 53.9012V53.9012Z" fill="#CA820B"/>
<path d="M85.612 62.4797L88.474 63.641H88.4478L85.582 62.4797H85.612Z" fill="#CA820B"/>
<path d="M85.6113 62.4797L88.4734 63.641C88.5895 63.686 88.537 63.7722 88.552 63.907L85.69 62.7495C85.675 62.6109 85.7237 62.5247 85.6113 62.4797Z" fill="#FCDF8F"/>
<path d="M89.299 53.9909L92.161 55.1522L91.94 55.0623L89.0742 53.901L89.299 53.9909Z" fill="#CA820B"/>
<path d="M87.6528 59.3593L90.5186 60.5205C89.3219 60.6557 88.1149 60.6732 86.9148 60.573L84.0527 59.4117C85.2516 59.5119 86.4573 59.4944 87.6528 59.3593V59.3593Z" fill="#FCDF8F"/>
<path d="M85.6912 62.7495L88.5533 63.9071C88.3472 65.1658 88.2199 66.4769 88.0963 67.7918L85.2305 66.6305C85.3578 65.3231 85.4852 64.0045 85.6912 62.7495Z" fill="#FCDF8F"/>
<path d="M88.1485 68.0277L85.2865 66.8664C85.1853 66.8252 85.1891 66.754 85.2303 66.6304L88.0961 67.7917C88.0549 67.9153 88.0511 67.9865 88.1485 68.0277Z" fill="#FCDF8F"/>
<path d="M88.1472 68.0278L85.2852 66.8665C85.3254 66.8793 85.3668 66.8881 85.4088 66.8927L88.2708 68.054C88.2288 68.0494 88.1874 68.0406 88.1472 68.0278V68.0278Z" fill="#CA820B"/>
<path d="M93.5807 56.0551L90.7149 54.8938C90.325 54.4801 89.8384 54.1698 89.2988 53.991L92.1609 55.1523C92.702 55.3301 93.1901 55.6405 93.5807 56.0551V56.0551Z" fill="#FCDF8F"/>
<path d="M93.2012 42.936L96.067 44.0973C96.7867 44.3863 97.4348 44.8286 97.9662 45.3935L95.1004 44.2359C94.5706 43.6683 93.9221 43.2245 93.2012 42.936V42.936Z" fill="#CA820B"/>
<path d="M90.0181 58.6025L92.8839 59.7638C92.1616 60.1865 91.354 60.4425 90.5201 60.5131L87.6543 59.3518C88.4882 59.2812 89.2958 59.0252 90.0181 58.6025V58.6025Z" fill="#FCDF8F"/>
<path d="M88.6284 62.5434L91.4904 63.7047C91.4447 63.6984 91.3982 63.7017 91.3539 63.7145C91.3096 63.7272 91.2685 63.7492 91.2332 63.7788C91.1979 63.8085 91.1692 63.8452 91.149 63.8866C91.1287 63.9281 91.1174 63.9733 91.1158 64.0194L88.25 62.8581C88.2522 62.8118 88.2639 62.7665 88.2846 62.7251C88.3052 62.6836 88.3342 62.647 88.3698 62.6174C88.4054 62.5877 88.4468 62.5659 88.4913 62.5531C88.5358 62.5404 88.5825 62.5371 88.6284 62.5434V62.5434Z" fill="#CA820B"/>
<path d="M93.5792 56.0552C93.8016 56.3237 93.9597 56.6394 94.0415 56.9783C94.1233 57.3172 94.1266 57.6703 94.0512 58.0107L93.7178 57.8721L93.3432 57.7297L92.9686 57.5799L92.594 57.43L92.2193 57.2765L91.8447 57.1266L91.4888 56.9843L91.1555 56.8494C91.2295 56.5087 91.2252 56.1556 91.1428 55.8169C91.0604 55.4781 90.902 55.1625 90.6797 54.8939C91.5713 55.2423 92.8187 55.527 93.5792 56.0552Z" fill="#FCDF8F"/>
<path d="M94.0522 58.0107C93.9944 58.3696 93.8601 58.7119 93.6584 59.0144C93.4568 59.3169 93.1925 59.5725 92.8834 59.7639L90.0176 58.6026C90.327 58.4112 90.5918 58.1557 90.7941 57.8532C90.9964 57.5508 91.1314 57.2085 91.1901 56.8494L94.0522 58.0107Z" fill="#FCDF8F"/>
<path d="M93.7325 51.2712L96.5945 52.4325C96.5233 52.4325 96.4634 52.5374 96.3248 52.5674L93.459 51.4061C93.6013 51.3761 93.6613 51.2862 93.7325 51.2712Z" fill="#CA820B"/>
<path d="M87.4368 66.9676L90.3026 68.1289C89.6508 68.1289 88.924 68.0577 88.2722 68.054L85.4102 66.8927C86.0582 66.9002 86.7813 66.9639 87.4368 66.9676Z" fill="#CA820B"/>
<path d="M96.6507 52.7136L93.7849 51.5523C93.6736 51.5099 93.5647 51.4611 93.459 51.4062L96.3248 52.5675C96.4305 52.6224 96.5394 52.6712 96.6507 52.7136V52.7136Z" fill="#CA820B"/>
<path d="M90.7146 54.8939C91.6324 55.8978 91.2952 57.8645 90.0178 58.6025C89.2955 59.0252 88.4879 59.2812 87.654 59.3518C86.4586 59.4869 85.2528 59.5044 84.0539 59.4042C84.0176 59.381 83.9768 59.3657 83.9341 59.3593H83.9004C84.0465 58.1905 84.1289 57.1116 84.275 56.0215C84.3237 55.2722 84.4511 54.5455 84.4998 53.7738C84.541 53.5528 84.5335 53.4741 84.717 53.4853H84.7545C85.5037 53.4853 86.2529 53.4591 86.9797 53.5078C87.6872 53.5426 88.3872 53.6686 89.0625 53.8824C89.6905 54.0731 90.2592 54.4213 90.7146 54.8939V54.8939Z" fill="#EBA500"/>
<path d="M88.2297 62.8582L91.0955 64.0195C90.9607 65.2594 90.8295 66.5706 90.6947 67.8105C90.6684 68.069 90.6684 68.1627 90.4587 68.1514L90.3013 68.129L87.4355 66.9677L87.5967 66.9901C87.8064 66.9901 87.8027 66.9077 87.8327 66.653C87.9675 65.4093 88.0949 64.0981 88.2297 62.8582Z" fill="#CA820B"/>
<path d="M96.9132 52.8184L96.651 52.7135L93.7852 51.5522L94.0512 51.6609L96.9132 52.8184Z" fill="#FCDF8F"/>
<path d="M95.1016 44.2361L97.9674 45.3936C98.3287 45.8695 98.5903 46.4133 98.7364 46.9927C98.8825 47.572 98.9102 48.1749 98.8177 48.7652L95.9519 47.6039C96.0445 47.0142 96.0169 46.4118 95.8708 45.8331C95.7246 45.2544 95.463 44.7111 95.1016 44.2361V44.2361Z" fill="#CA820B"/>
<path d="M95.9501 47.6001L98.8159 48.7614C98.7455 49.6024 98.4744 50.4143 98.0255 51.129C97.6369 51.6517 97.151 52.0943 96.5944 52.4326L93.7324 51.2713C94.2886 50.9339 94.7734 50.4911 95.1597 49.9676C95.6098 49.2536 95.881 48.4414 95.9501 47.6001V47.6001Z" fill="#CA820B"/>
<path d="M92.9275 61.7268L95.7933 62.8881C94.4089 63.3795 92.9571 63.6549 91.489 63.7048L88.627 62.5435C90.0939 62.4939 91.5445 62.2185 92.9275 61.7268V61.7268Z" fill="#CA820B"/>
<path d="M94.0527 51.661L96.9148 52.8186C97.0234 52.8635 97.1321 52.9085 97.2407 52.9647C98.1428 53.4057 98.8528 54.1611 99.2374 55.0887L96.3716 53.9274C95.9872 53.0018 95.2787 52.248 94.3786 51.8071C94.2663 51.7522 94.1576 51.7035 94.0527 51.661Z" fill="#CA820B"/>
<path d="M96.3704 53.9274L99.2362 55.0887C99.4678 55.9119 99.5252 56.7744 99.4048 57.6211C99.2872 58.6702 98.9706 59.6874 98.472 60.618C97.8808 61.6668 96.9291 62.4655 95.7935 62.8656L92.9277 61.7043C94.0643 61.3044 95.0173 60.5058 95.6099 59.4567C96.1075 58.5259 96.4228 57.5087 96.539 56.4598C96.6595 55.6131 96.602 54.7506 96.3704 53.9274V53.9274Z" fill="#CA820B"/>
<path d="M104.632 46.5138C105.315 49.1754 105.497 51.9407 105.171 54.6691C104.679 58.8482 103.072 62.818 100.518 66.1623C98.0484 69.4282 94.6982 71.922 90.8608 73.3511C88.4151 74.2516 85.8089 74.6343 83.2075 74.4749C81.9394 74.3913 80.6838 74.1741 79.4613 73.8268C75.7461 72.7505 72.479 70.5006 70.1485 67.4135C67.7244 64.1851 66.3054 60.3139 66.0689 56.2837C65.8067 52.0958 66.6817 47.915 68.6013 44.1837C70.4831 40.4799 73.3521 37.3684 76.8915 35.193C80.2578 33.1154 84.1803 32.1204 88.1299 32.3422C90.6744 32.5091 93.1531 33.222 95.3974 34.4325C97.6594 35.6621 99.6346 37.3578 101.193 39.4074C102.8 41.5242 103.969 43.9401 104.632 46.5138V46.5138ZM95.6109 59.4642C96.1084 58.5334 96.4238 57.5163 96.54 56.4673C96.6604 55.6206 96.603 54.7581 96.3714 53.9349C95.987 53.0093 95.2785 52.2555 94.3785 51.8146C94.0675 51.6572 93.7678 51.5711 93.4606 51.4137C93.603 51.3838 93.663 51.2939 93.7341 51.2789C94.2903 50.9415 94.7751 50.4987 95.1614 49.9752C95.6116 49.2612 95.8827 48.449 95.9518 47.6077C96.0449 47.0174 96.0176 46.4144 95.8714 45.835C95.7253 45.2555 95.4633 44.7117 95.1014 44.2362C94.5357 43.6314 93.8366 43.167 93.0598 42.8801L90.6023 42.2957C90.3813 42.2732 90.3064 42.2133 90.3476 41.9772C90.4285 41.5936 90.4774 41.2039 90.4937 40.8122C90.5911 39.8794 90.696 38.9391 90.7859 37.9464C89.9393 37.864 89.2875 37.8677 88.6656 37.8265L88.3884 37.8041C88.2236 37.8041 88.1786 37.8715 88.1973 37.9989L88.0924 38.9316C87.9314 39.9506 87.8302 40.8759 87.7178 41.8836C87.6579 41.9735 87.6054 42.1346 87.5343 42.1496C86.9536 42.1271 86.3056 42.1233 85.7249 42.1009C85.7603 42.0026 85.7719 41.8973 85.7586 41.7937C85.8935 40.5537 86.0208 39.2426 86.1557 37.9989C86.2081 37.834 86.2006 37.7666 85.9796 37.7366C85.3765 37.7366 84.822 37.7366 84.2302 37.7067L83.878 37.6804C83.6533 37.6804 83.5933 37.7516 83.5521 37.9801C83.4285 39.2913 83.2899 40.5312 83.1775 41.8424C83.1363 42.0672 83.0801 42.1608 82.8966 42.1496C82.0537 42.0971 81.2632 42.1233 80.4616 42.0784C79.7123 42.0334 78.9631 42.0522 78.2401 42.0147L78.2626 41.8124C78.1802 41.9061 78.1277 41.9698 78.0903 42.0072H78.2401C78.139 42.8051 78.0453 43.6593 77.9442 44.4497C77.8992 44.5771 77.9442 44.6407 78.0303 44.6445C78.0563 44.6498 78.083 44.6498 78.109 44.6445C78.5098 44.6445 78.9406 44.667 79.3864 44.6932C79.5887 44.6932 79.7948 44.7269 79.9971 44.7494C80.1487 44.7657 80.2957 44.8118 80.4295 44.8851C80.5633 44.9584 80.6813 45.0575 80.7767 45.1765C80.8721 45.2956 80.943 45.4323 80.9854 45.5789C81.0277 45.7255 81.0407 45.879 81.0235 46.0306C80.6489 50.0464 80.2031 54.0023 79.7535 57.9545C79.7563 58.0798 79.7324 58.2043 79.6834 58.3197C79.6344 58.435 79.5615 58.5387 79.4693 58.6237C79.3772 58.7087 79.2681 58.7732 79.1492 58.8128C79.0303 58.8525 78.9043 58.8663 78.7796 58.8536C78.3181 58.8853 77.8549 58.8853 77.3935 58.8536H77.1912C76.9777 58.906 76.9065 58.921 76.8653 59.157C76.7267 59.7901 76.5281 60.5168 76.3296 61.2398C76.2247 61.5658 76.1835 61.8055 76.0749 62.1314C77.8168 62.1914 79.4876 62.27 81.1583 62.3487C81.1583 62.4948 81.1134 62.5847 81.1246 62.6596C80.9186 63.9146 80.7912 65.2295 80.6639 66.5444C80.6114 66.7054 80.6227 66.7766 80.8437 66.8066C81.4768 66.8066 82.1099 66.7879 82.7467 66.8291H83.0127C83.2337 66.8291 83.2262 66.7691 83.2749 66.6193C83.3349 65.9263 83.466 65.2145 83.5222 64.5215C83.5784 63.8284 83.7095 63.1204 83.7694 62.4274C84.4175 62.4274 84.9981 62.4536 85.5788 62.4723C85.7286 62.5173 85.6687 62.6072 85.6874 62.7533C85.4814 64.0082 85.354 65.3194 85.2266 66.6343C85.1742 66.7954 85.1854 66.8703 85.4064 66.8965C86.0545 66.8965 86.7813 66.9677 87.4331 66.9714L87.5942 66.9939C87.804 66.9939 87.8003 66.9115 87.8302 66.6567C87.9651 65.413 88.0924 64.1019 88.2273 62.8619C88.2685 62.6371 88.3921 62.5285 88.6019 62.5435C90.079 62.4999 91.5401 62.2256 92.9325 61.7306C94.0691 61.3306 95.022 60.532 95.6147 59.4829" fill="#EBA500"/>
<path d="M70.1485 67.4135C72.479 70.5006 75.7461 72.7505 79.4613 73.8268C59.2712 60.7453 69.3355 42.6203 76.8915 35.193C73.3521 37.3684 70.4831 40.4799 68.6013 44.1837C66.6817 47.915 65.8067 52.0958 66.0689 56.2837C66.3054 60.3139 67.7244 64.1851 70.1485 67.4135Z" fill="#DF7900"/>
<path d="M79.0163 78.4346L76.1505 77.2733C72.5421 75.8018 69.3936 73.3907 67.0324 70.2906C64.1026 66.4032 62.3839 61.7384 62.0912 56.8794C61.7708 51.8335 62.8274 46.7953 65.1481 42.3032C67.4243 37.8381 70.8928 34.0908 75.169 31.4769C79.2113 28.9888 83.9149 27.7894 88.6551 28.038L91.5209 29.1993C86.7808 28.9514 82.0774 30.1508 78.0348 32.6382C73.7591 35.2532 70.2917 39.0019 68.0177 43.4683C65.6952 47.9597 64.6385 52.9984 64.9608 58.0445C65.2534 62.9034 66.9721 67.5683 69.9019 71.4556C72.2637 74.5527 75.4105 76.9622 79.0163 78.4346V78.4346Z" fill="#FFD000"/>
<path d="M85.1427 50.833H84.9366C84.7905 50.7881 84.7119 50.7281 84.7643 50.567C84.9928 48.93 85.1652 47.3791 85.3263 45.7533C85.3637 45.5322 85.4199 45.4423 85.6072 45.4536H85.6447C86.1766 45.4798 86.6861 45.4948 87.1881 45.5285C87.7255 45.5571 88.2601 45.6247 88.7877 45.7308C89.487 45.8529 90.1202 46.2193 90.5746 46.7647C91.4324 47.8586 90.9305 49.6343 89.6306 50.2299C89.39 50.3564 89.1394 50.4629 88.8813 50.5483C87.8446 50.7356 86.7952 50.8446 85.7421 50.8742C85.596 50.8742 85.4686 50.8742 85.3413 50.8517L85.1427 50.833Z" fill="#EBA500"/>
<path d="M95.4863 29.5851L98.3521 30.7464C101.954 32.2166 105.097 34.6237 107.455 37.7179L104.589 36.5566C102.233 33.4607 99.0894 31.0532 95.4863 29.5851V29.5851Z" fill="#FFF3A5"/>
<path d="M93.6543 33.6084L96.5201 34.7697C97.1191 35.0123 97.7044 35.2874 98.2733 35.5938C100.535 36.8211 102.509 38.5157 104.065 40.565C105.669 42.6859 106.835 45.1057 107.493 47.6826L104.63 46.5213C103.972 43.9445 102.807 41.5248 101.203 39.4037C99.6411 37.3542 97.6619 35.6598 95.3963 34.4325C94.8317 34.1251 94.2501 33.8499 93.6543 33.6084V33.6084Z" fill="#FCDF8F"/>
<path d="M80.5553 74.3737L77.6895 73.2162C78.2653 73.4491 78.853 73.6517 79.4502 73.823C80.6726 74.1703 81.9283 74.3875 83.1963 74.4711C85.7977 74.6305 88.4038 74.2478 90.8496 73.3473C94.6869 71.9182 98.0371 69.4244 100.507 66.1585C103.061 62.8142 104.668 58.8444 105.16 54.6653C105.486 51.9369 105.303 49.1717 104.62 46.51L107.482 47.6713C108.167 50.3327 108.35 53.0983 108.022 55.8266C107.532 60.0044 105.926 63.9732 103.373 67.316C100.901 70.5824 97.5498 73.0773 93.7117 74.5086C91.2671 75.4088 88.6622 75.7915 86.062 75.6324C84.7937 75.5494 83.5378 75.3309 82.3159 74.9806C81.7184 74.8105 81.1307 74.6079 80.5553 74.3737V74.3737Z" fill="#FCDF8F"/>
<path d="M104.591 36.5567C108.461 41.6028 110.21 48.2184 109.405 54.9502C108.813 59.9861 106.871 64.7684 103.786 68.7922C100.794 72.7301 96.7424 75.7343 92.1052 77.4532C89.1457 78.5363 85.9941 78.9954 82.8486 78.8018C82.2792 78.7644 81.7247 78.7082 81.1516 78.6258C80.1901 78.4869 79.239 78.2842 78.3045 78.0189C73.8142 76.7234 69.8612 74.0145 67.0324 70.2944C64.1026 66.4071 62.3839 61.7422 62.0912 56.8832C61.7708 51.8373 62.8274 46.7991 65.1481 42.3071C67.4237 37.8406 70.8923 34.0919 75.169 31.477C79.2312 28.9811 83.9582 27.784 88.7188 28.0455C91.8207 28.2401 94.8442 29.1011 97.5833 30.5699C100.322 32.0387 102.713 34.0807 104.591 36.5567V36.5567ZM100.519 66.1512C103.073 62.8069 104.68 58.8371 105.172 54.658C105.498 51.9296 105.315 49.1644 104.632 46.5027C103.974 43.9259 102.809 41.5062 101.205 39.3851C99.641 37.3424 97.6619 35.6545 95.3981 34.4327C93.1526 33.2274 90.674 32.5196 88.1306 32.3573C84.181 32.1355 80.2585 33.1305 76.8922 35.2081C73.3528 37.3835 70.4838 40.495 68.602 44.1989C66.6824 47.9301 65.8074 52.111 66.0696 56.2989C66.3062 60.3291 67.7251 64.2002 70.1492 67.4286C72.4797 70.5158 75.7468 72.7657 79.4621 73.842C80.6845 74.1892 81.9401 74.4065 83.2082 74.4901C85.8096 74.6494 88.4158 74.2667 90.8615 73.3662C94.6989 71.9371 98.0491 69.4433 100.519 66.1774" fill="#FFD000"/>
<mask id="mask2_1545_125520" style="mask-type:alpha" maskUnits="userSpaceOnUse" x="62" y="28" width="48" height="51">
<path d="M104.591 36.5566C108.461 41.6027 110.21 48.2183 109.405 54.9501C108.813 59.986 106.871 64.7683 103.786 68.7921C100.794 72.73 96.7424 75.7342 92.1052 77.4531C89.1457 78.5362 85.9941 78.9953 82.8486 78.8017C82.2792 78.7643 81.7247 78.7081 81.1516 78.6257C80.1901 78.4868 79.239 78.2841 78.3045 78.0188C73.8142 76.7232 69.8612 74.0144 67.0324 70.2943C64.1026 66.4069 62.3839 61.7421 62.0912 56.8831C61.7708 51.8372 62.8274 46.799 65.1481 42.3069C67.4237 37.8404 70.8923 34.0918 75.169 31.4769C79.2312 28.981 83.9582 27.7839 88.7188 28.0454C91.8207 28.24 94.8442 29.101 97.5833 30.5698C100.322 32.0386 102.713 34.0806 104.591 36.5566V36.5566ZM100.519 66.1511C103.073 62.8068 104.68 58.837 105.172 54.6579C105.498 51.9295 105.315 49.1642 104.632 46.5026C103.974 43.9258 102.809 41.5061 101.205 39.385C99.641 37.3422 97.6619 35.6543 95.3981 34.4326C93.1526 33.2273 90.674 32.5194 88.1306 32.3572C84.181 32.1354 80.2585 33.1304 76.8922 35.208C73.3528 37.3834 70.4838 40.4949 68.602 44.1987C66.6824 47.93 65.8074 52.1108 66.0696 56.2987C66.3062 60.3289 67.7251 64.2001 70.1492 67.4285C72.4797 70.5156 75.7468 72.7656 79.4621 73.8419C80.6845 74.1891 81.9401 74.4063 83.2082 74.4899C85.8096 74.6493 88.4158 74.2666 90.8615 73.3661C94.6989 71.937 98.0491 69.4432 100.519 66.1773" fill="#FFD000"/>
</mask>
<g mask="url(#mask2_1545_125520)">
<rect x="33.7617" y="68.6071" width="97.3652" height="4.15239" transform="rotate(-30 33.7617 68.6071)" fill="#FFF3A5"/>
<rect x="50.8027" y="81.9441" width="74.7429" height="2.07619" transform="rotate(-30 50.8027 81.9441)" fill="#FFF3A5"/>
<rect x="42.9355" y="69.7039" width="74.743" height="2.07619" transform="rotate(-30 42.9355 69.7039)" fill="#FFF3A5"/>
</g>
<path d="M78.0449 42.0607C78.0449 42.0607 78.0449 42.0378 78.0755 42.0072L78.0449 42.0607Z" fill="#CA820B"/>
<path d="M78.0938 42.0072C78.1312 41.9697 78.1836 41.906 78.2661 41.8124L78.2436 42.0147L78.0938 42.0072Z" fill="#CA820B"/>
<path d="M79.0142 78.4345L76.1484 77.2732C76.8529 77.5604 77.5719 77.8105 78.3025 78.0225C79.237 78.2877 80.1881 78.4905 81.1495 78.6293C81.7114 78.7118 82.2734 78.7679 82.8465 78.8054C85.9921 78.999 89.1436 78.5398 92.1032 77.4568C96.7403 75.7379 100.792 72.7337 103.784 68.7957C106.869 64.772 108.811 59.9896 109.403 54.9538C110.19 48.2108 108.459 41.6063 104.589 36.5603L107.455 37.7216C111.321 42.7676 113.074 49.3833 112.269 56.1151C111.677 61.1499 109.735 65.9312 106.649 69.9533C103.661 73.8941 99.6104 76.9001 94.9727 78.6181C92.012 79.7016 88.8591 80.1608 85.7123 79.9667C85.1467 79.9292 84.5885 79.8693 84.0153 79.7906C83.0513 79.6523 82.0977 79.4495 81.1608 79.1838C80.4323 78.9727 79.7158 78.7226 79.0142 78.4345Z" fill="#E48203"/>
<path d="M78.9146 78.4345L76.0488 77.2732C76.7418 77.5604 77.4496 77.8105 78.1692 78.0224C79.1419 78.3015 80.1335 78.5106 81.1361 78.648L83.9981 79.8093C82.9967 79.6719 82.0065 79.4628 81.0349 79.1837C80.3152 78.9724 79.6074 78.7223 78.9146 78.4345V78.4345Z" fill="#BC6C03"/>
<path d="M88.6537 28.0378C83.9135 27.7893 79.2099 28.9887 75.1676 31.4768C70.8909 34.0917 67.4223 37.8404 65.1467 42.3069C62.8261 46.7989 61.7695 51.8371 62.0899 56.883C62.3825 61.742 64.1012 66.4069 67.0311 70.2942C69.8599 74.0143 73.8128 76.7232 78.3031 78.0187C79.2376 78.284 80.1888 78.4867 81.1502 78.6256C80.1476 78.4881 79.1561 78.279 78.1833 78C73.7022 76.7065 69.7598 73.9981 66.9449 70.2792C64.0343 66.387 62.334 61.724 62.0562 56.8718C61.7359 51.8279 62.7897 46.7916 65.1055 42.2994C67.3692 37.8387 70.8232 34.0916 75.0852 31.473C79.1493 28.965 83.8858 27.7658 88.6537 28.0378V28.0378Z" fill="#FFD000"/>
<path d="M97.1189 54.6766C97.3505 55.4998 97.408 56.3623 97.2875 57.209C97.1713 58.2579 96.856 59.2751 96.3585 60.2059C95.7658 61.255 94.8129 62.0536 93.6763 62.4535C92.2932 62.9452 90.8427 63.2207 89.3757 63.2702C89.3285 63.261 89.2798 63.2621 89.233 63.2735C89.1862 63.2848 89.1424 63.3062 89.1047 63.3361C89.067 63.366 89.0362 63.4037 89.0144 63.4467C88.9926 63.4896 88.9804 63.5368 88.9786 63.5849C88.8437 64.8248 88.7164 66.136 88.5815 67.3797C88.5516 67.6344 88.5553 67.7281 88.3455 67.7169L88.1844 67.6944C87.5326 67.6944 86.8058 67.627 86.1577 67.6195C85.9367 67.5932 85.9255 67.5183 85.9779 67.3572C86.1053 66.0423 86.2327 64.7349 86.4387 63.4762C86.4387 63.3301 86.4799 63.2402 86.3301 63.1953C85.7495 63.1953 85.1688 63.1541 84.5207 63.1503C84.4608 63.8434 84.3334 64.5514 84.2735 65.2444C84.2135 65.9374 84.0862 66.6492 84.0262 67.3422C83.9775 67.4921 83.985 67.567 83.8015 67.5558L83.498 67.5333C82.8612 67.4921 82.2281 67.4996 81.595 67.5108C81.374 67.4808 81.3627 67.4097 81.4152 67.2486C81.5425 65.9337 81.6699 64.6263 81.8759 63.3639C81.8759 63.2889 81.9284 63.199 81.9096 63.0529C80.2389 62.9743 78.5681 62.8956 76.8262 62.8357C76.9348 62.5097 76.976 62.27 77.0809 61.9441C77.2794 61.2211 77.478 60.4943 77.6166 59.8612C77.6578 59.6252 77.729 59.6102 77.9425 59.5578H78.1448C78.6062 59.5896 79.0694 59.5896 79.5309 59.5578C79.6556 59.5706 79.7815 59.5567 79.9004 59.5171C80.0194 59.4774 80.1285 59.413 80.2206 59.3279C80.3128 59.2429 80.3857 59.1393 80.4347 59.0239C80.4837 58.9085 80.5076 58.784 80.5049 58.6587C80.9544 54.7065 81.4039 50.7506 81.7748 46.7348C81.792 46.5832 81.779 46.4297 81.7366 46.2831C81.6943 46.1366 81.6233 45.9998 81.5279 45.8808C81.4326 45.7617 81.3146 45.6627 81.1808 45.5894C81.047 45.5161 80.9 45.4699 80.7484 45.4536C80.5461 45.4311 80.34 45.4124 80.1377 45.3974C79.6919 45.3712 79.2611 45.3637 78.8603 45.3487C78.8343 45.3541 78.8076 45.3541 78.7816 45.3487C78.6917 45.3487 78.6505 45.2813 78.6955 45.1539C78.7966 44.3635 78.8903 43.5094 78.9914 42.7114C79.7406 42.7489 80.4899 42.7114 81.2129 42.7751C82.0145 42.8201 82.805 42.7751 83.6067 42.8426C83.8314 42.8426 83.8876 42.7639 83.9288 42.5391C84.0562 41.228 84.1948 39.988 84.3034 38.6769C84.3446 38.4483 84.4046 38.3584 84.5956 38.3734L84.9703 38.4034C85.5621 38.4409 86.1165 38.4446 86.7197 38.4334C86.9407 38.4633 86.9482 38.5308 86.8958 38.6956C86.7609 39.9393 86.6335 41.2504 86.4987 42.4904C86.5119 42.594 86.5004 42.6993 86.465 42.7976C87.0456 42.8201 87.6937 42.8238 88.2743 42.8463C88.3455 42.8463 88.3979 42.6702 88.4579 42.5803C88.5515 41.5726 88.6527 40.6473 88.8325 39.6284L88.9374 38.6956C88.9374 38.5682 88.9636 38.4858 89.0722 38.4933L89.4057 38.5233C90.0425 38.5645 90.6794 38.5607 91.3799 38.6019C91.4107 39.5733 91.3619 40.5456 91.2338 41.5089C91.2174 41.9007 91.1686 42.2903 91.0877 42.674C91.0465 42.91 91.1214 42.9699 91.3424 42.9924L93.7999 43.5768C94.5767 43.8637 95.2758 44.3281 95.8415 44.9329C96.2034 45.4084 96.4653 45.9523 96.6115 46.5317C96.7576 47.1111 96.785 47.7141 96.6919 48.3044C96.6228 49.1457 96.3516 49.9579 95.9014 50.672C95.5152 51.1954 95.0304 51.6383 94.4742 51.9756C94.403 51.9756 94.3431 52.0805 94.2007 52.1105C94.5079 52.2678 94.8076 52.354 95.1185 52.5113C96.0295 52.9617 96.7419 53.7328 97.1189 54.6766V54.6766ZM90.7505 59.3517C92.0279 58.6025 92.3651 56.647 91.4473 55.6431C90.9929 55.179 90.4284 54.8375 89.8065 54.6504C89.1312 54.4365 88.4311 54.3106 87.7237 54.2757C86.9744 54.227 86.2252 54.242 85.4984 54.2533H85.461C85.2774 54.2533 85.2849 54.3207 85.2437 54.5417C85.195 55.2909 85.0677 56.0177 85.019 56.7894C84.8616 57.8833 84.7792 58.9584 84.6443 60.1272H84.678C84.7199 60.1323 84.7598 60.1478 84.7942 60.1722C85.9942 60.2724 87.2013 60.2548 88.3979 60.1197C89.2318 60.0491 90.0394 59.7931 90.7618 59.3705L90.7505 59.3517ZM85.5172 51.3275C85.4647 51.4886 85.5434 51.5486 85.6895 51.5935H85.8955H86.0903C86.2177 51.5935 86.3451 51.5935 86.4912 51.616C87.5443 51.5863 88.5937 51.4774 89.6304 51.2901C89.8885 51.2047 90.1391 51.0982 90.3796 50.9717C91.6796 50.376 92.1815 48.6004 91.3237 47.5065C90.8693 46.9611 90.2361 46.5947 89.5368 46.4726C89.0092 46.3665 88.4746 46.2989 87.9372 46.2703C87.4352 46.2365 86.9257 46.2216 86.3938 46.1953H86.3563C86.169 46.1953 86.1128 46.274 86.0753 46.495C85.9143 48.1208 85.7419 49.6717 85.5134 51.3088" fill="#DF7900"/>
<path d="M96.3709 53.9272C96.6025 54.7504 96.6599 55.6129 96.5395 56.4596C96.4233 57.5085 96.1079 58.5257 95.6104 59.4565C95.0178 60.5056 94.0648 61.3042 92.9282 61.7042C91.5452 62.1958 90.0946 62.4713 88.6277 62.5208C88.5804 62.5116 88.5317 62.5127 88.4849 62.5241C88.4382 62.5354 88.3944 62.5568 88.3567 62.5867C88.3189 62.6166 88.2881 62.6543 88.2664 62.6973C88.2446 62.7402 88.2324 62.7874 88.2305 62.8355C88.0957 64.0755 87.9683 65.3866 87.8335 66.6303C87.8035 66.8851 87.8073 66.9787 87.5975 66.9675L87.4364 66.945C86.7845 66.945 86.0578 66.8776 85.4097 66.8701C85.1887 66.8438 85.1774 66.7689 85.2299 66.6078C85.3573 65.2929 85.4846 63.9856 85.6907 62.7269C85.6907 62.5808 85.7319 62.4908 85.5821 62.4459C85.0014 62.4459 84.4207 62.4047 83.7726 62.4009C83.7127 63.094 83.5854 63.802 83.5254 64.495C83.4655 65.1881 83.3381 65.8998 83.2782 66.5929C83.2295 66.7427 83.237 66.8176 83.0534 66.8064L82.75 66.7839C82.1131 66.7427 81.48 66.7502 80.8469 66.7614C80.6259 66.7315 80.6147 66.6603 80.6671 66.4992C80.7945 65.1843 80.9219 63.8769 81.1279 62.6145C81.1279 62.5395 81.1803 62.4496 81.1616 62.3035C79.4908 62.2249 77.8201 62.1462 76.0781 62.0863C76.1868 61.7603 76.2279 61.5206 76.3328 61.1947C76.5314 60.4717 76.7299 59.7449 76.8686 59.1118C76.9098 58.8758 76.9809 58.8608 77.1945 58.8084H77.3967C77.8582 58.8402 78.3213 58.8402 78.7828 58.8084C78.9075 58.8212 79.0335 58.8073 79.1524 58.7677C79.2713 58.728 79.3805 58.6636 79.4726 58.5785C79.5647 58.4935 79.6377 58.3899 79.6867 58.2745C79.7357 58.1591 79.7596 58.0346 79.7568 57.9093C80.2063 53.9572 80.6559 50.0012 81.0267 45.9854C81.0439 45.8338 81.0309 45.6803 80.9886 45.5337C80.9462 45.3872 80.8753 45.2504 80.7799 45.1314C80.6845 45.0123 80.5666 44.9133 80.4328 44.84C80.299 44.7667 80.152 44.7205 80.0003 44.7042C79.798 44.6817 79.592 44.663 79.3897 44.648C78.9439 44.6218 78.5131 44.6143 78.1122 44.5993C78.0863 44.6047 78.0595 44.6047 78.0336 44.5993C77.9437 44.5993 77.9025 44.5319 77.9474 44.4045C78.0486 43.6141 78.1422 42.76 78.2434 41.962C78.9926 41.9995 79.7418 41.962 80.4648 42.0257C81.2665 42.0707 82.0569 42.0257 82.8586 42.0932C83.0834 42.0932 83.1396 42.0145 83.1808 41.7897C83.3081 40.4786 83.4467 39.2386 83.5554 37.9275C83.5966 37.699 83.6565 37.609 83.8476 37.624L84.2222 37.654C84.8141 37.6915 85.3685 37.6952 85.9716 37.684C86.1926 37.7139 86.2002 37.7814 86.1477 37.9462C86.0129 39.1899 85.8855 40.5011 85.7506 41.741C85.7639 41.8446 85.7523 41.9499 85.7169 42.0482C86.2976 42.0707 86.9456 42.0744 87.5263 42.0969C87.5975 42.0969 87.6499 41.9208 87.7098 41.8309C87.8035 40.8232 87.9046 39.8979 88.0844 38.879L88.1893 37.9462C88.1893 37.8188 88.2156 37.7364 88.3242 37.7439L88.6576 37.7739C89.2945 37.8151 89.9313 37.8113 90.6318 37.8525C90.6627 38.8239 90.6138 39.7962 90.4857 40.7595C90.4694 41.1513 90.4205 41.541 90.3396 41.9246C90.2984 42.1606 90.3734 42.2205 90.5944 42.243L93.0518 42.8274C93.8286 43.1144 94.5277 43.5787 95.0934 44.1835C95.4553 44.659 95.7173 45.2029 95.8634 45.7823C96.0096 46.3617 96.0369 46.9647 95.9438 47.555C95.8747 48.3963 95.6036 49.2085 95.1534 49.9226C94.7672 50.446 94.2823 50.8889 93.7261 51.2262C93.655 51.2262 93.595 51.3311 93.4527 51.3611C93.7599 51.5184 94.0595 51.6046 94.3705 51.7619C95.2815 52.2123 95.9939 52.9835 96.3709 53.9272V53.9272ZM90.0025 58.6024C91.2799 57.8531 91.617 55.8977 90.6992 54.8937C90.2449 54.4296 89.6804 54.0881 89.0584 53.901C88.3831 53.6871 87.6831 53.5612 86.9756 53.5264C86.2264 53.4777 85.4771 53.4926 84.7504 53.5039H84.7129C84.5294 53.5039 84.5369 53.5713 84.4957 53.7923C84.447 54.5416 84.3196 55.2683 84.2709 56.04C84.1136 57.1339 84.0312 58.209 83.8963 59.3778H83.93C83.9718 59.383 84.0117 59.3984 84.0461 59.4228C85.2462 59.523 86.4532 59.5054 87.6499 59.3703C88.4838 59.2997 89.2914 59.0437 90.0137 58.6211L90.0025 58.6024ZM84.7691 50.5781C84.7167 50.7392 84.7953 50.7992 84.9414 50.8441H85.1475H85.3423C85.4697 50.8441 85.597 50.8441 85.7431 50.8666C86.7962 50.8369 87.8456 50.728 88.8824 50.5407C89.1404 50.4553 89.391 50.3488 89.6316 50.2223C90.9315 49.6266 91.4335 47.851 90.5756 46.7571C90.1212 46.2117 89.488 45.8453 88.7887 45.7232C88.2611 45.6171 87.7265 45.5495 87.1891 45.5209C86.6871 45.4872 86.1777 45.4722 85.6457 45.446H85.6083C85.421 45.446 85.3648 45.5246 85.3273 45.7456C85.1662 47.3715 84.9939 48.9224 84.7654 50.5594" fill="#FFE12A"/>
<mask id="mask3_1545_125520" style="mask-type:alpha" maskUnits="userSpaceOnUse" x="76" y="37" width="21" height="30">
<path d="M96.3709 53.9272C96.6025 54.7504 96.6599 55.6129 96.5395 56.4596C96.4233 57.5085 96.1079 58.5257 95.6104 59.4565C95.0178 60.5056 94.0648 61.3042 92.9282 61.7042C91.5452 62.1958 90.0946 62.4713 88.6277 62.5208C88.5804 62.5116 88.5317 62.5127 88.4849 62.5241C88.4382 62.5354 88.3944 62.5568 88.3567 62.5867C88.3189 62.6166 88.2881 62.6543 88.2664 62.6973C88.2446 62.7402 88.2324 62.7874 88.2305 62.8355C88.0957 64.0755 87.9683 65.3866 87.8335 66.6303C87.8035 66.8851 87.8073 66.9787 87.5975 66.9675L87.4364 66.945C86.7845 66.945 86.0578 66.8776 85.4097 66.8701C85.1887 66.8438 85.1774 66.7689 85.2299 66.6078C85.3573 65.2929 85.4846 63.9856 85.6907 62.7269C85.6907 62.5808 85.7319 62.4908 85.5821 62.4459C85.0014 62.4459 84.4207 62.4047 83.7726 62.4009C83.7127 63.094 83.5854 63.802 83.5254 64.495C83.4655 65.1881 83.3381 65.8998 83.2782 66.5929C83.2295 66.7427 83.237 66.8176 83.0534 66.8064L82.75 66.7839C82.1131 66.7427 81.48 66.7502 80.8469 66.7614C80.6259 66.7315 80.6147 66.6603 80.6671 66.4992C80.7945 65.1843 80.9219 63.8769 81.1279 62.6145C81.1279 62.5395 81.1803 62.4496 81.1616 62.3035C79.4908 62.2249 77.8201 62.1462 76.0781 62.0863C76.1868 61.7603 76.2279 61.5206 76.3328 61.1947C76.5314 60.4717 76.7299 59.7449 76.8686 59.1118C76.9098 58.8758 76.9809 58.8608 77.1945 58.8084H77.3967C77.8582 58.8402 78.3213 58.8402 78.7828 58.8084C78.9075 58.8212 79.0335 58.8073 79.1524 58.7677C79.2713 58.728 79.3805 58.6636 79.4726 58.5785C79.5647 58.4935 79.6377 58.3899 79.6867 58.2745C79.7357 58.1591 79.7596 58.0346 79.7568 57.9093C80.2063 53.9572 80.6559 50.0012 81.0267 45.9854C81.0439 45.8338 81.0309 45.6803 80.9886 45.5337C80.9462 45.3872 80.8753 45.2504 80.7799 45.1314C80.6845 45.0123 80.5666 44.9133 80.4328 44.84C80.299 44.7667 80.152 44.7205 80.0003 44.7042C79.798 44.6817 79.592 44.663 79.3897 44.648C78.9439 44.6218 78.5131 44.6143 78.1122 44.5993C78.0863 44.6047 78.0595 44.6047 78.0336 44.5993C77.9437 44.5993 77.9025 44.5319 77.9474 44.4045C78.0486 43.6141 78.1422 42.76 78.2434 41.962C78.9926 41.9995 79.7418 41.962 80.4648 42.0257C81.2665 42.0707 82.0569 42.0257 82.8586 42.0932C83.0834 42.0932 83.1396 42.0145 83.1808 41.7897C83.3081 40.4786 83.4467 39.2386 83.5554 37.9275C83.5966 37.699 83.6565 37.609 83.8476 37.624L84.2222 37.654C84.8141 37.6915 85.3685 37.6952 85.9716 37.684C86.1926 37.7139 86.2002 37.7814 86.1477 37.9462C86.0129 39.1899 85.8855 40.5011 85.7506 41.741C85.7639 41.8446 85.7523 41.9499 85.7169 42.0482C86.2976 42.0707 86.9456 42.0744 87.5263 42.0969C87.5975 42.0969 87.6499 41.9208 87.7098 41.8309C87.8035 40.8232 87.9046 39.8979 88.0844 38.879L88.1893 37.9462C88.1893 37.8188 88.2156 37.7364 88.3242 37.7439L88.6576 37.7739C89.2945 37.8151 89.9313 37.8113 90.6318 37.8525C90.6627 38.8239 90.6138 39.7962 90.4857 40.7595C90.4694 41.1513 90.4205 41.541 90.3396 41.9246C90.2984 42.1606 90.3734 42.2205 90.5944 42.243L93.0518 42.8274C93.8286 43.1144 94.5277 43.5787 95.0934 44.1835C95.4553 44.659 95.7173 45.2029 95.8634 45.7823C96.0096 46.3617 96.0369 46.9647 95.9438 47.555C95.8747 48.3963 95.6036 49.2085 95.1534 49.9226C94.7672 50.446 94.2823 50.8889 93.7261 51.2262C93.655 51.2262 93.595 51.3311 93.4527 51.3611C93.7599 51.5184 94.0595 51.6046 94.3705 51.7619C95.2815 52.2123 95.9939 52.9835 96.3709 53.9272V53.9272ZM90.0025 58.6024C91.2799 57.8531 91.617 55.8977 90.6992 54.8937C90.2449 54.4296 89.6804 54.0881 89.0584 53.901C88.3831 53.6871 87.6831 53.5612 86.9756 53.5264C86.2264 53.4777 85.4771 53.4926 84.7504 53.5039H84.7129C84.5294 53.5039 84.5369 53.5713 84.4957 53.7923C84.447 54.5416 84.3196 55.2683 84.2709 56.04C84.1136 57.1339 84.0312 58.209 83.8963 59.3778H83.93C83.9718 59.383 84.0117 59.3984 84.0461 59.4228C85.2462 59.523 86.4532 59.5054 87.6499 59.3703C88.4838 59.2997 89.2914 59.0437 90.0137 58.6211L90.0025 58.6024ZM84.7691 50.5781C84.7167 50.7392 84.7953 50.7992 84.9414 50.8441H85.1475H85.3423C85.4697 50.8441 85.597 50.8441 85.7431 50.8666C86.7962 50.8369 87.8456 50.728 88.8824 50.5407C89.1404 50.4553 89.391 50.3488 89.6316 50.2223C90.9315 49.6266 91.4335 47.851 90.5756 46.7571C90.1212 46.2117 89.488 45.8453 88.7887 45.7232C88.2611 45.6171 87.7265 45.5495 87.1891 45.5209C86.6871 45.4872 86.1777 45.4722 85.6457 45.446H85.6083C85.421 45.446 85.3648 45.5246 85.3273 45.7456C85.1662 47.3715 84.9939 48.9224 84.7654 50.5594" fill="#FFE12A"/>
</mask>
<g mask="url(#mask3_1545_125520)">
<rect x="33.7617" y="68.6073" width="97.3652" height="4.15239" transform="rotate(-30 33.7617 68.6073)" fill="#FFF3A5"/>
<rect x="50.8027" y="81.9443" width="74.7429" height="2.07619" transform="rotate(-30 50.8027 81.9443)" fill="#FFF3A5"/>
<rect x="42.9355" y="69.7041" width="74.743" height="2.07619" transform="rotate(-30 42.9355 69.7041)" fill="#FFF3A5"/>
</g>
<path d="M16.405 91.2706L13.3281 83.4587L36.1004 81.7083L39.485 90.3012C39.485 90.3012 28.7985 90.9245 26.993 91.0245C25.1876 91.1245 16.405 91.2706 16.405 91.2706Z" fill="#56B729"/>
<path d="M67.7075 69.4885L39.4729 90.3874L36.1019 81.7082L65.4382 60.6043L67.7075 69.4885Z" fill="#1F8616"/>
<path d="M14.4089 86.2034L13.9922 85.1453L34.9669 85.0768L14.4089 86.2034Z" fill="#25951C"/>
<path d="M21.8239 89.4133L15.6668 89.3939L15.25 88.3358L36.8409 88.7015L21.8239 89.4133Z" fill="#25951C"/>
<path d="M47.2675 62.8721C34.9309 70.5831 14.1805 83.1233 13.3287 83.4588L36.101 81.7083L65.4378 60.6042L47.2675 62.8721Z" fill="#85D637"/>
<path fill-rule="evenodd" clip-rule="evenodd" d="M47.4093 63.9957L59.5162 62.3458L62.3925 61.9992L35.6728 80.292L26.0094 81.2233L17.9601 82.0881L47.4093 63.9957ZM21.3136 80.7673L35.2271 79.1604L59.1258 63.0905L47.6025 64.4861L21.3136 80.7673Z" fill="#C7F85B"/>
<ellipse cx="41.5748" cy="71.8369" rx="6.86602" ry="2.84304" transform="rotate(-21.4983 41.5748 71.8369)" fill="#C7F85B"/>
<path opacity="0.3" d="M48.7206 83.4933C48.7206 83.4933 42.8815 77.9753 42.6731 77.4463L62.3012 62.8437C69.8385 71.5107 48.7206 83.4933 48.7206 83.4933Z" fill="#1A7109"/>
<path d="M16.9285 79.4722L13.8516 71.6604L36.6238 69.9099L40.0084 78.5029C40.0084 78.5029 29.3219 79.1262 27.5165 79.2262C25.711 79.3262 16.9285 79.4722 16.9285 79.4722Z" fill="#25951C"/>
<path d="M68.231 57.6899L39.9963 78.5889L36.6253 69.9096L65.9616 48.8057L68.231 57.6899Z" fill="#247D1D"/>
<path d="M22.3473 77.6149L16.1902 77.5956L15.7734 76.5375L37.3643 76.9031L22.3473 77.6149Z" fill="#248E1B"/>
<path d="M47.791 51.0736C35.4544 58.7847 14.7039 71.3249 13.8521 71.6604L36.6244 69.9099L65.9612 48.8058L47.791 51.0736Z" fill="#85DC30"/>
<path fill-rule="evenodd" clip-rule="evenodd" d="M47.9137 52.2089C47.9263 52.2011 47.9403 52.1961 47.9549 52.1941L60.0397 50.5472L62.4861 50.2524C62.5962 50.2392 62.6502 50.3825 62.5587 50.4452L36.2188 68.478C36.204 68.4881 36.1869 68.4943 36.1691 68.496L26.5328 69.4247L18.9508 70.2394C18.8384 70.2514 18.7876 70.1027 18.8839 70.0436L47.9137 52.2089ZM22.2406 68.7187C22.1443 68.7784 22.1961 68.9272 22.3086 68.9142L35.725 67.3648C35.7418 67.3629 35.7579 67.3569 35.772 67.3475L59.6493 51.2919L48.1491 52.6847C48.1338 52.6865 48.1191 52.6917 48.106 52.6998L22.2406 68.7187Z" fill="#C7F85B"/>
<ellipse cx="42.0982" cy="60.0384" rx="6.86602" ry="2.84304" transform="rotate(-21.4983 42.0982 60.0384)" fill="#C7F85B"/>
<path opacity="0.3" d="M49.244 71.6949C49.244 71.6949 43.4049 66.1769 43.1965 65.6478L62.8247 51.0453C70.3619 59.7122 49.244 71.6949 49.244 71.6949Z" fill="#1A7109"/>
<path d="M18.3894 72.0507L15.3125 64.2389L38.0848 62.4884L41.4693 71.0813C41.4693 71.0813 30.7829 71.7047 28.9774 71.8047C27.1719 71.9047 18.3894 72.0507 18.3894 72.0507Z" fill="#56B729"/>
<path opacity="0.3" d="M18.3857 72.021L15.2461 64.0499L38.078 62.5047L34.9675 69.9595L18.3857 72.021Z" fill="#1A7109"/>
<path d="M69.6919 50.2685L41.4572 71.1675L38.0862 62.4882L67.4226 41.3843L69.6919 50.2685Z" fill="#25951C"/>
<path d="M16.4382 67.0935L16.0215 66.0354L29.2122 66.0539L16.4382 67.0935Z" fill="#25951C"/>
<path d="M23.8083 70.1933L17.6511 70.1739L17.2344 69.1158L38.8253 69.4815L23.8083 70.1933Z" fill="#25951C"/>
<path d="M49.2519 43.6521C36.9153 51.3631 16.1649 63.9033 15.3131 64.2388L38.0854 62.4884L67.4222 41.3843L49.2519 43.6521Z" fill="#85DC30"/>
<path fill-rule="evenodd" clip-rule="evenodd" d="M49.3937 44.776L61.5006 43.126L64.3768 42.7795L37.6572 61.0723L27.9938 62.0036L19.9444 62.8684L49.3937 44.776ZM24.8328 61.2474L37.2743 59.4651L60.6506 44.2583L49.5188 45.9589L24.8328 61.2474Z" fill="#C7F85B"/>
<path d="M11.1414 64.7767L8.06445 56.9648L30.8367 55.2144L34.2213 63.8073C34.2213 63.8073 23.5348 64.4306 21.7294 64.5306C19.9239 64.6306 11.1414 64.7767 11.1414 64.7767Z" fill="#56B729"/>
<path d="M62.4439 42.9943L34.2092 63.8933L30.8382 55.214L60.1745 34.1102L62.4439 42.9943Z" fill="#25951C"/>
<path d="M9.1902 59.8195L8.77344 58.7614L21.9642 58.7798L9.1902 59.8195Z" fill="#25951C"/>
<path d="M16.5602 62.9194L10.4031 62.9L9.98633 61.8419L31.5772 62.2076L16.5602 62.9194Z" fill="#25951C"/>
<path d="M42.0039 36.3781C29.6673 44.0891 8.91681 56.6293 8.06504 56.9648L30.8373 55.2143L60.1741 34.1102L42.0039 36.3781Z" fill="#85DC30"/>
<path fill-rule="evenodd" clip-rule="evenodd" d="M42.1457 37.5018L54.2526 35.8519L57.1288 35.5053L30.4091 53.7981L20.7457 54.7294L12.6964 55.5942L42.1457 37.5018ZM17.5847 53.9733L30.0263 52.191L53.4025 36.9841L42.2707 38.6847L17.5847 53.9733Z" fill="#C7F85B"/>
<ellipse cx="43.5592" cy="52.6169" rx="6.86602" ry="2.84304" transform="rotate(-21.4983 43.5592 52.6169)" fill="#C7F85B"/>
<path opacity="0.3" d="M42.8256 87.7314C42.8256 87.7314 36.2994 82.2119 36.0911 81.6829L55.7192 67.0803C62.6583 75.5128 42.8256 87.7314 42.8256 87.7314Z" fill="#1A7109"/>
<path d="M87.9597 63.0867L84.8828 55.2749L67.0336 69.5243L70.4181 78.1172C70.4181 78.1172 78.6592 71.2854 80.0479 70.1273C81.4366 68.9692 87.9597 63.0867 87.9597 63.0867Z" fill="#25951C"/>
<path d="M35.2721 81.4422C48.1834 87.2037 70.6703 78.1965 70.6703 78.1965L67.2169 69.5496C67.2169 69.5496 56.6072 72.7962 32.3039 73.9063L35.2721 81.4422Z" fill="#56B729"/>
<path d="M34.4978 79.533C38.2646 81.5126 54.2029 80.0498 54.2029 80.0498L57.9519 78.5178L53.968 79.3628C53.968 79.3628 41.0629 80.3606 34.408 79.2537L34.4978 79.533Z" fill="#25951C"/>
<path d="M33.307 76.4809C35.1534 77.4513 42.9663 76.7342 42.9663 76.7342L44.8041 75.9832L42.8512 76.3974C42.8512 76.3974 36.5252 76.8866 33.263 76.3439L33.307 76.4809Z" fill="#25951C"/>
<path d="M85.7859 57.5671L85.3691 56.509L75.7341 65.518L85.7859 57.5671Z" fill="#227B18"/>
<path d="M68.8682 46.9726L68.5625 45.8241L58.9275 54.8331L68.8682 46.9726Z" fill="#227B18"/>
<path d="M82.372 64.5133L86.8621 60.3003L86.4453 59.2422L70.9032 74.2337L82.372 64.5133Z" fill="#227B18"/>
<path d="M45.663 62.4527C63.0099 64.3994 84.0178 55.6984 84.8696 55.3629L67.3052 69.475C67.3052 69.475 48.6509 76.3383 32.3009 73.9014L45.663 62.4527Z" fill="#85DC30"/>
<path fill-rule="evenodd" clip-rule="evenodd" d="M46.4311 63.7418L35.9216 72.7464L37.7409 73.0176C43.312 73.8479 50.5707 72.7171 56.3571 71.416C59.8183 70.6377 63.2602 69.7173 66.6278 68.598L66.6412 68.5936C66.6412 68.5936 66.6424 68.5931 66.3728 67.798L66.6412 68.5936L66.7918 68.5425L80.284 57.6619C75.2389 59.3142 70.2251 60.9525 65.0327 62.1021C59.3446 63.3614 52.3855 64.4101 46.7938 63.7826L46.4311 63.7418ZM66.1955 67.3478C57.9814 70.0714 47.8454 72.3588 39.237 71.7873L46.6187 65.2608C55.9487 66.1854 65.2906 63.3058 74.1245 60.8043L66.1955 67.3478Z" fill="#C7F85B"/>
<ellipse cx="56.2564" cy="67.5276" rx="6.86602" ry="2.84304" transform="rotate(-21.4983 56.2564 67.5276)" fill="#C7F85B"/>
<path opacity="0.3" d="M35.2434 62.6826C35.2434 62.6826 31.1205 55.9314 30.9121 55.4023L53.744 53.8571L50.6335 61.3119L55.5439 69.9529C48.5754 70.9974 40.0697 67.2209 40.0697 67.2209L38.1948 62.4607L35.2434 62.6826Z" fill="#1A7109"/>
<path opacity="0.3" d="M44.179 62.8997C44.179 62.8997 40.056 56.1486 39.8477 55.6195L62.6795 54.0743L75.8991 58.4819L66.9366 68.0145C59.1968 70.707 55.343 69.8341 55.343 69.8341L47.1303 62.6778L44.179 62.8997Z" fill="#1A7109"/>
<path d="M44.5244 36.9266L75.191 51.6507L55.2005 62.9812L39.1639 57.2193L28.3813 45.8411L44.5244 36.9266Z" fill="#88CF42"/>
<path d="M30.0402 54.3879L28.3814 45.8401C30.2824 47.993 47.0529 58.1639 55.2006 62.9802L55.3519 70.029C49.6266 70.3806 36.0919 59.7481 30.0402 54.3879Z" fill="#56B729"/>
<path d="M75.1908 51.65L55.2003 62.9805L55.3516 70.0293L75.8661 58.5629L75.1908 51.65Z" fill="#25951C"/>
<path opacity="0.3" d="M75.4707 54.8849C49.96 64.34 28.4957 46.2829 28.3809 45.8402L48.8673 42.8868C66.2387 43.7344 75.3335 43.5796 75.4707 54.8849Z" fill="#1A7109"/>
<path d="M73.6822 50.1506C68.2213 54.9699 57.979 55.0131 53.5404 54.4322L54.6669 47.9969C63.2807 46.7067 79.143 45.3312 73.6822 50.1506Z" fill="#25951C"/>
<path d="M64.7259 50.1121C54.2234 59.642 36.1207 51.2344 28.3822 45.8394L47.3247 34.7809C61.6357 41.6522 74.4372 39.4013 79.8351 37.2131C80.7542 40.7549 74.7999 56.5377 64.7259 50.1121Z" fill="#82DC34"/>
<path fill-rule="evenodd" clip-rule="evenodd" d="M47.3375 36.0309L47.9359 36.3052C56.6679 40.3073 63.8294 41.0836 68.7604 40.885C71.23 40.7854 73.1508 40.4409 74.4404 40.1272C75.0854 39.9703 75.5727 39.8211 75.8919 39.7139C76.0515 39.6604 76.1691 39.6173 76.2432 39.5892C76.2803 39.5751 76.3066 39.5647 76.3218 39.5586L76.3343 39.5536L76.3355 39.5531L76.3374 39.5523L78.3298 38.7104L77.7773 40.5425L76.7403 40.3793C77.7773 40.5425 77.7773 40.5425 77.7773 40.5425L77.7761 40.5464L77.7742 40.5525L77.7684 40.5713C77.7635 40.5866 77.7567 40.6077 77.7479 40.6342C77.7303 40.6872 77.7045 40.7621 77.6698 40.8572C77.6003 41.0472 77.4948 41.3179 77.346 41.6553C77.0487 42.3298 76.578 43.2726 75.8766 44.3701C74.4741 46.5648 72.6939 49.0981 68.9749 51.6237C68.9749 51.6237 67.8779 51.5686 67.1139 51.3202C66.3499 51.0718 65.6809 50.6658 65.6809 50.6658C69.0943 48.3478 72.7347 45.5872 74.0172 43.5804C74.4244 42.9431 74.7449 42.3656 74.9921 41.8756C74.9493 41.8863 74.906 41.8969 74.862 41.9076C73.4226 42.2578 71.3345 42.6287 68.6842 42.7355C63.4932 42.9447 56.1865 42.1388 47.4115 38.2286C45.1136 39.7496 41.9374 41.757 39.2616 43.4299C37.8059 44.34 36.4944 45.1535 35.5468 45.7395C35.4813 45.78 35.4175 45.8195 35.3554 45.8578C35.6496 46.0122 35.9908 46.1873 36.3741 46.3777C37.8233 47.0973 39.868 48.0313 42.2504 48.8901C47.066 50.6261 58.6826 51.965 63.888 50.8355C63.888 50.8355 62.9686 51.4952 62.6962 51.6914C62.4237 51.8876 61.4334 52.4222 61.4334 52.4222C55.5199 53.7054 46.1909 52.3759 41.2887 50.6087C38.8122 49.716 36.6929 48.7476 35.1928 48.0027C34.4421 47.6299 33.8446 47.3122 33.4331 47.0866C33.2272 46.9738 33.0678 46.884 32.9588 46.8218C32.9042 46.7907 32.8623 46.7664 32.8335 46.7497L32.8002 46.7302L32.791 46.7248L32.7875 46.7227C32.7875 46.7227 32.7869 46.7224 33.4416 45.9447L32.8689 45.2046L33.2771 44.9534C33.5406 44.7911 33.9223 44.5556 34.3948 44.2634C35.3399 43.679 36.6479 42.8677 38.0995 41.9601C41.0071 40.1423 44.4755 37.9481 46.7609 36.4172L47.3375 36.0309ZM33.4416 45.9447L32.8689 45.2046L31.5701 46.0022L32.7875 46.7227L33.4416 45.9447Z" fill="#D4FD5F"/>
<path d="M35.9578 56.0453L33.707 53.4359L40.5166 58.7765L45.0754 61.5076L40.3678 59.2305L35.9578 56.0453Z" fill="#25951C"/>
<ellipse cx="54.2077" cy="46.2265" rx="8.12033" ry="5.0313" transform="rotate(-14.5471 54.2077 46.2265)" fill="#D4FD5F"/>
<path d="M75.6881 56.5633L75.6426 56.0242L65.496 61.2072L64.2756 62.3952L75.6881 56.5633Z" fill="#227B18"/>
<path d="M75.4771 54.2171L75.4316 53.678L71.5125 55.7787L70.2921 56.9667L75.4771 54.2171Z" fill="#227B18"/>
</svg>
