<svg width="512" height="513" viewBox="0 0 512 513" fill="none" xmlns="http://www.w3.org/2000/svg">
<g clip-path="url(#clip0_5269_437225)">
<path d="M256 512.992C397.385 512.992 512 398.377 512 256.992C512 115.607 397.385 0.992188 256 0.992188C114.615 0.992188 0 115.607 0 256.992C0 398.377 114.615 512.992 256 512.992Z" fill="#F0F0F0"/>
<path d="M233.739 256.992C233.739 256.992 75.1305 438.047 74.9805 438.011C121.306 484.338 185.307 512.992 256 512.992C397.384 512.992 512 398.376 512 256.992H233.739Z" fill="#D80027"/>
<path d="M74.9795 75.9727C-24.9945 175.947 -24.9945 338.038 74.9795 438.013C116.293 396.7 156.026 356.967 256 256.993L74.9795 75.9727Z" fill="#0052B4"/>
</g>
<defs>
<clipPath id="clip0_5269_437225">
<rect width="512" height="512" fill="white" transform="translate(0 0.992188)"/>
</clipPath>
</defs>
</svg>
