<svg width="512" height="513" viewBox="0 0 512 513" fill="none" xmlns="http://www.w3.org/2000/svg">
<g clip-path="url(#clip0_5269_437182)">
<path d="M15.9229 346.039C52.0939 443.523 145.929 512.996 256 512.996C366.071 512.996 459.906 443.523 496.077 346.039L256 323.779L15.9229 346.039Z" fill="#FFDA44"/>
<path d="M256 0.996094C145.929 0.996094 52.0939 70.4681 15.9229 167.953L256 190.213L496.077 167.952C459.906 70.4681 366.071 0.996094 256 0.996094Z" fill="black"/>
<path d="M15.923 167.953C5.633 195.686 0 225.682 0 256.996C0 288.31 5.633 318.306 15.923 346.039H496.078C506.368 318.306 512 288.31 512 256.996C512 225.682 506.368 195.686 496.077 167.953H15.923Z" fill="#D80027"/>
</g>
<defs>
<clipPath id="clip0_5269_437182">
<rect width="512" height="512" fill="white" transform="translate(0 0.996094)"/>
</clipPath>
</defs>
</svg>
