<svg width="512" height="513" viewBox="0 0 512 513" fill="none" xmlns="http://www.w3.org/2000/svg">
<g clip-path="url(#clip0_5269_437173)">
<path d="M0 256.995C0 288.309 5.633 318.305 15.923 346.038L256 368.299L496.077 346.038C506.367 318.305 512 288.309 512 256.995C512 225.681 506.367 195.685 496.077 167.952L256 145.691L15.923 167.952C5.633 195.685 0 225.681 0 256.995H0Z" fill="#FFDA44"/>
<path d="M496.077 167.953C459.906 70.4691 366.071 0.996094 256 0.996094C145.929 0.996094 52.0939 70.4691 15.9229 167.953H496.077Z" fill="#D80027"/>
<path d="M15.9229 346.039C52.0939 443.523 145.929 512.996 256 512.996C366.071 512.996 459.906 443.523 496.077 346.039H15.9229Z" fill="#D80027"/>
</g>
<defs>
<clipPath id="clip0_5269_437173">
<rect width="512" height="512" fill="white" transform="translate(0 0.996094)"/>
</clipPath>
</defs>
</svg>
