<svg width="512" height="513" viewBox="0 0 512 513" fill="none" xmlns="http://www.w3.org/2000/svg">
<g clip-path="url(#clip0_5269_437144)">
<path d="M256 512.996C397.385 512.996 512 398.381 512 256.996C512 115.611 397.385 0.996094 256 0.996094C114.615 0.996094 0 115.611 0 256.996C0 398.381 114.615 512.996 256 512.996Z" fill="#F0F0F0"/>
<path d="M256 0.996094C154.506 0.996094 66.8103 60.0611 25.4023 145.692H486.597C445.19 60.0611 357.493 0.996094 256 0.996094Z" fill="#FF9811"/>
<path d="M256 512.997C357.493 512.997 445.19 453.932 486.598 368.301H25.4023C66.8103 453.932 154.506 512.997 256 512.997Z" fill="#6DA544"/>
<path d="M256 346.039C305.177 346.039 345.043 306.173 345.043 256.996C345.043 207.819 305.177 167.953 256 167.953C206.823 167.953 166.957 207.819 166.957 256.996C166.957 306.173 206.823 346.039 256 346.039Z" fill="#0052B4"/>
<path d="M256 312.648C286.735 312.648 311.652 287.731 311.652 256.996C311.652 226.26 286.735 201.344 256 201.344C225.264 201.344 200.348 226.26 200.348 256.996C200.348 287.731 225.264 312.648 256 312.648Z" fill="#F0F0F0"/>
<path d="M256 188.322L273.169 227.26L315.473 222.659L290.337 256.996L315.473 291.333L273.169 286.732L256 325.67L238.831 286.732L196.527 291.332L221.663 256.996L196.527 222.659L238.831 227.26L256 188.322Z" fill="#0052B4"/>
</g>
<defs>
<clipPath id="clip0_5269_437144">
<rect width="512" height="512" fill="white" transform="translate(0 0.996094)"/>
</clipPath>
</defs>
</svg>
