<svg width="512" height="513" viewBox="0 0 512 513" fill="none" xmlns="http://www.w3.org/2000/svg">
<g clip-path="url(#clip0_5269_437178)">
<path d="M256 512.99C397.385 512.99 512 398.375 512 256.99C512 115.605 397.385 0.990234 256 0.990234C114.615 0.990234 0 115.605 0 256.99C0 398.375 114.615 512.99 256 512.99Z" fill="#F0F0F0"/>
<path d="M512 256.991C512 146.92 442.528 53.0851 345.043 16.9141V497.069C442.528 460.897 512 367.062 512 256.991Z" fill="#D80027"/>
<path d="M0 256.991C0 367.062 69.472 460.897 166.957 497.068V16.9141C69.472 53.0851 0 146.92 0 256.991Z" fill="#6DA544"/>
</g>
<defs>
<clipPath id="clip0_5269_437178">
<rect width="512" height="512" fill="white" transform="translate(0 0.990234)"/>
</clipPath>
</defs>
</svg>
