<svg width="512" height="513" viewBox="0 0 512 513" fill="none" xmlns="http://www.w3.org/2000/svg">
<g clip-path="url(#clip0_5269_437168)">
<path d="M256 512.996C397.385 512.996 512 398.381 512 256.996C512 115.611 397.385 0.996094 256 0.996094C114.615 0.996094 0 115.611 0 256.996C0 398.381 114.615 512.996 256 512.996Z" fill="#338AF3"/>
<path d="M400.696 259.779H111.304C111.304 279.758 128.705 295.953 148.682 295.953H147.478C147.478 315.932 163.673 332.127 183.652 332.127C183.652 352.106 199.847 368.301 219.826 368.301H292.174C312.153 368.301 328.348 352.106 328.348 332.127C348.327 332.127 364.522 315.932 364.522 295.953H363.318C383.293 295.953 400.696 279.758 400.696 259.779Z" fill="#FFDA44"/>
<path d="M356.174 212.475C356.174 267.799 311.324 312.649 256 312.649C200.675 312.649 155.826 267.799 155.826 212.475" fill="#338AF3"/>
<path d="M332.515 212.475L301.25 227.182L317.899 257.462L283.949 250.967L279.647 285.262L256 260.037L232.352 285.262L228.051 250.967L194.101 257.46L210.749 227.181L179.485 212.475L210.75 197.769L194.101 167.49L228.05 173.984L232.353 139.688L256 164.913L279.648 139.688L283.949 173.984L317.9 167.49L301.251 197.77L332.515 212.475Z" fill="#FFDA44"/>
</g>
<defs>
<clipPath id="clip0_5269_437168">
<rect width="512" height="512" fill="white" transform="translate(0 0.996094)"/>
</clipPath>
</defs>
</svg>
