<svg width="512" height="513" viewBox="0 0 512 513" fill="none" xmlns="http://www.w3.org/2000/svg">
<g clip-path="url(#clip0_5269_437191)">
<path d="M446.793 427.658C487.336 382.366 512 322.564 512 256.992C512 191.42 487.335 131.617 446.792 86.3254L256 67.7754L65.208 86.3254C24.665 131.617 0 191.42 0 256.992C0 322.564 24.664 382.366 65.207 427.658L256 446.209L446.793 427.658Z" fill="#FFDA44"/>
<path d="M65.207 86.3252H446.792C399.917 33.9582 331.812 0.992188 255.999 0.992188C180.186 0.992188 112.081 33.9582 65.207 86.3252Z" fill="black"/>
<path d="M0 256.992L256 279.253L512 256.992C512 227.068 506.849 198.35 497.412 171.658H14.588C5.151 198.35 0 227.068 0 256.992H0Z" fill="#D80027"/>
<path d="M14.588 342.325H497.414C506.849 315.633 512 286.916 512 256.992H0C0 286.916 5.151 315.633 14.588 342.325Z" fill="black"/>
<path d="M446.793 427.658H65.207C112.081 480.026 180.186 512.992 256 512.992C331.814 512.992 399.919 480.026 446.793 427.658Z" fill="#D80027"/>
<path d="M341.426 256.992C341.426 304.175 303.183 342.418 256 342.418C208.817 342.418 170.574 304.175 170.574 256.992C170.574 209.809 208.817 171.566 256 171.566C303.183 171.566 341.426 209.809 341.426 256.992Z" fill="#F0F0F0"/>
<path d="M287.295 261.349L256 247.788C256 247.788 263.322 223.485 263.712 221.822C263.997 220.607 264.149 219.34 264.149 218.038C264.149 213.427 262.28 209.253 259.258 206.233L267.128 198.363C262.093 193.328 255.136 190.213 247.452 190.213C239.768 190.213 232.811 193.327 227.776 198.363L235.646 206.233C232.624 209.254 230.756 213.428 230.756 218.038C230.756 219.724 231.011 221.349 231.476 222.884L219.627 234.732H241.163C241.163 234.732 232.259 248.106 227.398 259.089C222.537 270.071 227.465 283.478 238.699 288.472L245.195 291.359L256 301.515V312.645L244.87 323.775H267.131V301.514L277.288 291.357H298.296C298.397 291.148 298.503 290.944 298.599 290.73C303.59 279.497 298.53 266.341 287.295 261.349Z" fill="black"/>
</g>
<defs>
<clipPath id="clip0_5269_437191">
<rect width="512" height="512" fill="white" transform="translate(0 0.992188)"/>
</clipPath>
</defs>
</svg>
