<svg width="512" height="513" viewBox="0 0 512 513" fill="none" xmlns="http://www.w3.org/2000/svg">
<g clip-path="url(#clip0_5269_437220)">
<path d="M256 512.99C397.385 512.99 512 398.375 512 256.99C512 115.605 397.385 0.990234 256 0.990234C114.615 0.990234 0 115.605 0 256.99C0 398.375 114.615 512.99 256 512.99Z" fill="#D80027"/>
<path d="M245.517 210.176L266.522 239.121L300.539 228.091L279.501 257.011L300.503 285.955L266.498 274.883L245.461 303.803L245.483 268.042L211.477 256.97L245.495 245.94L245.517 210.176Z" fill="#F0F0F0"/>
<path d="M188.193 329.337C148.237 329.337 115.845 296.945 115.845 256.989C115.845 217.033 148.237 184.641 188.193 184.641C200.651 184.641 212.373 187.792 222.607 193.337C206.552 177.635 184.595 167.945 160.367 167.945C111.189 167.945 71.3242 207.811 71.3242 256.988C71.3242 306.165 111.19 346.031 160.367 346.031C184.597 346.031 206.553 336.34 222.607 320.639C212.373 326.186 200.651 329.337 188.193 329.337Z" fill="#F0F0F0"/>
</g>
<defs>
<clipPath id="clip0_5269_437220">
<rect width="512" height="512" fill="white" transform="translate(0 0.990234)"/>
</clipPath>
</defs>
</svg>
