<svg width="512" height="513" viewBox="0 0 512 513" fill="none" xmlns="http://www.w3.org/2000/svg">
<g clip-path="url(#clip0_5269_437151)">
<path d="M256 512.992C397.385 512.992 512 398.377 512 256.992C512 115.607 397.385 0.992188 256 0.992188C114.615 0.992188 0 115.607 0 256.992C0 398.377 114.615 512.992 256 512.992Z" fill="#F0F0F0"/>
<path d="M52.9203 101.133C32.8113 127.296 17.6483 157.451 8.81934 190.21H141.997L52.9203 101.133Z" fill="#0052B4"/>
<path d="M503.182 190.211C494.353 157.453 479.189 127.298 459.081 101.135L370.006 190.211H503.182Z" fill="#0052B4"/>
<path d="M8.81934 323.775C17.6493 356.533 32.8123 386.688 52.9203 412.85L141.994 323.775H8.81934Z" fill="#0052B4"/>
<path d="M411.859 53.9125C385.696 33.8035 355.542 18.6405 322.783 9.81055V142.988L411.859 53.9125Z" fill="#0052B4"/>
<path d="M100.143 460.07C126.306 480.179 156.461 495.342 189.219 504.172V370.996L100.143 460.07Z" fill="#0052B4"/>
<path d="M189.218 9.81055C156.46 18.6405 126.305 33.8035 100.143 53.9115L189.218 142.987V9.81055Z" fill="#0052B4"/>
<path d="M322.783 504.172C355.541 495.342 385.696 480.179 411.858 460.071L322.783 370.996V504.172Z" fill="#0052B4"/>
<path d="M370.006 323.775L459.081 412.851C479.189 386.689 494.353 356.533 503.182 323.775H370.006Z" fill="#0052B4"/>
<path d="M509.833 223.601H289.393H289.392V3.15919C278.461 1.73619 267.317 0.992188 256 0.992188C244.681 0.992188 233.539 1.73619 222.609 3.15919V223.599V223.6H2.167C0.744 234.531 0 245.675 0 256.992C0 268.311 0.744 279.453 2.167 290.383H222.607H222.608V510.825C233.539 512.248 244.681 512.992 256 512.992C267.317 512.992 278.461 512.249 289.391 510.825V290.385V290.384H509.833C511.256 279.453 512 268.311 512 256.992C512 245.675 511.256 234.531 509.833 223.601Z" fill="#D80027"/>
<path d="M322.783 323.776L437.019 438.012C442.273 432.76 447.285 427.269 452.067 421.577L354.265 323.775H322.783V323.776Z" fill="#D80027"/>
<path d="M189.217 323.775H189.215L74.9805 438.01C80.2325 443.264 85.7235 448.276 91.4155 453.058L189.217 355.254V323.775Z" fill="#D80027"/>
<path d="M189.217 190.212V190.21L74.9806 75.9727C69.7266 81.2247 64.7146 86.7157 59.9326 92.4077L157.736 190.211H189.217V190.212Z" fill="#D80027"/>
<path d="M322.783 190.211L437.02 75.9728C431.768 70.7188 426.277 65.7068 420.585 60.9258L322.783 158.729V190.211Z" fill="#D80027"/>
</g>
<defs>
<clipPath id="clip0_5269_437151">
<rect width="512" height="512" fill="white" transform="translate(0 0.992188)"/>
</clipPath>
</defs>
</svg>
