<svg width="512" height="513" viewBox="0 0 512 513" fill="none" xmlns="http://www.w3.org/2000/svg">
<g clip-path="url(#clip0_5269_437199)">
<path d="M12.088 179.086C4.246 203.654 -0.000999823 229.827 1.76555e-07 256.996C-0.000999823 284.166 4.247 310.341 12.089 334.909L256 346.041L499.911 334.911C507.752 310.342 512.001 284.166 512.001 256.998C512 229.828 507.753 203.654 499.911 179.085L256 167.955L12.088 179.086Z" fill="#F0F0F0"/>
<path d="M499.91 179.085L255.999 167.955L12.087 179.085C9.76296 186.369 7.76196 193.796 6.08496 201.346H505.909C504.234 193.795 502.234 186.367 499.91 179.085Z" fill="#D80027"/>
<path d="M6.08789 312.648C7.76289 320.198 9.76389 327.624 12.0879 334.908L12.1119 334.909L255.998 346.039L499.909 334.909C502.233 327.625 504.234 320.198 505.91 312.648H6.08789Z" fill="#D80027"/>
<path d="M255.999 512.997C370.215 512.997 466.945 438.194 499.91 334.91H12.0889C45.0539 438.193 141.786 512.997 255.999 512.997Z" fill="#6DA544"/>
<path d="M255.999 1C141.785 1.001 45.0549 75.804 12.0879 179.087L499.909 179.088C466.946 75.803 370.215 0.999 255.999 1Z" fill="#338AF3"/>
<path d="M116.986 106.738C116.986 82.7613 133.837 62.7313 156.34 57.8173C152.882 57.0613 149.293 56.6523 145.607 56.6523C117.945 56.6523 95.5195 79.0763 95.5195 106.739C95.5195 134.402 117.943 156.826 145.607 156.826C149.293 156.826 152.881 156.416 156.34 155.661C133.838 150.745 116.986 130.715 116.986 106.738Z" fill="#F0F0F0"/>
<path d="M185.943 129.506L189.333 139.941H200.305L191.429 146.391L194.819 156.826L185.943 150.377L177.065 156.826L180.456 146.391L171.579 139.941H182.551L185.943 129.506Z" fill="#F0F0F0"/>
<path d="M220.964 129.506L224.355 139.941H235.327L226.45 146.391L229.841 156.826L220.964 150.377L212.087 156.826L215.478 146.391L206.602 139.941H217.573L220.964 129.506Z" fill="#F0F0F0"/>
<path d="M255.984 129.506L259.374 139.941H270.347L261.47 146.391L264.86 156.826L255.984 150.377L247.106 156.826L250.498 146.391L241.62 139.941H252.593L255.984 129.506Z" fill="#F0F0F0"/>
<path d="M291.006 129.506L294.397 139.941H305.368L296.492 146.391L299.883 156.826L291.006 150.377L282.128 156.826L285.52 146.391L276.642 139.941H287.614L291.006 129.506Z" fill="#F0F0F0"/>
<path d="M326.025 129.506L329.416 139.941H340.388L331.512 146.391L334.903 156.826L326.025 150.377L317.148 156.826L320.539 146.391L311.663 139.941H322.634L326.025 129.506Z" fill="#F0F0F0"/>
<path d="M220.964 93.0781L224.355 103.512H235.327L226.45 109.963L229.841 120.397L220.964 113.948L212.087 120.397L215.478 109.963L206.602 103.512H217.573L220.964 93.0781Z" fill="#F0F0F0"/>
<path d="M255.984 93.0781L259.374 103.512H270.347L261.47 109.963L264.86 120.397L255.984 113.948L247.106 120.397L250.498 109.963L241.62 103.512H252.593L255.984 93.0781Z" fill="#F0F0F0"/>
<path d="M291.006 93.0781L294.397 103.512H305.368L296.492 109.963L299.883 120.397L291.006 113.948L282.128 120.397L285.52 109.963L276.642 103.512H287.614L291.006 93.0781Z" fill="#F0F0F0"/>
<path d="M326.025 93.0781L329.416 103.512H340.388L331.512 109.963L334.903 120.397L326.025 113.948L317.148 120.397L320.539 109.963L311.663 103.512H322.634L326.025 93.0781Z" fill="#F0F0F0"/>
<path d="M255.984 56.6504L259.374 67.0864H270.347L261.47 73.5354L264.86 83.9714L255.984 77.5224L247.106 83.9714L250.498 73.5354L241.62 67.0864H252.593L255.984 56.6504Z" fill="#F0F0F0"/>
<path d="M291.006 56.6504L294.397 67.0864H305.368L296.492 73.5354L299.883 83.9714L291.006 77.5224L282.128 83.9714L285.52 73.5354L276.642 67.0864H287.614L291.006 56.6504Z" fill="#F0F0F0"/>
<path d="M326.025 56.6504L329.416 67.0864H340.388L331.512 73.5354L334.903 83.9714L326.025 77.5224L317.148 83.9714L320.539 73.5354L311.663 67.0864H322.634L326.025 56.6504Z" fill="#F0F0F0"/>
</g>
<defs>
<clipPath id="clip0_5269_437199">
<rect width="512" height="512" fill="white" transform="translate(0 0.998047)"/>
</clipPath>
</defs>
</svg>
