<svg width="64" height="92" viewBox="0 0 64 92" fill="none" xmlns="http://www.w3.org/2000/svg">
<path d="M0 4C0 1.79086 1.79086 0 4 0H60C62.2091 0 64 1.79086 64 4V88C64 90.2091 62.2091 92 60 92H4C1.79086 92 0 90.2091 0 88V4Z" fill="url(#paint0_linear_2928_267206)"/>
<path d="M8.56342 5.37389V17.018H6.11582V5.37389H8.56342ZM17.1622 7.55154V14.8044C17.1622 16.3881 16.4183 17.18 14.9306 17.18H12.7889C11.3012 17.18 10.5573 16.3881 10.5573 14.8044V7.55154C10.5573 5.9678 11.3012 5.17592 12.7889 5.17592H14.9306C16.4183 5.17592 17.1622 5.9678 17.1622 7.55154ZM14.7146 15.0923V7.24559C14.7146 7.1496 14.6786 7.06562 14.6066 6.99363C14.5466 6.92164 14.4687 6.88565 14.3727 6.88565H13.3468C13.2509 6.88565 13.1669 6.92164 13.0949 6.99363C13.0349 7.06562 13.0049 7.1496 13.0049 7.24559V15.0923C13.0049 15.1883 13.0349 15.2723 13.0949 15.3443C13.1669 15.4163 13.2509 15.4523 13.3468 15.4523H14.3727C14.4687 15.4523 14.5466 15.4163 14.6066 15.3443C14.6786 15.2723 14.7146 15.1883 14.7146 15.0923Z" fill="#ED4700"/>
<path d="M49.7511 74.3739V86.018H47.3035V74.3739H49.7511ZM58.3499 76.5515V83.8044C58.3499 85.3881 57.606 86.18 56.1182 86.18H53.9766C52.4888 86.18 51.7449 85.3881 51.7449 83.8044V76.5515C51.7449 74.9678 52.4888 74.1759 53.9766 74.1759H56.1182C57.606 74.1759 58.3499 74.9678 58.3499 76.5515ZM55.9023 84.0923V76.2456C55.9023 76.1496 55.8663 76.0656 55.7943 75.9936C55.7343 75.9216 55.6563 75.8856 55.5603 75.8856H54.5345C54.4385 75.8856 54.3545 75.9216 54.2825 75.9936C54.2225 76.0656 54.1925 76.1496 54.1925 76.2456V84.0923C54.1925 84.1883 54.2225 84.2723 54.2825 84.3443C54.3545 84.4163 54.4385 84.4523 54.5345 84.4523H55.5603C55.6563 84.4523 55.7343 84.4163 55.7943 84.3443C55.8663 84.2723 55.9023 84.1883 55.9023 84.0923Z" fill="#ED4700"/>
<g clip-path="url(#clip0_2928_267206)">
<path d="M32 40.1149C32 35.1443 27.9706 31.1149 23 31.1149C18.0294 31.1149 14 35.1443 14 40.1149C14 42.2293 14.7291 44.1734 15.9497 45.7095L32 62.9797V51.5473V40.1149Z" fill="#ED4700"/>
<path d="M32 40.1149C32 35.1443 36.0294 31.1149 41 31.1149C45.9706 31.1149 50 35.1443 50 40.1149C50 42.2293 49.2709 44.1734 48.0503 45.7095L32 62.9797V51.5473V40.1149Z" fill="#ED4700"/>
</g>
<path d="M53 8.70479C53 7.04794 51.6569 5.70479 50 5.70479C48.3431 5.70479 47 7.04794 47 8.70479C47 9.4096 47.243 10.0576 47.6499 10.5697L53 16.3264V12.5156V8.70479Z" fill="#ED4700"/>
<path d="M53 8.70479C53 7.04794 54.3431 5.70479 56 5.70479C57.6569 5.70479 59 7.04794 59 8.70479C59 9.4096 58.757 10.0576 58.3501 10.5697L53 16.3264V12.5156V8.70479Z" fill="#ED4700"/>
<path d="M11 77.7048C11 76.0479 9.65685 74.7048 8 74.7048C6.34315 74.7048 5 76.0479 5 77.7048C5 78.4096 5.24305 79.0576 5.6499 79.5697L11 85.3264V81.5156V77.7048Z" fill="#ED4700"/>
<path d="M11 77.7048C11 76.0479 12.3431 74.7048 14 74.7048C15.6569 74.7048 17 76.0479 17 77.7048C17 78.4096 16.757 79.0576 16.3501 79.5697L11 85.3264V81.5156V77.7048Z" fill="#ED4700"/>
<defs>
<linearGradient id="paint0_linear_2928_267206" x1="2.06452" y1="92" x2="56.6415" y2="5.15165" gradientUnits="userSpaceOnUse">
<stop stop-color="#DAD7C9"/>
<stop offset="1" stop-color="#FFFCED"/>
</linearGradient>
<clipPath id="clip0_2928_267206">
<rect width="36" height="36" fill="white" transform="translate(14 29)"/>
</clipPath>
</defs>
</svg>
