<svg width="64" height="92" viewBox="0 0 64 92" fill="none" xmlns="http://www.w3.org/2000/svg">
<path d="M0 4C0 1.79086 1.79086 0 4 0H60C62.2091 0 64 1.79086 64 4V88C64 90.2091 62.2091 92 60 92H4C1.79086 92 0 90.2091 0 88V4Z" fill="url(#paint0_linear_2928_267134)"/>
<path d="M8.36545 13.0047V14.9303H12.2528V17H6.06183V12.8067C6.06183 11.2229 6.80571 10.4311 8.29346 10.4311H9.73323C9.82921 10.4311 9.9072 10.3951 9.96719 10.3231C10.0392 10.2511 10.0752 10.1671 10.0752 10.0711V7.49755C10.0752 7.40156 10.0392 7.31758 9.96719 7.24559C9.9072 7.1736 9.82921 7.1376 9.73323 7.1376H8.6714C8.57542 7.1376 8.49143 7.1736 8.41944 7.24559C8.35945 7.31758 8.32946 7.40156 8.32946 7.49755V8.4154H5.93585V7.55154C5.93585 5.9678 6.67973 5.17592 8.16748 5.17592H10.1652C11.6529 5.17592 12.3968 5.9678 12.3968 7.55154V10.2691C12.3968 11.8528 11.6529 12.6447 10.1652 12.6447H8.7074C8.61141 12.6447 8.52743 12.6807 8.45544 12.7527C8.39545 12.8247 8.36545 12.9087 8.36545 13.0047Z" fill="#ED4700"/>
<path d="M54.0172 82.0047V83.9303H57.9046V86H51.7136V81.8067C51.7136 80.2229 52.4575 79.4311 53.9452 79.4311H55.385C55.481 79.4311 55.559 79.3951 55.6189 79.3231C55.6909 79.2511 55.7269 79.1671 55.7269 79.0711V76.4975C55.7269 76.4016 55.6909 76.3176 55.6189 76.2456C55.559 76.1736 55.481 76.1376 55.385 76.1376H54.3232C54.2272 76.1376 54.1432 76.1736 54.0712 76.2456C54.0112 76.3176 53.9812 76.4016 53.9812 76.4975V77.4154H51.5876V76.5515C51.5876 74.9678 52.3315 74.1759 53.8192 74.1759H55.8169C57.3047 74.1759 58.0485 74.9678 58.0485 76.5515V79.2691C58.0485 80.8528 57.3047 81.6447 55.8169 81.6447H54.3591C54.2632 81.6447 54.1792 81.6807 54.1072 81.7527C54.0472 81.8247 54.0172 81.9087 54.0172 82.0047Z" fill="#ED4700"/>
<g clip-path="url(#clip0_2928_267134)">
<path d="M32 40.1149C32 35.1443 27.9706 31.1149 23 31.1149C18.0294 31.1149 14 35.1443 14 40.1149C14 42.2293 14.7291 44.1734 15.9497 45.7095L32 62.9797V51.5473V40.1149Z" fill="#ED4700"/>
<path d="M32 40.1149C32 35.1443 36.0294 31.1149 41 31.1149C45.9706 31.1149 50 35.1443 50 40.1149C50 42.2293 49.2709 44.1734 48.0503 45.7095L32 62.9797V51.5473V40.1149Z" fill="#ED4700"/>
</g>
<path d="M53 8.70479C53 7.04794 51.6569 5.70479 50 5.70479C48.3431 5.70479 47 7.04794 47 8.70479C47 9.4096 47.243 10.0576 47.6499 10.5697L53 16.3264V12.5156V8.70479Z" fill="#ED4700"/>
<path d="M53 8.70479C53 7.04794 54.3431 5.70479 56 5.70479C57.6569 5.70479 59 7.04794 59 8.70479C59 9.4096 58.757 10.0576 58.3501 10.5697L53 16.3264V12.5156V8.70479Z" fill="#ED4700"/>
<path d="M11 77.7048C11 76.0479 9.65685 74.7048 8 74.7048C6.34315 74.7048 5 76.0479 5 77.7048C5 78.4096 5.24305 79.0576 5.6499 79.5697L11 85.3264V81.5156V77.7048Z" fill="#ED4700"/>
<path d="M11 77.7048C11 76.0479 12.3431 74.7048 14 74.7048C15.6569 74.7048 17 76.0479 17 77.7048C17 78.4096 16.757 79.0576 16.3501 79.5697L11 85.3264V81.5156V77.7048Z" fill="#ED4700"/>
<defs>
<linearGradient id="paint0_linear_2928_267134" x1="2.06452" y1="92" x2="56.6415" y2="5.15165" gradientUnits="userSpaceOnUse">
<stop stop-color="#DAD7C9"/>
<stop offset="1" stop-color="#FFFCED"/>
</linearGradient>
<clipPath id="clip0_2928_267134">
<rect width="36" height="36" fill="white" transform="translate(14 29)"/>
</clipPath>
</defs>
</svg>
