<svg width="64" height="92" viewBox="0 0 64 92" fill="none" xmlns="http://www.w3.org/2000/svg">
<path d="M0 4C0 1.79086 1.79086 0 4 0H60C62.2091 0 64 1.79086 64 4V88C64 90.2091 62.2091 92 60 92H4C1.79086 92 0 90.2091 0 88V4Z" fill="url(#paint0_linear_2928_267146)"/>
<path d="M10.2551 5.3559H12.5048V17H10.2551V12.4107H8.14949C6.66173 12.4107 5.91785 11.6189 5.91785 10.0351V5.3559H8.14949V9.92715C8.14949 10.0231 8.17948 10.1071 8.23947 10.1791C8.31146 10.2511 8.39545 10.2871 8.49143 10.2871H9.9132C10.0092 10.2871 10.0872 10.2511 10.1472 10.1791C10.2192 10.1071 10.2551 10.0231 10.2551 9.92715V5.3559Z" fill="#ED4700"/>
<path d="M55.8542 74.3559H58.1038V86H55.8542V81.4107H53.7485C52.2608 81.4107 51.5169 80.6189 51.5169 79.0351V74.3559H53.7485V78.9272C53.7485 79.0231 53.7785 79.1071 53.8385 79.1791C53.9105 79.2511 53.9945 79.2871 54.0905 79.2871H55.5122C55.6082 79.2871 55.6862 79.2511 55.7462 79.1791C55.8182 79.1071 55.8542 79.0231 55.8542 78.9272V74.3559Z" fill="#ED4700"/>
<g clip-path="url(#clip0_2928_267146)">
<path d="M32 40.1149C32 35.1443 27.9706 31.1149 23 31.1149C18.0294 31.1149 14 35.1443 14 40.1149C14 42.2293 14.7291 44.1734 15.9497 45.7095L32 62.9797V51.5473V40.1149Z" fill="#ED4700"/>
<path d="M32 40.1149C32 35.1443 36.0294 31.1149 41 31.1149C45.9706 31.1149 50 35.1443 50 40.1149C50 42.2293 49.2709 44.1734 48.0503 45.7095L32 62.9797V51.5473V40.1149Z" fill="#ED4700"/>
</g>
<path d="M53 8.70479C53 7.04794 51.6569 5.70479 50 5.70479C48.3431 5.70479 47 7.04794 47 8.70479C47 9.4096 47.243 10.0576 47.6499 10.5697L53 16.3264V12.5156V8.70479Z" fill="#ED4700"/>
<path d="M53 8.70479C53 7.04794 54.3431 5.70479 56 5.70479C57.6569 5.70479 59 7.04794 59 8.70479C59 9.4096 58.757 10.0576 58.3501 10.5697L53 16.3264V12.5156V8.70479Z" fill="#ED4700"/>
<path d="M11 77.7048C11 76.0479 9.65685 74.7048 8 74.7048C6.34315 74.7048 5 76.0479 5 77.7048C5 78.4096 5.24305 79.0576 5.6499 79.5697L11 85.3264V81.5156V77.7048Z" fill="#ED4700"/>
<path d="M11 77.7048C11 76.0479 12.3431 74.7048 14 74.7048C15.6569 74.7048 17 76.0479 17 77.7048C17 78.4096 16.757 79.0576 16.3501 79.5697L11 85.3264V81.5156V77.7048Z" fill="#ED4700"/>
<defs>
<linearGradient id="paint0_linear_2928_267146" x1="2.06452" y1="92" x2="56.6415" y2="5.15165" gradientUnits="userSpaceOnUse">
<stop stop-color="#DAD7C9"/>
<stop offset="1" stop-color="#FFFCED"/>
</linearGradient>
<clipPath id="clip0_2928_267146">
<rect width="36" height="36" fill="white" transform="translate(14 29)"/>
</clipPath>
</defs>
</svg>
