<svg width="64" height="92" viewBox="0 0 64 92" fill="none" xmlns="http://www.w3.org/2000/svg">
<path d="M0 4C0 1.79086 1.79086 0 4 0H60C62.2091 0 64 1.79086 64 4V88C64 90.2091 62.2091 92 60 92H4C1.79086 92 0 90.2091 0 88V4Z" fill="url(#paint0_linear_2928_267156)"/>
<path d="M8.11349 7.28158V9.35124C8.11349 9.44723 8.14349 9.53122 8.20348 9.6032C8.27547 9.67519 8.35945 9.71119 8.45544 9.71119H10.1652C11.6529 9.71119 12.3968 10.5031 12.3968 12.0868V14.8044C12.3968 16.3881 11.6529 17.18 10.1652 17.18H8.16748C6.67973 17.18 5.93585 16.3881 5.93585 14.8044V13.9405H8.32946V14.8583C8.32946 14.9543 8.35945 15.0383 8.41944 15.1103C8.49143 15.1823 8.57542 15.2183 8.6714 15.2183H9.73323C9.82921 15.2183 9.9072 15.1823 9.96719 15.1103C10.0392 15.0383 10.0752 14.9543 10.0752 14.8583V12.2848C10.0752 12.1888 10.0392 12.1048 9.96719 12.0328C9.9072 11.9608 9.82921 11.9248 9.73323 11.9248H8.04151C6.55375 11.9248 5.80987 11.133 5.80987 9.54921V5.3559H11.9289V7.28158H8.11349Z" fill="#ED4700"/>
<path d="M53.7828 76.2816V78.3512C53.7828 78.4472 53.8128 78.5312 53.8728 78.6032C53.9448 78.6752 54.0288 78.7112 54.1248 78.7112H55.8345C57.3222 78.7112 58.0661 79.5031 58.0661 81.0868V83.8044C58.0661 85.3881 57.3222 86.18 55.8345 86.18H53.8368C52.3491 86.18 51.6052 85.3881 51.6052 83.8044V82.9405H53.9988V83.8583C53.9988 83.9543 54.0288 84.0383 54.0888 84.1103C54.1608 84.1823 54.2447 84.2183 54.3407 84.2183H55.4026C55.4985 84.2183 55.5765 84.1823 55.6365 84.1103C55.7085 84.0383 55.7445 83.9543 55.7445 83.8583V81.2848C55.7445 81.1888 55.7085 81.1048 55.6365 81.0328C55.5765 80.9608 55.4985 80.9248 55.4026 80.9248H53.7108C52.2231 80.9248 51.4792 80.133 51.4792 78.5492V74.3559H57.5982V76.2816H53.7828Z" fill="#ED4700"/>
<g clip-path="url(#clip0_2928_267156)">
<path d="M32 40.1149C32 35.1443 27.9706 31.1149 23 31.1149C18.0294 31.1149 14 35.1443 14 40.1149C14 42.2293 14.7291 44.1734 15.9497 45.7095L32 62.9797V51.5473V40.1149Z" fill="#ED4700"/>
<path d="M32 40.1149C32 35.1443 36.0294 31.1149 41 31.1149C45.9706 31.1149 50 35.1443 50 40.1149C50 42.2293 49.2709 44.1734 48.0503 45.7095L32 62.9797V51.5473V40.1149Z" fill="#ED4700"/>
</g>
<path d="M53 8.70479C53 7.04794 51.6569 5.70479 50 5.70479C48.3431 5.70479 47 7.04794 47 8.70479C47 9.4096 47.243 10.0576 47.6499 10.5697L53 16.3264V12.5156V8.70479Z" fill="#ED4700"/>
<path d="M53 8.70479C53 7.04794 54.3431 5.70479 56 5.70479C57.6569 5.70479 59 7.04794 59 8.70479C59 9.4096 58.757 10.0576 58.3501 10.5697L53 16.3264V12.5156V8.70479Z" fill="#ED4700"/>
<path d="M11 77.7048C11 76.0479 9.65685 74.7048 8 74.7048C6.34315 74.7048 5 76.0479 5 77.7048C5 78.4096 5.24305 79.0576 5.6499 79.5697L11 85.3264V81.5156V77.7048Z" fill="#ED4700"/>
<path d="M11 77.7048C11 76.0479 12.3431 74.7048 14 74.7048C15.6569 74.7048 17 76.0479 17 77.7048C17 78.4096 16.757 79.0576 16.3501 79.5697L11 85.3264V81.5156V77.7048Z" fill="#ED4700"/>
<defs>
<linearGradient id="paint0_linear_2928_267156" x1="2.06452" y1="92" x2="56.6415" y2="5.15165" gradientUnits="userSpaceOnUse">
<stop stop-color="#DAD7C9"/>
<stop offset="1" stop-color="#FFFCED"/>
</linearGradient>
<clipPath id="clip0_2928_267156">
<rect width="36" height="36" fill="white" transform="translate(14 29)"/>
</clipPath>
</defs>
</svg>
