<svg width="64" height="92" viewBox="0 0 64 92" fill="none" xmlns="http://www.w3.org/2000/svg">
<path d="M0 4C0 1.79086 1.79086 0 4 0H60C62.2091 0 64 1.79086 64 4V88C64 90.2091 62.2091 92 60 92H4C1.79086 92 0 90.2091 0 88V4Z" fill="url(#paint0_linear_2928_267176)"/>
<path d="M5.88186 5.3559H11.8209L9.40928 17H7.12365L9.01335 7.28158H5.88186V5.3559Z" fill="#ED4700"/>
<path d="M52.3069 74.3559H58.246L55.8343 86H53.5487L55.4384 76.2816H52.3069V74.3559Z" fill="#ED4700"/>
<g clip-path="url(#clip0_2928_267176)">
<path d="M32 40.1149C32 35.1443 27.9706 31.1149 23 31.1149C18.0294 31.1149 14 35.1443 14 40.1149C14 42.2293 14.7291 44.1734 15.9497 45.7095L32 62.9797V51.5473V40.1149Z" fill="#ED4700"/>
<path d="M32 40.1149C32 35.1443 36.0294 31.1149 41 31.1149C45.9706 31.1149 50 35.1443 50 40.1149C50 42.2293 49.2709 44.1734 48.0503 45.7095L32 62.9797V51.5473V40.1149Z" fill="#ED4700"/>
</g>
<path d="M53 8.70479C53 7.04794 51.6569 5.70479 50 5.70479C48.3431 5.70479 47 7.04794 47 8.70479C47 9.4096 47.243 10.0576 47.6499 10.5697L53 16.3264V12.5156V8.70479Z" fill="#ED4700"/>
<path d="M53 8.70479C53 7.04794 54.3431 5.70479 56 5.70479C57.6569 5.70479 59 7.04794 59 8.70479C59 9.4096 58.757 10.0576 58.3501 10.5697L53 16.3264V12.5156V8.70479Z" fill="#ED4700"/>
<path d="M11 77.7048C11 76.0479 9.65685 74.7048 8 74.7048C6.34315 74.7048 5 76.0479 5 77.7048C5 78.4096 5.24305 79.0576 5.6499 79.5697L11 85.3264V81.5156V77.7048Z" fill="#ED4700"/>
<path d="M11 77.7048C11 76.0479 12.3431 74.7048 14 74.7048C15.6569 74.7048 17 76.0479 17 77.7048C17 78.4096 16.757 79.0576 16.3501 79.5697L11 85.3264V81.5156V77.7048Z" fill="#ED4700"/>
<defs>
<linearGradient id="paint0_linear_2928_267176" x1="2.06452" y1="92" x2="56.6415" y2="5.15165" gradientUnits="userSpaceOnUse">
<stop stop-color="#DAD7C9"/>
<stop offset="1" stop-color="#FFFCED"/>
</linearGradient>
<clipPath id="clip0_2928_267176">
<rect width="36" height="36" fill="white" transform="translate(14 29)"/>
</clipPath>
</defs>
</svg>
