<svg width="64" height="92" viewBox="0 0 64 92" fill="none" xmlns="http://www.w3.org/2000/svg">
<path d="M0 4C0 1.79086 1.79086 0 4 0H60C62.2091 0 64 1.79086 64 4V88C64 90.2091 62.2091 92 60 92H4C1.79086 92 0 90.2091 0 88V4Z" fill="url(#paint0_linear_2928_267186)"/>
<path d="M11.6949 11.043C12.2588 11.4389 12.5408 12.1168 12.5408 13.0766V14.8044C12.5408 16.3881 11.7969 17.18 10.3091 17.18H8.18548C6.69772 17.18 5.95384 16.3881 5.95384 14.8044V13.0766C5.95384 12.1168 6.2358 11.4389 6.79971 11.043C6.30779 10.683 6.06183 10.0351 6.06183 9.09929V7.55154C6.06183 5.9678 6.80571 5.17592 8.29346 5.17592H10.2012C11.6889 5.17592 12.4328 5.9678 12.4328 7.55154V9.09929C12.4328 10.0351 12.1868 10.683 11.6949 11.043ZM8.31146 7.55154V9.74718C8.31146 9.84316 8.34146 9.92715 8.40145 9.99914C8.47343 10.0711 8.55742 10.1071 8.65341 10.1071H9.85921C9.95519 10.1071 10.0332 10.0711 10.0932 9.99914C10.1652 9.92715 10.2012 9.84316 10.2012 9.74718V7.55154C10.2012 7.45555 10.1652 7.37157 10.0932 7.29958C10.0332 7.22759 9.95519 7.1916 9.85921 7.1916H8.65341C8.55742 7.1916 8.47343 7.22759 8.40145 7.29958C8.34146 7.37157 8.31146 7.45555 8.31146 7.55154ZM10.3091 14.8583V12.4647C10.3091 12.3688 10.2731 12.2848 10.2012 12.2128C10.1412 12.1408 10.0632 12.1048 9.96719 12.1048H8.54542C8.44944 12.1048 8.36545 12.1408 8.29346 12.2128C8.23347 12.2848 8.20348 12.3688 8.20348 12.4647V14.8583C8.20348 14.9543 8.23347 15.0383 8.29346 15.1103C8.36545 15.1823 8.44944 15.2183 8.54542 15.2183H9.96719C10.0632 15.2183 10.1412 15.1823 10.2012 15.1103C10.2731 15.0383 10.3091 14.9543 10.3091 14.8583Z" fill="#ED4700"/>
<path d="M57.2588 80.043C57.8227 80.4389 58.1046 81.1168 58.1046 82.0766V83.8044C58.1046 85.3881 57.3608 86.18 55.873 86.18H53.7494C52.2616 86.18 51.5177 85.3881 51.5177 83.8044V82.0766C51.5177 81.1168 51.7997 80.4389 52.3636 80.043C51.8717 79.683 51.6257 79.0351 51.6257 78.0993V76.5515C51.6257 74.9678 52.3696 74.1759 53.8573 74.1759H55.765C57.2528 74.1759 57.9967 74.9678 57.9967 76.5515V78.0993C57.9967 79.0351 57.7507 79.683 57.2588 80.043ZM53.8753 76.5515V78.7472C53.8753 78.8432 53.9053 78.9272 53.9653 78.9991C54.0373 79.0711 54.1213 79.1071 54.2173 79.1071H55.4231C55.5191 79.1071 55.5971 79.0711 55.657 78.9991C55.729 78.9272 55.765 78.8432 55.765 78.7472V76.5515C55.765 76.4556 55.729 76.3716 55.657 76.2996C55.5971 76.2276 55.5191 76.1916 55.4231 76.1916H54.2173C54.1213 76.1916 54.0373 76.2276 53.9653 76.2996C53.9053 76.3716 53.8753 76.4556 53.8753 76.5515ZM55.873 83.8583V81.4647C55.873 81.3688 55.837 81.2848 55.765 81.2128C55.705 81.1408 55.627 81.1048 55.5311 81.1048H54.1093C54.0133 81.1048 53.9293 81.1408 53.8573 81.2128C53.7973 81.2848 53.7674 81.3688 53.7674 81.4647V83.8583C53.7674 83.9543 53.7973 84.0383 53.8573 84.1103C53.9293 84.1823 54.0133 84.2183 54.1093 84.2183H55.5311C55.627 84.2183 55.705 84.1823 55.765 84.1103C55.837 84.0383 55.873 83.9543 55.873 83.8583Z" fill="#ED4700"/>
<g clip-path="url(#clip0_2928_267186)">
<path d="M32 40.1149C32 35.1443 27.9706 31.1149 23 31.1149C18.0294 31.1149 14 35.1443 14 40.1149C14 42.2293 14.7291 44.1734 15.9497 45.7095L32 62.9797V51.5473V40.1149Z" fill="#ED4700"/>
<path d="M32 40.1149C32 35.1443 36.0294 31.1149 41 31.1149C45.9706 31.1149 50 35.1443 50 40.1149C50 42.2293 49.2709 44.1734 48.0503 45.7095L32 62.9797V51.5473V40.1149Z" fill="#ED4700"/>
</g>
<path d="M53 8.70479C53 7.04794 51.6569 5.70479 50 5.70479C48.3431 5.70479 47 7.04794 47 8.70479C47 9.4096 47.243 10.0576 47.6499 10.5697L53 16.3264V12.5156V8.70479Z" fill="#ED4700"/>
<path d="M53 8.70479C53 7.04794 54.3431 5.70479 56 5.70479C57.6569 5.70479 59 7.04794 59 8.70479C59 9.4096 58.757 10.0576 58.3501 10.5697L53 16.3264V12.5156V8.70479Z" fill="#ED4700"/>
<path d="M11 77.7048C11 76.0479 9.65685 74.7048 8 74.7048C6.34315 74.7048 5 76.0479 5 77.7048C5 78.4096 5.24305 79.0576 5.6499 79.5697L11 85.3264V81.5156V77.7048Z" fill="#ED4700"/>
<path d="M11 77.7048C11 76.0479 12.3431 74.7048 14 74.7048C15.6569 74.7048 17 76.0479 17 77.7048C17 78.4096 16.757 79.0576 16.3501 79.5697L11 85.3264V81.5156V77.7048Z" fill="#ED4700"/>
<defs>
<linearGradient id="paint0_linear_2928_267186" x1="2.06452" y1="92" x2="56.6415" y2="5.15165" gradientUnits="userSpaceOnUse">
<stop stop-color="#DAD7C9"/>
<stop offset="1" stop-color="#FFFCED"/>
</linearGradient>
<clipPath id="clip0_2928_267186">
<rect width="36" height="36" fill="white" transform="translate(14 29)"/>
</clipPath>
</defs>
</svg>
