<svg width="64" height="92" viewBox="0 0 64 92" fill="none" xmlns="http://www.w3.org/2000/svg">
<path d="M0 4C0 1.79086 1.79086 0 4 0H60C62.2091 0 64 1.79086 64 4V88C64 90.2091 62.2091 92 60 92H4C1.79086 92 0 90.2091 0 88V4Z" fill="url(#paint0_linear_2928_267196)"/>
<path d="M8.90536 12.4107H8.00551C6.51775 12.4107 5.77387 11.6189 5.77387 10.0351V7.55154C5.77387 5.9678 6.51775 5.17592 8.00551 5.17592H10.1292C11.6169 5.17592 12.3608 5.9678 12.3608 7.55154V14.8044C12.3608 16.3881 11.6169 17.18 10.1292 17.18H8.18548C6.69772 17.18 5.95384 16.3881 5.95384 14.8044V13.9405H8.25747V14.8583C8.25747 14.9543 8.28746 15.0383 8.34746 15.1103C8.41944 15.1823 8.50343 15.2183 8.59941 15.2183H9.76922C9.86521 15.2183 9.9432 15.1823 10.0032 15.1103C10.0752 15.0383 10.1112 14.9543 10.1112 14.8583V12.1768C9.78722 12.3328 9.38529 12.4107 8.90536 12.4107ZM8.00551 7.74951V9.83717C8.00551 9.93315 8.03551 10.0171 8.0955 10.0891C8.16748 10.1611 8.25147 10.1971 8.34746 10.1971H9.76922C9.86521 10.1971 9.9432 10.1611 10.0032 10.0891C10.0752 10.0171 10.1112 9.93315 10.1112 9.83717V7.74951C10.1112 7.65352 10.0752 7.56953 10.0032 7.49755C9.9432 7.42556 9.86521 7.38956 9.76922 7.38956H8.34746C8.25147 7.38956 8.16748 7.42556 8.0955 7.49755C8.03551 7.56953 8.00551 7.65352 8.00551 7.74951Z" fill="#ED4700"/>
<path d="M54.7153 81.4107H53.8154C52.3277 81.4107 51.5838 80.6189 51.5838 79.0351V76.5515C51.5838 74.9678 52.3277 74.1759 53.8154 74.1759H55.9391C57.4269 74.1759 58.1707 74.9678 58.1707 76.5515V83.8044C58.1707 85.3881 57.4269 86.18 55.9391 86.18H53.9954C52.5077 86.18 51.7638 85.3881 51.7638 83.8044V82.9405H54.0674V83.8583C54.0674 83.9543 54.0974 84.0383 54.1574 84.1103C54.2294 84.1823 54.3134 84.2183 54.4093 84.2183H55.5792C55.6751 84.2183 55.7531 84.1823 55.8131 84.1103C55.8851 84.0383 55.9211 83.9543 55.9211 83.8583V81.1768C55.5971 81.3328 55.1952 81.4107 54.7153 81.4107ZM53.8154 76.7495V78.8372C53.8154 78.9332 53.8454 79.0171 53.9054 79.0891C53.9774 79.1611 54.0614 79.1971 54.1574 79.1971H55.5792C55.6751 79.1971 55.7531 79.1611 55.8131 79.0891C55.8851 79.0171 55.9211 78.9332 55.9211 78.8372V76.7495C55.9211 76.6535 55.8851 76.5695 55.8131 76.4975C55.7531 76.4256 55.6751 76.3896 55.5792 76.3896H54.1574C54.0614 76.3896 53.9774 76.4256 53.9054 76.4975C53.8454 76.5695 53.8154 76.6535 53.8154 76.7495Z" fill="#ED4700"/>
<g clip-path="url(#clip0_2928_267196)">
<path d="M32 40.1149C32 35.1443 27.9706 31.1149 23 31.1149C18.0294 31.1149 14 35.1443 14 40.1149C14 42.2293 14.7291 44.1734 15.9497 45.7095L32 62.9797V51.5473V40.1149Z" fill="#ED4700"/>
<path d="M32 40.1149C32 35.1443 36.0294 31.1149 41 31.1149C45.9706 31.1149 50 35.1443 50 40.1149C50 42.2293 49.2709 44.1734 48.0503 45.7095L32 62.9797V51.5473V40.1149Z" fill="#ED4700"/>
</g>
<path d="M53 8.70479C53 7.04794 51.6569 5.70479 50 5.70479C48.3431 5.70479 47 7.04794 47 8.70479C47 9.4096 47.243 10.0576 47.6499 10.5697L53 16.3264V12.5156V8.70479Z" fill="#ED4700"/>
<path d="M53 8.70479C53 7.04794 54.3431 5.70479 56 5.70479C57.6569 5.70479 59 7.04794 59 8.70479C59 9.4096 58.757 10.0576 58.3501 10.5697L53 16.3264V12.5156V8.70479Z" fill="#ED4700"/>
<path d="M11 77.7048C11 76.0479 9.65685 74.7048 8 74.7048C6.34315 74.7048 5 76.0479 5 77.7048C5 78.4096 5.24305 79.0576 5.6499 79.5697L11 85.3264V81.5156V77.7048Z" fill="#ED4700"/>
<path d="M11 77.7048C11 76.0479 12.3431 74.7048 14 74.7048C15.6569 74.7048 17 76.0479 17 77.7048C17 78.4096 16.757 79.0576 16.3501 79.5697L11 85.3264V81.5156V77.7048Z" fill="#ED4700"/>
<defs>
<linearGradient id="paint0_linear_2928_267196" x1="2.06452" y1="92" x2="56.6415" y2="5.15165" gradientUnits="userSpaceOnUse">
<stop stop-color="#DAD7C9"/>
<stop offset="1" stop-color="#FFFCED"/>
</linearGradient>
<clipPath id="clip0_2928_267196">
<rect width="36" height="36" fill="white" transform="translate(14 29)"/>
</clipPath>
</defs>
</svg>
