<svg width="64" height="92" viewBox="0 0 64 92" fill="none" xmlns="http://www.w3.org/2000/svg">
<path d="M0 4C0 1.79086 1.79086 0 4 0H60C62.2091 0 64 1.79086 64 4V88C64 90.2091 62.2091 92 60 92H4C1.79086 92 0 90.2091 0 88V4Z" fill="url(#paint0_linear_2928_267236)"/>
<path d="M13.1527 5.3559L11.173 10.701L13.5306 17H10.957L9.22931 12.3927H8.41944V17H5.89985V5.3559H8.41944V10.2331H9.03134L10.849 5.3559H13.1527Z" fill="#ED4700"/>
<path d="M58.6638 74.3559L56.6841 79.701L59.0418 86H56.4682L54.7405 81.3927H53.9306V86H51.411V74.3559H53.9306V79.2331H54.5425L56.3602 74.3559H58.6638Z" fill="#ED4700"/>
<path d="M42.9639 49.3265C42.8878 57.4261 38.8105 61.3308 33.7717 61.6556C28.7329 61.9803 23.9902 58.333 23.6358 52.9379C23.6358 52.9379 23.3474 44.2298 23.4732 40.8657C23.6641 31.5735 36.3945 35.0179 42.7358 37.9016C42.8371 39.01 43.0247 42.8467 42.9639 49.3265Z" fill="url(#paint1_linear_2928_267236)"/>
<path d="M24.0136 51.6163C24.3189 51.6163 24.0136 41.2387 25.2345 39.7126L27.3711 38.5242C27.1676 36.4894 26.5088 35.5941 23.8229 38.5242C22.0725 40.4337 18.3616 52.1815 24.0136 51.6163Z" fill="#FF6B00"/>
<path d="M22.0001 47.7501C22.0001 44.0001 21.7501 44.75 23.8224 38.5242C22.072 40.4337 18.3611 52.1814 24.0131 51.6162C24.1009 51.6162 24.1382 50.7585 24.1758 49.5C24.0001 50.5 22.0001 51.5 22.0001 47.7501Z" fill="#CC5804"/>
<path opacity="0.5" d="M40.5332 45.2826V46.7291V51.0186C40.5332 52.4569 43.4107 52.1315 43.9423 51.0186C45.3297 48.1144 44.0255 43.3623 42.454 43.3623C40.8824 43.3623 40.5332 44.3848 40.5332 45.2826Z" fill="#D07F5E"/>
<path d="M40.5332 45.2826V46.7291V51.0186C40.5332 52.4569 42.9149 52.1315 43.3549 51.0186C44.5033 48.1144 43.4238 43.3623 42.123 43.3623C40.8223 43.3623 40.5332 44.3848 40.5332 45.2826Z" fill="#FCC2A2"/>
<path d="M40.5332 46.559V47.2324V49.2294C40.5332 49.899 41.8728 49.7475 42.1203 49.2294C42.7662 47.8774 42.159 45.665 41.4274 45.665C40.6958 45.665 40.5332 46.1411 40.5332 46.559Z" fill="#D07F5E"/>
<path d="M40.5332 47.8114V48.1774V49.2628C40.5332 49.6268 41.1001 49.5444 41.2049 49.2628C41.4782 48.5279 41.2213 47.3254 40.9116 47.3254C40.602 47.3254 40.5332 47.5842 40.5332 47.8114Z" fill="#FCC2A2"/>
<path d="M36.7722 45.9123C36.7168 46.8733 35.8969 47.6078 34.9408 47.5527C33.9847 47.4977 33.2546 46.674 33.3099 45.713C33.3653 44.752 34.1852 44.0175 35.1413 44.0726C36.0973 44.1276 36.8275 44.9513 36.7722 45.9123Z" fill="#E89979"/>
<path d="M36.007 45.8267C36.007 46.5399 35.4288 47.118 34.7154 47.118C34.0021 47.118 33.4238 46.5399 33.4238 45.8267C33.4238 45.1135 34.0021 44.5354 34.7154 44.5354C35.4288 44.5354 36.007 45.1135 36.007 45.8267Z" fill="#261611"/>
<path opacity="0.1" d="M35.8119 46.1065C35.8119 46.2959 35.3206 46.9651 34.7146 46.9651C34.1085 46.9651 33.6172 46.2959 33.6172 46.1065C33.6172 45.9172 34.1085 46.1985 34.7146 46.1985C35.3206 46.1985 35.8119 45.9172 35.8119 46.1065Z" fill="#F3CEC4"/>
<path d="M34.7156 45.3416C34.7156 45.6249 34.4859 45.8546 34.2025 45.8546C33.9192 45.8546 33.6895 45.6249 33.6895 45.3416C33.6895 45.0583 33.9192 44.8286 34.2025 44.8286C34.4859 44.8286 34.7156 45.0583 34.7156 45.3416Z" fill="#F3CEC4"/>
<path opacity="0.2" d="M35.401 45.3416C35.401 45.4452 35.3169 45.5293 35.2132 45.5293C35.1095 45.5293 35.0254 45.4452 35.0254 45.3416C35.0254 45.2379 35.1095 45.1538 35.2132 45.1538C35.3169 45.1538 35.401 45.2379 35.401 45.3416Z" fill="#F3CEC4"/>
<path d="M32.9025 43.2236C32.412 42.7521 32.5663 42.207 33.0157 41.677C33.4651 41.1469 37.2982 42.2239 37.7133 42.3182C38.1283 42.4126 38.2227 42.9218 37.9019 43.2236C37.5812 43.5254 33.393 43.6951 32.9025 43.2236Z" fill="#FF6B00"/>
<path opacity="0.5" d="M33.2379 43.1306C32.8147 42.9185 32.9478 42.6732 33.3356 42.4348C33.7234 42.1964 37.031 42.6809 37.3891 42.7233C37.7473 42.7657 37.8287 42.9948 37.5519 43.1306C37.2752 43.2664 33.6612 43.3427 33.2379 43.1306Z" fill="black" fill-opacity="0.15"/>
<path d="M30.4647 43.2236C30.9552 42.7521 30.8009 42.207 30.3515 41.677C29.9021 41.1469 26.069 42.2239 25.6539 42.3182C25.2389 42.4126 25.1445 42.9218 25.4653 43.2236C25.786 43.5254 29.9742 43.6951 30.4647 43.2236Z" fill="#FF6B00"/>
<path opacity="0.5" d="M30.1293 43.1306C30.5525 42.9185 30.4194 42.6732 30.0316 42.4348C29.6438 42.1964 26.3362 42.6809 25.978 42.7233C25.6199 42.7657 25.5385 42.9948 25.8152 43.1306C26.092 43.2664 29.706 43.3427 30.1293 43.1306Z" fill="black" fill-opacity="0.15"/>
<path d="M28.8366 45.9121C28.7813 46.8731 27.9613 47.6075 27.0053 47.5525C26.0492 47.4975 25.319 46.6738 25.3744 45.7127C25.4297 44.7517 26.2497 44.0173 27.2057 44.0723C28.1618 44.1274 28.892 44.9511 28.8366 45.9121Z" fill="#E89979"/>
<path d="M28.0715 45.8265C28.0715 46.5396 27.4932 47.1178 26.7799 47.1178C26.0666 47.1178 25.4883 46.5396 25.4883 45.8265C25.4883 45.1133 26.0666 44.5352 26.7799 44.5352C27.4932 44.5352 28.0715 45.1133 28.0715 45.8265Z" fill="#261611"/>
<path opacity="0.1" d="M27.8764 46.1063C27.8764 46.2957 27.3851 46.9649 26.779 46.9649C26.1729 46.9649 25.6816 46.2957 25.6816 46.1063C25.6816 45.9169 26.1729 46.1983 26.779 46.1983C27.3851 46.1983 27.8764 45.9169 27.8764 46.1063Z" fill="#F3CEC4"/>
<path d="M26.7801 45.3413C26.7801 45.6247 26.5504 45.8543 26.267 45.8543C25.9836 45.8543 25.7539 45.6247 25.7539 45.3413C25.7539 45.058 25.9836 44.8284 26.267 44.8284C26.5504 44.8284 26.7801 45.058 26.7801 45.3413Z" fill="#F3CEC4"/>
<path opacity="0.2" d="M27.4654 45.3413C27.4654 45.445 27.3813 45.5291 27.2776 45.5291C27.1739 45.5291 27.0898 45.445 27.0898 45.3413C27.0898 45.2376 27.1739 45.1536 27.2776 45.1536C27.3813 45.1536 27.4654 45.2376 27.4654 45.3413Z" fill="#F3CEC4"/>
<path d="M29.6795 50.8463L30.6667 44.5L31.8333 49.5L33 50.75V52H30.6676C30.054 52 29.5852 51.4526 29.6795 50.8463Z" fill="url(#paint2_linear_2928_267236)"/>
<path d="M24.0298 57.7194C23.7246 54.0567 25.8611 53.141 25.8611 53.141C25.8611 53.141 27.9978 52.4713 31.2026 52.501C34.4074 52.5306 36.8492 53.141 36.8492 53.141C36.8492 53.141 38.07 54.3619 38.3752 57.7194C38.6804 61.0768 33.9498 64.7395 31.2026 64.7395C28.4555 64.7395 24.3351 61.3821 24.0298 57.7194Z" fill="#FF6B00"/>
<path d="M31.2021 64.7394C28.4549 64.7394 24.3345 61.3819 24.0293 57.7192C24.0293 57.7192 26.2494 62.9999 30.9995 63.2499C35.7495 63.4999 38.3746 57.7192 38.3746 57.7192C38.6799 61.0767 33.9492 64.7393 31.2021 64.7394Z" fill="#CC5804"/>
<path d="M30.7681 55.8765C31.6049 55.8765 32.4896 55.8287 33.1272 55.7331C33.3271 55.7031 33.487 55.9583 33.339 56.0961C32.62 56.7654 31.5411 57.4026 30.7681 57.4026C30.0347 57.4026 29.2554 56.829 28.7403 56.1986C28.6106 56.0398 28.8422 55.7489 29.045 55.7789C29.485 55.844 30.0778 55.8765 30.7681 55.8765Z" fill="#FCC1A2"/>
<path d="M42.6719 54.045C40.2301 53.8008 40.6371 45.7022 40.2301 40.6151L39.3145 36.9525C39.5179 34.9176 39.9859 34.6327 42.6719 37.5629C44.4223 39.4724 48.324 54.6102 42.6719 54.045Z" fill="#FF6B00"/>
<path d="M43 53C44 52.75 44.75 48.5 42.6711 37.563C44.4214 39.4725 48.3232 54.6103 42.6711 54.0451C42.0159 53.9796 41.5657 53.3484 41.25 52.3617C41.25 52.3617 41.7531 53.3117 43 53Z" fill="#CC5804"/>
<path d="M34.7355 31.4586C35.634 31.5784 36.5263 31.7252 37.381 31.8844L39.7491 29.75L40.1951 32.4763C41.5649 32.7965 42.6652 33.1005 43.2806 33.2899L42.3649 36.3422C37.4814 36.9526 27.6532 38.1735 27.409 38.1735C27.1648 38.1735 24.4585 37.7665 23.1358 37.563L22.5254 35.4265C23.456 34.9613 24.7894 34.272 26.2865 33.5951L26.2865 30.25L28.9351 32.5033C30.9883 31.7519 33.0884 31.239 34.7355 31.4586Z" fill="#DEAD00"/>
<path d="M42.2222 35.9082C41.8753 38.7813 33.799 38.0121 28.698 38.3109L24.9991 39.2609C22.9741 38.9482 22.7091 38.3857 25.7506 35.3202C27.7326 33.3226 43.0251 29.2578 42.2222 35.9082Z" fill="#FF6B00"/>
<path d="M34.5709 39.0053C39.2133 38.7427 42.2419 38.1736 43.1758 37.9219L43.5887 29.9324L38.7045 34.2055L33.2106 29.3219L28.3257 35.4264L21.6121 31.1533L23.0694 38.6843C24.9689 38.9008 29.9285 39.2679 34.5709 39.0053Z" fill="#FBE315"/>
<path d="M34.4098 40.6812C39.0522 40.4186 43.4271 39.4211 43.1747 37.9219L43.2812 34.8159C43.2812 34.8159 42.2496 37.9219 32.2926 37.8681C22.3356 37.8143 22.5262 35.836 22.5262 35.836L23.0682 38.6844C23.2658 39.7607 29.7674 40.9439 34.4098 40.6812Z" fill="#FBC815"/>
<path d="M37.677 49.1378C37.6925 49.6303 36.8481 50.0566 35.7909 50.09C34.7336 50.1233 33.864 49.7511 33.8485 49.2585C33.8329 48.766 34.6774 48.3397 35.7346 48.3063C36.7918 48.273 37.6615 48.6452 37.677 49.1378Z" fill="#FCA28E"/>
<path d="M24.6902 49.1378C24.6746 49.6303 25.5191 50.0566 26.5763 50.09C27.6335 50.1233 28.5032 49.7511 28.5187 49.2585C28.5343 48.766 27.6898 48.3397 26.6326 48.3063C25.5754 48.273 24.7057 48.6452 24.6902 49.1378Z" fill="#FCA28E"/>
<path d="M31.5007 52.0103C32.0077 51.6993 33.001 50.7603 33.0009 52.0103L31.5007 52.0103Z" fill="#AA2727"/>
<path d="M53 8.70479C53 7.04794 51.6569 5.70479 50 5.70479C48.3431 5.70479 47 7.04794 47 8.70479C47 9.4096 47.243 10.0576 47.6499 10.5697L53 16.3264V12.5156V8.70479Z" fill="#ED4700"/>
<path d="M53 8.70479C53 7.04794 54.3431 5.70479 56 5.70479C57.6569 5.70479 59 7.04794 59 8.70479C59 9.4096 58.757 10.0576 58.3501 10.5697L53 16.3264V12.5156V8.70479Z" fill="#ED4700"/>
<path d="M11 77.7048C11 76.0479 9.65685 74.7048 8 74.7048C6.34315 74.7048 5 76.0479 5 77.7048C5 78.4096 5.24305 79.0576 5.6499 79.5697L11 85.3264V81.5156V77.7048Z" fill="#ED4700"/>
<path d="M11 77.7048C11 76.0479 12.3431 74.7048 14 74.7048C15.6569 74.7048 17 76.0479 17 77.7048C17 78.4096 16.757 79.0576 16.3501 79.5697L11 85.3264V81.5156V77.7048Z" fill="#ED4700"/>
<defs>
<linearGradient id="paint0_linear_2928_267236" x1="2.06452" y1="92" x2="56.6415" y2="5.15165" gradientUnits="userSpaceOnUse">
<stop stop-color="#DAD7C9"/>
<stop offset="1" stop-color="#FFFCED"/>
</linearGradient>
<linearGradient id="paint1_linear_2928_267236" x1="33.2086" y1="34.8159" x2="33.2086" y2="61.6756" gradientUnits="userSpaceOnUse">
<stop stop-color="#FFBC98"/>
<stop offset="1" stop-color="#FAC4A6"/>
</linearGradient>
<linearGradient id="paint2_linear_2928_267236" x1="31.1079" y1="46.0707" x2="31.1079" y2="52.1045" gradientUnits="userSpaceOnUse">
<stop stop-color="#F5B694"/>
<stop offset="1" stop-color="#FF7762"/>
</linearGradient>
</defs>
</svg>
