<svg width="638" height="250" viewBox="0 0 638 250" fill="none" xmlns="http://www.w3.org/2000/svg">
<g clip-path="url(#clip0_918_14071)">
<rect width="860" height="250" rx="8" fill="#1D1E25"/>
<rect width="860" height="250" rx="8" fill="url(#paint0_linear_918_14071)"/>
<g clip-path="url(#clip1_918_14071)">
<rect width="638" height="250" rx="16.6113" fill="url(#paint1_linear_918_14071)"/>
<ellipse opacity="0.7" cx="-7" cy="31.5" rx="333" ry="231.5" fill="url(#paint2_radial_918_14071)"/>
<ellipse opacity="0.7" cx="612" cy="84" rx="545" ry="379" fill="url(#paint3_radial_918_14071)"/>
</g>
<g filter="url(#filter0_i_918_14071)">
<path d="M480.968 25.3122C489.221 16.1343 504.276 19.0422 508.517 30.6334L573.823 209.118C578.198 221.077 567.845 233.234 555.342 230.818L362.967 193.646C350.465 191.23 345.385 176.094 353.899 166.625L480.968 25.3122Z" fill="url(#paint4_linear_918_14071)"/>
</g>
<path d="M419.81 180.878L445.354 152.26C447.459 149.903 448.063 146.563 446.917 143.618L435.455 114.158C434.324 111.25 434.897 107.955 436.944 105.599L492 42.2536" stroke="url(#paint5_linear_918_14071)" stroke-width="16.8058" stroke-linecap="round" stroke-linejoin="round"/>
<g filter="url(#filter1_di_918_14071)">
<circle cx="378.06" cy="173.886" r="8.65592" transform="rotate(10.9362 378.06 173.886)" fill="white"/>
</g>
<g filter="url(#filter2_di_918_14071)">
<circle cx="420.131" cy="182.015" r="8.65592" transform="rotate(10.9362 420.131 182.015)" fill="white"/>
</g>
<g filter="url(#filter3_di_918_14071)">
<circle cx="460.502" cy="189.816" r="8.65592" transform="rotate(10.9362 460.502 189.816)" fill="white"/>
</g>
<g filter="url(#filter4_di_918_14071)">
<circle cx="546.344" cy="206.403" r="8.65592" transform="rotate(10.9362 546.344 206.403)" fill="white"/>
</g>
<g filter="url(#filter5_di_918_14071)">
<circle cx="504.273" cy="198.274" r="8.65592" transform="rotate(10.9362 504.273 198.274)" fill="white"/>
</g>
<g filter="url(#filter6_di_918_14071)">
<circle cx="406.803" cy="140.036" r="8.65592" transform="rotate(-49.0638 406.803 140.036)" fill="white"/>
</g>
<g filter="url(#filter7_di_918_14071)">
<circle cx="434.55" cy="109.366" r="8.65592" transform="rotate(-49.0638 434.55 109.366)" fill="white"/>
</g>
<g filter="url(#filter8_di_918_14071)">
<circle cx="462.953" cy="75.2978" r="8.65592" transform="rotate(-49.0638 462.953 75.2978)" fill="white"/>
</g>
<g filter="url(#filter9_di_918_14071)">
<circle cx="491.028" cy="42.929" r="8.65592" transform="rotate(-49.0638 491.028 42.929)" fill="white"/>
</g>
<g filter="url(#filter10_di_918_14071)">
<circle cx="448.873" cy="148.165" r="8.65592" transform="rotate(-49.0638 448.873 148.165)" fill="white"/>
</g>
<g filter="url(#filter11_di_918_14071)">
<circle cx="476.62" cy="117.495" r="8.65592" transform="rotate(-49.0638 476.62 117.495)" fill="white"/>
</g>
<g filter="url(#filter12_di_918_14071)">
<circle cx="505.024" cy="83.4269" r="8.65592" transform="rotate(-49.0638 505.024 83.4269)" fill="white"/>
</g>
<g filter="url(#filter13_di_918_14071)">
<circle cx="490.944" cy="156.295" r="8.65592" transform="rotate(-49.0638 490.944 156.295)" fill="white"/>
</g>
<g filter="url(#filter14_di_918_14071)">
<circle cx="519.019" cy="123.925" r="8.65592" transform="rotate(-49.0638 519.019 123.925)" fill="white"/>
</g>
<g filter="url(#filter15_di_918_14071)">
<circle cx="533.015" cy="164.424" r="8.65592" transform="rotate(-49.0638 533.015 164.424)" fill="white"/>
</g>
<g filter="url(#filter16_di_918_14071)">
<circle r="13.0409" transform="matrix(-0.981839 -0.189715 -0.189715 0.981839 419.304 181.854)" fill="#FF597E"/>
</g>
<rect x="375.851" y="52.0105" width="74.7778" height="39.5132" rx="7.0024" transform="rotate(-18.9833 375.851 52.0105)" fill="#7D2AA6"/>
<rect x="371.285" y="49.6356" width="74.7778" height="39.5132" rx="7.0024" transform="rotate(-18.9833 371.285 49.6356)" fill="#FF597E"/>
<path d="M398.039 54.7061L396.79 72.1068L392.556 73.5632L394.145 57.1099L385.891 59.9491L384.828 56.857L397.303 52.5655L398.039 54.7061ZM406.536 64.405C407.17 64.1868 407.763 64.1957 408.314 64.4317C408.863 64.6598 409.238 65.0672 409.44 65.6539C409.641 66.2406 409.598 66.7965 409.308 67.3216C409.016 67.8388 408.553 68.2065 407.919 68.4247C407.277 68.6456 406.68 68.6381 406.129 68.402C405.586 68.1633 405.215 67.7545 405.016 67.1758C404.816 66.597 404.858 66.0464 405.139 65.524C405.428 64.9989 405.894 64.6259 406.536 64.405ZM412.81 55.0381L414.701 54.3876C416.2 53.8721 416.697 52.881 416.192 51.4142C415.996 50.8434 415.658 50.4409 415.178 50.2069C414.696 49.9649 414.13 49.9557 413.48 50.1794C412.948 50.3621 412.538 50.6763 412.248 51.1219C411.966 51.5647 411.904 52.0161 412.062 52.4759L408.054 53.8546C407.74 52.9428 407.714 52.0429 407.976 51.1548C408.238 50.2667 408.749 49.4703 409.509 48.7657C410.273 48.0504 411.195 47.5073 412.273 47.1364C414.2 46.4736 415.866 46.3927 417.27 46.8937C418.675 47.3946 419.642 48.4141 420.171 49.9523C420.428 50.6975 420.44 51.4823 420.21 52.3064C419.984 53.12 419.506 53.8829 418.776 54.5952C419.81 54.6118 420.706 54.871 421.464 55.3729C422.219 55.8668 422.768 56.6132 423.112 57.6122C423.644 59.1583 423.475 60.5996 422.605 61.9364C421.734 63.2731 420.332 64.2742 418.398 64.9397C417.264 65.3297 416.136 65.4784 415.013 65.3858C413.896 65.2824 412.957 64.9361 412.195 64.3468C411.431 63.7496 410.882 62.9634 410.546 61.9882L414.578 60.6013C414.76 61.1325 415.133 61.5187 415.694 61.7599C416.256 62.0011 416.85 62.014 417.477 61.7985C418.182 61.5558 418.678 61.1679 418.965 60.6349C419.249 60.0939 419.286 59.5181 419.076 58.9077C418.776 58.0355 418.345 57.4921 417.783 57.2774C417.222 57.0627 416.557 57.0876 415.787 57.3522L413.837 58.0231L412.81 55.0381Z" fill="white"/>
<path d="M433.373 47.896L433.964 44.0774L437.76 42.7713L436.635 49.5518L441.95 54.4567L438.132 55.7702L435.093 52.9333L434.476 57.0278L430.636 58.3489L431.819 51.2087L426.771 46.5516L430.612 45.2305L433.373 47.896Z" fill="white"/>
<rect x="518.474" y="94.4801" width="74.7778" height="39.5132" rx="7.0024" transform="rotate(30.5456 518.474 94.4801)" fill="#226135"/>
<rect x="517.316" y="89.4651" width="74.7778" height="39.5132" rx="7.0024" transform="rotate(30.5456 517.316 89.4651)" fill="#96DB14"/>
<path d="M516.475 112.878L522.195 105.388L531.412 110.828L529.738 113.665L523.488 109.977L521.283 112.897C521.633 112.899 522.051 112.965 522.538 113.097C523.032 113.233 523.481 113.42 523.886 113.659C525.453 114.583 526.38 115.758 526.668 117.184C526.967 118.607 526.623 120.156 525.634 121.831C525.038 122.842 524.269 123.625 523.328 124.18C522.399 124.732 521.397 124.987 520.321 124.946C519.245 124.905 518.151 124.556 517.039 123.9C516.05 123.316 515.241 122.567 514.613 121.651C513.989 120.728 513.641 119.768 513.568 118.77C513.498 117.766 513.732 116.818 514.267 115.927L517.928 118.087C517.623 118.686 517.537 119.253 517.669 119.789C517.801 120.324 518.137 120.752 518.679 121.071C519.907 121.796 521.057 121.248 522.131 119.428C523.124 117.746 522.869 116.461 521.367 115.575C520.515 115.072 519.718 114.972 518.975 115.273L516.475 112.878ZM528.962 125.869C529.539 126.21 529.917 126.666 530.095 127.239C530.278 127.804 530.211 128.354 529.896 128.888C529.581 129.422 529.129 129.75 528.542 129.871C527.959 129.984 527.379 129.871 526.801 129.53C526.216 129.184 525.835 128.726 525.657 128.153C525.486 127.585 525.556 127.037 525.867 126.51C526.178 125.983 526.623 125.657 527.203 125.532C527.791 125.411 528.377 125.523 528.962 125.869ZM548.726 126.725C548.274 127.491 547.684 128.053 546.956 128.412C546.236 128.775 545.439 128.938 544.566 128.9C545.099 129.711 545.397 130.568 545.458 131.471C545.523 132.366 545.298 133.251 544.783 134.124C543.952 135.532 542.808 136.357 541.352 136.597C539.903 136.842 538.326 136.462 536.622 135.456C534.911 134.447 533.801 133.242 533.293 131.842C532.79 130.435 532.951 129.031 533.778 127.63C534.277 126.785 534.934 126.166 535.751 125.772C536.568 125.377 537.484 125.227 538.5 125.32C538.037 124.57 537.787 123.79 537.75 122.979C537.712 122.168 537.919 121.38 538.371 120.615C539.18 119.243 540.285 118.434 541.686 118.19C543.086 117.945 544.577 118.29 546.158 119.223C547.754 120.164 548.783 121.307 549.246 122.651C549.709 123.995 549.535 125.353 548.726 126.725ZM541.294 131.671C541.678 131.022 541.802 130.423 541.667 129.876C541.544 129.326 541.208 128.89 540.659 128.566C540.11 128.242 539.562 128.157 539.014 128.31C538.47 128.457 538.006 128.855 537.622 129.505C537.252 130.133 537.127 130.731 537.249 131.3C537.383 131.865 537.728 132.312 538.284 132.64C538.825 132.96 539.369 133.037 539.914 132.872C540.459 132.707 540.919 132.307 541.294 131.671ZM544.496 122.039C544.005 121.749 543.534 121.69 543.082 121.862C542.642 122.03 542.253 122.4 541.917 122.97C541.584 123.533 541.446 124.065 541.501 124.565C541.557 125.065 541.837 125.464 542.343 125.762C542.841 126.056 543.315 126.103 543.765 125.901C544.222 125.703 544.617 125.323 544.949 124.76C545.282 124.197 545.414 123.676 545.346 123.197C545.285 122.723 545.002 122.337 544.496 122.039Z" fill="white"/>
<path d="M558.939 135.569L562.228 133.54L565.686 135.58L559.797 139.125L559.516 146.352L556.038 144.3L556.224 140.147L552.708 142.335L549.211 140.271L555.411 136.537L555.677 129.674L559.175 131.738L558.939 135.569Z" fill="white"/>
<path d="M451.311 130.559L458.825 145.241C461.39 150.253 466.962 152.963 472.488 151.886L488.676 148.732L473.995 156.246C468.983 158.811 466.273 164.383 467.349 169.909L470.504 186.097L462.99 171.416C460.425 166.404 454.853 163.693 449.326 164.77L433.138 167.924L447.82 160.411C452.832 157.846 455.542 152.274 454.465 146.747L451.311 130.559Z" fill="white"/>
<circle opacity="0.2" cx="460.907" cy="158.33" r="14.1869" transform="rotate(-19.0638 460.907 158.33)" fill="white"/>
<path d="M546.586 75.0924L542.364 88.4567C540.923 93.0192 542.675 97.9848 546.66 100.633L558.333 108.39L544.968 104.169C540.406 102.728 535.44 104.479 532.792 108.464L525.035 120.137L529.256 106.773C530.698 102.21 528.946 97.2447 524.961 94.5964L513.288 86.8393L526.652 91.0607C531.215 92.5019 536.18 90.7501 538.829 86.7651L546.586 75.0924Z" fill="white"/>
<ellipse opacity="0.2" cx="535.81" cy="97.6153" rx="12.056" ry="12.056" transform="rotate(25.568 535.81 97.6153)" fill="white"/>
<circle cx="352.167" cy="89.0562" r="3.69139" transform="rotate(8.99343 352.167 89.0562)" fill="#FFE493"/>
<circle cx="322.801" cy="150.772" r="46.1538" transform="rotate(8.99343 322.801 150.772)" fill="url(#paint6_linear_918_14071)"/>
<path opacity="0.23" d="M368.388 157.987C370.247 146.238 367.498 134.823 361.477 125.585C361.477 125.585 359.916 129.543 357.696 131.061C355.476 132.579 351.025 131.875 351.025 131.875C357.684 138.224 369.869 154.483 365.335 168.718C366.753 165.35 367.791 161.758 368.388 157.987Z" fill="#915ED1"/>
<g clip-path="url(#clip2_918_14071)">
<path d="M337.182 148.682C336.114 150.827 334.385 152.439 332.096 153.668C330.1 154.758 327.928 155.485 325.681 155.814C325.329 155.856 325.001 156.019 324.754 156.275C324.507 156.531 324.355 156.865 324.324 157.219C324.203 161.207 324.028 165.176 323.265 169.1C323.114 169.852 321.993 170.594 321.134 170.535C318.725 170.421 316.337 170.04 314.013 169.399C313.775 169.33 313.571 169.176 313.439 168.965C313.308 168.755 313.259 168.503 313.301 168.258C313.634 163.912 313.773 159.592 313.817 155.235C313.818 154.948 313.733 154.666 313.571 154.429C313.41 154.191 313.18 154.008 312.913 153.904C311.933 153.528 311.443 153.336 310.479 152.944C310.19 152.818 309.864 152.805 309.566 152.909C309.267 153.013 309.019 153.225 308.87 153.505C307.057 156.9 305.373 160.355 303.91 163.902C303.672 164.482 303.14 164.681 302.648 164.358C300.515 163 298.528 161.424 296.72 159.655C296.136 159.106 295.706 157.986 295.84 157.343C299.023 145.107 306.648 135.194 314.267 125.342C314.476 125.074 314.743 124.858 315.047 124.71C315.352 124.562 315.687 124.486 316.025 124.488C320.573 124.928 325.139 126.043 329.25 128.086C333.073 130.028 334.862 133.689 336.594 137.391C337.858 141.129 339.057 144.878 337.182 148.682ZM320.282 135.795C319.97 135.702 319.635 135.716 319.332 135.836C319.029 135.956 318.774 136.175 318.609 136.457C317.126 138.963 316.378 140.213 314.908 142.7C314.805 142.876 314.743 143.073 314.725 143.277C314.708 143.48 314.736 143.685 314.807 143.876C314.878 144.067 314.991 144.24 315.137 144.381C315.283 144.523 315.459 144.631 315.652 144.696C317.492 145.36 318.41 145.692 320.25 146.357C320.849 146.614 321.495 146.745 322.147 146.743C322.799 146.741 323.445 146.605 324.043 146.343C325.302 145.835 326.333 144.885 326.944 143.669C327.622 142.382 327.723 141.16 327.312 139.988C326.901 138.816 326.08 137.967 324.716 137.431C322.962 136.717 322.074 136.396 320.282 135.795Z" fill="url(#paint7_linear_918_14071)"/>
</g>
<path opacity="0.5" d="M368.388 157.987C364.403 183.163 340.763 200.343 315.587 196.358C304.025 194.528 294.15 188.554 287.237 180.189C287.237 180.189 313.212 193.646 337.163 181.082C361.114 168.517 367.723 140.125 367.723 140.125C369.073 145.813 369.358 151.854 368.388 157.987Z" fill="#19152D"/>
<ellipse opacity="0.2" cx="312.328" cy="119.265" rx="8.76923" ry="12.4615" transform="rotate(68.294 312.328 119.265)" fill="white"/>
<ellipse opacity="0.2" cx="310.868" cy="115.597" rx="4.82098" ry="6.85086" transform="rotate(68.294 310.868 115.597)" fill="white"/>
<ellipse cx="341.802" cy="117.331" rx="17.9359" ry="9.26343" transform="rotate(28.5281 341.802 117.331)" fill="#1E243D"/>
<path d="M356.978 126.742L361.612 118.13L330.593 101.538L325.576 109.622L338.288 123.784L356.978 126.742Z" fill="#1E243D"/>
<ellipse cx="346.047" cy="109.549" rx="17.9359" ry="9.26343" transform="rotate(28.5281 346.047 109.549)" fill="#51597E"/>
<path d="M346.861 97.1711C347.378 93.9038 348.467 90.9618 348.316 87.9792C348.893 84.3333 355.49 83.9755 355.152 89.0612C354.814 94.1468 354.142 95.4421 353.421 99.9996C352.7 104.557 350.159 109.763 347.048 110.748C344.097 111.683 341.723 108.972 342.996 106.837C344.268 104.702 345.878 103.38 346.861 97.1711Z" fill="#F4C73F"/>
<path d="M357.838 71.7562L356.066 76.3942C354.745 79.8517 355.872 83.7661 358.828 85.9928L362.794 88.9798L358.156 87.2079C354.699 85.8869 350.784 87.0132 348.558 89.9697L345.571 93.9356L347.342 89.2976C348.663 85.8401 347.537 81.9257 344.581 79.699L340.615 76.712L345.253 78.484C348.71 79.8049 352.625 78.6786 354.851 75.7221L357.838 71.7562Z" fill="white" fill-opacity="0.84"/>
<ellipse opacity="0.2" cx="351.704" cy="82.8457" rx="6.11943" ry="6.11943" transform="rotate(28.9478 351.704 82.8457)" fill="white"/>
<g clip-path="url(#clip3_918_14071)">
<path d="M314.024 200.075L312.694 191.69C312.022 187.283 312.568 182.771 314.273 178.649C316.724 172.501 321.509 166.861 328.001 162.428C334.849 157.859 342.627 154.892 350.759 153.746C358.754 152.509 366.918 153.099 374.647 155.47L375.979 163.875C368.251 161.503 360.086 160.914 352.092 162.151C343.959 163.296 336.18 166.26 329.329 170.825C322.837 175.29 318.063 180.907 315.606 187.048C313.905 191.166 313.357 195.672 314.024 200.075Z" fill="#FFD000"/>
<path d="M352.016 167.513C351.572 164.713 351.133 161.915 350.684 159.108L351.282 159.02C351.744 158.951 352.211 158.888 352.676 158.832L352.79 159.553L352.908 160.313L353.034 161.1L353.163 161.907L353.291 162.713L353.417 163.5L353.535 164.26L353.649 164.981L353.693 165.244L353.733 165.525L353.779 165.813L353.829 166.109L353.873 166.403L353.918 166.692L353.965 166.974L354.003 167.236C353.543 167.293 353.076 167.355 352.614 167.425L352.016 167.513Z" fill="#FFD000"/>
<path d="M330.981 176.724L329.649 168.319C330.529 167.587 331.468 166.879 332.45 166.211C337.945 162.53 344.169 160.098 350.688 159.083C351.138 161.89 351.576 164.689 352.021 167.488C345.5 168.504 339.274 170.936 333.777 174.614C332.801 175.283 331.862 175.992 330.981 176.724Z" fill="#FFD000"/>
<path d="M328.517 178.98L327.173 170.573C327.956 169.78 328.778 169.027 329.637 168.317L329.751 169.032L329.87 169.792L329.996 170.579L330.124 171.385L330.248 172.184L330.373 172.971L330.492 173.731L330.606 174.446L330.649 174.715L330.696 174.997L330.741 175.286L330.79 175.588L330.834 175.882L330.879 176.177L330.925 176.459L330.969 176.722C330.115 177.433 329.297 178.187 328.517 178.98Z" fill="#FFD000"/>
<path d="M354.008 167.211C353.571 164.415 353.129 161.614 352.681 158.808C358.914 158.034 365.237 158.606 371.227 160.485C375.069 161.687 378.645 163.616 381.765 166.169C384.55 168.441 386.741 171.362 388.15 174.679C388.666 175.927 389.051 177.226 389.296 178.555L389.382 179.124L389.479 179.734L389.574 180.388L389.675 181.043L389.776 181.698L389.87 182.352L389.961 182.96L390.053 183.531L390.12 183.938L390.187 184.376L390.258 184.822L390.334 185.282L390.403 185.74L390.474 186.192L390.548 186.626L390.607 187.038C390.363 185.707 389.98 184.405 389.462 183.156C388.05 179.842 385.859 176.924 383.076 174.652C379.957 172.099 376.38 170.17 372.538 168.968C366.558 167.066 360.241 166.467 354.008 167.211Z" fill="#FFD000"/>
<path d="M361.788 173.665L361.122 169.463L360.456 165.26C360.521 165.138 360.632 165.047 360.764 165.006C360.896 164.965 361.039 164.977 361.161 165.041L362.494 173.445C362.371 173.382 362.229 173.369 362.097 173.41C361.965 173.451 361.854 173.543 361.788 173.665Z" fill="#FCDF8F"/>
<path d="M363.052 173.63L362.494 173.445L361.161 165.041L361.719 165.225L362.243 165.39L362.373 166.19L362.508 167.03L362.648 167.908L362.785 168.799L362.928 169.691L363.068 170.57L363.202 171.415L363.327 172.208L363.353 172.398L363.386 172.588L363.421 172.798L363.451 173.001L363.486 173.212L363.517 173.414L363.548 173.611L363.576 173.794L363.052 173.63Z" fill="#FCDF8F"/>
<path d="M349.554 167.571L350.886 175.975L350.477 176.131L349.145 167.727L349.554 167.571Z" fill="#FCDF8F"/>
<path d="M350.368 176.174L349.035 167.769L350.368 176.174Z" fill="#CA820B"/>
<path d="M349.145 167.727L350.477 176.131C350.444 176.15 350.407 176.162 350.369 176.168L349.037 167.763C349.037 167.763 349.075 167.758 349.145 167.727Z" fill="#CA820B"/>
<path d="M349.554 167.571L350.886 175.975C350.828 176.047 350.775 176.126 350.722 176.204L349.389 167.806C349.443 167.721 349.492 167.66 349.554 167.571Z" fill="#CA820B"/>
<path d="M349.389 167.806L350.722 176.204L350.473 176.156L349.14 167.751L349.389 167.806Z" fill="#CA820B"/>
<path d="M351.385 176.402L350.722 176.204L349.389 167.806L350.059 167.999C350.498 170.804 350.94 173.605 351.385 176.402Z" fill="#FCDF8F"/>
<path d="M363.576 173.794L362.244 165.39C362.994 165.624 363.734 165.818 364.528 166.022L365.861 174.427C365.066 174.222 364.328 174.022 363.576 173.794Z" fill="#FCDF8F"/>
<path d="M364.79 166.206L366.122 174.611C366.133 174.555 366.032 174.491 365.861 174.427L364.528 166.022C364.681 166.083 364.772 166.164 364.79 166.206Z" fill="#FCDF8F"/>
<path d="M364.789 166.206L366.122 174.611C366.111 174.666 366.097 174.739 365.987 174.82L364.654 166.415C364.746 166.331 364.797 166.265 364.789 166.206Z" fill="#CA820B"/>
<path d="M351.385 176.402L351.37 176.317L350.059 167.999C351.021 168.28 351.996 168.532 352.959 168.845L352.989 168.851C353.213 170.242 353.434 171.63 353.651 173.014L354.312 177.178L354.324 177.18C353.329 176.937 352.354 176.685 351.385 176.402Z" fill="#FCDF8F"/>
<path d="M349.388 167.806L350.722 176.204C350.076 177.128 349.413 178.106 348.772 179.005L347.439 170.607C348.081 169.701 348.744 168.723 349.388 167.806Z" fill="#FCDF8F"/>
<path d="M369.266 175.701L368.95 173.676C368.83 172.954 368.718 172.227 368.6 171.499C368.481 170.77 368.369 170.043 368.256 169.322L368.091 168.28L367.933 167.296C367.964 167.137 368.106 167.056 368.36 167.15L369.692 175.555C369.439 175.461 369.315 175.545 369.266 175.701Z" fill="#FCDF8F"/>
<path d="M370.054 175.675L369.692 175.555L368.36 167.15L368.722 167.271L368.874 168.247L369.039 169.289L369.21 170.365L369.384 171.46L369.557 172.561L369.728 173.636L369.894 174.672L370.052 175.656C369.608 172.854 369.164 170.059 368.722 167.271L370.054 175.675Z" fill="#FCDF8F"/>
<path d="M348.771 179.011C348.743 179.032 348.719 179.058 348.702 179.089C348.685 179.12 348.676 179.154 348.673 179.189L347.347 170.786C347.349 170.752 347.358 170.718 347.375 170.688C347.392 170.658 347.415 170.633 347.443 170.614C347.835 173.13 348.367 176.493 348.771 179.011Z" fill="#FCDF8F"/>
<path d="M348.673 179.189L347.347 170.786C347.339 170.829 347.395 170.865 347.467 170.885C347.51 170.9 347.555 170.909 347.601 170.911L348.933 179.316C348.886 179.313 348.839 179.304 348.793 179.289C348.767 179.283 348.742 179.271 348.721 179.254C348.7 179.236 348.684 179.214 348.673 179.189Z" fill="#CA820B"/>
<path d="M361.788 173.665C360.792 175.189 359.827 176.623 358.819 178.176L357.487 169.771C358.489 168.242 359.455 166.808 360.455 165.26C360.853 167.778 362.316 171.162 361.788 173.665Z" fill="#FCDF8F"/>
<path d="M367.932 167.302L369.266 175.701L368.539 176.781L367.207 168.376L367.932 167.302Z" fill="#FCDF8F"/>
<path d="M354.31 177.254L354.324 177.18L353.663 173.017L353.494 171.929L353.321 170.86L353.16 169.831L353.002 168.854C354.263 169.256 355.548 169.568 356.863 169.987C357.161 170.083 357.31 169.997 357.503 169.749L358.836 178.153C358.643 178.402 358.493 178.488 358.196 178.392C356.866 177.983 355.583 177.658 354.31 177.254Z" fill="#FCDF8F"/>
<path d="M373.218 176.693C371.999 176.267 371.014 176.007 370.051 175.694L368.718 167.289C369.681 167.602 370.667 167.862 371.886 168.289L372.039 169.259L372.201 170.288L372.374 171.351L372.543 172.438L372.718 173.527L372.885 174.595L373.047 175.618L373.201 176.588L373.182 176.686L373.218 176.693Z" fill="#FCDF8F"/>
<path d="M373.218 176.694L371.886 168.289C371.936 168.585 371.999 168.946 372.043 169.273L372.209 170.309L372.379 171.39L372.552 172.491L372.725 173.592L372.896 174.668L373.061 175.71L373.218 176.694Z" fill="#FCDF8F"/>
<path d="M371.95 168.251L373.283 176.655C372.736 177.862 372.07 179.011 371.293 180.084L369.96 171.685C370.736 170.61 371.402 169.459 371.95 168.251Z" fill="#CA820B"/>
<path d="M373.498 176.748L373.232 176.658L371.899 168.253L372.165 168.349C372.596 170.892 373.097 174.249 373.498 176.748Z" fill="#FCDF8F"/>
<path d="M364.654 166.415L365.987 174.82C365.021 176.254 364.031 177.784 363.059 179.217L361.732 170.814C362.698 169.38 363.705 167.865 364.654 166.415Z" fill="#CA820B"/>
<path d="M361.732 170.814L363.059 179.217C363.016 179.356 362.933 179.48 362.82 179.571L361.487 171.167C361.598 171.073 361.683 170.951 361.732 170.814Z" fill="#CA820B"/>
<path d="M363.131 179.663L362.82 179.571L361.487 171.167L361.804 171.228L361.938 172.105L362.013 172.565L362.165 173.509C362.487 175.571 362.809 177.622 363.131 179.663Z" fill="#FCDF8F"/>
<path d="M351.682 173.003L353.014 181.407C352.95 181.137 352.816 180.888 352.625 180.687C352.434 180.486 352.194 180.34 351.928 180.263C351.61 180.144 351.284 180.031 350.968 179.932C350.261 179.7 349.567 179.502 348.927 179.315L347.595 170.91C348.233 171.103 348.929 171.295 349.636 171.527C349.952 171.626 350.277 171.74 350.595 171.858C350.861 171.935 351.102 172.081 351.293 172.283C351.484 172.484 351.618 172.732 351.682 173.003Z" fill="#CA820B"/>
<path d="M352.807 182.282L352.656 181.3L352.572 180.788L352.404 179.726L352.314 179.181C352.024 177.409 351.734 175.643 351.444 173.872C351.62 173.628 351.692 173.324 351.646 173.027L352.978 181.432C353.035 181.727 352.974 182.032 352.807 182.282Z" fill="#FCDF8F"/>
<path d="M367.207 168.376L368.539 176.781C367.684 177.937 366.939 179.014 366.184 180.177L364.845 171.771C365.607 170.609 366.333 169.529 367.207 168.376Z" fill="#FCDF8F"/>
<path d="M363.131 179.663L361.786 171.256C362.634 171.509 363.582 171.768 364.38 172.018L365.713 180.423C364.902 180.171 363.979 179.916 363.131 179.663Z" fill="#FCDF8F"/>
<path d="M364.845 171.771L366.178 180.176C366.022 180.26 365.844 180.429 365.719 180.424L364.386 172.019C364.518 172.026 364.693 171.869 364.845 171.771Z" fill="#FCDF8F"/>
<path d="M322.388 188.079C322.313 188.268 322.239 188.457 322.166 188.671L320.833 180.267C320.871 180.071 320.976 179.888 321.055 179.674C322.471 176.262 324.551 173.167 327.173 170.574L327.258 171.111L327.349 171.688L327.442 172.284L327.54 172.888L327.637 173.498L327.731 174.094L327.823 174.665L327.907 175.208L328.505 178.978C325.881 181.57 323.801 184.665 322.388 188.079Z" fill="#FFD000"/>
<path d="M369.96 171.685L371.293 180.084C371.028 180.564 370.712 181.014 370.351 181.427L369.025 173.024C369.382 172.611 369.695 172.163 369.96 171.685Z" fill="#CA820B"/>
<path d="M370.246 181.68L368.912 173.281C368.911 173.233 368.92 173.185 368.939 173.141C368.957 173.096 368.985 173.056 369.019 173.022L370.352 181.427C370.317 181.459 370.29 181.499 370.272 181.542C370.254 181.586 370.245 181.633 370.246 181.68Z" fill="#CA820B"/>
<path d="M370.329 181.804C370.307 181.791 370.288 181.773 370.274 181.752C370.259 181.73 370.25 181.706 370.246 181.68L368.912 173.281C368.917 173.306 368.927 173.33 368.941 173.35C368.956 173.371 368.975 173.387 368.997 173.4L369.104 174.056L369.22 174.764L369.337 175.499L369.451 176.245L369.571 176.999L369.688 177.734L369.798 178.441L369.911 179.099L369.959 179.407L370.008 179.74L370.067 180.089L370.12 180.436L370.178 180.79L370.231 181.137L370.281 181.464L370.329 181.804Z" fill="#FCDF8F"/>
<path d="M370.329 181.804C370.296 181.702 370.278 181.596 370.277 181.489L370.226 181.161L370.115 180.46L369.901 179.148C369.597 177.237 369.294 175.329 368.992 173.424C369.068 173.477 369.152 173.518 369.24 173.548L370.572 181.953C370.485 181.915 370.403 181.865 370.329 181.804Z" fill="#FCDF8F"/>
<path d="M359.32 175.158L360.652 183.563L360.592 183.551C360.295 183.449 360.145 183.541 359.915 183.783L358.583 175.378C358.782 175.131 358.931 175.045 359.229 175.141L359.32 175.158Z" fill="#CA820B"/>
<path d="M322.171 188.647C321.771 189.712 321.458 190.808 321.234 191.923L319.896 183.549C320.119 182.434 320.433 181.338 320.832 180.273C321.026 181.492 321.221 182.706 321.391 183.921C321.567 185.003 321.736 186.091 321.907 187.198L321.986 187.709C322.084 188.013 322.146 188.328 322.171 188.647Z" fill="#FFD000"/>
<path d="M372.87 175.292L374.202 183.696L370.577 181.928L369.244 173.523L372.87 175.292Z" fill="#FCDF8F"/>
<path d="M366.515 178.887L367.847 187.292C367.358 186.36 366.547 185.641 365.566 185.269C364.758 184.898 363.927 184.58 363.078 184.318C362.293 184.064 361.48 183.825 360.652 183.563L359.32 175.158C360.148 175.42 360.96 175.66 361.745 175.913C362.594 176.178 363.425 176.496 364.234 176.864C365.215 177.235 366.027 177.954 366.515 178.887Z" fill="#CA820B"/>
<path d="M358.614 175.378L359.947 183.782C358.711 185.666 357.499 187.459 356.139 189.332L354.807 180.927C356.167 179.055 357.378 177.262 358.614 175.378Z" fill="#CA820B"/>
<path d="M356.046 189.517L354.714 181.113C354.723 181.064 354.735 181.003 354.807 180.927L356.139 189.332C356.062 189.406 356.038 189.465 356.046 189.517Z" fill="#CA820B"/>
<path d="M374.209 183.698L372.876 175.293C373.898 175.919 374.753 176.784 375.371 177.815C375.759 180.292 376.151 182.766 376.546 185.236L376.697 186.218C376.084 185.187 375.23 184.322 374.209 183.698Z" fill="#FCDF8F"/>
<path d="M366.653 179.352L367.985 187.757C367.958 187.597 367.912 187.441 367.848 187.292L366.515 178.887C366.579 179.036 366.625 179.192 366.653 179.352Z" fill="#CA820B"/>
<path d="M356.271 189.726C356.14 189.656 356.057 189.596 356.046 189.517L354.714 181.113C354.7 181.186 354.807 181.251 354.939 181.321C355.336 183.845 355.867 187.208 356.271 189.726Z" fill="#FCDF8F"/>
<path d="M355.29 181.434L356.616 189.837L356.271 189.726L354.939 181.321L355.29 181.434Z" fill="#FCDF8F"/>
<path d="M355.614 181.554L356.947 189.958L356.614 189.85L355.287 181.446L355.614 181.554Z" fill="#FCDF8F"/>
<path d="M356.205 181.731L357.538 190.136L356.943 189.945L355.614 181.554L356.205 181.731Z" fill="#FCDF8F"/>
<path d="M377.022 187.216C376.967 186.873 376.866 186.539 376.721 186.223C376.332 183.75 375.94 181.276 375.546 178.802L375.395 177.82C375.535 178.136 375.634 178.469 375.69 178.811C376.062 181.33 376.595 184.686 377.022 187.216Z" fill="#FCDF8F"/>
<path d="M367.985 187.757C368.165 188.885 367.286 190.037 365.938 190.634L364.605 182.236C365.983 181.638 366.839 180.481 366.653 179.352C367.053 181.857 367.582 185.232 367.985 187.757Z" fill="#FCDF8F"/>
<path d="M362.896 182.643L364.228 191.047C363.759 191.096 363.287 191.115 362.815 191.105C361.039 190.88 359.278 190.556 357.538 190.136L356.205 181.731C357.942 182.146 359.701 182.465 361.473 182.685C361.947 182.701 362.423 182.687 362.896 182.643Z" fill="#FCDF8F"/>
<path d="M365.938 190.634C365.398 190.877 364.819 191.017 364.228 191.048L362.896 182.643C363.485 182.612 364.064 182.474 364.604 182.236L364.763 183.213L364.928 184.256L365.098 185.337L365.272 186.432L365.444 187.533L365.615 188.615L365.78 189.657L365.938 190.634Z" fill="#FCDF8F"/>
<path d="M353.039 184.482L354.372 192.886L354.299 192.872C354.02 192.78 353.981 192.881 353.788 193.129L352.456 184.725C352.649 184.476 352.687 184.375 352.966 184.467L353.039 184.482Z" fill="#CA820B"/>
<path d="M321.234 191.923C320.768 194.215 320.713 196.572 321.071 198.882L319.733 190.508C319.375 188.198 319.43 185.841 319.896 183.549L320.053 184.533L320.218 185.575L320.388 186.656L320.562 187.751L320.735 188.852L320.819 189.396L320.993 190.459L321.15 191.475C321.189 191.622 321.217 191.772 321.234 191.923Z" fill="#FFD000"/>
<path d="M337.56 187.598L338.893 196.002C338.52 195.969 338.397 195.951 338.188 196.216L336.854 187.817C337.063 187.553 337.188 187.564 337.56 187.598Z" fill="#FCDF8F"/>
<path d="M339.083 196.065L338.888 196.027L337.56 187.598L337.755 187.635L338.715 187.929L338.811 188.513L338.907 189.129L339.008 189.784L339.108 190.439L339.209 191.094L339.31 191.749L339.406 192.365L339.495 192.948L339.563 193.349L339.626 193.774L339.699 194.214L339.771 194.66L339.842 195.112L339.909 195.551L339.978 195.977L340.04 196.377L339.083 196.065Z" fill="#FCDF8F"/>
<path d="M375.666 178.806L377.022 187.215C377.156 188.437 376.815 189.664 376.07 190.641L374.737 182.236C375.475 181.255 375.807 180.026 375.666 178.806Z" fill="#CA820B"/>
<path d="M351.481 173.847L352.813 182.252C349.794 186.924 346.682 191.489 343.576 196.056L342.242 187.657C345.348 183.091 348.462 178.519 351.481 173.847Z" fill="#FCDF8F"/>
<path d="M337.417 197.103L336.084 188.698C336.355 188.407 336.613 188.12 336.849 187.848L338.182 196.247C337.957 196.495 337.694 196.781 337.417 197.103Z" fill="#FCDF8F"/>
<path d="M340.047 196.34L338.714 187.935C339.192 188.078 339.673 188.203 340.129 188.297L341.462 196.696C341.002 196.626 340.522 196.495 340.047 196.34Z" fill="#FCDF8F"/>
<path d="M343.576 196.056C343.353 196.395 343.02 196.646 342.634 196.766C342.248 196.886 341.832 196.868 341.459 196.714L340.125 188.316C340.499 188.467 340.914 188.484 341.299 188.364C341.685 188.244 342.018 187.995 342.242 187.657C342.64 190.174 343.993 193.537 343.576 196.056Z" fill="#FCDF8F"/>
<path d="M352.458 184.712L353.79 193.117C353.25 194.017 352.613 194.796 352.069 195.714L350.737 187.309C351.272 186.434 351.918 185.612 352.458 184.712Z" fill="#CA820B"/>
<path d="M337.417 197.103C336.986 197.566 336.52 198.048 336.054 198.53L334.722 190.125C335.188 189.643 335.653 189.161 336.084 188.698L336.176 189.3L336.277 189.955L336.384 190.612L336.491 191.268L336.604 191.925L336.705 192.58L336.806 193.235L336.899 193.831L336.964 194.213L337.025 194.618L337.089 195.038L337.158 195.464L337.228 195.89L337.293 196.304L337.354 196.709L337.417 197.103Z" fill="#FCDF8F"/>
<path d="M335.709 198.844C335.264 196.047 334.822 193.246 334.383 190.441C334.486 190.334 334.597 190.215 334.728 190.094L336.06 198.499C335.929 198.62 335.819 198.732 335.709 198.844Z" fill="#FCDF8F"/>
<path d="M359.785 186.808L361.118 195.213C360.122 194.654 359.07 194.204 357.979 193.869C356.79 193.481 355.585 193.178 354.382 192.869L353.049 184.464C354.253 184.773 355.458 185.076 356.646 185.465C357.737 185.799 358.79 186.249 359.785 186.808Z" fill="#CA820B"/>
<path d="M335.709 198.845C335.519 199.043 335.35 199.233 335.117 199.455L333.785 191.05C334.017 190.828 334.193 190.64 334.383 190.441L334.478 191.095L334.584 191.751L334.692 192.439L334.801 193.147L334.918 193.849L335.024 194.543L335.131 195.2L335.226 195.853L335.284 196.208L335.344 196.582L335.402 196.968L335.464 197.367L335.527 197.761L335.591 198.148L335.651 198.522L335.709 198.845Z" fill="#FCDF8F"/>
<path d="M368.916 185.687L370.248 194.092C370.074 194.12 369.898 194.135 369.722 194.136L368.389 185.732C368.566 185.73 368.742 185.715 368.916 185.687Z" fill="#CA820B"/>
<path d="M368.705 187.757L368.389 185.732L368.535 186.675L368.696 187.672L368.861 188.715L369.03 189.77L369.198 190.832L369.364 191.868L369.518 192.87L369.67 193.815L369.663 193.852L369.656 193.889L369.649 193.925L369.642 193.962L369.633 194.005L369.626 194.042L369.619 194.078L369.612 194.115C369.346 192.005 369.044 189.885 368.705 187.757Z" fill="#FCDF8F"/>
<path d="M374.713 182.232L376.045 190.636C375.367 191.686 374.438 192.549 373.343 193.146C372.366 193.62 371.322 193.939 370.248 194.092L368.916 185.687C369.989 185.534 371.034 185.215 372.011 184.741C373.105 184.144 374.034 183.281 374.713 182.232Z" fill="#CA820B"/>
<path d="M369.742 194.159C369.742 194.134 369.747 194.109 369.757 194.086L369.741 194L369.715 193.843L368.434 185.759C368.818 186.062 369.236 186.283 369.62 186.586L369.771 187.537L369.93 188.546L370.094 189.594L370.266 190.664L370.434 191.726L370.598 192.774L370.762 193.785L370.913 194.735L370.908 194.766L370.902 194.796L370.896 194.827L370.89 194.858C370.526 194.679 370.126 194.462 369.742 194.159Z" fill="#FCDF8F"/>
<path d="M370.928 194.986L370.893 194.744C370.457 192.029 370.026 189.312 369.599 186.595L369.642 186.603C370.086 189.405 370.528 192.206 370.969 195.006L370.928 194.986Z" fill="#FCDF8F"/>
<path d="M361.839 188.736L363.171 197.141C362.661 196.337 361.952 195.679 361.114 195.231L359.785 186.808C360.624 187.261 361.332 187.926 361.839 188.736Z" fill="#CA820B"/>
<path d="M350.737 187.309L352.069 195.714C351.159 196.962 350.378 198.222 349.43 199.564L348.098 191.159C349.046 189.817 349.826 188.557 350.737 187.309Z" fill="#CA820B"/>
<path d="M348.321 191.279L349.654 199.683C349.612 199.634 349.558 199.597 349.497 199.577L349.442 199.566L348.11 191.162L348.165 191.172C348.226 191.192 348.28 191.229 348.321 191.279Z" fill="#FCDF8F"/>
<path d="M362.078 189.361L363.412 197.759C363.376 197.545 363.305 197.338 363.202 197.147L361.869 188.742C361.973 188.935 362.044 189.144 362.078 189.361Z" fill="#CA820B"/>
<path d="M341.887 193.518L343.22 201.923C340.56 201.104 337.906 200.26 335.12 199.442L333.787 191.038C336.567 191.886 339.225 192.711 341.887 193.518Z" fill="#CA820B"/>
<path d="M341.887 193.518L343.22 201.923C343.183 202.112 343.01 202.187 342.979 202.283L341.62 193.886C341.676 193.795 341.824 193.715 341.887 193.518Z" fill="#FCDF8F"/>
<path d="M372.874 198.025C372.64 196.804 371.943 195.723 370.93 195.011C370.494 192.207 370.052 189.406 369.603 186.608C370.6 187.325 371.284 188.402 371.511 189.614C371.94 192.137 372.471 195.5 372.874 198.025Z" fill="#FCDF8F"/>
<path d="M354.196 192.782L355.529 201.187C353.535 200.836 351.571 200.333 349.654 199.683L348.321 191.279C350.238 191.929 352.202 192.431 354.196 192.782Z" fill="#FCDF8F"/>
<path d="M371.542 189.62L372.874 198.025C372.892 198.162 372.91 198.298 372.919 198.446L371.587 190.042C371.579 189.9 371.564 189.76 371.542 189.62Z" fill="#CA820B"/>
<path d="M358.474 192.91L359.8 201.313C358.378 201.51 356.935 201.469 355.528 201.193L354.195 192.788C355.604 193.064 357.05 193.105 358.474 192.91Z" fill="#FCDF8F"/>
<path d="M362.078 189.361L363.412 197.759C363.65 199.274 362.049 201.017 359.832 201.313L358.474 192.91C360.686 192.606 362.287 190.863 362.078 189.361Z" fill="#FCDF8F"/>
<path d="M348.965 195.629L350.299 204.028C349.373 203.753 348.44 203.478 347.391 203.186L346.059 194.782C347.108 195.073 348.041 195.343 348.965 195.629Z" fill="#CA820B"/>
<path d="M349.076 195.74L350.409 204.144C350.416 204.108 350.372 204.074 350.299 204.028L348.965 195.629C349.04 195.669 349.071 195.701 349.076 195.74Z" fill="#CA820B"/>
<path d="M349.076 195.74L350.409 204.144C350.396 204.212 350.343 204.29 350.307 204.411L348.974 196.006C349.01 195.886 349.088 195.812 349.076 195.74Z" fill="#FCDF8F"/>
<path d="M341.62 193.886L342.953 202.29C341.863 203.713 340.867 205.237 339.868 206.778L338.536 198.374C339.558 196.843 340.555 195.313 341.62 193.886Z" fill="#FCDF8F"/>
<path d="M349.712 205.198L348.38 196.793C348.572 196.519 348.779 196.235 348.978 195.988L350.31 204.392C350.104 204.676 349.901 204.942 349.712 205.198Z" fill="#FCDF8F"/>
<path d="M339.76 206.98L338.428 198.569C338.439 198.514 338.453 198.441 338.563 198.36L339.896 206.765C339.803 206.855 339.734 206.918 339.76 206.98Z" fill="#FCDF8F"/>
<path d="M339.76 206.98L338.428 198.569C338.418 198.624 338.519 198.688 338.69 198.753L340.022 207.158C339.849 207.105 339.773 207.04 339.76 206.98Z" fill="#CA820B"/>
<path d="M353.847 197.043L355.179 205.447C355.04 205.382 354.882 205.367 354.733 205.404C354.583 205.441 354.451 205.528 354.357 205.651L353.024 197.246C353.118 197.123 353.251 197.036 353.4 196.999C353.55 196.962 353.707 196.977 353.847 197.043Z" fill="#CA820B"/>
<path d="M346.059 194.782L347.391 203.186C346.881 203.996 346.24 204.794 345.731 205.598C345.222 206.402 344.579 207.212 344.063 208.021L342.73 199.616C343.247 198.807 343.881 198.009 344.399 197.193C344.916 196.378 345.548 195.592 346.059 194.782Z" fill="#CA820B"/>
<path d="M342.244 199.777L343.577 208.182L343.097 208.019C342.086 207.69 341.051 207.426 340.021 207.164L338.688 198.759C339.718 199.022 340.754 199.285 341.764 199.614L342.244 199.777Z" fill="#CA820B"/>
<path d="M342.73 199.616L344.063 208.021C343.892 208.185 343.862 208.275 343.577 208.181L342.244 199.777C342.529 199.87 342.566 199.782 342.73 199.616Z" fill="#CA820B"/>
<path d="M349.712 205.198C348.851 206.385 348.031 207.625 347.222 208.867L345.896 200.463C346.704 199.221 347.513 197.979 348.38 196.793L348.504 197.593L348.637 198.438L348.777 199.317L348.919 200.215L349.063 201.107L349.201 201.992L349.335 202.837L349.464 203.638L349.492 203.821L349.525 204.012L349.555 204.214L349.585 204.417L349.616 204.62L349.653 204.818L349.679 205.014L349.712 205.198Z" fill="#FCDF8F"/>
<path d="M347.089 209.095L345.756 200.697C345.768 200.635 345.781 200.568 345.892 200.482L347.219 208.885C347.131 208.976 347.076 209.035 347.089 209.095Z" fill="#FCDF8F"/>
<path d="M371.587 190.042L372.919 198.446C372.789 199.578 372.363 200.656 371.684 201.57C370.802 202.85 369.677 203.941 368.372 204.781C366.651 205.828 364.673 206.368 362.663 206.341C360.149 206.332 357.644 206.033 355.198 205.451L353.865 197.046C356.311 197.628 358.815 197.928 361.33 197.942C363.34 197.967 365.318 197.425 367.04 196.376C368.344 195.537 369.47 194.445 370.352 193.165C371.03 192.251 371.457 191.174 371.587 190.042Z" fill="#CA820B"/>
<path d="M347.09 209.095L345.756 200.697C345.745 200.752 345.842 200.809 346.012 200.873L347.345 209.278C347.174 209.213 347.1 209.142 347.09 209.095Z" fill="#CA820B"/>
<path d="M349.26 201.85L350.593 210.255C349.543 209.963 348.394 209.57 347.345 209.278L346.012 200.873C347.068 201.166 348.211 201.559 349.26 201.85Z" fill="#CA820B"/>
<path d="M353.024 197.246L354.357 205.651C353.391 207.085 352.388 208.613 351.423 210.047C351.227 210.34 351.167 210.455 350.834 210.347L350.593 210.255L349.26 201.851C349.338 201.887 349.419 201.918 349.502 201.942C349.834 202.051 349.893 201.941 350.09 201.642C351.056 200.209 352.068 198.663 353.024 197.246Z" fill="#CA820B"/>
<path d="M390.634 186.935C390.644 186.88 390.617 186.792 390.603 186.732L390.075 183.452C389.813 181.817 389.556 180.185 389.302 178.556L389.382 179.029L390.715 187.427C390.692 187.251 390.666 187.093 390.634 186.935Z" fill="#FFD000"/>
<path d="M389.386 179.004L390.72 187.403C391.017 189.299 391.032 191.229 390.763 193.131L389.431 184.726C389.698 182.826 389.683 180.898 389.386 179.004Z" fill="#FCDF8F"/>
<path d="M321.065 198.913L319.733 190.508C319.972 191.999 320.384 193.456 320.959 194.85C322.944 199.651 326.822 203.743 332.191 206.623C334.013 207.603 335.92 208.414 337.888 209.046C342.114 210.386 346.523 211.053 350.956 211.024C357.856 211.015 364.674 209.496 370.938 206.573C377.07 203.678 382.103 199.566 385.402 194.751C387.504 191.769 388.883 188.336 389.43 184.726L390.763 193.13C390.218 196.752 388.836 200.196 386.729 203.186C383.432 207.989 378.398 212.101 372.265 215.008C366.001 217.932 359.182 219.451 352.282 219.46C347.849 219.489 343.44 218.821 339.215 217.481C337.247 216.847 335.34 216.036 333.517 215.059C328.173 212.183 324.271 208.086 322.286 203.286C321.71 201.882 321.3 200.414 321.065 198.913Z" fill="#FCDF8F"/>
<path d="M395.365 172.711C398.591 180.471 397.418 189.193 392.09 196.952C388.116 202.743 382.049 207.69 374.648 211.173C367.08 214.69 358.845 216.512 350.514 216.513C345.151 216.536 339.818 215.72 334.708 214.094C333.692 213.764 332.695 213.4 331.723 213.002C330.39 212.462 329.087 211.849 327.819 211.168C321.359 207.689 316.622 202.751 314.215 196.96C313.017 194.059 312.405 190.947 312.415 187.803C312.425 184.66 313.056 181.548 314.273 178.649C316.724 172.501 321.51 166.861 328.001 162.427C334.849 157.859 342.627 154.892 350.76 153.746C358.8 152.507 367.01 153.111 374.777 155.514C384.76 158.778 392.136 164.938 395.365 172.711ZM370.936 206.585C377.067 203.69 382.101 199.579 385.4 194.763C387.501 191.782 388.881 188.348 389.428 184.738C389.91 181.33 389.468 177.857 388.149 174.685C386.74 171.368 384.548 168.447 381.764 166.175C378.644 163.622 375.068 161.693 371.226 160.491C364.781 158.488 357.965 157.988 351.293 159.029C344.556 159.974 338.113 162.427 332.438 166.208C327.053 169.883 323.09 174.57 321.043 179.672C320.033 182.072 319.505 184.649 319.488 187.254C319.472 189.858 319.967 192.439 320.947 194.848C322.932 199.648 326.81 203.74 332.179 206.621C334.001 207.6 335.908 208.411 337.876 209.044C342.101 210.383 346.51 211.051 350.943 211.022C357.843 211.013 364.662 209.494 370.926 206.571" fill="#FFD000"/>
<path d="M388.155 174.654C389.473 177.826 389.915 181.299 389.434 184.707C388.885 188.324 387.5 191.764 385.39 194.749C382.091 199.564 377.057 203.675 370.926 206.57C364.662 209.494 357.843 211.013 350.944 211.022C346.51 211.051 342.101 210.383 337.876 209.043C335.908 208.411 334.001 207.6 332.179 206.621C326.81 203.74 322.932 199.648 320.947 194.848C319.968 192.439 319.472 189.858 319.488 187.253C319.505 184.649 320.033 182.072 321.043 179.671C323.09 174.57 327.053 169.883 332.438 166.208C338.112 162.415 344.557 159.951 351.299 158.998C357.971 157.957 364.787 158.457 371.232 160.46C375.073 161.662 378.65 163.591 381.77 166.144C384.554 168.416 386.746 171.337 388.155 174.654Z" fill="#EBA500"/>
<path d="M351.299 158.998C357.971 157.957 364.787 158.457 371.232 160.46C355.663 158.537 335.898 161.752 326.825 176.447C317.751 191.142 326.47 202.608 326.47 202.608C324.006 200.348 322.137 197.725 320.947 194.848C319.968 192.439 319.472 189.858 319.488 187.253C319.505 184.649 320.033 182.072 321.043 179.671C323.09 174.57 327.053 169.883 332.438 166.208C338.112 162.415 344.557 159.951 351.299 158.998Z" fill="#DF7900"/>
<path d="M349.037 167.763L349.126 167.723C349.075 167.758 349.041 167.77 349.037 167.763Z" fill="#CA820B"/>
<path d="M349.145 167.727L349.554 167.571C349.495 167.648 349.443 167.721 349.388 167.806L349.145 167.727Z" fill="#CA820B"/>
<path d="M396.871 177.997L398.203 186.402C399.198 192.695 397.567 199.307 393.425 205.345C389.451 211.135 383.384 216.083 375.983 219.566C368.411 223.088 360.171 224.914 351.835 224.915C346.471 224.939 341.139 224.123 336.029 222.497C335.012 222.167 334.015 221.802 333.043 221.405C331.71 220.865 330.406 220.253 329.14 219.57C322.68 216.091 317.942 211.153 315.536 205.363C314.826 203.664 314.321 201.885 314.033 200.064L312.694 191.69C312.983 193.511 313.487 195.29 314.197 196.989C316.603 202.779 321.341 207.717 327.801 211.196C329.068 211.878 330.371 212.49 331.705 213.031C332.676 213.428 333.674 213.793 334.69 214.122C339.8 215.749 345.133 216.565 350.496 216.541C358.832 216.54 367.073 214.714 374.645 211.192C382.046 207.709 388.112 202.761 392.087 196.971C396.235 190.902 397.866 184.291 396.871 177.997Z" fill="#E48203"/>
<path d="M374.642 155.496C366.913 153.124 358.749 152.535 350.755 153.772C342.622 154.918 334.845 157.885 327.996 162.453C321.505 166.887 316.732 172.529 314.268 178.675C313.052 181.571 312.42 184.68 312.408 187.82C312.397 190.961 313.006 194.072 314.201 196.971C316.607 202.762 321.345 207.7 327.805 211.179C329.072 211.861 330.375 212.473 331.708 213.013C330.322 212.456 328.968 211.821 327.653 211.111C321.223 207.645 316.515 202.712 314.126 196.931C312.945 194.029 312.347 190.919 312.366 187.78C312.386 184.642 313.024 181.537 314.242 178.645C316.692 172.503 321.479 166.856 327.952 162.419C334.781 157.86 342.534 154.892 350.643 153.731C358.676 152.481 366.883 153.085 374.642 155.496Z" fill="#FFD000"/>
<path d="M313.951 200.093L312.621 191.676C312.906 193.474 313.402 195.232 314.098 196.912C316.488 202.693 321.195 207.625 327.626 211.092C328.94 211.802 330.294 212.437 331.68 212.994L333.013 221.399C331.616 220.841 330.252 220.204 328.928 219.491C322.497 216.024 317.79 211.092 315.4 205.311C314.715 203.635 314.229 201.884 313.951 200.093Z" fill="#E48907"/>
<mask id="mask0_918_14071" style="mask-type:alpha" maskUnits="userSpaceOnUse" x="312" y="153" width="86" height="64">
<path d="M395.365 172.711C398.591 180.471 397.418 189.192 392.09 196.952C388.116 202.742 382.049 207.69 374.648 211.173C367.08 214.69 358.845 216.512 350.514 216.512C345.151 216.536 339.818 215.72 334.708 214.094C333.692 213.764 332.695 213.399 331.723 213.002C330.39 212.461 329.087 211.849 327.819 211.167C321.359 207.688 316.622 202.75 314.215 196.96C313.017 194.059 312.405 190.946 312.415 187.803C312.425 184.659 313.056 181.548 314.273 178.649C316.724 172.501 321.51 166.861 328.001 162.427C334.849 157.859 342.627 154.892 350.759 153.746C358.8 152.506 367.01 153.111 374.777 155.514C384.76 158.778 392.136 164.937 395.365 172.711ZM370.936 206.585C377.067 203.69 382.101 199.578 385.4 194.763C387.501 191.781 388.881 188.348 389.428 184.738C389.91 181.33 389.468 177.857 388.149 174.685C386.74 171.368 384.548 168.447 381.764 166.174C378.644 163.622 375.068 161.693 371.226 160.49C364.781 158.488 357.965 157.988 351.293 159.028C344.556 159.973 338.113 162.427 332.438 166.208C327.053 169.883 323.09 174.57 321.043 179.671C320.033 182.072 319.505 184.649 319.488 187.253C319.472 189.858 319.967 192.439 320.947 194.848C322.932 199.648 326.81 203.74 332.179 206.621C334.001 207.6 335.908 208.411 337.876 209.043C342.101 210.383 346.51 211.051 350.943 211.022C357.843 211.013 364.662 209.494 370.926 206.57" fill="#FADD23"/>
</mask>
<g mask="url(#mask0_918_14071)">
<rect x="291.276" y="185.075" width="129.834" height="5.53709" transform="rotate(-19.0638 291.276 185.075)" fill="#FFF3A5"/>
<rect x="310.212" y="206.847" width="99.6677" height="2.76855" transform="rotate(-19.0638 310.212 206.847)" fill="#FFF3A5"/>
<rect x="303.01" y="188.831" width="99.6677" height="2.76855" transform="rotate(-19.0638 303.01 188.831)" fill="#FFF3A5"/>
</g>
</g>
<path d="M371.371 191.71C371.24 192.842 370.814 193.92 370.135 194.834C369.253 196.115 368.127 197.206 366.823 198.046C365.101 199.095 363.122 199.638 361.111 199.612C358.596 199.598 356.091 199.298 353.645 198.716C353.505 198.651 353.348 198.636 353.198 198.673C353.049 198.71 352.916 198.797 352.822 198.92C351.855 200.36 350.853 201.883 349.887 203.317C349.69 203.616 349.631 203.725 349.298 203.617C349.216 203.592 349.135 203.562 349.057 203.525C348.008 203.234 346.864 202.841 345.808 202.548C345.473 202.42 345.502 202.336 345.688 202.156C346.678 200.631 347.68 199.108 348.774 197.667C348.809 197.483 348.983 197.402 348.764 197.29C347.839 197.01 346.906 196.734 345.857 196.442C345.347 197.253 344.706 198.051 344.197 198.855C343.687 199.659 343.044 200.469 342.528 201.278C342.363 201.444 342.327 201.532 342.042 201.439L341.561 201.276C340.551 200.947 339.515 200.684 338.485 200.421C338.15 200.293 338.174 200.202 338.359 200.028C339.355 198.504 340.352 196.974 341.444 195.539C341.463 195.441 341.623 195.364 341.684 195.178C339.024 194.359 336.369 193.516 333.583 192.698C333.946 192.355 334.162 192.085 334.526 191.742C335.309 190.959 336.043 190.166 336.653 189.464C336.862 189.199 336.986 189.211 337.359 189.245L337.554 189.282C338.341 189.545 339.143 189.766 339.954 189.943C340.328 190.094 340.742 190.111 341.128 189.992C341.514 189.872 341.847 189.622 342.071 189.284C345.178 184.717 348.262 180.138 351.312 175.471C351.797 174.757 351.446 173.863 350.432 173.483C350.114 173.364 349.789 173.25 349.473 173.151C348.766 172.919 348.07 172.727 347.431 172.534C347.385 172.532 347.34 172.523 347.297 172.508C347.151 172.48 347.127 172.374 347.274 172.237C347.917 171.325 348.58 170.347 349.224 169.435C350.418 169.799 351.624 170.096 352.814 170.478C354.004 170.861 355.38 171.197 356.647 171.6C356.767 171.654 356.903 171.661 357.028 171.619C357.153 171.578 357.258 171.49 357.323 171.375C358.326 169.846 359.292 168.412 360.292 166.863C360.493 166.61 360.642 166.524 360.969 166.632L361.563 166.829C362.503 167.132 363.396 167.381 364.372 167.626C364.714 167.756 364.683 167.852 364.499 168.019C363.533 169.454 362.542 170.985 361.576 172.419C361.526 172.557 361.442 172.678 361.331 172.772C362.262 173.054 363.311 173.346 364.237 173.626C364.358 173.65 364.54 173.462 364.695 173.378C365.451 172.215 366.18 171.122 367.051 169.981L367.778 168.901C367.785 168.864 367.801 168.829 367.823 168.799C367.845 168.769 367.874 168.744 367.907 168.727C367.94 168.709 367.977 168.7 368.014 168.699C368.052 168.697 368.089 168.705 368.123 168.72C368.323 168.797 368.449 168.834 368.567 168.875C369.602 169.209 370.66 169.49 371.796 169.855C371.248 171.062 370.582 172.211 369.806 173.285C369.526 173.788 369.191 174.258 368.809 174.688C368.599 174.952 368.693 175.059 369.034 175.189L372.667 176.959C373.688 177.585 374.544 178.45 375.162 179.481C375.827 180.977 375.476 182.466 374.504 183.899C373.825 184.949 372.896 185.812 371.801 186.409C370.824 186.884 369.779 187.203 368.705 187.356C368.531 187.384 368.355 187.399 368.178 187.4C368.583 187.726 369.019 187.957 369.425 188.276C369.979 188.67 370.441 189.182 370.777 189.775C371.113 190.368 371.316 191.029 371.371 191.71ZM358.255 194.579C360.778 194.24 362.502 192.024 361.619 190.411C361.109 189.606 360.4 188.948 359.562 188.5C358.566 187.941 357.513 187.491 356.422 187.156C355.233 186.768 354.028 186.465 352.824 186.156L352.751 186.142C352.472 186.05 352.433 186.15 352.24 186.399C351.699 187.299 351.062 188.078 350.518 188.997C349.607 190.245 348.827 191.505 347.879 192.847L347.933 192.858C347.994 192.878 348.049 192.915 348.09 192.964C350.008 193.615 351.972 194.118 353.966 194.469C355.376 194.745 356.822 194.786 358.246 194.59L358.255 194.579ZM354.577 182.611C354.398 182.786 354.522 182.892 354.709 183.005L355.06 183.117L355.387 183.225L355.982 183.416C357.721 183.825 359.481 184.138 361.254 184.352C361.726 184.362 362.198 184.343 362.668 184.295C365.138 184.136 367.016 182.23 366.287 180.544C365.799 179.611 364.987 178.891 364.005 178.521C363.196 178.152 362.365 177.834 361.516 177.569C360.731 177.316 359.918 177.076 359.09 176.815L359.029 176.803C358.732 176.707 358.582 176.793 358.383 177.04C357.147 178.924 355.935 180.718 354.574 182.591" fill="#DF7900"/>
<path d="M371.617 190.079C371.487 191.212 371.061 192.289 370.382 193.203C369.5 194.484 368.374 195.576 367.069 196.415C365.348 197.464 363.369 198.007 361.358 197.982C358.843 197.968 356.338 197.667 353.891 197.086C353.752 197.02 353.594 197.005 353.445 197.042C353.295 197.079 353.162 197.166 353.069 197.289C352.101 198.729 351.1 200.252 350.134 201.686C349.937 201.985 349.878 202.095 349.545 201.986C349.462 201.962 349.382 201.931 349.304 201.895C348.254 201.603 347.11 201.21 346.055 200.917C345.72 200.789 345.748 200.706 345.935 200.525C346.925 199 347.926 197.478 349.02 196.036C349.056 195.852 349.229 195.772 349.011 195.659C348.086 195.379 347.153 195.103 346.104 194.812C345.593 195.622 344.952 196.42 344.443 197.224C343.934 198.028 343.291 198.839 342.774 199.648C342.61 199.813 342.574 199.901 342.288 199.808L341.808 199.645C340.797 199.317 339.761 199.053 338.732 198.79C338.396 198.662 338.42 198.571 338.605 198.397C339.601 196.873 340.598 195.343 341.691 193.908C341.71 193.81 341.87 193.733 341.931 193.548C339.271 192.729 336.616 191.885 333.829 191.067C334.193 190.724 334.409 190.454 334.772 190.111C335.555 189.328 336.29 188.536 336.9 187.833C337.109 187.569 337.233 187.58 337.605 187.614L337.8 187.651C338.588 187.914 339.389 188.135 340.2 188.312C340.574 188.464 340.989 188.481 341.375 188.361C341.76 188.241 342.093 187.991 342.318 187.654C345.425 183.086 348.508 178.507 351.559 173.84C352.044 173.126 351.692 172.232 350.679 171.852C350.361 171.733 350.035 171.619 349.719 171.52C349.012 171.288 348.316 171.097 347.678 170.903C347.632 170.901 347.587 170.892 347.544 170.877C347.397 170.849 347.374 170.743 347.52 170.606C348.164 169.694 348.827 168.716 349.471 167.804C350.664 168.168 351.871 168.465 353.06 168.848C354.25 169.23 355.626 169.566 356.894 169.97C357.014 170.024 357.15 170.03 357.275 169.989C357.4 169.947 357.505 169.86 357.569 169.744C358.573 168.215 359.538 166.781 360.539 165.233C360.74 164.979 360.889 164.894 361.216 165.001L361.809 165.199C362.749 165.501 363.643 165.75 364.619 165.996C364.96 166.125 364.929 166.221 364.745 166.389C363.779 167.823 362.788 169.354 361.822 170.789C361.773 170.926 361.688 171.048 361.577 171.142C362.509 171.423 363.558 171.715 364.483 171.996C364.605 172.019 364.787 171.832 364.942 171.747C365.698 170.584 366.427 169.492 367.298 168.35L368.025 167.27C368.032 167.233 368.047 167.199 368.07 167.168C368.092 167.138 368.121 167.114 368.154 167.096C368.187 167.079 368.224 167.069 368.261 167.068C368.298 167.067 368.335 167.074 368.37 167.089C368.57 167.166 368.695 167.203 368.813 167.245C369.848 167.578 370.906 167.859 372.043 168.225C371.495 169.432 370.828 170.58 370.053 171.654C369.773 172.157 369.438 172.628 369.055 173.057C368.846 173.322 368.939 173.429 369.281 173.558L372.913 175.328C373.935 175.954 374.791 176.82 375.408 177.851C376.074 179.346 375.723 180.835 374.751 182.269C374.072 183.319 373.142 184.182 372.048 184.778C371.07 185.253 370.026 185.572 368.952 185.725C368.778 185.753 368.601 185.768 368.425 185.769C368.83 186.095 369.265 186.326 369.671 186.646C370.226 187.04 370.688 187.551 371.024 188.144C371.36 188.738 371.563 189.398 371.617 190.079ZM358.501 192.948C361.025 192.609 362.748 190.393 361.866 188.78C361.355 187.975 360.647 187.317 359.808 186.869C358.812 186.311 357.76 185.86 356.669 185.525C355.48 185.137 354.275 184.834 353.071 184.525L352.997 184.511C352.718 184.419 352.68 184.52 352.486 184.768C351.946 185.668 351.309 186.448 350.765 187.366C349.854 188.614 349.073 189.874 348.125 191.217L348.18 191.227C348.241 191.247 348.295 191.284 348.336 191.334C350.254 191.984 352.219 192.487 354.213 192.838C355.623 193.114 357.069 193.155 358.493 192.959L358.501 192.948ZM354.823 180.98C354.644 181.155 354.769 181.262 354.956 181.374L355.307 181.486L355.634 181.594L356.229 181.785C357.967 182.194 359.727 182.507 361.501 182.721C361.973 182.731 362.445 182.712 362.915 182.664C365.384 182.506 367.263 180.599 366.533 178.914C366.045 177.98 365.233 177.26 364.252 176.89C363.442 176.521 362.611 176.204 361.763 175.939C360.977 175.685 360.164 175.445 359.337 175.184L359.276 175.172C358.978 175.076 358.829 175.162 358.629 175.409C357.393 177.294 356.181 179.087 354.821 180.96" fill="#FFE12A"/>
<path d="M371.617 190.079C371.487 191.212 371.061 192.289 370.382 193.203C369.5 194.484 368.374 195.576 367.069 196.415C365.348 197.464 363.369 198.007 361.358 197.982C358.843 197.968 356.338 197.667 353.891 197.086C353.752 197.02 353.594 197.005 353.445 197.042C353.295 197.079 353.162 197.166 353.069 197.289C352.101 198.729 351.1 200.252 350.134 201.686C349.937 201.985 349.878 202.095 349.545 201.986C349.462 201.962 349.382 201.931 349.304 201.895C348.254 201.603 347.11 201.21 346.055 200.917C345.72 200.789 345.748 200.706 345.935 200.525C346.925 199 347.926 197.478 349.02 196.036C349.056 195.852 349.229 195.772 349.011 195.659C348.086 195.379 347.153 195.103 346.104 194.812C345.593 195.622 344.952 196.42 344.443 197.224C343.934 198.028 343.291 198.839 342.774 199.648C342.61 199.813 342.574 199.901 342.288 199.808L341.808 199.645C340.797 199.317 339.761 199.053 338.732 198.79C338.396 198.662 338.42 198.571 338.605 198.397C339.601 196.873 340.598 195.343 341.691 193.908C341.71 193.81 341.87 193.733 341.931 193.548C339.271 192.729 336.616 191.885 333.829 191.067C334.193 190.724 334.409 190.454 334.772 190.111C335.555 189.328 336.29 188.536 336.9 187.833C337.109 187.569 337.233 187.58 337.605 187.614L337.8 187.651C338.588 187.914 339.389 188.135 340.2 188.312C340.574 188.464 340.989 188.481 341.375 188.361C341.76 188.241 342.093 187.991 342.318 187.654C345.425 183.086 348.508 178.507 351.559 173.84C352.044 173.126 351.692 172.232 350.679 171.852C350.361 171.733 350.035 171.619 349.719 171.52C349.012 171.288 348.316 171.097 347.678 170.903C347.632 170.901 347.587 170.892 347.544 170.877C347.397 170.849 347.374 170.743 347.52 170.606C348.164 169.694 348.827 168.716 349.471 167.804C350.664 168.168 351.871 168.465 353.06 168.848C354.25 169.23 355.626 169.566 356.894 169.97C357.014 170.024 357.15 170.03 357.275 169.989C357.4 169.947 357.505 169.86 357.569 169.744C358.573 168.215 359.538 166.781 360.539 165.233C360.74 164.979 360.889 164.894 361.216 165.001L361.809 165.199C362.749 165.501 363.643 165.75 364.619 165.996C364.96 166.125 364.929 166.221 364.745 166.389C363.779 167.823 362.788 169.354 361.822 170.789C361.773 170.926 361.688 171.048 361.577 171.142C362.509 171.423 363.558 171.715 364.483 171.996C364.605 172.019 364.787 171.832 364.942 171.747C365.698 170.584 366.427 169.492 367.298 168.35L368.025 167.27C368.032 167.233 368.047 167.199 368.07 167.168C368.092 167.138 368.121 167.114 368.154 167.096C368.187 167.079 368.224 167.069 368.261 167.068C368.298 167.067 368.335 167.074 368.37 167.089C368.57 167.166 368.695 167.203 368.813 167.245C369.848 167.578 370.906 167.859 372.043 168.225C371.495 169.432 370.828 170.58 370.053 171.654C369.773 172.157 369.438 172.628 369.055 173.057C368.846 173.322 368.939 173.429 369.281 173.558L372.913 175.328C373.935 175.954 374.791 176.82 375.408 177.851C376.074 179.346 375.723 180.835 374.751 182.269C374.072 183.319 373.142 184.182 372.048 184.778C371.07 185.253 370.026 185.572 368.952 185.725C368.778 185.753 368.601 185.768 368.425 185.769C368.83 186.095 369.265 186.326 369.671 186.646C370.226 187.04 370.688 187.551 371.024 188.144C371.36 188.738 371.563 189.398 371.617 190.079ZM358.501 192.948C361.025 192.609 362.748 190.393 361.866 188.78C361.355 187.975 360.647 187.317 359.808 186.869C358.812 186.311 357.76 185.86 356.669 185.525C355.48 185.137 354.275 184.834 353.071 184.525L352.997 184.511C352.718 184.419 352.68 184.52 352.486 184.768C351.946 185.668 351.309 186.448 350.765 187.366C349.854 188.614 349.073 189.874 348.125 191.217L348.18 191.227C348.241 191.247 348.295 191.284 348.336 191.334C350.254 191.984 352.219 192.487 354.213 192.838C355.623 193.114 357.069 193.155 358.493 192.959L358.501 192.948ZM354.823 180.98C354.644 181.155 354.769 181.262 354.956 181.374L355.307 181.486L355.634 181.594L356.229 181.785C357.967 182.194 359.727 182.507 361.501 182.721C361.973 182.731 362.445 182.712 362.915 182.664C365.384 182.506 367.263 180.599 366.533 178.914C366.045 177.98 365.233 177.26 364.252 176.89C363.442 176.521 362.611 176.204 361.763 175.939C360.977 175.685 360.164 175.445 359.337 175.184L359.276 175.172C358.978 175.076 358.829 175.162 358.629 175.409C357.393 177.294 356.181 179.087 354.821 180.96" fill="#FFE12A"/>
<mask id="mask1_918_14071" style="mask-type:alpha" maskUnits="userSpaceOnUse" x="333" y="164" width="43" height="39">
<path d="M371.617 190.08C371.487 191.212 371.061 192.29 370.382 193.204C369.5 194.484 368.374 195.576 367.069 196.416C365.348 197.465 363.369 198.007 361.358 197.982C358.843 197.968 356.338 197.668 353.891 197.086C353.752 197.021 353.594 197.005 353.445 197.042C353.295 197.079 353.162 197.166 353.069 197.289C352.101 198.73 351.1 200.253 350.134 201.687C349.937 201.986 349.878 202.095 349.545 201.986C349.462 201.962 349.382 201.932 349.304 201.895C348.254 201.603 347.11 201.211 346.055 200.918C345.72 200.789 345.748 200.706 345.935 200.526C346.925 199.001 347.926 197.478 349.02 196.037C349.056 195.853 349.229 195.772 349.011 195.66C348.086 195.379 347.153 195.104 346.104 194.812C345.593 195.622 344.952 196.42 344.443 197.225C343.934 198.029 343.291 198.839 342.774 199.648C342.61 199.814 342.574 199.902 342.288 199.809L341.808 199.646C340.797 199.317 339.761 199.053 338.732 198.791C338.396 198.662 338.42 198.572 338.605 198.398C339.601 196.874 340.598 195.344 341.691 193.909C341.71 193.811 341.87 193.733 341.931 193.548C339.271 192.729 336.616 191.885 333.829 191.067C334.193 190.724 334.409 190.455 334.772 190.112C335.555 189.329 336.29 188.536 336.9 187.834C337.109 187.569 337.233 187.58 337.605 187.614L337.8 187.652C338.588 187.915 339.389 188.135 340.2 188.313C340.574 188.464 340.989 188.481 341.375 188.361C341.76 188.241 342.093 187.992 342.318 187.654C345.425 183.086 348.508 178.508 351.559 173.84C352.044 173.127 351.692 172.232 350.679 171.852C350.361 171.734 350.035 171.62 349.719 171.521C349.012 171.289 348.316 171.097 347.678 170.904C347.632 170.901 347.587 170.893 347.544 170.878C347.397 170.85 347.374 170.743 347.52 170.606C348.164 169.695 348.827 168.717 349.471 167.805C350.664 168.169 351.871 168.466 353.06 168.848C354.25 169.231 355.626 169.566 356.894 169.97C357.014 170.024 357.15 170.031 357.275 169.989C357.4 169.947 357.505 169.86 357.569 169.745C358.573 168.216 359.538 166.782 360.539 165.233C360.74 164.98 360.889 164.894 361.216 165.002L361.809 165.199C362.749 165.501 363.643 165.75 364.619 165.996C364.96 166.126 364.929 166.221 364.745 166.389C363.779 167.824 362.788 169.355 361.822 170.789C361.773 170.926 361.688 171.048 361.577 171.142C362.509 171.424 363.558 171.716 364.483 171.996C364.605 172.02 364.787 171.832 364.942 171.748C365.698 170.584 366.427 169.492 367.298 168.351L368.025 167.271C368.032 167.234 368.047 167.199 368.07 167.169C368.092 167.139 368.121 167.114 368.154 167.097C368.187 167.079 368.224 167.07 368.261 167.068C368.298 167.067 368.335 167.074 368.37 167.09C368.57 167.166 368.695 167.203 368.813 167.245C369.848 167.579 370.906 167.859 372.043 168.225C371.495 169.432 370.828 170.581 370.053 171.655C369.773 172.158 369.438 172.628 369.055 173.057C368.846 173.322 368.939 173.429 369.281 173.559L372.913 175.329C373.935 175.955 374.791 176.82 375.408 177.851C376.074 179.346 375.723 180.836 374.751 182.269C374.072 183.319 373.142 184.182 372.048 184.779C371.07 185.253 370.026 185.573 368.952 185.725C368.778 185.753 368.601 185.768 368.425 185.77C368.83 186.096 369.265 186.326 369.671 186.646C370.226 187.04 370.688 187.552 371.024 188.145C371.36 188.738 371.563 189.399 371.617 190.08ZM358.501 192.949C361.025 192.61 362.748 190.394 361.866 188.78C361.355 187.976 360.647 187.318 359.808 186.87C358.812 186.311 357.76 185.86 356.669 185.526C355.48 185.137 354.275 184.835 353.071 184.526L352.997 184.511C352.718 184.419 352.68 184.52 352.486 184.769C351.946 185.669 351.309 186.448 350.765 187.366C349.854 188.614 349.073 189.875 348.125 191.217L348.18 191.228C348.241 191.248 348.295 191.285 348.336 191.334C350.254 191.984 352.219 192.487 354.213 192.838C355.623 193.114 357.069 193.155 358.493 192.96L358.501 192.949ZM354.823 180.98C354.644 181.156 354.769 181.262 354.956 181.375L355.307 181.487L355.634 181.595L356.229 181.786C357.967 182.195 359.727 182.507 361.501 182.722C361.973 182.732 362.445 182.713 362.915 182.665C365.384 182.506 367.263 180.6 366.533 178.914C366.045 177.981 365.233 177.261 364.252 176.89C363.442 176.522 362.611 176.204 361.763 175.939C360.977 175.686 360.164 175.446 359.337 175.184L359.276 175.173C358.978 175.077 358.829 175.162 358.629 175.41C357.393 177.294 356.181 179.088 354.821 180.961" fill="#FFE12A"/>
</mask>
<g mask="url(#mask1_918_14071)">
<rect x="291.287" y="185.111" width="129.866" height="5.53846" transform="rotate(-19.0638 291.287 185.111)" fill="#FFF3A5"/>
<rect x="310.227" y="206.889" width="99.6923" height="2.76923" transform="rotate(-19.0638 310.227 206.889)" fill="#FFF3A5"/>
<rect x="303.023" y="188.869" width="99.6923" height="2.76923" transform="rotate(-19.0638 303.023 188.869)" fill="#FFF3A5"/>
</g>
<path d="M388.711 134.386L385.797 147.217C384.802 151.598 386.826 156.108 390.759 158.277L402.282 164.63L389.451 161.716C385.07 160.721 380.56 162.745 378.391 166.679L372.038 178.201L374.952 165.37C375.947 160.99 373.923 156.479 369.989 154.311L358.467 147.957L371.298 150.871C375.679 151.866 380.189 149.842 382.358 145.909L388.711 134.386Z" fill="white"/>
<ellipse opacity="0.2" cx="380.374" cy="156.293" rx="11.3183" ry="11.3183" transform="rotate(20.8332 380.374 156.293)" fill="white"/>
</g>
<defs>
<filter id="filter0_i_918_14071" x="349.686" y="19.882" width="225.157" height="211.245" filterUnits="userSpaceOnUse" color-interpolation-filters="sRGB">
<feFlood flood-opacity="0" result="BackgroundImageFix"/>
<feBlend mode="normal" in="SourceGraphic" in2="BackgroundImageFix" result="shape"/>
<feColorMatrix in="SourceAlpha" type="matrix" values="0 0 0 0 0 0 0 0 0 0 0 0 0 0 0 0 0 0 127 0" result="hardAlpha"/>
<feOffset/>
<feGaussianBlur stdDeviation="3.01422"/>
<feComposite in2="hardAlpha" operator="arithmetic" k2="-1" k3="1"/>
<feColorMatrix type="matrix" values="0 0 0 0 0 0 0 0 0 0 0 0 0 0 0 0 0 0 0.25 0"/>
<feBlend mode="normal" in2="shape" result="effect1_innerShadow_918_14071"/>
</filter>
<filter id="filter1_di_918_14071" x="368.002" y="165.229" width="20.116" height="21.9366" filterUnits="userSpaceOnUse" color-interpolation-filters="sRGB">
<feFlood flood-opacity="0" result="BackgroundImageFix"/>
<feColorMatrix in="SourceAlpha" type="matrix" values="0 0 0 0 0 0 0 0 0 0 0 0 0 0 0 0 0 0 127 0" result="hardAlpha"/>
<feOffset dy="3.2211"/>
<feGaussianBlur stdDeviation="0.70024"/>
<feColorMatrix type="matrix" values="0 0 0 0 0 0 0 0 0 0 0 0 0 0 0 0 0 0 0.25 0"/>
<feBlend mode="normal" in2="BackgroundImageFix" result="effect1_dropShadow_918_14071"/>
<feBlend mode="normal" in="SourceGraphic" in2="effect1_dropShadow_918_14071" result="shape"/>
<feColorMatrix in="SourceAlpha" type="matrix" values="0 0 0 0 0 0 0 0 0 0 0 0 0 0 0 0 0 0 127 0" result="hardAlpha"/>
<feOffset dy="-2.913"/>
<feComposite in2="hardAlpha" operator="arithmetic" k2="-1" k3="1"/>
<feColorMatrix type="matrix" values="0 0 0 0 0 0 0 0 0 0.0766668 0 0 0 0 0.766667 0 0 0 0.38 0"/>
<feBlend mode="normal" in2="shape" result="effect2_innerShadow_918_14071"/>
</filter>
<filter id="filter2_di_918_14071" x="410.073" y="173.358" width="20.116" height="21.9366" filterUnits="userSpaceOnUse" color-interpolation-filters="sRGB">
<feFlood flood-opacity="0" result="BackgroundImageFix"/>
<feColorMatrix in="SourceAlpha" type="matrix" values="0 0 0 0 0 0 0 0 0 0 0 0 0 0 0 0 0 0 127 0" result="hardAlpha"/>
<feOffset dy="3.2211"/>
<feGaussianBlur stdDeviation="0.70024"/>
<feColorMatrix type="matrix" values="0 0 0 0 0 0 0 0 0 0 0 0 0 0 0 0 0 0 0.25 0"/>
<feBlend mode="normal" in2="BackgroundImageFix" result="effect1_dropShadow_918_14071"/>
<feBlend mode="normal" in="SourceGraphic" in2="effect1_dropShadow_918_14071" result="shape"/>
<feColorMatrix in="SourceAlpha" type="matrix" values="0 0 0 0 0 0 0 0 0 0 0 0 0 0 0 0 0 0 127 0" result="hardAlpha"/>
<feOffset dy="-2.913"/>
<feComposite in2="hardAlpha" operator="arithmetic" k2="-1" k3="1"/>
<feColorMatrix type="matrix" values="0 0 0 0 0 0 0 0 0 0.0766668 0 0 0 0 0.766667 0 0 0 0.38 0"/>
<feBlend mode="normal" in2="shape" result="effect2_innerShadow_918_14071"/>
</filter>
<filter id="filter3_di_918_14071" x="450.444" y="181.159" width="20.116" height="21.9366" filterUnits="userSpaceOnUse" color-interpolation-filters="sRGB">
<feFlood flood-opacity="0" result="BackgroundImageFix"/>
<feColorMatrix in="SourceAlpha" type="matrix" values="0 0 0 0 0 0 0 0 0 0 0 0 0 0 0 0 0 0 127 0" result="hardAlpha"/>
<feOffset dy="3.2211"/>
<feGaussianBlur stdDeviation="0.70024"/>
<feColorMatrix type="matrix" values="0 0 0 0 0 0 0 0 0 0 0 0 0 0 0 0 0 0 0.25 0"/>
<feBlend mode="normal" in2="BackgroundImageFix" result="effect1_dropShadow_918_14071"/>
<feBlend mode="normal" in="SourceGraphic" in2="effect1_dropShadow_918_14071" result="shape"/>
<feColorMatrix in="SourceAlpha" type="matrix" values="0 0 0 0 0 0 0 0 0 0 0 0 0 0 0 0 0 0 127 0" result="hardAlpha"/>
<feOffset dy="-2.913"/>
<feComposite in2="hardAlpha" operator="arithmetic" k2="-1" k3="1"/>
<feColorMatrix type="matrix" values="0 0 0 0 0 0 0 0 0 0.0766668 0 0 0 0 0.766667 0 0 0 0.38 0"/>
<feBlend mode="normal" in2="shape" result="effect2_innerShadow_918_14071"/>
</filter>
<filter id="filter4_di_918_14071" x="536.285" y="197.745" width="20.116" height="21.9366" filterUnits="userSpaceOnUse" color-interpolation-filters="sRGB">
<feFlood flood-opacity="0" result="BackgroundImageFix"/>
<feColorMatrix in="SourceAlpha" type="matrix" values="0 0 0 0 0 0 0 0 0 0 0 0 0 0 0 0 0 0 127 0" result="hardAlpha"/>
<feOffset dy="3.2211"/>
<feGaussianBlur stdDeviation="0.70024"/>
<feColorMatrix type="matrix" values="0 0 0 0 0 0 0 0 0 0 0 0 0 0 0 0 0 0 0.25 0"/>
<feBlend mode="normal" in2="BackgroundImageFix" result="effect1_dropShadow_918_14071"/>
<feBlend mode="normal" in="SourceGraphic" in2="effect1_dropShadow_918_14071" result="shape"/>
<feColorMatrix in="SourceAlpha" type="matrix" values="0 0 0 0 0 0 0 0 0 0 0 0 0 0 0 0 0 0 127 0" result="hardAlpha"/>
<feOffset dy="-2.913"/>
<feComposite in2="hardAlpha" operator="arithmetic" k2="-1" k3="1"/>
<feColorMatrix type="matrix" values="0 0 0 0 0 0 0 0 0 0.0766668 0 0 0 0 0.766667 0 0 0 0.38 0"/>
<feBlend mode="normal" in2="shape" result="effect2_innerShadow_918_14071"/>
</filter>
<filter id="filter5_di_918_14071" x="494.215" y="189.616" width="20.116" height="21.9366" filterUnits="userSpaceOnUse" color-interpolation-filters="sRGB">
<feFlood flood-opacity="0" result="BackgroundImageFix"/>
<feColorMatrix in="SourceAlpha" type="matrix" values="0 0 0 0 0 0 0 0 0 0 0 0 0 0 0 0 0 0 127 0" result="hardAlpha"/>
<feOffset dy="3.2211"/>
<feGaussianBlur stdDeviation="0.70024"/>
<feColorMatrix type="matrix" values="0 0 0 0 0 0 0 0 0 0 0 0 0 0 0 0 0 0 0.25 0"/>
<feBlend mode="normal" in2="BackgroundImageFix" result="effect1_dropShadow_918_14071"/>
<feBlend mode="normal" in="SourceGraphic" in2="effect1_dropShadow_918_14071" result="shape"/>
<feColorMatrix in="SourceAlpha" type="matrix" values="0 0 0 0 0 0 0 0 0 0 0 0 0 0 0 0 0 0 127 0" result="hardAlpha"/>
<feOffset dy="-2.913"/>
<feComposite in2="hardAlpha" operator="arithmetic" k2="-1" k3="1"/>
<feColorMatrix type="matrix" values="0 0 0 0 0 0 0 0 0 0.0766668 0 0 0 0 0.766667 0 0 0 0.38 0"/>
<feBlend mode="normal" in2="shape" result="effect2_innerShadow_918_14071"/>
</filter>
<filter id="filter6_di_918_14071" x="396.746" y="131.38" width="20.1131" height="21.9337" filterUnits="userSpaceOnUse" color-interpolation-filters="sRGB">
<feFlood flood-opacity="0" result="BackgroundImageFix"/>
<feColorMatrix in="SourceAlpha" type="matrix" values="0 0 0 0 0 0 0 0 0 0 0 0 0 0 0 0 0 0 127 0" result="hardAlpha"/>
<feOffset dy="3.2211"/>
<feGaussianBlur stdDeviation="0.70024"/>
<feColorMatrix type="matrix" values="0 0 0 0 0 0 0 0 0 0 0 0 0 0 0 0 0 0 0.25 0"/>
<feBlend mode="normal" in2="BackgroundImageFix" result="effect1_dropShadow_918_14071"/>
<feBlend mode="normal" in="SourceGraphic" in2="effect1_dropShadow_918_14071" result="shape"/>
<feColorMatrix in="SourceAlpha" type="matrix" values="0 0 0 0 0 0 0 0 0 0 0 0 0 0 0 0 0 0 127 0" result="hardAlpha"/>
<feOffset dy="-2.913"/>
<feComposite in2="hardAlpha" operator="arithmetic" k2="-1" k3="1"/>
<feColorMatrix type="matrix" values="0 0 0 0 0 0 0 0 0 0.0766668 0 0 0 0 0.766667 0 0 0 0.38 0"/>
<feBlend mode="normal" in2="shape" result="effect2_innerShadow_918_14071"/>
</filter>
<filter id="filter7_di_918_14071" x="424.493" y="100.71" width="20.1131" height="21.9337" filterUnits="userSpaceOnUse" color-interpolation-filters="sRGB">
<feFlood flood-opacity="0" result="BackgroundImageFix"/>
<feColorMatrix in="SourceAlpha" type="matrix" values="0 0 0 0 0 0 0 0 0 0 0 0 0 0 0 0 0 0 127 0" result="hardAlpha"/>
<feOffset dy="3.2211"/>
<feGaussianBlur stdDeviation="0.70024"/>
<feColorMatrix type="matrix" values="0 0 0 0 0 0 0 0 0 0 0 0 0 0 0 0 0 0 0.25 0"/>
<feBlend mode="normal" in2="BackgroundImageFix" result="effect1_dropShadow_918_14071"/>
<feBlend mode="normal" in="SourceGraphic" in2="effect1_dropShadow_918_14071" result="shape"/>
<feColorMatrix in="SourceAlpha" type="matrix" values="0 0 0 0 0 0 0 0 0 0 0 0 0 0 0 0 0 0 127 0" result="hardAlpha"/>
<feOffset dy="-2.913"/>
<feComposite in2="hardAlpha" operator="arithmetic" k2="-1" k3="1"/>
<feColorMatrix type="matrix" values="0 0 0 0 0 0 0 0 0 0.0766668 0 0 0 0 0.766667 0 0 0 0.38 0"/>
<feBlend mode="normal" in2="shape" result="effect2_innerShadow_918_14071"/>
</filter>
<filter id="filter8_di_918_14071" x="452.897" y="66.6417" width="20.1131" height="21.9337" filterUnits="userSpaceOnUse" color-interpolation-filters="sRGB">
<feFlood flood-opacity="0" result="BackgroundImageFix"/>
<feColorMatrix in="SourceAlpha" type="matrix" values="0 0 0 0 0 0 0 0 0 0 0 0 0 0 0 0 0 0 127 0" result="hardAlpha"/>
<feOffset dy="3.2211"/>
<feGaussianBlur stdDeviation="0.70024"/>
<feColorMatrix type="matrix" values="0 0 0 0 0 0 0 0 0 0 0 0 0 0 0 0 0 0 0.25 0"/>
<feBlend mode="normal" in2="BackgroundImageFix" result="effect1_dropShadow_918_14071"/>
<feBlend mode="normal" in="SourceGraphic" in2="effect1_dropShadow_918_14071" result="shape"/>
<feColorMatrix in="SourceAlpha" type="matrix" values="0 0 0 0 0 0 0 0 0 0 0 0 0 0 0 0 0 0 127 0" result="hardAlpha"/>
<feOffset dy="-2.913"/>
<feComposite in2="hardAlpha" operator="arithmetic" k2="-1" k3="1"/>
<feColorMatrix type="matrix" values="0 0 0 0 0 0 0 0 0 0.0766668 0 0 0 0 0.766667 0 0 0 0.38 0"/>
<feBlend mode="normal" in2="shape" result="effect2_innerShadow_918_14071"/>
</filter>
<filter id="filter9_di_918_14071" x="480.971" y="34.2729" width="20.1131" height="21.9337" filterUnits="userSpaceOnUse" color-interpolation-filters="sRGB">
<feFlood flood-opacity="0" result="BackgroundImageFix"/>
<feColorMatrix in="SourceAlpha" type="matrix" values="0 0 0 0 0 0 0 0 0 0 0 0 0 0 0 0 0 0 127 0" result="hardAlpha"/>
<feOffset dy="3.2211"/>
<feGaussianBlur stdDeviation="0.70024"/>
<feColorMatrix type="matrix" values="0 0 0 0 0 0 0 0 0 0 0 0 0 0 0 0 0 0 0.25 0"/>
<feBlend mode="normal" in2="BackgroundImageFix" result="effect1_dropShadow_918_14071"/>
<feBlend mode="normal" in="SourceGraphic" in2="effect1_dropShadow_918_14071" result="shape"/>
<feColorMatrix in="SourceAlpha" type="matrix" values="0 0 0 0 0 0 0 0 0 0 0 0 0 0 0 0 0 0 127 0" result="hardAlpha"/>
<feOffset dy="-2.913"/>
<feComposite in2="hardAlpha" operator="arithmetic" k2="-1" k3="1"/>
<feColorMatrix type="matrix" values="0 0 0 0 0 0 0 0 0 0.0766668 0 0 0 0 0.766667 0 0 0 0.38 0"/>
<feBlend mode="normal" in2="shape" result="effect2_innerShadow_918_14071"/>
</filter>
<filter id="filter10_di_918_14071" x="438.816" y="139.509" width="20.1131" height="21.9337" filterUnits="userSpaceOnUse" color-interpolation-filters="sRGB">
<feFlood flood-opacity="0" result="BackgroundImageFix"/>
<feColorMatrix in="SourceAlpha" type="matrix" values="0 0 0 0 0 0 0 0 0 0 0 0 0 0 0 0 0 0 127 0" result="hardAlpha"/>
<feOffset dy="3.2211"/>
<feGaussianBlur stdDeviation="0.70024"/>
<feColorMatrix type="matrix" values="0 0 0 0 0 0 0 0 0 0 0 0 0 0 0 0 0 0 0.25 0"/>
<feBlend mode="normal" in2="BackgroundImageFix" result="effect1_dropShadow_918_14071"/>
<feBlend mode="normal" in="SourceGraphic" in2="effect1_dropShadow_918_14071" result="shape"/>
<feColorMatrix in="SourceAlpha" type="matrix" values="0 0 0 0 0 0 0 0 0 0 0 0 0 0 0 0 0 0 127 0" result="hardAlpha"/>
<feOffset dy="-2.913"/>
<feComposite in2="hardAlpha" operator="arithmetic" k2="-1" k3="1"/>
<feColorMatrix type="matrix" values="0 0 0 0 0 0 0 0 0 0.0766668 0 0 0 0 0.766667 0 0 0 0.38 0"/>
<feBlend mode="normal" in2="shape" result="effect2_innerShadow_918_14071"/>
</filter>
<filter id="filter11_di_918_14071" x="466.564" y="108.839" width="20.1131" height="21.9337" filterUnits="userSpaceOnUse" color-interpolation-filters="sRGB">
<feFlood flood-opacity="0" result="BackgroundImageFix"/>
<feColorMatrix in="SourceAlpha" type="matrix" values="0 0 0 0 0 0 0 0 0 0 0 0 0 0 0 0 0 0 127 0" result="hardAlpha"/>
<feOffset dy="3.2211"/>
<feGaussianBlur stdDeviation="0.70024"/>
<feColorMatrix type="matrix" values="0 0 0 0 0 0 0 0 0 0 0 0 0 0 0 0 0 0 0.25 0"/>
<feBlend mode="normal" in2="BackgroundImageFix" result="effect1_dropShadow_918_14071"/>
<feBlend mode="normal" in="SourceGraphic" in2="effect1_dropShadow_918_14071" result="shape"/>
<feColorMatrix in="SourceAlpha" type="matrix" values="0 0 0 0 0 0 0 0 0 0 0 0 0 0 0 0 0 0 127 0" result="hardAlpha"/>
<feOffset dy="-2.913"/>
<feComposite in2="hardAlpha" operator="arithmetic" k2="-1" k3="1"/>
<feColorMatrix type="matrix" values="0 0 0 0 0 0 0 0 0 0.0766668 0 0 0 0 0.766667 0 0 0 0.38 0"/>
<feBlend mode="normal" in2="shape" result="effect2_innerShadow_918_14071"/>
</filter>
<filter id="filter12_di_918_14071" x="494.967" y="74.7709" width="20.1131" height="21.9337" filterUnits="userSpaceOnUse" color-interpolation-filters="sRGB">
<feFlood flood-opacity="0" result="BackgroundImageFix"/>
<feColorMatrix in="SourceAlpha" type="matrix" values="0 0 0 0 0 0 0 0 0 0 0 0 0 0 0 0 0 0 127 0" result="hardAlpha"/>
<feOffset dy="3.2211"/>
<feGaussianBlur stdDeviation="0.70024"/>
<feColorMatrix type="matrix" values="0 0 0 0 0 0 0 0 0 0 0 0 0 0 0 0 0 0 0.25 0"/>
<feBlend mode="normal" in2="BackgroundImageFix" result="effect1_dropShadow_918_14071"/>
<feBlend mode="normal" in="SourceGraphic" in2="effect1_dropShadow_918_14071" result="shape"/>
<feColorMatrix in="SourceAlpha" type="matrix" values="0 0 0 0 0 0 0 0 0 0 0 0 0 0 0 0 0 0 127 0" result="hardAlpha"/>
<feOffset dy="-2.913"/>
<feComposite in2="hardAlpha" operator="arithmetic" k2="-1" k3="1"/>
<feColorMatrix type="matrix" values="0 0 0 0 0 0 0 0 0 0.0766668 0 0 0 0 0.766667 0 0 0 0.38 0"/>
<feBlend mode="normal" in2="shape" result="effect2_innerShadow_918_14071"/>
</filter>
<filter id="filter13_di_918_14071" x="480.887" y="147.639" width="20.1131" height="21.9337" filterUnits="userSpaceOnUse" color-interpolation-filters="sRGB">
<feFlood flood-opacity="0" result="BackgroundImageFix"/>
<feColorMatrix in="SourceAlpha" type="matrix" values="0 0 0 0 0 0 0 0 0 0 0 0 0 0 0 0 0 0 127 0" result="hardAlpha"/>
<feOffset dy="3.2211"/>
<feGaussianBlur stdDeviation="0.70024"/>
<feColorMatrix type="matrix" values="0 0 0 0 0 0 0 0 0 0 0 0 0 0 0 0 0 0 0.25 0"/>
<feBlend mode="normal" in2="BackgroundImageFix" result="effect1_dropShadow_918_14071"/>
<feBlend mode="normal" in="SourceGraphic" in2="effect1_dropShadow_918_14071" result="shape"/>
<feColorMatrix in="SourceAlpha" type="matrix" values="0 0 0 0 0 0 0 0 0 0 0 0 0 0 0 0 0 0 127 0" result="hardAlpha"/>
<feOffset dy="-2.913"/>
<feComposite in2="hardAlpha" operator="arithmetic" k2="-1" k3="1"/>
<feColorMatrix type="matrix" values="0 0 0 0 0 0 0 0 0 0.0766668 0 0 0 0 0.766667 0 0 0 0.38 0"/>
<feBlend mode="normal" in2="shape" result="effect2_innerShadow_918_14071"/>
</filter>
<filter id="filter14_di_918_14071" x="508.962" y="115.269" width="20.1131" height="21.9337" filterUnits="userSpaceOnUse" color-interpolation-filters="sRGB">
<feFlood flood-opacity="0" result="BackgroundImageFix"/>
<feColorMatrix in="SourceAlpha" type="matrix" values="0 0 0 0 0 0 0 0 0 0 0 0 0 0 0 0 0 0 127 0" result="hardAlpha"/>
<feOffset dy="3.2211"/>
<feGaussianBlur stdDeviation="0.70024"/>
<feColorMatrix type="matrix" values="0 0 0 0 0 0 0 0 0 0 0 0 0 0 0 0 0 0 0.25 0"/>
<feBlend mode="normal" in2="BackgroundImageFix" result="effect1_dropShadow_918_14071"/>
<feBlend mode="normal" in="SourceGraphic" in2="effect1_dropShadow_918_14071" result="shape"/>
<feColorMatrix in="SourceAlpha" type="matrix" values="0 0 0 0 0 0 0 0 0 0 0 0 0 0 0 0 0 0 127 0" result="hardAlpha"/>
<feOffset dy="-2.913"/>
<feComposite in2="hardAlpha" operator="arithmetic" k2="-1" k3="1"/>
<feColorMatrix type="matrix" values="0 0 0 0 0 0 0 0 0 0.0766668 0 0 0 0 0.766667 0 0 0 0.38 0"/>
<feBlend mode="normal" in2="shape" result="effect2_innerShadow_918_14071"/>
</filter>
<filter id="filter15_di_918_14071" x="522.958" y="155.768" width="20.1131" height="21.9337" filterUnits="userSpaceOnUse" color-interpolation-filters="sRGB">
<feFlood flood-opacity="0" result="BackgroundImageFix"/>
<feColorMatrix in="SourceAlpha" type="matrix" values="0 0 0 0 0 0 0 0 0 0 0 0 0 0 0 0 0 0 127 0" result="hardAlpha"/>
<feOffset dy="3.2211"/>
<feGaussianBlur stdDeviation="0.70024"/>
<feColorMatrix type="matrix" values="0 0 0 0 0 0 0 0 0 0 0 0 0 0 0 0 0 0 0.25 0"/>
<feBlend mode="normal" in2="BackgroundImageFix" result="effect1_dropShadow_918_14071"/>
<feBlend mode="normal" in="SourceGraphic" in2="effect1_dropShadow_918_14071" result="shape"/>
<feColorMatrix in="SourceAlpha" type="matrix" values="0 0 0 0 0 0 0 0 0 0 0 0 0 0 0 0 0 0 127 0" result="hardAlpha"/>
<feOffset dy="-2.913"/>
<feComposite in2="hardAlpha" operator="arithmetic" k2="-1" k3="1"/>
<feColorMatrix type="matrix" values="0 0 0 0 0 0 0 0 0 0.0766668 0 0 0 0 0.766667 0 0 0 0.38 0"/>
<feBlend mode="normal" in2="shape" result="effect2_innerShadow_918_14071"/>
</filter>
<filter id="filter16_di_918_14071" x="404.754" y="168.81" width="29.1009" height="33.6223" filterUnits="userSpaceOnUse" color-interpolation-filters="sRGB">
<feFlood flood-opacity="0" result="BackgroundImageFix"/>
<feColorMatrix in="SourceAlpha" type="matrix" values="0 0 0 0 0 0 0 0 0 0 0 0 0 0 0 0 0 0 127 0" result="hardAlpha"/>
<feOffset dy="6.02844"/>
<feGaussianBlur stdDeviation="0.753554"/>
<feColorMatrix type="matrix" values="0 0 0 0 0 0 0 0 0 0 0 0 0 0 0 0 0 0 0.25 0"/>
<feBlend mode="normal" in2="BackgroundImageFix" result="effect1_dropShadow_918_14071"/>
<feBlend mode="normal" in="SourceGraphic" in2="effect1_dropShadow_918_14071" result="shape"/>
<feColorMatrix in="SourceAlpha" type="matrix" values="0 0 0 0 0 0 0 0 0 0 0 0 0 0 0 0 0 0 127 0" result="hardAlpha"/>
<feOffset dy="-4.73362"/>
<feComposite in2="hardAlpha" operator="arithmetic" k2="-1" k3="1"/>
<feColorMatrix type="matrix" values="0 0 0 0 0.625 0 0 0 0 0.015625 0 0 0 0 0.015625 0 0 0 0.43 0"/>
<feBlend mode="normal" in2="shape" result="effect2_innerShadow_918_14071"/>
</filter>
<linearGradient id="paint0_linear_918_14071" x1="1022" y1="473" x2="546" y2="-153.5" gradientUnits="userSpaceOnUse">
<stop stop-color="#2D53FE"/>
<stop offset="1" stop-color="#2D53FE" stop-opacity="0"/>
</linearGradient>
<linearGradient id="paint1_linear_918_14071" x1="105.822" y1="271.034" x2="236.385" y2="-158.244" gradientUnits="userSpaceOnUse">
<stop stop-color="#223CDA"/>
<stop offset="1" stop-color="#1EA1E4"/>
</linearGradient>
<radialGradient id="paint2_radial_918_14071" cx="0" cy="0" r="1" gradientUnits="userSpaceOnUse" gradientTransform="translate(-7 31.5) rotate(71.4463) scale(204.304 278.505)">
<stop stop-color="#EB00FF"/>
<stop offset="1" stop-color="#2376B4" stop-opacity="0"/>
</radialGradient>
<radialGradient id="paint3_radial_918_14071" cx="0" cy="0" r="1" gradientUnits="userSpaceOnUse" gradientTransform="translate(612 84) rotate(71.4517) scale(334.465 455.827)">
<stop stop-color="#ADFF00"/>
<stop offset="1" stop-color="#2376B4" stop-opacity="0"/>
</radialGradient>
<linearGradient id="paint4_linear_918_14071" x1="499.184" y1="5.07883" x2="459.157" y2="212.232" gradientUnits="userSpaceOnUse">
<stop stop-color="#601AC2"/>
<stop offset="1" stop-color="#A9427A"/>
</linearGradient>
<linearGradient id="paint5_linear_918_14071" x1="470.115" y1="38.0248" x2="441.695" y2="185.107" gradientUnits="userSpaceOnUse">
<stop stop-color="#FF597E"/>
<stop offset="1" stop-color="#FFD600" stop-opacity="0.26"/>
</linearGradient>
<linearGradient id="paint6_linear_918_14071" x1="347.704" y1="176.007" x2="295.906" y2="111.923" gradientUnits="userSpaceOnUse">
<stop stop-color="#272544"/>
<stop offset="1" stop-color="#4C547E"/>
</linearGradient>
<linearGradient id="paint7_linear_918_14071" x1="316.931" y1="126.063" x2="334.089" y2="169.516" gradientUnits="userSpaceOnUse">
<stop stop-color="#EADDA9"/>
<stop offset="1" stop-color="#E3D7A5" stop-opacity="0.13"/>
</linearGradient>
<clipPath id="clip0_918_14071">
<rect width="638" height="250" rx="19" fill="white"/>
</clipPath>
<clipPath id="clip1_918_14071">
<rect width="638" height="250" rx="16.6113" fill="white"/>
</clipPath>
<clipPath id="clip2_918_14071">
<rect width="36.2123" height="44.2595" fill="white" transform="translate(308.917 120.519) rotate(19.8588)"/>
</clipPath>
<clipPath id="clip3_918_14071">
<rect width="85.8249" height="73.8279" fill="white" transform="translate(320.283 144.635) rotate(10.9362)"/>
</clipPath>
</defs>
</svg>
