<svg width="93" height="92" viewBox="0 0 93 92" fill="none" xmlns="http://www.w3.org/2000/svg">
<g filter="url(#filter0_d_844_19655)">
<rect x="11.324" y="11" width="70" height="70" rx="12" fill="url(#paint0_linear_844_19655)"/>
<mask id="mask0_844_19655" style="mask-type:alpha" maskUnits="userSpaceOnUse" x="22" y="21" width="48" height="49">
<path d="M22.3142 41.1956L30.0073 70.0001H61.9949L69.7021 41.0982C69.8907 40.3906 69.8141 39.6385 69.4866 38.9836L62.8241 25.6584C62.3159 24.6421 61.2771 24.0001 60.1408 24.0001H59.5V21.25H31.75V23.875C30.6876 23.9522 29.7523 24.5928 29.2955 25.5552C27.9143 28.4652 24.8637 34.8103 22.6003 38.9219C22.218 39.6162 22.1097 40.4298 22.3142 41.1956Z" fill="#FF2455"/>
</mask>
<g mask="url(#mask0_844_19655)">
<path d="M21.9949 40L29.71 68.8871C29.8853 69.5434 30.4798 70 31.1592 70H60.8425C61.522 70 62.1167 69.5431 62.2918 68.8865L69.9949 40L61.9949 24H30.0293C30.0293 24 24.9827 34.7988 21.9949 40Z" fill="#FF2455"/>
<path opacity="0.45" d="M40.995 70L38.995 40L37.995 70H40.995Z" fill="black"/>
<path opacity="0.45" d="M50.9951 70L52.9951 40L53.9951 70H50.9951Z" fill="black"/>
<path opacity="0.45" d="M40.9952 70L40.0698 40L39.6071 70H40.9952Z" fill="black"/>
<path opacity="0.45" d="M50.9953 70L51.9207 40L52.3834 70H50.9953Z" fill="black"/>
<g opacity="0.8">
<path d="M21.9949 40L29.4274 67.9033L24.0394 41.2301C24.016 41.1093 24.1061 40.9963 24.229 40.9922L51.4949 40H21.9949Z" fill="white"/>
<path d="M70.0343 40L62.3469 68.6945L67.9898 41.23C68.0132 41.1093 67.9231 40.9963 67.8002 40.9921L40.5343 40H70.0343Z" fill="white"/>
</g>
<path d="M38.9951 40L40.9951 70H50.9951L52.9951 40L50.6499 24H41.3534C41.3534 24 39.8641 34.7988 38.9951 40Z" fill="#FFC224"/>
<path d="M30.0293 24C30.0293 24 24.9827 34.7988 21.9949 40H69.9949L61.9949 24H30.0293Z" fill="#FF577D"/>
<path d="M41.3534 24C41.3534 24 39.8641 34.8236 38.9951 40H52.9951L50.6499 24H41.3534Z" fill="#FFE091"/>
<path d="M39.995 34H25.495H25.163L28.1306 28H63.995L66.995 34H39.995Z" fill="#FFE090"/>
<path opacity="0.4" d="M30.0257 24L61.9951 24L65.1044 30.2305C65.1044 30.2305 55.495 32 45.995 32C36.495 32 27.0424 30.2465 27.0424 30.2465L30.0257 24Z" fill="black"/>
<path d="M45.9806 32C46.1698 28.4227 44.5722 20.2352 37.1258 22.3412C23.8447 26.0973 34.6289 32 45.9806 32Z" fill="#FFC224"/>
<path d="M37.9952 31.0329C30.7591 29.2032 27.1399 25.1654 37.1258 22.3412C41.1002 21.2172 43.4085 23.0254 44.6682 25.5C40.8142 20.5413 34.2997 23 32.4951 25.5C30.6906 28 37.9952 31.0329 37.9952 31.0329Z" fill="#FFE9AF"/>
<path d="M44.9863 31C45.0986 28.4817 44.1691 23.4455 39.5882 24.0499C35.1416 24.6366 36.0854 31 44.9863 31Z" fill="#3F2D01"/>
<path d="M46.0096 32C45.8204 28.4227 47.4181 20.2352 54.8645 22.3412C68.1455 26.0973 57.3613 32 46.0096 32Z" fill="#FFC224"/>
<path d="M47.0039 31C46.8917 28.4817 47.8211 23.4455 52.402 24.0499C56.8487 24.6366 55.9048 31 47.0039 31Z" fill="#3F2D01"/>
<path opacity="0.3" d="M38.9951 40C39.3285 38.1667 39.9209 33.9805 39.9209 33.9805L43.7935 37.5232L52.9951 40H38.9951Z" fill="white" fill-opacity="0.88"/>
<path opacity="0.3" d="M25.1747 33.9989L27.0567 30.2285L28.4453 32.1949L39.9996 33.9989H25.1747Z" fill="white" fill-opacity="0.88"/>
<path opacity="0.3" d="M40.3289 60.0748L38.9208 39.9805H52.8884L44.8715 44.814L43.4925 53.5364L40.3289 60.0748Z" fill="white" fill-opacity="0.88"/>
<path d="M39.9248 34L25.1902 33.968L38.5756 34.8916L39.0049 40.0039L39.9248 34Z" fill="black" fill-opacity="0.5"/>
<path d="M52.1028 34L66.8374 33.968L53.452 34.8916L53.0227 40.0039L52.1028 34Z" fill="black" fill-opacity="0.5"/>
<path d="M33.7763 35.0139L31.1578 40.297L35.5092 44.2761L30.2261 41.6576L26.247 46.009L28.8655 40.7259L24.5141 36.7468L29.7972 39.3653L33.7763 35.0139Z" fill="white" fill-opacity="0.84"/>
<path opacity="0.2" d="M32.6663 42.3293C31.6623 43.7954 29.6599 44.1701 28.1938 43.1661C26.7277 42.1621 26.3531 40.1597 27.3571 38.6937C28.3611 37.2276 30.3634 36.8529 31.8295 37.8569C33.2956 38.8609 33.6702 40.8633 32.6663 42.3293Z" fill="white"/>
</g>
</g>
<defs>
<filter id="filter0_d_844_19655" x="0.323975" y="0" width="92" height="92" filterUnits="userSpaceOnUse" color-interpolation-filters="sRGB">
<feFlood flood-opacity="0" result="BackgroundImageFix"/>
<feColorMatrix in="SourceAlpha" type="matrix" values="0 0 0 0 0 0 0 0 0 0 0 0 0 0 0 0 0 0 127 0" result="hardAlpha"/>
<feOffset/>
<feGaussianBlur stdDeviation="5.5"/>
<feComposite in2="hardAlpha" operator="out"/>
<feColorMatrix type="matrix" values="0 0 0 0 0 0 0 0 0 0 0 0 0 0 0 0 0 0 0.5 0"/>
<feBlend mode="normal" in2="BackgroundImageFix" result="effect1_dropShadow_844_19655"/>
<feBlend mode="normal" in="SourceGraphic" in2="effect1_dropShadow_844_19655" result="shape"/>
</filter>
<linearGradient id="paint0_linear_844_19655" x1="28.2746" y1="81" x2="57.4777" y2="5.42788" gradientUnits="userSpaceOnUse">
<stop stop-color="#FF2455"/>
<stop offset="1" stop-color="#5200FF"/>
</linearGradient>
</defs>
</svg>
