<svg width="48" height="48" viewBox="0 0 48 48" fill="none" xmlns="http://www.w3.org/2000/svg">
<mask id="mask0_3492_125655" style="mask-type:alpha" maskUnits="userSpaceOnUse" x="0" y="-1" width="48" height="49">
<path d="M0.314062 19.1956L8.00713 48.0001H39.9948L47.7019 19.0982C47.8906 18.3906 47.814 17.6385 47.4865 16.9836L40.8239 3.65842C40.3158 2.64207 39.277 2.00006 38.1407 2.00006H37.4999V-0.75H9.7499V1.875C8.68745 1.95222 7.75218 2.59283 7.29541 3.55518C5.91417 6.46524 2.8636 12.8103 0.600142 16.9219C0.217927 17.6162 0.109556 18.4298 0.314062 19.1956Z" fill="#FF2455"/>
</mask>
<g mask="url(#mask0_3492_125655)">
<path d="M-0.00537109 18.0001L7.70975 46.8871C7.88505 47.5435 8.47959 48.0001 9.15895 48.0001H38.8422C39.5218 48.0001 40.1165 47.5432 40.2916 46.8866L47.9946 18.0001L39.9946 2.00006H8.02909C8.02909 2.00006 2.9825 12.7989 -0.00537109 18.0001Z" fill="#FF2455"/>
<path opacity="0.45" d="M18.9946 48L16.9946 18L15.9946 48H18.9946Z" fill="black"/>
<path opacity="0.45" d="M28.9951 48L30.9951 18L31.9951 48H28.9951Z" fill="black"/>
<path opacity="0.45" d="M18.9951 48L18.0696 18L17.6069 48H18.9951Z" fill="black"/>
<path opacity="0.45" d="M28.9952 48L29.9206 18L30.3833 48H28.9952Z" fill="black"/>
<g opacity="0.8">
<path d="M-0.00537109 18L7.42719 45.9033L2.03915 19.2301C2.01578 19.1093 2.10588 18.9963 2.22879 18.9922L29.4946 18H-0.00537109Z" fill="white"/>
<path d="M48.0341 18L40.3467 46.6945L45.9896 19.23C46.0129 19.1093 45.9228 18.9963 45.7999 18.9921L18.5341 18H48.0341Z" fill="white"/>
</g>
<path d="M16.9951 18.0001L18.9951 48.0001H28.9951L30.9951 18.0001L28.6499 2.00006H19.3534C19.3534 2.00006 17.8641 12.7989 16.9951 18.0001Z" fill="#FFC224"/>
<path d="M8.02909 2.00006C8.02909 2.00006 2.9825 12.7989 -0.00537109 18.0001H47.9946L39.9946 2.00006H8.02909Z" fill="#FF577D"/>
<path d="M19.3534 2.00006C19.3534 2.00006 17.8641 12.8237 16.9951 18.0001H30.9951L28.6499 2.00006H19.3534Z" fill="#FFE091"/>
<path d="M17.9946 12H3.49463H3.1626L6.13028 6H41.9946L44.9946 12H17.9946Z" fill="#FFE090"/>
<path opacity="0.4" d="M8.02536 2.00006L39.9947 2.00006L43.104 8.23053C43.104 8.23053 33.4946 10.0001 23.9946 10.0001C14.4946 10.0001 5.04199 8.24661 5.04199 8.24661L8.02536 2.00006Z" fill="black"/>
<path d="M23.9806 10C24.1698 6.42266 22.5722 -1.76478 15.1258 0.341202C1.84471 4.09734 12.6289 9.99997 23.9806 10Z" fill="#FFC224"/>
<path d="M15.995 9.0329C8.75891 7.20318 5.13961 3.16543 15.1256 0.341202C19.1 -0.782835 21.4083 1.02544 22.668 3.5C18.814 -1.45866 12.2994 1 10.4949 3.5C8.69031 6 15.995 9.0329 15.995 9.0329Z" fill="#FFE9AF"/>
<path d="M22.9864 9.00006C23.0987 6.48173 22.1692 1.44557 17.5883 2.04997C13.1417 2.63665 14.0856 9.00006 22.9864 9.00006Z" fill="#3F2D01"/>
<path d="M24.0096 10C23.8204 6.42266 25.4181 -1.76478 32.8645 0.341202C46.1455 4.09734 35.3613 9.99997 24.0096 10Z" fill="#FFC224"/>
<path d="M25.0038 9.00006C24.8915 6.48173 25.821 1.44557 30.4019 2.04997C34.8485 2.63665 33.9047 9.00006 25.0038 9.00006Z" fill="#3F2D01"/>
<path opacity="0.3" d="M16.9951 17.9999C17.3285 16.1666 17.9209 11.9804 17.9209 11.9804L21.7935 15.5231L30.9951 17.9999H16.9951Z" fill="white" fill-opacity="0.88"/>
<path opacity="0.3" d="M3.17432 11.9989L5.05634 8.22852L6.44491 10.1949L17.9993 11.9989H3.17432Z" fill="white" fill-opacity="0.88"/>
<path opacity="0.3" d="M18.3285 38.0747L16.9204 17.9804H30.888L22.8711 22.814L21.4922 31.5363L18.3285 38.0747Z" fill="white" fill-opacity="0.88"/>
<path d="M17.9246 11.9999L3.18994 11.968L16.5754 12.8916L17.0047 18.0038L17.9246 11.9999Z" fill="black" fill-opacity="0.5"/>
<path d="M30.1023 11.9999L44.8369 11.968L31.4515 12.8916L31.0222 18.0038L30.1023 11.9999Z" fill="black" fill-opacity="0.5"/>
<path d="M11.7758 13.0139L9.15732 18.297L13.5087 22.2761L8.22561 19.6576L4.24651 24.009L6.86504 18.7259L2.51365 14.7468L7.79675 17.3653L11.7758 13.0139Z" fill="white" fill-opacity="0.84"/>
<path opacity="0.2" d="M10.6661 20.3293C9.66217 21.7954 7.6598 22.1701 6.19371 21.1661C4.72762 20.1621 4.35299 18.1597 5.35696 16.6937C6.36093 15.2276 8.3633 14.8529 9.82939 15.8569C11.2955 16.8609 11.6701 18.8633 10.6661 20.3293Z" fill="white"/>
</g>
</svg>
