<svg width="1045" height="1688" viewBox="0 0 1045 1688" fill="none" xmlns="http://www.w3.org/2000/svg">
<g clip-path="url(#clip0_917_3779)">
<path d="M766.02 1003.82C759.896 893.582 615.358 915.63 601.884 915.63C525.125 922.571 360.091 941.108 314.035 959.726C267.979 978.344 316.893 1027.91 347.107 1050.37L601.884 1003.82C658.638 1040.57 770.92 1092.01 766.02 1003.82Z" fill="#F3E8FF"/>
<path d="M207.137 1107.55L434.202 999.124L626.921 988.98L870.355 1129.29L650.588 1578.97H324.319L207.137 1107.55Z" fill="#7854AE"/>
<path d="M362.997 1120.79L382.97 1038.23L508.139 986.967L689.234 990.296C687.015 1008.27 682.31 1044.89 681.245 1047.55C680.18 1050.22 655.501 1106.37 643.295 1134.11L530.11 1173.39L362.997 1120.79Z" fill="black" fill-opacity="0.23"/>
<path d="M496.987 1555.4C417.389 1561.01 362.197 1542.43 344.55 1532.44V1509.48C375.165 1514.37 448.514 1524.15 496.987 1524.15C545.461 1524.15 619.66 1504.16 650.7 1494.17L666.645 1518.41C643.259 1528.4 576.586 1549.79 496.987 1555.4Z" fill="#1F0202"/>
<path d="M617.225 1094.65L605.232 1028.03C604.423 1023.54 600.51 1020.26 595.941 1020.26H450.94C445.426 1020.26 441.086 1024.97 441.53 1030.46L450.684 1143.71C451.08 1148.61 455.175 1152.39 460.093 1152.39H555.665C557.982 1152.39 560.219 1151.53 561.948 1149.99L614.217 1103.37C616.667 1101.19 617.806 1097.89 617.225 1094.65Z" fill="#BC896E"/>
<path fill-rule="evenodd" clip-rule="evenodd" d="M422.849 1444.34C430.281 1465.33 440.699 1485.14 453.781 1503.17C455.897 1505.81 458.204 1508.29 460.684 1510.58L465.633 1507.33L534.336 1461.82C534.336 1461.82 512.52 1316.39 514.799 1202.36C528.216 1198.79 540.599 1192.11 550.941 1182.86C553.542 1180.37 555.739 1177.5 557.454 1174.34C558.681 1164.06 557.885 1153.63 555.109 1143.65C554.326 1141.48 552.923 1139.58 551.072 1138.19C551.072 1138.19 497.738 1131.69 475.922 1133.45C470.033 1140.79 467.086 1150.06 467.652 1159.45C470.856 1168.04 474.891 1176.29 479.699 1184.09C482.844 1189.31 486.439 1194.25 490.444 1198.85L489.533 1201.26C489.533 1202.1 488.816 1203.14 488.426 1204.38C488.035 1205.61 486.993 1208.02 486.211 1210.29L485.56 1212.11L483.672 1217.44L482.89 1219.59C475.662 1239.87 464.201 1273.35 453 1311.91C440.935 1352.32 431.387 1393.45 424.412 1435.04C423.695 1437.83 423.24 1440.89 422.849 1444.34Z" fill="url(#paint0_linear_917_3779)"/>
<path style="mix-blend-mode:multiply" opacity="0.5" d="M467.461 1159C470.665 1167.59 474.7 1175.84 479.508 1183.64C479.508 1183.64 484.588 1151.14 499.956 1142.49C516.759 1138.87 534.143 1138.87 550.946 1142.49C552.233 1142.81 553.537 1143.05 554.853 1143.21C554.07 1141.03 552.667 1139.13 550.815 1137.75C550.815 1137.75 497.481 1131.24 475.666 1133C469.8 1140.36 466.876 1149.62 467.461 1159Z" fill="url(#paint1_linear_917_3779)"/>
<path style="mix-blend-mode:multiply" opacity="0.5" d="M423.144 1445.2C423.144 1445.2 430.868 1468.37 436.017 1476.09C441.166 1483.81 459.189 1512.14 459.189 1512.14L465.638 1507.02L534.34 1461.51C534.34 1461.51 512.525 1316.07 514.804 1202.04C528.22 1198.47 540.603 1191.79 550.946 1182.54C550.946 1182.54 515.325 1198.92 490.253 1198.53L489.342 1200.94L488.235 1204.06L486.02 1209.97L485.369 1211.79L483.481 1217.13L482.699 1219.27L507.641 1250.74C507.641 1250.74 515.39 1389.93 502.366 1440.44C490.432 1447.93 476.411 1451.42 462.353 1450.39C448.294 1449.36 434.933 1443.87 424.221 1434.72L423.144 1445.2Z" fill="url(#paint2_linear_917_3779)"/>
<path d="M505.372 1129.64L535.249 1141.58L557.923 1248.47C619.081 1209.16 665.53 1119.98 665.53 1119.98L622.487 1052.45L610.189 1052.45L608.228 1063.25C578.498 1103.11 505.372 1129.64 505.372 1129.64Z" fill="#ECE6AE"/>
<path d="M400.661 1134.65C400.661 1134.65 396.725 1203.92 416.879 1232.55C416.879 1232.55 460.718 1153.48 471.451 1141.49L501.046 1129.24L481.059 1119.11C481.059 1119.11 456.567 1102.54 446.374 1082.81L429.561 1101.36L400.661 1134.65Z" fill="#ECE6AE"/>
<path d="M947.093 1431.71L861.655 1239.76C835.025 1239.76 814.313 1288.58 807.286 1312.99L888.285 1463.89L947.093 1431.71Z" fill="#BBAAD3"/>
<path d="M158.308 1402.92L243.746 1210.97C270.375 1210.97 291.088 1259.79 298.115 1284.2L217.116 1435.1L158.308 1402.92Z" fill="#BBAAD3"/>
<path opacity="0.24" d="M219.731 1292.3L213.613 1217.11C290.6 1186.47 436.315 1113.9 444.799 1107.3C453.283 1100.7 448.334 1110.05 444.799 1115.55L219.731 1292.3Z" fill="#E4E4F1"/>
<path d="M320.625 1886.71C324.491 1793.9 329.197 1552.69 329.197 1537.15C443.836 1556.01 564.28 1567.62 686.812 1507.91L733.206 1886.71H577.453C568.174 1886.71 541.211 1829.27 524.641 1729.99L486.32 1886.71H320.625Z" fill="#4A0E0C"/>
<path d="M973.877 1554.47C1130.48 1266.48 768.265 978.498 760.302 975.844C716.506 1034.68 626.523 1153.69 616.967 1158.99C607.412 1164.3 612.986 1389.48 616.967 1501.41C630.681 1538.12 848.592 1784.87 973.877 1554.47Z" fill="url(#paint3_linear_917_3779)"/>
<path opacity="0.5" d="M906.747 1458.78C853.346 1542.37 746.155 1519.73 699.236 1497.97C660.055 1508.12 707.942 1599.54 809.522 1608.25C911.101 1616.96 953.184 1519.73 964.793 1497.97C976.402 1476.2 973.5 1354.3 906.747 1458.78Z" fill="#BE1144"/>
<path d="M76.7391 1520.38C-79.868 1232.38 216.338 1014.88 312.763 953.164C356.559 1012 375.278 964.275 384.833 969.583C394.389 974.892 285.86 1078.19 408.349 1520.38C394.635 1557.1 202.025 1750.77 76.7391 1520.38Z" fill="url(#paint4_linear_917_3779)"/>
<path d="M662.09 1196.34C687.307 1103.44 720.527 995.928 785.828 995.928C785.828 995.928 837.551 931.558 745.672 916.061C653.793 900.563 678.016 973.377 678.016 973.377C652.358 1049.47 614.312 1088.84 601.04 1196.34C587.769 1303.84 597.501 1374.63 601.04 1441.87L618.294 1567.95L626.679 1553.11C626.679 1553.11 636.873 1289.24 662.09 1196.34Z" fill="#F3E8FF"/>
<path d="M358.015 1269.16C351.87 1143.2 393.07 1007.54 393.07 1007.54C393.07 1007.54 372.468 967.134 339.58 958.854C306.692 950.574 275.931 976.854 253.553 1026.45C203.624 1137.1 228.975 1241.51 271.988 1361.34C315.001 1481.16 358.015 1583.16 358.015 1583.16C358.015 1583.16 368.415 1619.92 393.07 1623.86C417.725 1627.79 446.604 1610.73 446.604 1610.73C446.604 1610.73 364.16 1395.13 358.015 1269.16Z" fill="#F3E8FF"/>
<path d="M609.374 1039.41C613.656 1037.57 618.619 1039.55 620.46 1043.83L636.793 1081.81C638.634 1086.09 636.656 1091.06 632.374 1092.9C628.093 1094.74 623.129 1092.76 621.288 1088.48L604.955 1050.5C603.114 1046.22 605.093 1041.25 609.374 1039.41Z" fill="url(#paint5_linear_917_3779)"/>
<path d="M622.225 1023.39C626.554 1025.11 628.665 1030.02 626.939 1034.35L620.461 1050.61C618.735 1054.93 613.827 1057.05 609.498 1055.32C605.168 1053.59 603.057 1048.69 604.783 1044.36L611.261 1028.1C612.987 1023.77 617.895 1021.66 622.225 1023.39Z" fill="url(#paint6_linear_917_3779)"/>
<path d="M676.669 1045.09C680.998 1046.81 683.109 1051.72 681.383 1056.05L674.905 1072.3C673.18 1076.63 668.271 1078.74 663.942 1077.02C659.612 1075.29 657.502 1070.38 659.227 1066.06L665.705 1049.8C667.431 1045.47 672.339 1043.36 676.669 1045.09Z" fill="url(#paint7_linear_917_3779)"/>
<path d="M674.774 1065.48C672.933 1061.2 667.97 1059.22 663.688 1061.06L625.707 1077.39C621.425 1079.23 619.447 1084.2 621.288 1088.48C623.129 1092.76 628.093 1094.74 632.374 1092.9L670.356 1076.57C674.637 1074.72 676.615 1069.76 674.774 1065.48Z" fill="url(#paint8_linear_917_3779)"/>
<path d="M676.818 1058.37C681.114 1056.57 683.132 1051.62 681.324 1047.32L665.293 1009.21C663.485 1004.92 658.538 1002.9 654.242 1004.71C649.946 1006.51 647.928 1011.46 649.736 1015.76L665.767 1053.87C667.575 1058.16 672.522 1060.18 676.818 1058.37Z" fill="url(#paint9_linear_917_3779)"/>
<path d="M651.682 1113.93C647.073 1114.62 642.776 1111.45 642.086 1106.84L635.962 1065.95C635.272 1061.34 638.448 1057.04 643.058 1056.35C647.667 1055.66 651.963 1058.84 652.653 1063.45L658.778 1104.34C659.468 1108.95 656.291 1113.24 651.682 1113.93Z" fill="#FFBC0E"/>
<path d="M607.381 1065.53C611.129 1068.3 611.92 1073.58 609.149 1077.33L598.747 1091.4C595.976 1095.15 590.691 1095.94 586.944 1093.17C583.197 1090.39 582.405 1085.11 585.176 1081.36L595.579 1067.3C598.35 1063.55 603.634 1062.76 607.381 1065.53Z" fill="#FFBC0E"/>
<path d="M654.507 1100.38C658.254 1103.15 659.046 1108.43 656.275 1112.18L645.872 1126.25C643.101 1129.99 637.817 1130.78 634.069 1128.01C630.322 1125.24 629.531 1119.96 632.302 1116.21L642.704 1102.14C645.475 1098.4 650.76 1097.6 654.507 1100.38Z" fill="#FFBC0E"/>
<path d="M595.074 1072.07C595.765 1076.68 600.061 1079.86 604.67 1079.17L645.558 1073.04C650.167 1072.35 653.344 1068.06 652.654 1063.45C651.964 1058.84 647.667 1055.66 643.058 1056.35L602.17 1062.48C597.561 1063.17 594.384 1067.46 595.074 1072.07Z" fill="#FFBC0E"/>
<path d="M559.733 1195.37C555.138 1194.6 552.041 1190.24 552.817 1185.65L559.701 1144.88C560.477 1140.29 564.831 1137.19 569.427 1137.96C574.023 1138.74 577.119 1143.1 576.343 1147.69L569.459 1188.46C568.683 1193.05 564.329 1196.15 559.733 1195.37Z" fill="#FFBC0E"/>
<path d="M556.762 1111.1C561.357 1111.87 564.454 1116.23 563.678 1120.82L556.794 1161.59C556.018 1166.19 551.663 1169.28 547.068 1168.51C542.472 1167.73 539.376 1163.38 540.152 1158.78L547.036 1118.01C547.812 1113.42 552.166 1110.32 556.762 1111.1Z" fill="url(#paint10_linear_917_3779)"/>
<path d="M576.249 1104.61C578.95 1108.41 578.06 1113.68 574.262 1116.38L560.003 1126.52C556.205 1129.22 550.936 1128.33 548.235 1124.53C545.535 1120.73 546.424 1115.46 550.222 1112.76L564.481 1102.62C568.279 1099.92 573.548 1100.81 576.249 1104.61Z" fill="url(#paint11_linear_917_3779)"/>
<path d="M532.718 1135.67C535.398 1139.44 534.545 1144.67 530.804 1147.39L508.719 1163.45C504.922 1166.21 499.6 1165.34 496.879 1161.51C494.199 1157.74 495.052 1152.52 498.793 1149.8L520.878 1133.74C524.675 1130.98 529.997 1131.85 532.718 1135.67Z" fill="#FFBC0E"/>
<path d="M566.694 1183.45C569.37 1187.22 568.524 1192.43 564.795 1195.16L540.737 1212.73C536.94 1215.51 531.607 1214.64 528.882 1210.81C526.206 1207.05 527.052 1201.83 530.781 1199.11L554.839 1181.53C558.636 1178.76 563.968 1179.62 566.694 1183.45Z" fill="#FFBC0E"/>
<path d="M518.934 1138C518.158 1142.59 521.254 1146.95 525.85 1147.72L566.617 1154.61C571.213 1155.38 575.567 1152.29 576.343 1147.69C577.119 1143.1 574.023 1138.74 569.427 1137.97L528.66 1131.08C524.064 1130.31 519.71 1133.4 518.934 1138Z" fill="#FFBC0E"/>
<path d="M597.561 1168.48C598.337 1163.88 595.24 1159.53 590.645 1158.75L549.878 1151.87C545.282 1151.09 540.928 1154.19 540.152 1158.78C539.376 1163.38 542.472 1167.73 547.068 1168.51L587.835 1175.39C592.43 1176.17 596.785 1173.07 597.561 1168.48Z" fill="url(#paint12_linear_917_3779)"/>
<path d="M606.322 1162.24C601.726 1161.47 598.63 1157.11 599.406 1152.52L606.289 1111.75C607.065 1107.16 611.42 1104.06 616.015 1104.84C620.611 1105.61 623.707 1109.97 622.931 1114.56L616.048 1155.33C615.272 1159.92 610.917 1163.02 606.322 1162.24Z" fill="#FFBC0E"/>
<path d="M586.249 1083.22C590.858 1082.53 595.154 1085.7 595.845 1090.31L601.969 1131.2C602.659 1135.81 599.482 1140.11 594.873 1140.8C590.264 1141.49 585.968 1138.31 585.278 1133.7L579.153 1092.81C578.463 1088.2 581.64 1083.91 586.249 1083.22Z" fill="url(#paint13_linear_917_3779)"/>
<path d="M602.755 1070.99C606.503 1073.77 607.294 1079.05 604.523 1082.8L594.121 1096.86C591.35 1100.61 586.065 1101.4 582.318 1098.63C578.571 1095.86 577.779 1090.58 580.55 1086.83L590.953 1072.76C593.724 1069.01 599.008 1068.22 602.755 1070.99Z" fill="url(#paint14_linear_917_3779)"/>
<path d="M579.254 1102.47C581.955 1106.27 581.066 1111.54 577.267 1114.24L563.009 1124.38C559.21 1127.08 553.942 1126.19 551.241 1122.39C548.54 1118.59 549.43 1113.32 553.228 1110.62L567.487 1100.48C571.285 1097.78 576.553 1098.67 579.254 1102.47Z" fill="#FFBC0E"/>
<path d="M649.881 1105.84C653.628 1108.61 654.42 1113.9 651.649 1117.64L641.246 1131.71C638.475 1135.46 633.191 1136.25 629.443 1133.48C625.696 1130.71 624.905 1125.42 627.676 1121.68L638.078 1107.61C640.849 1103.86 646.134 1103.07 649.881 1105.84Z" fill="url(#paint15_linear_917_3779)"/>
<path d="M613.22 1150.24C615.921 1154.03 615.031 1159.3 611.233 1162L596.974 1172.14C593.176 1174.84 587.907 1173.95 585.206 1170.16C582.505 1166.36 583.395 1161.09 587.193 1158.39L601.452 1148.25C605.25 1145.55 610.519 1146.44 613.22 1150.24Z" fill="#FFBC0E"/>
<path d="M565.523 1104.87C564.747 1109.46 567.843 1113.82 572.439 1114.59L613.206 1121.48C617.801 1122.25 622.156 1119.16 622.932 1114.56C623.708 1109.97 620.612 1105.61 616.016 1104.84L575.249 1097.95C570.653 1097.18 566.299 1100.27 565.523 1104.87Z" fill="#FFBC0E"/>
<path d="M642.857 1125.08C642.167 1120.47 637.871 1117.29 633.261 1117.98L592.373 1124.11C587.764 1124.8 584.587 1129.09 585.278 1133.7C585.968 1138.31 590.264 1141.49 594.873 1140.8L635.761 1134.67C640.371 1133.98 643.547 1129.69 642.857 1125.08Z" fill="url(#paint16_linear_917_3779)"/>
<path opacity="0.1" d="M786.99 996.817C721.84 992.545 696.741 1045.41 628.366 1087.9C594.368 1098.16 541.581 1117.59 500.372 1117.59C448.177 1117.59 413.732 1094.86 375.349 1079.36C363.809 1074.7 367.732 1017.48 262.904 1010.24C262.904 1010.24 299.135 890.917 514.015 865.633C580.618 865.633 652.137 875.073 693.734 898.986C710.812 908.803 726.355 899.21 744.269 915.647C768.833 921.521 825.973 931.667 786.99 996.817Z" fill="#1F0101"/>
<path d="M414.269 1043.47C410.201 1041.2 405.06 1042.65 402.787 1046.72L394.255 1062C391.982 1066.06 393.438 1071.21 397.507 1073.48C401.576 1075.75 406.717 1074.29 408.99 1070.23L417.522 1054.95C419.794 1050.88 418.338 1045.74 414.269 1043.47Z" fill="url(#paint17_linear_917_3779)"/>
<path d="M374.255 1108.18C378.258 1110.56 383.438 1109.25 385.824 1105.25L406.988 1069.73C409.374 1065.73 408.062 1060.55 404.059 1058.16C400.055 1055.78 394.875 1057.09 392.489 1061.09L371.325 1096.61C368.939 1100.61 370.251 1105.79 374.255 1108.18Z" fill="#FFBC0E"/>
<path d="M442.64 1090.94C440.254 1094.94 435.075 1096.25 431.071 1093.87L395.555 1072.7C391.551 1070.32 390.239 1065.14 392.625 1061.13C395.011 1057.13 400.191 1055.82 404.194 1058.2L439.711 1079.37C443.714 1081.75 445.026 1086.93 442.64 1090.94Z" fill="#FFBC0E"/>
<path d="M461.117 1195.38C465.712 1194.6 468.809 1190.25 468.033 1185.65L461.149 1144.88C460.373 1140.29 456.018 1137.19 451.423 1137.97C446.827 1138.74 443.731 1143.1 444.507 1147.69L451.391 1188.46C452.166 1193.06 456.521 1196.15 461.117 1195.38Z" fill="#FFBC0E"/>
<path d="M464.088 1111.1C459.493 1111.88 456.396 1116.23 457.172 1120.83L464.056 1161.6C464.832 1166.19 469.186 1169.29 473.782 1168.51C478.378 1167.74 481.474 1163.38 480.698 1158.79L473.814 1118.02C473.038 1113.42 468.684 1110.33 464.088 1111.1Z" fill="url(#paint18_linear_917_3779)"/>
<path d="M444.601 1104.61C441.9 1108.41 442.79 1113.68 446.588 1116.38L460.847 1126.52C464.645 1129.22 469.914 1128.33 472.614 1124.53C475.315 1120.73 474.426 1115.47 470.627 1112.76L456.369 1102.63C452.57 1099.92 447.302 1100.81 444.601 1104.61Z" fill="url(#paint19_linear_917_3779)"/>
<path d="M488.132 1135.68C485.451 1139.45 486.305 1144.67 490.046 1147.39L512.131 1163.45C515.928 1166.21 521.25 1165.34 523.971 1161.52C526.651 1157.75 525.797 1152.52 522.057 1149.8L499.972 1133.74C496.174 1130.98 490.853 1131.85 488.132 1135.68Z" fill="#FFBC0E"/>
<path d="M454.156 1183.46C451.48 1187.22 452.326 1192.44 456.055 1195.16L480.113 1212.74C483.91 1215.51 489.242 1214.65 491.968 1210.81C494.644 1207.05 493.798 1201.84 490.069 1199.11L466.011 1181.53C462.214 1178.76 456.881 1179.62 454.156 1183.46Z" fill="#FFBC0E"/>
<path d="M501.916 1138C502.692 1142.6 499.595 1146.95 495 1147.73L454.233 1154.61C449.637 1155.39 445.283 1152.29 444.507 1147.7C443.731 1143.1 446.827 1138.74 451.423 1137.97L492.19 1131.09C496.785 1130.31 501.14 1133.41 501.916 1138Z" fill="#FFBC0E"/>
<path d="M423.289 1168.48C422.513 1163.88 425.609 1159.53 430.205 1158.75L470.972 1151.87C475.568 1151.09 479.922 1154.19 480.698 1158.79C481.474 1163.38 478.378 1167.74 473.782 1168.51L433.015 1175.4C428.419 1176.17 424.065 1173.07 423.289 1168.48Z" fill="url(#paint20_linear_917_3779)"/>
<path d="M414.528 1162.25C419.124 1161.47 422.22 1157.12 421.444 1152.52L414.56 1111.76C413.785 1107.16 409.43 1104.06 404.834 1104.84C400.239 1105.62 397.142 1109.97 397.918 1114.57L404.802 1155.33C405.578 1159.93 409.933 1163.02 414.528 1162.25Z" fill="#FFBC0E"/>
<path d="M444.744 1099.02C440.741 1096.63 435.561 1097.94 433.175 1101.95L412.011 1137.46C409.625 1141.47 410.937 1146.65 414.94 1149.03C418.944 1151.42 424.124 1150.11 426.51 1146.1L447.674 1110.59C450.06 1106.58 448.748 1101.4 444.744 1099.02Z" fill="url(#paint21_linear_917_3779)"/>
<path d="M434.102 1081.45C429.584 1082.59 426.849 1087.18 427.993 1091.7L432.287 1108.66C433.431 1113.18 438.021 1115.92 442.54 1114.77C447.058 1113.63 449.793 1109.04 448.649 1104.52L444.354 1087.56C443.21 1083.04 438.62 1080.31 434.102 1081.45Z" fill="url(#paint22_linear_917_3779)"/>
<path d="M441.596 1102.48C438.895 1106.27 439.784 1111.54 443.583 1114.24L457.841 1124.38C461.64 1127.08 466.908 1126.19 469.609 1122.4C472.31 1118.6 471.42 1113.33 467.622 1110.63L453.363 1100.49C449.565 1097.79 444.296 1098.68 441.596 1102.48Z" fill="url(#paint23_linear_917_3779)"/>
<path d="M377.285 1095.84C372.767 1096.98 370.032 1101.57 371.176 1106.09L375.471 1123.05C376.615 1127.57 381.205 1130.3 385.723 1129.16C390.241 1128.01 392.976 1123.42 391.832 1118.91L387.537 1101.95C386.393 1097.43 381.803 1094.69 377.285 1095.84Z" fill="url(#paint24_linear_917_3779)"/>
<path d="M407.63 1150.24C404.929 1154.04 405.819 1159.31 409.617 1162.01L423.876 1172.15C427.674 1174.85 432.943 1173.96 435.644 1170.16C438.345 1166.36 437.455 1161.09 433.657 1158.39L419.398 1148.25C415.6 1145.55 410.331 1146.44 407.63 1150.24Z" fill="#FFBC0E"/>
<path d="M455.327 1104.87C456.103 1109.47 453.007 1113.82 448.411 1114.6L407.644 1121.48C403.048 1122.26 398.694 1119.16 397.918 1114.57C397.142 1109.97 400.238 1105.62 404.834 1104.84L445.601 1097.96C450.197 1097.18 454.551 1100.28 455.327 1104.87Z" fill="#FFBC0E"/>
<path d="M376.494 1116.3C378.88 1112.29 384.06 1110.98 388.064 1113.37L423.58 1134.53C427.584 1136.92 428.895 1142.1 426.51 1146.1C424.124 1150.11 418.944 1151.42 414.94 1149.03L379.424 1127.87C375.42 1125.48 374.109 1120.3 376.494 1116.3Z" fill="url(#paint25_linear_917_3779)"/>
<path d="M184.542 605.716C145.318 556.87 191.018 471.884 218.771 435.497L355.687 382.766L302.031 682.5H218.771C223.705 677.257 223.767 654.561 184.542 605.716Z" fill="#23140D"/>
<path d="M783.983 740.448C781.764 951.267 662.753 1052.9 515.678 1061.35C368.603 1069.8 230.17 974.871 219.827 834.448C219.827 834.448 211.409 607.79 215.079 520.231C220.653 278.371 592.233 368.023 777.326 443.081C780.284 471.93 785.758 571.792 783.983 740.448Z" fill="url(#paint26_linear_917_3779)"/>
<path d="M438.5 632.845C425.122 632.845 412.458 636.129 407.798 637.772L409.932 625.18C415.622 623.322 429.303 619.605 438.5 619.605C449.997 619.605 474.037 623.089 470.205 625.18C467.139 626.852 468.927 635.632 470.205 639.813C465.211 637.49 451.879 632.845 438.5 632.845Z" fill="#FBDD02"/>
<path d="M658.301 747.149C658.704 759.927 633.62 771.087 602.274 772.076C570.927 773.065 545.19 763.508 544.786 750.73C544.383 737.952 569.468 726.792 600.814 725.803C632.16 724.814 657.898 734.371 658.301 747.149Z" fill="#FCA28E"/>
<path d="M357.501 747.149C357.904 759.927 332.819 771.087 301.473 772.076C270.127 773.065 244.389 763.508 243.986 750.73C243.583 737.952 268.667 726.792 300.013 725.803C331.36 724.814 357.097 734.371 357.501 747.149Z" fill="#FCA28E"/>
<path opacity="0.2" d="M420.152 651.421C419.793 657.663 415.654 662.501 410.907 662.227C406.161 661.954 402.604 656.673 402.964 650.432C403.323 644.19 407.462 639.352 412.209 639.626C416.955 639.899 420.512 645.18 420.152 651.421Z" fill="#F1B69E"/>
<path opacity="0.56" d="M457.132 654.4C456.772 660.641 452.633 665.479 447.887 665.206C443.14 664.933 439.584 659.651 439.943 653.41C440.303 647.169 444.442 642.331 449.188 642.604C453.935 642.878 457.491 648.159 457.132 654.4Z" fill="#F1B69E"/>
<path d="M327.828 646.091C326.466 669.74 306.295 687.812 282.774 686.458C259.253 685.103 241.289 664.835 242.651 641.186C244.013 617.538 264.184 599.465 287.705 600.82C311.226 602.174 329.19 622.443 327.828 646.091Z" fill="#E89979"/>
<path d="M615.342 646.091C613.98 669.74 593.809 687.812 570.288 686.458C546.767 685.103 528.803 664.835 530.165 641.186C531.527 617.538 551.698 599.465 575.219 600.82C598.74 602.174 616.704 622.443 615.342 646.091Z" fill="#E89979"/>
<path opacity="0.3" d="M686.079 468.466C684.717 492.114 641.86 508.881 590.356 505.915C538.851 502.949 498.203 481.374 499.564 457.725C500.926 434.077 543.783 417.311 595.287 420.277C646.792 423.243 687.44 444.818 686.079 468.466Z" fill="#FAEDFF"/>
<path opacity="0.3" d="M643.828 450.86C642.918 466.65 614.303 477.845 579.913 475.864C545.524 473.884 518.383 459.478 519.292 443.688C520.201 427.898 548.817 416.703 583.206 418.683C617.596 420.664 644.737 435.07 643.828 450.86Z" fill="#FAEDFF"/>
<path opacity="0.3" d="M528.097 998.842C527.188 1014.63 498.572 1025.83 464.183 1023.85C429.793 1021.87 402.652 1007.46 403.561 991.67C404.471 975.88 433.086 964.685 467.476 966.666C501.865 968.646 529.006 983.052 528.097 998.842Z" fill="#FAEDFF"/>
<path opacity="0.3" d="M500.857 1009.5C500.335 1018.56 483.916 1024.98 464.183 1023.85C444.451 1022.71 428.877 1014.45 429.399 1005.39C429.921 996.325 446.34 989.902 466.072 991.038C485.805 992.174 501.378 1000.44 500.857 1009.5Z" fill="#FAEDFF"/>
<mask id="mask0_917_3779" style="mask-type:alpha" maskUnits="userSpaceOnUse" x="263" y="784" width="374" height="159">
<path d="M297.024 795.874C310.926 799.603 349.155 801.383 366.532 801.807C405.948 801.807 490.289 801.299 512.328 799.264C539.877 796.721 656.854 757.729 633.543 819.184C610.233 880.639 543.268 939.551 444.94 942.094C346.612 944.637 280.071 858.176 266.933 832.747C253.794 807.317 279.647 791.211 297.024 795.874Z" fill="#AA2727"/>
</mask>
<g mask="url(#mask0_917_3779)">
<path d="M297.024 795.874C310.926 799.603 349.155 801.383 366.532 801.807C405.948 801.807 490.289 801.299 512.328 799.264C539.877 796.721 656.854 757.729 633.543 819.184C610.233 880.639 543.268 939.551 444.94 942.094C346.612 944.637 280.071 858.176 266.933 832.747C253.794 807.317 279.647 791.211 297.024 795.874Z" fill="#AA2727"/>
<path d="M293.975 805.625C306.618 809.017 341.387 810.636 357.191 811.022C393.039 811.022 469.746 810.559 489.79 808.709C514.845 806.396 621.233 770.934 600.032 826.826C578.832 882.718 517.929 936.297 428.502 938.61C339.074 940.923 278.557 862.288 266.608 839.161C254.658 816.033 278.171 801.385 293.975 805.625Z" fill="#F35353"/>
<path d="M317.995 825.512C311.129 823.366 305.118 805.035 302.934 796C332.096 797.836 396.002 801.252 435.522 801.252C476.064 801.252 562.9 785.954 591.326 785.078C591.326 785.078 592.205 799.509 583.24 808.799C574.274 818.09 522.643 835.324 467.869 840.068C399.402 845.998 326.621 828.207 317.995 825.512Z" fill="#E4E4F1"/>
<path d="M516.834 890.718C516.834 903.302 487.223 913.503 450.695 913.503C414.168 913.503 384.556 903.302 384.556 890.718C384.556 878.135 414.168 867.934 450.695 867.934C487.223 867.934 516.834 878.135 516.834 890.718Z" fill="#E33867"/>
<path d="M342.527 894.427L339.454 912.861C357.889 923.103 403.36 944.814 437.771 949.73C472.182 954.646 525.846 937.441 548.377 928.223C547.353 915.934 544.91 901.905 544.24 898.495C543.012 892.248 539.826 884.371 533.681 887.443C527.536 890.514 496.972 894.188 442.578 894.427C388.185 894.666 367.106 888.282 354.816 885.21C342.527 882.138 342.527 894.427 342.527 894.427Z" fill="#E4E4F1"/>
</g>
<path d="M596.492 643.983C596.492 661.532 582.265 675.759 564.716 675.759C547.166 675.759 532.94 661.532 532.94 643.983C532.94 626.434 547.166 612.207 564.716 612.207C582.265 612.207 596.492 626.434 596.492 643.983Z" fill="#261611"/>
<path opacity="0.1" d="M591.714 650.868C591.714 655.529 579.627 671.996 564.717 671.996C549.807 671.996 537.72 655.529 537.72 650.868C537.72 646.208 549.807 653.131 564.717 653.131C579.627 653.131 591.714 646.208 591.714 650.868Z" fill="#F3CEC4"/>
<path d="M564.718 632.047C564.718 639.018 559.066 644.67 552.095 644.67C545.123 644.67 539.472 639.018 539.472 632.047C539.472 625.075 545.123 619.424 552.095 619.424C559.066 619.424 564.718 625.075 564.718 632.047Z" fill="#F3CEC4"/>
<path opacity="0.2" d="M581.581 632.046C581.581 634.597 579.512 636.666 576.961 636.666C574.409 636.666 572.341 634.597 572.341 632.046C572.341 629.494 574.409 627.426 576.961 627.426C579.512 627.426 581.581 629.494 581.581 632.046Z" fill="#F3CEC4"/>
<path d="M263.601 640.221C263.601 657.771 277.828 671.997 295.377 671.997C312.927 671.997 327.153 657.771 327.153 640.221C327.153 622.672 312.927 608.445 295.377 608.445C277.828 608.445 263.601 622.672 263.601 640.221Z" fill="#261611"/>
<path opacity="0.1" d="M268.382 647.107C268.382 651.767 280.469 668.234 295.38 668.234C310.29 668.234 322.377 651.767 322.377 647.107C322.377 642.446 310.29 649.37 295.38 649.37C280.469 649.37 268.382 642.446 268.382 647.107Z" fill="#F3CEC4"/>
<path d="M295.378 628.281C295.378 635.253 301.03 640.904 308.002 640.904C314.973 640.904 320.625 635.253 320.625 628.281C320.625 621.31 314.973 615.658 308.002 615.658C301.03 615.658 295.378 621.31 295.378 628.281Z" fill="#F3CEC4"/>
<path opacity="0.2" d="M278.516 628.282C278.516 630.833 280.584 632.902 283.136 632.902C285.687 632.902 287.755 630.833 287.755 628.282C287.755 625.73 285.687 623.662 283.136 623.662C280.584 623.662 278.516 625.73 278.516 628.282Z" fill="#F3CEC4"/>
<path d="M231.758 500.084L230.282 455.233C241.529 482.693 257.924 507.826 278.61 529.319C278.61 529.319 292.814 437.075 316.978 403.482C316.978 403.482 328.045 403.482 347.044 403.482C366.043 403.482 395.188 401.485 429.128 398.761C484.466 394.221 597.723 392.405 676.855 427.269C693.735 434.358 699.876 443.316 713.668 455.233C723.445 483.654 735.32 514.759 730.1 544.322C724.88 573.885 712.219 601.69 693.272 625.195C693.272 625.195 721.679 643.465 737.173 724.451C752.668 805.437 737.173 820.591 737.173 820.591L836.812 780.54C865.694 715.683 862.368 724.91 874.779 655.156C887.506 561.459 895.012 451.783 844.286 427.269C722.664 368.495 852.367 319.285 455.875 223.896C287.537 106.776 175.336 125.182 175.336 303.922C175.336 417.061 231.758 500.084 231.758 500.084Z" fill="url(#paint27_linear_917_3779)"/>
<path d="M389.283 215.546C389.283 215.546 243.561 266.571 278.608 529.322C278.608 529.322 175.68 329.58 278.608 231.162C314.305 219.699 351.752 214.415 389.283 215.546Z" fill="url(#paint28_linear_917_3779)"/>
<path d="M295.376 174.959C295.376 174.959 177.929 216.083 206.176 427.852C206.176 427.852 123.219 266.867 206.176 187.545C234.947 178.306 265.127 174.047 295.376 174.959Z" fill="url(#paint29_linear_917_3779)"/>
<path d="M719.55 578.518C719.55 578.518 726.091 610.824 834.245 650.245C831.199 674.707 826.641 698.963 820.595 722.878C820.595 722.878 752.383 649.517 714.754 595.042L719.55 578.518Z" fill="url(#paint30_linear_917_3779)"/>
<path d="M771.485 623.691V655.23V748.76C771.485 780.121 834.211 773.025 845.801 748.76C876.045 685.435 847.614 581.82 813.356 581.82C779.098 581.82 771.485 604.115 771.485 623.691Z" fill="#F1B69E"/>
<path d="M771.485 651.522V666.205V709.748C771.485 724.348 800.687 721.045 806.083 709.748C820.163 680.267 806.927 632.029 790.978 632.029C775.029 632.029 771.485 642.409 771.485 651.522Z" fill="#D07F5E"/>
<path opacity="0.5" d="M771.485 623.691V655.23V748.76C771.485 780.121 834.211 773.025 845.801 748.76C876.045 685.435 847.614 581.82 813.356 581.82C779.098 581.82 771.485 604.115 771.485 623.691Z" fill="#D07F5E"/>
<path d="M771.485 623.691V655.23V748.76C771.485 780.121 823.404 773.025 832.996 748.76C858.03 685.435 834.497 581.82 806.142 581.82C777.786 581.82 771.485 604.115 771.485 623.691Z" fill="#F1B69E"/>
<path d="M771.485 651.522V666.205V709.748C771.485 724.348 800.687 721.045 806.083 709.748C820.163 680.267 806.927 632.029 790.978 632.029C775.029 632.029 771.485 642.409 771.485 651.522Z" fill="#D07F5E"/>
<path d="M771.485 678.83V686.81V710.478C771.485 718.413 783.843 716.618 786.127 710.478C792.085 694.454 786.484 668.234 779.734 668.234C772.985 668.234 771.485 673.876 771.485 678.83Z" fill="#F1B69E"/>
<path opacity="0.45" d="M403.893 400.899C384.419 403.531 393.367 398.048 384.156 396.952C322.094 390.373 245.602 360.636 436.13 294.319C626.659 228.003 695.124 387.522 719.685 452.215C712.448 443.005 668.895 370.241 599.947 344.978C513.762 313.398 428.235 397.61 403.893 400.899Z" fill="black"/>
<path d="M439.962 566.261C324.784 480.689 311.198 384.944 318.802 347.768C319.14 304.002 350.943 218.903 475.448 228.636C599.954 238.369 704.418 296.905 741.087 324.955C541.497 268.405 324.235 316.567 439.962 566.261Z" fill="url(#paint31_linear_917_3779)"/>
<path d="M439.962 566.261C324.784 480.689 311.198 384.944 318.802 347.768C319.14 304.002 350.943 218.903 475.448 228.636C599.954 238.369 704.418 296.905 741.087 324.955C541.497 268.405 324.235 316.567 439.962 566.261Z" fill="url(#paint32_linear_917_3779)"/>
<path d="M500.768 584.452C485.902 570.158 490.579 553.636 504.199 537.569C517.818 521.502 633.986 554.149 646.565 557.008C659.143 559.867 662.002 575.304 652.282 584.452C642.562 593.6 515.634 598.746 500.768 584.452Z" fill="#3B2822"/>
<path d="M363.673 576.741C376.303 562.447 372.329 545.925 360.759 529.858C349.188 513.791 250.495 546.439 239.809 549.297C229.122 552.156 226.694 567.593 234.951 576.741C243.209 585.889 351.044 591.035 363.673 576.741Z" fill="#3B2822"/>
<path d="M438.067 599.892C416.466 599.892 403.17 591.172 395.647 593.824L391.94 587.516C401.128 584.516 423.216 578.516 438.067 578.516C456.629 578.516 495.443 584.141 489.256 587.516C484.306 590.216 480.336 590.557 482.399 597.308C474.336 593.558 459.667 599.892 438.067 599.892Z" fill="#FBDD02"/>
<path opacity="0.5" d="M510.923 581.635C498.096 575.205 502.131 567.771 513.883 560.543C525.636 553.315 625.877 568.002 636.731 569.289C647.585 570.575 650.052 577.52 641.665 581.635C633.278 585.751 523.751 588.065 510.923 581.635Z" fill="#201510"/>
<path opacity="0.5" d="M355.045 573.924C365.943 567.494 362.514 560.06 352.53 552.832C342.546 545.604 257.384 560.291 248.162 561.578C238.941 562.864 236.846 569.809 243.971 573.924C251.096 578.04 344.147 580.355 355.045 573.924Z" fill="#201510"/>
<path d="M586.766 341.7C496.379 309.506 439.725 280.627 422.697 270.211L486.112 29.6393L539.893 200.699L704.146 77.7008L754.048 275.977L934.974 177.246L816.347 402.218C777.481 395.459 677.152 373.893 586.766 341.7Z" fill="#FBE315"/>
<path d="M704.112 77.736L539.725 200.784L589.394 243.422L704.112 77.736Z" fill="#EDFF7B"/>
<path d="M420.091 280.529C432.355 235.068 485.977 29.7988 485.977 29.7988L488.45 335.976C433.763 313.949 420.091 280.529 420.091 280.529Z" fill="#EDFF7B"/>
<path d="M580.19 375.819C489.803 343.626 408.984 298.434 422.696 270.213L442.804 193.934C442.804 193.934 448.362 255.557 606.649 306.228C764.936 356.9 772.68 325.711 772.68 325.711L906.518 199.952L934.974 177.248L816.347 402.22C806.179 422.387 670.577 408.013 580.19 375.819Z" fill="#FBC815"/>
<path opacity="0.5" d="M420.091 280.529C432.355 235.068 485.977 29.7988 485.977 29.7988L488.45 335.976C433.762 313.949 420.091 280.529 420.091 280.529Z" fill="#EDFF7B"/>
<path d="M375.774 748.034C375.774 748.034 418.247 677.294 418.247 659.848C418.247 659.848 425.485 716.228 466.627 702.32C507.769 688.413 530.894 755.79 500.976 748.034C471.059 740.277 487.68 754.682 466.627 770.195C445.574 785.707 386.157 783.491 375.774 748.034Z" fill="url(#paint33_linear_917_3779)"/>
<path d="M464.828 770.403C472.996 755.356 493.072 729.778 508.033 747.833C508.033 747.833 485.463 770.403 464.828 770.403Z" fill="#AA2727"/>
<path d="M753.853 275.776L934.993 177.26L766.948 330.772L753.853 275.776Z" fill="#EDFF7B"/>
<path d="M774.647 604.241C772.371 615.22 663.245 626.61 663.245 626.61L666.665 582.722L809.166 576.451L787.634 586.569C787.634 586.569 776.923 593.263 774.647 604.241Z" fill="#041A30"/>
<path d="M623.869 584.197L500.105 587.14C482.466 587.14 462.075 609.16 473.642 649.77C495.253 725.631 575.362 736.84 611.695 734.893C648.028 732.947 663.487 717.946 667.847 699.053C672.207 680.161 672.691 655.455 667.847 622.999C664.776 602.425 637.836 585.667 623.869 584.197Z" fill="#001B33" fill-opacity="0.93"/>
<path fill-rule="evenodd" clip-rule="evenodd" d="M623.991 581.193L624.183 581.214L718.05 581.193C718.05 581.193 669.116 611.175 670.814 622.556C675.691 655.233 675.243 680.344 670.77 699.728C668.444 709.809 663.113 718.948 653.498 725.774C643.94 732.56 630.384 736.897 611.856 737.889C593.353 738.88 563.746 736.534 535.936 724.254C508.037 711.934 481.858 689.559 470.757 650.592C464.809 629.708 466.973 613.2 473.297 601.773C479.588 590.408 490.002 584.155 500.068 584.14L623.991 581.193ZM623.74 587.201L500.141 590.14H500.105C492.545 590.14 483.961 594.896 478.546 604.679C473.157 614.415 470.909 629.222 476.527 648.948C487.038 685.842 511.719 707.001 538.36 718.765C565.09 730.568 593.704 732.853 611.535 731.898C629.34 730.944 641.679 726.807 650.024 720.882C658.312 714.998 662.891 707.19 664.924 698.379C669.171 679.977 669.691 655.678 664.88 623.442C663.508 614.249 656.689 605.529 648.094 598.796C639.585 592.129 629.985 587.921 623.74 587.201Z" fill="url(#paint34_linear_917_3779)"/>
<path fill-rule="evenodd" clip-rule="evenodd" d="M624.393 577.213L809.37 576.238L808.801 581.913L797.046 585.886L720.139 584.604L720.109 584.622L720.01 584.684C719.921 584.739 719.787 584.821 719.612 584.93C719.261 585.148 718.744 585.471 718.085 585.886C716.767 586.718 714.882 587.921 712.623 589.401C708.1 592.364 702.106 596.422 696.178 600.819C690.223 605.237 684.459 609.907 680.327 614.099C678.253 616.203 676.713 618.064 675.762 619.608C674.753 621.247 674.77 621.943 674.77 621.965C679.691 654.935 679.292 680.589 674.668 700.627C672.146 711.553 666.314 721.58 655.813 729.035C645.448 736.394 631.079 740.865 612.069 741.883C593.119 742.898 562.85 740.51 534.321 727.912C505.583 715.223 478.405 692.036 466.91 651.687C460.742 630.032 462.849 612.389 469.797 599.836C476.666 587.425 488.287 580.176 500.016 580.14L624.154 577.188L624.393 577.213ZM500.068 584.14C490.001 584.155 479.588 590.407 473.297 601.773C466.972 613.199 464.809 629.707 470.757 650.591C481.858 689.558 508.037 711.934 535.936 724.253C563.746 736.533 593.353 738.879 611.856 737.888C630.384 736.896 643.94 732.559 653.498 725.774C663.113 718.947 668.444 709.808 670.77 699.727C675.243 680.344 675.691 655.232 670.814 622.556C669.498 613.736 698.59 593.745 711.75 585.194C715.572 582.711 718.05 581.193 718.05 581.193L624.183 581.213L623.991 581.193L500.068 584.14ZM500.188 594.139H500.105C494.22 594.139 486.87 597.9 482.046 606.616C477.28 615.226 474.976 628.899 480.374 647.852C490.491 683.365 514.174 703.712 539.976 715.105C565.986 726.591 593.938 728.834 611.321 727.903C628.643 726.975 640.171 722.971 647.709 717.62C655.112 712.364 659.188 705.444 661.026 697.479C665.122 679.732 665.691 655.974 660.924 624.032C659.769 616.297 653.86 608.394 645.627 601.944C637.614 595.666 628.851 591.906 623.542 591.206L500.188 594.139ZM623.74 587.2L500.141 590.14H500.105C492.545 590.14 483.961 594.896 478.546 604.678C473.157 614.415 470.909 629.222 476.527 648.947C487.038 685.842 511.719 707.001 538.36 718.764C565.09 730.567 593.704 732.852 611.535 731.897C629.339 730.943 641.679 726.806 650.024 720.881C658.312 714.997 662.891 707.19 664.924 698.378C669.171 679.976 669.691 655.677 664.88 623.441C663.508 614.248 656.689 605.528 648.094 598.795C639.585 592.129 629.985 587.92 623.74 587.2Z" fill="#FFD742"/>
<path d="M646.5 602.499L492 674.498L494 677.499L498.5 683.998L656.056 610.767L646.5 602.499Z" fill="#FEFCBD" fill-opacity="0.3"/>
<path d="M658 615.497L505.988 690.162L505 691.498L515.5 701.998L529 709.498L668.418 627.262L658 615.497Z" fill="#FEFCBD" fill-opacity="0.3"/>
<path d="M254.946 582.443L378.71 585.386C396.349 585.386 416.739 607.406 405.173 648.016C383.561 723.877 303.453 735.086 267.12 733.14C230.787 731.194 215.328 716.192 210.968 697.299C206.608 678.407 206.124 653.701 210.968 621.245C214.039 600.671 240.979 583.914 254.946 582.443Z" fill="#001B33" fill-opacity="0.93"/>
<path fill-rule="evenodd" clip-rule="evenodd" d="M254.824 579.439L254.632 579.46L208.045 579.439C208.045 579.439 209.699 609.421 208.001 620.802C203.124 653.479 203.572 678.591 208.045 697.974C210.371 708.055 215.702 717.194 225.317 724.02C234.875 730.806 248.431 735.143 266.96 736.135C285.462 737.126 315.069 734.78 342.879 722.5C370.778 710.18 396.957 687.805 408.058 648.838C414.006 627.954 411.843 611.446 405.518 600.02C399.227 588.654 388.814 582.401 378.747 582.386L254.824 579.439ZM255.075 585.447L378.674 588.386H378.71C386.271 588.386 394.854 593.142 400.269 602.925C405.658 612.661 407.906 627.468 402.288 647.194C391.777 684.089 367.096 705.247 340.455 717.011C313.725 728.814 285.111 731.099 267.28 730.144C249.476 729.19 237.136 725.053 228.791 719.128C220.503 713.244 215.924 705.436 213.891 696.625C209.645 678.223 209.124 653.924 213.935 621.688C215.307 612.495 222.126 603.775 230.721 597.042C239.23 590.375 248.83 586.167 255.075 585.447Z" fill="url(#paint35_linear_917_3779)"/>
<path fill-rule="evenodd" clip-rule="evenodd" d="M208.239 583.439C208.62 591.989 209.317 611.981 208.001 620.801C203.124 653.478 203.572 678.59 208.045 697.973C210.371 708.054 215.702 717.193 225.317 724.02C234.875 730.805 248.431 735.142 266.959 736.134C285.462 737.125 315.069 734.779 342.879 722.499C370.778 710.18 396.957 687.804 408.058 648.837C414.006 627.953 411.843 611.445 405.518 600.019C399.227 588.653 388.814 582.401 378.747 582.385L254.824 579.439L254.632 579.459L208.045 579.439C208.045 579.439 208.128 580.956 208.239 583.439ZM254.423 575.459L254.661 575.434L378.799 578.385C390.528 578.422 402.149 585.671 409.018 598.082C415.966 610.635 418.073 628.277 411.905 649.933C400.41 690.282 373.232 713.468 344.494 726.158C315.965 738.756 285.696 741.144 266.746 740.129C247.736 739.11 233.367 734.64 223.002 727.281C212.501 719.826 206.669 709.799 204.147 698.872C199.523 678.835 199.124 653.181 204.045 620.211C204.835 614.918 204.864 604.927 204.661 595.942C204.561 591.518 204.408 587.443 204.28 584.473C204.217 582.989 204.159 581.782 204.117 580.948C204.097 580.531 204.08 580.207 204.068 579.988L204.051 579.663L204.051 579.66L203.818 575.437L254.423 575.459ZM378.674 588.385H378.71C386.27 588.385 394.854 593.142 400.269 602.924C405.658 612.661 407.906 627.467 402.288 647.193C391.777 684.088 367.096 705.247 340.455 717.01C313.725 728.813 285.111 731.098 267.28 730.143C249.476 729.189 237.136 725.052 228.791 719.127C220.503 713.243 215.924 705.435 213.891 696.624C209.645 678.222 209.124 653.923 213.935 621.687C215.307 612.494 222.126 603.774 230.721 597.041C239.23 590.374 248.83 586.166 255.075 585.446L378.674 588.385ZM255.273 589.452L378.627 592.385H378.71C384.595 592.385 391.945 596.146 396.769 604.861C401.535 613.472 403.839 627.144 398.441 646.097C388.324 681.611 364.641 701.958 338.839 713.351C312.829 724.836 284.877 727.08 267.494 726.149C250.172 725.221 238.644 721.217 231.106 715.866C223.703 710.61 219.627 703.689 217.789 695.724C213.693 677.977 213.124 654.22 217.891 622.277C219.046 614.542 224.955 606.64 233.188 600.19C241.201 593.912 249.964 590.152 255.273 589.452Z" fill="#FFD742"/>
<path d="M368.86 605.287L230 714.999L226.5 711.999L351.628 596.695L357 591.501L380.5 592L383.5 593.001L368.86 605.287Z" fill="#FEFCBD" fill-opacity="0.3"/>
<path d="M413.5 643.502L307.345 727.098L303.125 724.994L403.43 631.322L415.5 623.002L413.5 643.502Z" fill="#FEFCBD" fill-opacity="0.3"/>
<path d="M353 591.5L225.396 701.042L220.5 703.001C216.5 699.501 215 674.499 215 674.499L326 591L353 591.5Z" fill="#FEFCBD" fill-opacity="0.3"/>
<path d="M673.484 644.895L671.873 626.614C671.873 626.614 667.311 592.276 643.955 582.075L716.857 579.443H801.71L708.274 626.614L673.484 644.895Z" fill="#FDC800"/>
<path d="M720.866 476.467C715.963 461.471 712.947 454.879 712.947 454.879C798.23 466.34 883.456 520.835 883.456 520.835V567.236C850.302 521.708 720.866 476.467 720.866 476.467Z" fill="url(#paint36_linear_917_3779)"/>
<path d="M730.846 536.776L730.846 517.188C816.129 528.649 882.796 578.334 882.796 578.334C882.796 578.334 878.841 609.72 878.841 622.379C845.687 576.851 730.846 536.776 730.846 536.776Z" fill="url(#paint37_linear_917_3779)"/>
<path d="M429.82 1291.06L444.176 1149.32C444.425 1146.87 445.672 1144.62 447.627 1143.11L472.281 1124.06C473.857 1122.84 475.793 1122.18 477.785 1122.18L512.402 1122.18C514.152 1122.18 515.865 1122.69 517.33 1123.65L551.148 1145.78C553.497 1147.32 554.994 1149.86 555.196 1152.66L565.253 1291.62C565.703 1297.85 559.828 1302.63 553.82 1300.92L498.128 1285.13C496.483 1284.66 494.739 1284.67 493.1 1285.16L441.346 1300.59C435.206 1302.42 429.174 1297.43 429.82 1291.06Z" fill="#EB9E0A"/>
<path fill-rule="evenodd" clip-rule="evenodd" d="M477.785 1116.18L512.402 1116.18C515.32 1116.18 518.174 1117.03 520.616 1118.62L554.434 1140.76C558.348 1143.32 560.843 1147.56 561.181 1152.23L571.237 1291.18C571.988 1301.57 562.196 1309.54 552.183 1306.7L496.491 1290.9C495.942 1290.74 495.361 1290.75 494.815 1290.91L443.06 1306.34C432.828 1309.39 422.774 1301.08 423.85 1290.45L438.207 1148.72C438.621 1144.62 440.701 1140.88 443.958 1138.36L468.612 1119.31L472.281 1124.06L468.612 1119.31C471.239 1117.28 474.465 1116.18 477.785 1116.18ZM512.402 1128.18L477.785 1128.18C477.121 1128.18 476.476 1128.4 475.95 1128.8L451.296 1147.86C450.644 1148.36 450.228 1149.11 450.146 1149.93L435.789 1291.66C435.574 1293.79 437.585 1295.45 439.631 1294.84L491.386 1279.41C494.117 1278.6 497.024 1278.58 499.766 1279.35L555.457 1295.15C557.46 1295.72 559.419 1294.13 559.268 1292.05L549.212 1153.09C549.144 1152.16 548.645 1151.31 547.863 1150.8L514.045 1128.67C513.556 1128.35 512.985 1128.18 512.402 1128.18Z" fill="#FFCD4E"/>
<path d="M488.348 1266.15C487.796 1266.15 487.348 1265.7 487.348 1265.15V1254.46C487.348 1253.91 486.901 1253.46 486.348 1253.46H461.194C460.564 1253.46 460.091 1252.89 460.213 1252.27L463.226 1236.97C463.318 1236.5 463.729 1236.16 464.207 1236.16H508.167C508.379 1236.16 508.585 1236.1 508.756 1235.97L513.655 1232.4C513.961 1232.18 514.114 1231.8 514.053 1231.43L512.657 1222.99C512.623 1222.78 512.523 1222.59 512.371 1222.44L508.784 1218.92C508.597 1218.74 508.346 1218.64 508.084 1218.64H473.429C473.165 1218.64 472.912 1218.53 472.725 1218.35L460.229 1205.97C460.067 1205.81 459.964 1205.6 459.939 1205.37L457.037 1179.48C456.995 1179.1 457.169 1178.73 457.488 1178.53L472.769 1168.63C472.931 1168.53 473.12 1168.47 473.313 1168.47H486.21C486.814 1168.47 487.28 1167.94 487.202 1167.35L485.85 1156.92C485.772 1156.32 486.238 1155.79 486.842 1155.79H507.728C508.28 1155.79 508.728 1156.24 508.728 1156.79V1167.47C508.728 1168.03 509.175 1168.47 509.728 1168.47H528.347C529.001 1168.47 529.479 1169.09 529.316 1169.72L525.382 1185.02C525.269 1185.46 524.87 1185.77 524.414 1185.77H486.113C485.851 1185.77 485.599 1185.87 485.412 1186.06L481.892 1189.51C481.7 1189.7 481.592 1189.96 481.592 1190.23V1196.88C481.592 1197.15 481.7 1197.41 481.892 1197.6L485.412 1201.05C485.599 1201.24 485.851 1201.34 486.113 1201.34H520.77C521.032 1201.34 521.284 1201.44 521.471 1201.63L533.963 1213.89C534.128 1214.05 534.232 1214.26 534.257 1214.49L537.165 1241.49C537.204 1241.85 537.045 1242.2 536.75 1242.41L521.439 1253.28C521.27 1253.4 521.068 1253.46 520.86 1253.46H509.936C509.309 1253.46 508.836 1254.03 508.954 1254.65L510.918 1264.96C511.035 1265.58 510.562 1266.15 509.935 1266.15H488.348Z" fill="#FFB800"/>
<path fill-rule="evenodd" clip-rule="evenodd" d="M482.348 1258.46V1265.15C482.348 1268.46 485.035 1271.15 488.348 1271.15H509.935C513.699 1271.15 516.533 1267.72 515.829 1264.02L514.77 1258.46H520.86C522.105 1258.46 523.319 1258.07 524.334 1257.35L539.644 1246.48C541.416 1245.23 542.369 1243.11 542.136 1240.95L539.228 1213.96C539.079 1212.58 538.456 1211.29 537.466 1210.32L524.974 1198.06C523.852 1196.96 522.343 1196.34 520.77 1196.34H487.748L486.592 1195.2V1191.91L487.748 1190.77H524.414C527.152 1190.77 529.543 1188.92 530.225 1186.27L534.158 1170.97C535.135 1167.17 532.267 1163.47 528.347 1163.47H513.728V1156.79C513.728 1153.48 511.041 1150.79 507.728 1150.79H486.842C483.222 1150.79 480.426 1153.97 480.892 1157.56L481.658 1163.47H473.313C472.155 1163.47 471.023 1163.81 470.052 1164.44L454.77 1174.33C452.861 1175.57 451.815 1177.78 452.068 1180.04L454.97 1205.93C455.122 1207.29 455.737 1208.56 456.71 1209.52L469.206 1221.9C470.33 1223.01 471.847 1223.64 473.429 1223.64H506.449L507.937 1225.1L508.717 1229.81L506.863 1231.16H464.207C461.34 1231.16 458.874 1233.19 458.32 1236L455.307 1251.3C454.577 1255.01 457.415 1258.46 461.194 1258.46H482.348ZM487.348 1265.15C487.348 1265.7 487.796 1266.15 488.348 1266.15H509.935C510.562 1266.15 511.035 1265.58 510.917 1264.96L508.954 1254.65C508.836 1254.03 509.309 1253.46 509.936 1253.46H520.86C521.068 1253.46 521.27 1253.4 521.439 1253.28L536.75 1242.41C537.045 1242.2 537.204 1241.85 537.165 1241.49L534.257 1214.49C534.232 1214.26 534.128 1214.05 533.963 1213.89L521.471 1201.63C521.284 1201.44 521.032 1201.34 520.77 1201.34H486.113C485.85 1201.34 485.599 1201.24 485.412 1201.05L481.892 1197.6C481.7 1197.41 481.592 1197.15 481.592 1196.88V1190.23C481.592 1189.96 481.7 1189.7 481.892 1189.51L485.412 1186.06C485.599 1185.87 485.85 1185.77 486.112 1185.77H524.414C524.87 1185.77 525.268 1185.46 525.382 1185.02L529.316 1169.72C529.478 1169.09 529.001 1168.47 528.347 1168.47H509.728C509.175 1168.47 508.728 1168.03 508.728 1167.47V1156.79C508.728 1156.24 508.28 1155.79 507.728 1155.79H486.842C486.238 1155.79 485.772 1156.32 485.85 1156.92L487.202 1167.35C487.28 1167.94 486.814 1168.47 486.21 1168.47H473.313C473.12 1168.47 472.931 1168.53 472.769 1168.63L457.488 1178.53C457.169 1178.73 456.995 1179.1 457.037 1179.48L459.939 1205.37C459.964 1205.6 460.067 1205.81 460.229 1205.97L472.725 1218.35C472.912 1218.53 473.165 1218.64 473.429 1218.64H508.084C508.346 1218.64 508.597 1218.74 508.784 1218.92L512.371 1222.44C512.522 1222.59 512.623 1222.78 512.657 1222.99L514.053 1231.43C514.114 1231.8 513.961 1232.18 513.655 1232.4L508.756 1235.97C508.585 1236.1 508.378 1236.16 508.167 1236.16H464.207C463.729 1236.16 463.318 1236.5 463.226 1236.97L460.213 1252.27C460.091 1252.89 460.564 1253.46 461.194 1253.46H486.348C486.901 1253.46 487.348 1253.91 487.348 1254.46V1265.15Z" fill="#B85B06" fill-opacity="0.34"/>
<path d="M491.951 1158.69C495.612 1158.22 501.182 1157.45 505.025 1156.76C506.063 1156.57 505.956 1155.79 504.901 1155.79H486.24C485.622 1155.79 485.152 1156.34 485.253 1156.95L486.872 1166.66C486.973 1167.27 486.503 1167.83 485.885 1167.83H473.331C473.129 1167.83 472.931 1167.89 472.764 1168L463.199 1174.58C462.236 1175.24 462.996 1176.74 464.098 1176.35L473.946 1172.87C473.997 1172.85 474.051 1172.84 474.105 1172.83L490.252 1169.98C490.73 1169.9 491.079 1169.48 491.079 1169V1159.68C491.079 1159.18 491.451 1158.75 491.951 1158.69Z" fill="#FFDF8B"/>
<path d="M486.807 1205.59C486.17 1204.7 485.337 1203.55 484.498 1202.41C484.012 1201.74 485.193 1200.41 485.897 1200.84C486.005 1200.9 486.129 1200.94 486.255 1200.94H520.762C521.027 1200.94 521.281 1201.04 521.469 1201.23L531.031 1210.79C531.787 1211.55 530.987 1212.8 529.982 1212.44L523.295 1210.01C523.22 1209.98 523.142 1209.96 523.063 1209.95L487.509 1206C487.227 1205.97 486.972 1205.82 486.807 1205.59Z" fill="#FFDF8B"/>
<path d="M210.172 1343.53C220.593 1377.89 212.331 1410.81 191.719 1417.06C171.107 1423.31 145.949 1400.53 135.527 1366.18C125.106 1331.82 133.367 1298.9 153.98 1292.65C174.592 1286.4 199.75 1309.18 210.172 1343.53Z" fill="#BE1144"/>
<path d="M757.545 1315.99C747.123 1350.34 755.385 1383.26 775.997 1389.51C796.609 1395.77 821.767 1372.99 832.189 1338.63C842.61 1304.28 834.349 1271.36 813.736 1265.11C793.124 1258.85 767.966 1281.63 757.545 1315.99Z" fill="#BE1144"/>
<path d="M210.172 1343.53C218.34 1370.46 211.865 1396.26 195.71 1401.16C179.555 1406.06 159.837 1388.2 151.67 1361.28C143.502 1334.35 149.977 1308.55 166.132 1303.65C182.287 1298.75 202.004 1316.61 210.172 1343.53Z" fill="#6C0524"/>
<path d="M757.544 1315.99C749.376 1342.92 755.851 1368.72 772.006 1373.62C788.161 1378.52 807.879 1360.66 816.046 1333.74C824.214 1306.81 817.739 1281.01 801.584 1276.11C785.429 1271.21 765.712 1289.07 757.544 1315.99Z" fill="#6C0524"/>
<path d="M217.874 1238.34L292.567 1073.74L363.102 1164.34L335.082 1248.87L273.493 1311.69L217.874 1238.34Z" fill="#88CF42"/>
<path d="M321.692 1296.6L273.494 1311.69C285.189 1300.5 338.106 1208.79 363.103 1164.34L403.213 1157.97C406.931 1186.22 350.415 1262.16 321.692 1296.6Z" fill="#56B729"/>
<path d="M292.568 1073.74L363.103 1164.34L403.213 1157.96L331.746 1064.86L292.568 1073.74Z" fill="#25951C"/>
<path opacity="0.3" d="M310.913 1069.77C372.418 1189.37 275.981 1310.76 273.494 1311.69L250.532 1211.93C250.157 1124.68 246.55 1079.47 310.913 1069.77Z" fill="#1A7109"/>
<path d="M284.482 1082.45C313.573 1105.83 316.886 1156.84 314.907 1179.43L277.909 1178.95C267.979 1137.04 255.392 1059.08 284.482 1082.45Z" fill="#25951C"/>
<path d="M286.948 1127.13C344.383 1171.88 301.911 1268.81 273.495 1311.69L204.823 1226.1C239.68 1149.28 223.023 1087.27 208.939 1062.12C228.841 1054.71 320.535 1071.8 286.948 1127.13Z" fill="#82DC34"/>
<path fill-rule="evenodd" clip-rule="evenodd" d="M211.936 1225.03L213.32 1221.83C233.503 1175.11 235.78 1138.8 233.171 1114.38C231.865 1102.15 229.327 1092.85 227.153 1086.67C226.066 1083.58 225.07 1081.27 224.364 1079.77C224.011 1079.02 223.731 1078.46 223.548 1078.12C223.457 1077.94 223.39 1077.82 223.35 1077.75L223.318 1077.69L223.315 1077.69L223.31 1077.68L217.917 1068.42L228.519 1069.71L227.901 1075.01C228.519 1069.71 228.519 1069.71 228.519 1069.71L228.542 1069.71L228.577 1069.72L228.686 1069.73C228.775 1069.74 228.897 1069.76 229.051 1069.78C229.358 1069.83 229.792 1069.9 230.344 1070C231.447 1070.19 233.021 1070.5 234.988 1070.97C238.919 1071.92 244.431 1073.51 250.894 1076.13C263.816 1081.37 278.781 1088.22 294.283 1104.74C294.283 1104.74 294.298 1110.26 293.112 1114.26C291.925 1118.27 289.813 1121.93 289.813 1121.93C275.585 1106.76 258.768 1090.82 246.952 1086.03C243.199 1084.51 239.813 1083.37 236.948 1082.53C237.022 1082.73 237.095 1082.94 237.169 1083.15C239.595 1090.05 242.334 1100.16 243.736 1113.28C246.483 1138.99 244.081 1176.05 224.434 1222.91C233.787 1233.15 246.174 1247.38 256.506 1259.38C262.127 1265.91 267.154 1271.8 270.776 1276.05C271.026 1276.35 271.27 1276.63 271.507 1276.91C272.299 1275.32 273.194 1273.48 274.163 1271.42C277.829 1263.62 282.537 1252.69 286.716 1240.13C295.163 1214.74 299.311 1155.77 291.316 1130.73C291.316 1130.73 295.35 1134.78 296.549 1135.98C297.749 1137.19 301.091 1141.7 301.091 1141.7C310.172 1170.15 305.393 1217.7 296.794 1243.55C292.451 1256.6 287.569 1267.94 283.775 1276.01C281.876 1280.05 280.245 1283.28 279.083 1285.51C278.502 1286.63 278.038 1287.49 277.716 1288.09C277.555 1288.38 277.43 1288.61 277.343 1288.77L277.242 1288.95L277.214 1289L277.204 1289.02C277.204 1289.02 277.202 1289.02 272.575 1286.38L268.531 1289.83L266.977 1287.99C265.974 1286.81 264.518 1285.09 262.712 1282.97C259.1 1278.73 254.086 1272.85 248.481 1266.34C237.254 1253.3 223.715 1237.76 214.31 1227.59L211.936 1225.03ZM272.575 1286.38L268.531 1289.83L273.464 1295.66L277.204 1289.02L272.575 1286.38Z" fill="#D4FD5F"/>
<path d="M329.365 1265.78L315.174 1279.08L343.558 1240.88L357.751 1215.98L346.189 1241.26L329.365 1265.78Z" fill="#25951C"/>
<path d="M253.983 1145.11C269.096 1139.48 287.604 1151.73 295.321 1172.47C303.039 1193.21 297.044 1214.58 281.931 1220.2C266.818 1225.83 248.31 1213.58 240.592 1192.84C232.875 1172.1 238.87 1150.73 253.983 1145.11Z" fill="#D4FD5F"/>
<path d="M200.177 1212.36C211.821 1234.89 197.433 1284.26 188.783 1306.13L170.082 1334.76L181.232 1351.34L228.989 1363.84C232.565 1364.77 236.223 1365.36 239.912 1365.59L267.821 1367.31C277.822 1367.92 287.81 1365.89 296.776 1361.42L336.701 1341.5C348.332 1335.69 371.403 1314.9 376.826 1303.09L380.839 1289.59L363.053 1275.73L376.826 1249.09L371.418 1241.59L362.02 1234.91C325.574 1250.17 253.601 1258.17 253.601 1258.17C248.942 1226.28 217.948 1204.06 200.177 1212.36Z" fill="#FBC3A4"/>
<path opacity="0.34" d="M220.911 1242.49C224.734 1228.54 208.822 1216.62 200.388 1212.4C206.685 1221.63 205.261 1239.49 203.762 1247.26C207.885 1251.48 217.088 1256.43 220.911 1242.49Z" fill="#F3E8FF"/>
<path d="M767.539 1184.81C755.894 1207.34 770.282 1256.72 778.932 1278.59L797.634 1307.21L786.483 1323.8L733.35 1337.7L701.446 1333.98L658.552 1314.66L613.042 1304.98L613.042 1288.98L667.296 1288.98L668.908 1271.96L675.699 1256.13L599.305 1225.57L605.695 1207.36C642.141 1222.62 714.114 1230.63 714.114 1230.63C718.773 1198.73 749.767 1176.51 767.539 1184.81Z" fill="#FBC3A4"/>
<path d="M752.023 1229.59C742.643 1213.86 758.707 1193.26 767.7 1184.94C760.338 1195.02 763.452 1221.86 766.141 1234.01C765.343 1239.09 752.023 1229.59 752.023 1229.59Z" fill="#FCD6C1"/>
<path d="M167.342 1390.27L190.743 1353.97L170.446 1333.43H148.716C144.704 1358.65 159.462 1381.83 167.342 1390.27Z" fill="#F3BC9E"/>
<path d="M800.374 1362.72L776.973 1326.43L797.27 1305.89H819C823.012 1331.11 808.254 1354.29 800.374 1362.72Z" fill="#FFA777"/>
<path d="M624.871 544.231L649.408 575.595L686.34 560.702L654.976 585.239L669.869 622.171L645.332 590.807L608.4 605.7L639.763 581.163L624.871 544.231Z" fill="white" fill-opacity="0.84"/>
<path opacity="0.2" d="M666.187 572.337C672.187 582.73 668.627 596.018 658.234 602.018C647.842 608.019 634.553 604.458 628.553 594.065C622.553 583.673 626.113 570.384 636.506 564.384C646.898 558.384 660.187 561.944 666.187 572.337Z" fill="white"/>
<path d="M324.986 850.456L349.523 881.819L386.455 866.926L355.091 891.464L369.984 928.395L345.447 897.032L308.515 911.925L339.879 887.387L324.986 850.456Z" fill="white" fill-opacity="0.84"/>
<path opacity="0.2" d="M366.303 878.562C372.303 888.954 368.742 902.243 358.349 908.243C347.957 914.243 334.668 910.682 328.668 900.29C322.668 889.897 326.229 876.609 336.621 870.608C347.014 864.608 360.302 868.169 366.303 878.562Z" fill="white"/>
<g opacity="0.8">
<path d="M208.277 675.485L232.814 706.849L269.746 691.956L238.383 716.493L253.275 753.425L228.738 722.061L191.806 736.954L223.17 712.417L208.277 675.485Z" fill="white" fill-opacity="0.84"/>
<path opacity="0.2" d="M249.594 703.591C255.594 713.983 252.033 727.272 241.641 733.272C231.248 739.272 217.959 735.712 211.959 725.319C205.959 714.927 209.52 701.638 219.912 695.638C230.305 689.638 243.594 693.198 249.594 703.591Z" fill="white"/>
</g>
<path d="M493.78 1158.96L518.317 1190.32L555.249 1175.43L523.885 1199.96L538.778 1236.9L514.241 1205.53L477.309 1220.42L508.673 1195.89L493.78 1158.96Z" fill="white" fill-opacity="0.84"/>
<path opacity="0.2" d="M535.097 1187.06C541.097 1197.45 537.536 1210.74 527.143 1216.74C516.751 1222.74 503.462 1219.18 497.462 1208.79C491.462 1198.4 495.023 1185.11 505.415 1179.11C515.808 1173.11 529.096 1176.67 535.097 1187.06Z" fill="white"/>
<path d="M464.098 7.45981L488.636 38.8231L525.567 23.9303L494.204 48.4676L509.097 85.3992L484.559 54.0359L447.628 68.9287L478.991 44.3914L464.098 7.45981Z" fill="white" fill-opacity="0.84"/>
<path opacity="0.2" d="M505.415 35.5655C511.415 45.958 507.854 59.2469 497.462 65.247C487.069 71.2471 473.78 67.6864 467.78 57.2939C461.78 46.9014 465.341 33.6125 475.733 27.6124C486.126 21.6123 499.415 25.173 505.415 35.5655Z" fill="white"/>
<path d="M661.816 1235.99C662.915 1231.82 661.358 1225.64 660.441 1223.08V1221.81L674.044 1225.01C674.364 1227.78 674.812 1234.41 674.044 1238.76C673.277 1243.11 669.247 1249.96 667.328 1252.83L655.496 1247.81C657.144 1245.61 660.716 1240.17 661.816 1235.99Z" fill="#EB9E0A"/>
<path d="M653.324 1300.04C653.725 1295.74 651.178 1289.9 649.855 1287.52L649.647 1286.27L663.59 1287.2C664.359 1289.88 665.887 1296.35 665.841 1300.77C665.796 1305.18 662.941 1312.59 661.519 1315.75L649.024 1312.73C650.29 1310.29 652.923 1304.34 653.324 1300.04Z" fill="#EB9E0A"/>
<path opacity="0.32" d="M618.469 1227.2C613.04 1226.22 601.873 1224.2 600.642 1224H600.129L604.746 1210.02L623.343 1218.48L618.469 1227.2Z" fill="white"/>
<path opacity="0.32" d="M627.349 1301.27C623.117 1301.94 614.414 1303.32 613.458 1303.49L613.082 1303.62L612.883 1292.19L628.686 1293.63L627.349 1301.27Z" fill="white"/>
<path opacity="0.5" d="M275.204 1514.72C218.468 1560.63 148.917 1519.88 121.233 1493.76C91.5194 1491.73 103.662 1566.69 172.54 1596.42C241.419 1626.14 293.429 1568.07 306.6 1555.58C319.77 1543.09 346.123 1457.33 275.204 1514.72Z" fill="#BE1144"/>
<path d="M462.619 1554.09L457.794 1518.83C492.239 1522.69 525.596 1517.22 537.968 1514L540.567 1554.09C536.979 1554.83 524.235 1556.46 501.964 1557.06C479.693 1557.65 466.454 1555.32 462.619 1554.09Z" fill="#FFCD4E"/>
<path d="M469.806 1552.31L465.929 1523.98C493.604 1527.08 520.404 1522.68 530.345 1520.1L532.432 1552.31C529.549 1552.9 519.311 1554.22 501.417 1554.69C483.524 1555.17 472.888 1553.3 469.806 1552.31Z" fill="#EB9E0A"/>
<path opacity="0.4" d="M481.204 1555.78C478.058 1554.75 471.583 1552.71 470.855 1552.71L495.305 1521.32H501.559L481.204 1555.78Z" fill="#FFCD4E"/>
<path opacity="0.4" d="M491.553 1556.44C488.406 1555.41 487.004 1556.44 486.276 1556.44L512.25 1521.98H514.979L491.553 1556.44Z" fill="#FFCD4E"/>
<path d="M656.542 1225.68L669.304 1241.99L688.512 1234.25L672.2 1247.01L679.946 1266.22L667.184 1249.9L647.975 1257.65L664.288 1244.89L656.542 1225.68Z" fill="white" fill-opacity="0.84"/>
<path opacity="0.2" d="M678.031 1240.3C681.152 1245.7 679.3 1252.61 673.894 1255.73C668.489 1258.85 661.577 1257 658.457 1251.6C655.336 1246.19 657.188 1239.28 662.593 1236.16C667.999 1233.04 674.91 1234.89 678.031 1240.3Z" fill="white"/>
<path d="M634.336 1067.42L647.098 1083.73L666.306 1075.99L649.994 1088.75L657.74 1107.96L644.978 1091.65L625.769 1099.39L642.082 1086.63L634.336 1067.42Z" fill="white" fill-opacity="0.84"/>
<path opacity="0.2" d="M655.825 1082.04C658.946 1087.44 657.094 1094.36 651.688 1097.48C646.283 1100.6 639.371 1098.75 636.251 1093.34C633.13 1087.93 634.982 1081.02 640.387 1077.9C645.792 1074.78 652.704 1076.63 655.825 1082.04Z" fill="white"/>
<path opacity="0.1" d="M906.811 1254.27C880.2 1275.01 861.927 1235.25 820.965 1182.69C780.002 1130.13 731.863 1084.69 758.474 1063.95C785.085 1043.21 839.864 1069 880.826 1121.56C921.788 1174.12 933.422 1233.53 906.811 1254.27Z" fill="white"/>
<path opacity="0.1" d="M87.1845 1297.26C108.991 1314.26 123.965 1281.67 157.531 1238.6C191.097 1195.54 230.544 1158.3 208.738 1141.3C186.932 1124.31 142.044 1145.44 108.478 1188.51C74.9118 1231.58 65.3784 1280.27 87.1845 1297.26Z" fill="white"/>
</g>
<defs>
<linearGradient id="paint0_linear_917_3779" x1="490.314" y1="1510.32" x2="490.314" y2="1132.67" gradientUnits="userSpaceOnUse">
<stop stop-color="#F50D44"/>
<stop offset="0.99" stop-color="#FB4F54"/>
</linearGradient>
<linearGradient id="paint1_linear_917_3779" x1="511.157" y1="1183.64" x2="511.157" y2="1132.67" gradientUnits="userSpaceOnUse">
<stop offset="0.01" stop-color="#C16688"/>
<stop offset="1" stop-color="#7E70F1"/>
</linearGradient>
<linearGradient id="paint2_linear_917_3779" x1="-23667.3" y1="52985.1" x2="-23667.3" y2="36780.8" gradientUnits="userSpaceOnUse">
<stop offset="0.01" stop-color="#B45C7D"/>
<stop offset="1" stop-color="#8A7EEA"/>
</linearGradient>
<linearGradient id="paint3_linear_917_3779" x1="743.002" y1="1522.48" x2="743.002" y2="975.149" gradientUnits="userSpaceOnUse">
<stop stop-color="#F50D44"/>
<stop offset="0.99" stop-color="#FB4F54"/>
</linearGradient>
<linearGradient id="paint4_linear_917_3779" x1="303.597" y1="1533.66" x2="303.597" y2="952.426" gradientUnits="userSpaceOnUse">
<stop stop-color="#F50D44"/>
<stop offset="0.99" stop-color="#FB4F54"/>
</linearGradient>
<linearGradient id="paint5_linear_917_3779" x1="628.627" y1="1062.82" x2="613.122" y2="1069.49" gradientUnits="userSpaceOnUse">
<stop stop-color="#FFD770"/>
<stop offset="1" stop-color="#FDBC12"/>
</linearGradient>
<linearGradient id="paint6_linear_917_3779" x1="623.7" y1="1042.48" x2="608.022" y2="1036.23" gradientUnits="userSpaceOnUse">
<stop stop-color="#FFD770"/>
<stop offset="1" stop-color="#FDBC12"/>
</linearGradient>
<linearGradient id="paint7_linear_917_3779" x1="678.144" y1="1064.18" x2="662.466" y2="1057.93" gradientUnits="userSpaceOnUse">
<stop stop-color="#FFD770"/>
<stop offset="1" stop-color="#FDBC12"/>
</linearGradient>
<linearGradient id="paint8_linear_917_3779" x1="644.697" y1="1069.23" x2="651.365" y2="1084.73" gradientUnits="userSpaceOnUse">
<stop stop-color="#FFD770"/>
<stop offset="1" stop-color="#FDBC12"/>
</linearGradient>
<linearGradient id="paint9_linear_917_3779" x1="673.309" y1="1028.27" x2="657.751" y2="1034.81" gradientUnits="userSpaceOnUse">
<stop stop-color="#FFD770"/>
<stop offset="1" stop-color="#FDBC12"/>
</linearGradient>
<linearGradient id="paint10_linear_917_3779" x1="560.236" y1="1141.21" x2="543.594" y2="1138.4" gradientUnits="userSpaceOnUse">
<stop stop-color="#FFD770"/>
<stop offset="1" stop-color="#FDBC12"/>
</linearGradient>
<linearGradient id="paint11_linear_917_3779" x1="567.133" y1="1121.45" x2="557.352" y2="1107.69" gradientUnits="userSpaceOnUse">
<stop stop-color="#FFD770"/>
<stop offset="1" stop-color="#FDBC12"/>
</linearGradient>
<linearGradient id="paint12_linear_917_3779" x1="570.261" y1="1155.31" x2="567.451" y2="1171.95" gradientUnits="userSpaceOnUse">
<stop stop-color="#FFD770"/>
<stop offset="1" stop-color="#FDBC12"/>
</linearGradient>
<linearGradient id="paint13_linear_917_3779" x1="598.907" y1="1110.76" x2="582.215" y2="1113.26" gradientUnits="userSpaceOnUse">
<stop stop-color="#FFD770"/>
<stop offset="1" stop-color="#FDBC12"/>
</linearGradient>
<linearGradient id="paint14_linear_917_3779" x1="599.322" y1="1089.83" x2="585.752" y2="1079.8" gradientUnits="userSpaceOnUse">
<stop stop-color="#FFD770"/>
<stop offset="1" stop-color="#FDBC12"/>
</linearGradient>
<linearGradient id="paint15_linear_917_3779" x1="646.447" y1="1124.68" x2="632.877" y2="1114.64" gradientUnits="userSpaceOnUse">
<stop stop-color="#FFD770"/>
<stop offset="1" stop-color="#FDBC12"/>
</linearGradient>
<linearGradient id="paint16_linear_917_3779" x1="612.817" y1="1121.04" x2="615.317" y2="1137.74" gradientUnits="userSpaceOnUse">
<stop stop-color="#FFD770"/>
<stop offset="1" stop-color="#FDBC12"/>
</linearGradient>
<linearGradient id="paint17_linear_917_3779" x1="398.521" y1="1054.36" x2="413.256" y2="1062.59" gradientUnits="userSpaceOnUse">
<stop stop-color="#FFD770"/>
<stop offset="1" stop-color="#FDBC12"/>
</linearGradient>
<linearGradient id="paint18_linear_917_3779" x1="460.614" y1="1141.21" x2="477.256" y2="1138.4" gradientUnits="userSpaceOnUse">
<stop stop-color="#FFD770"/>
<stop offset="1" stop-color="#FDBC12"/>
</linearGradient>
<linearGradient id="paint19_linear_917_3779" x1="453.717" y1="1121.45" x2="463.498" y2="1107.7" gradientUnits="userSpaceOnUse">
<stop stop-color="#FFD770"/>
<stop offset="1" stop-color="#FDBC12"/>
</linearGradient>
<linearGradient id="paint20_linear_917_3779" x1="450.588" y1="1155.31" x2="453.399" y2="1171.95" gradientUnits="userSpaceOnUse">
<stop stop-color="#FFD770"/>
<stop offset="1" stop-color="#FDBC12"/>
</linearGradient>
<linearGradient id="paint21_linear_917_3779" x1="422.593" y1="1119.7" x2="437.092" y2="1128.34" gradientUnits="userSpaceOnUse">
<stop stop-color="#FFD770"/>
<stop offset="1" stop-color="#FDBC12"/>
</linearGradient>
<linearGradient id="paint22_linear_917_3779" x1="430.14" y1="1100.18" x2="446.501" y2="1096.04" gradientUnits="userSpaceOnUse">
<stop stop-color="#FFD770"/>
<stop offset="1" stop-color="#FDBC12"/>
</linearGradient>
<linearGradient id="paint23_linear_917_3779" x1="450.712" y1="1119.31" x2="460.493" y2="1105.56" gradientUnits="userSpaceOnUse">
<stop stop-color="#FFD770"/>
<stop offset="1" stop-color="#FDBC12"/>
</linearGradient>
<linearGradient id="paint24_linear_917_3779" x1="373.323" y1="1114.57" x2="389.684" y2="1110.43" gradientUnits="userSpaceOnUse">
<stop stop-color="#FFD770"/>
<stop offset="1" stop-color="#FDBC12"/>
</linearGradient>
<linearGradient id="paint25_linear_917_3779" x1="405.822" y1="1123.95" x2="397.182" y2="1138.45" gradientUnits="userSpaceOnUse">
<stop stop-color="#FFD770"/>
<stop offset="1" stop-color="#FDBC12"/>
</linearGradient>
<linearGradient id="paint26_linear_917_3779" x1="499.241" y1="362.766" x2="499.241" y2="1061.87" gradientUnits="userSpaceOnUse">
<stop stop-color="#FFBC98"/>
<stop offset="1" stop-color="#FAC4A6"/>
</linearGradient>
<linearGradient id="paint27_linear_917_3779" x1="532.978" y1="922.083" x2="532.978" y2="215.362" gradientUnits="userSpaceOnUse">
<stop offset="0.01" stop-color="#3D2B2B"/>
<stop offset="0.99" stop-color="#392419"/>
</linearGradient>
<linearGradient id="paint28_linear_917_3779" x1="-28708" y1="15233.6" x2="-28708" y2="9799.53" gradientUnits="userSpaceOnUse">
<stop offset="0.01" stop-color="#3B2720"/>
<stop offset="0.99" stop-color="#4A3020"/>
</linearGradient>
<linearGradient id="paint29_linear_917_3779" x1="-23156.2" y1="12279" x2="-23156.2" y2="7899.35" gradientUnits="userSpaceOnUse">
<stop offset="0.01" stop-color="#3B2720"/>
<stop offset="0.99" stop-color="#4A3020"/>
</linearGradient>
<linearGradient id="paint30_linear_917_3779" x1="-23700.9" y1="9889.53" x2="-23700.9" y2="8467.33" gradientUnits="userSpaceOnUse">
<stop offset="0.01" stop-color="#3B2821"/>
<stop offset="0.99" stop-color="#6C5045"/>
</linearGradient>
<linearGradient id="paint31_linear_917_3779" x1="527.147" y1="559.185" x2="527.147" y2="255.964" gradientUnits="userSpaceOnUse">
<stop offset="0.01" stop-color="#3D2B2B"/>
<stop offset="0.99" stop-color="#392419"/>
</linearGradient>
<linearGradient id="paint32_linear_917_3779" x1="529.081" y1="227.867" x2="317.075" y2="539.381" gradientUnits="userSpaceOnUse">
<stop stop-color="#4B3021"/>
<stop offset="1" stop-color="#241610"/>
</linearGradient>
<linearGradient id="paint33_linear_917_3779" x1="439.531" y1="684.875" x2="439.531" y2="781.014" gradientUnits="userSpaceOnUse">
<stop stop-color="#F5B694"/>
<stop offset="1" stop-color="#FF7762"/>
</linearGradient>
<linearGradient id="paint34_linear_917_3779" x1="592.655" y1="581.193" x2="592.655" y2="738.092" gradientUnits="userSpaceOnUse">
<stop stop-color="#FFF601"/>
<stop offset="1" stop-color="#F5C001"/>
</linearGradient>
<linearGradient id="paint35_linear_917_3779" x1="308.035" y1="579.439" x2="308.035" y2="736.338" gradientUnits="userSpaceOnUse">
<stop stop-color="#FFF601"/>
<stop offset="1" stop-color="#F5C001"/>
</linearGradient>
<linearGradient id="paint36_linear_917_3779" x1="723.954" y1="470.531" x2="798.236" y2="567.235" gradientUnits="userSpaceOnUse">
<stop stop-color="#6D5145"/>
<stop offset="1" stop-color="#6D5145" stop-opacity="0"/>
</linearGradient>
<linearGradient id="paint37_linear_917_3779" x1="734.918" y1="533.005" x2="809.201" y2="629.709" gradientUnits="userSpaceOnUse">
<stop stop-color="#6D5145"/>
<stop offset="1" stop-color="#6D5145" stop-opacity="0"/>
</linearGradient>
<clipPath id="clip0_917_3779">
<rect width="1045" height="1688" fill="white"/>
</clipPath>
</defs>
</svg>
