<svg width="201" height="250" viewBox="0 0 201 250" fill="none" xmlns="http://www.w3.org/2000/svg">
<g clip-path="url(#clip0_1412_42444)">
<path d="M147.505 155.582C146.333 134.488 118.671 138.706 116.092 138.706C101.401 140.035 69.8155 143.582 61.0009 147.144C52.1864 150.707 61.5479 160.192 67.3305 164.489L116.092 155.582C126.954 162.614 148.443 172.458 147.505 155.582Z" fill="#F3E8FF"/>
<path d="M40.5422 175.43L83.9995 154.683L120.884 152.742L167.474 179.591L125.413 265.637H62.9693L40.5422 175.43Z" fill="#7854AE"/>
<path d="M70.3717 177.964L74.1944 162.167L98.1502 152.357L132.81 152.994C132.385 156.434 131.484 163.441 131.28 163.95C131.077 164.46 126.353 175.204 124.017 180.512L102.355 188.029L70.3717 177.964Z" fill="black" fill-opacity="0.23"/>
<path d="M96.0159 261.127C80.7817 262.201 70.2186 258.646 66.8413 256.734V252.34C72.7006 253.276 86.7386 255.147 96.0159 255.147C105.293 255.147 119.494 251.323 125.434 249.411L128.486 254.049C124.01 255.961 111.25 260.053 96.0159 261.127Z" fill="#1F0202"/>
<path d="M119.028 172.963L116.733 160.214C116.578 159.354 115.829 158.728 114.954 158.728H87.203C86.1478 158.728 85.3171 159.628 85.4021 160.68L87.154 182.349C87.2298 183.287 88.0135 184.01 88.9549 184.01H107.246C107.69 184.01 108.118 183.846 108.449 183.551L118.452 174.631C118.921 174.213 119.139 173.581 119.028 172.963Z" fill="#BC896E"/>
<path fill-rule="evenodd" clip-rule="evenodd" d="M81.8267 239.875C83.2492 243.891 85.2429 247.683 87.7468 251.133C88.1517 251.638 88.5932 252.112 89.0679 252.551L90.0151 251.929L103.164 243.221C103.164 243.221 98.9887 215.393 99.4249 193.572C101.993 192.889 104.363 191.61 106.342 189.84C106.84 189.365 107.26 188.815 107.588 188.211C107.823 186.243 107.671 184.248 107.14 182.339C106.99 181.923 106.721 181.56 106.367 181.294C106.367 181.294 96.1595 180.05 91.9843 180.386C90.8572 181.792 90.2931 183.565 90.4015 185.362C91.0147 187.005 91.7869 188.584 92.7072 190.077C93.309 191.076 93.9971 192.021 94.7636 192.901L94.5891 193.361C94.5891 193.523 94.4521 193.722 94.3773 193.958C94.3025 194.194 94.1031 194.655 93.9535 195.09L93.8289 195.439L93.4674 196.459L93.3179 196.869C91.9345 200.75 89.7409 207.157 87.5972 214.534C85.2882 222.268 83.4609 230.137 82.1258 238.096C81.9887 238.631 81.9015 239.215 81.8267 239.875Z" fill="url(#paint0_linear_1412_42444)"/>
<path style="mix-blend-mode:multiply" opacity="0.5" d="M90.3649 185.276C90.9781 186.919 91.7503 188.498 92.6706 189.991C92.6706 189.991 93.6427 183.771 96.584 182.117C99.7999 181.424 103.127 181.424 106.343 182.117C106.589 182.177 106.839 182.223 107.091 182.253C106.941 181.837 106.672 181.474 106.318 181.208C106.318 181.208 96.1104 179.964 91.9352 180.3C90.8126 181.708 90.253 183.481 90.3649 185.276Z" fill="url(#paint1_linear_1412_42444)"/>
<path style="mix-blend-mode:multiply" opacity="0.5" d="M81.8831 240.039C81.8831 240.039 83.3614 244.473 84.3469 245.951C85.3324 247.429 88.7816 252.848 88.7816 252.848L90.0158 251.869L103.165 243.161C103.165 243.161 98.9894 215.332 99.4256 193.512C101.993 192.829 104.363 191.55 106.343 189.78C106.343 189.78 99.5254 192.915 94.727 192.84L94.5525 193.3L94.3406 193.898L93.9168 195.03L93.7922 195.378L93.4308 196.398L93.2812 196.809L98.0547 202.83C98.0547 202.83 99.5378 229.464 97.0452 239.13C94.7611 240.563 92.0778 241.23 89.3871 241.033C86.6964 240.836 84.1393 239.786 82.0892 238.035L81.8831 240.039Z" fill="url(#paint2_linear_1412_42444)"/>
<path d="M97.6206 179.658L103.339 181.943L107.678 202.395C119.383 194.873 128.273 177.808 128.273 177.808L120.035 164.887L117.681 164.887L117.306 166.954C111.616 174.58 97.6206 179.658 97.6206 179.658Z" fill="#ECE6AE"/>
<path d="M77.5801 180.617C77.5801 180.617 76.8269 193.871 80.6841 199.35C80.6841 199.35 89.0743 184.22 91.1285 181.925L96.7925 179.58L92.9673 177.642C92.9673 177.642 88.28 174.472 86.3292 170.696L83.1114 174.246L77.5801 180.617Z" fill="#ECE6AE"/>
<path d="M182.16 237.46L165.809 200.729C160.712 200.729 156.748 210.071 155.403 214.742L170.905 243.617L182.16 237.46Z" fill="#BBAAD3"/>
<path d="M31.1968 231.951L47.5485 195.219C52.6452 195.219 56.6092 204.561 57.9541 209.233L42.4519 238.108L31.1968 231.951Z" fill="#BBAAD3"/>
<path opacity="0.24" d="M42.9524 210.783L41.7815 196.395C56.5158 190.533 84.4038 176.645 86.0276 175.382C87.6514 174.119 86.7042 175.908 86.0276 176.96L42.9524 210.783Z" fill="#E4E4F1"/>
<path d="M187.287 260.95C217.259 205.841 147.935 150.736 146.411 150.228C138.029 161.487 120.807 184.258 118.979 185.274C117.15 186.29 118.217 229.378 118.979 250.795C121.603 257.821 163.309 305.037 187.287 260.95Z" fill="url(#paint3_linear_1412_42444)"/>
<path opacity="0.5" d="M174.439 242.639C164.218 258.634 143.704 254.302 134.724 250.137C127.225 252.08 136.39 269.574 155.831 271.24C175.272 272.906 183.326 254.302 185.548 250.137C187.77 245.972 187.214 222.647 174.439 242.639Z" fill="#BE1144"/>
<path d="M15.5856 254.425C-14.3871 199.317 42.303 157.697 60.7575 145.889C69.1397 157.147 72.7222 148.015 74.551 149.031C76.3798 150.046 55.6087 169.812 79.0516 254.425C76.4269 261.451 39.5637 298.512 15.5856 254.425Z" fill="url(#paint4_linear_1412_42444)"/>
<path d="M127.615 192.421C132.441 174.644 138.799 154.071 151.296 154.071C151.296 154.071 161.196 141.754 143.611 138.789C126.027 135.823 130.663 149.756 130.663 149.756C125.752 164.316 118.47 171.85 115.93 192.421C113.39 212.991 115.253 226.536 115.93 239.403L119.232 263.529L120.837 260.688C120.837 260.688 122.788 210.198 127.615 192.421Z" fill="#F3E8FF"/>
<path d="M69.4182 206.356C68.2422 182.252 76.1273 156.294 76.1273 156.294C76.1273 156.294 72.1845 148.562 65.8901 146.977C59.5956 145.393 53.7085 150.422 49.4256 159.912C39.8698 181.085 44.7216 201.064 52.9538 223.993C61.1859 246.921 69.4182 266.439 69.4182 266.439C69.4182 266.439 71.4087 273.472 76.1273 274.226C80.846 274.979 86.3732 271.714 86.3732 271.714C86.3732 271.714 70.5943 230.459 69.4182 206.356Z" fill="#F3E8FF"/>
<path d="M117.525 162.392C118.345 162.04 119.295 162.418 119.647 163.237L122.773 170.505C123.125 171.325 122.747 172.274 121.927 172.627C121.108 172.979 120.158 172.6 119.806 171.781L116.68 164.513C116.327 163.694 116.706 162.744 117.525 162.392Z" fill="url(#paint5_linear_1412_42444)"/>
<path d="M119.985 159.326C120.813 159.656 121.217 160.595 120.887 161.424L119.647 164.534C119.317 165.362 118.378 165.766 117.549 165.436C116.72 165.106 116.316 164.166 116.647 163.338L117.886 160.228C118.217 159.4 119.156 158.996 119.985 159.326Z" fill="url(#paint6_linear_1412_42444)"/>
<path d="M130.405 163.478C131.233 163.809 131.637 164.748 131.307 165.576L130.067 168.686C129.737 169.515 128.798 169.919 127.969 169.588C127.14 169.258 126.736 168.319 127.067 167.491L128.306 164.381C128.637 163.552 129.576 163.148 130.405 163.478Z" fill="url(#paint7_linear_1412_42444)"/>
<path d="M130.042 167.38C129.69 166.561 128.74 166.182 127.92 166.534L120.651 169.66C119.832 170.012 119.453 170.962 119.805 171.781C120.158 172.6 121.108 172.979 121.927 172.627L129.196 169.501C130.016 169.149 130.394 168.199 130.042 167.38Z" fill="url(#paint8_linear_1412_42444)"/>
<path d="M130.433 166.021C131.255 165.675 131.641 164.728 131.296 163.906L128.227 156.614C127.881 155.792 126.935 155.406 126.112 155.751C125.29 156.097 124.904 157.044 125.25 157.866L128.318 165.158C128.664 165.98 129.611 166.366 130.433 166.021Z" fill="url(#paint9_linear_1412_42444)"/>
<path d="M125.622 176.652C124.74 176.784 123.918 176.176 123.786 175.294L122.614 167.47C122.482 166.588 123.09 165.766 123.972 165.634C124.854 165.502 125.676 166.109 125.808 166.991L126.981 174.815C127.113 175.697 126.505 176.519 125.622 176.652Z" fill="#FFBC0E"/>
<path d="M117.144 167.389C117.861 167.919 118.013 168.931 117.482 169.648L115.491 172.34C114.961 173.057 113.95 173.208 113.233 172.678C112.515 172.148 112.364 171.136 112.894 170.419L114.885 167.727C115.415 167.01 116.427 166.859 117.144 167.389Z" fill="#FFBC0E"/>
<path d="M126.163 174.057C126.88 174.588 127.032 175.599 126.502 176.316L124.511 179.008C123.98 179.725 122.969 179.876 122.252 179.346C121.535 178.816 121.383 177.805 121.913 177.087L123.904 174.396C124.435 173.679 125.446 173.527 126.163 174.057Z" fill="#FFBC0E"/>
<path d="M114.789 168.642C114.921 169.524 115.743 170.132 116.625 169.999L124.45 168.828C125.333 168.695 125.941 167.873 125.809 166.991C125.676 166.109 124.854 165.502 123.972 165.634L116.147 166.806C115.264 166.938 114.656 167.76 114.789 168.642Z" fill="#FFBC0E"/>
<path d="M108.025 192.235C107.145 192.087 106.553 191.254 106.701 190.374L108.019 182.573C108.167 181.694 109 181.102 109.88 181.25C110.76 181.399 111.352 182.232 111.204 183.111L109.886 190.912C109.738 191.791 108.904 192.384 108.025 192.235Z" fill="#FFBC0E"/>
<path d="M107.456 176.109C108.335 176.258 108.928 177.091 108.78 177.97L107.462 185.771C107.314 186.651 106.48 187.243 105.601 187.095C104.721 186.946 104.129 186.113 104.277 185.233L105.594 177.433C105.743 176.553 106.576 175.961 107.456 176.109Z" fill="url(#paint10_linear_1412_42444)"/>
<path d="M111.186 174.867C111.702 175.594 111.532 176.602 110.805 177.119L108.076 179.059C107.349 179.576 106.341 179.406 105.824 178.679C105.307 177.952 105.478 176.944 106.204 176.427L108.933 174.487C109.66 173.97 110.669 174.141 111.186 174.867Z" fill="url(#paint11_linear_1412_42444)"/>
<path d="M102.854 180.812C103.367 181.533 103.204 182.533 102.488 183.053L98.2613 186.126C97.5345 186.655 96.516 186.489 95.9952 185.756C95.4822 185.035 95.6456 184.035 96.3615 183.515L100.588 180.441C101.315 179.913 102.334 180.079 102.854 180.812Z" fill="#FFBC0E"/>
<path d="M109.357 189.955C109.869 190.675 109.707 191.673 108.993 192.194L104.389 195.558C103.662 196.088 102.642 195.923 102.12 195.189C101.608 194.469 101.77 193.471 102.484 192.95L107.088 189.587C107.815 189.056 108.835 189.221 109.357 189.955Z" fill="#FFBC0E"/>
<path d="M100.216 181.256C100.068 182.136 100.66 182.969 101.54 183.117L109.342 184.435C110.222 184.583 111.055 183.991 111.204 183.111C111.352 182.232 110.76 181.399 109.88 181.25L102.078 179.933C101.198 179.784 100.365 180.377 100.216 181.256Z" fill="#FFBC0E"/>
<path d="M115.264 187.088C115.413 186.209 114.82 185.376 113.941 185.227L106.138 183.91C105.259 183.762 104.426 184.354 104.277 185.233C104.128 186.113 104.721 186.946 105.601 187.095L113.403 188.412C114.283 188.56 115.116 187.968 115.264 187.088Z" fill="url(#paint12_linear_1412_42444)"/>
<path d="M116.941 185.896C116.062 185.748 115.469 184.915 115.617 184.035L116.935 176.234C117.083 175.355 117.917 174.763 118.796 174.911C119.676 175.059 120.269 175.893 120.12 176.772L118.803 184.573C118.654 185.452 117.821 186.045 116.941 185.896Z" fill="#FFBC0E"/>
<path d="M113.099 170.774C113.982 170.642 114.804 171.25 114.936 172.132L116.108 179.956C116.24 180.838 115.632 181.66 114.75 181.792C113.868 181.924 113.046 181.316 112.914 180.434L111.741 172.61C111.609 171.729 112.217 170.906 113.099 170.774Z" fill="url(#paint13_linear_1412_42444)"/>
<path d="M116.259 168.435C116.976 168.966 117.127 169.977 116.597 170.694L114.606 173.386C114.076 174.103 113.064 174.254 112.347 173.724C111.63 173.194 111.478 172.183 112.009 171.466L114 168.774C114.53 168.057 115.541 167.905 116.259 168.435Z" fill="url(#paint14_linear_1412_42444)"/>
<path d="M111.761 174.458C112.278 175.185 112.107 176.193 111.38 176.71L108.652 178.65C107.925 179.167 106.916 178.997 106.399 178.27C105.882 177.543 106.053 176.535 106.78 176.018L109.509 174.078C110.236 173.561 111.244 173.732 111.761 174.458Z" fill="#FFBC0E"/>
<path d="M125.278 175.104C125.995 175.634 126.146 176.645 125.616 177.362L123.625 180.054C123.095 180.771 122.084 180.922 121.366 180.392C120.649 179.862 120.498 178.851 121.028 178.134L123.019 175.442C123.549 174.725 124.561 174.573 125.278 175.104Z" fill="url(#paint15_linear_1412_42444)"/>
<path d="M118.261 183.598C118.778 184.325 118.608 185.333 117.881 185.85L115.152 187.79C114.425 188.307 113.417 188.137 112.9 187.41C112.383 186.683 112.553 185.675 113.28 185.158L116.009 183.218C116.736 182.701 117.744 182.872 118.261 183.598Z" fill="#FFBC0E"/>
<path d="M109.133 174.917C108.984 175.796 109.577 176.63 110.456 176.778L118.259 178.095C119.138 178.244 119.972 177.651 120.12 176.772C120.269 175.893 119.676 175.059 118.797 174.911L110.994 173.594C110.115 173.445 109.281 174.038 109.133 174.917Z" fill="#FFBC0E"/>
<path d="M123.934 178.784C123.801 177.902 122.979 177.294 122.097 177.426L114.272 178.598C113.389 178.73 112.781 179.553 112.914 180.434C113.046 181.316 113.868 181.924 114.75 181.792L122.576 180.62C123.458 180.488 124.066 179.666 123.934 178.784Z" fill="url(#paint16_linear_1412_42444)"/>
<path opacity="0.1" d="M151.519 154.242C139.05 153.424 134.246 163.54 121.16 171.67C114.653 173.635 104.55 177.352 96.6636 177.352C86.6741 177.352 80.0818 173.002 72.7357 170.037C70.5272 169.146 71.2779 158.196 51.2152 156.81C51.2152 156.81 58.1494 133.978 99.2748 129.14C112.022 129.14 125.71 130.946 133.671 135.522C136.939 137.4 139.914 135.564 143.342 138.71C148.044 139.834 158.98 141.775 151.519 154.242Z" fill="#1F0101"/>
<path d="M80.1847 163.168C79.4059 162.733 78.422 163.012 77.9871 163.791L76.3541 166.713C75.9191 167.492 76.1978 168.476 76.9765 168.911C77.7553 169.346 78.7392 169.067 79.1742 168.288L80.8071 165.366C81.2421 164.587 80.9634 163.603 80.1847 163.168Z" fill="url(#paint17_linear_1412_42444)"/>
<path d="M72.5264 175.55C73.2926 176.007 74.284 175.756 74.7406 174.99L78.7911 168.194C79.2478 167.428 78.9967 166.436 78.2305 165.98C77.4642 165.523 76.4729 165.774 76.0163 166.54L71.9657 173.337C71.5091 174.103 71.7601 175.094 72.5264 175.55Z" fill="#FFBC0E"/>
<path d="M85.6145 172.252C85.1579 173.018 84.1666 173.269 83.4004 172.812L76.6029 168.762C75.8367 168.306 75.5857 167.315 76.0423 166.549C76.4989 165.783 77.4902 165.532 78.2565 165.988L85.0539 170.038C85.8201 170.494 86.0712 171.486 85.6145 172.252Z" fill="#FFBC0E"/>
<path d="M89.1506 192.236C90.0302 192.088 90.6228 191.255 90.4743 190.375L89.1568 182.574C89.0083 181.695 88.1749 181.103 87.2953 181.251C86.4158 181.4 85.8232 182.233 85.9717 183.112L87.2892 190.913C87.4377 191.792 88.2711 192.385 89.1506 192.236Z" fill="#FFBC0E"/>
<path d="M89.7194 176.11C88.8398 176.259 88.2472 177.092 88.3957 177.971L89.7132 185.772C89.8617 186.652 90.6951 187.244 91.5746 187.096C92.4542 186.947 93.0468 186.114 92.8983 185.234L91.5808 177.434C91.4323 176.554 90.5989 175.962 89.7194 176.11Z" fill="url(#paint18_linear_1412_42444)"/>
<path d="M85.9897 174.868C85.4728 175.595 85.6431 176.603 86.37 177.12L89.099 179.06C89.8259 179.577 90.8342 179.407 91.3512 178.68C91.8681 177.953 91.6978 176.945 90.9709 176.428L88.2419 174.488C87.515 173.971 86.5066 174.142 85.9897 174.868Z" fill="url(#paint19_linear_1412_42444)"/>
<path d="M94.321 180.813C93.808 181.534 93.9714 182.534 94.6873 183.054L98.9141 186.127C99.6409 186.656 100.659 186.49 101.18 185.757C101.693 185.036 101.53 184.036 100.814 183.516L96.587 180.442C95.8603 179.914 94.8418 180.08 94.321 180.813Z" fill="#FFBC0E"/>
<path d="M87.8185 189.955C87.3063 190.675 87.4683 191.673 88.1819 192.195L92.7863 195.558C93.513 196.089 94.5336 195.923 95.0551 195.19C95.5673 194.47 95.4054 193.472 94.6918 192.951L90.0874 189.587C89.3606 189.056 88.3401 189.222 87.8185 189.955Z" fill="#FFBC0E"/>
<path d="M96.9591 181.257C97.1076 182.137 96.515 182.97 95.6354 183.118L87.8331 184.436C86.9536 184.584 86.1202 183.992 85.9716 183.112C85.8231 182.233 86.4157 181.4 87.2953 181.251L95.0976 179.934C95.9771 179.785 96.8105 180.378 96.9591 181.257Z" fill="#FFBC0E"/>
<path d="M81.9109 187.089C81.7624 186.21 82.355 185.377 83.2345 185.228L91.0368 183.911C91.9163 183.763 92.7497 184.355 92.8983 185.235C93.0468 186.114 92.4542 186.947 91.5746 187.096L83.7723 188.413C82.8928 188.561 82.0594 187.969 81.9109 187.089Z" fill="url(#paint20_linear_1412_42444)"/>
<path d="M80.2342 185.897C81.1137 185.749 81.7063 184.916 81.5578 184.036L80.2404 176.235C80.0919 175.356 79.2585 174.764 78.3789 174.912C77.4994 175.061 76.9068 175.894 77.0553 176.773L78.3727 184.574C78.5213 185.453 79.3547 186.046 80.2342 185.897Z" fill="#FFBC0E"/>
<path d="M86.0172 173.798C85.2509 173.341 84.2596 173.592 83.803 174.358L79.7524 181.154C79.2958 181.92 79.5468 182.911 80.3131 183.368C81.0794 183.824 82.0707 183.573 82.5273 182.807L86.5779 176.011C87.0345 175.245 86.7834 174.254 86.0172 173.798Z" fill="url(#paint21_linear_1412_42444)"/>
<path d="M83.9804 170.436C83.1157 170.655 82.5922 171.533 82.8112 172.398L83.6331 175.643C83.8521 176.508 84.7306 177.031 85.5953 176.812C86.46 176.593 86.9834 175.715 86.7645 174.851L85.9425 171.605C85.7236 170.741 84.8451 170.217 83.9804 170.436Z" fill="url(#paint22_linear_1412_42444)"/>
<path d="M85.4145 174.459C84.8976 175.186 85.0679 176.194 85.7948 176.711L88.5238 178.651C89.2507 179.168 90.2591 178.998 90.776 178.271C91.2929 177.544 91.1226 176.536 90.3957 176.019L87.6667 174.079C86.9398 173.562 85.9314 173.733 85.4145 174.459Z" fill="url(#paint23_linear_1412_42444)"/>
<path d="M73.1063 173.189C72.2416 173.408 71.7181 174.286 71.9371 175.151L72.759 178.396C72.978 179.261 73.8565 179.784 74.7212 179.565C75.5859 179.346 76.1093 178.468 75.8904 177.603L75.0684 174.358C74.8495 173.494 73.971 172.97 73.1063 173.189Z" fill="url(#paint24_linear_1412_42444)"/>
<path d="M78.914 183.599C78.3971 184.326 78.5673 185.334 79.2943 185.851L82.0232 187.791C82.7502 188.308 83.7585 188.138 84.2754 187.411C84.7923 186.684 84.622 185.676 83.8951 185.159L81.1662 183.219C80.4392 182.702 79.4309 182.873 78.914 183.599Z" fill="#FFBC0E"/>
<path d="M88.0426 174.918C88.1911 175.797 87.5985 176.631 86.7189 176.779L78.9166 178.096C78.0371 178.245 77.2037 177.652 77.0551 176.773C76.9066 175.894 77.4992 175.06 78.3788 174.912L86.1811 173.595C87.0606 173.446 87.894 174.039 88.0426 174.918Z" fill="#FFBC0E"/>
<path d="M72.955 177.105C73.4116 176.338 74.403 176.087 75.1692 176.544L81.9666 180.594C82.7329 181.05 82.9839 182.041 82.5273 182.808C82.0707 183.574 81.0794 183.825 80.3131 183.368L73.5157 179.318C72.7494 178.862 72.4984 177.871 72.955 177.105Z" fill="url(#paint25_linear_1412_42444)"/>
<path d="M36.2178 79.4045C28.7107 70.0579 37.4571 53.7957 42.7687 46.8329L68.9727 36.7428L58.7036 94.0971H42.7687C43.713 93.094 43.7248 88.7512 36.2178 79.4045Z" fill="#23140D"/>
<path d="M150.943 105.185C150.519 145.526 127.741 164.973 99.5929 166.591C71.4447 168.208 44.9503 150.043 42.9708 123.172C42.9708 123.172 41.3596 79.8013 42.0622 63.0468C43.1289 16.7666 114.245 33.9216 149.669 48.2841C150.235 53.8044 151.283 72.913 150.943 105.185Z" fill="url(#paint26_linear_1412_42444)"/>
<path d="M126.889 106.468C126.966 108.913 122.166 111.048 116.166 111.237C110.167 111.427 105.241 109.598 105.164 107.153C105.087 104.708 109.888 102.572 115.887 102.383C121.886 102.194 126.812 104.023 126.889 106.468Z" fill="#FCA28E"/>
<path d="M69.3198 106.468C69.397 108.913 64.5961 111.048 58.5969 111.237C52.5976 111.427 47.6717 109.598 47.5946 107.153C47.5174 104.708 52.3182 102.572 58.3175 102.383C64.3167 102.194 69.2426 104.023 69.3198 106.468Z" fill="#FCA28E"/>
<path opacity="0.2" d="M81.3106 88.15C81.2418 89.3443 80.4496 90.2701 79.5412 90.2178C78.6328 90.1655 77.9521 89.1549 78.0209 87.9606C78.0897 86.7664 78.8819 85.8406 79.7903 85.8929C80.6987 85.9452 81.3794 86.9558 81.3106 88.15Z" fill="#F1B69E"/>
<path opacity="0.2" d="M84.8496 85.1905C84.7808 86.3847 83.9886 87.3105 83.0802 87.2582C82.1718 87.2059 81.4911 86.1953 81.5599 85.0011C81.6287 83.8068 82.4209 82.881 83.3293 82.9333C84.2377 82.9856 84.9184 83.9962 84.8496 85.1905Z" fill="#F1B69E"/>
<path opacity="0.2" d="M88.388 88.7201C88.3192 89.9144 87.5271 90.8401 86.6186 90.7878C85.7102 90.7355 85.0296 89.725 85.0984 88.5307C85.1671 87.3364 85.9593 86.4107 86.8677 86.463C87.7762 86.5153 88.4568 87.5258 88.388 88.7201Z" fill="#F1B69E"/>
<path d="M63.6409 87.1302C63.3803 91.6554 59.5197 95.1136 55.018 94.8544C50.5164 94.5952 47.0784 90.7168 47.339 86.1916C47.5996 81.6665 51.4602 78.2083 55.9619 78.4675C60.4635 78.7266 63.9015 82.6051 63.6409 87.1302Z" fill="#E89979"/>
<path d="M118.667 87.1302C118.407 91.6554 114.546 95.1136 110.045 94.8544C105.543 94.5952 102.105 90.7168 102.366 86.1916C102.626 81.6665 106.487 78.2083 110.988 78.4675C115.49 78.7266 118.928 82.6051 118.667 87.1302Z" fill="#E89979"/>
<path opacity="0.3" d="M132.206 53.1414C131.945 57.6665 123.743 60.8748 113.885 60.3073C104.028 59.7397 96.2484 55.6113 96.509 51.0862C96.7697 46.561 104.972 43.3528 114.829 43.9203C124.687 44.4878 132.466 48.6163 132.206 53.1414Z" fill="#FAEDFF"/>
<path opacity="0.3" d="M124.119 49.7726C123.945 52.7941 118.469 54.9362 111.887 54.5573C105.305 54.1783 100.111 51.4218 100.285 48.4004C100.459 45.3789 105.935 43.2368 112.517 43.6157C119.099 43.9946 124.293 46.7512 124.119 49.7726Z" fill="#FAEDFF"/>
<path opacity="0.3" d="M101.97 154.629C101.796 157.651 96.3192 159.793 89.7374 159.414C83.1557 159.035 77.9612 156.279 78.1352 153.257C78.3093 150.236 83.7859 148.094 90.3676 148.473C96.9494 148.851 102.144 151.608 101.97 154.629Z" fill="#FAEDFF"/>
<path opacity="0.3" d="M96.7564 156.669C96.6565 158.403 93.5141 159.632 89.7375 159.414C85.961 159.197 82.9804 157.615 83.0803 155.881C83.1801 154.148 86.3226 152.919 90.0991 153.136C93.8757 153.353 96.8562 154.935 96.7564 156.669Z" fill="#FAEDFF"/>
<mask id="mask0_1412_42444" style="mask-type:alpha" maskUnits="userSpaceOnUse" x="51" y="113" width="72" height="31">
<path d="M57.7454 115.791C60.4059 116.505 67.7225 116.846 71.0482 116.927C78.592 116.927 94.7339 116.829 98.9519 116.44C104.224 115.953 126.612 108.492 122.151 120.252C117.69 132.011 104.873 143.284 86.0546 143.771C67.2359 144.257 54.5008 127.713 51.9862 122.847C49.4716 117.981 54.4197 114.899 57.7454 115.791Z" fill="#AA2727"/>
</mask>
<g mask="url(#mask0_1412_42444)">
<path d="M57.7454 115.791C60.4059 116.505 67.7225 116.846 71.0482 116.927C78.592 116.927 94.7339 116.829 98.9519 116.44C104.224 115.953 126.612 108.492 122.151 120.252C117.69 132.011 104.873 143.284 86.0546 143.771C67.2359 144.257 54.5008 127.713 51.9862 122.847C49.4716 117.981 54.4197 114.899 57.7454 115.791Z" fill="#AA2727"/>
<path d="M57.1618 117.657C59.5815 118.306 66.2358 118.616 69.2605 118.69C76.1214 118.69 90.8022 118.601 94.6383 118.247C99.4336 117.805 119.795 111.019 115.737 121.714C111.68 132.409 100.024 142.661 82.9085 143.104C65.7932 143.547 54.2109 128.5 51.924 124.074C49.637 119.649 54.1371 116.846 57.1618 117.657Z" fill="#F35353"/>
<path d="M61.759 121.462C60.445 121.052 59.2945 117.544 58.8764 115.815C64.4578 116.167 76.6885 116.82 84.2522 116.82C92.0113 116.82 108.631 113.893 114.071 113.725C114.071 113.725 114.239 116.487 112.523 118.264C110.808 120.042 100.926 123.34 90.443 124.248C77.3392 125.382 63.4099 121.978 61.759 121.462Z" fill="#E4E4F1"/>
<path d="M99.8143 133.94C99.8143 136.348 94.147 138.299 87.1561 138.299C80.1652 138.299 74.4979 136.348 74.4979 133.94C74.4979 131.532 80.1652 129.58 87.1561 129.58C94.147 129.58 99.8143 131.532 99.8143 133.94Z" fill="#E33867"/>
<path d="M66.454 134.65L65.866 138.177C69.3941 140.137 78.0967 144.291 84.6825 145.232C91.2683 146.173 101.539 142.881 105.851 141.117C105.655 138.765 105.188 136.081 105.059 135.428C104.824 134.233 104.215 132.726 103.039 133.313C101.862 133.901 96.0128 134.604 85.6026 134.65C75.1925 134.696 71.1581 133.474 68.8061 132.886C66.454 132.298 66.454 134.65 66.454 134.65Z" fill="#E4E4F1"/>
</g>
<path d="M115.06 86.727C115.06 90.0851 112.337 92.8073 108.978 92.8073C105.619 92.8073 102.897 90.0851 102.897 86.727C102.897 83.3689 105.619 80.6466 108.978 80.6466C112.337 80.6466 115.06 83.3689 115.06 86.727Z" fill="#261611"/>
<path opacity="0.1" d="M114.145 88.0444C114.145 88.9361 111.832 92.0872 108.978 92.0872C106.125 92.0872 103.811 88.9361 103.811 88.0444C103.811 87.1527 106.125 88.4774 108.978 88.4774C111.832 88.4774 114.145 87.1527 114.145 88.0444Z" fill="#F3CEC4"/>
<path d="M108.979 84.443C108.979 85.777 107.897 86.8584 106.563 86.8584C105.228 86.8584 104.147 85.777 104.147 84.443C104.147 83.109 105.228 82.0276 106.563 82.0276C107.897 82.0276 108.979 83.109 108.979 84.443Z" fill="#F3CEC4"/>
<path opacity="0.2" d="M112.206 84.4428C112.206 84.931 111.81 85.3268 111.322 85.3268C110.833 85.3268 110.438 84.931 110.438 84.4428C110.438 83.9545 110.833 83.5587 111.322 83.5587C111.81 83.5587 112.206 83.9545 112.206 84.4428Z" fill="#F3CEC4"/>
<path d="M51.3486 86.0069C51.3486 89.365 54.0714 92.0872 57.4302 92.0872C60.7889 92.0872 63.5117 89.365 63.5117 86.0069C63.5117 82.6488 60.7889 79.9265 57.4302 79.9265C54.0714 79.9265 51.3486 82.6488 51.3486 86.0069Z" fill="#261611"/>
<path opacity="0.1" d="M52.2637 87.3244C52.2637 88.2162 54.577 91.3673 57.4306 91.3673C60.2842 91.3673 62.5975 88.2162 62.5975 87.3244C62.5975 86.4327 60.2842 87.7575 57.4306 87.7575C54.577 87.7575 52.2637 86.4327 52.2637 87.3244Z" fill="#F3CEC4"/>
<path d="M57.4304 83.7219C57.4304 85.056 58.512 86.1374 59.8463 86.1374C61.1805 86.1374 62.2622 85.056 62.2622 83.7219C62.2622 82.3879 61.1805 81.3065 59.8463 81.3065C58.512 81.3065 57.4304 82.3879 57.4304 83.7219Z" fill="#F3CEC4"/>
<path opacity="0.2" d="M54.2031 83.7224C54.2031 84.2106 54.599 84.6064 55.0873 84.6064C55.5756 84.6064 55.9715 84.2106 55.9715 83.7224C55.9715 83.2342 55.5756 82.8384 55.0873 82.8384C54.599 82.8384 54.2031 83.2342 54.2031 83.7224Z" fill="#F3CEC4"/>
<path d="M45.2542 59.1915L44.9718 50.6092C47.1244 55.8638 50.262 60.6728 54.2212 64.7856C54.2212 64.7856 56.9395 47.1346 61.5642 40.7066C61.5642 40.7066 63.6824 40.7066 67.3186 40.7066C70.9548 40.7066 76.5327 40.3244 83.0284 39.8032C93.6193 38.9345 115.295 38.5871 130.44 45.2583C133.671 46.6147 134.846 48.3288 137.486 50.6092C139.357 56.0475 141.63 61.9996 140.631 67.6565C139.632 73.3134 137.208 78.6337 133.582 83.1315C133.582 83.1315 139.019 86.6275 141.984 102.124C144.95 117.621 141.984 120.521 141.984 120.521L161.054 112.857C166.582 100.446 165.945 102.212 168.32 88.8646C170.756 70.9357 172.193 49.949 162.485 45.2583C139.208 34.0117 164.031 24.5953 88.1474 6.34272C55.9297 -16.0683 34.4559 -12.5463 34.4559 21.6558C34.4559 43.305 45.2542 59.1915 45.2542 59.1915Z" fill="url(#paint27_linear_1412_42444)"/>
<path d="M75.4025 4.7447C75.4025 4.7447 47.5131 14.5083 54.2207 64.7859C54.2207 64.7859 34.5216 26.5652 54.2207 7.73287C61.0527 5.53936 68.2195 4.52833 75.4025 4.7447Z" fill="url(#paint28_linear_1412_42444)"/>
<path d="M57.4301 -3.02147C57.4301 -3.02147 34.9521 4.84771 40.3582 45.3698C40.3582 45.3698 24.4814 14.5652 40.3582 -0.613108C45.8646 -2.38101 51.6408 -3.19586 57.4301 -3.02147Z" fill="url(#paint29_linear_1412_42444)"/>
<path d="M138.612 74.1997C138.612 74.1997 139.863 80.3815 160.563 87.9249C159.98 92.6056 159.107 97.2471 157.95 101.823C157.95 101.823 144.895 87.7854 137.694 77.3616L138.612 74.1997Z" fill="url(#paint30_linear_1412_42444)"/>
<path d="M148.551 82.8439V88.8789V106.776C148.551 112.777 160.556 111.419 162.774 106.776C168.563 94.6587 163.121 74.8319 156.565 74.8319C150.008 74.8319 148.551 79.0981 148.551 82.8439Z" fill="#F1B69E"/>
<path d="M148.551 88.1692V90.9788V99.3108C148.551 102.105 154.14 101.472 155.173 99.3108C157.868 93.6696 155.334 84.4392 152.282 84.4392C149.23 84.4392 148.551 86.4253 148.551 88.1692Z" fill="#D07F5E"/>
<path opacity="0.5" d="M148.551 82.8438V88.8788V106.776C148.551 112.777 160.556 111.419 162.774 106.776C168.563 94.6586 163.121 74.8318 156.565 74.8318C150.008 74.8318 148.551 79.0979 148.551 82.8438Z" fill="#D07F5E"/>
<path d="M148.551 82.8438V88.8788V106.776C148.551 112.777 158.488 111.419 160.324 106.776C165.115 94.6586 160.611 74.8318 155.184 74.8318C149.757 74.8318 148.551 79.0979 148.551 82.8438Z" fill="#F1B69E"/>
<path d="M148.551 88.1691V90.9787V99.3106C148.551 102.104 154.14 101.472 155.173 99.3106C157.868 93.6695 155.334 84.4391 152.282 84.4391C149.23 84.4391 148.551 86.4252 148.551 88.1691Z" fill="#D07F5E"/>
<path d="M148.551 93.3946V94.9217V99.4505C148.551 100.969 150.916 100.625 151.353 99.4505C152.494 96.3843 151.422 91.3672 150.13 91.3672C148.838 91.3672 148.551 92.4467 148.551 93.3946Z" fill="#F1B69E"/>
<path opacity="0.45" d="M78.1987 40.2127C74.4717 40.7162 76.1841 39.6672 74.4213 39.4574C62.5434 38.1985 47.9038 32.5082 84.3685 19.8185C120.833 7.12885 133.937 37.6529 138.637 50.0321C137.252 48.2696 128.917 34.3462 115.721 29.5121C99.2263 23.4693 82.8574 39.5832 78.1987 40.2127Z" fill="black"/>
<path d="M85.1018 71.8547C63.0582 55.4804 60.458 37.1595 61.9134 30.0459C61.9781 21.6712 68.0647 5.3874 91.8935 7.24988C115.722 9.11237 135.716 20.3131 142.734 25.6807C104.534 14.8597 62.9532 24.0756 85.1018 71.8547Z" fill="url(#paint31_linear_1412_42444)"/>
<path d="M85.1018 71.8547C63.0582 55.4804 60.458 37.1595 61.9134 30.0459C61.9781 21.6712 68.0647 5.3874 91.8935 7.24988C115.722 9.11237 135.716 20.3131 142.734 25.6807C104.534 14.8597 62.9532 24.0756 85.1018 71.8547Z" fill="url(#paint32_linear_1412_42444)"/>
<path d="M96.7394 75.3356C93.8943 72.6005 94.7894 69.4388 97.396 66.3644C100.003 63.29 122.236 69.5371 124.643 70.0842C127.05 70.6312 127.598 73.5851 125.737 75.3356C123.877 77.0861 99.5846 78.0707 96.7394 75.3356Z" fill="#3B2822"/>
<path d="M70.5011 73.8601C72.9183 71.125 72.1578 67.9633 69.9433 64.8889C67.7288 61.8145 48.8403 68.0617 46.7951 68.6087C44.7498 69.1557 44.285 72.1097 45.8654 73.8601C47.4458 75.6106 68.084 76.5953 70.5011 73.8601Z" fill="#3B2822"/>
<path opacity="0.5" d="M98.683 74.7963C96.228 73.5659 97.0003 72.1435 99.2496 70.7604C101.499 69.3773 120.684 72.1877 122.761 72.4338C124.838 72.6799 125.311 74.0088 123.705 74.7963C122.1 75.5838 101.138 76.0268 98.683 74.7963Z" fill="#201510"/>
<path opacity="0.5" d="M68.8498 73.3209C70.9356 72.0904 70.2794 70.668 68.3685 69.2849C66.4576 67.9018 50.1587 70.7123 48.3939 70.9584C46.629 71.2044 46.228 72.5334 47.5917 73.3209C48.9554 74.1084 66.7641 74.5513 68.8498 73.3209Z" fill="#201510"/>
<path d="M113.198 28.8847C95.8994 22.7244 85.0566 17.1983 81.7975 15.2053L93.9345 -30.8283L104.227 1.90418L135.663 -21.6317L145.214 16.3087L179.841 -2.58365L157.137 40.4649C149.699 39.1716 130.497 35.0449 113.198 28.8847Z" fill="#FBE315"/>
<path d="M135.657 -21.6249L104.195 1.92037L113.701 10.0793L135.657 -21.6249Z" fill="#EDFF7B"/>
<path d="M81.2988 17.1795C83.646 8.4805 93.9087 -30.7979 93.9087 -30.7979L94.3818 27.7894C83.9154 23.5745 81.2988 17.1795 81.2988 17.1795Z" fill="#EDFF7B"/>
<path d="M111.94 35.4134C94.6409 29.2531 79.173 20.6057 81.7974 15.2055L85.6457 0.609495C85.6457 0.609495 86.7094 12.401 117.004 22.0971C147.298 31.7932 148.78 25.8251 148.78 25.8251L174.395 1.76097L179.841 -2.58342L157.137 40.4652C155.191 44.324 129.239 41.5736 111.94 35.4134Z" fill="#FBC815"/>
<path opacity="0.5" d="M81.2987 17.1796C83.6459 8.48062 93.9086 -30.7977 93.9086 -30.7977L94.3817 27.7895C83.9153 23.5747 81.2987 17.1796 81.2987 17.1796Z" fill="#EDFF7B"/>
<path d="M72.8172 106.637C72.8172 106.637 80.946 93.1007 80.946 89.7625C80.946 89.7625 82.3311 100.551 90.2052 97.8897C98.0794 95.2285 102.505 108.121 96.7793 106.637C91.0535 105.153 94.2345 107.909 90.2052 110.877C86.1759 113.846 74.8042 113.422 72.8172 106.637Z" fill="url(#paint33_linear_1412_42444)"/>
<path d="M89.861 110.917C91.4243 108.038 95.2665 103.144 98.1298 106.599C98.1298 106.599 93.8103 110.917 89.861 110.917Z" fill="#AA2727"/>
<path d="M145.177 16.2701L179.845 -2.58105L147.683 26.7936L145.177 16.2701Z" fill="#EDFF7B"/>
<path d="M149.156 79.1221C148.721 81.2228 127.836 83.4025 127.836 83.4025L128.49 75.0044L155.763 73.8044L151.642 75.7405C151.642 75.7405 149.592 77.0214 149.156 79.1221Z" fill="#041A30"/>
<path d="M120.299 75.2872L96.6125 75.8504C93.2366 75.8504 89.3341 80.0639 91.5478 87.8346C95.684 102.351 111.016 104.495 117.969 104.123C124.923 103.751 127.882 100.88 128.716 97.265C129.551 93.6499 129.643 88.9225 128.716 82.712C128.129 78.7751 122.972 75.5686 120.299 75.2872Z" fill="#001B33" fill-opacity="0.93"/>
<path fill-rule="evenodd" clip-rule="evenodd" d="M120.323 74.7123L120.36 74.7162L138.325 74.7123C138.325 74.7123 128.959 80.4493 129.284 82.6271C130.218 88.8797 130.132 93.6849 129.276 97.3939C128.83 99.3229 127.81 101.072 125.97 102.378C124.141 103.676 121.546 104.506 118 104.696C114.459 104.886 108.793 104.437 103.47 102.087C98.1305 99.7296 93.1202 95.448 90.9956 87.9917C89.8572 83.9956 90.2713 80.8367 91.4817 78.6503C92.6858 76.4754 94.6788 75.279 96.6055 75.2761L120.323 74.7123ZM120.275 75.8618L96.6194 76.4242H96.6125C95.1655 76.4242 93.5228 77.3343 92.4864 79.2063C91.455 81.0693 91.0247 83.9026 92.1 87.6772C94.1116 94.7369 98.8353 98.7857 103.934 101.037C109.05 103.295 114.526 103.732 117.939 103.55C121.346 103.367 123.708 102.576 125.305 101.442C126.891 100.316 127.768 98.8219 128.157 97.1357C128.97 93.6146 129.069 88.9649 128.148 82.7965C127.886 81.0375 126.581 79.3689 124.936 78.0805C123.307 76.8048 121.47 75.9996 120.275 75.8618Z" fill="url(#paint34_linear_1412_42444)"/>
<path fill-rule="evenodd" clip-rule="evenodd" d="M120.4 73.9508L155.802 73.7643L155.693 74.8502L153.443 75.6104L138.724 75.3651L138.719 75.3686L138.7 75.3803C138.683 75.3908 138.657 75.4066 138.623 75.4275C138.556 75.4691 138.457 75.5309 138.331 75.6104C138.079 75.7696 137.718 75.9998 137.286 76.283C136.42 76.85 135.273 77.6264 134.139 78.4678C132.999 79.3131 131.896 80.2069 131.105 81.009C130.708 81.4116 130.413 81.7676 130.231 82.0631C130.038 82.3767 130.041 82.5099 130.041 82.514C130.983 88.8229 130.907 93.7318 130.022 97.5661C129.539 99.6569 128.423 101.576 126.413 103.002C124.429 104.41 121.679 105.266 118.041 105.46C114.414 105.655 108.621 105.198 103.161 102.787C97.6609 100.359 92.4594 95.9222 90.2594 88.2015C89.079 84.0577 89.4822 80.6818 90.812 78.2797C92.1267 75.9049 94.3507 74.5178 96.5955 74.5108L120.354 73.946L120.4 73.9508ZM96.6055 75.2762C94.6789 75.2791 92.6858 76.4755 91.4818 78.6503C90.2714 80.8367 89.8573 83.9956 90.9957 87.9918C93.1203 95.4481 98.1306 99.7297 103.47 102.087C108.793 104.437 114.459 104.886 118 104.696C121.546 104.506 124.141 103.676 125.97 102.378C127.81 101.072 128.831 99.3229 129.276 97.394C130.132 93.6849 130.218 88.8798 129.284 82.6271C129.032 80.9394 134.6 77.1142 137.119 75.478C137.85 75.0029 138.325 74.7123 138.325 74.7123L120.36 74.7162L120.323 74.7123L96.6055 75.2762ZM96.6285 77.1897H96.6126C95.4862 77.1897 94.0795 77.9093 93.1563 79.577C92.2442 81.2245 91.8032 83.8408 92.8363 87.4675C94.7726 94.263 99.3052 98.1565 104.243 100.337C109.221 102.534 114.571 102.964 117.898 102.785C121.213 102.608 123.419 101.842 124.862 100.818C126.279 99.812 127.059 98.4878 127.411 96.9637C128.195 93.5678 128.304 89.0217 127.391 82.9096C127.17 81.4295 126.039 79.9173 124.464 78.6831C122.93 77.4818 121.253 76.7623 120.237 76.6284L96.6285 77.1897ZM120.275 75.8619L96.6194 76.4243H96.6126C95.1656 76.4243 93.5228 77.3344 92.4865 79.2063C91.4551 81.0694 91.0248 83.9027 92.1001 87.6772C94.1117 94.737 98.8353 98.7858 103.934 101.037C109.05 103.295 114.526 103.732 117.939 103.55C121.346 103.367 123.708 102.576 125.305 101.442C126.891 100.316 127.768 98.8219 128.157 97.1358C128.97 93.6146 129.069 88.9649 128.148 82.7966C127.886 81.0375 126.581 79.3689 124.936 78.0805C123.307 76.8049 121.47 75.9996 120.275 75.8619Z" fill="#FFD742"/>
<path d="M124.235 79.0717L95.3726 92.4072L96.4563 94.383L126.46 80.3713L124.235 79.0717Z" fill="#FEFCBD" fill-opacity="0.3"/>
<path d="M127.941 80.8491L97.7386 95.564L101.327 99.7348L128.825 83.528L127.941 80.8491Z" fill="#FEFCBD" fill-opacity="0.3"/>
<path d="M49.6921 74.9512L73.379 75.5143C76.7549 75.5143 80.6573 79.7278 78.4437 87.4985C74.3075 102.015 58.9757 104.159 52.0221 103.787C45.0684 103.415 42.1097 100.544 41.2752 96.9289C40.4408 93.3139 40.3481 88.5864 41.2752 82.3759C41.8629 78.4391 47.019 75.2325 49.6921 74.9512Z" fill="#001B33" fill-opacity="0.93"/>
<path fill-rule="evenodd" clip-rule="evenodd" d="M49.6687 74.3765L49.632 74.3803L40.7158 74.3765C40.7158 74.3765 41.0325 80.1135 40.7074 82.2912C39.7739 88.5439 39.8597 93.3491 40.7158 97.0581C41.161 98.9871 42.1813 100.736 44.0215 102.042C45.8507 103.341 48.4453 104.17 51.9913 104.36C55.5325 104.55 61.1988 104.101 66.5213 101.751C71.8609 99.3938 76.8713 95.1122 78.9959 87.6559C80.1343 83.6597 79.7201 80.5009 78.5097 78.3145C77.3057 76.1396 75.3127 74.9432 73.386 74.9403L49.6687 74.3765ZM49.7168 75.526L73.3721 76.0884H73.3789C74.826 76.0884 76.4687 76.9985 77.505 78.8705C78.5364 80.7335 78.9667 83.5668 77.8915 87.3414C75.8799 94.4011 71.1562 98.4499 66.0575 100.701C60.9416 102.959 55.4653 103.397 52.0528 103.214C48.6451 103.031 46.2835 102.24 44.6863 101.106C43.1002 99.9801 42.2239 98.486 41.8347 96.7999C41.022 93.2788 40.9223 88.6291 41.8431 82.4607C42.1057 80.7016 43.4109 79.0331 45.0557 77.7447C46.6843 76.469 48.5216 75.6637 49.7168 75.526Z" fill="url(#paint35_linear_1412_42444)"/>
<path fill-rule="evenodd" clip-rule="evenodd" d="M40.753 75.1418C40.8258 76.7778 40.9593 80.6034 40.7074 82.2911C39.7739 88.5438 39.8597 93.349 40.7158 97.058C41.161 98.987 42.1813 100.736 44.0215 102.042C45.8507 103.34 48.4453 104.17 51.9913 104.36C55.5325 104.55 61.1988 104.101 66.5213 101.751C71.861 99.3938 76.8713 95.1121 78.9959 87.6558C80.1343 83.6596 79.7202 80.5008 78.5097 78.3144C77.3057 76.1395 75.3127 74.9431 73.386 74.9402L49.6687 74.3763L49.6319 74.3802L40.7158 74.3763C40.7158 74.3763 40.7318 74.6668 40.753 75.1418ZM49.5919 73.6148L49.6376 73.61L73.396 74.1748C75.6408 74.1818 77.8648 75.5689 79.1795 77.9437C80.5093 80.3458 80.9126 83.7217 79.7322 87.8654C77.5322 95.5862 72.3307 100.023 66.8306 102.451C61.3703 104.862 55.5773 105.319 51.9504 105.125C48.3121 104.93 45.5622 104.074 43.5784 102.666C41.5687 101.24 40.4524 99.3209 39.9698 97.2301C39.0848 93.3959 39.0084 88.4871 39.9502 82.1781C40.1014 81.1654 40.1069 79.2536 40.0681 77.5343C40.049 76.6877 40.0198 75.908 39.9953 75.3397C39.9831 75.0557 39.9721 74.8248 39.9641 74.6652C39.9602 74.5854 39.957 74.5234 39.9548 74.4815L39.9514 74.4193L39.9514 74.4187L39.9068 73.6106L49.5919 73.6148ZM73.3721 76.0883H73.379C74.826 76.0883 76.4687 76.9984 77.5051 78.8704C78.5364 80.7334 78.9667 83.5667 77.8915 87.3413C75.8799 94.401 71.1562 98.4498 66.0575 100.701C60.9416 102.959 55.4653 103.396 52.0528 103.214C48.6451 103.031 46.2835 102.24 44.6863 101.106C43.1002 99.98 42.2239 98.486 41.8347 96.7998C41.022 93.2787 40.9223 88.629 41.8431 82.4606C42.1057 80.7015 43.4109 79.0329 45.0557 77.7446C46.6843 76.4689 48.5216 75.6636 49.7168 75.5259L73.3721 76.0883ZM49.7546 76.2924L73.363 76.8537H73.379C74.5053 76.8537 75.912 77.5734 76.8353 79.241C77.7474 80.8886 78.1883 83.5049 77.1552 87.1316C75.2189 93.927 70.6863 97.8206 65.7483 100.001C60.7702 102.198 55.4205 102.628 52.0937 102.449C48.7784 102.272 46.5721 101.506 45.1295 100.482C43.7127 99.4761 42.9324 98.1519 42.5806 96.6277C41.7968 93.2318 41.6878 88.6858 42.6003 82.5736C42.8212 81.0935 43.9522 79.5813 45.5278 78.3471C47.0615 77.1458 48.7386 76.4263 49.7546 76.2924Z" fill="#FFD742"/>
<path d="M71.4937 79.3222L46.4593 98.6846L45.6517 98.282L68.1959 77.6782L71.4937 79.3222Z" fill="#FEFCBD" fill-opacity="0.3"/>
<path d="M78.604 87.9989L59.7206 102.631L58.913 102.228L78.11 84.304L78.604 87.9989Z" fill="#FEFCBD" fill-opacity="0.3"/>
<path d="M67.9751 76.9293L44.0367 97.6451L40.0806 93.8678L64.8843 75.3884L67.9751 76.9293Z" fill="#FEFCBD" fill-opacity="0.3"/>
<path d="M129.795 86.9015L129.487 83.4034C129.487 83.4034 128.614 76.8328 124.144 74.8807L138.096 74.3772H154.336L136.453 83.4034L129.795 86.9015Z" fill="#FDC800"/>
<path d="M84.8222 84.5956C82.2617 84.5956 79.838 85.2241 78.9462 85.5383L79.3545 83.1289C80.4436 82.7734 83.0618 82.0623 84.8222 82.0623C87.0226 82.0623 91.6235 82.7289 90.89 83.1289C90.3033 83.4489 90.6455 85.1289 90.89 85.9289C89.9343 85.4845 87.3827 84.5956 84.8222 84.5956Z" fill="#FBDD02"/>
<path d="M84.7391 78.29C80.605 78.29 78.0604 76.6215 76.6206 77.1289L75.9111 75.9219C77.6696 75.3478 81.897 74.1997 84.7391 74.1997C88.2918 74.1997 95.7204 75.2761 94.5361 75.9219C93.5887 76.4386 92.8291 76.5039 93.2238 77.7956C91.6807 77.078 88.8732 78.29 84.7391 78.29Z" fill="#FBDD02"/>
<path d="M138.863 54.6725C137.925 51.803 137.348 50.5415 137.348 50.5415C153.67 52.7346 169.981 63.1623 169.981 63.1623V72.0411C163.636 63.3294 138.863 54.6725 138.863 54.6725Z" fill="url(#paint36_linear_1412_42444)"/>
<path d="M140.773 66.2126L140.773 62.4642C157.096 64.6573 169.855 74.1647 169.855 74.1647C169.855 74.1647 169.098 80.1703 169.098 82.5926C162.753 73.8809 140.773 66.2126 140.773 66.2126Z" fill="url(#paint37_linear_1412_42444)"/>
<path d="M83.1609 210.545L85.9085 183.424C85.9561 182.954 86.1949 182.524 86.5689 182.235L91.2875 178.589C91.5891 178.356 91.9596 178.229 92.3408 178.229L98.966 178.229C99.3011 178.229 99.6289 178.327 99.9093 178.51L106.382 182.746C106.831 183.04 107.118 183.527 107.156 184.062L109.081 210.652C109.167 211.844 108.043 212.759 106.893 212.433L96.2343 209.41C95.9194 209.321 95.5856 209.323 95.272 209.416L85.3668 212.369C84.1918 212.719 83.0373 211.765 83.1609 210.545Z" fill="#EB9E0A"/>
<path fill-rule="evenodd" clip-rule="evenodd" d="M92.3407 177.081L98.966 177.081C99.5245 177.081 100.071 177.244 100.538 177.55L107.01 181.785C107.76 182.275 108.237 183.087 108.302 183.979L110.226 210.569C110.37 212.555 108.496 214.081 106.58 213.537L95.9208 210.514C95.8159 210.485 95.7046 210.485 95.6001 210.516L85.6949 213.469C83.7365 214.053 81.8124 212.462 82.0184 210.429L84.766 183.308C84.8454 182.525 85.2433 181.808 85.8666 181.326L90.5852 177.68L91.2875 178.589L90.5853 177.68C91.088 177.292 91.7054 177.081 92.3407 177.081ZM98.966 179.377L92.3408 179.377C92.2137 179.377 92.0902 179.42 91.9897 179.497L87.2711 183.143C87.1464 183.24 87.0668 183.383 87.0509 183.54L84.3033 210.661C84.2622 211.067 84.647 211.385 85.0386 211.269L94.9439 208.316C95.4666 208.16 96.0229 208.156 96.5476 208.305L107.206 211.328C107.59 211.437 107.964 211.132 107.936 210.735L106.011 184.145C105.998 183.967 105.903 183.804 105.753 183.706L99.2804 179.471C99.187 179.41 99.0777 179.377 98.966 179.377Z" fill="#FFCD4E"/>
<path d="M94.3625 205.778C94.2568 205.778 94.1711 205.692 94.1711 205.586V203.542C94.1711 203.436 94.0854 203.351 93.9797 203.351H89.1655C89.045 203.351 88.9545 203.241 88.9778 203.122L89.5544 200.195C89.572 200.105 89.6507 200.041 89.7421 200.041H98.1555C98.196 200.041 98.2355 200.028 98.2683 200.004L99.206 199.32C99.2644 199.278 99.2938 199.206 99.282 199.134L99.0149 197.521C99.0083 197.481 98.9892 197.444 98.9602 197.415L98.2737 196.742C98.2379 196.706 98.1898 196.687 98.1396 196.687H91.507C91.4566 196.687 91.4082 196.667 91.3724 196.631L88.9808 194.263C88.9497 194.232 88.9301 194.192 88.9253 194.148L88.3699 189.194C88.3619 189.122 88.3952 189.051 88.4561 189.012L91.3808 187.119C91.4118 187.099 91.4479 187.088 91.4848 187.088H93.9533C94.0688 187.088 94.158 186.987 94.1431 186.872L93.8844 184.877C93.8695 184.762 93.9587 184.661 94.0742 184.661H98.0715C98.1772 184.661 98.2629 184.747 98.2629 184.852V186.897C98.2629 187.002 98.3485 187.088 98.4542 187.088H102.018C102.143 187.088 102.234 187.206 102.203 187.327L101.45 190.254C101.429 190.339 101.352 190.398 101.265 190.398H93.9346C93.8845 190.398 93.8363 190.418 93.8005 190.453L93.1268 191.114C93.0901 191.15 93.0695 191.199 93.0695 191.251V192.524C93.0695 192.576 93.0901 192.625 93.1268 192.661L93.8005 193.322C93.8363 193.357 93.8845 193.377 93.9346 193.377H100.568C100.618 193.377 100.666 193.397 100.702 193.432L103.093 195.778C103.124 195.809 103.144 195.85 103.149 195.894L103.705 201.059C103.713 201.128 103.682 201.195 103.626 201.235L100.696 203.315C100.663 203.338 100.625 203.351 100.585 203.351H98.4941C98.3741 203.351 98.2837 203.46 98.3061 203.578L98.682 205.551C98.7044 205.669 98.614 205.778 98.494 205.778H94.3625Z" fill="#FFB800"/>
<path fill-rule="evenodd" clip-rule="evenodd" d="M93.2142 204.307V205.586C93.2142 206.221 93.7283 206.735 94.3625 206.735H98.4939C99.2143 206.735 99.7568 206.079 99.622 205.372L99.4192 204.307H100.585C100.823 204.307 101.055 204.233 101.25 204.095L104.18 202.016C104.519 201.775 104.701 201.37 104.657 200.956L104.1 195.792C104.072 195.528 103.953 195.282 103.763 195.095L101.372 192.749C101.157 192.538 100.869 192.42 100.568 192.42H94.2475L94.0264 192.203V191.572L94.2475 191.355H101.265C101.789 191.355 102.247 191 102.377 190.493L103.13 187.565C103.317 186.839 102.768 186.131 102.018 186.131H99.2198V184.852C99.2198 184.218 98.7056 183.704 98.0714 183.704H94.0741C93.3813 183.704 92.8463 184.313 92.9354 185L93.0821 186.131H91.4848C91.2634 186.131 91.0467 186.195 90.8608 186.316L87.9361 188.209C87.5707 188.445 87.3705 188.868 87.419 189.3L87.9743 194.255C88.0035 194.515 88.121 194.758 88.3074 194.943L90.6989 197.311C90.914 197.524 91.2044 197.643 91.507 197.643H97.8266L98.1116 197.923L98.2609 198.825L97.906 199.084H89.7421C89.1935 199.084 88.7215 199.472 88.6155 200.01L88.0389 202.937C87.8991 203.647 88.4423 204.307 89.1655 204.307H93.2142ZM94.1711 205.586C94.1711 205.692 94.2568 205.778 94.3625 205.778H98.4939C98.614 205.778 98.7044 205.669 98.6819 205.551L98.3061 203.578C98.2836 203.46 98.374 203.351 98.4941 203.351H100.585C100.625 203.351 100.663 203.338 100.696 203.315L103.626 201.235C103.682 201.195 103.713 201.128 103.705 201.059L103.149 195.894C103.144 195.85 103.124 195.809 103.093 195.778L100.702 193.432C100.666 193.397 100.618 193.377 100.568 193.377H93.9346C93.8844 193.377 93.8363 193.357 93.8005 193.322L93.1268 192.661C93.0901 192.625 93.0695 192.576 93.0695 192.524V191.251C93.0695 191.199 93.0901 191.15 93.1268 191.114L93.8005 190.453C93.8363 190.418 93.8844 190.398 93.9346 190.398H101.265C101.352 190.398 101.429 190.339 101.45 190.254L102.203 187.327C102.234 187.206 102.143 187.088 102.018 187.088H98.4542C98.3485 187.088 98.2628 187.003 98.2628 186.897V184.852C98.2628 184.747 98.1771 184.661 98.0714 184.661H94.0741C93.9587 184.661 93.8695 184.762 93.8843 184.877L94.1431 186.872C94.1579 186.987 94.0688 187.088 93.9533 187.088H91.4848C91.4479 187.088 91.4118 187.099 91.3808 187.119L88.4561 189.012C88.3952 189.051 88.3619 189.122 88.37 189.194L88.9253 194.148C88.9301 194.192 88.9497 194.232 88.9808 194.263L91.3723 196.631C91.4082 196.667 91.4566 196.687 91.507 196.687H98.1396C98.1898 196.687 98.2379 196.706 98.2737 196.742L98.9602 197.415C98.9891 197.444 99.0083 197.481 99.0149 197.521L99.282 199.134C99.2938 199.206 99.2644 199.278 99.2059 199.32L98.2682 200.004C98.2355 200.028 98.196 200.041 98.1555 200.041H89.7421C89.6507 200.041 89.572 200.105 89.5544 200.195L88.9778 203.122C88.9545 203.24 89.045 203.351 89.1655 203.351H93.9797C94.0854 203.351 94.1711 203.436 94.1711 203.542V205.586Z" fill="#B85B06" fill-opacity="0.34"/>
<path d="M95.0521 185.216C95.7527 185.126 96.8187 184.979 97.5542 184.847C97.753 184.811 97.7325 184.661 97.5305 184.661H93.959C93.8407 184.661 93.7507 184.767 93.7702 184.884L94.0799 186.742C94.0994 186.858 94.0094 186.965 93.8911 186.965H91.4884C91.4496 186.965 91.4118 186.976 91.3799 186.998L89.5492 188.257C89.3649 188.383 89.5104 188.669 89.7213 188.595L91.606 187.93C91.616 187.926 91.6261 187.924 91.6365 187.922L94.727 187.376C94.8184 187.36 94.8851 187.281 94.8851 187.188V185.406C94.8851 185.309 94.9563 185.228 95.0521 185.216Z" fill="#FFDF8B"/>
<path d="M94.0674 194.19C93.9456 194.02 93.7862 193.8 93.6256 193.581C93.5326 193.454 93.7585 193.2 93.8933 193.281C93.914 193.293 93.9377 193.3 93.9618 193.3H100.566C100.617 193.3 100.665 193.32 100.701 193.356L102.531 195.186C102.676 195.33 102.523 195.571 102.331 195.501L101.051 195.035C101.036 195.03 101.022 195.027 101.007 195.025L94.2019 194.269C94.1478 194.263 94.0991 194.235 94.0674 194.19Z" fill="#FFDF8B"/>
<path d="M41.1229 220.586C43.1174 227.16 41.5363 233.459 37.5913 234.655C33.6464 235.852 28.8315 231.492 26.8369 224.919C24.8424 218.345 26.4235 212.046 30.3685 210.849C34.3135 209.653 39.1284 214.012 41.1229 220.586Z" fill="#BE1144"/>
<path d="M145.883 215.315C143.889 221.889 145.47 228.188 149.415 229.385C153.36 230.581 158.175 226.222 160.169 219.648C162.164 213.074 160.583 206.775 156.638 205.579C152.693 204.383 147.878 208.742 145.883 215.315Z" fill="#BE1144"/>
<path d="M41.123 220.586C42.6862 225.738 41.447 230.675 38.3551 231.613C35.2632 232.55 31.4896 229.134 29.9263 223.982C28.3631 218.83 29.6023 213.893 32.6942 212.955C35.7861 212.017 39.5598 215.434 41.123 220.586Z" fill="#6C0524"/>
<path d="M145.883 215.316C144.32 220.468 145.559 225.405 148.651 226.342C151.743 227.28 155.517 223.864 157.08 218.711C158.643 213.559 157.404 208.622 154.312 207.685C151.22 206.747 147.446 210.163 145.883 215.316Z" fill="#6C0524"/>
<path d="M42.597 200.457L56.8923 168.962L70.3918 186.298L65.0291 202.472L53.2418 214.493L42.597 200.457Z" fill="#88CF42"/>
<path d="M62.4664 211.606L53.242 214.493C55.4803 212.351 65.6079 194.804 70.392 186.298L78.0685 185.078C78.7801 190.485 67.9636 205.016 62.4664 211.606Z" fill="#56B729"/>
<path d="M56.8924 168.962L70.3919 186.298L78.0685 185.077L64.3907 167.262L56.8924 168.962Z" fill="#25951C"/>
<path opacity="0.3" d="M60.4034 168.201C72.1748 191.088 53.718 214.315 53.2419 214.493L48.8473 195.405C48.7755 178.708 48.0853 170.057 60.4034 168.201Z" fill="#1A7109"/>
<path d="M55.345 170.629C60.9125 175.101 61.5468 184.863 61.1679 189.185L54.087 189.093C52.1865 181.074 49.7775 166.156 55.345 170.629Z" fill="#25951C"/>
<path d="M55.8169 179.178C66.8093 187.74 58.6806 206.288 53.2421 214.492L40.0992 198.114C46.7703 183.416 43.5824 171.551 40.887 166.737C44.6959 165.319 62.2451 168.589 55.8169 179.178Z" fill="#82DC34"/>
<path fill-rule="evenodd" clip-rule="evenodd" d="M41.4606 197.91L41.7254 197.298C45.5882 188.359 46.024 181.41 45.5247 176.738C45.2746 174.397 44.7889 172.618 44.3729 171.436C44.1649 170.845 43.9742 170.403 43.8391 170.115C43.7716 169.971 43.7179 169.865 43.6829 169.799C43.6655 169.765 43.6526 169.742 43.6451 169.728L43.6389 169.717L43.6383 169.716L43.6373 169.714L42.6052 167.943L44.6343 168.19L44.516 169.204C44.6343 168.19 44.6343 168.19 44.6343 168.19L44.6387 168.191L44.6455 168.191L44.6663 168.194C44.6833 168.196 44.7066 168.2 44.736 168.204C44.7949 168.213 44.878 168.226 44.9836 168.245C45.1948 168.282 45.496 168.341 45.8724 168.431C46.6248 168.612 47.6797 168.917 48.9166 169.419C51.3897 170.421 54.2539 171.732 57.2207 174.894C57.2207 174.894 57.2236 175.948 56.9965 176.715C56.7695 177.481 56.3652 178.182 56.3652 178.182C53.6422 175.28 50.4237 172.229 48.1622 171.312C47.444 171.021 46.7959 170.804 46.2476 170.643C46.2616 170.682 46.2757 170.722 46.2899 170.762C46.7542 172.081 47.2783 174.016 47.5467 176.528C48.0724 181.447 47.6127 188.538 43.8525 197.504C45.6425 199.464 48.0133 202.186 49.9906 204.483C51.0664 205.732 52.0285 206.859 52.7217 207.673C52.7697 207.73 52.8164 207.785 52.8617 207.838C53.0132 207.534 53.1845 207.182 53.3701 206.787C54.0716 205.295 54.9727 203.202 55.7725 200.799C57.3891 195.941 58.183 184.658 56.653 179.866C56.653 179.866 57.4249 180.642 57.6545 180.872C57.884 181.101 58.5237 181.964 58.5237 181.964C60.2617 187.408 59.3471 196.509 57.7014 201.454C56.87 203.952 55.9357 206.121 55.2096 207.666C54.8462 208.438 54.534 209.057 54.3117 209.484C54.2005 209.697 54.1117 209.863 54.0501 209.977C54.0193 210.033 53.9953 210.077 53.9787 210.107L53.9594 210.142L53.954 210.151L53.9519 210.155C53.9519 210.155 53.9516 210.156 53.0661 209.65L52.2921 210.309L51.9948 209.958C51.8027 209.732 51.5241 209.403 51.1785 208.997C50.4871 208.185 49.5275 207.062 48.4548 205.816C46.3062 203.32 43.715 200.347 41.9148 198.401L41.4606 197.91ZM53.0661 209.65L52.2921 210.309L53.2362 211.426L53.9519 210.155L53.0661 209.65Z" fill="#D4FD5F"/>
<path d="M63.935 205.708L61.219 208.253L66.6514 200.943L69.3678 196.179L67.1549 201.016L63.935 205.708Z" fill="#25951C"/>
<path d="M49.5078 182.617C52.4003 181.54 55.9424 183.885 57.4195 187.853C58.8965 191.821 57.7491 195.911 54.8566 196.987C51.9642 198.063 48.422 195.719 46.945 191.75C45.468 187.782 46.6154 183.693 49.5078 182.617Z" fill="#D4FD5F"/>
<path d="M39.21 195.485C41.4385 199.797 38.6848 209.244 37.0294 213.429L33.4502 218.907L35.5843 222.08L44.7242 224.472C45.4086 224.651 46.1088 224.763 46.8149 224.806L52.1562 225.135C54.0704 225.253 55.9818 224.864 57.6979 224.008L65.3389 220.196C67.565 219.086 71.9805 215.108 73.0184 212.847L73.7865 210.264L70.3825 207.611L73.0184 202.515L71.9834 201.079L70.1848 199.8C63.2094 202.72 49.4347 204.252 49.4347 204.252C48.543 198.149 42.6113 193.897 39.21 195.485Z" fill="#FBC3A4"/>
<path opacity="0.34" d="M43.1782 201.25C43.9099 198.582 40.8646 196.301 39.2505 195.494C40.4557 197.259 40.1831 200.676 39.8962 202.165C40.6853 202.972 42.4465 203.918 43.1782 201.25Z" fill="#F3E8FF"/>
<path d="M147.796 190.215C145.567 194.526 148.321 203.973 149.977 208.158L153.556 213.636L151.422 216.81L141.253 219.47L135.147 218.758L126.937 215.061L118.227 213.21L118.227 210.147L128.611 210.147L128.919 206.891L130.219 203.861L115.598 198.014L116.821 194.53C123.797 197.45 137.571 198.982 137.571 198.982C138.463 192.878 144.395 188.627 147.796 190.215Z" fill="#FBC3A4"/>
<path d="M144.827 198.783C143.031 195.773 146.106 191.83 147.827 190.238C146.418 192.168 147.014 197.304 147.529 199.628C147.376 200.601 144.827 198.783 144.827 198.783Z" fill="#FCD6C1"/>
<path d="M32.9258 229.528L37.4045 222.583L33.5199 218.653H29.3611C28.5933 223.479 31.4176 227.914 32.9258 229.528Z" fill="#F3BC9E"/>
<path d="M154.08 224.258L149.602 217.313L153.486 213.383H157.645C158.413 218.208 155.589 222.644 154.08 224.258Z" fill="#FFA777"/>
<path d="M120.491 67.6389L125.187 73.6402L132.256 70.7905L126.253 75.4857L129.103 82.5526L124.407 76.5512L117.339 79.401L123.341 74.7057L120.491 67.6389Z" fill="white" fill-opacity="0.84"/>
<path opacity="0.2" d="M128.399 73.0172C129.547 75.0058 128.866 77.5486 126.877 78.6968C124.888 79.8449 122.344 79.1636 121.196 77.1749C120.048 75.1863 120.729 72.6435 122.718 71.4953C124.707 70.3472 127.25 71.0286 128.399 73.0172Z" fill="white"/>
<path d="M63.0969 126.235L67.7931 132.237L74.8613 129.387L68.8588 134.082L71.7091 141.149L67.0129 135.148L59.9447 137.997L65.9472 133.302L63.0969 126.235Z" fill="white" fill-opacity="0.84"/>
<path opacity="0.2" d="M71.0045 131.613C72.1528 133.602 71.4713 136.145 69.4823 137.293C67.4933 138.441 64.95 137.76 63.8017 135.771C62.6533 133.782 63.3348 131.24 65.3238 130.092C67.3128 128.943 69.8561 129.625 71.0045 131.613Z" fill="white"/>
<g opacity="0.8">
<path d="M40.7603 92.7546L45.4564 98.756L52.5246 95.9062L46.5221 100.601L49.3724 107.668L44.6763 101.667L37.608 104.517L43.6106 99.8215L40.7603 92.7546Z" fill="white" fill-opacity="0.84"/>
<path opacity="0.2" d="M48.6677 98.1329C49.8161 100.122 49.1346 102.664 47.1456 103.812C45.1566 104.961 42.6133 104.279 41.4649 102.291C40.3166 100.302 40.9981 97.7592 42.9871 96.6111C44.9761 95.463 47.5194 96.1443 48.6677 98.1329Z" fill="white"/>
</g>
<path d="M95.402 185.267L100.098 191.268L107.166 188.418L101.164 193.114L104.014 200.181L99.318 194.179L92.2497 197.029L98.2523 192.334L95.402 185.267Z" fill="white" fill-opacity="0.84"/>
<path opacity="0.2" d="M103.31 190.645C104.458 192.634 103.776 195.177 101.787 196.325C99.7984 197.473 97.2551 196.791 96.1067 194.803C94.9584 192.814 95.6399 190.271 97.6289 189.123C99.6179 187.975 102.161 188.657 103.31 190.645Z" fill="white"/>
<path d="M127.562 200.008C127.772 199.209 127.474 198.028 127.299 197.537V197.294L129.902 197.906C129.964 198.437 130.049 199.706 129.902 200.538C129.756 201.37 128.984 202.68 128.617 203.23L126.352 202.269C126.668 201.848 127.352 200.807 127.562 200.008Z" fill="#EB9E0A"/>
<path d="M125.937 212.263C126.014 211.44 125.526 210.324 125.273 209.868L125.233 209.629L127.902 209.807C128.049 210.32 128.341 211.557 128.332 212.402C128.324 213.248 127.777 214.666 127.505 215.269L125.114 214.691C125.356 214.225 125.86 213.086 125.937 212.263Z" fill="#EB9E0A"/>
<path opacity="0.32" d="M119.266 198.326C118.227 198.138 116.09 197.752 115.854 197.713H115.756L116.639 195.038L120.199 196.657L119.266 198.326Z" fill="white"/>
<path opacity="0.32" d="M120.965 212.499C120.155 212.627 118.49 212.892 118.307 212.923L118.235 212.948L118.197 210.761L121.221 211.036L120.965 212.499Z" fill="white"/>
<path opacity="0.5" d="M53.5692 253.343C42.7108 262.128 29.3995 254.329 24.1012 249.332C18.4143 248.943 20.7383 263.287 33.9207 268.976C47.1031 274.664 57.0572 263.552 59.578 261.162C62.0987 258.772 67.1423 242.361 53.5692 253.343Z" fill="#BE1144"/>
<path d="M126.553 198.034L128.995 201.156L132.671 199.674L129.549 202.116L131.032 205.791L128.589 202.67L124.913 204.152L128.035 201.71L126.553 198.034Z" fill="white" fill-opacity="0.84"/>
<path opacity="0.2" d="M130.665 200.832C131.263 201.866 130.908 203.188 129.874 203.786C128.839 204.383 127.516 204.028 126.919 202.994C126.322 201.96 126.676 200.637 127.711 200.04C128.745 199.443 130.068 199.797 130.665 200.832Z" fill="white"/>
<path d="M122.303 167.752L124.745 170.873L128.421 169.391L125.299 171.833L126.782 175.509L124.339 172.387L120.663 173.869L123.785 171.427L122.303 167.752Z" fill="white" fill-opacity="0.84"/>
<path opacity="0.2" d="M126.415 170.549C127.013 171.583 126.658 172.906 125.624 173.503C124.589 174.1 123.266 173.746 122.669 172.711C122.072 171.677 122.426 170.355 123.461 169.757C124.495 169.16 125.818 169.515 126.415 170.549Z" fill="white"/>
<path opacity="0.1" d="M174.451 203.506C169.358 207.475 165.861 199.865 158.021 189.809C150.181 179.752 140.968 171.056 146.061 167.087C151.154 163.118 161.638 168.054 169.478 178.111C177.317 188.168 179.544 199.538 174.451 203.506Z" fill="white"/>
<path opacity="0.1" d="M17.5847 211.732C21.7581 214.984 24.624 208.749 31.0481 200.508C37.4723 192.267 45.022 185.141 40.8486 181.889C36.6752 178.637 28.0842 182.681 21.66 190.922C15.2359 199.163 13.4113 208.48 17.5847 211.732Z" fill="white"/>
</g>
<defs>
<linearGradient id="paint0_linear_1412_42444" x1="94.7387" y1="252.501" x2="94.7387" y2="180.237" gradientUnits="userSpaceOnUse">
<stop stop-color="#F50D44"/>
<stop offset="0.99" stop-color="#FB4F54"/>
</linearGradient>
<linearGradient id="paint1_linear_1412_42444" x1="98.7277" y1="189.991" x2="98.7277" y2="180.238" gradientUnits="userSpaceOnUse">
<stop offset="0.01" stop-color="#C16688"/>
<stop offset="1" stop-color="#7E70F1"/>
</linearGradient>
<linearGradient id="paint2_linear_1412_42444" x1="-4528.72" y1="10102.2" x2="-4528.72" y2="7001.53" gradientUnits="userSpaceOnUse">
<stop offset="0.01" stop-color="#B45C7D"/>
<stop offset="1" stop-color="#8A7EEA"/>
</linearGradient>
<linearGradient id="paint3_linear_1412_42444" x1="143.1" y1="254.828" x2="143.1" y2="150.095" gradientUnits="userSpaceOnUse">
<stop stop-color="#F50D44"/>
<stop offset="0.99" stop-color="#FB4F54"/>
</linearGradient>
<linearGradient id="paint4_linear_1412_42444" x1="59.0034" y1="256.967" x2="59.0034" y2="145.747" gradientUnits="userSpaceOnUse">
<stop stop-color="#F50D44"/>
<stop offset="0.99" stop-color="#FB4F54"/>
</linearGradient>
<linearGradient id="paint5_linear_1412_42444" x1="121.21" y1="166.871" x2="118.243" y2="168.148" gradientUnits="userSpaceOnUse">
<stop stop-color="#FFD770"/>
<stop offset="1" stop-color="#FDBC12"/>
</linearGradient>
<linearGradient id="paint6_linear_1412_42444" x1="120.267" y1="162.979" x2="117.267" y2="161.783" gradientUnits="userSpaceOnUse">
<stop stop-color="#FFD770"/>
<stop offset="1" stop-color="#FDBC12"/>
</linearGradient>
<linearGradient id="paint7_linear_1412_42444" x1="130.687" y1="167.131" x2="127.687" y2="165.935" gradientUnits="userSpaceOnUse">
<stop stop-color="#FFD770"/>
<stop offset="1" stop-color="#FDBC12"/>
</linearGradient>
<linearGradient id="paint8_linear_1412_42444" x1="124.286" y1="168.097" x2="125.561" y2="171.064" gradientUnits="userSpaceOnUse">
<stop stop-color="#FFD770"/>
<stop offset="1" stop-color="#FDBC12"/>
</linearGradient>
<linearGradient id="paint9_linear_1412_42444" x1="129.761" y1="160.26" x2="126.784" y2="161.513" gradientUnits="userSpaceOnUse">
<stop stop-color="#FFD770"/>
<stop offset="1" stop-color="#FDBC12"/>
</linearGradient>
<linearGradient id="paint10_linear_1412_42444" x1="108.121" y1="181.871" x2="104.936" y2="181.333" gradientUnits="userSpaceOnUse">
<stop stop-color="#FFD770"/>
<stop offset="1" stop-color="#FDBC12"/>
</linearGradient>
<linearGradient id="paint11_linear_1412_42444" x1="109.441" y1="178.089" x2="107.569" y2="175.457" gradientUnits="userSpaceOnUse">
<stop stop-color="#FFD770"/>
<stop offset="1" stop-color="#FDBC12"/>
</linearGradient>
<linearGradient id="paint12_linear_1412_42444" x1="110.04" y1="184.569" x2="109.502" y2="187.753" gradientUnits="userSpaceOnUse">
<stop stop-color="#FFD770"/>
<stop offset="1" stop-color="#FDBC12"/>
</linearGradient>
<linearGradient id="paint13_linear_1412_42444" x1="115.522" y1="176.044" x2="112.328" y2="176.523" gradientUnits="userSpaceOnUse">
<stop stop-color="#FFD770"/>
<stop offset="1" stop-color="#FDBC12"/>
</linearGradient>
<linearGradient id="paint14_linear_1412_42444" x1="115.601" y1="172.04" x2="113.005" y2="170.119" gradientUnits="userSpaceOnUse">
<stop stop-color="#FFD770"/>
<stop offset="1" stop-color="#FDBC12"/>
</linearGradient>
<linearGradient id="paint15_linear_1412_42444" x1="124.621" y1="178.708" x2="122.024" y2="176.787" gradientUnits="userSpaceOnUse">
<stop stop-color="#FFD770"/>
<stop offset="1" stop-color="#FDBC12"/>
</linearGradient>
<linearGradient id="paint16_linear_1412_42444" x1="118.184" y1="178.012" x2="118.663" y2="181.206" gradientUnits="userSpaceOnUse">
<stop stop-color="#FFD770"/>
<stop offset="1" stop-color="#FDBC12"/>
</linearGradient>
<linearGradient id="paint17_linear_1412_42444" x1="77.1706" y1="165.252" x2="79.9904" y2="166.827" gradientUnits="userSpaceOnUse">
<stop stop-color="#FFD770"/>
<stop offset="1" stop-color="#FDBC12"/>
</linearGradient>
<linearGradient id="paint18_linear_1412_42444" x1="89.0545" y1="181.872" x2="92.2395" y2="181.334" gradientUnits="userSpaceOnUse">
<stop stop-color="#FFD770"/>
<stop offset="1" stop-color="#FDBC12"/>
</linearGradient>
<linearGradient id="paint19_linear_1412_42444" x1="87.7345" y1="178.09" x2="89.6059" y2="175.458" gradientUnits="userSpaceOnUse">
<stop stop-color="#FFD770"/>
<stop offset="1" stop-color="#FDBC12"/>
</linearGradient>
<linearGradient id="paint20_linear_1412_42444" x1="87.1357" y1="184.57" x2="87.6733" y2="187.754" gradientUnits="userSpaceOnUse">
<stop stop-color="#FFD770"/>
<stop offset="1" stop-color="#FDBC12"/>
</linearGradient>
<linearGradient id="paint21_linear_1412_42444" x1="81.7777" y1="177.756" x2="84.5523" y2="179.41" gradientUnits="userSpaceOnUse">
<stop stop-color="#FFD770"/>
<stop offset="1" stop-color="#FDBC12"/>
</linearGradient>
<linearGradient id="paint22_linear_1412_42444" x1="83.2222" y1="174.021" x2="86.3534" y2="173.228" gradientUnits="userSpaceOnUse">
<stop stop-color="#FFD770"/>
<stop offset="1" stop-color="#FDBC12"/>
</linearGradient>
<linearGradient id="paint23_linear_1412_42444" x1="87.1593" y1="177.681" x2="89.0307" y2="175.049" gradientUnits="userSpaceOnUse">
<stop stop-color="#FFD770"/>
<stop offset="1" stop-color="#FDBC12"/>
</linearGradient>
<linearGradient id="paint24_linear_1412_42444" x1="72.3481" y1="176.773" x2="75.4793" y2="175.98" gradientUnits="userSpaceOnUse">
<stop stop-color="#FFD770"/>
<stop offset="1" stop-color="#FDBC12"/>
</linearGradient>
<linearGradient id="paint25_linear_1412_42444" x1="78.5679" y1="178.569" x2="76.9149" y2="181.344" gradientUnits="userSpaceOnUse">
<stop stop-color="#FFD770"/>
<stop offset="1" stop-color="#FDBC12"/>
</linearGradient>
<linearGradient id="paint26_linear_1412_42444" x1="96.4472" y1="32.9156" x2="96.4472" y2="166.69" gradientUnits="userSpaceOnUse">
<stop stop-color="#FFBC98"/>
<stop offset="1" stop-color="#FAC4A6"/>
</linearGradient>
<linearGradient id="paint27_linear_1412_42444" x1="102.904" y1="139.941" x2="102.904" y2="4.70964" gradientUnits="userSpaceOnUse">
<stop offset="0.01" stop-color="#3D2B2B"/>
<stop offset="0.99" stop-color="#392419"/>
</linearGradient>
<linearGradient id="paint28_linear_1412_42444" x1="-5493.46" y1="2878.46" x2="-5493.46" y2="1838.65" gradientUnits="userSpaceOnUse">
<stop offset="0.01" stop-color="#3B2720"/>
<stop offset="0.99" stop-color="#4A3020"/>
</linearGradient>
<linearGradient id="paint29_linear_1412_42444" x1="-4430.9" y1="2313.1" x2="-4430.9" y2="1475.05" gradientUnits="userSpaceOnUse">
<stop offset="0.01" stop-color="#3B2720"/>
<stop offset="0.99" stop-color="#4A3020"/>
</linearGradient>
<linearGradient id="paint30_linear_1412_42444" x1="-4535.16" y1="1855.87" x2="-4535.16" y2="1583.73" gradientUnits="userSpaceOnUse">
<stop offset="0.01" stop-color="#3B2821"/>
<stop offset="0.99" stop-color="#6C5045"/>
</linearGradient>
<linearGradient id="paint31_linear_1412_42444" x1="101.788" y1="70.5006" x2="101.788" y2="12.4791" gradientUnits="userSpaceOnUse">
<stop offset="0.01" stop-color="#3D2B2B"/>
<stop offset="0.99" stop-color="#392419"/>
</linearGradient>
<linearGradient id="paint32_linear_1412_42444" x1="102.158" y1="7.10278" x2="61.5934" y2="66.7185" gradientUnits="userSpaceOnUse">
<stop stop-color="#4B3021"/>
<stop offset="1" stop-color="#241610"/>
</linearGradient>
<linearGradient id="paint33_linear_1412_42444" x1="85.0193" y1="94.5514" x2="85.0193" y2="112.948" gradientUnits="userSpaceOnUse">
<stop stop-color="#F5B694"/>
<stop offset="1" stop-color="#FF7762"/>
</linearGradient>
<linearGradient id="paint34_linear_1412_42444" x1="114.325" y1="74.7123" x2="114.325" y2="104.735" gradientUnits="userSpaceOnUse">
<stop stop-color="#FFF601"/>
<stop offset="1" stop-color="#F5C001"/>
</linearGradient>
<linearGradient id="paint35_linear_1412_42444" x1="59.8527" y1="74.3765" x2="59.8527" y2="104.399" gradientUnits="userSpaceOnUse">
<stop stop-color="#FFF601"/>
<stop offset="1" stop-color="#F5C001"/>
</linearGradient>
<linearGradient id="paint36_linear_1412_42444" x1="139.454" y1="53.5365" x2="153.668" y2="72.0436" gradientUnits="userSpaceOnUse">
<stop stop-color="#6D5145"/>
<stop offset="1" stop-color="#6D5145" stop-opacity="0"/>
</linearGradient>
<linearGradient id="paint37_linear_1412_42444" x1="141.553" y1="65.4909" x2="155.766" y2="83.998" gradientUnits="userSpaceOnUse">
<stop stop-color="#6D5145"/>
<stop offset="1" stop-color="#6D5145" stop-opacity="0"/>
</linearGradient>
<clipPath id="clip0_1412_42444">
<rect width="200" height="323" fill="white" transform="translate(0.898682 -36.5)"/>
</clipPath>
</defs>
</svg>
