<svg width="201" height="250" viewBox="0 0 201 250" fill="none" xmlns="http://www.w3.org/2000/svg">
<g clip-path="url(#clip0_3333_10974)">
<path d="M147.505 155.582C146.333 134.487 118.671 138.706 116.092 138.706C101.401 140.034 69.8155 143.581 61.001 147.144C52.1864 150.707 61.548 160.191 67.3306 164.488L116.092 155.582C126.954 162.613 148.443 172.458 147.505 155.582Z" fill="#F3E8FF"/>
<path d="M40.5422 175.43L83.9995 154.683L120.884 152.742L167.474 179.591L125.413 265.637H62.9693L40.5422 175.43Z" fill="#7854AE"/>
<path d="M70.3717 177.964L74.1945 162.167L98.1502 152.357L132.81 152.994C132.385 156.433 131.484 163.44 131.28 163.95C131.077 164.46 126.353 175.204 124.017 180.512L102.355 188.029L70.3717 177.964Z" fill="black" fill-opacity="0.23"/>
<path d="M96.0159 261.127C80.7817 262.201 70.2186 258.645 66.8413 256.733V252.34C72.7007 253.276 86.7386 255.147 96.0159 255.147C105.293 255.147 119.494 251.323 125.435 249.411L128.486 254.048C124.01 255.961 111.25 260.053 96.0159 261.127Z" fill="#1F0202"/>
<path d="M119.028 172.963L116.733 160.214C116.578 159.354 115.829 158.728 114.954 158.728H87.203C86.1477 158.728 85.3171 159.628 85.4021 160.68L87.1539 182.348C87.2298 183.287 88.0134 184.009 88.9548 184.009H107.246C107.69 184.009 108.118 183.846 108.449 183.551L118.452 174.631C118.921 174.213 119.139 173.581 119.028 172.963Z" fill="#BC896E"/>
<path fill-rule="evenodd" clip-rule="evenodd" d="M81.8267 239.875C83.2492 243.891 85.2429 247.683 87.7468 251.133C88.1517 251.637 88.5932 252.111 89.0679 252.551L90.0151 251.929L103.164 243.221C103.164 243.221 98.9887 215.392 99.4249 193.572C101.993 192.889 104.363 191.61 106.342 189.84C106.84 189.365 107.26 188.815 107.588 188.211C107.823 186.243 107.671 184.248 107.14 182.339C106.99 181.923 106.721 181.56 106.367 181.294C106.367 181.294 96.1595 180.05 91.9843 180.386C90.8572 181.792 90.2931 183.565 90.4015 185.362C91.0147 187.005 91.7869 188.584 92.7072 190.077C93.309 191.076 93.9971 192.021 94.7636 192.901L94.5891 193.361C94.5891 193.523 94.4521 193.722 94.3773 193.958C94.3025 194.194 94.1031 194.655 93.9535 195.09L93.8289 195.438L93.4674 196.459L93.3179 196.869C91.9345 200.75 89.7409 207.157 87.5972 214.534C85.2882 222.268 83.4609 230.137 82.1258 238.096C81.9887 238.631 81.9015 239.215 81.8267 239.875Z" fill="url(#paint0_linear_3333_10974)"/>
<path style="mix-blend-mode:multiply" opacity="0.5" d="M90.3649 185.276C90.9781 186.919 91.7503 188.498 92.6706 189.991C92.6706 189.991 93.6427 183.771 96.584 182.116C99.7999 181.423 103.127 181.423 106.343 182.116C106.589 182.177 106.839 182.223 107.091 182.253C106.941 181.837 106.672 181.474 106.318 181.208C106.318 181.208 96.1104 179.964 91.9352 180.3C90.8126 181.708 90.253 183.481 90.3649 185.276Z" fill="url(#paint1_linear_3333_10974)"/>
<path style="mix-blend-mode:multiply" opacity="0.5" d="M81.8832 240.039C81.8832 240.039 83.3614 244.473 84.3469 245.951C85.3324 247.429 88.7817 252.848 88.7817 252.848L90.0159 251.868L103.165 243.16C103.165 243.16 98.9895 215.332 99.4257 193.512C101.993 192.828 104.363 191.55 106.343 189.78C106.343 189.78 99.5254 192.915 94.727 192.84L94.5526 193.3L94.3407 193.897L93.9169 195.029L93.7923 195.378L93.4308 196.398L93.2813 196.808L98.0547 202.829C98.0547 202.829 99.5379 229.464 97.0452 239.13C94.7612 240.563 92.0779 241.23 89.3872 241.033C86.6965 240.836 84.1394 239.785 82.0892 238.035L81.8832 240.039Z" fill="url(#paint2_linear_3333_10974)"/>
<path d="M97.6206 179.658L103.339 181.943L107.678 202.395C119.383 194.873 128.273 177.808 128.273 177.808L120.035 164.887L117.681 164.887L117.306 166.954C111.616 174.58 97.6206 179.658 97.6206 179.658Z" fill="#ECE6AE"/>
<path d="M77.5801 180.616C77.5801 180.616 76.8269 193.871 80.6841 199.35C80.6841 199.35 89.0743 184.22 91.1285 181.924L96.7925 179.58L92.9673 177.642C92.9673 177.642 88.28 174.471 86.3292 170.696L83.1114 174.246L77.5801 180.616Z" fill="#ECE6AE"/>
<path d="M182.16 237.46L165.809 200.729C160.712 200.729 156.748 210.071 155.403 214.742L170.905 243.617L182.16 237.46Z" fill="#BBAAD3"/>
<path d="M31.1968 231.95L47.5486 195.219C52.6452 195.219 56.6092 204.561 57.9542 209.232L42.4519 238.108L31.1968 231.95Z" fill="#BBAAD3"/>
<path opacity="0.24" d="M42.9525 210.782L41.7815 196.395C56.5158 190.533 84.4039 176.645 86.0277 175.382C87.6514 174.119 86.7042 175.908 86.0277 176.96L42.9525 210.782Z" fill="#E4E4F1"/>
<path d="M187.287 260.949C217.259 205.841 147.935 150.736 146.411 150.228C138.029 161.487 120.807 184.258 118.979 185.274C117.15 186.29 118.217 229.378 118.979 250.795C121.603 257.821 163.309 305.036 187.287 260.949Z" fill="url(#paint3_linear_3333_10974)"/>
<path opacity="0.5" d="M174.439 242.639C164.218 258.633 143.704 254.302 134.724 250.137C127.225 252.08 136.39 269.574 155.831 271.24C175.272 272.906 183.326 254.302 185.548 250.137C187.77 245.971 187.214 222.647 174.439 242.639Z" fill="#BE1144"/>
<path d="M15.5856 254.425C-14.3871 199.317 42.303 157.697 60.7575 145.889C69.1397 157.147 72.7222 148.015 74.551 149.031C76.3798 150.046 55.6087 169.812 79.0516 254.425C76.4269 261.451 39.5637 298.512 15.5856 254.425Z" fill="url(#paint4_linear_3333_10974)"/>
<path d="M127.615 192.421C132.441 174.644 138.799 154.071 151.296 154.071C151.296 154.071 161.196 141.754 143.611 138.789C126.027 135.823 130.663 149.756 130.663 149.756C125.752 164.316 118.47 171.85 115.93 192.421C113.39 212.991 115.253 226.536 115.93 239.403L119.232 263.529L120.837 260.688C120.837 260.688 122.788 210.198 127.615 192.421Z" fill="#F3E8FF"/>
<path d="M69.4183 206.355C68.2422 182.252 76.1274 156.293 76.1274 156.293C76.1274 156.293 72.1845 148.562 65.8901 146.977C59.5957 145.393 53.7085 150.422 49.4256 159.911C39.8698 181.085 44.7216 201.064 52.9538 223.993C61.1859 246.921 69.4183 266.439 69.4183 266.439C69.4183 266.439 71.4087 273.472 76.1274 274.226C80.846 274.979 86.3732 271.714 86.3732 271.714C86.3732 271.714 70.5943 230.459 69.4183 206.355Z" fill="#F3E8FF"/>
<path d="M117.525 162.392C118.345 162.04 119.295 162.418 119.647 163.237L122.773 170.505C123.125 171.324 122.747 172.274 121.927 172.626C121.108 172.979 120.158 172.6 119.806 171.781L116.68 164.513C116.327 163.694 116.706 162.744 117.525 162.392Z" fill="url(#paint5_linear_3333_10974)"/>
<path d="M119.985 159.326C120.813 159.656 121.217 160.595 120.887 161.424L119.647 164.534C119.317 165.362 118.378 165.766 117.549 165.436C116.72 165.106 116.316 164.166 116.647 163.338L117.886 160.228C118.217 159.4 119.156 158.996 119.985 159.326Z" fill="url(#paint6_linear_3333_10974)"/>
<path d="M130.405 163.478C131.233 163.808 131.637 164.748 131.307 165.576L130.067 168.686C129.737 169.514 128.798 169.918 127.969 169.588C127.14 169.258 126.736 168.319 127.067 167.49L128.306 164.38C128.637 163.552 129.576 163.148 130.405 163.478Z" fill="url(#paint7_linear_3333_10974)"/>
<path d="M130.042 167.38C129.69 166.561 128.74 166.182 127.92 166.534L120.651 169.66C119.832 170.012 119.453 170.962 119.806 171.781C120.158 172.6 121.108 172.979 121.927 172.626L129.196 169.501C130.016 169.149 130.394 168.199 130.042 167.38Z" fill="url(#paint8_linear_3333_10974)"/>
<path d="M130.433 166.02C131.255 165.675 131.642 164.728 131.296 163.906L128.227 156.614C127.882 155.791 126.935 155.405 126.112 155.751C125.29 156.097 124.904 157.044 125.25 157.866L128.318 165.158C128.664 165.98 129.611 166.366 130.433 166.02Z" fill="url(#paint9_linear_3333_10974)"/>
<path d="M125.622 176.651C124.74 176.783 123.918 176.176 123.786 175.294L122.614 167.47C122.482 166.588 123.09 165.766 123.972 165.633C124.854 165.501 125.676 166.109 125.808 166.991L126.981 174.815C127.113 175.697 126.505 176.519 125.622 176.651Z" fill="#FFBC0E"/>
<path d="M117.144 167.389C117.861 167.919 118.013 168.93 117.482 169.647L115.491 172.339C114.961 173.056 113.95 173.208 113.233 172.678C112.515 172.147 112.364 171.136 112.894 170.419L114.885 167.727C115.415 167.01 116.427 166.859 117.144 167.389Z" fill="#FFBC0E"/>
<path d="M126.163 174.057C126.88 174.587 127.032 175.599 126.502 176.316L124.511 179.007C123.98 179.724 122.969 179.876 122.252 179.346C121.534 178.815 121.383 177.804 121.913 177.087L123.904 174.395C124.435 173.678 125.446 173.527 126.163 174.057Z" fill="#FFBC0E"/>
<path d="M114.789 168.642C114.921 169.524 115.743 170.131 116.625 169.999L124.45 168.827C125.333 168.695 125.941 167.873 125.809 166.991C125.676 166.109 124.854 165.501 123.972 165.634L116.147 166.805C115.264 166.937 114.656 167.76 114.789 168.642Z" fill="#FFBC0E"/>
<path d="M108.025 192.235C107.145 192.087 106.553 191.253 106.701 190.374L108.018 182.573C108.167 181.694 109 181.101 109.88 181.25C110.759 181.398 111.352 182.232 111.204 183.111L109.886 190.912C109.738 191.791 108.904 192.384 108.025 192.235Z" fill="#FFBC0E"/>
<path d="M107.456 176.109C108.335 176.258 108.928 177.091 108.78 177.97L107.462 185.771C107.314 186.65 106.48 187.243 105.601 187.094C104.721 186.946 104.129 186.113 104.277 185.233L105.594 177.432C105.743 176.553 106.576 175.961 107.456 176.109Z" fill="url(#paint10_linear_3333_10974)"/>
<path d="M111.186 174.867C111.702 175.594 111.532 176.602 110.805 177.119L108.076 179.059C107.349 179.576 106.341 179.406 105.824 178.679C105.307 177.952 105.478 176.944 106.204 176.427L108.933 174.487C109.66 173.97 110.669 174.141 111.186 174.867Z" fill="url(#paint11_linear_3333_10974)"/>
<path d="M102.854 180.811C103.367 181.533 103.204 182.532 102.488 183.053L98.2613 186.126C97.5345 186.655 96.516 186.488 95.9952 185.756C95.4822 185.035 95.6456 184.035 96.3615 183.515L100.588 180.441C101.315 179.913 102.334 180.079 102.854 180.811Z" fill="#FFBC0E"/>
<path d="M109.357 189.954C109.869 190.674 109.707 191.672 108.993 192.194L104.389 195.557C103.662 196.088 102.642 195.922 102.12 195.189C101.608 194.469 101.77 193.471 102.484 192.95L107.088 189.586C107.815 189.055 108.835 189.221 109.357 189.954Z" fill="#FFBC0E"/>
<path d="M100.216 181.256C100.068 182.136 100.66 182.969 101.54 183.117L109.342 184.434C110.222 184.583 111.055 183.99 111.204 183.111C111.352 182.232 110.76 181.398 109.88 181.25L102.078 179.933C101.198 179.784 100.365 180.377 100.216 181.256Z" fill="#FFBC0E"/>
<path d="M115.264 187.088C115.413 186.209 114.82 185.376 113.941 185.227L106.138 183.91C105.259 183.761 104.426 184.354 104.277 185.233C104.129 186.113 104.721 186.946 105.601 187.094L113.403 188.412C114.283 188.56 115.116 187.968 115.264 187.088Z" fill="url(#paint12_linear_3333_10974)"/>
<path d="M116.941 185.896C116.062 185.748 115.469 184.914 115.618 184.035L116.935 176.234C117.084 175.355 117.917 174.762 118.796 174.911C119.676 175.059 120.269 175.893 120.12 176.772L118.803 184.573C118.654 185.452 117.821 186.045 116.941 185.896Z" fill="#FFBC0E"/>
<path d="M113.1 170.774C113.982 170.642 114.804 171.25 114.936 172.132L116.108 179.956C116.24 180.838 115.632 181.66 114.75 181.792C113.868 181.924 113.046 181.316 112.914 180.434L111.742 172.61C111.609 171.728 112.217 170.906 113.1 170.774Z" fill="url(#paint13_linear_3333_10974)"/>
<path d="M116.259 168.435C116.976 168.965 117.127 169.977 116.597 170.694L114.606 173.386C114.076 174.103 113.064 174.254 112.347 173.724C111.63 173.194 111.478 172.182 112.009 171.465L114 168.773C114.53 168.056 115.541 167.905 116.259 168.435Z" fill="url(#paint14_linear_3333_10974)"/>
<path d="M111.761 174.458C112.278 175.185 112.107 176.193 111.381 176.71L108.652 178.65C107.925 179.167 106.916 178.997 106.399 178.27C105.882 177.543 106.053 176.535 106.78 176.018L109.509 174.078C110.236 173.561 111.244 173.731 111.761 174.458Z" fill="#FFBC0E"/>
<path d="M125.278 175.103C125.995 175.634 126.146 176.645 125.616 177.362L123.625 180.054C123.095 180.771 122.084 180.922 121.366 180.392C120.649 179.862 120.498 178.85 121.028 178.133L123.019 175.442C123.549 174.724 124.561 174.573 125.278 175.103Z" fill="url(#paint15_linear_3333_10974)"/>
<path d="M118.261 183.598C118.778 184.325 118.608 185.333 117.881 185.85L115.152 187.79C114.425 188.307 113.417 188.137 112.9 187.41C112.383 186.683 112.553 185.675 113.28 185.158L116.009 183.218C116.736 182.701 117.744 182.871 118.261 183.598Z" fill="#FFBC0E"/>
<path d="M109.133 174.917C108.984 175.796 109.577 176.63 110.456 176.778L118.259 178.095C119.138 178.244 119.972 177.651 120.12 176.772C120.269 175.892 119.676 175.059 118.797 174.911L110.994 173.594C110.115 173.445 109.281 174.038 109.133 174.917Z" fill="#FFBC0E"/>
<path d="M123.934 178.784C123.801 177.902 122.979 177.294 122.097 177.426L114.272 178.598C113.389 178.73 112.781 179.552 112.914 180.434C113.046 181.316 113.868 181.924 114.75 181.792L122.575 180.62C123.458 180.488 124.066 179.666 123.934 178.784Z" fill="url(#paint16_linear_3333_10974)"/>
<path opacity="0.1" d="M151.519 154.241C139.05 153.424 134.246 163.54 121.16 171.67C114.653 173.634 104.551 177.352 96.6636 177.352C86.6742 177.352 80.0818 173.002 72.7357 170.037C70.5272 169.145 71.2779 158.196 51.2152 156.809C51.2152 156.809 58.1494 133.977 99.2748 129.139C112.022 129.139 125.71 130.945 133.671 135.521C136.939 137.4 139.914 135.564 143.342 138.709C148.044 139.833 158.98 141.775 151.519 154.241Z" fill="#1F0101"/>
<path d="M80.1847 163.168C79.406 162.733 78.4221 163.012 77.9871 163.791L76.3542 166.713C75.9192 167.492 76.1978 168.476 76.9766 168.911C77.7553 169.346 78.7392 169.067 79.1742 168.288L80.8071 165.366C81.2421 164.587 80.9634 163.603 80.1847 163.168Z" fill="url(#paint17_linear_3333_10974)"/>
<path d="M72.5264 175.55C73.2927 176.007 74.284 175.756 74.7406 174.99L78.7912 168.194C79.2478 167.428 78.9968 166.436 78.2305 165.98C77.4643 165.523 76.4729 165.774 76.0163 166.54L71.9658 173.337C71.5091 174.103 71.7602 175.094 72.5264 175.55Z" fill="#FFBC0E"/>
<path d="M85.6145 172.252C85.1579 173.018 84.1666 173.269 83.4004 172.812L76.6029 168.762C75.8367 168.306 75.5857 167.315 76.0423 166.549C76.4989 165.782 77.4902 165.531 78.2565 165.988L85.0539 170.038C85.8201 170.494 86.0712 171.485 85.6145 172.252Z" fill="#FFBC0E"/>
<path d="M89.1506 192.236C90.0302 192.088 90.6228 191.254 90.4743 190.375L89.1568 182.574C89.0083 181.695 88.1749 181.102 87.2954 181.251C86.4158 181.399 85.8232 182.233 85.9717 183.112L87.2892 190.913C87.4377 191.792 88.2711 192.385 89.1506 192.236Z" fill="#FFBC0E"/>
<path d="M89.7194 176.11C88.8399 176.259 88.2473 177.092 88.3958 177.971L89.7132 185.772C89.8617 186.651 90.6951 187.244 91.5747 187.095C92.4542 186.947 93.0468 186.114 92.8983 185.234L91.5809 177.433C91.4324 176.554 90.5989 175.962 89.7194 176.11Z" fill="url(#paint18_linear_3333_10974)"/>
<path d="M85.9898 174.868C85.4729 175.595 85.6431 176.603 86.3701 177.12L89.099 179.06C89.826 179.577 90.8343 179.407 91.3512 178.68C91.8681 177.953 91.6979 176.945 90.9709 176.428L88.242 174.488C87.515 173.971 86.5067 174.142 85.9898 174.868Z" fill="url(#paint19_linear_3333_10974)"/>
<path d="M94.3211 180.812C93.8081 181.534 93.9715 182.533 94.6874 183.054L98.9141 186.127C99.6409 186.656 100.659 186.489 101.18 185.757C101.693 185.036 101.53 184.036 100.814 183.515L96.5871 180.442C95.8603 179.914 94.8419 180.08 94.3211 180.812Z" fill="#FFBC0E"/>
<path d="M87.8185 189.955C87.3064 190.675 87.4683 191.673 88.1819 192.195L92.7863 195.558C93.5131 196.089 94.5336 195.923 95.0552 195.19C95.5674 194.47 95.4054 193.472 94.6918 192.951L90.0874 189.587C89.3607 189.056 88.3401 189.222 87.8185 189.955Z" fill="#FFBC0E"/>
<path d="M96.9592 181.257C97.1077 182.136 96.5151 182.97 95.6355 183.118L87.8332 184.435C86.9537 184.584 86.1203 183.991 85.9718 183.112C85.8233 182.233 86.4159 181.399 87.2954 181.251L95.0977 179.934C95.9773 179.785 96.8107 180.378 96.9592 181.257Z" fill="#FFBC0E"/>
<path d="M81.9109 187.089C81.7624 186.21 82.355 185.377 83.2346 185.228L91.0369 183.911C91.9164 183.762 92.7498 184.355 92.8984 185.234C93.0469 186.114 92.4543 186.947 91.5747 187.095L83.7724 188.413C82.8929 188.561 82.0595 187.969 81.9109 187.089Z" fill="url(#paint20_linear_3333_10974)"/>
<path d="M80.2343 185.897C81.1138 185.749 81.7064 184.915 81.5579 184.036L80.2404 176.235C80.0919 175.356 79.2585 174.763 78.379 174.912C77.4995 175.06 76.9068 175.894 77.0554 176.773L78.3728 184.574C78.5213 185.453 79.3547 186.046 80.2343 185.897Z" fill="#FFBC0E"/>
<path d="M86.0172 173.797C85.251 173.341 84.2596 173.592 83.803 174.358L79.7525 181.154C79.2959 181.92 79.5469 182.911 80.3131 183.368C81.0794 183.824 82.0707 183.573 82.5273 182.807L86.5779 176.011C87.0345 175.245 86.7835 174.254 86.0172 173.797Z" fill="url(#paint21_linear_3333_10974)"/>
<path d="M83.9804 170.436C83.1157 170.655 82.5923 171.533 82.8112 172.398L83.6332 175.643C83.8521 176.508 84.7306 177.031 85.5953 176.812C86.46 176.593 86.9834 175.715 86.7645 174.85L85.9425 171.605C85.7236 170.74 84.8451 170.217 83.9804 170.436Z" fill="url(#paint22_linear_3333_10974)"/>
<path d="M85.4146 174.459C84.8977 175.186 85.068 176.194 85.7949 176.711L88.5239 178.651C89.2508 179.168 90.2591 178.998 90.776 178.271C91.293 177.544 91.1227 176.536 90.3958 176.019L87.6668 174.079C86.9399 173.562 85.9315 173.732 85.4146 174.459Z" fill="url(#paint23_linear_3333_10974)"/>
<path d="M73.1064 173.189C72.2417 173.408 71.7182 174.286 71.9371 175.151L72.7591 178.396C72.978 179.261 73.8565 179.784 74.7212 179.565C75.5859 179.346 76.1094 178.468 75.8904 177.603L75.0685 174.358C74.8495 173.493 73.9711 172.97 73.1064 173.189Z" fill="url(#paint24_linear_3333_10974)"/>
<path d="M78.9141 183.599C78.3972 184.326 78.5674 185.334 79.2944 185.851L82.0233 187.791C82.7502 188.308 83.7586 188.138 84.2755 187.411C84.7924 186.684 84.6221 185.676 83.8952 185.159L81.1663 183.219C80.4393 182.702 79.431 182.872 78.9141 183.599Z" fill="#FFBC0E"/>
<path d="M88.0426 174.918C88.1912 175.797 87.5985 176.63 86.719 176.779L78.9167 178.096C78.0372 178.245 77.2038 177.652 77.0552 176.773C76.9067 175.893 77.4993 175.06 78.3789 174.912L86.1812 173.594C87.0607 173.446 87.8941 174.038 88.0426 174.918Z" fill="#FFBC0E"/>
<path d="M72.9551 177.104C73.4117 176.338 74.403 176.087 75.1693 176.544L81.9667 180.594C82.7329 181.05 82.984 182.041 82.5274 182.807C82.0707 183.573 81.0794 183.824 80.3132 183.368L73.5157 179.318C72.7495 178.862 72.4985 177.87 72.9551 177.104Z" fill="url(#paint25_linear_3333_10974)"/>
<path d="M36.2178 79.4041C28.7107 70.0575 37.4572 53.7953 42.7688 46.8325L68.9728 36.7424L58.7037 94.0968H42.7688C43.713 93.0937 43.7249 88.7508 36.2178 79.4041Z" fill="#23140D"/>
<path d="M150.943 105.185C150.519 145.526 127.741 164.973 99.593 166.59C71.4447 168.208 44.9503 150.042 42.9708 123.172C42.9708 123.172 41.3597 79.801 42.0622 63.0464C43.1289 16.7663 114.245 33.9212 149.669 48.2837C150.235 53.804 151.283 72.9127 150.943 105.185Z" fill="url(#paint26_linear_3333_10974)"/>
<path d="M84.8222 84.5954C82.2617 84.5954 79.838 85.2239 78.9462 85.5382L79.3545 83.1287C80.4436 82.7731 83.0618 82.062 84.8222 82.062C87.0226 82.062 91.6235 82.7287 90.89 83.1287C90.3032 83.4487 90.6455 85.1287 90.89 85.9287C89.9343 85.4843 87.3827 84.5954 84.8222 84.5954Z" fill="#FBDD02"/>
<path d="M126.889 106.467C126.966 108.912 122.166 111.048 116.166 111.237C110.167 111.426 105.241 109.598 105.164 107.153C105.087 104.708 109.888 102.572 115.887 102.383C121.886 102.194 126.812 104.022 126.889 106.467Z" fill="#FCA28E"/>
<path d="M69.3198 106.467C69.397 108.912 64.5962 111.048 58.5969 111.237C52.5977 111.426 47.6717 109.598 47.5946 107.153C47.5174 104.708 52.3183 102.572 58.3175 102.383C64.3168 102.194 69.2427 104.022 69.3198 106.467Z" fill="#FCA28E"/>
<path opacity="0.2" d="M81.3106 88.1497C81.2418 89.344 80.4497 90.2697 79.5412 90.2174C78.6328 90.1651 77.9522 89.1546 78.021 87.9603C78.0897 86.766 78.8819 85.8403 79.7903 85.8926C80.6988 85.9449 81.3794 86.9554 81.3106 88.1497Z" fill="#F1B69E"/>
<path opacity="0.56" d="M88.388 88.7199C88.3192 89.9141 87.5271 90.8399 86.6186 90.7876C85.7102 90.7353 85.0296 89.7247 85.0984 88.5305C85.1671 87.3362 85.9593 86.4104 86.8677 86.4627C87.7762 86.515 88.4568 87.5256 88.388 88.7199Z" fill="#F1B69E"/>
<path d="M63.6409 87.1299C63.3803 91.655 59.5197 95.1132 55.018 94.8541C50.5164 94.5949 47.0784 90.7164 47.339 86.1913C47.5997 81.6662 51.4602 78.2079 55.9619 78.4671C60.4635 78.7263 63.9016 82.6047 63.6409 87.1299Z" fill="#E89979"/>
<path d="M118.667 87.1299C118.407 91.655 114.546 95.1132 110.045 94.8541C105.543 94.5949 102.105 90.7164 102.366 86.1913C102.626 81.6662 106.487 78.2079 110.988 78.4671C115.49 78.7263 118.928 82.6047 118.667 87.1299Z" fill="#E89979"/>
<path opacity="0.3" d="M132.206 53.141C131.945 57.6661 123.743 60.8744 113.885 60.3069C104.028 59.7393 96.2485 55.6109 96.5091 51.0858C96.7697 46.5607 104.972 43.3524 114.829 43.9199C124.687 44.4875 132.466 48.6159 132.206 53.141Z" fill="#FAEDFF"/>
<path opacity="0.3" d="M124.119 49.7722C123.945 52.7937 118.469 54.9358 111.887 54.5569C105.305 54.1779 100.111 51.4214 100.285 48.4C100.459 45.3785 105.935 43.2364 112.517 43.6153C119.099 43.9943 124.293 46.7508 124.119 49.7722Z" fill="#FAEDFF"/>
<path opacity="0.3" d="M101.97 154.629C101.796 157.651 96.3192 159.793 89.7375 159.414C83.1557 159.035 77.9613 156.278 78.1353 153.257C78.3093 150.235 83.7859 148.093 90.3677 148.472C96.9494 148.851 102.144 151.608 101.97 154.629Z" fill="#FAEDFF"/>
<path opacity="0.3" d="M96.7564 156.668C96.6565 158.402 93.5141 159.631 89.7376 159.414C85.961 159.196 82.9805 157.615 83.0803 155.881C83.1802 154.147 86.3226 152.918 90.0992 153.136C93.8757 153.353 96.8563 154.935 96.7564 156.668Z" fill="#FAEDFF"/>
<mask id="mask0_3333_10974" style="mask-type:alpha" maskUnits="userSpaceOnUse" x="51" y="113" width="72" height="31">
<path d="M57.7454 115.791C60.406 116.505 67.7226 116.845 71.0483 116.926C78.592 116.926 94.734 116.829 98.952 116.44C104.224 115.953 126.612 108.492 122.151 120.251C117.69 132.011 104.873 143.284 86.0546 143.77C67.2359 144.257 54.5008 127.713 51.9863 122.847C49.4717 117.981 54.4197 114.899 57.7454 115.791Z" fill="#AA2727"/>
</mask>
<g mask="url(#mask0_3333_10974)">
<path d="M57.7454 115.791C60.406 116.505 67.7226 116.845 71.0483 116.926C78.592 116.926 94.734 116.829 98.952 116.44C104.224 115.953 126.612 108.492 122.151 120.251C117.69 132.011 104.873 143.284 86.0546 143.77C67.2359 144.257 54.5008 127.713 51.9863 122.847C49.4717 117.981 54.4197 114.899 57.7454 115.791Z" fill="#AA2727"/>
<path d="M57.1619 117.657C59.5816 118.306 66.2359 118.616 69.2606 118.689C76.1214 118.689 90.8022 118.601 94.6384 118.247C99.4336 117.804 119.795 111.019 115.737 121.714C111.68 132.409 100.024 142.661 82.9085 143.104C65.7933 143.546 54.211 128.499 51.924 124.074C49.6371 119.648 54.1372 116.846 57.1619 117.657Z" fill="#F35353"/>
<path d="M61.759 121.462C60.445 121.052 59.2946 117.544 58.8765 115.815C64.4579 116.166 76.6886 116.82 84.2523 116.82C92.0114 116.82 108.631 113.893 114.071 113.725C114.071 113.725 114.239 116.486 112.523 118.264C110.808 120.042 100.926 123.34 90.443 124.247C77.3392 125.382 63.4099 121.978 61.759 121.462Z" fill="#E4E4F1"/>
<path d="M99.8143 133.939C99.8143 136.347 94.147 138.299 87.1561 138.299C80.1652 138.299 74.4979 136.347 74.4979 133.939C74.4979 131.532 80.1652 129.58 87.1561 129.58C94.147 129.58 99.8143 131.532 99.8143 133.939Z" fill="#E33867"/>
<path d="M66.4541 134.649L65.8661 138.177C69.3942 140.136 78.0968 144.291 84.6826 145.232C91.2684 146.172 101.539 142.88 105.851 141.116C105.655 138.765 105.188 136.08 105.059 135.428C104.824 134.232 104.215 132.725 103.039 133.313C101.863 133.901 96.0129 134.604 85.6027 134.649C75.1926 134.695 71.1582 133.474 68.8062 132.886C66.4541 132.298 66.4541 134.649 66.4541 134.649Z" fill="#E4E4F1"/>
</g>
<path d="M115.06 86.7266C115.06 90.0847 112.337 92.807 108.978 92.807C105.62 92.807 102.897 90.0847 102.897 86.7266C102.897 83.3685 105.62 80.6462 108.978 80.6462C112.337 80.6462 115.06 83.3685 115.06 86.7266Z" fill="#261611"/>
<path opacity="0.1" d="M114.145 88.0441C114.145 88.9359 111.832 92.087 108.978 92.087C106.125 92.087 103.811 88.9359 103.811 88.0441C103.811 87.1524 106.125 88.4772 108.978 88.4772C111.832 88.4772 114.145 87.1524 114.145 88.0441Z" fill="#F3CEC4"/>
<path d="M108.979 84.4425C108.979 85.7765 107.897 86.8579 106.563 86.8579C105.228 86.8579 104.147 85.7765 104.147 84.4425C104.147 83.1085 105.228 82.0271 106.563 82.0271C107.897 82.0271 108.979 83.1085 108.979 84.4425Z" fill="#F3CEC4"/>
<path opacity="0.2" d="M112.206 84.4421C112.206 84.9304 111.81 85.3262 111.322 85.3262C110.833 85.3262 110.438 84.9304 110.438 84.4421C110.438 83.9539 110.833 83.5581 111.322 83.5581C111.81 83.5581 112.206 83.9539 112.206 84.4421Z" fill="#F3CEC4"/>
<path d="M51.3487 86.0066C51.3487 89.3647 54.0715 92.087 57.4302 92.087C60.7889 92.087 63.5117 89.3647 63.5117 86.0066C63.5117 82.6485 60.7889 79.9263 57.4302 79.9263C54.0715 79.9263 51.3487 82.6485 51.3487 86.0066Z" fill="#261611"/>
<path opacity="0.1" d="M52.2637 87.3241C52.2637 88.2158 54.577 91.3669 57.4306 91.3669C60.2843 91.3669 62.5976 88.2158 62.5976 87.3241C62.5976 86.4323 60.2843 87.7571 57.4306 87.7571C54.577 87.7571 52.2637 86.4323 52.2637 87.3241Z" fill="#F3CEC4"/>
<path d="M57.4305 83.7219C57.4305 85.0559 58.5121 86.1373 59.8463 86.1373C61.1806 86.1373 62.2622 85.0559 62.2622 83.7219C62.2622 82.3878 61.1806 81.3064 59.8463 81.3064C58.5121 81.3064 57.4305 82.3878 57.4305 83.7219Z" fill="#F3CEC4"/>
<path opacity="0.2" d="M54.2031 83.7221C54.2031 84.2104 54.599 84.6061 55.0873 84.6061C55.5756 84.6061 55.9715 84.2104 55.9715 83.7221C55.9715 83.2339 55.5756 82.8381 55.0873 82.8381C54.599 82.8381 54.2031 83.2339 54.2031 83.7221Z" fill="#F3CEC4"/>
<path d="M45.2543 59.1913L44.9719 50.6091C47.1244 55.8636 50.2621 60.6727 54.2212 64.7854C54.2212 64.7854 56.9396 47.1344 61.5643 40.7064C61.5643 40.7064 63.6824 40.7064 67.3186 40.7064C70.9548 40.7064 76.5328 40.3242 83.0285 39.8031C93.6194 38.9344 115.295 38.5869 130.44 45.2582C133.671 46.6146 134.846 48.3286 137.486 50.6091C139.357 56.0473 141.63 61.9994 140.631 67.6563C139.632 73.3132 137.209 78.6336 133.582 83.1314C133.582 83.1314 139.019 86.6273 141.985 102.124C144.95 117.621 141.985 120.521 141.985 120.521L161.054 112.857C166.582 100.446 165.945 102.212 168.321 88.8645C170.756 70.9355 172.193 49.9489 162.485 45.2582C139.208 34.0116 164.031 24.5952 88.1474 6.34259C55.9298 -16.0685 34.4559 -12.5464 34.4559 21.6557C34.4559 43.3049 45.2543 59.1913 45.2543 59.1913Z" fill="url(#paint27_linear_3333_10974)"/>
<path d="M75.4026 4.74482C75.4026 4.74482 47.5132 14.5085 54.2208 64.786C54.2208 64.786 34.5217 26.5653 54.2208 7.73299C61.0528 5.53948 68.2196 4.52845 75.4026 4.74482Z" fill="url(#paint28_linear_3333_10974)"/>
<path d="M57.4301 -3.02184C57.4301 -3.02184 34.9521 4.84735 40.3582 45.3695C40.3582 45.3695 24.4814 14.5648 40.3582 -0.613475C45.8646 -2.38137 51.6408 -3.19623 57.4301 -3.02184Z" fill="url(#paint29_linear_3333_10974)"/>
<path d="M138.612 74.1996C138.612 74.1996 139.864 80.3814 160.563 87.9247C159.98 92.6055 159.107 97.2469 157.95 101.823C157.95 101.823 144.896 87.7853 137.694 77.3615L138.612 74.1996Z" fill="url(#paint30_linear_3333_10974)"/>
<path d="M148.551 82.8436V88.8786V106.775C148.551 112.776 160.556 111.419 162.774 106.775C168.563 94.6583 163.121 74.8315 156.565 74.8315C150.008 74.8315 148.551 79.0977 148.551 82.8436Z" fill="#F1B69E"/>
<path d="M148.551 88.169V90.9786V99.3105C148.551 102.104 154.14 101.472 155.173 99.3105C157.868 93.6693 155.334 84.439 152.282 84.439C149.23 84.439 148.551 86.4251 148.551 88.169Z" fill="#D07F5E"/>
<path opacity="0.5" d="M148.551 82.8436V88.8786V106.775C148.551 112.776 160.556 111.419 162.774 106.775C168.563 94.6583 163.121 74.8315 156.565 74.8315C150.008 74.8315 148.551 79.0977 148.551 82.8436Z" fill="#D07F5E"/>
<path d="M148.551 82.8436V88.8786V106.775C148.551 112.776 158.488 111.419 160.324 106.775C165.115 94.6583 160.611 74.8315 155.184 74.8315C149.757 74.8315 148.551 79.0977 148.551 82.8436Z" fill="#F1B69E"/>
<path d="M148.551 88.169V90.9786V99.3105C148.551 102.104 154.14 101.472 155.173 99.3105C157.868 93.6694 155.334 84.439 152.282 84.439C149.23 84.439 148.551 86.4251 148.551 88.169Z" fill="#D07F5E"/>
<path d="M148.551 93.3942V94.9214V99.4501C148.551 100.969 150.917 100.625 151.354 99.4501C152.494 96.3839 151.422 91.3668 150.13 91.3668C148.838 91.3668 148.551 92.4464 148.551 93.3942Z" fill="#F1B69E"/>
<path opacity="0.45" d="M78.1987 40.2123C74.4717 40.7159 76.1842 39.6668 74.4213 39.457C62.5434 38.1981 47.9038 32.5079 84.3686 19.8182C120.833 7.12848 133.937 37.6526 138.637 50.0317C137.252 48.2693 128.917 34.3459 115.721 29.5117C99.2264 23.469 82.8575 39.5829 78.1987 40.2123Z" fill="black"/>
<path d="M85.1019 71.8546C63.0583 55.4803 60.4581 37.1594 61.9134 30.0458C61.9781 21.6711 68.0648 5.38728 91.8936 7.24976C115.722 9.11224 135.716 20.313 142.734 25.6806C104.534 14.8596 62.9532 24.0754 85.1019 71.8546Z" fill="url(#paint31_linear_3333_10974)"/>
<path d="M85.1019 71.8546C63.0583 55.4803 60.4581 37.1594 61.9134 30.0458C61.9781 21.6711 68.0648 5.38728 91.8936 7.24976C115.722 9.11224 135.716 20.313 142.734 25.6806C104.534 14.8596 62.9532 24.0754 85.1019 71.8546Z" fill="url(#paint32_linear_3333_10974)"/>
<path d="M96.7395 75.3354C93.8944 72.6002 94.7894 69.4385 97.3961 66.3641C100.003 63.2897 122.236 69.5369 124.643 70.0839C127.051 70.6309 127.598 73.5849 125.737 75.3354C123.877 77.0858 99.5846 78.0705 96.7395 75.3354Z" fill="#3B2822"/>
<path d="M70.5012 73.8598C72.9183 71.1246 72.1579 67.963 69.9434 64.8886C67.7289 61.8142 48.8403 68.0613 46.7951 68.6083C44.7499 69.1554 44.285 72.1093 45.8654 73.8598C47.4459 75.6103 68.084 76.5949 70.5012 73.8598Z" fill="#3B2822"/>
<path d="M84.7392 78.2898C80.6051 78.2898 78.0605 76.6213 76.6206 77.1287L75.9112 75.9217C77.6696 75.3476 81.897 74.1995 84.7392 74.1995C88.2919 74.1995 95.7204 75.2758 94.5362 75.9217C93.5888 76.4383 92.8291 76.5037 93.2239 77.7953C91.6808 77.0778 88.8733 78.2898 84.7392 78.2898Z" fill="#FBDD02"/>
<path opacity="0.5" d="M98.683 74.7961C96.228 73.5656 97.0003 72.1432 99.2496 70.7601C101.499 69.377 120.684 72.1875 122.761 72.4336C124.838 72.6797 125.311 74.0086 123.705 74.7961C122.1 75.5836 101.138 76.0266 98.683 74.7961Z" fill="#201510"/>
<path opacity="0.5" d="M68.8498 73.3205C70.9356 72.09 70.2794 70.6677 68.3685 69.2845C66.4576 67.9014 50.1587 70.7119 48.3939 70.958C46.629 71.2041 46.228 72.533 47.5917 73.3205C48.9554 74.108 66.7641 74.551 68.8498 73.3205Z" fill="#201510"/>
<path d="M113.198 28.8845C95.8994 22.7243 85.0566 17.1982 81.7975 15.2052L93.9345 -30.8284L104.227 1.90404L135.663 -21.6318L145.214 16.3086L179.841 -2.58378L157.137 40.4648C149.699 39.1715 130.497 35.0448 113.198 28.8845Z" fill="#FBE315"/>
<path d="M135.657 -21.6252L104.195 1.92014L113.701 10.0791L135.657 -21.6252Z" fill="#EDFF7B"/>
<path d="M81.2989 17.1793C83.6461 8.48025 93.9087 -30.7981 93.9087 -30.7981L94.3819 27.7891C83.9154 23.5743 81.2989 17.1793 81.2989 17.1793Z" fill="#EDFF7B"/>
<path d="M111.94 35.4131C94.641 29.2529 79.1731 20.6054 81.7975 15.2053L85.6458 0.609255C85.6458 0.609255 86.7095 12.4008 117.004 22.0969C147.298 31.7929 148.78 25.8249 148.78 25.8249L174.395 1.76073L179.841 -2.58366L157.137 40.4649C155.191 44.3238 129.239 41.5734 111.94 35.4131Z" fill="#FBC815"/>
<path opacity="0.5" d="M81.2988 17.1793C83.646 8.48025 93.9087 -30.7981 93.9087 -30.7981L94.3818 27.7891C83.9154 23.5743 81.2988 17.1793 81.2988 17.1793Z" fill="#EDFF7B"/>
<path d="M72.8172 106.637C72.8172 106.637 80.946 93.1005 80.946 89.7622C80.946 89.7622 82.3311 100.551 90.2052 97.8894C98.0794 95.2282 102.505 108.121 96.7793 106.637C91.0535 105.152 94.2345 107.909 90.2052 110.877C86.176 113.846 74.8042 113.421 72.8172 106.637Z" fill="url(#paint33_linear_3333_10974)"/>
<path d="M89.8611 110.917C91.4243 108.038 95.2666 103.143 98.1298 106.598C98.1298 106.598 93.8103 110.917 89.8611 110.917Z" fill="#AA2727"/>
<path d="M145.177 16.2697L179.845 -2.58142L147.683 26.7932L145.177 16.2697Z" fill="#EDFF7B"/>
<path d="M149.157 79.1219C148.721 81.2226 127.836 83.4022 127.836 83.4022L128.49 75.0042L155.763 73.8042L151.642 75.7402C151.642 75.7402 149.592 77.0212 149.157 79.1219Z" fill="#041A30"/>
<path d="M120.299 75.2866L96.6125 75.8498C93.2366 75.8498 89.3342 80.0633 91.5478 87.834C95.684 102.35 111.016 104.495 117.969 104.122C124.923 103.75 127.882 100.879 128.716 97.2644C129.551 93.6493 129.643 88.9219 128.716 82.7114C128.129 78.7745 122.973 75.5679 120.299 75.2866Z" fill="#001B33" fill-opacity="0.93"/>
<path fill-rule="evenodd" clip-rule="evenodd" d="M120.323 74.7119L120.36 74.7158L138.325 74.7119C138.325 74.7119 128.959 80.4489 129.284 82.6267C130.218 88.8794 130.132 93.6845 129.276 97.3935C128.831 99.3225 127.81 101.071 125.97 102.378C124.141 103.676 121.546 104.506 118 104.696C114.459 104.885 108.793 104.436 103.47 102.087C98.1306 99.7293 93.1203 95.4477 90.9957 87.9913C89.8573 83.9952 90.2714 80.8363 91.4818 78.6499C92.6858 76.4751 94.6789 75.2787 96.6056 75.2758L120.323 74.7119ZM120.275 75.8615L96.6194 76.4239H96.6126C95.1656 76.4239 93.5228 77.334 92.4865 79.2059C91.4551 81.069 91.0248 83.9023 92.1001 87.6768C94.1117 94.7366 98.8353 98.7854 103.934 101.036C109.05 103.295 114.526 103.732 117.939 103.549C121.346 103.367 123.708 102.575 125.305 101.441C126.891 100.316 127.768 98.8215 128.157 97.1354C128.97 93.6142 129.069 88.9645 128.148 82.7962C127.886 81.0371 126.581 79.3685 124.936 78.0801C123.307 76.8045 121.47 75.9992 120.275 75.8615Z" fill="url(#paint34_linear_3333_10974)"/>
<path fill-rule="evenodd" clip-rule="evenodd" d="M120.4 73.9503L155.802 73.7638L155.693 74.8497L153.443 75.61L138.724 75.3646L138.719 75.3681L138.7 75.3798C138.683 75.3903 138.657 75.4062 138.623 75.427C138.556 75.4687 138.457 75.5304 138.331 75.61C138.079 75.7691 137.718 75.9993 137.286 76.2825C136.42 76.8495 135.273 77.6259 134.139 78.4673C132.999 79.3126 131.896 80.2064 131.105 81.0085C130.708 81.4112 130.413 81.7671 130.231 82.0626C130.038 82.3762 130.041 82.5094 130.041 82.5135C130.983 88.8225 130.907 93.7314 130.022 97.5656C129.539 99.6564 128.423 101.575 126.413 103.002C124.429 104.41 121.679 105.265 118.041 105.46C114.414 105.654 108.621 105.197 103.161 102.787C97.6609 100.359 92.4594 95.9218 90.2594 88.201C89.079 84.0573 89.4822 80.6813 90.812 78.2792C92.1267 75.9044 94.3508 74.5173 96.5956 74.5103L120.354 73.9455L120.4 73.9503ZM96.6056 75.2757C94.6789 75.2786 92.6858 76.475 91.4818 78.6499C90.2714 80.8363 89.8573 83.9951 90.9957 87.9913C93.1203 95.4476 98.1306 99.7292 103.47 102.087C108.793 104.436 114.459 104.885 118 104.696C121.546 104.506 124.141 103.676 125.97 102.378C127.81 101.071 128.831 99.3225 129.276 97.3935C130.132 93.6845 130.218 88.8793 129.284 82.6266C129.032 80.9389 134.6 77.1137 137.119 75.4775C137.85 75.0024 138.325 74.7118 138.325 74.7118L120.36 74.7157L120.323 74.7118L96.6056 75.2757ZM96.6285 77.1892H96.6126C95.4862 77.1892 94.0795 77.9089 93.1563 79.5765C92.2442 81.2241 91.8032 83.8404 92.8363 87.4671C94.7726 94.2625 99.3053 98.1561 104.243 100.336C109.221 102.534 114.571 102.963 117.898 102.785C121.213 102.607 123.419 101.841 124.862 100.817C126.279 99.8116 127.059 98.4873 127.411 96.9632C128.195 93.5673 128.304 89.0213 127.391 82.9091C127.17 81.429 126.039 79.9168 124.464 78.6826C122.93 77.4813 121.253 76.7618 120.237 76.6279L96.6285 77.1892ZM120.275 75.8614L96.6194 76.4238H96.6126C95.1656 76.4238 93.5228 77.3339 92.4865 79.2059C91.4551 81.0689 91.0248 83.9022 92.1001 87.6768C94.1117 94.7365 98.8353 98.7853 103.934 101.036C109.05 103.295 114.526 103.732 117.939 103.549C121.346 103.367 123.708 102.575 125.305 101.441C126.891 100.315 127.768 98.8215 128.157 97.1353C128.97 93.6142 129.069 88.9645 128.148 82.7961C127.886 81.037 126.581 79.3684 124.936 78.0801C123.307 76.8044 121.47 75.9991 120.275 75.8614Z" fill="#FFD742"/>
<path d="M124.631 78.7887L95.0614 92.5657L95.4441 93.14L96.3054 94.3836L126.46 80.3707L124.631 78.7887Z" fill="#FEFCBD" fill-opacity="0.3"/>
<path d="M126.832 81.276L97.7385 95.5632L97.5494 95.8188L99.5589 97.828L102.143 99.2631L128.826 83.5273L126.832 81.276Z" fill="#FEFCBD" fill-opacity="0.3"/>
<path d="M49.6921 74.9508L73.379 75.5139C76.7549 75.5139 80.6573 79.7275 78.4437 87.4982C74.3075 102.014 58.9758 104.159 52.0221 103.787C45.0684 103.414 42.1097 100.544 41.2753 96.9285C40.4409 93.3135 40.3482 88.5861 41.2753 82.3755C41.863 78.4387 47.019 75.2321 49.6921 74.9508Z" fill="#001B33" fill-opacity="0.93"/>
<path fill-rule="evenodd" clip-rule="evenodd" d="M49.6688 74.376L49.632 74.3798L40.7158 74.376C40.7158 74.376 41.0325 80.113 40.7074 82.2908C39.774 88.5435 39.8597 93.3486 40.7158 97.0576C41.1611 98.9866 42.1814 100.735 44.0216 102.042C45.8508 103.34 48.4454 104.17 51.9914 104.36C55.5325 104.549 61.1989 104.1 66.5214 101.751C71.861 99.3934 76.8713 95.1118 78.9959 87.6554C80.1343 83.6593 79.7202 80.5004 78.5098 78.314C77.3058 76.1391 75.3127 74.9427 73.3861 74.9398L49.6688 74.376ZM49.7168 75.5255L73.3722 76.0879H73.379C74.826 76.0879 76.4688 76.9981 77.5051 78.87C78.5365 80.733 78.9668 83.5663 77.8915 87.3409C75.8799 94.4007 71.1563 98.4494 66.0576 100.7C60.9417 102.959 55.4653 103.396 52.0528 103.213C48.6452 103.031 46.2836 102.239 44.6864 101.106C43.1002 99.9796 42.2239 98.4856 41.8348 96.7995C41.022 93.2783 40.9223 88.6286 41.8432 82.4602C42.1058 80.7012 43.4109 79.0326 45.0558 77.7442C46.6844 76.4685 48.5216 75.6633 49.7168 75.5255Z" fill="url(#paint35_linear_3333_10974)"/>
<path fill-rule="evenodd" clip-rule="evenodd" d="M40.753 75.1414C40.8258 76.7774 40.9594 80.603 40.7074 82.2908C39.774 88.5435 39.8597 93.3486 40.7158 97.0576C41.1611 98.9866 42.1814 100.735 44.0216 102.042C45.8507 103.34 48.4454 104.17 51.9914 104.36C55.5325 104.549 61.1989 104.1 66.5214 101.751C71.861 99.3934 76.8713 95.1118 78.9959 87.6554C80.1343 83.6593 79.7202 80.5004 78.5098 78.314C77.3058 76.1391 75.3127 74.9427 73.3861 74.9398L49.6688 74.376L49.632 74.3798L40.7158 74.376C40.7158 74.376 40.7319 74.6664 40.753 75.1414ZM49.592 73.6144L49.6377 73.6096L73.3961 74.1745C75.6409 74.1815 77.8649 75.5686 79.1796 77.9433C80.5094 80.3454 80.9126 83.7213 79.7322 87.8651C77.5323 95.5859 72.3307 100.023 66.8306 102.451C61.3704 104.861 55.5773 105.318 51.9504 105.124C48.3122 104.929 45.5622 104.074 43.5784 102.666C41.5687 101.239 40.4525 99.3206 39.9699 97.2297C39.0849 93.3955 39.0084 88.4867 39.9503 82.1778C40.1014 81.165 40.107 79.2532 40.0682 77.534C40.0491 76.6874 40.0198 75.9076 39.9954 75.3393C39.9832 75.0553 39.9721 74.8244 39.9642 74.6648C39.9602 74.585 39.957 74.523 39.9548 74.4812L39.9515 74.419L39.9515 74.4183L39.9068 73.6102L49.592 73.6144ZM73.3722 76.0879H73.379C74.826 76.0879 76.4688 76.9981 77.5051 78.87C78.5365 80.733 78.9668 83.5663 77.8915 87.3409C75.8799 94.4007 71.1563 98.4494 66.0576 100.7C60.9417 102.959 55.4653 103.396 52.0528 103.213C48.6452 103.031 46.2836 102.239 44.6864 101.106C43.1002 99.9796 42.2239 98.4856 41.8347 96.7995C41.022 93.2783 40.9223 88.6286 41.8432 82.4602C42.1058 80.7012 43.4109 79.0326 45.0558 77.7442C46.6844 76.4686 48.5216 75.6633 49.7168 75.5255L73.3722 76.0879ZM49.7547 76.2921L73.3631 76.8533H73.379C74.5054 76.8533 75.9121 77.573 76.8353 79.2406C77.7474 80.8882 78.1884 83.5045 77.1553 87.1312C75.219 93.9267 70.6864 97.8202 65.7483 100C60.7702 102.198 55.4205 102.627 52.0938 102.449C48.7784 102.272 46.5722 101.505 45.1295 100.481C43.7127 99.4757 42.9325 98.1515 42.5807 96.6274C41.7969 93.2314 41.6879 88.6854 42.6003 82.5732C42.8213 81.0931 43.9522 79.5809 45.5279 78.3467C47.0615 77.1455 48.7386 76.426 49.7547 76.2921Z" fill="#FFD742"/>
<path d="M71.4938 79.3221L44.9178 100.316L44.2479 99.7415L68.196 77.6781L69.224 76.6842L73.7216 76.7797L74.2958 76.9712L71.4938 79.3221Z" fill="#FEFCBD" fill-opacity="0.3"/>
<path d="M80.0374 86.6344L59.7207 102.63L58.9131 102.228L78.1101 84.3038L80.4202 82.7116L80.0374 86.6344Z" fill="#FEFCBD" fill-opacity="0.3"/>
<path d="M68.4585 76.684L44.0367 97.6449L43.0996 98.0197C42.3341 97.35 42.047 92.5659 42.047 92.5659L63.291 76.5884L68.4585 76.684Z" fill="#FEFCBD" fill-opacity="0.3"/>
<path d="M129.795 86.9011L129.487 83.403C129.487 83.403 128.614 76.8324 124.144 74.8804L138.096 74.3768H154.336L136.453 83.403L129.795 86.9011Z" fill="#FDC800"/>
<path d="M138.863 54.6721C137.925 51.8026 137.348 50.5411 137.348 50.5411C153.67 52.7342 169.981 63.1619 169.981 63.1619V72.0408C163.636 63.329 138.863 54.6721 138.863 54.6721Z" fill="url(#paint36_linear_3333_10974)"/>
<path d="M140.774 66.2125L140.774 62.4641C157.096 64.6572 169.855 74.1646 169.855 74.1646C169.855 74.1646 169.098 80.1702 169.098 82.5925C162.753 73.8808 140.774 66.2125 140.774 66.2125Z" fill="url(#paint37_linear_3333_10974)"/>
<path d="M83.1608 210.545L85.9084 183.424C85.9561 182.954 86.1948 182.524 86.5688 182.235L91.2875 178.589C91.5891 178.356 91.9595 178.229 92.3407 178.229L98.966 178.229C99.3011 178.229 99.6289 178.327 99.9093 178.51L106.382 182.745C106.831 183.04 107.118 183.526 107.156 184.062L109.081 210.652C109.167 211.844 108.043 212.759 106.893 212.433L96.2342 209.41C95.9194 209.32 95.5856 209.323 95.272 209.416L85.3667 212.369C84.1917 212.719 83.0373 211.765 83.1608 210.545Z" fill="#EB9E0A"/>
<path fill-rule="evenodd" clip-rule="evenodd" d="M92.3407 177.081L98.966 177.081C99.5245 177.081 100.071 177.244 100.538 177.549L107.01 181.785C107.76 182.275 108.237 183.086 108.302 183.979L110.226 210.569C110.37 212.555 108.496 214.081 106.58 213.537L95.9208 210.514C95.8159 210.484 95.7046 210.485 95.6001 210.516L85.6949 213.469C83.7365 214.053 81.8124 212.462 82.0184 210.429L84.766 183.308C84.8454 182.524 85.2433 181.808 85.8666 181.326L90.5852 177.68L91.2875 178.589L90.5853 177.68C91.088 177.292 91.7054 177.081 92.3407 177.081ZM98.966 179.377L92.3408 179.377C92.2137 179.377 92.0902 179.419 91.9897 179.497L87.2711 183.143C87.1464 183.239 87.0668 183.383 87.0509 183.539L84.3033 210.661C84.2622 211.067 84.647 211.385 85.0386 211.268L94.9439 208.316C95.4666 208.16 96.0229 208.156 96.5476 208.305L107.206 211.328C107.59 211.437 107.964 211.132 107.936 210.734L106.011 184.145C105.998 183.966 105.903 183.804 105.753 183.706L99.2804 179.471C99.187 179.41 99.0777 179.377 98.966 179.377Z" fill="#FFCD4E"/>
<path d="M94.3625 205.778C94.2568 205.778 94.1711 205.692 94.1711 205.586V203.542C94.1711 203.436 94.0854 203.35 93.9797 203.35H89.1655C89.045 203.35 88.9545 203.24 88.9778 203.122L89.5544 200.195C89.572 200.105 89.6507 200.041 89.7421 200.041H98.1555C98.196 200.041 98.2355 200.028 98.2683 200.004L99.206 199.32C99.2644 199.278 99.2938 199.206 99.282 199.134L99.0149 197.521C99.0083 197.48 98.9892 197.444 98.9602 197.415L98.2737 196.741C98.2379 196.706 98.1898 196.687 98.1396 196.687H91.507C91.4566 196.687 91.4082 196.667 91.3724 196.631L88.9808 194.263C88.9497 194.232 88.9301 194.192 88.9253 194.148L88.3699 189.194C88.3619 189.122 88.3952 189.051 88.4561 189.012L91.3808 187.119C91.4118 187.099 91.4479 187.088 91.4848 187.088H93.9533C94.0688 187.088 94.158 186.987 94.1431 186.872L93.8844 184.877C93.8695 184.762 93.9587 184.661 94.0742 184.661H98.0715C98.1772 184.661 98.2629 184.746 98.2629 184.852V186.897C98.2629 187.002 98.3485 187.088 98.4542 187.088H102.018C102.143 187.088 102.234 187.206 102.203 187.327L101.45 190.254C101.429 190.339 101.352 190.398 101.265 190.398H93.9346C93.8845 190.398 93.8363 190.418 93.8005 190.453L93.1268 191.114C93.0901 191.15 93.0695 191.199 93.0695 191.25V192.524C93.0695 192.576 93.0901 192.625 93.1268 192.661L93.8005 193.322C93.8363 193.357 93.8845 193.377 93.9346 193.377H100.568C100.618 193.377 100.666 193.396 100.702 193.432L103.093 195.778C103.124 195.809 103.144 195.85 103.149 195.894L103.705 201.059C103.713 201.128 103.682 201.195 103.626 201.235L100.696 203.315C100.663 203.338 100.625 203.35 100.585 203.35H98.4941C98.3741 203.35 98.2837 203.46 98.3061 203.578L98.682 205.551C98.7044 205.668 98.614 205.778 98.494 205.778H94.3625Z" fill="#FFB800"/>
<path fill-rule="evenodd" clip-rule="evenodd" d="M93.2141 204.307V205.586C93.2141 206.22 93.7283 206.734 94.3625 206.734H98.4939C99.2143 206.734 99.7567 206.079 99.622 205.372L99.4192 204.307H100.585C100.823 204.307 101.055 204.233 101.25 204.095L104.18 202.015C104.519 201.775 104.701 201.37 104.657 200.956L104.1 195.792C104.072 195.528 103.952 195.281 103.763 195.095L101.372 192.749C101.157 192.538 100.869 192.42 100.568 192.42H94.2475L94.0264 192.203V191.572L94.2475 191.355H101.265C101.789 191.355 102.247 191 102.377 190.492L103.13 187.565C103.317 186.839 102.768 186.131 102.018 186.131H99.2197V184.852C99.2197 184.218 98.7056 183.704 98.0714 183.704H94.0741C93.3813 183.704 92.8463 184.313 92.9353 185L93.0821 186.131H91.4848C91.2634 186.131 91.0466 186.195 90.8608 186.316L87.9361 188.209C87.5707 188.445 87.3705 188.868 87.4189 189.3L87.9743 194.255C88.0035 194.515 88.121 194.758 88.3073 194.943L90.6989 197.311C90.9139 197.524 91.2044 197.643 91.507 197.643H97.8266L98.1116 197.923L98.2608 198.825L97.906 199.084H89.7421C89.1935 199.084 88.7215 199.472 88.6154 200.01L88.0388 202.937C87.8991 203.647 88.4422 204.307 89.1655 204.307H93.2141ZM94.1711 205.586C94.1711 205.692 94.2568 205.778 94.3625 205.778H98.4939C98.614 205.778 98.7044 205.668 98.6819 205.551L98.3061 203.578C98.2836 203.46 98.374 203.35 98.4941 203.35H100.585C100.625 203.35 100.663 203.338 100.696 203.315L103.626 201.235C103.682 201.195 103.713 201.128 103.705 201.059L103.149 195.894C103.144 195.85 103.124 195.809 103.093 195.778L100.702 193.432C100.666 193.396 100.618 193.377 100.568 193.377H93.9346C93.8844 193.377 93.8363 193.357 93.8005 193.322L93.1268 192.661C93.0901 192.625 93.0695 192.576 93.0695 192.524V191.251C93.0695 191.199 93.0901 191.15 93.1268 191.114L93.8005 190.453C93.8363 190.418 93.8844 190.398 93.9346 190.398H101.265C101.352 190.398 101.429 190.339 101.45 190.254L102.203 187.327C102.234 187.206 102.143 187.088 102.018 187.088H98.4542C98.3485 187.088 98.2628 187.002 98.2628 186.897V184.852C98.2628 184.747 98.1771 184.661 98.0714 184.661H94.0741C93.9587 184.661 93.8695 184.762 93.8843 184.877L94.1431 186.872C94.1579 186.987 94.0687 187.088 93.9533 187.088H91.4848C91.4479 187.088 91.4118 187.099 91.3808 187.119L88.4561 189.012C88.3952 189.051 88.3618 189.122 88.3699 189.194L88.9252 194.148C88.9301 194.192 88.9497 194.232 88.9808 194.263L91.3723 196.631C91.4082 196.667 91.4566 196.687 91.507 196.687H98.1396C98.1897 196.687 98.2379 196.706 98.2737 196.741L98.9601 197.415C98.9891 197.444 99.0083 197.48 99.0149 197.521L99.282 199.134C99.2938 199.206 99.2644 199.278 99.2059 199.32L98.2682 200.004C98.2355 200.028 98.196 200.041 98.1555 200.041H89.7421C89.6507 200.041 89.572 200.105 89.5543 200.195L88.9777 203.122C88.9544 203.24 89.045 203.35 89.1655 203.35H93.9797C94.0854 203.35 94.1711 203.436 94.1711 203.542V205.586Z" fill="#B85B06" fill-opacity="0.34"/>
<path d="M95.052 185.216C95.7526 185.126 96.8186 184.979 97.5541 184.847C97.7529 184.811 97.7324 184.661 97.5305 184.661H93.9589C93.8406 184.661 93.7507 184.767 93.7701 184.884L94.0799 186.742C94.0993 186.858 94.0093 186.964 93.8911 186.964H91.4883C91.4496 186.964 91.4118 186.976 91.3799 186.998L89.5492 188.257C89.3649 188.383 89.5104 188.669 89.7213 188.595L91.606 187.93C91.6159 187.926 91.6261 187.923 91.6364 187.922L94.7269 187.376C94.8184 187.36 94.885 187.281 94.885 187.188V185.406C94.885 185.309 94.9563 185.228 95.052 185.216Z" fill="#FFDF8B"/>
<path d="M94.0674 194.19C93.9456 194.02 93.7862 193.8 93.6256 193.581C93.5326 193.454 93.7585 193.2 93.8933 193.281C93.914 193.293 93.9377 193.3 93.9618 193.3H100.566C100.617 193.3 100.665 193.32 100.701 193.356L102.531 195.185C102.676 195.33 102.523 195.571 102.331 195.501L101.051 195.035C101.036 195.03 101.022 195.027 101.006 195.025L94.2019 194.269C94.1478 194.263 94.0991 194.235 94.0674 194.19Z" fill="#FFDF8B"/>
<path d="M41.1229 220.586C43.1174 227.159 41.5363 233.458 37.5913 234.655C33.6464 235.851 28.8315 231.492 26.8369 224.918C24.8424 218.345 26.4235 212.046 30.3685 210.849C34.3135 209.653 39.1284 214.012 41.1229 220.586Z" fill="#BE1144"/>
<path d="M145.883 215.315C143.889 221.889 145.47 228.188 149.415 229.385C153.36 230.581 158.175 226.222 160.169 219.648C162.164 213.074 160.583 206.775 156.638 205.579C152.693 204.382 147.878 208.742 145.883 215.315Z" fill="#BE1144"/>
<path d="M41.123 220.586C42.6862 225.738 41.447 230.675 38.3551 231.613C35.2633 232.55 31.4896 229.134 29.9264 223.982C28.3632 218.829 29.6024 213.892 32.6942 212.955C35.7861 212.017 39.5598 215.433 41.123 220.586Z" fill="#6C0524"/>
<path d="M145.883 215.315C144.32 220.468 145.559 225.405 148.651 226.342C151.743 227.28 155.517 223.863 157.08 218.711C158.643 213.559 157.404 208.622 154.312 207.684C151.22 206.747 147.446 210.163 145.883 215.315Z" fill="#6C0524"/>
<path d="M42.597 200.457L56.8923 168.962L70.3918 186.298L65.0291 202.472L53.2419 214.492L42.597 200.457Z" fill="#88CF42"/>
<path d="M62.4664 211.606L53.242 214.492C55.4803 212.351 65.608 194.804 70.392 186.298L78.0685 185.078C78.7801 190.484 67.9636 205.016 62.4664 211.606Z" fill="#56B729"/>
<path d="M56.8925 168.961L70.392 186.298L78.0686 185.077L64.3908 167.262L56.8925 168.961Z" fill="#25951C"/>
<path opacity="0.3" d="M60.4035 168.201C72.1749 191.088 53.7181 214.315 53.242 214.492L48.8474 195.405C48.7756 178.708 48.0854 170.057 60.4035 168.201Z" fill="#1A7109"/>
<path d="M55.3451 170.628C60.9126 175.101 61.5469 184.863 61.168 189.185L54.0871 189.093C52.1866 181.074 49.7776 166.156 55.3451 170.628Z" fill="#25951C"/>
<path d="M55.817 179.178C66.8094 187.74 58.6806 206.288 53.2422 214.492L40.0993 198.114C46.7704 183.416 43.5825 171.551 40.8871 166.737C44.696 165.319 62.2452 168.589 55.817 179.178Z" fill="#82DC34"/>
<path fill-rule="evenodd" clip-rule="evenodd" d="M41.4607 197.91L41.7254 197.297C45.5883 188.358 46.0241 181.41 45.5248 176.737C45.2747 174.397 44.7889 172.618 44.373 171.436C44.1649 170.844 43.9743 170.402 43.8392 170.114C43.7716 169.97 43.718 169.865 43.683 169.798C43.6655 169.765 43.6527 169.742 43.6452 169.728L43.639 169.717L43.6384 169.716L43.6374 169.714L42.6053 167.942L44.6344 168.19L44.516 169.204C44.6344 168.19 44.6344 168.19 44.6344 168.19L44.6388 168.19L44.6456 168.191L44.6663 168.194C44.6834 168.196 44.7067 168.199 44.7361 168.204C44.7949 168.212 44.8781 168.226 44.9837 168.244C45.1948 168.281 45.4961 168.341 45.8725 168.431C46.6248 168.612 47.6798 168.917 48.9167 169.418C51.3898 170.421 54.2539 171.732 57.2207 174.893C57.2207 174.893 57.2236 175.948 56.9966 176.715C56.7696 177.481 56.3653 178.181 56.3653 178.181C53.6423 175.28 50.4237 172.229 48.1622 171.312C47.444 171.021 46.796 170.804 46.2476 170.643C46.2617 170.682 46.2758 170.721 46.29 170.762C46.7543 172.081 47.2784 174.016 47.5468 176.527C48.0724 181.446 47.6127 188.538 43.8525 197.504C45.6426 199.463 48.0134 202.186 49.9907 204.483C51.0665 205.732 52.0286 206.859 52.7218 207.673C52.7697 207.729 52.8164 207.784 52.8618 207.837C53.0133 207.533 53.1846 207.181 53.3702 206.787C54.0716 205.295 54.9727 203.202 55.7725 200.799C57.3892 195.941 58.183 184.657 56.653 179.865C56.653 179.865 57.425 180.641 57.6545 180.871C57.8841 181.101 58.5237 181.964 58.5237 181.964C60.2618 187.408 59.3471 196.508 57.7015 201.454C56.8701 203.952 55.9358 206.121 55.2096 207.665C54.8462 208.438 54.5341 209.056 54.3117 209.483C54.2006 209.697 54.1118 209.863 54.0502 209.976C54.0194 210.033 53.9954 210.077 53.9787 210.107L53.9594 210.141L53.9541 210.151L53.952 210.155C53.952 210.155 53.9517 210.155 53.0662 209.65L52.2922 210.309L51.9949 209.958C51.8028 209.731 51.5242 209.403 51.1785 208.997C50.4871 208.185 49.5276 207.061 48.4549 205.815C46.3062 203.32 43.7151 200.347 41.9149 198.401L41.4607 197.91ZM53.0662 209.65L52.2922 210.309L53.2363 211.426L53.952 210.155L53.0662 209.65Z" fill="#D4FD5F"/>
<path d="M63.935 205.708L61.219 208.253L66.6514 200.943L69.3677 196.179L67.1549 201.016L63.935 205.708Z" fill="#25951C"/>
<path d="M49.5079 182.617C52.4003 181.54 55.9425 183.885 57.4195 187.853C58.8965 191.821 57.7491 195.911 54.8567 196.987C51.9642 198.063 48.4221 195.719 46.945 191.75C45.468 187.782 46.6154 183.693 49.5079 182.617Z" fill="#D4FD5F"/>
<path d="M39.21 195.485C41.4385 199.796 38.6849 209.243 37.0295 213.428L33.4502 218.906L35.5843 222.08L44.7242 224.471C45.4086 224.65 46.1088 224.762 46.8149 224.806L52.1562 225.135C54.0704 225.253 55.9819 224.864 57.6979 224.008L65.339 220.196C67.5651 219.085 71.9805 215.108 73.0184 212.847L73.7865 210.264L70.3825 207.611L73.0184 202.515L71.9834 201.078L70.1848 199.8C63.2095 202.72 49.4348 204.252 49.4348 204.252C48.543 198.148 42.6113 193.897 39.21 195.485Z" fill="#FBC3A4"/>
<path opacity="0.34" d="M43.1783 201.25C43.91 198.582 40.8646 196.301 39.2505 195.494C40.4557 197.259 40.1832 200.676 39.8962 202.165C40.6854 202.972 42.4466 203.918 43.1783 201.25Z" fill="#F3E8FF"/>
<path d="M147.796 190.215C145.567 194.526 148.321 203.973 149.977 208.158L153.556 213.636L151.422 216.81L141.253 219.47L135.147 218.758L126.937 215.06L118.227 213.209L118.227 210.147L128.611 210.147L128.919 206.891L130.219 203.861L115.598 198.014L116.821 194.53C123.797 197.45 137.571 198.982 137.571 198.982C138.463 192.878 144.395 188.626 147.796 190.215Z" fill="#FBC3A4"/>
<path d="M144.826 198.783C143.031 195.773 146.106 191.83 147.827 190.238C146.418 192.168 147.014 197.304 147.529 199.627C147.376 200.6 144.826 198.783 144.826 198.783Z" fill="#FCD6C1"/>
<path d="M32.9258 229.528L37.4045 222.583L33.52 218.653H29.3611C28.5933 223.478 31.4177 227.914 32.9258 229.528Z" fill="#F3BC9E"/>
<path d="M154.08 224.258L149.602 217.313L153.486 213.383H157.645C158.413 218.208 155.589 222.643 154.08 224.258Z" fill="#FFA777"/>
<path d="M120.491 67.6389L125.187 73.6403L132.256 70.7905L126.253 75.4857L129.103 82.5526L124.407 76.5512L117.339 79.401L123.341 74.7057L120.491 67.6389Z" fill="white" fill-opacity="0.84"/>
<path opacity="0.2" d="M128.399 73.0168C129.547 75.0054 128.866 77.5483 126.877 78.6964C124.888 79.8445 122.344 79.1632 121.196 77.1746C120.047 75.1859 120.729 72.6431 122.718 71.495C124.707 70.3469 127.25 71.0282 128.399 73.0168Z" fill="white"/>
<path d="M63.097 126.235L67.7931 132.237L74.8613 129.387L68.8588 134.082L71.7091 141.149L67.013 135.148L59.9447 137.997L65.9473 133.302L63.097 126.235Z" fill="white" fill-opacity="0.84"/>
<path opacity="0.2" d="M71.0045 131.613C72.1528 133.602 71.4713 136.145 69.4823 137.293C67.4933 138.441 64.95 137.759 63.8017 135.771C62.6533 133.782 63.3348 131.239 65.3238 130.091C67.3128 128.943 69.8561 129.625 71.0045 131.613Z" fill="white"/>
<g opacity="0.8">
<path d="M40.7603 92.7546L45.4564 98.756L52.5247 95.9062L46.5221 100.601L49.3724 107.668L44.6763 101.667L37.608 104.517L43.6106 99.8215L40.7603 92.7546Z" fill="white" fill-opacity="0.84"/>
<path opacity="0.2" d="M48.6678 98.1325C49.8162 100.121 49.1347 102.664 47.1457 103.812C45.1567 104.96 42.6134 104.279 41.465 102.29C40.3167 100.302 40.9981 97.7588 42.9871 96.6107C44.9761 95.4626 47.5195 96.1439 48.6678 98.1325Z" fill="white"/>
</g>
<path d="M95.402 185.267L100.098 191.268L107.166 188.418L101.164 193.114L104.014 200.181L99.318 194.179L92.2498 197.029L98.2523 192.334L95.402 185.267Z" fill="white" fill-opacity="0.84"/>
<path opacity="0.2" d="M103.31 190.645C104.458 192.634 103.776 195.176 101.787 196.325C99.7984 197.473 97.255 196.791 96.1067 194.803C94.9583 192.814 95.6398 190.271 97.6288 189.123C99.6178 187.975 102.161 188.656 103.31 190.645Z" fill="white"/>
<path d="M127.562 200.008C127.772 199.209 127.474 198.028 127.299 197.537V197.294L129.902 197.906C129.964 198.437 130.049 199.706 129.902 200.538C129.756 201.37 128.984 202.68 128.617 203.23L126.352 202.269C126.668 201.848 127.352 200.807 127.562 200.008Z" fill="#EB9E0A"/>
<path d="M125.937 212.263C126.014 211.44 125.526 210.323 125.273 209.868L125.233 209.629L127.902 209.806C128.049 210.32 128.341 211.557 128.332 212.402C128.324 213.247 127.777 214.666 127.505 215.269L125.114 214.691C125.356 214.224 125.86 213.086 125.937 212.263Z" fill="#EB9E0A"/>
<path opacity="0.32" d="M119.266 198.326C118.227 198.138 116.09 197.752 115.854 197.712H115.756L116.64 195.037L120.199 196.657L119.266 198.326Z" fill="white"/>
<path opacity="0.32" d="M120.965 212.498C120.155 212.627 118.49 212.891 118.307 212.923L118.235 212.948L118.197 210.761L121.221 211.036L120.965 212.498Z" fill="white"/>
<path opacity="0.5" d="M53.5693 253.343C42.7108 262.128 29.3995 254.329 24.1012 249.332C18.4143 248.943 20.7384 263.287 33.9208 268.975C47.1032 274.664 57.0572 263.552 59.578 261.162C62.0988 258.772 67.1423 242.361 53.5693 253.343Z" fill="#BE1144"/>
<path d="M126.553 198.034L128.995 201.156L132.671 199.674L129.549 202.116L131.032 205.791L128.589 202.67L124.913 204.152L128.035 201.71L126.553 198.034Z" fill="white" fill-opacity="0.84"/>
<path opacity="0.2" d="M130.665 200.831C131.263 201.866 130.908 203.188 129.874 203.786C128.839 204.383 127.516 204.028 126.919 202.994C126.322 201.96 126.676 200.637 127.711 200.04C128.745 199.443 130.068 199.797 130.665 200.831Z" fill="white"/>
<path d="M122.303 167.752L124.745 170.873L128.421 169.391L125.299 171.833L126.782 175.508L124.339 172.387L120.663 173.869L123.785 171.427L122.303 167.752Z" fill="white" fill-opacity="0.84"/>
<path opacity="0.2" d="M126.415 170.549C127.013 171.583 126.658 172.906 125.624 173.503C124.589 174.1 123.266 173.746 122.669 172.711C122.072 171.677 122.426 170.354 123.461 169.757C124.495 169.16 125.818 169.515 126.415 170.549Z" fill="white"/>
<path opacity="0.1" d="M174.451 203.506C169.358 207.475 165.861 199.865 158.021 189.808C150.181 179.752 140.968 171.056 146.061 167.087C151.154 163.118 161.638 168.054 169.478 178.111C177.317 188.168 179.544 199.537 174.451 203.506Z" fill="white"/>
<path opacity="0.1" d="M17.5847 211.732C21.7581 214.984 24.624 208.749 31.0481 200.508C37.4723 192.267 45.022 185.141 40.8486 181.889C36.6752 178.637 28.0842 182.681 21.66 190.922C15.2359 199.163 13.4113 208.48 17.5847 211.732Z" fill="white"/>
</g>
<defs>
<linearGradient id="paint0_linear_3333_10974" x1="94.7387" y1="252.501" x2="94.7387" y2="180.237" gradientUnits="userSpaceOnUse">
<stop stop-color="#F50D44"/>
<stop offset="0.99" stop-color="#FB4F54"/>
</linearGradient>
<linearGradient id="paint1_linear_3333_10974" x1="98.7277" y1="189.991" x2="98.7277" y2="180.238" gradientUnits="userSpaceOnUse">
<stop offset="0.01" stop-color="#C16688"/>
<stop offset="1" stop-color="#7E70F1"/>
</linearGradient>
<linearGradient id="paint2_linear_3333_10974" x1="-4528.72" y1="10102.2" x2="-4528.72" y2="7001.53" gradientUnits="userSpaceOnUse">
<stop offset="0.01" stop-color="#B45C7D"/>
<stop offset="1" stop-color="#8A7EEA"/>
</linearGradient>
<linearGradient id="paint3_linear_3333_10974" x1="143.1" y1="254.827" x2="143.1" y2="150.095" gradientUnits="userSpaceOnUse">
<stop stop-color="#F50D44"/>
<stop offset="0.99" stop-color="#FB4F54"/>
</linearGradient>
<linearGradient id="paint4_linear_3333_10974" x1="59.0034" y1="256.967" x2="59.0034" y2="145.747" gradientUnits="userSpaceOnUse">
<stop stop-color="#F50D44"/>
<stop offset="0.99" stop-color="#FB4F54"/>
</linearGradient>
<linearGradient id="paint5_linear_3333_10974" x1="121.21" y1="166.871" x2="118.243" y2="168.147" gradientUnits="userSpaceOnUse">
<stop stop-color="#FFD770"/>
<stop offset="1" stop-color="#FDBC12"/>
</linearGradient>
<linearGradient id="paint6_linear_3333_10974" x1="120.267" y1="162.979" x2="117.267" y2="161.783" gradientUnits="userSpaceOnUse">
<stop stop-color="#FFD770"/>
<stop offset="1" stop-color="#FDBC12"/>
</linearGradient>
<linearGradient id="paint7_linear_3333_10974" x1="130.687" y1="167.131" x2="127.687" y2="165.935" gradientUnits="userSpaceOnUse">
<stop stop-color="#FFD770"/>
<stop offset="1" stop-color="#FDBC12"/>
</linearGradient>
<linearGradient id="paint8_linear_3333_10974" x1="124.286" y1="168.097" x2="125.561" y2="171.064" gradientUnits="userSpaceOnUse">
<stop stop-color="#FFD770"/>
<stop offset="1" stop-color="#FDBC12"/>
</linearGradient>
<linearGradient id="paint9_linear_3333_10974" x1="129.762" y1="160.26" x2="126.784" y2="161.512" gradientUnits="userSpaceOnUse">
<stop stop-color="#FFD770"/>
<stop offset="1" stop-color="#FDBC12"/>
</linearGradient>
<linearGradient id="paint10_linear_3333_10974" x1="108.121" y1="181.871" x2="104.936" y2="181.333" gradientUnits="userSpaceOnUse">
<stop stop-color="#FFD770"/>
<stop offset="1" stop-color="#FDBC12"/>
</linearGradient>
<linearGradient id="paint11_linear_3333_10974" x1="109.441" y1="178.089" x2="107.569" y2="175.457" gradientUnits="userSpaceOnUse">
<stop stop-color="#FFD770"/>
<stop offset="1" stop-color="#FDBC12"/>
</linearGradient>
<linearGradient id="paint12_linear_3333_10974" x1="110.04" y1="184.569" x2="109.502" y2="187.753" gradientUnits="userSpaceOnUse">
<stop stop-color="#FFD770"/>
<stop offset="1" stop-color="#FDBC12"/>
</linearGradient>
<linearGradient id="paint13_linear_3333_10974" x1="115.522" y1="176.044" x2="112.328" y2="176.522" gradientUnits="userSpaceOnUse">
<stop stop-color="#FFD770"/>
<stop offset="1" stop-color="#FDBC12"/>
</linearGradient>
<linearGradient id="paint14_linear_3333_10974" x1="115.601" y1="172.04" x2="113.005" y2="170.119" gradientUnits="userSpaceOnUse">
<stop stop-color="#FFD770"/>
<stop offset="1" stop-color="#FDBC12"/>
</linearGradient>
<linearGradient id="paint15_linear_3333_10974" x1="124.621" y1="178.708" x2="122.024" y2="176.787" gradientUnits="userSpaceOnUse">
<stop stop-color="#FFD770"/>
<stop offset="1" stop-color="#FDBC12"/>
</linearGradient>
<linearGradient id="paint16_linear_3333_10974" x1="118.184" y1="178.012" x2="118.663" y2="181.206" gradientUnits="userSpaceOnUse">
<stop stop-color="#FFD770"/>
<stop offset="1" stop-color="#FDBC12"/>
</linearGradient>
<linearGradient id="paint17_linear_3333_10974" x1="77.1706" y1="165.252" x2="79.9904" y2="166.827" gradientUnits="userSpaceOnUse">
<stop stop-color="#FFD770"/>
<stop offset="1" stop-color="#FDBC12"/>
</linearGradient>
<linearGradient id="paint18_linear_3333_10974" x1="89.0545" y1="181.872" x2="92.2396" y2="181.334" gradientUnits="userSpaceOnUse">
<stop stop-color="#FFD770"/>
<stop offset="1" stop-color="#FDBC12"/>
</linearGradient>
<linearGradient id="paint19_linear_3333_10974" x1="87.7345" y1="178.09" x2="89.606" y2="175.458" gradientUnits="userSpaceOnUse">
<stop stop-color="#FFD770"/>
<stop offset="1" stop-color="#FDBC12"/>
</linearGradient>
<linearGradient id="paint20_linear_3333_10974" x1="87.1357" y1="184.57" x2="87.6733" y2="187.754" gradientUnits="userSpaceOnUse">
<stop stop-color="#FFD770"/>
<stop offset="1" stop-color="#FDBC12"/>
</linearGradient>
<linearGradient id="paint21_linear_3333_10974" x1="81.7777" y1="177.756" x2="84.5523" y2="179.41" gradientUnits="userSpaceOnUse">
<stop stop-color="#FFD770"/>
<stop offset="1" stop-color="#FDBC12"/>
</linearGradient>
<linearGradient id="paint22_linear_3333_10974" x1="83.2222" y1="174.02" x2="86.3535" y2="173.227" gradientUnits="userSpaceOnUse">
<stop stop-color="#FFD770"/>
<stop offset="1" stop-color="#FDBC12"/>
</linearGradient>
<linearGradient id="paint23_linear_3333_10974" x1="87.1594" y1="177.681" x2="89.0308" y2="175.049" gradientUnits="userSpaceOnUse">
<stop stop-color="#FFD770"/>
<stop offset="1" stop-color="#FDBC12"/>
</linearGradient>
<linearGradient id="paint24_linear_3333_10974" x1="72.3481" y1="176.773" x2="75.4794" y2="175.98" gradientUnits="userSpaceOnUse">
<stop stop-color="#FFD770"/>
<stop offset="1" stop-color="#FDBC12"/>
</linearGradient>
<linearGradient id="paint25_linear_3333_10974" x1="78.568" y1="178.569" x2="76.9149" y2="181.343" gradientUnits="userSpaceOnUse">
<stop stop-color="#FFD770"/>
<stop offset="1" stop-color="#FDBC12"/>
</linearGradient>
<linearGradient id="paint26_linear_3333_10974" x1="96.4472" y1="32.9153" x2="96.4472" y2="166.69" gradientUnits="userSpaceOnUse">
<stop stop-color="#FFBC98"/>
<stop offset="1" stop-color="#FAC4A6"/>
</linearGradient>
<linearGradient id="paint27_linear_3333_10974" x1="102.904" y1="139.941" x2="102.904" y2="4.70951" gradientUnits="userSpaceOnUse">
<stop offset="0.01" stop-color="#3D2B2B"/>
<stop offset="0.99" stop-color="#392419"/>
</linearGradient>
<linearGradient id="paint28_linear_3333_10974" x1="-5493.46" y1="2878.45" x2="-5493.46" y2="1838.65" gradientUnits="userSpaceOnUse">
<stop offset="0.01" stop-color="#3B2720"/>
<stop offset="0.99" stop-color="#4A3020"/>
</linearGradient>
<linearGradient id="paint29_linear_3333_10974" x1="-4430.9" y1="2313.1" x2="-4430.9" y2="1475.05" gradientUnits="userSpaceOnUse">
<stop offset="0.01" stop-color="#3B2720"/>
<stop offset="0.99" stop-color="#4A3020"/>
</linearGradient>
<linearGradient id="paint30_linear_3333_10974" x1="-4535.16" y1="1855.87" x2="-4535.16" y2="1583.73" gradientUnits="userSpaceOnUse">
<stop offset="0.01" stop-color="#3B2821"/>
<stop offset="0.99" stop-color="#6C5045"/>
</linearGradient>
<linearGradient id="paint31_linear_3333_10974" x1="101.788" y1="70.5005" x2="101.788" y2="12.4789" gradientUnits="userSpaceOnUse">
<stop offset="0.01" stop-color="#3D2B2B"/>
<stop offset="0.99" stop-color="#392419"/>
</linearGradient>
<linearGradient id="paint32_linear_3333_10974" x1="102.158" y1="7.10266" x2="61.5935" y2="66.7184" gradientUnits="userSpaceOnUse">
<stop stop-color="#4B3021"/>
<stop offset="1" stop-color="#241610"/>
</linearGradient>
<linearGradient id="paint33_linear_3333_10974" x1="85.0193" y1="94.5511" x2="85.0193" y2="112.947" gradientUnits="userSpaceOnUse">
<stop stop-color="#F5B694"/>
<stop offset="1" stop-color="#FF7762"/>
</linearGradient>
<linearGradient id="paint34_linear_3333_10974" x1="114.325" y1="74.7119" x2="114.325" y2="104.735" gradientUnits="userSpaceOnUse">
<stop stop-color="#FFF601"/>
<stop offset="1" stop-color="#F5C001"/>
</linearGradient>
<linearGradient id="paint35_linear_3333_10974" x1="59.8527" y1="74.376" x2="59.8527" y2="104.399" gradientUnits="userSpaceOnUse">
<stop stop-color="#FFF601"/>
<stop offset="1" stop-color="#F5C001"/>
</linearGradient>
<linearGradient id="paint36_linear_3333_10974" x1="139.454" y1="53.5361" x2="153.668" y2="72.0433" gradientUnits="userSpaceOnUse">
<stop stop-color="#6D5145"/>
<stop offset="1" stop-color="#6D5145" stop-opacity="0"/>
</linearGradient>
<linearGradient id="paint37_linear_3333_10974" x1="141.553" y1="65.4908" x2="155.766" y2="83.9979" gradientUnits="userSpaceOnUse">
<stop stop-color="#6D5145"/>
<stop offset="1" stop-color="#6D5145" stop-opacity="0"/>
</linearGradient>
<clipPath id="clip0_3333_10974">
<rect width="200" height="323" fill="white" transform="translate(0.898682 -36.5)"/>
</clipPath>
</defs>
</svg>
