<svg width="354" height="237" viewBox="0 0 354 237" fill="none" xmlns="http://www.w3.org/2000/svg">
<g filter="url(#filter0_i_918_14293)">
<path d="M210.968 25.3122C219.221 16.1343 234.276 19.0422 238.517 30.6334L303.823 209.118C308.198 221.077 297.845 233.234 285.342 230.818L92.9668 193.646C80.4646 191.23 75.385 176.094 83.8991 166.625L210.968 25.3122Z" fill="url(#paint0_linear_918_14293)"/>
</g>
<path d="M149.81 180.878L175.354 152.26C177.459 149.903 178.063 146.563 176.917 143.618L165.455 114.158C164.324 111.25 164.897 107.955 166.944 105.599L222 42.2536" stroke="url(#paint1_linear_918_14293)" stroke-width="16.8058" stroke-linecap="round" stroke-linejoin="round"/>
<g filter="url(#filter1_di_918_14293)">
<circle cx="108.06" cy="173.886" r="8.65592" transform="rotate(10.9362 108.06 173.886)" fill="white"/>
</g>
<g filter="url(#filter2_di_918_14293)">
<circle cx="150.131" cy="182.015" r="8.65592" transform="rotate(10.9362 150.131 182.015)" fill="white"/>
</g>
<g filter="url(#filter3_di_918_14293)">
<circle cx="190.502" cy="189.816" r="8.65592" transform="rotate(10.9362 190.502 189.816)" fill="white"/>
</g>
<g filter="url(#filter4_di_918_14293)">
<circle cx="276.344" cy="206.403" r="8.65592" transform="rotate(10.9362 276.344 206.403)" fill="white"/>
</g>
<g filter="url(#filter5_di_918_14293)">
<circle cx="234.273" cy="198.274" r="8.65592" transform="rotate(10.9362 234.273 198.274)" fill="white"/>
</g>
<g filter="url(#filter6_di_918_14293)">
<circle cx="136.803" cy="140.036" r="8.65592" transform="rotate(-49.0638 136.803 140.036)" fill="white"/>
</g>
<g filter="url(#filter7_di_918_14293)">
<circle cx="164.55" cy="109.366" r="8.65592" transform="rotate(-49.0638 164.55 109.366)" fill="white"/>
</g>
<g filter="url(#filter8_di_918_14293)">
<circle cx="192.953" cy="75.2978" r="8.65592" transform="rotate(-49.0638 192.953 75.2978)" fill="white"/>
</g>
<g filter="url(#filter9_di_918_14293)">
<circle cx="221.028" cy="42.929" r="8.65592" transform="rotate(-49.0638 221.028 42.929)" fill="white"/>
</g>
<g filter="url(#filter10_di_918_14293)">
<circle cx="178.873" cy="148.165" r="8.65592" transform="rotate(-49.0638 178.873 148.165)" fill="white"/>
</g>
<g filter="url(#filter11_di_918_14293)">
<circle cx="206.62" cy="117.495" r="8.65592" transform="rotate(-49.0638 206.62 117.495)" fill="white"/>
</g>
<g filter="url(#filter12_di_918_14293)">
<circle cx="235.024" cy="83.4269" r="8.65592" transform="rotate(-49.0638 235.024 83.4269)" fill="white"/>
</g>
<g filter="url(#filter13_di_918_14293)">
<circle cx="220.944" cy="156.295" r="8.65592" transform="rotate(-49.0638 220.944 156.295)" fill="white"/>
</g>
<g filter="url(#filter14_di_918_14293)">
<circle cx="249.019" cy="123.925" r="8.65592" transform="rotate(-49.0638 249.019 123.925)" fill="white"/>
</g>
<g filter="url(#filter15_di_918_14293)">
<circle cx="263.015" cy="164.424" r="8.65592" transform="rotate(-49.0638 263.015 164.424)" fill="white"/>
</g>
<g filter="url(#filter16_di_918_14293)">
<circle r="13.0409" transform="matrix(-0.981839 -0.189715 -0.189715 0.981839 149.304 181.854)" fill="#FF597E"/>
</g>
<rect x="105.851" y="52.0105" width="74.7778" height="39.5132" rx="7.0024" transform="rotate(-18.9833 105.851 52.0105)" fill="#7D2AA6"/>
<rect x="101.285" y="49.6356" width="74.7778" height="39.5132" rx="7.0024" transform="rotate(-18.9833 101.285 49.6356)" fill="#FF597E"/>
<path d="M128.039 54.7061L126.79 72.1068L122.556 73.5632L124.145 57.1099L115.891 59.9491L114.828 56.857L127.303 52.5655L128.039 54.7061ZM136.536 64.405C137.17 64.1868 137.763 64.1957 138.314 64.4317C138.863 64.6598 139.238 65.0672 139.44 65.6539C139.641 66.2406 139.598 66.7965 139.308 67.3216C139.016 67.8388 138.553 68.2065 137.919 68.4247C137.277 68.6456 136.68 68.6381 136.129 68.402C135.586 68.1633 135.215 67.7545 135.016 67.1758C134.816 66.597 134.858 66.0464 135.139 65.524C135.428 64.9989 135.894 64.6259 136.536 64.405ZM142.81 55.0381L144.701 54.3876C146.2 53.8721 146.697 52.881 146.192 51.4142C145.996 50.8434 145.658 50.4409 145.178 50.2069C144.696 49.9649 144.13 49.9557 143.48 50.1794C142.948 50.3621 142.538 50.6763 142.248 51.1219C141.966 51.5647 141.904 52.0161 142.062 52.4759L138.054 53.8546C137.74 52.9428 137.714 52.0429 137.976 51.1548C138.238 50.2667 138.749 49.4703 139.509 48.7657C140.273 48.0504 141.195 47.5073 142.273 47.1364C144.2 46.4736 145.866 46.3927 147.27 46.8937C148.675 47.3946 149.642 48.4141 150.171 49.9523C150.428 50.6975 150.44 51.4823 150.21 52.3064C149.984 53.12 149.506 53.8829 148.776 54.5952C149.81 54.6118 150.706 54.871 151.464 55.3729C152.219 55.8668 152.768 56.6132 153.112 57.6122C153.644 59.1583 153.475 60.5996 152.605 61.9364C151.734 63.2731 150.332 64.2742 148.398 64.9397C147.264 65.3297 146.136 65.4784 145.013 65.3858C143.896 65.2824 142.957 64.9361 142.195 64.3468C141.431 63.7496 140.882 62.9634 140.546 61.9882L144.578 60.6013C144.76 61.1325 145.133 61.5187 145.694 61.7599C146.256 62.0011 146.85 62.014 147.477 61.7985C148.182 61.5558 148.678 61.1679 148.965 60.6349C149.249 60.0939 149.286 59.5181 149.076 58.9077C148.776 58.0355 148.345 57.4921 147.783 57.2774C147.222 57.0627 146.557 57.0876 145.787 57.3522L143.837 58.0231L142.81 55.0381Z" fill="white"/>
<path d="M163.373 47.896L163.964 44.0774L167.76 42.7713L166.635 49.5518L171.95 54.4567L168.132 55.7702L165.093 52.9333L164.476 57.0278L160.636 58.3489L161.819 51.2087L156.771 46.5516L160.612 45.2305L163.373 47.896Z" fill="white"/>
<rect x="248.474" y="94.4801" width="74.7778" height="39.5132" rx="7.0024" transform="rotate(30.5456 248.474 94.4801)" fill="#226135"/>
<rect x="247.316" y="89.4651" width="74.7778" height="39.5132" rx="7.0024" transform="rotate(30.5456 247.316 89.4651)" fill="#96DB14"/>
<path d="M246.475 112.878L252.195 105.388L261.412 110.828L259.738 113.665L253.488 109.977L251.283 112.897C251.633 112.899 252.051 112.965 252.538 113.097C253.032 113.233 253.481 113.42 253.886 113.659C255.453 114.583 256.38 115.758 256.668 117.184C256.967 118.607 256.623 120.156 255.634 121.831C255.038 122.842 254.269 123.625 253.328 124.18C252.399 124.732 251.397 124.987 250.321 124.946C249.245 124.905 248.151 124.556 247.039 123.9C246.05 123.316 245.241 122.567 244.613 121.651C243.989 120.728 243.641 119.768 243.568 118.77C243.498 117.766 243.732 116.818 244.267 115.927L247.928 118.087C247.623 118.686 247.537 119.253 247.669 119.789C247.801 120.324 248.137 120.752 248.679 121.071C249.907 121.796 251.057 121.248 252.131 119.428C253.124 117.746 252.869 116.461 251.367 115.575C250.515 115.072 249.718 114.972 248.975 115.273L246.475 112.878ZM258.962 125.869C259.539 126.21 259.917 126.666 260.095 127.239C260.278 127.804 260.211 128.354 259.896 128.888C259.581 129.422 259.129 129.75 258.542 129.871C257.959 129.984 257.379 129.871 256.801 129.53C256.216 129.184 255.835 128.726 255.657 128.153C255.486 127.585 255.556 127.037 255.867 126.51C256.178 125.983 256.623 125.657 257.203 125.532C257.791 125.411 258.377 125.523 258.962 125.869ZM278.726 126.725C278.274 127.491 277.684 128.053 276.956 128.412C276.236 128.775 275.439 128.938 274.566 128.9C275.099 129.711 275.397 130.568 275.458 131.471C275.523 132.366 275.298 133.251 274.783 134.124C273.952 135.532 272.808 136.357 271.352 136.597C269.903 136.842 268.326 136.462 266.622 135.456C264.911 134.447 263.801 133.242 263.293 131.842C262.79 130.435 262.951 129.031 263.778 127.63C264.277 126.785 264.934 126.166 265.751 125.772C266.568 125.377 267.484 125.227 268.5 125.32C268.037 124.57 267.787 123.79 267.75 122.979C267.712 122.168 267.919 121.38 268.371 120.615C269.18 119.243 270.285 118.434 271.686 118.19C273.086 117.945 274.577 118.29 276.158 119.223C277.754 120.164 278.783 121.307 279.246 122.651C279.709 123.995 279.535 125.353 278.726 126.725ZM271.294 131.671C271.678 131.022 271.802 130.423 271.667 129.876C271.544 129.326 271.208 128.89 270.659 128.566C270.11 128.242 269.562 128.157 269.014 128.31C268.47 128.457 268.006 128.855 267.622 129.505C267.252 130.133 267.127 130.731 267.249 131.3C267.383 131.865 267.728 132.312 268.284 132.64C268.825 132.96 269.369 133.037 269.914 132.872C270.459 132.707 270.919 132.307 271.294 131.671ZM274.496 122.039C274.005 121.749 273.534 121.69 273.082 121.862C272.642 122.03 272.253 122.4 271.917 122.97C271.584 123.533 271.446 124.065 271.501 124.565C271.557 125.065 271.837 125.464 272.343 125.762C272.841 126.056 273.315 126.103 273.765 125.901C274.222 125.703 274.617 125.323 274.949 124.76C275.282 124.197 275.414 123.676 275.346 123.197C275.285 122.723 275.002 122.337 274.496 122.039Z" fill="white"/>
<path d="M288.939 135.569L292.228 133.54L295.686 135.58L289.797 139.125L289.516 146.352L286.038 144.3L286.224 140.147L282.708 142.335L279.211 140.271L285.411 136.537L285.677 129.674L289.175 131.738L288.939 135.569Z" fill="white"/>
<path d="M181.311 130.559L188.825 145.241C191.39 150.253 196.962 152.963 202.488 151.886L218.676 148.732L203.995 156.246C198.983 158.811 196.273 164.383 197.349 169.909L200.504 186.097L192.99 171.416C190.425 166.404 184.853 163.693 179.326 164.77L163.138 167.924L177.82 160.411C182.832 157.846 185.542 152.274 184.465 146.747L181.311 130.559Z" fill="white"/>
<circle opacity="0.2" cx="190.907" cy="158.33" r="14.1869" transform="rotate(-19.0638 190.907 158.33)" fill="white"/>
<path d="M276.586 75.0924L272.364 88.4567C270.923 93.0192 272.675 97.9848 276.66 100.633L288.333 108.39L274.968 104.169C270.406 102.728 265.44 104.479 262.792 108.464L255.035 120.137L259.256 106.773C260.698 102.21 258.946 97.2447 254.961 94.5964L243.288 86.8393L256.652 91.0607C261.215 92.5019 266.18 90.7501 268.829 86.7651L276.586 75.0924Z" fill="white"/>
<ellipse opacity="0.2" cx="265.81" cy="97.6153" rx="12.056" ry="12.056" transform="rotate(25.568 265.81 97.6153)" fill="white"/>
<circle cx="82.1667" cy="89.0562" r="3.69139" transform="rotate(8.99343 82.1667 89.0562)" fill="#FFE493"/>
<circle cx="52.8013" cy="150.772" r="46.1538" transform="rotate(8.99343 52.8013 150.772)" fill="url(#paint2_linear_918_14293)"/>
<path opacity="0.23" d="M98.3878 157.987C100.247 146.238 97.4978 134.823 91.4774 125.585C91.4774 125.585 89.9163 129.543 87.6961 131.061C85.4759 132.579 81.0254 131.875 81.0254 131.875C87.6844 138.224 99.8687 154.483 95.3349 168.718C96.753 165.35 97.7909 161.758 98.3878 157.987Z" fill="#915ED1"/>
<g clip-path="url(#clip0_918_14293)">
<path d="M67.1821 148.682C66.1138 150.827 64.3852 152.439 62.0962 153.668C60.1005 154.758 57.9285 155.485 55.6813 155.814C55.3287 155.856 55.0011 156.019 54.7538 156.275C54.5065 156.531 54.3547 156.865 54.3241 157.219C54.2032 161.207 54.0276 165.176 53.2655 169.1C53.1144 169.852 51.9933 170.594 51.1339 170.535C48.7253 170.421 46.3372 170.04 44.0132 169.399C43.7751 169.33 43.5708 169.176 43.4394 168.965C43.308 168.755 43.2585 168.503 43.3005 168.258C43.634 163.912 43.7727 159.592 43.8167 155.235C43.8182 154.948 43.7327 154.666 43.5713 154.429C43.41 154.191 43.1805 154.008 42.9131 153.904C41.9331 153.528 41.4433 153.336 40.4785 152.944C40.1898 152.818 39.8638 152.805 39.5656 152.909C39.2675 153.013 39.0191 153.225 38.87 153.505C37.0565 156.9 35.373 160.355 33.9096 163.902C33.672 164.482 33.1398 164.681 32.6478 164.358C30.5148 163 28.5282 161.424 26.7196 159.655C26.136 159.106 25.7061 157.986 25.8396 157.343C29.0229 145.107 36.6482 135.194 44.2673 125.342C44.4757 125.074 44.7426 124.858 45.0474 124.71C45.3522 124.562 45.6867 124.486 46.025 124.488C50.5729 124.928 55.1391 126.043 59.2499 128.086C63.0726 130.028 64.8623 133.689 66.5938 137.391C67.8581 141.129 69.0568 144.878 67.1821 148.682ZM50.2818 135.795C49.9699 135.702 49.6354 135.716 49.3321 135.836C49.0288 135.956 48.7742 136.175 48.6091 136.457C47.1258 138.963 46.3779 140.213 44.908 142.7C44.8052 142.876 44.7429 143.073 44.7254 143.277C44.7079 143.48 44.7358 143.685 44.807 143.876C44.8782 144.067 44.991 144.24 45.1371 144.381C45.2832 144.523 45.459 144.631 45.6518 144.696C47.4916 145.36 48.4101 145.692 50.2498 146.357C50.8491 146.614 51.4947 146.745 52.147 146.743C52.7993 146.741 53.4446 146.605 54.0433 146.343C55.3019 145.835 56.3333 144.885 56.9437 143.669C57.6218 142.382 57.7234 141.16 57.3123 139.988C56.9012 138.816 56.0798 137.967 54.7159 137.431C52.962 136.717 52.0736 136.396 50.2818 135.795Z" fill="url(#paint3_linear_918_14293)"/>
</g>
<path opacity="0.5" d="M98.3878 157.987C94.4032 183.163 70.7632 200.343 45.5866 196.358C34.0253 194.528 24.1504 188.554 17.2368 180.189C17.2368 180.189 43.2121 193.646 67.1629 181.082C91.1138 168.517 97.7228 140.125 97.7228 140.125C99.0733 145.813 99.3584 151.854 98.3878 157.987Z" fill="#19152D"/>
<ellipse opacity="0.2" cx="42.3284" cy="119.265" rx="8.76923" ry="12.4615" transform="rotate(68.294 42.3284 119.265)" fill="white"/>
<ellipse opacity="0.2" cx="40.8681" cy="115.597" rx="4.82098" ry="6.85086" transform="rotate(68.294 40.8681 115.597)" fill="white"/>
<ellipse cx="71.802" cy="117.331" rx="17.9359" ry="9.26343" transform="rotate(28.5281 71.802 117.331)" fill="#1E243D"/>
<path d="M86.978 126.742L91.612 118.13L60.5934 101.538L55.5757 109.622L68.2875 123.784L86.978 126.742Z" fill="#1E243D"/>
<ellipse cx="76.047" cy="109.549" rx="17.9359" ry="9.26343" transform="rotate(28.5281 76.047 109.549)" fill="#51597E"/>
<path d="M76.8612 97.1711C77.3783 93.9038 78.4668 90.9618 78.3159 87.9792C78.893 84.3333 85.4899 83.9755 85.1522 89.0612C84.8145 94.1468 84.1423 95.4421 83.421 99.9996C82.6997 104.557 80.1587 109.763 77.0482 110.748C74.0973 111.683 71.7234 108.972 72.9955 106.837C74.2677 104.702 75.8785 103.38 76.8612 97.1711Z" fill="#F4C73F"/>
<path d="M87.8383 71.7562L86.0664 76.3942C84.7454 79.8517 85.8717 83.7661 88.8282 85.9928L92.7941 88.9798L88.1562 87.2079C84.6986 85.8869 80.7843 87.0132 78.5575 89.9697L75.5705 93.9356L77.3425 89.2976C78.6635 85.8401 77.5372 81.9257 74.5806 79.699L70.6147 76.712L75.2527 78.484C78.7102 79.8049 82.6246 78.6786 84.8514 75.7221L87.8383 71.7562Z" fill="white" fill-opacity="0.84"/>
<ellipse opacity="0.2" cx="81.7041" cy="82.8457" rx="6.11943" ry="6.11943" transform="rotate(28.9478 81.7041 82.8457)" fill="white"/>
<g clip-path="url(#clip1_918_14293)">
<path d="M44.024 200.075L42.6941 191.69C42.0218 187.283 42.5678 182.771 44.2726 178.649C46.7241 172.501 51.5095 166.861 58.0012 162.428C64.8494 157.859 72.6267 154.892 80.7594 153.746C88.7536 152.509 96.9181 153.099 104.647 155.47L105.979 163.875C98.2506 161.503 90.0861 160.914 82.0919 162.151C73.9586 163.296 66.1801 166.26 59.3288 170.825C52.8373 175.29 48.0626 180.907 45.6063 187.048C43.9046 191.166 43.3573 195.672 44.024 200.075Z" fill="#FFD000"/>
<path d="M82.0163 167.513C81.5717 164.713 81.1332 161.915 80.6838 159.108L81.2819 159.02C81.7439 158.951 82.2108 158.888 82.6765 158.832L82.7899 159.553L82.9083 160.313L83.0342 161.1L83.1627 161.907L83.2911 162.713L83.417 163.5L83.5355 164.26L83.6489 164.981L83.6929 165.244L83.7333 165.525L83.7787 165.813L83.8289 166.109L83.8731 166.403L83.9184 166.692L83.965 166.974L84.0029 167.236C83.5433 167.293 83.0764 167.355 82.6144 167.425L82.0163 167.513Z" fill="#FFD000"/>
<path d="M60.9812 176.724L59.6487 168.319C60.5293 167.587 61.4685 166.879 62.4504 166.211C67.9449 162.53 74.1689 160.098 80.6884 159.083C81.1379 161.89 81.5764 164.689 82.0209 167.488C75.5 168.504 69.2744 170.936 63.7768 174.614C62.801 175.283 61.8618 175.992 60.9812 176.724Z" fill="#FFD000"/>
<path d="M58.5174 178.98L57.1727 170.573C57.9559 169.78 58.7783 169.027 59.6366 168.317L59.7512 169.032L59.8697 169.792L59.9956 170.579L60.124 171.385L60.2475 172.184L60.3734 172.971L60.4919 173.731L60.6065 174.446L60.6493 174.715L60.6958 174.997L60.7412 175.286L60.7903 175.588L60.8344 175.882L60.8786 176.177L60.9251 176.459L60.9691 176.722C60.1149 177.433 59.2966 178.187 58.5174 178.98Z" fill="#FFD000"/>
<path d="M84.0076 167.211C83.5708 164.415 83.1286 161.614 82.6812 158.808C88.9143 158.034 95.2368 158.606 101.227 160.485C105.069 161.687 108.645 163.616 111.765 166.169C114.55 168.441 116.741 171.362 118.15 174.679C118.666 175.927 119.051 177.226 119.296 178.555L119.382 179.124L119.479 179.734L119.574 180.388L119.675 181.043L119.776 181.698L119.87 182.352L119.961 182.96L120.053 183.531L120.12 183.938L120.187 184.376L120.258 184.822L120.334 185.282L120.403 185.74L120.474 186.192L120.548 186.626L120.607 187.038C120.363 185.707 119.98 184.405 119.462 183.156C118.05 179.842 115.859 176.924 113.076 174.652C109.957 172.099 106.38 170.17 102.538 168.968C96.5582 167.066 90.2413 166.467 84.0076 167.211Z" fill="#FFD000"/>
<path d="M91.788 173.665L91.1218 169.463L90.4555 165.26C90.5214 165.138 90.6322 165.047 90.7641 165.006C90.8961 164.965 91.0387 164.977 91.1613 165.041L92.4937 173.445C92.3712 173.382 92.2286 173.369 92.0966 173.41C91.9647 173.451 91.8539 173.543 91.788 173.665Z" fill="#FCDF8F"/>
<path d="M93.0519 173.63L92.4936 173.445L91.1611 165.041L91.7194 165.225L92.2435 165.39L92.3731 166.19L92.5078 167.03L92.6476 167.908L92.785 168.799L92.9285 169.691L93.0683 170.57L93.2018 171.415L93.3265 172.208L93.3531 172.398L93.3857 172.588L93.4209 172.798L93.4512 173.001L93.4864 173.212L93.5167 173.414L93.5482 173.611L93.576 173.794L93.0519 173.63Z" fill="#FCDF8F"/>
<path d="M79.5539 167.571L80.8864 175.975L80.4772 176.131L79.1447 167.727L79.5539 167.571Z" fill="#FCDF8F"/>
<path d="M80.3679 176.174L79.0354 167.769L80.3679 176.174Z" fill="#CA820B"/>
<path d="M79.1447 167.727L80.4772 176.131C80.4435 176.15 80.4069 176.162 80.3691 176.168L79.0366 167.763C79.0366 167.763 79.0755 167.758 79.1447 167.727Z" fill="#CA820B"/>
<path d="M79.5539 167.571L80.8864 175.975C80.8284 176.047 80.7753 176.126 80.7222 176.204L79.3885 167.806C79.4428 167.721 79.4924 167.66 79.5539 167.571Z" fill="#CA820B"/>
<path d="M79.3885 167.806L80.7222 176.204L80.4725 176.156L79.14 167.751L79.3885 167.806Z" fill="#CA820B"/>
<path d="M81.3852 176.402L80.7222 176.204L79.3885 167.806L80.0588 167.999C80.4981 170.804 80.9402 173.605 81.3852 176.402Z" fill="#FCDF8F"/>
<path d="M93.576 173.794L92.2435 165.39C92.9943 165.624 93.7339 165.818 94.5283 166.022L95.8608 174.427C95.0664 174.222 94.328 174.022 93.576 173.794Z" fill="#FCDF8F"/>
<path d="M94.7897 166.206L96.1222 174.611C96.1328 174.555 96.0315 174.491 95.8608 174.427L94.5283 166.022C94.6807 166.083 94.7724 166.164 94.7897 166.206Z" fill="#FCDF8F"/>
<path d="M94.7895 166.206L96.122 174.611C96.1113 174.666 96.0971 174.739 95.9868 174.82L94.6543 166.415C94.7463 166.331 94.7971 166.265 94.7895 166.206Z" fill="#CA820B"/>
<path d="M81.385 176.402L81.3699 176.317L80.0586 167.999C81.0213 168.28 81.996 168.532 82.9589 168.845L82.9894 168.851C83.2134 170.242 83.4338 171.63 83.6506 173.014L84.3117 177.178L84.3239 177.18C83.3285 176.937 82.3538 176.685 81.385 176.402Z" fill="#FCDF8F"/>
<path d="M79.3885 167.806L80.7221 176.204C80.0762 177.128 79.4134 178.106 78.7722 179.005L77.4385 170.607C78.0809 169.701 78.7437 168.723 79.3885 167.806Z" fill="#FCDF8F"/>
<path d="M99.2659 175.701L98.9496 173.676C98.8302 172.954 98.718 172.227 98.5997 171.499C98.4814 170.77 98.3692 170.043 98.2558 169.322L98.0908 168.28L97.9334 167.296C97.9642 167.137 98.1061 167.056 98.3597 167.15L99.6922 175.555C99.4386 175.461 99.315 175.545 99.2659 175.701Z" fill="#FCDF8F"/>
<path d="M100.054 175.675L99.6922 175.555L98.3597 167.15L98.7218 167.271L98.8742 168.247L99.0392 169.289L99.2105 170.365L99.3843 171.46L99.5569 172.561L99.7282 173.636L99.8943 174.672L100.052 175.656C99.6075 172.854 99.1642 170.059 98.7218 167.271L100.054 175.675Z" fill="#FCDF8F"/>
<path d="M78.771 179.011C78.7427 179.032 78.7192 179.058 78.7023 179.089C78.6854 179.12 78.6756 179.154 78.6734 179.189L77.347 170.786C77.3486 170.752 77.3581 170.718 77.3748 170.688C77.3916 170.658 77.4151 170.633 77.4434 170.614C77.8354 173.13 78.3669 176.493 78.771 179.011Z" fill="#FCDF8F"/>
<path d="M78.6735 179.189L77.347 170.786C77.3388 170.829 77.3949 170.865 77.4668 170.885C77.5101 170.9 77.5552 170.909 77.6008 170.911L78.9333 179.316C78.8856 179.313 78.8385 179.304 78.7932 179.289C78.7667 179.283 78.742 179.271 78.7211 179.254C78.7003 179.236 78.6839 179.214 78.6735 179.189Z" fill="#CA820B"/>
<path d="M91.7879 173.665C90.7924 175.189 89.8267 176.623 88.8191 178.176L87.4866 169.771C88.4895 168.242 89.4551 166.808 90.4554 165.26C90.8535 167.778 92.3159 171.162 91.7879 173.665Z" fill="#FCDF8F"/>
<path d="M97.9322 167.302L99.2659 175.701L98.5393 176.781L97.2068 168.376L97.9322 167.302Z" fill="#FCDF8F"/>
<path d="M84.3097 177.254L84.3239 177.18L83.6628 173.017L83.4939 171.929L83.3214 170.86L83.1602 169.831L83.0016 168.854C84.2631 169.256 85.5484 169.568 86.8635 169.987C87.1609 170.083 87.3101 169.997 87.5034 169.749L88.8359 178.153C88.6426 178.402 88.4934 178.488 88.196 178.392C86.8663 177.983 85.5834 177.658 84.3097 177.254Z" fill="#FCDF8F"/>
<path d="M103.218 176.693C101.999 176.267 101.014 176.007 100.051 175.694L98.7181 167.289C99.681 167.602 100.667 167.862 101.886 168.289L102.039 169.259L102.201 170.288L102.374 171.351L102.543 172.438L102.718 173.527L102.885 174.595L103.047 175.618L103.201 176.588L103.182 176.686L103.218 176.693Z" fill="#FCDF8F"/>
<path d="M103.218 176.694L101.886 168.289C101.936 168.585 101.999 168.946 102.043 169.273L102.209 170.309L102.379 171.39L102.552 172.491L102.725 173.592L102.896 174.668L103.061 175.71L103.218 176.694Z" fill="#FCDF8F"/>
<path d="M101.95 168.251L103.283 176.655C102.736 177.862 102.07 179.011 101.293 180.084L99.9597 171.685C100.736 170.61 101.402 169.459 101.95 168.251Z" fill="#CA820B"/>
<path d="M103.498 176.748L103.232 176.658L101.899 168.253L102.165 168.349C102.596 170.892 103.097 174.249 103.498 176.748Z" fill="#FCDF8F"/>
<path d="M94.6545 166.415L95.987 174.82C95.0213 176.254 94.0306 177.784 93.0589 179.217L91.7325 170.814C92.6981 169.38 93.7047 167.865 94.6545 166.415Z" fill="#CA820B"/>
<path d="M91.7324 170.814L93.0588 179.217C93.0157 179.356 92.9325 179.48 92.8198 179.571L91.4873 171.167C91.5984 171.073 91.6829 170.951 91.7324 170.814Z" fill="#CA820B"/>
<path d="M93.1306 179.663L92.8198 179.571L91.4873 171.167L91.804 171.228L91.9377 172.105L92.0131 172.565L92.1654 173.509C92.4872 175.571 92.8089 177.622 93.1306 179.663Z" fill="#FCDF8F"/>
<path d="M81.6819 173.003L83.0144 181.407C82.9504 181.137 82.8161 180.888 82.6252 180.687C82.4343 180.486 82.1936 180.34 81.9278 180.263C81.6096 180.144 81.2841 180.031 80.9684 179.932C80.2615 179.7 79.5669 179.502 78.9271 179.315L77.5946 170.91C78.2332 171.103 78.929 171.295 79.6359 171.527C79.9516 171.626 80.2771 171.74 80.5953 171.858C80.8611 171.935 81.1018 172.081 81.2927 172.283C81.4836 172.484 81.6179 172.732 81.6819 173.003Z" fill="#CA820B"/>
<path d="M82.8074 182.282L82.6561 181.3L82.5719 180.788L82.4043 179.726L82.3138 179.181C82.0244 177.409 81.7338 175.643 81.4445 173.872C81.62 173.628 81.6923 173.324 81.6456 173.027L82.9781 181.432C83.0353 181.727 82.9739 182.032 82.8074 182.282Z" fill="#FCDF8F"/>
<path d="M97.2068 168.376L98.5393 176.781C97.6841 177.937 96.9391 179.014 96.1837 180.177L94.8451 171.771C95.6066 170.609 96.3333 169.529 97.2068 168.376Z" fill="#FCDF8F"/>
<path d="M93.1306 179.663L91.7859 171.256C92.6341 171.509 93.5821 171.768 94.3804 172.018L95.7129 180.423C94.9024 180.171 93.9788 179.916 93.1306 179.663Z" fill="#FCDF8F"/>
<path d="M94.8451 171.771L96.1776 180.176C96.0223 180.26 95.8443 180.429 95.719 180.424L94.3865 172.019C94.5179 172.026 94.6935 171.869 94.8451 171.771Z" fill="#FCDF8F"/>
<path d="M52.3879 188.079C52.3135 188.268 52.2391 188.457 52.166 188.671L50.8335 180.267C50.8714 180.071 50.9762 179.888 51.0554 179.674C52.4706 176.262 54.5506 173.167 57.1728 170.574L57.2584 171.111L57.3491 171.688L57.4423 172.284L57.5405 172.888L57.6375 173.498L57.7307 174.094L57.8226 174.665L57.907 175.208L58.5053 178.978C55.8809 181.57 53.8005 184.665 52.3879 188.079Z" fill="#FFD000"/>
<path d="M99.9596 171.685L101.293 180.084C101.028 180.564 100.712 181.014 100.351 181.427L99.0251 173.024C99.3821 172.611 99.6953 172.163 99.9596 171.685Z" fill="#CA820B"/>
<path d="M100.246 181.68L98.9123 173.281C98.9113 173.233 98.9204 173.185 98.9388 173.141C98.9572 173.096 98.9845 173.056 99.0192 173.022L100.352 181.427C100.317 181.459 100.29 181.499 100.272 181.542C100.254 181.586 100.245 181.633 100.246 181.68Z" fill="#CA820B"/>
<path d="M100.329 181.804C100.307 181.791 100.288 181.773 100.274 181.752C100.259 181.73 100.25 181.706 100.246 181.68L98.9122 173.281C98.9166 173.306 98.9265 173.33 98.9412 173.35C98.9558 173.371 98.9748 173.387 98.9968 173.4L99.1038 174.056L99.2195 174.764L99.3366 175.499L99.4514 176.245L99.571 176.999L99.6881 177.734L99.7978 178.441L99.9108 179.099L99.9587 179.407L100.008 179.74L100.067 180.089L100.12 180.436L100.178 180.79L100.231 181.137L100.281 181.464L100.329 181.804Z" fill="#FCDF8F"/>
<path d="M100.329 181.804C100.296 181.702 100.278 181.596 100.277 181.489L100.226 181.161L100.115 180.46L99.9013 179.148C99.5966 177.237 99.2935 175.329 98.9921 173.424C99.0685 173.477 99.1518 173.518 99.2397 173.548L100.572 181.953C100.485 181.915 100.403 181.865 100.329 181.804Z" fill="#FCDF8F"/>
<path d="M89.3199 175.158L90.6524 183.563L90.5915 183.551C90.2953 183.449 90.1449 183.541 89.9151 183.783L88.5826 175.378C88.782 175.131 88.9312 175.045 89.2286 175.141L89.3199 175.158Z" fill="#CA820B"/>
<path d="M52.1707 188.647C51.771 189.712 51.4579 190.808 51.2344 191.923L49.8959 183.549C50.1195 182.434 50.4326 181.338 50.8322 180.273C51.0262 181.492 51.2213 182.706 51.3909 183.921C51.567 185.003 51.7359 186.091 51.9073 187.198L51.9855 187.709C52.0841 188.013 52.1463 188.328 52.1707 188.647Z" fill="#FFD000"/>
<path d="M102.87 175.292L104.202 183.696L100.577 181.928L99.2444 173.523L102.87 175.292Z" fill="#FCDF8F"/>
<path d="M96.515 178.887L97.8475 187.292C97.3582 186.36 96.547 185.641 95.5662 185.269C94.7582 184.898 93.927 184.58 93.0778 184.318C92.2928 184.064 91.48 183.825 90.6525 183.563L89.3199 175.158C90.1475 175.42 90.9604 175.66 91.7453 175.913C92.5937 176.178 93.4247 176.496 94.2337 176.864C95.2154 177.235 96.0271 177.954 96.515 178.887Z" fill="#CA820B"/>
<path d="M88.6142 175.378L89.9467 183.782C88.7109 185.666 87.499 187.459 86.139 189.332L84.8066 180.927C86.1665 179.055 87.3784 177.262 88.6142 175.378Z" fill="#CA820B"/>
<path d="M86.0463 189.517L84.7138 181.113C84.7233 181.064 84.7351 181.003 84.8065 180.927L86.139 189.332C86.0615 189.406 86.0375 189.465 86.0463 189.517Z" fill="#CA820B"/>
<path d="M104.209 183.698L102.876 175.293C103.898 175.919 104.753 176.784 105.371 177.815C105.759 180.292 106.151 182.766 106.546 185.236L106.697 186.218C106.084 185.187 105.23 184.322 104.209 183.698Z" fill="#FCDF8F"/>
<path d="M96.6526 179.352L97.9851 187.757C97.958 187.597 97.9118 187.441 97.8475 187.292L96.515 178.887C96.5793 179.036 96.6255 179.192 96.6526 179.352Z" fill="#CA820B"/>
<path d="M86.2714 189.726C86.1396 189.656 86.0565 189.596 86.0464 189.517L84.7139 181.113C84.6997 181.186 84.8071 181.251 84.9389 181.321C85.3357 183.845 85.8672 187.208 86.2714 189.726Z" fill="#FCDF8F"/>
<path d="M85.2899 181.434L86.6163 189.837L86.2713 189.726L84.9388 181.321L85.2899 181.434Z" fill="#FCDF8F"/>
<path d="M85.6141 181.554L86.9466 189.958L86.6139 189.85L85.2875 181.446L85.6141 181.554Z" fill="#FCDF8F"/>
<path d="M86.2052 181.731L87.5377 190.136L86.9429 189.945L85.6141 181.554L86.2052 181.731Z" fill="#FCDF8F"/>
<path d="M107.022 187.216C106.967 186.873 106.866 186.539 106.721 186.223C106.332 183.75 105.94 181.276 105.546 178.802L105.395 177.82C105.535 178.136 105.634 178.469 105.69 178.811C106.062 181.33 106.595 184.686 107.022 187.216Z" fill="#FCDF8F"/>
<path d="M97.985 187.757C98.1651 188.885 97.2855 190.037 95.9382 190.634L94.6045 182.236C95.9835 181.638 96.8387 180.481 96.6525 179.352C97.0529 181.857 97.5821 185.232 97.985 187.757Z" fill="#FCDF8F"/>
<path d="M92.896 182.643L94.2285 191.047C93.7589 191.096 93.2868 191.115 92.815 191.105C91.0393 190.88 89.2775 190.556 87.5377 190.136L86.2052 181.731C87.9421 182.146 89.7006 182.465 91.4727 182.685C91.9475 182.701 92.4228 182.687 92.896 182.643Z" fill="#FCDF8F"/>
<path d="M95.9381 190.634C95.3983 190.877 94.8186 191.017 94.2284 191.048L92.8959 182.643C93.4849 182.612 94.0637 182.474 94.6044 182.236L94.763 183.213L94.928 184.256L95.098 185.337L95.2718 186.432L95.4444 187.533L95.6145 188.615L95.7795 189.657L95.9381 190.634Z" fill="#FCDF8F"/>
<path d="M83.0395 184.482L84.372 192.886L84.2989 192.872C84.0198 192.78 83.9814 192.881 83.788 193.129L82.4555 184.725C82.6489 184.476 82.6873 184.375 82.9664 184.467L83.0395 184.482Z" fill="#CA820B"/>
<path d="M51.2343 191.923C50.7684 194.215 50.7131 196.572 51.071 198.882L49.7326 190.508C49.3747 188.198 49.43 185.841 49.8959 183.549L50.0533 184.533L50.2183 185.575L50.3884 186.656L50.5622 187.751L50.7348 188.852L50.8192 189.396L50.9929 190.459L51.1504 191.475C51.1894 191.622 51.2175 191.772 51.2343 191.923Z" fill="#FFD000"/>
<path d="M67.5601 187.598L68.8926 196.002C68.5201 195.969 68.3971 195.951 68.188 196.216L66.8544 187.817C67.0634 187.553 67.1876 187.564 67.5601 187.598Z" fill="#FCDF8F"/>
<path d="M69.0827 196.065L68.8878 196.027L67.5601 187.598L67.7549 187.635L68.7153 187.929L68.8109 188.513L68.9067 189.129L69.0076 189.784L69.1084 190.439L69.2093 191.094L69.3101 191.749L69.4059 192.365L69.4954 192.948L69.5633 193.349L69.6264 193.774L69.6994 194.214L69.7711 194.66L69.8417 195.112L69.9085 195.551L69.9777 195.977L70.0395 196.377L69.0827 196.065Z" fill="#FCDF8F"/>
<path d="M105.666 178.806L107.022 187.215C107.156 188.437 106.815 189.664 106.07 190.641L104.737 182.236C105.475 181.255 105.807 180.026 105.666 178.806Z" fill="#CA820B"/>
<path d="M81.4809 173.847L82.8134 182.252C79.7943 186.924 76.6821 191.489 73.5761 196.056L72.2424 187.657C75.3484 183.091 78.4618 178.519 81.4809 173.847Z" fill="#FCDF8F"/>
<path d="M67.4167 197.103L66.0842 188.698C66.3552 188.407 66.6128 188.12 66.8486 187.848L68.1823 196.247C67.9573 196.495 67.6936 196.781 67.4167 197.103Z" fill="#FCDF8F"/>
<path d="M70.0467 196.34L68.7142 187.935C69.192 188.078 69.6732 188.203 70.1288 188.297L71.4625 196.696C71.0022 196.626 70.5221 196.495 70.0467 196.34Z" fill="#FCDF8F"/>
<path d="M73.5761 196.056C73.3532 196.395 73.0202 196.646 72.634 196.766C72.2479 196.886 71.8325 196.868 71.4589 196.714L70.1252 188.316C70.4991 188.467 70.9137 188.484 71.2993 188.364C71.6849 188.244 72.0179 187.995 72.2424 187.657C72.6405 190.174 73.9933 193.537 73.5761 196.056Z" fill="#FCDF8F"/>
<path d="M82.458 184.712L83.7904 193.117C83.2502 194.017 82.6132 194.796 82.0694 195.714L80.7369 187.309C81.2724 186.434 81.9177 185.612 82.458 184.712Z" fill="#CA820B"/>
<path d="M67.4166 197.103C66.9859 197.566 66.5201 198.048 66.0542 198.53L64.7217 190.125C65.1876 189.643 65.6534 189.161 66.0841 188.698L66.1761 189.3L66.277 189.955L66.384 190.612L66.4909 191.268L66.604 191.925L66.7048 192.58L66.8057 193.235L66.8989 193.831L66.9642 194.213L67.0248 194.618L67.0891 195.038L67.1583 195.464L67.2276 195.89L67.2931 196.304L67.3536 196.709L67.4166 197.103Z" fill="#FCDF8F"/>
<path d="M65.7092 198.844C65.2642 196.047 64.8221 193.246 64.3828 190.441C64.4856 190.334 64.5969 190.215 64.7277 190.094L66.0602 198.499C65.9294 198.62 65.8193 198.732 65.7092 198.844Z" fill="#FCDF8F"/>
<path d="M89.7853 186.808L91.1178 195.213C90.1221 194.654 89.0698 194.204 87.9787 193.869C86.7903 193.481 85.5853 193.178 84.3816 192.869L83.0491 184.464C84.2529 184.773 85.4578 185.076 86.6462 185.465C87.7373 185.799 88.7896 186.249 89.7853 186.808Z" fill="#CA820B"/>
<path d="M65.7092 198.845C65.5192 199.043 65.3499 199.233 65.1175 199.455L63.785 191.05C64.0174 190.828 64.1928 190.64 64.3828 190.441L64.4775 191.095L64.5845 191.751L64.6916 192.439L64.8013 193.147L64.9182 193.849L65.0241 194.543L65.1311 195.2L65.2259 195.853L65.2837 196.208L65.3441 196.582L65.4022 196.968L65.464 197.367L65.5269 197.761L65.591 198.148L65.6515 198.522L65.7092 198.845Z" fill="#FCDF8F"/>
<path d="M98.9158 185.687L100.248 194.092C100.074 194.12 99.898 194.135 99.7217 194.136L98.3892 185.732C98.5655 185.73 98.7415 185.715 98.9158 185.687Z" fill="#CA820B"/>
<path d="M98.7053 187.757L98.389 185.732L98.5352 186.675L98.6964 187.672L98.8613 188.715L99.0301 189.77L99.1976 190.832L99.3638 191.868L99.5176 192.87L99.6699 193.815L99.6628 193.852L99.6557 193.889L99.6486 193.925L99.6415 193.962L99.6332 194.005L99.6261 194.042L99.619 194.078L99.6119 194.115C99.3459 192.005 99.0437 189.885 98.7053 187.757Z" fill="#FCDF8F"/>
<path d="M104.713 182.232L106.045 190.636C105.367 191.686 104.438 192.549 103.343 193.146C102.366 193.62 101.322 193.939 100.248 194.092L98.9156 185.687C99.9894 185.534 101.034 185.215 102.011 184.741C103.105 184.144 104.034 183.281 104.713 182.232Z" fill="#CA820B"/>
<path d="M99.7423 194.159C99.7417 194.134 99.7466 194.109 99.7565 194.086L99.7415 194L99.7151 193.843L98.4342 185.759C98.8179 186.062 99.2364 186.283 99.6201 186.586L99.7712 187.537L99.9299 188.546L100.094 189.594L100.266 190.664L100.434 191.726L100.598 192.774L100.762 193.785L100.913 194.735L100.908 194.766L100.902 194.796L100.896 194.827L100.89 194.858C100.526 194.679 100.126 194.462 99.7423 194.159Z" fill="#FCDF8F"/>
<path d="M100.928 194.986L100.893 194.744C100.457 192.029 100.026 189.312 99.5995 186.595L99.6421 186.603C100.086 189.405 100.528 192.206 100.969 195.006L100.928 194.986Z" fill="#FCDF8F"/>
<path d="M91.8386 188.736L93.1711 197.141C92.6609 196.337 91.9525 195.679 91.1144 195.231L89.7854 186.808C90.6244 187.261 91.3319 187.926 91.8386 188.736Z" fill="#CA820B"/>
<path d="M80.7369 187.309L82.0694 195.714C81.1587 196.962 80.3783 198.222 79.4304 199.564L78.0979 191.159C79.0458 189.817 79.8262 188.557 80.7369 187.309Z" fill="#CA820B"/>
<path d="M78.3211 191.279L79.6536 199.683C79.6123 199.634 79.5582 199.597 79.4973 199.577L79.4425 199.566L78.11 191.162L78.1648 191.172C78.2257 191.192 78.2798 191.229 78.3211 191.279Z" fill="#FCDF8F"/>
<path d="M92.078 189.361L93.4117 197.759C93.3758 197.545 93.3048 197.338 93.2015 197.147L91.869 188.742C91.9734 188.935 92.0441 189.144 92.078 189.361Z" fill="#CA820B"/>
<path d="M71.887 193.518L73.2195 201.923C70.5602 201.104 67.9057 200.26 65.1199 199.442L63.7874 191.038C66.5673 191.886 69.2254 192.711 71.887 193.518Z" fill="#CA820B"/>
<path d="M71.887 193.518L73.2195 201.923C73.1828 202.112 73.0105 202.187 72.9793 202.283L71.6201 193.886C71.6756 193.795 71.8236 193.715 71.887 193.518Z" fill="#FCDF8F"/>
<path d="M102.874 198.025C102.64 196.804 101.943 195.723 100.93 195.011C100.494 192.207 100.052 189.406 99.6033 186.608C100.6 187.325 101.284 188.402 101.511 189.614C101.94 192.137 102.471 195.5 102.874 198.025Z" fill="#FCDF8F"/>
<path d="M84.1962 192.782L85.5287 201.187C83.5349 200.836 81.5709 200.333 79.6536 199.683L78.321 191.279C80.2384 191.929 82.2024 192.431 84.1962 192.782Z" fill="#FCDF8F"/>
<path d="M101.542 189.62L102.874 198.025C102.892 198.162 102.91 198.298 102.919 198.446L101.587 190.042C101.579 189.9 101.564 189.76 101.542 189.62Z" fill="#CA820B"/>
<path d="M88.4737 192.91L89.8001 201.313C88.3785 201.51 86.9349 201.469 85.5275 201.193L84.195 192.788C85.6045 193.064 87.0499 193.105 88.4737 192.91Z" fill="#FCDF8F"/>
<path d="M92.0779 189.361L93.4116 197.759C93.6497 199.274 92.0494 201.017 89.8317 201.313L88.4737 192.91C90.6864 192.606 92.2868 190.863 92.0779 189.361Z" fill="#FCDF8F"/>
<path d="M78.965 195.629L80.2987 204.028C79.3725 203.753 78.4403 203.478 77.3911 203.186L76.0586 194.782C77.1078 195.073 78.0412 195.343 78.965 195.629Z" fill="#CA820B"/>
<path d="M79.0764 195.74L80.4089 204.144C80.416 204.108 80.372 204.074 80.2988 204.028L78.9651 195.629C79.0395 195.669 79.0713 195.701 79.0764 195.74Z" fill="#CA820B"/>
<path d="M79.0764 195.74L80.4089 204.144C80.3959 204.212 80.3428 204.29 80.3069 204.411L78.9744 196.006C79.0103 195.886 79.0878 195.812 79.0764 195.74Z" fill="#FCDF8F"/>
<path d="M71.6201 193.886L72.9526 202.29C71.8628 203.713 70.8672 205.237 69.868 206.778L68.5355 198.374C69.5579 196.843 70.5546 195.313 71.6201 193.886Z" fill="#FCDF8F"/>
<path d="M79.7125 205.198L78.38 196.793C78.572 196.519 78.7785 196.235 78.9779 195.988L80.3104 204.392C80.1039 204.676 79.9009 204.942 79.7125 205.198Z" fill="#FCDF8F"/>
<path d="M69.7596 206.98L68.4282 198.569C68.4389 198.514 68.4531 198.441 68.5634 198.36L69.8959 206.765C69.8027 206.855 69.7337 206.918 69.7596 206.98Z" fill="#FCDF8F"/>
<path d="M69.7595 206.98L68.4282 198.569C68.4176 198.624 68.5189 198.688 68.6896 198.753L70.0221 207.158C69.849 207.105 69.7732 207.04 69.7595 206.98Z" fill="#CA820B"/>
<path d="M83.8469 197.043L85.1794 205.447C85.0399 205.382 84.8824 205.367 84.7328 205.404C84.5832 205.441 84.4506 205.528 84.3567 205.651L83.0242 197.246C83.1181 197.123 83.2507 197.036 83.4003 196.999C83.5499 196.962 83.7074 196.977 83.8469 197.043Z" fill="#CA820B"/>
<path d="M76.0587 194.782L77.3912 203.186C76.8809 203.996 76.2403 204.794 75.7312 205.598C75.222 206.402 74.5791 207.212 74.0627 208.021L72.7302 199.616C73.2466 198.807 73.8811 198.009 74.3987 197.193C74.9163 196.378 75.5484 195.592 76.0587 194.782Z" fill="#CA820B"/>
<path d="M72.2443 199.777L73.5768 208.182L73.0966 208.019C72.0861 207.69 71.0505 207.426 70.021 207.164L68.6885 198.759C69.718 199.022 70.7536 199.285 71.7641 199.614L72.2443 199.777Z" fill="#CA820B"/>
<path d="M72.7301 199.616L74.0626 208.021C73.8919 208.185 73.862 208.275 73.5768 208.181L72.2443 199.777C72.5295 199.87 72.5655 199.782 72.7301 199.616Z" fill="#CA820B"/>
<path d="M79.7125 205.198C78.8513 206.385 78.0306 207.625 77.2221 208.867L75.8957 200.463C76.7042 199.221 77.5127 197.979 78.38 196.793L78.5035 197.593L78.637 198.438L78.7768 199.317L78.9191 200.215L79.0626 201.107L79.2012 201.992L79.3348 202.837L79.4644 203.638L79.4921 203.821L79.5248 204.012L79.5551 204.214L79.5854 204.417L79.6157 204.62L79.6532 204.818L79.6786 205.014L79.7125 205.198Z" fill="#FCDF8F"/>
<path d="M77.0895 209.095L75.7558 200.697C75.7676 200.635 75.7807 200.568 75.8921 200.482L77.2185 208.885C77.1314 208.976 77.0758 209.035 77.0895 209.095Z" fill="#FCDF8F"/>
<path d="M101.587 190.042L102.919 198.446C102.789 199.578 102.363 200.656 101.684 201.57C100.802 202.85 99.6766 203.941 98.3723 204.781C96.6509 205.828 94.6729 206.368 92.6634 206.341C90.1486 206.332 87.6437 206.033 85.1977 205.451L83.8652 197.046C86.3111 197.628 88.8152 197.928 91.3297 197.942C93.3401 197.967 95.3185 197.425 97.0399 196.376C98.3441 195.537 99.4699 194.445 100.352 193.165C101.03 192.251 101.457 191.174 101.587 190.042Z" fill="#CA820B"/>
<path d="M77.0895 209.095L75.7559 200.697C75.7452 200.752 75.8416 200.809 76.0123 200.873L77.3448 209.278C77.1741 209.213 77.0995 209.142 77.0895 209.095Z" fill="#CA820B"/>
<path d="M79.2601 201.85L80.5926 210.255C79.5435 209.963 78.394 209.57 77.3448 209.278L76.0123 200.873C77.0676 201.166 78.211 201.559 79.2601 201.85Z" fill="#CA820B"/>
<path d="M83.0242 197.246L84.3567 205.651C83.391 207.085 82.3882 208.613 81.4225 210.047C81.227 210.34 81.1668 210.455 80.834 210.347L80.5926 210.255L79.2601 201.851C79.3381 201.887 79.4188 201.918 79.5015 201.942C79.8343 202.051 79.8933 201.941 80.09 201.642C81.0557 200.209 82.0682 198.663 83.0242 197.246Z" fill="#CA820B"/>
<path d="M120.634 186.935C120.644 186.88 120.617 186.792 120.603 186.732L120.075 183.452C119.813 181.817 119.556 180.185 119.302 178.556L119.382 179.029L120.715 187.427C120.692 187.251 120.666 187.093 120.634 186.935Z" fill="#FFD000"/>
<path d="M119.386 179.004L120.72 187.403C121.017 189.299 121.032 191.229 120.763 193.131L119.431 184.726C119.698 182.826 119.683 180.898 119.386 179.004Z" fill="#FCDF8F"/>
<path d="M51.0651 198.913L49.7326 190.508C49.972 191.999 50.3837 193.456 50.9593 194.85C52.944 199.651 56.8218 203.743 62.1909 206.623C64.0129 207.603 65.9199 208.414 67.8884 209.046C72.1137 210.386 76.5226 211.053 80.9557 211.024C87.8556 211.015 94.6743 209.496 100.938 206.573C107.07 203.678 112.103 199.566 115.402 194.751C117.504 191.769 118.883 188.336 119.43 184.726L120.763 193.13C120.218 196.752 118.836 200.196 116.729 203.186C113.432 207.989 108.398 212.101 102.265 215.008C96.0009 217.932 89.1822 219.451 82.2823 219.46C77.8491 219.489 73.4402 218.821 69.215 217.481C67.2473 216.847 65.3405 216.036 63.5175 215.059C58.1728 212.183 54.2706 208.086 52.2859 203.286C51.7101 201.882 51.3003 200.414 51.0651 198.913Z" fill="#FCDF8F"/>
<path d="M125.365 172.711C128.591 180.471 127.418 189.193 122.09 196.952C118.116 202.743 112.049 207.69 104.648 211.173C97.0799 214.69 88.845 216.512 80.5143 216.513C75.1509 216.536 69.8184 215.72 64.7083 214.094C63.6918 213.764 62.6946 213.4 61.7227 213.002C60.3896 212.462 59.0865 211.849 57.8193 211.168C51.3593 207.689 46.6216 202.751 44.2154 196.96C43.0171 194.059 42.4051 190.947 42.4149 187.803C42.4247 184.66 43.0562 181.548 44.2727 178.649C46.7241 172.501 51.5096 166.861 58.0012 162.427C64.8495 157.859 72.6267 154.892 80.7595 153.746C88.7996 152.507 97.0104 153.111 104.777 155.514C114.76 158.778 122.136 164.938 125.365 172.711ZM100.936 206.585C107.067 203.69 112.101 199.579 115.4 194.763C117.501 191.782 118.881 188.348 119.428 184.738C119.91 181.33 119.468 177.857 118.149 174.685C116.74 171.368 114.548 168.447 111.764 166.175C108.644 163.622 105.068 161.693 101.226 160.491C94.7812 158.488 87.9647 157.988 81.2928 159.029C74.5559 159.974 68.1126 162.427 62.4383 166.208C57.0534 169.883 53.0902 174.57 51.0431 179.672C50.0331 182.072 49.5046 184.649 49.4881 187.254C49.4716 189.858 49.9675 192.439 50.9471 194.848C52.9319 199.648 56.8096 203.74 62.1787 206.621C64.0007 207.6 65.9077 208.411 67.8762 209.044C72.1015 210.383 76.5104 211.051 80.9435 211.022C87.8434 211.013 94.6621 209.494 100.926 206.571" fill="#FFD000"/>
<path d="M118.155 174.654C119.473 177.826 119.915 181.299 119.434 184.707C118.885 188.324 117.5 191.764 115.39 194.749C112.091 199.564 107.057 203.675 100.926 206.57C94.6621 209.494 87.8434 211.013 80.9435 211.022C76.5104 211.051 72.1015 210.383 67.8763 209.043C65.9077 208.411 64.0007 207.6 62.1787 206.621C56.8097 203.74 52.9319 199.648 50.9471 194.848C49.9675 192.439 49.4717 189.858 49.4881 187.253C49.5046 184.649 50.0331 182.072 51.0431 179.671C53.0902 174.57 57.0534 169.883 62.4383 166.208C68.1117 162.415 74.5573 159.951 81.2988 158.998C87.9707 157.957 94.7871 158.457 101.232 160.46C105.073 161.662 108.65 163.591 111.77 166.144C114.554 168.416 116.746 171.337 118.155 174.654Z" fill="#EBA500"/>
<path d="M81.2988 158.998C87.9707 157.957 94.7871 158.457 101.232 160.46C85.6632 158.537 65.8985 161.752 56.8248 176.447C47.7512 191.142 56.4696 202.608 56.4696 202.608C54.0064 200.348 52.1367 197.725 50.9471 194.848C49.9675 192.439 49.4717 189.858 49.4881 187.253C49.5046 184.649 50.0331 182.072 51.0431 179.671C53.0902 174.57 57.0534 169.883 62.4383 166.208C68.1117 162.415 74.5573 159.951 81.2988 158.998Z" fill="#DF7900"/>
<path d="M79.0366 167.763L79.1264 167.723C79.0755 167.758 79.0415 167.77 79.0366 167.763Z" fill="#CA820B"/>
<path d="M79.1447 167.727L79.5539 167.571C79.4947 167.648 79.4427 167.721 79.3884 167.806L79.1447 167.727Z" fill="#CA820B"/>
<path d="M126.871 177.997L128.203 186.402C129.198 192.695 127.567 199.307 123.425 205.345C119.451 211.135 113.384 216.083 105.983 219.566C98.4111 223.088 90.1709 224.914 81.8346 224.915C76.4712 224.939 71.1387 224.123 66.0286 222.497C65.012 222.167 64.0148 221.802 63.0429 221.405C61.7095 220.865 60.4065 220.253 59.1396 219.57C52.6796 216.091 47.9419 211.153 45.5357 205.363C44.8258 203.664 44.3211 201.885 44.0325 200.064L42.6941 191.69C42.9827 193.511 43.4874 195.29 44.1973 196.989C46.6034 202.779 51.3411 207.717 57.8012 211.196C59.0684 211.878 60.3714 212.49 61.7045 213.031C62.6764 213.428 63.6736 213.793 64.6901 214.122C69.8003 215.749 75.1328 216.565 80.4962 216.541C88.8324 216.54 97.0726 214.714 104.645 211.192C112.046 207.709 118.112 202.761 122.087 196.971C126.235 190.902 127.866 184.291 126.871 177.997Z" fill="#E48203"/>
<path d="M104.642 155.496C96.9134 153.124 88.7489 152.535 80.7547 153.772C72.6219 154.918 64.8447 157.885 57.9965 162.453C51.5048 166.887 46.7315 172.529 44.2679 178.675C43.0519 181.571 42.4198 184.68 42.4083 187.82C42.3968 190.961 43.0061 194.072 44.2008 196.971C46.607 202.762 51.3447 207.7 57.8047 211.179C59.072 211.861 60.375 212.473 61.7081 213.013C60.322 212.456 58.9684 211.821 57.6535 211.111C51.2227 207.645 46.5155 202.712 44.1264 196.931C42.9447 194.029 42.3465 190.919 42.3664 187.78C42.3862 184.642 43.0238 181.537 44.2422 178.645C46.6925 172.503 51.4791 166.856 57.9525 162.419C64.7812 157.86 72.5336 154.892 80.6426 153.731C88.676 152.481 96.8829 153.085 104.642 155.496Z" fill="#FFD000"/>
<path d="M43.9513 200.093L42.6212 191.676C42.9062 193.474 43.4021 195.232 44.0984 196.912C46.4875 202.693 51.1948 207.625 57.6255 211.092C58.9404 211.802 60.2941 212.437 61.6801 212.994L63.0126 221.399C61.6161 220.841 60.2522 220.204 58.9276 219.491C52.4968 216.024 47.7896 211.092 45.4005 205.311C44.7152 203.635 44.2287 201.884 43.9513 200.093Z" fill="#E48907"/>
<mask id="mask0_918_14293" style="mask-type:alpha" maskUnits="userSpaceOnUse" x="42" y="153" width="86" height="64">
<path d="M125.365 172.711C128.591 180.471 127.418 189.192 122.09 196.952C118.116 202.742 112.049 207.69 104.648 211.173C97.0799 214.69 88.845 216.512 80.5143 216.512C75.1509 216.536 69.8184 215.72 64.7083 214.094C63.6918 213.764 62.6946 213.399 61.7227 213.002C60.3896 212.461 59.0865 211.849 57.8193 211.167C51.3593 207.688 46.6216 202.75 44.2154 196.96C43.0171 194.059 42.4051 190.946 42.4149 187.803C42.4247 184.659 43.0562 181.548 44.2727 178.649C46.7241 172.501 51.5096 166.861 58.0012 162.427C64.8495 157.859 72.6267 154.892 80.7595 153.746C88.7996 152.506 97.0104 153.111 104.777 155.514C114.76 158.778 122.136 164.937 125.365 172.711ZM100.936 206.585C107.067 203.69 112.101 199.578 115.4 194.763C117.501 191.781 118.881 188.348 119.428 184.738C119.91 181.33 119.468 177.857 118.149 174.685C116.74 171.368 114.548 168.447 111.764 166.174C108.644 163.622 105.068 161.693 101.226 160.49C94.7812 158.488 87.9647 157.988 81.2928 159.028C74.5559 159.973 68.1126 162.427 62.4383 166.208C57.0534 169.883 53.0902 174.57 51.0431 179.671C50.0331 182.072 49.5046 184.649 49.4881 187.253C49.4716 189.858 49.9675 192.439 50.9471 194.848C52.9319 199.648 56.8096 203.74 62.1787 206.621C64.0007 207.6 65.9077 208.411 67.8763 209.043C72.1015 210.383 76.5104 211.051 80.9435 211.022C87.8434 211.013 94.6621 209.494 100.926 206.57" fill="#FADD23"/>
</mask>
<g mask="url(#mask0_918_14293)">
<rect x="21.2758" y="185.075" width="129.834" height="5.53709" transform="rotate(-19.0638 21.2758 185.075)" fill="#FFF3A5"/>
<rect x="40.2118" y="206.847" width="99.6677" height="2.76855" transform="rotate(-19.0638 40.2118 206.847)" fill="#FFF3A5"/>
<rect x="33.0096" y="188.831" width="99.6677" height="2.76855" transform="rotate(-19.0638 33.0096 188.831)" fill="#FFF3A5"/>
</g>
</g>
<path d="M101.371 191.71C101.24 192.842 100.814 193.92 100.135 194.834C99.2533 196.115 98.1273 197.206 96.8227 198.046C95.1009 199.095 93.1221 199.638 91.1112 199.612C88.5961 199.598 86.0913 199.298 83.6448 198.716C83.5053 198.651 83.3478 198.636 83.1982 198.673C83.0485 198.71 82.9158 198.797 82.822 198.92C81.8549 200.36 80.853 201.883 79.8871 203.317C79.6903 203.616 79.6313 203.725 79.2984 203.617C79.2157 203.592 79.135 203.562 79.057 203.525C78.0075 203.234 76.8639 202.841 75.8083 202.548C75.473 202.42 75.5017 202.336 75.6882 202.156C76.6779 200.631 77.6799 199.108 78.7735 197.667C78.809 197.483 78.9826 197.402 78.7642 197.29C77.839 197.01 76.9065 196.734 75.857 196.442C75.3466 197.253 74.7059 198.051 74.1966 198.855C73.6874 199.659 73.0443 200.469 72.5277 201.278C72.3631 201.444 72.3271 201.532 72.0418 201.439L71.5614 201.276C70.5507 200.947 69.5149 200.684 68.4851 200.421C68.1497 200.293 68.1735 200.202 68.3588 200.028C69.3546 198.504 70.3517 196.974 71.4441 195.539C71.4631 195.441 71.6233 195.364 71.6844 195.178C69.0244 194.359 66.3692 193.516 63.5827 192.698C63.946 192.355 64.1624 192.085 64.5257 191.742C65.3089 190.959 66.0433 190.166 66.6529 189.464C66.862 189.199 66.9862 189.211 67.3588 189.245L67.5538 189.282C68.3415 189.545 69.1425 189.766 69.9536 189.943C70.3276 190.094 70.7423 190.111 71.128 189.992C71.5136 189.872 71.8468 189.622 72.0713 189.284C75.1782 184.717 78.2618 180.138 81.3121 175.471C81.7975 174.757 81.4458 173.863 80.4325 173.483C80.1142 173.364 79.7886 173.25 79.4729 173.151C78.7657 172.919 78.0698 172.727 77.431 172.534C77.3854 172.532 77.3403 172.523 77.297 172.508C77.1508 172.48 77.1271 172.374 77.2737 172.237C77.9174 171.325 78.5803 170.347 79.2241 169.435C80.4175 169.799 81.6239 170.096 82.8138 170.478C84.0037 170.861 85.3795 171.197 86.6474 171.6C86.7675 171.654 86.9033 171.661 87.0283 171.619C87.1533 171.578 87.2583 171.49 87.3228 171.375C88.3259 169.846 89.2918 168.412 90.2924 166.863C90.4931 166.61 90.6423 166.524 90.9691 166.632L91.5628 166.829C92.5028 167.132 93.3962 167.381 94.3723 167.626C94.7138 167.756 94.6827 167.852 94.4986 168.019C93.5327 169.454 92.5417 170.985 91.5758 172.419C91.5264 172.557 91.4418 172.678 91.3307 172.772C92.262 173.054 93.3114 173.346 94.2367 173.626C94.3585 173.65 94.54 173.462 94.6953 173.378C95.4509 172.215 96.1801 171.122 97.0515 169.981L97.7783 168.901C97.7854 168.864 97.8007 168.829 97.823 168.799C97.8454 168.769 97.8742 168.744 97.9073 168.727C97.9405 168.709 97.977 168.7 98.0144 168.699C98.0517 168.697 98.0888 168.705 98.123 168.72C98.323 168.797 98.4485 168.834 98.5668 168.875C99.6018 169.209 100.66 169.49 101.796 169.855C101.248 171.062 100.582 172.211 99.8063 173.285C99.526 173.788 99.1914 174.258 98.8086 174.688C98.5995 174.952 98.6926 175.059 99.034 175.189L102.667 176.959C103.688 177.585 104.544 178.45 105.162 179.481C105.827 180.977 105.476 182.466 104.504 183.899C103.825 184.949 102.896 185.812 101.801 186.409C100.824 186.884 99.7792 187.203 98.7052 187.356C98.5309 187.384 98.3548 187.399 98.1784 187.4C98.583 187.726 99.0187 187.957 99.4245 188.276C99.9792 188.67 100.441 189.182 100.777 189.775C101.113 190.368 101.316 191.029 101.371 191.71ZM88.2545 194.579C90.778 194.24 92.5016 192.024 91.6191 190.411C91.1087 189.606 90.4001 188.948 89.5618 188.5C88.5658 187.941 87.5133 187.491 86.4219 187.156C85.2332 186.768 84.028 186.465 82.8239 186.156L82.7508 186.142C82.4716 186.05 82.4332 186.15 82.2398 186.399C81.6994 187.299 81.0623 188.078 80.5183 188.997C79.6074 190.245 78.8268 191.505 77.8786 192.847L77.9335 192.858C77.9944 192.878 78.0485 192.915 78.0898 192.964C80.0077 193.615 81.9722 194.118 83.9664 194.469C85.3762 194.745 86.822 194.786 88.2461 194.59L88.2545 194.579ZM84.5768 182.611C84.3976 182.786 84.5223 182.892 84.7092 183.005L85.0603 183.117L85.387 183.225L85.9819 183.416C87.7208 183.825 89.4808 184.138 91.2542 184.352C91.7262 184.362 92.1984 184.343 92.6681 184.295C95.1378 184.136 97.0164 182.23 96.2868 180.544C95.7987 179.611 94.9869 178.891 94.005 178.521C93.1958 178.152 92.3645 177.834 91.5159 177.569C90.7308 177.316 89.9178 177.076 89.09 176.815L89.0291 176.803C88.7316 176.707 88.5824 176.793 88.3829 177.04C87.1468 178.924 85.9346 180.718 84.5743 182.591" fill="#DF7900"/>
<path d="M101.617 190.079C101.487 191.212 101.061 192.289 100.382 193.203C99.4999 194.484 98.3739 195.576 97.0693 196.415C95.3475 197.464 93.3687 198.007 91.3578 197.982C88.8427 197.968 86.3379 197.667 83.8914 197.086C83.7519 197.02 83.5944 197.005 83.4447 197.042C83.2951 197.079 83.1624 197.166 83.0686 197.289C82.1015 198.729 81.0996 200.252 80.1337 201.686C79.9369 201.985 79.8778 202.095 79.545 201.986C79.4623 201.962 79.3816 201.931 79.3035 201.895C78.2541 201.603 77.1104 201.21 76.0549 200.917C75.7196 200.789 75.7483 200.706 75.9348 200.525C76.9245 199 77.9265 197.478 79.0201 196.036C79.0556 195.852 79.2292 195.772 79.0108 195.659C78.0856 195.379 77.1531 195.103 76.1036 194.812C75.5932 195.622 74.9525 196.42 74.4432 197.224C73.934 198.028 73.2909 198.839 72.7743 199.648C72.6097 199.813 72.5737 199.901 72.2884 199.808L71.808 199.645C70.7973 199.317 69.7614 199.053 68.7316 198.79C68.3963 198.662 68.4201 198.571 68.6054 198.397C69.6012 196.873 70.5983 195.343 71.6907 193.908C71.7097 193.81 71.8699 193.733 71.931 193.548C69.271 192.729 66.6158 191.885 63.8293 191.067C64.1926 190.724 64.409 190.454 64.7722 190.111C65.5554 189.328 66.2899 188.536 66.8995 187.833C67.1086 187.569 67.2328 187.58 67.6054 187.614L67.8003 187.651C68.588 187.914 69.3891 188.135 70.2002 188.312C70.5742 188.464 70.9889 188.481 71.3746 188.361C71.7602 188.241 72.0934 187.991 72.3179 187.654C75.4247 183.086 78.5084 178.507 81.5587 173.84C82.0441 173.126 81.6924 172.232 80.679 171.852C80.3608 171.733 80.0352 171.619 79.7195 171.52C79.0123 171.288 78.3164 171.097 77.6776 170.903C77.632 170.901 77.5869 170.892 77.5436 170.877C77.3974 170.849 77.3737 170.743 77.5203 170.606C78.164 169.694 78.8269 168.716 79.4707 167.804C80.6641 168.168 81.8705 168.465 83.0604 168.848C84.2503 169.23 85.6261 169.566 86.894 169.97C87.014 170.024 87.1499 170.03 87.2749 169.989C87.3998 169.947 87.5049 169.86 87.5694 169.744C88.5725 168.215 89.5384 166.781 90.539 165.233C90.7397 164.979 90.8889 164.894 91.2157 165.001L91.8094 165.199C92.7494 165.501 93.6428 165.75 94.6189 165.996C94.9604 166.125 94.9293 166.221 94.7452 166.389C93.7793 167.823 92.7883 169.354 91.8224 170.789C91.773 170.926 91.6884 171.048 91.5773 171.142C92.5086 171.423 93.558 171.715 94.4832 171.996C94.6051 172.019 94.7866 171.832 94.9419 171.747C95.6975 170.584 96.4267 169.492 97.2981 168.35L98.0249 167.27C98.032 167.233 98.0473 167.199 98.0696 167.168C98.092 167.138 98.1208 167.114 98.1539 167.096C98.1871 167.079 98.2236 167.069 98.261 167.068C98.2983 167.067 98.3354 167.074 98.3696 167.089C98.5696 167.166 98.6951 167.203 98.8134 167.245C99.8484 167.578 100.906 167.859 102.043 168.225C101.495 169.432 100.828 170.58 100.053 171.654C99.7726 172.157 99.438 172.628 99.0552 173.057C98.8461 173.322 98.9392 173.429 99.2806 173.558L102.913 175.328C103.935 175.954 104.791 176.82 105.408 177.851C106.074 179.346 105.723 180.835 104.751 182.269C104.072 183.319 103.142 184.182 102.048 184.778C101.07 185.253 100.026 185.572 98.9518 185.725C98.7775 185.753 98.6014 185.768 98.425 185.769C98.8296 186.095 99.2653 186.326 99.6711 186.646C100.226 187.04 100.688 187.551 101.024 188.144C101.36 188.738 101.563 189.398 101.617 190.079ZM88.5011 192.948C91.0246 192.609 92.7482 190.393 91.8657 188.78C91.3553 187.975 90.6467 187.317 89.8084 186.869C88.8124 186.311 87.7599 185.86 86.6685 185.525C85.4798 185.137 84.2746 184.834 83.0705 184.525L82.9974 184.511C82.7182 184.419 82.6798 184.52 82.4864 184.768C81.946 185.668 81.3089 186.448 80.7649 187.366C79.854 188.614 79.0734 189.874 78.1252 191.217L78.1801 191.227C78.241 191.247 78.2951 191.284 78.3364 191.334C80.2543 191.984 82.2188 192.487 84.213 192.838C85.6228 193.114 87.0686 193.155 88.4927 192.959L88.5011 192.948ZM84.8234 180.98C84.6442 181.155 84.7689 181.262 84.9558 181.374L85.3069 181.486L85.6336 181.594L86.2285 181.785C87.9673 182.194 89.7274 182.507 91.5008 182.721C91.9728 182.731 92.445 182.712 92.9147 182.664C95.3844 182.506 97.263 180.599 96.5334 178.914C96.0453 177.98 95.2335 177.26 94.2516 176.89C93.4424 176.521 92.6111 176.204 91.7625 175.939C90.9774 175.685 90.1643 175.445 89.3366 175.184L89.2757 175.172C88.9782 175.076 88.829 175.162 88.6295 175.409C87.3934 177.294 86.1812 179.087 84.8209 180.96" fill="#FFE12A"/>
<path d="M101.617 190.079C101.487 191.212 101.061 192.289 100.382 193.203C99.4999 194.484 98.3739 195.576 97.0693 196.415C95.3475 197.464 93.3687 198.007 91.3578 197.982C88.8427 197.968 86.3379 197.667 83.8914 197.086C83.7519 197.02 83.5944 197.005 83.4447 197.042C83.2951 197.079 83.1624 197.166 83.0686 197.289C82.1015 198.729 81.0996 200.252 80.1337 201.686C79.9369 201.985 79.8778 202.095 79.545 201.986C79.4623 201.962 79.3816 201.931 79.3035 201.895C78.2541 201.603 77.1104 201.21 76.0549 200.917C75.7196 200.789 75.7483 200.706 75.9348 200.525C76.9245 199 77.9265 197.478 79.0201 196.036C79.0556 195.852 79.2292 195.772 79.0108 195.659C78.0856 195.379 77.1531 195.103 76.1036 194.812C75.5932 195.622 74.9525 196.42 74.4432 197.224C73.934 198.028 73.2909 198.839 72.7743 199.648C72.6097 199.813 72.5737 199.901 72.2884 199.808L71.808 199.645C70.7973 199.317 69.7614 199.053 68.7316 198.79C68.3963 198.662 68.4201 198.571 68.6054 198.397C69.6012 196.873 70.5983 195.343 71.6907 193.908C71.7097 193.81 71.8699 193.733 71.931 193.548C69.271 192.729 66.6158 191.885 63.8293 191.067C64.1926 190.724 64.409 190.454 64.7722 190.111C65.5554 189.328 66.2899 188.536 66.8995 187.833C67.1086 187.569 67.2328 187.58 67.6054 187.614L67.8003 187.651C68.588 187.914 69.3891 188.135 70.2002 188.312C70.5742 188.464 70.9889 188.481 71.3746 188.361C71.7602 188.241 72.0934 187.991 72.3179 187.654C75.4247 183.086 78.5084 178.507 81.5587 173.84C82.0441 173.126 81.6924 172.232 80.679 171.852C80.3608 171.733 80.0352 171.619 79.7195 171.52C79.0123 171.288 78.3164 171.097 77.6776 170.903C77.632 170.901 77.5869 170.892 77.5436 170.877C77.3974 170.849 77.3737 170.743 77.5203 170.606C78.164 169.694 78.8269 168.716 79.4707 167.804C80.6641 168.168 81.8705 168.465 83.0604 168.848C84.2503 169.23 85.6261 169.566 86.894 169.97C87.014 170.024 87.1499 170.03 87.2749 169.989C87.3998 169.947 87.5049 169.86 87.5694 169.744C88.5725 168.215 89.5384 166.781 90.539 165.233C90.7397 164.979 90.8889 164.894 91.2157 165.001L91.8094 165.199C92.7494 165.501 93.6428 165.75 94.6189 165.996C94.9604 166.125 94.9293 166.221 94.7452 166.389C93.7793 167.823 92.7883 169.354 91.8224 170.789C91.773 170.926 91.6884 171.048 91.5773 171.142C92.5086 171.423 93.558 171.715 94.4832 171.996C94.6051 172.019 94.7866 171.832 94.9419 171.747C95.6975 170.584 96.4267 169.492 97.2981 168.35L98.0249 167.27C98.032 167.233 98.0473 167.199 98.0696 167.168C98.092 167.138 98.1208 167.114 98.1539 167.096C98.1871 167.079 98.2236 167.069 98.261 167.068C98.2983 167.067 98.3354 167.074 98.3696 167.089C98.5696 167.166 98.6951 167.203 98.8134 167.245C99.8484 167.578 100.906 167.859 102.043 168.225C101.495 169.432 100.828 170.58 100.053 171.654C99.7726 172.157 99.438 172.628 99.0552 173.057C98.8461 173.322 98.9392 173.429 99.2806 173.558L102.913 175.328C103.935 175.954 104.791 176.82 105.408 177.851C106.074 179.346 105.723 180.835 104.751 182.269C104.072 183.319 103.142 184.182 102.048 184.778C101.07 185.253 100.026 185.572 98.9518 185.725C98.7775 185.753 98.6014 185.768 98.425 185.769C98.8296 186.095 99.2653 186.326 99.6711 186.646C100.226 187.04 100.688 187.551 101.024 188.144C101.36 188.738 101.563 189.398 101.617 190.079ZM88.5011 192.948C91.0246 192.609 92.7482 190.393 91.8657 188.78C91.3553 187.975 90.6467 187.317 89.8084 186.869C88.8124 186.311 87.7599 185.86 86.6685 185.525C85.4798 185.137 84.2746 184.834 83.0705 184.525L82.9974 184.511C82.7182 184.419 82.6798 184.52 82.4864 184.768C81.946 185.668 81.3089 186.448 80.7649 187.366C79.854 188.614 79.0734 189.874 78.1252 191.217L78.1801 191.227C78.241 191.247 78.2951 191.284 78.3364 191.334C80.2543 191.984 82.2188 192.487 84.213 192.838C85.6228 193.114 87.0686 193.155 88.4927 192.959L88.5011 192.948ZM84.8234 180.98C84.6442 181.155 84.7689 181.262 84.9558 181.374L85.3069 181.486L85.6336 181.594L86.2285 181.785C87.9673 182.194 89.7274 182.507 91.5008 182.721C91.9728 182.731 92.445 182.712 92.9147 182.664C95.3844 182.506 97.263 180.599 96.5334 178.914C96.0453 177.98 95.2335 177.26 94.2516 176.89C93.4424 176.521 92.6111 176.204 91.7625 175.939C90.9774 175.685 90.1643 175.445 89.3366 175.184L89.2757 175.172C88.9782 175.076 88.829 175.162 88.6295 175.409C87.3934 177.294 86.1812 179.087 84.8209 180.96" fill="#FFE12A"/>
<mask id="mask1_918_14293" style="mask-type:alpha" maskUnits="userSpaceOnUse" x="63" y="164" width="43" height="39">
<path d="M101.617 190.08C101.487 191.212 101.061 192.29 100.382 193.204C99.4999 194.484 98.3739 195.576 97.0693 196.416C95.3475 197.465 93.3687 198.007 91.3578 197.982C88.8427 197.968 86.3379 197.668 83.8914 197.086C83.7519 197.021 83.5944 197.005 83.4447 197.042C83.2951 197.079 83.1624 197.166 83.0686 197.289C82.1015 198.73 81.0996 200.253 80.1337 201.687C79.9369 201.986 79.8778 202.095 79.545 201.986C79.4623 201.962 79.3816 201.932 79.3035 201.895C78.2541 201.603 77.1104 201.211 76.0549 200.918C75.7196 200.789 75.7483 200.706 75.9348 200.526C76.9245 199.001 77.9265 197.478 79.0201 196.037C79.0556 195.853 79.2292 195.772 79.0108 195.66C78.0856 195.379 77.1531 195.104 76.1036 194.812C75.5932 195.622 74.9525 196.42 74.4432 197.225C73.934 198.029 73.2909 198.839 72.7743 199.648C72.6097 199.814 72.5737 199.902 72.2884 199.809L71.808 199.646C70.7973 199.317 69.7614 199.053 68.7316 198.791C68.3963 198.662 68.4201 198.572 68.6054 198.398C69.6012 196.874 70.5983 195.344 71.6907 193.909C71.7097 193.811 71.8699 193.733 71.931 193.548C69.271 192.729 66.6158 191.885 63.8293 191.067C64.1926 190.724 64.409 190.455 64.7722 190.112C65.5554 189.329 66.2899 188.536 66.8995 187.834C67.1086 187.569 67.2328 187.58 67.6054 187.614L67.8003 187.652C68.588 187.915 69.3891 188.135 70.2002 188.313C70.5742 188.464 70.9889 188.481 71.3746 188.361C71.7602 188.241 72.0934 187.992 72.3179 187.654C75.4247 183.086 78.5084 178.508 81.5587 173.84C82.0441 173.127 81.6924 172.232 80.679 171.852C80.3608 171.734 80.0352 171.62 79.7195 171.521C79.0123 171.289 78.3164 171.097 77.6776 170.904C77.632 170.901 77.5869 170.893 77.5436 170.878C77.3974 170.85 77.3737 170.743 77.5203 170.606C78.164 169.695 78.8269 168.717 79.4707 167.805C80.6641 168.169 81.8705 168.466 83.0604 168.848C84.2503 169.231 85.6261 169.566 86.894 169.97C87.014 170.024 87.1499 170.031 87.2749 169.989C87.3998 169.947 87.5049 169.86 87.5694 169.745C88.5725 168.216 89.5384 166.782 90.539 165.233C90.7397 164.98 90.8889 164.894 91.2157 165.002L91.8094 165.199C92.7494 165.501 93.6428 165.75 94.6189 165.996C94.9604 166.126 94.9293 166.221 94.7452 166.389C93.7793 167.824 92.7883 169.355 91.8224 170.789C91.773 170.926 91.6884 171.048 91.5773 171.142C92.5086 171.424 93.558 171.716 94.4832 171.996C94.6051 172.02 94.7866 171.832 94.9419 171.748C95.6975 170.584 96.4267 169.492 97.2981 168.351L98.0249 167.271C98.032 167.234 98.0473 167.199 98.0696 167.169C98.092 167.139 98.1208 167.114 98.1539 167.097C98.1871 167.079 98.2236 167.07 98.261 167.068C98.2983 167.067 98.3354 167.074 98.3696 167.09C98.5696 167.166 98.6951 167.203 98.8134 167.245C99.8484 167.579 100.906 167.859 102.043 168.225C101.495 169.432 100.828 170.581 100.053 171.655C99.7726 172.158 99.438 172.628 99.0552 173.057C98.8461 173.322 98.9392 173.429 99.2806 173.559L102.913 175.329C103.935 175.955 104.791 176.82 105.408 177.851C106.074 179.346 105.723 180.836 104.751 182.269C104.072 183.319 103.142 184.182 102.048 184.779C101.07 185.253 100.026 185.573 98.9518 185.725C98.7775 185.753 98.6014 185.768 98.425 185.77C98.8296 186.096 99.2653 186.326 99.6711 186.646C100.226 187.04 100.688 187.552 101.024 188.145C101.36 188.738 101.563 189.399 101.617 190.08ZM88.5011 192.949C91.0246 192.61 92.7482 190.394 91.8657 188.78C91.3553 187.976 90.6467 187.318 89.8084 186.87C88.8124 186.311 87.7599 185.86 86.6685 185.526C85.4798 185.137 84.2746 184.835 83.0705 184.526L82.9974 184.511C82.7182 184.419 82.6798 184.52 82.4864 184.769C81.946 185.669 81.3089 186.448 80.7649 187.366C79.854 188.614 79.0734 189.875 78.1252 191.217L78.1801 191.228C78.241 191.248 78.2951 191.285 78.3364 191.334C80.2543 191.984 82.2188 192.487 84.213 192.838C85.6228 193.114 87.0686 193.155 88.4927 192.96L88.5011 192.949ZM84.8234 180.98C84.6442 181.156 84.7689 181.262 84.9558 181.375L85.3069 181.487L85.6336 181.595L86.2285 181.786C87.9673 182.195 89.7274 182.507 91.5008 182.722C91.9728 182.732 92.445 182.713 92.9147 182.665C95.3844 182.506 97.263 180.6 96.5334 178.914C96.0453 177.981 95.2335 177.261 94.2516 176.89C93.4424 176.522 92.6111 176.204 91.7625 175.939C90.9774 175.686 90.1643 175.446 89.3366 175.184L89.2757 175.173C88.9782 175.077 88.829 175.162 88.6295 175.41C87.3934 177.294 86.1812 179.088 84.8209 180.961" fill="#FFE12A"/>
</mask>
<g mask="url(#mask1_918_14293)">
<rect x="21.2867" y="185.111" width="129.866" height="5.53846" transform="rotate(-19.0638 21.2867 185.111)" fill="#FFF3A5"/>
<rect x="40.2272" y="206.889" width="99.6923" height="2.76923" transform="rotate(-19.0638 40.2272 206.889)" fill="#FFF3A5"/>
<rect x="33.0234" y="188.869" width="99.6923" height="2.76923" transform="rotate(-19.0638 33.0234 188.869)" fill="#FFF3A5"/>
</g>
<path d="M118.711 134.386L115.797 147.217C114.802 151.598 116.826 156.108 120.759 158.277L132.282 164.63L119.451 161.716C115.07 160.721 110.56 162.745 108.391 166.679L102.038 178.201L104.952 165.37C105.947 160.99 103.923 156.479 99.9895 154.311L88.4672 147.957L101.298 150.871C105.679 151.866 110.189 149.842 112.358 145.909L118.711 134.386Z" fill="white"/>
<ellipse opacity="0.2" cx="110.374" cy="156.293" rx="11.3183" ry="11.3183" transform="rotate(20.8332 110.374 156.293)" fill="white"/>
<defs>
<filter id="filter0_i_918_14293" x="79.6864" y="19.882" width="225.157" height="211.245" filterUnits="userSpaceOnUse" color-interpolation-filters="sRGB">
<feFlood flood-opacity="0" result="BackgroundImageFix"/>
<feBlend mode="normal" in="SourceGraphic" in2="BackgroundImageFix" result="shape"/>
<feColorMatrix in="SourceAlpha" type="matrix" values="0 0 0 0 0 0 0 0 0 0 0 0 0 0 0 0 0 0 127 0" result="hardAlpha"/>
<feOffset/>
<feGaussianBlur stdDeviation="3.01422"/>
<feComposite in2="hardAlpha" operator="arithmetic" k2="-1" k3="1"/>
<feColorMatrix type="matrix" values="0 0 0 0 0 0 0 0 0 0 0 0 0 0 0 0 0 0 0.25 0"/>
<feBlend mode="normal" in2="shape" result="effect1_innerShadow_918_14293"/>
</filter>
<filter id="filter1_di_918_14293" x="98.0024" y="165.229" width="20.116" height="21.9366" filterUnits="userSpaceOnUse" color-interpolation-filters="sRGB">
<feFlood flood-opacity="0" result="BackgroundImageFix"/>
<feColorMatrix in="SourceAlpha" type="matrix" values="0 0 0 0 0 0 0 0 0 0 0 0 0 0 0 0 0 0 127 0" result="hardAlpha"/>
<feOffset dy="3.2211"/>
<feGaussianBlur stdDeviation="0.70024"/>
<feColorMatrix type="matrix" values="0 0 0 0 0 0 0 0 0 0 0 0 0 0 0 0 0 0 0.25 0"/>
<feBlend mode="normal" in2="BackgroundImageFix" result="effect1_dropShadow_918_14293"/>
<feBlend mode="normal" in="SourceGraphic" in2="effect1_dropShadow_918_14293" result="shape"/>
<feColorMatrix in="SourceAlpha" type="matrix" values="0 0 0 0 0 0 0 0 0 0 0 0 0 0 0 0 0 0 127 0" result="hardAlpha"/>
<feOffset dy="-2.913"/>
<feComposite in2="hardAlpha" operator="arithmetic" k2="-1" k3="1"/>
<feColorMatrix type="matrix" values="0 0 0 0 0 0 0 0 0 0.0766668 0 0 0 0 0.766667 0 0 0 0.38 0"/>
<feBlend mode="normal" in2="shape" result="effect2_innerShadow_918_14293"/>
</filter>
<filter id="filter2_di_918_14293" x="140.073" y="173.358" width="20.116" height="21.9366" filterUnits="userSpaceOnUse" color-interpolation-filters="sRGB">
<feFlood flood-opacity="0" result="BackgroundImageFix"/>
<feColorMatrix in="SourceAlpha" type="matrix" values="0 0 0 0 0 0 0 0 0 0 0 0 0 0 0 0 0 0 127 0" result="hardAlpha"/>
<feOffset dy="3.2211"/>
<feGaussianBlur stdDeviation="0.70024"/>
<feColorMatrix type="matrix" values="0 0 0 0 0 0 0 0 0 0 0 0 0 0 0 0 0 0 0.25 0"/>
<feBlend mode="normal" in2="BackgroundImageFix" result="effect1_dropShadow_918_14293"/>
<feBlend mode="normal" in="SourceGraphic" in2="effect1_dropShadow_918_14293" result="shape"/>
<feColorMatrix in="SourceAlpha" type="matrix" values="0 0 0 0 0 0 0 0 0 0 0 0 0 0 0 0 0 0 127 0" result="hardAlpha"/>
<feOffset dy="-2.913"/>
<feComposite in2="hardAlpha" operator="arithmetic" k2="-1" k3="1"/>
<feColorMatrix type="matrix" values="0 0 0 0 0 0 0 0 0 0.0766668 0 0 0 0 0.766667 0 0 0 0.38 0"/>
<feBlend mode="normal" in2="shape" result="effect2_innerShadow_918_14293"/>
</filter>
<filter id="filter3_di_918_14293" x="180.444" y="181.159" width="20.116" height="21.9366" filterUnits="userSpaceOnUse" color-interpolation-filters="sRGB">
<feFlood flood-opacity="0" result="BackgroundImageFix"/>
<feColorMatrix in="SourceAlpha" type="matrix" values="0 0 0 0 0 0 0 0 0 0 0 0 0 0 0 0 0 0 127 0" result="hardAlpha"/>
<feOffset dy="3.2211"/>
<feGaussianBlur stdDeviation="0.70024"/>
<feColorMatrix type="matrix" values="0 0 0 0 0 0 0 0 0 0 0 0 0 0 0 0 0 0 0.25 0"/>
<feBlend mode="normal" in2="BackgroundImageFix" result="effect1_dropShadow_918_14293"/>
<feBlend mode="normal" in="SourceGraphic" in2="effect1_dropShadow_918_14293" result="shape"/>
<feColorMatrix in="SourceAlpha" type="matrix" values="0 0 0 0 0 0 0 0 0 0 0 0 0 0 0 0 0 0 127 0" result="hardAlpha"/>
<feOffset dy="-2.913"/>
<feComposite in2="hardAlpha" operator="arithmetic" k2="-1" k3="1"/>
<feColorMatrix type="matrix" values="0 0 0 0 0 0 0 0 0 0.0766668 0 0 0 0 0.766667 0 0 0 0.38 0"/>
<feBlend mode="normal" in2="shape" result="effect2_innerShadow_918_14293"/>
</filter>
<filter id="filter4_di_918_14293" x="266.285" y="197.745" width="20.116" height="21.9366" filterUnits="userSpaceOnUse" color-interpolation-filters="sRGB">
<feFlood flood-opacity="0" result="BackgroundImageFix"/>
<feColorMatrix in="SourceAlpha" type="matrix" values="0 0 0 0 0 0 0 0 0 0 0 0 0 0 0 0 0 0 127 0" result="hardAlpha"/>
<feOffset dy="3.2211"/>
<feGaussianBlur stdDeviation="0.70024"/>
<feColorMatrix type="matrix" values="0 0 0 0 0 0 0 0 0 0 0 0 0 0 0 0 0 0 0.25 0"/>
<feBlend mode="normal" in2="BackgroundImageFix" result="effect1_dropShadow_918_14293"/>
<feBlend mode="normal" in="SourceGraphic" in2="effect1_dropShadow_918_14293" result="shape"/>
<feColorMatrix in="SourceAlpha" type="matrix" values="0 0 0 0 0 0 0 0 0 0 0 0 0 0 0 0 0 0 127 0" result="hardAlpha"/>
<feOffset dy="-2.913"/>
<feComposite in2="hardAlpha" operator="arithmetic" k2="-1" k3="1"/>
<feColorMatrix type="matrix" values="0 0 0 0 0 0 0 0 0 0.0766668 0 0 0 0 0.766667 0 0 0 0.38 0"/>
<feBlend mode="normal" in2="shape" result="effect2_innerShadow_918_14293"/>
</filter>
<filter id="filter5_di_918_14293" x="224.215" y="189.616" width="20.116" height="21.9366" filterUnits="userSpaceOnUse" color-interpolation-filters="sRGB">
<feFlood flood-opacity="0" result="BackgroundImageFix"/>
<feColorMatrix in="SourceAlpha" type="matrix" values="0 0 0 0 0 0 0 0 0 0 0 0 0 0 0 0 0 0 127 0" result="hardAlpha"/>
<feOffset dy="3.2211"/>
<feGaussianBlur stdDeviation="0.70024"/>
<feColorMatrix type="matrix" values="0 0 0 0 0 0 0 0 0 0 0 0 0 0 0 0 0 0 0.25 0"/>
<feBlend mode="normal" in2="BackgroundImageFix" result="effect1_dropShadow_918_14293"/>
<feBlend mode="normal" in="SourceGraphic" in2="effect1_dropShadow_918_14293" result="shape"/>
<feColorMatrix in="SourceAlpha" type="matrix" values="0 0 0 0 0 0 0 0 0 0 0 0 0 0 0 0 0 0 127 0" result="hardAlpha"/>
<feOffset dy="-2.913"/>
<feComposite in2="hardAlpha" operator="arithmetic" k2="-1" k3="1"/>
<feColorMatrix type="matrix" values="0 0 0 0 0 0 0 0 0 0.0766668 0 0 0 0 0.766667 0 0 0 0.38 0"/>
<feBlend mode="normal" in2="shape" result="effect2_innerShadow_918_14293"/>
</filter>
<filter id="filter6_di_918_14293" x="126.746" y="131.38" width="20.1131" height="21.9337" filterUnits="userSpaceOnUse" color-interpolation-filters="sRGB">
<feFlood flood-opacity="0" result="BackgroundImageFix"/>
<feColorMatrix in="SourceAlpha" type="matrix" values="0 0 0 0 0 0 0 0 0 0 0 0 0 0 0 0 0 0 127 0" result="hardAlpha"/>
<feOffset dy="3.2211"/>
<feGaussianBlur stdDeviation="0.70024"/>
<feColorMatrix type="matrix" values="0 0 0 0 0 0 0 0 0 0 0 0 0 0 0 0 0 0 0.25 0"/>
<feBlend mode="normal" in2="BackgroundImageFix" result="effect1_dropShadow_918_14293"/>
<feBlend mode="normal" in="SourceGraphic" in2="effect1_dropShadow_918_14293" result="shape"/>
<feColorMatrix in="SourceAlpha" type="matrix" values="0 0 0 0 0 0 0 0 0 0 0 0 0 0 0 0 0 0 127 0" result="hardAlpha"/>
<feOffset dy="-2.913"/>
<feComposite in2="hardAlpha" operator="arithmetic" k2="-1" k3="1"/>
<feColorMatrix type="matrix" values="0 0 0 0 0 0 0 0 0 0.0766668 0 0 0 0 0.766667 0 0 0 0.38 0"/>
<feBlend mode="normal" in2="shape" result="effect2_innerShadow_918_14293"/>
</filter>
<filter id="filter7_di_918_14293" x="154.493" y="100.71" width="20.1131" height="21.9337" filterUnits="userSpaceOnUse" color-interpolation-filters="sRGB">
<feFlood flood-opacity="0" result="BackgroundImageFix"/>
<feColorMatrix in="SourceAlpha" type="matrix" values="0 0 0 0 0 0 0 0 0 0 0 0 0 0 0 0 0 0 127 0" result="hardAlpha"/>
<feOffset dy="3.2211"/>
<feGaussianBlur stdDeviation="0.70024"/>
<feColorMatrix type="matrix" values="0 0 0 0 0 0 0 0 0 0 0 0 0 0 0 0 0 0 0.25 0"/>
<feBlend mode="normal" in2="BackgroundImageFix" result="effect1_dropShadow_918_14293"/>
<feBlend mode="normal" in="SourceGraphic" in2="effect1_dropShadow_918_14293" result="shape"/>
<feColorMatrix in="SourceAlpha" type="matrix" values="0 0 0 0 0 0 0 0 0 0 0 0 0 0 0 0 0 0 127 0" result="hardAlpha"/>
<feOffset dy="-2.913"/>
<feComposite in2="hardAlpha" operator="arithmetic" k2="-1" k3="1"/>
<feColorMatrix type="matrix" values="0 0 0 0 0 0 0 0 0 0.0766668 0 0 0 0 0.766667 0 0 0 0.38 0"/>
<feBlend mode="normal" in2="shape" result="effect2_innerShadow_918_14293"/>
</filter>
<filter id="filter8_di_918_14293" x="182.897" y="66.6417" width="20.1131" height="21.9337" filterUnits="userSpaceOnUse" color-interpolation-filters="sRGB">
<feFlood flood-opacity="0" result="BackgroundImageFix"/>
<feColorMatrix in="SourceAlpha" type="matrix" values="0 0 0 0 0 0 0 0 0 0 0 0 0 0 0 0 0 0 127 0" result="hardAlpha"/>
<feOffset dy="3.2211"/>
<feGaussianBlur stdDeviation="0.70024"/>
<feColorMatrix type="matrix" values="0 0 0 0 0 0 0 0 0 0 0 0 0 0 0 0 0 0 0.25 0"/>
<feBlend mode="normal" in2="BackgroundImageFix" result="effect1_dropShadow_918_14293"/>
<feBlend mode="normal" in="SourceGraphic" in2="effect1_dropShadow_918_14293" result="shape"/>
<feColorMatrix in="SourceAlpha" type="matrix" values="0 0 0 0 0 0 0 0 0 0 0 0 0 0 0 0 0 0 127 0" result="hardAlpha"/>
<feOffset dy="-2.913"/>
<feComposite in2="hardAlpha" operator="arithmetic" k2="-1" k3="1"/>
<feColorMatrix type="matrix" values="0 0 0 0 0 0 0 0 0 0.0766668 0 0 0 0 0.766667 0 0 0 0.38 0"/>
<feBlend mode="normal" in2="shape" result="effect2_innerShadow_918_14293"/>
</filter>
<filter id="filter9_di_918_14293" x="210.971" y="34.2729" width="20.1131" height="21.9337" filterUnits="userSpaceOnUse" color-interpolation-filters="sRGB">
<feFlood flood-opacity="0" result="BackgroundImageFix"/>
<feColorMatrix in="SourceAlpha" type="matrix" values="0 0 0 0 0 0 0 0 0 0 0 0 0 0 0 0 0 0 127 0" result="hardAlpha"/>
<feOffset dy="3.2211"/>
<feGaussianBlur stdDeviation="0.70024"/>
<feColorMatrix type="matrix" values="0 0 0 0 0 0 0 0 0 0 0 0 0 0 0 0 0 0 0.25 0"/>
<feBlend mode="normal" in2="BackgroundImageFix" result="effect1_dropShadow_918_14293"/>
<feBlend mode="normal" in="SourceGraphic" in2="effect1_dropShadow_918_14293" result="shape"/>
<feColorMatrix in="SourceAlpha" type="matrix" values="0 0 0 0 0 0 0 0 0 0 0 0 0 0 0 0 0 0 127 0" result="hardAlpha"/>
<feOffset dy="-2.913"/>
<feComposite in2="hardAlpha" operator="arithmetic" k2="-1" k3="1"/>
<feColorMatrix type="matrix" values="0 0 0 0 0 0 0 0 0 0.0766668 0 0 0 0 0.766667 0 0 0 0.38 0"/>
<feBlend mode="normal" in2="shape" result="effect2_innerShadow_918_14293"/>
</filter>
<filter id="filter10_di_918_14293" x="168.816" y="139.509" width="20.1131" height="21.9337" filterUnits="userSpaceOnUse" color-interpolation-filters="sRGB">
<feFlood flood-opacity="0" result="BackgroundImageFix"/>
<feColorMatrix in="SourceAlpha" type="matrix" values="0 0 0 0 0 0 0 0 0 0 0 0 0 0 0 0 0 0 127 0" result="hardAlpha"/>
<feOffset dy="3.2211"/>
<feGaussianBlur stdDeviation="0.70024"/>
<feColorMatrix type="matrix" values="0 0 0 0 0 0 0 0 0 0 0 0 0 0 0 0 0 0 0.25 0"/>
<feBlend mode="normal" in2="BackgroundImageFix" result="effect1_dropShadow_918_14293"/>
<feBlend mode="normal" in="SourceGraphic" in2="effect1_dropShadow_918_14293" result="shape"/>
<feColorMatrix in="SourceAlpha" type="matrix" values="0 0 0 0 0 0 0 0 0 0 0 0 0 0 0 0 0 0 127 0" result="hardAlpha"/>
<feOffset dy="-2.913"/>
<feComposite in2="hardAlpha" operator="arithmetic" k2="-1" k3="1"/>
<feColorMatrix type="matrix" values="0 0 0 0 0 0 0 0 0 0.0766668 0 0 0 0 0.766667 0 0 0 0.38 0"/>
<feBlend mode="normal" in2="shape" result="effect2_innerShadow_918_14293"/>
</filter>
<filter id="filter11_di_918_14293" x="196.564" y="108.839" width="20.1131" height="21.9337" filterUnits="userSpaceOnUse" color-interpolation-filters="sRGB">
<feFlood flood-opacity="0" result="BackgroundImageFix"/>
<feColorMatrix in="SourceAlpha" type="matrix" values="0 0 0 0 0 0 0 0 0 0 0 0 0 0 0 0 0 0 127 0" result="hardAlpha"/>
<feOffset dy="3.2211"/>
<feGaussianBlur stdDeviation="0.70024"/>
<feColorMatrix type="matrix" values="0 0 0 0 0 0 0 0 0 0 0 0 0 0 0 0 0 0 0.25 0"/>
<feBlend mode="normal" in2="BackgroundImageFix" result="effect1_dropShadow_918_14293"/>
<feBlend mode="normal" in="SourceGraphic" in2="effect1_dropShadow_918_14293" result="shape"/>
<feColorMatrix in="SourceAlpha" type="matrix" values="0 0 0 0 0 0 0 0 0 0 0 0 0 0 0 0 0 0 127 0" result="hardAlpha"/>
<feOffset dy="-2.913"/>
<feComposite in2="hardAlpha" operator="arithmetic" k2="-1" k3="1"/>
<feColorMatrix type="matrix" values="0 0 0 0 0 0 0 0 0 0.0766668 0 0 0 0 0.766667 0 0 0 0.38 0"/>
<feBlend mode="normal" in2="shape" result="effect2_innerShadow_918_14293"/>
</filter>
<filter id="filter12_di_918_14293" x="224.967" y="74.7709" width="20.1131" height="21.9337" filterUnits="userSpaceOnUse" color-interpolation-filters="sRGB">
<feFlood flood-opacity="0" result="BackgroundImageFix"/>
<feColorMatrix in="SourceAlpha" type="matrix" values="0 0 0 0 0 0 0 0 0 0 0 0 0 0 0 0 0 0 127 0" result="hardAlpha"/>
<feOffset dy="3.2211"/>
<feGaussianBlur stdDeviation="0.70024"/>
<feColorMatrix type="matrix" values="0 0 0 0 0 0 0 0 0 0 0 0 0 0 0 0 0 0 0.25 0"/>
<feBlend mode="normal" in2="BackgroundImageFix" result="effect1_dropShadow_918_14293"/>
<feBlend mode="normal" in="SourceGraphic" in2="effect1_dropShadow_918_14293" result="shape"/>
<feColorMatrix in="SourceAlpha" type="matrix" values="0 0 0 0 0 0 0 0 0 0 0 0 0 0 0 0 0 0 127 0" result="hardAlpha"/>
<feOffset dy="-2.913"/>
<feComposite in2="hardAlpha" operator="arithmetic" k2="-1" k3="1"/>
<feColorMatrix type="matrix" values="0 0 0 0 0 0 0 0 0 0.0766668 0 0 0 0 0.766667 0 0 0 0.38 0"/>
<feBlend mode="normal" in2="shape" result="effect2_innerShadow_918_14293"/>
</filter>
<filter id="filter13_di_918_14293" x="210.887" y="147.639" width="20.1131" height="21.9337" filterUnits="userSpaceOnUse" color-interpolation-filters="sRGB">
<feFlood flood-opacity="0" result="BackgroundImageFix"/>
<feColorMatrix in="SourceAlpha" type="matrix" values="0 0 0 0 0 0 0 0 0 0 0 0 0 0 0 0 0 0 127 0" result="hardAlpha"/>
<feOffset dy="3.2211"/>
<feGaussianBlur stdDeviation="0.70024"/>
<feColorMatrix type="matrix" values="0 0 0 0 0 0 0 0 0 0 0 0 0 0 0 0 0 0 0.25 0"/>
<feBlend mode="normal" in2="BackgroundImageFix" result="effect1_dropShadow_918_14293"/>
<feBlend mode="normal" in="SourceGraphic" in2="effect1_dropShadow_918_14293" result="shape"/>
<feColorMatrix in="SourceAlpha" type="matrix" values="0 0 0 0 0 0 0 0 0 0 0 0 0 0 0 0 0 0 127 0" result="hardAlpha"/>
<feOffset dy="-2.913"/>
<feComposite in2="hardAlpha" operator="arithmetic" k2="-1" k3="1"/>
<feColorMatrix type="matrix" values="0 0 0 0 0 0 0 0 0 0.0766668 0 0 0 0 0.766667 0 0 0 0.38 0"/>
<feBlend mode="normal" in2="shape" result="effect2_innerShadow_918_14293"/>
</filter>
<filter id="filter14_di_918_14293" x="238.962" y="115.269" width="20.1131" height="21.9337" filterUnits="userSpaceOnUse" color-interpolation-filters="sRGB">
<feFlood flood-opacity="0" result="BackgroundImageFix"/>
<feColorMatrix in="SourceAlpha" type="matrix" values="0 0 0 0 0 0 0 0 0 0 0 0 0 0 0 0 0 0 127 0" result="hardAlpha"/>
<feOffset dy="3.2211"/>
<feGaussianBlur stdDeviation="0.70024"/>
<feColorMatrix type="matrix" values="0 0 0 0 0 0 0 0 0 0 0 0 0 0 0 0 0 0 0.25 0"/>
<feBlend mode="normal" in2="BackgroundImageFix" result="effect1_dropShadow_918_14293"/>
<feBlend mode="normal" in="SourceGraphic" in2="effect1_dropShadow_918_14293" result="shape"/>
<feColorMatrix in="SourceAlpha" type="matrix" values="0 0 0 0 0 0 0 0 0 0 0 0 0 0 0 0 0 0 127 0" result="hardAlpha"/>
<feOffset dy="-2.913"/>
<feComposite in2="hardAlpha" operator="arithmetic" k2="-1" k3="1"/>
<feColorMatrix type="matrix" values="0 0 0 0 0 0 0 0 0 0.0766668 0 0 0 0 0.766667 0 0 0 0.38 0"/>
<feBlend mode="normal" in2="shape" result="effect2_innerShadow_918_14293"/>
</filter>
<filter id="filter15_di_918_14293" x="252.958" y="155.768" width="20.1131" height="21.9337" filterUnits="userSpaceOnUse" color-interpolation-filters="sRGB">
<feFlood flood-opacity="0" result="BackgroundImageFix"/>
<feColorMatrix in="SourceAlpha" type="matrix" values="0 0 0 0 0 0 0 0 0 0 0 0 0 0 0 0 0 0 127 0" result="hardAlpha"/>
<feOffset dy="3.2211"/>
<feGaussianBlur stdDeviation="0.70024"/>
<feColorMatrix type="matrix" values="0 0 0 0 0 0 0 0 0 0 0 0 0 0 0 0 0 0 0.25 0"/>
<feBlend mode="normal" in2="BackgroundImageFix" result="effect1_dropShadow_918_14293"/>
<feBlend mode="normal" in="SourceGraphic" in2="effect1_dropShadow_918_14293" result="shape"/>
<feColorMatrix in="SourceAlpha" type="matrix" values="0 0 0 0 0 0 0 0 0 0 0 0 0 0 0 0 0 0 127 0" result="hardAlpha"/>
<feOffset dy="-2.913"/>
<feComposite in2="hardAlpha" operator="arithmetic" k2="-1" k3="1"/>
<feColorMatrix type="matrix" values="0 0 0 0 0 0 0 0 0 0.0766668 0 0 0 0 0.766667 0 0 0 0.38 0"/>
<feBlend mode="normal" in2="shape" result="effect2_innerShadow_918_14293"/>
</filter>
<filter id="filter16_di_918_14293" x="134.754" y="168.81" width="29.1009" height="33.6223" filterUnits="userSpaceOnUse" color-interpolation-filters="sRGB">
<feFlood flood-opacity="0" result="BackgroundImageFix"/>
<feColorMatrix in="SourceAlpha" type="matrix" values="0 0 0 0 0 0 0 0 0 0 0 0 0 0 0 0 0 0 127 0" result="hardAlpha"/>
<feOffset dy="6.02844"/>
<feGaussianBlur stdDeviation="0.753554"/>
<feColorMatrix type="matrix" values="0 0 0 0 0 0 0 0 0 0 0 0 0 0 0 0 0 0 0.25 0"/>
<feBlend mode="normal" in2="BackgroundImageFix" result="effect1_dropShadow_918_14293"/>
<feBlend mode="normal" in="SourceGraphic" in2="effect1_dropShadow_918_14293" result="shape"/>
<feColorMatrix in="SourceAlpha" type="matrix" values="0 0 0 0 0 0 0 0 0 0 0 0 0 0 0 0 0 0 127 0" result="hardAlpha"/>
<feOffset dy="-4.73362"/>
<feComposite in2="hardAlpha" operator="arithmetic" k2="-1" k3="1"/>
<feColorMatrix type="matrix" values="0 0 0 0 0.625 0 0 0 0 0.015625 0 0 0 0 0.015625 0 0 0 0.43 0"/>
<feBlend mode="normal" in2="shape" result="effect2_innerShadow_918_14293"/>
</filter>
<linearGradient id="paint0_linear_918_14293" x1="229.184" y1="5.07883" x2="189.157" y2="212.232" gradientUnits="userSpaceOnUse">
<stop stop-color="#601AC2"/>
<stop offset="1" stop-color="#A9427A"/>
</linearGradient>
<linearGradient id="paint1_linear_918_14293" x1="200.115" y1="38.0248" x2="171.695" y2="185.107" gradientUnits="userSpaceOnUse">
<stop stop-color="#FF597E"/>
<stop offset="1" stop-color="#FFD600" stop-opacity="0.26"/>
</linearGradient>
<linearGradient id="paint2_linear_918_14293" x1="77.7044" y1="176.007" x2="25.9059" y2="111.923" gradientUnits="userSpaceOnUse">
<stop stop-color="#272544"/>
<stop offset="1" stop-color="#4C547E"/>
</linearGradient>
<linearGradient id="paint3_linear_918_14293" x1="46.931" y1="126.063" x2="64.0886" y2="169.516" gradientUnits="userSpaceOnUse">
<stop stop-color="#EADDA9"/>
<stop offset="1" stop-color="#E3D7A5" stop-opacity="0.13"/>
</linearGradient>
<clipPath id="clip0_918_14293">
<rect width="36.2123" height="44.2595" fill="white" transform="translate(38.9173 120.519) rotate(19.8588)"/>
</clipPath>
<clipPath id="clip1_918_14293">
<rect width="85.8249" height="73.8279" fill="white" transform="translate(50.2827 144.635) rotate(10.9362)"/>
</clipPath>
</defs>
</svg>
