<?xml version="1.0" encoding="utf-8"?>
<!-- Generator: Adobe Illustrator 22.0.1, SVG Export Plug-In . SVG Version: 6.00 Build 0)  -->
<svg version="1.1" id="Слой_1" xmlns="http://www.w3.org/2000/svg" xmlns:xlink="http://www.w3.org/1999/xlink" x="0px" y="0px"
	 viewBox="0 0 64 64" style="enable-background:new 0 0 64 64;" xml:space="preserve">
<style type="text/css">
	.st0{fill:url(#SVGID_1_);}
	.st1{fill:#C4C4C4;}
	.st2{fill:#DBAB00;}
	.st3{fill:#FFCA0E;}
	.st4{fill:#FADE34;}
	.st5{opacity:0.5;fill:#FFFFFF;enable-background:new    ;}
	.st6{fill:url(#SVGID_2_);}
	.st7{fill:url(#SVGID_3_);}
	.st8{opacity:0.78;fill:#FFFFFF;enable-background:new    ;}
	.st9{fill:#E3D097;}
</style>
<linearGradient id="SVGID_1_" gradientUnits="userSpaceOnUse" x1="2.5185" y1="9.2739" x2="60.8262" y2="70.0431" gradientTransform="matrix(1 0 0 -1 0 72)">
	<stop  offset="0" style="stop-color:#7700FF"/>
	<stop  offset="1" style="stop-color:#D633FF"/>
</linearGradient>
<path class="st0" d="M0,8c0-4.4,3.6-8,8-8h48c4.4,0,8,3.6,8,8v48c0,4.4-3.6,8-8,8H8c-4.4,0-8-3.6-8-8V8z"/>
<g>
	<path class="st1" d="M32,53.5L11,27.4h42.1L32,53.5z"/>
	<path class="st2" d="M21.3,18h21.4l10.3,9.4L32,53.5L11,27.4L21.3,18z"/>
	<path class="st3" d="M21.3,18h21.4l10.3,9.4H11L21.3,18z"/>
	<path class="st4" d="M42.7,18H32l8.2,9.4h12.8L42.7,18z"/>
	<path class="st4" d="M21.3,18H32l-7.9,9.4H11L21.3,18z"/>
	<path class="st5" d="M21.3,18l-7.8,8.5l10.7,0.9H11L21.3,18z"/>
	<path class="st5" d="M42.7,18l7.8,8.5l-10.7,0.9h13.2L42.7,18z"/>
	
		<linearGradient id="SVGID_2_" gradientUnits="userSpaceOnUse" x1="42.5509" y1="44.6196" x2="42.5509" y2="18.4874" gradientTransform="matrix(1 0 0 -1 0 72)">
		<stop  offset="0" style="stop-color:#FFC700"/>
		<stop  offset="1" style="stop-color:#DFB51F"/>
	</linearGradient>
	<path class="st6" d="M32,53.5l8.3-26.1h12.8L32,53.5z"/>
	
		<linearGradient id="SVGID_3_" gradientUnits="userSpaceOnUse" x1="21.5174" y1="44.6196" x2="21.5174" y2="18.4874" gradientTransform="matrix(1 0 0 -1 0 72)">
		<stop  offset="0" style="stop-color:#FAB800"/>
		<stop  offset="1" style="stop-color:#483500"/>
	</linearGradient>
	<path class="st7" d="M32,53.5L11,27.4h13.1L32,53.5z"/>
	<path class="st8" d="M28.8,42.6l-4.6-15.2l7.1-8.5L25.1,27l11.1,0.4l-11.1,0.4L28.8,42.6z"/>
	<path class="st9" d="M37.2,35.5l3.1-8.1L34.7,45L37.2,35.5z"/>
</g>
</svg>
