<svg width="21" height="20" viewBox="0 0 21 20" fill="none" xmlns="http://www.w3.org/2000/svg">
<path fill-rule="evenodd" clip-rule="evenodd" d="M20.7478 11.135L18.8183 9.01249C18.6905 8.88515 18.5184 8.81378 18.339 8.81378C18.1597 8.81378 17.9875 8.88515 17.8597 9.01249L15.9277 11.135C15.8647 11.1981 15.8146 11.2732 15.7805 11.3561C15.7463 11.4389 15.7287 11.5277 15.7287 11.6175C15.7287 11.7072 15.7463 11.7961 15.7805 11.8789C15.8146 11.9617 15.8647 12.0369 15.9277 12.1H17.5262C17.2272 13.2367 16.6369 14.2734 15.8151 15.1052C14.9932 15.9371 13.9689 16.5346 12.8457 16.8375C11.533 17.185 10.1467 17.1174 8.87311 16.6439C7.59953 16.1703 6.49978 15.3136 5.72173 14.1887L4.37402 15.1275C5.34484 16.531 6.71716 17.6 8.30637 18.1906C9.89557 18.7813 11.6254 18.8652 13.2632 18.4312C14.7362 18.0361 16.0718 17.235 17.1215 16.1172C18.1712 14.9994 18.8938 13.6087 19.2087 12.1H20.7466C20.8096 12.0369 20.8596 11.9618 20.8938 11.879C20.9279 11.7962 20.9456 11.7074 20.9457 11.6177C20.9458 11.5281 20.9284 11.4392 20.8944 11.3564C20.8605 11.2735 20.8107 11.1983 20.7478 11.135V11.135Z" fill="white"/>
<path fill-rule="evenodd" clip-rule="evenodd" d="M6.76314 10.0262C6.82619 9.96312 6.87623 9.88798 6.91039 9.80516C6.94455 9.72233 6.96214 9.63348 6.96214 9.54374C6.96214 9.454 6.94455 9.36514 6.91039 9.28232C6.87623 9.1995 6.82619 9.12436 6.76314 9.06124H4.96332C5.26951 7.93889 5.86056 6.91714 6.67775 6.09746C7.49493 5.27778 8.50982 4.6887 9.62161 4.38874C10.9343 4.04089 12.3208 4.10854 13.5944 4.58258C14.8679 5.05663 15.9673 5.91428 16.7443 7.03999L18.0933 6.09999C17.1222 4.69571 15.7493 3.62608 14.1595 3.03499C12.5696 2.4439 10.839 2.35971 9.20038 2.79374C7.73878 3.18713 6.41238 3.98001 5.36651 5.08552C4.32063 6.19102 3.59564 7.5665 3.27096 9.06124H1.47732C1.41427 9.12436 1.36422 9.1995 1.33007 9.28232C1.29591 9.36514 1.27832 9.454 1.27832 9.54374C1.27832 9.63348 1.29591 9.72233 1.33007 9.80516C1.36422 9.88798 1.41427 9.96312 1.47732 10.0262L3.50073 12.0725C3.62852 12.1998 3.80068 12.2712 3.98002 12.2712C4.15937 12.2712 4.33152 12.1998 4.45932 12.0725L6.76314 10.0262Z" fill="white"/>
</svg>
