<svg width="189" height="189" viewBox="0 0 189 189" fill="none" xmlns="http://www.w3.org/2000/svg">
<g clip-path="url(#clip0_3281_313703)">
<path d="M0 22C0 9.84973 9.84974 0 22 0H167C179.15 0 189 9.84974 189 22V167C189 179.15 179.15 189 167 189H22C9.84973 189 0 179.15 0 167V22Z" fill="url(#paint0_linear_3281_313703)"/>
<ellipse opacity="0.9" cx="-0.000312805" cy="86.0196" rx="114.036" ry="114.036" fill="url(#paint1_radial_3281_313703)"/>
<path d="M87.7281 91.3261C89.4946 90.6433 91.4774 90.8145 93.1006 91.7899L120.044 107.98C122.067 109.196 122.018 112.144 119.955 113.291L56.216 148.742C53.8602 150.052 50.9252 149.672 48.9818 147.804L21.6604 121.544C20.0425 119.989 20.587 117.28 22.6802 116.47L87.7281 91.3261Z" fill="#BB8BA5"/>
<path d="M87.7281 87.5792C89.4946 86.8964 91.4774 87.0675 93.1006 88.043L120.044 104.233C122.067 105.449 122.018 108.397 119.955 109.544L56.216 144.995C53.8602 146.305 50.9252 145.925 48.9818 144.057L21.6604 117.797C20.0425 116.242 20.587 113.533 22.6802 112.724L87.7281 87.5792Z" fill="#C5ABC6"/>
<path d="M87.7281 82.1226C89.4946 81.4398 91.4774 81.611 93.1006 82.5864L120.044 98.7769C122.067 99.9922 122.018 102.941 119.955 104.088L56.216 139.539C53.8602 140.849 50.9252 140.468 48.9818 138.6L21.6604 112.34C20.0425 110.785 20.587 108.076 22.6802 107.267L87.7281 82.1226Z" fill="#D2C7E4"/>
<g filter="url(#filter0_i_3281_313703)">
<path d="M87.7281 75.7567C89.4946 75.0738 91.4774 75.245 93.1006 76.2204L120.044 92.4109C122.067 93.6262 122.018 96.5746 119.955 97.7216L56.216 133.173C53.8602 134.483 50.9252 134.102 48.9818 132.234L21.6604 105.974C20.0425 104.419 20.587 101.71 22.6802 100.901L87.7281 75.7567Z" fill="#EDEDED"/>
</g>
<path d="M75.4563 100.208L71.7783 99.3835L71.5224 97.2362C71.4014 96.2207 70.7098 95.1991 69.5502 94.3231C66.5728 92.0738 61.3375 91.3409 57.8569 92.6863L56.7914 93.0981C54.8923 93.8322 53.6939 95.0117 53.4461 96.3908L51.5 107.222L71.097 109.726C73.5922 110.044 76.0452 109.813 77.9443 109.078L79.0098 108.667C82.4904 107.321 82.8983 104.407 79.9209 102.158C78.7614 101.282 77.1957 100.598 75.4563 100.208Z" fill="#242424"/>
<path d="M71.7782 99.3839L73.3708 98.278C76.1526 96.3461 77.9859 93.9871 78.7248 91.3888L79.0129 90.3759C81.1728 93.5738 84.9888 96.4566 89.8915 98.5944L88.0245 98.4144C83.2354 97.9529 78.5117 98.1283 74.2295 98.9268L71.7782 99.3839Z" fill="#242424"/>
<path d="M75.4563 100.208L71.7783 99.3835L71.5224 97.2362C71.4014 96.2207 70.7098 95.1991 69.5502 94.3231C66.5728 92.0738 61.3375 91.3409 57.8569 92.6863L56.7914 93.0981C54.8923 93.8322 53.6939 95.0117 53.4461 96.3908L51.5 107.222L71.097 109.726C73.5922 110.044 76.0452 109.813 77.9443 109.078L79.0098 108.667C82.4904 107.321 82.8983 104.407 79.9209 102.158C78.7614 101.282 77.1957 100.598 75.4563 100.208Z" fill="#1C304E"/>
<path d="M71.7782 99.3839L73.3708 98.278C76.1526 96.3461 77.9859 93.9871 78.7248 91.3888L79.0129 90.3759C81.1728 93.5738 84.9888 96.4566 89.8915 98.5944L88.0245 98.4144C83.2354 97.9529 78.5117 98.1283 74.2295 98.9268L71.7782 99.3839Z" fill="#1C304E"/>
<g filter="url(#filter1_d_3281_313703)">
<rect x="112.738" y="36.542" width="64.7927" height="101.817" rx="6.32045" transform="rotate(19.0353 112.738 36.542)" fill="#F9FAFF"/>
</g>
<path d="M168.013 55.6127L118.713 38.6034C115.413 37.4649 111.816 39.217 110.677 42.5168L96.1346 84.6667L88.8634 105.742L85.2278 116.279L168.013 55.6127Z" fill="white"/>
<path d="M132.907 84.8277L129.061 85.8743L126.622 82.7219C125.524 81.3023 124.029 80.2402 122.327 79.6699C117.575 78.0775 112.421 80.6694 110.829 85.4219C110.028 87.8125 110.248 90.4413 111.444 92.6607L120.905 110.215L139.033 101.905C141.325 100.854 143.084 98.8888 143.885 96.4982C145.477 91.7457 142.926 86.5719 138.173 84.9794C136.471 84.4092 134.639 84.3564 132.907 84.8277Z" fill="#F00000"/>
<path d="M110.795 85.1962L110.744 85.3486C109.946 87.7301 110.164 90.335 111.345 92.5513L113.357 96.3246L128.03 84.6687L126.432 82.5851C125.343 81.166 123.856 80.1043 122.16 79.5361C117.459 77.9608 112.371 80.4949 110.795 85.1962Z" fill="#FE3F55"/>
<path d="M139.055 138.715L138.399 137.964L137.436 138.22C137.019 138.331 136.579 138.323 136.167 138.197L135.968 138.136C134.857 137.796 134.233 136.621 134.572 135.511C134.75 134.931 135.169 134.455 135.723 134.207L140.155 132.223L142.719 136.346C143.039 136.862 143.121 137.49 142.944 138.071C142.605 139.181 141.43 139.806 140.319 139.466L140.12 139.405C139.708 139.279 139.339 139.04 139.055 138.715Z" fill="#F00000"/>
<path d="M135.338 147.202L138.979 141.836L140.921 142.43L135.871 149.089L134.64 148.712L135.338 147.202ZM135.635 140.813L135.658 147.3L135.413 148.949L134.166 148.567L133.687 140.218L135.635 140.813ZM134.852 143.633L135.279 142.237L139.128 143.414L138.701 144.81L134.852 143.633Z" fill="#F00000"/>
<path d="M118.577 43.8758L114.936 49.2419L112.994 48.648L118.044 41.9888L119.275 42.3653L118.577 43.8758ZM118.28 50.2643L118.258 43.7781L118.503 42.129L119.75 42.5102L120.228 50.8597L118.28 50.2643ZM119.064 47.4444L118.637 48.8407L114.788 47.664L115.215 46.2677L119.064 47.4444Z" fill="#F04E5E"/>
<path d="M114.86 52.3627L115.516 53.1139L116.479 52.8577C116.896 52.7468 117.336 52.7549 117.748 52.881L117.948 52.9419C119.058 53.2813 119.683 54.4564 119.343 55.5665C119.166 56.147 118.746 56.6223 118.192 56.8704L113.761 58.8547L111.196 54.7316C110.876 54.2162 110.794 53.5874 110.971 53.007C111.311 51.8969 112.486 51.2721 113.596 51.6115L113.795 51.6724C114.208 51.7985 114.577 52.0376 114.86 52.3627Z" fill="#F04E5E"/>
<path d="M170.302 106.865L168.099 117.304C167.346 120.873 169.045 124.51 172.266 126.222L181.687 131.23L171.247 129.026C167.678 128.273 164.042 129.973 162.33 133.193L157.322 142.615L159.525 132.175C160.278 128.606 158.579 124.97 155.358 123.258L145.937 118.25L156.377 120.453C159.945 121.206 163.582 119.507 165.294 116.286L170.302 106.865Z" fill="white" fill-opacity="0.84"/>
<ellipse opacity="0.2" cx="163.811" cy="124.74" rx="9.18262" ry="9.1826" transform="rotate(19.9544 163.811 124.74)" fill="white"/>
<path d="M37.0816 34.6348L39.2217 49.7892C39.7317 53.4008 42.57 56.2391 46.1816 56.7491L61.336 58.8892L46.1816 61.0293C42.57 61.5393 39.7317 64.3776 39.2217 67.9892L37.0816 83.1436L34.9415 67.9892C34.4315 64.3776 31.5932 61.5393 27.9816 61.0293L12.8271 58.8892L27.9816 56.7491C31.5932 56.2391 34.4315 53.4008 34.9415 49.7892L37.0816 34.6348Z" fill="white" fill-opacity="0.84"/>
<ellipse opacity="0.2" cx="37.0811" cy="58.8898" rx="11.7117" ry="11.7117" fill="white"/>
<path d="M85.7914 137.49C86.2935 137.283 86.7313 136.945 87.0594 136.512L84.3346 140.145C84.007 140.579 83.5691 140.916 83.0667 141.123L85.7914 137.49Z" fill="#3058FE"/>
<path d="M89.864 147.64L92.5852 144.007C93.4934 142.772 95.3318 142.35 97.221 143.088L94.4962 146.721C92.607 145.983 90.7723 146.409 89.864 147.64Z" fill="#6783F6"/>
<path d="M91.4262 139.262C91.5838 139.334 91.7576 139.363 91.9299 139.345C92.1021 139.328 92.2668 139.266 92.4071 139.164L89.6823 142.797C89.5424 142.898 89.3781 142.96 89.2064 142.977C89.0347 142.993 88.8617 142.964 88.705 142.892L91.4262 139.259L88.705 142.892C88.5234 142.822 88.3586 142.714 88.2218 142.576C88.0448 142.43 87.9255 142.226 87.8856 142C87.8456 141.774 87.8875 141.542 88.0038 141.344L90.725 137.711C90.6091 137.909 90.5678 138.142 90.6084 138.368C90.649 138.594 90.769 138.797 90.9466 138.943C91.0827 139.081 91.2459 139.19 91.4262 139.262Z" fill="#3058FE"/>
<path d="M92.4072 139.175C92.449 139.142 92.4857 139.103 92.5162 139.059L89.795 142.692C89.7613 142.734 89.7235 142.773 89.6824 142.808C90.4998 141.729 91.4698 140.167 92.4072 139.175Z" fill="#3058FE"/>
<path d="M88.0039 141.37L90.7251 137.736C90.7588 137.694 90.7965 137.655 90.8377 137.62C90.9776 137.519 91.1418 137.457 91.3136 137.441C91.4853 137.424 91.6583 137.453 91.815 137.526L89.0902 141.159C88.9334 141.086 88.76 141.057 88.5882 141.074C88.4163 141.092 88.2522 141.155 88.1129 141.257C88.0722 141.29 88.0356 141.328 88.0039 141.37Z" fill="#FFFCED"/>
<path d="M92.5161 139.059L89.7949 142.692C89.9104 142.494 89.952 142.262 89.912 142.036C89.8721 141.81 89.7533 141.606 89.5769 141.46C89.4383 141.321 89.2726 141.213 89.0901 141.141L91.8149 137.508C91.9965 137.577 92.1612 137.685 92.2981 137.824C92.4767 137.969 92.597 138.174 92.637 138.401C92.677 138.627 92.6341 138.861 92.5161 139.059Z" fill="#FFFCED"/>
<path d="M89.0903 141.155C89.2727 141.227 89.4384 141.336 89.5771 141.475C90.0094 141.907 90.0567 142.51 89.6825 142.823C89.5425 142.924 89.3783 142.986 89.2066 143.002C89.0349 143.019 88.8618 142.989 88.7052 142.917C88.5235 142.847 88.3588 142.74 88.222 142.601C87.7896 142.169 87.7424 141.562 88.113 141.253C88.2522 141.151 88.4164 141.088 88.5882 141.071C88.7601 141.054 88.9335 141.083 89.0903 141.155Z" fill="#FFFCED"/>
<path d="M87.0593 136.512L84.3345 140.145C84.6617 139.677 84.8664 139.135 84.9299 138.568C84.9933 138 84.9135 137.426 84.6978 136.897L87.4226 133.264C87.6377 133.793 87.7171 134.367 87.6537 134.934C87.5902 135.502 87.3859 136.044 87.0593 136.512Z" fill="#6783F6"/>
<path d="M94.4961 146.721L97.2209 143.077L104.854 146.06L102.129 149.707L94.4961 146.721Z" fill="#6783F6"/>
<path d="M102.129 149.708L104.854 146.075C105.689 146.39 106.438 146.898 107.041 147.557C107.644 148.216 108.083 149.007 108.324 149.867L105.602 153.501C105.36 152.641 104.92 151.85 104.317 151.191C103.713 150.533 102.964 150.024 102.129 149.708Z" fill="#6783F6"/>
<path d="M102.129 149.707C102.964 150.024 103.713 150.532 104.317 151.191C104.92 151.85 105.36 152.641 105.602 153.5C102.662 153.288 99.7717 152.627 97.032 151.538C94.4901 150.542 92.0822 149.232 89.864 147.64C90.7723 146.409 92.607 145.983 94.4962 146.725L102.129 149.707Z" fill="#6783F6"/>
<path d="M82.1257 129.7L84.8505 126.053L87.4118 133.264L84.687 136.908L82.1257 129.7Z" fill="#6783F6"/>
<path d="M88.1635 121.13C86.456 128.926 92.3924 138.136 101.399 141.657L98.674 145.29C89.6676 141.769 83.7312 132.574 85.4424 124.763C85.7765 123.194 86.4444 121.716 87.4006 120.429L90.1217 116.796C89.167 118.084 88.4993 119.562 88.1635 121.13Z" fill="#3058FE"/>
<path d="M87.9821 120.875L90.7033 117.242C89.7882 118.476 89.1467 119.89 88.8214 121.391C87.1792 128.872 92.8795 137.707 101.537 141.086L98.8159 144.719C90.1729 141.337 84.4762 132.505 86.1002 125.021C86.4235 123.52 87.0653 122.107 87.9821 120.875Z" fill="#2545C6"/>
<path d="M94.3037 135.608C95.597 136.948 97.0631 138.11 98.6633 139.063L95.9421 142.696C94.3415 141.75 92.8741 140.596 91.5789 139.262L94.3037 135.608Z" fill="#3058FE"/>
<path d="M100.287 139.916C99.3837 141.127 98.4767 142.338 97.566 143.549C97.0138 143.288 96.4785 143.002 95.9602 142.692L98.6814 139.059C99.2009 139.368 99.7386 139.655 100.287 139.916Z" fill="#3058FE"/>
<path d="M94.3035 135.608L93.4788 136.697L92.4543 138.082L92.1927 138.445L91.8294 138.954C91.736 139.046 91.6565 139.151 91.5932 139.266C91.4043 139.07 91.2299 138.87 91.0374 138.67L93.7621 135.037C93.9293 135.221 94.1097 135.411 94.3035 135.608Z" fill="#3058FE"/>
<path d="M93.2719 134.459C93.4282 134.645 93.5844 134.823 93.7479 135.008L91.0231 138.641C90.8632 138.459 90.7034 138.278 90.5508 138.089L93.2719 134.459Z" fill="#3058FE"/>
<path d="M100.287 139.917C100.734 140.131 101.188 140.327 101.65 140.509L98.9286 144.142C98.4635 143.96 98.0094 143.76 97.5662 143.55C98.4744 142.343 99.3815 141.132 100.287 139.917Z" fill="#3058FE"/>
<path d="M101.399 141.657C102.485 142.086 103.605 142.42 104.749 142.656L102.024 146.289C100.882 146.05 99.7611 145.715 98.6743 145.29L101.399 141.657Z" fill="#3058FE"/>
<path d="M111.804 147.11C111.912 147.103 112.017 147.073 112.112 147.023C112.207 146.972 112.291 146.901 112.356 146.816L109.635 150.449C109.569 150.533 109.486 150.603 109.39 150.653C109.295 150.703 109.19 150.733 109.083 150.739L111.804 147.11Z" fill="#3058FE"/>
<path d="M111.27 147.03C111.439 147.097 111.622 147.125 111.804 147.11L109.083 150.743C108.901 150.76 108.718 150.732 108.549 150.663C108.37 150.594 108.207 150.489 108.072 150.354C107.936 150.219 107.83 150.057 107.76 149.878L110.485 146.245L107.76 149.878C107.71 149.754 107.692 149.619 107.707 149.486C107.722 149.352 107.77 149.225 107.848 149.115L110.569 145.482C110.492 145.593 110.444 145.721 110.43 145.855C110.415 145.989 110.434 146.124 110.485 146.249C110.555 146.426 110.661 146.587 110.796 146.721C110.931 146.856 111.092 146.961 111.27 147.03Z" fill="#3058FE"/>
<path d="M107.844 149.126L110.569 145.493C110.635 145.408 110.719 145.339 110.814 145.288C110.909 145.237 111.014 145.207 111.121 145.199C111.303 145.186 111.485 145.213 111.655 145.279L108.93 148.912C108.763 148.843 108.581 148.815 108.4 148.832C108.292 148.84 108.187 148.87 108.091 148.92C107.995 148.971 107.911 149.041 107.844 149.126Z" fill="#FFFCED"/>
<path d="M112.356 146.816L109.635 150.449C109.711 150.338 109.759 150.21 109.773 150.076C109.788 149.942 109.769 149.807 109.719 149.682C109.649 149.504 109.543 149.342 109.408 149.206C109.272 149.071 109.109 148.966 108.93 148.897L111.655 145.264C111.833 145.334 111.995 145.441 112.13 145.576C112.265 145.712 112.371 145.874 112.44 146.053C112.492 146.177 112.511 146.312 112.497 146.445C112.482 146.578 112.434 146.706 112.356 146.816Z" fill="#FFFCED"/>
<path d="M108.93 148.912C109.109 148.98 109.272 149.086 109.408 149.221C109.543 149.356 109.649 149.518 109.719 149.696C109.769 149.807 109.792 149.928 109.785 150.049C109.778 150.171 109.742 150.288 109.679 150.392C109.616 150.496 109.529 150.584 109.426 150.647C109.322 150.71 109.204 150.746 109.083 150.754C108.901 150.771 108.718 150.743 108.549 150.674C108.37 150.605 108.208 150.5 108.072 150.365C107.936 150.23 107.83 150.068 107.761 149.889C107.71 149.778 107.688 149.657 107.695 149.535C107.702 149.414 107.738 149.296 107.801 149.192C107.864 149.088 107.952 149 108.056 148.938C108.16 148.875 108.278 148.839 108.4 148.832C108.581 148.815 108.763 148.843 108.93 148.912Z" fill="#FFFCED"/>
<path d="M82.1255 129.7L84.6686 136.912C85.3335 138.779 84.6177 140.48 83.0483 141.137C79.4733 136.552 77.3371 131.212 77.2354 126.009C77.7681 126.049 78.2915 126.172 78.7867 126.372C79.5447 126.663 80.2335 127.11 80.8086 127.683C81.3836 128.256 81.8322 128.943 82.1255 129.7Z" fill="#6783F6"/>
<path d="M77.2354 126.009L79.9565 122.376C80.4904 122.416 81.0149 122.539 81.5115 122.739C82.2706 123.031 82.96 123.479 83.5351 124.054C84.1103 124.629 84.5583 125.319 84.8503 126.078L82.1255 129.711C81.8335 128.952 81.3855 128.263 80.8103 127.687C80.2352 127.112 79.5458 126.664 78.7867 126.372C78.2915 126.172 77.7681 126.049 77.2354 126.009Z" fill="#6783F6"/>
<path d="M92.4288 134.961L95.1536 131.328C95.1096 131.483 95.1284 131.649 95.2059 131.791C95.2834 131.932 95.4134 132.037 95.5678 132.084L92.843 135.717C92.6886 135.67 92.5586 135.565 92.4811 135.424C92.4036 135.282 92.3848 135.116 92.4288 134.961Z" fill="#FFFCED"/>
<path d="M92.843 135.717L95.5678 132.069L98.863 133.359L96.1418 137.006L92.843 135.717Z" fill="#FFFCED"/>
<path d="M98.863 133.359C98.958 133.406 99.0658 133.421 99.1701 133.401C99.2744 133.381 99.3694 133.328 99.4406 133.25L96.7195 136.883C96.6473 136.961 96.5517 137.014 96.4469 137.034C96.3422 137.053 96.2339 137.039 96.1382 136.992L98.863 133.359Z" fill="#FFFCED"/>
<path d="M99.4406 133.25L96.7195 136.883C96.733 136.862 96.7451 136.84 96.7558 136.817L99.4806 133.184C99.4686 133.207 99.4553 133.229 99.4406 133.25Z" fill="#3058FE"/>
<path d="M116.669 145.315C115.942 146.296 115.884 147.673 116.483 148.973L113.762 152.606C113.163 151.309 113.21 149.933 113.944 148.952L116.669 145.315Z" fill="#3058FE"/>
<path d="M104.291 135.404C104.367 135.485 104.46 135.548 104.563 135.589L101.839 139.222C101.737 139.182 101.645 139.12 101.57 139.041C102.476 137.832 103.383 136.62 104.291 135.404Z" fill="#FFFCED"/>
<path d="M113.944 148.963L116.665 145.33C116.803 145.146 116.962 144.979 117.138 144.832L114.416 148.465C114.239 148.611 114.08 148.778 113.944 148.963Z" fill="#6783F6"/>
<path d="M104.291 135.404C103.383 136.615 102.476 137.826 101.57 139.037C101.481 138.949 101.422 138.836 101.399 138.714L104.12 135.081C104.146 135.202 104.205 135.314 104.291 135.404Z" fill="#FFFCED"/>
<path d="M81.2209 122.888C81.2565 122.834 81.2953 122.782 81.3372 122.732L81.5806 122.409L81.8349 122.071L81.9621 121.897L82.2273 121.533L83.2882 120.109L81.2209 122.877V122.888Z" fill="#3058FE"/>
<path d="M101.842 139.234L104.563 135.586L107.822 136.861L105.097 140.509L101.842 139.234Z" fill="#FFFCED"/>
<path d="M84.7704 120.523C84.9499 120.614 85.1541 120.642 85.3514 120.604C85.5486 120.566 85.7276 120.463 85.8604 120.313L83.1356 123.946C83.0025 124.096 82.8238 124.198 82.6268 124.237C82.4299 124.276 82.2257 124.249 82.0457 124.16L84.7704 120.523Z" fill="#3058FE"/>
<path d="M84.7703 120.523L83.5859 122.107L82.7031 123.277L82.2017 123.945L82.0455 124.156C81.7832 124.067 81.5589 123.892 81.4092 123.659C81.2594 123.426 81.193 123.149 81.2208 122.874L83.9456 119.241L81.2208 122.874C81.2416 122.776 81.2838 122.684 81.3443 122.605L84.0691 118.972C84.0079 119.052 83.9657 119.145 83.9456 119.244C83.9173 119.519 83.9835 119.796 84.1334 120.028C84.2833 120.261 84.508 120.435 84.7703 120.523Z" fill="#3058FE"/>
<path d="M104.789 135.033L107.513 131.386L108.465 136.429L105.744 140.076L104.789 135.033Z" fill="#3058FE"/>
<path d="M107.822 136.861C107.917 136.91 108.026 136.925 108.131 136.906C108.237 136.886 108.332 136.832 108.404 136.752L105.679 140.385C105.608 140.465 105.512 140.519 105.407 140.54C105.302 140.56 105.193 140.545 105.097 140.497L107.822 136.861Z" fill="#FFFCED"/>
<path d="M108.404 136.752L105.679 140.385C105.711 140.339 105.734 140.287 105.745 140.232C105.756 140.177 105.756 140.12 105.744 140.065L108.465 136.432C108.478 136.487 108.478 136.544 108.468 136.599C108.457 136.654 108.435 136.706 108.404 136.752Z" fill="#3058FE"/>
<path d="M81.3445 122.619L84.0656 118.986C84.1992 118.836 84.3781 118.735 84.575 118.697C84.7719 118.659 84.9759 118.686 85.1556 118.775L82.4344 122.408C82.2546 122.32 82.0508 122.293 81.8541 122.331C81.6573 122.369 81.4783 122.47 81.3445 122.619Z" fill="#FFFCED"/>
<path d="M82.4342 122.405C82.6963 122.493 82.9205 122.667 83.0698 122.9C83.2191 123.132 83.2845 123.409 83.2553 123.684C83.1499 124.171 82.6086 124.389 82.0455 124.171C81.7832 124.082 81.5589 123.906 81.4092 123.673C81.2594 123.44 81.193 123.164 81.2208 122.888C81.3298 122.401 81.8711 122.187 82.4342 122.405Z" fill="#FFFCED"/>
<path d="M85.8569 120.312L83.1321 123.945C83.1934 123.865 83.2356 123.772 83.2556 123.673C83.2849 123.398 83.2194 123.121 83.0701 122.889C82.9208 122.656 82.6966 122.482 82.4346 122.394L85.1557 118.761C85.4177 118.849 85.6419 119.024 85.7917 119.256C85.9416 119.488 86.0081 119.765 85.9804 120.04C85.9573 120.138 85.9154 120.23 85.8569 120.312Z" fill="#FFFCED"/>
<path d="M98.4561 133.166L101.181 129.519L99.4807 133.184L96.7559 136.828L98.4561 133.166Z" fill="#3058FE"/>
<path d="M98.4963 133.104L101.217 129.471C101.204 129.492 101.192 129.514 101.181 129.537L98.4563 133.17C98.4666 133.146 98.48 133.124 98.4963 133.104Z" fill="#3058FE"/>
<path d="M98.4961 133.104L101.217 129.471C101.289 129.393 101.385 129.34 101.49 129.32C101.595 129.301 101.703 129.315 101.799 129.362L99.0774 132.995C98.9822 132.946 98.8733 132.93 98.7679 132.95C98.6626 132.969 98.5669 133.024 98.4961 133.104Z" fill="#FFFCED"/>
<path d="M100.549 133.9L103.274 130.256L104.12 135.081L101.399 138.728L100.549 133.9Z" fill="#FFFCED"/>
<path d="M99.0774 132.992L101.799 129.348L102.83 129.748L100.106 133.395L99.0774 132.992Z" fill="#FFFCED"/>
<path d="M102.892 129.776L100.167 133.409L100.106 133.38L102.831 129.747L102.892 129.776Z" fill="#FFFCED"/>
<path d="M102.892 129.777C102.984 129.826 103.063 129.894 103.126 129.977C103.189 130.06 103.233 130.155 103.256 130.256L100.531 133.889C100.511 133.787 100.467 133.691 100.404 133.608C100.342 133.524 100.26 133.457 100.167 133.41L102.892 129.777Z" fill="#FFFCED"/>
<path d="M104.854 134.71L107.579 131.077C107.545 131.123 107.521 131.176 107.51 131.232C107.499 131.288 107.5 131.345 107.513 131.401L104.788 135.034C104.776 134.978 104.776 134.921 104.787 134.865C104.798 134.809 104.821 134.757 104.854 134.71Z" fill="#3058FE"/>
<path d="M107.579 131.066C107.621 131.011 107.677 130.967 107.74 130.937C107.803 130.907 107.872 130.893 107.942 130.896L105.221 134.529C105.151 134.528 105.083 134.543 105.02 134.572C104.957 134.602 104.901 134.645 104.858 134.699L107.579 131.066Z" fill="#FFFCED"/>
<path d="M78.7651 118.14L81.4863 114.507C81.9724 114.909 82.5194 115.231 83.1066 115.462C84.5998 116.047 86.202 115.945 87.2665 115.059L84.5417 118.692C83.4772 119.578 81.8787 119.68 80.3819 119.099C79.7955 118.867 79.2498 118.543 78.7651 118.14Z" fill="#3058FE"/>
<path d="M93.2717 134.46L90.5506 138.093C87.3862 134.285 85.8276 129.562 86.7685 125.286C87.0762 123.847 87.6881 122.491 88.5633 121.308C89.4691 120.097 90.3762 118.886 91.2845 117.675C90.408 118.863 89.7972 120.226 89.4933 121.671C88.556 125.926 90.111 130.652 93.2717 134.46Z" fill="#3058FE"/>
<path d="M104.748 142.656C110.609 143.862 115.975 142.129 118.877 138.245L116.156 141.878C113.25 145.762 107.887 147.491 102.024 146.289L104.748 142.656Z" fill="#3058FE"/>
<path d="M118.296 137.809L115.571 141.442C112.265 145.875 105.617 147.386 98.8013 144.712L101.537 141.079C108.342 143.753 114.979 142.238 118.296 137.809Z" fill="#2545C6"/>
<path d="M101.65 140.508C108.189 143.052 114.536 141.62 117.704 137.384L114.979 141.017C111.811 145.257 105.461 146.699 98.9285 144.145L101.65 140.508Z" fill="#3058FE"/>
<path d="M91.2844 117.671C90.3798 118.888 89.4679 120.102 88.5632 121.304V121.286L91.288 117.653L91.2844 117.671Z" fill="#3058FE"/>
<path d="M114.416 148.461L117.141 144.817L122.209 140.588L119.484 144.236L114.416 148.461Z" fill="#6783F6"/>
<path d="M100.196 129.366L102.918 125.733C102.874 125.889 102.894 126.055 102.971 126.197C103.048 126.338 103.178 126.444 103.332 126.492L100.607 130.125C100.452 130.078 100.323 129.972 100.246 129.83C100.169 129.688 100.151 129.521 100.196 129.366Z" fill="#3058FE"/>
<path d="M100.611 130.122L103.332 126.474L105.214 127.212L102.493 130.856L100.611 130.122Z" fill="#3058FE"/>
<path d="M90.7033 117.232C90.868 117.014 91.0388 116.803 91.2156 116.599L88.4944 120.233C88.3128 120.436 88.1311 120.65 87.9785 120.868L90.7033 117.232Z" fill="#3058FE"/>
<path d="M102.492 130.859L105.214 127.226L105.279 127.251C105.723 127.451 106.227 127.476 106.689 127.32L103.964 130.953C103.502 131.107 102.999 131.083 102.554 130.884L102.492 130.859Z" fill="#3058FE"/>
<path d="M119.266 136.236C118.99 136.788 118.665 137.314 118.296 137.809L115.572 141.442C115.942 140.949 116.267 140.422 116.542 139.869L119.266 136.236Z" fill="#3058FE"/>
<path d="M107.488 126.739L104.767 130.372C104.565 130.642 104.284 130.841 103.964 130.943L106.689 127.31C107.009 127.209 107.288 127.009 107.488 126.739Z" fill="#3058FE"/>
<path d="M107.688 126.398C107.634 126.519 107.567 126.633 107.488 126.739L104.767 130.372C104.846 130.266 104.913 130.151 104.967 130.031L107.688 126.398Z" fill="#FFFCED"/>
<path d="M107.688 126.398L104.967 130.031L107.688 126.398Z" fill="#FFFCED"/>
<path d="M101.207 127.186L103.931 123.539L102.918 125.719L100.197 129.363L101.207 127.186Z" fill="#3058FE"/>
<path d="M101.243 127.124L103.968 123.491C103.953 123.509 103.941 123.529 103.931 123.549L101.207 127.182L101.243 127.124Z" fill="#3058FE"/>
<path d="M110.234 130.245C110.76 129.96 111.217 129.565 111.575 129.086L108.85 132.719C108.494 133.2 108.036 133.597 107.51 133.882L107.829 133.457C108.629 132.381 109.429 131.308 110.231 130.238L107.51 133.871C106.801 134.262 106.011 134.483 105.203 134.518L107.924 130.885C108.733 130.852 109.524 130.633 110.234 130.245Z" fill="#FFFCED"/>
<path d="M119.484 144.236C120.549 143.35 122.151 143.248 123.644 143.833C123.811 143.898 123.978 143.971 124.142 144.054C122.078 148.251 118.365 151.208 113.762 152.618C113.036 151.084 113.25 149.439 114.416 148.465L119.484 144.236Z" fill="#6783F6"/>
<path d="M119.484 144.236L122.209 140.603C123.274 139.716 124.872 139.615 126.369 140.2C126.536 140.265 126.7 140.338 126.863 140.421L124.142 144.054C123.978 143.971 123.811 143.898 123.644 143.833C122.151 143.259 120.549 143.349 119.484 144.236Z" fill="#6783F6"/>
<path d="M125.334 142.914L122.609 146.547C123.195 145.761 123.709 144.923 124.142 144.044L126.863 140.41C126.432 141.29 125.92 142.128 125.334 142.914Z" fill="#6783F6"/>
<path d="M101.243 127.124L103.967 123.491C104.039 123.411 104.134 123.357 104.239 123.336C104.344 123.316 104.453 123.331 104.549 123.379L101.828 127.012C101.731 126.964 101.622 126.95 101.516 126.97C101.411 126.99 101.315 127.044 101.243 127.124Z" fill="#FFFCED"/>
<path d="M107.659 125.093C107.77 125.294 107.83 125.518 107.836 125.747C107.841 125.977 107.79 126.203 107.688 126.409L104.967 130.042C105.067 129.837 105.117 129.61 105.111 129.382C105.105 129.154 105.045 128.93 104.934 128.73L107.659 125.093Z" fill="#FFFCED"/>
<path d="M101.828 127.012L104.549 123.368L106.453 124.109L103.731 127.756L101.828 127.012Z" fill="#FFFCED"/>
<path d="M103.717 127.76L106.438 124.127C106.947 124.288 107.378 124.635 107.644 125.097L104.92 128.73C104.654 128.268 104.225 127.922 103.717 127.76Z" fill="#FFFCED"/>
<path d="M98.307 122.285L101.032 118.638L95.1535 131.313L92.4287 134.961L98.307 122.285Z" fill="#FFFCED"/>
<path d="M98.3472 122.223L101.068 118.59C101.14 118.51 101.237 118.457 101.342 118.437C101.448 118.417 101.557 118.433 101.653 118.481L98.9285 122.114C98.8331 122.066 98.7244 122.051 98.6194 122.07C98.5143 122.09 98.4187 122.144 98.3472 122.223Z" fill="#3058FE"/>
<path d="M109.017 127.746C109.857 129.199 109.958 130.594 109.326 131.931C108.952 132.766 108.313 133.455 107.51 133.893C106.801 134.284 106.011 134.505 105.203 134.54C105.14 134.537 105.078 134.549 105.021 134.574C104.964 134.599 104.914 134.637 104.874 134.685C104.834 134.732 104.805 134.789 104.791 134.849C104.776 134.91 104.775 134.973 104.788 135.034L105.744 140.076C105.809 140.44 105.475 140.658 105.097 140.509L101.827 139.233C101.718 139.192 101.621 139.125 101.544 139.037C101.467 138.948 101.414 138.843 101.388 138.728L100.538 133.904C100.513 133.788 100.459 133.681 100.382 133.592C100.304 133.503 100.205 133.436 100.095 133.395L99.0664 132.996C98.9606 132.938 98.8363 132.923 98.7202 132.956C98.604 132.989 98.5053 133.065 98.4451 133.17L96.7448 136.832C96.684 136.935 96.5859 137.01 96.4709 137.043C96.3559 137.075 96.2328 137.062 96.1272 137.006L92.832 135.717C92.6776 135.67 92.5476 135.565 92.4701 135.424C92.3926 135.282 92.3738 135.116 92.4179 134.961L98.2961 122.285C98.3583 122.183 98.457 122.108 98.5723 122.075C98.6877 122.043 98.811 122.056 98.9174 122.111L105.195 124.567C106.803 125.144 108.157 126.27 109.017 127.746ZM104.966 130.042C105.067 129.837 105.117 129.61 105.111 129.382C105.105 129.154 105.045 128.93 104.934 128.73C104.668 128.268 104.239 127.92 103.731 127.757L101.827 127.03C101.722 126.974 101.598 126.96 101.483 126.992C101.367 127.023 101.268 127.098 101.206 127.201L100.196 129.381C100.152 129.535 100.17 129.701 100.247 129.842C100.324 129.984 100.453 130.089 100.607 130.136L102.492 130.863L102.554 130.888C102.999 131.086 103.502 131.111 103.964 130.957C104.187 130.886 104.391 130.768 104.565 130.611C104.738 130.453 104.875 130.261 104.966 130.045" fill="#3058FE"/>
<path d="M103.717 127.76C104.225 127.922 104.654 128.268 104.919 128.73C105.03 128.93 105.091 129.154 105.097 129.382C105.102 129.61 105.053 129.837 104.952 130.042C104.86 130.257 104.723 130.45 104.55 130.607C104.377 130.765 104.172 130.883 103.949 130.954C103.487 131.107 102.984 131.083 102.54 130.885L102.478 130.859L100.592 130.133C100.439 130.086 100.309 129.98 100.233 129.839C100.156 129.697 100.138 129.532 100.182 129.377L101.192 127.197C101.254 127.095 101.353 127.02 101.468 126.988C101.584 126.956 101.707 126.97 101.813 127.026L103.717 127.76Z" fill="#FFFCED"/>
<path d="M98.3471 122.223L101.068 118.59C101.054 118.611 101.042 118.633 101.032 118.656L98.3071 122.289C98.3181 122.265 98.3315 122.244 98.3471 122.223Z" fill="#FFFCED"/>
<path d="M124.451 136.04C124.631 136.129 124.835 136.156 125.032 136.117C125.229 136.078 125.408 135.976 125.541 135.826L122.819 139.459C122.686 139.609 122.507 139.711 122.31 139.749C122.113 139.787 121.909 139.759 121.729 139.67C122.547 138.591 123.637 137.134 124.451 136.04Z" fill="#3058FE"/>
<path d="M123.626 134.757C123.599 135.033 123.665 135.309 123.815 135.542C123.965 135.775 124.189 135.95 124.451 136.04L121.73 139.673C121.467 139.585 121.243 139.411 121.093 139.178C120.943 138.946 120.877 138.669 120.905 138.394L123.626 134.761L120.905 138.394C120.926 138.296 120.966 138.203 121.025 138.121L123.75 134.488C123.69 134.569 123.648 134.66 123.626 134.757Z" fill="#3058FE"/>
<path d="M84.5415 118.688L87.2663 115.041L92.3344 110.812L89.6133 114.459L84.5415 118.688Z" fill="#3058FE"/>
<path d="M121.025 138.133L123.749 134.5C123.883 134.349 124.061 134.247 124.258 134.208C124.455 134.17 124.659 134.197 124.839 134.285L122.115 137.918C121.935 137.83 121.73 137.803 121.533 137.841C121.336 137.88 121.158 137.982 121.025 138.133Z" fill="#FFFCED"/>
<path d="M92.8177 110.318L90.0966 113.951C89.9574 114.133 89.7991 114.3 89.6243 114.449L92.3454 110.816C92.522 110.669 92.6805 110.502 92.8177 110.318Z" fill="#3058FE"/>
<path d="M122.115 137.922C122.376 138.011 122.6 138.185 122.75 138.418C122.9 138.65 122.966 138.926 122.939 139.201C122.83 139.687 122.289 139.902 121.73 139.684C121.467 139.596 121.243 139.422 121.093 139.189C120.943 138.957 120.877 138.68 120.905 138.405C121.01 137.918 121.552 137.7 122.115 137.922Z" fill="#FFFCED"/>
<path d="M125.537 135.825L122.816 139.458C122.874 139.376 122.916 139.284 122.939 139.186C122.966 138.911 122.899 138.635 122.75 138.403C122.6 138.171 122.376 137.996 122.115 137.907L124.839 134.274C125.101 134.363 125.324 134.538 125.473 134.77C125.622 135.002 125.688 135.278 125.66 135.553C125.64 135.652 125.598 135.745 125.537 135.825Z" fill="#FFFCED"/>
<path d="M111.575 129.09L108.85 132.723C109.036 132.474 109.196 132.206 109.326 131.924C109.958 130.587 109.857 129.195 109.017 127.738L111.739 124.105C112.577 125.558 112.681 126.954 112.051 128.29C111.92 128.573 111.761 128.84 111.575 129.09Z" fill="#3058FE"/>
<path d="M98.9285 122.111L101.653 118.463L107.931 120.919L105.206 124.563L98.9285 122.111Z" fill="#3058FE"/>
<path d="M105.206 124.567L107.931 120.934C109.533 121.515 110.88 122.64 111.739 124.112L109.017 127.746C108.16 126.271 106.81 125.146 105.206 124.567Z" fill="#3058FE"/>
<path d="M125.9 136.835L128.625 133.202C128.587 134.333 128.446 135.458 128.204 136.563C127.915 137.899 127.465 139.194 126.863 140.421L124.142 144.054C124.741 142.826 125.191 141.531 125.482 140.196C125.722 139.091 125.861 137.966 125.9 136.835Z" fill="#1A41E0"/>
<path d="M128.625 133.188L125.9 136.821C125.653 136.762 125.411 136.687 125.174 136.596C124.415 136.304 123.725 135.856 123.15 135.281C122.575 134.706 122.127 134.016 121.835 133.257L124.56 129.624C124.852 130.382 125.299 131.071 125.874 131.645C126.448 132.22 127.137 132.667 127.895 132.959C128.133 133.052 128.377 133.128 128.625 133.188Z" fill="#3058FE"/>
<path d="M89.4496 109.054C91.0082 110.87 91.1063 113.213 89.6131 114.463L84.5268 118.688C83.4623 119.575 81.8638 119.677 80.3669 119.095C79.7808 118.864 79.2351 118.542 78.7502 118.14C80.7848 113.653 84.6358 110.51 89.4496 109.054Z" fill="#6783F6"/>
<path d="M80.5305 115.135L83.2553 111.502C85.4977 108.569 88.6252 106.437 92.1745 105.42L89.4497 109.053C85.8998 110.068 82.772 112.201 80.5305 115.135Z" fill="#A7B8FF"/>
<path d="M92.8176 110.318L90.0965 113.951C91.0738 112.639 90.8231 110.63 89.4607 109.039L92.1855 105.406C93.5443 106.997 93.7877 109.006 92.8176 110.318Z" fill="#6783F6"/>
<path d="M94.4453 112.378L96.5125 109.609L94.4453 112.378Z" fill="#3058FE"/>
<path d="M88.5742 121.3L91.2954 117.667C94.4634 113.428 100.814 111.985 107.35 114.543L104.625 118.176C98.0928 115.622 91.7277 117.064 88.5742 121.3Z" fill="#FFFCED"/>
<path d="M91.2156 116.599C94.667 112.661 100.992 111.419 107.477 113.955L104.752 117.588C98.271 115.045 91.9422 116.298 88.4944 120.233L89.8532 118.416L90.3872 117.689L90.8995 117.006C91.0012 116.897 91.1175 116.738 91.2156 116.599Z" fill="#3058FE"/>
<path d="M87.3972 120.443L90.122 116.81C93.5698 112.196 100.498 110.634 107.601 113.395L104.88 117.028C97.7732 114.249 90.845 115.825 87.3972 120.443Z" fill="#2545C6"/>
<path d="M98.4887 109.613C98.5961 109.605 98.7007 109.574 98.7957 109.524C98.8908 109.473 98.9743 109.403 99.0409 109.319L96.3161 112.952C96.2498 113.037 96.1664 113.107 96.0713 113.157C95.9762 113.208 95.8714 113.238 95.7639 113.246C95.5818 113.259 95.3991 113.231 95.2299 113.162C95.0512 113.094 94.8889 112.989 94.7537 112.854C94.6185 112.719 94.5133 112.556 94.4451 112.378L97.1772 108.745L94.456 112.378C94.4045 112.253 94.3851 112.118 94.3997 111.984C94.4143 111.85 94.4624 111.722 94.5396 111.611L97.2607 107.978C97.1848 108.089 97.1375 108.217 97.1229 108.351C97.1083 108.485 97.127 108.62 97.1772 108.745C97.2466 108.923 97.3526 109.085 97.4884 109.22C97.6241 109.355 97.7867 109.461 97.9656 109.529C98.1313 109.597 98.3102 109.625 98.4887 109.613Z" fill="#3058FE"/>
<path d="M94.5288 111.629L97.25 107.996C97.3166 107.912 97.4001 107.842 97.4952 107.791C97.5902 107.741 97.6948 107.71 97.8022 107.702C97.9843 107.689 98.167 107.717 98.3363 107.786L95.6115 111.419C95.4433 111.351 95.2616 111.324 95.081 111.339C94.9736 111.345 94.8687 111.374 94.7735 111.424C94.6783 111.475 94.5949 111.544 94.5288 111.629Z" fill="#FFFCED"/>
<path d="M99.0412 109.319L96.3164 112.952C96.3938 112.842 96.4421 112.713 96.4567 112.579C96.4713 112.445 96.4518 112.31 96.3999 112.185C96.3305 112.007 96.2245 111.845 96.0888 111.71C95.953 111.574 95.7904 111.469 95.6116 111.401L98.3364 107.768C98.5155 107.836 98.6782 107.941 98.8141 108.076C98.9499 108.211 99.0557 108.374 99.1247 108.552C99.1753 108.677 99.1941 108.812 99.1795 108.946C99.165 109.08 99.1174 109.208 99.0412 109.319Z" fill="#FFFCED"/>
<path d="M95.6114 111.415C95.7903 111.484 95.9529 111.589 96.0886 111.724C96.2244 111.859 96.3304 112.021 96.3998 112.2C96.4509 112.311 96.4742 112.432 96.4677 112.554C96.4611 112.675 96.425 112.794 96.3623 112.898C96.2996 113.003 96.2124 113.091 96.1081 113.154C96.0038 113.217 95.8857 113.254 95.764 113.261C95.582 113.274 95.3992 113.246 95.23 113.177C95.0513 113.109 94.8891 113.004 94.7538 112.869C94.6186 112.733 94.5134 112.571 94.4452 112.392C94.3949 112.282 94.3722 112.161 94.3791 112.04C94.3861 111.918 94.4224 111.801 94.485 111.697C94.5475 111.592 94.6345 111.505 94.7384 111.442C94.8422 111.379 94.9598 111.343 95.081 111.335C95.2616 111.32 95.4433 111.348 95.6114 111.415Z" fill="#FFFCED"/>
<path d="M117.704 137.38L114.983 141.013C115.866 139.826 116.486 138.463 116.8 137.017C118.373 129.845 112.93 121.395 104.64 118.161L107.364 114.528C115.651 117.765 121.097 126.209 119.521 133.38C119.211 134.829 118.591 136.194 117.704 137.38Z" fill="#FFFCED"/>
<path d="M119.266 136.236C119.265 136.244 119.265 136.253 119.266 136.261L116.56 139.894C116.969 139.073 117.275 138.204 117.471 137.308C118.427 132.948 116.887 128.116 113.719 124.185L116.443 120.552C119.611 124.487 121.166 129.311 120.193 133.675C119.991 134.563 119.68 135.424 119.266 136.236Z" fill="#3058FE"/>
<path d="M116.433 120.523L113.708 124.156C113.483 123.873 113.25 123.597 113.007 123.324L115.728 119.691C115.964 119.967 116.2 120.243 116.433 120.523Z" fill="#3058FE"/>
<path d="M114.376 118.318C114.849 118.761 115.299 119.219 115.72 119.695L112.999 123.328C112.574 122.856 112.127 122.394 111.655 121.955L114.376 118.318Z" fill="#3058FE"/>
<path d="M114.376 118.318L111.655 121.951C111.317 121.635 110.972 121.33 110.613 121.035L113.337 117.402C113.693 117.697 114.042 118.002 114.376 118.318Z" fill="#3058FE"/>
<path d="M107.477 113.954C109.6 114.787 111.578 115.951 113.337 117.402L110.612 121.035C108.853 119.583 106.875 118.418 104.752 117.584L107.477 113.954Z" fill="#3058FE"/>
<path d="M103.717 109.199L100.992 112.832C100.76 112.695 100.538 112.542 100.327 112.374C101.233 111.163 102.14 109.952 103.048 108.741C103.26 108.909 103.483 109.062 103.717 109.199Z" fill="#3058FE"/>
<path d="M103.717 109.199C103.989 109.361 104.275 109.501 104.571 109.617L101.846 113.25C101.55 113.133 101.265 112.993 100.992 112.832L103.717 109.199Z" fill="#3058FE"/>
<path d="M104.879 117.028C113.886 120.549 119.826 129.744 118.115 137.551C116.403 145.359 107.684 148.814 98.6741 145.304C89.6641 141.795 83.7313 132.589 85.4425 124.778C87.1537 116.967 95.873 113.508 104.879 117.028ZM98.8012 144.734C107.444 148.113 115.811 144.774 117.45 137.293C119.088 129.813 113.395 120.977 104.752 117.599C96.1091 114.22 87.7422 117.555 86.1037 125.036C84.4652 132.516 90.1582 141.352 98.8194 144.734" fill="#2545C6"/>
<path d="M104.625 118.191C112.916 121.431 118.358 129.875 116.785 137.046C115.212 144.218 107.216 147.411 98.9286 144.171C90.6415 140.93 85.1883 132.469 86.7687 125.297C88.3491 118.125 96.3382 114.921 104.625 118.191ZM109.326 131.945C109.959 130.608 109.857 129.217 109.018 127.76C108.16 126.286 106.811 125.161 105.206 124.581L98.9286 122.125C98.8222 122.07 98.6989 122.057 98.5835 122.09C98.4682 122.122 98.3694 122.197 98.3073 122.3L92.429 134.975C92.385 135.13 92.4038 135.297 92.4813 135.438C92.5587 135.579 92.6888 135.685 92.8432 135.731L96.1384 137.021C96.244 137.077 96.3671 137.09 96.4821 137.057C96.5971 137.025 96.6952 136.949 96.756 136.846L98.4563 133.184C98.5165 133.08 98.6152 133.003 98.7313 132.97C98.8475 132.938 98.9717 132.952 99.0775 133.01L100.106 133.41C100.217 133.45 100.315 133.518 100.393 133.607C100.47 133.696 100.524 133.803 100.549 133.918L101.399 138.743C101.425 138.857 101.478 138.963 101.555 139.051C101.632 139.139 101.729 139.207 101.839 139.248L105.108 140.523C105.472 140.672 105.835 140.45 105.755 140.091L104.807 135.033C104.793 134.973 104.794 134.91 104.809 134.849C104.824 134.789 104.852 134.732 104.892 134.685C104.932 134.637 104.983 134.599 105.04 134.574C105.097 134.549 105.159 134.537 105.221 134.539C106.03 134.505 106.819 134.284 107.528 133.893C108.333 133.456 108.971 132.767 109.345 131.931" fill="#FFFCED"/>
<path d="M118.881 138.242L116.156 141.875C117.113 140.586 117.781 139.107 118.115 137.537C119.826 129.744 113.886 120.534 104.879 117.014L107.601 113.381C116.611 116.905 122.547 126.096 120.839 133.907C120.504 135.475 119.836 136.953 118.881 138.242Z" fill="#2545C6"/>
<path d="M119.277 126.06L122.002 122.412L124.567 129.624L121.842 133.271L119.277 126.06Z" fill="#3058FE"/>
<path d="M114.587 120.618L116.654 117.849L114.587 120.618Z" fill="#3058FE"/>
<path d="M118.769 117.192C118.811 117.157 118.849 117.118 118.881 117.075L116.157 120.708C116.125 120.753 116.087 120.794 116.044 120.828C115.904 120.929 115.74 120.991 115.568 121.008C115.396 121.024 115.223 120.995 115.067 120.923C114.887 120.852 114.723 120.744 114.587 120.607L117.308 116.974L114.587 120.607C114.409 120.462 114.289 120.259 114.248 120.034C114.207 119.808 114.249 119.576 114.365 119.379L117.09 115.746C116.974 115.944 116.933 116.177 116.974 116.402C117.014 116.628 117.134 116.832 117.312 116.977C117.448 117.114 117.612 117.222 117.791 117.293C117.949 117.365 118.122 117.393 118.294 117.375C118.466 117.357 118.629 117.294 118.769 117.192Z" fill="#3058FE"/>
<path d="M119.633 122.808L122.354 119.175C122.028 119.643 121.823 120.186 121.76 120.753C121.696 121.32 121.776 121.894 121.991 122.423L119.266 126.056C119.052 125.527 118.974 124.953 119.038 124.386C119.102 123.819 119.306 123.276 119.633 122.808Z" fill="#3058FE"/>
<path d="M114.365 119.39L117.09 115.756C117.122 115.711 117.16 115.671 117.203 115.637C117.343 115.536 117.507 115.474 117.679 115.457C117.85 115.441 118.024 115.47 118.18 115.542L115.455 119.175C115.299 119.103 115.126 119.074 114.954 119.09C114.782 119.107 114.618 119.169 114.478 119.27C114.436 119.305 114.398 119.345 114.365 119.39Z" fill="#FFFCED"/>
<path d="M115.455 119.175C115.638 119.244 115.803 119.352 115.938 119.491C116.371 119.924 116.422 120.527 116.044 120.839C115.904 120.94 115.74 121.002 115.568 121.019C115.396 121.035 115.223 121.006 115.067 120.934C114.886 120.863 114.723 120.755 114.587 120.618C114.151 120.182 114.104 119.579 114.478 119.27C114.618 119.169 114.782 119.107 114.954 119.09C115.126 119.074 115.299 119.103 115.455 119.175Z" fill="#FFFCED"/>
<path d="M118.881 117.075L116.156 120.708C116.273 120.512 116.315 120.279 116.275 120.054C116.235 119.829 116.116 119.625 115.939 119.48C115.803 119.341 115.638 119.233 115.455 119.164L118.18 115.531C118.359 115.604 118.522 115.711 118.66 115.847C118.837 115.992 118.957 116.195 118.997 116.42C119.038 116.646 118.997 116.878 118.881 117.075Z" fill="#FFFCED"/>
<path d="M119.633 122.808L122.354 119.175C122.703 118.715 123.176 118.363 123.717 118.162L120.996 121.795C120.454 121.996 119.981 122.347 119.633 122.808Z" fill="#6783F6"/>
<path d="M100.996 104.603C100.865 106.078 101.682 107.67 103.037 108.741C102.129 109.952 101.222 111.163 100.316 112.374C98.9576 111.284 98.1365 109.711 98.2709 108.236L100.996 104.603Z" fill="#3058FE"/>
<path d="M101.835 113.261L104.56 109.617L112.193 112.599L109.472 116.247L101.835 113.261Z" fill="#3058FE"/>
<path d="M116.534 112.014L113.813 115.647C112.836 116.61 111.175 116.89 109.453 116.221L112.178 112.588C113.889 113.268 115.561 112.992 116.534 112.014Z" fill="#3058FE"/>
<path d="M98.2673 108.251C100.956 108.518 103.595 109.158 106.107 110.154C109.078 111.321 111.863 112.911 114.376 114.877C113.617 116.458 111.575 117.057 109.464 116.251L101.835 113.268C99.6115 112.378 98.0965 110.216 98.2673 108.251Z" fill="#6783F6"/>
<path d="M125.9 136.835C125.862 137.966 125.722 139.091 125.483 140.196C125.191 141.531 124.741 142.826 124.142 144.054C123.978 143.971 123.811 143.898 123.644 143.833C122.151 143.248 120.549 143.35 119.484 144.236L114.416 148.465C113.25 149.439 113.05 151.084 113.762 152.617C111.119 153.405 108.353 153.704 105.602 153.5C105.36 152.641 104.92 151.85 104.317 151.191C103.713 150.532 102.964 150.024 102.129 149.707L94.4998 146.725C92.6106 145.998 90.7759 146.409 89.8677 147.64C87.3034 145.808 85.0144 143.618 83.0702 141.137C84.6397 140.479 85.3554 138.779 84.6905 136.912L82.1474 129.7C81.8554 128.941 81.4074 128.252 80.8323 127.676C80.2572 127.101 79.5678 126.653 78.8086 126.361C78.3134 126.161 77.7901 126.038 77.2573 125.998C77.2182 124.482 77.3609 122.967 77.6824 121.486C77.9288 120.332 78.294 119.207 78.7723 118.129C79.2572 118.531 79.8029 118.854 80.389 119.084C81.8858 119.666 83.4844 119.564 84.5489 118.677L89.6351 114.452C91.1283 113.202 91.0302 110.852 89.4716 109.043C92.3248 108.212 95.3118 107.943 98.2673 108.251C98.0929 110.216 99.6079 112.392 101.831 113.264L109.461 116.247C111.572 117.072 113.613 116.454 114.373 114.874C116.903 116.839 119.132 119.165 120.988 121.776C119.354 122.405 118.598 124.138 119.27 126.042L121.835 133.253C122.127 134.012 122.575 134.702 123.15 135.277C123.725 135.852 124.415 136.3 125.174 136.592C125.41 136.689 125.653 136.771 125.9 136.835ZM98.6742 145.304C107.684 148.828 116.407 145.348 118.115 137.551C119.822 129.755 113.889 120.548 104.879 117.028C95.8695 113.508 87.1501 116.984 85.4426 124.777C83.7351 132.57 89.6678 141.784 98.6742 145.304ZM82.0457 124.171C82.6088 124.389 83.1356 124.171 83.2555 123.684C83.2847 123.409 83.2192 123.132 83.0699 122.9C82.9206 122.667 82.6964 122.493 82.4344 122.405C81.8713 122.187 81.3445 122.405 81.221 122.888C81.1931 123.164 81.2595 123.441 81.4093 123.673C81.5591 123.906 81.7834 124.082 82.0457 124.171ZM121.73 139.684C122.289 139.902 122.82 139.684 122.939 139.201C122.966 138.926 122.9 138.65 122.75 138.418C122.6 138.185 122.376 138.011 122.115 137.922C121.552 137.7 121.025 137.922 120.905 138.405C120.877 138.68 120.943 138.957 121.093 139.189C121.243 139.422 121.467 139.596 121.73 139.684ZM95.0811 111.346C94.9599 111.353 94.8423 111.39 94.7385 111.453C94.6346 111.516 94.5476 111.603 94.485 111.707C94.4225 111.811 94.3861 111.929 94.3792 112.05C94.3723 112.172 94.395 112.293 94.4453 112.403C94.5135 112.582 94.6187 112.744 94.7539 112.879C94.8891 113.015 95.0514 113.12 95.2301 113.188C95.3993 113.256 95.582 113.285 95.7641 113.271C95.8858 113.264 96.0039 113.228 96.1082 113.164C96.2125 113.101 96.2997 113.014 96.3624 112.909C96.425 112.804 96.4612 112.686 96.4677 112.564C96.4743 112.443 96.451 112.321 96.3999 112.211C96.3305 112.032 96.2245 111.87 96.0887 111.735C95.9529 111.6 95.7904 111.494 95.6115 111.426C95.4434 111.358 95.2617 111.331 95.0811 111.346ZM109.083 150.765C109.204 150.757 109.322 150.721 109.426 150.658C109.529 150.595 109.616 150.507 109.679 150.403C109.742 150.299 109.778 150.182 109.785 150.06C109.792 149.939 109.769 149.818 109.719 149.707C109.649 149.529 109.543 149.367 109.408 149.232C109.272 149.097 109.109 148.991 108.93 148.923C108.763 148.854 108.581 148.826 108.4 148.843C108.278 148.85 108.16 148.886 108.056 148.949C107.952 149.011 107.864 149.099 107.801 149.203C107.738 149.307 107.702 149.425 107.695 149.546C107.687 149.668 107.71 149.789 107.76 149.9C107.83 150.079 107.936 150.241 108.072 150.376C108.207 150.511 108.37 150.616 108.549 150.685C108.718 150.754 108.901 150.782 109.083 150.765ZM89.6824 142.834C90.0457 142.521 90.0057 141.918 89.577 141.486C89.4384 141.347 89.2726 141.238 89.0902 141.166C88.9334 141.094 88.76 141.064 88.5881 141.082C88.4163 141.099 88.2521 141.162 88.1129 141.264C87.7496 141.573 87.7895 142.18 88.2219 142.612C88.3587 142.75 88.5234 142.858 88.7051 142.928C88.8617 143 89.0348 143.03 89.2065 143.013C89.3782 142.997 89.5424 142.935 89.6824 142.834ZM114.478 119.281C114.115 119.589 114.151 120.192 114.587 120.628C114.723 120.766 114.887 120.874 115.067 120.944C115.223 121.017 115.396 121.046 115.568 121.029C115.74 121.013 115.904 120.951 116.044 120.85C116.407 120.538 116.371 119.934 115.939 119.502C115.803 119.363 115.638 119.255 115.455 119.186C115.299 119.114 115.126 119.084 114.954 119.101C114.782 119.118 114.618 119.18 114.478 119.281Z" fill="#3058FE"/>
<path d="M104.752 117.598C96.109 114.22 87.7421 117.555 86.1036 125.035C84.4651 132.516 90.1581 141.351 98.8193 144.734C107.48 148.116 115.829 144.774 117.468 137.293C119.106 129.813 113.395 120.977 104.752 117.598ZM116.796 137.032C115.223 144.203 107.226 147.397 98.9392 144.156C90.6521 140.915 85.188 132.468 86.7684 125.297C88.3488 118.125 96.3379 114.921 104.625 118.19C112.912 121.46 118.358 129.874 116.785 137.046" fill="#3058FE"/>
<path d="M89.45 109.054L92.1747 105.42C95.0352 104.583 98.0312 104.31 100.996 104.618L98.271 108.251C95.3064 107.944 92.3104 108.216 89.45 109.054Z" fill="#5878FE"/>
<path d="M120.996 121.795L123.717 118.162C126.987 122.801 128.803 128.098 128.625 133.199L125.9 136.832C126.079 131.731 124.262 126.434 120.996 121.795Z" fill="#A7B8FF"/>
<path d="M120.996 121.795C124.265 126.434 126.082 131.731 125.9 136.836C125.653 136.777 125.411 136.702 125.174 136.61C124.415 136.318 123.725 135.87 123.15 135.295C122.575 134.72 122.127 134.031 121.835 133.272L119.27 126.06C118.612 124.156 119.361 122.423 120.996 121.795Z" fill="#6783F6"/>
<path d="M116.534 112.014C116.636 111.914 116.731 111.806 116.818 111.691L114.093 115.324C114.009 115.441 113.915 115.55 113.813 115.651L115.895 112.865L116.215 112.432L116.258 112.378L116.342 112.265L116.382 112.211C116.433 112.163 116.48 112.091 116.534 112.014Z" fill="#3058FE"/>
<path d="M116.818 111.702L114.096 115.335C114.207 115.188 114.302 115.029 114.38 114.863L117.105 111.23C117.024 111.396 116.928 111.554 116.818 111.702Z" fill="#6783F6"/>
<path d="M114.38 114.873L117.105 111.24C119.637 113.203 121.865 115.529 123.717 118.143L120.996 121.776C119.139 119.165 116.91 116.839 114.38 114.873Z" fill="#4C6EF8"/>
<path d="M98.2673 108.251L100.992 104.617C103.681 104.887 106.319 105.527 108.832 106.521C111.802 107.689 114.587 109.28 117.101 111.244L114.376 114.877C111.863 112.911 109.078 111.32 106.107 110.154C103.595 109.158 100.957 108.518 98.2673 108.251Z" fill="#A7B8FF"/>
<path d="M105.62 134.814C105.547 134.816 105.476 134.835 105.411 134.868C105.346 134.901 105.289 134.948 105.243 135.005C105.198 135.063 105.166 135.129 105.149 135.2C105.132 135.271 105.13 135.345 105.145 135.417L105.922 140.26C105.991 140.699 105.584 140.986 105.119 140.786L101.65 139.435C101.51 139.382 101.385 139.294 101.289 139.179C101.192 139.065 101.126 138.928 101.097 138.781L100.483 134.349C100.455 134.201 100.389 134.064 100.293 133.95C100.196 133.835 100.071 133.747 99.9311 133.695L99.4115 133.495C99.2798 133.426 99.1266 133.411 98.9838 133.452C98.8411 133.493 98.7197 133.588 98.645 133.716L97.0718 137.128C96.9977 137.258 96.8759 137.354 96.7322 137.396C96.5886 137.438 96.4342 137.423 96.3016 137.353L92.763 135.965C92.5717 135.906 92.411 135.775 92.3152 135.599C92.2195 135.423 92.1964 135.217 92.2508 135.024L98.0637 122.421C98.1383 122.293 98.26 122.198 98.403 122.158C98.5459 122.117 98.6991 122.133 98.8303 122.203L105.137 124.666C106.787 125.254 108.182 126.394 109.086 127.893C109.504 128.528 109.75 129.26 109.799 130.019C109.848 130.778 109.699 131.536 109.366 132.22C108.676 133.731 107.427 134.596 105.62 134.814ZM104.483 130.163C104.572 129.991 104.616 129.799 104.612 129.605C104.608 129.411 104.556 129.221 104.461 129.052C104.243 128.667 103.887 128.379 103.466 128.245L102.067 127.696C101.935 127.627 101.781 127.612 101.638 127.654C101.495 127.696 101.374 127.792 101.301 127.922L100.625 129.375C100.57 129.568 100.592 129.774 100.688 129.95C100.784 130.127 100.945 130.258 101.137 130.316L102.343 130.788L102.431 130.825C102.805 130.992 103.226 131.025 103.622 130.919C103.816 130.868 103.996 130.771 104.145 130.637C104.295 130.503 104.411 130.336 104.483 130.149" fill="#3058FE"/>
<path d="M76.512 20.9087C76.4749 20.8351 76.4428 20.7591 76.416 20.6811C75.8945 19.4367 75.373 18.1911 74.8516 16.9443C75.0415 17.1834 75.1971 17.4479 75.3138 17.73L76.9742 21.6945C76.8539 21.4141 76.6986 21.1501 76.512 20.9087Z" fill="#FE3030"/>
<path d="M82.6346 22.4447L81.9235 20.7203L80.9919 18.4803C81.1968 18.4343 81.4093 18.4343 81.6142 18.4803L81.8062 18.9461L82.0124 19.4367L82.2257 19.9452L82.4426 20.4643L82.6595 20.9834L82.8728 21.4918L83.079 21.9825L83.271 22.4483C83.0622 22.3963 82.844 22.395 82.6346 22.4447Z" fill="#FE3030"/>
<path d="M83.2533 22.4411L81.5964 18.4731L81.7884 18.9389L81.9947 19.4295L82.208 19.938L82.4249 20.4571L82.6418 20.9762L82.8551 21.4846L83.0613 21.9753L83.2533 22.4411Z" fill="#FE3030"/>
<path d="M87.3921 21.1719L85.7494 17.2075C85.4026 16.3491 85.3937 15.3913 85.7245 14.5266L87.3921 18.491C87.0532 19.3525 87.0532 20.3104 87.3921 21.1719Z" fill="#FE3030"/>
<path d="M79.897 19.753L80.0427 20.1085L80.1921 20.4641L80.3485 20.8374L80.5085 21.2214L80.6721 21.609L80.8356 22.0001L80.9956 22.3876L81.1556 22.7681L79.897 19.7565V19.753Z" fill="#FE3030"/>
<path d="M81.5575 23.7173C81.5645 23.7895 81.5825 23.8603 81.6108 23.9271L79.954 19.9591C79.9255 19.8933 79.9063 19.8239 79.8971 19.7529C80.4517 21.0755 81.004 22.397 81.5539 23.7173C81.004 22.3946 80.4517 21.0732 79.8971 19.7529C79.826 19.2018 80.3095 18.6293 80.9637 18.48L82.6242 22.4444C81.9664 22.5937 81.4828 23.1804 81.5575 23.7173Z" fill="#FE3030"/>
<path d="M83.9182 22.9602C83.8565 22.8271 83.764 22.7106 83.6484 22.6204C83.5328 22.5301 83.3974 22.4686 83.2533 22.4411L81.5964 18.4731C81.7401 18.5018 81.8749 18.5642 81.9899 18.655C82.1048 18.7458 82.1966 18.8626 82.2578 18.9957L83.9182 22.9602Z" fill="#FE3030"/>
<path d="M75.3031 17.7299L76.9636 21.6943C77.6533 23.3476 76.9635 25.4347 75.1111 26.8356L73.4507 22.8712C75.3209 21.4703 76.0142 19.3832 75.3031 17.7299Z" fill="#F67067"/>
<path d="M82.2577 18.9955L83.9181 22.9599C83.9434 23.0265 83.9613 23.0957 83.9715 23.1662C84.039 23.7173 83.559 24.2897 82.9048 24.439C82.7001 24.4869 82.4872 24.4869 82.2826 24.439C82.1393 24.4107 82.0047 24.3489 81.8897 24.2587C81.7748 24.1685 81.6828 24.0524 81.6212 23.9199L79.9644 19.952C80.0239 20.0852 80.1148 20.202 80.2294 20.2924C80.3439 20.3828 80.4787 20.4441 80.6221 20.4711C80.8268 20.5191 81.0397 20.5191 81.2444 20.4711C81.9092 20.3217 82.3928 19.76 82.311 19.1982C82.3026 19.1285 82.2846 19.0603 82.2577 18.9955Z" fill="#FFFCED"/>
<path d="M81.5965 18.473C81.7727 18.5063 81.9349 18.592 82.0617 18.7188C82.1886 18.8457 82.2742 19.0078 82.3076 19.1841C82.3751 19.7352 81.8916 20.3076 81.2409 20.4569C81.0363 20.505 80.8233 20.505 80.6187 20.4569C80.4412 20.4265 80.2775 20.3417 80.1501 20.2144C80.0228 20.087 79.9381 19.9233 79.9076 19.7458C79.8365 19.1947 80.32 18.6223 80.9742 18.473C81.1791 18.427 81.3916 18.427 81.5965 18.473Z" fill="#FFFCED"/>
<path d="M73.4615 22.8676L75.1219 26.8321L67.7655 32.3716L66.1086 28.4072L73.4615 22.8676Z" fill="#F67067"/>
<path d="M87.3919 21.1718L85.7493 17.2074C86.0056 17.7751 86.3945 18.273 86.8833 18.659C87.3721 19.0451 87.9465 19.3082 88.5581 19.4261L90.2364 23.3905C89.6181 23.2784 89.0363 23.018 88.5408 22.6316C88.0454 22.2451 87.6511 21.7442 87.3919 21.1718Z" fill="#F67067"/>
<path d="M66.1085 28.4073L67.7654 32.3717C67.0431 32.9239 66.2104 33.3142 65.3239 33.516C64.4374 33.7179 63.5178 33.7265 62.6276 33.5415C62.0242 33.4049 61.4561 33.1433 60.9601 32.7735L59.3032 28.8091C59.8006 29.1789 60.3698 29.4405 60.9743 29.5771C61.864 29.7614 62.7828 29.7523 63.6686 29.5505C64.5544 29.3486 65.3865 28.9588 66.1085 28.4073Z" fill="#F67067"/>
<path d="M62.4749 32.8693L62.6171 33.2248L62.77 33.5804L62.9264 33.9573L63.0864 34.3377L63.25 34.7288L63.41 35.1164L63.5735 35.5039L63.7335 35.8844L62.4749 32.8764V32.8693Z" fill="#FE3030"/>
<path d="M62.5317 37.5734C62.4712 37.6874 62.4361 37.8132 62.4287 37.942C62.4214 38.0709 62.4419 38.1998 62.489 38.32L60.8286 34.3556C60.7815 34.2354 60.7609 34.1065 60.7683 33.9776C60.7757 33.8487 60.8108 33.723 60.8713 33.6089L62.5317 37.5734L60.8713 33.6089C61.0243 33.3304 61.2627 33.1083 61.5513 32.9752C61.8399 32.8421 62.1636 32.805 62.4748 32.8694C63.0247 34.1873 63.577 35.5088 64.1317 36.8338C63.5818 35.5112 63.0295 34.1897 62.4748 32.8694C62.6181 32.8966 62.7527 32.958 62.8673 33.0484C62.9818 33.1388 63.0728 33.2554 63.1326 33.3885L64.793 37.3529C64.7331 37.2193 64.6417 37.1022 64.5264 37.0117C64.4112 36.9213 64.2757 36.8602 64.1317 36.8338C63.8209 36.7691 63.4976 36.8061 63.2095 36.9392C62.9214 37.0724 62.6837 37.2947 62.5317 37.5734Z" fill="#FE3030"/>
<path d="M63.1326 33.3886L64.793 37.3531C64.8403 37.4726 64.861 37.601 64.8536 37.7293C64.8462 37.8576 64.811 37.9828 64.7504 38.0962C64.5984 38.376 64.3605 38.5996 64.0718 38.734C63.7831 38.8685 63.4588 38.9066 63.1468 38.8428C63.0035 38.8144 62.869 38.7521 62.7546 38.6612C62.6402 38.5703 62.5491 38.4534 62.489 38.3202L60.8286 34.3557C60.889 34.4891 60.9806 34.6059 61.0957 34.6962C61.2109 34.7866 61.3461 34.8479 61.4899 34.8749C61.8016 34.9395 62.1258 34.9022 62.4145 34.7683C62.7033 34.6345 62.9414 34.4113 63.0935 34.1317C63.1526 34.0178 63.1867 33.8926 63.1935 33.7644C63.2002 33.6363 63.1795 33.5081 63.1326 33.3886Z" fill="#FFFCED"/>
<path d="M62.4749 32.8694C62.6109 32.8912 62.7397 32.9454 62.8504 33.0273C62.9611 33.1093 63.0505 33.2166 63.1112 33.3403C63.1718 33.464 63.2018 33.6004 63.1988 33.7381C63.1957 33.8758 63.1596 34.0108 63.0936 34.1316C62.9414 34.4112 62.7034 34.6344 62.4146 34.7682C62.1258 34.9021 61.8017 34.9394 61.49 34.8747C61.3535 34.8531 61.2242 34.7989 61.1131 34.7168C61.002 34.6346 60.9122 34.5269 60.8516 34.4027C60.7909 34.2786 60.761 34.1416 60.7644 34.0034C60.7679 33.8653 60.8046 33.73 60.8714 33.609C61.024 33.33 61.2623 33.1076 61.551 32.9744C61.8398 32.8413 62.1637 32.8044 62.4749 32.8694Z" fill="#FFFCED"/>
<path d="M96.8852 21.3814L98.5456 25.3458L90.2185 23.3903L88.5581 19.4259L96.8852 21.3814Z" fill="#F67067"/>
<path d="M103.214 19.0206L104.875 22.985C104.145 23.9302 103.166 24.6525 102.048 25.0704C100.929 25.4882 99.7161 25.5849 98.5457 25.3494L96.8853 21.4028C98.0574 21.6388 99.2723 21.5406 100.391 21.1194C101.51 20.6982 102.488 19.9709 103.214 19.0206Z" fill="#F67067"/>
<path d="M82.4569 29.6767L84.1138 33.6411C83.9658 33.6103 83.8122 33.6219 83.6706 33.6748C83.529 33.7277 83.4053 33.8195 83.3138 33.9398L81.6533 29.9754C81.7457 29.8551 81.8701 29.7634 82.0122 29.7105C82.1543 29.6577 82.3084 29.646 82.4569 29.6767Z" fill="#FFFCED"/>
<path d="M58.592 41.8222C58.0098 41.6864 57.4095 41.6456 56.8142 41.7013L55.1538 37.7369C55.7489 37.6824 56.3488 37.722 56.9316 37.8543C57.4815 39.1769 58.0338 40.4984 58.5885 41.8187L58.1902 40.8658L56.9316 37.8578C57.5425 37.9761 58.1164 38.2385 58.6055 38.6231C59.0946 39.0078 59.485 39.5036 59.744 40.0694L61.4044 44.0338C61.1454 43.468 60.7551 42.9722 60.2659 42.5876C59.7768 42.2029 59.2029 41.9405 58.592 41.8222Z" fill="#FE3030"/>
<path d="M59.73 40.0695L61.3904 44.0339C61.506 44.3166 61.5848 44.613 61.6251 44.9157L59.9646 40.9584C59.9267 40.6529 59.8478 40.3539 59.73 40.0695Z" fill="#F67067"/>
<path d="M103.701 27.8027L102.873 25.8188C102.596 25.1574 102.318 24.4996 102.044 23.8383C102.213 23.708 102.409 23.6161 102.617 23.5688C102.825 23.5215 103.041 23.5201 103.25 23.5645L103.442 24.0268L103.545 24.2685L103.755 24.7699L103.968 25.2854L104.188 25.8045L104.295 26.0641L104.402 26.3201L104.612 26.8214L104.811 27.3014C104.857 27.3703 104.89 27.4476 104.907 27.529C104.698 27.4845 104.482 27.4859 104.274 27.5332C104.066 27.5805 103.87 27.6725 103.701 27.8027Z" fill="#FE3030"/>
<path d="M104.906 27.5325C104.354 26.2098 103.802 24.8884 103.25 23.5681L103.442 24.0303L103.648 24.521L103.861 25.0294L104.078 25.5485L104.295 26.0676L104.508 26.5761L104.714 27.0667L104.906 27.5325Z" fill="#FE3030"/>
<path d="M105.397 27.8027C105.195 27.312 104.988 26.8249 104.786 26.3378C104.43 25.5058 104.075 24.6703 103.737 23.849C103.847 23.8881 103.801 24.0018 103.833 24.0765L104.032 24.5565L104.139 24.8054L104.352 25.3138L104.569 25.8329L104.675 26.0925L104.892 26.608L105.102 27.1094L105.202 27.3512L105.397 27.8027Z" fill="#FE3030"/>
<path d="M105.397 27.8026C105.263 27.6679 105.092 27.5753 104.906 27.536C104.354 26.2133 103.802 24.8918 103.25 23.5715C103.434 23.6103 103.603 23.7017 103.737 23.8347L103.932 24.2969L104.032 24.5387L104.242 25.04L104.352 25.296L105.397 27.7849V27.8026Z" fill="#FE3030"/>
<path d="M103.701 27.8029C103.504 27.9269 103.354 28.1132 103.275 28.3322C103.196 28.5512 103.192 28.7904 103.264 29.0118L101.614 25.0509C101.546 24.8289 101.552 24.5907 101.632 24.3725C101.712 24.1543 101.86 23.9681 102.055 23.8421C102.539 25.0296 103.204 26.6154 103.701 27.8029Z" fill="#FE3030"/>
<path d="M105.571 28.0552C105.531 27.9589 105.472 27.8718 105.397 27.7992L103.747 23.8312C103.822 23.9057 103.881 23.9938 103.922 24.0908L105.571 28.0552Z" fill="#FE3030"/>
<path d="M66.0588 41.6374C65.1275 44.653 65.2682 47.8978 66.457 50.8214L64.8001 46.857C63.6078 43.9342 63.467 40.6881 64.4019 37.673L64.5939 38.1388L64.8001 38.6295L65.0135 39.1379L65.2304 39.657L65.3406 39.9166L65.5539 40.4321L65.6606 40.6846L65.7637 40.9334L65.8668 41.1752C65.9535 41.3188 66.0183 41.4746 66.0588 41.6374Z" fill="#FE3030"/>
<path d="M67.1254 38.9318C66.6938 39.8019 66.337 40.7071 66.0587 41.6376C65.5064 40.3173 64.9541 38.9958 64.4019 37.6731C64.6801 36.7426 65.0369 35.8375 65.4685 34.9674C69.8063 26.1105 81.3155 20.7772 91.1217 23.0848C96.3306 24.3079 100.011 27.4439 101.696 31.4439L103.356 35.4083C101.685 31.4083 97.9874 28.2723 92.7786 27.0492C82.9546 24.7417 71.4454 30.075 67.1254 38.9318Z" fill="#FE3030"/>
<path d="M101.024 31.7139L102.681 35.6784C101.07 31.8242 97.504 28.7984 92.4836 27.618C83.0223 25.3958 71.9255 30.5371 67.7406 39.081C65.778 43.0881 65.682 47.1414 67.1042 50.5476L65.4473 46.5832C64.0251 43.177 64.1211 39.1166 66.0802 35.1166C70.265 26.5833 81.369 21.4278 90.8231 23.6536C95.8436 24.834 99.4098 27.8597 101.024 31.7139Z" fill="#C62525"/>
<path d="M98.8621 31.7425C98.5705 31.4794 98.2647 31.2234 97.9447 30.9816C97.3948 29.6589 96.8425 28.3375 96.2878 27.0172C96.6078 27.259 96.9136 27.5114 97.2016 27.7781L97.319 28.0554L97.4398 28.3505L97.5678 28.6527L97.6994 28.9656L97.8274 29.2749L97.9554 29.5807L98.0798 29.8758L98.1936 30.1496L98.2718 30.3381L98.3536 30.5336L98.4389 30.7398L98.5278 30.946L98.6132 31.1558L98.702 31.3585L98.7838 31.5576L98.8621 31.7425Z" fill="#FE3030"/>
<path d="M89.3047 31.2836L90.9616 35.248L84.1137 33.6373L82.4568 29.6729L89.3047 31.2836Z" fill="#FFFCED"/>
<path d="M103.911 24.0909L105.571 28.0554C105.64 28.277 105.634 28.5149 105.555 28.7331C105.476 28.9512 105.328 29.1377 105.134 29.2642C104.963 29.393 104.767 29.4839 104.559 29.5311C104.351 29.5783 104.135 29.5807 103.925 29.538C103.741 29.4964 103.572 29.404 103.438 29.2714C103.364 29.1982 103.305 29.1112 103.264 29.0154L101.614 25.0509C101.656 25.1461 101.715 25.2328 101.788 25.3069C101.923 25.439 102.092 25.5313 102.275 25.5736C102.485 25.6163 102.701 25.6139 102.909 25.5667C103.118 25.5195 103.314 25.4285 103.484 25.2998C103.679 25.1743 103.827 24.9873 103.905 24.7685C103.982 24.5496 103.984 24.3112 103.911 24.0909Z" fill="#FFFCED"/>
<path d="M84.5156 34.5585L86.1725 38.5229C86.0245 38.4929 85.8711 38.505 85.7297 38.5578C85.5883 38.6106 85.4645 38.702 85.3725 38.8216L83.7156 34.8572C83.8077 34.7375 83.9314 34.6462 84.0728 34.5934C84.2143 34.5406 84.3676 34.5285 84.5156 34.5585Z" fill="#FE3030"/>
<path d="M98.8621 31.7421C98.8454 31.713 98.8323 31.6819 98.823 31.6497L98.6594 31.2586L98.5705 31.0523L98.5279 30.9457L98.1937 30.1492L97.2017 27.7777C97.6316 28.1671 98.0321 28.5878 98.3999 29.0364L98.5954 29.4986L98.8017 29.9892L99.015 30.4977L99.2319 31.0168L99.4488 31.5359L99.6621 32.0443L99.8648 32.535L100.06 33.0008C99.6897 32.5547 99.2894 32.1342 98.8621 31.7421Z" fill="#FE3030"/>
<path d="M100.501 33.5626C100.359 33.3706 100.213 33.1822 100.061 33.0009C99.5059 31.6687 98.9571 30.3472 98.4143 29.0364C98.5672 29.2178 98.7165 29.392 98.8552 29.5982L99.001 29.9538L99.1539 30.3093L99.3139 30.6933L99.4774 31.0809L99.641 31.472L99.801 31.856L99.9538 32.2115L100.1 32.5671L100.149 32.6844L100.199 32.8053L100.253 32.9333L100.306 33.0613L100.363 33.1893L100.416 33.3173L100.466 33.4382L100.501 33.5626Z" fill="#FE3030"/>
<path d="M86.5921 35.0559L88.2489 39.0204L86.1725 38.5333L84.5156 34.5653L86.5921 35.0559Z" fill="#FE3030"/>
<path d="M83.7156 34.8678L85.3725 38.8322L83.513 41.4064L81.8525 37.442L83.7156 34.8678Z" fill="#FE3030"/>
<path d="M83.4347 41.8898L81.7779 37.9254C81.7469 37.8453 81.7375 37.7585 81.7506 37.6737C81.7637 37.5888 81.7989 37.5089 81.8525 37.4418L83.513 41.4098C83.459 41.476 83.4234 41.5551 83.4097 41.6394C83.3959 41.7236 83.4046 41.81 83.4347 41.8898Z" fill="#FE3030"/>
<path d="M87.7191 35.8241L89.3796 39.7886C89.2231 39.433 88.8462 39.1628 88.2489 39.0241L86.592 35.0562C87.1858 35.1984 87.5663 35.4544 87.7191 35.8241Z" fill="#FE3030"/>
<path d="M83.7903 42.1671C83.7133 42.1524 83.6408 42.1196 83.579 42.0714C83.5172 42.0231 83.4677 41.9609 83.4347 41.8898L81.7778 37.9254C81.8104 37.9968 81.8597 38.0594 81.9216 38.1077C81.9835 38.1559 82.0562 38.1886 82.1334 38.2027L83.7903 42.1671Z" fill="#FFFCED"/>
<path d="M89.3797 39.7885C89.3797 39.8205 89.4046 39.8525 89.4117 39.8845L87.7477 35.92C87.7477 35.888 87.7264 35.856 87.7122 35.824L89.3797 39.7885Z" fill="#FFFCED"/>
<path d="M94.5991 38.025C94.0089 36.6028 92.7976 35.6784 90.9654 35.2517L89.3049 31.2873C91.1348 31.7163 92.3473 32.6396 92.9422 34.0571L94.5991 38.025Z" fill="#FFFCED"/>
<path d="M92.9421 34.0571L94.599 38.0215C94.61 38.0446 94.6195 38.0684 94.6275 38.0926L92.9706 34.1247C92.9599 34.1033 92.9528 34.082 92.9421 34.0571Z" fill="#FE3030"/>
<path d="M84.1884 38.6828L85.8453 42.6508L83.7902 42.1672L82.1333 38.2028L84.1884 38.6828Z" fill="#FFFCED"/>
<path d="M89.4115 39.8917C89.5644 40.3183 89.447 40.7983 89.0559 41.3317L88.8604 40.8694L88.6542 40.3788L88.4408 39.8668L88.2239 39.3477L87.7937 38.3201C87.6622 38.0037 87.5306 37.6837 87.3955 37.3672C87.7759 36.8339 87.8933 36.3539 87.7511 35.945C88.2524 37.1077 88.9493 38.6792 89.4115 39.8917Z" fill="#FFFCED"/>
<path d="M89.0701 41.3138L87.4097 37.3494L89.0701 41.3138Z" fill="#FFFCED"/>
<path d="M59.9646 40.9476L61.625 44.9155L62.5957 52.4106L60.9388 48.4462L59.9646 40.9476Z" fill="#F67067"/>
<path d="M85.913 42.6685L85.8455 42.6507L84.1921 38.6863H84.2561L84.4339 39.1059L84.6188 39.5503L84.8144 40.0125L85.0099 40.4854L85.209 40.9547L85.401 41.417L85.5859 41.865L85.7637 42.2845V42.3272L85.7815 42.3734L85.8028 42.4196L85.8206 42.4658L85.8419 42.5156L85.8632 42.5618L85.881 42.6081L85.913 42.6685Z" fill="#FFFCED"/>
<path d="M85.9129 42.6685C85.3582 41.3458 84.8047 40.0243 84.2524 38.704L84.448 39.1663L84.6542 39.6569L84.8675 40.1689L85.0844 40.688L85.3013 41.2071L85.5147 41.7156L85.7173 42.2062L85.9129 42.6685Z" fill="#FFFCED"/>
<path d="M68.5156 39.2623C66.6383 43.0952 66.5423 46.9672 67.9005 50.2169L66.2401 46.2525C64.8818 43.0027 64.9778 39.1414 66.8552 35.2979C70.8587 27.1202 81.4329 22.2242 90.4817 24.354C92.5805 24.8239 94.5566 25.7313 96.2808 27.0171L96.4728 27.4793L96.679 27.9699L96.8923 28.4784L97.1092 28.9975L97.3261 29.5166L97.5394 30.025L97.7456 30.5157L97.9376 30.9815C96.2114 29.6949 94.2328 28.7874 92.1315 28.3184C83.0933 26.1922 72.5156 31.0917 68.5156 39.2623Z" fill="#FE3030"/>
<path d="M100.501 33.5626C100.491 33.5443 100.483 33.5253 100.476 33.5057L100.427 33.3848L100.402 33.3244L100.291 33.0684L100.085 32.5742C99.6728 31.5833 99.258 30.5914 98.8408 29.5982C99.3994 30.3563 99.865 31.1788 100.227 32.0479L101.888 36.0124C101.523 35.1446 101.057 34.3224 100.501 33.5626Z" fill="#FE3030"/>
<path d="M87.5946 42.5015C87.4631 42.1815 87.328 41.865 87.1964 41.545C87.0649 41.225 86.9084 40.8588 86.7662 40.5175L85.9377 38.537C86.5301 38.2924 87.0407 37.8842 87.4097 37.3602L87.6053 37.8224L87.808 38.313L88.0213 38.8215L88.2382 39.3406L88.4551 39.8597L88.6684 40.3717L88.8746 40.8624L89.0702 41.3246C88.7007 41.8497 88.1887 42.258 87.5946 42.5015Z" fill="#FFFCED"/>
<path d="M87.5946 42.5012C87.0701 42.7401 86.4813 42.7988 85.92 42.6683C85.3653 41.3504 84.8118 40.0289 84.2595 38.7039C84.8221 38.8344 85.412 38.7757 85.9377 38.5368L87.5946 42.5012Z" fill="#FFFCED"/>
<path d="M86.5918 35.056C87.2365 35.21 87.6241 35.498 87.7545 35.92C87.9074 36.3466 87.7865 36.8266 87.3989 37.3422C87.0298 37.8662 86.5193 38.2744 85.9269 38.5191C85.4012 38.7579 84.8113 38.8167 84.2487 38.6862H84.1776L82.1225 38.2026C82.0411 38.1894 81.9646 38.1548 81.9009 38.1024C81.8372 38.0499 81.7886 37.9815 81.76 37.9041C81.7315 37.8267 81.724 37.7431 81.7383 37.6619C81.7526 37.5807 81.7883 37.5047 81.8416 37.4417L83.7047 34.8675C83.7968 34.7479 83.9206 34.6565 84.062 34.6037C84.2034 34.5509 84.3568 34.5389 84.5047 34.5689L86.5918 35.056Z" fill="#FFFCED"/>
<path d="M81.657 29.9715L83.3138 33.9395L72.505 48.919L70.8481 44.9546L81.657 29.9715Z" fill="#FFFCED"/>
<path d="M67.4099 51.2159C67.3033 50.999 67.2001 50.775 67.1077 50.551L65.4473 46.5866C65.5433 46.8106 65.6428 47.031 65.7495 47.2515C65.8099 47.3901 65.8881 47.575 65.945 47.7137L66.1513 48.2043L66.3646 48.7163L66.5815 49.2355L66.7984 49.751L67.0117 50.263L67.2144 50.7537L67.4099 51.2159Z" fill="#FE3030"/>
<path d="M79.4418 41.6337L81.0987 45.5982C80.9513 45.5667 80.798 45.5781 80.6568 45.631C80.5157 45.684 80.3927 45.7762 80.3023 45.8968L78.6418 41.9324C78.7334 41.8121 78.8571 41.7203 78.9987 41.6674C79.1402 41.6146 79.2939 41.6029 79.4418 41.6337Z" fill="#FE3030"/>
<path d="M74.7201 46.5582L76.3806 50.5226L72.7859 49.6764L71.1255 45.712L74.7201 46.5582Z" fill="#FE3030"/>
<path d="M72.5048 48.9189C72.4521 48.9857 72.4175 49.065 72.4044 49.1491C72.3913 49.2332 72.4002 49.3193 72.4301 49.3989L70.7697 45.4345C70.7403 45.3545 70.732 45.2683 70.7457 45.1842C70.7594 45.1001 70.7946 45.021 70.8479 44.9545L72.5048 48.9189Z" fill="#FFFCED"/>
<path d="M72.4302 49.399L70.7698 45.4346C70.8031 45.5059 70.8525 45.5684 70.9143 45.6171C70.976 45.6659 71.0483 45.6996 71.1253 45.7155L72.7858 49.6799C72.7083 49.6651 72.6355 49.6318 72.5736 49.5829C72.5117 49.534 72.4625 49.4709 72.4302 49.399Z" fill="#FE3030"/>
<path d="M80.5652 41.8934L82.2221 45.8614L81.0985 45.5947L79.4417 41.6303L80.5652 41.8934Z" fill="#FE3030"/>
<path d="M80.953 42.377L82.6099 46.3414L82.2152 51.504L80.5583 47.5396L80.953 42.377Z" fill="#FFFCED"/>
<path d="M80.921 42.1742L82.5779 46.1386C82.5456 46.067 82.4964 46.0043 82.4344 45.956C82.3724 45.9077 82.2996 45.8752 82.2223 45.8613L80.5654 41.8969C80.6426 41.9113 80.7151 41.944 80.777 41.9923C80.8388 42.0405 80.8882 42.1029 80.921 42.1742Z" fill="#FE3030"/>
<path d="M80.9209 42.1743L82.5778 46.1387C82.6045 46.2028 82.6155 46.2723 82.6098 46.3414L80.9529 42.3805C80.9573 42.3103 80.9463 42.2399 80.9209 42.1743Z" fill="#FFFCED"/>
<path d="M60.9388 48.4464L62.5956 52.4108C62.8481 54.3521 61.4863 56.3503 59.3957 57.3459L57.7388 53.3815C59.8294 52.3824 61.1912 50.3877 60.9388 48.4464Z" fill="#F67067"/>
<path d="M56.9175 37.858L57.0633 38.2135L57.2126 38.5691L57.369 38.9424L57.529 39.3264L57.6926 39.7139L57.8561 40.1051L58.0161 40.4926L58.1761 40.873L56.9175 37.8615V37.858Z" fill="#FE3030"/>
<path d="M59.9645 40.9585L60.9387 48.4535C61.1912 50.3949 59.8294 52.3895 57.7388 53.3886C54.7699 48.962 53.7601 43.4545 55.1397 37.7443C55.7347 37.6898 56.3347 37.7294 56.9174 37.8616C58.5494 38.2385 59.7619 39.3763 59.9645 40.9585Z" fill="#F67067"/>
<path d="M78.6418 41.9289L80.3022 45.8933L77.1805 50.2239L75.52 46.2595L78.6418 41.9289Z" fill="#FE3030"/>
<path d="M75.5202 46.2595L77.1806 50.2239C77.0891 50.3442 76.9654 50.4361 76.8238 50.4889C76.6823 50.5418 76.5286 50.5534 76.3807 50.5226L74.7202 46.5582C74.8682 46.589 75.0218 46.5773 75.1634 46.5245C75.305 46.4716 75.4287 46.3798 75.5202 46.2595Z" fill="#FE3030"/>
<path d="M92.9708 34.1245L94.6276 38.0925C95.2108 39.5455 94.9263 41.0637 93.7743 42.6471C93.0411 43.6619 92.096 44.505 91.0046 45.1182C90.0842 45.6562 89.0791 46.0338 88.0321 46.2347C87.8741 46.2563 87.727 46.3275 87.612 46.438C87.497 46.5486 87.42 46.6927 87.3921 46.8498L85.7317 42.8854C85.7601 42.7285 85.8372 42.5847 85.9521 42.4742C86.067 42.3638 86.2139 42.2924 86.3717 42.2703C87.4198 42.0693 88.4261 41.6918 89.3477 41.1538C90.4402 40.5344 91.3852 39.6853 92.1174 38.6649C93.2694 37.0958 93.5539 35.5823 92.9708 34.1245Z" fill="#FE3030"/>
<path d="M65.4578 56.6027L63.7974 52.6383C63.8578 52.777 63.9325 52.9618 63.9929 53.1005L64.1991 53.5912L64.4089 54.1032L64.6294 54.6223L64.8462 55.1414L65.0596 55.6498L65.2622 56.1405L65.4578 56.6027Z" fill="#FE3030"/>
<path d="M66.6631 56.318C66.454 56.2752 66.2382 56.2778 66.0303 56.3257C65.8223 56.3735 65.6271 56.4655 65.4578 56.5954L65.2622 56.1331L65.0595 55.6425L64.6364 54.6149C64.4907 54.2594 64.3484 53.9287 64.2062 53.5838C64.064 53.2389 63.9396 52.9474 63.8044 52.6309C63.9744 52.501 64.1703 52.409 64.3788 52.3612C64.5873 52.3133 64.8037 52.3108 65.0133 52.3536L65.2053 52.8158L65.4115 53.31L65.6249 53.8185L65.8418 54.3376L66.0587 54.8567L66.272 55.3651L66.4782 55.8558L66.6631 56.318Z" fill="#FE3030"/>
<path d="M66.6632 56.3184C66.1133 55.0005 65.561 53.679 65.0063 52.354L65.1983 52.8197L65.4046 53.3104L65.6179 53.8188L65.8348 54.3379L66.0517 54.8571L66.265 55.3655L66.4712 55.8562L66.6632 56.3184Z" fill="#FE3030"/>
<path d="M67.1539 56.6028C67.0178 56.4707 66.8481 56.3785 66.6632 56.3361C66.1133 55.0182 65.561 53.6967 65.0063 52.3717C65.1904 52.4133 65.3592 52.5057 65.4935 52.6383C65.5666 52.7117 65.6246 52.7986 65.6641 52.8943L67.3246 56.8588C67.2837 56.7638 67.2259 56.677 67.1539 56.6028Z" fill="#FE3030"/>
<path d="M65.4578 56.6027C65.2599 56.7269 65.1093 56.9137 65.03 57.1335C64.9508 57.3533 64.9474 57.5932 65.0205 57.8151L63.36 53.8472C63.2916 53.6255 63.2972 53.3876 63.3761 53.1694C63.455 52.9513 63.6029 52.7648 63.7974 52.6383L63.9929 53.1005L64.1956 53.5912L64.4089 54.1032L64.6258 54.6223L64.8427 55.1378L65.056 55.6498L65.2622 56.1405L65.4578 56.6027Z" fill="#FE3030"/>
<path d="M82.2471 51.7068L80.5902 47.7424C80.5632 47.6797 80.5522 47.6113 80.5582 47.5433L82.2151 51.5077C82.211 51.5756 82.2219 51.6436 82.2471 51.7068Z" fill="#FFFCED"/>
<path d="M65.6641 52.8764L67.3245 56.8408C67.3933 57.0621 67.3882 57.2997 67.31 57.5178C67.2317 57.7359 67.0846 57.9226 66.8907 58.0497C66.72 58.1795 66.5235 58.2714 66.3145 58.3192C66.1054 58.367 65.8885 58.3697 65.6783 58.327C65.4937 58.2869 65.3245 58.1943 65.1912 58.0603C65.1182 57.9883 65.0602 57.9025 65.0205 57.8079L63.3601 53.8399C63.4001 53.9354 63.458 54.0223 63.5308 54.0959C63.6659 54.2293 63.836 54.3218 64.0214 54.3626C64.231 54.4054 64.4474 54.4029 64.656 54.355C64.8645 54.3072 65.0603 54.2152 65.2303 54.0853C65.4273 53.9612 65.577 53.7747 65.6557 53.5556C65.7343 53.3365 65.7373 53.0974 65.6641 52.8764Z" fill="#FFFCED"/>
<path d="M82.2472 51.7065L80.5903 47.7421C80.6224 47.8142 80.6715 47.8774 80.7335 47.9264C80.7954 47.9753 80.8683 48.0084 80.9459 48.0229L82.6028 51.9802C82.5259 51.9665 82.4535 51.9344 82.3916 51.8867C82.3297 51.8391 82.2802 51.7773 82.2472 51.7065Z" fill="#FE3030"/>
<path d="M105.842 30.4836L107.499 34.448L108.473 41.9431L106.816 37.9786L105.842 30.4836Z" fill="#FE3030"/>
<path d="M108.473 41.9468C108.512 42.2501 108.592 42.5466 108.711 42.8286L107.05 38.8642C106.934 38.5819 106.855 38.2854 106.816 37.9824C107.303 39.1806 108.138 40.7024 108.473 41.9468Z" fill="#FE3030"/>
<path d="M85.7317 42.8817L87.3921 46.8496L87.065 52.2363L85.4045 48.2719L85.7317 42.8817Z" fill="#FE3030"/>
<path d="M84.4978 48.8585L86.1582 52.8229L82.6027 51.9873L80.9458 48.0229L84.4978 48.8585Z" fill="#FE3030"/>
<path d="M85.4045 48.2718L87.0649 52.2362C87.0465 52.3356 87.008 52.4302 86.9518 52.5142C86.8956 52.5982 86.8228 52.6699 86.7379 52.7248C86.653 52.7797 86.5579 52.8167 86.4582 52.8336C86.3585 52.8505 86.2565 52.8468 86.1582 52.8229L84.4978 48.8585C84.596 48.8824 84.6981 48.8861 84.7978 48.8692C84.8974 48.8523 84.9926 48.8153 85.0775 48.7604C85.1623 48.7055 85.2351 48.6338 85.2913 48.5498C85.3476 48.4658 85.3861 48.3712 85.4045 48.2718Z" fill="#FE3030"/>
<path d="M100.227 32.0444L101.884 36.0088C103.246 39.2585 103.15 43.1198 101.273 46.9669C97.2693 55.1447 86.6951 60.0406 77.6498 57.9109C72.8463 56.7838 69.4401 53.9002 67.9005 50.2203L66.2437 46.2558C67.7796 49.9358 71.1858 52.8193 75.9894 53.9465C85.0347 56.0798 95.6124 51.1731 99.6123 43.0025C101.49 39.1803 101.586 35.2941 100.227 32.0444Z" fill="#FFFCED"/>
<path d="M102.044 47.1484C101.52 48.2171 100.894 49.2328 100.174 50.1812C99.6194 48.8586 99.066 47.5371 98.5137 46.2168C99.2343 45.2684 99.8618 44.2528 100.387 43.1839C102.35 39.1733 102.45 35.12 101.02 31.7138L102.681 35.6782C104.103 39.0844 104.011 43.1413 102.044 47.1484Z" fill="#FE3030"/>
<path d="M77.3086 58.6077C72.5797 57.4984 69.1308 54.75 67.4099 51.2158L65.7495 47.2514C67.4846 50.7856 70.9193 53.5304 75.6481 54.6433C83.9254 56.5917 93.4578 52.894 98.5138 46.2167C98.5742 46.3554 98.6489 46.5402 98.7093 46.6789L98.912 47.1696L99.1253 47.678L99.3422 48.1971L99.5591 48.7162L99.7724 49.2247L99.9786 49.7153L100.174 50.1811C95.1182 56.8584 85.5823 60.5562 77.3086 58.6077Z" fill="#FE3030"/>
<path d="M101.678 31.4403L103.335 35.4047C104.814 38.9389 104.711 43.1415 102.677 47.298C98.3394 56.1548 86.8337 61.4846 77.0276 59.1806C71.8187 57.9539 68.121 54.825 66.4498 50.8215L64.793 46.8571C66.4641 50.8535 70.1618 53.9895 75.3707 55.2161C85.1768 57.5201 96.6826 52.1904 101.02 43.3335C103.054 39.1807 103.157 34.9709 101.678 31.4403Z" fill="#C62525"/>
<path d="M91.1041 23.0845C100.91 25.3885 105.358 34.4622 101.02 43.351C96.6827 52.2399 85.177 57.5376 75.3708 55.2336C65.5647 52.9297 61.1131 43.8559 65.4509 34.9849C69.7887 26.1138 81.2979 20.777 91.1041 23.0845ZM75.6588 54.6434C85.1166 56.8692 96.2134 51.7279 100.398 43.1839C104.583 34.64 100.292 25.8791 90.8339 23.6534C81.3761 21.4276 70.2758 26.5725 66.0909 35.1164C61.906 43.6604 66.2011 52.4212 75.6588 54.6434Z" fill="#C62525"/>
<path d="M90.4817 24.3537C99.5269 26.4871 103.616 34.8284 99.6123 43.0025C95.6087 51.1767 85.0346 56.0727 75.9893 53.9465C66.944 51.8203 62.8587 43.4719 66.8551 35.2977C70.8515 27.1235 81.4364 22.224 90.4817 24.3537Z" fill="#FFFCED"/>
<path d="M86.9794 42.0604C86.7947 42.0945 86.6245 42.1832 86.4908 42.315C86.357 42.4469 86.2659 42.6158 86.2292 42.8L85.7563 47.9661C85.7303 48.0868 85.6805 48.2011 85.6099 48.3023C85.5393 48.4036 85.4493 48.4898 85.3451 48.556C85.2409 48.6221 85.1245 48.6669 85.0029 48.6878C84.8812 48.7086 84.7566 48.705 84.6363 48.6773L80.871 47.7919C80.7289 47.7691 80.6009 47.6925 80.5136 47.5781C80.4262 47.4636 80.3862 47.32 80.4017 47.1768L80.9599 42.4231C80.9763 42.2798 80.9366 42.1357 80.8491 42.021C80.7616 41.9064 80.6331 41.83 80.4906 41.808L79.9252 41.6729C79.7431 41.6362 79.5543 41.6518 79.3807 41.7179C79.207 41.7839 79.0556 41.8977 78.9439 42.0462L76.0604 46.0533C75.9494 46.2027 75.7982 46.3175 75.6244 46.3842C75.4507 46.4509 75.2615 46.4669 75.079 46.4302L71.2355 45.5271C71.1339 45.5121 71.0381 45.4702 70.9581 45.4058C70.8781 45.3413 70.8168 45.2567 70.7805 45.1606C70.7442 45.0645 70.7343 44.9604 70.7518 44.8592C70.7693 44.7579 70.8135 44.6632 70.88 44.5848L81.5323 29.8152C81.644 29.6657 81.796 29.5513 81.9704 29.4852C82.1449 29.419 82.3345 29.404 82.5172 29.4418L89.3545 31.0489C91.2863 31.504 92.5521 32.4522 93.1518 33.8933C93.7515 35.3345 93.441 36.8966 92.2203 38.5795C90.9615 40.3455 89.0954 41.585 86.9794 42.0604ZM86.9794 37.1716C87.3136 36.6951 87.4132 36.2898 87.2816 35.952C87.1501 35.6142 86.8514 35.3725 86.3216 35.2409L84.8034 34.8853C84.6213 34.8487 84.4325 34.8643 84.2589 34.9303C84.0852 34.9964 83.9338 35.1102 83.8221 35.2587L82.5812 36.9867C82.5146 37.0647 82.4701 37.1592 82.4525 37.2603C82.4349 37.3613 82.4448 37.4653 82.4812 37.5612C82.5175 37.6572 82.579 37.7416 82.6591 37.8057C82.7393 37.8697 82.8352 37.911 82.9368 37.9253L84.2488 38.2347L84.3412 38.2595C84.8065 38.3697 85.2944 38.3336 85.7385 38.1564C86.2499 37.9663 86.6889 37.6206 86.9936 37.168" fill="#FE3030"/>
<path d="M105.781 43.0524L105.923 43.4079L106.076 43.7635L106.233 44.1368L106.393 44.5208L106.556 44.9083L106.716 45.2995L106.88 45.687L107.04 46.0674L105.781 43.0559V43.0524Z" fill="#FE3030"/>
<path d="M108.725 42.8283L107.065 38.8639C107.324 39.4297 107.714 39.9255 108.203 40.3101C108.692 40.6948 109.266 40.9571 109.877 41.0755C110.141 41.1373 110.41 41.1789 110.681 41.1999L112.338 45.1643C112.067 45.1431 111.798 45.1015 111.534 45.0399C110.924 44.921 110.351 44.6584 109.862 44.2738C109.374 43.8892 108.984 43.3937 108.725 42.8283Z" fill="#F67067"/>
<path d="M105.838 47.7601C105.778 47.8734 105.742 47.9986 105.735 48.1269C105.728 48.2553 105.748 48.3837 105.796 48.5032L104.139 44.5388C104.091 44.4195 104.07 44.2912 104.076 44.1629C104.083 44.0346 104.118 43.9093 104.178 43.7957C104.733 45.116 105.286 46.4363 105.838 47.7565C105.284 46.4386 104.73 45.1183 104.178 43.7957C104.33 43.5165 104.569 43.2936 104.857 43.1599C105.146 43.0261 105.47 42.9885 105.781 43.0526C106.331 44.3752 106.884 45.6967 107.438 47.017C106.886 45.6943 106.334 44.3729 105.781 43.0526C105.925 43.0805 106.061 43.1425 106.176 43.2334C106.291 43.3244 106.382 43.4416 106.443 43.5752L108.1 47.5397C108.039 47.406 107.948 47.2888 107.833 47.1979C107.717 47.1069 107.582 47.0449 107.438 47.017C107.127 46.9532 106.804 46.9909 106.516 47.1247C106.228 47.2585 105.99 47.4812 105.838 47.7601Z" fill="#FE3030"/>
<path d="M106.443 43.5752L108.1 47.5396C108.147 47.6589 108.169 47.7872 108.162 47.9155C108.155 48.0438 108.12 48.1691 108.06 48.2827C107.908 48.5626 107.669 48.7859 107.38 48.9197C107.09 49.0535 106.765 49.0907 106.453 49.0258C106.31 48.998 106.175 48.9359 106.061 48.8449C105.946 48.754 105.855 48.6367 105.796 48.5032L104.139 44.5388C104.199 44.672 104.29 44.7889 104.404 44.8798C104.519 44.9707 104.653 45.033 104.796 45.0614C105.108 45.1267 105.433 45.0896 105.721 44.9557C106.01 44.8218 106.248 44.5983 106.4 44.3183C106.461 44.205 106.496 44.0798 106.503 43.9515C106.511 43.8231 106.49 43.6947 106.443 43.5752Z" fill="#FFFCED"/>
<path d="M90.8231 23.6534C100.281 25.8791 104.572 34.64 100.388 43.1839C96.2027 51.7279 85.0987 56.8692 75.6481 54.6434C66.1975 52.4176 61.8989 43.6604 66.0802 35.1164C70.2615 26.5725 81.3654 21.4276 90.8231 23.6534ZM75.9894 53.9465C85.0347 56.0798 95.6124 51.1732 99.6124 43.0026C103.612 34.832 99.5271 26.48 90.4818 24.3538C81.4365 22.2276 70.8588 27.1271 66.8553 35.2977C62.8517 43.4684 66.9442 51.8203 75.9894 53.9465Z" fill="#FE3030"/>
<path d="M88.3166 61.4134C87.7643 60.0907 87.212 58.7692 86.6597 57.449L86.8517 57.9112L87.0579 58.4018L87.2712 58.9103L87.4881 59.4294L87.705 59.9485L87.9183 60.4569L88.1245 60.9476L88.3166 61.4134Z" fill="#FE3030"/>
<path d="M87.6978 61.417C87.45 61.4635 87.2197 61.5769 87.0317 61.7448C86.8437 61.9128 86.7052 62.1289 86.6311 62.3699C86.0765 61.0496 85.523 59.7281 84.9707 58.4054C85.0455 58.1649 85.1842 57.9491 85.3721 57.7813C85.56 57.6135 85.7899 57.4998 86.0374 57.4526C86.592 58.7705 87.1455 60.092 87.6978 61.417C87.1431 60.0943 86.5897 58.7729 86.0374 57.4526C86.242 57.4045 86.455 57.4045 86.6596 57.4526L86.8516 57.9148L87.0578 58.4054L87.2711 58.9139L87.488 59.433L87.7049 59.9521L87.9182 60.4605L88.1245 60.9512L88.3165 61.417C88.113 61.369 87.9012 61.369 87.6978 61.417Z" fill="#FE3030"/>
<path d="M88.9779 61.936C88.9175 61.8026 88.8259 61.6858 88.7107 61.5955C88.5956 61.5051 88.4604 61.4438 88.3165 61.4168C87.7643 60.0942 87.212 58.7727 86.6597 57.4524C86.8033 57.48 86.9383 57.5415 87.0533 57.6318C87.1683 57.7221 87.2601 57.8386 87.321 57.9715L88.9779 61.936Z" fill="#FE3030"/>
<path d="M86.6203 62.6896C86.6284 62.7617 86.6463 62.8323 86.6737 62.8994L85.0168 58.935C84.9887 58.8679 84.9696 58.7973 84.9599 58.7252C85.5146 60.0479 86.0668 61.3694 86.6168 62.6896C86.0668 61.367 85.5146 60.0455 84.9599 58.7252C84.9405 58.6194 84.9405 58.511 84.9599 58.4052C85.5146 59.7279 86.068 61.0494 86.6203 62.3696C86.6009 62.4754 86.6009 62.5839 86.6203 62.6896Z" fill="#FE3030"/>
<path d="M82.1441 64.8017C81.5538 64.1239 80.7587 63.6571 79.8792 63.472L78.2188 59.5075C79.0979 59.6939 79.8935 60.159 80.4872 60.8338L80.6792 61.2995L80.8854 61.7902L81.0987 62.2986L81.3156 62.8177L81.5325 63.3368L81.7458 63.8453L81.9521 64.336L82.1441 64.8017Z" fill="#FE3030"/>
<path d="M82.3395 65.0541C82.2791 64.9688 82.215 64.8834 82.1439 64.8017L80.4871 60.8337C80.5546 60.919 80.6222 61.0043 80.6826 61.0897L81.9022 64.0123L81.9555 64.1332L82.0088 64.2612L82.0657 64.3963L82.1226 64.5314L82.1795 64.6701L82.2364 64.8052L82.2897 64.9332L82.3395 65.0541Z" fill="#FE3030"/>
<path d="M82.3395 65.0539C82.3217 65.0183 82.3039 64.9686 82.2897 64.933L82.2079 64.7375L82.1511 64.6023L82.1226 64.5312L81.9022 64.0121L80.6826 61.0895C80.8218 61.2881 80.9409 61.5001 81.0382 61.7224L82.6951 65.6868C82.5992 65.4639 82.48 65.2517 82.3395 65.0539Z" fill="#FE3030"/>
<path d="M87.3209 57.9679L88.9778 61.9359C89.0063 62.0029 89.0254 62.0735 89.0347 62.1457C89.1058 62.6932 88.6222 63.2657 87.968 63.4186C87.7634 63.4666 87.5504 63.4666 87.3458 63.4186C87.2022 63.391 87.0672 63.3295 86.9522 63.2392C86.8371 63.1489 86.7453 63.0324 86.6845 62.8995L85.0276 58.935C85.088 59.0684 85.1796 59.1851 85.2947 59.2755C85.4099 59.3659 85.5451 59.4272 85.6889 59.4541C85.8923 59.5021 86.1042 59.5021 86.3076 59.4541C86.976 59.3013 87.4596 58.743 87.3742 58.1813C87.3665 58.108 87.3485 58.0362 87.3209 57.9679Z" fill="#FFFCED"/>
<path d="M81.031 61.7225L82.6879 65.687C82.8665 66.1174 82.9572 66.5792 82.9546 67.0452L81.2941 63.0808C81.298 62.615 81.2085 62.1532 81.031 61.7225Z" fill="#F67067"/>
<path d="M110.666 41.2002C110.272 42.4944 109.773 43.7547 109.177 44.9691C108.401 46.5453 107.481 48.0462 106.428 49.4526C106.253 49.3902 106.075 49.3368 105.895 49.2926C105.005 49.1094 104.086 49.1191 103.199 49.3208C102.313 49.5226 101.48 49.9119 100.757 50.4624L93.4043 56.0019C91.7119 57.2748 90.9901 59.1201 91.3954 60.6881C88.1622 61.9714 84.7595 62.7774 81.2942 63.081C81.2942 61.4028 80.1528 59.9628 78.2186 59.5077L69.8916 57.5486C68.8412 57.3361 67.7542 57.3907 66.7304 57.7076C65.7066 58.0244 64.7788 58.5932 64.032 59.3619C61.5336 57.8403 59.3901 55.801 57.7459 53.3815C59.8294 52.3824 61.1912 50.3877 60.9458 48.4464L59.9645 40.9585C59.7618 39.3834 58.5423 38.2456 56.9174 37.8616C56.3347 37.7293 55.7347 37.6898 55.1396 37.7443C55.5676 36.0019 56.184 34.3114 56.9779 32.7025C57.6459 31.3437 58.4236 30.0416 59.3032 28.8092C59.8005 29.179 60.3698 29.4406 60.9743 29.5772C61.8645 29.762 62.784 29.7532 63.6704 29.5514C64.5569 29.3495 65.3896 28.9594 66.112 28.4074L73.4649 22.8714C75.6337 21.2359 76.2062 18.6653 74.8551 16.9444C78.3307 15.575 81.9995 14.7591 85.7279 14.5266C84.9386 16.7204 86.1297 18.8537 88.5723 19.4261L96.8852 21.403C98.0557 21.641 99.2695 21.5455 100.388 21.1275C101.507 20.7095 102.486 19.9857 103.214 19.0386C105.654 20.7256 107.686 22.9365 109.162 25.5097C107.004 26.4839 105.582 28.5212 105.842 30.4874L106.816 37.986C107.022 39.5576 108.238 40.6953 109.863 41.0793C110.127 41.14 110.396 41.1804 110.666 41.2002ZM75.3706 55.2162C85.1768 57.5201 96.6825 52.1904 101.02 43.3336C105.358 34.4767 100.91 25.3888 91.1039 23.0848C81.2977 20.7808 69.7885 26.1105 65.4507 34.9674C61.1129 43.8242 65.5645 52.9086 75.3706 55.2162ZM104.814 45.0615C105.126 45.1268 105.45 45.0897 105.739 44.9558C106.028 44.8219 106.266 44.5984 106.418 44.3184C106.484 44.1974 106.521 44.0621 106.525 43.924C106.528 43.7858 106.498 43.6489 106.437 43.5247C106.377 43.4005 106.287 43.2928 106.176 43.2106C106.065 43.1285 105.935 43.0743 105.799 43.0527C105.487 42.9886 105.163 43.0262 104.875 43.16C104.586 43.2937 104.348 43.5166 104.195 43.7958C104.129 43.9169 104.093 44.0521 104.09 44.19C104.087 44.3279 104.117 44.4645 104.178 44.5884C104.238 44.7123 104.328 44.8199 104.438 44.9022C104.549 44.9846 104.678 45.0392 104.814 45.0615ZM61.5076 34.8749C61.8193 34.9396 62.1434 34.9023 62.4322 34.7684C62.721 34.6346 62.959 34.4114 63.1112 34.1318C63.1772 34.011 63.2133 33.876 63.2163 33.7383C63.2194 33.6006 63.1894 33.4642 63.1287 33.3405C63.0681 33.2168 62.9787 33.1095 62.868 33.0275C62.7573 32.9456 62.6285 32.8914 62.4925 32.8696C62.1812 32.8046 61.8573 32.8415 61.5686 32.9746C61.2799 33.1078 61.0416 33.3302 60.8889 33.6092C60.8221 33.7302 60.7855 33.8655 60.782 34.0036C60.7786 34.1418 60.8084 34.2788 60.8691 34.4029C60.9298 34.5271 61.0195 34.6348 61.1307 34.717C61.2418 34.7991 61.3711 34.8533 61.5076 34.8749ZM86.2968 59.4472C86.9652 59.2944 87.4488 58.7361 87.3635 58.1744C87.3364 57.9936 87.2531 57.826 87.1255 57.6952C86.9979 57.5644 86.8324 57.477 86.6524 57.4455C86.4477 57.3975 86.2348 57.3975 86.0301 57.4455C85.3617 57.5984 84.8853 58.1566 84.9635 58.7184C84.9916 58.8987 85.0752 59.0658 85.2026 59.1964C85.33 59.327 85.495 59.4147 85.6746 59.4472C85.878 59.4952 86.0898 59.4952 86.2932 59.4472H86.2968ZM65.2267 54.0819C65.7671 53.6766 65.8845 53.0153 65.4898 52.6171C65.3555 52.4844 65.1868 52.392 65.0027 52.3504C64.7931 52.3075 64.5767 52.3101 64.3682 52.358C64.1597 52.4058 63.9638 52.4978 63.7938 52.6277C63.2534 53.0366 63.136 53.6944 63.5272 54.0926C63.6623 54.226 63.8324 54.3185 64.0178 54.3593C64.2274 54.4021 64.4438 54.3995 64.6523 54.3517C64.8609 54.3039 65.0567 54.2119 65.2267 54.0819ZM102.041 23.8386C101.497 24.2474 101.376 24.9052 101.774 25.3034C101.909 25.4355 102.077 25.5278 102.261 25.5701C102.471 25.6128 102.687 25.6104 102.895 25.5632C103.103 25.516 103.299 25.425 103.47 25.2963C104.014 24.8874 104.131 24.2297 103.733 23.8279C103.6 23.6949 103.43 23.6035 103.246 23.5648C103.037 23.5203 102.821 23.5218 102.613 23.569C102.405 23.6163 102.21 23.7083 102.041 23.8386ZM80.9919 18.4804C80.3271 18.6297 79.8435 19.1915 79.9253 19.7532C79.9558 19.9307 80.0405 20.0944 80.1679 20.2218C80.2952 20.3491 80.4589 20.4339 80.6364 20.4644C80.841 20.5124 81.054 20.5124 81.2586 20.4644C81.9235 20.315 82.407 19.7532 82.3253 19.1915C82.2919 19.0152 82.2063 18.8531 82.0794 18.7262C81.9526 18.5994 81.7904 18.5137 81.6142 18.4804C81.4093 18.4344 81.1968 18.4344 80.9919 18.4804Z" fill="#FE3030"/>
<path d="M74.8516 16.9443C68.6152 19.3869 63.0508 23.5362 59.3032 28.8091C59.8006 29.1789 60.3698 29.4405 60.9743 29.5771C61.8645 29.7619 62.784 29.7531 63.6705 29.5513C64.557 29.3494 65.3897 28.9593 66.1121 28.4073L73.4649 22.8713C75.6302 21.2358 76.2027 18.6652 74.8516 16.9443Z" fill="#F67067"/>
<path d="M85.7243 14.5264C88.7071 14.3391 91.7013 14.5858 94.6132 15.2589C97.6941 15.9518 100.614 17.2287 103.214 19.0206C102.488 19.971 101.51 20.6982 100.391 21.1194C99.2722 21.5406 98.0573 21.6388 96.8852 21.4028L88.5581 19.4437C86.1261 18.8535 84.935 16.7202 85.7243 14.5264Z" fill="#F67067"/>
<path d="M103.25 23.568C103.434 23.6067 103.603 23.6981 103.737 23.8311C104.135 24.2329 104.018 24.8978 103.474 25.2995C103.303 25.4282 103.107 25.5192 102.899 25.5664C102.69 25.6136 102.474 25.616 102.265 25.5733C102.081 25.531 101.913 25.4387 101.778 25.3067C101.38 24.9049 101.5 24.24 102.044 23.8418C102.214 23.7115 102.409 23.6195 102.617 23.5722C102.825 23.525 103.041 23.5235 103.25 23.568Z" fill="#FFFCED"/>
<path d="M110.4 29.666C109.85 28.3434 109.297 27.0219 108.74 25.7016C108.878 25.6269 109.017 25.5558 109.163 25.4918L110.819 29.4563C110.677 29.5203 110.535 29.5807 110.4 29.666Z" fill="#FE3030"/>
<path d="M110.4 29.6658C108.483 30.7005 107.26 32.5991 107.499 34.448L105.842 30.4836C105.6 28.6347 106.823 26.7396 108.739 25.7014C109.141 26.6507 109.141 26.6507 110.4 29.6658Z" fill="#FE3030"/>
<path d="M57.6642 54.1137L56.0073 50.1493C56.4821 51.2787 57.0643 52.3598 57.746 53.3777L59.4029 57.3422C58.7218 56.3239 58.1396 55.2428 57.6642 54.1137Z" fill="#F67067"/>
<path d="M64.9922 52.3536C65.1763 52.3952 65.345 52.4876 65.4793 52.6203C65.8739 53.022 65.7566 53.6869 65.2162 54.0851C65.0462 54.2151 64.8503 54.3071 64.6418 54.3549C64.4333 54.4027 64.2169 54.4053 64.0073 54.3625C63.8219 54.3217 63.6518 54.2292 63.5166 54.0958C63.1255 53.694 63.2429 53.0292 63.7833 52.6309C63.9533 52.501 64.1491 52.409 64.3577 52.3612C64.5662 52.3133 64.7826 52.3108 64.9922 52.3536Z" fill="#FFFCED"/>
<path d="M64.032 59.3615L65.7031 63.3259C63.2046 61.8043 61.0611 59.765 59.4169 57.3455L57.76 53.3811C59.4001 55.7991 61.5386 57.8382 64.032 59.3615Z" fill="#F50000"/>
<path d="M69.8918 57.5484L71.5522 61.5128C70.5012 61.2997 69.4136 61.354 68.3891 61.6709C67.3647 61.9877 66.4362 62.5569 65.6891 63.3261L64.0322 59.3617C64.779 58.593 65.7068 58.0242 66.7306 57.7074C67.7544 57.3906 68.8413 57.3359 69.8918 57.5484Z" fill="#FE3030"/>
<path d="M110.147 27.515L111.804 31.4794C113.525 35.5932 113.781 40.3291 112.316 45.1647L110.659 41.2002C112.131 36.3647 111.875 31.6287 110.147 27.515Z" fill="#FB4242"/>
<path d="M109.162 25.4918C111.74 30.0358 112.362 35.5504 110.666 41.2002C110.396 41.1792 110.127 41.1376 109.863 41.0757C108.231 40.6917 107.018 39.554 106.816 37.9824L105.842 30.4838C105.582 28.514 107.004 26.4661 109.162 25.4918Z" fill="#F67067"/>
<path d="M105.781 43.0526C105.918 43.0742 106.047 43.1284 106.158 43.2105C106.269 43.2927 106.359 43.4004 106.42 43.5246C106.48 43.6488 106.51 43.7857 106.507 43.9239C106.503 44.062 106.467 44.1973 106.4 44.3183C106.248 44.5983 106.01 44.8218 105.721 44.9557C105.432 45.0896 105.108 45.1267 104.796 45.0614C104.66 45.0391 104.532 44.9844 104.421 44.9021C104.31 44.8198 104.221 44.7122 104.16 44.5883C104.1 44.4644 104.07 44.3278 104.073 44.1899C104.076 44.052 104.112 43.9168 104.178 43.7957C104.33 43.5165 104.568 43.2936 104.857 43.1599C105.146 43.0261 105.47 42.9885 105.781 43.0526Z" fill="#FFFCED"/>
<path d="M78.2187 59.504L79.8791 63.4684L71.552 61.5093L69.8916 57.5449L78.2187 59.504Z" fill="#FE3030"/>
<path d="M110.666 41.1999L112.323 45.1643C111.931 46.4592 111.432 47.7197 110.834 48.9332C110.06 50.506 109.14 52.0023 108.085 53.4025L106.428 49.4381C107.481 48.0317 108.401 46.5307 109.177 44.9546C109.773 43.7448 110.271 42.4892 110.666 41.1999Z" fill="#F50000"/>
<path d="M107.552 53.2604C106.662 53.0756 105.743 53.0845 104.857 53.2863C103.972 53.4882 103.14 53.8783 102.418 54.4302L100.757 50.4622C101.479 49.9137 102.309 49.5255 103.193 49.3238C104.076 49.122 104.993 49.1114 105.881 49.2924C106.061 49.3366 106.239 49.39 106.414 49.4524C106.964 50.7751 107.516 52.0966 108.071 53.4168C107.902 53.3536 107.728 53.3014 107.552 53.2604Z" fill="#FE3030"/>
<path d="M100.757 50.4622L102.418 54.4266L95.0612 59.9661L93.4043 55.9982L100.757 50.4622Z" fill="#FE3030"/>
<path d="M86.6595 57.4487C86.8395 57.4802 87.005 57.5676 87.1326 57.6984C87.2602 57.8292 87.3435 57.9968 87.3706 58.1776C87.4453 58.7251 86.9617 59.2976 86.3039 59.4505C86.1005 59.4984 85.8887 59.4984 85.6853 59.4505C85.5057 59.4179 85.3407 59.3302 85.2133 59.1996C85.0858 59.069 85.0023 58.9019 84.9742 58.7216C84.9066 58.1705 85.383 57.6016 86.0408 57.4487C86.2443 57.4012 86.456 57.4012 86.6595 57.4487Z" fill="#FFFCED"/>
<path d="M78.2188 59.5075C80.153 59.9626 81.3015 61.4026 81.2944 63.0808C78.027 63.3718 74.7341 63.1438 71.538 62.4053C68.8882 61.8023 66.3535 60.7745 64.0322 59.3617C64.779 58.593 65.7068 58.0242 66.7306 57.7074C67.7544 57.3906 68.8413 57.3359 69.8918 57.5484L78.2188 59.5075Z" fill="#F67067"/>
<path d="M81.2943 63.0806L82.9547 67.045C79.6863 67.3353 76.3926 67.1085 73.1948 66.373C70.5503 65.7659 68.0208 64.737 65.7033 63.3259L64.0464 59.3615C66.3677 60.7743 68.9024 61.8021 71.5521 62.405C74.7436 63.1421 78.0316 63.3701 81.2943 63.0806Z" fill="#FB4242"/>
<path d="M95.0614 59.9663C94.4884 60.3669 94.0055 60.8829 93.6437 61.4811C93.2818 62.0793 93.049 62.7465 92.9601 63.44L91.3032 59.472C91.3943 58.7793 91.6284 58.113 91.9908 57.5156C92.3531 56.9182 92.8358 56.4027 93.4081 56.0018L95.0614 59.9663Z" fill="#FE3030"/>
<path d="M92.96 63.4401C92.9221 63.8467 92.9546 64.2569 93.056 64.6525L91.3956 60.6881C91.2957 60.291 91.2632 59.8799 91.2996 59.4721L91.4951 59.9379L91.7014 60.4285L91.9147 60.937L92.1316 61.4561L92.2382 61.7156L92.3485 61.9752L92.5618 62.4836L92.6649 62.7325L92.864 63.2125C92.9047 63.2844 92.9369 63.3608 92.96 63.4401Z" fill="#FE3030"/>
<path d="M91.3957 60.688L93.0561 64.6525C89.8227 65.9351 86.4201 66.7412 82.9549 67.0453L81.2944 63.0809C84.7597 62.7773 88.1625 61.9713 91.3957 60.688Z" fill="#F50000"/>
<path d="M100.757 50.4622C101.479 49.9137 102.309 49.5255 103.193 49.3238C104.076 49.122 104.993 49.1114 105.881 49.2924C106.061 49.3366 106.239 49.39 106.414 49.4524C102.691 54.4302 97.3474 58.3413 91.3812 60.6879C90.9759 59.1199 91.6977 57.2746 93.3901 56.0017L100.757 50.4622Z" fill="#F67067"/>
<path d="M106.428 49.4523L108.085 53.4025C104.366 58.3803 99.0221 62.2914 93.0559 64.638L91.3955 60.6736C97.3475 58.3341 102.706 54.4336 106.428 49.4523Z" fill="#FB4242"/>
</g>
<defs>
<filter id="filter0_i_3281_313703" x="20.7175" y="74.4345" width="100.814" height="59.5119" filterUnits="userSpaceOnUse" color-interpolation-filters="sRGB">
<feFlood flood-opacity="0" result="BackgroundImageFix"/>
<feBlend mode="normal" in="SourceGraphic" in2="BackgroundImageFix" result="shape"/>
<feColorMatrix in="SourceAlpha" type="matrix" values="0 0 0 0 0 0 0 0 0 0 0 0 0 0 0 0 0 0 127 0" result="hardAlpha"/>
<feOffset dy="-0.909426"/>
<feGaussianBlur stdDeviation="0.454713"/>
<feComposite in2="hardAlpha" operator="arithmetic" k2="-1" k3="1"/>
<feColorMatrix type="matrix" values="0 0 0 0 1 0 0 0 0 1 0 0 0 0 1 0 0 0 1 0"/>
<feBlend mode="normal" in2="shape" result="effect1_innerShadow_3281_313703"/>
</filter>
<filter id="filter1_d_3281_313703" x="75.6264" y="31.7015" width="113.502" height="136.426" filterUnits="userSpaceOnUse" color-interpolation-filters="sRGB">
<feFlood flood-opacity="0" result="BackgroundImageFix"/>
<feColorMatrix in="SourceAlpha" type="matrix" values="0 0 0 0 0 0 0 0 0 0 0 0 0 0 0 0 0 0 127 0" result="hardAlpha"/>
<feOffset dx="5.61818" dy="4.68182"/>
<feGaussianBlur stdDeviation="5.61818"/>
<feColorMatrix type="matrix" values="0 0 0 0 0 0 0 0 0 0 0 0 0 0 0 0 0 0 0.25 0"/>
<feBlend mode="normal" in2="BackgroundImageFix" result="effect1_dropShadow_3281_313703"/>
<feBlend mode="normal" in="SourceGraphic" in2="effect1_dropShadow_3281_313703" result="shape"/>
</filter>
<linearGradient id="paint0_linear_3281_313703" x1="189" y1="0" x2="-9.37654e-07" y2="195.633" gradientUnits="userSpaceOnUse">
<stop stop-color="#FAFF00"/>
<stop offset="0.578125" stop-color="#FCD100"/>
<stop offset="1" stop-color="#FF7A00"/>
</linearGradient>
<radialGradient id="paint1_radial_3281_313703" cx="0" cy="0" r="1" gradientUnits="userSpaceOnUse" gradientTransform="translate(-0.000312805 86.0196) rotate(90) scale(114.036)">
<stop stop-color="#00FFE0"/>
<stop offset="1" stop-color="#CA9E03" stop-opacity="0"/>
</radialGradient>
<clipPath id="clip0_3281_313703">
<path d="M0 22C0 9.84973 9.84974 0 22 0H167C179.15 0 189 9.84974 189 22V167C189 179.15 179.15 189 167 189H22C9.84973 189 0 179.15 0 167V22Z" fill="white"/>
</clipPath>
</defs>
</svg>
