<svg width="92" height="92" viewBox="0 0 92 92" fill="none" xmlns="http://www.w3.org/2000/svg">
<circle opacity="0.6" cx="46" cy="46" r="46" fill="url(#paint0_radial_1401_121418)"/>
<g clip-path="url(#clip0_1401_121418)">
<path d="M46.0532 38.7052C46.025 38.6493 46.0006 38.5915 45.9802 38.5322C45.5838 37.5861 45.1873 36.6392 44.7908 35.6913C44.9352 35.8731 45.0535 36.0741 45.1422 36.2887L46.4046 39.3026C46.3132 39.0894 46.1951 38.8887 46.0532 38.7052V38.7052Z" fill="#FE3030"/>
<path d="M50.7079 39.873L50.1673 38.562L49.4591 36.8591C49.6148 36.8242 49.7764 36.8242 49.9321 36.8591L50.0781 37.2132L50.2349 37.5862L50.3971 37.9727L50.5619 38.3674L50.7268 38.762L50.889 39.1486L51.0458 39.5216L51.1918 39.8757C51.033 39.8362 50.8671 39.8353 50.7079 39.873V39.873Z" fill="#FE3030"/>
<path d="M51.1783 39.8703L49.9186 36.8536L50.0646 37.2077L50.2214 37.5808L50.3836 37.9673L50.5485 38.362L50.7133 38.7566L50.8755 39.1431L51.0323 39.5162L51.1783 39.8703V39.8703Z" fill="#FE3030"/>
<path d="M54.3248 38.9053L53.0759 35.8914C52.8123 35.2388 52.8055 34.5106 53.057 33.8533L54.3248 36.8672C54.0672 37.5222 54.0672 38.2504 54.3248 38.9053V38.9053Z" fill="#FE3030"/>
<path d="M48.6268 37.8268L48.7376 38.0971L48.8511 38.3674L48.9701 38.6512L49.0917 38.9432L49.2161 39.2378L49.3404 39.5351L49.462 39.8298L49.5837 40.119L48.6268 37.8295V37.8268Z" fill="#FE3030"/>
<path d="M49.8891 40.8408C49.8944 40.8957 49.9081 40.9495 49.9296 41.0003L48.67 37.9836C48.6484 37.9336 48.6338 37.8809 48.6268 37.8268C49.0484 38.8324 49.4683 39.837 49.8864 40.8408C49.4683 39.8352 49.0484 38.8306 48.6268 37.8268C48.5727 37.4079 48.9403 36.9727 49.4377 36.8591L50.7 39.8731C50.2 39.9866 49.8323 40.4326 49.8891 40.8408Z" fill="#FE3030"/>
<path d="M51.6838 40.2649C51.6368 40.1638 51.5665 40.0752 51.4786 40.0066C51.3908 39.938 51.2878 39.8912 51.1783 39.8703L49.9186 36.8536C50.0279 36.8755 50.1304 36.9229 50.2177 36.9919C50.3051 37.061 50.3749 37.1498 50.4214 37.251L51.6838 40.2649Z" fill="#FE3030"/>
<path d="M45.1341 36.2887L46.3965 39.3026C46.9209 40.5596 46.3965 42.1463 44.9882 43.2113L43.7258 40.1974C45.1477 39.1323 45.6747 37.5456 45.1341 36.2887Z" fill="#F66767"/>
<path d="M50.4216 37.2511L51.6839 40.265C51.7032 40.3157 51.7167 40.3682 51.7245 40.4218C51.7759 40.8408 51.4109 41.276 50.9136 41.3895C50.758 41.4259 50.5961 41.4259 50.4405 41.3895C50.3316 41.368 50.2293 41.321 50.1419 41.2524C50.0545 41.1838 49.9846 41.0956 49.9378 40.9949L48.6781 37.9782C48.7234 38.0795 48.7925 38.1683 48.8796 38.2371C48.9667 38.3058 49.0692 38.3524 49.1782 38.3729C49.3338 38.4094 49.4957 38.4094 49.6512 38.3729C50.1567 38.2593 50.5243 37.8323 50.4622 37.4052C50.4557 37.3522 50.4421 37.3004 50.4216 37.2511V37.2511Z" fill="#FFFCED"/>
<path d="M49.9188 36.8537C50.0528 36.879 50.1761 36.9442 50.2725 37.0406C50.369 37.137 50.4341 37.2603 50.4594 37.3943C50.5108 37.8133 50.1432 38.2485 49.6485 38.362C49.4929 38.3985 49.331 38.3985 49.1755 38.362C49.0405 38.3388 48.9161 38.2744 48.8193 38.1776C48.7224 38.0808 48.658 37.9563 48.6349 37.8214C48.5808 37.4024 48.9484 36.9672 49.4458 36.8537C49.6015 36.8188 49.7631 36.8188 49.9188 36.8537Z" fill="#FFFCED"/>
<path d="M43.734 40.1947L44.9964 43.2086L39.4037 47.42L38.1441 44.4061L43.734 40.1947Z" fill="#F66767"/>
<path d="M54.3248 38.9053L53.076 35.8914C53.2709 36.3229 53.5666 36.7014 53.9382 36.9949C54.3098 37.2885 54.7464 37.4885 55.2114 37.5781L56.4873 40.592C56.0173 40.5068 55.5749 40.3088 55.1983 40.015C54.8216 39.7213 54.5219 39.3404 54.3248 38.9053V38.9053Z" fill="#F66767"/>
<path d="M38.1442 44.406L39.4039 47.4199C38.8547 47.8397 38.2217 48.1364 37.5477 48.2899C36.8738 48.4433 36.1747 48.4499 35.4979 48.3093C35.0392 48.2054 34.6073 48.0065 34.2302 47.7254L32.9705 44.7115C33.3486 44.9926 33.7814 45.1915 34.241 45.2953C34.9173 45.4354 35.6159 45.4285 36.2893 45.2751C36.9627 45.1217 37.5953 44.8253 38.1442 44.406Z" fill="#F66767"/>
<path d="M35.3815 47.7985L35.4897 48.0688L35.6059 48.3391L35.7248 48.6256L35.8465 48.9148L35.9708 49.2122L36.0924 49.5068L36.2168 49.8014L36.3384 50.0907L35.3815 47.8039V47.7985Z" fill="#FE3030"/>
<path d="M35.4247 51.3746C35.3787 51.4613 35.352 51.5569 35.3464 51.6549C35.3408 51.7529 35.3565 51.8509 35.3923 51.9423L34.1299 48.9283C34.0941 48.837 34.0785 48.7389 34.0841 48.641C34.0897 48.543 34.1164 48.4474 34.1624 48.3607L35.4247 51.3746L34.1624 48.3607C34.2787 48.1489 34.4599 47.9801 34.6794 47.8789C34.8988 47.7777 35.1448 47.7495 35.3815 47.7985C35.7995 48.8004 36.2194 49.805 36.6411 50.8124C36.223 49.8068 35.8031 48.8022 35.3815 47.7985C35.4904 47.8192 35.5928 47.8658 35.6798 47.9345C35.7669 48.0032 35.8361 48.0919 35.8815 48.1931L37.1439 51.207C37.0983 51.1054 37.0288 51.0164 36.9412 50.9476C36.8536 50.8789 36.7506 50.8325 36.6411 50.8124C36.4048 50.7632 36.159 50.7913 35.94 50.8925C35.721 50.9938 35.5403 51.1628 35.4247 51.3746Z" fill="#FE3030"/>
<path d="M35.8817 48.1931L37.1441 51.207C37.18 51.2979 37.1957 51.3955 37.1901 51.4931C37.1845 51.5907 37.1577 51.6858 37.1116 51.772C36.9961 51.9847 36.8152 52.1547 36.5957 52.2569C36.3762 52.3591 36.1297 52.3881 35.8925 52.3396C35.7836 52.318 35.6813 52.2707 35.5943 52.2016C35.5074 52.1325 35.4381 52.0436 35.3925 51.9423L34.1301 48.9283C34.176 49.0297 34.2457 49.1185 34.3332 49.1872C34.4207 49.2559 34.5235 49.3025 34.6329 49.323C34.8698 49.3722 35.1163 49.3438 35.3358 49.242C35.5554 49.1403 35.7363 48.9706 35.852 48.7581C35.897 48.6715 35.9229 48.5762 35.928 48.4788C35.9331 48.3814 35.9174 48.284 35.8817 48.1931Z" fill="#FFFCED"/>
<path d="M35.3816 47.7986C35.485 47.8152 35.5829 47.8563 35.6671 47.9186C35.7513 47.9809 35.8192 48.0625 35.8653 48.1565C35.9114 48.2506 35.9343 48.3543 35.9319 48.459C35.9296 48.5637 35.9022 48.6663 35.8519 48.7582C35.7363 48.9707 35.5553 49.1404 35.3358 49.2421C35.1162 49.3439 34.8698 49.3723 34.6329 49.3231C34.5291 49.3067 34.4308 49.2655 34.3463 49.203C34.2618 49.1405 34.1936 49.0587 34.1475 48.9643C34.1013 48.8699 34.0786 48.7657 34.0812 48.6607C34.0838 48.5556 34.1117 48.4528 34.1625 48.3608C34.2786 48.1488 34.4597 47.9796 34.6792 47.8784C34.8987 47.7772 35.145 47.7492 35.3816 47.7986V47.7986Z" fill="#FFFCED"/>
<path d="M61.5419 39.0649L62.8043 42.0789L56.4737 40.5922L55.2113 37.5782L61.5419 39.0649Z" fill="#F66767"/>
<path d="M66.3534 37.27L67.6158 40.284C67.0613 41.0025 66.3168 41.5517 65.4666 41.8693C64.6163 42.187 63.6941 42.2605 62.8043 42.0815L61.542 39.0811C62.4331 39.2605 63.3567 39.1859 64.2075 38.8656C65.0582 38.5454 65.8018 37.9925 66.3534 37.27V37.27Z" fill="#F66767"/>
<path d="M50.5728 45.371L51.8324 48.3849C51.7199 48.3615 51.6031 48.3703 51.4955 48.4105C51.3879 48.4507 51.2938 48.5206 51.2242 48.612L49.9619 45.5981C50.0321 45.5067 50.1267 45.4369 50.2347 45.3967C50.3427 45.3566 50.4599 45.3476 50.5728 45.371V45.371Z" fill="#FFFCED"/>
<path d="M32.4298 54.6048C31.9872 54.5016 31.5308 54.4706 31.0783 54.5129L29.816 51.499C30.2684 51.4575 30.7245 51.4877 31.1675 51.5882C31.5856 52.5937 32.0055 53.5984 32.4271 54.6021L32.1244 53.8777L31.1675 51.5909C31.6319 51.6808 32.0682 51.8803 32.4401 52.1727C32.812 52.4651 33.1087 52.8421 33.3056 53.2722L34.568 56.2861C34.371 55.856 34.0743 55.4791 33.7024 55.1867C33.3306 54.8942 32.8943 54.6948 32.4298 54.6048Z" fill="#FE3030"/>
<path d="M33.2948 53.2722L34.5571 56.2861C34.6449 56.5011 34.7049 56.7264 34.7355 56.9565L33.4732 53.948C33.4443 53.7157 33.3843 53.4884 33.2948 53.2722V53.2722Z" fill="#F66767"/>
<path d="M66.7237 43.9466L66.0939 42.4383C65.8831 41.9355 65.6722 41.4354 65.4641 40.9327C65.5926 40.8336 65.7411 40.7637 65.8994 40.7277C66.0576 40.6918 66.2218 40.6907 66.3805 40.7245L66.5264 41.0759L66.6048 41.2597L66.7643 41.6409L66.9265 42.0328L67.0941 42.4275L67.1752 42.6248L67.2563 42.8194L67.4157 43.2005L67.5671 43.5655C67.6025 43.6178 67.6273 43.6766 67.6401 43.7385C67.4814 43.7046 67.3172 43.7057 67.159 43.7417C67.0008 43.7776 66.8523 43.8475 66.7237 43.9466V43.9466Z" fill="#FE3030"/>
<path d="M67.6401 43.7411C67.2202 42.7356 66.8003 41.7309 66.3804 40.7272L66.5264 41.0786L66.6832 41.4516L66.8453 41.8381L67.0102 42.2328L67.1751 42.6274L67.3373 43.014L67.4941 43.387L67.6401 43.7411Z" fill="#FE3030"/>
<path d="M68.013 43.9466C67.8589 43.5736 67.7022 43.2033 67.5481 42.833C67.2778 42.2004 67.0075 41.5652 66.7507 40.9408C66.8345 40.9705 66.7993 41.057 66.8237 41.1138L66.975 41.4787L67.0561 41.6679L67.2183 42.0545L67.3832 42.4491L67.4643 42.6464L67.6292 43.0384L67.7887 43.4195L67.8643 43.6033L68.013 43.9466Z" fill="#FE3030"/>
<path d="M68.0131 43.9466C67.9111 43.8442 67.7815 43.7738 67.6401 43.7439C67.2202 42.7384 66.8003 41.7337 66.3804 40.73C66.5206 40.7594 66.6492 40.8289 66.7507 40.93V40.93L66.8994 41.2814L66.9751 41.4652L67.1346 41.8464L67.2184 42.041L68.0131 43.9331V43.9466Z" fill="#FE3030"/>
<path d="M66.7238 43.9465C66.5739 44.0408 66.4598 44.1824 66.3996 44.3489C66.3393 44.5154 66.3364 44.6972 66.3913 44.8656L65.1371 41.8544C65.0853 41.6856 65.09 41.5045 65.1505 41.3386C65.211 41.1727 65.324 41.0311 65.4723 40.9353C65.8399 41.8381 66.3454 43.0437 66.7238 43.9465Z" fill="#FE3030"/>
<path d="M68.1457 44.1385C68.1153 44.0653 68.0702 43.999 68.0133 43.9439L66.759 40.9272C66.8155 40.9838 66.8605 41.0509 66.8915 41.1246L68.1457 44.1385Z" fill="#FE3030"/>
<path d="M38.1063 54.4643C37.3982 56.7568 37.5052 59.2237 38.409 61.4463L37.1494 58.4324C36.2429 56.2103 36.1359 53.7425 36.8466 51.4503L36.9926 51.8044L37.1494 52.1774L37.3115 52.564L37.4764 52.9586L37.5602 53.156L37.7224 53.5479L37.8035 53.7398L37.8819 53.929L37.9603 54.1129C38.0262 54.222 38.0754 54.3405 38.1063 54.4643V54.4643Z" fill="#FE3030"/>
<path d="M38.9172 52.4073C38.5891 53.0687 38.3178 53.7569 38.1063 54.4643C37.6864 53.4606 37.2665 52.4559 36.8466 51.4504C37.0582 50.743 37.3295 50.0548 37.6576 49.3933C40.9553 42.66 49.7052 38.6054 57.1603 40.3596C61.1203 41.2895 63.918 43.6736 65.1993 46.7146L66.4616 49.7285C65.1912 46.6876 62.38 44.3034 58.4199 43.3736C50.9513 41.6193 42.2015 45.6739 38.9172 52.4073Z" fill="#FE3030"/>
<path d="M64.6883 46.9199L65.948 49.9338C64.7235 47.0037 62.0123 44.7034 58.1955 43.8059C51.0026 42.1165 42.5663 46.0252 39.3848 52.5207C37.8927 55.567 37.8197 58.6486 38.9009 61.2381L37.6413 58.2242C36.5601 55.6346 36.633 52.5477 38.1224 49.5067C41.304 43.0193 49.7457 39.0999 56.9332 40.792C60.7499 41.6894 63.4611 43.9898 64.6883 46.9199Z" fill="#C62525"/>
<path d="M63.0448 46.9416C62.8231 46.7416 62.5906 46.547 62.3474 46.3632C61.9293 45.3576 61.5094 44.353 61.0877 43.3492C61.331 43.5331 61.5635 43.725 61.7824 43.9277L61.8716 44.1385L61.9635 44.3629L62.0608 44.5927L62.1608 44.8305L62.2582 45.0657L62.3555 45.2982L62.4501 45.5225L62.5366 45.7307L62.596 45.8739L62.6582 46.0226L62.7231 46.1794L62.7907 46.3361L62.8555 46.4956L62.9231 46.6497L62.9853 46.8011L63.0448 46.9416Z" fill="#FE3030"/>
<path d="M55.7791 46.5929L57.0387 49.6068L51.8326 48.3823L50.5729 45.3684L55.7791 46.5929Z" fill="#FFFCED"/>
<path d="M66.8833 41.1246L68.1456 44.1386C68.1977 44.3071 68.1934 44.488 68.1334 44.6538C68.0734 44.8197 67.961 44.9614 67.8132 45.0576C67.6835 45.1555 67.5345 45.2246 67.376 45.2605C67.2176 45.2964 67.0533 45.2982 66.8941 45.2658C66.7542 45.2341 66.6259 45.1639 66.5238 45.063C66.4674 45.0074 66.4224 44.9413 66.3913 44.8684L65.1371 41.8545C65.1691 41.9268 65.214 41.9928 65.2696 42.0491C65.372 42.1495 65.5001 42.2196 65.6399 42.2518C65.7991 42.2842 65.9633 42.2825 66.1218 42.2466C66.2802 42.2107 66.4293 42.1415 66.5589 42.0437C66.7074 41.9482 66.8198 41.8061 66.8785 41.6397C66.9373 41.4733 66.9389 41.2921 66.8833 41.1246V41.1246Z" fill="#FFFCED"/>
<path d="M52.1379 49.0824L53.3975 52.0964C53.2851 52.0736 53.1684 52.0827 53.0609 52.1229C52.9534 52.163 52.8593 52.2325 52.7893 52.3234L51.5297 49.3095C51.5997 49.2186 51.6938 49.1491 51.8013 49.1089C51.9088 49.0688 52.0254 49.0596 52.1379 49.0824V49.0824Z" fill="#FE3030"/>
<path d="M63.0448 46.9415C63.0321 46.9194 63.0222 46.8958 63.0151 46.8713L62.8907 46.5739L62.8232 46.4171L62.7907 46.3361L62.5366 45.7306L61.7825 43.9276C62.1094 44.2236 62.4138 44.5435 62.6934 44.8845L62.8421 45.2359L62.9989 45.6089L63.161 45.9955L63.3259 46.3901L63.4908 46.7848L63.653 47.1713L63.8071 47.5443L63.9557 47.8984C63.674 47.5593 63.3697 47.2396 63.0448 46.9415V46.9415Z" fill="#FE3030"/>
<path d="M64.2911 48.3255C64.1829 48.1796 64.0721 48.0363 63.9559 47.8985C63.5342 46.8857 63.117 45.8811 62.7043 44.8845C62.8206 45.0224 62.9341 45.1548 63.0395 45.3116L63.1504 45.5819L63.2666 45.8522L63.3882 46.1442L63.5126 46.4388L63.6369 46.7361L63.7585 47.0281L63.8748 47.2984L63.9856 47.5687L64.0235 47.6579L64.0613 47.7498L64.1018 47.8471L64.1424 47.9444L64.1856 48.0417L64.2262 48.139L64.264 48.2309L64.2911 48.3255Z" fill="#FE3030"/>
<path d="M53.7165 49.4608L54.9762 52.4747L53.3976 52.1044L52.1379 49.0878L53.7165 49.4608Z" fill="#FE3030"/>
<path d="M51.5298 49.3176L52.7894 52.3316L51.3757 54.2886L50.1134 51.2747L51.5298 49.3176Z" fill="#FE3030"/>
<path d="M51.3161 54.6562L50.0564 51.6423C50.0329 51.5814 50.0258 51.5154 50.0357 51.4509C50.0457 51.3864 50.0724 51.3256 50.1132 51.2747L51.3755 54.2913C51.3345 54.3416 51.3074 54.4018 51.297 54.4658C51.2866 54.5298 51.2931 54.5955 51.3161 54.6562V54.6562Z" fill="#FE3030"/>
<path d="M54.5735 50.0447L55.8358 53.0586C55.7169 52.7883 55.4304 52.5829 54.9763 52.4775L53.7166 49.4608C54.168 49.5689 54.4573 49.7636 54.5735 50.0447Z" fill="#FE3030"/>
<path d="M51.5864 54.867C51.5279 54.8558 51.4728 54.8309 51.4258 54.7942C51.3788 54.7575 51.3412 54.7102 51.3161 54.6561L50.0565 51.6422C50.0812 51.6965 50.1187 51.7441 50.1658 51.7808C50.2128 51.8175 50.2681 51.8423 50.3268 51.8531L51.5864 54.867Z" fill="#FFFCED"/>
<path d="M55.8356 53.0586C55.8356 53.0829 55.8546 53.1073 55.86 53.1316L54.5949 50.1177C54.5949 50.0933 54.5787 50.069 54.5679 50.0447L55.8356 53.0586Z" fill="#FFFCED"/>
<path d="M59.804 51.7179C59.3553 50.6367 58.4345 49.9339 57.0415 49.6095L55.7791 46.5956C57.1703 46.9218 58.0921 47.6237 58.5444 48.7013L59.804 51.7179Z" fill="#FFFCED"/>
<path d="M58.5442 48.7013L59.8038 51.7152C59.8122 51.7328 59.8194 51.7508 59.8255 51.7693L58.5658 48.7527C58.5577 48.7364 58.5523 48.7202 58.5442 48.7013Z" fill="#FE3030"/>
<path d="M51.8892 52.2179L53.1489 55.2346L51.5865 54.867L50.3268 51.853L51.8892 52.2179Z" fill="#FFFCED"/>
<path d="M55.86 53.137C55.9763 53.4614 55.8871 53.8263 55.5897 54.2318L55.4411 53.8804L55.2843 53.5073L55.1221 53.1181L54.9572 52.7234L54.6301 51.9423C54.5301 51.7017 54.4301 51.4584 54.3274 51.2178C54.6166 50.8124 54.7058 50.4475 54.5977 50.1366C54.9788 51.0205 55.5086 52.2153 55.86 53.137Z" fill="#FFFCED"/>
<path d="M55.6006 54.2183L54.3383 51.2043L55.6006 54.2183Z" fill="#FFFCED"/>
<path d="M33.4731 53.9398L34.7354 56.9565L35.4733 62.6546L34.2137 59.6406L33.4731 53.9398Z" fill="#F66767"/>
<path d="M53.2001 55.2483L53.1488 55.2348L51.8918 52.2208H51.9405L52.0757 52.5398L52.2162 52.8777L52.3649 53.2291L52.5135 53.5886L52.6649 53.9454L52.8109 54.2968L52.9515 54.6374L53.0866 54.9563V54.9888L53.1001 55.0239L53.1163 55.0591L53.1298 55.0942L53.1461 55.132L53.1623 55.1672L53.1758 55.2023L53.2001 55.2483Z" fill="#FFFCED"/>
<path d="M53.2002 55.2481C52.7785 54.2425 52.3578 53.2379 51.9379 52.2341L52.0866 52.5855L52.2433 52.9586L52.4055 53.3478L52.5704 53.7425L52.7353 54.1371L52.8975 54.5236L53.0516 54.8967L53.2002 55.2481V55.2481Z" fill="#FFFCED"/>
<path d="M39.974 52.6586C38.5467 55.5725 38.4737 58.5162 39.5063 60.9868L38.244 57.9729C37.2114 55.5023 37.2844 52.5667 38.7116 49.6447C41.7553 43.4276 49.7942 39.7055 56.6736 41.3246C58.2692 41.6819 59.7715 42.3718 61.0823 43.3492L61.2283 43.7006L61.3851 44.0736L61.5472 44.4602L61.7121 44.8548L61.877 45.2495L62.0392 45.636L62.196 46.009L62.3419 46.3631C61.0295 45.385 59.5253 44.6951 57.9278 44.3385C51.0566 42.7221 43.0149 46.4469 39.974 52.6586Z" fill="#FE3030"/>
<path d="M64.2909 48.3256C64.2835 48.3117 64.2771 48.2972 64.272 48.2823L64.2341 48.1904L64.2152 48.1445L64.1314 47.9499L63.9746 47.5741C63.6611 46.8209 63.3457 46.0667 63.0286 45.3116C63.4533 45.888 63.8072 46.5133 64.0828 47.1741L65.3451 50.188C65.0674 49.5283 64.7136 48.9032 64.2909 48.3256V48.3256Z" fill="#FE3030"/>
<path d="M54.4788 55.1212C54.3788 54.8779 54.2761 54.6373 54.176 54.394C54.076 54.1508 53.9571 53.8724 53.849 53.6129L53.2191 52.1072C53.6695 51.9212 54.0576 51.6109 54.3382 51.2125L54.4869 51.5639L54.641 51.9369L54.8031 52.3235L54.968 52.7181L55.1329 53.1128L55.2951 53.502L55.4519 53.8751L55.6006 54.2265C55.3197 54.6256 54.9304 54.9361 54.4788 55.1212V55.1212Z" fill="#FFFCED"/>
<path d="M54.4787 55.1211C54.0799 55.3027 53.6323 55.3474 53.2055 55.2482C52.7838 54.2462 52.3631 53.2416 51.9432 52.2342C52.3709 52.3334 52.8193 52.2888 53.219 52.1072L54.4787 55.1211Z" fill="#FFFCED"/>
<path d="M53.7166 49.4609C54.2067 49.5781 54.5014 49.797 54.6005 50.1178C54.7167 50.4422 54.6248 50.8071 54.3302 51.199C54.0496 51.5974 53.6615 51.9077 53.2111 52.0937C52.8114 52.2753 52.3629 52.32 51.9352 52.2208H51.8812L50.3188 51.8532C50.2569 51.8431 50.1987 51.8168 50.1503 51.777C50.1019 51.7371 50.0649 51.6851 50.0432 51.6262C50.0215 51.5674 50.0158 51.5039 50.0267 51.4421C50.0376 51.3803 50.0647 51.3226 50.1053 51.2747L51.5217 49.3177C51.5917 49.2267 51.6858 49.1573 51.7933 49.1171C51.9008 49.077 52.0174 49.0678 52.1299 49.0906L53.7166 49.4609Z" fill="#FFFCED"/>
<path d="M49.9647 45.5955L51.2243 48.6121L43.007 60.0002L41.7473 56.9862L49.9647 45.5955Z" fill="#FFFCED"/>
<path d="M39.1334 61.7465C39.0523 61.5816 38.9739 61.4113 38.9036 61.241L37.6413 58.2271C37.7143 58.3973 37.79 58.5649 37.8711 58.7325C37.917 58.8379 37.9765 58.9785 38.0197 59.0839L38.1765 59.457L38.3387 59.8462L38.5036 60.2408L38.6685 60.6328L38.8307 61.022L38.9847 61.3951L39.1334 61.7465Z" fill="#FE3030"/>
<path d="M48.2807 54.4615L49.5404 57.4755C49.4283 57.4516 49.3117 57.4602 49.2044 57.5005C49.0971 57.5407 49.0036 57.6108 48.9349 57.7025L47.6725 54.6886C47.7421 54.5972 47.8362 54.5273 47.9438 54.4871C48.0514 54.447 48.1683 54.4381 48.2807 54.4615V54.4615Z" fill="#FE3030"/>
<path d="M44.6911 58.2053L45.9534 61.2193L43.2206 60.5759L41.9583 57.562L44.6911 58.2053Z" fill="#FE3030"/>
<path d="M43.007 60.0001C42.9669 60.0509 42.9406 60.1112 42.9307 60.1751C42.9207 60.2391 42.9275 60.3045 42.9502 60.3651L41.6879 57.3511C41.6655 57.2903 41.6592 57.2248 41.6696 57.1608C41.68 57.0969 41.7068 57.0367 41.7473 56.9862L43.007 60.0001Z" fill="#FFFCED"/>
<path d="M42.9502 60.3651L41.6879 57.3512C41.7132 57.4054 41.7508 57.4529 41.7978 57.49C41.8447 57.5271 41.8996 57.5527 41.9582 57.5647L43.2205 60.5787C43.1616 60.5674 43.1063 60.5421 43.0593 60.505C43.0122 60.4678 42.9748 60.4198 42.9502 60.3651V60.3651Z" fill="#FE3030"/>
<path d="M49.1347 54.6589L50.3943 57.6755L49.5402 57.4728L48.2805 54.4589L49.1347 54.6589Z" fill="#FE3030"/>
<path d="M49.4293 55.0266L50.689 58.0405L50.3889 61.9654L49.1293 58.9515L49.4293 55.0266Z" fill="#FFFCED"/>
<path d="M49.4052 54.8725L50.6648 57.8864C50.6403 57.8319 50.6028 57.7843 50.5557 57.7475C50.5086 57.7108 50.4533 57.6861 50.3945 57.6756L49.1349 54.6616C49.1935 54.6726 49.2486 54.6975 49.2957 54.7342C49.3427 54.7708 49.3803 54.8183 49.4052 54.8725Z" fill="#FE3030"/>
<path d="M49.4052 54.8724L50.6649 57.8864C50.6852 57.9351 50.6935 57.9879 50.6892 58.0405L49.4296 55.0292C49.4329 54.9758 49.4246 54.9223 49.4052 54.8724V54.8724Z" fill="#FFFCED"/>
<path d="M34.2139 59.6407L35.4735 62.6547C35.6654 64.1306 34.6301 65.6497 33.0407 66.4066L31.7811 63.3926C33.3705 62.6331 34.4058 61.1166 34.2139 59.6407Z" fill="#F66767"/>
<path d="M31.1566 51.5909L31.2675 51.8613L31.381 52.1316L31.4999 52.4154L31.6216 52.7073L31.7459 53.002L31.8702 53.2993L31.9919 53.5939L32.1135 53.8832L31.1566 51.5936V51.5909Z" fill="#FE3030"/>
<path d="M33.4732 53.9481L34.2138 59.6462C34.4057 61.122 33.3705 62.6385 31.7811 63.398C29.524 60.0327 28.7563 55.8456 29.8051 51.5045C30.2575 51.463 30.7136 51.4931 31.1566 51.5937C32.3974 51.8802 33.3191 52.7452 33.4732 53.9481Z" fill="#F66767"/>
<path d="M47.6725 54.6859L48.9349 57.6998L46.5616 60.9922L45.2992 57.9783L47.6725 54.6859Z" fill="#FE3030"/>
<path d="M45.2992 57.9783L46.5615 60.9922C46.4919 61.0836 46.3979 61.1535 46.2902 61.1937C46.1826 61.2339 46.0658 61.2427 45.9533 61.2193L44.691 58.2053C44.8034 58.2288 44.9203 58.2199 45.0279 58.1797C45.1355 58.1396 45.2296 58.0697 45.2992 57.9783V57.9783Z" fill="#FE3030"/>
<path d="M58.5658 48.7527L59.8254 51.7693C60.2687 52.874 60.0525 54.0282 59.1767 55.232C58.6193 56.0034 57.9008 56.6444 57.071 57.1106C56.3713 57.5196 55.6072 57.8066 54.8112 57.9594C54.6911 57.9758 54.5792 58.0299 54.4918 58.114C54.4044 58.198 54.3459 58.3076 54.3247 58.427L53.0623 55.4131C53.0839 55.2938 53.1426 55.1845 53.2299 55.1005C53.3173 55.0165 53.4289 54.9623 53.5489 54.9454C54.3457 54.7927 55.1107 54.5057 55.8114 54.0967C56.6419 53.6258 57.3604 52.9802 57.9171 52.2045C58.7929 51.0116 59.0091 49.8609 58.5658 48.7527Z" fill="#FE3030"/>
<path d="M37.6495 65.8416L36.3871 62.8276C36.4331 62.9331 36.4898 63.0736 36.5358 63.179L36.6926 63.5521L36.852 63.9413L37.0196 64.336L37.1845 64.7306L37.3467 65.1171L37.5008 65.4902L37.6495 65.8416Z" fill="#FE3030"/>
<path d="M38.5657 65.6254C38.4068 65.5928 38.2427 65.5948 38.0846 65.6312C37.9265 65.6676 37.7781 65.7375 37.6493 65.8362L37.5007 65.4848L37.3466 65.1118L37.0249 64.3306C36.9141 64.0603 36.806 63.8089 36.6979 63.5467C36.5897 63.2845 36.4951 63.0629 36.3924 62.8223C36.5216 62.7235 36.6705 62.6536 36.8291 62.6172C36.9876 62.5808 37.1521 62.5789 37.3115 62.6114L37.4574 62.9628L37.6142 63.3386L37.7764 63.7251L37.9413 64.1198L38.1062 64.5144L38.2683 64.9009L38.4251 65.274L38.5657 65.6254Z" fill="#FE3030"/>
<path d="M38.5658 65.6254C38.1478 64.6234 37.7279 63.6188 37.3062 62.6115L37.4522 62.9656L37.6089 63.3386L37.7711 63.7251L37.936 64.1198L38.1009 64.5144L38.2631 64.901L38.4199 65.274L38.5658 65.6254Z" fill="#FE3030"/>
<path d="M38.9389 65.8414C38.8354 65.741 38.7064 65.6709 38.5658 65.6387C38.1478 64.6367 37.7279 63.6321 37.3062 62.6248C37.4462 62.6564 37.5745 62.7266 37.6765 62.8275C37.7321 62.8832 37.7762 62.9494 37.8063 63.0221L39.0686 66.036C39.0376 65.9638 38.9936 65.8979 38.9389 65.8414V65.8414Z" fill="#FE3030"/>
<path d="M37.6495 65.8416C37.499 65.936 37.3845 66.078 37.3243 66.2451C37.264 66.4122 37.2614 66.5946 37.317 66.7633L36.0547 63.7467C36.0026 63.5782 36.0069 63.3973 36.0669 63.2314C36.1269 63.0656 36.2393 62.9238 36.3871 62.8276L36.5358 63.179L36.6899 63.5521L36.8521 63.9413L37.017 64.336L37.1818 64.7279L37.344 65.1171L37.5008 65.4902L37.6495 65.8416Z" fill="#FE3030"/>
<path d="M50.4133 62.1193L49.1537 59.1054C49.1332 59.0577 49.1248 59.0057 49.1294 58.954L50.389 61.9679C50.3859 62.0195 50.3942 62.0712 50.4133 62.1193Z" fill="#FFFCED"/>
<path d="M37.8061 63.0087L39.0685 66.0226C39.1208 66.1908 39.1169 66.3715 39.0574 66.5373C38.9979 66.7031 38.886 66.8451 38.7387 66.9416C38.6089 67.0403 38.4595 67.1102 38.3006 67.1466C38.1416 67.1829 37.9767 67.1849 37.8169 67.1525C37.6765 67.122 37.548 67.0516 37.4466 66.9498C37.3911 66.895 37.347 66.8298 37.3169 66.7578L36.0545 63.7412C36.0849 63.8138 36.1289 63.8799 36.1843 63.9358C36.287 64.0372 36.4163 64.1075 36.5573 64.1386C36.7166 64.1711 36.8811 64.1692 37.0397 64.1328C37.1982 64.0964 37.3471 64.0265 37.4763 63.9277C37.6261 63.8334 37.7399 63.6916 37.7997 63.5251C37.8595 63.3585 37.8617 63.1767 37.8061 63.0087Z" fill="#FFFCED"/>
<path d="M50.4135 62.1193L49.1538 59.1053C49.1782 59.1602 49.2156 59.2083 49.2627 59.2455C49.3097 59.2827 49.3652 59.3079 49.4241 59.3189L50.6838 62.3274C50.6253 62.3169 50.5703 62.2926 50.5232 62.2563C50.4762 62.2201 50.4385 62.1731 50.4135 62.1193V62.1193Z" fill="#FE3030"/>
<path d="M68.3511 45.9847L69.6108 48.9987L70.3514 54.6968L69.0918 51.6828L68.3511 45.9847Z" fill="#FE3030"/>
<path d="M70.3513 54.6994C70.3815 54.9299 70.4424 55.1553 70.5324 55.3697L69.27 52.3558C69.1813 52.1412 69.1213 51.9158 69.0916 51.6854C69.462 52.5964 70.0972 53.7533 70.3513 54.6994Z" fill="#FE3030"/>
<path d="M53.0624 55.4104L54.3247 58.427L54.0761 62.5222L52.8137 59.5083L53.0624 55.4104Z" fill="#FE3030"/>
<path d="M52.1243 59.9542L53.3867 62.9681L50.6836 62.3329L49.4239 59.319L52.1243 59.9542Z" fill="#FE3030"/>
<path d="M52.8138 59.5083L54.0762 62.5222C54.0622 62.5978 54.0329 62.6697 53.9902 62.7336C53.9474 62.7975 53.8921 62.8519 53.8276 62.8937C53.7631 62.9354 53.6907 62.9636 53.6149 62.9764C53.5391 62.9892 53.4616 62.9864 53.3869 62.9682L52.1245 59.9543C52.1992 59.9725 52.2768 59.9753 52.3526 59.9625C52.4284 59.9496 52.5007 59.9215 52.5652 59.8797C52.6298 59.838 52.6851 59.7835 52.7278 59.7197C52.7706 59.6558 52.7998 59.5839 52.8138 59.5083V59.5083Z" fill="#FE3030"/>
<path d="M64.0828 47.1714L65.3425 50.1853C66.3777 52.6559 66.3047 55.5915 64.8775 58.5162C61.8339 64.7333 53.7949 68.4554 46.9183 66.8363C43.2664 65.9794 40.6768 63.7872 39.5064 60.9895L38.2468 57.9756C39.4145 60.7733 42.004 62.9655 45.6559 63.8224C52.5325 65.4442 60.5742 61.714 63.6152 55.5023C65.0424 52.5965 65.1154 49.642 64.0828 47.1714Z" fill="#FFFCED"/>
<path d="M65.4641 58.6541C65.0654 59.4666 64.5893 60.2388 64.0423 60.9598C63.6206 59.9543 63.1998 58.9497 62.78 57.9459C63.3278 57.2249 63.8049 56.4528 64.2045 55.6402C65.6966 52.5911 65.7723 49.5096 64.6856 46.92L65.948 49.934C67.0292 52.5235 66.9589 55.6077 65.4641 58.6541Z" fill="#FE3030"/>
<path d="M46.6589 67.366C43.0638 66.5227 40.4418 64.4332 39.1335 61.7463L37.8712 58.7324C39.1903 61.4193 41.8015 63.506 45.3966 64.3521C51.6894 65.8334 58.9363 63.0222 62.7801 57.9458C62.826 58.0512 62.8828 58.1918 62.9288 58.2972L63.0828 58.6702L63.245 59.0568L63.4099 59.4514L63.5748 59.8461L63.737 60.2326L63.8938 60.6056L64.0424 60.9597C60.1987 66.0361 52.949 68.8473 46.6589 67.366Z" fill="#FE3030"/>
<path d="M65.1858 46.7118L66.4455 49.7257C67.57 52.4126 67.4916 55.6076 65.9454 58.7675C62.6477 65.5009 53.9005 69.5528 46.4454 67.8012C42.4854 66.8687 39.6742 64.49 38.4037 61.4463L37.1441 58.4324C38.4145 61.4706 41.2257 63.8547 45.1858 64.7873C52.6409 66.5389 61.388 62.487 64.6858 55.7536C66.2319 52.5964 66.3103 49.396 65.1858 46.7118Z" fill="#C62525"/>
<path d="M57.1467 40.3595C64.6018 42.1111 67.9834 49.0094 64.6856 55.7671C61.3879 62.5248 52.6407 66.5524 45.1856 64.8008C37.7305 63.0492 34.3462 56.1509 37.644 49.4068C40.9418 42.6626 49.6916 38.6052 57.1467 40.3595ZM45.4045 64.3521C52.5947 66.0442 61.031 62.1356 64.2126 55.6401C67.3941 49.1446 64.1315 42.4842 56.9413 40.792C49.7511 39.0999 41.3121 43.0113 38.1306 49.5068C34.949 56.0023 38.2143 62.6627 45.4045 64.3521" fill="#C62525"/>
<path d="M56.6737 41.3246C63.5503 42.9464 66.6588 49.2878 63.6152 55.5022C60.5715 61.7166 52.5325 65.4387 45.6559 63.8223C38.7793 62.2059 35.6734 55.859 38.7117 49.6446C41.7499 43.4303 49.797 39.7054 56.6737 41.3246ZM57.9171 52.218C58.7929 51.016 59.0091 49.8618 58.5658 48.7553C58.1225 47.6489 57.1935 46.928 55.7789 46.5929L50.5728 45.3684C50.4599 45.345 50.3428 45.3539 50.2347 45.3941C50.1267 45.4342 50.0321 45.504 49.9619 45.5954L41.7472 56.9835C41.7059 57.0309 41.6779 57.0885 41.6664 57.1503C41.6549 57.2121 41.6602 57.2759 41.6817 57.335C41.7033 57.3941 41.7403 57.4464 41.7889 57.4863C41.8375 57.5262 41.8959 57.5523 41.9581 57.562L44.6909 58.2026C44.8034 58.2261 44.9202 58.2172 45.0278 58.177C45.1355 58.1368 45.2295 58.067 45.2991 57.9755L47.6724 54.6859C47.742 54.5945 47.836 54.5246 47.9437 54.4844C48.0513 54.4442 48.1681 54.4354 48.2806 54.4588L49.1348 54.6589C49.2205 54.6722 49.2981 54.7169 49.3526 54.7844C49.4071 54.8518 49.4345 54.9372 49.4294 55.0238L49.1294 58.9513C49.1243 59.0379 49.1517 59.1233 49.2062 59.1907C49.2606 59.2582 49.3383 59.303 49.424 59.3163L52.1271 59.9515C52.2017 59.9697 52.2793 59.9725 52.3551 59.9596C52.4309 59.9468 52.5032 59.9187 52.5678 59.8769C52.6323 59.8352 52.6876 59.7807 52.7304 59.7168C52.7731 59.653 52.8024 59.581 52.8164 59.5055L53.065 55.4103C53.0866 55.2911 53.1453 55.1817 53.2326 55.0977C53.32 55.0138 53.4316 54.9595 53.5516 54.9427C54.3484 54.7899 55.1134 54.5029 55.8141 54.0939C56.6447 53.623 57.3631 52.9774 57.9198 52.2018" fill="#FFFCED"/>
<path d="M58.5659 48.7527C59.0056 49.8609 58.7894 51.016 57.9172 52.218C57.3605 52.9937 56.642 53.6393 55.8115 54.1102C55.1108 54.5192 54.3458 54.8062 53.549 54.9589C53.429 54.9758 53.3174 55.03 53.23 55.114C53.1427 55.198 53.084 55.3073 53.0624 55.4266L52.8137 59.5217C52.7997 59.5973 52.7705 59.6692 52.7277 59.7331C52.685 59.797 52.6297 59.8514 52.5651 59.8932C52.5006 59.9349 52.4283 59.9631 52.3525 59.9759C52.2767 59.9887 52.1991 59.9859 52.1245 59.9677L49.4214 59.3325C49.3357 59.3192 49.258 59.2745 49.2035 59.207C49.1491 59.1395 49.1217 59.0542 49.1267 58.9676L49.4295 55.0292C49.4345 54.9426 49.4072 54.8573 49.3527 54.7898C49.2982 54.7223 49.2205 54.6776 49.1348 54.6643L48.2807 54.4643C48.1682 54.4408 48.0514 54.4497 47.9437 54.4899C47.8361 54.53 47.7421 54.5999 47.6725 54.6913L45.2992 57.981C45.2296 58.0724 45.1355 58.1423 45.0279 58.1824C44.9203 58.2226 44.8034 58.2315 44.691 58.208L41.9582 57.5674C41.896 57.5578 41.8376 57.5316 41.789 57.4917C41.7403 57.4518 41.7033 57.3996 41.6818 57.3405C41.6603 57.2814 41.655 57.2176 41.6665 57.1558C41.678 57.0939 41.7059 57.0363 41.7473 56.9889L49.962 45.6009C50.0322 45.5095 50.1268 45.4397 50.2348 45.3995C50.3428 45.3594 50.46 45.3505 50.5729 45.3738L55.779 46.5983C57.1936 46.9281 58.1226 47.6462 58.5659 48.7527ZM54.3383 51.2125C54.6248 50.807 54.7167 50.4421 54.6086 50.1312C54.5005 49.8204 54.2139 49.5906 53.7247 49.4744L52.138 49.0824C52.0255 49.0596 51.9089 49.0688 51.8014 49.1089C51.6939 49.1491 51.5998 49.2186 51.5298 49.3095L50.1134 51.2665C50.0728 51.3144 50.0457 51.3721 50.0348 51.4339C50.0239 51.4957 50.0296 51.5592 50.0513 51.6181C50.0731 51.6769 50.11 51.7289 50.1584 51.7688C50.2068 51.8087 50.265 51.835 50.3269 51.845L51.8893 52.2126H51.9433C52.371 52.3118 52.8195 52.2671 53.2192 52.0856C53.6696 51.8995 54.0577 51.5892 54.3383 51.1908" fill="#FE3030"/>
<path d="M68.3051 55.5402L68.4132 55.8105L68.5294 56.0808L68.6484 56.3646L68.77 56.6565L68.8944 56.9512L69.016 57.2485L69.1403 57.5431L69.262 57.8324L68.3051 55.5429V55.5402Z" fill="#FE3030"/>
<path d="M70.5432 55.3699L69.2808 52.356C69.4777 52.7861 69.7745 53.163 70.1464 53.4554C70.5182 53.7479 70.9545 53.9473 71.4189 54.0373C71.6199 54.0843 71.8241 54.1159 72.0298 54.1319L73.2895 57.1458C73.0838 57.1297 72.8796 57.098 72.6786 57.0512C72.2146 56.9609 71.7789 56.7612 71.4075 56.4688C71.0361 56.1764 70.7398 55.7997 70.5432 55.3699Z" fill="#F66767"/>
<path d="M68.3483 59.119C68.3022 59.2052 68.2754 59.3003 68.2698 59.3979C68.2642 59.4955 68.2799 59.5931 68.3159 59.6839L67.0562 56.67C67.0199 56.5793 67.0037 56.4818 67.0088 56.3843C67.014 56.2867 67.0403 56.1914 67.086 56.1051C67.5076 57.1088 67.9284 58.1126 68.3483 59.1163C67.9266 58.1144 67.5058 57.1106 67.086 56.1051C67.2019 55.8928 67.383 55.7234 67.6024 55.6217C67.8218 55.52 68.0681 55.4914 68.305 55.5401C68.7231 56.5457 69.143 57.5503 69.5647 58.5541C69.1448 57.5485 68.7249 56.5439 68.305 55.5401C68.4145 55.5613 68.5173 55.6085 68.6048 55.6776C68.6923 55.7468 68.7619 55.8359 68.8078 55.9375L70.0675 58.9514C70.0215 58.8498 69.9519 58.7607 69.8644 58.6916C69.7769 58.6224 69.6741 58.5753 69.5647 58.5541C69.3282 58.5055 69.0823 58.5342 68.8633 58.6359C68.6443 58.7376 68.4638 58.907 68.3483 59.119Z" fill="#FE3030"/>
<path d="M68.8078 55.9374L70.0674 58.9513C70.1038 59.042 70.1199 59.1395 70.1148 59.2371C70.1097 59.3346 70.0834 59.4299 70.0377 59.5163C69.9216 59.729 69.7401 59.8988 69.5201 60.0005C69.3001 60.1023 69.0532 60.1305 68.8159 60.0812C68.7068 60.06 68.6043 60.0128 68.5173 59.9437C68.4302 59.8745 68.3611 59.7854 68.3158 59.6838L67.0562 56.6699C67.1019 56.7712 67.1711 56.8601 67.2581 56.9292C67.3451 56.9983 67.4473 57.0457 67.5563 57.0673C67.7932 57.1169 68.0398 57.0887 68.2595 56.9869C68.4791 56.8851 68.66 56.7152 68.7754 56.5023C68.8214 56.4162 68.8482 56.321 68.8538 56.2234C68.8594 56.1259 68.8437 56.0283 68.8078 55.9374V55.9374Z" fill="#FFFCED"/>
<path d="M56.9334 40.792C64.1235 42.4842 67.3862 49.1445 64.2046 55.64C61.0231 62.1356 52.5814 66.0442 45.3966 64.3521C38.2118 62.66 34.9438 56.0023 38.1226 49.5068C41.3014 43.0113 49.7432 39.0999 56.9334 40.792ZM45.6561 63.8223C52.5327 65.4441 60.5744 61.7139 63.6154 55.5022C66.6563 49.2905 63.5505 42.941 56.6739 41.3245C49.7972 39.7081 41.7556 43.4329 38.7119 49.6446C35.6682 55.8563 38.7795 62.2058 45.6561 63.8223" fill="#FE3030"/>
<path d="M55.0276 69.4988C54.6077 68.4933 54.1878 67.4886 53.768 66.4849L53.9139 66.8363L54.0707 67.2093L54.2329 67.5958L54.3978 67.9905L54.5627 68.3851L54.7249 68.7717L54.8816 69.1447L55.0276 69.4988V69.4988Z" fill="#FE3030"/>
<path d="M54.5572 69.5015C54.3688 69.5369 54.1937 69.6231 54.0508 69.7508C53.9079 69.8785 53.8026 70.0428 53.7463 70.2259C53.3246 69.2222 52.9038 68.2176 52.4839 67.212C52.5408 67.0291 52.6462 66.8651 52.7891 66.7375C52.9319 66.6099 53.1067 66.5235 53.2948 66.4876C53.7165 67.4895 54.1373 68.4942 54.5572 69.5015C54.1355 68.496 53.7147 67.4913 53.2948 66.4876C53.4504 66.4511 53.6123 66.4511 53.7679 66.4876L53.9139 66.839L54.0706 67.212L54.2328 67.5986L54.3977 67.9932L54.5626 68.3878L54.7248 68.7744L54.8816 69.1474L55.0275 69.5015C54.8729 69.465 54.7118 69.465 54.5572 69.5015V69.5015Z" fill="#FE3030"/>
<path d="M55.5304 69.8963C55.4845 69.7949 55.4148 69.7061 55.3273 69.6374C55.2398 69.5687 55.137 69.5221 55.0276 69.5016C54.6077 68.4961 54.1878 67.4914 53.768 66.4877C53.8772 66.5086 53.9798 66.5554 54.0672 66.624C54.1547 66.6927 54.2245 66.7812 54.2707 66.8823L55.5304 69.8963Z" fill="#FE3030"/>
<path d="M53.7381 70.4692C53.7442 70.524 53.7579 70.5777 53.7786 70.6287L52.519 67.6148C52.4977 67.5638 52.4831 67.5101 52.4758 67.4553C52.8974 68.4609 53.3173 69.4655 53.7354 70.4692C53.3173 69.4637 52.8974 68.4591 52.4758 67.4553C52.461 67.3749 52.461 67.2925 52.4758 67.212C52.8974 68.2176 53.3182 69.2222 53.7381 70.226C53.7233 70.3064 53.7233 70.3888 53.7381 70.4692V70.4692Z" fill="#FE3030"/>
<path d="M50.335 72.0749C49.8863 71.5596 49.2818 71.2047 48.6132 71.064L47.3508 68.05C48.0192 68.1917 48.6241 68.5453 49.0754 69.0583L49.2214 69.4124L49.3781 69.7854L49.5403 70.172L49.7052 70.5666L49.8701 70.9613L50.0323 71.3478L50.1891 71.7208L50.335 72.0749Z" fill="#FE3030"/>
<path d="M50.4838 72.2668C50.4378 72.2019 50.3891 72.137 50.3351 72.0749L49.0754 69.0582C49.1268 69.1231 49.1782 69.188 49.2241 69.2528L50.1513 71.4748L50.1918 71.5667L50.2324 71.664L50.2756 71.7667L50.3189 71.8694L50.3621 71.9749L50.4054 72.0776L50.4459 72.1749L50.4838 72.2668Z" fill="#FE3030"/>
<path d="M50.4838 72.2667C50.4703 72.2397 50.4568 72.2019 50.4459 72.1748L50.3838 72.0262L50.3405 71.9235L50.3189 71.8694L50.1513 71.4747L49.2242 69.2528C49.33 69.4038 49.4205 69.565 49.4945 69.734L50.7541 72.7479C50.6812 72.5784 50.5906 72.4171 50.4838 72.2667V72.2667Z" fill="#FE3030"/>
<path d="M54.2707 66.8795L55.5303 69.8962C55.552 69.9471 55.5665 70.0007 55.5735 70.0556C55.6276 70.4719 55.26 70.9071 54.7626 71.0233C54.6071 71.0598 54.4451 71.0598 54.2896 71.0233C54.1804 71.0024 54.0778 70.9557 53.9903 70.887C53.9029 70.8184 53.8331 70.7298 53.7868 70.6287L52.5272 67.6148C52.5731 67.7161 52.6427 67.8049 52.7303 67.8736C52.8178 67.9423 52.9206 67.9889 53.0299 68.0094C53.1846 68.0459 53.3456 68.0459 53.5003 68.0094C54.0085 67.8932 54.3761 67.4688 54.3112 67.0417C54.3053 66.986 54.2917 66.9314 54.2707 66.8795V66.8795Z" fill="#FFFCED"/>
<path d="M49.489 69.7339L50.7486 72.7478C50.8844 73.075 50.9533 73.4261 50.9513 73.7804L49.689 70.7665C49.6919 70.4124 49.6239 70.0613 49.489 69.7339V69.7339Z" fill="#F66767"/>
<path d="M72.0182 54.1318C71.718 55.1157 71.3393 56.0738 70.8856 56.997C70.2959 58.1953 69.5964 59.3364 68.7962 60.4056C68.6632 60.3582 68.5279 60.3176 68.3907 60.284C67.7139 60.1447 67.0151 60.152 66.3414 60.3054C65.6676 60.4588 65.0346 60.7548 64.4848 61.1733L58.8948 65.3847C57.6081 66.3524 57.0594 67.7553 57.3675 68.9474C54.9095 69.9229 52.3226 70.5357 49.6881 70.7665C49.6881 69.4907 48.8204 68.3959 47.3499 68.0499L41.0193 66.5605C40.2207 66.399 39.3944 66.4405 38.6161 66.6814C37.8377 66.9223 37.1324 67.3547 36.5646 67.9391C34.6652 66.7823 33.0356 65.232 31.7856 63.3925C33.3696 62.633 34.4049 61.1165 34.2184 59.6407L33.4723 53.948C33.3182 52.7505 32.3911 51.8855 31.1558 51.5936C30.7127 51.4931 30.2566 51.463 29.8042 51.5044C30.1296 50.1798 30.5982 48.8946 31.2017 47.6714C31.7096 46.6384 32.3008 45.6485 32.9695 44.7115C33.3476 44.9927 33.7804 45.1916 34.24 45.2954C34.9167 45.4359 35.6158 45.4292 36.2897 45.2758C36.9637 45.1223 37.5967 44.8257 38.1459 44.4061L43.7359 40.1974C45.3848 38.954 45.82 36.9997 44.7928 35.6914C47.4351 34.6503 50.2243 34.03 53.0588 33.8533C52.4587 35.5211 53.3643 37.1429 55.2213 37.5781L61.5411 39.081C62.431 39.2619 63.3537 39.1894 64.2044 38.8716C65.055 38.5538 65.7993 38.0035 66.3526 37.2835C68.2077 38.566 69.7527 40.2468 70.8748 42.2031C69.2341 42.9437 68.1528 44.4926 68.3502 45.9874L69.0908 51.6882C69.2476 52.883 70.172 53.7479 71.4073 54.0399C71.6083 54.086 71.8126 54.1167 72.0182 54.1318V54.1318ZM45.1848 64.7873C52.6399 66.5389 61.387 62.487 64.6848 55.7536C67.9825 49.0203 64.601 42.1112 57.1459 40.3596C49.6908 38.608 40.9409 42.6599 37.6432 49.3933C34.3454 56.1267 37.7297 63.033 45.1848 64.7873V64.7873ZM67.569 57.0673C67.8059 57.1169 68.0525 57.0887 68.2722 56.987C68.4918 56.8852 68.6727 56.7152 68.7881 56.5024C68.8389 56.4104 68.8667 56.3075 68.8694 56.2025C68.872 56.0975 68.8493 55.9933 68.8031 55.8989C68.757 55.8045 68.6888 55.7226 68.6043 55.6602C68.5198 55.5977 68.4215 55.5565 68.3177 55.5401C68.0808 55.4914 67.8345 55.52 67.6151 55.6217C67.3956 55.7234 67.2146 55.8928 67.0986 56.105C67.0485 56.1971 67.0211 56.2999 67.0188 56.4047C67.0165 56.5095 67.0393 56.6134 67.0854 56.7076C67.1314 56.8018 67.1993 56.8836 67.2835 56.9462C67.3676 57.0088 67.4655 57.0503 67.569 57.0673V57.0673ZM34.6454 49.323C34.8824 49.3722 35.1288 49.3438 35.3484 49.242C35.5679 49.1403 35.7489 48.9706 35.8645 48.7581C35.9148 48.6662 35.9422 48.5636 35.9445 48.4589C35.9468 48.3542 35.924 48.2505 35.8779 48.1564C35.8318 48.0624 35.7638 47.9808 35.6797 47.9185C35.5955 47.8562 35.4976 47.8151 35.3942 47.7985C35.1576 47.7491 34.9113 47.7771 34.6918 47.8783C34.4723 47.9795 34.2912 48.1487 34.1751 48.3607C34.1243 48.4527 34.0964 48.5556 34.0938 48.6606C34.0912 48.7656 34.1139 48.8698 34.1601 48.9642C34.2062 49.0586 34.2744 49.1405 34.3589 49.2029C34.4434 49.2654 34.5417 49.3066 34.6454 49.323ZM53.4913 68.004C53.9995 67.8878 54.3671 67.4634 54.3023 67.0363C54.2817 66.8989 54.2184 66.7714 54.1213 66.672C54.0243 66.5726 53.8985 66.5061 53.7616 66.4822C53.6061 66.4457 53.4442 66.4457 53.2886 66.4822C52.7804 66.5984 52.4182 67.0228 52.4777 67.4499C52.499 67.5869 52.5626 67.714 52.6595 67.8133C52.7564 67.9126 52.8818 67.9792 53.0183 68.004C53.1729 68.0405 53.334 68.0405 53.4886 68.004H53.4913ZM37.4729 63.925C37.8837 63.6169 37.9729 63.1141 37.6729 62.8114C37.5708 62.7105 37.4425 62.6403 37.3026 62.6086C37.1432 62.5761 36.9787 62.578 36.8202 62.6144C36.6617 62.6508 36.5128 62.7207 36.3835 62.8195C35.9727 63.1303 35.8835 63.6304 36.1808 63.9332C36.2835 64.0346 36.4128 64.1049 36.5538 64.1359C36.7132 64.1685 36.8777 64.1665 37.0362 64.1301C37.1947 64.0938 37.3436 64.0238 37.4729 63.925V63.925ZM65.4606 40.9326C65.047 41.2435 64.9551 41.7436 65.2578 42.0463C65.3602 42.1467 65.4884 42.2169 65.6282 42.249C65.7873 42.2815 65.9516 42.2797 66.1101 42.2438C66.2685 42.2079 66.4175 42.1387 66.5472 42.0409C66.9608 41.73 67.05 41.23 66.7472 40.9245C66.6457 40.8234 66.5171 40.754 66.3769 40.7245C66.2182 40.6907 66.0541 40.6918 65.8958 40.7277C65.7376 40.7637 65.5891 40.8336 65.4606 40.9326V40.9326ZM49.4583 36.8591C48.9529 36.9726 48.5852 37.3997 48.6474 37.8268C48.6706 37.9617 48.735 38.0862 48.8318 38.183C48.9286 38.2798 49.0531 38.3442 49.188 38.3674C49.3436 38.4039 49.5055 38.4039 49.6611 38.3674C50.1665 38.2539 50.5342 37.8268 50.472 37.3997C50.4466 37.2657 50.3815 37.1424 50.2851 37.046C50.1886 36.9496 50.0654 36.8844 49.9314 36.8591C49.7756 36.8242 49.6141 36.8242 49.4583 36.8591Z" fill="#FE3030"/>
<path d="M44.7911 35.6913C40.0499 37.5483 35.8196 40.7028 32.9705 44.7115C33.3486 44.9926 33.7814 45.1915 34.241 45.2953C34.9177 45.4358 35.6168 45.4292 36.2907 45.2757C36.9647 45.1223 37.5977 44.8257 38.1469 44.406L43.7369 40.1973C45.3831 38.9539 45.8183 36.9996 44.7911 35.6913Z" fill="#F66767"/>
<path d="M53.057 33.8533C55.3246 33.7109 57.6009 33.8984 59.8147 34.4101C62.1569 34.9369 64.3766 35.9077 66.3534 37.27C65.8018 37.9925 65.0582 38.5454 64.2074 38.8656C63.3567 39.1858 62.4331 39.2605 61.5419 39.081L55.2113 37.5916C53.3624 37.1429 52.4569 35.5211 53.057 33.8533Z" fill="#F66767"/>
<path d="M66.3806 40.7272C66.5208 40.7567 66.6494 40.8261 66.7509 40.9272C67.0537 41.2327 66.9645 41.7382 66.5509 42.0436C66.4212 42.1415 66.2722 42.2106 66.1137 42.2465C65.9553 42.2824 65.791 42.2842 65.6318 42.2517C65.4921 42.2196 65.3639 42.1494 65.2615 42.049C64.9588 41.7436 65.0507 41.2381 65.4642 40.9353C65.5928 40.8363 65.7413 40.7664 65.8995 40.7304C66.0577 40.6945 66.2219 40.6934 66.3806 40.7272V40.7272Z" fill="#FFFCED"/>
<path d="M71.8163 45.363C71.3982 44.3574 70.9774 43.3528 70.554 42.3491C70.6594 42.2923 70.7648 42.2382 70.8756 42.1896L72.1353 45.2035C72.0271 45.2522 71.919 45.2981 71.8163 45.363Z" fill="#FE3030"/>
<path d="M71.8164 45.3631C70.3594 46.1497 69.4296 47.5931 69.6107 48.9987L68.3511 45.9848C68.1672 44.5792 69.0971 43.1384 70.5541 42.3491C70.8595 43.0708 70.8595 43.0708 71.8164 45.3631Z" fill="#FE3030"/>
<path d="M31.7243 63.9494L30.4647 60.9354C30.8256 61.794 31.2682 62.6159 31.7865 63.3898L33.0461 66.4038C32.5283 65.6296 32.0857 64.8077 31.7243 63.9494Z" fill="#F66767"/>
<path d="M37.2954 62.6114C37.4353 62.6431 37.5636 62.7133 37.6657 62.8142C37.9657 63.1196 37.8765 63.6251 37.4657 63.9278C37.3364 64.0266 37.1875 64.0966 37.029 64.1329C36.8705 64.1693 36.706 64.1713 36.5466 64.1387C36.4056 64.1076 36.2763 64.0374 36.1736 63.9359C35.8762 63.6305 35.9654 63.125 36.3763 62.8223C36.5055 62.7235 36.6544 62.6536 36.813 62.6172C36.9715 62.5808 37.136 62.5789 37.2954 62.6114V62.6114Z" fill="#FFFCED"/>
<path d="M36.5655 67.939L37.8359 70.953C35.9365 69.7962 34.3069 68.2458 33.0569 66.4064L31.7973 63.3925C33.0441 65.2308 34.6699 66.781 36.5655 67.939V67.939Z" fill="#F50000"/>
<path d="M41.0201 66.5606L42.2824 69.5745C41.4834 69.4125 40.6566 69.4538 39.8777 69.6947C39.0989 69.9356 38.393 70.3683 37.825 70.9531L36.5654 67.9392C37.1331 67.3548 37.8385 66.9223 38.6168 66.6815C39.3952 66.4406 40.2215 66.399 41.0201 66.5606V66.5606Z" fill="#FE3030"/>
<path d="M71.6245 43.7277L72.8842 46.7416C74.1925 49.8691 74.3871 53.4696 73.2734 57.1458L72.0138 54.1318C73.1329 50.4556 72.9382 46.8551 71.6245 43.7277Z" fill="#FB4242"/>
<path d="M70.8758 42.1896C72.8356 45.6441 73.3086 49.8366 72.0192 54.1318C71.8135 54.1158 71.6093 54.0842 71.4083 54.0372C70.1676 53.7452 69.2459 52.8803 69.0918 51.6855L68.3511 45.9847C68.1538 44.4872 69.235 42.9302 70.8758 42.1896Z" fill="#F66767"/>
<path d="M68.305 55.5401C68.4088 55.5566 68.5071 55.5977 68.5916 55.6602C68.6761 55.7227 68.7443 55.8046 68.7904 55.899C68.8366 55.9934 68.8593 56.0975 68.8567 56.2025C68.8541 56.3076 68.8262 56.4104 68.7754 56.5024C68.6601 56.7153 68.4791 56.8852 68.2595 56.987C68.0399 57.0888 67.7932 57.117 67.5563 57.0674C67.4528 57.0504 67.3549 57.0088 67.2708 56.9462C67.1867 56.8837 67.1187 56.8019 67.0727 56.7076C67.0266 56.6134 67.0038 56.5096 67.0061 56.4047C67.0084 56.2999 67.0358 56.1972 67.086 56.1051C67.2019 55.8928 67.383 55.7234 67.6024 55.6217C67.8218 55.52 68.0681 55.4914 68.305 55.5401V55.5401Z" fill="#FFFCED"/>
<path d="M47.3508 68.0473L48.6132 71.0612L42.2825 69.5718L41.0202 66.5579L47.3508 68.0473Z" fill="#FE3030"/>
<path d="M72.019 54.1317L73.2787 57.1457C72.9801 58.1301 72.6013 59.0884 72.1461 60.0109C71.5578 61.2066 70.8583 62.3442 70.0566 63.4087L68.797 60.3948C69.5972 59.3255 70.2967 58.1845 70.8865 56.9862C71.3396 56.0664 71.7183 55.1119 72.019 54.1317V54.1317Z" fill="#F50000"/>
<path d="M69.6512 63.3006C68.9749 63.1601 68.2762 63.1668 67.6027 63.3203C66.9292 63.4737 66.2967 63.7703 65.7479 64.1899L64.4856 61.1733C65.0341 60.7562 65.6653 60.4612 66.3371 60.3078C67.0088 60.1544 67.7056 60.1463 68.3807 60.2839C68.5179 60.3175 68.6532 60.3581 68.7862 60.4056C69.2043 61.4111 69.6242 62.4158 70.0458 63.4195C69.917 63.3714 69.7852 63.3317 69.6512 63.3006Z" fill="#FE3030"/>
<path d="M64.4857 61.1733L65.7481 64.1873L60.1554 68.3987L58.8958 65.382L64.4857 61.1733Z" fill="#FE3030"/>
<path d="M53.7678 66.4848C53.9046 66.5088 54.0305 66.5752 54.1275 66.6747C54.2245 66.7741 54.2878 66.9016 54.3084 67.039C54.3652 67.4552 53.9976 67.8904 53.4975 68.0067C53.3428 68.0431 53.1818 68.0431 53.0272 68.0067C52.8906 67.9819 52.7652 67.9153 52.6683 67.8159C52.5714 67.7166 52.5079 67.5896 52.4865 67.4525C52.4352 67.0336 52.7974 66.6011 53.2975 66.4848C53.4522 66.4487 53.6131 66.4487 53.7678 66.4848V66.4848Z" fill="#FFFCED"/>
<path d="M47.3507 68.05C48.8212 68.396 49.6943 69.4907 49.6889 70.7666C47.2048 70.9878 44.7014 70.8145 42.2716 70.253C40.2572 69.7947 38.3302 69.0133 36.5654 67.9392C37.1331 67.3548 37.8385 66.9223 38.6168 66.6815C39.3952 66.4406 40.2215 66.399 41.0201 66.5606L47.3507 68.05Z" fill="#F66767"/>
<path d="M49.6889 70.7665L50.9513 73.7804C48.4665 74.0011 45.9624 73.8287 43.5313 73.2696C41.5208 72.808 39.5978 72.0258 37.8359 70.953L36.5763 67.9391C38.3411 69.0132 40.268 69.7946 42.2825 70.2529C44.7088 70.8133 47.2085 70.9866 49.6889 70.7665V70.7665Z" fill="#FB4242"/>
<path d="M60.1553 68.3986C59.7197 68.7032 59.3525 69.0954 59.0774 69.5502C58.8023 70.005 58.6253 70.5123 58.5577 71.0395L57.2981 68.0229C57.3673 67.4962 57.5453 66.9897 57.8208 66.5355C58.0963 66.0813 58.4632 65.6894 58.8983 65.3846L60.1553 68.3986Z" fill="#FE3030"/>
<path d="M58.5577 71.0396C58.5289 71.3487 58.5536 71.6606 58.6307 71.9613L57.3684 68.9474C57.2924 68.6455 57.2678 68.333 57.2954 68.0229L57.4441 68.3771L57.6008 68.7501L57.763 69.1366L57.9279 69.5313L58.009 69.7286L58.0928 69.9259L58.255 70.3125L58.3334 70.5017L58.4848 70.8666C58.5157 70.9212 58.5402 70.9793 58.5577 71.0396Z" fill="#FE3030"/>
<path d="M57.3684 68.9474L58.6308 71.9613C56.1726 72.9364 53.5857 73.5492 50.9513 73.7805L49.689 70.7666C52.3235 70.5358 54.9104 69.923 57.3684 68.9474V68.9474Z" fill="#F50000"/>
<path d="M64.4857 61.1733C65.0342 60.7562 65.6654 60.4612 66.3372 60.3078C67.0089 60.1544 67.7057 60.1463 68.3808 60.2839C68.518 60.3175 68.6533 60.3581 68.7863 60.4056C65.9562 64.1899 61.8934 67.1633 57.3577 68.9473C57.0495 67.7553 57.5982 66.3524 58.8849 65.3847L64.4857 61.1733Z" fill="#F66767"/>
<path d="M68.797 60.4056L70.0567 63.4088C67.2292 67.1931 63.1665 70.1665 58.6307 71.9505L57.3684 68.9366C61.8934 67.1579 65.9669 64.1927 68.797 60.4056Z" fill="#FB4242"/>
<path d="M23.7018 39.9883C24.0364 39.8503 24.3281 39.6255 24.5468 39.337L22.7309 41.7582C22.5125 42.047 22.2207 42.2719 21.8859 42.4095L23.7018 39.9883Z" fill="#FE3030"/>
<path d="M26.416 46.7531L28.2295 44.3319C28.8348 43.5087 30.0599 43.2279 31.3189 43.7194L29.503 46.1406C28.244 45.6491 27.0213 45.9323 26.416 46.7531Z" fill="#F66767"/>
<path d="M27.457 41.1698C27.562 41.2176 27.6778 41.2367 27.7926 41.2252C27.9075 41.2137 28.0172 41.1721 28.1107 41.1045L26.2948 43.5256C26.2016 43.5929 26.0921 43.6341 25.9777 43.6452C25.8632 43.6563 25.7479 43.6367 25.6435 43.5886L27.457 41.1674L25.6435 43.5886C25.5225 43.542 25.4127 43.4702 25.3215 43.3779C25.2035 43.2808 25.1241 43.1448 25.0974 42.9944C25.0708 42.8439 25.0987 42.6889 25.1762 42.5572L26.9897 40.136C26.9125 40.268 26.8849 40.4232 26.912 40.5736C26.9391 40.7241 27.019 40.86 27.1374 40.9568C27.228 41.0491 27.3369 41.1216 27.457 41.1698V41.1698Z" fill="#FE3030"/>
<path d="M28.1108 41.1118C28.1387 41.0897 28.1631 41.0635 28.1834 41.0343L26.37 43.4555C26.3475 43.4836 26.3224 43.5096 26.2949 43.533C26.8397 42.8139 27.4861 41.7728 28.1108 41.1118Z" fill="#FE3030"/>
<path d="M25.1763 42.5742L26.9898 40.1531C27.0123 40.1249 27.0374 40.099 27.0649 40.0756C27.1581 40.0083 27.2675 39.9671 27.382 39.956C27.4964 39.945 27.6117 39.9645 27.7161 40.0126L25.9003 42.4338C25.7958 42.3855 25.6802 42.3661 25.5657 42.3776C25.4512 42.3891 25.3418 42.4311 25.249 42.4992C25.2219 42.5212 25.1975 42.5464 25.1763 42.5742V42.5742Z" fill="#FFFCED"/>
<path d="M28.1836 41.0342L26.3701 43.4554C26.4471 43.3236 26.4748 43.1687 26.4482 43.0183C26.4215 42.868 26.3424 42.732 26.2248 42.6346C26.1324 42.5421 26.022 42.4696 25.9004 42.4215L27.7163 40.0004C27.8373 40.047 27.9471 40.1188 28.0383 40.211C28.1573 40.3079 28.2375 40.4444 28.2641 40.5956C28.2908 40.7467 28.2622 40.9024 28.1836 41.0342Z" fill="#FFFCED"/>
<path d="M25.9004 42.4313C26.022 42.4793 26.1324 42.5518 26.2248 42.6443C26.513 42.9325 26.5444 43.3344 26.2951 43.5426C26.2018 43.6098 26.0924 43.6511 25.9779 43.6622C25.8635 43.6732 25.7482 43.6537 25.6438 43.6055C25.5227 43.5589 25.4129 43.4871 25.3217 43.3949C25.0336 43.1068 25.0021 42.7024 25.2491 42.4966C25.3419 42.4285 25.4513 42.3865 25.5658 42.375C25.6804 42.3635 25.7959 42.383 25.9004 42.4313V42.4313Z" fill="#FFFCED"/>
<path d="M24.5469 39.3371L22.731 41.7583C22.9491 41.4465 23.0855 41.085 23.1278 40.7069C23.1701 40.3288 23.1169 39.9461 22.9731 39.5938L24.789 37.1726C24.9324 37.525 24.9853 37.9076 24.943 38.2856C24.9007 38.6637 24.7646 39.0252 24.5469 39.3371V39.3371Z" fill="#F66767"/>
<path d="M29.5031 46.1405L31.3189 43.712L36.4058 45.6998L34.59 48.1307L29.5031 46.1405Z" fill="#F66767"/>
<path d="M34.5898 48.1308L36.4057 45.7096C36.9624 45.9201 37.4617 46.2585 37.8634 46.6976C38.265 47.1367 38.5578 47.6642 38.7179 48.2373L36.9045 50.6585C36.743 50.0856 36.4495 49.5585 36.0476 49.1195C35.6456 48.6806 35.1463 48.3419 34.5898 48.1308V48.1308Z" fill="#F66767"/>
<path d="M34.5899 48.1308C35.1464 48.342 35.6457 48.6806 36.0476 49.1196C36.4496 49.5586 36.7431 50.0856 36.9045 50.6585C34.945 50.5173 33.0188 50.0763 31.193 49.3511C29.499 48.6868 27.8943 47.8141 26.416 46.7532C27.0213 45.9324 28.244 45.6491 29.503 46.143L34.5899 48.1308Z" fill="#F66767"/>
<path d="M21.2589 34.7973L23.0748 32.3665L24.7817 37.1725L22.9659 39.6009L21.2589 34.7973Z" fill="#F66767"/>
<path d="M25.2828 29.0858C24.1448 34.2817 28.101 40.4194 34.1031 42.7655L32.2872 45.1866C26.2851 42.8405 22.3289 36.7125 23.4693 31.507C23.692 30.4617 24.1371 29.4766 24.7743 28.6186L26.5878 26.1974C25.9515 27.056 25.5066 28.0409 25.2828 29.0858V29.0858Z" fill="#FE3030"/>
<path d="M25.1619 28.9163L26.9754 26.4951C26.3656 27.3172 25.938 28.2598 25.7212 29.2601C24.6268 34.2453 28.4257 40.1336 34.1953 42.3853L32.3819 44.8064C26.6219 42.5523 22.8255 36.6665 23.9077 31.6788C24.1232 30.6788 24.5509 29.7367 25.1619 28.9163V28.9163Z" fill="#C62525"/>
<path d="M29.3747 38.7343C30.2367 39.6274 31.2137 40.4017 32.2802 41.0368L30.4667 43.458C29.4 42.828 28.4221 42.0586 27.5589 41.17L29.3747 38.7343Z" fill="#FE3030"/>
<path d="M33.3624 41.6057C32.7603 42.4128 32.1559 43.2198 31.5489 44.0269C31.1809 43.8525 30.8242 43.6621 30.4788 43.4555L32.2922 41.0343C32.6385 41.2401 32.9968 41.4314 33.3624 41.6057Z" fill="#FE3030"/>
<path d="M29.3748 38.7343L28.8251 39.4606L28.1424 40.3831L27.9681 40.6252L27.7259 40.9641C27.6637 41.0256 27.6107 41.0957 27.5686 41.1724C27.4427 41.0416 27.3264 40.9085 27.1981 40.7753L29.014 38.3541C29.1254 38.4768 29.2456 38.6035 29.3748 38.7343Z" fill="#FE3030"/>
<path d="M28.6871 37.969C28.7912 38.0925 28.8953 38.2111 29.0042 38.3346L27.1884 40.7558C27.0818 40.6347 26.9753 40.5136 26.8736 40.3877L28.6871 37.969Z" fill="#FE3030"/>
<path d="M33.3623 41.6056C33.6601 41.7484 33.9627 41.8792 34.2702 42.0002L32.4568 44.4214C32.1469 44.3004 31.8442 44.1672 31.5488 44.0268C32.1541 43.2229 32.7586 42.4159 33.3623 41.6056Z" fill="#FE3030"/>
<path d="M34.1033 42.7654C34.8267 43.0516 35.5736 43.2744 36.3356 43.4312L34.5197 45.8524C33.7584 45.693 33.0116 45.4703 32.2874 45.1866L34.1033 42.7654Z" fill="#FE3030"/>
<path d="M41.0375 46.3996C41.1093 46.3951 41.1793 46.3753 41.2428 46.3414C41.3063 46.3076 41.3618 46.2606 41.4055 46.2035L39.5921 48.6247C39.5479 48.6812 39.4923 48.7277 39.4289 48.7611C39.3654 48.7945 39.2956 48.814 39.2241 48.8184L41.0375 46.3996Z" fill="#FE3030"/>
<path d="M40.6816 46.3462C40.7945 46.3912 40.9163 46.4094 41.0375 46.3995L39.224 48.8207C39.1028 48.832 38.9807 48.8137 38.8681 48.7674C38.7489 48.7217 38.6406 48.6516 38.5501 48.5615C38.4596 48.4714 38.389 48.3634 38.3427 48.2444L40.1586 45.8233L38.3427 48.2444C38.3091 48.1616 38.2969 48.0716 38.307 47.9828C38.3172 47.894 38.3494 47.8091 38.4008 47.736L40.2143 45.3148C40.1633 45.3886 40.1315 45.474 40.1217 45.5632C40.112 45.6524 40.1247 45.7426 40.1586 45.8257C40.2051 45.9438 40.2756 46.0511 40.3656 46.1407C40.4556 46.2303 40.5632 46.3003 40.6816 46.3462V46.3462Z" fill="#FE3030"/>
<path d="M38.3984 47.7433L40.2143 45.3221C40.2587 45.2657 40.3144 45.2192 40.3777 45.1854C40.4411 45.1517 40.5108 45.1314 40.5823 45.126C40.7035 45.1173 40.825 45.1355 40.9382 45.1793L39.1224 47.6005C39.0106 47.5544 38.8893 47.5361 38.7689 47.5472C38.6969 47.5523 38.6267 47.5724 38.5629 47.6061C38.4992 47.6399 38.4431 47.6866 38.3984 47.7433V47.7433Z" fill="#FFFCED"/>
<path d="M41.4054 46.2035L39.5919 48.6247C39.6425 48.5507 39.6741 48.4654 39.6838 48.3762C39.6935 48.2871 39.6811 48.197 39.6476 48.1138C39.6014 47.9948 39.5307 47.8868 39.4402 47.7968C39.3498 47.7067 39.2414 47.6366 39.1222 47.5909L40.9381 45.1697C41.0569 45.2163 41.1647 45.2871 41.2547 45.3775C41.3447 45.468 41.415 45.5761 41.4611 45.6951C41.4956 45.7776 41.5087 45.8675 41.4989 45.9565C41.4892 46.0454 41.457 46.1304 41.4054 46.2035V46.2035Z" fill="#FFFCED"/>
<path d="M39.1224 47.6005C39.2416 47.6462 39.3499 47.7163 39.4404 47.8064C39.5309 47.8965 39.6015 48.0045 39.6478 48.1235C39.6813 48.1971 39.6964 48.2778 39.6918 48.3586C39.6872 48.4394 39.663 48.5179 39.6213 48.5872C39.5796 48.6566 39.5216 48.7147 39.4524 48.7567C39.3832 48.7986 39.3049 48.8231 39.2241 48.828C39.1029 48.8393 38.9808 48.821 38.8682 48.7747C38.749 48.729 38.6406 48.6589 38.5502 48.5688C38.4597 48.4788 38.389 48.3708 38.3428 48.2518C38.3092 48.1779 38.2941 48.097 38.2988 48.0161C38.3036 47.9351 38.328 47.8565 38.37 47.7871C38.4119 47.7177 38.4702 47.6595 38.5397 47.6177C38.6092 47.5759 38.6879 47.5517 38.7689 47.5472C38.8893 47.5361 39.0106 47.5544 39.1224 47.6005V47.6005Z" fill="#FFFCED"/>
<path d="M21.2589 34.7974L22.9537 39.6035C23.3968 40.8479 22.9198 41.9811 21.8739 42.4193C19.4914 39.3638 18.0678 35.8046 18 32.3375C18.3551 32.3643 18.7038 32.446 19.0338 32.5796C19.539 32.7734 19.9981 33.0709 20.3813 33.4529C20.7645 33.8348 21.0635 34.2929 21.2589 34.7974V34.7974Z" fill="#F66767"/>
<path d="M18 32.3374L19.8135 29.9163C20.1693 29.9433 20.5188 30.0249 20.8497 30.1584C21.3556 30.353 21.8151 30.6515 22.1984 31.0348C22.5816 31.4181 22.8802 31.8775 23.0748 32.3834L21.2589 34.8046C21.0643 34.2987 20.7657 33.8393 20.3825 33.456C19.9992 33.0727 19.5398 32.7741 19.0338 32.5796C18.7038 32.4459 18.3551 32.3642 18 32.3374V32.3374Z" fill="#F66767"/>
<path d="M28.1255 38.3031L29.9414 35.882C29.912 35.9853 29.9245 36.0961 29.9762 36.1903C30.0278 36.2845 30.1145 36.3547 30.2174 36.3856L28.4015 38.8067C28.2986 38.7758 28.2119 38.7057 28.1603 38.6115C28.1086 38.5173 28.0961 38.4065 28.1255 38.3031V38.3031Z" fill="#FFFCED"/>
<path d="M28.4012 38.8068L30.2171 36.376L32.4131 37.2355L30.5997 39.6664L28.4012 38.8068Z" fill="#FFFCED"/>
<path d="M32.4133 37.2355C32.4766 37.267 32.5485 37.2769 32.6179 37.2638C32.6874 37.2507 32.7507 37.2153 32.7982 37.1628L30.9848 39.584C30.9367 39.6363 30.873 39.6716 30.8031 39.6847C30.7333 39.6978 30.6611 39.6879 30.5974 39.6567L32.4133 37.2355Z" fill="#FFFCED"/>
<path d="M32.7981 37.1628L30.9846 39.584C30.9936 39.57 31.0017 39.5555 31.0089 39.5404L32.8247 37.1193C32.8168 37.1343 32.8079 37.1489 32.7981 37.1628V37.1628Z" fill="#FE3030"/>
<path d="M44.2793 45.2035C43.7951 45.8572 43.7563 46.7748 44.1558 47.6416L42.3424 50.0628C41.9429 49.1984 41.9744 48.2808 42.4634 47.6271L44.2793 45.2035Z" fill="#FE3030"/>
<path d="M36.0305 38.5986C36.0815 38.6524 36.1434 38.6945 36.2121 38.7221L34.3962 41.1433C34.3286 41.1162 34.2675 41.0749 34.2171 41.0222C34.8208 40.2168 35.4252 39.4089 36.0305 38.5986Z" fill="#FFFCED"/>
<path d="M42.4635 47.6345L44.2769 45.2133C44.369 45.0912 44.4746 44.98 44.5917 44.8816L42.7782 47.3028C42.66 47.3999 42.5543 47.5113 42.4635 47.6345Z" fill="#F66767"/>
<path d="M36.0305 38.5985C35.4252 39.4056 34.8207 40.2127 34.217 41.0197C34.1581 40.9611 34.1184 40.8859 34.1032 40.8042L35.9167 38.3831C35.934 38.464 35.9734 38.5386 36.0305 38.5985Z" fill="#FFFCED"/>
<path d="M20.656 30.2576C20.6796 30.2213 20.7055 30.1866 20.7334 30.1535L20.8957 29.938L21.0651 29.7128L21.1499 29.5966L21.3266 29.3545L22.0336 28.4054L20.656 30.2503V30.2576Z" fill="#FE3030"/>
<path d="M34.3987 41.1505L36.2122 38.7196L38.384 39.5694L36.5681 42.0003L34.3987 41.1505Z" fill="#FFFCED"/>
<path d="M23.0215 28.6814C23.1411 28.7416 23.2772 28.7605 23.4086 28.7351C23.5401 28.7097 23.6594 28.6414 23.7479 28.541L21.932 30.9622C21.8433 31.0623 21.7242 31.1305 21.593 31.1564C21.4617 31.1822 21.3256 31.1641 21.2056 31.105L23.0215 28.6814Z" fill="#FE3030"/>
<path d="M23.0214 28.6814L22.2321 29.7371L21.6437 30.5167L21.3096 30.9622L21.2055 31.1026C21.0307 31.0433 20.8813 30.9265 20.7814 30.7713C20.6816 30.616 20.6374 30.4315 20.6559 30.2479L22.4718 27.8268L20.6559 30.2479C20.6698 30.1829 20.6979 30.1217 20.7382 30.0688L22.5541 27.6476C22.5133 27.7011 22.4852 27.7632 22.4718 27.8292C22.4529 28.0125 22.4971 28.1969 22.597 28.3518C22.6969 28.5067 22.8466 28.623 23.0214 28.6814V28.6814Z" fill="#FE3030"/>
<path d="M36.3622 38.3516L38.178 35.9208L38.8124 39.2814L36.9989 41.7122L36.3622 38.3516Z" fill="#FE3030"/>
<path d="M38.384 39.5695C38.4475 39.602 38.52 39.6125 38.5901 39.5993C38.6602 39.5862 38.724 39.5501 38.7714 39.4968L36.9555 41.918C36.9081 41.9714 36.8445 42.0076 36.7745 42.0212C36.7045 42.0348 36.6319 42.0249 36.5681 41.9931L38.384 39.5695Z" fill="#FFFCED"/>
<path d="M38.7712 39.4969L36.9554 41.918C36.9771 41.8875 36.9922 41.8528 36.9997 41.8161C37.0072 41.7794 37.0069 41.7416 36.9989 41.705L38.8124 39.2838C38.8206 39.3202 38.8211 39.358 38.814 39.3946C38.807 39.4313 38.7924 39.4661 38.7712 39.4969V39.4969Z" fill="#FE3030"/>
<path d="M20.7383 30.0785L22.5517 27.6573C22.6407 27.5576 22.76 27.4898 22.8912 27.4645C23.0224 27.4391 23.1584 27.4575 23.2781 27.5169L21.4646 29.9381C21.3448 29.8791 21.209 29.8609 21.0779 29.8862C20.9467 29.9116 20.8275 29.9791 20.7383 30.0785V30.0785Z" fill="#FFFCED"/>
<path d="M21.4646 29.9357C21.6392 29.9942 21.7886 30.1106 21.8881 30.2655C21.9876 30.4205 22.0312 30.6048 22.0118 30.7879C21.9416 31.1124 21.5808 31.2576 21.2055 31.1124C21.0307 31.0531 20.8813 30.9363 20.7814 30.781C20.6816 30.6258 20.6374 30.4413 20.6559 30.2577C20.7286 29.9333 21.0893 29.7904 21.4646 29.9357Z" fill="#FFFCED"/>
<path d="M23.7453 28.541L21.9294 30.9622C21.9702 30.9087 21.9984 30.8466 22.0117 30.7806C22.0312 30.5975 21.9876 30.4132 21.8881 30.2582C21.7886 30.1033 21.6392 29.9869 21.4646 29.9284L23.278 27.5072C23.4526 27.566 23.602 27.6824 23.7019 27.8372C23.8017 27.992 23.8461 28.1762 23.8276 28.3595C23.8122 28.4247 23.7843 28.4864 23.7453 28.541V28.541Z" fill="#FFFCED"/>
<path d="M32.142 37.1072L33.9579 34.6764L32.8248 37.1194L31.0089 39.5478L32.142 37.1072Z" fill="#FE3030"/>
<path d="M32.1687 37.0659L33.9821 34.6448C33.9731 34.6588 33.965 34.6733 33.9579 34.6884L32.142 37.1095C32.1489 37.0939 32.1578 37.0792 32.1687 37.0659Z" fill="#FE3030"/>
<path d="M32.1688 37.0659L33.9823 34.6448C34.0304 34.5925 34.0941 34.5572 34.1639 34.5441C34.2337 34.531 34.3059 34.5408 34.3696 34.5721L32.5562 36.9933C32.4928 36.9604 32.4202 36.9496 32.35 36.9628C32.2797 36.976 32.216 37.0123 32.1688 37.0659Z" fill="#FFFCED"/>
<path d="M33.5366 37.5963L35.3524 35.1678L35.9166 38.3832L34.1031 40.814L33.5366 37.5963Z" fill="#FFFCED"/>
<path d="M32.5561 36.9909L34.3695 34.5625L35.0571 34.8288L33.2413 37.2597L32.5561 36.9909Z" fill="#FFFCED"/>
<path d="M35.0984 34.8482L33.2825 37.2694L33.2413 37.25L35.0572 34.8289L35.0984 34.8482Z" fill="#FFFCED"/>
<path d="M35.0982 34.8483C35.1591 34.8812 35.2122 34.9267 35.2539 34.9818C35.2957 35.037 35.3252 35.1004 35.3404 35.1679L33.5245 37.589C33.511 37.5209 33.4822 37.4567 33.4403 37.4013C33.3983 37.3459 33.3443 37.3008 33.2824 37.2694L35.0982 34.8483Z" fill="#FFFCED"/>
<path d="M36.4057 38.1361L38.2216 35.715C38.199 35.7455 38.1834 35.7806 38.1758 35.8179C38.1683 35.8551 38.1691 35.8935 38.178 35.9305L36.3622 38.3516C36.354 38.3147 36.3536 38.2764 36.3611 38.2393C36.3686 38.2022 36.3838 38.167 36.4057 38.1361Z" fill="#FE3030"/>
<path d="M38.2217 35.7077C38.2501 35.6709 38.2869 35.6414 38.329 35.6216C38.3711 35.6018 38.4173 35.5923 38.4638 35.5939L36.6503 38.0151C36.604 38.0146 36.5582 38.0246 36.5162 38.0443C36.4743 38.064 36.4374 38.0929 36.4082 38.1289L38.2217 35.7077Z" fill="#FFFCED"/>
<path d="M19.0192 27.0932L20.8327 24.672C21.1567 24.9401 21.5212 25.155 21.9126 25.3088C22.9077 25.6986 23.9754 25.6308 24.6848 25.04L22.8689 27.4612C22.1595 28.052 21.0942 28.1197 20.0967 27.7324C19.7059 27.5778 19.3422 27.362 19.0192 27.0932V27.0932Z" fill="#FE3030"/>
<path d="M28.687 37.969L26.8736 40.3902C24.7647 37.8528 23.726 34.7053 24.3531 31.8556C24.5581 30.8966 24.9659 29.9927 25.5492 29.2044C26.1529 28.3973 26.7574 27.5903 27.3626 26.7832C26.7786 27.5752 26.3715 28.4835 26.169 29.4465C25.5443 32.2817 26.5806 35.4316 28.687 37.969Z" fill="#FE3030"/>
<path d="M36.3357 43.4312C40.241 44.2351 43.8171 43.0802 45.7516 40.4919L43.9382 42.9131C42.0012 45.5014 38.4276 46.6538 34.5198 45.8524L36.3357 43.4312Z" fill="#FE3030"/>
<path d="M45.3642 40.2014L43.5484 42.6226C41.3451 45.5764 36.9143 46.5836 32.3722 44.8016L34.1954 42.3805C38.7302 44.1625 43.1537 43.1528 45.3642 40.2014Z" fill="#C62525"/>
<path d="M34.2702 42.0003C38.6283 43.6951 42.8581 42.7412 44.9694 39.9181L43.1535 42.3393C41.0422 45.1648 36.81 46.126 32.4568 44.4239L34.2702 42.0003Z" fill="#FE3030"/>
<path d="M27.3626 26.7808C26.7597 27.5919 26.152 28.4005 25.5491 29.202V29.1899L27.365 26.7687L27.3626 26.7808Z" fill="#FE3030"/>
<path d="M42.7782 47.3003L44.5941 44.8718L47.9716 42.0536L46.1557 44.4844L42.7782 47.3003Z" fill="#F66767"/>
<path d="M33.3018 34.5746L35.1153 32.1534C35.0865 32.2571 35.0992 32.3679 35.1508 32.4624C35.2023 32.5568 35.2885 32.6275 35.3913 32.6595L33.5754 35.0806C33.4724 35.0493 33.3859 34.9785 33.3347 34.8838C33.2835 34.7891 33.2716 34.678 33.3018 34.5746V34.5746Z" fill="#FE3030"/>
<path d="M33.5779 35.0782L35.3913 32.6473L36.6455 33.1388L34.832 35.5673L33.5779 35.0782Z" fill="#FE3030"/>
<path d="M26.9752 26.4878C27.085 26.3425 27.1988 26.2021 27.3166 26.0665L25.5031 28.4877C25.3821 28.6233 25.261 28.7661 25.1593 28.9114L26.9752 26.4878Z" fill="#FE3030"/>
<path d="M34.832 35.5696L36.6455 33.1484L36.6891 33.1654C36.9852 33.2986 37.3207 33.315 37.6285 33.2114L35.8126 35.6326C35.5047 35.735 35.1696 35.7186 34.8732 35.5866L34.832 35.5696Z" fill="#FE3030"/>
<path d="M46.0106 39.1531C45.8263 39.5208 45.61 39.8716 45.3641 40.2014L43.5483 42.6226C43.7951 42.2935 44.0115 41.9426 44.1947 41.5742L46.0106 39.1531Z" fill="#FE3030"/>
<path d="M38.161 32.8241L36.3476 35.2453C36.2132 35.4247 36.0261 35.5576 35.8125 35.6254L37.6284 33.2042C37.8416 33.1368 38.028 33.0038 38.161 32.8241Z" fill="#FE3030"/>
<path d="M38.2943 32.5966C38.2586 32.6772 38.2139 32.7535 38.1611 32.8241L36.3477 35.2453C36.4002 35.1745 36.4448 35.0982 36.4808 35.0177L38.2943 32.5966Z" fill="#FFFCED"/>
<path d="M38.2942 32.5966L36.4807 35.0177L38.2942 32.5966Z" fill="#FFFCED"/>
<path d="M33.975 33.1219L35.7909 30.691L35.1154 32.1437L33.3019 34.5722L33.975 33.1219Z" fill="#FE3030"/>
<path d="M33.9991 33.0807L35.815 30.6595C35.8055 30.6715 35.7974 30.6845 35.7908 30.6983L33.9749 33.1195L33.9991 33.0807Z" fill="#FE3030"/>
<path d="M39.9914 35.1604C40.3417 34.9707 40.6465 34.7072 40.8849 34.3881L39.069 36.8092C38.8313 37.1296 38.5263 37.394 38.1756 37.584V37.584L38.3886 37.3007C38.9213 36.5841 39.4547 35.869 39.989 35.1556L38.1756 37.5767C37.7033 37.8372 37.177 37.9847 36.6381 38.0077L38.4516 35.5865C38.9908 35.565 39.5178 35.4192 39.9914 35.1604V35.1604Z" fill="#FFFCED"/>
<path d="M46.1559 44.4845C46.8653 43.8938 47.933 43.826 48.9281 44.2158C49.0395 44.2593 49.1509 44.3078 49.2598 44.3635C47.8846 47.1599 45.4102 49.1307 42.3425 50.0702C41.8583 49.0484 42.0011 47.9516 42.7783 47.3028L46.1559 44.4845Z" fill="#F66767"/>
<path d="M46.156 44.4845L47.9719 42.0634C48.6813 41.4726 49.7466 41.4048 50.7441 41.7946C50.8555 41.8382 50.9644 41.8866 51.0734 41.9423L49.2599 44.3635C49.151 44.3078 49.0396 44.2594 48.9282 44.2158C47.9331 43.8333 46.8654 43.8938 46.156 44.4845Z" fill="#F66767"/>
<path d="M50.0539 43.6031L48.238 46.0243C48.6289 45.5007 48.9709 44.9423 49.2597 44.3561L51.0732 41.9349C50.7857 42.5213 50.4444 43.0797 50.0539 43.6031V43.6031Z" fill="#F66767"/>
<path d="M33.9992 33.0808L35.815 30.6596C35.8624 30.6063 35.926 30.57 35.996 30.5565C36.066 30.5429 36.1386 30.5528 36.2024 30.5846L34.389 33.0058C34.3247 32.9742 34.2518 32.9644 34.1815 32.9779C34.1111 32.9915 34.0471 33.0276 33.9992 33.0808V33.0808Z" fill="#FFFCED"/>
<path d="M38.2749 31.7273C38.3489 31.8609 38.3894 32.0104 38.3927 32.1631C38.3961 32.3158 38.3623 32.467 38.2942 32.6038L36.4808 35.0249C36.5479 34.8883 36.5809 34.7374 36.5771 34.5852C36.5734 34.433 36.5328 34.284 36.459 34.1509L38.2749 31.7273Z" fill="#FFFCED"/>
<path d="M34.3889 33.0057L36.2024 30.5773L37.4711 31.0712L35.6576 33.502L34.3889 33.0057Z" fill="#FFFCED"/>
<path d="M35.6479 33.5044L37.4613 31.0833C37.8007 31.1907 38.0874 31.4213 38.2652 31.7297L36.4493 34.1509C36.2725 33.8426 35.9865 33.612 35.6479 33.5044V33.5044Z" fill="#FFFCED"/>
<path d="M32.0427 29.8557L33.8586 27.4248L29.9412 35.8723L28.1253 38.3031L32.0427 29.8557Z" fill="#FFFCED"/>
<path d="M32.0695 29.8147L33.8829 27.3935C33.931 27.3403 33.9951 27.3044 34.0656 27.2913C34.136 27.2782 34.2088 27.2886 34.2727 27.3208L32.4569 29.742C32.3933 29.7099 32.3209 29.6996 32.2509 29.7128C32.1809 29.7259 32.1171 29.7617 32.0695 29.8147Z" fill="#FE3030"/>
<path d="M39.1806 33.4948C39.7399 34.4633 39.8076 35.393 39.3864 36.284C39.1368 36.8405 38.7115 37.2998 38.1758 37.5914C37.7035 37.8519 37.1772 37.9994 36.6383 38.0224C36.5969 38.0207 36.5555 38.0285 36.5176 38.0453C36.4796 38.0621 36.446 38.0873 36.4193 38.1191C36.3926 38.1509 36.3736 38.1885 36.3638 38.2288C36.3539 38.2691 36.3534 38.3111 36.3623 38.3517L36.9991 41.7123C37.0427 41.9544 36.8199 42.0996 36.5681 42.0004L34.389 41.1505C34.3161 41.1231 34.2512 41.078 34.2001 41.0193C34.1489 40.9605 34.1132 40.89 34.0961 40.814L33.5295 37.5987C33.513 37.5218 33.4772 37.4504 33.4255 37.3911C33.3739 37.3318 33.308 37.2866 33.2342 37.2597L32.549 36.9934C32.4785 36.9548 32.3956 36.9454 32.3183 36.9671C32.2409 36.9888 32.1751 37.04 32.1349 37.1096L31.0018 39.5501C30.9613 39.6187 30.8959 39.669 30.8193 39.6906C30.7427 39.7123 30.6606 39.7036 30.5902 39.6664L28.3942 38.8069C28.2913 38.776 28.2047 38.7058 28.153 38.6116C28.1014 38.5174 28.0889 38.4066 28.1182 38.3032L32.0357 29.8558C32.0771 29.7875 32.1429 29.7375 32.2197 29.7159C32.2966 29.6944 32.3788 29.7028 32.4497 29.7396L36.6335 31.3763C37.7052 31.761 38.607 32.5111 39.1806 33.4948V33.4948ZM36.4809 35.025C36.548 34.8883 36.5811 34.7375 36.5773 34.5853C36.5735 34.4331 36.533 34.2841 36.4591 34.1509C36.2819 33.8426 35.9962 33.6112 35.6577 33.5021L34.389 33.0178C34.3186 32.9803 34.2364 32.9711 34.1594 32.9923C34.0824 33.0135 34.0164 33.0633 33.975 33.1316L33.3019 34.5843C33.2725 34.6874 33.2847 34.7979 33.3358 34.892C33.387 34.9862 33.4731 35.0565 33.5755 35.0879L34.8321 35.5722L34.8733 35.5891C35.1697 35.7211 35.5048 35.7375 35.8127 35.6351C35.9612 35.5878 36.0978 35.509 36.2131 35.4041C36.3284 35.2993 36.4198 35.1708 36.4809 35.0274" fill="#FE3030"/>
<path d="M35.648 33.5044C35.9867 33.6119 36.2727 33.8426 36.4494 34.1509C36.5233 34.284 36.5638 34.433 36.5676 34.5852C36.5714 34.7374 36.5383 34.8883 36.4712 35.0249C36.4101 35.1683 36.3187 35.2968 36.2034 35.4016C36.0881 35.5065 35.9515 35.5853 35.803 35.6326C35.4951 35.7351 35.16 35.7186 34.8636 35.5866L34.8224 35.5697L33.5658 35.0854C33.4634 35.054 33.3773 34.9837 33.3261 34.8895C33.275 34.7954 33.2628 34.6849 33.2922 34.5818L33.9653 33.1291C34.0067 33.0608 34.0727 33.011 34.1497 32.9898C34.2267 32.9686 34.3089 32.9778 34.3793 33.0153L35.648 33.5044Z" fill="#FFFCED"/>
<path d="M32.0693 29.8146L33.8828 27.3934C33.8732 27.4071 33.8651 27.4217 33.8586 27.437L32.0427 29.8582C32.05 29.8428 32.0589 29.8282 32.0693 29.8146Z" fill="#FFFCED"/>
<path d="M49.4655 39.0224C49.5855 39.0815 49.7216 39.0995 49.8528 39.0737C49.9841 39.0479 50.1032 38.9797 50.1919 38.8795L48.3784 41.3007C48.2897 41.4008 48.1704 41.4688 48.0391 41.4942C47.9077 41.5196 47.7717 41.5009 47.6521 41.4411C48.1968 40.722 48.9232 39.7511 49.4655 39.0224Z" fill="#FE3030"/>
<path d="M48.9159 38.1676C48.8978 38.3511 48.9422 38.5354 49.042 38.6905C49.1418 38.8457 49.291 38.9626 49.4655 39.0222L47.6521 41.4434C47.4773 41.385 47.3276 41.2687 47.2276 41.1138C47.1277 40.9589 47.0836 40.7745 47.1025 40.5912L48.9159 38.17L47.1025 40.5912C47.1163 40.5258 47.1435 40.4639 47.1824 40.4096L48.9983 37.9884C48.9588 38.0418 48.9308 38.1028 48.9159 38.1676V38.1676Z" fill="#FE3030"/>
<path d="M22.8689 27.4588L24.6847 25.028L28.0623 22.2097L26.2488 24.6406L22.8689 27.4588Z" fill="#FE3030"/>
<path d="M47.1825 40.4168L48.9984 37.9957C49.087 37.8955 49.2061 37.8273 49.3374 37.8015C49.4686 37.7757 49.6047 37.7937 49.7247 37.8528L47.9088 40.274C47.7888 40.2149 47.6527 40.1969 47.5215 40.2227C47.3903 40.2485 47.2712 40.3167 47.1825 40.4168V40.4168Z" fill="#FFFCED"/>
<path d="M28.3843 21.8805L26.5709 24.3017C26.4781 24.4232 26.3726 24.5344 26.2561 24.6334L28.0696 22.2122C28.1872 22.1144 28.2929 22.0031 28.3843 21.8805Z" fill="#FE3030"/>
<path d="M47.9087 40.2764C48.083 40.3357 48.2322 40.4521 48.332 40.6068C48.4318 40.7615 48.4763 40.9455 48.4583 41.1287C48.3857 41.4531 48.0249 41.596 47.6521 41.4507C47.4773 41.3923 47.3276 41.276 47.2276 41.1211C47.1277 40.9662 47.0836 40.7818 47.1025 40.5985C47.1727 40.274 47.5334 40.1287 47.9087 40.2764Z" fill="#FFFCED"/>
<path d="M50.1895 38.8794L48.3761 41.3006C48.415 41.246 48.4429 41.1843 48.4584 41.119C48.4763 40.9358 48.4318 40.7519 48.332 40.5971C48.2323 40.4424 48.0831 40.326 47.9088 40.2668L49.7246 37.8456C49.8988 37.9049 50.0477 38.0214 50.147 38.1762C50.2464 38.331 50.2904 38.5148 50.2718 38.6978C50.2585 38.7638 50.2303 38.8259 50.1895 38.8794V38.8794Z" fill="#FFFCED"/>
<path d="M40.8851 34.3906L39.0692 36.8117C39.1932 36.6457 39.2995 36.4672 39.3864 36.2791C39.8077 35.3881 39.7399 34.4608 39.1806 33.4899L40.994 31.0687C41.5525 32.0372 41.6219 32.9669 41.2023 33.8579C41.1152 34.046 41.0089 34.2245 40.8851 34.3906V34.3906Z" fill="#FE3030"/>
<path d="M32.4568 29.7395L34.2726 27.3086L38.4564 28.9453L36.6405 31.3737L32.4568 29.7395Z" fill="#FE3030"/>
<path d="M36.6406 31.3763L38.4565 28.9551C39.524 29.3429 40.4218 30.0925 40.9939 31.0736L39.1804 33.4948C38.6087 32.5124 37.7096 31.7625 36.6406 31.3763V31.3763Z" fill="#FE3030"/>
<path d="M50.4316 39.5526L52.2475 37.1315C52.222 37.885 52.128 38.6346 51.9666 39.3711C51.7741 40.2612 51.4741 41.1246 51.0732 41.9423L49.2598 44.3635C49.6592 43.5452 49.9591 42.6819 50.1532 41.7922C50.3126 41.0555 50.4058 40.306 50.4316 39.5526Z" fill="#E01A1A"/>
<path d="M52.2476 37.1216L50.4317 39.5428C50.2671 39.5036 50.1053 39.4535 49.9474 39.3927C49.4415 39.1981 48.9821 38.8995 48.5988 38.5163C48.2155 38.133 47.917 37.6735 47.7224 37.1676L49.5383 34.7465C49.7329 35.2517 50.0312 35.7105 50.414 36.0933C50.7968 36.4762 51.2557 36.7745 51.7609 36.9691C51.9195 37.0307 52.0821 37.0817 52.2476 37.1216V37.1216Z" fill="#FE3030"/>
<path d="M26.1401 21.0378C27.1788 22.2484 27.2442 23.8101 26.2491 24.643L22.8594 27.4588C22.15 28.0496 21.0847 28.1174 20.0872 27.73C19.6966 27.5761 19.3329 27.3612 19.0098 27.0932C20.3656 24.103 22.9321 22.0087 26.1401 21.0378Z" fill="#F66767"/>
<path d="M20.1959 25.0908L22.0117 22.6696C23.5061 20.7151 25.5904 19.2939 27.9557 18.6166L26.1398 21.0378C23.7741 21.7142 21.6897 23.1356 20.1959 25.0908V25.0908Z" fill="#FFA7A7"/>
<path d="M28.3845 21.8805L26.571 24.3017C27.2223 23.4276 27.0553 22.0887 26.1473 21.0282L27.9632 18.6071C28.8687 19.6675 29.0309 21.0064 28.3845 21.8805Z" fill="#F66767"/>
<path d="M29.469 23.2531L30.8467 21.4082L29.469 23.2531Z" fill="#FE3030"/>
<path d="M25.5564 29.1995L27.3698 26.7784C29.4811 23.9529 33.7133 22.9917 38.069 24.6962L36.2531 27.1173C31.8998 25.4153 27.6579 26.3765 25.5564 29.1995Z" fill="#FFFCED"/>
<path d="M27.3168 26.0666C29.6169 23.442 33.8322 22.614 38.154 24.304L36.3381 26.7251C32.0187 25.0303 27.801 25.8656 25.5033 28.4877L26.4089 27.2772L26.7648 26.7929L27.1062 26.3377C27.174 26.2651 27.2514 26.1586 27.3168 26.0666Z" fill="#FE3030"/>
<path d="M24.772 28.6281L26.5879 26.2069C28.8856 23.132 33.5028 22.0909 38.2362 23.931L36.4227 26.3522C31.6869 24.5 27.0697 25.5508 24.772 28.6281Z" fill="#C62525"/>
<path d="M32.164 21.4107C32.2356 21.4053 32.3052 21.3851 32.3686 21.3513C32.4319 21.3175 32.4876 21.271 32.532 21.2146L30.7161 23.6358C30.6719 23.6924 30.6163 23.7391 30.5529 23.7729C30.4895 23.8067 30.4197 23.8268 30.3481 23.8319C30.2268 23.8409 30.105 23.8218 29.9922 23.7762C29.8731 23.7307 29.765 23.6606 29.6749 23.5705C29.5847 23.4804 29.5147 23.3723 29.4692 23.2532L31.2899 20.832L29.4765 23.2532C29.4421 23.1702 29.4292 23.0799 29.439 22.9907C29.4487 22.9014 29.4808 22.816 29.5322 22.7423L31.3456 20.3212C31.295 20.3952 31.2635 20.4805 31.2538 20.5696C31.244 20.6587 31.2565 20.7489 31.2899 20.832C31.3362 20.951 31.4068 21.059 31.4973 21.1491C31.5878 21.2392 31.6961 21.3093 31.8153 21.355C31.9258 21.3998 32.045 21.4189 32.164 21.4107V21.4107Z" fill="#FE3030"/>
<path d="M29.5248 22.7544L31.3383 20.3332C31.3827 20.2768 31.4383 20.2302 31.5017 20.1965C31.565 20.1627 31.6347 20.1425 31.7063 20.1371C31.8276 20.128 31.9494 20.1471 32.0622 20.1928L30.2463 22.6139C30.1343 22.5689 30.0132 22.5506 29.8928 22.5607C29.8212 22.5649 29.7514 22.5843 29.6879 22.6178C29.6244 22.6512 29.5688 22.6977 29.5248 22.7544V22.7544Z" fill="#FFFCED"/>
<path d="M32.532 21.2145L30.7161 23.6357C30.7677 23.5621 30.7999 23.4767 30.8096 23.3874C30.8193 23.2981 30.8063 23.2078 30.7718 23.1248C30.7255 23.0058 30.6549 22.8978 30.5644 22.8077C30.4739 22.7177 30.3656 22.6475 30.2464 22.6018L32.0622 20.1807C32.1816 20.2261 32.2901 20.2962 32.3806 20.3863C32.4711 20.4764 32.5416 20.5845 32.5876 20.7036C32.6213 20.7868 32.6339 20.8769 32.6242 20.9661C32.6144 21.0552 32.5828 21.1406 32.532 21.2145V21.2145Z" fill="#FFFCED"/>
<path d="M30.2462 22.6116C30.3654 22.6573 30.4737 22.7275 30.5642 22.8175C30.6547 22.9076 30.7253 23.0156 30.7715 23.1346C30.8056 23.2083 30.8211 23.2893 30.8168 23.3704C30.8124 23.4515 30.7883 23.5304 30.7465 23.6001C30.7048 23.6697 30.6466 23.7282 30.5771 23.7703C30.5077 23.8123 30.4289 23.8368 30.3478 23.8416C30.2265 23.8506 30.1047 23.8315 29.9919 23.7859C29.8729 23.7404 29.7647 23.6703 29.6746 23.5802C29.5845 23.4901 29.5144 23.382 29.469 23.2629C29.4354 23.1893 29.4203 23.1086 29.4249 23.0278C29.4295 22.947 29.4537 22.8685 29.4954 22.7992C29.5371 22.7298 29.5951 22.6716 29.6643 22.6297C29.7335 22.5877 29.8119 22.5632 29.8927 22.5583C30.013 22.5483 30.1341 22.5665 30.2462 22.6116V22.6116Z" fill="#FFFCED"/>
<path d="M44.9694 39.9157L43.1559 42.3369C43.7447 41.5456 44.1575 40.6375 44.3665 39.6736C45.4149 34.8942 41.788 29.2625 36.2628 27.1077L38.0787 24.6865C43.6014 26.8438 47.2308 32.4706 46.18 37.25C45.9733 38.2155 45.5604 39.1248 44.9694 39.9157V39.9157Z" fill="#FFFCED"/>
<path d="M46.0105 39.153C46.0094 39.1586 46.0094 39.1644 46.0105 39.17L44.2067 41.5911C44.4792 41.0436 44.6834 40.4646 44.8144 39.8673C45.4512 36.9618 44.4246 33.7417 42.3133 31.122L44.1292 28.7008C46.2405 31.3229 47.2767 34.5383 46.6279 37.4461C46.4937 38.0385 46.2863 38.6119 46.0105 39.153Z" fill="#FE3030"/>
<path d="M44.1222 28.6814L42.3063 31.1026C42.1562 30.9137 42.0012 30.7297 41.839 30.5481L43.6525 28.127C43.8098 28.311 43.9672 28.495 44.1222 28.6814Z" fill="#FE3030"/>
<path d="M42.7515 27.2118C43.0663 27.5072 43.3665 27.8122 43.6473 28.1294L41.8339 30.5506C41.5506 30.2358 41.2528 29.9283 40.938 29.6354L42.7515 27.2118Z" fill="#FE3030"/>
<path d="M42.7516 27.2118L40.9382 29.633C40.713 29.4224 40.483 29.219 40.2433 29.0229L42.0592 26.6017C42.2965 26.7978 42.5289 27.0012 42.7516 27.2118Z" fill="#FE3030"/>
<path d="M38.1538 24.304C39.5686 24.8591 40.8867 25.6346 42.0591 26.6017L40.2432 29.0228C39.071 28.0548 37.7529 27.2785 36.3379 26.7227L38.1538 24.304Z" fill="#FE3030"/>
<path d="M35.6479 21.1345L33.832 23.5557C33.6773 23.4647 33.5292 23.3627 33.3889 23.2506C33.9926 22.4436 34.5971 21.6365 35.2024 20.8295C35.3435 20.9416 35.4924 21.0435 35.6479 21.1345V21.1345Z" fill="#FE3030"/>
<path d="M35.6479 21.1346C35.8297 21.2428 36.0199 21.336 36.2169 21.4131L34.401 23.8343C34.2043 23.7567 34.014 23.6636 33.832 23.5558L35.6479 21.1346Z" fill="#FE3030"/>
<path d="M36.4227 26.3523C42.4248 28.6984 46.3834 34.8264 45.243 40.0295C44.1026 45.2326 38.2918 47.5352 32.2873 45.1963C26.2828 42.8575 22.329 36.7222 23.4694 31.5167C24.6098 26.3112 30.4206 24.0062 36.4227 26.3523ZM32.372 44.8162C38.132 47.0679 43.708 44.8428 44.7999 39.8576C45.8919 34.8724 42.0979 28.9841 36.3379 26.7324C30.578 24.4808 25.002 26.7034 23.9101 31.6886C22.8181 36.6738 26.6121 42.5621 32.3842 44.8162" fill="#C62525"/>
<path d="M36.2533 27.1271C41.7785 29.2868 45.4054 34.9136 44.357 39.693C43.3086 44.4724 37.9796 46.6006 32.4569 44.4409C26.9342 42.2812 23.3 36.6423 24.3533 31.8629C25.4065 27.0835 30.7306 24.948 36.2533 27.1271ZM39.3863 36.2936C39.8076 35.4026 39.7398 34.4753 39.1805 33.5044C38.6088 32.5221 37.7097 31.7721 36.6407 31.3859L32.4569 29.7492C32.3861 29.7125 32.3039 29.704 32.227 29.7256C32.1501 29.7472 32.0843 29.7972 32.0429 29.8654L28.1255 38.3129C28.0961 38.4163 28.1086 38.527 28.1603 38.6213C28.2119 38.7155 28.2986 38.7856 28.4015 38.8165L30.5975 39.676C30.6679 39.7132 30.7499 39.7219 30.8265 39.7003C30.9032 39.6787 30.9685 39.6283 31.0091 39.5598L32.1422 37.1193C32.1823 37.0496 32.2481 36.9985 32.3255 36.9767C32.4029 36.955 32.4857 36.9645 32.5562 37.003L33.2414 37.2694C33.3153 37.2963 33.3811 37.3415 33.4328 37.4008C33.4845 37.4601 33.5202 37.5315 33.5368 37.6083L34.1033 40.8237C34.1204 40.8996 34.1562 40.9702 34.2073 41.0289C34.2584 41.0877 34.3234 41.1328 34.3963 41.1602L36.5754 42.01C36.8175 42.1093 37.0596 41.9616 37.0063 41.7219L36.3744 38.3516C36.3655 38.3111 36.366 38.2691 36.3758 38.2287C36.3857 38.1884 36.4047 38.1509 36.4314 38.1191C36.4581 38.0873 36.4917 38.062 36.5296 38.0452C36.5676 38.0285 36.6089 38.0206 36.6504 38.0224C37.1893 37.9994 37.7155 37.8519 38.1879 37.5914C38.724 37.3004 39.1495 36.8409 39.3984 36.284" fill="#FFFCED"/>
<path d="M45.7539 40.4896L43.938 42.9108C44.5757 42.0521 45.0208 41.0661 45.243 40.0199C46.3834 34.8265 42.4248 28.6888 36.4227 26.3427L38.2362 23.9215C44.2407 26.27 48.1969 32.3956 47.0589 37.6011C46.8351 38.6461 46.3902 39.631 45.7539 40.4896V40.4896Z" fill="#C62525"/>
<path d="M46.0179 32.3713L47.8337 29.9404L49.5431 34.7465L47.7272 37.1773L46.0179 32.3713Z" fill="#FE3030"/>
<path d="M42.892 28.7443L44.2697 26.8994L42.892 28.7443Z" fill="#FE3030"/>
<path d="M45.6788 26.4613C45.7068 26.4386 45.732 26.4126 45.7538 26.3838L43.9379 28.805C43.9168 28.8351 43.8915 28.862 43.8629 28.8849C43.7696 28.9522 43.6602 28.9934 43.5457 29.0045C43.4313 29.0155 43.316 28.996 43.2116 28.9479C43.0916 28.9006 42.9827 28.8288 42.892 28.7372L44.7054 26.316L42.892 28.7372C42.7734 28.6411 42.6932 28.5057 42.6661 28.3555C42.639 28.2053 42.6667 28.0503 42.7443 27.9189L44.5602 25.4977C44.483 25.6296 44.4554 25.7849 44.4825 25.9353C44.5096 26.0858 44.5895 26.2217 44.7079 26.3185C44.7988 26.4098 44.9076 26.4815 45.0275 26.5291C45.1323 26.5766 45.2478 26.5953 45.3623 26.5834C45.4767 26.5715 45.586 26.5293 45.6788 26.4613V26.4613Z" fill="#FE3030"/>
<path d="M46.2552 30.2044L48.0686 27.7832C47.851 28.0952 47.7148 28.4566 47.6725 28.8347C47.6302 29.2127 47.6832 29.5954 47.8265 29.9477L46.0107 32.3689C45.8681 32.0163 45.8158 31.6336 45.8585 31.2556C45.9012 30.8777 46.0375 30.5163 46.2552 30.2044V30.2044Z" fill="#FE3030"/>
<path d="M42.7444 27.926L44.5603 25.5049C44.5814 25.4748 44.6067 25.4479 44.6354 25.425C44.7286 25.3577 44.838 25.3164 44.9525 25.3054C45.0669 25.2943 45.1822 25.3139 45.2866 25.362L43.4708 27.7832C43.3664 27.735 43.251 27.7155 43.1366 27.7266C43.0222 27.7376 42.9127 27.7789 42.8195 27.8461C42.7914 27.8697 42.7662 27.8965 42.7444 27.926V27.926Z" fill="#FFFCED"/>
<path d="M43.4708 27.7832C43.5923 27.8289 43.7023 27.9008 43.7929 27.9938C44.081 28.2819 44.1149 28.6838 43.8631 28.892C43.7698 28.9593 43.6604 29.0006 43.5459 29.0116C43.4315 29.0227 43.3162 29.0031 43.2118 28.955C43.0918 28.9077 42.9829 28.836 42.8922 28.7444C42.6016 28.4538 42.5702 28.0519 42.8195 27.8461C42.9128 27.7788 43.0222 27.7376 43.1367 27.7265C43.2511 27.7155 43.3664 27.735 43.4708 27.7832V27.7832Z" fill="#FFFCED"/>
<path d="M45.7539 26.3837L43.938 28.8049C44.0158 28.6737 44.0439 28.519 44.0173 28.3688C43.9906 28.2186 43.9109 28.0829 43.7927 27.9866C43.7022 27.8935 43.5922 27.8216 43.4707 27.7759L45.2866 25.3547C45.4061 25.403 45.5147 25.4746 45.6062 25.5654C45.7244 25.6617 45.8042 25.7972 45.8313 25.9473C45.8584 26.0973 45.8309 26.2521 45.7539 26.3837Z" fill="#FFFCED"/>
<path d="M46.255 30.2043L48.0685 27.7832C48.3008 27.4764 48.6158 27.242 48.9764 27.1077L47.163 29.5288C46.802 29.6627 46.487 29.8971 46.255 30.2043V30.2043Z" fill="#F66767"/>
<path d="M33.8344 18.0719C33.7472 19.0549 34.292 20.1154 35.1951 20.8296C34.5898 21.6367 33.9853 22.4437 33.3816 23.2508C32.4761 22.5244 31.9289 21.4761 32.0185 20.4931L33.8344 18.0719Z" fill="#FE3030"/>
<path d="M34.3937 23.8415L36.2096 21.4131L41.2965 23.4009L39.483 25.8317L34.3937 23.8415Z" fill="#FE3030"/>
<path d="M44.1899 23.011L42.3764 25.4322C41.7251 26.0738 40.6186 26.2602 39.471 25.8147L41.2869 23.3935C42.4272 23.8463 43.541 23.6623 44.1899 23.011Z" fill="#FE3030"/>
<path d="M32.0163 20.5028C33.8084 20.6807 35.567 21.1078 37.2412 21.7715C39.2206 22.5487 41.0768 23.6089 42.7518 24.919C42.2457 25.9722 40.885 26.3717 39.4783 25.8342L34.3939 23.8464C32.9121 23.2533 31.9025 21.8127 32.0163 20.5028Z" fill="#F66767"/>
<path d="M50.4316 39.5526C50.4058 40.3059 50.3126 41.0554 50.1532 41.7922C49.9592 42.6819 49.6592 43.5451 49.2598 44.3634C49.1508 44.3078 49.0394 44.2593 48.9281 44.2158C47.933 43.8259 46.8652 43.8937 46.1558 44.4845L42.7783 47.3028C42.0011 47.9516 41.8679 49.0484 42.3425 50.0702C40.5806 50.595 38.7379 50.7944 36.9045 50.6585C36.7431 50.0856 36.4496 49.5585 36.0476 49.1196C35.6457 48.6806 35.1464 48.3419 34.5899 48.1308L29.5054 46.143C28.2464 45.6588 27.0237 45.9324 26.4184 46.7531C24.7096 45.5318 23.1841 44.0724 21.8884 42.4192C22.9344 41.981 23.4113 40.8479 22.9683 39.6034L21.2734 34.7974C21.0789 34.2915 20.7803 33.832 20.397 33.4488C20.0137 33.0655 19.5543 32.7669 19.0484 32.5723C18.7184 32.4387 18.3696 32.357 18.0145 32.3302C17.9885 31.3201 18.0836 30.3106 18.2978 29.3231C18.462 28.5543 18.7054 27.8046 19.0242 27.086C19.3473 27.354 19.711 27.5689 20.1016 27.7227C21.0991 28.1101 22.1644 28.0423 22.8738 27.4515L26.2635 24.6357C27.2586 23.8028 27.1932 22.2363 26.1545 21.0306C28.0559 20.4774 30.0465 20.2981 32.0162 20.5028C31.9 21.8126 32.9096 23.2629 34.3914 23.844L39.4758 25.8318C40.8825 26.3814 42.2432 25.9698 42.7492 24.9166C44.4357 26.2265 45.9211 27.7763 47.1582 29.5168C46.0687 29.9357 45.5651 31.0906 46.013 32.3593L47.7223 37.1653C47.9169 37.6712 48.2155 38.1306 48.5988 38.5139C48.982 38.8972 49.4415 39.1958 49.9474 39.3904C50.105 39.4553 50.2667 39.5095 50.4316 39.5526V39.5526ZM32.2874 45.1963C38.2919 47.5449 44.1051 45.2254 45.2431 40.0295C46.381 34.8337 42.4272 28.6985 36.4227 26.3523C30.4182 24.0062 24.6074 26.3233 23.4694 31.5167C22.3315 36.7101 26.2853 42.8502 32.2874 45.1963V45.1963ZM21.2056 31.1124C21.5809 31.2576 21.932 31.1124 22.0119 30.7879C22.0314 30.6048 21.9877 30.4205 21.8882 30.2655C21.7887 30.1106 21.6393 29.9942 21.4647 29.9357C21.0894 29.7904 20.7384 29.9357 20.656 30.2577C20.6375 30.4413 20.6817 30.6258 20.7816 30.781C20.8814 30.9363 21.0309 31.0531 21.2056 31.1124ZM47.6521 41.4508C48.025 41.596 48.3785 41.4508 48.4584 41.1288C48.4763 40.9455 48.4318 40.7616 48.332 40.6069C48.2323 40.4522 48.0831 40.3357 47.9088 40.2765C47.5335 40.1288 47.1824 40.2765 47.1025 40.5985C47.0836 40.7819 47.1278 40.9662 47.2277 41.1211C47.3276 41.2761 47.4773 41.3923 47.6521 41.4508V41.4508ZM29.8928 22.5656C29.812 22.5705 29.7337 22.595 29.6645 22.637C29.5953 22.6789 29.5373 22.7371 29.4956 22.8064C29.4539 22.8758 29.4297 22.9542 29.4251 23.035C29.4205 23.1158 29.4356 23.1965 29.4691 23.2702C29.5146 23.3892 29.5846 23.4974 29.6748 23.5875C29.7649 23.6776 29.873 23.7477 29.9921 23.7932C30.1049 23.8388 30.2267 23.8579 30.348 23.8488C30.4291 23.8441 30.5078 23.8196 30.5773 23.7775C30.6468 23.7354 30.7049 23.677 30.7467 23.6073C30.7885 23.5376 30.8126 23.4588 30.8169 23.3777C30.8213 23.2966 30.8057 23.2156 30.7717 23.1419C30.7254 23.0229 30.6548 22.9149 30.5643 22.8248C30.4738 22.7347 30.3655 22.6646 30.2463 22.6189C30.1342 22.5738 30.0132 22.5556 29.8928 22.5656V22.5656ZM39.224 48.8354C39.3048 48.8305 39.3832 48.806 39.4524 48.764C39.5216 48.7221 39.5795 48.6639 39.6212 48.5945C39.663 48.5252 39.6871 48.4467 39.6918 48.3659C39.6964 48.2851 39.6813 48.2044 39.6477 48.1308C39.6015 48.0118 39.5308 47.9038 39.4404 47.8137C39.3499 47.7237 39.2415 47.6535 39.1223 47.6078C39.0105 47.5618 38.8892 47.5435 38.7688 47.5546C38.6879 47.5591 38.6092 47.5833 38.5397 47.6251C38.4702 47.6669 38.4119 47.725 38.3699 47.7944C38.3279 47.8638 38.3035 47.9424 38.2988 48.0234C38.294 48.1044 38.3091 48.1853 38.3427 48.2591C38.389 48.3781 38.4596 48.4861 38.5501 48.5762C38.6406 48.6662 38.7489 48.7364 38.8681 48.7821C38.9807 48.8283 39.1028 48.8466 39.224 48.8354V48.8354ZM26.2949 43.5499C26.5371 43.3417 26.5104 42.9398 26.2247 42.6517C26.1323 42.5592 26.0219 42.4867 25.9003 42.4386C25.7958 42.3903 25.6803 42.3709 25.5657 42.3824C25.4512 42.3939 25.3418 42.4359 25.249 42.504C25.0069 42.7098 25.0335 43.1141 25.3216 43.4022C25.4128 43.4945 25.5226 43.5663 25.6437 43.6129C25.7481 43.661 25.8634 43.6806 25.9778 43.6695C26.0923 43.6585 26.2017 43.6172 26.2949 43.5499V43.5499ZM42.8195 27.8535C42.5773 28.0593 42.6015 28.4612 42.8921 28.7517C42.9829 28.8433 43.0917 28.9151 43.2117 28.9624C43.3161 29.0105 43.4314 29.0301 43.5459 29.019C43.6603 29.0079 43.7697 28.9667 43.863 28.8994C44.1051 28.6912 44.0809 28.2893 43.7928 28.0012C43.7022 27.9081 43.5923 27.8362 43.4708 27.7905C43.3663 27.7424 43.251 27.7228 43.1366 27.7339C43.0221 27.7449 42.9127 27.7862 42.8195 27.8535" fill="#FE3030"/>
<path d="M36.3378 26.7325C30.5779 24.4808 25.0019 26.7034 23.91 31.6886C22.818 36.6738 26.612 42.5621 32.3841 44.8162C38.1561 47.0703 43.72 44.8428 44.8119 39.8577C45.9039 34.8725 42.0978 28.9842 36.3378 26.7325ZM44.364 39.6833C43.3157 44.4627 37.9867 46.5909 32.464 44.4313C26.9413 42.2716 23.2998 36.6423 24.353 31.8629C25.4062 27.0835 30.7304 24.9481 36.2531 27.1271C41.7758 29.3062 45.4051 34.9136 44.3568 39.693" fill="#FE3030"/>
<path d="M26.1401 21.0378L27.9559 18.6166C29.8622 18.0585 31.8589 17.8768 33.8346 18.0815L32.0187 20.5027C30.043 20.2982 28.0464 20.4799 26.1401 21.0378V21.0378Z" fill="#FE5858"/>
<path d="M47.1629 29.5288L48.9764 27.1077C51.1555 30.1995 52.3661 33.7296 52.2474 37.1289L50.4315 39.5501C50.5502 36.1507 49.3396 32.6207 47.1629 29.5288Z" fill="#FFA7A7"/>
<path d="M47.1632 29.5289C49.3422 32.6208 50.5528 36.1508 50.4317 39.5526C50.2672 39.5134 50.1054 39.4633 49.9475 39.4025C49.4416 39.2079 48.9822 38.9093 48.5989 38.526C48.2156 38.1428 47.917 37.6833 47.7224 37.1774L46.0131 32.3714C45.5749 31.1027 46.0736 29.9478 47.1632 29.5289Z" fill="#F66767"/>
<path d="M44.1899 23.0111C44.2579 22.9439 44.321 22.8719 44.3787 22.7957L42.5628 25.2168C42.5067 25.2944 42.4443 25.3673 42.3764 25.4347L43.7637 23.5777L43.9768 23.2896L44.0059 23.2533L44.0615 23.1782L44.0882 23.1419C44.1221 23.1104 44.1536 23.062 44.1899 23.0111Z" fill="#FE3030"/>
<path d="M44.3787 22.8029L42.5653 25.2241C42.6389 25.126 42.7022 25.0205 42.7541 24.9093L44.57 22.4882C44.5162 22.5988 44.4521 22.7042 44.3787 22.8029V22.8029Z" fill="#F66767"/>
<path d="M42.7542 24.9165L44.5701 22.4954C46.2574 23.8034 47.7423 25.3535 48.9766 27.0956L47.1631 29.5168C45.926 27.7763 44.4406 26.2264 42.7542 24.9165V24.9165Z" fill="#F84C4C"/>
<path d="M32.0162 20.5028L33.8321 18.0817C35.6239 18.2612 37.3823 18.6881 39.057 19.3504C41.0359 20.1286 42.8919 21.1887 44.5676 22.4979L42.7517 24.9191C41.0767 23.6089 39.2205 22.5487 37.2411 21.7715C35.5669 21.1078 33.8083 20.6808 32.0162 20.5028V20.5028Z" fill="#FFA7A7"/>
</g>
<defs>
<radialGradient id="paint0_radial_1401_121418" cx="0" cy="0" r="1" gradientUnits="userSpaceOnUse" gradientTransform="translate(46 46) rotate(90) scale(46)">
<stop stop-color="#FF0000"/>
<stop offset="1" stop-color="#1D1E25" stop-opacity="0"/>
</radialGradient>
<clipPath id="clip0_1401_121418">
<rect width="56" height="56" fill="white" transform="translate(18 18)"/>
</clipPath>
</defs>
</svg>
