<svg width="56" height="56" viewBox="0 0 56 56" fill="none" xmlns="http://www.w3.org/2000/svg">
<g clip-path="url(#clip0_3516_50707)">
<path d="M27.3878 19.9026C27.3588 19.8452 27.3338 19.7859 27.3129 19.7251C26.906 18.754 26.499 17.782 26.0921 16.8091C26.2403 16.9957 26.3617 17.2021 26.4528 17.4222L27.7485 20.5158C27.6546 20.297 27.5334 20.091 27.3878 19.9026Z" fill="#FE3030"/>
<path d="M32.1655 21.1012L31.6106 19.7555L30.8837 18.0076C31.0435 17.9718 31.2093 17.9718 31.3692 18.0076L31.519 18.371L31.6799 18.7539L31.8464 19.1507L32.0157 19.5558L32.1849 19.9608L32.3514 20.3576L32.5123 20.7405L32.6621 21.1039C32.4992 21.0634 32.3289 21.0624 32.1655 21.1012Z" fill="#FE3030"/>
<path d="M32.6483 21.0984L31.3553 18.0021L31.5052 18.3655L31.6661 18.7484L31.8326 19.1452L32.0018 19.5502L32.1711 19.9553L32.3375 20.3521L32.4984 20.735L32.6483 21.0984Z" fill="#FE3030"/>
<path d="M35.8778 20.1079L34.596 17.0143C34.3253 16.3445 34.3184 15.5971 34.5765 14.9224L35.8778 18.0159C35.6134 18.6882 35.6134 19.4356 35.8778 20.1079Z" fill="#FE3030"/>
<path d="M30.0291 19.0009L30.1429 19.2783L30.2594 19.5558L30.3815 19.8471L30.5063 20.1467L30.634 20.4491L30.7616 20.7543L30.8864 21.0568L31.0113 21.3536L30.0291 19.0036V19.0009Z" fill="#FE3030"/>
<path d="M31.3248 22.0944C31.3302 22.1508 31.3443 22.206 31.3664 22.2581L30.0735 19.1618C30.0513 19.1105 30.0363 19.0563 30.0291 19.0008C30.4619 20.033 30.8929 21.0641 31.322 22.0944C30.8929 21.0623 30.4619 20.0311 30.0291 19.0008C29.9736 18.5708 30.3509 18.1241 30.8614 18.0076L32.1571 21.1011C31.6439 21.2177 31.2665 21.6755 31.3248 22.0944Z" fill="#FE3030"/>
<path d="M33.1671 21.5035C33.1189 21.3997 33.0468 21.3088 32.9566 21.2383C32.8664 21.1679 32.7607 21.1199 32.6483 21.0984L31.3553 18.0021C31.4675 18.0245 31.5727 18.0731 31.6624 18.144C31.7521 18.2149 31.8237 18.306 31.8714 18.4099L33.1671 21.5035Z" fill="#FE3030"/>
<path d="M26.4445 17.4222L27.7402 20.5158C28.2784 21.8059 27.7402 23.4346 26.2946 24.5277L24.999 21.4342C26.4583 20.341 26.9994 18.7124 26.4445 17.4222Z" fill="#F67067"/>
<path d="M31.8714 18.4099L33.1671 21.5035C33.1868 21.5554 33.2008 21.6094 33.2087 21.6644C33.2614 22.0944 32.8869 22.5411 32.3764 22.6577C32.2167 22.695 32.0505 22.695 31.8908 22.6577C31.779 22.6355 31.674 22.5873 31.5843 22.5169C31.4946 22.4465 31.4228 22.356 31.3748 22.2526L30.0818 19.1563C30.1283 19.2602 30.1993 19.3514 30.2887 19.4219C30.3781 19.4925 30.4832 19.5403 30.5951 19.5613C30.7548 19.5988 30.921 19.5988 31.0807 19.5613C31.5995 19.4448 31.9768 19.0064 31.913 18.5681C31.9064 18.5137 31.8924 18.4605 31.8714 18.4099Z" fill="#FFFCED"/>
<path d="M31.3553 18.0021C31.4929 18.0281 31.6194 18.095 31.7184 18.1939C31.8174 18.2929 31.8842 18.4194 31.9102 18.557C31.963 18.987 31.5856 19.4337 31.0779 19.5503C30.9182 19.5877 30.752 19.5877 30.5924 19.5503C30.4539 19.5265 30.3261 19.4604 30.2267 19.361C30.1274 19.2616 30.0612 19.1339 30.0375 18.9954C29.982 18.5653 30.3593 18.1186 30.8698 18.0021C31.0297 17.9663 31.1955 17.9663 31.3553 18.0021Z" fill="#FFFCED"/>
<path d="M25.0073 21.4314L26.3029 24.525L20.5625 28.8476L19.2696 25.7541L25.0073 21.4314Z" fill="#F67067"/>
<path d="M35.8778 20.108L34.5959 17.0144C34.796 17.4574 35.0995 17.8459 35.4809 18.1471C35.8623 18.4484 36.3105 18.6537 36.7878 18.7457L38.0974 21.8393C37.6149 21.7518 37.1609 21.5486 36.7743 21.247C36.3877 20.9455 36.08 20.5546 35.8778 20.108Z" fill="#F67067"/>
<path d="M19.2696 25.754L20.5625 28.8476C19.9989 29.2785 19.3491 29.583 18.6573 29.7405C17.9656 29.898 17.248 29.9048 16.5534 29.7604C16.0825 29.6538 15.6392 29.4497 15.2521 29.1611L13.9592 26.0675C14.3473 26.3561 14.7915 26.5603 15.2632 26.6668C15.9575 26.8107 16.6745 26.8036 17.3657 26.6461C18.0569 26.4886 18.7062 26.1844 19.2696 25.754Z" fill="#F67067"/>
<path d="M16.4341 29.236L16.5451 29.5134L16.6644 29.7909L16.7864 30.085L16.9113 30.3818L17.0389 30.687L17.1638 30.9894L17.2914 31.2919L17.4162 31.5887L16.4341 29.2415V29.236Z" fill="#FE3030"/>
<path d="M16.4785 32.9066C16.4313 32.9956 16.4039 33.0937 16.3981 33.1943C16.3924 33.2949 16.4084 33.3955 16.4452 33.4893L15.1495 30.3957C15.1128 30.3019 15.0967 30.2013 15.1025 30.1007C15.1082 30.0002 15.1356 29.902 15.1828 29.8131L16.4785 32.9066L15.1828 29.8131C15.3023 29.5957 15.4882 29.4224 15.7135 29.3185C15.9387 29.2147 16.1912 29.1857 16.4341 29.236C16.8632 30.2644 17.2942 31.2956 17.727 32.3295C17.2979 31.2974 16.8669 30.2662 16.4341 29.236C16.5459 29.2572 16.651 29.3051 16.7403 29.3756C16.8297 29.4462 16.9007 29.5372 16.9474 29.641L18.2431 32.7346C18.1963 32.6303 18.125 32.5389 18.0351 32.4684C17.9451 32.3978 17.8394 32.3501 17.727 32.3295C17.4845 32.279 17.2322 32.3079 17.0074 32.4118C16.7826 32.5157 16.5971 32.6892 16.4785 32.9066Z" fill="#FE3030"/>
<path d="M16.9473 29.6411L18.243 32.7347C18.2799 32.828 18.296 32.9281 18.2903 33.0283C18.2845 33.1284 18.2571 33.2261 18.2097 33.3145C18.0911 33.5329 17.9055 33.7074 17.6802 33.8123C17.4549 33.9172 17.2019 33.947 16.9584 33.8972C16.8466 33.875 16.7416 33.8264 16.6524 33.7555C16.5631 33.6845 16.492 33.5933 16.4452 33.4893L15.1495 30.3958C15.1966 30.4998 15.2681 30.5909 15.3579 30.6615C15.4478 30.732 15.5533 30.7798 15.6655 30.8009C15.9087 30.8513 16.1617 30.8222 16.387 30.7177C16.6124 30.6133 16.7981 30.4391 16.9168 30.221C16.963 30.1321 16.9896 30.0344 16.9949 29.9344C17.0001 29.8343 16.9839 29.7344 16.9473 29.6411Z" fill="#FFFCED"/>
<path d="M16.4341 29.236C16.5402 29.253 16.6407 29.2953 16.7271 29.3592C16.8135 29.4231 16.8833 29.5069 16.9306 29.6034C16.9779 29.6999 17.0013 29.8064 16.9989 29.9138C16.9965 30.0213 16.9684 30.1266 16.9168 30.2209C16.7981 30.4391 16.6124 30.6132 16.387 30.7177C16.1617 30.8221 15.9087 30.8512 15.6655 30.8008C15.559 30.7839 15.4581 30.7416 15.3714 30.6775C15.2847 30.6134 15.2147 30.5293 15.1673 30.4324C15.12 30.3356 15.0966 30.2287 15.0993 30.1209C15.102 30.013 15.1306 29.9075 15.1828 29.8131C15.3019 29.5954 15.4878 29.4218 15.7131 29.3179C15.9384 29.214 16.1912 29.1853 16.4341 29.236Z" fill="#FFFCED"/>
<path d="M43.2857 20.2716L44.5813 23.3651L38.0835 21.8392L36.7878 18.7456L43.2857 20.2716Z" fill="#F67067"/>
<path d="M48.2242 18.4293L49.5199 21.5229C48.9508 22.2605 48.1867 22.8241 47.3139 23.1502C46.4412 23.4762 45.4947 23.5516 44.5813 23.3679L43.2856 20.2882C44.2003 20.4724 45.1483 20.3958 46.0216 20.0671C46.8948 19.7384 47.658 19.1709 48.2242 18.4293Z" fill="#F67067"/>
<path d="M32.0268 26.7445L33.3197 29.8381C33.2042 29.814 33.0843 29.8231 32.9738 29.8643C32.8634 29.9056 32.7668 29.9773 32.6954 30.0711L31.3997 26.9776C31.4718 26.8837 31.5688 26.8121 31.6797 26.7709C31.7906 26.7297 31.9109 26.7205 32.0268 26.7445Z" fill="#FFFCED"/>
<path d="M13.4043 36.2221C12.95 36.1162 12.4815 36.0843 12.0171 36.1278L10.7214 33.0342C11.1857 32.9917 11.6539 33.0226 12.1086 33.1258C12.5377 34.1579 12.9687 35.1891 13.4015 36.2194L13.0908 35.4758L12.1086 33.1286C12.5853 33.2209 13.0331 33.4256 13.4148 33.7258C13.7965 34.0259 14.1011 34.4128 14.3033 34.8543L15.5989 37.9479C15.3968 37.5064 15.0922 37.1195 14.7105 36.8194C14.3288 36.5192 13.881 36.3145 13.4043 36.2221Z" fill="#FE3030"/>
<path d="M14.2922 34.8544L15.5879 37.9479C15.678 38.1685 15.7396 38.3998 15.771 38.636L14.4753 35.548C14.4457 35.3096 14.3841 35.0763 14.2922 34.8544Z" fill="#F67067"/>
<path d="M48.6044 25.2824L47.9579 23.7342C47.7415 23.2181 47.5251 22.7049 47.3115 22.1888C47.4434 22.0871 47.5958 22.0154 47.7582 21.9785C47.9206 21.9416 48.0891 21.9405 48.252 21.9752L48.4018 22.3359L48.4823 22.5245L48.646 22.9157L48.8125 23.318L48.9845 23.7231L49.0677 23.9256L49.151 24.1254L49.3147 24.5166L49.47 24.8912C49.5063 24.9449 49.5318 25.0052 49.5449 25.0687C49.3821 25.034 49.2136 25.0352 49.0511 25.072C48.8887 25.1089 48.7363 25.1807 48.6044 25.2824Z" fill="#FE3030"/>
<path d="M49.5449 25.0715C49.114 24.0394 48.683 23.0082 48.252 21.9779L48.4018 22.3386L48.5628 22.7215L48.7292 23.1182L48.8985 23.5233L49.0677 23.9284L49.2342 24.3251L49.3951 24.708L49.5449 25.0715Z" fill="#FE3030"/>
<path d="M49.9278 25.2824C49.7697 24.8995 49.6088 24.5194 49.4506 24.1393C49.1732 23.4901 48.8957 22.8381 48.6321 22.1971C48.7182 22.2277 48.6821 22.3164 48.707 22.3747L48.8624 22.7493L48.9457 22.9435L49.1121 23.3402L49.2814 23.7453L49.3646 23.9479L49.5339 24.3502L49.6975 24.7414L49.7752 24.93L49.9278 25.2824Z" fill="#FE3030"/>
<path d="M49.9278 25.2824C49.8231 25.1773 49.6901 25.1049 49.5449 25.0743C49.114 24.0422 48.683 23.011 48.252 21.9807C48.3959 22.011 48.5279 22.0823 48.6321 22.186L48.7847 22.5467L48.8624 22.7354L49.0261 23.1266L49.1121 23.3263L49.9278 25.2685V25.2824Z" fill="#FE3030"/>
<path d="M48.6044 25.2823C48.4506 25.3791 48.3334 25.5244 48.2716 25.6953C48.2098 25.8662 48.2068 26.0529 48.2631 26.2256L46.9758 23.1349C46.9226 22.9616 46.9274 22.7757 46.9895 22.6055C47.0516 22.4352 47.1676 22.2899 47.3198 22.1915C47.6971 23.1182 48.216 24.3556 48.6044 25.2823Z" fill="#FE3030"/>
<path d="M50.0638 25.4793C50.0325 25.4042 49.9863 25.3362 49.9278 25.2796L48.6404 22.1832C48.6984 22.2413 48.7446 22.3101 48.7764 22.3858L50.0638 25.4793Z" fill="#FE3030"/>
<path d="M19.2308 36.0779C18.504 38.431 18.6138 40.9631 19.5415 43.2445L18.2486 40.1509C17.3182 37.8701 17.2083 35.3371 17.9378 32.9844L18.0877 33.3478L18.2486 33.7307L18.4151 34.1275L18.5843 34.5325L18.6703 34.7351L18.8368 35.1374L18.92 35.3344L19.0005 35.5286L19.0809 35.7173C19.1486 35.8293 19.1991 35.9509 19.2308 36.0779Z" fill="#FE3030"/>
<path d="M20.0631 33.9665C19.7264 34.6454 19.4479 35.3518 19.2308 36.0779C18.7998 35.0476 18.3688 34.0164 17.9379 32.9843C18.155 32.2582 18.4334 31.5519 18.7702 30.8729C22.1551 23.9616 31.1361 19.7999 38.7882 21.6006C42.8528 22.555 45.7245 25.0021 47.0396 28.1234L48.3353 31.217C47.0312 28.0957 44.1458 25.6485 40.0811 24.6941C32.4152 22.8935 23.4341 27.0552 20.0631 33.9665Z" fill="#FE3030"/>
<path d="M46.5152 28.3343L47.8081 31.4278C46.5513 28.4203 43.7684 26.0592 39.8509 25.138C32.4679 23.404 23.8087 27.4159 20.5431 34.083C19.0116 37.2099 18.9367 40.3728 20.0465 43.0308L18.7536 39.9372C17.6438 37.2792 17.7187 34.1108 19.2474 30.9895C22.513 24.3307 31.1778 20.3076 38.5552 22.0445C42.4728 22.9656 45.2556 25.3267 46.5152 28.3343Z" fill="#C62525"/>
<path d="M44.8283 28.3565C44.6007 28.1512 44.3621 27.9514 44.1124 27.7628C43.6833 26.7306 43.2523 25.6995 42.8195 24.6692C43.0692 24.8579 43.3078 25.0548 43.5326 25.2629L43.6241 25.4793L43.7185 25.7096L43.8183 25.9455L43.921 26.1896L44.0209 26.431L44.1208 26.6696L44.2179 26.8999L44.3067 27.1135L44.3677 27.2606L44.4315 27.4132L44.4981 27.5741L44.5675 27.735L44.634 27.8987L44.7034 28.0569L44.7672 28.2122L44.8283 28.3565Z" fill="#FE3030"/>
<path d="M37.3704 27.9985L38.6633 31.0921L33.3197 29.8353L32.0267 26.7417L37.3704 27.9985Z" fill="#FFFCED"/>
<path d="M48.7681 22.3857L50.0638 25.4793C50.1172 25.6523 50.1128 25.8379 50.0512 26.0082C49.9896 26.1784 49.8742 26.3239 49.7225 26.4226C49.5894 26.5231 49.4365 26.5941 49.2738 26.6309C49.1112 26.6677 48.9426 26.6696 48.7792 26.6363C48.6355 26.6038 48.5039 26.5317 48.3991 26.4282C48.3412 26.3711 48.295 26.3032 48.2631 26.2284L46.9758 23.1349C47.0086 23.2091 47.0547 23.2768 47.1117 23.3346C47.2168 23.4377 47.3484 23.5097 47.4918 23.5427C47.6552 23.576 47.8238 23.5742 47.9865 23.5373C48.1491 23.5005 48.302 23.4295 48.4352 23.3291C48.5875 23.2311 48.7029 23.0852 48.7632 22.9144C48.8235 22.7436 48.8252 22.5576 48.7681 22.3857Z" fill="#FFFCED"/>
<path d="M33.6332 30.554L34.9261 33.6475C34.8107 33.6241 34.691 33.6335 34.5806 33.6747C34.4703 33.7159 34.3737 33.7872 34.3018 33.8806L33.0089 30.787C33.0808 30.6937 33.1773 30.6224 33.2877 30.5812C33.398 30.54 33.5177 30.5305 33.6332 30.554Z" fill="#FE3030"/>
<path d="M44.8283 28.3565C44.8153 28.3338 44.805 28.3095 44.7978 28.2844L44.6701 27.9792L44.6008 27.8183L44.5675 27.735L44.3067 27.1135L43.5326 25.2629C43.8681 25.5668 44.1806 25.8951 44.4676 26.2451L44.6202 26.6058L44.7811 26.9887L44.9476 27.3854L45.1168 27.7905L45.2861 28.1956L45.4525 28.5923L45.6107 28.9752L45.7633 29.3387C45.4741 28.9906 45.1617 28.6625 44.8283 28.3565Z" fill="#FE3030"/>
<path d="M46.1073 29.7771C45.9963 29.6272 45.8826 29.4802 45.7633 29.3387C45.3305 28.2992 44.9023 27.268 44.4787 26.2451C44.598 26.3866 44.7145 26.5226 44.8227 26.6835L44.9365 26.9609L45.0558 27.2384L45.1806 27.538L45.3083 27.8405L45.4359 28.1456L45.5608 28.4453L45.6801 28.7227L45.7938 29.0002L45.8327 29.0918L45.8715 29.1861L45.9131 29.286L45.9547 29.3858L45.9991 29.4857L46.0407 29.5856L46.0796 29.6799L46.1073 29.7771Z" fill="#FE3030"/>
<path d="M35.2535 30.9423L36.5464 34.0359L34.9261 33.6558L33.6332 30.5594L35.2535 30.9423Z" fill="#FE3030"/>
<path d="M33.009 30.7953L34.3019 33.8889L32.8508 35.8976L31.5551 32.804L33.009 30.7953Z" fill="#FE3030"/>
<path d="M32.7897 36.275L31.4968 33.1814C31.4727 33.1189 31.4653 33.0512 31.4756 32.985C31.4858 32.9187 31.5132 32.8564 31.5551 32.8041L32.8508 35.9004C32.8087 35.952 32.7809 36.0138 32.7702 36.0795C32.7594 36.1453 32.7662 36.2127 32.7897 36.275Z" fill="#FE3030"/>
<path d="M36.133 31.5417L37.4287 34.6352C37.3066 34.3578 37.0125 34.1469 36.5464 34.0387L35.2535 30.9424C35.7168 31.0534 36.0137 31.2531 36.133 31.5417Z" fill="#FE3030"/>
<path d="M33.0672 36.4914C33.0071 36.4799 32.9506 36.4543 32.9023 36.4167C32.8541 36.379 32.8155 36.3305 32.7897 36.275L31.4968 33.1814C31.5222 33.2372 31.5607 33.286 31.609 33.3236C31.6573 33.3613 31.714 33.3868 31.7743 33.3978L33.0672 36.4914Z" fill="#FFFCED"/>
<path d="M37.4287 34.6352C37.4287 34.6602 37.4481 34.6851 37.4537 34.7101L36.1552 31.6165C36.1552 31.5916 36.1385 31.5666 36.1274 31.5416L37.4287 34.6352Z" fill="#FFFCED"/>
<path d="M41.5016 33.259C41.0411 32.1492 40.0959 31.4278 38.6661 31.0949L37.3704 28.0013C38.7984 28.3361 39.7445 29.0566 40.2087 30.1627L41.5016 33.259Z" fill="#FFFCED"/>
<path d="M40.2087 30.1627L41.5017 33.2563C41.5102 33.2743 41.5177 33.2928 41.5239 33.3118L40.2309 30.2154C40.2226 30.1988 40.2171 30.1821 40.2087 30.1627Z" fill="#FE3030"/>
<path d="M33.378 33.7723L34.6709 36.8686L33.0672 36.4913L31.7743 33.3977L33.378 33.7723Z" fill="#FFFCED"/>
<path d="M37.4537 34.7157C37.573 35.0486 37.4814 35.4232 37.1762 35.8394L37.0236 35.4787L36.8627 35.0958L36.6963 34.6963L36.527 34.2912L36.1913 33.4894C36.0886 33.2424 35.986 32.9927 35.8806 32.7458C36.1774 32.3296 36.269 31.9551 36.158 31.636C36.5492 32.5432 37.093 33.7696 37.4537 34.7157Z" fill="#FFFCED"/>
<path d="M37.1873 35.8255L35.8916 32.7319L37.1873 35.8255Z" fill="#FFFCED"/>
<path d="M14.4753 35.5397L15.771 38.636L16.5284 44.4847L15.2355 41.3911L14.4753 35.5397Z" fill="#F67067"/>
<path d="M34.7236 36.8826L34.6709 36.8687L33.3807 33.7751H33.4307L33.5694 34.1025L33.7137 34.4493L33.8663 34.81L34.0189 35.179L34.1742 35.5453L34.3241 35.906L34.4683 36.2555L34.6071 36.5829V36.6162L34.6209 36.6523L34.6376 36.6884L34.6515 36.7244L34.6681 36.7633L34.6848 36.7993L34.6986 36.8354L34.7236 36.8826Z" fill="#FFFCED"/>
<path d="M34.7235 36.8825C34.2907 35.8504 33.8588 34.8192 33.4279 33.7889L33.5805 34.1496L33.7414 34.5325L33.9078 34.932L34.0771 35.3371L34.2463 35.7422L34.4128 36.1389L34.5709 36.5218L34.7235 36.8825Z" fill="#FFFCED"/>
<path d="M21.148 34.2245C19.683 37.2155 19.6081 40.2369 20.668 42.7728L19.3723 39.6792C18.3124 37.1433 18.3873 34.1302 19.8523 31.131C22.9763 24.7496 31.2277 20.9292 38.2888 22.5911C39.9266 22.9578 41.4686 23.6659 42.814 24.6692L42.9638 25.0299L43.1247 25.4127L43.2912 25.8095L43.4605 26.2146L43.6297 26.6196L43.7962 27.0164L43.9571 27.3993L44.1069 27.7627C42.7598 26.7588 41.2159 26.0506 39.5762 25.6846C32.5234 24.0255 24.2693 27.8488 21.148 34.2245Z" fill="#FE3030"/>
<path d="M46.1073 29.777C46.0997 29.7628 46.0932 29.7479 46.0879 29.7326L46.0491 29.6383L46.0296 29.5911L45.9436 29.3914L45.7827 29.0057C45.4609 28.2326 45.1372 27.4585 44.8116 26.6835C45.2476 27.2751 45.6108 27.9169 45.8937 28.5951L47.1894 31.6887C46.9044 31.0115 46.5412 30.3699 46.1073 29.777Z" fill="#FE3030"/>
<path d="M36.0359 36.7522C35.9332 36.5025 35.8278 36.2555 35.7252 36.0058C35.6225 35.7561 35.5004 35.4703 35.3894 35.204L34.743 33.6586C35.2052 33.4677 35.6036 33.1491 35.8916 32.7402L36.0442 33.1009L36.2024 33.4838L36.3688 33.8806L36.5381 34.2856L36.7073 34.6907L36.8738 35.0902L37.0347 35.4731L37.1873 35.8338C36.899 36.2435 36.4995 36.5622 36.0359 36.7522Z" fill="#FFFCED"/>
<path d="M36.0359 36.7521C35.6266 36.9385 35.1672 36.9844 34.7291 36.8825C34.2963 35.8541 33.8644 34.8229 33.4334 33.789C33.8724 33.8908 34.3327 33.845 34.743 33.6586L36.0359 36.7521Z" fill="#FFFCED"/>
<path d="M35.2535 30.9424C35.7566 31.0626 36.059 31.2873 36.1608 31.6166C36.2801 31.9495 36.1857 32.3241 35.8833 32.7264C35.5953 33.1353 35.1969 33.4538 34.7347 33.6447C34.3244 33.8311 33.8641 33.8769 33.4251 33.7751H33.3696L31.766 33.3978C31.7024 33.3875 31.6427 33.3605 31.593 33.3196C31.5434 33.2787 31.5054 33.2253 31.4831 33.1649C31.4608 33.1045 31.455 33.0392 31.4662 32.9759C31.4773 32.9125 31.5052 32.8532 31.5468 32.804L33.0006 30.7953C33.0725 30.702 33.1691 30.6307 33.2794 30.5895C33.3898 30.5483 33.5095 30.5388 33.6249 30.5623L35.2535 30.9424Z" fill="#FFFCED"/>
<path d="M31.4025 26.9749L32.6954 30.0712L24.2609 41.7602L22.968 38.6666L31.4025 26.9749Z" fill="#FFFCED"/>
<path d="M20.2851 43.5525C20.2018 43.3832 20.1214 43.2084 20.0492 43.0336L18.7535 39.9401C18.8285 40.1149 18.9061 40.2869 18.9894 40.4589C19.0365 40.5671 19.0976 40.7114 19.142 40.8196L19.3029 41.2025L19.4694 41.602L19.6386 42.0071L19.8078 42.4094L19.9743 42.8089L20.1325 43.1918L20.2851 43.5525Z" fill="#FE3030"/>
<path d="M29.674 36.0752L30.9669 39.1687C30.8519 39.1442 30.7322 39.1531 30.6221 39.1944C30.512 39.2357 30.416 39.3077 30.3454 39.4018L29.0497 36.3082C29.1212 36.2144 29.2177 36.1427 29.3282 36.1014C29.4387 36.0602 29.5586 36.0511 29.674 36.0752Z" fill="#FE3030"/>
<path d="M25.9895 39.9178L27.2852 43.0113L24.4801 42.351L23.1844 39.2574L25.9895 39.9178Z" fill="#FE3030"/>
<path d="M24.261 41.7601C24.2198 41.8122 24.1928 41.8741 24.1826 41.9397C24.1724 42.0053 24.1793 42.0725 24.2027 42.1346L22.907 39.0411C22.884 38.9787 22.8776 38.9114 22.8883 38.8458C22.899 38.7801 22.9264 38.7184 22.968 38.6665L24.261 41.7601Z" fill="#FFFCED"/>
<path d="M24.2027 42.1347L22.907 39.0411C22.933 39.0968 22.9716 39.1455 23.0197 39.1836C23.0679 39.2217 23.1243 39.2479 23.1844 39.2603L24.4801 42.3539C24.4197 42.3423 24.3629 42.3164 24.3146 42.2782C24.2663 42.2401 24.2279 42.1909 24.2027 42.1347Z" fill="#FE3030"/>
<path d="M30.5507 36.2777L31.8436 39.374L30.9669 39.166L29.674 36.0724L30.5507 36.2777Z" fill="#FE3030"/>
<path d="M30.8531 36.655L32.1461 39.7486L31.8381 43.7772L30.5452 40.6836L30.8531 36.655Z" fill="#FFFCED"/>
<path d="M30.8282 36.4969L32.1211 39.5905C32.0959 39.5346 32.0575 39.4857 32.0091 39.448C31.9608 39.4103 31.904 39.3849 31.8436 39.3741L30.5507 36.2805C30.6109 36.2918 30.6675 36.3173 30.7158 36.355C30.7641 36.3926 30.8026 36.4413 30.8282 36.4969Z" fill="#FE3030"/>
<path d="M30.8282 36.4968L32.1211 39.5904C32.142 39.6404 32.1505 39.6946 32.1461 39.7485L30.8532 36.6577C30.8566 36.6029 30.848 36.548 30.8282 36.4968Z" fill="#FFFCED"/>
<path d="M15.2355 41.3911L16.5284 44.4847C16.7254 45.9996 15.6628 47.5588 14.0314 48.3357L12.7385 45.2421C14.3699 44.4625 15.4325 42.906 15.2355 41.3911Z" fill="#F67067"/>
<path d="M12.0975 33.1287L12.2113 33.4061L12.3278 33.6836L12.4499 33.9749L12.5747 34.2745L12.7024 34.5769L12.83 34.8821L12.9549 35.1846L13.0797 35.4814L12.0975 33.1314V33.1287Z" fill="#FE3030"/>
<path d="M14.4753 35.548L15.2355 41.3967C15.4325 42.9115 14.3699 44.468 12.7384 45.2477C10.4217 41.7934 9.63379 37.4957 10.7103 33.0399C11.1746 32.9973 11.6428 33.0282 12.0975 33.1314C13.371 33.4255 14.3171 34.3134 14.4753 35.548Z" fill="#F67067"/>
<path d="M29.0497 36.3054L30.3454 39.399L27.9094 42.7783L26.6137 39.6848L29.0497 36.3054Z" fill="#FE3030"/>
<path d="M26.6137 39.6848L27.9094 42.7784C27.838 42.8722 27.7414 42.9439 27.631 42.9852C27.5205 43.0264 27.4006 43.0355 27.2851 43.0114L25.9894 39.9179C26.1049 39.942 26.2248 39.9328 26.3353 39.8916C26.4458 39.8504 26.5423 39.7787 26.6137 39.6848Z" fill="#FE3030"/>
<path d="M40.2309 30.2155L41.5238 33.3118C41.9788 34.4456 41.7569 35.6303 40.858 36.8659C40.2858 37.6577 39.5483 38.3157 38.6966 38.7942C37.9784 39.214 37.1941 39.5086 36.3771 39.6654C36.2538 39.6823 36.139 39.7378 36.0493 39.8241C35.9595 39.9103 35.8995 40.0228 35.8777 40.1454L34.582 37.0518C34.6042 36.9294 34.6644 36.8172 34.754 36.731C34.8437 36.6448 34.9583 36.5891 35.0814 36.5718C35.8993 36.415 36.6845 36.1204 37.4037 35.7006C38.2562 35.2173 38.9937 34.5547 39.565 33.7585C40.464 32.534 40.6859 31.353 40.2309 30.2155Z" fill="#FE3030"/>
<path d="M18.7619 47.7558L17.4662 44.6622C17.5134 44.7704 17.5716 44.9147 17.6188 45.0229L17.7797 45.4058L17.9434 45.8053L18.1154 46.2104L18.2847 46.6155L18.4511 47.0122L18.6093 47.3951L18.7619 47.7558Z" fill="#FE3030"/>
<path d="M19.7024 47.5339C19.5393 47.5005 19.3709 47.5025 19.2086 47.5398C19.0464 47.5772 18.894 47.6489 18.7619 47.7503L18.6093 47.3896L18.4511 47.0067L18.121 46.2049C18.0072 45.9274 17.8962 45.6694 17.7853 45.4003C17.6743 45.1311 17.5772 44.9036 17.4717 44.6567C17.6044 44.5553 17.7572 44.4835 17.9199 44.4462C18.0827 44.4089 18.2515 44.4069 18.4151 44.4403L18.5649 44.801L18.7258 45.1866L18.8923 45.5834L19.0615 45.9885L19.2308 46.3935L19.3972 46.7903L19.5582 47.1732L19.7024 47.5339Z" fill="#FE3030"/>
<path d="M19.7025 47.5339C19.2733 46.5055 18.8424 45.4743 18.4095 44.4403L18.5594 44.8038L18.7203 45.1866L18.8868 45.5834L19.056 45.9885L19.2252 46.3935L19.3917 46.7903L19.5526 47.1732L19.7025 47.5339Z" fill="#FE3030"/>
<path d="M20.0853 47.7558C19.9791 47.6527 19.8467 47.5808 19.7025 47.5477C19.2733 46.5193 18.8424 45.4881 18.4095 44.4541C18.5532 44.4866 18.6849 44.5587 18.7897 44.6622C18.8467 44.7194 18.892 44.7873 18.9228 44.862L20.2185 47.9555C20.1866 47.8814 20.1415 47.8137 20.0853 47.7558Z" fill="#FE3030"/>
<path d="M18.7619 47.7558C18.6074 47.8527 18.4899 47.9985 18.4281 48.17C18.3662 48.3415 18.3636 48.5287 18.4206 48.7019L17.1249 45.6056C17.0715 45.4326 17.0759 45.2469 17.1375 45.0767C17.1991 44.9065 17.3145 44.761 17.4662 44.6622L17.6188 45.0229L17.7769 45.4058L17.9434 45.8053L18.1126 46.2104L18.2819 46.6127L18.4484 47.0122L18.6093 47.3951L18.7619 47.7558Z" fill="#FE3030"/>
<path d="M31.8631 43.9353L30.5701 40.8418C30.5491 40.7928 30.5405 40.7395 30.5452 40.6864L31.8381 43.78C31.8349 43.833 31.8434 43.886 31.8631 43.9353Z" fill="#FFFCED"/>
<path d="M18.9228 44.8481L20.2185 47.9417C20.2722 48.1144 20.2682 48.2998 20.2071 48.47C20.1461 48.6402 20.0312 48.7859 19.88 48.885C19.7468 48.9863 19.5935 49.058 19.4303 49.0954C19.2672 49.1327 19.0979 49.1348 18.9339 49.1015C18.7898 49.0701 18.6578 48.9979 18.5538 48.8934C18.4968 48.8372 18.4515 48.7702 18.4206 48.6964L17.1249 45.6C17.1561 45.6745 17.2013 45.7424 17.2581 45.7998C17.3636 45.9039 17.4963 45.976 17.641 46.0079C17.8046 46.0413 17.9734 46.0393 18.1361 46.002C18.2989 45.9646 18.4517 45.8929 18.5843 45.7915C18.738 45.6947 18.8549 45.5492 18.9162 45.3782C18.9776 45.2072 18.9799 45.0206 18.9228 44.8481Z" fill="#FFFCED"/>
<path d="M31.863 43.9352L30.5701 40.8417C30.5952 40.898 30.6335 40.9473 30.6818 40.9855C30.7302 41.0237 30.787 41.0495 30.8476 41.0609L32.1405 44.1489C32.0805 44.1381 32.024 44.1131 31.9757 44.0759C31.9274 44.0387 31.8888 43.9905 31.863 43.9352Z" fill="#FE3030"/>
<path d="M50.2747 27.3743L51.5676 30.4678L52.3278 36.3165L51.0349 33.2229L50.2747 27.3743Z" fill="#FE3030"/>
<path d="M52.3278 36.3193C52.3588 36.5559 52.4213 36.7873 52.5137 37.0073L51.218 33.9138C51.1269 33.6935 51.0653 33.4621 51.0349 33.2257C51.415 34.1607 52.067 35.3482 52.3278 36.3193Z" fill="#FE3030"/>
<path d="M34.582 37.049L35.8777 40.1453L35.6225 44.3487L34.3268 41.2551L34.582 37.049Z" fill="#FE3030"/>
<path d="M33.6193 41.7129L34.915 44.8065L32.1405 44.1545L30.8476 41.0609L33.6193 41.7129Z" fill="#FE3030"/>
<path d="M34.3268 41.2551L35.6225 44.3487C35.6081 44.4263 35.5781 44.5001 35.5342 44.5656C35.4904 44.6312 35.4336 44.6871 35.3674 44.7299C35.3011 44.7728 35.2268 44.8017 35.1491 44.8148C35.0713 44.828 34.9917 44.8252 34.915 44.8065L33.6193 41.7129C33.696 41.7316 33.7756 41.7344 33.8534 41.7213C33.9312 41.7081 34.0054 41.6792 34.0717 41.6364C34.1379 41.5935 34.1947 41.5376 34.2385 41.4721C34.2824 41.4065 34.3125 41.3327 34.3268 41.2551Z" fill="#FE3030"/>
<path d="M45.8937 28.5923L47.1866 31.6859C48.2493 34.2217 48.1743 37.2348 46.7094 40.2369C43.5853 46.6182 35.334 50.4387 28.2757 48.7768C24.5273 47.8972 21.8693 45.6471 20.668 42.7755L19.3751 39.682C20.5736 42.5536 23.2316 44.8037 26.98 45.6832C34.0383 47.3479 42.2924 43.5191 45.4137 37.1433C46.8787 34.1607 46.9536 31.1282 45.8937 28.5923Z" fill="#FFFCED"/>
<path d="M47.3115 40.3784C46.9023 41.2124 46.4135 42.005 45.8521 42.7451C45.4193 41.713 44.9874 40.6818 44.5564 39.6515C45.1187 38.9115 45.6084 38.1189 46.0186 37.2849C47.5501 34.1552 47.6278 30.9923 46.5124 28.3344L47.8081 31.4279C48.9179 34.0859 48.8458 37.2516 47.3115 40.3784Z" fill="#FE3030"/>
<path d="M28.0093 49.3206C24.3192 48.455 21.6279 46.3103 20.2851 43.5524L18.9894 40.4589C20.3433 43.2167 23.0235 45.3586 26.7136 46.2271C33.1726 47.7475 40.611 44.862 44.5564 39.6515C44.6035 39.7597 44.6618 39.904 44.709 40.0122L44.8671 40.3951L45.0336 40.7918L45.2028 41.1969L45.3721 41.602L45.5385 41.9987L45.6995 42.3816L45.8521 42.7451C41.9067 47.9556 34.4655 50.841 28.0093 49.3206Z" fill="#FE3030"/>
<path d="M47.0257 28.1207L48.3186 31.2143C49.4728 33.9721 49.3923 37.2516 47.8053 40.495C44.4204 47.4063 35.4422 51.5652 27.7901 49.7674C23.7255 48.8102 20.84 46.3686 19.536 43.2445L18.243 40.1509C19.5471 43.2695 22.4325 45.7166 26.4972 46.6738C34.1492 48.4717 43.1275 44.3127 46.5124 37.4014C48.0994 34.1608 48.1799 30.8758 47.0257 28.1207Z" fill="#C62525"/>
<path d="M38.7743 21.6006C46.4264 23.3984 49.8973 30.479 46.5124 37.4152C43.1275 44.3514 34.1492 48.4854 26.4971 46.6876C18.8451 44.8897 15.3714 37.8092 18.7563 30.8868C22.1412 23.9644 31.1222 19.7999 38.7743 21.6006ZM26.7219 46.227C34.102 47.9638 42.7612 43.9519 46.0268 37.2848C49.2924 30.6177 45.9436 23.7813 38.5634 22.0445C31.1833 20.3077 22.5213 24.3224 19.2557 30.9895C15.9901 37.6566 19.3417 44.493 26.7219 46.227Z" fill="#C62525"/>
<path d="M38.2888 22.5911C45.3471 24.2558 48.5378 30.7648 45.4137 37.1434C42.2896 43.522 34.0383 47.3424 26.98 45.6833C19.9216 44.0241 16.7337 37.5096 19.8523 31.1311C22.9708 24.7525 31.2305 20.9292 38.2888 22.5911Z" fill="#FFFCED"/>
<path d="M35.5558 36.4081C35.4116 36.4347 35.2788 36.5039 35.1745 36.6068C35.0701 36.7097 34.999 36.8415 34.9703 36.9852L34.6013 41.0166C34.581 41.1107 34.5422 41.1999 34.4871 41.2789C34.432 41.3579 34.3617 41.4252 34.2804 41.4768C34.1991 41.5284 34.1083 41.5634 34.0134 41.5797C33.9185 41.5959 33.8212 41.5931 33.7274 41.5715L30.7892 40.8806C30.6783 40.8628 30.5784 40.803 30.5103 40.7137C30.4421 40.6244 30.4109 40.5123 30.4229 40.4006L30.8585 36.6911C30.8713 36.5793 30.8403 36.4669 30.7721 36.3774C30.7038 36.2879 30.6035 36.2283 30.4923 36.2111L30.0512 36.1057C29.909 36.0771 29.7617 36.0893 29.6262 36.1408C29.4907 36.1924 29.3726 36.2812 29.2854 36.397L27.0353 39.5239C26.9487 39.6405 26.8307 39.73 26.6951 39.7821C26.5595 39.8342 26.4119 39.8466 26.2695 39.818L23.2703 39.1133C23.191 39.1016 23.1162 39.0689 23.0538 39.0186C22.9914 38.9683 22.9435 38.9023 22.9152 38.8273C22.8869 38.7523 22.8792 38.6711 22.8929 38.5921C22.9065 38.5131 22.941 38.4392 22.9928 38.378L31.3052 26.8528C31.3924 26.7362 31.511 26.6468 31.6471 26.5953C31.7832 26.5437 31.9312 26.5319 32.0738 26.5614L37.4091 27.8155C38.9166 28.1706 39.9043 28.9105 40.3723 30.0351C40.8403 31.1597 40.5979 32.3786 39.6454 33.6919C38.6631 35.0699 37.2069 36.0371 35.5558 36.4081ZM35.5558 32.5932C35.8166 32.2214 35.8942 31.9051 35.7916 31.6415C35.6889 31.378 35.4559 31.1893 35.0425 31.0866L33.8578 30.8092C33.7156 30.7806 33.5683 30.7927 33.4328 30.8443C33.2973 30.8958 33.1792 30.9847 33.092 31.1005L32.1237 32.4489C32.0717 32.5098 32.037 32.5835 32.0233 32.6624C32.0096 32.7413 32.0173 32.8224 32.0456 32.8973C32.074 32.9721 32.122 33.038 32.1845 33.088C32.2471 33.138 32.3219 33.1702 32.4012 33.1814L33.425 33.4228L33.4971 33.4422C33.8602 33.5281 34.2409 33.5 34.5875 33.3617C34.9865 33.2133 35.329 32.9436 35.5669 32.5904" fill="#FE3030"/>
<path d="M50.2275 37.1821L50.3385 37.4596L50.4578 37.737L50.5798 38.0284L50.7047 38.328L50.8323 38.6304L50.9572 38.9356L51.0848 39.238L51.2097 39.5349L50.2275 37.1849V37.1821Z" fill="#FE3030"/>
<path d="M52.5248 37.0074L51.2291 33.9138C51.4312 34.3553 51.7358 34.7422 52.1175 35.0423C52.4992 35.3425 52.947 35.5472 53.4237 35.6396C53.6299 35.6878 53.8396 35.7203 54.0507 35.7367L55.3436 38.8302C55.1325 38.8136 54.9229 38.7812 54.7166 38.7331C54.2404 38.6404 53.7932 38.4355 53.412 38.1353C53.0308 37.8352 52.7266 37.4485 52.5248 37.0074Z" fill="#F67067"/>
<path d="M50.2718 40.8557C50.2245 40.9441 50.197 41.0418 50.1913 41.1419C50.1855 41.2421 50.2017 41.3422 50.2386 41.4355L48.9456 38.342C48.9083 38.2489 48.8917 38.1488 48.897 38.0487C48.9023 37.9485 48.9293 37.8507 48.9762 37.7621C49.409 38.7923 49.8409 39.8226 50.2718 40.8529C49.839 39.8245 49.4071 38.7942 48.9762 37.7621C49.0952 37.5442 49.281 37.3703 49.5062 37.2659C49.7315 37.1616 49.9843 37.1322 50.2275 37.1822C50.6566 38.2143 51.0875 39.2455 51.5204 40.2758C51.0894 39.2437 50.6584 38.2125 50.2275 37.1822C50.3398 37.204 50.4453 37.2524 50.5351 37.3234C50.6249 37.3943 50.6964 37.4858 50.7435 37.5901L52.0364 40.6836C51.9893 40.5793 51.9178 40.4879 51.828 40.4169C51.7382 40.346 51.6327 40.2976 51.5204 40.2758C51.2776 40.226 51.0252 40.2554 50.8005 40.3598C50.5757 40.4642 50.3904 40.638 50.2718 40.8557Z" fill="#FE3030"/>
<path d="M50.7435 37.5901L52.0364 40.6837C52.0737 40.7767 52.0903 40.8768 52.085 40.977C52.0798 41.0771 52.0528 41.1749 52.0059 41.2635C51.8867 41.4819 51.7004 41.6562 51.4746 41.7606C51.2488 41.865 50.9954 41.894 50.7518 41.8434C50.6398 41.8216 50.5346 41.7732 50.4453 41.7022C50.356 41.6312 50.285 41.5398 50.2385 41.4355L48.9456 38.342C48.9925 38.4459 49.0635 38.5372 49.1528 38.6081C49.2421 38.6791 49.347 38.7276 49.4589 38.7498C49.7021 38.8007 49.9552 38.7718 50.1807 38.6673C50.4061 38.5629 50.5918 38.3884 50.7102 38.17C50.7575 38.0815 50.785 37.9838 50.7907 37.8837C50.7965 37.7836 50.7804 37.6834 50.7435 37.5901Z" fill="#FFFCED"/>
<path d="M38.5551 22.0445C45.9353 23.7813 49.2841 30.6177 46.0185 37.2848C42.7529 43.9519 34.0882 47.9639 26.7136 46.227C19.3389 44.4902 15.9846 37.6566 19.2474 30.9895C22.5102 24.3224 31.175 20.3077 38.5551 22.0445ZM26.9799 45.6832C34.0382 47.3479 42.2924 43.5191 45.4137 37.1433C48.535 30.7675 45.3471 24.2502 38.2888 22.5911C31.2304 20.9319 22.9763 24.7552 19.8522 31.131C16.7281 37.5068 19.9216 44.0241 26.9799 45.6832Z" fill="#FE3030"/>
<path d="M36.5991 51.5097C36.1682 50.4776 35.7372 49.4464 35.3062 48.4161L35.456 48.7768L35.617 49.1597L35.7834 49.5565L35.9527 49.9615L36.1219 50.3666L36.2884 50.7634L36.4493 51.1462L36.5991 51.5097Z" fill="#FE3030"/>
<path d="M36.1164 51.5124C35.923 51.5487 35.7433 51.6372 35.5966 51.7683C35.4499 51.8993 35.3418 52.068 35.284 52.256C34.8512 51.2257 34.4193 50.1945 33.9883 49.1624C34.0467 48.9747 34.155 48.8063 34.3016 48.6754C34.4482 48.5444 34.6276 48.4557 34.8207 48.4189C35.2535 49.4473 35.6854 50.4785 36.1164 51.5124C35.6836 50.4803 35.2517 49.4491 34.8207 48.4189C34.9804 48.3814 35.1466 48.3814 35.3062 48.4189L35.4561 48.7795L35.617 49.1624L35.7834 49.5592L35.9527 49.9642L36.1219 50.3693L36.2884 50.7661L36.4493 51.149L36.5991 51.5124C36.4404 51.475 36.2751 51.475 36.1164 51.5124Z" fill="#FE3030"/>
<path d="M37.1152 51.9176C37.0681 51.8136 36.9966 51.7224 36.9067 51.6519C36.8169 51.5814 36.7114 51.5336 36.5991 51.5125C36.1682 50.4804 35.7372 49.4492 35.3062 48.4189C35.4183 48.4404 35.5236 48.4884 35.6134 48.5589C35.7032 48.6293 35.7748 48.7203 35.8223 48.824L37.1152 51.9176Z" fill="#FE3030"/>
<path d="M35.2757 52.5057C35.282 52.562 35.296 52.617 35.3173 52.6694L34.0244 49.5759C34.0025 49.5235 33.9876 49.4685 33.98 49.4122C34.4128 50.4443 34.8438 51.4755 35.2729 52.5057C34.8438 51.4736 34.4128 50.4424 33.98 49.4122C33.9648 49.3296 33.9648 49.245 33.98 49.1625C34.4128 50.1946 34.8447 51.2258 35.2757 52.256C35.2605 52.3386 35.2605 52.4232 35.2757 52.5057Z" fill="#FE3030"/>
<path d="M31.7826 54.1538C31.322 53.6249 30.7015 53.2606 30.0152 53.1162L28.7195 50.0226C29.4056 50.168 30.0264 50.5309 30.4897 51.0575L30.6395 51.4209L30.8004 51.8038L30.9669 52.2006L31.1361 52.6056L31.3054 53.0107L31.4718 53.4075L31.6328 53.7904L31.7826 54.1538Z" fill="#FE3030"/>
<path d="M31.9352 54.3508C31.888 54.2842 31.8381 54.2176 31.7826 54.1538L30.4897 51.0575C30.5424 51.1241 30.5951 51.1907 30.6423 51.2573L31.5939 53.5379L31.6356 53.6322L31.6772 53.7321L31.7216 53.8375L31.766 53.943L31.8103 54.0512L31.8547 54.1566L31.8964 54.2565L31.9352 54.3508Z" fill="#FE3030"/>
<path d="M31.9352 54.3508C31.9213 54.323 31.9074 54.2842 31.8963 54.2564L31.8325 54.1038L31.7881 53.9984L31.7659 53.9429L31.5939 53.5378L30.6423 51.2572C30.7509 51.4122 30.8438 51.5777 30.9197 51.7511L32.2126 54.8446C32.1379 54.6707 32.0449 54.5051 31.9352 54.3508Z" fill="#FE3030"/>
<path d="M35.8223 48.8212L37.1152 51.9175C37.1374 51.9698 37.1524 52.0249 37.1596 52.0812C37.2151 52.5085 36.8377 52.9552 36.3272 53.0745C36.1675 53.1119 36.0014 53.1119 35.8417 53.0745C35.7296 53.053 35.6243 53.005 35.5345 52.9345C35.4447 52.8641 35.3731 52.7732 35.3256 52.6694L34.0327 49.5758C34.0798 49.6799 34.1513 49.771 34.2412 49.8415C34.331 49.912 34.4365 49.9599 34.5488 49.9809C34.7075 50.0183 34.8728 50.0183 35.0315 49.9809C35.5531 49.8616 35.9305 49.426 35.8639 48.9876C35.8578 48.9305 35.8438 48.8744 35.8223 48.8212Z" fill="#FFFCED"/>
<path d="M30.9142 51.7511L32.2071 54.8447C32.3465 55.1805 32.4172 55.5409 32.4152 55.9045L31.1195 52.811C31.1225 52.4475 31.0527 52.0871 30.9142 51.7511Z" fill="#F67067"/>
<path d="M54.0396 35.7366C53.7315 36.7465 53.3427 37.73 52.8771 38.6776C52.2718 39.9075 51.5538 41.0788 50.7324 42.1763C50.5959 42.1275 50.457 42.0859 50.3162 42.0514C49.6215 41.9085 48.9043 41.916 48.2127 42.0734C47.5212 42.2309 46.8714 42.5346 46.3071 42.9642L40.5694 47.2869C39.2488 48.2801 38.6855 49.7201 39.0018 50.9437C36.4788 51.945 33.8236 52.574 31.1195 52.8109C31.1195 51.5013 30.2289 50.3777 28.7195 50.0225L22.2217 48.4938C21.402 48.328 20.5538 48.3706 19.7549 48.6178C18.956 48.8651 18.232 49.309 17.6493 49.9088C15.6996 48.7214 14.027 47.1301 12.744 45.2421C14.3698 44.4624 15.4325 42.9059 15.241 41.3911L14.4753 35.548C14.3171 34.3189 13.3655 33.431 12.0975 33.1314C11.6428 33.0282 11.1746 32.9973 10.7103 33.0398C11.0442 31.6803 11.5252 30.3611 12.1447 29.1056C12.666 28.0453 13.2728 27.0292 13.9592 26.0675C14.3473 26.3561 14.7915 26.5602 15.2632 26.6668C15.9579 26.811 16.6754 26.8042 17.3671 26.6467C18.0589 26.4892 18.7086 26.1847 19.2724 25.754L25.01 21.4341C26.7025 20.1578 27.1492 18.1519 26.0949 16.809C28.807 15.7404 31.6699 15.1038 34.5793 14.9224C33.9633 16.6342 34.8928 18.2989 36.7989 18.7456L43.2856 20.2882C44.199 20.4739 45.1462 20.3995 46.0193 20.0733C46.8924 19.7471 47.6564 19.1823 48.2243 18.4432C50.1283 19.7596 51.7142 21.4848 52.866 23.4928C51.1819 24.253 50.0721 25.8428 50.2746 27.3771L51.0348 33.2285C51.1957 34.4548 52.1446 35.3427 53.4126 35.6423C53.6189 35.6897 53.8285 35.7212 54.0396 35.7366ZM26.4972 46.6737C34.1492 48.4716 43.1275 44.3126 46.5124 37.4013C49.8973 30.4901 46.4264 23.3985 38.7743 21.6006C31.1222 19.8027 22.1412 23.9617 18.7563 30.8729C15.3714 37.7842 18.8451 44.8731 26.4972 46.6737ZM49.4728 38.7497C49.716 38.8007 49.9691 38.7717 50.1945 38.6673C50.42 38.5628 50.6057 38.3883 50.7241 38.1699C50.7762 38.0755 50.8048 37.9699 50.8075 37.8621C50.8102 37.7543 50.7869 37.6474 50.7395 37.5505C50.6922 37.4536 50.6222 37.3695 50.5354 37.3054C50.4487 37.2413 50.3478 37.199 50.2413 37.1822C49.9981 37.1322 49.7453 37.1615 49.5201 37.2659C49.2949 37.3703 49.1091 37.5442 48.99 37.762C48.9385 37.8565 48.9104 37.962 48.9081 38.0696C48.9057 38.1772 48.9291 38.2838 48.9764 38.3805C49.0237 38.4772 49.0934 38.5612 49.1797 38.6254C49.2661 38.6897 49.3666 38.7323 49.4728 38.7497ZM15.6794 30.8008C15.9226 30.8513 16.1755 30.8221 16.4009 30.7177C16.6262 30.6133 16.812 30.4391 16.9307 30.2209C16.9822 30.1266 17.0104 30.0213 17.0128 29.9139C17.0152 29.8064 16.9917 29.6999 16.9444 29.6034C16.8971 29.5069 16.8273 29.4232 16.7409 29.3592C16.6545 29.2953 16.554 29.253 16.4479 29.236C16.205 29.1853 15.9523 29.214 15.727 29.3179C15.5017 29.4219 15.3157 29.5954 15.1966 29.8131C15.1445 29.9075 15.1159 30.0131 15.1132 30.1209C15.1105 30.2287 15.1338 30.3356 15.1812 30.4325C15.2285 30.5294 15.2985 30.6134 15.3853 30.6776C15.472 30.7417 15.5729 30.7839 15.6794 30.8008ZM35.0232 49.9754C35.5448 49.8561 35.9221 49.4205 35.8555 48.9821C35.8344 48.8411 35.7694 48.7103 35.6698 48.6082C35.5703 48.5061 35.4411 48.4379 35.3006 48.4133C35.141 48.3759 34.9748 48.3759 34.8151 48.4133C34.2935 48.5326 33.9217 48.9682 33.9828 49.4066C34.0047 49.5473 34.0699 49.6777 34.1694 49.7796C34.2688 49.8815 34.3975 49.95 34.5377 49.9754C34.6964 50.0128 34.8617 50.0128 35.0204 49.9754H35.0232ZM18.5815 45.7886C19.0032 45.4724 19.0948 44.9563 18.7868 44.6456C18.6821 44.542 18.5504 44.4699 18.4067 44.4375C18.2432 44.404 18.0743 44.406 17.9116 44.4434C17.7489 44.4807 17.596 44.5525 17.4634 44.6539C17.0417 44.9729 16.9501 45.4862 17.2553 45.797C17.3607 45.9011 17.4935 45.9732 17.6382 46.0051C17.8018 46.0385 17.9706 46.0365 18.1333 45.9992C18.296 45.9618 18.4489 45.89 18.5815 45.7886ZM47.3087 22.1888C46.8842 22.5078 46.7898 23.0211 47.1006 23.3319C47.2057 23.4349 47.3372 23.5069 47.4807 23.54C47.6441 23.5732 47.8127 23.5714 47.9753 23.5346C48.138 23.4977 48.2909 23.4267 48.424 23.3263C48.8485 23.0072 48.9401 22.494 48.6293 22.1804C48.5251 22.0767 48.3931 22.0054 48.2492 21.9751C48.0863 21.9404 47.9178 21.9416 47.7554 21.9784C47.593 22.0153 47.4406 22.0871 47.3087 22.1888ZM30.8836 18.0076C30.3648 18.1241 29.9875 18.5625 30.0513 19.0009C30.0751 19.1394 30.1412 19.2671 30.2406 19.3665C30.34 19.4659 30.4677 19.532 30.6062 19.5558C30.7659 19.5932 30.932 19.5932 31.0917 19.5558C31.6106 19.4392 31.9879 19.0009 31.9241 18.5625C31.8981 18.425 31.8312 18.2984 31.7322 18.1995C31.6332 18.1005 31.5067 18.0336 31.3692 18.0076C31.2093 17.9718 31.0435 17.9718 30.8836 18.0076Z" fill="#FE3030"/>
<path d="M26.0921 16.8091C21.2256 18.7152 16.8835 21.953 13.9592 26.0676C14.3473 26.3561 14.7915 26.5603 15.2632 26.6669C15.9579 26.8111 16.6754 26.8042 17.3671 26.6467C18.0589 26.4892 18.7087 26.1848 19.2724 25.7541L25.01 21.4342C26.6997 20.1579 27.1464 18.1519 26.0921 16.8091Z" fill="#F67067"/>
<path d="M34.5765 14.9224C36.9041 14.7762 39.2405 14.9687 41.5128 15.4939C43.9169 16.0346 46.1952 17.0311 48.2243 18.4293C47.6581 19.1709 46.8948 19.7384 46.0216 20.0671C45.1484 20.3958 44.2004 20.4724 43.2857 20.2883L36.7878 18.7595C34.8901 18.2989 33.9606 16.6342 34.5765 14.9224Z" fill="#F67067"/>
<path d="M48.252 21.978C48.3959 22.0082 48.5279 22.0795 48.6321 22.1833C48.9429 22.4968 48.8513 23.0156 48.4268 23.3292C48.2937 23.4296 48.1407 23.5006 47.9781 23.5374C47.8155 23.5742 47.6469 23.5761 47.4835 23.5428C47.34 23.5098 47.2085 23.4378 47.1034 23.3347C46.7926 23.0212 46.8869 22.5024 47.3114 22.1916C47.4434 22.0899 47.5958 22.0182 47.7582 21.9813C47.9206 21.9444 48.0891 21.9433 48.252 21.978Z" fill="#FFFCED"/>
<path d="M53.8315 26.7361C53.4024 25.704 52.9705 24.6728 52.5358 23.6426C52.644 23.5843 52.7522 23.5288 52.866 23.4789L54.1589 26.5724C54.0479 26.6224 53.9369 26.6696 53.8315 26.7361Z" fill="#FE3030"/>
<path d="M53.8315 26.7361C52.3361 27.5435 51.3816 29.0251 51.5675 30.4678L50.2746 27.3743C50.086 25.9315 51.0404 24.4527 52.5358 23.6426C52.8494 24.3834 52.8493 24.3834 53.8315 26.7361Z" fill="#FE3030"/>
<path d="M12.6802 45.8137L11.3873 42.7201C11.7577 43.6014 12.2121 44.445 12.744 45.2393L14.0369 48.3329C13.5055 47.5383 13.0512 46.6947 12.6802 45.8137Z" fill="#F67067"/>
<path d="M18.3984 44.4403C18.5421 44.4728 18.6738 44.5449 18.7785 44.6484C19.0865 44.9619 18.9949 45.4807 18.5732 45.7915C18.4406 45.8929 18.2878 45.9646 18.125 46.002C17.9623 46.0393 17.7935 46.0413 17.6299 46.0079C17.4852 45.976 17.3525 45.9039 17.247 45.7998C16.9418 45.4863 17.0334 44.9674 17.4551 44.6567C17.5877 44.5553 17.7406 44.4835 17.9033 44.4462C18.066 44.4089 18.2349 44.4069 18.3984 44.4403Z" fill="#FFFCED"/>
<path d="M17.6493 49.9088L18.9533 53.0023C17.0037 51.815 15.331 50.2237 14.048 48.3356L12.7551 45.2421C14.0349 47.1289 15.7037 48.7201 17.6493 49.9088Z" fill="#F50000"/>
<path d="M22.2217 48.4938L23.5174 51.5874C22.6973 51.4211 21.8485 51.4635 21.0491 51.7107C20.2497 51.958 19.5252 52.4021 18.9422 53.0024L17.6493 49.9088C18.232 49.309 18.956 48.8651 19.7549 48.6179C20.5538 48.3707 21.402 48.328 22.2217 48.4938Z" fill="#FE3030"/>
<path d="M53.6345 25.0576L54.9274 28.1512C56.2703 31.3613 56.4701 35.0569 55.327 38.8302L54.034 35.7367C55.1827 31.9633 54.9829 28.2677 53.6345 25.0576Z" fill="#FB4242"/>
<path d="M52.866 23.4789C54.8775 27.0247 55.3631 31.3279 54.0396 35.7366C53.8285 35.7202 53.6188 35.6878 53.4126 35.6395C52.1391 35.3399 51.193 34.452 51.0349 33.2257L50.2746 27.3743C50.0721 25.8372 51.1819 24.2391 52.866 23.4789Z" fill="#F67067"/>
<path d="M50.2274 37.1822C50.334 37.1991 50.4349 37.2414 50.5216 37.3055C50.6083 37.3696 50.6783 37.4536 50.7257 37.5505C50.773 37.6474 50.7963 37.7543 50.7936 37.8621C50.791 37.9699 50.7623 38.0755 50.7102 38.1699C50.5918 38.3884 50.4061 38.5628 50.1807 38.6673C49.9552 38.7718 49.7021 38.8007 49.4589 38.7498C49.3527 38.7324 49.2522 38.6897 49.1659 38.6255C49.0795 38.5613 49.0098 38.4773 48.9625 38.3806C48.9153 38.2839 48.8918 38.1773 48.8942 38.0697C48.8966 37.9621 48.9247 37.8566 48.9761 37.7621C49.0952 37.5442 49.281 37.3703 49.5062 37.2659C49.7315 37.1616 49.9843 37.1322 50.2274 37.1822Z" fill="#FFFCED"/>
<path d="M28.7196 50.0197L30.0152 53.1133L23.5174 51.5845L22.2217 48.491L28.7196 50.0197Z" fill="#FE3030"/>
<path d="M54.0396 35.7367L55.3325 38.8303C55.0261 39.8407 54.6373 40.8243 54.17 41.7712C53.5662 42.9985 52.8482 44.1662 52.0253 45.2588L50.7324 42.1652C51.5538 41.0677 52.2718 39.8965 52.8771 38.6666C53.3422 37.7225 53.7309 36.7428 54.0396 35.7367Z" fill="#F50000"/>
<path d="M51.6091 45.1478C50.9149 45.0036 50.1979 45.0105 49.5066 45.168C48.8153 45.3255 48.166 45.6299 47.6028 46.0606L46.3071 42.9642C46.8701 42.5362 47.518 42.2333 48.2075 42.0759C48.897 41.9185 49.6121 41.9101 50.3051 42.0514C50.4459 42.0859 50.5848 42.1276 50.7213 42.1763C51.1504 43.2084 51.5814 44.2396 52.0142 45.2698C51.8819 45.2205 51.7466 45.1797 51.6091 45.1478Z" fill="#FE3030"/>
<path d="M46.3071 42.9642L47.6028 46.0578L41.8624 50.3805L40.5695 47.2841L46.3071 42.9642Z" fill="#FE3030"/>
<path d="M35.3062 48.4161C35.4467 48.4407 35.5759 48.5089 35.6754 48.6109C35.775 48.713 35.84 48.8438 35.8611 48.9849C35.9194 49.4121 35.5421 49.8588 35.0288 49.9781C34.87 50.0156 34.7048 50.0156 34.546 49.9781C34.4059 49.9527 34.2772 49.8843 34.1777 49.7824C34.0783 49.6804 34.0131 49.5501 33.9911 49.4094C33.9384 48.9793 34.3102 48.5354 34.8235 48.4161C34.9823 48.379 35.1474 48.379 35.3062 48.4161Z" fill="#FFFCED"/>
<path d="M28.7195 50.0226C30.2289 50.3777 31.125 51.5014 31.1195 52.8109C28.5698 53.038 26.0003 52.8601 23.5063 52.2838C21.4386 51.8133 19.4607 51.0113 17.6493 49.9088C18.232 49.309 18.956 48.8651 19.7549 48.6179C20.5538 48.3707 21.402 48.328 22.2217 48.4938L28.7195 50.0226Z" fill="#F67067"/>
<path d="M31.1195 52.8109L32.4152 55.9045C29.8647 56.131 27.2945 55.954 24.7992 55.3801C22.7356 54.9064 20.7617 54.1035 18.9533 53.0024L17.6604 49.9088C19.4718 51.0113 21.4497 51.8133 23.5174 52.2838C26.0078 52.8589 28.5735 53.0368 31.1195 52.8109Z" fill="#FB4242"/>
<path d="M41.8623 50.3804C41.4152 50.6931 41.0384 51.0957 40.756 51.5625C40.4736 52.0293 40.292 52.55 40.2226 53.0911L38.9297 49.9948C39.0007 49.4542 39.1834 48.9343 39.4662 48.4681C39.749 48.0019 40.1256 47.5997 40.5722 47.2869L41.8623 50.3804Z" fill="#FE3030"/>
<path d="M40.2226 53.0911C40.193 53.4084 40.2184 53.7285 40.2975 54.0372L39.0018 50.9436C38.9239 50.6338 38.8985 50.313 38.9269 49.9948L39.0795 50.3582L39.2404 50.7411L39.4069 51.1378L39.5761 51.5429L39.6594 51.7455L39.7454 51.948L39.9119 52.3447L39.9923 52.539L40.1477 52.9135C40.1795 52.9696 40.2046 53.0292 40.2226 53.0911Z" fill="#FE3030"/>
<path d="M39.0019 50.9437L40.2975 54.0373C37.7744 55.0382 35.1192 55.6672 32.4152 55.9045L31.1195 52.811C33.8236 52.5741 36.4789 51.9451 39.0019 50.9437Z" fill="#F50000"/>
<path d="M46.3071 42.9642C46.8701 42.5362 47.518 42.2333 48.2075 42.0759C48.897 41.9185 49.6122 41.9101 50.3052 42.0514C50.4459 42.0859 50.5848 42.1276 50.7213 42.1763C47.8164 46.0606 43.6464 49.1125 38.9908 50.9437C38.6745 49.7201 39.2377 48.2802 40.5583 47.2869L46.3071 42.9642Z" fill="#F67067"/>
<path d="M50.7324 42.1763L52.0253 45.2587C49.1232 49.143 44.9531 52.195 40.2975 54.0262L39.0018 50.9326C43.6463 49.107 47.8275 46.0633 50.7324 42.1763Z" fill="#FB4242"/>
<path d="M5.79779 22.3583C6.13802 22.2179 6.43464 21.9893 6.65701 21.696L4.81057 24.158C4.58855 24.4516 4.29183 24.6803 3.95135 24.8202L5.79779 22.3583Z" fill="#FE3030"/>
<path d="M8.55762 29.2368L10.4016 26.7749C11.0171 25.9379 12.2628 25.6523 13.543 26.152L11.6966 28.614C10.4164 28.1142 9.17309 28.4022 8.55762 29.2368Z" fill="#F66767"/>
<path d="M9.61619 23.5597C9.723 23.6082 9.84077 23.6277 9.95752 23.616C10.0743 23.6043 10.1858 23.5619 10.2809 23.4932L8.43448 25.9551C8.33966 26.0235 8.22838 26.0654 8.11201 26.0767C7.99565 26.0879 7.87838 26.0681 7.77222 26.0191L9.61619 23.5572L7.77222 26.0191C7.64913 25.9717 7.53752 25.8987 7.44479 25.8049C7.32482 25.7062 7.24404 25.5679 7.21696 25.4149C7.18988 25.2619 7.21829 25.1042 7.29708 24.9703L9.14105 22.5084C9.06253 22.6426 9.03452 22.8004 9.06205 22.9534C9.08959 23.1065 9.17085 23.2446 9.29122 23.343C9.38342 23.4369 9.49407 23.5107 9.61619 23.5597Z" fill="#FE3030"/>
<path d="M10.2809 23.5007C10.3093 23.4782 10.3342 23.4516 10.3548 23.4219L8.51083 25.8838C8.48796 25.9124 8.46241 25.9388 8.43451 25.9626C8.98844 25.2314 9.64577 24.1728 10.2809 23.5007Z" fill="#FE3030"/>
<path d="M7.29712 24.9876L9.14109 22.5257C9.16395 22.4971 9.18951 22.4707 9.21741 22.4469C9.31223 22.3785 9.42351 22.3366 9.53987 22.3253C9.65623 22.3141 9.7735 22.334 9.87966 22.3829L8.03323 24.8448C7.92698 24.7957 7.8095 24.776 7.69303 24.7876C7.57656 24.7993 7.46534 24.842 7.37097 24.9113C7.3434 24.9337 7.31861 24.9593 7.29712 24.9876Z" fill="#FFFCED"/>
<path d="M10.3548 23.4218L8.51081 25.8838C8.58911 25.7497 8.61724 25.5922 8.59018 25.4393C8.56313 25.2865 8.48265 25.1482 8.36311 25.0492C8.26915 24.9551 8.15685 24.8814 8.0332 24.8325L9.87964 22.3706C10.0027 22.418 10.1143 22.491 10.2071 22.5848C10.3281 22.6833 10.4096 22.8221 10.4367 22.9758C10.4638 23.1295 10.4348 23.2878 10.3548 23.4218Z" fill="#FFFCED"/>
<path d="M8.03319 24.8423C8.15684 24.8912 8.26914 24.9649 8.36309 25.059C8.65606 25.3519 8.68806 25.7606 8.43448 25.9723C8.33966 26.0407 8.22838 26.0827 8.11202 26.0939C7.99566 26.1052 7.87839 26.0853 7.77223 26.0363C7.64914 25.9889 7.53752 25.9159 7.44479 25.8221C7.15182 25.5292 7.11982 25.118 7.37094 24.9088C7.46531 24.8395 7.57652 24.7968 7.69299 24.7851C7.80947 24.7734 7.92694 24.7932 8.03319 24.8423Z" fill="#FFFCED"/>
<path d="M6.65704 21.6961L4.81061 24.158C5.03235 23.8409 5.17107 23.4734 5.21408 23.0889C5.25709 22.7044 5.20301 22.3152 5.0568 21.957L6.90323 19.4951C7.049 19.8534 7.10283 20.2425 7.05983 20.6269C7.01684 21.0113 6.87837 21.3788 6.65704 21.6961Z" fill="#F66767"/>
<path d="M11.6965 28.6139L13.543 26.1447L18.7154 28.1659L16.869 30.6376L11.6965 28.6139Z" fill="#F66767"/>
<path d="M16.869 30.6377L18.7155 28.1758C19.2815 28.3898 19.7892 28.7339 20.1976 29.1804C20.606 29.6269 20.9037 30.1632 21.0666 30.746L19.2226 33.2079C19.0584 32.6254 18.76 32.0895 18.3513 31.6431C17.9425 31.1967 17.4349 30.8524 16.869 30.6377Z" fill="#F66767"/>
<path d="M16.869 30.6377C17.4349 30.8524 17.9425 31.1968 18.3513 31.6431C18.76 32.0895 19.0584 32.6254 19.2226 33.208C17.2302 33.0643 15.2715 32.616 13.415 31.8785C11.6924 31.2031 10.0608 30.3157 8.55762 29.2369C9.17309 28.4023 10.4164 28.1143 11.6966 28.6165L16.869 30.6377Z" fill="#F66767"/>
<path d="M3.31372 17.0799L5.16015 14.6082L6.8958 19.495L5.04936 21.9643L3.31372 17.0799Z" fill="#F66767"/>
<path d="M7.40544 11.2723C6.24834 16.5555 10.2711 22.7965 16.3742 25.1821L14.5277 27.644C8.42467 25.2584 4.40191 19.0273 5.56147 13.7342C5.78793 12.6713 6.2405 11.6696 6.88845 10.7971L8.73241 8.33521C8.08547 9.20825 7.633 10.2097 7.40544 11.2723Z" fill="#FE3030"/>
<path d="M7.28232 11.1L9.12629 8.63806C8.50621 9.47394 8.07146 10.4324 7.85102 11.4496C6.73824 16.5186 10.601 22.506 16.4677 24.7956L14.6237 27.2575C8.76686 24.9655 4.90658 18.9805 6.00706 13.909C6.22615 12.8922 6.66104 11.9342 7.28232 11.1Z" fill="#C62525"/>
<path d="M11.566 21.083C12.4425 21.9912 13.436 22.7785 14.5203 23.4243L12.6763 25.8862C11.5917 25.2457 10.5973 24.4632 9.7196 23.5597L11.566 21.083Z" fill="#FE3030"/>
<path d="M15.6208 24.0029C15.0087 24.8235 14.394 25.6442 13.7769 26.4648C13.4027 26.2875 13.04 26.0939 12.6887 25.8838L14.5327 23.4219C14.8847 23.6311 15.2491 23.8256 15.6208 24.0029Z" fill="#FE3030"/>
<path d="M11.5661 21.0831L11.0072 21.8216L10.3129 22.7596L10.1357 23.0058L9.88949 23.3505C9.82623 23.413 9.77233 23.4843 9.72946 23.5622C9.60144 23.4293 9.48326 23.2938 9.35278 23.1584L11.1992 20.6965C11.3125 20.8213 11.4348 20.9501 11.5661 21.0831Z" fill="#FE3030"/>
<path d="M10.8669 20.3051C10.9727 20.4306 11.0786 20.5512 11.1894 20.6768L9.34293 23.1387C9.23461 23.0156 9.12629 22.8925 9.02289 22.7645L10.8669 20.3051Z" fill="#FE3030"/>
<path d="M15.6208 24.0028C15.9236 24.1481 16.2314 24.281 16.544 24.4041L14.7001 26.866C14.3849 26.7429 14.0772 26.6075 13.7769 26.4647C14.3923 25.6474 15.007 24.8267 15.6208 24.0028Z" fill="#FE3030"/>
<path d="M16.3741 25.1821C17.1097 25.4732 17.8692 25.6997 18.644 25.8592L16.7976 28.3211C16.0234 28.159 15.2642 27.9325 14.5277 27.644L16.3741 25.1821Z" fill="#FE3030"/>
<path d="M23.4251 28.8774C23.4981 28.8728 23.5693 28.8526 23.6338 28.8182C23.6983 28.7838 23.7548 28.736 23.7993 28.678L21.9553 31.1399C21.9105 31.1974 21.8539 31.2446 21.7894 31.2786C21.7249 31.3125 21.6539 31.3324 21.5811 31.3368L23.4251 28.8774Z" fill="#FE3030"/>
<path d="M23.0632 28.8232C23.178 28.8689 23.3019 28.8874 23.4251 28.8774L21.5811 31.3393C21.4579 31.3507 21.3337 31.3321 21.2192 31.2851C21.098 31.2386 20.9879 31.1673 20.8959 31.0757C20.8039 30.9841 20.732 30.8743 20.685 30.7533L22.5314 28.2914L20.685 30.7533C20.6509 30.6691 20.6384 30.5776 20.6487 30.4873C20.659 30.397 20.6918 30.3107 20.7441 30.2363L22.588 27.7744C22.5362 27.8495 22.5039 27.9363 22.494 28.027C22.4841 28.1177 22.497 28.2094 22.5314 28.2939C22.5787 28.414 22.6504 28.5231 22.7419 28.6142C22.8334 28.7053 22.9428 28.7764 23.0632 28.8232Z" fill="#FE3030"/>
<path d="M20.7416 30.2438L22.588 27.7819C22.6332 27.7245 22.6898 27.6772 22.7542 27.6429C22.8186 27.6085 22.8894 27.588 22.9622 27.5825C23.0854 27.5736 23.209 27.5921 23.3241 27.6366L21.4777 30.0985C21.364 30.0517 21.2407 30.0331 21.1183 30.0444C21.045 30.0496 20.9737 30.07 20.9088 30.1043C20.844 30.1386 20.787 30.1862 20.7416 30.2438Z" fill="#FFFCED"/>
<path d="M23.7993 28.6779L21.9553 31.1399C22.0068 31.0646 22.0389 30.9778 22.0488 30.8872C22.0586 30.7966 22.046 30.705 22.012 30.6204C21.9649 30.4994 21.8931 30.3896 21.8011 30.298C21.7091 30.2064 21.5989 30.1351 21.4777 30.0886L23.3242 27.6267C23.4449 27.6741 23.5545 27.7461 23.6461 27.8381C23.7376 27.93 23.8091 28.04 23.8559 28.1609C23.8911 28.2449 23.9043 28.3363 23.8944 28.4268C23.8845 28.5172 23.8518 28.6036 23.7993 28.6779Z" fill="#FFFCED"/>
<path d="M21.4777 30.0985C21.5989 30.145 21.709 30.2163 21.8011 30.3079C21.8931 30.3995 21.9649 30.5093 22.0119 30.6303C22.046 30.7052 22.0614 30.7872 22.0567 30.8694C22.052 30.9515 22.0274 31.0313 21.985 31.1018C21.9426 31.1723 21.8836 31.2315 21.8133 31.2741C21.7429 31.3168 21.6632 31.3417 21.5811 31.3467C21.4578 31.3581 21.3337 31.3396 21.2192 31.2925C21.098 31.246 20.9878 31.1747 20.8958 31.0831C20.8038 30.9916 20.732 30.8817 20.6849 30.7607C20.6508 30.6857 20.6355 30.6034 20.6403 30.5211C20.6451 30.4387 20.6699 30.3588 20.7126 30.2882C20.7553 30.2177 20.8145 30.1586 20.8852 30.1161C20.9559 30.0736 21.0359 30.0489 21.1182 30.0443C21.2407 30.0331 21.364 30.0517 21.4777 30.0985Z" fill="#FFFCED"/>
<path d="M3.31374 17.0799L5.03707 21.9668C5.4876 23.2322 5.0026 24.3844 3.93906 24.83C1.51654 21.7231 0.0689335 18.1041 0 14.5786C0.361034 14.6058 0.715667 14.6889 1.05124 14.8248C1.56494 15.0218 2.03167 15.3243 2.42135 15.7127C2.81103 16.1011 3.11502 16.5669 3.31374 17.0799Z" fill="#F66767"/>
<path d="M0 14.5786L1.84397 12.1167C2.20576 12.1442 2.56117 12.2272 2.89767 12.3629C3.41209 12.5607 3.87926 12.8643 4.26899 13.2541C4.65871 13.6438 4.96232 14.111 5.16017 14.6254L3.31374 17.0873C3.11589 16.5729 2.81228 16.1057 2.42256 15.716C2.03283 15.3263 1.56566 15.0227 1.05124 14.8248C0.715667 14.6889 0.361034 14.6058 0 14.5786Z" fill="#F66767"/>
<path d="M10.2957 20.6448L12.1421 18.1829C12.1123 18.288 12.125 18.4006 12.1775 18.4964C12.2301 18.5922 12.3182 18.6635 12.4228 18.6949L10.5764 21.1568C10.4717 21.1254 10.3836 21.0541 10.3311 20.9583C10.2786 20.8625 10.2659 20.7499 10.2957 20.6448Z" fill="#FFFCED"/>
<path d="M10.5764 21.1568L12.4228 18.6851L14.6557 19.559L12.8118 22.0308L10.5764 21.1568Z" fill="#FFFCED"/>
<path d="M14.6558 19.5591C14.7201 19.5911 14.7932 19.6012 14.8639 19.5879C14.9346 19.5746 14.9989 19.5385 15.0472 19.4852L13.2032 21.9471C13.1543 22.0003 13.0895 22.0362 13.0186 22.0495C12.9476 22.0628 12.8742 22.0528 12.8093 22.021L14.6558 19.5591Z" fill="#FFFCED"/>
<path d="M15.0472 19.4852L13.2032 21.9471C13.2124 21.9329 13.2206 21.9181 13.2279 21.9028L15.0743 19.4409C15.0662 19.4562 15.0571 19.471 15.0472 19.4852Z" fill="#FE3030"/>
<path d="M26.7216 27.6613C26.2292 28.326 26.1898 29.259 26.596 30.1404L24.7521 32.6023C24.3458 31.7234 24.3779 30.7903 24.8752 30.1256L26.7216 27.6613Z" fill="#FE3030"/>
<path d="M18.3338 20.9452C18.3857 20.9998 18.4486 21.0426 18.5185 21.0707L16.672 23.5327C16.6032 23.5051 16.5411 23.4631 16.4899 23.4096C17.1037 22.5906 17.7184 21.7691 18.3338 20.9452Z" fill="#FFFCED"/>
<path d="M24.8751 30.1329L26.7191 27.671C26.8127 27.5469 26.9201 27.4338 27.0391 27.3337L25.1952 29.7957C25.0749 29.8944 24.9674 30.0077 24.8751 30.1329Z" fill="#F66767"/>
<path d="M18.3338 20.9452C17.7184 21.7658 17.1037 22.5865 16.4899 23.4071C16.4299 23.3475 16.3896 23.2711 16.3741 23.188L18.2181 20.7261C18.2357 20.8084 18.2758 20.8842 18.3338 20.9452Z" fill="#FFFCED"/>
<path d="M2.70074 12.4638C2.7248 12.4269 2.75112 12.3916 2.77953 12.3579L2.94447 12.1388L3.11681 11.9099L3.20297 11.7917L3.38268 11.5455L4.10157 10.5804L2.70074 12.4564V12.4638Z" fill="#FE3030"/>
<path d="M16.6745 23.54L18.5185 21.0682L20.7268 21.9324L18.8804 24.4041L16.6745 23.54Z" fill="#FFFCED"/>
<path d="M5.10602 10.8612C5.22758 10.9224 5.36602 10.9416 5.49966 10.9157C5.6333 10.8899 5.7546 10.8205 5.84459 10.7184L3.99816 13.1803C3.90799 13.2821 3.78687 13.3515 3.65342 13.3777C3.51997 13.404 3.38159 13.3856 3.25958 13.3255L5.10602 10.8612Z" fill="#FE3030"/>
<path d="M5.10601 10.8612L4.30344 11.9346L3.70518 12.7273L3.36545 13.1803L3.25958 13.3231C3.08187 13.2628 2.92987 13.144 2.82837 12.9862C2.72687 12.8283 2.68187 12.6407 2.70074 12.454L4.54717 9.99212L2.70074 12.454C2.71484 12.3879 2.74342 12.3256 2.78443 12.2718L4.63087 9.80994C4.58937 9.86437 4.56076 9.9275 4.54717 9.99458C4.52798 10.181 4.57287 10.3685 4.67446 10.526C4.77604 10.6835 4.92825 10.8017 5.10601 10.8612Z" fill="#FE3030"/>
<path d="M18.6711 20.694L20.5176 18.2223L21.1626 21.6394L19.3186 24.1112L18.6711 20.694Z" fill="#FE3030"/>
<path d="M20.7268 21.9324C20.7914 21.9654 20.8651 21.9761 20.9364 21.9628C21.0077 21.9494 21.0725 21.9127 21.1207 21.8585L19.2743 24.3204C19.2261 24.3747 19.1615 24.4116 19.0903 24.4254C19.0191 24.4392 18.9453 24.4291 18.8804 24.3967L20.7268 21.9324Z" fill="#FFFCED"/>
<path d="M21.1207 21.8585L19.2743 24.3204C19.2964 24.2894 19.3117 24.2541 19.3193 24.2168C19.327 24.1795 19.3267 24.141 19.3186 24.1038L21.1626 21.6418C21.1709 21.6789 21.1715 21.7173 21.1643 21.7545C21.1571 21.7918 21.1422 21.8272 21.1207 21.8585Z" fill="#FE3030"/>
<path d="M2.78442 12.2817L4.62839 9.81981C4.71887 9.7184 4.84014 9.6495 4.97358 9.62371C5.10701 9.59791 5.24521 9.61664 5.36696 9.67702L3.523 12.1389C3.40115 12.079 3.26306 12.0605 3.12973 12.0862C2.9964 12.112 2.87513 12.1807 2.78442 12.2817Z" fill="#FFFCED"/>
<path d="M3.52301 12.1365C3.70056 12.196 3.8525 12.3143 3.95367 12.4719C4.05485 12.6294 4.0992 12.8168 4.0794 13.0031C4.008 13.3329 3.64118 13.4807 3.25958 13.333C3.08187 13.2726 2.92987 13.1539 2.82837 12.996C2.72687 12.8382 2.68187 12.6506 2.70074 12.4639C2.77459 12.134 3.14141 11.9887 3.52301 12.1365Z" fill="#FFFCED"/>
<path d="M5.84214 10.7183L3.99571 13.1803C4.0372 13.1258 4.06581 13.0627 4.0794 12.9956C4.0992 12.8094 4.05485 12.622 3.95368 12.4644C3.85251 12.3069 3.70057 12.1885 3.52301 12.129L5.36698 9.66711C5.54449 9.72694 5.69644 9.84525 5.79796 10.0027C5.89948 10.1601 5.94457 10.3473 5.92584 10.5337C5.91015 10.6001 5.88173 10.6628 5.84214 10.7183Z" fill="#FFFCED"/>
<path d="M14.38 19.4285L16.2265 16.9568L15.0743 19.4409L13.2278 21.9101L14.38 19.4285Z" fill="#FE3030"/>
<path d="M14.4071 19.3867L16.2511 16.9248C16.2419 16.939 16.2337 16.9538 16.2264 16.9691L14.38 19.431C14.387 19.4151 14.3961 19.4002 14.4071 19.3867Z" fill="#FE3030"/>
<path d="M14.4071 19.3868L16.2511 16.9249C16.3 16.8717 16.3648 16.8358 16.4358 16.8225C16.5068 16.8092 16.5801 16.8192 16.645 16.851L14.801 19.3129C14.7365 19.2794 14.6627 19.2685 14.5913 19.2819C14.5199 19.2953 14.4551 19.3322 14.4071 19.3868Z" fill="#FFFCED"/>
<path d="M15.7981 19.926L17.6445 17.4567L18.2182 20.7261L16.3742 23.1978L15.7981 19.926Z" fill="#FFFCED"/>
<path d="M14.801 19.3105L16.645 16.8412L17.3442 17.112L15.4977 19.5838L14.801 19.3105Z" fill="#FFFCED"/>
<path d="M17.386 17.1316L15.5396 19.5935L15.4977 19.5738L17.3442 17.1119L17.386 17.1316Z" fill="#FFFCED"/>
<path d="M17.386 17.1316C17.4478 17.165 17.5018 17.2113 17.5443 17.2674C17.5868 17.3235 17.6167 17.388 17.6322 17.4566L15.7857 19.9185C15.7721 19.8492 15.7428 19.7839 15.7001 19.7276C15.6575 19.6713 15.6026 19.6254 15.5396 19.5935L17.386 17.1316Z" fill="#FFFCED"/>
<path d="M18.7154 20.475L20.5619 18.0131C20.5389 18.0441 20.523 18.0798 20.5153 18.1177C20.5077 18.1555 20.5084 18.1946 20.5176 18.2322L18.6711 20.6941C18.6628 20.6565 18.6624 20.6176 18.6701 20.5798C18.6777 20.5421 18.6932 20.5064 18.7154 20.475Z" fill="#FE3030"/>
<path d="M20.5619 18.0057C20.5908 17.9682 20.6282 17.9382 20.671 17.9181C20.7138 17.8979 20.7608 17.8883 20.8081 17.89L18.9641 20.3519C18.917 20.3514 18.8704 20.3615 18.8277 20.3815C18.7851 20.4016 18.7476 20.431 18.7179 20.4676L20.5619 18.0057Z" fill="#FFFCED"/>
<path d="M1.0365 9.24609L2.88047 6.78418C3.2099 7.05675 3.58052 7.2753 3.97848 7.43166C4.99033 7.82803 6.07602 7.7591 6.79736 7.15839L4.95093 9.6203C4.22959 10.221 3.14636 10.2899 2.13205 9.89603C1.7347 9.73887 1.36489 9.51948 1.0365 9.24609Z" fill="#FE3030"/>
<path d="M10.8669 20.3051L9.0229 22.767C6.87858 20.1869 5.82241 16.9864 6.46004 14.0887C6.66851 13.1137 7.08318 12.1945 7.67623 11.3929C8.29006 10.5723 8.90473 9.75167 9.52021 8.93103C8.92632 9.73637 8.51239 10.6599 8.30648 11.6391C7.6713 14.522 8.72501 17.725 10.8669 20.3051Z" fill="#FE3030"/>
<path d="M18.644 25.8591C22.6151 26.6765 26.2513 25.5021 28.2184 22.8704L26.3744 25.3323C24.4049 27.9641 20.7711 29.1359 16.7976 28.321L18.644 25.8591Z" fill="#FE3030"/>
<path d="M27.8245 22.575L25.9781 25.0369C23.7377 28.0404 19.2324 29.0645 14.6139 27.2526L16.4677 24.7907C21.0789 26.6026 25.5768 25.576 27.8245 22.575Z" fill="#C62525"/>
<path d="M16.544 24.4041C20.9755 26.1274 25.2764 25.1575 27.4232 22.2869L25.5768 24.7488C23.43 27.6218 19.1266 28.5992 14.7001 26.8685L16.544 24.4041Z" fill="#FE3030"/>
<path d="M9.52019 8.92857C8.90718 9.75331 8.28922 10.5756 7.67621 11.3905V11.3782L9.52264 8.91626L9.52019 8.92857Z" fill="#FE3030"/>
<path d="M25.1952 29.7932L27.0416 27.3239L30.476 24.4583L28.6295 26.93L25.1952 29.7932Z" fill="#F66767"/>
<path d="M15.5593 16.8534L17.4032 14.3915C17.374 14.4969 17.3869 14.6096 17.4393 14.7056C17.4917 14.8017 17.5794 14.8735 17.6839 14.906L15.8375 17.3679C15.7327 17.336 15.6448 17.2641 15.5927 17.1678C15.5406 17.0715 15.5286 16.9585 15.5593 16.8534Z" fill="#FE3030"/>
<path d="M15.84 17.3656L17.6839 14.8938L18.9592 15.3936L17.1152 17.8629L15.84 17.3656Z" fill="#FE3030"/>
<path d="M9.12628 8.63064C9.23788 8.48293 9.3536 8.34014 9.47342 8.20227L7.62943 10.6642C7.50634 10.802 7.38325 10.9473 7.27985 11.095L9.12628 8.63064Z" fill="#FE3030"/>
<path d="M17.1152 17.8652L18.9591 15.4033L19.0035 15.4206C19.3046 15.556 19.6458 15.5727 19.9587 15.4673L18.1122 17.9292C17.7992 18.0334 17.4584 18.0167 17.157 17.8825L17.1152 17.8652Z" fill="#FE3030"/>
<path d="M28.4818 21.5089C28.2945 21.8829 28.0745 22.2396 27.8245 22.5749L25.9781 25.0368C26.2291 24.7022 26.4491 24.3454 26.6354 23.9708L28.4818 21.5089Z" fill="#FE3030"/>
<path d="M20.5004 15.0735L18.6564 17.5354C18.5198 17.7178 18.3295 17.8529 18.1123 17.9219L19.9587 15.46C20.1755 15.3915 20.3651 15.2562 20.5004 15.0735Z" fill="#FE3030"/>
<path d="M20.6357 14.842C20.5995 14.924 20.5541 15.0017 20.5003 15.0735L18.6564 17.5354C18.7098 17.4634 18.7552 17.3858 18.7918 17.304L20.6357 14.842Z" fill="#FFFCED"/>
<path d="M20.6357 14.842L18.7917 17.304L20.6357 14.842Z" fill="#FFFCED"/>
<path d="M16.2437 15.3763L18.0901 12.9045L17.4032 14.3817L15.5593 16.851L16.2437 15.3763Z" fill="#FE3030"/>
<path d="M16.2683 15.3345L18.1148 12.8726C18.1051 12.8847 18.0969 12.898 18.0901 12.912L16.2437 15.3739L16.2683 15.3345Z" fill="#FE3030"/>
<path d="M22.3615 17.4492C22.7176 17.2562 23.0276 16.9883 23.27 16.6638L21.4235 19.1257C21.1818 19.4515 20.8718 19.7204 20.5151 19.9135L20.7317 19.6255C21.2734 18.8968 21.8158 18.1697 22.3591 17.4442L20.5151 19.9062C20.0348 20.171 19.4997 20.321 18.9518 20.3444L20.7958 17.8825C21.3441 17.8606 21.8799 17.7123 22.3615 17.4492Z" fill="#FFFCED"/>
<path d="M28.6296 26.93C29.3509 26.3293 30.4366 26.2604 31.4485 26.6568C31.5617 26.7011 31.675 26.7503 31.7857 26.8069C30.3874 29.6504 27.8713 31.6544 24.7521 32.6097C24.2597 31.5707 24.405 30.4555 25.1952 29.7957L28.6296 26.93Z" fill="#F66767"/>
<path d="M28.6296 26.93L30.476 24.4681C31.1974 23.8674 32.2806 23.7985 33.2949 24.1949C33.4081 24.2392 33.5189 24.2884 33.6297 24.345L31.7857 26.8069C31.6749 26.7503 31.5617 26.7011 31.4485 26.6568C30.4366 26.2678 29.3509 26.3293 28.6296 26.93Z" fill="#F66767"/>
<path d="M32.5932 26.0339L30.7468 28.4958C31.1442 27.9634 31.492 27.3956 31.7857 26.7996L33.6297 24.3376C33.3373 24.9339 32.9903 25.5017 32.5932 26.0339Z" fill="#F66767"/>
<path d="M16.2683 15.3345L18.1147 12.8725C18.1629 12.8183 18.2275 12.7814 18.2988 12.7676C18.37 12.7538 18.4437 12.7639 18.5086 12.7962L16.6647 15.2581C16.5993 15.226 16.5252 15.2161 16.4537 15.2298C16.3822 15.2436 16.3171 15.2803 16.2683 15.3345Z" fill="#FFFCED"/>
<path d="M20.616 13.9583C20.6913 14.0941 20.7325 14.2462 20.7359 14.4014C20.7393 14.5567 20.7049 14.7104 20.6357 14.8495L18.7918 17.3114C18.86 17.1724 18.8936 17.019 18.8897 16.8643C18.8859 16.7095 18.8447 16.558 18.7696 16.4226L20.616 13.9583Z" fill="#FFFCED"/>
<path d="M16.6647 15.2581L18.5086 12.7888L19.7987 13.291L17.9547 15.7628L16.6647 15.2581Z" fill="#FFFCED"/>
<path d="M17.9449 15.7653L19.7889 13.3033C20.1339 13.4126 20.4255 13.6471 20.6062 13.9607L18.7598 16.4226C18.58 16.1092 18.2892 15.8746 17.9449 15.7653Z" fill="#FFFCED"/>
<path d="M14.2791 12.0551L16.1255 9.58337L12.1421 18.173L10.2957 20.6447L14.2791 12.0551Z" fill="#FFFCED"/>
<path d="M14.3062 12.0133L16.1501 9.55142C16.199 9.49737 16.2642 9.46086 16.3358 9.44752C16.4074 9.43417 16.4815 9.44473 16.5465 9.47756L14.7001 11.9395C14.6354 11.9068 14.5618 11.8964 14.4906 11.9097C14.4194 11.9231 14.3546 11.9595 14.3062 12.0133Z" fill="#FE3030"/>
<path d="M21.5368 15.7555C22.1055 16.7402 22.1744 17.6856 21.746 18.5916C21.4923 19.1575 21.0598 19.6245 20.5151 19.921C20.0348 20.1859 19.4997 20.3359 18.9518 20.3592C18.9096 20.3575 18.8676 20.3655 18.829 20.3825C18.7904 20.3996 18.7562 20.4253 18.7291 20.4576C18.702 20.49 18.6826 20.5281 18.6726 20.5691C18.6625 20.6101 18.662 20.6528 18.6711 20.6941L19.3186 24.1112C19.3629 24.3574 19.1364 24.5051 18.8804 24.4042L16.6647 23.54C16.5905 23.5122 16.5245 23.4663 16.4725 23.4066C16.4205 23.3468 16.3842 23.2751 16.3668 23.1978L15.7907 19.9284C15.7739 19.8502 15.7375 19.7776 15.6849 19.7173C15.6324 19.6571 15.5655 19.6111 15.4903 19.5837L14.7936 19.3129C14.7219 19.2737 14.6377 19.2641 14.559 19.2862C14.4803 19.3083 14.4134 19.3603 14.3726 19.4311L13.2205 21.9127C13.1792 21.9824 13.1128 22.0336 13.0348 22.0556C12.9569 22.0776 12.8735 22.0687 12.8019 22.0309L10.569 21.1569C10.4643 21.1255 10.3762 21.0542 10.3237 20.9584C10.2712 20.8626 10.2585 20.7499 10.2883 20.6448L14.2717 12.0552C14.3138 11.9858 14.3807 11.935 14.4589 11.913C14.537 11.8911 14.6206 11.8997 14.6927 11.937L18.9469 13.6013C20.0366 13.9925 20.9536 14.7552 21.5368 15.7555ZM18.7918 17.3114C18.86 17.1724 18.8936 17.0191 18.8897 16.8643C18.8859 16.7096 18.8447 16.558 18.7696 16.4226C18.5894 16.1091 18.2989 15.8739 17.9547 15.7629L16.6647 15.2705C16.593 15.2323 16.5094 15.223 16.4311 15.2445C16.3528 15.266 16.2858 15.3167 16.2437 15.3862L15.5593 16.8633C15.5293 16.9681 15.5417 17.0805 15.5937 17.1762C15.6458 17.272 15.7333 17.3435 15.8375 17.3754L17.1152 17.8678L17.157 17.885C17.4585 18.0193 17.7992 18.036 18.1123 17.9318C18.2633 17.8837 18.4021 17.8036 18.5194 17.6969C18.6366 17.5903 18.7295 17.4596 18.7918 17.3139" fill="#FE3030"/>
<path d="M17.9449 15.7653C18.2892 15.8747 18.58 16.1092 18.7598 16.4227C18.8348 16.558 18.876 16.7096 18.8799 16.8643C18.8838 17.0191 18.8502 17.1725 18.7819 17.3114C18.7197 17.4572 18.6268 17.5878 18.5096 17.6945C18.3923 17.8011 18.2535 17.8812 18.1024 17.9294C17.7894 18.0335 17.4486 18.0168 17.1472 17.8826L17.1054 17.8653L15.8276 17.373C15.7234 17.341 15.6359 17.2695 15.5839 17.1738C15.5319 17.078 15.5195 16.9657 15.5494 16.8609L16.2338 15.3837C16.2759 15.3143 16.343 15.2636 16.4213 15.2421C16.4996 15.2205 16.5832 15.2298 16.6548 15.268L17.9449 15.7653Z" fill="#FFFCED"/>
<path d="M14.3061 12.0133L16.1501 9.55139C16.1404 9.56528 16.1321 9.58012 16.1255 9.5957L14.2791 12.0576C14.2865 12.0419 14.2956 12.0271 14.3061 12.0133Z" fill="#FFFCED"/>
<path d="M31.995 21.376C32.117 21.4361 32.2553 21.4544 32.3888 21.4281C32.5222 21.4019 32.6434 21.3325 32.7335 21.2307L30.8896 23.6926C30.7993 23.7944 30.678 23.8635 30.5445 23.8894C30.411 23.9152 30.2727 23.8962 30.151 23.8354C30.7049 23.1042 31.4435 22.117 31.995 21.376Z" fill="#FE3030"/>
<path d="M31.4361 20.5069C31.4177 20.6935 31.4629 20.8809 31.5643 21.0387C31.6658 21.1964 31.8175 21.3153 31.995 21.3759L30.151 23.8379C29.9733 23.7784 29.821 23.6602 29.7195 23.5027C29.6179 23.3451 29.573 23.1577 29.5922 22.9713L31.4361 20.5094L29.5922 22.9713C29.6062 22.9048 29.6339 22.8419 29.6734 22.7866L31.5198 20.3247C31.4797 20.3791 31.4512 20.4411 31.4361 20.5069Z" fill="#FE3030"/>
<path d="M4.95093 9.61794L6.79736 7.14618L10.2317 4.28052L8.38775 6.75228L4.95093 9.61794Z" fill="#FE3030"/>
<path d="M29.6734 22.7941L31.5198 20.3321C31.61 20.2303 31.7311 20.161 31.8646 20.1347C31.998 20.1085 32.1364 20.1268 32.2584 20.1869L30.412 22.6488C30.29 22.5887 30.1516 22.5704 30.0181 22.5966C29.8847 22.6229 29.7636 22.6922 29.6734 22.7941Z" fill="#FFFCED"/>
<path d="M10.5592 3.94568L8.71519 6.40759C8.62088 6.53115 8.51359 6.64422 8.39514 6.74487L10.2391 4.28296C10.3587 4.18356 10.4662 4.07035 10.5592 3.94568Z" fill="#FE3030"/>
<path d="M30.412 22.6512C30.5892 22.7114 30.7409 22.8298 30.8424 22.9871C30.9438 23.1445 30.9891 23.3315 30.9708 23.5178C30.897 23.8477 30.5302 23.9929 30.151 23.8452C29.9733 23.7858 29.821 23.6676 29.7195 23.51C29.6179 23.3525 29.573 23.1651 29.5922 22.9786C29.6636 22.6487 30.0304 22.501 30.412 22.6512Z" fill="#FFFCED"/>
<path d="M32.7311 21.2307L30.8871 23.6926C30.9267 23.637 30.9551 23.5743 30.9708 23.5079C30.9891 23.3216 30.9438 23.1346 30.8424 22.9773C30.7409 22.82 30.5892 22.7016 30.412 22.6414L32.2584 20.1794C32.4355 20.2397 32.5869 20.3582 32.6879 20.5156C32.789 20.673 32.8337 20.86 32.8148 21.046C32.8012 21.1131 32.7726 21.1762 32.7311 21.2307Z" fill="#FFFCED"/>
<path d="M23.27 16.6663L21.4235 19.1282C21.5496 18.9594 21.6577 18.7779 21.746 18.5866C22.1744 17.6806 22.1055 16.7377 21.5368 15.7505L23.3807 13.2886C23.9486 14.2733 24.0192 15.2187 23.5925 16.1247C23.504 16.3159 23.3959 16.4974 23.27 16.6663Z" fill="#FE3030"/>
<path d="M14.7001 11.937L16.5465 9.46521L20.8007 11.1295L18.9543 13.5988L14.7001 11.937Z" fill="#FE3030"/>
<path d="M18.9542 13.6013L20.8007 11.1394C21.8861 11.5337 22.799 12.2959 23.3807 13.2936L21.5368 15.7555C20.9554 14.7566 20.0412 13.994 18.9542 13.6013Z" fill="#FE3030"/>
<path d="M32.9773 21.9152L34.8237 19.4532C34.7978 20.2194 34.7022 20.9817 34.5381 21.7305C34.3424 22.6356 34.0373 23.5136 33.6297 24.3451L31.7857 26.807C32.1919 25.9749 32.4969 25.0971 32.6942 24.1924C32.8562 23.4433 32.951 22.6812 32.9773 21.9152Z" fill="#E01A1A"/>
<path d="M34.8237 19.4433L32.9773 21.9052C32.8099 21.8654 32.6454 21.8144 32.4849 21.7526C31.9705 21.5548 31.5033 21.2512 31.1136 20.8614C30.7239 20.4717 30.4203 20.0045 30.2224 19.4901L32.0688 17.0282C32.2667 17.5419 32.5701 18.0085 32.9593 18.3977C33.3486 18.787 33.8152 19.0904 34.3289 19.2882C34.4902 19.3509 34.6555 19.4027 34.8237 19.4433Z" fill="#FE3030"/>
<path d="M8.27692 3.08887C9.33308 4.31982 9.39956 5.90776 8.38771 6.75465L4.94104 9.61785C4.2197 10.2186 3.13646 10.2875 2.12215 9.89359C1.72496 9.73718 1.35518 9.51862 1.02661 9.2461C2.40528 6.20565 5.01489 4.07609 8.27692 3.08887Z" fill="#F66767"/>
<path d="M2.23297 7.2101L4.0794 4.74819C5.59894 2.76074 7.71826 1.31563 10.1234 0.626953L8.27696 3.08886C5.87145 3.77674 3.7519 5.22201 2.23297 7.2101Z" fill="#FFA7A7"/>
<path d="M10.5591 3.94569L8.71514 6.4076C9.37739 5.51885 9.20752 4.15741 8.2843 3.0791L10.1307 0.617188C11.0515 1.6955 11.2164 3.05694 10.5591 3.94569Z" fill="#F66767"/>
<path d="M11.662 5.34155L13.0629 3.46558L11.662 5.34155Z" fill="#FE3030"/>
<path d="M7.68365 11.3881L9.52762 8.92615C11.6744 6.0531 15.9778 5.07572 20.4068 6.80891L18.5604 9.27082C14.1339 7.54009 9.82059 8.51747 7.68365 11.3881Z" fill="#FFFCED"/>
<path d="M9.47344 8.20234C11.8123 5.53363 16.0984 4.69165 20.4929 6.41007L18.6465 8.87198C14.2545 7.14864 9.96581 7.998 7.62946 10.6642L8.55022 9.43329L8.91212 8.94091L9.25924 8.47807C9.32817 8.40422 9.40697 8.29589 9.47344 8.20234Z" fill="#FE3030"/>
<path d="M6.88599 10.8069L8.73242 8.34503C11.0688 5.2184 15.7636 4.15978 20.5767 6.03083L18.7327 8.49274C13.9172 6.60938 9.22234 7.67785 6.88599 10.8069Z" fill="#C62525"/>
<path d="M14.4022 3.46809C14.475 3.46259 14.5458 3.44202 14.6102 3.40769C14.6746 3.37336 14.7312 3.32602 14.7764 3.26867L12.9299 5.73058C12.885 5.78816 12.8285 5.83566 12.764 5.87001C12.6996 5.90436 12.6286 5.92479 12.5557 5.93C12.4324 5.93918 12.3085 5.91981 12.1938 5.87338C12.0728 5.82715 11.9628 5.75589 11.8712 5.66425C11.7795 5.57262 11.7083 5.46267 11.6621 5.3416L13.5134 2.87969L11.6695 5.3416C11.6345 5.25722 11.6214 5.16541 11.6313 5.07463C11.6412 4.98385 11.6738 4.89702 11.7261 4.82214L13.57 2.36023C13.5186 2.43547 13.4865 2.52225 13.4766 2.61286C13.4668 2.70348 13.4794 2.79513 13.5134 2.87969C13.5605 3.00069 13.6323 3.11051 13.7243 3.20209C13.8163 3.29367 13.9264 3.36499 14.0477 3.41147C14.16 3.45703 14.2812 3.4764 14.4022 3.46809Z" fill="#FE3030"/>
<path d="M11.7187 4.83445L13.5627 2.37254C13.6078 2.31519 13.6644 2.26785 13.7288 2.23352C13.7932 2.19919 13.8641 2.17862 13.9369 2.17312C14.0602 2.16393 14.1841 2.18331 14.2988 2.22974L12.4523 4.69165C12.3384 4.64583 12.2153 4.62728 12.0929 4.63749C12.0201 4.64178 11.949 4.66157 11.8845 4.69554C11.82 4.7295 11.7634 4.77686 11.7187 4.83445Z" fill="#FFFCED"/>
<path d="M14.7764 3.26864L12.9299 5.73055C12.9824 5.65577 13.0151 5.56893 13.025 5.4781C13.0349 5.38728 13.0217 5.29542 12.9866 5.21109C12.9395 5.09009 12.8677 4.98027 12.7757 4.88869C12.6837 4.79711 12.5735 4.72579 12.4523 4.67932L14.2988 2.21741C14.4201 2.26361 14.5304 2.33484 14.6225 2.42645C14.7145 2.51807 14.7862 2.62803 14.833 2.74918C14.8672 2.8337 14.88 2.92539 14.8701 3.01604C14.8602 3.1067 14.828 3.19349 14.7764 3.26864Z" fill="#FFFCED"/>
<path d="M12.4523 4.68909C12.5735 4.73557 12.6837 4.80688 12.7757 4.89847C12.8677 4.99005 12.9395 5.09987 12.9866 5.22087C13.0212 5.29586 13.037 5.37818 13.0325 5.46067C13.0281 5.54315 13.0036 5.62331 12.9611 5.69416C12.9187 5.76502 12.8595 5.82443 12.7889 5.86723C12.7182 5.91003 12.6382 5.93492 12.5557 5.93974C12.4324 5.94893 12.3085 5.92955 12.1938 5.88312C12.0728 5.83689 11.9628 5.76563 11.8712 5.674C11.7795 5.58236 11.7083 5.47242 11.6621 5.35135C11.628 5.27646 11.6126 5.1944 11.6173 5.11224C11.622 5.03009 11.6466 4.9503 11.689 4.87979C11.7314 4.80927 11.7903 4.75013 11.8607 4.70747C11.9311 4.66481 12.0108 4.63991 12.0929 4.63493C12.2153 4.62472 12.3384 4.64327 12.4523 4.68909Z" fill="#FFFCED"/>
<path d="M27.4232 22.2844L25.5793 24.7463C26.178 23.9417 26.5977 23.0183 26.8102 22.0382C27.8762 17.1784 24.1883 11.452 18.5702 9.26086L20.4166 6.79895C26.0322 8.99251 29.7226 14.714 28.6542 19.5738C28.4441 20.5555 28.0242 21.4802 27.4232 22.2844Z" fill="#FFFCED"/>
<path d="M28.4819 21.5089C28.4807 21.5146 28.4807 21.5205 28.4819 21.5262L26.6477 23.9881C26.9249 23.4314 27.1324 22.8426 27.2657 22.2352C27.9132 19.2809 26.8693 16.0066 24.7225 13.3428L26.569 10.8809C28.7158 13.5471 29.7694 16.8165 29.1096 19.7733C28.9732 20.3756 28.7624 20.9587 28.4819 21.5089Z" fill="#FE3030"/>
<path d="M26.5616 10.8611L24.7151 13.323C24.5625 13.131 24.4049 12.9439 24.24 12.7593L26.084 10.2974C26.244 10.4845 26.404 10.6716 26.5616 10.8611Z" fill="#FE3030"/>
<path d="M25.1681 9.36682C25.4882 9.66717 25.7935 9.97737 26.079 10.2999L24.2351 12.7618C23.947 12.4417 23.6442 12.1291 23.3242 11.8312L25.1681 9.36682Z" fill="#FE3030"/>
<path d="M25.1681 9.36674L23.3241 11.8287C23.0952 11.6145 22.8613 11.4077 22.6176 11.2082L24.464 8.74634C24.7053 8.94575 24.9416 9.15255 25.1681 9.36674Z" fill="#FE3030"/>
<path d="M20.4929 6.41003C21.9315 6.97451 23.2718 7.76304 24.464 8.74639L22.6175 11.2083C21.4256 10.224 20.0853 9.43464 18.6465 8.86948L20.4929 6.41003Z" fill="#FE3030"/>
<path d="M17.9449 3.1874L16.0984 5.64931C15.9411 5.55675 15.7905 5.45308 15.6479 5.33911C16.2617 4.51847 16.8764 3.69783 17.4919 2.8772C17.6353 2.99119 17.7867 3.09485 17.9449 3.1874Z" fill="#FE3030"/>
<path d="M17.9449 3.18738C18.1297 3.29739 18.3232 3.39208 18.5234 3.4705L16.677 5.93241C16.4769 5.85351 16.2835 5.75884 16.0984 5.64929L17.9449 3.18738Z" fill="#FE3030"/>
<path d="M18.7327 8.49277C24.8357 10.8784 28.861 17.1095 27.7014 22.4001C26.5418 27.6907 20.6332 30.032 14.5277 27.6538C8.42217 25.2756 4.40188 19.0371 5.56144 13.744C6.721 8.45092 12.6296 6.10718 18.7327 8.49277ZM14.6139 27.2673C20.4708 29.5569 26.1405 27.2944 27.2509 22.2253C28.3612 17.1562 24.5034 11.1689 18.6465 8.87929C12.7896 6.58971 7.11983 8.84974 6.00951 13.9188C4.89919 18.9879 8.757 24.9753 14.6262 27.2673" fill="#C62525"/>
<path d="M18.5603 9.28061C24.1784 11.4766 27.8664 17.1981 26.8004 22.0579C25.7343 26.9177 20.3157 29.0818 14.7001 26.8857C9.08446 24.6897 5.38912 18.9559 6.46005 14.0961C7.53098 9.2363 12.9447 7.06489 18.5603 9.28061ZM21.7461 18.6014C22.1744 17.6954 22.1055 16.7525 21.5368 15.7653C20.9555 14.7664 20.0412 14.0038 18.9542 13.6111L14.7001 11.9469C14.628 11.9095 14.5444 11.9009 14.4662 11.9228C14.3881 11.9448 14.3212 11.9956 14.2791 12.065L10.2957 20.6546C10.2659 20.7597 10.2786 20.8724 10.3311 20.9682C10.3836 21.064 10.4717 21.1353 10.5764 21.1667L12.8093 22.0407C12.8809 22.0785 12.9643 22.0874 13.0422 22.0654C13.1202 22.0434 13.1866 21.9922 13.2279 21.9225L14.38 19.4409C14.4208 19.3701 14.4877 19.3181 14.5664 19.296C14.6451 19.2739 14.7293 19.2835 14.801 19.3227L15.4977 19.5936C15.5729 19.6209 15.6398 19.6669 15.6924 19.7272C15.7449 19.7874 15.7813 19.8601 15.7981 19.9382L16.3742 23.2076C16.3916 23.2849 16.4279 23.3566 16.4799 23.4164C16.5319 23.4761 16.5979 23.522 16.6721 23.5498L18.8878 24.414C19.134 24.5149 19.3802 24.3647 19.326 24.121L18.6834 20.694C18.6744 20.6528 18.6749 20.6101 18.6849 20.5691C18.695 20.5281 18.7143 20.4899 18.7414 20.4576C18.7685 20.4252 18.8027 20.3995 18.8413 20.3825C18.8799 20.3654 18.9219 20.3575 18.9641 20.3592C19.5121 20.3359 20.0472 20.1859 20.5274 19.921C21.0726 19.6251 21.5052 19.1579 21.7584 18.5916" fill="#FFFCED"/>
<path d="M28.2209 22.8678L26.3744 25.3298C27.0228 24.4566 27.4754 23.454 27.7014 22.3902C28.861 17.1094 24.8357 10.8685 18.7327 8.4829L20.5766 6.021C26.6822 8.40905 30.7049 14.6377 29.5478 19.9308C29.3203 20.9933 28.8678 21.9948 28.2209 22.8678Z" fill="#C62525"/>
<path d="M28.4893 14.6131L30.3357 12.1414L32.0738 17.0282L30.2274 19.5L28.4893 14.6131Z" fill="#FE3030"/>
<path d="M25.3109 10.9252L26.7117 9.04919L25.3109 10.9252Z" fill="#FE3030"/>
<path d="M28.1446 8.60362C28.173 8.58049 28.1987 8.55404 28.2209 8.52484L26.3744 10.9867C26.353 11.0173 26.3273 11.0447 26.2981 11.068C26.2033 11.1364 26.092 11.1783 25.9757 11.1896C25.8593 11.2008 25.742 11.181 25.6359 11.132C25.5139 11.0839 25.4032 11.011 25.3109 10.9178L27.1549 8.4559L25.3109 10.9178C25.1903 10.8201 25.1088 10.6824 25.0812 10.5296C25.0537 10.3769 25.0819 10.2194 25.1607 10.0857L27.0072 7.62378C26.9286 7.75797 26.9006 7.91578 26.9282 8.0688C26.9557 8.22181 27.037 8.35997 27.1573 8.45837C27.2498 8.55125 27.3605 8.62415 27.4823 8.67255C27.5889 8.72081 27.7064 8.73986 27.8228 8.72775C27.9391 8.71564 28.0502 8.6728 28.1446 8.60362Z" fill="#FE3030"/>
<path d="M28.7305 12.4097L30.5744 9.94775C30.3531 10.265 30.2146 10.6325 30.1716 11.0169C30.1286 11.4013 30.1825 11.7904 30.3282 12.1487L28.4818 14.6106C28.3368 14.252 28.2836 13.8629 28.3271 13.4786C28.3705 13.0943 28.5091 12.7269 28.7305 12.4097Z" fill="#FE3030"/>
<path d="M25.1607 10.0931L27.0071 7.63119C27.0286 7.60063 27.0543 7.57327 27.0835 7.54995C27.1783 7.48156 27.2896 7.4396 27.4059 7.42835C27.5223 7.41711 27.6396 7.43698 27.7457 7.48594L25.8993 9.94785C25.7931 9.89889 25.6759 9.87902 25.5595 9.89026C25.4431 9.90151 25.3318 9.94347 25.237 10.0119C25.2085 10.0358 25.1829 10.0631 25.1607 10.0931Z" fill="#FFFCED"/>
<path d="M25.8993 9.94773C26.0228 9.99421 26.1346 10.0673 26.2267 10.1619C26.5197 10.4549 26.5541 10.8636 26.2981 11.0753C26.2033 11.1437 26.092 11.1856 25.9756 11.1969C25.8593 11.2081 25.742 11.1883 25.6359 11.1393C25.5138 11.0912 25.4032 11.0183 25.3109 10.9251C25.0154 10.6297 24.9834 10.221 25.237 10.0117C25.3318 9.94335 25.4431 9.90139 25.5595 9.89015C25.6759 9.8789 25.7931 9.89877 25.8993 9.94773Z" fill="#FFFCED"/>
<path d="M28.2209 8.52483L26.3744 10.9867C26.4536 10.8533 26.4822 10.696 26.4551 10.5433C26.428 10.3905 26.3469 10.2526 26.2267 10.1546C26.1346 10.06 26.0228 9.9869 25.8993 9.94043L27.7457 7.47852C27.8672 7.52758 27.9777 7.6004 28.0707 7.6927C28.1909 7.79069 28.2721 7.92841 28.2996 8.08101C28.3271 8.2336 28.2992 8.39101 28.2209 8.52483Z" fill="#FFFCED"/>
<path d="M28.7305 12.4096L30.5744 9.94774C30.8107 9.63576 31.1309 9.39751 31.4977 9.26086L29.6537 11.7228C29.2867 11.8589 28.9663 12.0973 28.7305 12.4096Z" fill="#F66767"/>
<path d="M16.1009 0.072998C16.0123 1.07253 16.5662 2.15085 17.4845 2.87711C16.869 3.69775 16.2544 4.51839 15.6405 5.33902C14.7198 4.60045 14.1634 3.53444 14.2545 2.53491L16.1009 0.072998Z" fill="#FE3030"/>
<path d="M16.6696 5.93975L18.516 3.47046L23.6885 5.49169L21.8445 7.96344L16.6696 5.93975Z" fill="#FE3030"/>
<path d="M26.6305 5.09534L24.7865 7.55725C24.1243 8.20965 22.9992 8.39922 21.8322 7.94623L23.6786 5.48432C24.8382 5.9447 25.9707 5.75759 26.6305 5.09534Z" fill="#FE3030"/>
<path d="M14.252 2.5448C16.0743 2.72573 17.8624 3.15993 19.5648 3.83484C21.5775 4.62508 23.4649 5.70314 25.1681 7.03532C24.6536 8.10626 23.27 8.51247 21.8396 7.96593L16.6696 5.9447C15.1629 5.34153 14.1363 3.87669 14.252 2.5448Z" fill="#F66767"/>
<path d="M32.9773 21.9151C32.951 22.6811 32.8562 23.4433 32.6942 24.1924C32.4969 25.0971 32.1919 25.9748 31.7857 26.8069C31.6749 26.7503 31.5617 26.7011 31.4484 26.6568C30.4366 26.2604 29.3509 26.3293 28.6296 26.93L25.1952 29.7957C24.4049 30.4555 24.2695 31.5707 24.7521 32.6097C22.9606 33.1433 21.0868 33.3461 19.2226 33.2079C19.0584 32.6254 18.76 32.0894 18.3513 31.6431C17.9425 31.1967 17.4349 30.8524 16.869 30.6377L11.699 28.6164C10.4188 28.1241 9.17555 28.4023 8.56007 29.2368C6.82245 27.995 5.27134 26.511 3.95383 24.83C5.01738 24.3844 5.50238 23.2322 5.05185 21.9668L3.32851 17.0799C3.13066 16.5655 2.82706 16.0983 2.43733 15.7086C2.04761 15.3189 1.58044 15.0153 1.06602 14.8174C0.730446 14.6815 0.375813 14.5985 0.0147784 14.5712C-0.0117329 13.5442 0.0849823 12.5176 0.302833 11.5136C0.469786 10.7318 0.717299 9.96947 1.04141 9.23874C1.36997 9.51126 1.73976 9.72982 2.13694 9.88623C3.15125 10.2801 4.23449 10.2112 4.95583 9.61049L8.40251 6.74729C9.41435 5.9004 9.34788 4.30754 8.29172 3.08151C10.2251 2.51899 12.2492 2.33673 14.252 2.54481C14.1338 3.8767 15.1605 5.35139 16.6671 5.94225L21.8372 7.96347C23.2675 8.52233 24.6511 8.1038 25.1657 7.03287C26.8804 8.36478 28.3909 9.94072 29.6488 11.7105C28.5409 12.1364 28.0289 13.3107 28.4843 14.6008L30.2224 19.4877C30.4203 20.0021 30.7239 20.4693 31.1136 20.859C31.5033 21.2487 31.9705 21.5523 32.4849 21.7502C32.6451 21.8162 32.8096 21.8713 32.9773 21.9151ZM14.5277 27.6538C20.6333 30.0419 26.5443 27.6834 27.7014 22.4001C28.8585 17.1169 24.8382 10.8784 18.7327 8.49279C12.6271 6.1072 6.71857 8.46324 5.56147 13.744C4.40437 19.0248 8.42467 25.2682 14.5277 27.6538ZM3.25957 13.3329C3.64117 13.4806 3.99815 13.3329 4.07939 13.003C4.09919 12.8168 4.05484 12.6294 3.95367 12.4718C3.8525 12.3142 3.70056 12.1959 3.523 12.1364C3.1414 11.9887 2.78444 12.1364 2.70073 12.4638C2.68187 12.6506 2.72686 12.8381 2.82836 12.996C2.92987 13.1538 3.08187 13.2726 3.25957 13.3329ZM30.151 23.8453C30.5302 23.993 30.8896 23.8453 30.9708 23.5178C30.9891 23.3315 30.9438 23.1445 30.8424 22.9872C30.7409 22.8298 30.5892 22.7114 30.412 22.6512C30.0304 22.5011 29.6734 22.6512 29.5922 22.9787C29.573 23.1651 29.6179 23.3525 29.7195 23.5101C29.821 23.6676 29.9733 23.7858 30.151 23.8453ZM12.0929 4.64236C12.0108 4.64734 11.9311 4.67224 11.8607 4.71489C11.7904 4.75755 11.7314 4.81669 11.689 4.88721C11.6466 4.95773 11.622 5.03751 11.6173 5.11967C11.6126 5.20182 11.628 5.28389 11.6621 5.35877C11.7083 5.47984 11.7796 5.58979 11.8712 5.68143C11.9628 5.77306 12.0728 5.84432 12.1939 5.89055C12.3085 5.93698 12.4324 5.95636 12.5557 5.94717C12.6382 5.94235 12.7183 5.91745 12.7889 5.87466C12.8596 5.83186 12.9187 5.77245 12.9612 5.70159C13.0036 5.63074 13.0281 5.55058 13.0326 5.4681C13.037 5.38561 13.0212 5.30329 12.9866 5.22829C12.9395 5.1073 12.8677 4.99748 12.7757 4.90589C12.6837 4.81431 12.5736 4.74299 12.4524 4.69652C12.3384 4.65069 12.2153 4.63215 12.0929 4.64236ZM21.5811 31.3541C21.6633 31.3491 21.7429 31.3242 21.8133 31.2815C21.8837 31.2389 21.9426 31.1797 21.985 31.1092C22.0274 31.0387 22.052 30.9589 22.0567 30.8768C22.0614 30.7946 22.0461 30.7126 22.012 30.6377C21.9649 30.5167 21.8931 30.4069 21.8011 30.3153C21.7091 30.2237 21.5989 30.1524 21.4777 30.1059C21.364 30.0591 21.2407 30.0405 21.1183 30.0517C21.0359 30.0563 20.9559 30.081 20.8853 30.1235C20.8146 30.166 20.7553 30.2251 20.7126 30.2956C20.6699 30.3662 20.6451 30.4461 20.6403 30.5285C20.6355 30.6108 20.6508 30.6931 20.685 30.7681C20.732 30.8891 20.8038 30.999 20.8958 31.0905C20.9878 31.1821 21.098 31.2534 21.2192 31.2999C21.3337 31.347 21.4579 31.3655 21.5811 31.3541ZM8.43451 25.9797C8.6807 25.768 8.65363 25.3593 8.36312 25.0664C8.26917 24.9723 8.15687 24.8986 8.03322 24.8497C7.92697 24.8006 7.8095 24.7809 7.69303 24.7925C7.57655 24.8042 7.46534 24.8469 7.37097 24.9162C7.12478 25.1254 7.15185 25.5366 7.44482 25.8296C7.53755 25.9233 7.64917 25.9964 7.77226 26.0437C7.87842 26.0927 7.99569 26.1126 8.11205 26.1013C8.22841 26.0901 8.33969 26.0481 8.43451 25.9797ZM25.237 10.0192C24.9909 10.2284 25.0155 10.6371 25.3109 10.9325C25.4032 11.0257 25.5139 11.0986 25.6359 11.1467C25.742 11.1957 25.8593 11.2156 25.9757 11.2043C26.092 11.1931 26.2033 11.1511 26.2981 11.0827C26.5443 10.871 26.5197 10.4623 26.2267 10.1693C26.1347 10.0748 26.0229 10.0016 25.8993 9.95516C25.7931 9.9062 25.6759 9.88633 25.5595 9.89758C25.4431 9.90882 25.3319 9.95079 25.237 10.0192Z" fill="#FE3030"/>
<path d="M18.6465 8.87934C12.7896 6.58977 7.11987 8.8498 6.00955 13.9189C4.89922 18.9879 8.75704 24.9753 14.6262 27.2674C20.4954 29.5594 26.1529 27.2944 27.2632 22.2254C28.3735 17.1563 24.5034 11.1689 18.6465 8.87934ZM26.8078 22.0481C25.7417 26.9079 20.3231 29.0719 14.7075 26.8759C9.09185 24.6799 5.38913 18.9559 6.46006 14.0961C7.531 9.23632 12.9447 7.06492 18.5604 9.28064C24.176 11.4964 27.8664 17.1981 26.8004 22.0579" fill="#FE3030"/>
<path d="M8.27692 3.08891L10.1233 0.626996C12.0617 0.0595156 14.0919 -0.125281 16.1009 0.0829139L14.2544 2.54482C12.2455 2.33688 10.2153 2.52167 8.27692 3.08891Z" fill="#FE5858"/>
<path d="M29.6537 11.7228L31.4977 9.26086C33.7134 12.4047 34.9443 15.9942 34.8237 19.4507L32.9773 21.9126C33.0979 18.4561 31.8669 14.8666 29.6537 11.7228Z" fill="#FFA7A7"/>
<path d="M29.6537 11.7228C31.8694 14.8666 33.1004 18.4561 32.9773 21.9151C32.8099 21.8753 32.6454 21.8243 32.4849 21.7624C31.9705 21.5646 31.5033 21.261 31.1136 20.8713C30.7239 20.4815 30.4203 20.0144 30.2224 19.5L28.4843 14.6131C28.0387 13.323 28.5459 12.1487 29.6537 11.7228Z" fill="#F66767"/>
<path d="M26.6305 5.09533C26.6996 5.02697 26.7638 4.95374 26.8225 4.87622L24.9761 7.33813C24.919 7.41699 24.8556 7.49109 24.7865 7.5597L26.1972 5.67142L26.4138 5.37845L26.4434 5.34152L26.5 5.2652L26.5271 5.22827C26.5615 5.19627 26.5936 5.14703 26.6305 5.09533Z" fill="#FE3030"/>
<path d="M26.8225 4.88365L24.9785 7.34556C25.0534 7.24579 25.1177 7.13853 25.1705 7.02551L27.017 4.5636C26.9622 4.67608 26.8971 4.78323 26.8225 4.88365Z" fill="#F66767"/>
<path d="M25.1706 7.03283L27.017 4.57092C28.7328 5.90097 30.2426 7.47719 31.4977 9.24855L29.6537 11.7105C28.3958 9.94068 26.8854 8.36474 25.1706 7.03283Z" fill="#F84C4C"/>
<path d="M14.252 2.5448L16.0984 0.0828857C17.9205 0.265393 19.7084 0.699536 21.4113 1.37293C23.4235 2.16423 25.3107 3.2422 27.0146 4.57341L25.1681 7.03532C23.465 5.70314 21.5775 4.62508 19.5648 3.83484C17.8625 3.15992 16.0743 2.72573 14.252 2.5448Z" fill="#FFA7A7"/>
<path d="M19.2348 20.5451C19.1853 20.547 19.1369 20.5596 19.0927 20.582C19.0486 20.6045 19.0099 20.6362 18.9793 20.675C18.9486 20.7139 18.9267 20.7589 18.9152 20.8071C18.9036 20.8552 18.9026 20.9052 18.9123 20.9538L19.4391 24.2355C19.4859 24.5334 19.2102 24.7279 18.895 24.5925L16.5439 23.6766C16.4491 23.6406 16.365 23.581 16.2995 23.5034C16.234 23.4259 16.1894 23.333 16.1697 23.2335L15.7536 20.23C15.7344 20.1302 15.6899 20.0371 15.6244 19.9595C15.5588 19.882 15.4745 19.8225 15.3794 19.7868L15.0274 19.6514C14.9381 19.6048 14.8343 19.5944 14.7375 19.6224C14.6408 19.6504 14.5586 19.7145 14.5079 19.8016L13.4419 22.1133C13.3916 22.2014 13.3091 22.2666 13.2118 22.2951C13.1144 22.3235 13.0098 22.3131 12.92 22.266L10.5221 21.3255C10.3924 21.2856 10.2835 21.1966 10.2186 21.0774C10.1538 20.9582 10.1381 20.8184 10.1749 20.6879L14.114 12.1475C14.1646 12.0604 14.247 11.9964 14.3439 11.9688C14.4408 11.9413 14.5446 11.9524 14.6335 11.9998L18.9073 13.669C20.025 14.0669 20.9706 14.8393 21.5834 15.8551C21.8667 16.2854 22.0331 16.782 22.0663 17.2961C22.0996 17.8102 21.9985 18.3241 21.773 18.7873C21.3052 19.8114 20.4592 20.3974 19.2348 20.5451ZM18.4642 17.3938C18.524 17.2768 18.5539 17.1467 18.5514 17.0153C18.5488 16.8839 18.5138 16.7551 18.4494 16.6405C18.3013 16.38 18.0605 16.1848 17.7749 16.094L16.827 15.7222C16.7376 15.6752 16.6333 15.6648 16.5364 15.6933C16.4394 15.7218 16.3574 15.7869 16.3076 15.8748L15.8497 16.8596C15.8121 16.9902 15.8275 17.1303 15.8925 17.2496C15.9574 17.3689 16.0667 17.4579 16.1968 17.4972L17.0141 17.8173L17.0732 17.8419C17.3271 17.9551 17.6122 17.9777 17.8807 17.9059C18.0123 17.8712 18.1337 17.8058 18.2352 17.715C18.3366 17.6243 18.4151 17.5109 18.4642 17.384" fill="#FE3030"/>
</g>
<defs>
<clipPath id="clip0_3516_50707">
<rect width="56" height="56" fill="white"/>
</clipPath>
</defs>
</svg>
