<svg width="56" height="56" viewBox="0 0 56 56" fill="none" xmlns="http://www.w3.org/2000/svg">
<g clip-path="url(#clip0_1257_64759)">
<path d="M28.0532 20.7052C28.025 20.6493 28.0006 20.5915 27.9802 20.5322C27.5838 19.5861 27.1873 18.6392 26.7909 17.6913C26.9353 17.8731 27.0536 18.0741 27.1423 18.2887L28.4046 21.3026C28.3132 21.0894 28.1951 20.8887 28.0532 20.7052Z" fill="#FE3030"/>
<path d="M32.7079 21.873L32.1673 20.562L31.4591 18.8591C31.6149 18.8242 31.7764 18.8242 31.9321 18.8591L32.0781 19.2132L32.2349 19.5862L32.3971 19.9727L32.562 20.3674L32.7269 20.762L32.889 21.1486L33.0458 21.5216L33.1918 21.8757C33.033 21.8362 32.8671 21.8353 32.7079 21.873Z" fill="#FE3030"/>
<path d="M33.1783 21.8703L31.9186 18.8536L32.0646 19.2077L32.2214 19.5808L32.3836 19.9673L32.5485 20.362L32.7133 20.7566L32.8755 21.1431L33.0323 21.5162L33.1783 21.8703Z" fill="#FE3030"/>
<path d="M36.3248 20.9053L35.076 17.8914C34.8123 17.2388 34.8055 16.5106 35.057 15.8533L36.3248 18.8672C36.0672 19.5222 36.0672 20.2504 36.3248 20.9053Z" fill="#FE3030"/>
<path d="M30.6268 19.8268L30.7377 20.0971L30.8512 20.3674L30.9701 20.6512L31.0918 20.9432L31.2161 21.2378L31.3404 21.5351L31.4621 21.8298L31.5837 22.119L30.6268 19.8295V19.8268Z" fill="#FE3030"/>
<path d="M31.8891 22.8408C31.8944 22.8957 31.9081 22.9495 31.9297 23.0002L30.67 19.9836C30.6484 19.9336 30.6338 19.8809 30.6268 19.8268C31.0485 20.8324 31.4684 21.837 31.8864 22.8408C31.4684 21.8352 31.0485 20.8306 30.6268 19.8268C30.5727 19.4079 30.9404 18.9727 31.4377 18.8591L32.7001 21.8731C32.2 21.9866 31.8324 22.4326 31.8891 22.8408Z" fill="#FE3030"/>
<path d="M33.6838 22.2649C33.6368 22.1638 33.5665 22.0752 33.4786 22.0066C33.3908 21.938 33.2878 21.8912 33.1783 21.8703L31.9186 18.8536C32.0279 18.8755 32.1304 18.9229 32.2177 18.9919C32.3051 19.061 32.3749 19.1498 32.4214 19.251L33.6838 22.2649Z" fill="#FE3030"/>
<path d="M27.1342 18.2887L28.3965 21.3026C28.9209 22.5596 28.3965 24.1463 26.9882 25.2113L25.7259 22.1974C27.1477 21.1323 27.6748 19.5456 27.1342 18.2887Z" fill="#F66767"/>
<path d="M32.4217 19.2511L33.684 22.265C33.7032 22.3157 33.7168 22.3682 33.7245 22.4218C33.7759 22.8408 33.411 23.276 32.9136 23.3895C32.758 23.4259 32.5962 23.4259 32.4406 23.3895C32.3316 23.368 32.2293 23.321 32.1419 23.2524C32.0546 23.1838 31.9846 23.0956 31.9378 22.9949L30.6782 19.9782C30.7234 20.0795 30.7926 20.1683 30.8797 20.2371C30.9667 20.3058 31.0692 20.3524 31.1782 20.3729C31.3338 20.4094 31.4957 20.4094 31.6513 20.3729C32.1567 20.2593 32.5244 19.8323 32.4622 19.4052C32.4558 19.3522 32.4421 19.3004 32.4217 19.2511Z" fill="#FFFCED"/>
<path d="M31.9188 18.8537C32.0528 18.879 32.1761 18.9442 32.2725 19.0406C32.369 19.137 32.4341 19.2603 32.4594 19.3943C32.5108 19.8133 32.1432 20.2485 31.6485 20.362C31.4929 20.3985 31.331 20.3985 31.1755 20.362C31.0405 20.3388 30.9161 20.2744 30.8193 20.1776C30.7224 20.0808 30.658 19.9563 30.6349 19.8214C30.5808 19.4024 30.9484 18.9672 31.4458 18.8537C31.6015 18.8188 31.7631 18.8188 31.9188 18.8537Z" fill="#FFFCED"/>
<path d="M25.7341 22.1947L26.9964 25.2086L21.4037 29.42L20.1441 26.4061L25.7341 22.1947Z" fill="#F66767"/>
<path d="M36.3249 20.9053L35.076 17.8914C35.2709 18.3229 35.5666 18.7014 35.9382 18.9949C36.3098 19.2885 36.7465 19.4885 37.2115 19.5781L38.4873 22.592C38.0173 22.5068 37.575 22.3088 37.1983 22.015C36.8217 21.7213 36.5219 21.3404 36.3249 20.9053Z" fill="#F66767"/>
<path d="M20.1443 26.406L21.4039 29.4199C20.8548 29.8397 20.2217 30.1364 19.5478 30.2899C18.8738 30.4433 18.1747 30.4499 17.498 30.3093C17.0392 30.2054 16.6073 30.0065 16.2302 29.7254L14.9706 26.7115C15.3487 26.9926 15.7814 27.1915 16.241 27.2953C16.9174 27.4354 17.6159 27.4285 18.2894 27.2751C18.9628 27.1217 19.5954 26.8253 20.1443 26.406Z" fill="#F66767"/>
<path d="M17.3815 29.7985L17.4897 30.0688L17.6059 30.3391L17.7248 30.6256L17.8465 30.9148L17.9708 31.2122L18.0924 31.5068L18.2168 31.8014L18.3384 32.0907L17.3815 29.8039V29.7985Z" fill="#FE3030"/>
<path d="M17.4247 33.3746C17.3788 33.4613 17.3521 33.5569 17.3465 33.6549C17.3409 33.7529 17.3565 33.8509 17.3923 33.9423L16.13 30.9283C16.0942 30.837 16.0785 30.7389 16.0841 30.641C16.0897 30.543 16.1164 30.4474 16.1624 30.3607L17.4247 33.3746L16.1624 30.3607C16.2788 30.1489 16.46 29.9801 16.6794 29.8789C16.8988 29.7777 17.1449 29.7495 17.3815 29.7985C17.7996 30.8004 18.2194 31.805 18.6411 32.8124C18.223 31.8068 17.8032 30.8022 17.3815 29.7985C17.4904 29.8192 17.5928 29.8658 17.6798 29.9345C17.7669 30.0032 17.8361 30.0919 17.8815 30.1931L19.1439 33.207C19.0984 33.1054 19.0288 33.0164 18.9412 32.9476C18.8536 32.8789 18.7506 32.8325 18.6411 32.8124C18.4049 32.7632 18.1591 32.7913 17.94 32.8925C17.721 32.9938 17.5403 33.1628 17.4247 33.3746Z" fill="#FE3030"/>
<path d="M17.8818 30.1931L19.1441 33.207C19.18 33.2979 19.1958 33.3955 19.1902 33.4931C19.1846 33.5907 19.1578 33.6858 19.1117 33.772C18.9961 33.9847 18.8153 34.1547 18.5958 34.2569C18.3763 34.3591 18.1298 34.3881 17.8926 34.3396C17.7836 34.318 17.6814 34.2707 17.5944 34.2016C17.5074 34.1325 17.4382 34.0436 17.3925 33.9423L16.1302 30.9283C16.1761 31.0297 16.2458 31.1185 16.3333 31.1872C16.4208 31.2559 16.5236 31.3025 16.633 31.323C16.8699 31.3722 17.1163 31.3438 17.3359 31.242C17.5554 31.1403 17.7364 30.9706 17.852 30.7581C17.897 30.6715 17.9229 30.5762 17.9281 30.4788C17.9332 30.3814 17.9174 30.284 17.8818 30.1931Z" fill="#FFFCED"/>
<path d="M17.3816 29.7986C17.485 29.8152 17.5829 29.8563 17.6671 29.9186C17.7513 29.9809 17.8193 30.0625 17.8654 30.1565C17.9114 30.2506 17.9343 30.3543 17.932 30.459C17.9296 30.5637 17.9022 30.6663 17.852 30.7582C17.7363 30.9707 17.5554 31.1404 17.3358 31.2421C17.1163 31.3439 16.8698 31.3723 16.6329 31.3231C16.5291 31.3067 16.4308 31.2655 16.3463 31.203C16.2618 31.1405 16.1936 31.0587 16.1475 30.9643C16.1014 30.8699 16.0786 30.7657 16.0813 30.6607C16.0839 30.5556 16.1118 30.4528 16.1626 30.3608C16.2786 30.1488 16.4598 29.9796 16.6793 29.8784C16.8988 29.7772 17.145 29.7492 17.3816 29.7986Z" fill="#FFFCED"/>
<path d="M43.542 21.0649L44.8043 24.0789L38.4737 22.5922L37.2114 19.5782L43.542 21.0649Z" fill="#F66767"/>
<path d="M48.3535 19.27L49.6158 22.284C49.0613 23.0025 48.3169 23.5517 47.4666 23.8693C46.6163 24.187 45.6942 24.2605 44.8043 24.0815L43.542 21.0811C44.4331 21.2605 45.3567 21.1859 46.2075 20.8656C47.0582 20.5454 47.8018 19.9925 48.3535 19.27Z" fill="#F66767"/>
<path d="M32.5728 27.371L33.8325 30.3849C33.72 30.3615 33.6032 30.3703 33.4955 30.4105C33.3879 30.4507 33.2938 30.5206 33.2243 30.612L31.9619 27.5981C32.0321 27.5067 32.1267 27.4369 32.2347 27.3967C32.3428 27.3566 32.4599 27.3476 32.5728 27.371Z" fill="#FFFCED"/>
<path d="M14.4299 36.6048C13.9872 36.5016 13.5308 36.4706 13.0783 36.5129L11.816 33.499C12.2684 33.4575 12.7245 33.4877 13.1675 33.5882C13.5856 34.5937 14.0055 35.5984 14.4272 36.6021L14.1244 35.8777L13.1675 33.5909C13.632 33.6808 14.0682 33.8803 14.4401 34.1727C14.812 34.4651 15.1087 34.8421 15.3057 35.2722L16.568 38.2861C16.3711 37.856 16.0743 37.4791 15.7025 37.1867C15.3306 36.8942 14.8943 36.6948 14.4299 36.6048Z" fill="#FE3030"/>
<path d="M15.2948 35.2722L16.5571 38.2861C16.645 38.5011 16.7049 38.7264 16.7355 38.9565L15.4732 35.948C15.4443 35.7157 15.3843 35.4884 15.2948 35.2722Z" fill="#F66767"/>
<path d="M48.7238 25.9466L48.094 24.4383C47.8832 23.9355 47.6723 23.4354 47.4642 22.9327C47.5927 22.8336 47.7412 22.7637 47.8994 22.7277C48.0577 22.6918 48.2218 22.6907 48.3805 22.7245L48.5265 23.0759L48.6049 23.2597L48.7644 23.6409L48.9265 24.0328L49.0941 24.4275L49.1752 24.6248L49.2563 24.8194L49.4158 25.2005L49.5672 25.5655C49.6026 25.6178 49.6274 25.6766 49.6402 25.7385C49.4815 25.7046 49.3173 25.7057 49.1591 25.7417C49.0008 25.7776 48.8523 25.8475 48.7238 25.9466Z" fill="#FE3030"/>
<path d="M49.6401 25.7411C49.2202 24.7356 48.8003 23.7309 48.3804 22.7272L48.5264 23.0786L48.6832 23.4516L48.8454 23.8381L49.0102 24.2328L49.1751 24.6274L49.3373 25.014L49.4941 25.387L49.6401 25.7411Z" fill="#FE3030"/>
<path d="M50.013 25.9466C49.8589 25.5736 49.7022 25.2033 49.5481 24.833C49.2778 24.2004 49.0075 23.5652 48.7507 22.9408C48.8345 22.9705 48.7993 23.057 48.8237 23.1138L48.975 23.4787L49.0561 23.6679L49.2183 24.0545L49.3832 24.4491L49.4643 24.6464L49.6292 25.0384L49.7887 25.4195L49.8643 25.6033L50.013 25.9466Z" fill="#FE3030"/>
<path d="M50.0131 25.9466C49.9111 25.8442 49.7815 25.7738 49.6401 25.7439C49.2202 24.7384 48.8003 23.7337 48.3804 22.73C48.5206 22.7594 48.6493 22.8289 48.7508 22.93L48.8994 23.2814L48.9751 23.4652L49.1346 23.8464L49.2184 24.041L50.0131 25.9331V25.9466Z" fill="#FE3030"/>
<path d="M48.7238 25.9465C48.574 26.0408 48.4599 26.1824 48.3996 26.3489C48.3394 26.5154 48.3365 26.6972 48.3914 26.8656L47.1371 23.8544C47.0853 23.6856 47.09 23.5045 47.1505 23.3386C47.211 23.1727 47.324 23.0311 47.4723 22.9353C47.8399 23.8381 48.3454 25.0437 48.7238 25.9465Z" fill="#FE3030"/>
<path d="M50.1458 26.1385C50.1154 26.0653 50.0703 25.999 50.0133 25.9439L48.7591 22.9272C48.8156 22.9838 48.8606 23.0509 48.8915 23.1246L50.1458 26.1385Z" fill="#FE3030"/>
<path d="M20.1063 36.4643C19.3982 38.7568 19.5052 41.2237 20.409 43.4463L19.1494 40.4324C18.2429 38.2103 18.1359 35.7425 18.8466 33.4503L18.9926 33.8044L19.1494 34.1774L19.3116 34.564L19.4765 34.9586L19.5603 35.156L19.7224 35.5479L19.8035 35.7398L19.8819 35.929L19.9603 36.1129C20.0263 36.222 20.0755 36.3405 20.1063 36.4643Z" fill="#FE3030"/>
<path d="M20.9172 34.4073C20.5891 35.0687 20.3178 35.7569 20.1063 36.4643C19.6864 35.4606 19.2666 34.4559 18.8467 33.4504C19.0582 32.743 19.3295 32.0548 19.6576 31.3933C22.9554 24.66 31.7052 20.6054 39.1603 22.3596C43.1203 23.2895 45.918 25.6736 47.1993 28.7146L48.4616 31.7285C47.1912 28.6876 44.38 26.3034 40.42 25.3736C32.9514 23.6193 24.2015 27.6739 20.9172 34.4073Z" fill="#FE3030"/>
<path d="M46.6884 28.9199L47.948 31.9338C46.7235 29.0037 44.0123 26.7034 40.1956 25.8059C33.0027 24.1165 24.5663 28.0252 21.3848 34.5207C19.8927 37.567 19.8197 40.6486 20.901 43.2381L19.6413 40.2242C18.5601 37.6346 18.6331 34.5477 20.1225 31.5067C23.304 25.0193 31.7457 21.0999 38.9332 22.792C42.75 23.6894 45.4612 25.9898 46.6884 28.9199Z" fill="#C62525"/>
<path d="M45.0448 28.9416C44.8232 28.7416 44.5907 28.547 44.3474 28.3632C43.9293 27.3576 43.5094 26.353 43.0878 25.3492C43.331 25.5331 43.5635 25.725 43.7825 25.9277L43.8717 26.1385L43.9636 26.3629L44.0609 26.5927L44.1609 26.8305L44.2582 27.0657L44.3555 27.2982L44.4501 27.5225L44.5366 27.7307L44.5961 27.8739L44.6583 28.0226L44.7231 28.1794L44.7907 28.3361L44.8556 28.4956L44.9232 28.6497L44.9853 28.8011L45.0448 28.9416Z" fill="#FE3030"/>
<path d="M37.7791 28.5929L39.0387 31.6068L33.8326 30.3823L32.5729 27.3684L37.7791 28.5929Z" fill="#FFFCED"/>
<path d="M48.8833 23.1246L50.1457 26.1386C50.1977 26.3071 50.1934 26.488 50.1334 26.6538C50.0734 26.8197 49.961 26.9614 49.8132 27.0576C49.6835 27.1555 49.5345 27.2246 49.3761 27.2605C49.2176 27.2964 49.0533 27.2982 48.8941 27.2658C48.7542 27.2341 48.6259 27.1639 48.5238 27.063C48.4674 27.0074 48.4224 26.9413 48.3914 26.8684L47.1371 23.8545C47.1692 23.9268 47.214 23.9928 47.2696 24.0491C47.372 24.1495 47.5002 24.2196 47.6399 24.2518C47.7991 24.2842 47.9634 24.2825 48.1218 24.2466C48.2803 24.2107 48.4293 24.1415 48.559 24.0437C48.7074 23.9482 48.8198 23.8061 48.8786 23.6397C48.9373 23.4733 48.939 23.2921 48.8833 23.1246Z" fill="#FFFCED"/>
<path d="M34.1379 31.0824L35.3976 34.0964C35.2851 34.0736 35.1685 34.0827 35.061 34.1229C34.9535 34.163 34.8594 34.2325 34.7894 34.3234L33.5297 31.3095C33.5997 31.2186 33.6938 31.1491 33.8013 31.1089C33.9088 31.0688 34.0255 31.0596 34.1379 31.0824Z" fill="#FE3030"/>
<path d="M45.0449 28.9415C45.0322 28.9194 45.0222 28.8958 45.0151 28.8713L44.8908 28.5739L44.8232 28.4172L44.7908 28.3361L44.5367 27.7306L43.7825 25.9276C44.1094 26.2236 44.4139 26.5435 44.6935 26.8845L44.8421 27.2359L44.9989 27.6089L45.1611 27.9955L45.326 28.3901L45.4909 28.7848L45.6531 29.1713L45.8071 29.5443L45.9558 29.8984C45.674 29.5593 45.3697 29.2396 45.0449 28.9415Z" fill="#FE3030"/>
<path d="M46.2911 30.3255C46.183 30.1796 46.0722 30.0363 45.9559 29.8985C45.5343 28.8857 45.1171 27.8811 44.7044 26.8845C44.8206 27.0224 44.9342 27.1548 45.0396 27.3116L45.1504 27.5819L45.2666 27.8522L45.3883 28.1442L45.5126 28.4388L45.637 28.7361L45.7586 29.0281L45.8748 29.2984L45.9857 29.5687L46.0235 29.6579L46.0614 29.7498L46.1019 29.8471L46.1425 29.9444L46.1857 30.0417L46.2262 30.139L46.2641 30.2309L46.2911 30.3255Z" fill="#FE3030"/>
<path d="M35.7166 31.4608L36.9762 34.4747L35.3976 34.1044L34.138 31.0878L35.7166 31.4608Z" fill="#FE3030"/>
<path d="M33.5298 31.3176L34.7895 34.3316L33.3757 36.2886L32.1134 33.2747L33.5298 31.3176Z" fill="#FE3030"/>
<path d="M33.3161 36.6562L32.0564 33.6423C32.0329 33.5814 32.0258 33.5154 32.0357 33.4509C32.0457 33.3864 32.0724 33.3256 32.1132 33.2747L33.3756 36.2913C33.3345 36.3416 33.3075 36.4018 33.297 36.4658C33.2866 36.5298 33.2932 36.5955 33.3161 36.6562Z" fill="#FE3030"/>
<path d="M36.5736 32.0447L37.8359 35.0586C37.717 34.7883 37.4304 34.5829 36.9763 34.4775L35.7167 31.4608C36.1681 31.5689 36.4573 31.7636 36.5736 32.0447Z" fill="#FE3030"/>
<path d="M33.5865 36.867C33.5279 36.8558 33.4729 36.8309 33.4259 36.7942C33.3789 36.7575 33.3413 36.7102 33.3162 36.6561L32.0565 33.6422C32.0812 33.6965 32.1187 33.7441 32.1658 33.7808C32.2129 33.8175 32.2681 33.8423 32.3268 33.8531L33.5865 36.867Z" fill="#FFFCED"/>
<path d="M37.8357 35.0586C37.8357 35.0829 37.8546 35.1073 37.86 35.1316L36.595 32.1177C36.595 32.0933 36.5787 32.069 36.5679 32.0447L37.8357 35.0586Z" fill="#FFFCED"/>
<path d="M41.8041 33.7179C41.3553 32.6367 40.4345 31.9339 39.0415 31.6095L37.7792 28.5956C39.1704 28.9218 40.0921 29.6237 40.5444 30.7013L41.8041 33.7179Z" fill="#FFFCED"/>
<path d="M40.5443 30.7013L41.8039 33.7152C41.8123 33.7328 41.8195 33.7508 41.8255 33.7693L40.5659 30.7527C40.5578 30.7364 40.5524 30.7202 40.5443 30.7013Z" fill="#FE3030"/>
<path d="M33.8892 34.2179L35.1489 37.2346L33.5865 36.867L32.3268 33.853L33.8892 34.2179Z" fill="#FFFCED"/>
<path d="M37.8601 35.137C37.9763 35.4614 37.8871 35.8263 37.5898 36.2318L37.4411 35.8804L37.2843 35.5073L37.1222 35.1181L36.9573 34.7234L36.6302 33.9423C36.5302 33.7017 36.4302 33.4584 36.3275 33.2178C36.6167 32.8124 36.7059 32.4475 36.5978 32.1366C36.9789 33.0205 37.5087 34.2153 37.8601 35.137Z" fill="#FFFCED"/>
<path d="M37.6007 36.2183L36.3383 33.2043L37.6007 36.2183Z" fill="#FFFCED"/>
<path d="M15.4731 35.9398L16.7354 38.9565L17.4734 44.6546L16.2137 41.6406L15.4731 35.9398Z" fill="#F66767"/>
<path d="M35.2002 37.2483L35.1488 37.2348L33.8919 34.2208H33.9406L34.0757 34.5398L34.2163 34.8777L34.3649 35.2291L34.5136 35.5886L34.665 35.9454L34.8109 36.2968L34.9515 36.6374L35.0867 36.9563V36.9888L35.1002 37.0239L35.1164 37.0591L35.1299 37.0942L35.1461 37.132L35.1624 37.1672L35.1759 37.2023L35.2002 37.2483Z" fill="#FFFCED"/>
<path d="M35.2003 37.2481C34.7786 36.2425 34.3578 35.2379 33.9379 34.2341L34.0866 34.5855L34.2434 34.9586L34.4056 35.3478L34.5704 35.7425L34.7353 36.1371L34.8975 36.5236L35.0516 36.8967L35.2003 37.2481Z" fill="#FFFCED"/>
<path d="M21.974 34.6586C20.5468 37.5725 20.4738 40.5162 21.5064 42.9868L20.244 39.9729C19.2115 37.5023 19.2844 34.5667 20.7117 31.6447C23.7553 25.4276 31.7943 21.7055 38.6736 23.3246C40.2693 23.6819 41.7716 24.3718 43.0824 25.3492L43.2283 25.7006L43.3851 26.0736L43.5473 26.4602L43.7122 26.8548L43.8771 27.2495L44.0393 27.636L44.196 28.009L44.342 28.3631C43.0296 27.385 41.5254 26.6951 39.9279 26.3385C33.0566 24.7221 25.015 28.4469 21.974 34.6586Z" fill="#FE3030"/>
<path d="M46.291 30.3256C46.2835 30.3117 46.2772 30.2972 46.272 30.2823L46.2342 30.1904L46.2153 30.1445L46.1315 29.9499L45.9747 29.5741C45.6611 28.8209 45.3458 28.0667 45.0286 27.3116C45.4533 27.888 45.8073 28.5133 46.0828 29.1741L47.3452 32.188C47.0675 31.5283 46.7137 30.9032 46.291 30.3256Z" fill="#FE3030"/>
<path d="M36.4788 37.1212C36.3788 36.8779 36.2761 36.6373 36.1761 36.394C36.0761 36.1508 35.9571 35.8724 35.849 35.6129L35.2192 34.1072C35.6695 33.9212 36.0577 33.6109 36.3382 33.2125L36.4869 33.5639L36.641 33.9369L36.8032 34.3235L36.9681 34.7181L37.133 35.1128L37.2951 35.502L37.4519 35.8751L37.6006 36.2265C37.3197 36.6256 36.9305 36.9361 36.4788 37.1212Z" fill="#FFFCED"/>
<path d="M36.4787 37.1211C36.08 37.3027 35.6324 37.3474 35.2056 37.2482C34.7839 36.2462 34.3631 35.2416 33.9432 34.2342C34.3709 34.3334 34.8194 34.2888 35.2191 34.1072L36.4787 37.1211Z" fill="#FFFCED"/>
<path d="M35.7166 31.4609C36.2068 31.5781 36.5014 31.797 36.6005 32.1178C36.7168 32.4422 36.6248 32.8071 36.3302 33.199C36.0496 33.5974 35.6615 33.9077 35.2111 34.0937C34.8114 34.2753 34.363 34.32 33.9353 34.2208H33.8812L32.3188 33.8532C32.2569 33.8431 32.1988 33.8168 32.1504 33.777C32.102 33.7371 32.065 33.6851 32.0433 33.6262C32.0216 33.5674 32.0159 33.5039 32.0267 33.4421C32.0376 33.3803 32.0648 33.3226 32.1053 33.2747L33.5217 31.3177C33.5917 31.2267 33.6858 31.1573 33.7933 31.1171C33.9008 31.077 34.0174 31.0678 34.1299 31.0906L35.7166 31.4609Z" fill="#FFFCED"/>
<path d="M31.9647 27.5955L33.2244 30.6121L25.007 42.0002L23.7474 38.9862L31.9647 27.5955Z" fill="#FFFCED"/>
<path d="M21.1334 43.7465C21.0523 43.5816 20.9739 43.4113 20.9036 43.241L19.6413 40.2271C19.7143 40.3973 19.79 40.5649 19.8711 40.7325C19.917 40.8379 19.9765 40.9785 20.0197 41.0839L20.1765 41.457L20.3387 41.8462L20.5036 42.2408L20.6685 42.6328L20.8307 43.022L20.9847 43.3951L21.1334 43.7465Z" fill="#FE3030"/>
<path d="M30.2807 36.4615L31.5404 39.4755C31.4283 39.4516 31.3117 39.4602 31.2044 39.5005C31.0971 39.5407 31.0036 39.6108 30.9349 39.7025L29.6725 36.6886C29.7421 36.5972 29.8362 36.5273 29.9438 36.4871C30.0514 36.447 30.1683 36.4381 30.2807 36.4615Z" fill="#FE3030"/>
<path d="M26.6911 40.2053L27.9535 43.2193L25.2207 42.5759L23.9583 39.562L26.6911 40.2053Z" fill="#FE3030"/>
<path d="M25.007 42.0001C24.9669 42.0509 24.9406 42.1112 24.9307 42.1751C24.9207 42.2391 24.9275 42.3045 24.9502 42.3651L23.6879 39.3511C23.6655 39.2903 23.6592 39.2248 23.6696 39.1608C23.68 39.0969 23.7068 39.0367 23.7473 38.9862L25.007 42.0001Z" fill="#FFFCED"/>
<path d="M24.9503 42.3651L23.6879 39.3512C23.7132 39.4054 23.7508 39.4529 23.7978 39.49C23.8447 39.5271 23.8997 39.5527 23.9582 39.5647L25.2206 42.5787C25.1617 42.5674 25.1063 42.5421 25.0593 42.505C25.0122 42.4678 24.9748 42.4198 24.9503 42.3651Z" fill="#FE3030"/>
<path d="M31.1348 36.6589L32.3944 39.6755L31.5402 39.4728L30.2806 36.4589L31.1348 36.6589Z" fill="#FE3030"/>
<path d="M31.4294 37.0266L32.689 40.0405L32.389 43.9654L31.1293 40.9515L31.4294 37.0266Z" fill="#FFFCED"/>
<path d="M31.4052 36.8725L32.6648 39.8864C32.6403 39.8319 32.6029 39.7843 32.5558 39.7475C32.5087 39.7108 32.4533 39.6861 32.3945 39.6756L31.1349 36.6616C31.1935 36.6726 31.2487 36.6975 31.2957 36.7342C31.3427 36.7708 31.3803 36.8183 31.4052 36.8725Z" fill="#FE3030"/>
<path d="M31.4053 36.8724L32.6649 39.8864C32.6852 39.9351 32.6936 39.9879 32.6892 40.0405L31.4296 37.0292C31.4329 36.9758 31.4246 36.9223 31.4053 36.8724Z" fill="#FFFCED"/>
<path d="M16.2139 41.6407L17.4735 44.6547C17.6655 46.1306 16.6302 47.6497 15.0408 48.4066L13.7811 45.3926C15.3705 44.6331 16.4058 43.1166 16.2139 41.6407Z" fill="#F66767"/>
<path d="M13.1567 33.5909L13.2675 33.8613L13.381 34.1316L13.5 34.4154L13.6216 34.7073L13.7459 35.002L13.8703 35.2993L13.9919 35.5939L14.1136 35.8832L13.1567 33.5936V33.5909Z" fill="#FE3030"/>
<path d="M15.4732 35.9481L16.2139 41.6462C16.4058 43.122 15.3705 44.6385 13.7811 45.398C11.524 42.0327 10.7563 37.8456 11.8051 33.5045C12.2575 33.463 12.7136 33.4931 13.1567 33.5937C14.3974 33.8802 15.3191 34.7452 15.4732 35.9481Z" fill="#F66767"/>
<path d="M29.6726 36.6859L30.9349 39.6998L28.5616 42.9922L27.2993 39.9783L29.6726 36.6859Z" fill="#FE3030"/>
<path d="M27.2992 39.9783L28.5615 42.9922C28.4919 43.0836 28.3979 43.1535 28.2902 43.1937C28.1826 43.2339 28.0658 43.2427 27.9533 43.2193L26.691 40.2053C26.8035 40.2288 26.9203 40.2199 27.0279 40.1797C27.1355 40.1396 27.2296 40.0697 27.2992 39.9783Z" fill="#FE3030"/>
<path d="M40.5659 30.7527L41.8255 33.7693C42.2688 34.874 42.0525 36.0282 41.1768 37.232C40.6193 38.0034 39.9008 38.6444 39.071 39.1106C38.3714 39.5196 37.6072 39.8066 36.8113 39.9594C36.6911 39.9758 36.5793 40.0299 36.4919 40.114C36.4044 40.198 36.3459 40.3076 36.3247 40.427L35.0624 37.4131C35.084 37.2938 35.1426 37.1845 35.23 37.1005C35.3173 37.0165 35.4289 36.9623 35.5489 36.9454C36.3457 36.7927 37.1108 36.5057 37.8114 36.0967C38.642 35.6258 39.3604 34.9802 39.9171 34.2045C40.7929 33.0116 41.0092 31.8609 40.5659 30.7527Z" fill="#FE3030"/>
<path d="M19.6495 47.8416L18.3871 44.8276C18.4331 44.9331 18.4899 45.0736 18.5358 45.179L18.6926 45.5521L18.8521 45.9413L19.0197 46.336L19.1846 46.7306L19.3467 47.1171L19.5008 47.4902L19.6495 47.8416Z" fill="#FE3030"/>
<path d="M20.5657 47.6254C20.4068 47.5928 20.2427 47.5948 20.0846 47.6312C19.9266 47.6676 19.7781 47.7375 19.6494 47.8362L19.5007 47.4848L19.3466 47.1118L19.025 46.3306C18.9141 46.0603 18.806 45.8089 18.6979 45.5467C18.5898 45.2845 18.4952 45.0629 18.3925 44.8223C18.5217 44.7235 18.6706 44.6536 18.8291 44.6172C18.9877 44.5808 19.1521 44.5789 19.3115 44.6114L19.4575 44.9628L19.6142 45.3386L19.7764 45.7251L19.9413 46.1198L20.1062 46.5144L20.2684 46.9009L20.4252 47.274L20.5657 47.6254Z" fill="#FE3030"/>
<path d="M20.5658 47.6254C20.1478 46.6234 19.7279 45.6188 19.3062 44.6115L19.4522 44.9656L19.609 45.3386L19.7711 45.7251L19.936 46.1198L20.1009 46.5144L20.2631 46.901L20.4199 47.274L20.5658 47.6254Z" fill="#FE3030"/>
<path d="M20.9389 47.8414C20.8354 47.741 20.7064 47.6709 20.5658 47.6387C20.1478 46.6367 19.7279 45.6321 19.3062 44.6248C19.4462 44.6564 19.5745 44.7266 19.6765 44.8275C19.7321 44.8832 19.7762 44.9494 19.8063 45.0221L21.0686 48.036C21.0376 47.9638 20.9936 47.8979 20.9389 47.8414Z" fill="#FE3030"/>
<path d="M19.6495 47.8416C19.4991 47.936 19.3846 48.078 19.3243 48.2451C19.264 48.4122 19.2615 48.5946 19.317 48.7633L18.0547 45.7467C18.0026 45.5782 18.0069 45.3973 18.0669 45.2314C18.1269 45.0656 18.2393 44.9238 18.3872 44.8276L18.5358 45.179L18.6899 45.5521L18.8521 45.9413L19.017 46.336L19.1819 46.7279L19.3441 47.1171L19.5008 47.4902L19.6495 47.8416Z" fill="#FE3030"/>
<path d="M32.4134 44.1193L31.1538 41.1054C31.1333 41.0577 31.1249 41.0057 31.1294 40.954L32.3891 43.9679C32.3859 44.0195 32.3943 44.0712 32.4134 44.1193Z" fill="#FFFCED"/>
<path d="M19.8062 45.0087L21.0685 48.0226C21.1208 48.1908 21.1169 48.3715 21.0574 48.5373C20.9979 48.7031 20.8861 48.8451 20.7387 48.9416C20.6089 49.0403 20.4596 49.1102 20.3006 49.1466C20.1416 49.1829 19.9768 49.1849 19.817 49.1525C19.6766 49.122 19.548 49.0516 19.4467 48.9498C19.3911 48.895 19.347 48.8298 19.3169 48.7578L18.0546 45.7412C18.0849 45.8138 18.129 45.8799 18.1843 45.9358C18.287 46.0372 18.4164 46.1075 18.5573 46.1386C18.7167 46.1711 18.8812 46.1692 19.0397 46.1328C19.1983 46.0964 19.3472 46.0265 19.4764 45.9277C19.6261 45.8334 19.74 45.6916 19.7997 45.5251C19.8595 45.3585 19.8618 45.1767 19.8062 45.0087Z" fill="#FFFCED"/>
<path d="M32.4135 44.1193L31.1539 41.1053C31.1783 41.1602 31.2156 41.2083 31.2627 41.2455C31.3098 41.2827 31.3652 41.3079 31.4242 41.3189L32.6838 44.3274C32.6254 44.3169 32.5703 44.2926 32.5233 44.2563C32.4762 44.2201 32.4386 44.1731 32.4135 44.1193Z" fill="#FE3030"/>
<path d="M50.3511 27.9847L51.6108 30.9987L52.3514 36.6968L51.0918 33.6828L50.3511 27.9847Z" fill="#FE3030"/>
<path d="M52.3513 36.6994C52.3816 36.9299 52.4425 37.1553 52.5324 37.3697L51.2701 34.3558C51.1813 34.1412 51.1213 33.9158 51.0917 33.6854C51.462 34.5964 52.0972 35.7533 52.3513 36.6994Z" fill="#FE3030"/>
<path d="M35.0625 37.4104L36.3248 40.427L36.0761 44.5222L34.8138 41.5083L35.0625 37.4104Z" fill="#FE3030"/>
<path d="M34.1243 41.9542L35.3867 44.9681L32.6836 44.3329L31.424 41.319L34.1243 41.9542Z" fill="#FE3030"/>
<path d="M34.8139 41.5083L36.0762 44.5222C36.0622 44.5978 36.0329 44.6697 35.9902 44.7336C35.9475 44.7975 35.8921 44.8519 35.8276 44.8937C35.7631 44.9354 35.6907 44.9636 35.6149 44.9764C35.5392 44.9892 35.4616 44.9864 35.3869 44.9682L34.1246 41.9543C34.1992 41.9725 34.2768 41.9753 34.3526 41.9625C34.4284 41.9496 34.5007 41.9215 34.5653 41.8797C34.6298 41.838 34.6851 41.7835 34.7279 41.7197C34.7706 41.6558 34.7999 41.5839 34.8139 41.5083Z" fill="#FE3030"/>
<path d="M46.0828 29.1714L47.3425 32.1853C48.3777 34.6559 48.3047 37.5915 46.8775 40.5162C43.8339 46.7333 35.7949 50.4554 28.9183 48.8363C25.2664 47.9794 22.6768 45.7872 21.5064 42.9895L20.2468 39.9756C21.4145 42.7733 24.004 44.9655 27.6559 45.8224C34.5325 47.4442 42.5742 43.714 45.6152 37.5023C47.0424 34.5965 47.1154 31.642 46.0828 29.1714Z" fill="#FFFCED"/>
<path d="M47.4641 40.6541C47.0654 41.4666 46.5893 42.2388 46.0423 42.9598C45.6206 41.9543 45.1998 40.9497 44.78 39.9459C45.3278 39.2249 45.8049 38.4528 46.2045 37.6402C47.6966 34.5911 47.7723 31.5096 46.6856 28.92L47.948 31.934C49.0292 34.5235 48.9589 37.6077 47.4641 40.6541Z" fill="#FE3030"/>
<path d="M28.6589 49.366C25.0638 48.5227 22.4418 46.4332 21.1336 43.7463L19.8712 40.7324C21.1903 43.4193 23.8015 45.506 27.3966 46.3521C33.6894 47.8334 40.9363 45.0222 44.7801 39.9458C44.8261 40.0512 44.8828 40.1918 44.9288 40.2972L45.0828 40.6702L45.245 41.0568L45.4099 41.4514L45.5748 41.8461L45.737 42.2326L45.8938 42.6056L46.0424 42.9597C42.1987 48.0361 34.949 50.8473 28.6589 49.366Z" fill="#FE3030"/>
<path d="M47.1859 28.7118L48.4455 31.7257C49.57 34.4126 49.4916 37.6076 47.9454 40.7675C44.6477 47.5009 35.9005 51.5528 28.4454 49.8012C24.4854 48.8687 21.6742 46.49 20.4037 43.4463L19.1441 40.4324C20.4146 43.4706 23.2258 45.8547 27.1858 46.7873C34.6409 48.5389 43.388 44.487 46.6858 37.7536C48.232 34.5964 48.3103 31.396 47.1859 28.7118Z" fill="#C62525"/>
<path d="M39.1467 22.3595C46.6018 24.1111 49.9834 31.0094 46.6856 37.7671C43.3879 44.5248 34.6407 48.5524 27.1856 46.8008C19.7305 45.0492 16.3463 38.1509 19.644 31.4068C22.9418 24.6626 31.6916 20.6052 39.1467 22.3595ZM27.4046 46.3521C34.5948 48.0442 43.0311 44.1356 46.2126 37.6401C49.3941 31.1446 46.1315 24.4842 38.9413 22.792C31.7511 21.0999 23.3121 25.0113 20.1306 31.5068C16.949 38.0023 20.2144 44.6627 27.4046 46.3521Z" fill="#C62525"/>
<path d="M38.6737 23.3246C45.5504 24.9464 48.6589 31.2878 45.6152 37.5022C42.5716 43.7166 34.5326 47.4387 27.656 45.8223C20.7793 44.2059 17.6735 37.859 20.7117 31.6446C23.75 25.4303 31.7971 21.7054 38.6737 23.3246ZM39.9171 34.218C40.7929 33.016 41.0092 31.8618 40.5659 30.7553C40.1226 29.6489 39.1936 28.928 37.779 28.5929L32.5729 27.3684C32.46 27.345 32.3428 27.3539 32.2348 27.3941C32.1267 27.4342 32.0322 27.504 31.962 27.5954L23.7473 38.9835C23.7059 39.0309 23.678 39.0885 23.6665 39.1503C23.655 39.2121 23.6602 39.2759 23.6818 39.335C23.7033 39.3941 23.7403 39.4464 23.7889 39.4863C23.8375 39.5262 23.896 39.5523 23.9581 39.562L26.691 40.2026C26.8034 40.2261 26.9202 40.2172 27.0279 40.177C27.1355 40.1368 27.2296 40.067 27.2991 39.9755L29.6725 36.6859C29.742 36.5945 29.8361 36.5246 29.9437 36.4844C30.0514 36.4442 30.1682 36.4354 30.2807 36.4588L31.1348 36.6589C31.2205 36.6722 31.2982 36.7169 31.3527 36.7844C31.4071 36.8518 31.4345 36.9372 31.4295 37.0238L31.1294 40.9513C31.1244 41.0379 31.1517 41.1233 31.2062 41.1907C31.2607 41.2582 31.3384 41.303 31.4241 41.3163L34.1271 41.9515C34.2018 41.9697 34.2794 41.9725 34.3552 41.9596C34.4309 41.9468 34.5033 41.9187 34.5678 41.8769C34.6323 41.8352 34.6877 41.7807 34.7304 41.7168C34.7732 41.653 34.8024 41.581 34.8164 41.5055L35.0651 37.4103C35.0867 37.2911 35.1453 37.1817 35.2327 37.0977C35.32 37.0138 35.4317 36.9595 35.5517 36.9427C36.3484 36.7899 37.1135 36.5029 37.8141 36.0939C38.6447 35.623 39.3632 34.9774 39.9198 34.2018" fill="#FFFCED"/>
<path d="M40.5659 30.7527C41.0056 31.8609 40.7894 33.016 39.9172 34.218C39.3605 34.9937 38.6421 35.6393 37.8115 36.1102C37.1108 36.5192 36.3458 36.8062 35.549 36.9589C35.429 36.9758 35.3174 37.03 35.23 37.114C35.1427 37.198 35.084 37.3073 35.0625 37.4266L34.8138 41.5217C34.7998 41.5973 34.7705 41.6692 34.7278 41.7331C34.685 41.797 34.6297 41.8514 34.5652 41.8932C34.5007 41.9349 34.4283 41.9631 34.3525 41.9759C34.2767 41.9887 34.1991 41.9859 34.1245 41.9677L31.4214 41.3325C31.3357 41.3192 31.258 41.2745 31.2036 41.207C31.1491 41.1395 31.1217 41.0542 31.1268 40.9676L31.4295 37.0292C31.4346 36.9426 31.4072 36.8573 31.3527 36.7898C31.2982 36.7223 31.2206 36.6776 31.1349 36.6643L30.2807 36.4643C30.1682 36.4408 30.0514 36.4497 29.9438 36.4899C29.8361 36.53 29.7421 36.5999 29.6725 36.6913L27.2992 39.981C27.2296 40.0724 27.1356 40.1423 27.0279 40.1824C26.9203 40.2226 26.8035 40.2315 26.691 40.208L23.9582 39.5674C23.896 39.5578 23.8376 39.5316 23.789 39.4917C23.7404 39.4518 23.7034 39.3996 23.6818 39.3405C23.6603 39.2814 23.655 39.2176 23.6665 39.1558C23.6781 39.0939 23.706 39.0363 23.7474 38.9889L31.962 27.6009C32.0322 27.5095 32.1268 27.4397 32.2348 27.3995C32.3429 27.3594 32.46 27.3505 32.5729 27.3738L37.7791 28.5983C39.1937 28.9281 40.1226 29.6462 40.5659 30.7527ZM36.3383 33.2125C36.6248 32.807 36.7167 32.4421 36.6086 32.1312C36.5005 31.8204 36.214 31.5906 35.7247 31.4744L34.138 31.0824C34.0255 31.0596 33.9089 31.0688 33.8014 31.1089C33.6939 31.1491 33.5998 31.2186 33.5298 31.3095L32.1134 33.2665C32.0729 33.3144 32.0457 33.3721 32.0348 33.4339C32.0239 33.4957 32.0296 33.5592 32.0514 33.6181C32.0731 33.6769 32.11 33.7289 32.1585 33.7688C32.2069 33.8087 32.265 33.835 32.3269 33.845L33.8893 34.2126H33.9434C34.3711 34.3118 34.8195 34.2671 35.2192 34.0856C35.6696 33.8995 36.0577 33.5892 36.3383 33.1908" fill="#FE3030"/>
<path d="M50.3051 37.5402L50.4132 37.8105L50.5295 38.0808L50.6484 38.3646L50.77 38.6565L50.8944 38.9512L51.016 39.2485L51.1404 39.5431L51.262 39.8324L50.3051 37.5429V37.5402Z" fill="#FE3030"/>
<path d="M52.5432 37.3699L51.2808 34.356C51.4778 34.7861 51.7745 35.163 52.1464 35.4554C52.5182 35.7479 52.9545 35.9473 53.419 36.0373C53.6199 36.0843 53.8241 36.1159 54.0299 36.1319L55.2895 39.1458C55.0838 39.1297 54.8796 39.098 54.6786 39.0512C54.2146 38.9609 53.7789 38.7612 53.4075 38.4688C53.0362 38.1764 52.7398 37.7997 52.5432 37.3699Z" fill="#F66767"/>
<path d="M50.3483 41.119C50.3022 41.2052 50.2754 41.3003 50.2698 41.3979C50.2642 41.4955 50.2799 41.5931 50.3159 41.6839L49.0562 38.67C49.0199 38.5793 49.0037 38.4818 49.0089 38.3843C49.014 38.2867 49.0403 38.1914 49.086 38.1051C49.5077 39.1088 49.9284 40.1126 50.3483 41.1163C49.9266 40.1144 49.5058 39.1106 49.086 38.1051C49.2019 37.8928 49.383 37.7234 49.6024 37.6217C49.8219 37.52 50.0682 37.4914 50.3051 37.5401C50.7231 38.5457 51.143 39.5503 51.5647 40.5541C51.1448 39.5485 50.7249 38.5439 50.3051 37.5401C50.4145 37.5613 50.5173 37.6085 50.6048 37.6776C50.6923 37.7468 50.7619 37.8359 50.8078 37.9375L52.0675 40.9514C52.0215 40.8498 51.9519 40.7607 51.8644 40.6916C51.7769 40.6224 51.6742 40.5753 51.5647 40.5541C51.3282 40.5055 51.0823 40.5342 50.8633 40.6359C50.6444 40.7376 50.4638 40.907 50.3483 41.119Z" fill="#FE3030"/>
<path d="M50.8078 37.9374L52.0674 40.9513C52.1038 41.042 52.12 41.1395 52.1148 41.2371C52.1097 41.3346 52.0834 41.4299 52.0377 41.5163C51.9216 41.729 51.7401 41.8988 51.5201 42.0005C51.3001 42.1023 51.0532 42.1305 50.8159 42.0812C50.7068 42.06 50.6043 42.0128 50.5173 41.9437C50.4302 41.8745 50.3612 41.7854 50.3158 41.6838L49.0562 38.6699C49.1019 38.7712 49.1711 38.8601 49.2581 38.9292C49.3451 38.9983 49.4473 39.0457 49.5563 39.0673C49.7932 39.1169 50.0398 39.0887 50.2595 38.9869C50.4791 38.8851 50.66 38.7152 50.7754 38.5023C50.8215 38.4162 50.8482 38.321 50.8538 38.2234C50.8594 38.1259 50.8437 38.0283 50.8078 37.9374Z" fill="#FFFCED"/>
<path d="M38.9334 22.792C46.1236 24.4842 49.3862 31.1445 46.2047 37.64C43.0232 44.1356 34.5814 48.0442 27.3967 46.3521C20.2119 44.66 16.9438 38.0023 20.1227 31.5068C23.3015 25.0113 31.7432 21.0999 38.9334 22.792ZM27.6561 45.8223C34.5328 47.4441 42.5744 43.7139 45.6154 37.5022C48.6564 31.2905 45.5505 24.941 38.6739 23.3245C31.7973 21.7081 23.7556 25.4329 20.7119 31.6446C17.6683 37.8563 20.7795 44.2058 27.6561 45.8223Z" fill="#FE3030"/>
<path d="M37.0276 51.4988C36.6078 50.4933 36.1879 49.4886 35.768 48.4849L35.914 48.8363L36.0707 49.2093L36.2329 49.5958L36.3978 49.9905L36.5627 50.3851L36.7249 50.7717L36.8817 51.1447L37.0276 51.4988Z" fill="#FE3030"/>
<path d="M36.5572 51.5015C36.3689 51.5369 36.1938 51.6231 36.0508 51.7508C35.9079 51.8785 35.8026 52.0428 35.7463 52.2259C35.3246 51.2222 34.9038 50.2176 34.4839 49.212C34.5408 49.0291 34.6463 48.8651 34.7891 48.7375C34.9319 48.6099 35.1068 48.5235 35.2949 48.4876C35.7166 49.4895 36.1373 50.4942 36.5572 51.5015C36.1355 50.496 35.7148 49.4913 35.2949 48.4876C35.4504 48.4511 35.6123 48.4511 35.7679 48.4876L35.9139 48.839L36.0707 49.212L36.2328 49.5986L36.3977 49.9932L36.5626 50.3878L36.7248 50.7744L36.8816 51.1474L37.0275 51.5015C36.8729 51.465 36.7119 51.465 36.5572 51.5015Z" fill="#FE3030"/>
<path d="M37.5304 51.8963C37.4845 51.7949 37.4149 51.7061 37.3273 51.6374C37.2398 51.5687 37.137 51.5221 37.0276 51.5016C36.6078 50.4961 36.1879 49.4914 35.768 48.4877C35.8772 48.5086 35.9798 48.5554 36.0673 48.624C36.1547 48.6927 36.2245 48.7812 36.2708 48.8823L37.5304 51.8963Z" fill="#FE3030"/>
<path d="M35.7381 52.4692C35.7443 52.524 35.7579 52.5777 35.7787 52.6287L34.5191 49.6148C34.4977 49.5638 34.4832 49.5101 34.4758 49.4553C34.8975 50.4609 35.3174 51.4655 35.7354 52.4692C35.3174 51.4637 34.8975 50.4591 34.4758 49.4553C34.461 49.3749 34.461 49.2925 34.4758 49.212C34.8975 50.2176 35.3183 51.2222 35.7381 52.226C35.7234 52.3064 35.7234 52.3888 35.7381 52.4692Z" fill="#FE3030"/>
<path d="M32.3351 54.0749C31.8864 53.5596 31.2819 53.2047 30.6132 53.064L29.3509 50.05C30.0193 50.1917 30.6241 50.5453 31.0754 51.0583L31.2214 51.4124L31.3782 51.7854L31.5404 52.172L31.7053 52.5666L31.8702 52.9613L32.0323 53.3478L32.1891 53.7208L32.3351 54.0749Z" fill="#FE3030"/>
<path d="M32.4838 54.2668C32.4379 54.2019 32.3892 54.137 32.3351 54.0749L31.0755 51.0582C31.1269 51.1231 31.1782 51.188 31.2242 51.2528L32.1513 53.4748L32.1919 53.5667L32.2324 53.664L32.2757 53.7667L32.3189 53.8694L32.3622 53.9749L32.4054 54.0776L32.446 54.1749L32.4838 54.2668Z" fill="#FE3030"/>
<path d="M32.4838 54.2667C32.4703 54.2397 32.4568 54.2019 32.446 54.1748L32.3838 54.0262L32.3406 53.9235L32.3189 53.8694L32.1513 53.4747L31.2242 51.2528C31.33 51.4038 31.4206 51.565 31.4945 51.734L32.7541 54.7479C32.6813 54.5784 32.5907 54.4171 32.4838 54.2667Z" fill="#FE3030"/>
<path d="M36.2707 48.8795L37.5303 51.8962C37.552 51.9471 37.5666 52.0007 37.5736 52.0556C37.6276 52.4719 37.26 52.9071 36.7627 53.0233C36.6071 53.0598 36.4452 53.0598 36.2896 53.0233C36.1804 53.0024 36.0778 52.9557 35.9904 52.887C35.9029 52.8184 35.8331 52.7298 35.7869 52.6287L34.5272 49.6148C34.5731 49.7161 34.6428 49.8049 34.7303 49.8736C34.8178 49.9423 34.9206 49.9889 35.03 50.0094C35.1846 50.0459 35.3457 50.0459 35.5003 50.0094C36.0085 49.8932 36.3761 49.4688 36.3113 49.0417C36.3054 48.986 36.2917 48.9314 36.2707 48.8795Z" fill="#FFFCED"/>
<path d="M31.489 51.7339L32.7486 54.7478C32.8844 55.075 32.9533 55.4261 32.9513 55.7804L31.689 52.7665C31.6919 52.4124 31.6239 52.0613 31.489 51.7339Z" fill="#F66767"/>
<path d="M54.0183 36.1318C53.7181 37.1157 53.3393 38.0738 52.8857 38.997C52.2959 40.1953 51.5965 41.3364 50.7962 42.4056C50.6632 42.3582 50.5279 42.3176 50.3907 42.284C49.7139 42.1447 49.0151 42.152 48.3414 42.3054C47.6677 42.4588 47.0346 42.7548 46.4848 43.1733L40.8948 47.3847C39.6081 48.3524 39.0594 49.7553 39.3676 50.9474C36.9095 51.9229 34.3226 52.5357 31.6881 52.7665C31.6881 51.4907 30.8204 50.3959 29.35 50.0499L23.0193 48.5606C22.2208 48.399 21.3944 48.4405 20.6161 48.6814C19.8378 48.9223 19.1324 49.3547 18.5647 49.9391C16.6652 48.7823 15.0356 47.232 13.7856 45.3925C15.3696 44.633 16.4049 43.1165 16.2184 41.6407L15.4723 35.948C15.3183 34.7505 14.3911 33.8855 13.1558 33.5936C12.7128 33.4931 12.2567 33.463 11.8043 33.5044C12.1296 32.1798 12.5982 30.8946 13.2017 29.6714C13.7096 28.6384 14.3009 27.6485 14.9696 26.7115C15.3477 26.9927 15.7804 27.1916 16.24 27.2954C16.9168 27.4359 17.6158 27.4292 18.2898 27.2758C18.9637 27.1223 19.5967 26.8257 20.146 26.4061L25.7359 22.1974C27.3848 20.954 27.82 18.9997 26.7928 17.6914C29.4351 16.6503 32.2244 16.03 35.0589 15.8533C34.4588 17.5211 35.3643 19.1429 37.2213 19.5781L43.5411 21.081C44.431 21.2619 45.3538 21.1894 46.2044 20.8716C47.055 20.5538 47.7994 20.0035 48.3526 19.2835C50.2077 20.566 51.7528 22.2468 52.8749 24.2031C51.2341 24.9437 50.1529 26.4926 50.3502 27.9874L51.0908 33.6882C51.2476 34.883 52.1721 35.7479 53.4074 36.0399C53.6084 36.086 53.8126 36.1167 54.0183 36.1318ZM27.1848 46.7873C34.6399 48.5389 43.3871 44.487 46.6848 37.7536C49.9826 31.0203 46.601 24.1112 39.1459 22.3596C31.6908 20.608 22.941 24.6599 19.6432 31.3933C16.3454 38.1267 19.7297 45.033 27.1848 46.7873ZM49.569 39.0673C49.8059 39.1169 50.0526 39.0887 50.2722 38.987C50.4918 38.8852 50.6728 38.7152 50.7881 38.5024C50.8389 38.4104 50.8668 38.3075 50.8694 38.2025C50.872 38.0975 50.8493 37.9933 50.8031 37.8989C50.757 37.8045 50.6888 37.7226 50.6043 37.6602C50.5198 37.5977 50.4215 37.5565 50.3177 37.5401C50.0808 37.4914 49.8346 37.52 49.6151 37.6217C49.3957 37.7234 49.2146 37.8928 49.0987 38.105C49.0485 38.1971 49.0211 38.2999 49.0188 38.4047C49.0165 38.5095 49.0393 38.6134 49.0854 38.7076C49.1314 38.8018 49.1994 38.8836 49.2835 38.9462C49.3676 39.0088 49.4655 39.0503 49.569 39.0673ZM16.6455 31.323C16.8824 31.3722 17.1289 31.3438 17.3484 31.242C17.5679 31.1403 17.7489 30.9706 17.8646 30.7581C17.9148 30.6662 17.9422 30.5636 17.9445 30.4589C17.9469 30.3542 17.924 30.2505 17.8779 30.1564C17.8318 30.0624 17.7639 29.9808 17.6797 29.9185C17.5955 29.8562 17.4976 29.8151 17.3942 29.7985C17.1576 29.7491 16.9114 29.7771 16.6919 29.8783C16.4723 29.9795 16.2912 30.1487 16.1751 30.3607C16.1243 30.4527 16.0965 30.5556 16.0938 30.6606C16.0912 30.7656 16.1139 30.8698 16.1601 30.9642C16.2062 31.0586 16.2744 31.1405 16.3589 31.2029C16.4434 31.2654 16.5417 31.3066 16.6455 31.323ZM35.4914 50.004C35.9995 49.8878 36.3672 49.4634 36.3023 49.0363C36.2817 48.8989 36.2184 48.7715 36.1214 48.672C36.0243 48.5726 35.8985 48.5061 35.7617 48.4822C35.6061 48.4457 35.4442 48.4457 35.2886 48.4822C34.7804 48.5984 34.4182 49.0228 34.4777 49.4499C34.4991 49.5869 34.5626 49.714 34.6595 49.8133C34.7564 49.9126 34.8818 49.9792 35.0183 50.004C35.173 50.0405 35.334 50.0405 35.4887 50.004H35.4914ZM19.4729 45.925C19.8838 45.6169 19.973 45.1141 19.6729 44.8114C19.5709 44.7105 19.4426 44.6403 19.3026 44.6086C19.1432 44.5761 18.9788 44.578 18.8202 44.6144C18.6617 44.6508 18.5128 44.7207 18.3836 44.8195C17.9727 45.1303 17.8835 45.6304 18.1808 45.9332C18.2835 46.0346 18.4129 46.1049 18.5539 46.1359C18.7132 46.1685 18.8777 46.1665 19.0362 46.1301C19.1948 46.0938 19.3437 46.0238 19.4729 45.925ZM47.4606 22.9326C47.047 23.2435 46.9551 23.7436 47.2579 24.0463C47.3603 24.1467 47.4884 24.2169 47.6282 24.249C47.7874 24.2815 47.9516 24.2797 48.1101 24.2438C48.2685 24.2079 48.4175 24.1388 48.5472 24.0409C48.9608 23.73 49.05 23.23 48.7473 22.9245C48.6458 22.8234 48.5171 22.754 48.3769 22.7245C48.2182 22.6907 48.0541 22.6918 47.8959 22.7277C47.7376 22.7637 47.5891 22.8336 47.4606 22.9326ZM31.4584 18.8591C30.9529 18.9726 30.5853 19.3997 30.6474 19.8268C30.6706 19.9617 30.735 20.0862 30.8319 20.183C30.9287 20.2798 31.0531 20.3442 31.188 20.3674C31.3436 20.4039 31.5055 20.4039 31.6611 20.3674C32.1666 20.2539 32.5342 19.8268 32.472 19.3997C32.4467 19.2657 32.3815 19.1424 32.2851 19.046C32.1887 18.9496 32.0654 18.8844 31.9314 18.8591C31.7757 18.8242 31.6141 18.8242 31.4584 18.8591Z" fill="#FE3030"/>
<path d="M26.7912 17.6913C22.05 19.5483 17.8196 22.7028 14.9706 26.7115C15.3487 26.9926 15.7814 27.1915 16.241 27.2953C16.9178 27.4358 17.6168 27.4292 18.2908 27.2757C18.9647 27.1223 19.5978 26.8257 20.147 26.406L25.7369 22.1973C27.3831 20.9539 27.8183 18.9996 26.7912 17.6913Z" fill="#F66767"/>
<path d="M35.057 15.8533C37.3247 15.7109 39.601 15.8984 41.8147 16.4101C44.157 16.9369 46.3766 17.9077 48.3535 19.27C47.8018 19.9925 47.0582 20.5454 46.2075 20.8656C45.3567 21.1858 44.4331 21.2605 43.542 21.081L37.2114 19.5916C35.3625 19.1429 34.4569 17.5211 35.057 15.8533Z" fill="#F66767"/>
<path d="M48.3806 22.7272C48.5208 22.7567 48.6494 22.8261 48.7509 22.9272C49.0537 23.2327 48.9645 23.7382 48.5509 24.0436C48.4212 24.1415 48.2722 24.2106 48.1138 24.2465C47.9553 24.2824 47.7911 24.2842 47.6319 24.2517C47.4921 24.2196 47.364 24.1494 47.2615 24.049C46.9588 23.7436 47.0507 23.2381 47.4643 22.9353C47.5928 22.8363 47.7413 22.7664 47.8995 22.7304C48.0578 22.6945 48.2219 22.6934 48.3806 22.7272Z" fill="#FFFCED"/>
<path d="M53.8163 27.363C53.3983 26.3574 52.9775 25.3528 52.554 24.3491C52.6594 24.2923 52.7649 24.2382 52.8757 24.1896L54.1353 27.2035C54.0272 27.2522 53.9191 27.2981 53.8163 27.363Z" fill="#FE3030"/>
<path d="M53.8164 27.3631C52.3595 28.1497 51.4296 29.5931 51.6107 30.9987L50.3511 27.9848C50.1673 26.5792 51.0971 25.1384 52.5541 24.3491C52.8596 25.0708 52.8595 25.0708 53.8164 27.3631Z" fill="#FE3030"/>
<path d="M13.7244 45.9494L12.4647 42.9354C12.8257 43.794 13.2683 44.6159 13.7865 45.3898L15.0462 48.4038C14.5284 47.6296 14.0858 46.8077 13.7244 45.9494Z" fill="#F66767"/>
<path d="M19.2954 44.6114C19.4353 44.6431 19.5636 44.7133 19.6657 44.8142C19.9657 45.1196 19.8765 45.6251 19.4657 45.9278C19.3364 46.0266 19.1875 46.0966 19.029 46.1329C18.8705 46.1693 18.706 46.1713 18.5466 46.1387C18.4056 46.1076 18.2763 46.0374 18.1736 45.9359C17.8763 45.6305 17.9655 45.125 18.3763 44.8223C18.5055 44.7235 18.6544 44.6536 18.813 44.6172C18.9715 44.5808 19.136 44.5789 19.2954 44.6114Z" fill="#FFFCED"/>
<path d="M18.5655 49.939L19.836 52.953C17.9365 51.7962 16.307 50.2458 15.0569 48.4064L13.7973 45.3925C15.0442 47.2308 16.67 48.781 18.5655 49.939Z" fill="#F50000"/>
<path d="M23.0201 48.5606L24.2825 51.5745C23.4835 51.4125 22.6566 51.4538 21.8777 51.6947C21.0989 51.9356 20.3931 52.3683 19.8251 52.9531L18.5654 49.9392C19.1332 49.3548 19.8385 48.9223 20.6169 48.6815C21.3952 48.4406 22.2215 48.399 23.0201 48.5606Z" fill="#FE3030"/>
<path d="M53.6246 25.7277L54.8842 28.7416C56.1925 31.8691 56.3871 35.4696 55.2735 39.1458L54.0138 36.1318C55.1329 32.4556 54.9383 28.8551 53.6246 25.7277Z" fill="#FB4242"/>
<path d="M52.8759 24.1896C54.8356 27.6441 55.3086 31.8366 54.0193 36.1318C53.8135 36.1158 53.6093 36.0842 53.4084 36.0372C52.1677 35.7452 51.2459 34.8803 51.0918 33.6855L50.3512 27.9847C50.1539 26.4872 51.2351 24.9302 52.8759 24.1896Z" fill="#F66767"/>
<path d="M50.3051 37.5401C50.4088 37.5566 50.5071 37.5977 50.5916 37.6602C50.6761 37.7227 50.7443 37.8046 50.7905 37.899C50.8366 37.9934 50.8593 38.0975 50.8567 38.2025C50.8541 38.3076 50.8262 38.4104 50.7754 38.5024C50.6601 38.7153 50.4791 38.8852 50.2595 38.987C50.0399 39.0888 49.7933 39.117 49.5563 39.0674C49.4528 39.0504 49.3549 39.0088 49.2708 38.9462C49.1867 38.8837 49.1187 38.8019 49.0727 38.7076C49.0266 38.6134 49.0038 38.5096 49.0061 38.4047C49.0085 38.2999 49.0358 38.1972 49.086 38.1051C49.2019 37.8928 49.383 37.7234 49.6024 37.6217C49.8219 37.52 50.0682 37.4914 50.3051 37.5401Z" fill="#FFFCED"/>
<path d="M29.3508 50.0473L30.6132 53.0612L24.2825 51.5718L23.0202 48.5579L29.3508 50.0473Z" fill="#FE3030"/>
<path d="M54.0191 36.1317L55.2787 39.1457C54.9801 40.1301 54.6013 41.0884 54.1461 42.0109C53.5579 43.2066 52.8583 44.3442 52.0566 45.4087L50.797 42.3948C51.5973 41.3255 52.2967 40.1845 52.8865 38.9862C53.3396 38.0664 53.7183 37.1119 54.0191 36.1317Z" fill="#F50000"/>
<path d="M51.6513 45.3006C50.9749 45.1601 50.2763 45.1668 49.6028 45.3203C48.9293 45.4737 48.2967 45.7703 47.748 46.1899L46.4857 43.1733C47.0342 42.7562 47.6654 42.4612 48.3371 42.3078C49.0089 42.1544 49.7057 42.1463 50.3808 42.2839C50.5179 42.3175 50.6533 42.3581 50.7863 42.4056C51.2043 43.4111 51.6242 44.4158 52.0459 45.4195C51.917 45.3714 51.7852 45.3317 51.6513 45.3006Z" fill="#FE3030"/>
<path d="M46.4858 43.1733L47.7481 46.1873L42.1554 50.3987L40.8958 47.382L46.4858 43.1733Z" fill="#FE3030"/>
<path d="M35.7679 48.4848C35.9047 48.5088 36.0306 48.5752 36.1276 48.6747C36.2246 48.7741 36.2879 48.9016 36.3085 49.039C36.3652 49.4552 35.9976 49.8904 35.4976 50.0067C35.3429 50.0431 35.1819 50.0431 35.0272 50.0067C34.8907 49.9819 34.7653 49.9153 34.6684 49.8159C34.5715 49.7166 34.508 49.5896 34.4866 49.4525C34.4352 49.0336 34.7975 48.6011 35.2975 48.4848C35.4522 48.4487 35.6132 48.4487 35.7679 48.4848Z" fill="#FFFCED"/>
<path d="M29.3507 50.05C30.8212 50.396 31.6943 51.4907 31.6889 52.7666C29.2049 52.9878 26.7015 52.8145 24.2716 52.253C22.2572 51.7947 20.3302 51.0133 18.5654 49.9392C19.1332 49.3548 19.8385 48.9223 20.6169 48.6815C21.3952 48.4406 22.2215 48.399 23.0201 48.5606L29.3507 50.05Z" fill="#F66767"/>
<path d="M31.6889 52.7665L32.9513 55.7804C30.4665 56.0011 27.9624 55.8287 25.5313 55.2696C23.5209 54.808 21.5978 54.0258 19.8359 52.953L18.5763 49.9391C20.3411 51.0132 22.2681 51.7946 24.2825 52.2529C26.7088 52.8133 29.2085 52.9866 31.6889 52.7665Z" fill="#FB4242"/>
<path d="M42.1553 50.3986C41.7197 50.7032 41.3526 51.0954 41.0775 51.5502C40.8024 52.005 40.6254 52.5123 40.5578 53.0395L39.2982 50.0229C39.3674 49.4962 39.5454 48.9897 39.8209 48.5355C40.0963 48.0813 40.4633 47.6894 40.8984 47.3846L42.1553 50.3986Z" fill="#FE3030"/>
<path d="M40.5578 53.0396C40.529 53.3487 40.5537 53.6606 40.6308 53.9613L39.3684 50.9474C39.2925 50.6455 39.2678 50.333 39.2954 50.0229L39.4441 50.3771L39.6009 50.7501L39.7631 51.1366L39.928 51.5313L40.0091 51.7286L40.0929 51.9259L40.255 52.3125L40.3334 52.5017L40.4848 52.8666C40.5158 52.9212 40.5402 52.9793 40.5578 53.0396Z" fill="#FE3030"/>
<path d="M39.3685 50.9474L40.6308 53.9613C38.1726 54.9364 35.5858 55.5492 32.9514 55.7805L31.689 52.7666C34.3235 52.5358 36.9104 51.923 39.3685 50.9474Z" fill="#F50000"/>
<path d="M46.4857 43.1733C47.0342 42.7562 47.6654 42.4612 48.3372 42.3078C49.0089 42.1544 49.7057 42.1463 50.3808 42.2839C50.518 42.3175 50.6533 42.3581 50.7863 42.4056C47.9562 46.1899 43.8935 49.1633 39.3577 50.9473C39.0495 49.7553 39.5983 48.3524 40.8849 47.3847L46.4857 43.1733Z" fill="#F66767"/>
<path d="M50.7971 42.4056L52.0567 45.4088C49.2293 49.1931 45.1666 52.1665 40.6308 53.9505L39.3685 50.9366C43.8934 49.1579 47.967 46.1927 50.7971 42.4056Z" fill="#FB4242"/>
<path d="M5.70174 21.9883C6.03635 21.8503 6.32806 21.6255 6.54675 21.337L4.73087 23.7582C4.51251 24.047 4.2207 24.2719 3.88586 24.4095L5.70174 21.9883Z" fill="#FE3030"/>
<path d="M8.41602 28.7531L10.2295 26.3319C10.8348 25.5087 12.0599 25.2279 13.3189 25.7194L11.503 28.1406C10.244 27.6491 9.02131 27.9323 8.41602 28.7531Z" fill="#F66767"/>
<path d="M9.45694 23.1698C9.56198 23.2176 9.6778 23.2367 9.79262 23.2252C9.90744 23.2137 10.0172 23.1721 10.1107 23.1045L8.29478 25.5256C8.20153 25.5929 8.09209 25.6341 7.97765 25.6452C7.86322 25.6563 7.74789 25.6367 7.64349 25.5886L9.45694 23.1674L7.64349 25.5886C7.52243 25.542 7.41266 25.4702 7.32147 25.3779C7.20348 25.2808 7.12404 25.1448 7.09741 24.9944C7.07078 24.8439 7.09871 24.6889 7.1762 24.5572L8.98966 22.136C8.91244 22.268 8.88489 22.4232 8.91197 22.5736C8.93905 22.7241 9.01897 22.86 9.13735 22.9568C9.22802 23.0491 9.33684 23.1216 9.45694 23.1698Z" fill="#FE3030"/>
<path d="M10.1108 23.1118C10.1387 23.0897 10.1631 23.0635 10.1834 23.0343L8.36998 25.4555C8.34749 25.4836 8.32236 25.5096 8.29492 25.533C8.83969 24.8139 9.48614 23.7728 10.1108 23.1118Z" fill="#FE3030"/>
<path d="M7.17633 24.5742L8.98979 22.1531C9.01227 22.1249 9.03741 22.099 9.06484 22.0756C9.15809 22.0083 9.26753 21.9671 9.38197 21.956C9.49641 21.945 9.61174 21.9645 9.71614 22.0126L7.90026 24.4338C7.79576 24.3855 7.68024 24.3661 7.56569 24.3776C7.45115 24.3891 7.34177 24.4311 7.24896 24.4992C7.22185 24.5212 7.19746 24.5464 7.17633 24.5742Z" fill="#FFFCED"/>
<path d="M10.1836 23.0342L8.3701 25.4554C8.4471 25.3236 8.47476 25.1687 8.44815 25.0183C8.42155 24.868 8.3424 24.732 8.22483 24.6346C8.13243 24.5421 8.02199 24.4696 7.90039 24.4215L9.71627 22.0004C9.83732 22.047 9.94709 22.1188 10.0383 22.211C10.1573 22.3079 10.2375 22.4444 10.2641 22.5956C10.2908 22.7467 10.2622 22.9024 10.1836 23.0342Z" fill="#FFFCED"/>
<path d="M7.90042 24.4313C8.02202 24.4793 8.13246 24.5518 8.22486 24.6443C8.51298 24.9325 8.54445 25.3344 8.29507 25.5426C8.20182 25.6098 8.09238 25.6511 7.97794 25.6622C7.8635 25.6732 7.74818 25.6537 7.64377 25.6055C7.52272 25.5589 7.41295 25.4871 7.32175 25.3949C7.03363 25.1068 7.00216 24.7024 7.24912 24.4966C7.34193 24.4285 7.45131 24.3865 7.56585 24.375C7.6804 24.3635 7.79592 24.383 7.90042 24.4313Z" fill="#FFFCED"/>
<path d="M6.5469 21.3371L4.73102 23.7583C4.94909 23.4465 5.08552 23.085 5.12781 22.7069C5.17011 22.3288 5.11693 21.9461 4.97314 21.5938L6.78902 19.1726C6.93237 19.525 6.98532 19.9076 6.94303 20.2856C6.90074 20.6637 6.76457 21.0252 6.5469 21.3371Z" fill="#F66767"/>
<path d="M11.5031 28.1405L13.3189 25.712L18.4058 27.6998L16.5899 30.1307L11.5031 28.1405Z" fill="#F66767"/>
<path d="M16.5898 30.1308L18.4057 27.7096C18.9624 27.9201 19.4617 28.2585 19.8634 28.6976C20.265 29.1367 20.5578 29.6642 20.7179 30.2373L18.9045 32.6585C18.743 32.0856 18.4495 31.5585 18.0476 31.1195C17.6456 30.6806 17.1463 30.3419 16.5898 30.1308Z" fill="#F66767"/>
<path d="M16.5899 30.1308C17.1464 30.342 17.6457 30.6806 18.0476 31.1196C18.4496 31.5586 18.7431 32.0856 18.9045 32.6585C16.945 32.5173 15.0188 32.0763 13.193 31.3511C11.499 30.6868 9.8943 29.8141 8.41602 28.7532C9.02131 27.9324 10.244 27.6491 11.503 28.143L16.5899 30.1308Z" fill="#F66767"/>
<path d="M3.25891 16.7973L5.07479 14.3665L6.78172 19.1725L4.96584 21.6009L3.25891 16.7973Z" fill="#F66767"/>
<path d="M7.28277 11.0858C6.14482 16.2817 10.101 22.4194 16.1031 24.7655L14.2872 27.1866C8.28513 24.8405 4.32894 18.7125 5.46931 13.507C5.69202 12.4617 6.13711 11.4766 6.77433 10.6186L8.58778 8.19739C7.95154 9.05599 7.50656 10.0409 7.28277 11.0858Z" fill="#FE3030"/>
<path d="M7.16193 10.9163L8.97539 8.49512C8.36557 9.31716 7.93801 10.2598 7.72122 11.2601C6.62685 16.2453 10.4257 22.1336 16.1953 24.3853L14.3819 26.8064C8.6219 24.5523 4.8255 18.6665 5.90776 13.6788C6.12324 12.6788 6.55093 11.7367 7.16193 10.9163Z" fill="#C62525"/>
<path d="M11.3748 20.7343C12.2367 21.6274 13.2138 22.4017 14.2802 23.0368L12.4667 25.458C11.4 24.828 10.4221 24.0586 9.5589 23.17L11.3748 20.7343Z" fill="#FE3030"/>
<path d="M15.3624 23.6057C14.7604 24.4128 14.1559 25.2198 13.549 26.0269C13.181 25.8525 12.8242 25.6621 12.4788 25.4555L14.2923 23.0343C14.6385 23.2401 14.9968 23.4314 15.3624 23.6057Z" fill="#FE3030"/>
<path d="M11.3748 20.7343L10.8252 21.4606L10.1424 22.3831L9.96807 22.6252L9.72595 22.9641C9.66374 23.0256 9.61072 23.0957 9.56857 23.1724C9.44267 23.0416 9.32644 22.9085 9.19812 22.7753L11.014 20.3541C11.1254 20.4768 11.2456 20.6035 11.3748 20.7343Z" fill="#FE3030"/>
<path d="M10.6871 19.969C10.7912 20.0925 10.8953 20.2111 11.0042 20.3346L9.18835 22.7558C9.08181 22.6347 8.97529 22.5136 8.8736 22.3877L10.6871 19.969Z" fill="#FE3030"/>
<path d="M15.3623 23.6056C15.6601 23.7484 15.9627 23.8792 16.2702 24.0002L14.4568 26.4214C14.1469 26.3004 13.8442 26.1672 13.5488 26.0268C14.1541 25.2229 14.7586 24.4159 15.3623 23.6056Z" fill="#FE3030"/>
<path d="M16.1033 24.7654C16.8267 25.0516 17.5736 25.2744 18.3356 25.4312L16.5197 27.8524C15.7584 27.693 15.0117 27.4703 14.2874 27.1866L16.1033 24.7654Z" fill="#FE3030"/>
<path d="M23.0375 28.3996C23.1093 28.3951 23.1793 28.3753 23.2428 28.3414C23.3063 28.3076 23.3618 28.2606 23.4055 28.2035L21.5921 30.6247C21.5479 30.6812 21.4923 30.7277 21.4289 30.7611C21.3654 30.7945 21.2956 30.814 21.2241 30.8184L23.0375 28.3996Z" fill="#FE3030"/>
<path d="M22.6816 28.3462C22.7945 28.3912 22.9163 28.4094 23.0375 28.3995L21.224 30.8207C21.1028 30.832 20.9807 30.8137 20.8681 30.7674C20.7489 30.7217 20.6406 30.6516 20.5501 30.5615C20.4596 30.4714 20.389 30.3634 20.3427 30.2444L22.1586 27.8233L20.3427 30.2444C20.3092 30.1616 20.2969 30.0716 20.307 29.9828C20.3172 29.894 20.3494 29.8091 20.4008 29.736L22.2143 27.3148C22.1633 27.3886 22.1315 27.474 22.1218 27.5632C22.112 27.6524 22.1247 27.7426 22.1586 27.8257C22.2051 27.9438 22.2756 28.0511 22.3656 28.1407C22.4556 28.2303 22.5632 28.3003 22.6816 28.3462Z" fill="#FE3030"/>
<path d="M20.3984 29.7433L22.2143 27.3221C22.2587 27.2657 22.3144 27.2192 22.3777 27.1854C22.4411 27.1517 22.5108 27.1314 22.5823 27.126C22.7035 27.1173 22.825 27.1355 22.9382 27.1793L21.1224 29.6005C21.0106 29.5544 20.8893 29.5361 20.7689 29.5472C20.6969 29.5523 20.6267 29.5724 20.5629 29.6061C20.4992 29.6399 20.4431 29.6866 20.3984 29.7433Z" fill="#FFFCED"/>
<path d="M23.4054 28.2035L21.5919 30.6247C21.6425 30.5507 21.6741 30.4654 21.6838 30.3762C21.6935 30.2871 21.6811 30.197 21.6476 30.1138C21.6013 29.9948 21.5307 29.8868 21.4402 29.7968C21.3497 29.7067 21.2414 29.6366 21.1222 29.5909L22.9381 27.1697C23.0568 27.2163 23.1647 27.2871 23.2547 27.3775C23.3447 27.468 23.415 27.5761 23.4611 27.6951C23.4956 27.7776 23.5087 27.8675 23.4989 27.9565C23.4892 28.0454 23.457 28.1304 23.4054 28.2035Z" fill="#FFFCED"/>
<path d="M21.1224 29.6005C21.2416 29.6462 21.3499 29.7163 21.4404 29.8064C21.5309 29.8965 21.6015 30.0045 21.6478 30.1235C21.6813 30.1971 21.6964 30.2778 21.6918 30.3586C21.6872 30.4394 21.663 30.5179 21.6213 30.5872C21.5796 30.6566 21.5216 30.7147 21.4524 30.7567C21.3832 30.7986 21.3048 30.8231 21.2241 30.828C21.1029 30.8393 20.9807 30.821 20.8682 30.7747C20.7489 30.729 20.6406 30.6589 20.5501 30.5688C20.4597 30.4788 20.389 30.3708 20.3428 30.2518C20.3092 30.1779 20.2941 30.097 20.2988 30.0161C20.3036 29.9351 20.328 29.8565 20.37 29.7871C20.4119 29.7177 20.4702 29.6595 20.5397 29.6177C20.6092 29.5759 20.6879 29.5517 20.7689 29.5472C20.8893 29.5361 21.0106 29.5544 21.1224 29.6005Z" fill="#FFFCED"/>
<path d="M3.2589 16.7974L4.95373 21.6035C5.3968 22.8479 4.91982 23.9811 3.87388 24.4193C1.49144 21.3638 0.0677929 17.8046 0 14.3375C0.35506 14.3643 0.703825 14.446 1.03385 14.5796C1.53905 14.7734 1.99806 15.0709 2.38129 15.4529C2.76452 15.8348 3.06348 16.2929 3.2589 16.7974Z" fill="#F66767"/>
<path d="M0 14.3374L1.81346 11.9163C2.16926 11.9433 2.51879 12.0249 2.84973 12.1584C3.35563 12.353 3.81507 12.6515 4.19835 13.0348C4.58163 13.4181 4.88021 13.8775 5.07478 14.3834L3.2589 16.8046C3.06433 16.2987 2.76575 15.8393 2.38247 15.456C1.99919 15.0727 1.53975 14.7741 1.03385 14.5796C0.703825 14.4459 0.35506 14.3642 0 14.3374Z" fill="#F66767"/>
<path d="M10.1255 20.3031L11.9413 17.882C11.912 17.9853 11.9245 18.0961 11.9762 18.1903C12.0278 18.2845 12.1144 18.3547 12.2174 18.3856L10.4015 20.8067C10.2986 20.7758 10.2119 20.7057 10.1603 20.6115C10.1086 20.5173 10.0961 20.4065 10.1255 20.3031Z" fill="#FFFCED"/>
<path d="M10.4012 20.8068L12.2171 18.376L14.4131 19.2355L12.5997 21.6664L10.4012 20.8068Z" fill="#FFFCED"/>
<path d="M14.4132 19.2355C14.4765 19.267 14.5484 19.2769 14.6179 19.2638C14.6874 19.2507 14.7507 19.2153 14.7982 19.1628L12.9847 21.584C12.9366 21.6363 12.8729 21.6716 12.8031 21.6847C12.7333 21.6978 12.6611 21.6879 12.5974 21.6567L14.4132 19.2355Z" fill="#FFFCED"/>
<path d="M14.7981 19.1628L12.9847 21.584C12.9937 21.57 13.0018 21.5555 13.0089 21.5404L14.8248 19.1193C14.8168 19.1343 14.8079 19.1489 14.7981 19.1628Z" fill="#FE3030"/>
<path d="M26.2793 27.2035C25.7951 27.8572 25.7564 28.7748 26.1559 29.6416L24.3424 32.0628C23.9429 31.1984 23.9744 30.2808 24.4635 29.6271L26.2793 27.2035Z" fill="#FE3030"/>
<path d="M18.0306 20.5986C18.0815 20.6524 18.1435 20.6945 18.2121 20.7221L16.3963 23.1433C16.3286 23.1162 16.2675 23.0749 16.2171 23.0222C16.8208 22.2168 17.4253 21.4089 18.0306 20.5986Z" fill="#FFFCED"/>
<path d="M24.4634 29.6345L26.2769 27.2133C26.369 27.0912 26.4746 26.98 26.5916 26.8816L24.7782 29.3028C24.66 29.3999 24.5542 29.5113 24.4634 29.6345Z" fill="#F66767"/>
<path d="M18.0305 20.5985C17.4252 21.4056 16.8207 22.2127 16.217 23.0197C16.1581 22.9611 16.1184 22.8859 16.1032 22.8042L17.9167 20.3831C17.934 20.464 17.9734 20.5386 18.0305 20.5985Z" fill="#FFFCED"/>
<path d="M2.65594 12.2576C2.67961 12.2213 2.70548 12.1866 2.73342 12.1535L2.89564 11.938L3.06512 11.7128L3.14986 11.5966L3.3266 11.3545L4.03359 10.4054L2.65594 12.2503V12.2576Z" fill="#FE3030"/>
<path d="M16.3987 23.1505L18.2122 20.7196L20.384 21.5694L18.5681 24.0003L16.3987 23.1505Z" fill="#FFFCED"/>
<path d="M5.02151 10.6814C5.14107 10.7416 5.27721 10.7605 5.40864 10.7351C5.54007 10.7097 5.65936 10.6414 5.74786 10.541L3.93198 12.9622C3.8433 13.0623 3.72419 13.1305 3.59295 13.1564C3.46171 13.1822 3.32562 13.1641 3.20563 13.105L5.02151 10.6814Z" fill="#FE3030"/>
<path d="M5.0214 10.6814L4.23211 11.7371L3.64376 12.5167L3.30965 12.9622L3.20552 13.1026C3.03076 13.0433 2.88127 12.9265 2.78145 12.7713C2.68163 12.616 2.63738 12.4315 2.65593 12.2479L4.47181 9.82675L2.65593 12.2479C2.6698 12.1829 2.6979 12.1217 2.73824 12.0688L4.55412 9.64758C4.51331 9.70112 4.48518 9.7632 4.47181 9.82917C4.45294 10.0125 4.49709 10.1969 4.59699 10.3518C4.69689 10.5067 4.84658 10.623 5.0214 10.6814Z" fill="#FE3030"/>
<path d="M18.3622 20.3516L20.1781 17.9208L20.8124 21.2814L18.999 23.7122L18.3622 20.3516Z" fill="#FE3030"/>
<path d="M20.3839 21.5695C20.4474 21.602 20.5199 21.6125 20.59 21.5993C20.6602 21.5862 20.7239 21.5501 20.7713 21.4968L18.9555 23.918C18.9081 23.9714 18.8445 24.0076 18.7745 24.0212C18.7044 24.0348 18.6319 24.0249 18.5681 23.9931L20.3839 21.5695Z" fill="#FFFCED"/>
<path d="M20.7713 21.4969L18.9554 23.918C18.9771 23.8875 18.9922 23.8528 18.9997 23.8161C19.0072 23.7794 19.0069 23.7416 18.999 23.705L20.8124 21.2838C20.8206 21.3202 20.8212 21.358 20.8141 21.3946C20.807 21.4313 20.7924 21.4661 20.7713 21.4969Z" fill="#FE3030"/>
<path d="M2.73828 12.0785L4.55174 9.65732C4.64072 9.55759 4.75999 9.48983 4.89121 9.46446C5.02243 9.43909 5.15835 9.45751 5.27809 9.51689L3.46463 11.9381C3.34481 11.8791 3.209 11.8609 3.07787 11.8862C2.94675 11.9116 2.82749 11.9791 2.73828 12.0785Z" fill="#FFFCED"/>
<path d="M3.46459 11.9357C3.63921 11.9942 3.78864 12.1106 3.88813 12.2655C3.98763 12.4205 4.03125 12.6048 4.01178 12.7879C3.94157 13.1124 3.58081 13.2576 3.20552 13.1124C3.03076 13.0531 2.88127 12.9363 2.78145 12.781C2.68163 12.6258 2.63738 12.4413 2.65593 12.2577C2.72856 11.9333 3.08931 11.7904 3.46459 11.9357Z" fill="#FFFCED"/>
<path d="M5.74529 10.541L3.92941 12.9622C3.97022 12.9087 3.99836 12.8466 4.01173 12.7806C4.0312 12.5975 3.98758 12.4132 3.88808 12.2582C3.78858 12.1033 3.63916 11.9869 3.46454 11.9284L5.278 9.5072C5.45257 9.56604 5.60201 9.68239 5.70185 9.83721C5.80169 9.99203 5.84603 10.1762 5.82761 10.3595C5.81218 10.4247 5.78423 10.4864 5.74529 10.541Z" fill="#FFFCED"/>
<path d="M14.142 19.1072L15.9579 16.6764L14.8248 19.1194L13.0089 21.5478L14.142 19.1072Z" fill="#FE3030"/>
<path d="M14.1687 19.0659L15.9821 16.6448C15.9731 16.6588 15.965 16.6733 15.9579 16.6884L14.142 19.1095C14.1489 19.0939 14.1578 19.0792 14.1687 19.0659Z" fill="#FE3030"/>
<path d="M14.1688 19.0659L15.9823 16.6448C16.0304 16.5925 16.0941 16.5572 16.1639 16.5441C16.2337 16.531 16.3059 16.5408 16.3697 16.5721L14.5562 18.9933C14.4928 18.9604 14.4202 18.9496 14.35 18.9628C14.2798 18.976 14.216 19.0123 14.1688 19.0659Z" fill="#FFFCED"/>
<path d="M15.5366 19.5963L17.3524 17.1678L17.9166 20.3832L16.1031 22.814L15.5366 19.5963Z" fill="#FFFCED"/>
<path d="M14.5561 18.9909L16.3695 16.5625L17.0572 16.8288L15.2413 19.2597L14.5561 18.9909Z" fill="#FFFCED"/>
<path d="M17.0984 16.8482L15.2825 19.2694L15.2413 19.25L17.0572 16.8289L17.0984 16.8482Z" fill="#FFFCED"/>
<path d="M17.0982 16.8483C17.1591 16.8812 17.2122 16.9267 17.2539 16.9818C17.2957 17.037 17.3252 17.1004 17.3403 17.1679L15.5245 19.589C15.511 19.5209 15.4822 19.4567 15.4403 19.4013C15.3983 19.3459 15.3443 19.3008 15.2823 19.2694L17.0982 16.8483Z" fill="#FFFCED"/>
<path d="M18.4058 20.1361L20.2216 17.715C20.199 17.7455 20.1834 17.7806 20.1759 17.8179C20.1683 17.8551 20.1691 17.8935 20.1781 17.9305L18.3622 20.3516C18.354 20.3147 18.3536 20.2764 18.3612 20.2393C18.3687 20.2022 18.3839 20.167 18.4058 20.1361Z" fill="#FE3030"/>
<path d="M20.2217 17.7077C20.2501 17.6709 20.2869 17.6414 20.329 17.6216C20.3711 17.6018 20.4173 17.5923 20.4638 17.5939L18.6503 20.0151C18.604 20.0146 18.5582 20.0246 18.5162 20.0443C18.4743 20.064 18.4374 20.0929 18.4082 20.1289L20.2217 17.7077Z" fill="#FFFCED"/>
<path d="M1.01923 9.09317L2.83268 6.672C3.15667 6.94006 3.52116 7.15499 3.91253 7.30877C4.90763 7.69858 5.97536 7.63078 6.68476 7.04002L4.86888 9.46119C4.15948 10.052 3.09417 10.1197 2.09665 9.73236C1.70588 9.5778 1.34219 9.36204 1.01923 9.09317Z" fill="#FE3030"/>
<path d="M10.687 19.969L8.87356 22.3902C6.76472 19.8528 5.72603 16.7053 6.35311 13.8556C6.55813 12.8966 6.96594 11.9927 7.54917 11.2044C8.15285 10.3973 8.75735 9.59026 9.36264 8.7832C8.77858 9.57521 8.3715 10.4835 8.16899 11.4465C7.54433 14.2817 8.5806 17.4316 10.687 19.969Z" fill="#FE3030"/>
<path d="M18.3357 25.4312C22.2411 26.2351 25.8171 25.0802 27.7516 22.4919L25.9382 24.9131C24.0013 27.5014 20.4276 28.6538 16.5198 27.8524L18.3357 25.4312Z" fill="#FE3030"/>
<path d="M27.3642 22.2014L25.5483 24.6226C23.3451 27.5764 18.9143 28.5836 14.3722 26.8016L16.1953 24.3805C20.7302 26.1625 25.1537 25.1528 27.3642 22.2014Z" fill="#C62525"/>
<path d="M16.2702 24.0003C20.6283 25.6951 24.8581 24.7412 26.9693 21.9181L25.1535 24.3393C23.0422 27.1648 18.81 28.126 14.4567 26.4239L16.2702 24.0003Z" fill="#FE3030"/>
<path d="M9.3626 8.78078C8.75973 9.59188 8.15201 10.4005 7.54913 11.202V11.1899L9.36501 8.76868L9.3626 8.78078Z" fill="#FE3030"/>
<path d="M24.7782 29.3003L26.5941 26.8718L29.9716 24.0536L28.1557 26.4844L24.7782 29.3003Z" fill="#F66767"/>
<path d="M15.3018 16.5746L17.1153 14.1534C17.0865 14.2571 17.0993 14.3679 17.1508 14.4624C17.2023 14.5568 17.2886 14.6275 17.3913 14.6595L15.5754 17.0806C15.4724 17.0493 15.3859 16.9785 15.3347 16.8838C15.2835 16.7891 15.2717 16.678 15.3018 16.5746Z" fill="#FE3030"/>
<path d="M15.5778 17.0782L17.3913 14.6473L18.6454 15.1388L16.832 17.5673L15.5778 17.0782Z" fill="#FE3030"/>
<path d="M8.97518 8.48781C9.08494 8.34254 9.19875 8.20211 9.31658 8.06653L7.5031 10.4877C7.38205 10.6233 7.26099 10.7661 7.1593 10.9114L8.97518 8.48781Z" fill="#FE3030"/>
<path d="M16.832 17.5696L18.6455 15.1484L18.6891 15.1654C18.9852 15.2986 19.3207 15.315 19.6285 15.2114L17.8126 17.6326C17.5047 17.735 17.1696 17.7186 16.8732 17.5866L16.832 17.5696Z" fill="#FE3030"/>
<path d="M28.0106 21.1531C27.8263 21.5208 27.61 21.8716 27.3642 22.2014L25.5483 24.6226C25.7951 24.2935 26.0115 23.9426 26.1947 23.5742L28.0106 21.1531Z" fill="#FE3030"/>
<path d="M20.161 14.8241L18.3476 17.2453C18.2132 17.4247 18.0261 17.5576 17.8125 17.6254L19.6284 15.2042C19.8416 15.1368 20.028 15.0038 20.161 14.8241Z" fill="#FE3030"/>
<path d="M20.2943 14.5966C20.2586 14.6772 20.2139 14.7535 20.1611 14.8241L18.3477 17.2453C18.4002 17.1745 18.4448 17.0982 18.4808 17.0177L20.2943 14.5966Z" fill="#FFFCED"/>
<path d="M20.2942 14.5966L18.4808 17.0177L20.2942 14.5966Z" fill="#FFFCED"/>
<path d="M15.975 15.1219L17.7908 12.691L17.1153 14.1437L15.3019 16.5722L15.975 15.1219Z" fill="#FE3030"/>
<path d="M15.9991 15.0807L17.815 12.6595C17.8055 12.6715 17.7974 12.6845 17.7908 12.6983L15.9749 15.1195L15.9991 15.0807Z" fill="#FE3030"/>
<path d="M21.9914 17.1604C22.3417 16.9707 22.6465 16.7072 22.8849 16.3881L21.069 18.8092C20.8313 19.1296 20.5263 19.394 20.1756 19.584L20.3886 19.3007C20.9213 18.5841 21.4547 17.869 21.989 17.1556L20.1756 19.5767C19.7033 19.8372 19.177 19.9847 18.6381 20.0077L20.4516 17.5865C20.9908 17.565 21.5178 17.4192 21.9914 17.1604Z" fill="#FFFCED"/>
<path d="M28.1559 26.4845C28.8653 25.8938 29.933 25.826 30.9281 26.2158C31.0395 26.2593 31.1509 26.3078 31.2598 26.3635C29.8846 29.1599 27.4102 31.1307 24.3425 32.0702C23.8583 31.0484 24.0011 29.9516 24.7783 29.3028L28.1559 26.4845Z" fill="#F66767"/>
<path d="M28.1559 26.4845L29.9718 24.0634C30.6812 23.4726 31.7465 23.4048 32.7441 23.7946C32.8554 23.8382 32.9644 23.8866 33.0733 23.9423L31.2599 26.3635C31.1509 26.3078 31.0395 26.2594 30.9282 26.2158C29.9331 25.8333 28.8653 25.8938 28.1559 26.4845Z" fill="#F66767"/>
<path d="M32.0539 25.6031L30.238 28.0243C30.6289 27.5007 30.9709 26.9423 31.2597 26.3561L33.0732 23.9349C32.7856 24.5213 32.4444 25.0797 32.0539 25.6031Z" fill="#F66767"/>
<path d="M15.9991 15.0808L17.815 12.6596C17.8624 12.6063 17.926 12.57 17.996 12.5565C18.066 12.5429 18.1386 12.5528 18.2024 12.5846L16.389 15.0058C16.3247 14.9742 16.2518 14.9644 16.1815 14.9779C16.1111 14.9915 16.0471 15.0276 15.9991 15.0808Z" fill="#FFFCED"/>
<path d="M20.2749 13.7273C20.3489 13.8609 20.3894 14.0104 20.3927 14.1631C20.3961 14.3158 20.3623 14.467 20.2942 14.6038L18.4808 17.0249C18.5479 16.8883 18.5809 16.7374 18.5771 16.5852C18.5734 16.433 18.5328 16.284 18.459 16.1509L20.2749 13.7273Z" fill="#FFFCED"/>
<path d="M16.389 15.0057L18.2024 12.5773L19.4711 13.0712L17.6577 15.502L16.389 15.0057Z" fill="#FFFCED"/>
<path d="M17.6479 15.5044L19.4613 13.0833C19.8007 13.1907 20.0875 13.4213 20.2652 13.7297L18.4493 16.1509C18.2725 15.8426 17.9865 15.612 17.6479 15.5044Z" fill="#FFFCED"/>
<path d="M14.0428 11.8557L15.8586 9.4248L11.9412 17.8723L10.1253 20.3031L14.0428 11.8557Z" fill="#FFFCED"/>
<path d="M14.0695 11.8147L15.8829 9.39348C15.931 9.34032 15.9951 9.30442 16.0656 9.2913C16.136 9.27817 16.2088 9.28856 16.2727 9.32084L14.4569 11.742C14.3933 11.7099 14.3209 11.6996 14.2509 11.7128C14.1809 11.7259 14.1171 11.7617 14.0695 11.8147Z" fill="#FE3030"/>
<path d="M21.1805 15.4948C21.7398 16.4633 21.8076 17.393 21.3863 18.284C21.1368 18.8405 20.7115 19.2998 20.1758 19.5914C19.7034 19.8519 19.1772 19.9994 18.6383 20.0224C18.5968 20.0207 18.5555 20.0285 18.5176 20.0453C18.4796 20.0621 18.446 20.0873 18.4193 20.1191C18.3926 20.1509 18.3736 20.1884 18.3637 20.2288C18.3539 20.2691 18.3534 20.3111 18.3623 20.3517L18.9991 23.7123C19.0426 23.9544 18.8199 24.0996 18.5681 24.0004L16.389 23.1505C16.3161 23.1231 16.2512 23.078 16.2 23.0193C16.1489 22.9605 16.1132 22.89 16.0961 22.814L15.5295 19.5987C15.513 19.5218 15.4772 19.4504 15.4255 19.3911C15.3739 19.3318 15.308 19.2866 15.2341 19.2597L14.5489 18.9934C14.4784 18.9548 14.3956 18.9454 14.3182 18.9671C14.2409 18.9888 14.1751 19.04 14.1349 19.1096L13.0018 21.5501C12.9613 21.6187 12.8959 21.669 12.8193 21.6906C12.7426 21.7123 12.6606 21.7036 12.5902 21.6664L10.3942 20.8069C10.2913 20.776 10.2047 20.7058 10.153 20.6116C10.1014 20.5174 10.0889 20.4066 10.1182 20.3032L14.0357 11.8558C14.0771 11.7875 14.1429 11.7375 14.2197 11.7159C14.2966 11.6944 14.3788 11.7028 14.4497 11.7396L18.6335 13.3763C19.7052 13.761 20.607 14.5111 21.1805 15.4948ZM18.4809 17.025C18.548 16.8883 18.5811 16.7375 18.5773 16.5853C18.5735 16.4331 18.533 16.2841 18.4591 16.1509C18.2819 15.8426 17.9962 15.6112 17.6577 15.5021L16.389 15.0178C16.3186 14.9803 16.2364 14.9711 16.1594 14.9923C16.0824 15.0135 16.0164 15.0633 15.975 15.1316L15.3019 16.5843C15.2725 16.6874 15.2847 16.7979 15.3358 16.892C15.387 16.9862 15.4731 17.0565 15.5755 17.0879L16.8321 17.5722L16.8733 17.5891C17.1697 17.7211 17.5048 17.7375 17.8127 17.6351C17.9612 17.5878 18.0978 17.509 18.2131 17.4041C18.3284 17.2993 18.4198 17.1708 18.4809 17.0274" fill="#FE3030"/>
<path d="M17.648 15.5044C17.9867 15.6119 18.2727 15.8426 18.4494 16.1509C18.5232 16.284 18.5638 16.433 18.5676 16.5852C18.5714 16.7374 18.5383 16.8883 18.4712 17.0249C18.41 17.1683 18.3187 17.2968 18.2034 17.4016C18.088 17.5065 17.9515 17.5853 17.803 17.6326C17.4951 17.7351 17.16 17.7186 16.8636 17.5866L16.8224 17.5697L15.5658 17.0854C15.4633 17.054 15.3773 16.9837 15.3261 16.8895C15.275 16.7954 15.2628 16.6849 15.2922 16.5818L15.9653 15.1291C16.0067 15.0608 16.0726 15.011 16.1497 14.9898C16.2267 14.9686 16.3089 14.9778 16.3793 15.0153L17.648 15.5044Z" fill="#FFFCED"/>
<path d="M14.0693 11.8146L15.8828 9.39343C15.8732 9.40709 15.8651 9.42169 15.8585 9.43701L14.0427 11.8582C14.05 11.8428 14.0589 11.8282 14.0693 11.8146Z" fill="#FFFCED"/>
<path d="M31.4655 21.0224C31.5855 21.0815 31.7216 21.0995 31.8528 21.0737C31.984 21.0479 32.1032 20.9797 32.1918 20.8795L30.3784 23.3007C30.2896 23.4008 30.1704 23.4688 30.039 23.4942C29.9077 23.5196 29.7717 23.5009 29.652 23.4411C30.1968 22.722 30.9232 21.7511 31.4655 21.0224Z" fill="#FE3030"/>
<path d="M30.9159 20.1676C30.8978 20.3511 30.9422 20.5354 31.042 20.6905C31.1418 20.8457 31.291 20.9626 31.4655 21.0222L29.6521 23.4434C29.4773 23.385 29.3276 23.2687 29.2276 23.1138C29.1277 22.9589 29.0836 22.7745 29.1025 22.5912L30.9159 20.17L29.1025 22.5912C29.1163 22.5258 29.1435 22.4639 29.1824 22.4096L30.9983 19.9884C30.9588 20.0418 30.9308 20.1028 30.9159 20.1676Z" fill="#FE3030"/>
<path d="M4.86884 9.45882L6.68472 7.02796L10.0623 4.20972L8.24879 6.64058L4.86884 9.45882Z" fill="#FE3030"/>
<path d="M29.1825 22.4168L30.9984 19.9957C31.0871 19.8955 31.2062 19.8273 31.3374 19.8015C31.4686 19.7757 31.6047 19.7937 31.7247 19.8528L29.9088 22.274C29.7889 22.2149 29.6528 22.1969 29.5215 22.2227C29.3903 22.2485 29.2712 22.3167 29.1825 22.4168Z" fill="#FFFCED"/>
<path d="M10.3844 3.88049L8.57091 6.30167C8.47817 6.42318 8.37265 6.53438 8.25616 6.63337L10.0696 4.21219C10.1873 4.11444 10.2929 4.0031 10.3844 3.88049Z" fill="#FE3030"/>
<path d="M29.9087 22.2764C30.083 22.3357 30.2322 22.4521 30.332 22.6068C30.4318 22.7615 30.4763 22.9455 30.4583 23.1287C30.3857 23.4531 30.0249 23.596 29.6521 23.4507C29.4773 23.3923 29.3276 23.276 29.2276 23.1211C29.1277 22.9662 29.0836 22.7818 29.1025 22.5985C29.1727 22.274 29.5334 22.1287 29.9087 22.2764Z" fill="#FFFCED"/>
<path d="M32.1895 20.8794L30.376 23.3006C30.415 23.246 30.4429 23.1843 30.4583 23.119C30.4763 22.9358 30.4318 22.7519 30.332 22.5971C30.2322 22.4424 30.0831 22.326 29.9088 22.2668L31.7246 19.8456C31.8988 19.9049 32.0476 20.0214 32.147 20.1762C32.2464 20.331 32.2904 20.5148 32.2718 20.6978C32.2585 20.7638 32.2303 20.8259 32.1895 20.8794Z" fill="#FFFCED"/>
<path d="M22.8851 16.3906L21.0692 18.8117C21.1932 18.6457 21.2995 18.4672 21.3864 18.2791C21.8077 17.3881 21.7399 16.4608 21.1806 15.4899L22.994 13.0687C23.5525 14.0372 23.6219 14.9669 23.2023 15.8579C23.1152 16.046 23.0089 16.2245 22.8851 16.3906Z" fill="#FE3030"/>
<path d="M14.4567 11.7395L16.2726 9.30859L20.4564 10.9453L18.6405 13.3737L14.4567 11.7395Z" fill="#FE3030"/>
<path d="M18.6406 13.3763L20.4565 10.9551C21.524 11.3429 22.4218 12.0925 22.9939 13.0736L21.1804 15.4948C20.6087 14.5124 19.7096 13.7625 18.6406 13.3763Z" fill="#FE3030"/>
<path d="M32.4316 21.5526L34.2475 19.1315C34.222 19.885 34.128 20.6346 33.9666 21.3711C33.7741 22.2612 33.4741 23.1246 33.0732 23.9423L31.2598 26.3635C31.6592 25.5452 31.9591 24.6819 32.1532 23.7922C32.3126 23.0555 32.4058 22.306 32.4316 21.5526Z" fill="#E01A1A"/>
<path d="M34.2475 19.1216L32.4316 21.5428C32.2671 21.5036 32.1053 21.4535 31.9474 21.3927C31.4415 21.1981 30.9821 20.8995 30.5988 20.5163C30.2155 20.133 29.9169 19.6735 29.7224 19.1676L31.5382 16.7465C31.7328 17.2517 32.0312 17.7105 32.414 18.0933C32.7968 18.4762 33.2556 18.7745 33.7609 18.9691C33.9195 19.0307 34.0821 19.0817 34.2475 19.1216Z" fill="#FE3030"/>
<path d="M8.14011 3.03784C9.17879 4.24843 9.24417 5.81009 8.24907 6.64297L4.85942 9.45879C4.15002 10.0496 3.0847 10.1174 2.08718 9.72997C1.69656 9.57615 1.33289 9.36121 1.00977 9.0932C2.36562 6.10305 4.93205 4.00873 8.14011 3.03784Z" fill="#F66767"/>
<path d="M2.19586 7.09079L4.01174 4.66962C5.50613 2.71506 7.59038 1.29386 9.95572 0.616577L8.13984 3.03775C5.77413 3.71424 3.68965 5.1356 2.19586 7.09079Z" fill="#FFA7A7"/>
<path d="M10.3845 3.88048L8.57104 6.30166C9.22234 5.42761 9.05528 4.0887 8.14734 3.02823L9.96322 0.607056C10.8687 1.66753 11.031 3.00644 10.3845 3.88048Z" fill="#F66767"/>
<path d="M11.4691 5.25314L12.8467 3.4082L11.4691 5.25314Z" fill="#FE3030"/>
<path d="M7.55634 11.1995L9.36979 8.77837C11.4811 5.95286 15.7133 4.99166 20.069 6.69617L18.2531 9.11734C13.8998 7.41525 9.65791 8.37646 7.55634 11.1995Z" fill="#FFFCED"/>
<path d="M9.31683 8.06656C11.6169 5.44201 15.8322 4.61397 20.154 6.30395L18.3381 8.72512C14.0187 7.0303 9.80105 7.86561 7.50336 10.4877L8.40889 9.27715L8.76479 8.79292L9.10617 8.33774C9.17397 8.2651 9.25146 8.15857 9.31683 8.06656Z" fill="#FE3030"/>
<path d="M6.77203 10.6281L8.58791 8.20693C10.8856 5.13204 15.5028 4.09094 20.2362 5.93103L18.4227 8.3522C13.6869 6.5 9.06973 7.55079 6.77203 10.6281Z" fill="#C62525"/>
<path d="M14.164 3.4107C14.2356 3.40528 14.3053 3.38506 14.3686 3.3513C14.432 3.31754 14.4876 3.27098 14.532 3.21458L12.7161 5.63575C12.6719 5.69238 12.6164 5.73909 12.553 5.77287C12.4896 5.80665 12.4198 5.82675 12.3481 5.83187C12.2268 5.8409 12.105 5.82185 11.9922 5.77618C11.8732 5.73072 11.765 5.66064 11.6749 5.57052C11.5848 5.4804 11.5147 5.37227 11.4692 5.25321L13.29 2.83203L11.4765 5.25321C11.4422 5.17022 11.4293 5.07993 11.439 4.99065C11.4487 4.90137 11.4808 4.81598 11.5322 4.74234L13.3456 2.32117C13.295 2.39517 13.2635 2.48051 13.2538 2.56962C13.2441 2.65874 13.2565 2.74887 13.29 2.83203C13.3362 2.95103 13.4069 3.05903 13.4973 3.1491C13.5878 3.23917 13.6961 3.30931 13.8154 3.35501C13.9258 3.39982 14.0451 3.41887 14.164 3.4107Z" fill="#FE3030"/>
<path d="M11.5248 4.75436L13.3383 2.33319C13.3827 2.27679 13.4384 2.23023 13.5017 2.19647C13.5651 2.16271 13.6347 2.14248 13.7063 2.13707C13.8276 2.12804 13.9494 2.1471 14.0622 2.19276L12.2463 4.61393C12.1343 4.56887 12.0132 4.55063 11.8928 4.56067C11.8213 4.56489 11.7514 4.58435 11.6879 4.61775C11.6244 4.65116 11.5689 4.69773 11.5248 4.75436Z" fill="#FFFCED"/>
<path d="M14.532 3.21451L12.7161 5.63568C12.7677 5.56213 12.7999 5.47673 12.8096 5.38741C12.8194 5.29808 12.8063 5.20775 12.7718 5.12481C12.7255 5.00582 12.6549 4.89781 12.5644 4.80775C12.4739 4.71768 12.3656 4.64754 12.2464 4.60184L14.0623 2.18066C14.1816 2.2261 14.2901 2.29615 14.3806 2.38625C14.4711 2.47635 14.5417 2.58449 14.5877 2.70364C14.6214 2.78676 14.6339 2.87693 14.6242 2.96609C14.6145 3.05524 14.5828 3.1406 14.532 3.21451Z" fill="#FFFCED"/>
<path d="M12.2462 4.61161C12.3654 4.65732 12.4737 4.72746 12.5642 4.81752C12.6547 4.90759 12.7253 5.01559 12.7716 5.13459C12.8056 5.20834 12.8212 5.2893 12.8168 5.37042C12.8124 5.45154 12.7883 5.53037 12.7466 5.60005C12.7048 5.66974 12.6467 5.72816 12.5772 5.77025C12.5077 5.81235 12.429 5.83683 12.3479 5.84157C12.2265 5.8506 12.1047 5.83155 11.992 5.78588C11.8729 5.74042 11.7648 5.67034 11.6746 5.58022C11.5845 5.4901 11.5144 5.38197 11.469 5.26291C11.4354 5.18926 11.4203 5.10856 11.4249 5.02776C11.4296 4.94696 11.4538 4.8685 11.4955 4.79915C11.5372 4.7298 11.5951 4.67164 11.6643 4.62968C11.7335 4.58773 11.8119 4.56325 11.8927 4.55835C12.0131 4.5483 12.1341 4.56655 12.2462 4.61161Z" fill="#FFFCED"/>
<path d="M26.9694 21.9157L25.1559 24.3369C25.7447 23.5456 26.1575 22.6375 26.3665 21.6736C27.4149 16.8942 23.7879 11.2625 18.2628 9.1077L20.0787 6.68652C25.6014 8.84379 29.2307 14.4706 28.1799 19.25C27.9733 20.2155 27.5604 21.1248 26.9694 21.9157Z" fill="#FFFCED"/>
<path d="M28.0105 21.153C28.0094 21.1586 28.0094 21.1644 28.0105 21.17L26.2067 23.5911C26.4793 23.0436 26.6834 22.4646 26.8144 21.8673C27.4512 18.9618 26.4246 15.7417 24.3134 13.122L26.1292 10.7008C28.2405 13.3229 29.2767 16.5383 28.6279 19.4461C28.4937 20.0385 28.2863 20.6119 28.0105 21.153Z" fill="#FE3030"/>
<path d="M26.1222 10.6814L24.3063 13.1026C24.1562 12.9137 24.0012 12.7297 23.839 12.5481L25.6524 10.127C25.8098 10.311 25.9672 10.495 26.1222 10.6814Z" fill="#FE3030"/>
<path d="M24.7515 9.21179C25.0663 9.50718 25.3665 9.81224 25.6473 10.1294L23.8339 12.5506C23.5506 12.2358 23.2528 11.9283 22.938 11.6354L24.7515 9.21179Z" fill="#FE3030"/>
<path d="M24.7516 9.21182L22.9382 11.633C22.713 11.4224 22.483 11.219 22.2433 11.0229L24.0592 8.60168C24.2964 8.7978 24.5289 9.00118 24.7516 9.21182Z" fill="#FE3030"/>
<path d="M20.1538 6.30396C21.5686 6.85909 22.8867 7.63457 24.0591 8.60165L22.2432 11.0228C21.071 10.0548 19.7529 9.27851 18.3379 8.72271L20.1538 6.30396Z" fill="#FE3030"/>
<path d="M17.6479 3.13454L15.8321 5.55571C15.6773 5.46468 15.5292 5.36273 15.389 5.25064C15.9927 4.44358 16.5971 3.63653 17.2024 2.82947C17.3435 2.94158 17.4924 3.04352 17.6479 3.13454Z" fill="#FE3030"/>
<path d="M17.6479 3.13464C17.8297 3.24283 18.0199 3.33596 18.2169 3.41308L16.401 5.83425C16.2043 5.75666 16.014 5.66355 15.832 5.55582L17.6479 3.13464Z" fill="#FE3030"/>
<path d="M18.4227 8.35233C24.4248 10.6984 28.3834 16.8264 27.243 22.0295C26.1026 27.2326 20.2918 29.5352 14.2873 27.1963C8.2828 24.8575 4.32902 18.7222 5.4694 13.5167C6.60977 8.31117 12.4206 6.00621 18.4227 8.35233ZM14.372 26.8162C20.132 29.0679 25.708 26.8428 26.7999 21.8576C27.8919 16.8724 24.0979 10.9841 18.3379 8.73245C12.578 6.48076 7.002 8.70339 5.91005 13.6886C4.8181 18.6738 8.61208 24.5621 14.3842 26.8162" fill="#C62525"/>
<path d="M18.2533 9.12708C23.7784 11.2868 27.4053 16.9136 26.357 21.693C25.3086 26.4724 19.9796 28.6006 14.4569 26.4409C8.93422 24.2812 5.30003 18.6423 6.35324 13.8629C7.40645 9.08349 12.7306 6.94802 18.2533 9.12708ZM21.3863 18.2936C21.8076 17.4026 21.7398 16.4753 21.1805 15.5044C20.6088 14.5221 19.7097 13.7721 18.6407 13.3859L14.4569 11.7492C14.386 11.7125 14.3038 11.704 14.227 11.7256C14.1501 11.7472 14.0843 11.7972 14.0429 11.8654L10.1254 20.3129C10.0961 20.4163 10.1086 20.527 10.1602 20.6213C10.2119 20.7155 10.2985 20.7856 10.4014 20.8165L12.5975 21.676C12.6679 21.7132 12.7499 21.7219 12.8265 21.7003C12.9031 21.6787 12.9685 21.6283 13.0091 21.5598L14.1422 19.1193C14.1823 19.0496 14.2481 18.9985 14.3255 18.9767C14.4029 18.955 14.4857 18.9645 14.5562 19.003L15.2414 19.2694C15.3153 19.2963 15.3811 19.3415 15.4328 19.4008C15.4844 19.4601 15.5202 19.5315 15.5368 19.6083L16.1033 22.8237C16.1204 22.8996 16.1561 22.9702 16.2073 23.0289C16.2584 23.0877 16.3234 23.1328 16.3963 23.1602L18.5753 24.01C18.8174 24.1093 19.0596 23.9616 19.0063 23.7219L18.3744 20.3516C18.3654 20.3111 18.3659 20.2691 18.3758 20.2287C18.3857 20.1884 18.4047 20.1509 18.4314 20.1191C18.458 20.0873 18.4917 20.062 18.5296 20.0452C18.5676 20.0285 18.6089 20.0206 18.6504 20.0224C19.1893 19.9994 19.7155 19.8519 20.1878 19.5914C20.724 19.3004 21.1494 18.8409 21.3984 18.284" fill="#FFFCED"/>
<path d="M27.7539 22.4896L25.938 24.9108C26.5757 24.0521 27.0208 23.0661 27.2431 22.0199C28.3834 16.8265 24.4248 10.6888 18.4227 8.34268L20.2362 5.92151C26.2407 8.27005 30.1969 14.3956 29.0589 19.6011C28.8352 20.6461 28.3902 21.631 27.7539 22.4896Z" fill="#C62525"/>
<path d="M28.0179 14.3713L29.8338 11.9404L31.5431 16.7465L29.7272 19.1773L28.0179 14.3713Z" fill="#FE3030"/>
<path d="M24.892 10.7443L26.2697 8.89941L24.892 10.7443Z" fill="#FE3030"/>
<path d="M27.6787 8.46131C27.7067 8.43856 27.7319 8.41255 27.7538 8.38383L25.9379 10.805C25.9168 10.8351 25.8915 10.862 25.8628 10.8849C25.7696 10.9522 25.6601 10.9934 25.5457 11.0045C25.4313 11.0155 25.3159 10.996 25.2115 10.9479C25.0916 10.9006 24.9827 10.8288 24.8919 10.7372L26.7054 8.31603L24.8919 10.7372C24.7733 10.6411 24.6932 10.5057 24.6661 10.3555C24.639 10.2053 24.6667 10.0503 24.7443 9.91885L26.5601 7.49768C26.4829 7.62965 26.4554 7.78485 26.4825 7.93534C26.5095 8.08582 26.5894 8.22169 26.7078 8.31846C26.7988 8.40981 26.9076 8.4815 27.0274 8.5291C27.1322 8.57656 27.2478 8.5953 27.3623 8.58338C27.4767 8.57147 27.5859 8.52934 27.6787 8.46131Z" fill="#FE3030"/>
<path d="M28.2552 12.2044L30.0687 9.7832C29.851 10.0952 29.7148 10.4566 29.6725 10.8347C29.6303 11.2127 29.6832 11.5954 29.8266 11.9477L28.0107 14.3689C27.8681 14.0163 27.8158 13.6336 27.8585 13.2556C27.9012 12.8777 28.0376 12.5163 28.2552 12.2044Z" fill="#FE3030"/>
<path d="M24.7444 9.92603L26.5603 7.50486C26.5814 7.4748 26.6067 7.4479 26.6354 7.42496C26.7286 7.35771 26.8381 7.31644 26.9525 7.30538C27.0669 7.29432 27.1823 7.31386 27.2867 7.36201L25.4708 9.78318C25.3664 9.73504 25.2511 9.71549 25.1366 9.72655C25.0222 9.73761 24.9128 9.77888 24.8195 9.84613C24.7914 9.86973 24.7662 9.89655 24.7444 9.92603Z" fill="#FFFCED"/>
<path d="M25.4708 9.78315C25.5923 9.82886 25.7023 9.90078 25.7928 9.99379C26.081 10.2819 26.1149 10.6838 25.863 10.892C25.7698 10.9593 25.6604 11.0006 25.5459 11.0116C25.4315 11.0227 25.3162 11.0031 25.2118 10.955C25.0918 10.9077 24.9829 10.836 24.8922 10.7444C24.6016 10.4538 24.5701 10.0519 24.8195 9.8461C24.9128 9.77885 25.0222 9.73758 25.1367 9.72652C25.2511 9.71546 25.3664 9.735 25.4708 9.78315Z" fill="#FFFCED"/>
<path d="M27.7539 8.38374L25.938 10.8049C26.0158 10.6737 26.0439 10.519 26.0173 10.3688C25.9906 10.2186 25.9109 10.0829 25.7927 9.98655C25.7022 9.89354 25.5922 9.82162 25.4707 9.77591L27.2866 7.35474C27.4061 7.40299 27.5147 7.4746 27.6062 7.56538C27.7244 7.66174 27.8042 7.79719 27.8313 7.94726C27.8584 8.09733 27.8309 8.25214 27.7539 8.38374Z" fill="#FFFCED"/>
<path d="M28.255 12.2043L30.0685 9.78318C30.3008 9.47636 30.6158 9.24205 30.9764 9.10767L29.1629 11.5288C28.802 11.6627 28.487 11.8971 28.255 12.2043Z" fill="#F66767"/>
<path d="M15.8343 0.0718994C15.7472 1.0549 16.2919 2.11537 17.195 2.82962C16.5897 3.63667 15.9853 4.44373 15.3816 5.25079C14.4761 4.52444 13.9289 3.47607 14.0185 2.49307L15.8343 0.0718994Z" fill="#FE3030"/>
<path d="M16.3937 5.84152L18.2096 3.41309L23.2964 5.40087L21.483 7.83173L16.3937 5.84152Z" fill="#FE3030"/>
<path d="M26.1899 5.01099L24.3764 7.43216C23.7251 8.07377 22.6186 8.2602 21.471 7.81471L23.2869 5.39353C24.4273 5.84629 25.541 5.66228 26.1899 5.01099Z" fill="#FE3030"/>
<path d="M14.0162 2.50281C15.8084 2.68075 17.567 3.10776 19.2411 3.7715C21.2205 4.54867 23.0767 5.60889 24.7517 6.91903C24.2457 7.97224 22.885 8.37173 21.4783 7.83423L16.3938 5.84645C14.9121 5.25326 13.9024 3.81266 14.0162 2.50281Z" fill="#F66767"/>
<path d="M32.4316 21.5526C32.4058 22.3059 32.3126 23.0554 32.1532 23.7922C31.9591 24.6819 31.6592 25.5451 31.2598 26.3634C31.1508 26.3078 31.0394 26.2593 30.9281 26.2158C29.933 25.8259 28.8652 25.8937 28.1558 26.4845L24.7783 29.3028C24.0011 29.9516 23.8679 31.0484 24.3425 32.0702C22.5806 32.595 20.7379 32.7944 18.9045 32.6585C18.7431 32.0856 18.4496 31.5585 18.0476 31.1196C17.6456 30.6806 17.1464 30.3419 16.5899 30.1308L11.5054 28.143C10.2464 27.6588 9.02372 27.9324 8.41842 28.7531C6.70956 27.5318 5.18411 26.0724 3.8884 24.4192C4.93435 23.981 5.41133 22.8479 4.96825 21.6034L3.27343 16.7974C3.07885 16.2915 2.78027 15.832 2.397 15.4488C2.01372 15.0655 1.55428 14.7669 1.04837 14.5723C0.71835 14.4387 0.369585 14.357 0.0145245 14.3302C-0.0115481 13.3201 0.0835667 12.3106 0.297812 11.3231C0.462003 10.5543 0.705421 9.80458 1.02416 9.08595C1.34729 9.35396 1.71096 9.5689 2.10157 9.72272C3.0991 10.1101 4.16442 10.0423 4.87382 9.45155L8.26346 6.63573C9.25857 5.80284 9.19319 4.23634 8.15451 3.0306C10.0559 2.47739 12.0465 2.29814 14.0162 2.50278C13.9 3.81264 14.9096 5.26292 16.3913 5.844L21.4758 7.83178C22.8825 8.38139 24.2432 7.96979 24.7492 6.91658C26.4357 8.22645 27.9211 9.77632 29.1582 11.5168C28.0687 11.9357 27.5651 13.0906 28.013 14.3593L29.7223 19.1653C29.9169 19.6712 30.2155 20.1306 30.5988 20.5139C30.982 20.8972 31.4415 21.1958 31.9474 21.3904C32.105 21.4553 32.2667 21.5095 32.4316 21.5526ZM14.2873 27.1963C20.2919 29.5449 26.1051 27.2254 27.243 22.0295C28.381 16.8337 24.4272 10.6985 18.4227 8.35234C12.4182 6.00622 6.60739 8.32328 5.46944 13.5167C4.33148 18.7101 8.28526 24.8502 14.2873 27.1963ZM3.20563 13.1124C3.58091 13.2576 3.93199 13.1124 4.01188 12.7879C4.03135 12.6048 3.98774 12.4205 3.88824 12.2655C3.78874 12.1106 3.63932 11.9942 3.4647 11.9357C3.08941 11.7904 2.73835 11.9357 2.65603 12.2577C2.63748 12.4413 2.68173 12.6258 2.78155 12.781C2.88138 12.9363 3.03086 13.0531 3.20563 13.1124ZM29.6521 23.4508C30.025 23.596 30.3785 23.4508 30.4584 23.1288C30.4763 22.9455 30.4318 22.7616 30.332 22.6069C30.2323 22.4522 30.0831 22.3357 29.9088 22.2765C29.5335 22.1288 29.1824 22.2765 29.1025 22.5985C29.0836 22.7819 29.1278 22.9662 29.2277 23.1211C29.3276 23.2761 29.4773 23.3923 29.6521 23.4508ZM11.8928 4.56562C11.812 4.57052 11.7337 4.59501 11.6645 4.63696C11.5953 4.67891 11.5373 4.73707 11.4956 4.80642C11.4539 4.87578 11.4297 4.95424 11.4251 5.03503C11.4204 5.11583 11.4356 5.19653 11.4691 5.27018C11.5146 5.38925 11.5846 5.49738 11.6748 5.5875C11.7649 5.67762 11.873 5.7477 11.9921 5.79316C12.1049 5.83882 12.2266 5.85788 12.348 5.84884C12.4291 5.8441 12.5078 5.81962 12.5773 5.77753C12.6468 5.73544 12.7049 5.67701 12.7467 5.60733C12.7884 5.53765 12.8125 5.45882 12.8169 5.3777C12.8213 5.29657 12.8057 5.21562 12.7717 5.14186C12.7254 5.02287 12.6548 4.91486 12.5643 4.8248C12.4738 4.73473 12.3655 4.66459 12.2463 4.61889C12.1342 4.57382 12.0132 4.55558 11.8928 4.56562ZM21.224 30.8354C21.3048 30.8305 21.3832 30.806 21.4524 30.764C21.5216 30.7221 21.5795 30.6639 21.6212 30.5945C21.6629 30.5252 21.6871 30.4467 21.6918 30.3659C21.6964 30.2851 21.6813 30.2044 21.6477 30.1308C21.6015 30.0118 21.5308 29.9038 21.4403 29.8137C21.3499 29.7237 21.2415 29.6535 21.1223 29.6078C21.0105 29.5618 20.8892 29.5435 20.7688 29.5546C20.6878 29.5591 20.6092 29.5833 20.5397 29.6251C20.4701 29.6669 20.4119 29.725 20.3699 29.7944C20.3279 29.8638 20.3035 29.9424 20.2988 30.0234C20.294 30.1044 20.3091 30.1853 20.3427 30.2591C20.389 30.3781 20.4596 30.4861 20.5501 30.5762C20.6406 30.6662 20.7489 30.7364 20.8681 30.7821C20.9807 30.8284 21.1028 30.8466 21.224 30.8354ZM8.29494 25.5499C8.53706 25.3417 8.51043 24.9398 8.22473 24.6517C8.13233 24.5592 8.02189 24.4867 7.90029 24.4386C7.79579 24.3903 7.68027 24.3709 7.56572 24.3824C7.45118 24.3939 7.3418 24.4359 7.24899 24.504C7.00688 24.7098 7.0335 25.1141 7.32162 25.4022C7.41282 25.4945 7.52259 25.5663 7.64364 25.6129C7.74805 25.661 7.86337 25.6806 7.97781 25.6695C8.09225 25.6585 8.20169 25.6172 8.29494 25.5499ZM24.8195 9.85346C24.5773 10.0593 24.6015 10.4612 24.8921 10.7517C24.9829 10.8433 25.0917 10.9151 25.2117 10.9624C25.3161 11.0105 25.4314 11.0301 25.5458 11.019C25.6603 11.0079 25.7697 10.9667 25.863 10.8994C26.1051 10.6912 26.0809 10.2893 25.7928 10.0012C25.7022 9.90814 25.5923 9.83623 25.4707 9.79052C25.3663 9.74237 25.251 9.72282 25.1366 9.73388C25.0221 9.74494 24.9127 9.78621 24.8195 9.85346Z" fill="#FE3030"/>
<path d="M18.3378 8.73247C12.5779 6.48078 7.00191 8.70342 5.90996 13.6886C4.81801 18.6738 8.61199 24.5621 14.3841 26.8162C20.1561 29.0703 25.72 26.8428 26.8119 21.8577C27.9039 16.8725 24.0978 10.9842 18.3378 8.73247ZM26.364 21.6833C25.3157 26.4627 19.9867 28.5909 14.464 26.4312C8.94126 24.2716 5.29981 18.6423 6.35302 13.8629C7.40623 9.08354 12.7304 6.94807 18.2531 9.12712C23.7758 11.3062 27.4051 16.9136 26.3568 21.693" fill="#FE3030"/>
<path d="M8.14008 3.03779L9.95596 0.616621C11.8622 0.0585308 13.8589 -0.123208 15.8346 0.081542L14.0187 2.50272C12.043 2.29821 10.0464 2.47995 8.14008 3.03779Z" fill="#FE5858"/>
<path d="M29.163 11.5288L30.9764 9.10767C33.1555 12.1995 34.3661 15.7296 34.2474 19.1289L32.4315 21.5501C32.5502 18.1507 31.3396 14.6207 29.163 11.5288Z" fill="#FFA7A7"/>
<path d="M29.1631 11.5289C31.3422 14.6208 32.5528 18.1508 32.4317 21.5526C32.2671 21.5134 32.1054 21.4633 31.9475 21.4025C31.4416 21.2079 30.9821 20.9093 30.5989 20.526C30.2156 20.1428 29.917 19.6833 29.7224 19.1774L28.0131 14.3714C27.5748 13.1027 28.0736 11.9478 29.1631 11.5289Z" fill="#F66767"/>
<path d="M26.1899 5.01114C26.2579 4.94391 26.321 4.87189 26.3787 4.79565L24.5628 7.21683C24.5067 7.29438 24.4443 7.36725 24.3764 7.43473L25.7637 5.57769L25.9768 5.28957L26.0059 5.25326L26.0615 5.1782L26.0882 5.14188C26.1221 5.11041 26.1536 5.06198 26.1899 5.01114Z" fill="#FE3030"/>
<path d="M26.3788 4.80291L24.5653 7.22409C24.639 7.12597 24.7022 7.02049 24.7542 6.90933L26.57 4.48816C26.5162 4.59878 26.4521 4.70416 26.3788 4.80291Z" fill="#F66767"/>
<path d="M24.7542 6.91653L26.5701 4.49536C28.2575 5.8034 29.7423 7.35354 30.9766 9.09559L29.1632 11.5168C27.9261 9.77627 26.4406 8.2264 24.7542 6.91653Z" fill="#F84C4C"/>
<path d="M14.0162 2.50284L15.8321 0.081665C17.6239 0.261152 19.3823 0.688112 21.057 1.35036C23.0359 2.12857 24.8919 3.18871 26.5675 4.49788L24.7517 6.91906C23.0767 5.60892 21.2205 4.5487 19.2411 3.77153C17.5669 3.10779 15.8083 2.68078 14.0162 2.50284Z" fill="#FFA7A7"/>
</g>
<defs>
<clipPath id="clip0_1257_64759">
<rect width="56" height="56" fill="white"/>
</clipPath>
</defs>
</svg>
