<svg width="56" height="56" viewBox="0 0 56 56" fill="none" xmlns="http://www.w3.org/2000/svg">
<g clip-path="url(#clip0_3516_50652)">
<mask id="mask0_3516_50652" style="mask-type:alpha" maskUnits="userSpaceOnUse" x="11" y="49" width="34" height="8">
<path d="M44.9058 53.3586C44.9058 54.8175 37.3369 56.0001 28.0001 56.0001C18.6634 56.0001 11.0945 54.8175 11.0945 53.3586L11.0945 50.1888C13.7894 49.2889 21.2212 50.7171 28.0001 50.7171C34.779 50.7171 42.2109 49.2889 44.9058 50.1888V53.3586Z" fill="#FACE09"/>
</mask>
<g mask="url(#mask0_3516_50652)">
<rect x="11.0945" y="49.6606" width="33.8113" height="19.0189" fill="#FACE09"/>
<rect x="15.3211" y="49.6604" width="5.28301" height="19.0189" fill="#FFE97A"/>
<rect x="22.7173" y="49.6604" width="10.566" height="19.0189" fill="#FBB021"/>
<rect x="35.3965" y="49.6604" width="4.22641" height="19.0189" fill="#F7873B"/>
</g>
<ellipse cx="28.0003" cy="50.1886" rx="16.9056" ry="2.64151" fill="#FFDF53"/>
<path fill-rule="evenodd" clip-rule="evenodd" d="M8.98811 12.6792H14.7607V8.45276H8.98811C4.44901 8.45276 1.38062 13.0835 3.14996 17.2636L7.19123 26.8111C7.20395 26.8411 7.21675 26.8713 7.22963 26.9018C7.84227 28.3497 8.64145 30.2384 9.76035 31.7577C10.9314 33.3479 12.704 34.8678 15.289 34.8678H22.6843L22.6851 30.6414H15.289C14.5912 30.6414 13.9277 30.2892 13.1635 29.2515C12.3707 28.175 11.7454 26.7277 11.0833 25.1636L7.04206 15.6161C6.45228 14.2227 7.47508 12.6792 8.98811 12.6792Z" fill="#FACE09"/>
<path d="M7.19112 26.8109L7.22952 26.9016C7.84216 28.3495 8.64133 30.2382 9.76024 31.7576C10.9313 33.3478 12.7038 34.8677 15.2888 34.8677H21.0076C13.8851 34.4899 8.88785 29.465 7.19112 26.8109Z" fill="#F6873B"/>
<path d="M14.7606 8.45276H8.98802C4.44891 8.45276 1.38053 13.0835 3.14987 17.2636C3.1352 14.3266 5.43681 8.45276 14.7606 8.45276Z" fill="#FFE97A"/>
<path fill-rule="evenodd" clip-rule="evenodd" d="M47.0118 12.6792H41.2393V8.45276H47.0118C51.5509 8.45276 54.6193 13.0835 52.85 17.2636L48.8087 26.8111C48.796 26.8411 48.7832 26.8713 48.7703 26.9018C48.1577 28.3497 47.3585 30.2384 46.2396 31.7577C45.0685 33.3479 43.296 34.8678 40.711 34.8678H33.3156L33.3148 30.6414H40.711C41.4088 30.6414 42.0722 30.2892 42.8364 29.2515C43.6292 28.175 44.2546 26.7277 44.9166 25.1636L48.9579 15.6161C49.5477 14.2227 48.5249 12.6792 47.0118 12.6792Z" fill="#FACE09"/>
<path d="M48.8088 26.8109L48.7704 26.9016C48.1578 28.3495 47.3586 30.2382 46.2397 31.7576C45.0686 33.3478 43.2961 34.8677 40.7111 34.8677H34.9923C42.1148 34.4899 47.1121 29.465 48.8088 26.8109Z" fill="#F6873B"/>
<path d="M41.2394 8.45276H47.0119C51.551 8.45276 54.6194 13.0835 52.8501 17.2636C52.8647 14.3266 50.5631 8.45276 41.2394 8.45276Z" fill="#FFE97A"/>
<rect x="25.8869" y="36.9812" width="4.22641" height="13.7358" fill="#FACE09"/>
<path opacity="0.56" d="M25.887 37.9623H30.1134V39.9245C30.1134 39.9245 29.1228 39.2705 28.0002 39.2705C26.8775 39.2705 25.887 39.9245 25.887 39.9245V37.9623Z" fill="#AF4D1E"/>
<rect x="25.8869" y="36.9812" width="4.22641" height="13.7358" fill="#FACE09"/>
<rect x="26.9434" y="36.9812" width="1.0566" height="13.7358" fill="#FFE97A"/>
<path opacity="0.56" d="M25.887 37.9623H30.1134V39.9245C30.1134 39.9245 29.1228 39.2705 28.0002 39.2705C26.8775 39.2705 25.887 39.9245 25.887 39.9245V37.9623Z" fill="#AF4D1E"/>
<path d="M14.2642 11.6226H41.7358V21.8775C41.7358 29.9367 37.3 37.7157 29.2463 38.0146C28.839 38.0297 28.4235 38.0376 28 38.0376C27.5765 38.0376 27.161 38.0297 26.7536 38.0146C18.7 37.7157 14.2642 29.9367 14.2642 21.8775V11.6226Z" fill="#FACE09"/>
<path d="M24.8301 35.9246C16.3773 31.6982 16.3773 21.1321 16.3773 15.8491H20.6037C20.6037 22.717 19.5471 28.5284 24.8301 35.9246Z" fill="#FFE97A"/>
<path d="M31.1699 35.9246C39.6227 31.6982 39.6227 21.1321 39.6227 15.8491H35.3963C35.3963 22.717 36.4529 28.5284 31.1699 35.9246Z" fill="#F7873B"/>
<rect x="12.1511" y="6.3396" width="31.6981" height="9.50943" fill="#FACE09"/>
<rect x="16.3773" y="6.3396" width="4.22641" height="9.50943" fill="#FFE97A"/>
<rect x="22.717" y="6.3396" width="10.566" height="9.50943" fill="#FBB021"/>
<path d="M22.717 15.8491H33.2831V23.4071C33.2831 26.6122 32.302 29.7406 30.4716 32.3717L28.0001 35.9246L25.5285 32.3717C23.6981 29.7406 22.717 26.6122 22.717 23.4071V15.8491Z" fill="#FBB021"/>
<rect x="35.3962" y="6.3396" width="4.22641" height="9.50943" fill="#F7873B"/>
<path d="M11.0944 2.11321C11.0944 2.11321 21.1321 0 28.5283 0C35.9245 0 44.9056 2.11321 44.9056 2.11321V6.33962H11.0944V2.11321Z" fill="#FACE09"/>
<path opacity="0.56" d="M12.1511 6.3396H43.8491V9.50941C43.8491 9.50941 36.4199 8.45281 28.0001 8.45281C19.5803 8.45281 12.1511 9.50941 12.1511 9.50941V6.3396Z" fill="#AF4D1E"/>
<path opacity="0.56" d="M14.2642 15.8491H41.7358V17.9623C41.7358 17.9623 35.2972 17.2579 28 17.2579C20.7028 17.2579 14.2642 17.9623 14.2642 17.9623V15.8491Z" fill="#AF4D1E"/>
<path d="M15.3209 1.32402L20.6039 0.560691V6.33955H15.3209V1.32402Z" fill="#FFE97A"/>
<path d="M22.7171 0.313694C22.7171 0.313694 26.4152 0.0065918 28.0001 0.0065918C29.585 0.0065918 33.2831 0.265046 33.2831 0.265046V6.33957H22.7171V0.313694Z" fill="#FBB021"/>
<path d="M35.3962 0.466309L39.6227 1.07021V6.33952H35.3962L35.3962 0.466309Z" fill="#F7873B"/>
<ellipse cx="20.6038" cy="49.6604" rx="3.16981" ry="1.0566" fill="#FFE97A"/>
<ellipse cx="19.0189" cy="49.1321" rx="1.5849" ry="0.528301" fill="#FFF4BE"/>
<ellipse opacity="0.2" cx="21.6604" cy="11.6226" rx="3.16981" ry="3.16981" fill="#FFF4BE"/>
<circle opacity="0.45" cx="18.4907" cy="26.4152" r="3.16981" fill="#FFF4BE"/>
<ellipse opacity="0.2" cx="50.1887" cy="9.50941" rx="3.16981" ry="3.16981" fill="#FFF4BE"/>
<ellipse opacity="0.2" cx="6.33966" cy="11.0943" rx="1.5849" ry="1.5849" fill="#FFF4BE"/>
<ellipse opacity="0.2" cx="15.3207" cy="4.22649" rx="2.11321" ry="2.11321" fill="#FFF4BE"/>
<path d="M20.038 19.9506L20.832 26.7838L27.6179 27.913L20.7847 28.7071L19.6555 35.4929L18.8614 28.6598L12.0756 27.5305L18.9088 26.7365L20.038 19.9506Z" fill="white" fill-opacity="0.84"/>
<path opacity="0.2" d="M23.5992 27.8141C23.5482 29.8865 21.8268 31.5252 19.7544 31.4742C17.682 31.4232 16.0433 29.7018 16.0943 27.6294C16.1453 25.557 17.8667 23.9183 19.9391 23.9693C22.0115 24.0203 23.6502 25.7417 23.5992 27.8141Z" fill="white"/>
</g>
<defs>
<clipPath id="clip0_3516_50652">
<rect width="56" height="56" fill="white"/>
</clipPath>
</defs>
</svg>
