<svg width="92" height="92" viewBox="0 0 92 92" fill="none" xmlns="http://www.w3.org/2000/svg">
<circle opacity="0.6" cx="46" cy="46" r="46" fill="url(#paint0_radial_1401_121501)"/>
<g clip-path="url(#clip0_1401_121501)">
<mask id="mask0_1401_121501" style="mask-type:alpha" maskUnits="userSpaceOnUse" x="29" y="67" width="34" height="8">
<path d="M62.9058 71.3586C62.9058 72.8175 55.3369 74.0001 46.0001 74.0001C36.6634 74.0001 29.0945 72.8175 29.0945 71.3586L29.0945 68.1888C31.7894 67.2889 39.2212 68.7171 46.0001 68.7171C52.779 68.7171 60.2109 67.2889 62.9058 68.1888V71.3586Z" fill="#FACE09"/>
</mask>
<g mask="url(#mask0_1401_121501)">
<rect x="29.0946" y="67.6606" width="33.8113" height="19.0189" fill="#FACE09"/>
<rect x="33.3211" y="67.6604" width="5.28301" height="19.0189" fill="#FFE97A"/>
<rect x="40.7173" y="67.6604" width="10.566" height="19.0189" fill="#FBB021"/>
<rect x="53.3965" y="67.6604" width="4.22641" height="19.0189" fill="#F7873B"/>
</g>
<ellipse cx="46.0003" cy="68.1886" rx="16.9056" ry="2.64151" fill="#FFDF53"/>
<path fill-rule="evenodd" clip-rule="evenodd" d="M26.9881 30.6792H32.7607V26.4528H26.9881C22.449 26.4528 19.3807 31.0835 21.15 35.2636L25.1913 44.8111C25.204 44.8411 25.2168 44.8713 25.2297 44.9018C25.8423 46.3497 26.6415 48.2384 27.7604 49.7577C28.9314 51.3479 30.704 52.8678 33.289 52.8678H40.6843L40.6852 48.6414H33.289C32.5912 48.6414 31.9277 48.2892 31.1636 47.2515C30.3707 46.175 29.7454 44.7277 29.0834 43.1636L25.0421 33.6161C24.4523 32.2227 25.4751 30.6792 26.9881 30.6792Z" fill="#FACE09"/>
<path d="M25.1912 44.8109L25.2295 44.9016C25.8422 46.3495 26.6414 48.2382 27.7603 49.7576C28.9313 51.3478 30.7039 52.8677 33.2889 52.8677H39.0077C31.8851 52.4899 26.8879 47.465 25.1912 44.8109Z" fill="#F6873B"/>
<path d="M32.7606 26.4528H26.988C22.4489 26.4528 19.3805 31.0835 21.1499 35.2636C21.1352 32.3266 23.4368 26.4528 32.7606 26.4528Z" fill="#FFE97A"/>
<path fill-rule="evenodd" clip-rule="evenodd" d="M65.0119 30.6792H59.2393V26.4528H65.0119C69.551 26.4528 72.6194 31.0835 70.85 35.2636L66.8088 44.8111C66.796 44.8411 66.7832 44.8713 66.7704 44.9018C66.1577 46.3497 65.3585 48.2384 64.2396 49.7577C63.0686 51.3479 61.296 52.8678 58.711 52.8678H51.3157L51.3149 48.6414H58.711C59.4088 48.6414 60.0723 48.2892 60.8365 47.2515C61.6293 46.175 62.2546 44.7277 62.9167 43.1636L66.9579 33.6161C67.5477 32.2227 66.5249 30.6792 65.0119 30.6792Z" fill="#FACE09"/>
<path d="M66.8089 44.8109L66.7705 44.9016C66.1578 46.3495 65.3587 48.2382 64.2398 49.7576C63.0687 51.3478 61.2962 52.8677 58.7112 52.8677H52.9924C60.1149 52.4899 65.1122 47.465 66.8089 44.8109Z" fill="#F6873B"/>
<path d="M59.2395 26.4528H65.012C69.5511 26.4528 72.6195 31.0835 70.8501 35.2636C70.8648 32.3266 68.5632 26.4528 59.2395 26.4528Z" fill="#FFE97A"/>
<rect x="43.8869" y="54.9812" width="4.22641" height="13.7358" fill="#FACE09"/>
<path opacity="0.56" d="M43.8869 55.9623H48.1133V57.9245C48.1133 57.9245 47.1228 57.2705 46.0001 57.2705C44.8775 57.2705 43.8869 57.9245 43.8869 57.9245V55.9623Z" fill="#AF4D1E"/>
<rect x="43.8869" y="54.9812" width="4.22641" height="13.7358" fill="#FACE09"/>
<rect x="44.9434" y="54.9812" width="1.0566" height="13.7358" fill="#FFE97A"/>
<path opacity="0.56" d="M43.8869 55.9623H48.1133V57.9245C48.1133 57.9245 47.1228 57.2705 46.0001 57.2705C44.8775 57.2705 43.8869 57.9245 43.8869 57.9245V55.9623Z" fill="#AF4D1E"/>
<path d="M32.2642 29.6226H59.7359V39.8775C59.7359 47.9367 55.3 55.7157 47.2464 56.0146C46.8391 56.0297 46.4235 56.0376 46 56.0376C45.5765 56.0376 45.161 56.0297 44.7537 56.0146C36.7001 55.7157 32.2642 47.9367 32.2642 39.8775V29.6226Z" fill="#FACE09"/>
<path d="M42.8301 53.9246C34.3773 49.6982 34.3773 39.1321 34.3773 33.8491H38.6037C38.6037 40.717 37.5471 46.5284 42.8301 53.9246Z" fill="#FFE97A"/>
<path d="M49.1699 53.9246C57.6227 49.6982 57.6227 39.1321 57.6227 33.8491H53.3963C53.3963 40.717 54.4529 46.5284 49.1699 53.9246Z" fill="#F7873B"/>
<rect x="30.1511" y="24.3396" width="31.6981" height="9.50943" fill="#FACE09"/>
<rect x="34.3772" y="24.3396" width="4.22641" height="9.50943" fill="#FFE97A"/>
<rect x="40.7171" y="24.3396" width="10.566" height="9.50943" fill="#FBB021"/>
<path d="M40.7171 33.8491H51.2831V41.4071C51.2831 44.6122 50.302 47.7406 48.4716 50.3717L46.0001 53.9246L43.5285 50.3717C41.6982 47.7406 40.7171 44.6122 40.7171 41.4071V33.8491Z" fill="#FBB021"/>
<rect x="53.3962" y="24.3396" width="4.22641" height="9.50943" fill="#F7873B"/>
<path d="M29.0944 20.1132C29.0944 20.1132 39.1321 18 46.5283 18C53.9246 18 62.9057 20.1132 62.9057 20.1132V24.3396H29.0944V20.1132Z" fill="#FACE09"/>
<path opacity="0.56" d="M30.1511 24.3396H61.8491V27.5094C61.8491 27.5094 54.4199 26.4528 46.0001 26.4528C37.5803 26.4528 30.1511 27.5094 30.1511 27.5094V24.3396Z" fill="#AF4D1E"/>
<path opacity="0.56" d="M32.2642 33.8491H59.7359V35.9623C59.7359 35.9623 53.2972 35.2579 46 35.2579C38.7029 35.2579 32.2642 35.9623 32.2642 35.9623V33.8491Z" fill="#AF4D1E"/>
<path d="M33.3209 19.324L38.6039 18.5607V24.3395H33.3209V19.324Z" fill="#FFE97A"/>
<path d="M40.7171 18.3137C40.7171 18.3137 44.4152 18.0066 46.0001 18.0066C47.585 18.0066 51.2831 18.265 51.2831 18.265V24.3396H40.7171V18.3137Z" fill="#FBB021"/>
<path d="M53.3963 18.4663L57.6227 19.0702V24.3395H53.3963L53.3963 18.4663Z" fill="#F7873B"/>
<ellipse cx="38.6038" cy="67.6604" rx="3.16981" ry="1.0566" fill="#FFE97A"/>
<ellipse cx="37.0189" cy="67.1321" rx="1.5849" ry="0.528301" fill="#FFF4BE"/>
<ellipse opacity="0.2" cx="39.6605" cy="29.6226" rx="3.16981" ry="3.16981" fill="#FFF4BE"/>
<circle opacity="0.45" cx="36.4907" cy="44.4152" r="3.16981" fill="#FFF4BE"/>
<ellipse opacity="0.2" cx="68.1888" cy="27.5094" rx="3.16981" ry="3.16981" fill="#FFF4BE"/>
<ellipse opacity="0.2" cx="24.3397" cy="29.0943" rx="1.5849" ry="1.5849" fill="#FFF4BE"/>
<ellipse opacity="0.2" cx="33.3207" cy="22.2265" rx="2.11321" ry="2.11321" fill="#FFF4BE"/>
<path d="M38.038 37.9506L38.8321 44.7838L45.6179 45.913L38.7847 46.7071L37.6555 53.4929L36.8615 46.6598L30.0756 45.5305L36.9088 44.7365L38.038 37.9506Z" fill="white" fill-opacity="0.84"/>
<path opacity="0.2" d="M41.5992 45.8141C41.5482 47.8865 39.8269 49.5252 37.7544 49.4742C35.682 49.4232 34.0433 47.7018 34.0943 45.6294C34.1453 43.557 35.8667 41.9183 37.9391 41.9693C40.0115 42.0203 41.6502 43.7417 41.5992 45.8141Z" fill="white"/>
</g>
<defs>
<radialGradient id="paint0_radial_1401_121501" cx="0" cy="0" r="1" gradientUnits="userSpaceOnUse" gradientTransform="translate(46 46) rotate(90) scale(46)">
<stop stop-color="#FFC700"/>
<stop offset="1" stop-color="#1D1E25" stop-opacity="0"/>
</radialGradient>
<clipPath id="clip0_1401_121501">
<rect width="56" height="56" fill="white" transform="translate(18 18)"/>
</clipPath>
</defs>
</svg>
