<svg width="56" height="56" viewBox="0 0 56 56" fill="none" xmlns="http://www.w3.org/2000/svg">
<path d="M22.5524 11.8125H33.4476C35.588 11.8125 37.6673 11.0991 39.3568 9.78501L42.3313 7.47151C43.8179 6.31525 45.6475 5.6875 47.5308 5.6875C52.2082 5.6875 56 9.47927 56 14.1567V45.7258C56 48.7422 53.5547 51.1875 50.5383 51.1875C48.7521 51.1875 47.0788 50.3141 46.0575 48.8487L40.4976 40.8715C38.6977 38.2891 35.7489 36.75 32.6012 36.75H23.3988C20.2511 36.75 17.3023 38.2891 15.5024 40.8715L9.94254 48.8487C8.92122 50.3141 7.24791 51.1875 5.46174 51.1875C2.4453 51.1875 0 48.7422 0 45.7258V14.1567C0 9.47927 3.79177 5.6875 8.46916 5.6875C10.3525 5.6875 12.1821 6.31525 13.6687 7.47151L16.6432 9.78501C18.3327 11.0991 20.412 11.8125 22.5524 11.8125Z" fill="#7724FF"/>
<path d="M13.6687 7.47151L16.6432 9.78501C18.3327 11.0991 20.412 11.8125 22.5524 11.8125H33.4476C35.588 11.8125 37.6673 11.0991 39.3568 9.78502L42.3313 7.47151C43.8179 6.31525 45.6475 5.6875 47.5308 5.6875C52.2082 5.6875 56 9.47927 56 14.1567C56 14.1567 54.3742 8.3125 47.5308 8.75C40.6875 9.1875 39.3568 13.5625 32.6012 13.5625H23.3988C16.6432 13.5625 15.3125 9.1875 8.46916 8.75C1.62583 8.3125 0 14.1567 0 14.1567C0 9.47927 3.79177 5.6875 8.46916 5.6875C10.3525 5.6875 12.1821 6.31525 13.6687 7.47151Z" fill="#A26AFE"/>
<path d="M21.3783 32.3749H34.6217C36.0011 32.3749 37.3412 31.9151 38.43 31.0683C41.5915 28.6093 46.2199 29.7464 47.8821 33.3904L53.4171 45.5249C54.6259 48.175 52.6889 51.1874 49.7762 51.1874C48.4675 51.1874 47.2415 50.5475 46.4932 49.4738L40.4976 40.8714C38.6977 38.2891 35.7489 36.7499 32.6012 36.7499H23.3988C20.2511 36.7499 17.3023 38.2891 15.5025 40.8714L9.50682 49.4738C8.75851 50.5475 7.5325 51.1874 6.22379 51.1874C3.31106 51.1874 1.37411 48.175 2.58291 45.5249L8.11796 33.3904C9.78013 29.7464 14.4085 28.6093 17.57 31.0683C18.6589 31.9151 19.9989 32.3749 21.3783 32.3749Z" fill="#5A0DD8"/>
<circle cx="47.25" cy="14.875" r="2.625" fill="#AF8700"/>
<circle cx="46.8125" cy="14.4375" r="2.1875" fill="#EFBD17"/>
<circle cx="42" cy="20.125" r="2.625" fill="#0046AF"/>
<circle cx="41.5625" cy="19.6875" r="2.1875" fill="#1787EF"/>
<circle cx="9.1875" cy="18.8125" r="5.6875" fill="#36007A"/>
<ellipse cx="8.23958" cy="17.8646" rx="4.73958" ry="4.73958" fill="#9643FF"/>
<circle cx="8.3125" cy="17.9375" r="3.0625" fill="#D095FF"/>
<circle cx="34.5625" cy="25.8125" r="3.9375" fill="#36007A"/>
<circle cx="33.9062" cy="25.1562" r="3.28125" fill="#9643FF"/>
<circle cx="33.9567" cy="25.2067" r="2.12019" fill="#D095FF"/>
<circle cx="52.5" cy="20.125" r="2.625" fill="#AF0074"/>
<circle cx="52.0625" cy="19.6875" r="2.1875" fill="#EF177F"/>
<circle cx="47.25" cy="25.375" r="2.625" fill="#00AF12"/>
<circle cx="46.8125" cy="24.9375" r="2.1875" fill="#69EF17"/>
<rect x="18.8125" y="21" width="3.5" height="9.625" rx="1" fill="#481414"/>
<rect x="15.75" y="27.5625" width="3.5" height="9.625" rx="1" transform="rotate(-90 15.75 27.5625)" fill="#481414"/>
<path d="M17.9375 21C17.9375 20.5168 18.3293 20.125 18.8125 20.125H20.5625C21.0457 20.125 21.4375 20.5168 21.4375 21V28.875C21.4375 29.3582 21.0457 29.75 20.5625 29.75H18.8125C18.3293 29.75 17.9375 29.3582 17.9375 28.875V21Z" fill="#E26565"/>
<path d="M15.75 26.6875C15.2668 26.6875 14.875 26.2957 14.875 25.8125L14.875 24.0625C14.875 23.5793 15.2668 23.1875 15.75 23.1875L23.625 23.1875C24.1082 23.1875 24.5 23.5793 24.5 24.0625V25.8125C24.5 26.2957 24.1082 26.6875 23.625 26.6875L15.75 26.6875Z" fill="#E26565"/>
<path d="M18.5739 22.4318C18.5739 22.1243 18.8232 21.875 19.1307 21.875H20.2443C20.5518 21.875 20.8011 22.1243 20.8011 22.4318V27.4432C20.8011 27.7507 20.5518 28 20.2443 28H19.1307C18.8232 28 18.5739 27.7507 18.5739 27.4432V22.4318Z" fill="#F98A8A"/>
<path d="M17.1818 26.0511C16.8743 26.0511 16.625 25.8018 16.625 25.4943L16.625 24.3807C16.625 24.0732 16.8743 23.8239 17.1818 23.8239L22.1932 23.8239C22.5007 23.8239 22.75 24.0732 22.75 24.3807V25.4943C22.75 25.8018 22.5007 26.0511 22.1932 26.0511L17.1818 26.0511Z" fill="#F98A8A"/>
<circle opacity="0.46" cx="7.4375" cy="17.0625" r="1.3125" fill="#E9CDFF"/>
<circle opacity="0.2" cx="40.6875" cy="19.6875" r="1.3125" fill="#E9CDFF"/>
<circle opacity="0.56" cx="45.9375" cy="14.4375" r="1.3125" fill="#E9CDFF"/>
<circle opacity="0.56" cx="51.1875" cy="19.6875" r="1.3125" fill="#E9CDFF"/>
<circle opacity="0.56" cx="45.9375" cy="24.9375" r="1.3125" fill="#E9CDFF"/>
<circle opacity="0.1" cx="42.875" cy="34.125" r="3.5" fill="#E9CDFF"/>
<circle opacity="0.1" cx="12.25" cy="34.125" r="3.5" fill="#E9CDFF"/>
<circle opacity="0.1" cx="28" cy="18.375" r="3.5" fill="#E9CDFF"/>
<circle opacity="0.1" cx="47.25" cy="19.25" r="5.25" fill="#E9CDFF"/>
</svg>
