<svg width="84" height="84" viewBox="0 0 84 84" fill="none" xmlns="http://www.w3.org/2000/svg">
<circle opacity="0.4" cx="42" cy="42" r="42" fill="url(#paint0_radial_956_14362)"/>
<path d="M37.3306 28.125H46.6694C48.504 28.125 50.2862 27.5135 51.7344 26.3872L54.2839 24.4042C55.5582 23.4131 57.1264 22.875 58.7407 22.875C62.7499 22.875 66 26.1251 66 30.1343V57.1935C66 59.779 63.904 61.875 61.3185 61.875C59.7875 61.875 58.3532 61.1264 57.4778 59.8703L52.7122 53.0327C51.1695 50.8193 48.6419 49.5 45.9439 49.5H38.0561C35.3581 49.5 32.8305 50.8193 31.2878 53.0327L26.5222 59.8703C25.6468 61.1264 24.2125 61.875 22.6815 61.875C20.096 61.875 18 59.779 18 57.1935V30.1343C18 26.1251 21.2501 22.875 25.2593 22.875C26.8736 22.875 28.4418 23.4131 29.7161 24.4042L32.2656 26.3872C33.7138 27.5135 35.496 28.125 37.3306 28.125Z" fill="#7724FF"/>
<path d="M29.7161 24.4042L32.2656 26.3872C33.7138 27.5135 35.496 28.125 37.3306 28.125H46.6694C48.504 28.125 50.2862 27.5135 51.7344 26.3872L54.2839 24.4042C55.5582 23.4131 57.1264 22.875 58.7407 22.875C62.7499 22.875 66 26.1251 66 30.1343C66 30.1343 64.6064 25.125 58.7407 25.5C52.875 25.875 51.7344 29.625 45.9439 29.625H38.0561C32.2656 29.625 31.125 25.875 25.2593 25.5C19.3936 25.125 18 30.1343 18 30.1343C18 26.1251 21.2501 22.875 25.2593 22.875C26.8736 22.875 28.4418 23.4131 29.7161 24.4042Z" fill="#A26AFE"/>
<path d="M36.3243 45.75H47.6757C48.8581 45.75 50.0067 45.3559 50.94 44.63C53.6499 42.5223 57.617 43.497 59.0418 46.6204L63.7861 57.0214C64.8222 59.2929 63.162 61.875 60.6653 61.875C59.5436 61.875 58.4927 61.3265 57.8513 60.4062L52.7122 53.0327C51.1695 50.8193 48.6419 49.5 45.9439 49.5H38.0561C35.3581 49.5 32.8305 50.8193 31.2878 53.0327L26.1487 60.4062C25.5073 61.3265 24.4564 61.875 23.3347 61.875C20.8381 61.875 19.1778 59.2929 20.2139 57.0214L24.9583 46.6204C26.383 43.497 30.3501 42.5223 33.06 44.63C33.9933 45.3559 35.1419 45.75 36.3243 45.75Z" fill="#5A0DD8"/>
<circle cx="58.5" cy="30.75" r="2.25" fill="#AF8700"/>
<circle cx="58.125" cy="30.375" r="1.875" fill="#EFBD17"/>
<circle cx="54" cy="35.25" r="2.25" fill="#0046AF"/>
<circle cx="53.625" cy="34.875" r="1.875" fill="#1787EF"/>
<circle cx="25.875" cy="34.125" r="4.875" fill="#36007A"/>
<circle cx="25.0625" cy="33.3125" r="4.0625" fill="#9643FF"/>
<circle cx="25.125" cy="33.375" r="2.625" fill="#D095FF"/>
<circle cx="47.625" cy="40.125" r="3.375" fill="#36007A"/>
<circle cx="47.0625" cy="39.5625" r="2.8125" fill="#9643FF"/>
<circle cx="47.1058" cy="39.6058" r="1.81731" fill="#D095FF"/>
<circle cx="63" cy="35.25" r="2.25" fill="#AF0074"/>
<circle cx="62.625" cy="34.875" r="1.875" fill="#EF177F"/>
<circle cx="58.5" cy="39.75" r="2.25" fill="#00AF12"/>
<circle cx="58.125" cy="39.375" r="1.875" fill="#69EF17"/>
<rect x="34.125" y="36" width="3" height="8.25" rx="1" fill="#481414"/>
<rect x="31.5" y="41.625" width="3" height="8.25" rx="1" transform="rotate(-90 31.5 41.625)" fill="#481414"/>
<path d="M33.375 36C33.375 35.5858 33.7108 35.25 34.125 35.25H35.625C36.0392 35.25 36.375 35.5858 36.375 36V42.75C36.375 43.1642 36.0392 43.5 35.625 43.5H34.125C33.7108 43.5 33.375 43.1642 33.375 42.75V36Z" fill="#E26565"/>
<path d="M31.5 40.875C31.0858 40.875 30.75 40.5392 30.75 40.125L30.75 38.625C30.75 38.2108 31.0858 37.875 31.5 37.875L38.25 37.875C38.6642 37.875 39 38.2108 39 38.625V40.125C39 40.5392 38.6642 40.875 38.25 40.875L31.5 40.875Z" fill="#E26565"/>
<path d="M33.9205 37.2273C33.9205 36.9637 34.1341 36.75 34.3977 36.75H35.3523C35.6159 36.75 35.8295 36.9637 35.8295 37.2273V41.5227C35.8295 41.7863 35.6159 42 35.3523 42H34.3977C34.1341 42 33.9205 41.7863 33.9205 41.5227V37.2273Z" fill="#F98A8A"/>
<path d="M32.7273 40.3295C32.4637 40.3295 32.25 40.1159 32.25 39.8523L32.25 38.8977C32.25 38.6341 32.4637 38.4205 32.7273 38.4205L37.0227 38.4205C37.2863 38.4205 37.5 38.6341 37.5 38.8977V39.8523C37.5 40.1159 37.2863 40.3295 37.0227 40.3295L32.7273 40.3295Z" fill="#F98A8A"/>
<circle opacity="0.46" cx="24.375" cy="32.625" r="1.125" fill="#E9CDFF"/>
<circle opacity="0.2" cx="52.875" cy="34.875" r="1.125" fill="#E9CDFF"/>
<circle opacity="0.56" cx="57.375" cy="30.375" r="1.125" fill="#E9CDFF"/>
<circle opacity="0.56" cx="61.875" cy="34.875" r="1.125" fill="#E9CDFF"/>
<circle opacity="0.56" cx="57.375" cy="39.375" r="1.125" fill="#E9CDFF"/>
<circle opacity="0.1" cx="54.75" cy="47.25" r="3" fill="#E9CDFF"/>
<circle opacity="0.1" cx="28.5" cy="47.25" r="3" fill="#E9CDFF"/>
<circle opacity="0.1" cx="42" cy="33.75" r="3" fill="#E9CDFF"/>
<circle opacity="0.1" cx="58.5" cy="34.5" r="4.5" fill="#E9CDFF"/>
<defs>
<radialGradient id="paint0_radial_956_14362" cx="0" cy="0" r="1" gradientUnits="userSpaceOnUse" gradientTransform="translate(42 42) rotate(90) scale(42)">
<stop stop-color="#0094FF"/>
<stop offset="1" stop-color="#1D1E25" stop-opacity="0"/>
</radialGradient>
</defs>
</svg>
