<svg width="92" height="92" viewBox="0 0 92 92" fill="none" xmlns="http://www.w3.org/2000/svg">
<circle opacity="0.6" cx="46" cy="46" r="46" fill="url(#paint0_radial_1401_121781)"/>
<path d="M46.8362 39.8173C46.8088 39.7629 46.7851 39.7067 46.7653 39.6491C46.3799 38.7296 45.9946 37.8091 45.6093 36.8878C45.7496 37.0645 45.8646 37.2599 45.9508 37.4685L47.1778 40.3979C47.0889 40.1907 46.9741 39.9956 46.8362 39.8173V39.8173Z" fill="#3058FE"/>
<path d="M51.3605 40.9524L50.835 39.6781L50.1467 38.0229C50.298 37.989 50.4551 37.989 50.6065 38.0229L50.7483 38.3671L50.9007 38.7296L51.0584 39.1053L51.2186 39.4889L51.3789 39.8725L51.5365 40.2482L51.6889 40.6108L51.8308 40.955C51.6765 40.9166 51.5152 40.9157 51.3605 40.9524V40.9524Z" fill="#3058FE"/>
<path d="M51.8176 40.9496L50.5932 38.0175L50.7351 38.3616L50.8875 38.7242L51.0451 39.0999L51.2054 39.4835L51.3657 39.8671L51.5233 40.2428L51.6757 40.6054L51.8176 40.9496V40.9496Z" fill="#3058FE"/>
<path d="M54.8758 40.0118L53.662 37.0823C53.4057 36.448 53.3991 35.7402 53.6436 35.1013L54.8758 38.0308C54.6254 38.6674 54.6254 39.3752 54.8758 40.0118V40.0118Z" fill="#3058FE"/>
<path d="M49.3377 38.9634L49.4454 39.2261L49.5558 39.4888L49.6714 39.7647L49.7896 40.0485L49.9104 40.3348L50.0313 40.6239L50.1495 40.9102L50.2678 41.1914L49.3377 38.966V38.9634Z" fill="#3058FE"/>
<path d="M50.5645 41.893C50.5697 41.9464 50.583 41.9987 50.6039 42.048L49.3796 39.1159C49.3585 39.0673 49.3444 39.016 49.3376 38.9635C49.7474 39.9409 50.1555 40.9174 50.5619 41.893C50.1555 40.9156 49.7474 39.9391 49.3376 38.9635C49.285 38.5563 49.6423 38.1333 50.1258 38.0229L51.3527 40.9524C50.8667 41.0628 50.5093 41.4963 50.5645 41.893Z" fill="#3058FE"/>
<path d="M52.3089 41.3331C52.2633 41.2348 52.1949 41.1487 52.1095 41.082C52.0241 41.0153 51.924 40.9699 51.8176 40.9496L50.5932 38.0175C50.6994 38.0387 50.799 38.0847 50.884 38.1519C50.9689 38.219 51.0367 38.3053 51.0819 38.4037L52.3089 41.3331Z" fill="#3058FE"/>
<path d="M45.9427 37.4685L47.1697 40.398C47.6794 41.6197 47.1697 43.1619 45.8009 44.1971L44.5739 41.2676C45.9559 40.2325 46.4682 38.6902 45.9427 37.4685Z" fill="#6783F6"/>
<path d="M51.0822 38.4038L52.3091 41.3333C52.3278 41.3825 52.341 41.4336 52.3485 41.4857C52.3984 41.8929 52.0438 42.3159 51.5603 42.4262C51.4091 42.4616 51.2518 42.4616 51.1005 42.4262C50.9946 42.4053 50.8952 42.3596 50.8103 42.293C50.7254 42.2263 50.6574 42.1405 50.6119 42.0427L49.3875 39.1106C49.4315 39.209 49.4987 39.2953 49.5834 39.3621C49.668 39.4289 49.7676 39.4742 49.8736 39.4941C50.0248 39.5296 50.1822 39.5296 50.3334 39.4941C50.8247 39.3838 51.182 38.9687 51.1216 38.5536C51.1153 38.5021 51.1021 38.4517 51.0822 38.4038V38.4038Z" fill="#FFFCED"/>
<path d="M50.5933 38.0175C50.7236 38.0421 50.8434 38.1055 50.9371 38.1992C51.0308 38.2929 51.0942 38.4127 51.1188 38.543C51.1687 38.9502 50.8114 39.3732 50.3306 39.4836C50.1794 39.519 50.022 39.519 49.8708 39.4836C49.7396 39.461 49.6187 39.3984 49.5246 39.3043C49.4305 39.2102 49.3679 39.0893 49.3453 38.9581C49.2928 38.5509 49.6501 38.1279 50.1335 38.0175C50.2849 37.9836 50.4419 37.9836 50.5933 38.0175Z" fill="#FFFCED"/>
<path d="M44.5819 41.265L45.8089 44.1945L40.373 48.2879L39.1486 45.3584L44.5819 41.265Z" fill="#6783F6"/>
<path d="M54.876 40.0117L53.6622 37.0823C53.8516 37.5018 54.139 37.8696 54.5002 38.1549C54.8614 38.4402 55.2858 38.6346 55.7378 38.7217L56.9779 41.6512C56.521 41.5684 56.0911 41.376 55.725 41.0904C55.3589 40.8048 55.0676 40.4347 54.876 40.0117V40.0117Z" fill="#6783F6"/>
<path d="M39.1488 45.3583L40.3731 48.2877C39.8394 48.6958 39.2241 48.9842 38.569 49.1333C37.9139 49.2825 37.2344 49.2889 36.5766 49.1521C36.1307 49.0512 35.7109 48.8579 35.3444 48.5846L34.1201 45.6552C34.4876 45.9284 34.9082 46.1217 35.3549 46.2227C36.0123 46.3589 36.6913 46.3521 37.3458 46.203C38.0004 46.0539 38.6153 45.7658 39.1488 45.3583Z" fill="#6783F6"/>
<path d="M36.4635 48.6556L36.5686 48.9184L36.6816 49.1811L36.7972 49.4596L36.9154 49.7407L37.0363 50.0297L37.1545 50.3161L37.2754 50.6025L37.3936 50.8836L36.4635 48.6609V48.6556Z" fill="#3058FE"/>
<path d="M36.5055 52.1317C36.4608 52.2159 36.4349 52.3089 36.4294 52.4041C36.424 52.4993 36.4392 52.5946 36.474 52.6834L35.247 49.7539C35.2122 49.6651 35.197 49.5698 35.2025 49.4746C35.2079 49.3794 35.2339 49.2865 35.2785 49.2022L36.5055 52.1317L35.2785 49.2022C35.3917 48.9964 35.5678 48.8322 35.781 48.7339C35.9943 48.6355 36.2335 48.6081 36.4635 48.6557C36.8698 49.6296 37.2779 50.6061 37.6878 51.5852C37.2814 50.6078 36.8733 49.6313 36.4635 48.6557C36.5694 48.6758 36.6688 48.7212 36.7535 48.788C36.8381 48.8548 36.9053 48.941 36.9495 49.0393L38.1765 51.9688C38.1322 51.87 38.0646 51.7835 37.9795 51.7166C37.8944 51.6498 37.7943 51.6047 37.6878 51.5852C37.4582 51.5373 37.2193 51.5647 37.0064 51.6631C36.7935 51.7615 36.6178 51.9258 36.5055 52.1317Z" fill="#3058FE"/>
<path d="M36.9496 49.0393L38.1766 51.9688C38.2115 52.0571 38.2268 52.152 38.2213 52.2468C38.2159 52.3416 38.1899 52.4341 38.1451 52.5179C38.0327 52.7247 37.8569 52.8899 37.6436 52.9892C37.4303 53.0886 37.1907 53.1167 36.9601 53.0696C36.8542 53.0486 36.7548 53.0026 36.6703 52.9354C36.5857 52.8683 36.5185 52.7818 36.4741 52.6834L35.2471 49.7539C35.2917 49.8525 35.3594 49.9388 35.4445 50.0055C35.5296 50.0723 35.6295 50.1176 35.7358 50.1375C35.9661 50.1853 36.2056 50.1577 36.419 50.0588C36.6324 49.9599 36.8083 49.795 36.9207 49.5884C36.9644 49.5042 36.9896 49.4117 36.9946 49.317C36.9996 49.2223 36.9843 49.1276 36.9496 49.0393Z" fill="#FFFCED"/>
<path d="M36.4637 48.6558C36.5642 48.6719 36.6593 48.712 36.7412 48.7725C36.823 48.8331 36.889 48.9124 36.9338 49.0037C36.9786 49.0951 37.0008 49.196 36.9986 49.2977C36.9963 49.3995 36.9697 49.4992 36.9208 49.5885C36.8084 49.7951 36.6325 49.96 36.4191 50.0589C36.2058 50.1578 35.9662 50.1854 35.7359 50.1376C35.6351 50.1216 35.5395 50.0816 35.4574 50.0209C35.3753 49.9602 35.309 49.8806 35.2641 49.7888C35.2193 49.6971 35.1972 49.5959 35.1998 49.4938C35.2023 49.3917 35.2294 49.2917 35.2788 49.2023C35.3916 48.9962 35.5676 48.8318 35.781 48.7334C35.9944 48.635 36.2337 48.6078 36.4637 48.6558V48.6558Z" fill="#FFFCED"/>
<path d="M61.8907 40.167L63.1176 43.0964L56.9644 41.6514L55.7375 38.7219L61.8907 40.167Z" fill="#6783F6"/>
<path d="M66.5674 38.4224L67.7944 41.3518C67.2554 42.0503 66.5318 42.584 65.7054 42.8928C64.879 43.2015 63.9826 43.273 63.1177 43.099L61.8908 40.1827C62.7569 40.3571 63.6547 40.2845 64.4816 39.9733C65.3085 39.662 66.0312 39.1246 66.5674 38.4224V38.4224Z" fill="#6783F6"/>
<path d="M51.2291 46.2963L52.4534 49.2258C52.3441 49.203 52.2305 49.2116 52.1259 49.2506C52.0213 49.2897 51.9299 49.3576 51.8623 49.4465L50.6353 46.517C50.7036 46.4282 50.7955 46.3603 50.9005 46.3213C51.0055 46.2823 51.1194 46.2736 51.2291 46.2963V46.2963Z" fill="#FFFCED"/>
<path d="M33.5944 55.2713C33.1642 55.171 32.7206 55.1408 32.2808 55.182L31.0538 52.2525C31.4935 52.2122 31.9369 52.2415 32.3675 52.3392C32.7738 53.3166 33.182 54.2931 33.5918 55.2687L33.2976 54.5646L32.3675 52.3418C32.8189 52.4293 33.243 52.6231 33.6044 52.9074C33.9659 53.1916 34.2543 53.558 34.4457 53.976L35.6727 56.9055C35.4812 56.4874 35.1928 56.1211 34.8314 55.8368C34.4699 55.5526 34.0459 55.3587 33.5944 55.2713Z" fill="#3058FE"/>
<path d="M34.4352 53.9761L35.6621 56.9055C35.7475 57.1144 35.8058 57.3334 35.8355 57.5571L34.6086 54.6329C34.5805 54.4072 34.5222 54.1862 34.4352 53.9761V53.9761Z" fill="#6783F6"/>
<path d="M66.9275 44.9118L66.3153 43.4457C66.1104 42.957 65.9054 42.471 65.7031 41.9823C65.8281 41.886 65.9724 41.8181 66.1262 41.7831C66.28 41.7482 66.4396 41.7471 66.5938 41.78L66.7357 42.1215L66.8119 42.3002L66.9669 42.6706L67.1245 43.0516L67.2874 43.4352L67.3662 43.627L67.4451 43.8162L67.6001 44.1866L67.7472 44.5413C67.7816 44.5922 67.8057 44.6493 67.8181 44.7095C67.6639 44.6766 67.5043 44.6777 67.3505 44.7126C67.1967 44.7475 67.0524 44.8155 66.9275 44.9118V44.9118Z" fill="#3058FE"/>
<path d="M67.8181 44.7119C67.41 43.7346 67.0019 42.7581 66.5938 41.7825L66.7356 42.124L66.888 42.4866L67.0457 42.8623L67.2059 43.2459L67.3662 43.6295L67.5238 44.0052L67.6762 44.3678L67.8181 44.7119Z" fill="#3058FE"/>
<path d="M68.1806 44.9117C68.0308 44.5491 67.8785 44.1892 67.7287 43.8292C67.466 43.2144 67.2032 42.597 66.9536 41.9901C67.0351 42.019 67.0009 42.1031 67.0246 42.1583L67.1717 42.513L67.2505 42.6969L67.4082 43.0726L67.5684 43.4562L67.6473 43.648L67.8075 44.0289L67.9625 44.3994L68.0361 44.578L68.1806 44.9117Z" fill="#3058FE"/>
<path d="M68.1807 44.9118C68.0815 44.8123 67.9555 44.7438 67.8181 44.7147C67.41 43.7374 67.0019 42.7609 66.5938 41.7853C66.73 41.8139 66.855 41.8814 66.9537 41.9797V41.9797L67.0982 42.3213L67.1718 42.4999L67.3268 42.8704L67.4082 43.0595L68.1807 44.8987V44.9118Z" fill="#3058FE"/>
<path d="M66.9275 44.9117C66.7818 45.0033 66.6709 45.141 66.6124 45.3028C66.5538 45.4646 66.551 45.6414 66.6043 45.805L65.3852 42.8782C65.3349 42.7141 65.3395 42.5381 65.3983 42.3768C65.4571 42.2156 65.5669 42.078 65.711 41.9849C66.0683 42.8624 66.5597 44.0342 66.9275 44.9117Z" fill="#3058FE"/>
<path d="M68.3095 45.0983C68.2799 45.0271 68.2361 44.9628 68.1807 44.9091L66.9617 41.9771C67.0166 42.0321 67.0603 42.0972 67.0904 42.1688L68.3095 45.0983Z" fill="#3058FE"/>
<path d="M39.1119 55.1346C38.4237 57.3628 38.5277 59.7606 39.4062 61.9209L38.1818 58.9915C37.3008 56.8317 37.1968 54.433 37.8876 52.2051L38.0295 52.5493L38.1818 52.9118L38.3395 53.2875L38.4997 53.6711L38.5812 53.8629L38.7388 54.2439L38.8177 54.4304L38.8938 54.6143L38.97 54.793C39.0341 54.8991 39.082 55.0142 39.1119 55.1346V55.1346Z" fill="#3058FE"/>
<path d="M39.9001 53.1353C39.5812 53.7783 39.3175 54.4471 39.1119 55.1347C38.7038 54.1591 38.2957 53.1826 37.8876 52.2053C38.0932 51.5177 38.3569 50.8488 38.6758 50.2059C41.8811 43.6612 50.3858 39.7202 57.632 41.4253C61.481 42.3291 64.2003 44.6464 65.4456 47.6022L66.6726 50.5317C65.4378 47.5759 62.7053 45.2586 58.8563 44.3548C51.597 42.6497 43.0923 46.5907 39.9001 53.1353Z" fill="#3058FE"/>
<path d="M64.949 47.8018L66.1733 50.7313C64.9832 47.8833 62.348 45.6474 58.6382 44.7751C51.6469 43.1331 43.447 46.9322 40.3546 53.2456C38.9043 56.2066 38.8334 59.2018 39.8843 61.7188L38.66 58.7893C37.609 56.2723 37.68 53.2719 39.1276 50.3162C42.22 44.0106 50.4251 40.201 57.4112 41.8457C61.121 42.7179 63.7562 44.9538 64.949 47.8018Z" fill="#2545C6"/>
<path d="M63.3515 47.8229C63.136 47.6285 62.9101 47.4393 62.6736 47.2606C62.2672 46.2833 61.8591 45.3068 61.4493 44.3312C61.6857 44.5098 61.9117 44.6964 62.1245 44.8934L62.2112 45.0984L62.3005 45.3164L62.3951 45.5397L62.4923 45.771L62.5869 45.9995L62.6815 46.2255L62.7734 46.4435L62.8575 46.6459L62.9153 46.7851L62.9757 46.9296L63.0388 47.082L63.1045 47.2344L63.1675 47.3894L63.2332 47.5391L63.2937 47.6863L63.3515 47.8229Z" fill="#3058FE"/>
<path d="M56.2893 47.4838L57.5137 50.4132L52.4534 49.223L51.2291 46.2936L56.2893 47.4838Z" fill="#FFFCED"/>
<path d="M67.0826 42.1689L68.3095 45.0984C68.3601 45.2622 68.356 45.438 68.2976 45.5992C68.2393 45.7604 68.13 45.8982 67.9864 45.9917C67.8603 46.0868 67.7155 46.154 67.5615 46.1889C67.4075 46.2238 67.2478 46.2255 67.0931 46.194C66.957 46.1633 66.8323 46.095 66.7331 45.997C66.6783 45.9429 66.6346 45.8786 66.6044 45.8078L65.3853 42.8783C65.4164 42.9486 65.4601 43.0127 65.5141 43.0675C65.6136 43.1651 65.7382 43.2333 65.874 43.2645C66.0287 43.2961 66.1884 43.2943 66.3424 43.2594C66.4964 43.2246 66.6412 43.1573 66.7673 43.0622C66.9116 42.9695 67.0209 42.8313 67.0779 42.6696C67.135 42.5079 67.1366 42.3317 67.0826 42.1689V42.1689Z" fill="#FFFCED"/>
<path d="M52.7502 49.9037L53.9745 52.8332C53.8652 52.811 53.7519 52.82 53.6474 52.859C53.5429 52.898 53.4514 52.9655 53.3834 53.0539L52.159 50.1244C52.2271 50.0361 52.3185 49.9685 52.423 49.9295C52.5275 49.8905 52.6409 49.8816 52.7502 49.9037V49.9037Z" fill="#3058FE"/>
<path d="M63.3514 47.8228C63.3391 47.8012 63.3294 47.7783 63.3225 47.7545L63.2017 47.4655L63.136 47.3131L63.1045 47.2343L62.8575 46.6457L62.1245 44.8933C62.4422 45.181 62.7381 45.4919 63.0099 45.8234L63.1544 46.1649L63.3068 46.5275L63.4644 46.9032L63.6247 47.2868L63.785 47.6704L63.9426 48.0461L64.0923 48.4087L64.2369 48.7529C63.963 48.4233 63.6672 48.1125 63.3514 47.8228V47.8228Z" fill="#3058FE"/>
<path d="M64.5628 49.168C64.4577 49.0261 64.35 48.8868 64.237 48.7528C63.8272 47.7685 63.4217 46.792 63.0206 45.8234C63.1335 45.9574 63.2439 46.0861 63.3464 46.2385L63.4541 46.5012L63.567 46.7639L63.6853 47.0477L63.8061 47.3341L63.927 47.6231L64.0452 47.9068L64.1582 48.1696L64.2659 48.4323L64.3027 48.519L64.3395 48.6083L64.3789 48.7029L64.4183 48.7975L64.4603 48.8921L64.4998 48.9867L64.5365 49.076L64.5628 49.168Z" fill="#3058FE"/>
<path d="M54.2847 50.2715L55.509 53.201L53.9747 52.841L52.7504 49.9089L54.2847 50.2715Z" fill="#3058FE"/>
<path d="M52.1593 50.1323L53.3836 53.0618L52.0095 54.964L50.7825 52.0345L52.1593 50.1323Z" fill="#3058FE"/>
<path d="M51.9515 55.3212L50.7271 52.3917C50.7043 52.3326 50.6973 52.2684 50.707 52.2057C50.7167 52.143 50.7427 52.0839 50.7823 52.0344L52.0093 54.9665C51.9694 55.0154 51.9431 55.0739 51.9329 55.1361C51.9228 55.1984 51.9292 55.2622 51.9515 55.3212V55.3212Z" fill="#3058FE"/>
<path d="M55.1177 50.839L56.3447 53.7685C56.2291 53.5057 55.9506 53.306 55.5092 53.2036L54.2849 50.2715C54.7236 50.3766 55.0047 50.5657 55.1177 50.839Z" fill="#3058FE"/>
<path d="M52.2143 55.5261C52.1574 55.5153 52.1039 55.491 52.0582 55.4554C52.0125 55.4197 51.976 55.3737 51.9516 55.3212L50.7272 52.3917C50.7513 52.4445 50.7877 52.4907 50.8334 52.5264C50.8792 52.5621 50.9329 52.5862 50.99 52.5967L52.2143 55.5261Z" fill="#FFFCED"/>
<path d="M56.3443 53.7685C56.3443 53.7921 56.3627 53.8157 56.368 53.8394L55.1384 50.9099C55.1384 50.8863 55.1226 50.8626 55.1121 50.839L56.3443 53.7685Z" fill="#FFFCED"/>
<path d="M60.2015 52.4654C59.7654 51.4144 58.8704 50.7313 57.5164 50.416L56.2895 47.4866C57.6417 47.8036 58.5376 48.4858 58.9772 49.5333L60.2015 52.4654Z" fill="#FFFCED"/>
<path d="M58.9771 49.5331L60.2014 52.4626C60.2095 52.4796 60.2165 52.4971 60.2224 52.5151L58.9981 49.583C58.9902 49.5672 58.9849 49.5515 58.9771 49.5331Z" fill="#3058FE"/>
<path d="M52.5085 52.9512L53.7329 55.8833L52.2143 55.526L50.9899 52.5966L52.5085 52.9512Z" fill="#FFFCED"/>
<path d="M56.3681 53.8447C56.4811 54.16 56.3944 54.5146 56.1054 54.9087L55.9609 54.5672L55.8085 54.2046L55.6509 53.8263L55.4906 53.4427L55.1727 52.6834C55.0755 52.4496 54.9783 52.2131 54.8784 51.9793C55.1596 51.5852 55.2463 51.2305 55.1412 50.9283C55.5116 51.7875 56.0266 52.9488 56.3681 53.8447Z" fill="#FFFCED"/>
<path d="M56.1159 54.8955L54.8889 51.9661L56.1159 54.8955Z" fill="#FFFCED"/>
<path d="M34.6085 54.6249L35.8354 57.557L36.5527 63.0954L35.3284 60.1659L34.6085 54.6249Z" fill="#6783F6"/>
<path d="M53.7828 55.8967L53.7329 55.8836L52.5112 52.9541H52.5585L52.6898 53.2641L52.8265 53.5925L52.971 53.9341L53.1155 54.2835L53.2626 54.6303L53.4045 54.9719L53.5411 55.3029L53.6725 55.613V55.6445L53.6856 55.6786L53.7013 55.7128L53.7145 55.747L53.7303 55.7837L53.746 55.8179L53.7591 55.852L53.7828 55.8967Z" fill="#FFFCED"/>
<path d="M53.783 55.8965C53.3731 54.9191 52.9641 53.9427 52.556 52.967L52.7005 53.3086L52.8529 53.6712L53.0105 54.0495L53.1708 54.4331L53.3311 54.8167L53.4887 55.1924L53.6385 55.555L53.783 55.8965V55.8965Z" fill="#FFFCED"/>
<path d="M40.9272 53.3796C39.54 56.2118 39.4691 59.073 40.4727 61.4744L39.2457 58.5449C38.2421 56.1435 38.313 53.2902 39.7003 50.4501C42.6586 44.4072 50.4723 40.7894 57.1589 42.3632C58.7098 42.7104 60.17 43.381 61.444 44.3311L61.5859 44.6726L61.7383 45.0352L61.8959 45.4109L62.0562 45.7945L62.2165 46.1781L62.3741 46.5538L62.5265 46.9163L62.6684 47.2605C61.3927 46.3098 59.9307 45.6392 58.3779 45.2927C51.6993 43.7215 43.883 47.342 40.9272 53.3796Z" fill="#3058FE"/>
<path d="M64.5626 49.168C64.5554 49.1545 64.5492 49.1404 64.5442 49.126L64.5074 49.0366L64.4891 48.992L64.4076 48.8028L64.2552 48.4376C63.9505 47.7054 63.6439 46.9724 63.3357 46.2385C63.7485 46.7987 64.0925 47.4065 64.3603 48.0488L65.5873 50.9782C65.3174 50.337 64.9735 49.7294 64.5626 49.168V49.168Z" fill="#3058FE"/>
<path d="M55.0256 55.7732C54.9284 55.5368 54.8285 55.3029 54.7313 55.0665C54.6341 54.83 54.5185 54.5594 54.4134 54.3072L53.8012 52.8438C54.239 52.663 54.6162 52.3613 54.8889 51.9741L55.0335 52.3157L55.1832 52.6782L55.3408 53.054L55.5011 53.4375L55.6614 53.8211L55.819 54.1995L55.9714 54.562L56.1159 54.9036C55.8429 55.2916 55.4646 55.5934 55.0256 55.7732V55.7732Z" fill="#FFFCED"/>
<path d="M55.0255 55.7731C54.6379 55.9496 54.2028 55.993 53.788 55.8966C53.3781 54.9227 52.9691 53.9462 52.561 52.9671C52.9767 53.0635 53.4126 53.0201 53.8011 52.8436L55.0255 55.7731Z" fill="#FFFCED"/>
<path d="M54.2846 50.2715C54.761 50.3854 55.0474 50.5982 55.1437 50.9099C55.2567 51.2252 55.1674 51.5799 54.881 51.9609C54.6083 52.3481 54.231 52.6497 53.7933 52.8305C53.4048 53.007 52.9689 53.0504 52.5532 52.954H52.5007L50.9821 52.5967C50.9219 52.5869 50.8654 52.5614 50.8183 52.5226C50.7712 52.4839 50.7353 52.4333 50.7142 52.3761C50.6931 52.3189 50.6876 52.2572 50.6982 52.1971C50.7087 52.1371 50.7351 52.081 50.7745 52.0344L52.1512 50.1323C52.2193 50.0439 52.3107 49.9763 52.4152 49.9373C52.5197 49.8983 52.6331 49.8894 52.7424 49.9116L54.2846 50.2715Z" fill="#FFFCED"/>
<path d="M50.638 46.5144L51.8623 49.4465L43.8753 60.5154L42.6509 57.586L50.638 46.5144Z" fill="#FFFCED"/>
<path d="M40.1103 62.2128C40.0315 62.0525 39.9553 61.887 39.887 61.7215L38.66 58.792C38.7309 58.9575 38.8045 59.1204 38.8833 59.2833C38.928 59.3858 38.9858 59.5224 39.0278 59.6249L39.1802 59.9874L39.3378 60.3658L39.4981 60.7493L39.6584 61.1303L39.816 61.5086L39.9658 61.8712L40.1103 62.2128Z" fill="#3058FE"/>
<path d="M49.0012 55.1321L50.2255 58.0616C50.1166 58.0383 50.0033 58.0467 49.899 58.0858C49.7947 58.125 49.7038 58.1931 49.637 58.2822L48.41 55.3528C48.4777 55.2639 48.5691 55.196 48.6737 55.157C48.7783 55.1179 48.8919 55.1093 49.0012 55.1321V55.1321Z" fill="#3058FE"/>
<path d="M45.5123 58.7708L46.7392 61.7003L44.083 61.075L42.856 58.1455L45.5123 58.7708Z" fill="#3058FE"/>
<path d="M43.8753 60.5154C43.8364 60.5648 43.8108 60.6234 43.8011 60.6855C43.7915 60.7476 43.798 60.8112 43.8201 60.8701L42.5932 57.9406C42.5714 57.8815 42.5653 57.8178 42.5754 57.7557C42.5856 57.6935 42.6116 57.6351 42.651 57.5859L43.8753 60.5154Z" fill="#FFFCED"/>
<path d="M43.82 60.8701L42.5931 57.9407C42.6177 57.9933 42.6542 58.0395 42.6999 58.0756C42.7455 58.1116 42.7989 58.1365 42.8558 58.1482L44.0828 61.0777C44.0255 61.0668 43.9717 61.0422 43.926 61.0061C43.8803 60.9699 43.8439 60.9233 43.82 60.8701V60.8701Z" fill="#3058FE"/>
<path d="M49.8313 55.3239L51.0557 58.256L50.2254 58.059L49.0011 55.1295L49.8313 55.3239Z" fill="#3058FE"/>
<path d="M50.1177 55.6813L51.3421 58.6107L51.0504 62.4256L49.8261 59.4962L50.1177 55.6813Z" fill="#FFFCED"/>
<path d="M50.0941 55.5315L51.3184 58.4609C51.2946 58.408 51.2582 58.3617 51.2124 58.326C51.1666 58.2903 51.1128 58.2662 51.0557 58.256L49.8313 55.3265C49.8883 55.3372 49.9419 55.3614 49.9876 55.397C50.0334 55.4327 50.0699 55.4788 50.0941 55.5315Z" fill="#3058FE"/>
<path d="M50.0943 55.5314L51.3186 58.4608C51.3384 58.5082 51.3465 58.5595 51.3423 58.6106L50.118 55.6838C50.1212 55.6319 50.1131 55.5799 50.0943 55.5314V55.5314Z" fill="#FFFCED"/>
<path d="M35.3286 60.166L36.5529 63.0955C36.7395 64.53 35.7332 66.0066 34.1883 66.7422L32.964 63.8127C34.5089 63.0745 35.5151 61.6005 35.3286 60.166Z" fill="#6783F6"/>
<path d="M32.3571 52.3418L32.4649 52.6045L32.5752 52.8673L32.6908 53.1431L32.809 53.4269L32.9299 53.7133L33.0508 54.0023L33.169 54.2886L33.2872 54.5698L32.3571 52.3444V52.3418Z" fill="#3058FE"/>
<path d="M34.6087 54.6329L35.3286 60.1713C35.5151 61.6058 34.5088 63.0797 32.964 63.818C30.7702 60.547 30.024 56.4772 31.0434 52.2578C31.4831 52.2175 31.9264 52.2467 32.3571 52.3445C33.563 52.623 34.4589 53.4637 34.6087 54.6329Z" fill="#6783F6"/>
<path d="M48.4102 55.3501L49.6371 58.2796L47.3303 61.4797L46.1034 58.5502L48.4102 55.3501Z" fill="#3058FE"/>
<path d="M46.1032 58.5502L47.3302 61.4796C47.2626 61.5685 47.1711 61.6364 47.0665 61.6755C46.9619 61.7145 46.8484 61.7231 46.739 61.7003L45.5121 58.7709C45.6214 58.7937 45.7349 58.785 45.8396 58.746C45.9442 58.7069 46.0356 58.639 46.1032 58.5502V58.5502Z" fill="#3058FE"/>
<path d="M58.998 49.5831L60.2223 52.5152C60.6532 53.5889 60.443 54.7108 59.5917 55.8808C59.0499 56.6306 58.3516 57.2537 57.5451 57.7068C56.865 58.1044 56.1222 58.3833 55.3486 58.5318C55.2318 58.5478 55.1231 58.6004 55.0382 58.6821C54.9532 58.7638 54.8963 58.8703 54.8757 58.9863L53.6487 56.0569C53.6697 55.941 53.7267 55.8347 53.8116 55.7531C53.8965 55.6714 54.005 55.6187 54.1217 55.6023C54.8961 55.4539 55.6397 55.1749 56.3207 54.7774C57.128 54.3197 57.8263 53.6922 58.3674 52.9382C59.2187 51.7787 59.4289 50.6603 58.998 49.5831Z" fill="#3058FE"/>
<path d="M38.6678 66.1931L37.4408 63.2637C37.4855 63.3661 37.5407 63.5028 37.5853 63.6052L37.7377 63.9678L37.8927 64.3461L38.0556 64.7297L38.2159 65.1133L38.3735 65.489L38.5233 65.8516L38.6678 66.1931Z" fill="#3058FE"/>
<path d="M39.5584 65.983C39.404 65.9514 39.2445 65.9533 39.0908 65.9887C38.9372 66.024 38.7929 66.092 38.6678 66.1879L38.5233 65.8464L38.3735 65.4838L38.0609 64.7245C37.9531 64.4618 37.8481 64.2174 37.743 63.9626C37.6379 63.7077 37.5459 63.4923 37.4461 63.2585C37.5717 63.1625 37.7164 63.0945 37.8705 63.0591C38.0246 63.0238 38.1845 63.0219 38.3394 63.0535L38.4812 63.3951L38.6336 63.7603L38.7913 64.136L38.9515 64.5196L39.1118 64.9032L39.2694 65.2789L39.4218 65.6415L39.5584 65.983Z" fill="#3058FE"/>
<path d="M39.5585 65.9829C39.1521 65.0091 38.744 64.0326 38.3342 63.0535L38.476 63.3976L38.6284 63.7602L38.7861 64.1359L38.9463 64.5195L39.1066 64.9031L39.2642 65.2788L39.4166 65.6414L39.5585 65.9829Z" fill="#3058FE"/>
<path d="M39.9211 66.1929C39.8205 66.0954 39.6951 66.0272 39.5585 65.9959C39.1521 65.022 38.744 64.0455 38.3342 63.0664C38.4702 63.0972 38.5949 63.1654 38.6941 63.2635C38.7481 63.3176 38.791 63.3819 38.8202 63.4526L40.0472 66.3821C40.017 66.3119 39.9743 66.2478 39.9211 66.1929V66.1929Z" fill="#3058FE"/>
<path d="M38.668 66.1931C38.5218 66.2849 38.4105 66.423 38.3519 66.5854C38.2933 66.7478 38.2908 66.9251 38.3448 67.0891L37.1179 64.157C37.0673 63.9932 37.0714 63.8174 37.1298 63.6562C37.1881 63.495 37.2974 63.3572 37.441 63.2637L37.5855 63.6052L37.7353 63.9678L37.8929 64.3461L38.0532 64.7297L38.2135 65.1107L38.3711 65.489L38.5235 65.8516L38.668 66.1931Z" fill="#3058FE"/>
<path d="M51.0741 62.5753L49.8498 59.6458C49.8298 59.5995 49.8217 59.5489 49.8261 59.4987L51.0505 62.4281C51.0474 62.4783 51.0555 62.5286 51.0741 62.5753Z" fill="#FFFCED"/>
<path d="M38.8202 63.4396L40.0472 66.369C40.0981 66.5325 40.0943 66.7082 40.0365 66.8693C39.9786 67.0305 39.8699 67.1685 39.7267 67.2623C39.6005 67.3583 39.4553 67.4262 39.3008 67.4615C39.1463 67.4968 38.9861 67.4988 38.8308 67.4673C38.6943 67.4376 38.5693 67.3692 38.4708 67.2702C38.4168 67.217 38.374 67.1536 38.3447 67.0837L37.1177 64.1516C37.1473 64.2221 37.1901 64.2864 37.2439 64.3407C37.3437 64.4393 37.4694 64.5076 37.6064 64.5378C37.7613 64.5695 37.9212 64.5676 38.0753 64.5322C38.2294 64.4969 38.3741 64.4289 38.4997 64.3329C38.6453 64.2412 38.7559 64.1034 38.814 63.9415C38.8721 63.7796 38.8743 63.6029 38.8202 63.4396Z" fill="#FFFCED"/>
<path d="M51.0742 62.5752L49.8499 59.6458C49.8736 59.699 49.9099 59.7458 49.9556 59.7819C50.0014 59.8181 50.0553 59.8426 50.1126 59.8533L51.3369 62.7775C51.2801 62.7673 51.2266 62.7436 51.1809 62.7084C51.1352 62.6732 51.0986 62.6275 51.0742 62.5752V62.5752Z" fill="#3058FE"/>
<path d="M68.5092 46.8927L69.7335 49.8222L70.4534 55.3606L69.2291 52.4311L68.5092 46.8927Z" fill="#3058FE"/>
<path d="M70.4533 55.3633C70.4827 55.5874 70.5419 55.8065 70.6294 56.0149L69.4024 53.0854C69.3161 52.8768 69.2578 52.6577 69.229 52.4338C69.5889 53.3192 70.2064 54.4437 70.4533 55.3633Z" fill="#3058FE"/>
<path d="M53.649 56.0543L54.8759 58.9864L54.6342 62.9668L53.4073 60.0374L53.649 56.0543Z" fill="#3058FE"/>
<path d="M52.7371 60.4707L53.964 63.4002L51.3367 62.7827L50.1124 59.8533L52.7371 60.4707Z" fill="#3058FE"/>
<path d="M53.4073 60.0374L54.6342 62.9668C54.6206 63.0403 54.5922 63.1102 54.5507 63.1722C54.5091 63.2343 54.4553 63.2873 54.3926 63.3279C54.3299 63.3684 54.2596 63.3958 54.1859 63.4083C54.1123 63.4207 54.0368 63.418 53.9643 63.4003L52.7373 60.4709C52.8099 60.4885 52.8853 60.4912 52.959 60.4788C53.0326 60.4663 53.1029 60.439 53.1656 60.3984C53.2284 60.3578 53.2821 60.3049 53.3237 60.2428C53.3652 60.1807 53.3937 60.1108 53.4073 60.0374V60.0374Z" fill="#3058FE"/>
<path d="M64.3605 48.0461L65.5849 50.9756C66.5911 53.377 66.5202 56.2303 65.133 59.073C62.1746 65.1159 54.3609 68.7337 47.677 67.1599C44.1275 66.3271 41.6105 64.1963 40.4729 61.477L39.2486 58.5476C40.3836 61.2669 42.9005 63.3976 46.4501 64.2305C53.134 65.8069 60.9503 62.1812 63.906 56.1436C65.2932 53.3192 65.3642 50.4475 64.3605 48.0461Z" fill="#FFFCED"/>
<path d="M65.7031 59.2071C65.3156 59.9969 64.8528 60.7474 64.3212 61.4482C63.9113 60.4709 63.5023 59.4944 63.0942 58.5187C63.6267 57.818 64.0904 57.0674 64.4788 56.2776C65.9291 53.314 66.0026 50.3189 64.9465 47.8019L66.1734 50.7313C67.2244 53.2483 67.156 56.2461 65.7031 59.2071Z" fill="#3058FE"/>
<path d="M47.4248 67.6749C43.9305 66.8552 41.382 64.8243 40.1103 62.2127L38.8834 59.2832C40.1655 61.8948 42.7035 63.9231 46.1979 64.7454C52.3143 66.1852 59.3581 63.4528 63.0942 58.5187C63.1389 58.6211 63.194 58.7578 63.2387 58.8602L63.3885 59.2228L63.5461 59.5985L63.7064 59.9821L63.8666 60.3657L64.0243 60.7414L64.1767 61.104L64.3212 61.4481C60.5851 66.3823 53.5386 69.1147 47.4248 67.6749Z" fill="#3058FE"/>
<path d="M65.4325 47.5995L66.6568 50.529C67.7498 53.1405 67.6736 56.246 66.1708 59.3174C62.9654 65.862 54.4634 69.8004 47.2173 68.0979C43.3682 67.1915 40.6358 64.8794 39.401 61.9211L38.1766 58.9916C39.4115 61.9447 42.1439 64.262 45.9929 65.1684C53.2391 66.8709 61.7411 62.9326 64.9464 56.3879C66.4493 53.3192 66.5255 50.2084 65.4325 47.5995Z" fill="#2545C6"/>
<path d="M57.6187 41.4252C64.8648 43.1278 68.1516 49.8327 64.9463 56.401C61.7409 62.9693 53.2389 66.884 45.9928 65.1815C38.7466 63.479 35.4572 56.7741 38.6625 50.2189C41.8679 43.6637 50.3725 39.7201 57.6187 41.4252ZM46.2056 64.7454C53.1943 66.3901 61.3941 62.591 64.4865 56.2775C67.5789 49.9641 64.4077 43.4903 57.419 41.8456C50.4303 40.2009 42.2278 44.0027 39.1354 50.3161C36.0431 56.6296 39.2169 63.1033 46.2056 64.7454" fill="#2545C6"/>
<path d="M57.1589 42.3631C63.8428 43.9395 66.8642 50.1032 63.9058 56.1435C60.9475 62.1837 53.1338 65.8015 46.4499 64.2304C39.766 62.6592 36.7472 56.4903 39.7003 50.4501C42.6534 44.4098 50.4749 40.7894 57.1589 42.3631ZM58.3674 52.9513C59.2187 51.783 59.4289 50.6611 58.998 49.5857C58.5671 48.5102 57.6642 47.8096 56.2892 47.4838L51.229 46.2936C51.1193 46.2709 51.0054 46.2796 50.9004 46.3186C50.7954 46.3577 50.7035 46.4255 50.6352 46.5143L42.6508 57.5832C42.6105 57.6293 42.5834 57.6853 42.5722 57.7454C42.561 57.8055 42.5661 57.8675 42.5871 57.9249C42.608 57.9824 42.644 58.0331 42.6912 58.0719C42.7385 58.1107 42.7953 58.1361 42.8557 58.1455L45.5119 58.7682C45.6212 58.791 45.7348 58.7824 45.8394 58.7433C45.944 58.7042 46.0354 58.6363 46.1031 58.5475L48.4099 55.35C48.4775 55.2612 48.5689 55.1933 48.6735 55.1542C48.7781 55.1151 48.8917 55.1065 49.001 55.1293L49.8312 55.3237C49.9145 55.3367 49.99 55.3802 50.043 55.4457C50.0959 55.5113 50.1225 55.5943 50.1176 55.6784L49.826 59.4959C49.8211 59.5801 49.8477 59.663 49.9006 59.7286C49.9536 59.7942 50.0291 59.8377 50.1124 59.8506L52.7397 60.4681C52.8123 60.4857 52.8877 60.4884 52.9613 60.476C53.035 60.4635 53.1053 60.4362 53.168 60.3956C53.2308 60.355 53.2845 60.302 53.3261 60.24C53.3676 60.1779 53.3961 60.108 53.4097 60.0345L53.6514 56.0541C53.6724 55.9383 53.7294 55.8319 53.8143 55.7503C53.8992 55.6687 54.0077 55.616 54.1243 55.5996C54.8988 55.4511 55.6424 55.1722 56.3234 54.7746C57.1307 54.317 57.829 53.6895 58.3701 52.9355" fill="#FFFCED"/>
<path d="M58.9981 49.5831C59.4255 50.6604 59.2153 51.7831 58.3676 52.9514C57.8265 53.7053 57.1282 54.3328 56.3209 54.7905C55.6399 55.1881 54.8963 55.467 54.1218 55.6155C54.0052 55.6319 53.8967 55.6846 53.8118 55.7662C53.7269 55.8478 53.6699 55.9541 53.6489 56.07L53.4072 60.0504C53.3936 60.1239 53.3651 60.1938 53.3236 60.2558C53.282 60.3179 53.2283 60.3709 53.1655 60.4115C53.1028 60.452 53.0325 60.4794 52.9589 60.4918C52.8852 60.5043 52.8098 60.5016 52.7372 60.4839L50.1099 59.8665C50.0266 59.8536 49.9511 59.8101 49.8981 59.7445C49.8452 59.6789 49.8186 59.596 49.8235 59.5118L50.1178 55.6838C50.1227 55.5997 50.0961 55.5167 50.0431 55.4511C49.9902 55.3855 49.9147 55.342 49.8314 55.3291L49.0012 55.1347C48.8918 55.1119 48.7783 55.1205 48.6737 55.1596C48.569 55.1986 48.4776 55.2665 48.41 55.3554L46.1032 58.5528C46.0356 58.6417 45.9442 58.7096 45.8395 58.7487C45.7349 58.7877 45.6214 58.7963 45.5121 58.7735L42.8558 58.1509C42.7954 58.1415 42.7386 58.1161 42.6914 58.0773C42.6441 58.0385 42.6082 57.9877 42.5872 57.9303C42.5663 57.8729 42.5611 57.8108 42.5723 57.7507C42.5835 57.6906 42.6107 57.6347 42.6509 57.5886L50.6353 46.5197C50.7036 46.4308 50.7955 46.363 50.9005 46.324C51.0055 46.285 51.1194 46.2763 51.2291 46.299L56.2894 47.4892C57.6643 47.8097 58.5672 48.5077 58.9981 49.5831ZM54.889 51.974C55.1675 51.5799 55.2568 51.2252 55.1517 50.9231C55.0466 50.6209 54.7681 50.3976 54.2926 50.2846L52.7503 49.9037C52.641 49.8815 52.5277 49.8904 52.4232 49.9294C52.3187 49.9685 52.2272 50.036 52.1592 50.1244L50.7825 52.0266C50.7431 52.0731 50.7167 52.1292 50.7061 52.1893C50.6955 52.2493 50.7011 52.3111 50.7222 52.3683C50.7433 52.4254 50.7792 52.476 50.8263 52.5148C50.8733 52.5535 50.9299 52.5791 50.99 52.5888L52.5086 52.9461H52.5612C52.9769 53.0425 53.4128 52.9991 53.8013 52.8226C54.239 52.6418 54.6163 52.3402 54.889 51.953" fill="#3058FE"/>
<path d="M68.4644 56.1804L68.5695 56.4432L68.6824 56.7059L68.798 56.9818L68.9163 57.2655L69.0371 57.5519L69.1554 57.8409L69.2762 58.1273L69.3944 58.4084L68.4644 56.183V56.1804Z" fill="#3058FE"/>
<path d="M70.6398 56.0149L69.4128 53.0854C69.6042 53.5035 69.8927 53.8699 70.2541 54.1541C70.6156 54.4383 71.0396 54.6322 71.491 54.7196C71.6863 54.7654 71.8848 54.7961 72.0848 54.8116L73.3092 57.7411C73.1092 57.7254 72.9107 57.6946 72.7154 57.6491C72.2644 57.5613 71.8409 57.3673 71.4799 57.083C71.119 56.7988 70.831 56.4327 70.6398 56.0149Z" fill="#6783F6"/>
<path d="M68.5064 59.6589C68.4616 59.7427 68.4356 59.8352 68.4301 59.93C68.4247 60.0248 68.4399 60.1197 68.4749 60.208L67.2505 57.2786C67.2152 57.1904 67.1995 57.0957 67.2045 57.0008C67.2095 56.906 67.235 56.8134 67.2794 56.7295C67.6893 57.7051 68.0983 58.6807 68.5064 59.6563C68.0965 58.6824 67.6875 57.7068 67.2794 56.7295C67.3921 56.5232 67.5681 56.3585 67.7814 56.2596C67.9947 56.1608 68.2341 56.133 68.4643 56.1803C68.8707 57.1577 69.2788 58.1342 69.6887 59.1098C69.2806 58.1324 68.8725 57.156 68.4643 56.1803C68.5707 56.201 68.6706 56.2468 68.7557 56.314C68.8407 56.3812 68.9084 56.4678 68.953 56.5666L70.1774 59.496C70.1327 59.3973 70.065 59.3107 69.98 59.2435C69.895 59.1763 69.7951 59.1304 69.6887 59.1098C69.4588 59.0626 69.2198 59.0905 69.007 59.1894C68.7941 59.2883 68.6187 59.4528 68.5064 59.6589Z" fill="#3058FE"/>
<path d="M68.9529 56.5665L70.1773 59.496C70.2126 59.5841 70.2283 59.6789 70.2233 59.7737C70.2183 59.8686 70.1928 59.9612 70.1484 60.0451C70.0355 60.2519 69.8591 60.4169 69.6453 60.5158C69.4315 60.6147 69.1915 60.6422 68.9608 60.5942C68.8547 60.5736 68.7552 60.5278 68.6706 60.4605C68.586 60.3933 68.5188 60.3067 68.4748 60.208L67.2504 57.2785C67.2948 57.377 67.3621 57.4634 67.4467 57.5306C67.5312 57.5977 67.6306 57.6437 67.7365 57.6647C67.9668 57.713 68.2065 57.6856 68.42 57.5866C68.6335 57.4877 68.8093 57.3225 68.9214 57.1156C68.9662 57.0319 68.9922 56.9394 68.9977 56.8446C69.0031 56.7497 68.9879 56.6549 68.9529 56.5665V56.5665Z" fill="#FFFCED"/>
<path d="M57.4115 41.8456C64.4001 43.4903 67.5713 49.964 64.479 56.2775C61.3866 62.5909 53.1815 66.39 46.198 64.7453C39.2146 63.1006 36.0382 56.6295 39.1279 50.3161C42.2176 44.0026 50.4228 40.2008 57.4115 41.8456ZM46.4502 64.2304C53.1342 65.8068 60.9505 62.1811 63.9062 56.1435C66.8619 50.1059 63.8432 43.9343 57.1592 42.3631C50.4753 40.792 42.659 44.4125 39.7006 50.45C36.7423 56.4876 39.7663 62.6592 46.4502 64.2304" fill="#3058FE"/>
<path d="M55.559 69.7478C55.1509 68.7705 54.7428 67.794 54.3347 66.8184L54.4766 67.1599L54.6289 67.5225L54.7866 67.8982L54.9468 68.2818L55.1071 68.6654L55.2648 69.0411L55.4171 69.4036L55.559 69.7478V69.7478Z" fill="#3058FE"/>
<path d="M55.1019 69.7505C54.9188 69.7849 54.7486 69.8687 54.6097 69.9928C54.4708 70.1169 54.3684 70.2766 54.3137 70.4546C53.9038 69.479 53.4948 68.5025 53.0867 67.5252C53.142 67.3474 53.2445 67.188 53.3833 67.064C53.5221 66.94 53.692 66.856 53.8749 66.821C54.2848 67.7949 54.6937 68.7714 55.1019 69.7505C54.692 68.7731 54.283 67.7967 53.8749 66.821C54.0261 66.7856 54.1835 66.7856 54.3347 66.821L54.4766 67.1626L54.6289 67.5252L54.7866 67.9009L54.9468 68.2845L55.1071 68.6681L55.2648 69.0438L55.4171 69.4063L55.559 69.7505C55.4087 69.7151 55.2522 69.7151 55.1019 69.7505V69.7505Z" fill="#3058FE"/>
<path d="M56.0477 70.1341C56.0031 70.0356 55.9354 69.9493 55.8503 69.8825C55.7652 69.8157 55.6653 69.7705 55.559 69.7505C55.1509 68.7731 54.7428 67.7967 54.3347 66.821C54.4408 66.8414 54.5406 66.8868 54.6256 66.9536C54.7106 67.0203 54.7784 67.1064 54.8234 67.2046L56.0477 70.1341Z" fill="#3058FE"/>
<path d="M54.3057 70.691C54.3116 70.7442 54.3249 70.7964 54.3451 70.846L53.1208 67.9165C53.1 67.8669 53.0859 67.8148 53.0787 67.7615C53.4886 68.7388 53.8967 69.7153 54.3031 70.691C53.8967 69.7136 53.4886 68.7371 53.0787 67.7615C53.0644 67.6833 53.0644 67.6032 53.0787 67.525C53.4886 68.5024 53.8976 69.4789 54.3057 70.4545C54.2913 70.5327 54.2913 70.6128 54.3057 70.691V70.691Z" fill="#3058FE"/>
<path d="M50.998 72.2517C50.5619 71.7508 49.9743 71.4059 49.3244 71.2691L48.0975 68.3396C48.7471 68.4773 49.335 68.821 49.7737 69.3196L49.9156 69.6638L50.068 70.0263L50.2256 70.4021L50.3859 70.7856L50.5461 71.1692L50.7038 71.5449L50.8562 71.9075L50.998 72.2517Z" fill="#3058FE"/>
<path d="M51.1426 72.4383C51.0979 72.3753 51.0506 72.3122 50.9981 72.2518L49.7737 69.3197C49.8236 69.3828 49.8736 69.4458 49.9182 69.5089L50.8194 71.6685L50.8588 71.7579L50.8982 71.8524L50.9403 71.9523L50.9823 72.0521L51.0243 72.1546L51.0664 72.2544L51.1058 72.349L51.1426 72.4383Z" fill="#3058FE"/>
<path d="M51.1426 72.4383C51.1294 72.412 51.1163 72.3752 51.1058 72.3489L51.0454 72.2044L51.0033 72.1046L50.9823 72.052L50.8194 71.6685L49.9182 69.5088C50.0211 69.6556 50.1091 69.8122 50.181 69.9765L51.4053 72.9059C51.3345 72.7412 51.2464 72.5844 51.1426 72.4383V72.4383Z" fill="#3058FE"/>
<path d="M54.8234 67.202L56.0477 70.1341C56.0688 70.1836 56.0829 70.2358 56.0898 70.2891C56.1423 70.6937 55.785 71.1167 55.3016 71.2297C55.1504 71.2652 54.993 71.2652 54.8418 71.2297C54.7356 71.2094 54.6359 71.1639 54.5509 71.0972C54.4659 71.0305 54.3981 70.9444 54.3531 70.8461L53.1288 67.9167C53.1734 68.0152 53.2411 68.1015 53.3262 68.1683C53.4112 68.235 53.5112 68.2803 53.6174 68.3003C53.7678 68.3357 53.9243 68.3357 54.0746 68.3003C54.5685 68.1873 54.9259 67.7748 54.8628 67.3597C54.8571 67.3055 54.8438 67.2525 54.8234 67.202V67.202Z" fill="#FFFCED"/>
<path d="M50.1755 69.9763L51.3998 72.9058C51.5318 73.2238 51.5988 73.5651 51.5969 73.9094L50.3699 70.98C50.3728 70.6358 50.3066 70.2945 50.1755 69.9763V69.9763Z" fill="#6783F6"/>
<path d="M72.0736 54.8115C71.7818 55.7678 71.4136 56.6991 70.9727 57.5965C70.3995 58.7612 69.7196 59.8703 68.9418 60.9095C68.8126 60.8634 68.681 60.824 68.5477 60.7913C67.8899 60.656 67.2107 60.6631 66.5558 60.8122C65.9009 60.9613 65.2856 61.2489 64.7512 61.6557L59.3179 65.7491C58.0673 66.6897 57.534 68.0533 57.8335 69.2119C55.4443 70.1601 52.9299 70.7558 50.3692 70.9801C50.3692 69.74 49.5259 68.6759 48.0966 68.3396L41.9434 66.892C41.1672 66.7349 40.364 66.7753 39.6075 67.0094C38.851 67.2436 38.1654 67.6639 37.6136 68.2319C35.7673 67.1075 34.1834 65.6006 32.9684 63.8127C34.5081 63.0745 35.5143 61.6005 35.333 60.166L34.6079 54.6329C34.4581 53.469 33.557 52.6282 32.3563 52.3445C31.9257 52.2467 31.4823 52.2175 31.0426 52.2578C31.3588 50.9703 31.8143 49.7211 32.4009 48.5322C32.8946 47.5281 33.4692 46.566 34.1192 45.6553C34.4867 45.9286 34.9074 46.1219 35.3541 46.2228C36.0118 46.3594 36.6913 46.3529 37.3464 46.2037C38.0014 46.0546 38.6167 45.7663 39.1505 45.3584L44.5839 41.2677C46.1865 40.0591 46.6095 38.1595 45.6111 36.8879C48.1794 35.876 50.8905 35.2731 53.6455 35.1013C53.0622 36.7224 53.9424 38.2988 55.7474 38.7218L61.8901 40.1826C62.755 40.3584 63.6519 40.2879 64.4787 39.979C65.3055 39.6701 66.029 39.1353 66.5667 38.4354C68.3698 39.682 69.8716 41.3157 70.9622 43.2171C69.3674 43.937 68.3165 45.4425 68.5083 46.8954L69.2282 52.4364C69.3806 53.5977 70.2791 54.4384 71.4798 54.7222C71.6752 54.767 71.8737 54.7969 72.0736 54.8115V54.8115ZM45.9921 65.1684C53.2383 66.871 61.7403 62.9326 64.9456 56.3879C68.151 49.8432 64.8642 43.1278 57.618 41.4253C50.3719 39.7228 41.8672 43.6611 38.6619 50.2058C35.4565 56.7505 38.7459 63.4633 45.9921 65.1684V65.1684ZM67.749 57.6648C67.9793 57.713 68.219 57.6856 68.4325 57.5867C68.646 57.4878 68.8218 57.3226 68.9339 57.1157C68.9833 57.0263 69.0104 56.9263 69.0129 56.8242C69.0155 56.7221 68.9934 56.6209 68.9486 56.5292C68.9037 56.4374 68.8374 56.3578 68.7553 56.2971C68.6732 56.2364 68.5776 56.1963 68.4768 56.1804C68.2465 56.133 68.0071 56.1608 67.7938 56.2597C67.5805 56.3585 67.4046 56.5232 67.2918 56.7295C67.2431 56.819 67.2165 56.9189 67.2142 57.0208C67.212 57.1226 67.2342 57.2236 67.2789 57.3152C67.3237 57.4067 67.3897 57.4863 67.4715 57.5471C67.5533 57.6079 67.6484 57.6483 67.749 57.6648V57.6648ZM35.7482 50.1375C35.9784 50.1853 36.218 50.1577 36.4314 50.0588C36.6448 49.9599 36.8207 49.795 36.9331 49.5884C36.9819 49.4991 37.0086 49.3994 37.0108 49.2976C37.0131 49.1958 36.9909 49.095 36.9461 49.0036C36.9013 48.9122 36.8352 48.8329 36.7534 48.7724C36.6716 48.7119 36.5764 48.6718 36.4759 48.6557C36.2459 48.6077 36.0066 48.6349 35.7932 48.7333C35.5799 48.8317 35.4038 48.9961 35.291 49.2022C35.2416 49.2916 35.2145 49.3916 35.212 49.4937C35.2094 49.5958 35.2315 49.697 35.2764 49.7887C35.3212 49.8805 35.3875 49.9601 35.4696 50.0208C35.5517 50.0815 35.6473 50.1215 35.7482 50.1375ZM54.0659 68.295C54.5598 68.182 54.9171 67.7695 54.8541 67.3544C54.8341 67.2208 54.7725 67.097 54.6782 67.0003C54.5839 66.9036 54.4616 66.8391 54.3286 66.8158C54.1774 66.7803 54.02 66.7803 53.8688 66.8158C53.3749 66.9288 53.0228 67.3412 53.0806 67.7564C53.1014 67.8896 53.1632 68.0131 53.2573 68.1096C53.3515 68.2061 53.4734 68.2709 53.6061 68.295C53.7564 68.3304 53.9129 68.3304 54.0633 68.295H54.0659ZM38.4963 64.3303C38.8957 64.0308 38.9824 63.5421 38.6908 63.2479C38.5916 63.1498 38.4669 63.0816 38.3308 63.0508C38.1759 63.0192 38.016 63.0211 37.862 63.0564C37.7079 63.0918 37.5631 63.1597 37.4375 63.2558C37.0382 63.5579 36.9515 64.044 37.2405 64.3382C37.3403 64.4368 37.466 64.5051 37.6031 64.5353C37.7579 64.5669 37.9178 64.565 38.0719 64.5297C38.226 64.4943 38.3707 64.4263 38.4963 64.3303V64.3303ZM65.6997 41.9823C65.2977 42.2844 65.2084 42.7705 65.5026 43.0647C65.6022 43.1623 65.7267 43.2305 65.8626 43.2618C66.0173 43.2933 66.177 43.2916 66.331 43.2567C66.485 43.2218 66.6298 43.1546 66.7559 43.0595C67.1579 42.7573 67.2445 42.2713 66.9503 41.9744C66.8516 41.8762 66.7266 41.8086 66.5903 41.78C66.4361 41.7471 66.2765 41.7482 66.1228 41.7831C65.969 41.8181 65.8246 41.886 65.6997 41.9823V41.9823ZM50.1459 38.0229C49.6546 38.1333 49.2973 38.5484 49.3577 38.9635C49.3802 39.0946 49.4429 39.2156 49.537 39.3097C49.6311 39.4038 49.752 39.4664 49.8832 39.489C50.0344 39.5244 50.1918 39.5244 50.343 39.489C50.8343 39.3786 51.1916 38.9635 51.1312 38.5484C51.1065 38.4181 51.0432 38.2983 50.9495 38.2046C50.8558 38.1108 50.7359 38.0475 50.6057 38.0229C50.4543 37.989 50.2973 37.989 50.1459 38.0229Z" fill="#3058FE"/>
<path d="M45.6094 36.8878C41.001 38.6928 36.8893 41.7589 34.1201 45.6552C34.4876 45.9285 34.9082 46.1218 35.3549 46.2227C36.0127 46.3593 36.6922 46.3528 37.3472 46.2036C38.0023 46.0545 38.6176 45.7662 39.1514 45.3583L44.5847 41.2676C46.1848 40.059 46.6078 38.1594 45.6094 36.8878Z" fill="#6783F6"/>
<path d="M53.6436 35.1013C55.8477 34.9628 58.0602 35.1451 60.2119 35.6425C62.4886 36.1545 64.646 37.0981 66.5674 38.4222C66.0312 39.1244 65.3085 39.6618 64.4816 39.9731C63.6547 40.2843 62.7569 40.3569 61.8908 40.1825L55.7376 38.7349C53.9405 38.2987 53.0603 36.7223 53.6436 35.1013Z" fill="#6783F6"/>
<path d="M66.5937 41.7827C66.73 41.8113 66.855 41.8788 66.9537 41.9771C67.2479 42.274 67.1612 42.7653 66.7593 43.0622C66.6332 43.1573 66.4884 43.2245 66.3344 43.2594C66.1804 43.2943 66.0207 43.296 65.866 43.2645C65.7301 43.2332 65.6056 43.165 65.506 43.0674C65.2118 42.7705 65.3011 42.2792 65.7031 41.985C65.828 41.8887 65.9723 41.8207 66.1261 41.7858C66.2799 41.7509 66.4395 41.7498 66.5937 41.7827V41.7827Z" fill="#FFFCED"/>
<path d="M71.8773 46.2885C71.4709 45.3111 71.0619 44.3346 70.6503 43.359C70.7528 43.3038 70.8552 43.2513 70.963 43.204L72.1873 46.1334C72.0822 46.1807 71.9771 46.2254 71.8773 46.2885Z" fill="#3058FE"/>
<path d="M71.8772 46.2886C70.4611 47.0532 69.5573 48.4561 69.7333 49.8224L68.509 46.8929C68.3303 45.5267 69.2341 44.1263 70.6503 43.3591C70.9471 44.0606 70.9471 44.0606 71.8772 46.2886Z" fill="#3058FE"/>
<path d="M32.9088 64.3539L31.6844 61.4244C32.0353 62.259 32.4655 63.0579 32.9692 63.81L34.1935 66.7395C33.6903 65.9871 33.2601 65.1882 32.9088 64.3539Z" fill="#6783F6"/>
<path d="M38.3237 63.0535C38.4597 63.0843 38.5844 63.1526 38.6836 63.2506C38.9753 63.5475 38.8886 64.0388 38.4892 64.333C38.3636 64.4291 38.2189 64.497 38.0648 64.5324C37.9107 64.5677 37.7508 64.5696 37.5959 64.538C37.4589 64.5078 37.3332 64.4395 37.2334 64.3409C36.9444 64.044 37.0311 63.5527 37.4304 63.2585C37.556 63.1625 37.7007 63.0945 37.8548 63.0591C38.0089 63.0238 38.1688 63.0219 38.3237 63.0535V63.0535Z" fill="#FFFCED"/>
<path d="M37.6144 68.2318L38.8492 71.1613C37.003 70.0369 35.4191 68.53 34.2041 66.7421L32.9798 63.8126C34.1917 65.5994 35.772 67.1062 37.6144 68.2318V68.2318Z" fill="#0030F5"/>
<path d="M41.944 66.892L43.1709 69.8215C42.3944 69.664 41.5906 69.7041 40.8336 69.9383C40.0766 70.1724 39.3905 70.593 38.8385 71.1614L37.6141 68.2319C38.1659 67.6639 38.8516 67.2436 39.6081 67.0095C40.3646 66.7754 41.1678 66.735 41.944 66.892V66.892Z" fill="#3058FE"/>
<path d="M71.6909 44.6989L72.9152 47.6283C74.1869 50.6681 74.376 54.1677 73.2936 57.7409L72.0692 54.8114C73.1569 51.2383 72.9678 47.7387 71.6909 44.6989Z" fill="#4266FB"/>
<path d="M70.963 43.204C72.8678 46.5617 73.3276 50.6367 72.0743 54.8115C71.8744 54.796 71.6759 54.7653 71.4806 54.7196C70.2746 54.4358 69.3787 53.5951 69.229 52.4338L68.5091 46.8927C68.3173 45.4372 69.3682 43.9239 70.963 43.204Z" fill="#6783F6"/>
<path d="M68.4644 56.1803C68.5653 56.1963 68.6608 56.2364 68.7429 56.2971C68.8251 56.3578 68.8914 56.4374 68.9362 56.5291C68.9811 56.6209 69.0031 56.7221 69.0006 56.8242C68.998 56.9263 68.9709 57.0263 68.9216 57.1157C68.8095 57.3226 68.6336 57.4877 68.4201 57.5867C68.2067 57.6856 67.9669 57.713 67.7366 57.6648C67.6361 57.6483 67.5409 57.6079 67.4591 57.5471C67.3774 57.4862 67.3113 57.4067 67.2666 57.3151C67.2218 57.2236 67.1996 57.1226 67.2019 57.0207C67.2041 56.9188 67.2307 56.819 67.2795 56.7295C67.3922 56.5232 67.5682 56.3585 67.7815 56.2596C67.9948 56.1608 68.2341 56.133 68.4644 56.1803V56.1803Z" fill="#FFFCED"/>
<path d="M48.0974 68.3369L49.3243 71.2664L43.1711 69.8187L41.9442 66.8893L48.0974 68.3369Z" fill="#3058FE"/>
<path d="M72.0742 54.8114L73.2986 57.7409C73.0084 58.6977 72.6402 59.6292 72.1977 60.5258C71.626 61.688 70.946 62.7938 70.1668 63.8284L68.9425 60.8989C69.7203 59.8597 70.4002 58.7506 70.9734 57.5859C71.4138 56.6919 71.7819 55.7641 72.0742 54.8114V54.8114Z" fill="#0030F5"/>
<path d="M69.7728 63.7233C69.1154 63.5868 68.4363 63.5933 67.7817 63.7425C67.1271 63.8916 66.5122 64.1799 65.9789 64.5877L64.7519 61.6556C65.2851 61.2503 65.8986 60.9635 66.5515 60.8144C67.2045 60.6653 67.8817 60.6574 68.5379 60.7912C68.6712 60.8239 68.8028 60.8633 68.932 60.9095C69.3384 61.8868 69.7465 62.8633 70.1563 63.8389C70.0311 63.7922 69.903 63.7536 69.7728 63.7233Z" fill="#3058FE"/>
<path d="M64.752 61.6558L65.9789 64.5852L60.543 68.6786L59.3187 65.7465L64.752 61.6558Z" fill="#3058FE"/>
<path d="M54.3345 66.8184C54.4675 66.8417 54.5898 66.9063 54.6841 67.0029C54.7784 67.0996 54.8399 67.2235 54.8599 67.357C54.9151 67.7616 54.5578 68.1846 54.0717 68.2976C53.9214 68.3331 53.7649 68.3331 53.6146 68.2976C53.4819 68.2736 53.36 68.2088 53.2658 68.1122C53.1717 68.0157 53.1099 67.8922 53.0891 67.759C53.0392 67.3518 53.3913 66.9314 53.8773 66.8184C54.0277 66.7833 54.1841 66.7833 54.3345 66.8184V66.8184Z" fill="#FFFCED"/>
<path d="M48.0972 68.3397C49.5264 68.676 50.3751 69.74 50.3698 70.9801C47.9554 71.1952 45.5222 71.0267 43.1604 70.4809C41.2024 70.0354 39.3295 69.2759 37.6141 68.2319C38.1659 67.6639 38.8516 67.2436 39.6081 67.0095C40.3646 66.7754 41.1678 66.735 41.944 66.892L48.0972 68.3397Z" fill="#6783F6"/>
<path d="M50.37 70.98L51.597 73.9095C49.1818 74.124 46.748 73.9564 44.385 73.4129C42.4309 72.9643 40.5617 72.204 38.8492 71.1613L37.6249 68.2318C39.3402 69.2758 41.2132 70.0353 43.1712 70.4808C45.5295 71.0254 47.9591 71.1939 50.37 70.98V70.98Z" fill="#4266FB"/>
<path d="M60.543 68.6785C60.1196 68.9745 59.7627 69.3558 59.4953 69.7979C59.2279 70.2399 59.0559 70.733 58.9902 71.2454L57.7659 68.3133C57.8331 67.8014 58.0062 67.3091 58.2739 66.8676C58.5417 66.4262 58.8984 66.0452 59.3212 65.749L60.543 68.6785Z" fill="#3058FE"/>
<path d="M58.9902 71.2454C58.9622 71.5459 58.9862 71.849 59.0612 72.1414L57.8342 69.2119C57.7604 68.9185 57.7364 68.6147 57.7633 68.3134L57.9078 68.6575L58.0602 69.0201L58.2178 69.3958L58.3781 69.7794L58.4569 69.9712L58.5383 70.163L58.696 70.5387L58.7722 70.7226L58.9193 71.0773C58.9494 71.1304 58.9732 71.1868 58.9902 71.2454Z" fill="#3058FE"/>
<path d="M57.8343 69.2119L59.0612 72.1414C56.6719 73.0892 54.1576 73.6848 51.597 73.9096L50.3701 70.9801C52.9307 70.7558 55.4451 70.1601 57.8343 69.2119V69.2119Z" fill="#0030F5"/>
<path d="M64.7521 61.6556C65.2852 61.2503 65.8987 60.9635 66.5517 60.8144C67.2046 60.6653 67.8818 60.6574 68.538 60.7912C68.6713 60.8239 68.8029 60.8633 68.9321 60.9095C66.1813 64.5877 62.2324 67.4778 57.8238 69.2118C57.5243 68.0532 58.0576 66.6896 59.3082 65.749L64.7521 61.6556Z" fill="#6783F6"/>
<path d="M68.9426 60.9095L70.1669 63.8285C67.4187 67.5068 63.4699 70.3968 59.0612 72.1309L57.8342 69.2014C62.2324 67.4726 66.1918 64.5904 68.9426 60.9095Z" fill="#4266FB"/>
<path d="M23.542 43.0986C23.8672 42.9644 24.1507 42.7459 24.3633 42.4656L22.5983 44.8189C22.3861 45.0996 22.1024 45.3182 21.777 45.4519L23.542 43.0986Z" fill="#3058FE"/>
<path d="M26.1802 49.6739L27.9428 47.3205C28.5311 46.5204 29.7219 46.2474 30.9456 46.7252L29.1806 49.0785C27.9569 48.6007 26.7685 48.8761 26.1802 49.6739Z" fill="#6783F6"/>
<path d="M27.1919 44.2471C27.294 44.2935 27.4066 44.3121 27.5182 44.3009C27.6298 44.2897 27.7364 44.2492 27.8273 44.1835L26.0623 46.5368C25.9717 46.6022 25.8653 46.6423 25.7541 46.6531C25.6428 46.6638 25.5308 46.6448 25.4293 46.598L27.1919 44.2447L25.4293 46.598C25.3116 46.5527 25.2049 46.4829 25.1163 46.3933C25.0016 46.2989 24.9244 46.1667 24.8985 46.0204C24.8726 45.8742 24.8998 45.7235 24.9751 45.5955L26.7377 43.2422C26.6627 43.3705 26.6359 43.5213 26.6622 43.6676C26.6885 43.8138 26.7662 43.9459 26.8813 44.04C26.9694 44.1297 27.0752 44.2002 27.1919 44.2471V44.2471Z" fill="#3058FE"/>
<path d="M27.8276 44.1905C27.8547 44.169 27.8785 44.1437 27.8982 44.1152L26.1356 46.4686C26.1137 46.4959 26.0893 46.5211 26.0626 46.5439C26.5921 45.8449 27.2205 44.833 27.8276 44.1905Z" fill="#3058FE"/>
<path d="M24.9754 45.612L26.738 43.2587C26.7599 43.2313 26.7843 43.2061 26.811 43.1834C26.9016 43.118 27.008 43.0779 27.1192 43.0671C27.2304 43.0564 27.3425 43.0754 27.444 43.1222L25.679 45.4755C25.5775 45.4285 25.4652 45.4097 25.3538 45.4208C25.2425 45.432 25.1362 45.4728 25.046 45.539C25.0196 45.5605 24.9959 45.5849 24.9754 45.612V45.612Z" fill="#FFFCED"/>
<path d="M27.8981 44.1152L26.1355 46.4685C26.2103 46.3404 26.2372 46.1898 26.2114 46.0437C26.1855 45.8976 26.1086 45.7654 25.9943 45.6708C25.9045 45.5809 25.7972 45.5104 25.679 45.4637L27.4439 43.1104C27.5616 43.1556 27.6683 43.2254 27.7569 43.3151C27.8726 43.4093 27.9505 43.542 27.9765 43.6889C28.0024 43.8358 27.9746 43.9871 27.8981 44.1152Z" fill="#FFFCED"/>
<path d="M25.679 45.4731C25.7972 45.5198 25.9045 45.5902 25.9944 45.6802C26.2744 45.9602 26.305 46.3509 26.0626 46.5532C25.972 46.6186 25.8656 46.6587 25.7544 46.6695C25.6431 46.6802 25.531 46.6612 25.4296 46.6144C25.3119 46.5691 25.2052 46.4993 25.1166 46.4097C24.8365 46.1296 24.8059 45.7366 25.046 45.5366C25.1362 45.4704 25.2425 45.4296 25.3538 45.4184C25.4651 45.4072 25.5774 45.4261 25.679 45.4731V45.4731Z" fill="#FFFCED"/>
<path d="M24.3635 42.4657L22.5985 44.819C22.8105 44.5159 22.9431 44.1646 22.9842 43.797C23.0253 43.4295 22.9736 43.0575 22.8339 42.7151L24.5988 40.3618C24.7382 40.7043 24.7896 41.0762 24.7485 41.4437C24.7074 41.8111 24.5751 42.1624 24.3635 42.4657V42.4657Z" fill="#6783F6"/>
<path d="M29.1808 49.0784L30.9458 46.718L35.8901 48.6501L34.1251 51.0128L29.1808 49.0784Z" fill="#6783F6"/>
<path d="M34.125 51.0129L35.89 48.6595C36.431 48.8641 36.9163 49.1931 37.3068 49.6199C37.6972 50.0467 37.9817 50.5593 38.1374 51.1164L36.3747 53.4697C36.2178 52.9129 35.9325 52.4006 35.5418 51.9739C35.1511 51.5473 34.6659 51.2181 34.125 51.0129V51.0129Z" fill="#6783F6"/>
<path d="M34.125 51.013C34.6659 51.2182 35.1511 51.5474 35.5418 51.974C35.9325 52.4007 36.2178 52.913 36.3747 53.4698C34.4702 53.3325 32.5979 52.904 30.8233 52.1991C29.1767 51.5534 27.617 50.7052 26.1802 49.6739C26.7685 48.8762 27.9569 48.6008 29.1806 49.0809L34.125 51.013Z" fill="#6783F6"/>
<path d="M21.1676 38.0532L22.9326 35.6904L24.5917 40.3618L22.8267 42.7221L21.1676 38.0532Z" fill="#6783F6"/>
<path d="M25.0788 32.5017C23.9728 37.5519 27.8181 43.5176 33.652 45.798L31.887 48.1513C26.0531 45.8709 22.2078 39.9147 23.3162 34.855C23.5327 33.839 23.9653 32.8815 24.5846 32.0475L26.3473 29.6942C25.7289 30.5288 25.2963 31.4861 25.0788 32.5017V32.5017Z" fill="#3058FE"/>
<path d="M24.9613 32.3368L26.724 29.9835C26.1312 30.7825 25.7157 31.6987 25.5049 32.671C24.4412 37.5165 28.1336 43.2398 33.7416 45.4284L31.9789 47.7817C26.3804 45.5907 22.6904 39.8698 23.7423 35.022C23.9517 34.05 24.3674 33.1343 24.9613 32.3368V32.3368Z" fill="#2545C6"/>
<path d="M29.056 41.8798C29.8937 42.7479 30.8434 43.5005 31.8799 44.1178L30.1173 46.4711C29.0805 45.8588 28.13 45.1109 27.291 44.2472L29.056 41.8798Z" fill="#3058FE"/>
<path d="M32.932 44.6706C32.3468 45.4551 31.7593 46.2395 31.1694 47.0239C30.8117 46.8545 30.465 46.6694 30.1292 46.4686L31.8919 44.1152C32.2284 44.3153 32.5767 44.5012 32.932 44.6706Z" fill="#3058FE"/>
<path d="M29.0561 41.8797L28.5219 42.5857L27.8582 43.4823L27.6888 43.7177L27.4535 44.0471C27.393 44.1069 27.3415 44.175 27.3005 44.2495C27.1781 44.1224 27.0652 43.993 26.9404 43.8636L28.7054 41.5103C28.8137 41.6295 28.9306 41.7526 29.0561 41.8797Z" fill="#3058FE"/>
<path d="M28.3875 41.1359C28.4887 41.2559 28.5899 41.3712 28.6958 41.4912L26.9308 43.8445C26.8273 43.7269 26.7237 43.6092 26.6249 43.4868L28.3875 41.1359Z" fill="#3058FE"/>
<path d="M32.9318 44.6705C33.2213 44.8094 33.5154 44.9365 33.8143 45.0541L32.0517 47.4074C31.7504 47.2898 31.4563 47.1603 31.1692 47.0239C31.7575 46.2425 32.345 45.4581 32.9318 44.6705Z" fill="#3058FE"/>
<path d="M33.6521 45.7979C34.3553 46.0761 35.0813 46.2926 35.8219 46.445L34.0569 48.7983C33.3169 48.6434 32.5911 48.427 31.8871 48.1512L33.6521 45.7979Z" fill="#3058FE"/>
<path d="M40.3919 49.3303C40.4616 49.3259 40.5297 49.3066 40.5914 49.2737C40.6531 49.2408 40.707 49.1951 40.7496 49.1396L38.9869 51.493C38.944 51.5479 38.89 51.5931 38.8283 51.6255C38.7666 51.658 38.6988 51.677 38.6292 51.6812L40.3919 49.3303Z" fill="#3058FE"/>
<path d="M40.0461 49.2784C40.1559 49.3221 40.2743 49.3398 40.392 49.3302L38.6294 51.6835C38.5116 51.6944 38.3929 51.6767 38.2834 51.6317C38.1676 51.5873 38.0623 51.5191 37.9743 51.4316C37.8864 51.344 37.8177 51.2391 37.7728 51.1234L39.5378 48.7701L37.7728 51.1234C37.7402 51.0429 37.7282 50.9554 37.7381 50.8691C37.748 50.7828 37.7793 50.7003 37.8293 50.6292L39.5919 48.2759C39.5423 48.3476 39.5114 48.4306 39.502 48.5173C39.4925 48.604 39.5048 48.6917 39.5378 48.7724C39.583 48.8873 39.6515 48.9915 39.739 49.0786C39.8265 49.1657 39.931 49.2337 40.0461 49.2784V49.2784Z" fill="#3058FE"/>
<path d="M37.8269 50.6363L39.5919 48.283C39.635 48.2282 39.6891 48.1829 39.7507 48.1501C39.8123 48.1173 39.88 48.0977 39.9496 48.0924C40.0673 48.0839 40.1854 48.1016 40.2955 48.1442L38.5305 50.4975C38.4219 50.4527 38.304 50.435 38.187 50.4457C38.117 50.4507 38.0488 50.4702 37.9868 50.503C37.9248 50.5358 37.8703 50.5812 37.8269 50.6363V50.6363Z" fill="#FFFCED"/>
<path d="M40.7494 49.1396L38.9868 51.493C39.036 51.421 39.0666 51.3381 39.0761 51.2515C39.0855 51.1648 39.0734 51.0772 39.0409 50.9964C38.996 50.8807 38.9273 50.7758 38.8393 50.6882C38.7514 50.6007 38.6461 50.5325 38.5302 50.4881L40.2952 48.1348C40.4107 48.1801 40.5154 48.2489 40.6029 48.3368C40.6904 48.4247 40.7587 48.5298 40.8035 48.6454C40.8371 48.7256 40.8498 48.8131 40.8403 48.8995C40.8309 48.986 40.7996 49.0686 40.7494 49.1396V49.1396Z" fill="#FFFCED"/>
<path d="M38.5305 50.4975C38.6464 50.5419 38.7517 50.6101 38.8397 50.6976C38.9276 50.7851 38.9963 50.8901 39.0412 51.0058C39.0738 51.0774 39.0885 51.1558 39.084 51.2343C39.0795 51.3129 39.056 51.3891 39.0155 51.4565C38.9749 51.5239 38.9186 51.5805 38.8513 51.6213C38.7841 51.662 38.7079 51.6858 38.6294 51.6906C38.5116 51.7015 38.3929 51.6838 38.2834 51.6388C38.1676 51.5944 38.0623 51.5262 37.9743 51.4387C37.8864 51.3511 37.8177 51.2462 37.7728 51.1305C37.7401 51.0587 37.7255 50.9801 37.7301 50.9014C37.7347 50.8227 37.7584 50.7463 37.7992 50.6788C37.84 50.6114 37.8966 50.5549 37.9642 50.5142C38.0318 50.4736 38.1082 50.4501 38.187 50.4457C38.304 50.4349 38.4219 50.4527 38.5305 50.4975V50.4975Z" fill="#FFFCED"/>
<path d="M21.1676 38.0531L22.815 42.7244C23.2456 43.934 22.782 45.0354 21.7654 45.4613C19.4497 42.4914 18.066 39.0321 18.0001 35.6621C18.3452 35.6881 18.6842 35.7675 19.0049 35.8974C19.496 36.0858 19.9421 36.3749 20.3146 36.7462C20.6871 37.1175 20.9777 37.5627 21.1676 38.0531V38.0531Z" fill="#6783F6"/>
<path d="M18.0001 35.6622L19.7627 33.3088C20.1085 33.3351 20.4483 33.4145 20.7699 33.5442C21.2617 33.7333 21.7082 34.0235 22.0808 34.396C22.4533 34.7686 22.7435 35.2151 22.9326 35.7069L21.1676 38.0602C20.9785 37.5685 20.6883 37.1219 20.3158 36.7494C19.9432 36.3768 19.4967 36.0866 19.0049 35.8975C18.6842 35.7676 18.3452 35.6882 18.0001 35.6622V35.6622Z" fill="#6783F6"/>
<path d="M27.8418 41.4607L29.6068 39.1074C29.5783 39.2079 29.5904 39.3156 29.6406 39.4071C29.6908 39.4987 29.775 39.5669 29.8751 39.5969L28.1101 41.9502C28.0101 41.9202 27.9258 41.852 27.8756 41.7605C27.8254 41.6689 27.8133 41.5612 27.8418 41.4607V41.4607Z" fill="#FFFCED"/>
<path d="M28.1098 41.9501L29.8748 39.5874L32.0092 40.4228L30.2466 42.7856L28.1098 41.9501Z" fill="#FFFCED"/>
<path d="M32.0095 40.4229C32.071 40.4535 32.1409 40.4632 32.2084 40.4504C32.276 40.4377 32.3375 40.4032 32.3837 40.3523L30.621 42.7056C30.5743 42.7564 30.5123 42.7907 30.4445 42.8035C30.3766 42.8162 30.3065 42.8066 30.2445 42.7762L32.0095 40.4229Z" fill="#FFFCED"/>
<path d="M32.3835 40.3524L30.6208 42.7057C30.6296 42.6921 30.6375 42.678 30.6444 42.6634L32.4094 40.3101C32.4016 40.3247 32.393 40.3388 32.3835 40.3524V40.3524Z" fill="#3058FE"/>
<path d="M43.5428 48.1677C43.0722 48.8031 43.0345 49.695 43.4228 50.5375L41.6602 52.8908C41.2719 52.0507 41.3025 51.1588 41.7778 50.5234L43.5428 48.1677Z" fill="#3058FE"/>
<path d="M35.5252 41.7479C35.5747 41.8001 35.6349 41.8411 35.7017 41.8679L33.9367 44.2213C33.8709 44.1949 33.8115 44.1548 33.7626 44.1036C34.3493 43.3207 34.9369 42.5355 35.5252 41.7479Z" fill="#FFFCED"/>
<path d="M41.778 50.5303L43.5407 48.177C43.6302 48.0584 43.7328 47.9502 43.8466 47.8546L42.084 50.2079C41.969 50.3023 41.8663 50.4106 41.778 50.5303Z" fill="#6783F6"/>
<path d="M35.5254 41.7478C34.937 42.5322 34.3495 43.3167 33.7627 44.1011C33.7054 44.0441 33.6669 43.9711 33.6521 43.8916L35.4147 41.5383C35.4316 41.617 35.4698 41.6895 35.5254 41.7478Z" fill="#FFFCED"/>
<path d="M20.5816 33.6406C20.6046 33.6054 20.6297 33.5716 20.6569 33.5394L20.8145 33.33L20.9793 33.1111L21.0616 32.9982L21.2334 32.7628L21.9206 31.8403L20.5816 33.6336V33.6406Z" fill="#3058FE"/>
<path d="M33.9393 44.2282L35.702 41.8655L37.8129 42.6915L36.0479 45.0542L33.9393 44.2282Z" fill="#FFFCED"/>
<path d="M22.8809 32.1087C22.9971 32.1672 23.1295 32.1855 23.2572 32.1608C23.385 32.1361 23.5009 32.0698 23.5869 31.9722L21.8219 34.3255C21.7357 34.4228 21.62 34.4891 21.4924 34.5142C21.3648 34.5393 21.2326 34.5218 21.1159 34.4643L22.8809 32.1087Z" fill="#3058FE"/>
<path d="M22.8807 32.1086L22.1135 33.1347L21.5416 33.8924L21.2169 34.3255L21.1157 34.4619C20.9458 34.4043 20.8005 34.2908 20.7035 34.1399C20.6065 33.989 20.5634 33.8097 20.5815 33.6312L22.3465 31.2779L20.5815 33.6312C20.595 33.568 20.6223 33.5085 20.6615 33.4571L22.4265 31.1038C22.3868 31.1558 22.3595 31.2161 22.3465 31.2803C22.3281 31.4585 22.371 31.6376 22.4681 31.7882C22.5652 31.9388 22.7107 32.0518 22.8807 32.1086V32.1086Z" fill="#3058FE"/>
<path d="M35.8477 41.5078L37.6126 39.145L38.2292 42.4114L36.4666 44.7742L35.8477 41.5078Z" fill="#3058FE"/>
<path d="M37.8127 42.6914C37.8744 42.7231 37.9449 42.7333 38.013 42.7205C38.0812 42.7077 38.1432 42.6727 38.1893 42.6208L36.4243 44.9742C36.3783 45.026 36.3164 45.0613 36.2484 45.0745C36.1803 45.0877 36.1098 45.078 36.0477 45.0471L37.8127 42.6914Z" fill="#FFFCED"/>
<path d="M38.1891 42.6209L36.4241 44.9742C36.4452 44.9446 36.4599 44.9108 36.4671 44.8752C36.4744 44.8395 36.4742 44.8027 36.4664 44.7671L38.2291 42.4138C38.237 42.4492 38.2376 42.4859 38.2307 42.5215C38.2238 42.5572 38.2096 42.591 38.1891 42.6209V42.6209Z" fill="#3058FE"/>
<path d="M20.6616 33.4665L22.4242 31.1132C22.5107 31.0162 22.6266 30.9504 22.7542 30.9257C22.8817 30.901 23.0138 30.9189 23.1302 30.9767L21.3676 33.33C21.2511 33.2727 21.1191 33.255 20.9917 33.2796C20.8642 33.3043 20.7483 33.3699 20.6616 33.4665V33.4665Z" fill="#FFFCED"/>
<path d="M21.3675 33.3276C21.5372 33.3845 21.6824 33.4976 21.7791 33.6483C21.8759 33.7989 21.9182 33.978 21.8993 34.156C21.8311 34.4714 21.4804 34.6126 21.1157 34.4714C20.9458 34.4137 20.8005 34.3002 20.7035 34.1493C20.6065 33.9984 20.5634 33.8191 20.5815 33.6406C20.6521 33.3253 21.0027 33.1864 21.3675 33.3276Z" fill="#FFFCED"/>
<path d="M23.5843 31.9722L21.8193 34.3255C21.859 34.2734 21.8863 34.2131 21.8993 34.149C21.9182 33.971 21.8758 33.7918 21.7791 33.6412C21.6824 33.4906 21.5372 33.3775 21.3675 33.3206L23.1301 30.9673C23.2998 31.0245 23.445 31.1376 23.5421 31.288C23.6391 31.4385 23.6822 31.6175 23.6643 31.7957C23.6493 31.8591 23.6221 31.9191 23.5843 31.9722V31.9722Z" fill="#FFFCED"/>
<path d="M31.7458 40.2983L33.5108 37.9355L32.4094 40.31L30.6444 42.6704L31.7458 40.2983Z" fill="#3058FE"/>
<path d="M31.7717 40.2582L33.5344 37.9049C33.5256 37.9185 33.5178 37.9327 33.5108 37.9473L31.7458 40.3006C31.7525 40.2854 31.7612 40.2711 31.7717 40.2582Z" fill="#3058FE"/>
<path d="M31.7719 40.2582L33.5345 37.9049C33.5813 37.854 33.6432 37.8197 33.7111 37.807C33.7789 37.7943 33.8491 37.8038 33.9111 37.8343L32.1484 40.1876C32.0868 40.1556 32.0162 40.1451 31.948 40.1579C31.8797 40.1707 31.8177 40.206 31.7719 40.2582Z" fill="#FFFCED"/>
<path d="M33.1013 40.7736L34.8663 38.4132L35.4146 41.5384L33.652 43.9011L33.1013 40.7736Z" fill="#FFFCED"/>
<path d="M32.1483 40.1852L33.9109 37.8248L34.5792 38.0837L32.8142 40.4464L32.1483 40.1852Z" fill="#FFFCED"/>
<path d="M34.6193 38.1026L32.8543 40.4559L32.8143 40.4371L34.5793 38.0837L34.6193 38.1026Z" fill="#FFFCED"/>
<path d="M34.6191 38.1025C34.6782 38.1345 34.7298 38.1788 34.7704 38.2324C34.811 38.2859 34.8397 38.3476 34.8544 38.4132L33.0894 40.7665C33.0764 40.7003 33.0484 40.6379 33.0076 40.584C32.9668 40.5302 32.9143 40.4864 32.8541 40.4559L34.6191 38.1025Z" fill="#FFFCED"/>
<path d="M35.8901 41.2984L37.6551 38.9451C37.6331 38.9747 37.6179 39.0089 37.6106 39.0451C37.6032 39.0813 37.604 39.1186 37.6127 39.1545L35.8477 41.5078C35.8398 41.4719 35.8394 41.4347 35.8467 41.3986C35.854 41.3626 35.8688 41.3284 35.8901 41.2984Z" fill="#3058FE"/>
<path d="M37.6551 38.9379C37.6827 38.9021 37.7185 38.8734 37.7594 38.8542C37.8003 38.835 37.8452 38.8257 37.8904 38.8273L36.1278 41.1806C36.0828 41.1802 36.0382 41.1899 35.9975 41.209C35.9567 41.2282 35.9208 41.2563 35.8925 41.2912L37.6551 38.9379Z" fill="#FFFCED"/>
<path d="M18.9908 30.5649L20.7535 28.2115C21.0684 28.4721 21.4226 28.681 21.803 28.8305C22.7703 29.2094 23.8081 29.1435 24.4976 28.5693L22.7326 30.9226C22.0431 31.4968 21.0076 31.5627 20.0381 31.1861C19.6582 31.0359 19.3047 30.8262 18.9908 30.5649V30.5649Z" fill="#3058FE"/>
<path d="M28.3876 41.1359L26.625 43.4892C24.5753 41.0229 23.5657 37.9636 24.1752 35.1938C24.3745 34.2617 24.7708 33.3831 25.3377 32.6169C25.9245 31.8324 26.512 31.048 27.1004 30.2635C26.5327 31.0334 26.137 31.9162 25.9402 32.8522C25.333 35.6079 26.3402 38.6696 28.3876 41.1359Z" fill="#3058FE"/>
<path d="M35.8218 46.4451C39.6177 47.2264 43.0936 46.1038 44.9739 43.5881L43.2112 45.9415C41.3286 48.4572 37.8551 49.5773 34.0568 48.7984L35.8218 46.4451Z" fill="#3058FE"/>
<path d="M44.5974 43.3057L42.8324 45.659C40.6909 48.53 36.3843 49.509 31.9695 47.777L33.7415 45.4237C38.1493 47.1557 42.4488 46.1744 44.5974 43.3057Z" fill="#2545C6"/>
<path d="M33.8144 45.0542C38.0504 46.7016 42.1616 45.7744 44.2137 43.0304L42.4487 45.3837C40.3966 48.13 36.283 49.0643 32.0518 47.4099L33.8144 45.0542Z" fill="#3058FE"/>
<path d="M27.1002 30.2613C26.5142 31.0496 25.9235 31.8357 25.3376 32.6146V32.6028L27.1026 30.2495L27.1002 30.2613Z" fill="#3058FE"/>
<path d="M42.0837 50.2056L43.8487 47.8452L47.1316 45.106L45.3666 47.4687L42.0837 50.2056Z" fill="#6783F6"/>
<path d="M32.873 37.8367L34.6356 35.4834C34.6077 35.5842 34.6201 35.6919 34.6701 35.7837C34.7202 35.8755 34.8041 35.9442 34.9039 35.9752L33.1389 38.3286C33.0388 38.2981 32.9547 38.2293 32.9049 38.1373C32.8552 38.0452 32.8437 37.9372 32.873 37.8367V37.8367Z" fill="#3058FE"/>
<path d="M33.1413 38.326L34.9039 35.9633L36.123 36.441L34.3603 38.8014L33.1413 38.326Z" fill="#3058FE"/>
<path d="M26.7237 29.9765C26.8304 29.8353 26.941 29.6988 27.0555 29.567L25.2929 31.9203C25.1752 32.0521 25.0575 32.191 24.9587 32.3322L26.7237 29.9765Z" fill="#3058FE"/>
<path d="M34.3605 38.8038L36.1231 36.4504L36.1655 36.4669C36.4533 36.5964 36.7795 36.6124 37.0786 36.5116L35.3136 38.8649C35.0143 38.9645 34.6886 38.9486 34.4005 38.8202L34.3605 38.8038Z" fill="#3058FE"/>
<path d="M45.2257 42.2867C45.0466 42.6442 44.8363 42.9852 44.5973 43.3057L42.8324 45.6591C43.0723 45.3392 43.2826 44.9981 43.4607 44.6401L45.2257 42.2867Z" fill="#3058FE"/>
<path d="M37.596 36.1351L35.8334 38.4885C35.7028 38.6628 35.5209 38.792 35.3133 38.8579L37.0783 36.5046C37.2855 36.4391 37.4667 36.3098 37.596 36.1351Z" fill="#3058FE"/>
<path d="M37.7255 35.9141C37.6909 35.9924 37.6475 36.0667 37.5961 36.1353L35.8335 38.4886C35.8846 38.4198 35.9279 38.3456 35.9629 38.2674L37.7255 35.9141Z" fill="#FFFCED"/>
<path d="M37.7255 35.9141L35.9629 38.2674L37.7255 35.9141Z" fill="#FFFCED"/>
<path d="M33.5273 36.4245L35.2923 34.0618L34.6357 35.4738L32.8731 37.8341L33.5273 36.4245Z" fill="#3058FE"/>
<path d="M33.5508 36.3846L35.3158 34.0312C35.3066 34.0429 35.2987 34.0555 35.2923 34.0689L33.5273 36.4222L33.5508 36.3846Z" fill="#3058FE"/>
<path d="M39.3752 38.406C39.7156 38.2216 40.0119 37.9654 40.2436 37.6553L38.4786 40.0086C38.2475 40.32 37.9512 40.577 37.6102 40.7617V40.7617L37.8173 40.4863C38.335 39.7897 38.8535 39.0947 39.3728 38.4013L37.6102 40.7546C37.1511 41.0078 36.6396 41.1512 36.1159 41.1735L37.8785 38.8202C38.4026 38.7992 38.9149 38.6575 39.3752 38.406V38.406Z" fill="#FFFCED"/>
<path d="M45.3668 47.4688C46.0564 46.8946 47.0942 46.8287 48.0614 47.2076C48.1696 47.2499 48.2779 47.297 48.3838 47.3511C47.0471 50.0692 44.642 51.9848 41.6603 52.8979C41.1897 51.9048 41.3285 50.8388 42.0839 50.2081L45.3668 47.4688Z" fill="#6783F6"/>
<path d="M45.367 47.4688L47.132 45.1155C47.8215 44.5413 48.8569 44.4754 49.8265 44.8543C49.9348 44.8967 50.0407 44.9437 50.1466 44.9979L48.3839 47.3512C48.278 47.2971 48.1698 47.25 48.0615 47.2076C47.0943 46.8358 46.0565 46.8946 45.367 47.4688Z" fill="#6783F6"/>
<path d="M49.1556 46.6122L47.3906 48.9655C47.7705 48.4565 48.1029 47.9138 48.3837 47.344L50.1463 44.9907C49.8668 45.5606 49.5352 46.1034 49.1556 46.6122V46.6122Z" fill="#6783F6"/>
<path d="M33.5508 36.3847L35.3158 34.0313C35.3618 33.9795 35.4236 33.9442 35.4917 33.9311C35.5598 33.9179 35.6303 33.9275 35.6923 33.9584L33.9297 36.3117C33.8672 36.281 33.7964 36.2715 33.728 36.2847C33.6597 36.2978 33.5974 36.3329 33.5508 36.3847V36.3847Z" fill="#FFFCED"/>
<path d="M37.7066 35.069C37.7786 35.1988 37.8179 35.3442 37.8212 35.4926C37.8245 35.641 37.7916 35.788 37.7255 35.9209L35.9628 38.2742C36.028 38.1414 36.0602 37.9947 36.0565 37.8468C36.0528 37.6989 36.0134 37.5541 35.9416 37.4246L37.7066 35.069Z" fill="#FFFCED"/>
<path d="M33.9297 36.3118L35.6923 33.9514L36.9255 34.4315L35.1628 36.7942L33.9297 36.3118Z" fill="#FFFCED"/>
<path d="M35.1535 36.7966L36.9161 34.4432C37.2459 34.5477 37.5247 34.7718 37.6974 35.0716L35.9324 37.4249C35.7606 37.1253 35.4826 36.9011 35.1535 36.7966V36.7966Z" fill="#FFFCED"/>
<path d="M31.6492 33.2499L33.4142 30.8872L29.6066 39.0979L27.8416 41.4607L31.6492 33.2499Z" fill="#FFFCED"/>
<path d="M31.6752 33.2101L33.4378 30.8568C33.4845 30.8051 33.5469 30.7702 33.6153 30.7575C33.6838 30.7447 33.7545 30.7548 33.8167 30.7862L32.0517 33.1395C31.9899 33.1083 31.9195 33.0983 31.8515 33.1111C31.7834 33.1238 31.7215 33.1586 31.6752 33.2101Z" fill="#3058FE"/>
<path d="M38.587 36.787C39.1307 37.7283 39.1965 38.632 38.7871 39.498C38.5445 40.039 38.1311 40.4854 37.6104 40.7688C37.1513 41.022 36.6398 41.1654 36.1161 41.1877C36.0757 41.186 36.0356 41.1937 35.9987 41.21C35.9618 41.2263 35.9291 41.2508 35.9032 41.2817C35.8773 41.3127 35.8588 41.3491 35.8492 41.3883C35.8396 41.4275 35.8391 41.4684 35.8478 41.5078L36.4667 44.7742C36.5091 45.0095 36.2925 45.1507 36.0478 45.0542L33.9298 44.2282C33.8589 44.2016 33.7958 44.1577 33.7461 44.1006C33.6964 44.0435 33.6617 43.9749 33.6451 43.9011L33.0944 40.7759C33.0783 40.7012 33.0435 40.6317 32.9933 40.5741C32.9431 40.5165 32.8791 40.4726 32.8073 40.4464L32.1413 40.1875C32.0728 40.15 31.9923 40.1409 31.917 40.162C31.8418 40.1831 31.7779 40.2328 31.7389 40.3005L30.6375 42.6727C30.5981 42.7393 30.5346 42.7882 30.4601 42.8092C30.3856 42.8302 30.3059 42.8218 30.2374 42.7856L28.103 41.9502C28.003 41.9202 27.9188 41.852 27.8686 41.7604C27.8184 41.6688 27.8062 41.5612 27.8347 41.4607L31.6424 33.25C31.6826 33.1836 31.7466 33.135 31.8213 33.114C31.896 33.0931 31.9759 33.1013 32.0448 33.137L36.1113 34.7278C37.153 35.1018 38.0296 35.8309 38.587 36.787V36.787ZM35.9631 38.2743C36.0283 38.1415 36.0604 37.9949 36.0567 37.8469C36.0531 37.699 36.0136 37.5542 35.9419 37.4247C35.7696 37.125 35.492 36.9002 35.1629 36.7941L33.9298 36.3234C33.8613 36.2869 33.7814 36.278 33.7066 36.2986C33.6317 36.3192 33.5676 36.3676 33.5274 36.434L32.8732 37.846C32.8446 37.9462 32.8564 38.0535 32.9061 38.1451C32.9558 38.2366 33.0395 38.305 33.1391 38.3355L34.3605 38.8062L34.4005 38.8226C34.6886 38.9509 35.0143 38.9669 35.3136 38.8673C35.4579 38.8213 35.5906 38.7448 35.7027 38.6428C35.8148 38.5409 35.9036 38.416 35.9631 38.2767" fill="#3058FE"/>
<path d="M35.1535 36.7964C35.4826 36.901 35.7606 37.1252 35.9324 37.4248C36.0042 37.5542 36.0436 37.699 36.0473 37.8469C36.0509 37.9949 36.0188 38.1415 35.9536 38.2743C35.8941 38.4137 35.8053 38.5386 35.6933 38.6405C35.5812 38.7424 35.4484 38.819 35.3041 38.865C35.0048 38.9646 34.6791 38.9486 34.391 38.8203L34.351 38.8038L33.1296 38.3332C33.03 38.3026 32.9464 38.2343 32.8966 38.1427C32.8469 38.0512 32.8351 37.9438 32.8637 37.8437L33.5179 36.4317C33.5581 36.3653 33.6223 36.3168 33.6971 36.2963C33.7719 36.2757 33.8518 36.2846 33.9203 36.3211L35.1535 36.7964Z" fill="#FFFCED"/>
<path d="M31.675 33.21L33.4376 30.8567C33.4284 30.87 33.4205 30.8842 33.4141 30.899L31.6491 33.2524C31.6562 33.2374 31.6649 33.2232 31.675 33.21Z" fill="#FFFCED"/>
<path d="M48.5839 42.1596C48.7005 42.217 48.8328 42.2346 48.9603 42.2095C49.0879 42.1844 49.2037 42.1181 49.2899 42.0208L47.5272 44.3741C47.441 44.4713 47.325 44.5374 47.1974 44.5621C47.0697 44.5868 46.9375 44.5687 46.8212 44.5106C47.3507 43.8116 48.0567 42.868 48.5839 42.1596Z" fill="#3058FE"/>
<path d="M48.0495 41.3289C48.0319 41.5073 48.0751 41.6865 48.1721 41.8372C48.269 41.988 48.4141 42.1016 48.5837 42.1597L46.8211 44.513C46.6512 44.4562 46.5057 44.3431 46.4086 44.1926C46.3115 44.042 46.2685 43.8628 46.2869 43.6846L48.0495 41.3313L46.2869 43.6846C46.3003 43.621 46.3268 43.5609 46.3646 43.5081L48.1295 41.1548C48.0912 41.2067 48.064 41.266 48.0495 41.3289V41.3289Z" fill="#3058FE"/>
<path d="M22.7325 30.9202L24.4975 28.5575L27.7804 25.8182L26.0177 28.181L22.7325 30.9202Z" fill="#3058FE"/>
<path d="M46.3646 43.5151L48.1296 41.1618C48.2158 41.0645 48.3316 40.9981 48.4591 40.9731C48.5867 40.948 48.719 40.9655 48.8356 41.0229L47.0706 43.3763C46.954 43.3188 46.8217 43.3013 46.6941 43.3264C46.5666 43.3515 46.4508 43.4178 46.3646 43.5151V43.5151Z" fill="#FFFCED"/>
<path d="M28.0935 25.4983L26.3308 27.8516C26.2407 27.9697 26.1381 28.0778 26.0249 28.174L27.7875 25.8207C27.9019 25.7257 28.0046 25.6175 28.0935 25.4983Z" fill="#3058FE"/>
<path d="M47.0705 43.3786C47.24 43.4361 47.385 43.5493 47.482 43.6997C47.5789 43.8501 47.6222 44.0289 47.6047 44.2069C47.5341 44.5223 47.1835 44.6611 46.8211 44.5199C46.6512 44.4631 46.5057 44.3501 46.4086 44.1995C46.3115 44.049 46.2685 43.8698 46.2869 43.6916C46.3551 43.3762 46.7058 43.235 47.0705 43.3786Z" fill="#FFFCED"/>
<path d="M49.2875 42.0207L47.5249 44.3741C47.5627 44.321 47.5899 44.261 47.6049 44.1976C47.6223 44.0195 47.5791 43.8407 47.4821 43.6903C47.3851 43.5399 47.2401 43.4267 47.0707 43.3692L48.8357 41.0159C49.0049 41.0735 49.1496 41.1868 49.2462 41.3372C49.3428 41.4876 49.3856 41.6664 49.3675 41.8442C49.3545 41.9084 49.3272 41.9687 49.2875 42.0207V42.0207Z" fill="#FFFCED"/>
<path d="M40.2438 37.6578L38.4788 40.0112C38.5993 39.8498 38.7026 39.6763 38.7871 39.4934C39.1965 38.6274 39.1306 37.7261 38.587 36.7824L40.3497 34.4291C40.8925 35.3704 40.96 36.2741 40.552 37.1401C40.4675 37.3229 40.3641 37.4964 40.2438 37.6578V37.6578Z" fill="#3058FE"/>
<path d="M32.0518 33.1369L33.8168 30.7742L37.8833 32.365L36.1183 34.7254L32.0518 33.1369Z" fill="#3058FE"/>
<path d="M36.1184 34.7278L37.8834 32.3745C38.9209 32.7514 39.7936 33.48 40.3497 34.4337L38.587 36.787C38.0313 35.8321 37.1574 35.1032 36.1184 34.7278V34.7278Z" fill="#3058FE"/>
<path d="M49.5228 42.6751L51.2878 40.3218C51.2631 41.0542 51.1717 41.7828 51.0149 42.4986C50.8277 43.3638 50.5361 44.203 50.1465 44.9978L48.3838 47.3511C48.7721 46.5557 49.0636 45.7167 49.2522 44.8519C49.4071 44.1358 49.4977 43.4073 49.5228 42.6751Z" fill="#1A41E0"/>
<path d="M51.2879 40.3123L49.523 42.6656C49.363 42.6275 49.2057 42.5788 49.0523 42.5197C48.5606 42.3306 48.114 42.0404 47.7415 41.6678C47.3689 41.2953 47.0787 40.8487 46.8896 40.357L48.6546 38.0037C48.8437 38.4947 49.1337 38.9407 49.5058 39.3128C49.8779 39.6849 50.3239 39.9749 50.8149 40.164C50.9691 40.2239 51.1271 40.2734 51.2879 40.3123V40.3123Z" fill="#3058FE"/>
<path d="M25.912 24.6792C26.9215 25.8559 26.9851 27.3738 26.0179 28.1833L22.7232 30.9202C22.0337 31.4944 20.9982 31.5603 20.0287 31.1838C19.649 31.0343 19.2955 30.8254 18.9814 30.5649C20.2993 27.6585 22.7938 25.6229 25.912 24.6792Z" fill="#6783F6"/>
<path d="M20.1343 28.6187L21.8993 26.2654C23.3518 24.3656 25.3777 22.9842 27.6767 22.3259L25.9117 24.6792C23.6123 25.3368 21.5863 26.7183 20.1343 28.6187V28.6187Z" fill="#A7B8FF"/>
<path d="M28.0935 25.4982L26.3309 27.8515C26.9639 27.002 26.8015 25.7006 25.919 24.6698L27.684 22.3165C28.5642 23.3473 28.7218 24.6487 28.0935 25.4982Z" fill="#6783F6"/>
<path d="M29.1476 26.8324L30.4867 25.0392L29.1476 26.8324Z" fill="#3058FE"/>
<path d="M25.3447 32.6121L27.1073 30.2588C29.1594 27.5125 33.273 26.5782 37.5066 28.235L35.7416 30.5883C31.5104 28.9339 27.3873 29.8682 25.3447 32.6121Z" fill="#FFFCED"/>
<path d="M27.0559 29.567C29.2915 27.016 33.3886 26.2111 37.5893 27.8537L35.8243 30.2071C31.626 28.5597 27.5265 29.3716 25.2932 31.9203L26.1734 30.7436L26.5193 30.273L26.8511 29.8305C26.917 29.7599 26.9923 29.6564 27.0559 29.567Z" fill="#3058FE"/>
<path d="M24.5823 32.0567L26.3473 29.7034C28.5806 26.7147 33.0684 25.7028 37.6691 27.4913L35.9065 29.8446C31.3034 28.0443 26.8156 29.0657 24.5823 32.0567Z" fill="#2545C6"/>
<path d="M31.7671 25.0417C31.8367 25.0364 31.9044 25.0167 31.966 24.9839C32.0275 24.9511 32.0816 24.9059 32.1248 24.851L30.3598 27.2044C30.3168 27.2594 30.2628 27.3048 30.2012 27.3376C30.1396 27.3705 30.0717 27.39 30.0021 27.395C29.8842 27.4038 29.7658 27.3852 29.6562 27.3409C29.5404 27.2967 29.4353 27.2286 29.3477 27.141C29.2601 27.0534 29.192 26.9483 29.1478 26.8325L30.9175 24.4792L29.1549 26.8325C29.1215 26.7519 29.109 26.6641 29.1184 26.5773C29.1279 26.4906 29.1591 26.4076 29.209 26.336L30.9717 23.9827C30.9225 24.0546 30.8918 24.1375 30.8824 24.2242C30.8729 24.3108 30.885 24.3984 30.9175 24.4792C30.9625 24.5949 31.0312 24.6999 31.1191 24.7874C31.207 24.8749 31.3123 24.9431 31.4282 24.9875C31.5356 25.0311 31.6515 25.0496 31.7671 25.0417V25.0417Z" fill="#3058FE"/>
<path d="M29.2018 26.3477L30.9645 23.9944C31.0076 23.9396 31.0617 23.8943 31.1233 23.8615C31.1849 23.8287 31.2526 23.809 31.3222 23.8038C31.4401 23.795 31.5585 23.8135 31.6681 23.8579L29.9031 26.2112C29.7942 26.1674 29.6765 26.1497 29.5595 26.1594C29.4899 26.1635 29.422 26.1824 29.3603 26.2149C29.2986 26.2474 29.2446 26.2927 29.2018 26.3477V26.3477Z" fill="#FFFCED"/>
<path d="M32.1249 24.8509L30.3599 27.2043C30.41 27.1328 30.4413 27.0498 30.4508 26.9629C30.4603 26.8761 30.4476 26.7883 30.414 26.7077C30.369 26.592 30.3004 26.4871 30.2124 26.3995C30.1245 26.312 30.0192 26.2438 29.9033 26.1994L31.6683 23.8461C31.7843 23.8902 31.8898 23.9583 31.9777 24.0459C32.0657 24.1335 32.1343 24.2386 32.179 24.3544C32.2117 24.4352 32.2239 24.5228 32.2145 24.6095C32.205 24.6961 32.1742 24.7791 32.1249 24.8509V24.8509Z" fill="#FFFCED"/>
<path d="M29.903 26.2089C30.0188 26.2533 30.1241 26.3215 30.2121 26.4091C30.3 26.4966 30.3687 26.6016 30.4136 26.7172C30.4467 26.7889 30.4618 26.8676 30.4576 26.9465C30.4534 27.0253 30.4299 27.1019 30.3893 27.1697C30.3487 27.2374 30.2922 27.2942 30.2247 27.3351C30.1571 27.376 30.0806 27.3998 30.0018 27.4044C29.8839 27.4132 29.7655 27.3947 29.6559 27.3503C29.5401 27.3061 29.435 27.238 29.3474 27.1504C29.2599 27.0628 29.1917 26.9577 29.1476 26.842C29.1149 26.7704 29.1003 26.6919 29.1047 26.6134C29.1092 26.5349 29.1328 26.4586 29.1733 26.3912C29.2138 26.3238 29.2702 26.2673 29.3374 26.2265C29.4047 26.1857 29.4809 26.1619 29.5594 26.1571C29.6764 26.1474 29.794 26.1651 29.903 26.2089V26.2089Z" fill="#FFFCED"/>
<path d="M44.2137 43.028L42.4511 45.3813C43.0234 44.6122 43.4245 43.7295 43.6277 42.7926C44.6467 38.1472 41.1214 32.6734 35.7512 30.5789L37.5161 28.2256C42.8841 30.3224 46.4117 35.7915 45.3904 40.437C45.1895 41.3754 44.7881 42.2592 44.2137 43.028V43.028Z" fill="#FFFCED"/>
<path d="M45.2254 42.2867C45.2243 42.2922 45.2243 42.2978 45.2254 42.3032L43.4722 44.6565C43.7371 44.1244 43.9355 43.5616 44.0629 42.981C44.6818 40.157 43.684 37.0271 41.6319 34.4808L43.3969 32.1274C45.449 34.6761 46.4562 37.8013 45.8255 40.6276C45.6951 41.2034 45.4935 41.7607 45.2254 42.2867Z" fill="#3058FE"/>
<path d="M43.3901 32.1086L41.6251 34.4619C41.4792 34.2784 41.3286 34.0995 41.1709 33.923L42.9336 31.5697C43.0865 31.7486 43.2395 31.9274 43.3901 32.1086Z" fill="#3058FE"/>
<path d="M42.0579 30.6802C42.3638 30.9673 42.6556 31.2638 42.9286 31.5721L41.1659 33.9254C40.8906 33.6195 40.6011 33.3206 40.2952 33.0358L42.0579 30.6802Z" fill="#3058FE"/>
<path d="M42.058 30.6802L40.2954 33.0335C40.0765 32.8288 39.853 32.6311 39.62 32.4405L41.385 30.0872C41.6156 30.2778 41.8415 30.4755 42.058 30.6802Z" fill="#3058FE"/>
<path d="M37.5891 27.8539C38.9643 28.3935 40.2454 29.1472 41.385 30.0872L39.62 32.4405C38.4806 31.4996 37.1995 30.7451 35.8241 30.2048L37.5891 27.8539Z" fill="#3058FE"/>
<path d="M35.1534 24.7732L33.3884 27.1265C33.2379 27.038 33.094 26.939 32.9577 26.83C33.5445 26.0456 34.132 25.2611 34.7203 24.4767C34.8575 24.5857 35.0022 24.6847 35.1534 24.7732V24.7732Z" fill="#3058FE"/>
<path d="M35.1535 24.7733C35.3301 24.8785 35.5151 24.969 35.7065 25.0439L33.9415 27.3973C33.7503 27.3218 33.5654 27.2314 33.3885 27.1266L35.1535 24.7733Z" fill="#3058FE"/>
<path d="M35.9065 29.8448C41.7404 32.1252 45.5881 38.0814 44.4797 43.1387C43.3713 48.196 37.7233 50.434 31.8871 48.1607C26.0508 45.8874 22.2079 39.9241 23.3163 34.8644C24.4247 29.8048 30.0727 27.5644 35.9065 29.8448ZM31.9694 47.7912C37.568 49.9798 42.9877 47.8171 44.049 42.9716C45.1104 38.1261 41.4227 32.4028 35.8242 30.2143C30.2256 28.0257 24.8059 30.186 23.7446 35.0315C22.6832 39.877 26.3709 45.6003 31.9812 47.7912" fill="#2545C6"/>
<path d="M35.742 30.5978C41.1122 32.6969 44.6375 38.166 43.6185 42.8115C42.5995 47.4569 37.4199 49.5255 32.0519 47.4263C26.684 45.3272 23.1517 39.8463 24.1754 35.2009C25.1991 30.5554 30.374 28.4798 35.742 30.5978ZM38.7872 39.5074C39.1966 38.6414 39.1307 37.7401 38.5871 36.7964C38.0314 35.8416 37.1575 35.1126 36.1185 34.7372L32.0519 33.1464C31.9831 33.1107 31.9032 33.1025 31.8284 33.1234C31.7537 33.1444 31.6898 33.193 31.6495 33.2594L27.8419 41.4701C27.8133 41.5706 27.8255 41.6782 27.8757 41.7698C27.9259 41.8614 28.0101 41.9296 28.1101 41.9596L30.2446 42.795C30.313 42.8312 30.3927 42.8396 30.4672 42.8186C30.5417 42.7976 30.6053 42.7487 30.6447 42.6821L31.746 40.3099C31.785 40.2422 31.849 40.1925 31.9242 40.1714C31.9994 40.1503 32.0799 40.1594 32.1484 40.1969L32.8144 40.4558C32.8862 40.482 32.9502 40.5259 33.0005 40.5835C33.0507 40.6411 33.0854 40.7106 33.1015 40.7853L33.6522 43.9105C33.6688 43.9843 33.7036 44.0529 33.7533 44.11C33.803 44.1671 33.8661 44.211 33.937 44.2376L36.0549 45.0636C36.2903 45.1601 36.5256 45.0165 36.4738 44.7836L35.8596 41.5077C35.8509 41.4683 35.8514 41.4275 35.861 41.3883C35.8706 41.3491 35.8891 41.3126 35.915 41.2817C35.9409 41.2508 35.9736 41.2262 36.0105 41.2099C36.0474 41.1936 36.0876 41.186 36.1279 41.1877C36.6517 41.1654 37.1632 41.022 37.6223 40.7688C38.1434 40.486 38.5569 40.0394 38.7989 39.498" fill="#FFFCED"/>
<path d="M44.9761 43.5858L43.2111 45.9391C43.8309 45.1045 44.2636 44.1462 44.4796 43.1293C45.588 38.0814 41.7403 32.1157 35.9064 29.8354L37.6691 27.4821C43.5053 29.7648 47.3506 35.7187 46.2446 40.7783C46.027 41.794 45.5945 42.7513 44.9761 43.5858V43.5858Z" fill="#2545C6"/>
<path d="M45.2328 35.695L46.9977 33.3323L48.6592 38.0036L46.8942 40.3663L45.2328 35.695Z" fill="#3058FE"/>
<path d="M42.1944 32.1697L43.5334 30.3765L42.1944 32.1697Z" fill="#3058FE"/>
<path d="M44.9031 29.9507C44.9303 29.9286 44.9548 29.9033 44.9761 29.8754L43.2111 32.2287C43.1906 32.2579 43.166 32.284 43.1381 32.3063C43.0475 32.3717 42.9411 32.4118 42.8299 32.4226C42.7187 32.4333 42.6066 32.4143 42.5051 32.3675C42.3885 32.3216 42.2827 32.2518 42.1944 32.1628L43.9571 29.8095L42.1944 32.1628C42.0792 32.0694 42.0012 31.9377 41.9749 31.7917C41.9485 31.6457 41.9755 31.4951 42.0509 31.3674L43.8159 29.014C43.7408 29.1423 43.7141 29.2932 43.7404 29.4394C43.7667 29.5857 43.8444 29.7178 43.9594 29.8118C44.0479 29.9006 44.1536 29.9703 44.2701 30.0166C44.372 30.0627 44.4843 30.0809 44.5955 30.0693C44.7068 30.0577 44.8129 30.0168 44.9031 29.9507V29.9507Z" fill="#3058FE"/>
<path d="M45.4634 33.5888L47.2261 31.2355C47.0145 31.5387 46.8821 31.89 46.841 32.2575C46.7999 32.625 46.8514 32.9969 46.9907 33.3393L45.2257 35.6927C45.0872 35.3499 45.0363 34.978 45.0778 34.6106C45.1193 34.2432 45.2519 33.892 45.4634 33.5888V33.5888Z" fill="#3058FE"/>
<path d="M42.051 31.3742L43.816 29.0209C43.8365 28.9917 43.8611 28.9655 43.889 28.9433C43.9796 28.8779 44.086 28.8378 44.1972 28.827C44.3085 28.8163 44.4205 28.8353 44.522 28.8821L42.757 31.2354C42.6556 31.1886 42.5435 31.1696 42.4322 31.1803C42.321 31.1911 42.2146 31.2312 42.124 31.2966C42.0967 31.3195 42.0722 31.3456 42.051 31.3742V31.3742Z" fill="#FFFCED"/>
<path d="M42.7571 31.2356C42.8752 31.28 42.9821 31.3499 43.0701 31.4403C43.3501 31.7204 43.3831 32.111 43.1383 32.3134C43.0477 32.3788 42.9413 32.4189 42.8301 32.4296C42.7189 32.4404 42.6068 32.4214 42.5053 32.3746C42.3887 32.3286 42.2829 32.2589 42.1946 32.1698C41.9122 31.8874 41.8817 31.4968 42.124 31.2968C42.2147 31.2314 42.3211 31.1913 42.4323 31.1805C42.5435 31.1698 42.6556 31.1888 42.7571 31.2356V31.2356Z" fill="#FFFCED"/>
<path d="M44.9761 29.8753L43.2111 32.2286C43.2867 32.1011 43.3141 31.9507 43.2882 31.8047C43.2622 31.6587 43.1848 31.5269 43.0699 31.4332C42.9819 31.3428 42.875 31.2729 42.7569 31.2284L44.5219 28.8751C44.638 28.922 44.7436 28.9916 44.8325 29.0799C44.9474 29.1735 45.025 29.3052 45.0513 29.451C45.0777 29.5969 45.051 29.7474 44.9761 29.8753Z" fill="#FFFCED"/>
<path d="M45.4632 33.5889L47.2259 31.2356C47.4517 30.9373 47.7578 30.7096 48.1084 30.579L46.3457 32.9323C45.9949 33.0625 45.6887 33.2903 45.4632 33.5889V33.5889Z" fill="#6783F6"/>
<path d="M33.3907 21.7964C33.306 22.7518 33.8355 23.7826 34.7132 24.4768C34.1249 25.2613 33.5374 26.0457 32.9506 26.8301C32.0705 26.1241 31.5386 25.1052 31.6257 24.1497L33.3907 21.7964Z" fill="#3058FE"/>
<path d="M33.9343 27.4043L35.6993 25.0439L40.6436 26.976L38.881 29.3388L33.9343 27.4043Z" fill="#3058FE"/>
<path d="M43.456 26.597L41.6933 28.9504C41.0603 29.574 39.9848 29.7552 38.8693 29.3222L40.6343 26.9689C41.7427 27.4089 42.8253 27.2301 43.456 26.597Z" fill="#3058FE"/>
<path d="M31.6235 24.1592C33.3654 24.3321 35.0747 24.7472 36.702 25.3923C38.6259 26.1477 40.4301 27.1782 42.0582 28.4516C41.5663 29.4753 40.2437 29.8636 38.8765 29.3412L33.9345 27.4091C32.4943 26.8326 31.5129 25.4323 31.6235 24.1592Z" fill="#6783F6"/>
<path d="M49.5228 42.6751C49.4977 43.4073 49.4071 44.1358 49.2522 44.8519C49.0636 45.7167 48.7721 46.5557 48.3838 47.3511C48.2779 47.297 48.1697 47.25 48.0614 47.2076C47.0942 46.8287 46.0564 46.8946 45.3669 47.4688L42.084 50.2081C41.3286 50.8388 41.1991 51.9048 41.6604 52.8979C39.9479 53.4081 38.1568 53.6019 36.3748 53.4698C36.2179 52.9129 35.9326 52.4006 35.5419 51.974C35.1512 51.5473 34.666 51.2181 34.125 51.0129L29.1831 49.0808C27.9594 48.6102 26.7709 48.8761 26.1826 49.6739C24.5216 48.4868 23.0389 47.0683 21.7795 45.4614C22.7962 45.0355 23.2598 43.9341 22.8291 42.7245L21.1818 38.0532C20.9927 37.5614 20.7025 37.1149 20.3299 36.7423C19.9574 36.3698 19.5108 36.0796 19.0191 35.8905C18.6983 35.7605 18.3593 35.6812 18.0142 35.6551C17.9889 34.6734 18.0813 33.6921 18.2896 32.7323C18.4492 31.9851 18.6857 31.2563 18.9956 30.5579C19.3096 30.8184 19.6631 31.0273 20.0428 31.1768C21.0123 31.5533 22.0478 31.4874 22.7373 30.9132L26.032 28.1763C26.9992 27.3668 26.9357 25.8442 25.9261 24.6722C27.7742 24.1345 29.709 23.9603 31.6235 24.1592C31.5105 25.4323 32.4918 26.842 33.9321 27.4068L38.874 29.3388C40.2413 29.873 41.5639 29.473 42.0557 28.4493C43.6949 29.7224 45.1387 31.2289 46.3411 32.9206C45.2821 33.3277 44.7926 34.4502 45.228 35.6834L46.8895 40.3547C47.0786 40.8465 47.3688 41.293 47.7413 41.6656C48.1139 42.0381 48.5604 42.3283 49.0522 42.5174C49.2053 42.5805 49.3626 42.6332 49.5228 42.6751V42.6751ZM31.887 48.1607C37.7233 50.4434 43.3736 48.1889 44.4797 43.1387C45.5857 38.0885 41.7427 32.1252 35.9065 29.8448C30.0703 27.5644 24.4223 29.8166 23.3163 34.8644C22.2102 39.9123 26.0532 45.8803 31.887 48.1607V48.1607ZM21.1159 34.4714C21.4807 34.6126 21.8219 34.4714 21.8995 34.1561C21.9185 33.9781 21.8761 33.799 21.7794 33.6483C21.6827 33.4977 21.5374 33.3846 21.3677 33.3277C21.0029 33.1865 20.6617 33.3277 20.5817 33.6407C20.5637 33.8192 20.6067 33.9985 20.7037 34.1494C20.8007 34.3002 20.946 34.4138 21.1159 34.4714ZM46.8212 44.5201C47.1836 44.6613 47.5272 44.5201 47.6049 44.2071C47.6223 44.029 47.5791 43.8502 47.4821 43.6999C47.3851 43.5495 47.2401 43.4363 47.0707 43.3787C46.7059 43.2352 46.3647 43.3787 46.287 43.6917C46.2687 43.87 46.3116 44.0491 46.4087 44.1997C46.5058 44.3503 46.6513 44.4633 46.8212 44.5201V44.5201ZM29.5596 26.1642C29.4811 26.169 29.4049 26.1928 29.3377 26.2335C29.2704 26.2743 29.214 26.3308 29.1735 26.3983C29.133 26.4657 29.1095 26.5419 29.105 26.6205C29.1005 26.699 29.1152 26.7774 29.1478 26.849C29.192 26.9647 29.2601 27.0698 29.3477 27.1574C29.4353 27.245 29.5404 27.3132 29.6561 27.3573C29.7657 27.4017 29.8841 27.4202 30.002 27.4115C30.0809 27.4069 30.1574 27.3831 30.2249 27.3421C30.2924 27.3012 30.349 27.2444 30.3896 27.1767C30.4301 27.109 30.4536 27.0324 30.4578 26.9535C30.462 26.8747 30.447 26.796 30.4139 26.7243C30.3689 26.6086 30.3002 26.5037 30.2123 26.4161C30.1243 26.3286 30.0191 26.2604 29.9032 26.216C29.7943 26.1722 29.6766 26.1544 29.5596 26.1642V26.1642ZM38.6293 51.6977C38.7078 51.693 38.784 51.6692 38.8513 51.6284C38.9185 51.5876 38.9749 51.5311 39.0154 51.4637C39.0559 51.3963 39.0795 51.32 39.0839 51.2415C39.0884 51.1629 39.0737 51.0845 39.0411 51.0129C38.9962 50.8973 38.9275 50.7923 38.8396 50.7047C38.7516 50.6172 38.6463 50.549 38.5305 50.5046C38.4218 50.4598 38.3039 50.4421 38.1869 50.4528C38.1082 50.4572 38.0317 50.4808 37.9641 50.5214C37.8966 50.562 37.8399 50.6185 37.7991 50.686C37.7583 50.7534 37.7346 50.8298 37.73 50.9085C37.7254 50.9872 37.74 51.0659 37.7727 51.1376C37.8177 51.2533 37.8863 51.3583 37.9743 51.4458C38.0622 51.5334 38.1675 51.6015 38.2834 51.646C38.3928 51.6909 38.5115 51.7087 38.6293 51.6977V51.6977ZM26.0626 46.5604C26.2979 46.358 26.272 45.9674 25.9943 45.6873C25.9045 45.5974 25.7972 45.5269 25.679 45.4803C25.5774 45.4333 25.4651 45.4144 25.3538 45.4256C25.2425 45.4368 25.1361 45.4776 25.0459 45.5438C24.8106 45.7438 24.8365 46.1368 25.1165 46.4169C25.2052 46.5065 25.3119 46.5763 25.4295 46.6216C25.531 46.6684 25.6431 46.6874 25.7543 46.6767C25.8656 46.6659 25.9719 46.6258 26.0626 46.5604V46.5604ZM42.124 31.3039C41.8886 31.5039 41.9122 31.8945 42.1946 32.1769C42.2828 32.266 42.3886 32.3357 42.5052 32.3817C42.6067 32.4285 42.7188 32.4475 42.83 32.4367C42.9413 32.426 43.0476 32.3859 43.1383 32.3205C43.3736 32.1181 43.3501 31.7275 43.07 31.4474C42.982 31.357 42.8751 31.2871 42.757 31.2427C42.6555 31.1959 42.5435 31.1769 42.4322 31.1876C42.321 31.1984 42.2146 31.2385 42.124 31.3039" fill="#3058FE"/>
<path d="M35.8239 30.2142C30.2254 28.0256 24.8057 30.1859 23.7444 35.0314C22.683 39.8769 26.3707 45.6002 31.981 47.7911C37.5913 49.9821 42.9992 47.817 44.0606 42.9715C45.1219 38.126 41.4225 32.4028 35.8239 30.2142ZM43.6252 42.8021C42.6062 47.4475 37.4265 49.5161 32.0586 47.4169C26.6907 45.3178 23.1513 39.8463 24.175 35.2009C25.1987 30.5554 30.3737 28.4798 35.7416 30.5978C41.1095 32.7158 44.6371 38.166 43.6181 42.8115" fill="#3058FE"/>
<path d="M25.9119 24.6791L27.6769 22.3258C29.5298 21.7833 31.4705 21.6067 33.3908 21.8057L31.6258 24.159C29.7055 23.9602 27.7648 24.1369 25.9119 24.6791V24.6791Z" fill="#5878FE"/>
<path d="M46.3456 32.9323L48.1082 30.579C50.2262 33.5842 51.4029 37.0153 51.2876 40.3194L49.5226 42.6727C49.6379 39.3686 48.4612 35.9375 46.3456 32.9323Z" fill="#A7B8FF"/>
<path d="M46.3459 32.9323C48.4639 35.9374 49.6406 39.3686 49.5229 42.675C49.3629 42.6369 49.2057 42.5882 49.0522 42.5291C48.5605 42.34 48.1139 42.0498 47.7414 41.6772C47.3689 41.3047 47.0787 40.8581 46.8895 40.3664L45.2281 35.6951C44.8021 34.4619 45.2869 33.3394 46.3459 32.9323Z" fill="#6783F6"/>
<path d="M43.4561 26.5971C43.5222 26.5318 43.5835 26.4618 43.6396 26.3877L41.8746 28.741C41.82 28.8164 41.7594 28.8872 41.6934 28.9528L43.0419 27.1478L43.249 26.8678L43.2772 26.8325L43.3313 26.7595L43.3572 26.7242C43.3902 26.6936 43.4208 26.6466 43.4561 26.5971Z" fill="#3058FE"/>
<path d="M43.6394 26.3948L41.8768 28.7481C41.9484 28.6528 42.0099 28.5502 42.0604 28.4422L43.8253 26.0889C43.773 26.1964 43.7108 26.2988 43.6394 26.3948V26.3948Z" fill="#6783F6"/>
<path d="M42.0604 28.4493L43.8254 26.0959C45.4655 27.3673 46.9087 28.874 48.1084 30.5673L46.3458 32.9206C45.1434 31.2289 43.6996 29.7224 42.0604 28.4493V28.4493Z" fill="#4C6EF8"/>
<path d="M31.6235 24.1591L33.3885 21.8058C35.1302 21.9802 36.8392 22.3952 38.467 23.0389C40.3904 23.7953 42.1944 24.8258 43.8231 26.0982L42.0581 28.4516C40.4301 27.1781 38.6259 26.1476 36.702 25.3922C35.0747 24.7471 33.3654 24.3321 31.6235 24.1591V24.1591Z" fill="#A7B8FF"/>
<path d="M73.4469 21.7028C73.1523 20.2757 72.2894 19.1505 71.1951 18.7663C69.1958 18.0527 61.1986 18.0527 61.1986 18.0527C61.1986 18.0527 53.2014 18.0527 51.2021 18.7388C50.1288 19.1231 49.2449 20.2757 48.9502 21.7028C48.4241 24.31 48.4241 29.7164 48.4241 29.7164C48.4241 29.7164 48.4241 35.1503 48.9502 37.7301C49.2449 39.1572 50.1077 40.2824 51.2021 40.6666C53.2224 41.3801 61.1986 41.3801 61.1986 41.3801C61.1986 41.3801 69.1958 41.3801 71.1951 40.694C72.2894 40.3098 73.1523 39.1846 73.4469 37.7575C73.9731 35.1503 73.9731 29.7439 73.9731 29.7439C73.9731 29.7439 73.9941 24.31 73.4469 21.7028Z" fill="#670320"/>
<path opacity="0.45" d="M69.0037 26.146C68.7091 24.7189 67.8462 23.5937 66.7519 23.2095C64.7526 22.496 56.7554 22.496 56.7554 22.496C56.7554 22.496 48.7582 22.496 46.7589 23.1821C45.6856 23.5663 44.8017 24.7189 44.507 26.146C43.9809 28.7532 43.9809 34.1597 43.9809 34.1597C43.9809 34.1597 43.9809 39.5936 44.507 42.1733C44.8017 43.6004 45.6645 44.7256 46.7589 45.1098C48.7792 45.8234 56.7554 45.8234 56.7554 45.8234C56.7554 45.8234 64.7526 45.8234 66.7519 45.1373C67.8462 44.7531 68.7091 43.6279 69.0037 42.2008C69.5299 39.5936 69.5299 34.1871 69.5299 34.1871C69.5299 34.1871 69.5509 28.7532 69.0037 26.146Z" fill="#670320"/>
<path d="M71.2253 23.9243C70.9307 22.4973 70.0678 21.3721 68.9735 20.9878C66.9742 20.2743 58.977 20.2743 58.977 20.2743C58.977 20.2743 50.9798 20.2743 48.9805 20.9604C47.9072 21.3446 47.0233 22.4973 46.7286 23.9243C46.2025 26.5315 46.2025 31.938 46.2025 31.938C46.2025 31.938 46.2025 37.3719 46.7286 39.9516C47.0233 41.3787 47.8861 42.5039 48.9805 42.8881C51.0008 43.6017 58.977 43.6017 58.977 43.6017C58.977 43.6017 66.9742 43.6017 68.9735 42.9156C70.0678 42.5314 70.9307 41.4062 71.2253 39.9791C71.7515 37.3719 71.7515 31.9654 71.7515 31.9654C71.7515 31.9654 71.7725 26.5315 71.2253 23.9243Z" fill="#D1013E"/>
<path d="M55.0892 36.9833C55.0892 37.8061 55.9282 38.3168 56.5923 37.8982L64.5971 32.853C65.2498 32.4416 65.2498 31.4345 64.5971 31.0231L56.5923 25.9779C55.9282 25.5593 55.0892 26.07 55.0892 26.8928V36.9833Z" fill="#F7F3E1"/>
<defs>
<radialGradient id="paint0_radial_1401_121781" cx="0" cy="0" r="1" gradientUnits="userSpaceOnUse" gradientTransform="translate(46 46) rotate(90) scale(46)">
<stop stop-color="#3058FE"/>
<stop offset="1" stop-color="#1D1E25" stop-opacity="0"/>
</radialGradient>
</defs>
</svg>
