<svg width="56" height="56" viewBox="0 0 56 56" fill="none" xmlns="http://www.w3.org/2000/svg">
<g clip-path="url(#clip0_3516_102229)">
<path d="M28.5426 21.7115C28.5151 21.657 28.4914 21.6006 28.4715 21.5428C28.085 20.6204 27.6984 19.6971 27.3119 18.7729C27.4527 18.9502 27.568 19.1462 27.6545 19.3554L28.8853 22.2939C28.7961 22.0861 28.681 21.8904 28.5426 21.7115Z" fill="#3058FE"/>
<path d="M33.0809 22.8499L32.5538 21.5717L31.8633 19.9114C32.0151 19.8774 32.1726 19.8774 32.3245 19.9114L32.4668 20.2566L32.6197 20.6203L32.7778 20.9972L32.9386 21.382L33.0993 21.7668L33.2574 22.1436L33.4103 22.5073L33.5526 22.8526C33.3978 22.814 33.2361 22.8131 33.0809 22.8499Z" fill="#3058FE"/>
<path d="M33.5394 22.8473L32.3113 19.9061L32.4536 20.2514L32.6065 20.6151L32.7646 20.9919L32.9253 21.3767L33.0861 21.7615L33.2442 22.1384L33.3971 22.5021L33.5394 22.8473Z" fill="#3058FE"/>
<path d="M36.6071 21.9065L35.3895 18.968C35.1324 18.3317 35.1258 17.6217 35.371 16.9808L36.6071 19.9194C36.3559 20.558 36.3559 21.268 36.6071 21.9065Z" fill="#3058FE"/>
<path d="M31.0515 20.855L31.1596 21.1185L31.2703 21.3821L31.3862 21.6588L31.5048 21.9434L31.626 22.2307L31.7473 22.5206L31.8659 22.8079L31.9845 23.0899L31.0515 20.8576V20.855Z" fill="#3058FE"/>
<path d="M32.2823 23.7934C32.2875 23.847 32.3008 23.8994 32.3218 23.9489L31.0937 21.0077C31.0726 20.959 31.0584 20.9075 31.0515 20.8549C31.4627 21.8353 31.872 22.8148 32.2797 23.7934C31.872 22.813 31.4627 21.8335 31.0515 20.8549C30.9988 20.4464 31.3572 20.0221 31.8422 19.9114L33.0729 22.8499C32.5854 22.9606 32.2269 23.3955 32.2823 23.7934Z" fill="#3058FE"/>
<path d="M34.0322 23.2321C33.9865 23.1335 33.918 23.0471 33.8323 22.9802C33.7466 22.9133 33.6462 22.8678 33.5394 22.8473L32.3113 19.9061C32.4178 19.9274 32.5177 19.9736 32.6029 20.041C32.6881 20.1083 32.7561 20.1949 32.8015 20.2935L34.0322 23.2321Z" fill="#3058FE"/>
<path d="M27.6465 19.3553L28.8773 22.2939C29.3886 23.5194 28.8773 25.0664 27.5042 26.1048L26.2734 23.1662C27.6597 22.1279 28.1736 20.5808 27.6465 19.3553Z" fill="#6783F6"/>
<path d="M32.8016 20.2936L34.0323 23.2321C34.0511 23.2815 34.0643 23.3327 34.0719 23.385C34.1219 23.7935 33.7661 24.2178 33.2812 24.3285C33.1295 24.364 32.9717 24.364 32.82 24.3285C32.7138 24.3075 32.614 24.2617 32.5288 24.1948C32.4437 24.1279 32.3755 24.0419 32.3298 23.9437L31.1017 21.0025C31.1458 21.1013 31.2132 21.1879 31.2981 21.2549C31.3831 21.3219 31.4829 21.3673 31.5892 21.3873C31.7409 21.4229 31.8988 21.4229 32.0505 21.3873C32.5433 21.2766 32.9017 20.8602 32.8411 20.4438C32.8348 20.3922 32.8215 20.3416 32.8016 20.2936Z" fill="#FFFCED"/>
<path d="M32.3113 19.9061C32.442 19.9308 32.5621 19.9944 32.6562 20.0884C32.7502 20.1824 32.8137 20.3026 32.8384 20.4332C32.8885 20.8417 32.5301 21.266 32.0478 21.3767C31.8961 21.4123 31.7382 21.4123 31.5866 21.3767C31.455 21.3541 31.3337 21.2913 31.2393 21.1969C31.1449 21.1025 31.0821 20.9812 31.0595 20.8496C31.0068 20.4411 31.3652 20.0168 31.8501 19.9061C32.002 19.8721 32.1595 19.8721 32.3113 19.9061Z" fill="#FFFCED"/>
<path d="M26.2813 23.1636L27.5121 26.1021L22.0593 30.2082L20.8312 27.2696L26.2813 23.1636Z" fill="#6783F6"/>
<path d="M36.6071 21.9064L35.3895 18.9679C35.5795 19.3887 35.8678 19.7577 36.2301 20.0439C36.5925 20.3301 37.0182 20.525 37.4715 20.6124L38.7155 23.551C38.2572 23.4679 37.826 23.2749 37.4587 22.9884C37.0915 22.702 36.7992 22.3307 36.6071 21.9064Z" fill="#6783F6"/>
<path d="M20.8312 27.2697L22.0593 30.2082C21.5239 30.6175 20.9067 30.9068 20.2496 31.0564C19.5925 31.206 18.9108 31.2124 18.251 31.0753C17.8037 30.9741 17.3827 30.7801 17.015 30.506L15.7869 27.5675C16.1555 27.8416 16.5774 28.0355 17.0255 28.1367C17.685 28.2733 18.366 28.2666 19.0226 28.117C19.6792 27.9674 20.296 27.6784 20.8312 27.2697Z" fill="#6783F6"/>
<path d="M18.1378 30.5771L18.2432 30.8407L18.3566 31.1042L18.4725 31.3836L18.5911 31.6656L18.7123 31.9555L18.8309 32.2428L18.9522 32.53L19.0708 32.812L18.1378 30.5824V30.5771Z" fill="#3058FE"/>
<path d="M18.18 34.0639C18.1352 34.1484 18.1091 34.2416 18.1037 34.3372C18.0982 34.4327 18.1135 34.5283 18.1484 34.6173L16.9176 31.6788C16.8827 31.5897 16.8674 31.4941 16.8729 31.3986C16.8784 31.3031 16.9044 31.2099 16.9492 31.1253L18.18 34.0639L16.9492 31.1253C17.0627 30.9189 17.2394 30.7542 17.4533 30.6556C17.6672 30.5569 17.9071 30.5294 18.1378 30.5772C18.5454 31.554 18.9548 32.5336 19.3659 33.5157C18.9583 32.5353 18.549 31.5558 18.1378 30.5772C18.2441 30.5973 18.3438 30.6429 18.4287 30.7099C18.5136 30.7768 18.5811 30.8633 18.6254 30.9619L19.8561 33.9005C19.8118 33.8014 19.744 33.7146 19.6586 33.6476C19.5732 33.5805 19.4727 33.5353 19.3659 33.5157C19.1356 33.4677 18.896 33.4951 18.6824 33.5938C18.4688 33.6926 18.2927 33.8574 18.18 34.0639Z" fill="#3058FE"/>
<path d="M18.6253 30.962L19.856 33.9006C19.8911 33.9892 19.9064 34.0844 19.9009 34.1795C19.8955 34.2746 19.8693 34.3674 19.8244 34.4514C19.7117 34.6588 19.5354 34.8246 19.3214 34.9242C19.1074 35.0238 18.8671 35.0521 18.6358 35.0048C18.5296 34.9838 18.4299 34.9376 18.3451 34.8702C18.2603 34.8029 18.1928 34.7162 18.1482 34.6174L16.9175 31.6789C16.9622 31.7777 17.0302 31.8643 17.1155 31.9313C17.2008 31.9982 17.3011 32.0437 17.4077 32.0637C17.6387 32.1116 17.879 32.0839 18.093 31.9847C18.3071 31.8855 18.4835 31.7201 18.5963 31.5128C18.6401 31.4284 18.6654 31.3356 18.6704 31.2406C18.6754 31.1456 18.66 31.0506 18.6253 30.962Z" fill="#FFFCED"/>
<path d="M18.1378 30.5771C18.2386 30.5933 18.3341 30.6335 18.4161 30.6942C18.4982 30.7549 18.5645 30.8345 18.6094 30.9262C18.6544 31.0178 18.6766 31.119 18.6744 31.221C18.6721 31.3231 18.6453 31.4231 18.5964 31.5127C18.4836 31.72 18.3072 31.8854 18.0931 31.9846C17.8791 32.0838 17.6388 32.1115 17.4078 32.0635C17.3066 32.0475 17.2108 32.0074 17.1284 31.9465C17.046 31.8856 16.9795 31.8057 16.9345 31.7137C16.8895 31.6216 16.8674 31.5201 16.8699 31.4177C16.8725 31.3153 16.8997 31.215 16.9492 31.1253C17.0624 30.9186 17.239 30.7537 17.453 30.655C17.667 30.5563 17.9071 30.529 18.1378 30.5771Z" fill="#FFFCED"/>
<path d="M43.6438 22.0621L44.8746 25.0006L38.7023 23.5511L37.4716 20.6125L43.6438 22.0621Z" fill="#6783F6"/>
<path d="M48.3349 20.312L49.5657 23.2506C49.0251 23.9512 48.2992 24.4866 47.4702 24.7963C46.6412 25.106 45.7421 25.1777 44.8746 25.0031L43.6438 22.0778C44.5126 22.2527 45.4132 22.1799 46.2426 21.8677C47.0721 21.5555 47.7971 21.0164 48.3349 20.312Z" fill="#6783F6"/>
<path d="M32.9491 28.2105L34.1773 31.1491C34.0676 31.1262 33.9537 31.1348 33.8488 31.174C33.7438 31.2132 33.6521 31.2813 33.5843 31.3705L32.3535 28.4319C32.422 28.3428 32.5142 28.2748 32.6195 28.2356C32.7248 28.1965 32.8391 28.1878 32.9491 28.2105Z" fill="#FFFCED"/>
<path d="M15.2598 37.2133C14.8283 37.1127 14.3833 37.0824 13.9421 37.1237L12.7113 34.1852C13.1524 34.1448 13.5971 34.1741 14.029 34.2721C14.4367 35.2525 14.846 36.2321 15.2572 37.2107L14.962 36.5044L14.029 34.2748C14.4819 34.3625 14.9072 34.557 15.2698 34.8421C15.6324 35.1272 15.9217 35.4947 16.1137 35.914L17.3445 38.8526C17.1524 38.4332 16.8631 38.0657 16.5006 37.7806C16.138 37.4955 15.7126 37.301 15.2598 37.2133Z" fill="#3058FE"/>
<path d="M16.1031 35.9139L17.3339 38.8525C17.4196 39.062 17.478 39.2817 17.5079 39.5061L16.2771 36.5728C16.249 36.3464 16.1905 36.1248 16.1031 35.9139Z" fill="#6783F6"/>
<path d="M48.696 26.8217L48.082 25.3511C47.8764 24.8609 47.6708 24.3733 47.4679 23.8831C47.5932 23.7866 47.738 23.7184 47.8923 23.6834C48.0465 23.6483 48.2066 23.6472 48.3613 23.6802L48.5036 24.0228L48.5801 24.202L48.7356 24.5736L48.8937 24.9558L49.0571 25.3405L49.1362 25.5329L49.2152 25.7227L49.3707 26.0943L49.5183 26.4501C49.5528 26.5011 49.577 26.5584 49.5895 26.6188C49.4347 26.5858 49.2747 26.5869 49.1204 26.6219C48.9661 26.6569 48.8213 26.7251 48.696 26.8217Z" fill="#3058FE"/>
<path d="M49.5895 26.6213C49.1801 25.6409 48.7707 24.6614 48.3613 23.6827L48.5036 24.0254L48.6565 24.389L48.8146 24.7659L48.9754 25.1507L49.1362 25.5355L49.2943 25.9123L49.4471 26.276L49.5895 26.6213Z" fill="#3058FE"/>
<path d="M49.9532 26.8216C49.803 26.4579 49.6501 26.0969 49.4999 25.7358C49.2363 25.1191 48.9728 24.4998 48.7224 23.891C48.8041 23.92 48.7698 24.0043 48.7936 24.0597L48.9412 24.4155L49.0202 24.5999L49.1784 24.9768L49.3391 25.3616L49.4182 25.554L49.5789 25.9361L49.7344 26.3077L49.8082 26.4869L49.9532 26.8216Z" fill="#3058FE"/>
<path d="M49.9532 26.8216C49.8537 26.7218 49.7273 26.6531 49.5895 26.624C49.1801 25.6436 48.7707 24.6641 48.3613 23.6854C48.498 23.7141 48.6234 23.7819 48.7224 23.8804L48.8673 24.2231L48.9411 24.4023L49.0966 24.7739L49.1783 24.9636L49.9532 26.8085V26.8216Z" fill="#3058FE"/>
<path d="M48.6961 26.8217C48.5499 26.9136 48.4387 27.0516 48.38 27.214C48.3212 27.3763 48.3184 27.5536 48.3719 27.7177L47.1491 24.7818C47.0985 24.6172 47.1031 24.4407 47.1621 24.2789C47.2211 24.1172 47.3313 23.9792 47.4758 23.8857C47.8343 24.766 48.3271 25.9414 48.6961 26.8217Z" fill="#3058FE"/>
<path d="M50.0822 27.0087C50.0526 26.9373 50.0086 26.8728 49.9531 26.819L48.7302 23.8778C48.7853 23.933 48.8291 23.9983 48.8594 24.0702L50.0822 27.0087Z" fill="#3058FE"/>
<path d="M20.7944 37.0762C20.104 39.3114 20.2083 41.7166 21.0895 43.8837L19.8614 40.9451C18.9776 38.7786 18.8733 36.3725 19.5662 34.1377L19.7085 34.4829L19.8614 34.8466L20.0195 35.2235L20.1803 35.6083L20.262 35.8007L20.4201 36.1828L20.4992 36.3699L20.5756 36.5544L20.652 36.7336C20.7163 36.8401 20.7643 36.9556 20.7944 37.0762Z" fill="#3058FE"/>
<path d="M21.5849 35.0707C21.265 35.7156 21.0005 36.3866 20.7943 37.0763C20.3849 36.0976 19.9755 35.1181 19.5662 34.1377C19.7724 33.448 20.0369 32.7771 20.3568 32.1321C23.5721 25.5672 32.1031 21.614 39.3717 23.3244C43.2327 24.231 45.9604 26.5555 47.2096 29.5204L48.4404 32.4589C47.2017 29.494 44.4608 27.1695 40.5998 26.2629C33.318 24.5525 24.787 28.5057 21.5849 35.0707Z" fill="#3058FE"/>
<path d="M46.7115 29.7206L47.9397 32.6592C46.7458 29.8023 44.1024 27.5595 40.3811 26.6846C33.3682 25.0374 25.1429 28.8483 22.0409 35.1813C20.5861 38.1515 20.515 41.1559 21.5692 43.6807L20.341 40.7422C19.2868 38.2174 19.358 35.2077 20.8101 32.2428C23.9121 25.9177 32.1427 22.0962 39.1504 23.746C42.8717 24.621 45.515 26.8638 46.7115 29.7206Z" fill="#2545C6"/>
<path d="M45.1091 29.7417C44.893 29.5467 44.6664 29.3569 44.4292 29.1777C44.0216 28.1973 43.6122 27.2178 43.201 26.2391C43.4382 26.4183 43.6649 26.6055 43.8784 26.8031L43.9653 27.0087L44.0549 27.2274L44.1498 27.4515L44.2473 27.6834L44.3422 27.9127L44.4371 28.1393L44.5293 28.3581L44.6137 28.561L44.6716 28.7007L44.7323 28.8456L44.7955 28.9985L44.8614 29.1513L44.9247 29.3068L44.9905 29.457L45.0512 29.6046L45.1091 29.7417Z" fill="#3058FE"/>
<path d="M38.025 29.4018L39.2531 32.3403L34.1772 31.1464L32.9491 28.2079L38.025 29.4018Z" fill="#FFFCED"/>
<path d="M48.8516 24.0702L50.0823 27.0087C50.1331 27.173 50.1289 27.3494 50.0704 27.5111C50.0119 27.6728 49.9023 27.811 49.7582 27.9048C49.6317 28.0002 49.4864 28.0676 49.332 28.1026C49.1775 28.1376 49.0173 28.1393 48.8621 28.1077C48.7256 28.0769 48.6006 28.0084 48.501 27.9101C48.446 27.8558 48.4022 27.7914 48.3719 27.7203L47.149 24.7818C47.1803 24.8523 47.224 24.9166 47.2782 24.9715C47.378 25.0694 47.503 25.1378 47.6392 25.1692C47.7944 25.2008 47.9546 25.1991 48.1091 25.1641C48.2636 25.1291 48.4089 25.0617 48.5353 24.9663C48.68 24.8732 48.7897 24.7346 48.8469 24.5724C48.9042 24.4101 48.9058 24.2335 48.8516 24.0702Z" fill="#FFFCED"/>
<path d="M34.4751 31.8291L35.7032 34.7676C35.5935 34.7454 35.4798 34.7543 35.375 34.7935C35.2702 34.8326 35.1785 34.9003 35.1102 34.989L33.8821 32.0505C33.9503 31.9618 34.0421 31.8941 34.1469 31.8549C34.2517 31.8158 34.3654 31.8068 34.4751 31.8291Z" fill="#3058FE"/>
<path d="M45.1092 29.7418C45.0968 29.7202 45.0871 29.6972 45.0802 29.6732L44.959 29.3833L44.8931 29.2305L44.8615 29.1514L44.6137 28.5611L43.8784 26.8032C44.1971 27.0918 44.494 27.4037 44.7666 27.7362L44.9115 28.0788L45.0644 28.4425L45.2225 28.8194L45.3833 29.2041L45.544 29.5889L45.7022 29.9658L45.8524 30.3295L45.9973 30.6747C45.7226 30.3441 45.4259 30.0324 45.1092 29.7418Z" fill="#3058FE"/>
<path d="M46.3241 31.0912C46.2187 30.9488 46.1106 30.8092 45.9973 30.6748C45.5862 29.6873 45.1794 28.7078 44.7771 27.7362C44.8904 27.8706 45.0011 27.9998 45.1039 28.1526L45.212 28.4162L45.3253 28.6797L45.4439 28.9643L45.5651 29.2516L45.6863 29.5415L45.8049 29.8261L45.9183 30.0897L46.0263 30.3532L46.0632 30.4402L46.1001 30.5298L46.1396 30.6247L46.1792 30.7196L46.2213 30.8144L46.2609 30.9093L46.2978 30.9989L46.3241 31.0912Z" fill="#3058FE"/>
<path d="M36.0142 32.198L37.2423 35.1366L35.7032 34.7755L34.4751 31.8344L36.0142 32.198Z" fill="#3058FE"/>
<path d="M33.8821 32.0583L35.1102 34.9969L33.7319 36.905L32.5011 33.9664L33.8821 32.0583Z" fill="#3058FE"/>
<path d="M33.6738 37.2634L32.4457 34.3249C32.4228 34.2655 32.4158 34.2011 32.4255 34.1383C32.4352 34.0754 32.4613 34.0161 32.5011 33.9664L33.7318 36.9076C33.6918 36.9566 33.6654 37.0153 33.6553 37.0778C33.6451 37.1402 33.6515 37.2042 33.6738 37.2634Z" fill="#3058FE"/>
<path d="M36.8496 32.7673L38.0804 35.7058C37.9644 35.4423 37.685 35.242 37.2423 35.1392L36.0142 32.198C36.4543 32.3034 36.7363 32.4932 36.8496 32.7673Z" fill="#3058FE"/>
<path d="M33.9374 37.4689C33.8803 37.458 33.8266 37.4337 33.7808 37.398C33.7349 37.3622 33.6983 37.3161 33.6738 37.2634L32.4457 34.3248C32.4698 34.3778 32.5063 34.4242 32.5522 34.4599C32.5981 34.4957 32.652 34.5199 32.7092 34.5304L33.9374 37.4689Z" fill="#FFFCED"/>
<path d="M38.0804 35.7058C38.0804 35.7295 38.0988 35.7532 38.1041 35.7769L36.8707 32.8384C36.8707 32.8147 36.8549 32.7909 36.8444 32.7672L38.0804 35.7058Z" fill="#FFFCED"/>
<path d="M41.9492 34.3986C41.5117 33.3444 40.6139 32.6592 39.2558 32.343L38.025 29.4044C39.3814 29.7224 40.2801 30.4068 40.7211 31.4574L41.9492 34.3986Z" fill="#FFFCED"/>
<path d="M40.7211 31.4574L41.9492 34.3959C41.9574 34.413 41.9644 34.4307 41.9703 34.4487L40.7422 31.5075C40.7343 31.4917 40.729 31.4758 40.7211 31.4574Z" fill="#3058FE"/>
<path d="M34.2325 34.8862L35.4607 37.8274L33.9374 37.4689L32.7092 34.5304L34.2325 34.8862Z" fill="#FFFCED"/>
<path d="M38.104 35.7822C38.2174 36.0984 38.1304 36.4542 37.8405 36.8496L37.6956 36.5069L37.5427 36.1432L37.3846 35.7637L37.2238 35.379L36.9049 34.6173C36.8074 34.3828 36.7099 34.1456 36.6097 33.911C36.8917 33.5157 36.9787 33.1599 36.8733 32.8568C37.2449 33.7186 37.7614 34.8835 38.104 35.7822Z" fill="#FFFCED"/>
<path d="M37.8511 36.8365L36.6204 33.8979L37.8511 36.8365Z" fill="#FFFCED"/>
<path d="M16.2771 36.5649L17.5079 39.5061L18.2273 45.0617L16.9992 42.1231L16.2771 36.5649Z" fill="#6783F6"/>
<path d="M35.5108 37.8405L35.4607 37.8273L34.2352 34.8888H34.2827L34.4144 35.1998L34.5515 35.5292L34.6964 35.8718L34.8414 36.2223L34.989 36.5702L35.1313 36.9128L35.2683 37.2449L35.4001 37.5559V37.5875L35.4133 37.6218L35.4291 37.656L35.4423 37.6903L35.4581 37.7272L35.4739 37.7615L35.4871 37.7957L35.5108 37.8405Z" fill="#FFFCED"/>
<path d="M35.5108 37.8405C35.0997 36.8601 34.6894 35.8806 34.28 34.902L34.425 35.2446L34.5778 35.6083L34.736 35.9878L34.8967 36.3726L35.0575 36.7573L35.2156 37.1342L35.3658 37.4979L35.5108 37.8405Z" fill="#FFFCED"/>
<path d="M22.6154 35.3157C21.2239 38.1568 21.1528 41.0268 22.1595 43.4356L20.9287 40.4971C19.922 38.0882 19.9932 35.2261 21.3847 32.3772C24.3522 26.3156 32.1901 22.6866 38.8974 24.2652C40.4531 24.6135 41.9178 25.2862 43.1958 26.2392L43.3381 26.5818L43.491 26.9455L43.6491 27.3224L43.8099 27.7071L43.9707 28.0919L44.1288 28.4688L44.2816 28.8325L44.424 29.1777C43.1444 28.224 41.6778 27.5514 40.1202 27.2038C33.4209 25.6277 25.5804 29.2594 22.6154 35.3157Z" fill="#3058FE"/>
<path d="M46.3241 31.0911C46.3169 31.0776 46.3107 31.0635 46.3057 31.049L46.2688 30.9594L46.2504 30.9146L46.1687 30.7248L46.0158 30.3585C45.7101 29.6241 45.4026 28.8888 45.0934 28.1526C45.5075 28.7145 45.8525 29.3242 46.1212 29.9684L47.352 32.907C47.0812 32.2637 46.7363 31.6543 46.3241 31.0911Z" fill="#3058FE"/>
<path d="M36.7573 37.7167C36.6598 37.4795 36.5596 37.2449 36.4621 37.0077C36.3646 36.7705 36.2487 36.4991 36.1432 36.2461L35.5292 34.7781C35.9683 34.5967 36.3467 34.2942 36.6203 33.9058L36.7652 34.2484L36.9154 34.6121L37.0736 34.9889L37.2343 35.3737L37.3951 35.7585L37.5532 36.138L37.7061 36.5017L37.851 36.8443C37.5772 37.2335 37.1977 37.5362 36.7573 37.7167Z" fill="#FFFCED"/>
<path d="M36.7573 37.7167C36.3686 37.8938 35.9321 37.9373 35.516 37.8406C35.1049 36.8637 34.6947 35.8842 34.2853 34.9021C34.7023 34.9988 35.1395 34.9552 35.5292 34.7782L36.7573 37.7167Z" fill="#FFFCED"/>
<path d="M36.0142 32.1979C36.4921 32.3122 36.7794 32.5256 36.876 32.8384C36.9893 33.1546 36.8997 33.5104 36.6124 33.8926C36.3389 34.281 35.9605 34.5835 35.5214 34.7649C35.1317 34.9419 34.6944 34.9855 34.2774 34.8888H34.2247L32.7014 34.5303C32.6411 34.5206 32.5844 34.4949 32.5372 34.4561C32.49 34.4172 32.4539 34.3665 32.4327 34.3091C32.4116 34.2517 32.406 34.1898 32.4166 34.1295C32.4273 34.0693 32.4537 34.013 32.4932 33.9664L33.8742 32.0583C33.9425 31.9696 34.0342 31.9019 34.139 31.8627C34.2438 31.8236 34.3575 31.8146 34.4672 31.8369L36.0142 32.1979Z" fill="#FFFCED"/>
<path d="M32.3561 28.4293L33.5842 31.3705L25.5724 42.4737L24.3442 39.5352L32.3561 28.4293Z" fill="#FFFCED"/>
<path d="M21.7958 44.1763C21.7168 44.0155 21.6404 43.8495 21.5718 43.6834L20.3411 40.7449C20.4122 40.9109 20.486 41.0743 20.5651 41.2377C20.6099 41.3405 20.6679 41.4775 20.71 41.5803L20.8629 41.944L21.021 42.3235L21.1818 42.7083L21.3425 43.0904L21.5007 43.4699L21.6509 43.8336L21.7958 44.1763Z" fill="#3058FE"/>
<path d="M30.7142 37.0737L31.9423 40.0122C31.833 39.9889 31.7194 39.9973 31.6148 40.0366C31.5102 40.0758 31.419 40.1442 31.352 40.2336L30.1212 37.295C30.1891 37.2059 30.2808 37.1378 30.3857 37.0986C30.4906 37.0594 30.6045 37.0508 30.7142 37.0737Z" fill="#3058FE"/>
<path d="M27.2143 40.7237L28.445 43.6622L25.7806 43.035L24.5498 40.0964L27.2143 40.7237Z" fill="#3058FE"/>
<path d="M25.5725 42.4737C25.5334 42.5232 25.5078 42.582 25.4981 42.6443C25.4884 42.7067 25.4949 42.7704 25.5171 42.8295L24.2864 39.8909C24.2645 39.8317 24.2584 39.7678 24.2686 39.7054C24.2787 39.6431 24.3048 39.5844 24.3443 39.5352L25.5725 42.4737Z" fill="#FFFCED"/>
<path d="M25.517 42.8294L24.2863 39.8909C24.3109 39.9437 24.3476 39.99 24.3934 40.0262C24.4391 40.0623 24.4927 40.0873 24.5498 40.0991L25.7806 43.0376C25.7231 43.0267 25.6692 43.002 25.6233 42.9658C25.5774 42.9295 25.541 42.8828 25.517 42.8294Z" fill="#3058FE"/>
<path d="M31.547 37.2659L32.7752 40.2071L31.9424 40.0095L30.7142 37.0709L31.547 37.2659Z" fill="#3058FE"/>
<path d="M31.8343 37.6244L33.0624 40.5629L32.7699 44.3896L31.5417 41.4511L31.8343 37.6244Z" fill="#FFFCED"/>
<path d="M31.8105 37.4742L33.0387 40.4128C33.0148 40.3597 32.9783 40.3132 32.9323 40.2774C32.8864 40.2416 32.8325 40.2175 32.7751 40.2072L31.547 37.2687C31.6042 37.2794 31.6579 37.3036 31.7038 37.3394C31.7496 37.3752 31.7863 37.4214 31.8105 37.4742Z" fill="#3058FE"/>
<path d="M31.8105 37.4742L33.0387 40.4128C33.0585 40.4603 33.0666 40.5118 33.0624 40.563L31.8343 37.6271C31.8375 37.575 31.8294 37.5229 31.8105 37.4742Z" fill="#FFFCED"/>
<path d="M16.9992 42.1232L18.2274 45.0617C18.4145 46.5007 17.4051 47.9818 15.8554 48.7198L14.6273 45.7812C16.177 45.0406 17.1864 43.5621 16.9992 42.1232Z" fill="#6783F6"/>
<path d="M14.0186 34.2748L14.1266 34.5383L14.2373 34.8019L14.3533 35.0786L14.4719 35.3632L14.5931 35.6505L14.7143 35.9404L14.8329 36.2277L14.9515 36.5097L14.0186 34.2774V34.2748Z" fill="#3058FE"/>
<path d="M16.2771 36.5729L16.9992 42.1285C17.1864 43.5674 16.177 45.0459 14.6273 45.7865C12.4267 42.5053 11.6782 38.423 12.7008 34.1904C13.1419 34.15 13.5866 34.1794 14.0185 34.2774C15.2282 34.5568 16.1269 35.4001 16.2771 36.5729Z" fill="#6783F6"/>
<path d="M30.1212 37.2924L31.352 40.2309L29.038 43.4409L27.8073 40.5024L30.1212 37.2924Z" fill="#3058FE"/>
<path d="M27.8073 40.5023L29.0381 43.4409C28.9703 43.53 28.8786 43.5981 28.7736 43.6373C28.6687 43.6765 28.5548 43.6851 28.4451 43.6622L27.2144 40.7237C27.324 40.7466 27.4379 40.7379 27.5429 40.6987C27.6478 40.6596 27.7395 40.5915 27.8073 40.5023Z" fill="#3058FE"/>
<path d="M40.7422 31.5074L41.9703 34.4486C42.4025 35.5257 42.1917 36.651 41.3378 37.8247C40.7943 38.5768 40.0938 39.2018 39.2847 39.6563C38.6026 40.0551 37.8575 40.3349 37.0815 40.4839C36.9643 40.4999 36.8553 40.5527 36.7701 40.6346C36.6848 40.7165 36.6278 40.8234 36.6071 40.9398L35.3763 38.0012C35.3974 37.885 35.4546 37.7784 35.5397 37.6965C35.6249 37.6146 35.7337 37.5617 35.8507 37.5453C36.6276 37.3964 37.3735 37.1165 38.0566 36.7178C38.8664 36.2587 39.5669 35.6292 40.1096 34.8729C40.9635 33.7098 41.1744 32.588 40.7422 31.5074Z" fill="#3058FE"/>
<path d="M20.3489 48.1689L19.1182 45.2303C19.163 45.3331 19.2183 45.4702 19.2631 45.573L19.416 45.9367L19.5715 46.3162L19.7349 46.7009L19.8956 47.0857L20.0538 47.4626L20.204 47.8263L20.3489 48.1689Z" fill="#3058FE"/>
<path d="M21.2423 47.9581C21.0874 47.9264 20.9274 47.9283 20.7733 47.9638C20.6191 47.9992 20.4744 48.0674 20.3489 48.1637L20.204 47.8211L20.0537 47.4574L19.7401 46.6957C19.6321 46.4322 19.5266 46.1871 19.4212 45.9314C19.3158 45.6758 19.2236 45.4597 19.1234 45.2251C19.2494 45.1288 19.3946 45.0606 19.5492 45.0252C19.7037 44.9897 19.8641 44.9878 20.0195 45.0196L20.1618 45.3622L20.3146 45.7285L20.4728 46.1054L20.6335 46.4901L20.7943 46.8749L20.9524 47.2518L21.1053 47.6155L21.2423 47.9581Z" fill="#3058FE"/>
<path d="M21.2424 47.9581C20.8348 46.9812 20.4254 46.0017 20.0143 45.0195L20.1566 45.3648L20.3095 45.7285L20.4676 46.1053L20.6283 46.4901L20.7891 46.8749L20.9472 47.2518L21.1001 47.6155L21.2424 47.9581Z" fill="#3058FE"/>
<path d="M21.6061 48.1689C21.5052 48.0711 21.3794 48.0027 21.2424 47.9713C20.8348 46.9944 20.4254 46.0149 20.0143 45.0327C20.1507 45.0636 20.2758 45.132 20.3753 45.2304C20.4295 45.2847 20.4725 45.3492 20.5018 45.4201L21.7326 48.3587C21.7023 48.2883 21.6595 48.224 21.6061 48.1689Z" fill="#3058FE"/>
<path d="M20.3489 48.1689C20.2023 48.2609 20.0906 48.3994 20.0319 48.5623C19.9731 48.7252 19.9706 48.9031 20.0248 49.0676L18.794 46.1264C18.7433 45.9621 18.7474 45.7858 18.8059 45.6241C18.8644 45.4624 18.9741 45.3241 19.1182 45.2303L19.2631 45.573L19.4134 45.9367L19.5715 46.3162L19.7322 46.7009L19.893 47.0831L20.0511 47.4626L20.204 47.8263L20.3489 48.1689Z" fill="#3058FE"/>
<path d="M32.7935 44.5399L31.5654 41.6013C31.5454 41.5548 31.5373 41.5041 31.5417 41.4537L32.7698 44.3923C32.7668 44.4426 32.7749 44.493 32.7935 44.5399Z" fill="#FFFCED"/>
<path d="M20.5017 45.407L21.7325 48.3455C21.7835 48.5095 21.7797 48.6857 21.7217 48.8474C21.6637 49.009 21.5546 49.1474 21.411 49.2416C21.2844 49.3378 21.1388 49.4059 20.9838 49.4414C20.8288 49.4768 20.6681 49.4788 20.5123 49.4472C20.3754 49.4174 20.25 49.3488 20.1512 49.2495C20.0971 49.1961 20.0541 49.1325 20.0247 49.0624L18.7939 46.1212C18.8236 46.192 18.8665 46.2564 18.9205 46.3109C19.0206 46.4098 19.1467 46.4784 19.2841 46.5086C19.4395 46.5404 19.5999 46.5385 19.7545 46.503C19.909 46.4675 20.0542 46.3994 20.1802 46.303C20.3262 46.2111 20.4372 46.0729 20.4955 45.9105C20.5538 45.748 20.556 45.5708 20.5017 45.407Z" fill="#FFFCED"/>
<path d="M32.7936 44.5399L31.5654 41.6013C31.5892 41.6548 31.6256 41.7017 31.6715 41.7379C31.7174 41.7742 31.7715 41.7988 31.829 41.8095L33.0571 44.7428C33.0001 44.7326 32.9464 44.7088 32.9006 44.6735C32.8547 44.6382 32.818 44.5923 32.7936 44.5399Z" fill="#3058FE"/>
<path d="M50.2826 28.8088L51.5107 31.7474L52.2328 37.303L51.0047 34.3644L50.2826 28.8088Z" fill="#3058FE"/>
<path d="M52.2328 37.3055C52.2623 37.5302 52.3216 37.7501 52.4093 37.9591L51.1786 35.0205C51.0921 34.8113 51.0336 34.5915 51.0046 34.3669C51.3657 35.2551 51.985 36.3831 52.2328 37.3055Z" fill="#3058FE"/>
<path d="M35.3764 37.9987L36.6071 40.9398L36.3647 44.9326L35.1339 41.994L35.3764 37.9987Z" fill="#3058FE"/>
<path d="M34.4618 42.4289L35.6926 45.3675L33.0571 44.7481L31.829 41.8096L34.4618 42.4289Z" fill="#3058FE"/>
<path d="M35.1338 41.994L36.3646 44.9326C36.351 45.0062 36.3224 45.0764 36.2808 45.1386C36.2391 45.2009 36.1851 45.254 36.1222 45.2947C36.0593 45.3354 35.9888 45.3629 35.9149 45.3754C35.841 45.3879 35.7654 45.3852 35.6926 45.3674L34.4618 42.4289C34.5346 42.4466 34.6102 42.4493 34.6841 42.4368C34.758 42.4243 34.8286 42.3969 34.8915 42.3562C34.9544 42.3155 35.0083 42.2624 35.05 42.2001C35.0917 42.1378 35.1202 42.0677 35.1338 41.994Z" fill="#3058FE"/>
<path d="M46.1212 29.9657L47.3493 32.9042C48.3587 35.3131 48.2876 38.1752 46.896 41.0268C43.9285 47.0883 36.0906 50.7174 29.386 49.1387C25.8255 48.3033 23.3007 46.1659 22.1595 43.4382L20.9314 40.4997C22.0699 43.2274 24.5947 45.3647 28.1552 46.2002C34.8599 47.7815 42.7004 44.1445 45.6653 38.0882C47.0568 35.2551 47.128 32.3745 46.1212 29.9657Z" fill="#FFFCED"/>
<path d="M47.4679 41.1613C47.0791 41.9535 46.6149 42.7063 46.0816 43.4093C45.6705 42.4289 45.2602 41.4494 44.8508 40.4708C45.385 39.7678 45.8501 39.015 46.2397 38.2227C47.6945 35.2499 47.7683 32.2455 46.7088 29.7207L47.9396 32.6592C48.9938 35.184 48.9253 38.1911 47.4679 41.1613Z" fill="#3058FE"/>
<path d="M29.133 49.6553C25.6278 48.8331 23.0714 46.7958 21.7958 44.1762L20.5651 41.2376C21.8512 43.8573 24.397 45.8919 27.9022 46.7168C34.0376 48.161 41.1033 45.4201 44.8509 40.4707C44.8957 40.5735 44.9511 40.7105 44.9959 40.8133L45.1461 41.177L45.3042 41.5539L45.465 41.9387L45.6257 42.3234L45.7839 42.7003L45.9367 43.064L46.0817 43.4093C42.334 48.3587 35.2657 51.0996 29.133 49.6553Z" fill="#3058FE"/>
<path d="M47.1964 29.5177L48.4246 32.4563C49.5209 35.0759 49.4445 38.191 47.937 41.2719C44.7217 47.8368 36.1934 51.7874 28.9247 50.0796C25.0638 49.1704 22.3229 46.8512 21.0842 43.8836L19.8561 40.9451C21.0947 43.9074 23.8356 46.2318 27.6966 47.1411C34.9652 48.8489 43.4936 44.8983 46.7089 38.3333C48.2164 35.2551 48.2928 32.1347 47.1964 29.5177Z" fill="#2545C6"/>
<path d="M39.3585 23.3244C46.6272 25.0322 49.9241 31.7579 46.7089 38.3466C43.4936 44.9353 34.9652 48.8621 27.6966 47.1543C20.428 45.4466 17.1284 38.7208 20.3436 32.1453C23.5589 25.5698 32.0899 21.614 39.3585 23.3244ZM27.9101 46.7169C34.9204 48.3667 43.1457 44.5558 46.2477 38.2227C49.3496 31.8897 46.1686 25.3959 39.1582 23.7461C32.1479 22.0963 23.92 25.9098 20.818 32.2429C17.7161 38.5759 20.8997 45.0697 27.9101 46.7169Z" fill="#2545C6"/>
<path d="M38.8974 24.2653C45.602 25.8466 48.6328 32.0294 45.6653 38.0883C42.6977 44.1473 34.8598 47.7763 28.1552 46.2003C21.4506 44.6243 18.4224 38.4362 21.3847 32.3773C24.3469 26.3183 32.1927 22.6866 38.8974 24.2653Z" fill="#FFFCED"/>
<path d="M36.3013 37.3899C36.1644 37.4151 36.0383 37.4809 35.9392 37.5786C35.84 37.6763 35.7725 37.8015 35.7453 37.938L35.3947 41.7674C35.3754 41.8568 35.3385 41.9415 35.2862 42.0166C35.2339 42.0916 35.1672 42.1555 35.0899 42.2046C35.0127 42.2536 34.9264 42.2868 34.8363 42.3023C34.7461 42.3177 34.6537 42.315 34.5646 42.2945L31.7736 41.6382C31.6682 41.6213 31.5734 41.5645 31.5087 41.4797C31.4439 41.3949 31.4142 41.2884 31.4257 41.1823L31.8395 37.6587C31.8516 37.5525 31.8222 37.4457 31.7574 37.3607C31.6925 37.2757 31.5973 37.2191 31.4916 37.2027L31.0726 37.1026C30.9376 37.0754 30.7976 37.087 30.6689 37.136C30.5402 37.1849 30.428 37.2693 30.3452 37.3793L28.2078 40.3495C28.1255 40.4603 28.0135 40.5453 27.8847 40.5948C27.7559 40.6443 27.6157 40.6561 27.4804 40.6289L24.6315 39.9594C24.5562 39.9484 24.4851 39.9173 24.4258 39.8696C24.3665 39.8218 24.3211 39.759 24.2942 39.6878C24.2673 39.6166 24.26 39.5394 24.273 39.4644C24.2859 39.3893 24.3187 39.3191 24.3679 39.261L32.2638 28.3133C32.3466 28.2026 32.4592 28.1177 32.5885 28.0687C32.7178 28.0197 32.8584 28.0086 32.9938 28.0366L38.0618 29.2278C39.4938 29.5652 40.432 30.2679 40.8765 31.3362C41.321 32.4044 41.0909 33.5623 40.186 34.8097C39.253 36.1187 37.8697 37.0374 36.3013 37.3899ZM36.3013 33.7661C36.5491 33.4129 36.6229 33.1125 36.5253 32.8621C36.4278 32.6118 36.2065 32.4325 35.8138 32.335L34.6884 32.0715C34.5534 32.0443 34.4135 32.0559 34.2848 32.1048C34.1561 32.1538 34.0438 32.2382 33.961 32.3482L33.0413 33.6291C32.9919 33.6869 32.9589 33.7569 32.9459 33.8318C32.9328 33.9068 32.9402 33.9838 32.9671 34.0549C32.994 34.1261 33.0396 34.1886 33.099 34.2361C33.1584 34.2836 33.2295 34.3142 33.3048 34.3248L34.2773 34.5541L34.3458 34.5725C34.6907 34.6542 35.0524 34.6275 35.3816 34.4961C35.7606 34.3552 36.086 34.0989 36.3119 33.7635" fill="#3058FE"/>
<path d="M50.2378 38.1251L50.3432 38.3887L50.4565 38.6522L50.5725 38.9289L50.6911 39.2136L50.8123 39.5008L50.9309 39.7907L51.0522 40.078L51.1708 40.36L50.2378 38.1278V38.1251Z" fill="#3058FE"/>
<path d="M52.42 37.9592L51.1892 35.0206C51.3812 35.44 51.6705 35.8075 52.0331 36.0926C52.3957 36.3777 52.821 36.5722 53.2739 36.6599C53.4698 36.7058 53.6689 36.7366 53.8695 36.7521L55.0976 39.6907C54.897 39.6749 54.6979 39.6441 54.502 39.5984C54.0496 39.5104 53.6248 39.3157 53.2627 39.0306C52.9006 38.7455 52.6117 38.3782 52.42 37.9592Z" fill="#6783F6"/>
<path d="M50.28 41.6146C50.2351 41.6986 50.2089 41.7914 50.2035 41.8865C50.198 41.9816 50.2133 42.0768 50.2484 42.1654L49.0202 39.2269C48.9848 39.1385 48.969 39.0434 48.9741 38.9483C48.9791 38.8531 49.0047 38.7603 49.0492 38.676C49.4604 39.6547 49.8706 40.6333 50.28 41.612C49.8689 40.6351 49.4586 39.6564 49.0492 38.676C49.1623 38.4691 49.3388 38.3039 49.5528 38.2048C49.7667 38.1056 50.0068 38.0777 50.2378 38.1252C50.6454 39.1056 51.0548 40.0851 51.466 41.0638C51.0566 40.0834 50.6472 39.1039 50.2378 38.1252C50.3446 38.1459 50.4448 38.1919 50.5301 38.2593C50.6154 38.3267 50.6832 38.4136 50.728 38.5127L51.9562 41.4512C51.9114 41.3521 51.8435 41.2653 51.7582 41.1979C51.6729 41.1304 51.5727 41.0845 51.466 41.0638C51.2354 41.0165 50.9956 41.0445 50.7821 41.1436C50.5686 41.2428 50.3926 41.4079 50.28 41.6146Z" fill="#3058FE"/>
<path d="M50.7279 38.5126L51.9561 41.4511C51.9915 41.5395 52.0073 41.6346 52.0022 41.7297C51.9972 41.8248 51.9716 41.9177 51.9271 42.0019C51.8139 42.2094 51.6369 42.3749 51.4224 42.4741C51.2079 42.5733 50.9672 42.6008 50.7358 42.5527C50.6294 42.5321 50.5295 42.4861 50.4447 42.4187C50.3598 42.3512 50.2924 42.2643 50.2483 42.1653L49.0201 39.2268C49.0647 39.3255 49.1322 39.4122 49.217 39.4796C49.3018 39.547 49.4015 39.5931 49.5077 39.6142C49.7387 39.6626 49.9792 39.6351 50.1933 39.5358C50.4075 39.4366 50.5839 39.2709 50.6963 39.0634C50.7412 38.9794 50.7673 38.8866 50.7728 38.7915C50.7783 38.6963 50.763 38.6012 50.7279 38.5126Z" fill="#FFFCED"/>
<path d="M39.1504 23.746C46.1607 25.3958 49.3417 31.8896 46.2398 38.2227C43.1378 44.5557 34.9073 48.3666 27.9022 46.7168C20.8971 45.067 17.7108 38.5758 20.8101 32.2428C23.9094 25.9098 32.14 22.0962 39.1504 23.746ZM28.1552 46.2002C34.8598 47.7815 42.7003 44.1446 45.6652 38.0883C48.6301 32.0319 45.602 25.8412 38.8974 24.2652C32.1927 22.6892 24.3522 26.3209 21.3847 32.3772C18.4171 38.4335 21.4505 44.6242 28.1552 46.2002Z" fill="#3058FE"/>
<path d="M37.2923 51.7348C36.883 50.7544 36.4736 49.7749 36.0642 48.7963L36.2065 49.1389L36.3594 49.5026L36.5175 49.8794L36.6783 50.2642L36.839 50.649L36.9972 51.0259L37.15 51.3896L37.2923 51.7348Z" fill="#3058FE"/>
<path d="M36.8338 51.7373C36.6501 51.7718 36.4794 51.8559 36.3401 51.9804C36.2007 52.1048 36.098 52.265 36.0431 52.4436C35.632 51.465 35.2218 50.4855 34.8124 49.5051C34.8678 49.3268 34.9706 49.1669 35.1099 49.0425C35.2492 48.9181 35.4196 48.8338 35.603 48.7988C36.0142 49.7757 36.4244 50.7552 36.8338 51.7373C36.4226 50.7569 36.0124 49.7774 35.603 48.7988C35.7547 48.7632 35.9126 48.7632 36.0642 48.7988L36.2065 49.1414L36.3594 49.5051L36.5175 49.882L36.6783 50.2667L36.8391 50.6515L36.9972 51.0284L37.15 51.3921L37.2924 51.7373C37.1416 51.7018 36.9846 51.7018 36.8338 51.7373Z" fill="#3058FE"/>
<path d="M37.7825 52.1222C37.7378 52.0233 37.6699 51.9368 37.5845 51.8698C37.4992 51.8028 37.399 51.7574 37.2923 51.7374C36.883 50.757 36.4736 49.7775 36.0642 48.7988C36.1707 48.8192 36.2707 48.8648 36.356 48.9318C36.4413 48.9987 36.5093 49.085 36.5544 49.1836L37.7825 52.1222Z" fill="#3058FE"/>
<path d="M36.0353 52.6809C36.0412 52.7343 36.0546 52.7866 36.0748 52.8364L34.8467 49.8978C34.8259 49.848 34.8117 49.7958 34.8045 49.7423C35.2156 50.7227 35.625 51.7022 36.0326 52.6809C35.625 51.7005 35.2156 50.721 34.8045 49.7423C34.7901 49.6639 34.7901 49.5835 34.8045 49.5051C35.2156 50.4855 35.6259 51.465 36.0353 52.4437C36.0209 52.5221 36.0209 52.6025 36.0353 52.6809Z" fill="#3058FE"/>
<path d="M32.7172 54.2464C32.2797 53.7439 31.6903 53.3979 31.0384 53.2607L29.8076 50.3221C30.4593 50.4603 31.049 50.805 31.489 51.3052L31.6314 51.6504L31.7842 52.0141L31.9423 52.391L32.1031 52.7758L32.2639 53.1605L32.422 53.5374L32.5749 53.9011L32.7172 54.2464Z" fill="#3058FE"/>
<path d="M32.8621 54.4335C32.8173 54.3702 32.7699 54.307 32.7171 54.2464L31.489 51.3052C31.5391 51.3684 31.5892 51.4317 31.634 51.4949L32.5379 53.6613L32.5775 53.7509L32.617 53.8458L32.6592 53.9459L32.7013 54.0461L32.7435 54.1488L32.7857 54.249L32.8252 54.3439L32.8621 54.4335Z" fill="#3058FE"/>
<path d="M32.8622 54.4334C32.849 54.4071 32.8358 54.3702 32.8253 54.3438L32.7647 54.1989L32.7225 54.0987L32.7014 54.046L32.538 53.6612L31.634 51.4949C31.7372 51.6421 31.8255 51.7993 31.8976 51.964L33.1257 54.9025C33.0547 54.7373 32.9663 54.58 32.8622 54.4334Z" fill="#3058FE"/>
<path d="M36.5544 49.1809L37.7825 52.1221C37.8036 52.1717 37.8178 52.2241 37.8247 52.2776C37.8774 52.6834 37.5189 53.1078 37.034 53.2211C36.8823 53.2567 36.7245 53.2567 36.5728 53.2211C36.4664 53.2007 36.3663 53.1551 36.281 53.0882C36.1958 53.0212 36.1277 52.9349 36.0826 52.8363L34.8545 49.8978C34.8992 49.9966 34.9672 50.0831 35.0525 50.1501C35.1378 50.2171 35.2381 50.2625 35.3447 50.2825C35.4955 50.3181 35.6525 50.3181 35.8033 50.2825C36.2987 50.1692 36.6572 49.7554 36.5939 49.339C36.5882 49.2847 36.5749 49.2315 36.5544 49.1809Z" fill="#FFFCED"/>
<path d="M31.8922 51.964L33.1203 54.9025C33.2528 55.2216 33.32 55.5639 33.318 55.9093L32.0872 52.9707C32.0901 52.6255 32.0238 52.2832 31.8922 51.964Z" fill="#6783F6"/>
<path d="M53.8589 36.7521C53.5662 37.7114 53.1969 38.6456 52.7547 39.5457C52.1797 40.714 51.4977 41.8266 50.7174 42.8691C50.5878 42.8228 50.4558 42.7832 50.3221 42.7505C49.6623 42.6147 48.9809 42.6218 48.3241 42.7714C47.6672 42.9209 47.0499 43.2095 46.5139 43.6175L41.0637 47.7236C39.8092 48.6671 39.2742 50.0349 39.5747 51.1971C37.1781 52.1483 34.6559 52.7458 32.0873 52.9708C32.0873 51.7269 31.2413 50.6595 29.8076 50.3222L23.6354 48.87C22.8568 48.7125 22.0511 48.753 21.2922 48.9879C20.5334 49.2227 19.8456 49.6443 19.2921 50.2141C17.4402 49.0862 15.8513 47.5747 14.6326 45.7812C16.177 45.0407 17.1864 43.5622 17.0045 42.1232L16.2771 36.5729C16.1269 35.4054 15.2229 34.5621 14.0185 34.2774C13.5866 34.1794 13.1419 34.1501 12.7008 34.1905C13.018 32.899 13.4749 31.6459 14.0633 30.4534C14.5585 29.4462 15.135 28.481 15.7869 27.5675C16.1556 27.8416 16.5775 28.0355 17.0256 28.1368C17.6854 28.2738 18.367 28.2673 19.0241 28.1176C19.6812 27.968 20.2984 27.6789 20.8339 27.2697L26.284 23.1663C27.8916 21.954 28.316 20.0485 27.3145 18.773C29.8907 17.7579 32.6102 17.1532 35.3737 16.9808C34.7887 18.6069 35.6716 20.1882 37.4821 20.6125L43.6439 22.0778C44.5114 22.2542 45.4111 22.1835 46.2405 21.8736C47.0699 21.5638 47.7956 21.0273 48.335 20.3252C50.1437 21.5757 51.6501 23.2145 52.7441 25.1218C51.1444 25.8439 50.0902 27.354 50.2826 28.8115L51.0047 34.3697C51.1576 35.5345 52.0589 36.3779 53.2633 36.6625C53.4593 36.7075 53.6584 36.7374 53.8589 36.7521ZM27.6966 47.1412C34.9652 48.8489 43.4936 44.8984 46.7089 38.3334C49.9242 31.7685 46.6272 25.0322 39.3586 23.3244C32.09 21.6166 23.5589 25.5672 20.3437 32.1321C17.1284 38.6971 20.428 45.4307 27.6966 47.1412ZM49.5209 39.6142C49.752 39.6626 49.9924 39.6351 50.2066 39.5359C50.4207 39.4367 50.5971 39.271 50.7095 39.0634C50.7591 38.9738 50.7862 38.8735 50.7888 38.7711C50.7914 38.6686 50.7692 38.5671 50.7242 38.4751C50.6792 38.383 50.6127 38.3032 50.5304 38.2423C50.448 38.1814 50.3521 38.1412 50.251 38.1252C50.02 38.0777 49.7799 38.1056 49.5659 38.2047C49.3519 38.3039 49.1754 38.4691 49.0624 38.676C49.0135 38.7658 48.9868 38.866 48.9845 38.9682C48.9823 39.0704 49.0045 39.1717 49.0494 39.2635C49.0943 39.3554 49.1605 39.4351 49.2426 39.4962C49.3246 39.5572 49.4201 39.5977 49.5209 39.6142ZM17.4209 32.0636C17.6519 32.1116 17.8922 32.0839 18.1063 31.9847C18.3203 31.8855 18.4968 31.72 18.6095 31.5128C18.6585 31.4232 18.6852 31.3232 18.6875 31.2211C18.6898 31.119 18.6675 31.0179 18.6226 30.9262C18.5776 30.8346 18.5113 30.755 18.4293 30.6943C18.3472 30.6336 18.2518 30.5934 18.151 30.5772C17.9202 30.5291 17.6802 30.5564 17.4661 30.6551C17.2521 30.7538 17.0755 30.9187 16.9624 31.1254C16.9128 31.2151 16.8856 31.3154 16.8831 31.4178C16.8805 31.5202 16.9027 31.6217 16.9477 31.7138C16.9927 31.8058 17.0592 31.8856 17.1415 31.9465C17.2239 32.0074 17.3197 32.0476 17.4209 32.0636ZM35.7954 50.2774C36.2909 50.164 36.6493 49.7503 36.5861 49.3339C36.566 49.1999 36.5043 49.0756 36.4097 48.9787C36.3151 48.8817 36.1924 48.817 36.059 48.7936C35.9073 48.758 35.7494 48.758 35.5978 48.7936C35.1023 48.9069 34.7491 49.3207 34.8071 49.7371C34.828 49.8707 34.8899 49.9946 34.9844 50.0914C35.0788 50.1882 35.2011 50.2532 35.3342 50.2774C35.485 50.3129 35.642 50.3129 35.7928 50.2774H35.7954ZM20.1776 46.3004C20.5782 46 20.6652 45.5098 20.3727 45.2146C20.2731 45.1163 20.1481 45.0478 20.0116 45.017C19.8562 44.9852 19.6958 44.9871 19.5413 45.0226C19.3867 45.058 19.2415 45.1262 19.1155 45.2225C18.7149 45.5256 18.628 46.0132 18.9179 46.3083C19.018 46.4072 19.1441 46.4757 19.2816 46.506C19.4369 46.5378 19.5973 46.5359 19.7519 46.5004C19.9065 46.4649 20.0516 46.3967 20.1776 46.3004ZM47.4653 23.8831C47.0621 24.1862 46.9724 24.6738 47.2676 24.9689C47.3675 25.0668 47.4924 25.1352 47.6287 25.1666C47.7839 25.1982 47.944 25.1965 48.0985 25.1615C48.253 25.1265 48.3983 25.0591 48.5247 24.9637C48.928 24.6606 49.0149 24.173 48.7198 23.8752C48.6208 23.7767 48.4954 23.7089 48.3587 23.6802C48.204 23.6472 48.0439 23.6483 47.8897 23.6833C47.7354 23.7184 47.5906 23.7866 47.4653 23.8831ZM31.8633 19.9115C31.3705 20.0222 31.012 20.4386 31.0727 20.855C31.0953 20.9865 31.1581 21.1079 31.2525 21.2023C31.3469 21.2967 31.4682 21.3595 31.5998 21.3821C31.7514 21.4177 31.9093 21.4177 32.061 21.3821C32.5538 21.2714 32.9122 20.855 32.8516 20.4386C32.8269 20.3079 32.7634 20.1877 32.6694 20.0937C32.5753 19.9997 32.4552 19.9362 32.3245 19.9115C32.1727 19.8774 32.0152 19.8774 31.8633 19.9115Z" fill="#3058FE"/>
<path d="M27.3118 18.7729C22.6892 20.5835 18.5647 23.6591 15.7869 27.5675C16.1555 27.8416 16.5774 28.0355 17.0255 28.1368C17.6854 28.2738 18.3669 28.2672 19.024 28.1176C19.6811 27.968 20.2983 27.6788 20.8338 27.2697L26.2839 23.1663C27.8889 21.954 28.3133 20.0485 27.3118 18.7729Z" fill="#6783F6"/>
<path d="M35.3711 16.9808C37.5821 16.8419 39.8014 17.0248 41.9598 17.5237C44.2435 18.0373 46.4076 18.9838 48.335 20.312C47.7972 21.0165 47.0722 21.5555 46.2427 21.8677C45.4132 22.1799 44.5127 22.2527 43.6439 22.0778L37.4716 20.6256C35.669 20.1882 34.7861 18.6069 35.3711 16.9808Z" fill="#6783F6"/>
<path d="M48.3614 23.6828C48.498 23.7115 48.6235 23.7792 48.7224 23.8778C49.0176 24.1756 48.9306 24.6684 48.5274 24.9662C48.4009 25.0616 48.2557 25.1291 48.1012 25.1641C47.9467 25.199 47.7865 25.2008 47.6313 25.1692C47.4951 25.1378 47.3701 25.0694 47.2703 24.9715C46.9751 24.6737 47.0647 24.1809 47.4679 23.8857C47.5932 23.7891 47.738 23.721 47.8923 23.6859C48.0466 23.6509 48.2066 23.6498 48.3614 23.6828Z" fill="#FFFCED"/>
<path d="M53.6613 28.2026C53.2537 27.2222 52.8434 26.2427 52.4305 25.264C52.5333 25.2087 52.6361 25.156 52.7442 25.1085L53.9723 28.0471C53.8669 28.0945 53.7614 28.1393 53.6613 28.2026Z" fill="#3058FE"/>
<path d="M53.6613 28.2026C52.2408 28.9695 51.3342 30.3768 51.5108 31.7473L50.2826 28.8087C50.1034 27.4383 51.01 26.0336 52.4306 25.264C52.7284 25.9677 52.7284 25.9677 53.6613 28.2026Z" fill="#3058FE"/>
<path d="M14.572 46.324L13.3439 43.3855C13.6958 44.2226 14.1273 45.024 14.6326 45.7785L15.8607 48.7171C15.3559 47.9623 14.9244 47.1609 14.572 46.324Z" fill="#6783F6"/>
<path d="M20.0036 45.0196C20.1401 45.0504 20.2652 45.1189 20.3647 45.2172C20.6572 45.515 20.5703 46.0079 20.1697 46.303C20.0437 46.3993 19.8985 46.4675 19.7439 46.503C19.5894 46.5384 19.429 46.5404 19.2736 46.5086C19.1362 46.4783 19.0101 46.4098 18.9099 46.3109C18.62 46.0131 18.707 45.5203 19.1076 45.2251C19.2336 45.1288 19.3788 45.0606 19.5333 45.0252C19.6879 44.9897 19.8483 44.9878 20.0036 45.0196Z" fill="#FFFCED"/>
<path d="M19.292 50.2141L20.5307 53.1527C18.6788 52.0248 17.0899 50.5132 15.8712 48.7198L14.6431 45.7812C15.8588 47.5736 17.4439 49.085 19.292 50.2141Z" fill="#0030F5"/>
<path d="M23.6354 48.87L24.8661 51.8085C24.0871 51.6505 23.2809 51.6908 22.5216 51.9257C21.7622 52.1605 21.074 52.5824 20.5202 53.1526L19.2921 50.2141C19.8456 49.6443 20.5334 49.2226 21.2922 48.9878C22.0511 48.753 22.8568 48.7124 23.6354 48.87Z" fill="#3058FE"/>
<path d="M53.4741 26.6082L54.7023 29.5467C55.9778 32.5959 56.1676 36.1064 55.0818 39.6906L53.8536 36.7521C54.9447 33.1678 54.755 29.6574 53.4741 26.6082Z" fill="#4266FB"/>
<path d="M52.7441 25.1085C54.6549 28.4766 55.1161 32.5643 53.8589 36.752C53.6583 36.7365 53.4592 36.7056 53.2633 36.6598C52.0536 36.3752 51.1549 35.5318 51.0047 34.3669L50.2826 28.8087C50.0902 27.3487 51.1444 25.8306 52.7441 25.1085Z" fill="#6783F6"/>
<path d="M50.2378 38.1252C50.339 38.1413 50.4348 38.1814 50.5172 38.2423C50.5996 38.3032 50.666 38.3831 50.711 38.4751C50.756 38.5671 50.7782 38.6687 50.7756 38.7711C50.7731 38.8735 50.7459 38.9738 50.6963 39.0635C50.5839 39.271 50.4075 39.4367 50.1934 39.5359C49.9792 39.6352 49.7388 39.6626 49.5078 39.6143C49.4069 39.5977 49.3114 39.5572 49.2294 39.4962C49.1474 39.4352 49.0811 39.3554 49.0362 39.2636C48.9913 39.1717 48.9691 39.0704 48.9713 38.9682C48.9736 38.866 49.0003 38.7658 49.0492 38.6761C49.1623 38.4691 49.3387 38.3039 49.5527 38.2048C49.7667 38.1056 50.0068 38.0777 50.2378 38.1252Z" fill="#FFFCED"/>
<path d="M29.8076 50.3195L31.0384 53.258L24.8661 51.8059L23.6354 48.8673L29.8076 50.3195Z" fill="#3058FE"/>
<path d="M53.8589 36.7521L55.087 39.6906C54.7959 40.6504 54.4266 41.5848 53.9828 42.4842C53.4092 43.65 52.7271 44.7592 51.9455 45.797L50.7174 42.8585C51.4976 41.816 52.1796 40.7034 52.7546 39.5351C53.1964 38.6384 53.5657 37.7077 53.8589 36.7521Z" fill="#0030F5"/>
<path d="M51.5503 45.6916C50.8909 45.5546 50.2097 45.5612 49.5531 45.7108C48.8964 45.8604 48.2797 46.1495 47.7447 46.5586L46.5139 43.6174C47.0487 43.2108 47.6641 42.9232 48.3191 42.7736C48.974 42.6241 49.6534 42.6162 50.3116 42.7504C50.4453 42.7831 50.5773 42.8227 50.7069 42.869C51.1146 43.8494 51.5239 44.8289 51.9351 45.8075C51.8094 45.7606 51.6809 45.7219 51.5503 45.6916Z" fill="#3058FE"/>
<path d="M46.5139 43.6174L47.7446 46.556L42.2919 50.662L41.0637 47.7209L46.5139 43.6174Z" fill="#3058FE"/>
<path d="M36.0642 48.7962C36.1977 48.8195 36.3204 48.8843 36.415 48.9813C36.5096 49.0782 36.5713 49.2025 36.5913 49.3364C36.6467 49.7423 36.2883 50.1666 35.8007 50.2799C35.6499 50.3155 35.4929 50.3155 35.3421 50.2799C35.209 50.2558 35.0867 50.1908 34.9923 50.094C34.8978 49.9972 34.8359 49.8733 34.815 49.7397C34.765 49.3312 35.1181 48.9095 35.6057 48.7962C35.7565 48.761 35.9134 48.761 36.0642 48.7962Z" fill="#FFFCED"/>
<path d="M29.8076 50.3221C31.2413 50.6594 32.0926 51.7268 32.0873 52.9707C29.6654 53.1864 27.2247 53.0174 24.8556 52.47C22.8915 52.0231 21.0127 51.2613 19.2921 50.214C19.8456 49.6443 20.5334 49.2226 21.2922 48.9878C22.0511 48.753 22.8568 48.7124 23.6354 48.87L29.8076 50.3221Z" fill="#6783F6"/>
<path d="M32.0873 52.9708L33.318 55.9094C30.8954 56.1245 28.454 55.9564 26.0837 55.4113C24.1235 54.9612 22.2485 54.1986 20.5307 53.1527L19.3026 50.2141C21.0232 51.2613 22.902 52.0232 24.8661 52.4701C27.2317 53.0164 29.6689 53.1854 32.0873 52.9708Z" fill="#4266FB"/>
<path d="M42.2918 50.6621C41.8671 50.959 41.5091 51.3415 41.2409 51.7849C40.9727 52.2283 40.8001 52.7229 40.7342 53.2369L39.5061 50.2957C39.5736 49.7822 39.7471 49.2884 40.0157 48.8456C40.2843 48.4027 40.6421 48.0206 41.0663 47.7235L42.2918 50.6621Z" fill="#3058FE"/>
<path d="M40.7343 53.237C40.7062 53.5384 40.7302 53.8424 40.8054 54.1357L39.5746 51.1971C39.5006 50.9028 39.4766 50.5981 39.5035 50.2958L39.6484 50.641L39.8013 51.0047L39.9594 51.3816L40.1202 51.7664L40.1993 51.9588L40.281 52.1511L40.4391 52.528L40.5155 52.7125L40.6631 53.0683C40.6933 53.1216 40.7171 53.1782 40.7343 53.237Z" fill="#3058FE"/>
<path d="M39.5747 51.1971L40.8054 54.1357C38.4087 55.0864 35.8866 55.6839 33.318 55.9094L32.0873 52.9708C34.6559 52.7458 37.1781 52.1483 39.5747 51.1971Z" fill="#0030F5"/>
<path d="M46.5139 43.6174C47.0487 43.2108 47.6641 42.9232 48.3191 42.7736C48.974 42.6241 49.6533 42.6162 50.3116 42.7504C50.4453 42.7831 50.5773 42.8227 50.7069 42.869C47.9476 46.5586 43.9865 49.4577 39.5641 51.1971C39.2637 50.0348 39.7987 48.667 41.0532 47.7235L46.5139 43.6174Z" fill="#6783F6"/>
<path d="M50.7175 42.869L51.9456 45.797C49.1889 49.4867 45.2278 52.3857 40.8055 54.1251L39.5747 51.1866C43.9865 49.4524 47.9581 46.5613 50.7175 42.869Z" fill="#4266FB"/>
<path d="M5.47188 24.6609C5.79298 24.5284 6.07293 24.3127 6.2828 24.0359L4.54016 26.3594C4.33062 26.6365 4.05058 26.8523 3.72925 26.9844L5.47188 24.6609Z" fill="#3058FE"/>
<path d="M8.07654 31.1528L9.81684 28.8293C10.3977 28.0393 11.5734 27.7698 12.7816 28.2415L11.039 30.565C9.83079 30.0933 8.65742 30.3651 8.07654 31.1528Z" fill="#6783F6"/>
<path d="M9.07566 25.7948C9.17647 25.8406 9.28761 25.8589 9.3978 25.8479C9.50798 25.8369 9.61329 25.7969 9.70301 25.732L7.96038 28.0555C7.87089 28.1201 7.76587 28.1597 7.65605 28.1703C7.54622 28.1809 7.43555 28.1621 7.33536 28.1159L9.07566 25.7924L7.33536 28.1159C7.21919 28.0712 7.11385 28.0023 7.02633 27.9138C6.9131 27.8206 6.83686 27.6901 6.81131 27.5457C6.78575 27.4013 6.81256 27.2525 6.88692 27.1261L8.62723 24.8026C8.55312 24.9293 8.52669 25.0782 8.55268 25.2226C8.57866 25.367 8.65536 25.4974 8.76896 25.5903C8.85598 25.6789 8.96041 25.7485 9.07566 25.7948Z" fill="#3058FE"/>
<path d="M9.70296 25.739C9.72971 25.7178 9.75319 25.6927 9.77266 25.6647L8.03236 27.9882C8.01078 28.0152 7.98666 28.0401 7.96033 28.0625C8.48312 27.3724 9.10349 26.3733 9.70296 25.739Z" fill="#3058FE"/>
<path d="M6.88684 27.1425L8.62715 24.819C8.64873 24.7919 8.67285 24.767 8.69917 24.7446C8.78866 24.6801 8.89369 24.6405 9.00351 24.6298C9.11333 24.6192 9.22401 24.638 9.3242 24.6842L7.58157 27.0077C7.48129 26.9613 7.37042 26.9427 7.2605 26.9537C7.15057 26.9648 7.04561 27.0051 6.95654 27.0704C6.93052 27.0916 6.90712 27.1158 6.88684 27.1425Z" fill="#FFFCED"/>
<path d="M9.77273 25.6646L8.03243 27.9881C8.10632 27.8616 8.13287 27.713 8.10733 27.5687C8.0818 27.4244 8.00585 27.2939 7.89302 27.2005C7.80435 27.1117 7.69836 27.0421 7.58167 26.996L9.3243 24.6725C9.44047 24.7172 9.54581 24.7861 9.63333 24.8746C9.74754 24.9676 9.82447 25.0986 9.85006 25.2437C9.87566 25.3887 9.84821 25.5381 9.77273 25.6646Z" fill="#FFFCED"/>
<path d="M7.58167 27.0054C7.69837 27.0515 7.80435 27.1211 7.89303 27.2099C8.16953 27.4864 8.19973 27.8721 7.96041 28.0719C7.87092 28.1364 7.76589 28.176 7.65607 28.1867C7.54625 28.1973 7.43557 28.1785 7.33538 28.1323C7.21921 28.0876 7.11387 28.0187 7.02635 27.9302C6.74985 27.6537 6.71965 27.2656 6.95665 27.0681C7.04571 27.0028 7.15068 26.9625 7.2606 26.9515C7.37053 26.9404 7.48139 26.9591 7.58167 27.0054Z" fill="#FFFCED"/>
<path d="M6.28279 24.036L4.54016 26.3595C4.74944 26.0602 4.88036 25.7133 4.92095 25.3505C4.96154 24.9876 4.91051 24.6203 4.77251 24.2822L6.51514 21.9587C6.65272 22.2969 6.70353 22.6641 6.66294 23.0269C6.62236 23.3897 6.49168 23.7366 6.28279 24.036Z" fill="#6783F6"/>
<path d="M11.0389 30.565L12.7816 28.2345L17.6633 30.1421L15.9206 32.4749L11.0389 30.565Z" fill="#6783F6"/>
<path d="M15.9207 32.4749L17.6633 30.1514C18.1975 30.3533 18.6767 30.6781 19.0621 31.0995C19.4476 31.5209 19.7285 32.0271 19.8822 32.5771L18.1419 34.9006C17.987 34.3508 17.7053 33.845 17.3196 33.4238C16.9338 33.0025 16.4547 32.6775 15.9207 32.4749Z" fill="#6783F6"/>
<path d="M15.9207 32.4749C16.4548 32.6775 16.9339 33.0025 17.3196 33.4238C17.7054 33.845 17.987 34.3508 18.142 34.9006C16.2615 34.7651 14.413 34.3419 12.6608 33.6459C11.0351 33.0085 9.49519 32.171 8.07654 31.1528C8.65742 30.3651 9.83079 30.0933 11.039 30.5673L15.9207 32.4749Z" fill="#6783F6"/>
<path d="M3.12744 19.6794L4.87007 17.3466L6.50814 21.9587L4.76551 24.2892L3.12744 19.6794Z" fill="#6783F6"/>
<path d="M6.98907 14.1982C5.89702 19.1845 9.69363 25.0746 15.4536 27.326L13.711 29.6495C7.951 27.3981 4.15439 21.5173 5.24876 16.5217C5.46249 15.5186 5.88962 14.5732 6.50114 13.7498L8.24144 11.4263C7.63087 12.2502 7.20383 13.1954 6.98907 14.1982Z" fill="#3058FE"/>
<path d="M6.87295 14.0355L8.61326 11.712C8.02803 12.5009 7.61772 13.4055 7.40968 14.3655C6.35945 19.1496 10.005 24.8004 15.542 26.9612L13.8017 29.2847C8.27403 27.1215 4.63077 21.4731 5.66938 16.6867C5.87615 15.727 6.2866 14.8229 6.87295 14.0355Z" fill="#2545C6"/>
<path d="M10.9159 23.4574C11.743 24.3145 12.6807 25.0576 13.7041 25.6671L11.9637 27.9906C10.94 27.386 10.0016 26.6476 9.17322 25.7948L10.9159 23.4574Z" fill="#3058FE"/>
<path d="M14.7426 26.213C14.1649 26.9875 13.5848 27.762 13.0023 28.5365C12.6492 28.3692 12.3068 28.1864 11.9753 27.9882L13.7156 25.6647C14.0479 25.8622 14.3918 26.0457 14.7426 26.213Z" fill="#3058FE"/>
<path d="M10.9159 23.4573L10.3884 24.1544L9.7332 25.0396L9.56591 25.272L9.33356 25.5973C9.27386 25.6563 9.22299 25.7236 9.18253 25.7971C9.06171 25.6716 8.95017 25.5438 8.82703 25.416L10.5697 23.0925C10.6765 23.2103 10.792 23.3319 10.9159 23.4573Z" fill="#3058FE"/>
<path d="M10.2559 22.7231C10.3558 22.8416 10.4558 22.9555 10.5603 23.074L8.81768 25.3975C8.71544 25.2813 8.61321 25.1652 8.51562 25.0443L10.2559 22.7231Z" fill="#3058FE"/>
<path d="M14.7426 26.213C15.0284 26.3501 15.3189 26.4756 15.6139 26.5917L13.8736 28.9152C13.5762 28.7991 13.2858 28.6713 13.0023 28.5365C13.5832 27.7651 14.1633 26.9906 14.7426 26.213Z" fill="#3058FE"/>
<path d="M15.4537 27.326C16.1479 27.6008 16.8647 27.8146 17.596 27.965L15.8533 30.2885C15.1227 30.1356 14.4061 29.9218 13.7111 29.6496L15.4537 27.326Z" fill="#3058FE"/>
<path d="M22.1082 30.8136C22.1771 30.8092 22.2443 30.7902 22.3052 30.7577C22.3661 30.7253 22.4194 30.6801 22.4614 30.6254L20.7211 32.9489C20.6787 33.0031 20.6254 33.0477 20.5645 33.0798C20.5036 33.1118 20.4366 33.1306 20.3679 33.1348L22.1082 30.8136Z" fill="#3058FE"/>
<path d="M21.7667 30.7625C21.8751 30.8056 21.992 30.8231 22.1082 30.8136L20.3679 33.1372C20.2516 33.148 20.1344 33.1304 20.0264 33.086C19.912 33.0422 19.808 32.9749 19.7212 32.8884C19.6344 32.802 19.5666 32.6984 19.5222 32.5842L21.2648 30.2606L19.5222 32.5842C19.49 32.5046 19.4782 32.4183 19.4879 32.3331C19.4977 32.2479 19.5286 32.1664 19.5779 32.0962L21.3182 29.7727C21.2693 29.8435 21.2388 29.9255 21.2294 30.0111C21.2201 30.0967 21.2323 30.1832 21.2648 30.263C21.3094 30.3764 21.3771 30.4793 21.4635 30.5653C21.5498 30.6512 21.6531 30.7184 21.7667 30.7625Z" fill="#3058FE"/>
<path d="M19.5756 32.1031L21.3182 29.7796C21.3608 29.7255 21.4142 29.6808 21.475 29.6484C21.5358 29.616 21.6027 29.5966 21.6714 29.5914C21.7876 29.583 21.9042 29.6005 22.0129 29.6425L20.2703 31.966C20.163 31.9218 20.0466 31.9043 19.9311 31.9149C19.862 31.9198 19.7946 31.939 19.7334 31.9714C19.6722 32.0039 19.6184 32.0487 19.5756 32.1031Z" fill="#FFFCED"/>
<path d="M22.4613 30.6253L20.721 32.9488C20.7696 32.8778 20.7999 32.7959 20.8092 32.7104C20.8185 32.6249 20.8066 32.5384 20.7745 32.4586C20.7301 32.3444 20.6623 32.2407 20.5755 32.1543C20.4886 32.0679 20.3847 32.0005 20.2703 31.9567L22.0129 29.6332C22.1269 29.6779 22.2303 29.7459 22.3167 29.8326C22.4031 29.9194 22.4705 30.0232 22.5148 30.1374C22.548 30.2166 22.5605 30.3029 22.5511 30.3883C22.5418 30.4736 22.5109 30.5552 22.4613 30.6253Z" fill="#FFFCED"/>
<path d="M20.2703 31.966C20.3847 32.0099 20.4886 32.0772 20.5755 32.1636C20.6623 32.25 20.7301 32.3537 20.7745 32.4679C20.8067 32.5386 20.8212 32.616 20.8167 32.6935C20.8123 32.7711 20.7891 32.8464 20.7491 32.9129C20.709 32.9795 20.6534 33.0353 20.587 33.0756C20.5206 33.1158 20.4454 33.1393 20.3679 33.144C20.2516 33.1548 20.1343 33.1373 20.0263 33.0929C19.9119 33.049 19.8079 32.9817 19.7211 32.8953C19.6343 32.8089 19.5665 32.7052 19.5221 32.591C19.4899 32.5202 19.4754 32.4425 19.4799 32.3648C19.4845 32.2871 19.5079 32.2117 19.5482 32.1451C19.5885 32.0785 19.6444 32.0227 19.7111 31.9826C19.7778 31.9425 19.8533 31.9192 19.931 31.9149C20.0466 31.9043 20.163 31.9218 20.2703 31.966Z" fill="#FFFCED"/>
<path d="M3.12745 19.6794L4.7539 24.2916C5.17911 25.4859 4.72137 26.5733 3.71761 26.9938C1.43128 24.0615 0.0650582 20.646 0 17.3187C0.340738 17.3444 0.675435 17.4228 0.992143 17.5511C1.47696 17.737 1.91746 18.0225 2.28523 18.3891C2.65301 18.7556 2.9399 19.1952 3.12745 19.6794Z" fill="#6783F6"/>
<path d="M0 17.3186L1.74031 14.9951C2.08176 15.021 2.41719 15.0994 2.73477 15.2275C3.22027 15.4142 3.66118 15.7007 4.029 16.0685C4.39682 16.4364 4.68335 16.8773 4.87008 17.3628L3.12745 19.6863C2.94072 19.2008 2.65418 18.7599 2.28637 18.3921C1.91855 18.0242 1.47764 17.7377 0.992143 17.551C0.675435 17.4227 0.340738 17.3443 0 17.3186Z" fill="#6783F6"/>
<path d="M9.71694 23.0437L11.4596 20.7202C11.4314 20.8194 11.4434 20.9257 11.493 21.0161C11.5425 21.1066 11.6257 21.1739 11.7245 21.2035L9.98182 23.527C9.88306 23.4974 9.79991 23.4301 9.75035 23.3396C9.70079 23.2492 9.68879 23.1429 9.71694 23.0437Z" fill="#FFFCED"/>
<path d="M9.98181 23.5271L11.7244 21.1943L13.8319 22.0192L12.0916 24.352L9.98181 23.5271Z" fill="#FFFCED"/>
<path d="M13.8319 22.019C13.8926 22.0493 13.9616 22.0588 14.0283 22.0463C14.095 22.0337 14.1557 21.9996 14.2013 21.9493L12.461 24.2728C12.4148 24.323 12.3537 24.3569 12.2867 24.3695C12.2197 24.382 12.1504 24.3726 12.0892 24.3425L13.8319 22.019Z" fill="#FFFCED"/>
<path d="M14.2012 21.9494L12.4609 24.2729C12.4696 24.2595 12.4773 24.2455 12.4842 24.2311L14.2268 21.9076C14.2191 21.922 14.2106 21.936 14.2012 21.9494Z" fill="#3058FE"/>
<path d="M25.2194 29.6658C24.7547 30.2931 24.7175 31.1737 25.1009 32.0055L23.3606 34.3291C22.9772 33.4996 23.0074 32.6189 23.4768 31.9916L25.2194 29.6658Z" fill="#3058FE"/>
<path d="M17.3032 23.3273C17.3521 23.3788 17.4115 23.4192 17.4774 23.4458L15.7348 25.7693C15.6699 25.7433 15.6112 25.7036 15.5629 25.6531C16.1422 24.8801 16.7223 24.1049 17.3032 23.3273Z" fill="#FFFCED"/>
<path d="M23.4767 31.9985L25.217 29.675C25.3054 29.5579 25.4067 29.4511 25.519 29.3567L23.7787 31.6802C23.6653 31.7734 23.5638 31.8803 23.4767 31.9985Z" fill="#6783F6"/>
<path d="M17.3031 23.3273C16.7223 24.1018 16.1422 24.8763 15.5628 25.6508C15.5063 25.5945 15.4682 25.5224 15.4536 25.444L17.1939 23.1205C17.2105 23.1982 17.2483 23.2698 17.3031 23.3273Z" fill="#FFFCED"/>
<path d="M2.54895 15.3228C2.57166 15.288 2.59649 15.2546 2.6233 15.2229L2.77898 15.0161L2.94162 14.8L3.02294 14.6885L3.19255 14.4561L3.87103 13.5453L2.54895 15.3158V15.3228Z" fill="#3058FE"/>
<path d="M15.7372 25.7762L17.4775 23.4434L19.5617 24.2589L17.8191 26.5917L15.7372 25.7762Z" fill="#FFFCED"/>
<path d="M4.81892 13.8102C4.93366 13.868 5.06431 13.8861 5.19044 13.8617C5.31656 13.8373 5.43104 13.7718 5.51598 13.6754L3.77335 15.9989C3.68825 16.095 3.57394 16.1605 3.44799 16.1853C3.32205 16.21 3.19144 16.1927 3.07629 16.136L4.81892 13.8102Z" fill="#3058FE"/>
<path d="M4.81895 13.8101L4.06149 14.8232L3.49687 15.5714L3.17624 15.9989L3.07632 16.1336C2.9086 16.0767 2.76514 15.9646 2.66935 15.8157C2.57355 15.6667 2.53109 15.4897 2.54889 15.3134L4.29152 12.9899L2.54889 15.3134C2.5622 15.251 2.58917 15.1923 2.62788 15.1415L4.37051 12.818C4.33135 12.8694 4.30435 12.9289 4.29152 12.9923C4.27341 13.1682 4.31578 13.3451 4.41165 13.4938C4.50753 13.6425 4.65118 13.754 4.81895 13.8101Z" fill="#3058FE"/>
<path d="M17.6215 23.0903L19.3641 20.7574L19.9729 23.9825L18.2325 26.3153L17.6215 23.0903Z" fill="#3058FE"/>
<path d="M19.5616 24.259C19.6225 24.2902 19.6921 24.3003 19.7594 24.2877C19.8267 24.2751 19.8879 24.2405 19.9334 24.1893L18.1907 26.5128C18.1453 26.564 18.0843 26.5988 18.0171 26.6119C17.9499 26.6249 17.8802 26.6154 17.819 26.5849L19.5616 24.259Z" fill="#FFFCED"/>
<path d="M19.9334 24.1892L18.1908 26.5127C18.2116 26.4834 18.2261 26.4501 18.2333 26.4149C18.2405 26.3797 18.2403 26.3434 18.2326 26.3082L19.9729 23.9847C19.9808 24.0197 19.9813 24.0559 19.9745 24.0911C19.9677 24.1263 19.9537 24.1597 19.9334 24.1892Z" fill="#3058FE"/>
<path d="M2.62793 15.1508L4.36824 12.8273C4.45362 12.7316 4.56808 12.6666 4.69401 12.6422C4.81994 12.6179 4.95038 12.6356 5.06529 12.6926L3.32498 15.0161C3.20999 14.9595 3.07966 14.942 2.95382 14.9663C2.82799 14.9907 2.71354 15.0554 2.62793 15.1508Z" fill="#FFFCED"/>
<path d="M3.32493 15.0137C3.49251 15.0699 3.63591 15.1815 3.73139 15.3303C3.82688 15.479 3.86873 15.6558 3.85005 15.8316C3.78267 16.1429 3.43646 16.2823 3.07632 16.1429C2.9086 16.086 2.76514 15.9739 2.66935 15.825C2.57355 15.676 2.53109 15.4989 2.54889 15.3227C2.61859 15.0114 2.96479 14.8743 3.32493 15.0137Z" fill="#FFFCED"/>
<path d="M5.51371 13.6754L3.77108 15.9989C3.81024 15.9475 3.83724 15.8879 3.85007 15.8246C3.86875 15.6489 3.82689 15.472 3.73141 15.3233C3.63592 15.1746 3.49253 15.0629 3.32495 15.0067L5.06526 12.6832C5.23279 12.7397 5.3762 12.8513 5.47201 12.9999C5.56783 13.1485 5.61038 13.3252 5.5927 13.5011C5.57789 13.5638 5.55107 13.6229 5.51371 13.6754Z" fill="#FFFCED"/>
<path d="M13.5717 21.8959L15.3143 19.5631L14.2269 21.9075L12.4843 24.238L13.5717 21.8959Z" fill="#3058FE"/>
<path d="M13.5972 21.8565L15.3375 19.533C15.3289 19.5464 15.3211 19.5604 15.3143 19.5748L13.5717 21.8983C13.5782 21.8832 13.5868 21.8692 13.5972 21.8565Z" fill="#3058FE"/>
<path d="M13.5972 21.8564L15.3375 19.5329C15.3836 19.4828 15.4448 19.4489 15.5118 19.4363C15.5788 19.4238 15.648 19.4332 15.7092 19.4632L13.9689 21.7867C13.9081 21.7551 13.8384 21.7448 13.771 21.7575C13.7036 21.7701 13.6424 21.8049 13.5972 21.8564Z" fill="#FFFCED"/>
<path d="M14.9099 22.3653L16.6525 20.0348L17.1939 23.1204L15.4536 25.4532L14.9099 22.3653Z" fill="#FFFCED"/>
<path d="M13.969 21.7845L15.7093 19.454L16.3692 19.7096L14.6265 22.0424L13.969 21.7845Z" fill="#FFFCED"/>
<path d="M16.4086 19.7281L14.666 22.0516L14.6265 22.033L16.3691 19.7095L16.4086 19.7281Z" fill="#FFFCED"/>
<path d="M16.4086 19.7281C16.467 19.7597 16.518 19.8034 16.5581 19.8563C16.5981 19.9092 16.6264 19.9701 16.641 20.0349L14.8984 22.3584C14.8855 22.293 14.8578 22.2313 14.8176 22.1782C14.7773 22.1251 14.7255 22.0818 14.666 22.0517L16.4086 19.7281Z" fill="#FFFCED"/>
<path d="M17.6633 22.8834L19.406 20.5599C19.3843 20.5892 19.3693 20.6229 19.362 20.6587C19.3548 20.6944 19.3555 20.7313 19.3641 20.7667L17.6215 23.0902C17.6137 23.0548 17.6133 23.018 17.6205 22.9824C17.6277 22.9468 17.6423 22.9131 17.6633 22.8834Z" fill="#3058FE"/>
<path d="M19.406 20.553C19.4332 20.5176 19.4685 20.4893 19.5089 20.4703C19.5493 20.4513 19.5937 20.4422 19.6383 20.4438L17.898 22.7673C17.8535 22.7668 17.8096 22.7764 17.7693 22.7953C17.7291 22.8142 17.6937 22.842 17.6656 22.8765L19.406 20.553Z" fill="#FFFCED"/>
<path d="M0.978149 12.2859L2.71846 9.9624C3.02937 10.2197 3.37916 10.4259 3.75475 10.5735C4.70971 10.9476 5.73436 10.8825 6.41515 10.3156L4.67252 12.6391C3.99173 13.206 2.9694 13.2711 2.01211 12.8993C1.6371 12.751 1.28808 12.5439 0.978149 12.2859Z" fill="#3058FE"/>
<path d="M10.256 22.7231L8.51568 25.0466C6.4919 22.6116 5.49511 19.591 6.0969 16.8563C6.29365 15.936 6.68501 15.0685 7.24471 14.312C7.82404 13.5375 8.40416 12.763 8.98503 11.9885C8.42453 12.7486 8.03387 13.6202 7.83953 14.5444C7.24007 17.2652 8.23453 20.2881 10.256 22.7231Z" fill="#3058FE"/>
<path d="M17.5959 27.9649C21.3437 28.7363 24.7755 27.628 26.632 25.1442L24.8917 27.4677C23.0329 29.9515 19.6034 31.0575 15.8533 30.2884L17.5959 27.9649Z" fill="#3058FE"/>
<path d="M26.2603 24.8654L24.5177 27.1889C22.4033 30.0235 18.1513 30.9901 13.7924 29.28L15.542 26.9565C19.8939 28.6666 24.139 27.6977 26.2603 24.8654Z" fill="#2545C6"/>
<path d="M15.614 26.5917C19.7963 28.2182 23.8555 27.3027 25.8815 24.5935L24.1389 26.917C22.1128 29.6285 18.0513 30.551 13.8737 28.9176L15.614 26.5917Z" fill="#3058FE"/>
<path d="M8.98507 11.9862C8.40652 12.7646 7.8233 13.5407 7.24475 14.3097V14.2981L8.98738 11.9746L8.98507 11.9862Z" fill="#3058FE"/>
<path d="M23.7788 31.6779L25.5214 29.3474L28.7627 26.6428L27.0201 28.9756L23.7788 31.6779Z" fill="#6783F6"/>
<path d="M14.6845 19.4656L16.4248 17.1421C16.3972 17.2416 16.4095 17.3479 16.4589 17.4386C16.5084 17.5292 16.5911 17.597 16.6897 17.6277L14.9471 19.9512C14.8482 19.9211 14.7652 19.8532 14.7161 19.7623C14.6669 19.6714 14.6556 19.5648 14.6845 19.4656Z" fill="#3058FE"/>
<path d="M14.9495 19.9489L16.6898 17.6161L17.8933 18.0878L16.153 20.4182L14.9495 19.9489Z" fill="#3058FE"/>
<path d="M8.61323 11.7051C8.71857 11.5657 8.82778 11.4309 8.94086 11.3008L7.20054 13.6243C7.08436 13.7544 6.96819 13.8915 6.87061 14.0309L8.61323 11.7051Z" fill="#3058FE"/>
<path d="M16.1531 20.4205L17.8934 18.097L17.9352 18.1133C18.2194 18.2411 18.5414 18.2569 18.8367 18.1575L17.0941 20.481C16.7986 20.5793 16.477 20.5635 16.1926 20.4368L16.1531 20.4205Z" fill="#3058FE"/>
<path d="M26.8807 23.8594C26.7039 24.2123 26.4963 24.549 26.2603 24.8655L24.5177 27.189C24.7546 26.8731 24.9622 26.5364 25.1381 26.1829L26.8807 23.8594Z" fill="#3058FE"/>
<path d="M19.3478 17.7856L17.6075 20.1092C17.4785 20.2813 17.299 20.4089 17.094 20.4739L18.8366 18.1504C19.0412 18.0858 19.2201 17.9581 19.3478 17.7856Z" fill="#3058FE"/>
<path d="M19.4756 17.5673C19.4414 17.6446 19.3985 17.7179 19.3478 17.7857L17.6075 20.1092C17.658 20.0412 17.7008 19.968 17.7353 19.8908L19.4756 17.5673Z" fill="#FFFCED"/>
<path d="M19.4757 17.5673L17.7354 19.8908L19.4757 17.5673Z" fill="#FFFCED"/>
<path d="M15.3305 18.0714L17.0731 15.7386L16.4249 17.1328L14.6846 19.4632L15.3305 18.0714Z" fill="#3058FE"/>
<path d="M15.3538 18.032L17.0964 15.7085C17.0873 15.72 17.0796 15.7325 17.0732 15.7457L15.3306 18.0692L15.3538 18.032Z" fill="#3058FE"/>
<path d="M21.1044 20.0278C21.4405 19.8457 21.733 19.5929 21.9618 19.2866L20.2192 21.6101C19.991 21.9176 19.6984 22.1713 19.3618 22.3537L19.5662 22.0818C20.0774 21.394 20.5894 20.7078 21.1021 20.0232L19.3618 22.3467C18.9085 22.5967 18.4035 22.7382 17.8864 22.7603L19.6267 20.4368C20.1442 20.4161 20.6499 20.2761 21.1044 20.0278Z" fill="#FFFCED"/>
<path d="M27.0201 28.9757C27.7008 28.4087 28.7255 28.3437 29.6805 28.7178C29.7873 28.7596 29.8942 28.8061 29.9988 28.8595C28.679 31.5431 26.3044 33.4345 23.3605 34.336C22.8958 33.3555 23.0329 32.3029 23.7788 31.6802L27.0201 28.9757Z" fill="#6783F6"/>
<path d="M27.0201 28.9757L28.7628 26.6522C29.4436 26.0852 30.4659 26.0202 31.4232 26.3943C31.5301 26.4361 31.6346 26.4826 31.7392 26.536L29.9989 28.8595C29.8943 28.8061 29.7874 28.7596 29.6805 28.7178C28.7256 28.3507 27.7009 28.4088 27.0201 28.9757Z" fill="#6783F6"/>
<path d="M30.7609 28.1299L29.0183 30.4534C29.3934 29.9509 29.7217 29.4151 29.9988 28.8526L31.7391 26.5291C31.4632 27.0917 31.1357 27.6277 30.7609 28.1299Z" fill="#6783F6"/>
<path d="M15.3538 18.032L17.0964 15.7085C17.1418 15.6573 17.2029 15.6225 17.2701 15.6094C17.3373 15.5964 17.4069 15.6059 17.4681 15.6364L15.7278 17.96C15.6661 17.9296 15.5962 17.9203 15.5287 17.9333C15.4612 17.9463 15.3998 17.9809 15.3538 18.032Z" fill="#FFFCED"/>
<path d="M19.4571 16.733C19.5282 16.8612 19.567 17.0048 19.5702 17.1513C19.5735 17.2978 19.541 17.4429 19.4757 17.5741L17.7354 19.8976C17.7998 19.7665 17.8315 19.6217 17.8279 19.4757C17.8242 19.3296 17.7853 19.1866 17.7145 19.0589L19.4571 16.733Z" fill="#FFFCED"/>
<path d="M15.7278 17.96L17.4681 15.6295L18.6856 16.1035L16.9453 18.4363L15.7278 17.96Z" fill="#FFFCED"/>
<path d="M16.936 18.4386L18.6763 16.1151C19.002 16.2182 19.2772 16.4395 19.4477 16.7355L17.7051 19.059C17.5355 18.7632 17.261 18.5418 16.936 18.4386Z" fill="#FFFCED"/>
<path d="M13.4764 14.9371L15.219 12.6042L11.4596 20.711L9.71692 23.0438L13.4764 14.9371Z" fill="#FFFCED"/>
<path d="M13.502 14.8976L15.2423 12.5741C15.2884 12.5231 15.3499 12.4886 15.4175 12.476C15.4851 12.4634 15.555 12.4734 15.6164 12.5044L13.8737 14.8279C13.8127 14.7971 13.7432 14.7872 13.676 14.7998C13.6089 14.8124 13.5477 14.8468 13.502 14.8976Z" fill="#3058FE"/>
<path d="M20.3261 18.4293C20.8628 19.3587 20.9279 20.2509 20.5236 21.106C20.2841 21.6401 19.876 22.0808 19.3618 22.3607C18.9086 22.6107 18.4036 22.7522 17.8864 22.7743C17.8466 22.7726 17.807 22.7801 17.7705 22.7962C17.7341 22.8123 17.7018 22.8366 17.6762 22.8671C17.6506 22.8976 17.6324 22.9336 17.6229 22.9723C17.6134 23.011 17.613 23.0514 17.6215 23.0903L18.2326 26.3153C18.2744 26.5476 18.0607 26.687 17.819 26.5918L15.7279 25.7762C15.6579 25.7499 15.5956 25.7066 15.5465 25.6503C15.4974 25.5939 15.4631 25.5262 15.4467 25.4533L14.903 22.3676C14.8871 22.2939 14.8528 22.2253 14.8032 22.1684C14.7536 22.1116 14.6905 22.0682 14.6196 22.0424L13.962 21.7868C13.8943 21.7497 13.8149 21.7407 13.7406 21.7615C13.6663 21.7824 13.6032 21.8315 13.5647 21.8983L12.4773 24.2404C12.4384 24.3062 12.3756 24.3545 12.3021 24.3752C12.2286 24.396 12.1498 24.3876 12.0823 24.3519L9.97485 23.5271C9.87609 23.4974 9.79296 23.4301 9.7434 23.3397C9.69383 23.2493 9.68183 23.143 9.70998 23.0438L13.4694 14.9371C13.5091 14.8715 13.5723 14.8236 13.6461 14.8029C13.7198 14.7822 13.7987 14.7903 13.8667 14.8255L17.8818 16.3962C18.9102 16.7654 19.7757 17.4853 20.3261 18.4293ZM17.7354 19.8978C17.7998 19.7666 17.8315 19.6218 17.8279 19.4758C17.8242 19.3297 17.7853 19.1867 17.7145 19.059C17.5444 18.763 17.2702 18.541 16.9454 18.4363L15.7279 17.9716C15.6602 17.9355 15.5814 17.9268 15.5075 17.9471C15.4336 17.9674 15.3703 18.0152 15.3306 18.0808L14.6846 19.4749C14.6564 19.5738 14.668 19.6798 14.7171 19.7702C14.7662 19.8605 14.8488 19.928 14.9472 19.9582L16.1531 20.4229L16.1926 20.4391C16.477 20.5658 16.7986 20.5816 17.0941 20.4833C17.2366 20.4379 17.3677 20.3622 17.4783 20.2616C17.589 20.161 17.6767 20.0377 17.7354 19.9001" fill="#3058FE"/>
<path d="M16.936 18.4385C17.261 18.5417 17.5355 18.7631 17.7051 19.0589C17.7759 19.1867 17.8148 19.3297 17.8185 19.4757C17.8221 19.6218 17.7904 19.7665 17.726 19.8977C17.6673 20.0353 17.5796 20.1586 17.469 20.2592C17.3583 20.3599 17.2273 20.4355 17.0847 20.4809C16.7892 20.5792 16.4677 20.5634 16.1832 20.4367L16.1437 20.4205L14.9378 19.9558C14.8395 19.9256 14.7569 19.8581 14.7078 19.7678C14.6587 19.6774 14.647 19.5714 14.6753 19.4725L15.3212 18.0784C15.3609 18.0128 15.4242 17.965 15.4981 17.9447C15.572 17.9244 15.6509 17.9331 15.7185 17.9692L16.936 18.4385Z" fill="#FFFCED"/>
<path d="M13.5019 14.8975L15.2422 12.574C15.233 12.5871 15.2252 12.6011 15.2189 12.6158L13.4763 14.9393C13.4833 14.9245 13.4919 14.9105 13.5019 14.8975Z" fill="#FFFCED"/>
<path d="M30.1964 23.7338C30.3115 23.7905 30.4421 23.8078 30.568 23.783C30.694 23.7582 30.8083 23.6928 30.8934 23.5967L29.1531 25.9202C29.0679 26.0162 28.9535 26.0815 28.8274 26.1059C28.7014 26.1302 28.5709 26.1123 28.4561 26.0549C28.9788 25.3649 29.6759 24.4331 30.1964 23.7338Z" fill="#3058FE"/>
<path d="M29.6688 22.9136C29.6515 23.0898 29.6941 23.2666 29.7898 23.4155C29.8856 23.5644 30.0288 23.6766 30.1963 23.7338L28.456 26.0573C28.2882 26.0012 28.1445 25.8897 28.0487 25.741C27.9528 25.5923 27.9104 25.4154 27.9285 25.2395L29.6688 22.916L27.9285 25.2395C27.9418 25.1767 27.9679 25.1174 28.0052 25.0652L29.7478 22.7417C29.71 22.793 29.6831 22.8515 29.6688 22.9136Z" fill="#3058FE"/>
<path d="M4.67261 12.6367L6.41524 10.3039L9.65654 7.59937L7.91623 9.93217L4.67261 12.6367Z" fill="#3058FE"/>
<path d="M28.0052 25.0722L29.7479 22.7487C29.833 22.6526 29.9473 22.5872 30.0732 22.5624C30.1992 22.5376 30.3298 22.5549 30.4449 22.6116L28.7023 24.9351C28.5872 24.8784 28.4565 24.8611 28.3306 24.8859C28.2047 24.9107 28.0903 24.9761 28.0052 25.0722Z" fill="#FFFCED"/>
<path d="M9.96558 7.28345L8.22527 9.60696C8.13627 9.72357 8.03501 9.83028 7.92322 9.92528L9.66352 7.60177C9.77642 7.50796 9.87781 7.40111 9.96558 7.28345Z" fill="#3058FE"/>
<path d="M28.7023 24.9374C28.8696 24.9943 29.0127 25.106 29.1085 25.2545C29.2042 25.403 29.2469 25.5795 29.2297 25.7553C29.16 26.0667 28.8138 26.2038 28.456 26.0643C28.2882 26.0082 28.1445 25.8967 28.0487 25.748C27.9528 25.5993 27.9104 25.4224 27.9285 25.2465C27.9959 24.9351 28.3421 24.7957 28.7023 24.9374Z" fill="#FFFCED"/>
<path d="M30.891 23.5967L29.1507 25.9203C29.1881 25.8678 29.2149 25.8086 29.2297 25.746C29.2469 25.5702 29.2042 25.3937 29.1085 25.2452C29.0127 25.0967 28.8696 24.9849 28.7023 24.9281L30.4449 22.6046C30.612 22.6615 30.7549 22.7733 30.8503 22.9219C30.9456 23.0704 30.9878 23.2469 30.97 23.4225C30.9572 23.4858 30.9302 23.5454 30.891 23.5967Z" fill="#FFFCED"/>
<path d="M21.9619 19.2889L20.2192 21.6124C20.3382 21.4531 20.4402 21.2818 20.5236 21.1013C20.9279 20.2462 20.8629 19.3563 20.3261 18.4246L22.0664 16.1011C22.6024 17.0305 22.669 17.9227 22.2662 18.7778C22.1827 18.9582 22.0807 19.1295 21.9619 19.2889Z" fill="#3058FE"/>
<path d="M13.8737 14.8256L15.6163 12.4928L19.6313 14.0635L17.8887 16.394L13.8737 14.8256Z" fill="#3058FE"/>
<path d="M17.8887 16.3963L19.6313 14.0728C20.6557 14.4449 21.5173 15.1643 22.0664 16.1058L20.326 18.4293C19.7774 17.4866 18.9146 16.7669 17.8887 16.3963Z" fill="#3058FE"/>
<path d="M31.1234 24.2427L32.866 21.9192C32.8415 22.6423 32.7513 23.3617 32.5965 24.0684C32.4117 24.9227 32.1238 25.7513 31.7391 26.536L29.9988 28.8595C30.3821 28.0742 30.67 27.2458 30.8562 26.3919C31.0091 25.6849 31.0985 24.9656 31.1234 24.2427Z" fill="#1A41E0"/>
<path d="M32.8661 21.9099L31.1234 24.2334C30.9655 24.1958 30.8103 24.1477 30.6587 24.0893C30.1732 23.9026 29.7323 23.616 29.3645 23.2482C28.9967 22.8804 28.7102 22.4395 28.5234 21.954L30.2661 19.6305C30.4528 20.1153 30.7391 20.5557 31.1065 20.923C31.4739 21.2904 31.9142 21.5767 32.3991 21.7635C32.5513 21.8226 32.7073 21.8715 32.8661 21.9099Z" fill="#3058FE"/>
<path d="M7.81159 6.47485C8.80838 7.63661 8.87112 9.13527 7.91616 9.93456L4.66324 12.6368C3.98245 13.2037 2.96011 13.2688 2.00282 12.897C1.62796 12.7494 1.27897 12.5432 0.968872 12.286C2.27004 9.41642 4.73295 7.40658 7.81159 6.47485Z" fill="#6783F6"/>
<path d="M2.10742 10.3644L3.85005 8.04092C5.28417 6.1652 7.28434 4.80133 9.55427 4.15137L7.81163 6.47488C5.54135 7.12408 3.54096 8.4881 2.10742 10.3644Z" fill="#A7B8FF"/>
<path d="M9.96552 7.28335L8.22522 9.60686C8.85024 8.76807 8.68992 7.48317 7.8186 6.46548L9.56124 4.14197C10.4302 5.15966 10.5859 6.44457 9.96552 7.28335Z" fill="#6783F6"/>
<path d="M11.0065 8.60084L12.3285 6.83032L11.0065 8.60084Z" fill="#3058FE"/>
<path d="M7.25171 14.3074L8.99202 11.9839C11.0181 9.27234 15.0796 8.34991 19.2596 9.98566L17.517 12.3092C13.3393 10.6757 9.26851 11.5982 7.25171 14.3074Z" fill="#FFFCED"/>
<path d="M8.94088 11.3008C11.1482 8.7821 15.1934 7.98746 19.3409 9.60927L17.5983 11.9328C13.4531 10.3063 9.40557 11.1079 7.20056 13.6243L8.06957 12.4625L8.41111 11.9978L8.73872 11.561C8.80378 11.4913 8.87815 11.3891 8.94088 11.3008Z" fill="#3058FE"/>
<path d="M6.4989 13.7589L8.24153 11.4354C10.4465 8.48457 14.8775 7.48546 19.4199 9.25133L17.6796 11.5748C13.1348 9.79736 8.70391 10.8058 6.4989 13.7589Z" fill="#2545C6"/>
<path d="M13.5926 6.83257C13.6613 6.82737 13.7282 6.80796 13.789 6.77556C13.8497 6.74317 13.9032 6.69849 13.9458 6.64436L12.2031 8.96787C12.1607 9.02221 12.1074 9.06703 12.0465 9.09945C11.9857 9.13187 11.9187 9.15116 11.85 9.15607C11.7335 9.16474 11.6166 9.14646 11.5084 9.10263C11.3941 9.05901 11.2904 8.99175 11.2039 8.90527C11.1174 8.81879 11.0502 8.71502 11.0065 8.60076L12.7538 6.27725L11.0135 8.60076C10.9806 8.52112 10.9682 8.43447 10.9775 8.34879C10.9868 8.26311 11.0176 8.18116 11.0669 8.1105L12.8072 5.78699C12.7587 5.858 12.7284 5.9399 12.7191 6.02542C12.7098 6.11094 12.7217 6.19744 12.7538 6.27725C12.7982 6.39144 12.866 6.49509 12.9528 6.58152C13.0397 6.66796 13.1436 6.73527 13.258 6.77913C13.364 6.82213 13.4785 6.84041 13.5926 6.83257Z" fill="#3058FE"/>
<path d="M11.0599 8.12221L12.8002 5.7987C12.8429 5.74458 12.8963 5.6999 12.9571 5.6675C13.0179 5.6351 13.0847 5.61569 13.1534 5.6105C13.2698 5.60183 13.3867 5.62011 13.495 5.66394L11.7523 7.98745C11.6448 7.9442 11.5286 7.92669 11.4131 7.93633C11.3444 7.94038 11.2773 7.95905 11.2164 7.99111C11.1555 8.02317 11.1022 8.06786 11.0599 8.12221Z" fill="#FFFCED"/>
<path d="M13.9457 6.64448L12.2031 8.96799C12.2526 8.89741 12.2835 8.81545 12.2928 8.72973C12.3022 8.64401 12.2897 8.55732 12.2565 8.47773C12.2121 8.36354 12.1443 8.25989 12.0575 8.17346C11.9707 8.08702 11.8667 8.01971 11.7523 7.97585L13.495 5.65234C13.6095 5.69595 13.7136 5.76317 13.8005 5.84964C13.8873 5.9361 13.955 6.03988 13.9991 6.15422C14.0315 6.23399 14.0435 6.32052 14.0342 6.40608C14.0249 6.49164 13.9945 6.57355 13.9457 6.64448Z" fill="#FFFCED"/>
<path d="M11.7523 7.98509C11.8667 8.02895 11.9706 8.09626 12.0575 8.18269C12.1443 8.26913 12.2121 8.37277 12.2565 8.48697C12.2891 8.55775 12.304 8.63544 12.2999 8.71329C12.2957 8.79114 12.2725 8.86679 12.2325 8.93366C12.1924 9.00053 12.1366 9.0566 12.0699 9.09699C12.0032 9.13738 11.9277 9.16088 11.8499 9.16543C11.7334 9.1741 11.6165 9.15581 11.5083 9.11199C11.394 9.06836 11.2903 9.00111 11.2038 8.91463C11.1173 8.82814 11.05 8.72437 11.0064 8.61011C10.9742 8.53943 10.9597 8.46198 10.9642 8.38445C10.9686 8.30691 10.9918 8.23162 11.0318 8.16506C11.0719 8.09851 11.1275 8.04269 11.1939 8.00243C11.2603 7.96217 11.3355 7.93867 11.413 7.93397C11.5285 7.92433 11.6447 7.94184 11.7523 7.98509Z" fill="#FFFCED"/>
<path d="M25.8816 24.5912L24.1413 26.9147C24.7063 26.1553 25.1024 25.2839 25.303 24.3588C26.3091 19.7722 22.8285 14.3677 17.5262 12.2998L19.2689 9.97632C24.5688 12.0466 28.0517 17.4464 27.0433 22.033C26.8451 22.9595 26.4487 23.8322 25.8816 24.5912Z" fill="#FFFCED"/>
<path d="M26.8806 23.8593C26.8796 23.8647 26.8796 23.8702 26.8806 23.8756L25.1496 26.1991C25.4112 25.6737 25.6071 25.1181 25.7328 24.5448C26.3439 21.7565 25.3587 18.6663 23.3326 16.1522L25.0753 13.8287C27.1014 16.3451 28.0958 19.4307 27.4731 22.2212C27.3444 22.7897 27.1454 23.34 26.8806 23.8593Z" fill="#3058FE"/>
<path d="M25.0684 13.8102L23.3258 16.1337C23.1817 15.9524 23.033 15.7759 22.8773 15.6016L24.6176 13.2781C24.7687 13.4547 24.9197 13.6312 25.0684 13.8102Z" fill="#3058FE"/>
<path d="M23.7533 12.3998C24.0553 12.6832 24.3434 12.976 24.6129 13.2804L22.8726 15.6039C22.6008 15.3018 22.315 15.0068 22.0129 14.7256L23.7533 12.3998Z" fill="#3058FE"/>
<path d="M23.7532 12.3997L22.0129 14.7232C21.7968 14.5211 21.5761 14.3259 21.3461 14.1377L23.0887 11.8142C23.3164 12.0024 23.5395 12.1976 23.7532 12.3997Z" fill="#3058FE"/>
<path d="M19.3409 9.60925C20.6986 10.142 21.9636 10.8862 23.0887 11.8143L21.3461 14.1378C20.2211 13.2088 18.9562 12.4638 17.5983 11.9304L19.3409 9.60925Z" fill="#3058FE"/>
<path d="M16.936 6.56779L15.1934 8.8913C15.0449 8.80394 14.9028 8.7061 14.7682 8.59853C15.3475 7.82403 15.9276 7.04953 16.5085 6.27502C16.6439 6.38261 16.7868 6.48044 16.936 6.56779Z" fill="#3058FE"/>
<path d="M16.9361 6.56775C17.1105 6.67157 17.2931 6.76094 17.4821 6.83495L15.7395 9.15846C15.5507 9.08399 15.3681 8.99464 15.1935 8.89126L16.9361 6.56775Z" fill="#3058FE"/>
<path d="M17.6796 11.5749C23.4396 13.8264 27.2385 19.7072 26.1442 24.7004C25.0498 29.6937 19.4734 31.9033 13.7111 29.6588C7.94876 27.4143 4.15447 21.5265 5.24885 16.531C6.34322 11.5354 11.9196 9.32346 17.6796 11.5749ZM13.7924 29.294C19.32 31.4549 24.671 29.3196 25.719 24.5355C26.7669 19.7514 23.1259 14.1006 17.5983 11.9397C12.0707 9.77887 6.71963 11.9119 5.67173 16.696C4.62382 21.4801 8.26476 27.1308 13.804 29.294" fill="#2545C6"/>
<path d="M17.517 12.3184C22.8192 14.391 26.2999 19.7908 25.2938 24.3774C24.2877 28.9641 19.1737 31.0064 13.8737 28.9338C8.57381 26.8613 5.08622 21.4498 6.09695 16.8632C7.10767 12.2766 12.2171 10.2273 17.517 12.3184ZM20.5236 21.1152C20.9279 20.2602 20.8629 19.3703 20.3261 18.4386C19.7775 17.4958 18.9146 16.7761 17.8888 16.4055L13.8737 14.8348C13.8057 14.7995 13.7268 14.7914 13.6531 14.8121C13.5793 14.8328 13.5161 14.8808 13.4764 14.9463L9.71698 23.053C9.68883 23.1522 9.70083 23.2585 9.75039 23.349C9.79995 23.4394 9.8831 23.5067 9.98186 23.5363L12.0893 24.3612C12.1568 24.3969 12.2356 24.4052 12.3091 24.3845C12.3826 24.3637 12.4454 24.3154 12.4843 24.2497L13.5717 21.9076C13.6102 21.8407 13.6733 21.7916 13.7476 21.7708C13.8219 21.7499 13.9013 21.759 13.969 21.796L14.6266 22.0516C14.6975 22.0774 14.7607 22.1208 14.8102 22.1777C14.8598 22.2346 14.8941 22.3031 14.91 22.3769L15.4537 25.4625C15.4701 25.5354 15.5044 25.6031 15.5535 25.6595C15.6026 25.7159 15.6649 25.7592 15.7349 25.7855L17.826 26.601C18.0584 26.6963 18.2907 26.5546 18.2396 26.3245L17.6332 23.0902C17.6246 23.0513 17.6251 23.011 17.6346 22.9723C17.644 22.9336 17.6623 22.8976 17.6879 22.8671C17.7135 22.8365 17.7457 22.8123 17.7822 22.7962C17.8186 22.7801 17.8583 22.7726 17.8981 22.7742C18.4152 22.7522 18.9202 22.6106 19.3735 22.3606C19.888 22.0814 20.2963 21.6404 20.5352 21.1059" fill="#FFFCED"/>
<path d="M26.6344 25.1418L24.8917 27.4653C25.5037 26.6413 25.9308 25.6951 26.1441 24.6911C27.2385 19.7071 23.4395 13.817 17.6796 11.5656L19.4199 9.24207C25.1822 11.4959 28.9788 17.3743 27.8867 22.3699C27.672 23.3727 27.2449 24.3179 26.6344 25.1418Z" fill="#2545C6"/>
<path d="M26.8877 17.3511L28.6303 15.0183L30.2707 19.6305L28.5281 21.9633L26.8877 17.3511Z" fill="#3058FE"/>
<path d="M23.8881 13.8705L25.2101 12.1L23.8881 13.8705Z" fill="#3058FE"/>
<path d="M26.5623 11.6795C26.5892 11.6577 26.6134 11.6327 26.6344 11.6052L24.8917 13.9287C24.8715 13.9575 24.8472 13.9833 24.8197 14.0053C24.7302 14.0699 24.6252 14.1095 24.5154 14.1201C24.4056 14.1307 24.2949 14.112 24.1947 14.0658C24.0795 14.0204 23.9751 13.9515 23.888 13.8636L25.6283 11.5401L23.888 13.8636C23.7742 13.7714 23.6972 13.6414 23.6712 13.4973C23.6452 13.3531 23.6718 13.2044 23.7462 13.0783L25.4889 10.7548C25.4148 10.8814 25.3883 11.0303 25.4143 11.1748C25.4403 11.3192 25.517 11.4496 25.6306 11.5424C25.7179 11.6301 25.8223 11.6989 25.9373 11.7446C26.0379 11.7901 26.1488 11.8081 26.2586 11.7967C26.3685 11.7852 26.4733 11.7448 26.5623 11.6795Z" fill="#3058FE"/>
<path d="M27.1153 15.2716L28.8556 12.9481C28.6467 13.2475 28.516 13.5944 28.4754 13.9572C28.4349 14.32 28.4857 14.6872 28.6232 15.0253L26.8806 17.3488C26.7438 17.0104 26.6936 16.6432 26.7346 16.2805C26.7755 15.9178 26.9064 15.571 27.1153 15.2716Z" fill="#3058FE"/>
<path d="M23.7463 13.0852L25.489 10.7617C25.5092 10.7329 25.5335 10.707 25.561 10.685C25.6505 10.6205 25.7555 10.5809 25.8653 10.5703C25.9752 10.5597 26.0858 10.5784 26.186 10.6246L24.4434 12.9481C24.3432 12.9019 24.2325 12.8832 24.1227 12.8938C24.0129 12.9044 23.9079 12.944 23.8184 13.0085C23.7914 13.0312 23.7673 13.0569 23.7463 13.0852Z" fill="#FFFCED"/>
<path d="M24.4433 12.9481C24.5599 12.992 24.6654 13.061 24.7523 13.1503C25.0288 13.4267 25.0613 13.8125 24.8197 14.0123C24.7302 14.0768 24.6252 14.1164 24.5153 14.127C24.4055 14.1376 24.2948 14.1189 24.1946 14.0727C24.0795 14.0273 23.975 13.9585 23.8879 13.8705C23.6091 13.5917 23.5789 13.206 23.8182 13.0085C23.9077 12.944 24.0128 12.9044 24.1226 12.8938C24.2324 12.8831 24.3431 12.9019 24.4433 12.9481Z" fill="#FFFCED"/>
<path d="M26.6344 11.6052L24.8918 13.9287C24.9665 13.8028 24.9935 13.6543 24.9679 13.5101C24.9423 13.366 24.8658 13.2358 24.7524 13.1433C24.6655 13.0541 24.56 12.9851 24.4434 12.9412L26.186 10.6177C26.3007 10.664 26.4049 10.7327 26.4927 10.8198C26.6061 10.9123 26.6827 11.0423 26.7087 11.1863C26.7347 11.3303 26.7084 11.4789 26.6344 11.6052Z" fill="#FFFCED"/>
<path d="M27.1154 15.2716L28.8557 12.9481C29.0787 12.6536 29.3809 12.4288 29.727 12.2998L27.9867 14.6233C27.6403 14.7518 27.338 14.9768 27.1154 15.2716Z" fill="#6783F6"/>
<path d="M15.1958 3.62854C15.1121 4.57188 15.6349 5.58958 16.5016 6.27502C15.9207 7.04952 15.3406 7.82402 14.7613 8.59852C13.8923 7.90147 13.3672 6.89539 13.4531 5.95205L15.1958 3.62854Z" fill="#3058FE"/>
<path d="M15.7325 9.16544L17.4752 6.83496L22.3569 8.74256L20.6166 11.0754L15.7325 9.16544Z" fill="#3058FE"/>
<path d="M25.1334 8.36841L23.3931 10.6919C22.768 11.3076 21.7062 11.4866 20.6049 11.059L22.3475 8.73552C23.4419 9.17002 24.5107 8.99343 25.1334 8.36841Z" fill="#3058FE"/>
<path d="M13.4508 5.9613C15.1706 6.13206 16.8583 6.54185 18.4649 7.17882C20.3645 7.92464 22.1458 8.94209 23.7532 10.1994C23.2676 11.2101 21.9618 11.5935 20.6118 11.0777L15.7325 9.17007C14.3105 8.60081 13.3416 7.21832 13.4508 5.9613Z" fill="#6783F6"/>
<path d="M31.1234 24.2426C31.0986 24.9656 31.0091 25.6849 30.8562 26.3919C30.67 27.2457 30.3821 28.0741 29.9988 28.8594C29.8942 28.806 29.7874 28.7595 29.6805 28.7177C28.7255 28.3436 27.7009 28.4087 27.0201 28.9756L23.7788 31.6802C23.0329 32.3029 22.9051 33.3554 23.3606 34.336C21.6698 34.8396 19.9013 35.031 18.1419 34.9006C17.987 34.3508 17.7054 33.845 17.3196 33.4237C16.9338 33.0024 16.4547 32.6775 15.9207 32.4748L11.0413 30.5672C9.83308 30.1025 8.65971 30.3651 8.07883 31.1528C6.4389 29.9807 4.97498 28.5802 3.73154 26.9937C4.7353 26.5731 5.19303 25.4857 4.76783 24.2914L3.14138 19.6793C2.95465 19.1938 2.66811 18.7529 2.30029 18.385C1.93248 18.0172 1.49157 17.7307 1.00607 17.544C0.689362 17.4157 0.354665 17.3373 0.0139275 17.3116C-0.0110935 16.3423 0.0801847 15.3734 0.285788 14.4258C0.443356 13.688 0.676954 12.9685 0.982841 12.2789C1.29293 12.5361 1.64193 12.7424 2.01679 12.89C2.97408 13.2617 3.99642 13.1967 4.67721 12.6297L7.93012 9.9275C8.88509 9.12821 8.82235 7.6249 7.82556 6.46779C9.65026 5.9369 11.5606 5.76488 13.4508 5.96127C13.3393 7.21828 14.3082 8.61007 15.7301 9.16771L20.6095 11.0753C21.9595 11.6027 23.2653 11.2077 23.7509 10.197C25.3693 11.4541 26.7948 12.9414 27.982 14.6117C26.9364 15.0137 26.4531 16.122 26.883 17.3395L28.5234 21.9517C28.7101 22.4372 28.9966 22.8781 29.3645 23.2459C29.7323 23.6137 30.1732 23.9002 30.6587 24.087C30.8099 24.1492 30.9652 24.2013 31.1234 24.2426ZM13.711 29.6587C19.4733 31.9125 25.0521 29.6866 26.1441 24.7004C27.2362 19.7141 23.4419 13.8263 17.6796 11.5749C11.9173 9.32338 6.34085 11.547 5.2488 16.5309C4.15675 21.5148 7.95104 27.4073 13.711 29.6587ZM3.07631 16.1429C3.43645 16.2823 3.77337 16.1429 3.85004 15.8315C3.86873 15.6558 3.82687 15.4789 3.73139 15.3302C3.6359 15.1815 3.4925 15.0698 3.32493 15.0137C2.96478 14.8742 2.62788 15.0137 2.54888 15.3227C2.53108 15.4989 2.57355 15.6759 2.66934 15.8249C2.76514 15.9739 2.90859 16.086 3.07631 16.1429ZM28.456 26.0643C28.8138 26.2037 29.153 26.0643 29.2297 25.7552C29.247 25.5794 29.2043 25.4029 29.1085 25.2544C29.0127 25.1059 28.8696 24.9942 28.7023 24.9374C28.3422 24.7956 28.0052 24.9374 27.9286 25.2464C27.9105 25.4224 27.9528 25.5993 28.0487 25.7479C28.1446 25.8966 28.2882 26.0082 28.456 26.0643ZM11.4131 7.9409C11.3355 7.9456 11.2603 7.96909 11.1939 8.00935C11.1275 8.04961 11.0719 8.10543 11.0319 8.17199C10.9918 8.23854 10.9686 8.31384 10.9642 8.39137C10.9598 8.46891 10.9743 8.54636 11.0064 8.61704C11.0501 8.7313 11.1173 8.83507 11.2038 8.92155C11.2903 9.00804 11.3941 9.07529 11.5083 9.11892C11.6166 9.16274 11.7334 9.18102 11.8499 9.17236C11.9277 9.1678 12.0033 9.14431 12.0699 9.10392C12.1366 9.06352 12.1924 9.00745 12.2325 8.94058C12.2726 8.87371 12.2957 8.79806 12.2999 8.72021C12.3041 8.64236 12.2892 8.56467 12.2565 8.49389C12.2121 8.3797 12.1443 8.27605 12.0575 8.18962C11.9707 8.10318 11.8667 8.03587 11.7523 7.99201C11.6448 7.94876 11.5286 7.93126 11.4131 7.9409ZM20.3679 33.151C20.4454 33.1463 20.5206 33.1228 20.587 33.0825C20.6534 33.0423 20.709 32.9864 20.7491 32.9199C20.7891 32.8533 20.8123 32.778 20.8167 32.7005C20.8212 32.623 20.8067 32.5455 20.7745 32.4748C20.7301 32.3606 20.6623 32.257 20.5755 32.1706C20.4886 32.0841 20.3847 32.0168 20.2703 31.9729C20.163 31.9287 20.0466 31.9112 19.9311 31.9218C19.8533 31.9262 19.7778 31.9494 19.7111 31.9895C19.6444 32.0296 19.5885 32.0854 19.5482 32.152C19.5079 32.2186 19.4845 32.2941 19.48 32.3718C19.4754 32.4495 19.4899 32.5271 19.5221 32.598C19.5665 32.7122 19.6343 32.8158 19.7211 32.9022C19.808 32.9887 19.9119 33.056 20.0263 33.0999C20.1344 33.1442 20.2516 33.1618 20.3679 33.151ZM7.96033 28.0788C8.19268 27.8789 8.16713 27.4932 7.89295 27.2167C7.80428 27.128 7.6983 27.0584 7.5816 27.0123C7.48132 26.9659 7.37045 26.9473 7.26053 26.9583C7.1506 26.9693 7.04564 27.0096 6.95657 27.075C6.72422 27.2725 6.74978 27.6605 7.02628 27.937C7.1138 28.0255 7.21914 28.0944 7.33531 28.1392C7.4355 28.1854 7.54617 28.2041 7.65599 28.1935C7.76582 28.1829 7.87084 28.1433 7.96033 28.0788ZM23.8183 13.0154C23.5859 13.2129 23.6092 13.5986 23.888 13.8775C23.9751 13.9654 24.0795 14.0342 24.1947 14.0796C24.2949 14.1258 24.4056 14.1446 24.5154 14.134C24.6252 14.1233 24.7302 14.0837 24.8197 14.0192C25.0521 13.8194 25.0288 13.4337 24.7523 13.1572C24.6654 13.0679 24.5599 12.9989 24.4433 12.955C24.3431 12.9088 24.2324 12.8901 24.1226 12.9007C24.0128 12.9113 23.9078 12.9509 23.8183 13.0154Z" fill="#3058FE"/>
<path d="M17.5983 11.9398C12.0706 9.77894 6.71959 11.9119 5.67169 16.696C4.62379 21.4801 8.26473 27.1309 13.804 29.2941C19.3432 31.4573 24.6826 29.3196 25.7305 24.5355C26.7784 19.7514 23.1259 14.1007 17.5983 11.9398ZM25.3007 24.3682C24.2946 28.9549 19.1806 30.9972 13.8806 28.9246C8.58071 26.8521 5.08616 21.4499 6.09688 16.8633C7.10761 12.2767 12.217 10.2274 17.5169 12.3185C22.8169 14.4097 26.2998 19.7909 25.2937 24.3775" fill="#3058FE"/>
<path d="M7.81165 6.47483L9.55428 4.15132C11.3836 3.61574 13.2998 3.44133 15.1958 3.63782L13.4531 5.96133C11.5571 5.76508 9.64105 5.93948 7.81165 6.47483Z" fill="#5878FE"/>
<path d="M27.9867 14.6233L29.727 12.2998C31.8182 15.2669 32.9799 18.6546 32.8661 21.9168L31.1234 24.2403C31.2373 20.9781 30.0755 17.5904 27.9867 14.6233Z" fill="#A7B8FF"/>
<path d="M27.9867 14.6233C30.0779 17.5904 31.2396 20.9781 31.1234 24.2426C30.9655 24.205 30.8102 24.1569 30.6587 24.0986C30.1732 23.9118 29.7323 23.6253 29.3645 23.2575C28.9967 22.8897 28.7102 22.4488 28.5234 21.9633L26.883 17.3511C26.4625 16.1336 26.9411 15.0253 27.9867 14.6233Z" fill="#6783F6"/>
<path d="M25.1334 8.36841C25.1986 8.30389 25.2592 8.23479 25.3146 8.16162L23.572 10.4851C23.5181 10.5596 23.4583 10.6295 23.3931 10.6942L24.7244 8.91211L24.9289 8.63562L24.9568 8.60076L25.0102 8.52874L25.0358 8.49388C25.0683 8.46368 25.0985 8.41721 25.1334 8.36841Z" fill="#3058FE"/>
<path d="M25.3147 8.16876L23.5743 10.4923C23.645 10.3981 23.7057 10.2969 23.7556 10.1902L25.4982 7.8667C25.4465 7.97286 25.3851 8.07398 25.3147 8.16876Z" fill="#6783F6"/>
<path d="M23.7556 10.1972L25.4982 7.87366C27.1176 9.12893 28.5425 10.6165 29.727 12.2883L27.9867 14.6118C26.7995 12.9415 25.374 11.4542 23.7556 10.1972Z" fill="#4C6EF8"/>
<path d="M13.4508 5.96133L15.1934 3.63782C16.913 3.81006 18.6005 4.2198 20.2076 4.85534C22.1067 5.60216 23.8878 6.61953 25.4959 7.8759L23.7532 10.1994C22.1458 8.94211 20.3645 7.92466 18.4649 7.17884C16.8583 6.54187 15.1707 6.13209 13.4508 5.96133Z" fill="#A7B8FF"/>
<path d="M18.1536 22.9497C18.1069 22.9515 18.0611 22.9634 18.0195 22.9846C17.9779 23.0057 17.9413 23.0357 17.9124 23.0723C17.8835 23.109 17.8628 23.1515 17.8519 23.1969C17.841 23.2423 17.8401 23.2896 17.8492 23.3354L18.3464 26.4326C18.3905 26.7138 18.1303 26.8973 17.8329 26.7695L15.614 25.9052C15.5245 25.8712 15.4451 25.8149 15.3833 25.7417C15.3215 25.6686 15.2794 25.5809 15.2608 25.487L14.8681 22.6523C14.85 22.5582 14.8079 22.4703 14.7461 22.3971C14.6843 22.3238 14.6047 22.2677 14.5149 22.2341L14.1827 22.1063C14.0984 22.0623 14.0004 22.0525 13.9091 22.0789C13.8178 22.1053 13.7402 22.1658 13.6924 22.248L12.6863 24.4298C12.6389 24.5129 12.561 24.5744 12.4691 24.6013C12.3773 24.6282 12.2785 24.6183 12.1938 24.5738L9.93066 23.6862C9.80828 23.6486 9.7055 23.5645 9.64428 23.4521C9.58306 23.3396 9.56825 23.2077 9.60304 23.0845L13.3206 15.0242C13.3684 14.942 13.4462 14.8816 13.5377 14.8556C13.6291 14.8296 13.7271 14.84 13.8109 14.8848L17.8445 16.4601C18.8994 16.8357 19.7918 17.5647 20.3702 18.5234C20.6375 18.9295 20.7946 19.3982 20.8259 19.8834C20.8573 20.3686 20.7619 20.8536 20.5491 21.2907C20.1076 22.2573 19.3091 22.8103 18.1536 22.9497ZM17.4263 19.9756C17.4827 19.8651 17.511 19.7424 17.5086 19.6184C17.5061 19.4943 17.4731 19.3728 17.4124 19.2646C17.2726 19.0187 17.0452 18.8346 16.7757 18.7488L15.8812 18.3979C15.7967 18.3536 15.6984 18.3438 15.6069 18.3707C15.5154 18.3976 15.4379 18.459 15.3909 18.542L14.9587 19.4714C14.9233 19.5946 14.9378 19.7269 14.9991 19.8395C15.0604 19.9521 15.1636 20.036 15.2863 20.0732L16.0577 20.3752L16.1135 20.3985C16.3531 20.5053 16.6222 20.5266 16.8756 20.4589C16.9998 20.4261 17.1144 20.3644 17.2101 20.2787C17.3058 20.1931 17.3799 20.0861 17.4263 19.9663" fill="#3058FE"/>
<path d="M55.4469 3.70279C55.1523 2.2757 54.2894 1.15049 53.195 0.766278C51.1957 0.0527344 43.1985 0.0527344 43.1985 0.0527344C43.1985 0.0527344 35.2013 0.0527344 33.202 0.738834C32.1287 1.12305 31.2448 2.2757 30.9502 3.70279C30.4241 6.30997 30.4241 11.7164 30.4241 11.7164C30.4241 11.7164 30.4241 17.1503 30.9502 19.7301C31.2448 21.1572 32.1077 22.2824 33.202 22.6666C35.2224 23.3801 43.1985 23.3801 43.1985 23.3801C43.1985 23.3801 51.1957 23.3801 53.195 22.694C54.2894 22.3098 55.1523 21.1846 55.4469 19.7575C55.973 17.1503 55.973 11.7439 55.973 11.7439C55.973 11.7439 55.9941 6.30997 55.4469 3.70279Z" fill="#670320"/>
<path opacity="0.45" d="M51.0038 8.14615C50.7091 6.71906 49.8463 5.59385 48.7519 5.20964C46.7526 4.49609 38.7554 4.49609 38.7554 4.49609C38.7554 4.49609 30.7582 4.49609 28.7589 5.18219C27.6856 5.56641 26.8017 6.71906 26.5071 8.14615C25.981 10.7533 25.981 16.1598 25.981 16.1598C25.981 16.1598 25.981 21.5937 26.5071 24.1734C26.8017 25.6005 27.6646 26.7257 28.7589 27.1099C30.7793 27.8235 38.7554 27.8235 38.7554 27.8235C38.7554 27.8235 46.7526 27.8235 48.7519 27.1374C49.8463 26.7532 50.7091 25.628 51.0038 24.2009C51.5299 21.5937 51.5299 16.1872 51.5299 16.1872C51.5299 16.1872 51.551 10.7533 51.0038 8.14615Z" fill="#670320"/>
<path d="M53.2253 5.92434C52.9307 4.49726 52.0678 3.37205 50.9735 2.98784C48.9742 2.27429 40.977 2.27429 40.977 2.27429C40.977 2.27429 32.9798 2.27429 30.9805 2.96039C29.9072 3.34461 29.0233 4.49726 28.7286 5.92434C28.2025 8.53152 28.2025 13.938 28.2025 13.938C28.2025 13.938 28.2025 19.3719 28.7286 21.9516C29.0233 23.3787 29.8861 24.5039 30.9805 24.8881C33.0008 25.6017 40.977 25.6017 40.977 25.6017C40.977 25.6017 48.9742 25.6017 50.9735 24.9156C52.0678 24.5314 52.9307 23.4062 53.2253 21.9791C53.7515 19.3719 53.7515 13.9654 53.7515 13.9654C53.7515 13.9654 53.7725 8.53152 53.2253 5.92434Z" fill="#D1013E"/>
<path d="M37.0891 18.9833C37.0891 19.8061 37.9281 20.3168 38.5923 19.8982L46.5971 14.853C47.2497 14.4416 47.2497 13.4345 46.5971 13.0231L38.5923 7.9779C37.9281 7.5593 37.0891 8.06996 37.0891 8.89281V18.9833Z" fill="#F7F3E1"/>
</g>
<defs>
<clipPath id="clip0_3516_102229">
<rect width="56" height="56" fill="white"/>
</clipPath>
</defs>
</svg>
