<svg width="56" height="56" viewBox="0 0 56 56" fill="none" xmlns="http://www.w3.org/2000/svg">
<path d="M28.8362 21.8173C28.8088 21.7629 28.7851 21.7067 28.7653 21.6491C28.3799 20.7296 27.9946 19.8091 27.6093 18.8878C27.7496 19.0645 27.8646 19.2599 27.9508 19.4685L29.1778 22.3979C29.0889 22.1907 28.9741 21.9956 28.8362 21.8173Z" fill="#3058FE"/>
<path d="M33.3604 22.9524L32.835 21.6781L32.1466 20.0229C32.298 19.989 32.455 19.989 32.6064 20.0229L32.7483 20.3671L32.9006 20.7296L33.0583 21.1053L33.2186 21.4889L33.3788 21.8725L33.5365 22.2482L33.6888 22.6108L33.8307 22.955C33.6764 22.9166 33.5152 22.9157 33.3604 22.9524Z" fill="#3058FE"/>
<path d="M33.8175 22.9496L32.5931 20.0175L32.735 20.3616L32.8874 20.7242L33.045 21.0999L33.2053 21.4835L33.3656 21.8671L33.5232 22.2428L33.6756 22.6054L33.8175 22.9496Z" fill="#3058FE"/>
<path d="M36.8758 22.0118L35.662 19.0823C35.4056 18.448 35.3991 17.7402 35.6436 17.1013L36.8758 20.0308C36.6254 20.6674 36.6254 21.3752 36.8758 22.0118Z" fill="#3058FE"/>
<path d="M31.3376 20.9634L31.4454 21.2261L31.5557 21.4888L31.6713 21.7647L31.7895 22.0485L31.9104 22.3348L32.0313 22.6239L32.1495 22.9102L32.2677 23.1914L31.3376 20.966V20.9634Z" fill="#3058FE"/>
<path d="M32.5645 23.893C32.5696 23.9464 32.5829 23.9987 32.6039 24.048L31.3796 21.1159C31.3585 21.0673 31.3444 21.016 31.3375 20.9635C31.7474 21.9409 32.1555 22.9174 32.5619 23.893C32.1555 22.9156 31.7474 21.9391 31.3375 20.9635C31.285 20.5563 31.6423 20.1333 32.1257 20.0229L33.3527 22.9524C32.8666 23.0628 32.5093 23.4963 32.5645 23.893Z" fill="#3058FE"/>
<path d="M34.3088 23.3331C34.2632 23.2348 34.1949 23.1487 34.1094 23.082C34.024 23.0153 33.9239 22.9699 33.8175 22.9496L32.5931 20.0175C32.6993 20.0387 32.7989 20.0847 32.8839 20.1519C32.9688 20.219 33.0366 20.3053 33.0818 20.4037L34.3088 23.3331Z" fill="#3058FE"/>
<path d="M27.9427 19.4685L29.1697 22.398C29.6794 23.6197 29.1696 25.1619 27.8008 26.1971L26.5739 23.2676C27.9558 22.2325 28.4682 20.6902 27.9427 19.4685Z" fill="#6783F6"/>
<path d="M33.0821 20.4038L34.309 23.3333C34.3277 23.3825 34.3409 23.4336 34.3485 23.4857C34.3984 23.8929 34.0437 24.3159 33.5603 24.4262C33.409 24.4616 33.2517 24.4616 33.1005 24.4262C32.9946 24.4053 32.8951 24.3596 32.8102 24.293C32.7253 24.2263 32.6573 24.1405 32.6118 24.0427L31.3875 21.1106C31.4314 21.209 31.4986 21.2953 31.5833 21.3621C31.6679 21.4289 31.7675 21.4742 31.8735 21.4941C32.0247 21.5296 32.1821 21.5296 32.3333 21.4941C32.8246 21.3838 33.1819 20.9687 33.1215 20.5536C33.1153 20.5021 33.102 20.4517 33.0821 20.4038Z" fill="#FFFCED"/>
<path d="M32.5933 20.0175C32.7236 20.0421 32.8434 20.1055 32.9371 20.1992C33.0308 20.2929 33.0942 20.4127 33.1188 20.543C33.1687 20.9502 32.8114 21.3732 32.3306 21.4836C32.1794 21.519 32.022 21.519 31.8708 21.4836C31.7396 21.461 31.6187 21.3984 31.5246 21.3043C31.4305 21.2102 31.3679 21.0893 31.3453 20.9581C31.2928 20.5509 31.6501 20.1279 32.1335 20.0175C32.2849 19.9836 32.4419 19.9836 32.5933 20.0175Z" fill="#FFFCED"/>
<path d="M26.5819 23.265L27.8088 26.1945L22.3729 30.2879L21.1486 27.3584L26.5819 23.265Z" fill="#6783F6"/>
<path d="M36.8761 22.0117L35.6622 19.0823C35.8517 19.5018 36.1391 19.8696 36.5002 20.1549C36.8614 20.4402 37.2859 20.6346 37.7378 20.7217L38.9779 23.6512C38.5211 23.5684 38.0911 23.376 37.725 23.0904C37.3589 22.8048 37.0676 22.4347 36.8761 22.0117Z" fill="#6783F6"/>
<path d="M21.1487 27.3583L22.373 30.2877C21.8393 30.6958 21.224 30.9842 20.5689 31.1333C19.9138 31.2825 19.2343 31.2889 18.5765 31.1521C18.1306 31.0512 17.7109 30.8579 17.3443 30.5846L16.12 27.6552C16.4875 27.9284 16.9081 28.1217 17.3548 28.2227C18.0122 28.3589 18.6912 28.3521 19.3458 28.203C20.0003 28.0539 20.6152 27.7658 21.1487 27.3583Z" fill="#6783F6"/>
<path d="M18.4635 30.6556L18.5686 30.9184L18.6816 31.1811L18.7972 31.4596L18.9154 31.7407L19.0363 32.0297L19.1545 32.3161L19.2753 32.6025L19.3936 32.8836L18.4635 30.6609V30.6556Z" fill="#3058FE"/>
<path d="M18.5054 34.1317C18.4607 34.2159 18.4348 34.3089 18.4293 34.4041C18.4239 34.4993 18.4391 34.5946 18.4739 34.6834L17.2469 31.7539C17.2121 31.6651 17.1969 31.5698 17.2024 31.4746C17.2078 31.3794 17.2338 31.2865 17.2785 31.2022L18.5054 34.1317L17.2785 31.2022C17.3916 30.9964 17.5677 30.8322 17.781 30.7339C17.9942 30.6355 18.2334 30.6081 18.4634 30.6557C18.8697 31.6296 19.2778 32.6061 19.6877 33.5852C19.2813 32.6078 18.8732 31.6313 18.4634 30.6557C18.5693 30.6758 18.6688 30.7212 18.7534 30.788C18.838 30.8548 18.9052 30.941 18.9494 31.0393L20.1764 33.9688C20.1322 33.87 20.0645 33.7835 19.9794 33.7166C19.8943 33.6498 19.7942 33.6047 19.6877 33.5852C19.4581 33.5373 19.2192 33.5647 19.0063 33.6631C18.7934 33.7615 18.6178 33.9258 18.5054 34.1317Z" fill="#3058FE"/>
<path d="M18.9496 31.0393L20.1765 33.9688C20.2115 34.0571 20.2267 34.152 20.2213 34.2468C20.2158 34.3416 20.1898 34.4341 20.145 34.5179C20.0327 34.7247 19.8569 34.8899 19.6436 34.9892C19.4302 35.0886 19.1906 35.1167 18.9601 35.0696C18.8542 35.0486 18.7548 35.0026 18.6702 34.9354C18.5857 34.8683 18.5184 34.7818 18.474 34.6834L17.2471 31.7539C17.2917 31.8525 17.3594 31.9388 17.4445 32.0055C17.5295 32.0723 17.6295 32.1176 17.7357 32.1375C17.966 32.1853 18.2056 32.1577 18.419 32.0588C18.6324 31.9599 18.8083 31.795 18.9207 31.5884C18.9644 31.5042 18.9896 31.4117 18.9946 31.317C18.9996 31.2223 18.9842 31.1276 18.9496 31.0393Z" fill="#FFFCED"/>
<path d="M18.4636 30.6558C18.5641 30.6719 18.6593 30.712 18.7411 30.7725C18.8229 30.8331 18.889 30.9124 18.9338 31.0037C18.9785 31.0951 19.0008 31.196 18.9985 31.2977C18.9962 31.3995 18.9696 31.4992 18.9208 31.5885C18.8083 31.7951 18.6324 31.96 18.4191 32.0589C18.2057 32.1578 17.9661 32.1854 17.7358 32.1376C17.635 32.1216 17.5394 32.0816 17.4573 32.0209C17.3752 31.9602 17.3089 31.8806 17.264 31.7888C17.2192 31.6971 17.1971 31.5959 17.1997 31.4938C17.2022 31.3917 17.2293 31.2917 17.2787 31.2023C17.3915 30.9962 17.5676 30.8318 17.7809 30.7334C17.9943 30.635 18.2336 30.6078 18.4636 30.6558Z" fill="#FFFCED"/>
<path d="M43.8906 22.167L45.1176 25.0964L38.9644 23.6514L37.7374 20.7219L43.8906 22.167Z" fill="#6783F6"/>
<path d="M48.5674 20.4224L49.7943 23.3518C49.2554 24.0503 48.5318 24.584 47.7054 24.8928C46.8789 25.2015 45.9826 25.273 45.1177 25.099L43.8907 22.1827C44.7569 22.3571 45.6546 22.2845 46.4815 21.9733C47.3084 21.662 48.0312 21.1246 48.5674 20.4224Z" fill="#6783F6"/>
<path d="M33.229 28.2963L34.4534 31.2258C34.344 31.203 34.2305 31.2116 34.1259 31.2506C34.0213 31.2897 33.9298 31.3576 33.8622 31.4465L32.6353 28.517C32.7035 28.4282 32.7954 28.3603 32.9004 28.3213C33.0054 28.2823 33.1193 28.2736 33.229 28.2963Z" fill="#FFFCED"/>
<path d="M15.5945 37.2713C15.1642 37.171 14.7206 37.1408 14.2808 37.182L13.0538 34.2525C13.4936 34.2122 13.9369 34.2415 14.3675 34.3392C14.7739 35.3166 15.182 36.2931 15.5918 37.2687L15.2976 36.5646L14.3675 34.3418C14.8189 34.4293 15.243 34.6231 15.6044 34.9074C15.9659 35.1916 16.2543 35.558 16.4457 35.976L17.6727 38.9055C17.4813 38.4874 17.1928 38.1211 16.8314 37.8368C16.4699 37.5526 16.0459 37.3587 15.5945 37.2713Z" fill="#3058FE"/>
<path d="M16.4352 35.9761L17.6621 38.9055C17.7475 39.1144 17.8058 39.3334 17.8355 39.5571L16.6086 36.6329C16.5805 36.4072 16.5222 36.1862 16.4352 35.9761Z" fill="#6783F6"/>
<path d="M48.9275 26.9118L48.3153 25.4457C48.1104 24.957 47.9054 24.471 47.7031 23.9823C47.828 23.886 47.9724 23.8181 48.1262 23.7831C48.28 23.7482 48.4395 23.7471 48.5938 23.78L48.7357 24.1215L48.8119 24.3002L48.9669 24.6706L49.1245 25.0516L49.2874 25.4352L49.3662 25.627L49.445 25.8162L49.6001 26.1866L49.7472 26.5413C49.7816 26.5922 49.8057 26.6493 49.8181 26.7095C49.6639 26.6766 49.5043 26.6777 49.3505 26.7126C49.1967 26.7475 49.0524 26.8155 48.9275 26.9118Z" fill="#3058FE"/>
<path d="M49.8181 26.7119C49.41 25.7346 49.0019 24.7581 48.5938 23.7825L48.7356 24.124L48.888 24.4866L49.0457 24.8623L49.2059 25.2459L49.3662 25.6295L49.5238 26.0052L49.6762 26.3678L49.8181 26.7119Z" fill="#3058FE"/>
<path d="M50.1806 26.9117C50.0308 26.5491 49.8784 26.1892 49.7287 25.8292C49.4659 25.2144 49.2032 24.597 48.9536 23.9901C49.0351 24.019 49.0009 24.1031 49.0245 24.1583L49.1717 24.513L49.2505 24.6969L49.4081 25.0726L49.5684 25.4562L49.6472 25.648L49.8075 26.0289L49.9625 26.3994L50.0361 26.578L50.1806 26.9117Z" fill="#3058FE"/>
<path d="M50.1807 26.9118C50.0815 26.8123 49.9555 26.7438 49.8181 26.7147C49.41 25.7374 49.0019 24.7609 48.5938 23.7853C48.73 23.8139 48.855 23.8814 48.9537 23.9797L49.0982 24.3213L49.1718 24.4999L49.3268 24.8704L49.4082 25.0595L50.1807 26.8987V26.9118Z" fill="#3058FE"/>
<path d="M48.9275 26.9117C48.7818 27.0033 48.6709 27.141 48.6124 27.3028C48.5538 27.4646 48.551 27.6414 48.6044 27.805L47.3853 24.8782C47.3349 24.7141 47.3395 24.5381 47.3983 24.3768C47.4571 24.2156 47.5669 24.078 47.7111 23.9849C48.0684 24.8624 48.5597 26.0342 48.9275 26.9117Z" fill="#3058FE"/>
<path d="M50.3095 27.0983C50.2799 27.0271 50.2361 26.9628 50.1808 26.9091L48.9617 23.9771C49.0166 24.0321 49.0603 24.0972 49.0904 24.1688L50.3095 27.0983Z" fill="#3058FE"/>
<path d="M21.1119 37.1346C20.4237 39.3628 20.5277 41.7606 21.4062 43.9209L20.1818 40.9915C19.3008 38.8317 19.1968 36.433 19.8876 34.2051L20.0295 34.5493L20.1818 34.9118L20.3395 35.2875L20.4997 35.6711L20.5812 35.8629L20.7388 36.2439L20.8177 36.4304L20.8938 36.6143L20.97 36.793C21.0341 36.8991 21.082 37.0142 21.1119 37.1346Z" fill="#3058FE"/>
<path d="M21.9001 35.1353C21.5812 35.7783 21.3175 36.4471 21.1119 37.1347C20.7038 36.1591 20.2957 35.1826 19.8876 34.2053C20.0932 33.5177 20.3569 32.8488 20.6758 32.2059C23.8811 25.6612 32.3858 21.7202 39.6319 23.4253C43.481 24.3291 46.2003 26.6464 47.4456 29.6022L48.6726 32.5317C47.4377 29.5759 44.7053 27.2586 40.8563 26.3548C33.597 24.6497 25.0923 28.5907 21.9001 35.1353Z" fill="#3058FE"/>
<path d="M46.949 29.8018L48.1734 32.7313C46.9832 29.8833 44.348 27.6474 40.6382 26.7751C33.6469 25.1331 25.447 28.9322 22.3546 35.2456C20.9043 38.2066 20.8334 41.2018 21.8843 43.7188L20.66 40.7893C19.6091 38.2723 19.68 35.2719 21.1277 32.3162C24.22 26.0106 32.4252 22.201 39.4112 23.8457C43.121 24.7179 45.7562 26.9538 46.949 29.8018Z" fill="#2545C6"/>
<path d="M45.3514 29.8229C45.136 29.6285 44.91 29.4393 44.6736 29.2606C44.2672 28.2833 43.8591 27.3068 43.4492 26.3312C43.6857 26.5098 43.9116 26.6964 44.1244 26.8934L44.2112 27.0984L44.3005 27.3164L44.3951 27.5397L44.4923 27.771L44.5869 27.9995L44.6814 28.2255L44.7734 28.4435L44.8575 28.6459L44.9153 28.7851L44.9757 28.9296L45.0388 29.082L45.1044 29.2344L45.1675 29.3894L45.2332 29.5391L45.2936 29.6863L45.3514 29.8229Z" fill="#3058FE"/>
<path d="M38.2894 29.4838L39.5137 32.4132L34.4535 31.223L33.2291 28.2936L38.2894 29.4838Z" fill="#FFFCED"/>
<path d="M49.0825 24.1689L50.3095 27.0984C50.3601 27.2622 50.3559 27.438 50.2976 27.5992C50.2393 27.7604 50.13 27.8982 49.9863 27.9917C49.8603 28.0868 49.7154 28.154 49.5614 28.1889C49.4074 28.2238 49.2477 28.2255 49.093 28.194C48.957 28.1633 48.8323 28.095 48.7331 27.997C48.6782 27.9429 48.6345 27.8786 48.6043 27.8078L47.3853 24.8783C47.4164 24.9486 47.46 25.0127 47.514 25.0675C47.6135 25.1651 47.7381 25.2333 47.8739 25.2645C48.0287 25.2961 48.1883 25.2943 48.3423 25.2594C48.4963 25.2246 48.6412 25.1573 48.7672 25.0622C48.9115 24.9695 49.0208 24.8313 49.0779 24.6696C49.135 24.5079 49.1366 24.3317 49.0825 24.1689Z" fill="#FFFCED"/>
<path d="M34.7502 31.9037L35.9745 34.8332C35.8652 34.811 35.7519 34.82 35.6474 34.859C35.5429 34.898 35.4514 34.9655 35.3834 35.0539L34.1591 32.1244C34.2271 32.0361 34.3186 31.9685 34.4231 31.9295C34.5276 31.8905 34.6409 31.8816 34.7502 31.9037Z" fill="#3058FE"/>
<path d="M45.3514 29.8228C45.339 29.8012 45.3293 29.7783 45.3225 29.7545L45.2016 29.4655L45.1359 29.3131L45.1044 29.2343L44.8574 28.6457L44.1244 26.8933C44.4421 27.181 44.7381 27.4919 45.0098 27.8234L45.1543 28.1649L45.3067 28.5275L45.4643 28.9032L45.6246 29.2868L45.7849 29.6704L45.9425 30.0461L46.0923 30.4087L46.2368 30.7529C45.9629 30.4233 45.6671 30.1125 45.3514 29.8228Z" fill="#3058FE"/>
<path d="M46.5627 31.168C46.4577 31.0261 46.3499 30.8868 46.237 30.7528C45.8271 29.7685 45.4216 28.792 45.0205 27.8234C45.1335 27.9574 45.2438 28.0861 45.3463 28.2385L45.454 28.5012L45.567 28.7639L45.6852 29.0477L45.8061 29.3341L45.9269 29.6231L46.0452 29.9068L46.1581 30.1696L46.2659 30.4323L46.3026 30.519L46.3394 30.6083L46.3788 30.7029L46.4182 30.7975L46.4603 30.8921L46.4997 30.9867L46.5365 31.076L46.5627 31.168Z" fill="#3058FE"/>
<path d="M36.2847 32.2715L37.5091 35.201L35.9747 34.841L34.7504 31.9089L36.2847 32.2715Z" fill="#3058FE"/>
<path d="M34.1592 32.1323L35.3835 35.0618L34.0094 36.964L32.7825 34.0345L34.1592 32.1323Z" fill="#3058FE"/>
<path d="M33.9515 37.3212L32.7271 34.3917C32.7043 34.3326 32.6973 34.2684 32.707 34.2057C32.7167 34.143 32.7427 34.0839 32.7823 34.0344L34.0093 36.9665C33.9694 37.0154 33.9431 37.0739 33.9329 37.1361C33.9228 37.1984 33.9292 37.2622 33.9515 37.3212Z" fill="#3058FE"/>
<path d="M37.1177 32.839L38.3446 35.7685C38.229 35.5057 37.9505 35.306 37.5091 35.2036L36.2848 32.2715C36.7236 32.3766 37.0047 32.5657 37.1177 32.839Z" fill="#3058FE"/>
<path d="M34.2142 37.5261C34.1573 37.5153 34.1038 37.491 34.0581 37.4554C34.0125 37.4197 33.9759 37.3737 33.9515 37.3212L32.7272 34.3917C32.7512 34.4445 32.7877 34.4907 32.8334 34.5264C32.8791 34.5621 32.9328 34.5862 32.9899 34.5967L34.2142 37.5261Z" fill="#FFFCED"/>
<path d="M38.3443 35.7685C38.3443 35.7921 38.3627 35.8157 38.3679 35.8394L37.1383 32.9099C37.1383 32.8863 37.1226 32.8626 37.1121 32.839L38.3443 35.7685Z" fill="#FFFCED"/>
<path d="M42.2015 34.4654C41.7654 33.4144 40.8703 32.7313 39.5164 32.416L38.2894 29.4866C39.6416 29.8036 40.5375 30.4858 40.9772 31.5333L42.2015 34.4654Z" fill="#FFFCED"/>
<path d="M40.9771 31.5331L42.2014 34.4626C42.2095 34.4796 42.2165 34.4971 42.2224 34.5151L40.9981 31.583C40.9902 31.5672 40.9849 31.5515 40.9771 31.5331Z" fill="#3058FE"/>
<path d="M34.5085 34.9512L35.7328 37.8833L34.2142 37.526L32.9899 34.5966L34.5085 34.9512Z" fill="#FFFCED"/>
<path d="M38.3681 35.8447C38.4811 36.16 38.3944 36.5146 38.1054 36.9087L37.9609 36.5672L37.8085 36.2046L37.6509 35.8263L37.4906 35.4427L37.1727 34.6834C37.0755 34.4496 36.9783 34.2131 36.8784 33.9793C37.1595 33.5852 37.2462 33.2305 37.1412 32.9283C37.5116 33.7875 38.0266 34.9488 38.3681 35.8447Z" fill="#FFFCED"/>
<path d="M38.1159 36.8955L36.8889 33.9661L38.1159 36.8955Z" fill="#FFFCED"/>
<path d="M16.6084 36.6249L17.8354 39.557L18.5526 45.0954L17.3283 42.1659L16.6084 36.6249Z" fill="#6783F6"/>
<path d="M35.7827 37.8967L35.7328 37.8836L34.5111 34.9541H34.5584L34.6898 35.2641L34.8264 35.5925L34.9709 35.9341L35.1154 36.2835L35.2625 36.6303L35.4044 36.9719L35.541 37.3029L35.6724 37.613V37.6445L35.6855 37.6786L35.7013 37.7128L35.7144 37.7469L35.7302 37.7837L35.746 37.8179L35.7591 37.852L35.7827 37.8967Z" fill="#FFFCED"/>
<path d="M35.7829 37.8965C35.373 36.9191 34.964 35.9427 34.5559 34.967L34.7004 35.3086L34.8528 35.6712L35.0104 36.0495L35.1707 36.4331L35.331 36.8167L35.4886 37.1924L35.6384 37.555L35.7829 37.8965Z" fill="#FFFCED"/>
<path d="M22.9272 35.3796C21.54 38.2118 21.4691 41.073 22.4727 43.4744L21.2457 40.5449C20.2421 38.1435 20.313 35.2902 21.7003 32.4501C24.6586 26.4072 32.4723 22.7894 39.1588 24.3632C40.7098 24.7104 42.1699 25.381 43.444 26.3311L43.5859 26.6726L43.7383 27.0352L43.8959 27.4109L44.0562 27.7945L44.2164 28.1781L44.3741 28.5538L44.5265 28.9163L44.6683 29.2605C43.3927 28.3098 41.9307 27.6392 40.3779 27.2927C33.6993 25.7215 25.883 29.342 22.9272 35.3796Z" fill="#3058FE"/>
<path d="M46.5625 31.168C46.5553 31.1545 46.5492 31.1404 46.5441 31.126L46.5074 31.0366L46.489 30.992L46.4075 30.8028L46.2551 30.4376C45.9504 29.7054 45.6438 28.9724 45.3356 28.2385C45.7484 28.7987 46.0924 29.4065 46.3602 30.0488L47.5872 32.9782C47.3173 32.337 46.9734 31.7294 46.5625 31.168Z" fill="#3058FE"/>
<path d="M37.0256 37.7732C36.9284 37.5368 36.8286 37.3029 36.7313 37.0665C36.6341 36.83 36.5185 36.5594 36.4134 36.3072L35.8013 34.8438C36.239 34.663 36.6163 34.3613 36.889 33.9741L37.0335 34.3157L37.1832 34.6782L37.3409 35.054L37.5012 35.4375L37.6614 35.8211L37.8191 36.1995L37.9714 36.562L38.1159 36.9036C37.8429 37.2916 37.4646 37.5934 37.0256 37.7732Z" fill="#FFFCED"/>
<path d="M37.0255 37.7731C36.6379 37.9496 36.2028 37.993 35.788 37.8966C35.3781 36.9227 34.9691 35.9462 34.561 34.9671C34.9767 35.0635 35.4126 35.0201 35.8011 34.8436L37.0255 37.7731Z" fill="#FFFCED"/>
<path d="M36.2846 32.2715C36.761 32.3854 37.0474 32.5982 37.1437 32.9099C37.2567 33.2252 37.1673 33.5799 36.881 33.9609C36.6082 34.3481 36.231 34.6497 35.7933 34.8305C35.4047 35.007 34.9689 35.0504 34.5532 34.954H34.5006L32.982 34.5967C32.9218 34.5869 32.8653 34.5614 32.8183 34.5226C32.7712 34.4839 32.7353 34.4333 32.7142 34.3761C32.6931 34.3189 32.6875 34.2572 32.6981 34.1971C32.7087 34.1371 32.7351 34.081 32.7745 34.0344L34.1512 32.1323C34.2192 32.0439 34.3107 31.9763 34.4152 31.9373C34.5197 31.8983 34.633 31.8894 34.7423 31.9116L36.2846 32.2715Z" fill="#FFFCED"/>
<path d="M32.638 28.5144L33.8623 31.4465L25.8752 42.5154L24.6509 39.586L32.638 28.5144Z" fill="#FFFCED"/>
<path d="M22.1102 44.2128C22.0314 44.0525 21.9552 43.887 21.8869 43.7215L20.6599 40.792C20.7308 40.9575 20.8044 41.1204 20.8832 41.2833C20.9279 41.3858 20.9857 41.5224 21.0277 41.6249L21.1801 41.9874L21.3378 42.3658L21.498 42.7493L21.6583 43.1303L21.8159 43.5086L21.9657 43.8712L22.1102 44.2128Z" fill="#3058FE"/>
<path d="M31.0012 37.1321L32.2255 40.0616C32.1166 40.0383 32.0033 40.0467 31.899 40.0858C31.7947 40.125 31.7038 40.1931 31.637 40.2822L30.41 37.3528C30.4777 37.2639 30.5691 37.196 30.6737 37.157C30.7783 37.1179 30.8919 37.1093 31.0012 37.1321Z" fill="#3058FE"/>
<path d="M27.5122 40.7708L28.7391 43.7003L26.0829 43.075L24.856 40.1455L27.5122 40.7708Z" fill="#3058FE"/>
<path d="M25.8753 42.5154C25.8364 42.5648 25.8108 42.6234 25.8011 42.6855C25.7915 42.7476 25.798 42.8112 25.8201 42.8701L24.5932 39.9406C24.5714 39.8815 24.5653 39.8178 24.5754 39.7557C24.5856 39.6935 24.6116 39.6351 24.651 39.5859L25.8753 42.5154Z" fill="#FFFCED"/>
<path d="M25.82 42.8701L24.593 39.9407C24.6176 39.9933 24.6542 40.0395 24.6998 40.0756C24.7454 40.1116 24.7988 40.1365 24.8558 40.1482L26.0827 43.0777C26.0255 43.0668 25.9717 43.0422 25.9259 43.0061C25.8802 42.9699 25.8439 42.9233 25.82 42.8701Z" fill="#3058FE"/>
<path d="M31.8313 37.3239L33.0557 40.256L32.2254 40.059L31.0011 37.1295L31.8313 37.3239Z" fill="#3058FE"/>
<path d="M32.1177 37.6813L33.342 40.6107L33.0504 44.4256L31.826 41.4962L32.1177 37.6813Z" fill="#FFFCED"/>
<path d="M32.094 37.5315L33.3184 40.4609C33.2945 40.408 33.2581 40.3617 33.2124 40.326C33.1666 40.2903 33.1128 40.2662 33.0556 40.256L31.8313 37.3265C31.8883 37.3372 31.9419 37.3614 31.9876 37.397C32.0333 37.4327 32.0698 37.4788 32.094 37.5315Z" fill="#3058FE"/>
<path d="M32.0942 37.5314L33.3186 40.4608C33.3383 40.5082 33.3464 40.5595 33.3422 40.6106L32.1179 37.6838C32.1211 37.6319 32.113 37.5799 32.0942 37.5314Z" fill="#FFFCED"/>
<path d="M17.3286 42.166L18.5529 45.0955C18.7395 46.53 17.7332 48.0066 16.1883 48.7422L14.964 45.8127C16.5089 45.0745 17.5151 43.6005 17.3286 42.166Z" fill="#6783F6"/>
<path d="M14.3572 34.3418L14.4649 34.6045L14.5752 34.8673L14.6908 35.1431L14.8091 35.4269L14.9299 35.7133L15.0508 36.0023L15.169 36.2886L15.2872 36.5698L14.3572 34.3444V34.3418Z" fill="#3058FE"/>
<path d="M16.6087 36.6329L17.3286 42.1713C17.5151 43.6058 16.5088 45.0797 14.964 45.818C12.7702 42.547 12.024 38.4772 13.0434 34.2578C13.4831 34.2175 13.9264 34.2467 14.3571 34.3445C15.563 34.623 16.4589 35.4637 16.6087 36.6329Z" fill="#6783F6"/>
<path d="M30.4102 37.3501L31.6371 40.2796L29.3304 43.4797L28.1034 40.5502L30.4102 37.3501Z" fill="#3058FE"/>
<path d="M28.1032 40.5502L29.3302 43.4796C29.2626 43.5685 29.1712 43.6364 29.0665 43.6755C28.9619 43.7145 28.8484 43.7231 28.739 43.7003L27.5121 40.7709C27.6214 40.7937 27.735 40.785 27.8396 40.746C27.9442 40.7069 28.0356 40.639 28.1032 40.5502Z" fill="#3058FE"/>
<path d="M40.9979 31.5831L42.2223 34.5152C42.6531 35.5889 42.443 36.7108 41.5917 37.8808C41.0499 38.6306 40.3515 39.2537 39.545 39.7068C38.8649 40.1044 38.1222 40.3833 37.3486 40.5318C37.2318 40.5478 37.1231 40.6004 37.0381 40.6821C36.9531 40.7638 36.8962 40.8703 36.8756 40.9863L35.6487 38.0569C35.6697 37.941 35.7267 37.8347 35.8116 37.7531C35.8965 37.6714 36.005 37.6187 36.1216 37.6023C36.8961 37.4539 37.6397 37.1749 38.3207 36.7774C39.128 36.3197 39.8263 35.6922 40.3674 34.9382C41.2186 33.7787 41.4288 32.6603 40.9979 31.5831Z" fill="#3058FE"/>
<path d="M20.6678 48.1931L19.4408 45.2637C19.4855 45.3661 19.5406 45.5028 19.5853 45.6052L19.7377 45.9678L19.8927 46.3461L20.0556 46.7297L20.2159 47.1133L20.3735 47.489L20.5233 47.8516L20.6678 48.1931Z" fill="#3058FE"/>
<path d="M21.5584 47.983C21.4039 47.9514 21.2445 47.9533 21.0908 47.9887C20.9371 48.024 20.7929 48.092 20.6678 48.1879L20.5233 47.8464L20.3735 47.4838L20.0608 46.7245C19.9531 46.4618 19.848 46.2174 19.7429 45.9626C19.6378 45.7077 19.5459 45.4923 19.446 45.2585C19.5716 45.1625 19.7164 45.0945 19.8705 45.0591C20.0246 45.0238 20.1844 45.0219 20.3393 45.0535L20.4812 45.3951L20.6336 45.7603L20.7912 46.136L20.9515 46.5196L21.1118 46.9032L21.2694 47.2789L21.4218 47.6415L21.5584 47.983Z" fill="#3058FE"/>
<path d="M21.5584 47.9829C21.1521 47.0091 20.744 46.0326 20.3341 45.0535L20.476 45.3976L20.6284 45.7602L20.786 46.1359L20.9463 46.5195L21.1065 46.9031L21.2642 47.2788L21.4166 47.6414L21.5584 47.9829Z" fill="#3058FE"/>
<path d="M21.921 48.1929C21.8204 48.0954 21.695 48.0272 21.5584 47.9959C21.1521 47.022 20.744 46.0455 20.3341 45.0664C20.4701 45.0972 20.5948 45.1654 20.694 45.2635C20.7481 45.3176 20.7909 45.3819 20.8202 45.4526L22.0471 48.3821C22.0169 48.3119 21.9742 48.2478 21.921 48.1929Z" fill="#3058FE"/>
<path d="M20.668 48.1931C20.5218 48.2849 20.4105 48.423 20.3519 48.5854C20.2933 48.7478 20.2908 48.9251 20.3448 49.0891L19.1179 46.157C19.0673 45.9932 19.0715 45.8174 19.1298 45.6562C19.1881 45.495 19.2974 45.3572 19.441 45.2637L19.5855 45.6052L19.7353 45.9678L19.8929 46.3461L20.0532 46.7297L20.2135 47.1107L20.3711 47.489L20.5235 47.8516L20.668 48.1931Z" fill="#3058FE"/>
<path d="M33.0741 44.5753L31.8498 41.6458C31.8298 41.5995 31.8217 41.5489 31.8261 41.4987L33.0505 44.4281C33.0474 44.4783 33.0555 44.5286 33.0741 44.5753Z" fill="#FFFCED"/>
<path d="M20.8202 45.4396L22.0471 48.369C22.098 48.5325 22.0942 48.7082 22.0364 48.8693C21.9786 49.0305 21.8698 49.1685 21.7266 49.2623C21.6004 49.3583 21.4553 49.4262 21.3008 49.4615C21.1463 49.4968 20.986 49.4988 20.8307 49.4673C20.6942 49.4376 20.5693 49.3692 20.4707 49.2702C20.4168 49.217 20.3739 49.1536 20.3446 49.0837L19.1177 46.1516C19.1472 46.2221 19.19 46.2864 19.2438 46.3407C19.3436 46.4393 19.4693 46.5076 19.6064 46.5378C19.7612 46.5695 19.9211 46.5676 20.0752 46.5322C20.2293 46.4969 20.374 46.4289 20.4997 46.3329C20.6452 46.2412 20.7559 46.1034 20.8139 45.9415C20.872 45.7796 20.8742 45.6029 20.8202 45.4396Z" fill="#FFFCED"/>
<path d="M33.0742 44.5752L31.8499 41.6458C31.8736 41.699 31.9099 41.7458 31.9556 41.7819C32.0014 41.8181 32.0553 41.8426 32.1126 41.8533L33.3369 44.7775C33.2801 44.7673 33.2266 44.7436 33.1809 44.7084C33.1351 44.6732 33.0986 44.6275 33.0742 44.5752Z" fill="#3058FE"/>
<path d="M50.5092 28.8927L51.7335 31.8222L52.4534 37.3606L51.229 34.4311L50.5092 28.8927Z" fill="#3058FE"/>
<path d="M52.4533 37.3633C52.4827 37.5874 52.5419 37.8065 52.6294 38.0149L51.4024 35.0854C51.3162 34.8768 51.2578 34.6577 51.229 34.4338C51.5889 35.3192 52.2064 36.4437 52.4533 37.3633Z" fill="#3058FE"/>
<path d="M35.6489 38.0543L36.8759 40.9864L36.6342 44.9668L35.4072 42.0374L35.6489 38.0543Z" fill="#3058FE"/>
<path d="M34.737 42.4707L35.964 45.4002L33.3366 44.7827L32.1123 41.8533L34.737 42.4707Z" fill="#3058FE"/>
<path d="M35.4073 42.0374L36.6342 44.9668C36.6206 45.0403 36.5922 45.1102 36.5507 45.1722C36.5091 45.2343 36.4553 45.2873 36.3926 45.3279C36.3299 45.3684 36.2596 45.3958 36.1859 45.4083C36.1123 45.4207 36.0368 45.418 35.9643 45.4003L34.7373 42.4709C34.8099 42.4885 34.8853 42.4912 34.959 42.4788C35.0326 42.4663 35.1029 42.439 35.1656 42.3984C35.2284 42.3578 35.2821 42.3049 35.3237 42.2428C35.3652 42.1807 35.3937 42.1108 35.4073 42.0374Z" fill="#3058FE"/>
<path d="M46.3605 30.0461L47.5849 32.9756C48.5911 35.377 48.5202 38.2303 47.133 41.073C44.1746 47.1159 36.3609 50.7337 29.677 49.1599C26.1275 48.3271 23.6105 46.1963 22.4729 43.477L21.2485 40.5476C22.3835 43.2669 24.9005 45.3976 28.45 46.2305C35.134 47.8069 42.9503 44.1812 45.906 38.1436C47.2932 35.3192 47.3642 32.4475 46.3605 30.0461Z" fill="#FFFCED"/>
<path d="M47.7031 41.2071C47.3155 41.9969 46.8528 42.7474 46.3211 43.4482C45.9112 42.4709 45.5022 41.4944 45.0941 40.5187C45.6266 39.818 46.0903 39.0674 46.4787 38.2776C47.929 35.314 48.0026 32.3189 46.9464 29.8019L48.1733 32.7313C49.2243 35.2483 49.156 38.2461 47.7031 41.2071Z" fill="#3058FE"/>
<path d="M29.4249 49.6749C25.9305 48.8552 23.382 46.8243 22.1104 44.2127L20.8834 41.2832C22.1656 43.8948 24.7036 45.9231 28.1979 46.7454C34.3143 48.1852 41.3582 45.4528 45.0942 40.5187C45.1389 40.6211 45.1941 40.7578 45.2387 40.8602L45.3885 41.2228L45.5461 41.5985L45.7064 41.9821L45.8667 42.3657L46.0243 42.7414L46.1767 43.104L46.3212 43.4481C42.5851 48.3823 35.5387 51.1147 29.4249 49.6749Z" fill="#3058FE"/>
<path d="M47.4325 29.5995L48.6569 32.529C49.7498 35.1405 49.6736 38.246 48.1708 41.3174C44.9655 47.862 36.4634 51.8004 29.2173 50.0979C25.3682 49.1915 22.6358 46.8794 21.401 43.9211L20.1766 40.9916C21.4115 43.9447 24.1439 46.262 27.9929 47.1684C35.2391 48.8709 43.7411 44.9326 46.9465 38.3879C48.4493 35.3192 48.5255 32.2084 47.4325 29.5995Z" fill="#2545C6"/>
<path d="M39.6186 23.4252C46.8648 25.1278 50.1516 31.8327 46.9462 38.401C43.7409 44.9693 35.2389 48.884 27.9927 47.1815C20.7465 45.479 17.4571 38.7741 20.6625 32.2189C23.8678 25.6637 32.3724 21.7201 39.6186 23.4252ZM28.2055 46.7454C35.1942 48.3901 43.3941 44.591 46.4864 38.2775C49.5788 31.9641 46.4076 25.4903 39.4189 23.8456C32.4302 22.2009 24.2277 26.0027 21.1354 32.3161C18.043 38.6296 21.2168 45.1033 28.2055 46.7454Z" fill="#2545C6"/>
<path d="M39.1588 24.3631C45.8428 25.9395 48.8642 32.1032 45.9058 38.1435C42.9474 44.1837 35.1338 47.8015 28.4499 46.2304C21.7659 44.6592 18.7471 38.4903 21.7003 32.4501C24.6534 26.4098 32.4749 22.7894 39.1588 24.3631ZM40.3674 34.9513C41.2187 33.783 41.4289 32.6611 40.998 31.5857C40.5671 30.5102 39.6642 29.8096 38.2892 29.4838L33.229 28.2936C33.1193 28.2709 33.0054 28.2796 32.9004 28.3186C32.7953 28.3577 32.7034 28.4255 32.6352 28.5143L24.6507 39.5832C24.6105 39.6293 24.5834 39.6853 24.5722 39.7454C24.561 39.8055 24.5661 39.8675 24.5871 39.9249C24.608 39.9824 24.644 40.0331 24.6912 40.0719C24.7385 40.1107 24.7953 40.1361 24.8557 40.1455L27.5119 40.7682C27.6212 40.791 27.7348 40.7824 27.8394 40.7433C27.944 40.7042 28.0354 40.6363 28.103 40.5475L30.4098 37.35C30.4775 37.2612 30.5689 37.1933 30.6735 37.1542C30.7781 37.1151 30.8917 37.1065 31.001 37.1293L31.8312 37.3237C31.9145 37.3367 31.99 37.3802 32.043 37.4457C32.0959 37.5113 32.1225 37.5943 32.1176 37.6784L31.826 41.4959C31.8211 41.5801 31.8477 41.663 31.9006 41.7286C31.9536 41.7942 32.0291 41.8377 32.1124 41.8506L34.7397 42.4681C34.8123 42.4857 34.8877 42.4884 34.9613 42.476C35.035 42.4635 35.1053 42.4362 35.168 42.3956C35.2307 42.355 35.2845 42.302 35.3261 42.24C35.3676 42.1779 35.3961 42.108 35.4097 42.0345L35.6514 38.0541C35.6723 37.9383 35.7293 37.8319 35.8142 37.7503C35.8992 37.6687 36.0077 37.616 36.1243 37.5996C36.8987 37.4511 37.6423 37.1722 38.3234 36.7746C39.1307 36.317 39.829 35.6895 40.37 34.9355" fill="#FFFCED"/>
<path d="M40.9981 31.5831C41.4255 32.6604 41.2153 33.7831 40.3675 34.9514C39.8265 35.7053 39.1282 36.3328 38.3209 36.7905C37.6398 37.1881 36.8962 37.467 36.1218 37.6155C36.0052 37.6319 35.8967 37.6846 35.8117 37.7662C35.7268 37.8478 35.6698 37.9541 35.6489 38.07L35.4071 42.0504C35.3935 42.1239 35.3651 42.1938 35.3236 42.2558C35.282 42.3179 35.2282 42.3709 35.1655 42.4115C35.1028 42.452 35.0325 42.4794 34.9588 42.4918C34.8852 42.5043 34.8097 42.5016 34.7372 42.4839L32.1098 41.8665C32.0266 41.8536 31.9511 41.8101 31.8981 41.7445C31.8452 41.6789 31.8186 41.596 31.8235 41.5118L32.1177 37.6838C32.1227 37.5997 32.096 37.5167 32.0431 37.4511C31.9901 37.3855 31.9146 37.342 31.8313 37.3291L31.0011 37.1347C30.8918 37.1119 30.7783 37.1205 30.6736 37.1596C30.569 37.1986 30.4776 37.2665 30.41 37.3554L28.1032 40.5528C28.0355 40.6417 27.9441 40.7096 27.8395 40.7487C27.7349 40.7877 27.6213 40.7963 27.512 40.7735L24.8558 40.1509C24.7954 40.1415 24.7386 40.1161 24.6913 40.0773C24.6441 40.0385 24.6081 39.9877 24.5872 39.9303C24.5662 39.8729 24.5611 39.8108 24.5723 39.7507C24.5835 39.6906 24.6106 39.6347 24.6509 39.5886L32.6353 28.5197C32.7036 28.4308 32.7955 28.363 32.9005 28.324C33.0055 28.285 33.1194 28.2763 33.2291 28.299L38.2893 29.4892C39.6643 29.8097 40.5672 30.5077 40.9981 31.5831ZM36.889 33.974C37.1674 33.5799 37.2568 33.2252 37.1517 32.9231C37.0466 32.6209 36.7681 32.3976 36.2926 32.2846L34.7503 31.9037C34.641 31.8815 34.5277 31.8904 34.4232 31.9294C34.3187 31.9685 34.2272 32.036 34.1592 32.1244L32.7824 34.0266C32.743 34.0731 32.7167 34.1292 32.7061 34.1893C32.6955 34.2493 32.701 34.3111 32.7222 34.3683C32.7433 34.4254 32.7792 34.476 32.8263 34.5148C32.8733 34.5535 32.9298 34.5791 32.99 34.5888L34.5086 34.9461H34.5611C34.9768 35.0425 35.4127 34.9991 35.8012 34.8226C36.239 34.6418 36.6162 34.3402 36.889 33.953" fill="#3058FE"/>
<path d="M50.4644 38.1804L50.5694 38.4432L50.6824 38.7059L50.798 38.9818L50.9163 39.2655L51.0371 39.5519L51.1553 39.8409L51.2762 40.1273L51.3944 40.4084L50.4644 38.183V38.1804Z" fill="#3058FE"/>
<path d="M52.6398 38.0149L51.4128 35.0854C51.6043 35.5035 51.8927 35.8699 52.2541 36.1541C52.6156 36.4383 53.0396 36.6322 53.4911 36.7196C53.6864 36.7654 53.8849 36.7961 54.0848 36.8116L55.3092 39.7411C55.1092 39.7254 54.9107 39.6946 54.7154 39.6491C54.2644 39.5613 53.8409 39.3673 53.48 39.083C53.119 38.7988 52.831 38.4327 52.6398 38.0149Z" fill="#6783F6"/>
<path d="M50.5063 41.6589C50.4615 41.7427 50.4355 41.8352 50.43 41.93C50.4246 42.0248 50.4399 42.1197 50.4748 42.208L49.2504 39.2786C49.2151 39.1904 49.1994 39.0957 49.2044 39.0008C49.2094 38.906 49.235 38.8134 49.2793 38.7295C49.6892 39.7051 50.0982 40.6807 50.5063 41.6563C50.0964 40.6824 49.6875 39.7068 49.2793 38.7295C49.3921 38.5232 49.568 38.3585 49.7813 38.2596C49.9946 38.1608 50.234 38.133 50.4643 38.1803C50.8706 39.1577 51.2787 40.1342 51.6886 41.1098C51.2805 40.1324 50.8724 39.156 50.4643 38.1803C50.5707 38.201 50.6706 38.2468 50.7556 38.314C50.8406 38.3812 50.9083 38.4678 50.9529 38.5666L52.1773 41.496C52.1326 41.3973 52.065 41.3107 51.9799 41.2435C51.8949 41.1763 51.795 41.1304 51.6886 41.1098C51.4587 41.0626 51.2197 41.0905 51.0069 41.1894C50.7941 41.2883 50.6186 41.4528 50.5063 41.6589Z" fill="#3058FE"/>
<path d="M50.9529 38.5665L52.1772 41.496C52.2125 41.5841 52.2282 41.6789 52.2233 41.7737C52.2183 41.8686 52.1927 41.9612 52.1483 42.0451C52.0354 42.2519 51.8591 42.4169 51.6452 42.5158C51.4314 42.6147 51.1914 42.6422 50.9608 42.5942C50.8547 42.5736 50.7551 42.5278 50.6705 42.4605C50.5859 42.3933 50.5187 42.3067 50.4747 42.208L49.2504 39.2785C49.2948 39.377 49.362 39.4634 49.4466 39.5306C49.5311 39.5977 49.6305 39.6437 49.7364 39.6647C49.9667 39.713 50.2064 39.6856 50.4199 39.5866C50.6334 39.4877 50.8093 39.3225 50.9213 39.1156C50.9661 39.0319 50.9922 38.9394 50.9976 38.8446C51.0031 38.7497 50.9878 38.6549 50.9529 38.5665Z" fill="#FFFCED"/>
<path d="M39.4114 23.8456C46.4001 25.4903 49.5713 31.964 46.4789 38.2775C43.3866 44.5909 35.1814 48.39 28.198 46.7453C21.2146 45.1006 18.0381 38.6295 21.1279 32.3161C24.2176 26.0026 32.4227 22.2008 39.4114 23.8456ZM28.4502 46.2304C35.1342 47.8068 42.9504 44.1811 45.9062 38.1435C48.8619 32.1059 45.8431 25.9343 39.1592 24.3631C32.4753 22.792 24.659 26.4125 21.7006 32.45C18.7423 38.4876 21.7663 44.6592 28.4502 46.2304Z" fill="#3058FE"/>
<path d="M37.5591 51.7478C37.1509 50.7705 36.7428 49.794 36.3347 48.8184L36.4766 49.1599L36.629 49.5225L36.7866 49.8982L36.9469 50.2818L37.1072 50.6654L37.2648 51.0411L37.4172 51.4036L37.5591 51.7478Z" fill="#3058FE"/>
<path d="M37.1018 51.7505C36.9188 51.7849 36.7486 51.8687 36.6096 51.9928C36.4707 52.1169 36.3684 52.2766 36.3136 52.4546C35.9038 51.479 35.4948 50.5025 35.0867 49.5252C35.1419 49.3474 35.2444 49.188 35.3833 49.064C35.5221 48.94 35.692 48.856 35.8749 48.821C36.2847 49.7949 36.6937 50.7714 37.1018 51.7505C36.692 50.7731 36.283 49.7967 35.8749 48.821C36.0261 48.7856 36.1834 48.7856 36.3346 48.821L36.4765 49.1626L36.6289 49.5252L36.7865 49.9009L36.9468 50.2845L37.1071 50.6681L37.2647 51.0438L37.4171 51.4063L37.559 51.7505C37.4087 51.7151 37.2521 51.7151 37.1018 51.7505Z" fill="#3058FE"/>
<path d="M38.0477 52.1341C38.0031 52.0356 37.9354 51.9493 37.8503 51.8825C37.7653 51.8157 37.6653 51.7705 37.5591 51.7505C37.1509 50.7731 36.7428 49.7967 36.3347 48.821C36.4409 48.8414 36.5406 48.8868 36.6256 48.9536C36.7106 49.0203 36.7784 49.1064 36.8234 49.2046L38.0477 52.1341Z" fill="#3058FE"/>
<path d="M36.3056 52.691C36.3116 52.7442 36.3248 52.7964 36.345 52.846L35.1207 49.9165C35.1 49.8669 35.0858 49.8148 35.0786 49.7615C35.4885 50.7388 35.8966 51.7153 36.303 52.691C35.8966 51.7136 35.4885 50.7371 35.0786 49.7615C35.0643 49.6833 35.0643 49.6032 35.0786 49.525C35.4885 50.5024 35.8975 51.4789 36.3056 52.4545C36.2912 52.5327 36.2912 52.6128 36.3056 52.691Z" fill="#3058FE"/>
<path d="M32.998 54.2517C32.5618 53.7508 31.9743 53.4059 31.3244 53.2691L30.0974 50.3396C30.7471 50.4773 31.335 50.821 31.7736 51.3196L31.9155 51.6638L32.0679 52.0263L32.2255 52.4021L32.3858 52.7856L32.5461 53.1692L32.7037 53.5449L32.8561 53.9075L32.998 54.2517Z" fill="#3058FE"/>
<path d="M33.1425 54.4383C33.0979 54.3753 33.0506 54.3122 32.998 54.2518L31.7737 51.3197C31.8236 51.3828 31.8735 51.4458 31.9182 51.5089L32.8194 53.6685L32.8588 53.7579L32.8982 53.8524L32.9402 53.9523L32.9823 54.0521L33.0243 54.1546L33.0663 54.2544L33.1057 54.349L33.1425 54.4383Z" fill="#3058FE"/>
<path d="M33.1425 54.4383C33.1294 54.412 33.1163 54.3752 33.1058 54.3489L33.0453 54.2044L33.0033 54.1046L32.9823 54.052L32.8194 53.6685L31.9182 51.5088C32.0211 51.6556 32.1091 51.8122 32.1809 51.9765L33.4053 54.9059C33.3345 54.7412 33.2464 54.5844 33.1425 54.4383Z" fill="#3058FE"/>
<path d="M36.8234 49.202L38.0477 52.1341C38.0688 52.1836 38.0829 52.2358 38.0898 52.2891C38.1423 52.6937 37.785 53.1167 37.3016 53.2297C37.1504 53.2652 36.993 53.2652 36.8418 53.2297C36.7357 53.2094 36.6359 53.1639 36.5509 53.0972C36.4659 53.0305 36.3981 52.9444 36.3531 52.8461L35.1288 49.9167C35.1734 50.0152 35.2411 50.1015 35.3262 50.1683C35.4113 50.235 35.5112 50.2803 35.6175 50.3003C35.7678 50.3357 35.9243 50.3357 36.0746 50.3003C36.5686 50.1873 36.9259 49.7748 36.8628 49.3597C36.8571 49.3055 36.8438 49.2525 36.8234 49.202Z" fill="#FFFCED"/>
<path d="M32.1754 51.9763L33.3998 54.9058C33.5318 55.2238 33.5988 55.5651 33.5968 55.9094L32.3698 52.98C32.3727 52.6358 32.3066 52.2945 32.1754 51.9763Z" fill="#6783F6"/>
<path d="M54.0736 36.8115C53.7818 37.7678 53.4136 38.6991 52.9727 39.5965C52.3995 40.7612 51.7196 41.8703 50.9418 42.9095C50.8125 42.8634 50.681 42.824 50.5477 42.7913C49.8899 42.656 49.2107 42.6631 48.5558 42.8122C47.9009 42.9613 47.2856 43.2489 46.7512 43.6557L41.3179 47.7491C40.0673 48.6897 39.5339 50.0533 39.8335 51.2119C37.4443 52.1601 34.9299 52.7558 32.3692 52.9801C32.3692 51.74 31.5258 50.6759 30.0966 50.3396L23.9434 48.892C23.1672 48.7349 22.364 48.7753 21.6075 49.0094C20.851 49.2436 20.1654 49.6639 19.6135 50.2319C17.7673 49.1075 16.1834 47.6006 14.9684 45.8127C16.508 45.0745 17.5143 43.6005 17.333 42.166L16.6079 36.6329C16.4581 35.469 15.557 34.6282 14.3563 34.3445C13.9256 34.2467 13.4823 34.2175 13.0426 34.2578C13.3588 32.9703 13.8143 31.7211 14.4009 30.5322C14.8946 29.5281 15.4692 28.566 16.1192 27.6553C16.4867 27.9286 16.9073 28.1219 17.354 28.2228C18.0118 28.3594 18.6913 28.3529 19.3464 28.2037C20.0014 28.0546 20.6167 27.7663 21.1505 27.3584L26.5838 23.2677C28.1865 22.0591 28.6095 20.1595 27.6111 18.8879C30.1794 17.876 32.8904 17.2731 35.6455 17.1013C35.0622 18.7224 35.9424 20.2988 37.7474 20.7218L43.89 22.1826C44.755 22.3584 45.6519 22.2879 46.4787 21.979C47.3055 21.6701 48.0289 21.1353 48.5667 20.4354C50.3698 21.682 51.8715 23.3157 52.9622 25.2171C51.3674 25.937 50.3165 27.4425 50.5083 28.8954L51.2282 34.4364C51.3806 35.5977 52.2791 36.4384 53.4798 36.7222C53.6752 36.767 53.8737 36.7969 54.0736 36.8115ZM27.9921 47.1684C35.2383 48.871 43.7403 44.9326 46.9456 38.3879C50.151 31.8432 46.8642 25.1278 39.618 23.4253C32.3718 21.7228 23.8672 25.6611 20.6619 32.2058C17.4565 38.7505 20.7459 45.4633 27.9921 47.1684ZM49.749 39.6648C49.9793 39.713 50.219 39.6856 50.4325 39.5867C50.646 39.4878 50.8218 39.3226 50.9339 39.1157C50.9833 39.0263 51.0104 38.9263 51.0129 38.8242C51.0155 38.7221 50.9934 38.6209 50.9485 38.5292C50.9037 38.4374 50.8374 38.3578 50.7553 38.2971C50.6732 38.2364 50.5776 38.1963 50.4767 38.1804C50.2465 38.133 50.0071 38.1608 49.7938 38.2596C49.5805 38.3585 49.4046 38.5232 49.2918 38.7295C49.2431 38.819 49.2165 38.9189 49.2142 39.0208C49.212 39.1226 49.2342 39.2236 49.2789 39.3152C49.3237 39.4067 49.3897 39.4863 49.4715 39.5471C49.5533 39.6079 49.6484 39.6483 49.749 39.6648ZM17.7481 32.1375C17.9784 32.1853 18.218 32.1577 18.4314 32.0588C18.6448 31.9599 18.8207 31.795 18.9331 31.5884C18.9819 31.4991 19.0085 31.3994 19.0108 31.2976C19.0131 31.1958 18.9909 31.095 18.9461 31.0036C18.9013 30.9122 18.8352 30.8329 18.7534 30.7724C18.6716 30.7119 18.5764 30.6718 18.4759 30.6557C18.2459 30.6077 18.0066 30.6349 17.7932 30.7333C17.5799 30.8317 17.4038 30.9961 17.291 31.2022C17.2416 31.2916 17.2145 31.3916 17.212 31.4937C17.2094 31.5958 17.2315 31.697 17.2764 31.7887C17.3212 31.8805 17.3875 31.9601 17.4696 32.0208C17.5517 32.0815 17.6473 32.1215 17.7481 32.1375ZM36.0659 50.295C36.5598 50.182 36.9171 49.7695 36.8541 49.3544C36.834 49.2208 36.7725 49.097 36.6782 49.0003C36.5839 48.9036 36.4616 48.8391 36.3286 48.8158C36.1774 48.7803 36.02 48.7803 35.8688 48.8158C35.3749 48.9288 35.0228 49.3412 35.0806 49.7564C35.1014 49.8896 35.1632 50.0131 35.2573 50.1096C35.3515 50.2061 35.4734 50.2709 35.6061 50.295C35.7564 50.3304 35.9129 50.3304 36.0632 50.295H36.0659ZM20.4963 46.3303C20.8957 46.0308 20.9824 45.5421 20.6907 45.2479C20.5915 45.1498 20.4668 45.0816 20.3308 45.0508C20.1759 45.0192 20.016 45.0211 19.8619 45.0564C19.7078 45.0918 19.5631 45.1597 19.4375 45.2558C19.0382 45.5579 18.9515 46.044 19.2405 46.3382C19.3403 46.4368 19.466 46.5051 19.603 46.5353C19.7579 46.5669 19.9178 46.565 20.0719 46.5297C20.226 46.4943 20.3707 46.4263 20.4963 46.3303ZM47.6997 23.9823C47.2977 24.2844 47.2084 24.7705 47.5026 25.0647C47.6022 25.1623 47.7267 25.2305 47.8626 25.2618C48.0173 25.2933 48.177 25.2916 48.331 25.2567C48.485 25.2218 48.6298 25.1546 48.7559 25.0595C49.1578 24.7573 49.2445 24.2713 48.9503 23.9744C48.8516 23.8762 48.7266 23.8086 48.5903 23.78C48.4361 23.7471 48.2765 23.7482 48.1227 23.7831C47.9689 23.8181 47.8246 23.886 47.6997 23.9823ZM32.1459 20.0229C31.6546 20.1333 31.2973 20.5484 31.3577 20.9635C31.3802 21.0946 31.4428 21.2156 31.5369 21.3097C31.631 21.4038 31.752 21.4664 31.8832 21.489C32.0344 21.5244 32.1917 21.5244 32.3429 21.489C32.8343 21.3786 33.1916 20.9635 33.1311 20.5484C33.1065 20.4181 33.0432 20.2983 32.9495 20.2046C32.8557 20.1108 32.7359 20.0475 32.6057 20.0229C32.4543 19.989 32.2973 19.989 32.1459 20.0229Z" fill="#3058FE"/>
<path d="M27.6093 18.8878C23.001 20.6928 18.8892 23.7589 16.12 27.6552C16.4875 27.9285 16.9081 28.1218 17.3548 28.2227C18.0126 28.3593 18.6921 28.3528 19.3471 28.2036C20.0022 28.0545 20.6175 27.7662 21.1513 27.3583L26.5846 23.2676C28.1847 22.059 28.6077 20.1594 27.6093 18.8878Z" fill="#6783F6"/>
<path d="M35.6435 17.1013C37.8476 16.9628 40.0601 17.1451 42.2119 17.6425C44.4885 18.1545 46.6459 19.0981 48.5674 20.4222C48.0312 21.1244 47.3084 21.6618 46.4815 21.9731C45.6546 22.2843 44.7569 22.3569 43.8907 22.1825L37.7375 20.7349C35.9404 20.2987 35.0603 18.7223 35.6435 17.1013Z" fill="#6783F6"/>
<path d="M48.5938 23.7827C48.73 23.8113 48.8551 23.8788 48.9537 23.9771C49.248 24.274 49.1613 24.7653 48.7593 25.0622C48.6332 25.1573 48.4884 25.2245 48.3344 25.2594C48.1804 25.2943 48.0207 25.296 47.866 25.2645C47.7302 25.2332 47.6056 25.165 47.5061 25.0674C47.2118 24.7705 47.3011 24.2792 47.7031 23.985C47.828 23.8887 47.9724 23.8207 48.1262 23.7858C48.28 23.7509 48.4395 23.7498 48.5938 23.7827Z" fill="#FFFCED"/>
<path d="M53.8772 28.2885C53.4709 27.3111 53.0619 26.3346 52.6503 25.359C52.7527 25.3038 52.8552 25.2513 52.9629 25.204L54.1873 28.1334C54.0822 28.1807 53.9771 28.2254 53.8772 28.2885Z" fill="#3058FE"/>
<path d="M53.8772 28.2886C52.4611 29.0532 51.5573 30.4561 51.7333 31.8224L50.509 28.8929C50.3304 27.5267 51.2342 26.1263 52.6503 25.3591C52.9472 26.0606 52.9472 26.0606 53.8772 28.2886Z" fill="#3058FE"/>
<path d="M14.9088 46.3539L13.6844 43.4244C14.0353 44.259 14.4655 45.0579 14.9692 45.81L16.1935 48.7395C15.6903 47.9871 15.2601 47.1882 14.9088 46.3539Z" fill="#6783F6"/>
<path d="M20.3237 45.0535C20.4598 45.0843 20.5844 45.1526 20.6837 45.2506C20.9753 45.5475 20.8886 46.0388 20.4892 46.333C20.3636 46.4291 20.2189 46.497 20.0648 46.5324C19.9107 46.5677 19.7508 46.5696 19.5959 46.538C19.4589 46.5078 19.3332 46.4395 19.2334 46.3409C18.9444 46.044 19.0311 45.5527 19.4304 45.2585C19.556 45.1625 19.7008 45.0945 19.8548 45.0591C20.0089 45.0238 20.1688 45.0219 20.3237 45.0535Z" fill="#FFFCED"/>
<path d="M19.6143 50.2318L20.8492 53.1613C19.003 52.0369 17.4191 50.53 16.2041 48.7421L14.9797 45.8126C16.1917 47.5994 17.7719 49.1062 19.6143 50.2318Z" fill="#0030F5"/>
<path d="M23.944 48.892L25.1709 51.8215C24.3944 51.664 23.5906 51.7041 22.8336 51.9383C22.0766 52.1724 21.3905 52.593 20.8385 53.1614L19.6141 50.2319C20.1659 49.6639 20.8516 49.2436 21.6081 49.0095C22.3646 48.7754 23.1678 48.735 23.944 48.892Z" fill="#3058FE"/>
<path d="M53.6909 26.6989L54.9153 29.6283C56.1869 32.6681 56.376 36.1677 55.2936 39.7409L54.0693 36.8114C55.157 33.2383 54.9678 29.7387 53.6909 26.6989Z" fill="#4266FB"/>
<path d="M52.963 25.204C54.8678 28.5617 55.3276 32.6367 54.0744 36.8115C53.8744 36.796 53.6759 36.7653 53.4806 36.7196C52.2747 36.4358 51.3787 35.5951 51.229 34.4338L50.5091 28.8927C50.3173 27.4372 51.3682 25.9239 52.963 25.204Z" fill="#6783F6"/>
<path d="M50.4643 38.1803C50.5652 38.1963 50.6607 38.2364 50.7429 38.2971C50.825 38.3578 50.8913 38.4374 50.9361 38.5291C50.981 38.6209 51.0031 38.7221 51.0005 38.8242C50.998 38.9263 50.9709 39.0263 50.9215 39.1157C50.8094 39.3226 50.6335 39.4877 50.4201 39.5867C50.2066 39.6856 49.9669 39.713 49.7366 39.6648C49.636 39.6483 49.5408 39.6079 49.4591 39.5471C49.3773 39.4862 49.3113 39.4067 49.2665 39.3151C49.2217 39.2236 49.1996 39.1226 49.2018 39.0207C49.2041 38.9188 49.2307 38.819 49.2794 38.7295C49.3921 38.5232 49.5681 38.3585 49.7814 38.2596C49.9947 38.1608 50.2341 38.133 50.4643 38.1803Z" fill="#FFFCED"/>
<path d="M30.0973 50.3369L31.3243 53.2664L25.1711 51.8187L23.9441 48.8893L30.0973 50.3369Z" fill="#3058FE"/>
<path d="M54.0743 36.8114L55.2986 39.7409C55.0084 40.6977 54.6402 41.6292 54.1978 42.5258C53.626 43.688 52.946 44.7938 52.1668 45.8284L50.9425 42.8989C51.7203 41.8597 52.4002 40.7506 52.9734 39.5859C53.4138 38.6919 53.7819 37.7641 54.0743 36.8114Z" fill="#0030F5"/>
<path d="M51.7728 45.7233C51.1154 45.5868 50.4364 45.5933 49.7817 45.7425C49.1271 45.8916 48.5123 46.1799 47.9789 46.5877L46.752 43.6556C47.2851 43.2503 47.8986 42.9635 48.5516 42.8144C49.2045 42.6653 49.8817 42.6574 50.5379 42.7912C50.6712 42.8239 50.8028 42.8633 50.932 42.9095C51.3384 43.8868 51.7465 44.8633 52.1564 45.8389C52.0311 45.7922 51.903 45.7536 51.7728 45.7233Z" fill="#3058FE"/>
<path d="M46.7519 43.6558L47.9789 46.5852L42.5429 50.6786L41.3186 47.7465L46.7519 43.6558Z" fill="#3058FE"/>
<path d="M36.3344 48.8184C36.4674 48.8417 36.5897 48.9063 36.684 49.0029C36.7783 49.0996 36.8399 49.2235 36.8599 49.357C36.9151 49.7616 36.5577 50.1846 36.0717 50.2976C35.9214 50.3331 35.7649 50.3331 35.6145 50.2976C35.4818 50.2736 35.3599 50.2088 35.2658 50.1122C35.1716 50.0157 35.1098 49.8922 35.0891 49.759C35.0391 49.3518 35.3912 48.9314 35.8773 48.8184C36.0276 48.7833 36.184 48.7833 36.3344 48.8184Z" fill="#FFFCED"/>
<path d="M30.0972 50.3397C31.5264 50.676 32.3751 51.74 32.3698 52.9801C29.9554 53.1952 27.5222 53.0267 25.1604 52.4809C23.2024 52.0354 21.3295 51.2759 19.6141 50.2319C20.1659 49.6639 20.8516 49.2436 21.6081 49.0095C22.3646 48.7754 23.1678 48.735 23.944 48.892L30.0972 50.3397Z" fill="#6783F6"/>
<path d="M32.37 52.98L33.597 55.9095C31.1818 56.124 28.748 55.9564 26.385 55.4129C24.4309 54.9643 22.5617 54.204 20.8492 53.1613L19.6249 50.2318C21.3402 51.2758 23.2132 52.0353 25.1712 52.4808C27.5295 53.0254 29.9591 53.1939 32.37 52.98Z" fill="#4266FB"/>
<path d="M42.543 50.6785C42.1196 50.9745 41.7627 51.3558 41.4953 51.7979C41.2279 52.2399 41.0559 52.733 40.9902 53.2454L39.7659 50.3133C39.8331 49.8014 40.0062 49.3091 40.2739 48.8676C40.5417 48.4262 40.8984 48.0452 41.3212 47.749L42.543 50.6785Z" fill="#3058FE"/>
<path d="M40.9902 53.2454C40.9622 53.5459 40.9862 53.849 41.0611 54.1414L39.8342 51.2119C39.7604 50.9185 39.7364 50.6147 39.7632 50.3134L39.9077 50.6575L40.0601 51.0201L40.2178 51.3958L40.378 51.7794L40.4568 51.9712L40.5383 52.163L40.6959 52.5387L40.7721 52.7226L40.9193 53.0773C40.9493 53.1304 40.9731 53.1868 40.9902 53.2454Z" fill="#3058FE"/>
<path d="M39.8342 51.2119L41.0612 54.1414C38.6719 55.0892 36.1575 55.6848 33.597 55.9096L32.37 52.9801C34.9307 52.7558 37.4451 52.1601 39.8342 51.2119Z" fill="#0030F5"/>
<path d="M46.752 43.6556C47.2852 43.2503 47.8987 42.9635 48.5516 42.8144C49.2046 42.6653 49.8818 42.6574 50.538 42.7912C50.6713 42.8239 50.8029 42.8633 50.9321 42.9095C48.1813 46.5877 44.2324 49.4778 39.8238 51.2118C39.5243 50.0532 40.0576 48.6896 41.3082 47.749L46.752 43.6556Z" fill="#6783F6"/>
<path d="M50.9426 42.9095L52.1669 45.8285C49.4187 49.5068 45.4698 52.3968 41.0612 54.1309L39.8342 51.2014C44.2324 49.4726 48.1918 46.5904 50.9426 42.9095Z" fill="#4266FB"/>
<path d="M5.54197 25.0986C5.86719 24.9644 6.15073 24.7459 6.36329 24.4656L4.5983 26.8189C4.38607 27.0996 4.10243 27.3182 3.77698 27.4519L5.54197 25.0986Z" fill="#3058FE"/>
<path d="M8.18018 31.6739L9.94281 29.3205C10.5311 28.5204 11.7219 28.2474 12.9456 28.7252L11.1807 31.0785C9.95693 30.6007 8.76851 30.8761 8.18018 31.6739Z" fill="#6783F6"/>
<path d="M9.19187 26.2471C9.29397 26.2935 9.40654 26.3121 9.51814 26.3009C9.62974 26.2897 9.73639 26.2492 9.82727 26.1835L8.06228 28.5368C7.97164 28.6022 7.86527 28.6423 7.75404 28.6531C7.64281 28.6638 7.53072 28.6448 7.42924 28.598L9.19187 26.2447L7.42924 28.598C7.31158 28.5527 7.20488 28.4829 7.11624 28.3933C7.00156 28.2989 6.92435 28.1667 6.89846 28.0204C6.87258 27.8742 6.89973 27.7235 6.97505 27.5955L8.73768 25.2422C8.66263 25.3705 8.63585 25.5213 8.66217 25.6676C8.68849 25.8138 8.76617 25.9459 8.88123 26.04C8.96937 26.1297 9.07514 26.2002 9.19187 26.2471Z" fill="#3058FE"/>
<path d="M9.82761 26.1905C9.85471 26.169 9.87849 26.1437 9.89821 26.1152L8.13557 28.4686C8.11372 28.4959 8.08929 28.5211 8.06262 28.5439C8.59212 27.8449 9.22046 26.833 9.82761 26.1905Z" fill="#3058FE"/>
<path d="M6.97534 27.612L8.73798 25.2587C8.75983 25.2313 8.78426 25.2061 8.81093 25.1834C8.90157 25.118 9.00794 25.0779 9.11917 25.0671C9.2304 25.0564 9.3425 25.0754 9.44397 25.1222L7.67898 27.4755C7.57742 27.4285 7.46513 27.4097 7.35379 27.4208C7.24246 27.432 7.13615 27.4728 7.04594 27.539C7.01958 27.5605 6.99588 27.5849 6.97534 27.612Z" fill="#FFFCED"/>
<path d="M9.89813 26.1152L8.1355 28.4685C8.21034 28.3404 8.23723 28.1898 8.21137 28.0437C8.18551 27.8976 8.10858 27.7654 7.99431 27.6708C7.90449 27.5809 7.79715 27.5104 7.67896 27.4637L9.44395 25.1104C9.56161 25.1556 9.6683 25.2254 9.75694 25.3151C9.87262 25.4093 9.95053 25.542 9.97646 25.6889C10.0024 25.8358 9.97458 25.9871 9.89813 26.1152Z" fill="#FFFCED"/>
<path d="M7.67902 27.4731C7.79722 27.5198 7.90456 27.5902 7.99437 27.6802C8.27442 27.9602 8.305 28.3509 8.06261 28.5532C7.97198 28.6186 7.8656 28.6587 7.75437 28.6695C7.64314 28.6802 7.53105 28.6612 7.42957 28.6144C7.31191 28.5691 7.20522 28.4993 7.11657 28.4097C6.83653 28.1296 6.80594 27.7366 7.04598 27.5366C7.13618 27.4704 7.24249 27.4296 7.35383 27.4184C7.46516 27.4072 7.57745 27.4261 7.67902 27.4731Z" fill="#FFFCED"/>
<path d="M6.3635 24.4657L4.59851 26.819C4.81047 26.5159 4.94307 26.1646 4.98419 25.797C5.0253 25.4295 4.97361 25.0575 4.83384 24.7151L6.59883 22.3618C6.73817 22.7043 6.78963 23.0762 6.74853 23.4437C6.70743 23.8111 6.57507 24.1624 6.3635 24.4657Z" fill="#6783F6"/>
<path d="M11.1808 31.0784L12.9458 28.718L17.8901 30.6501L16.1251 33.0128L11.1808 31.0784Z" fill="#6783F6"/>
<path d="M16.125 33.0129L17.89 30.6595C18.431 30.8641 18.9164 31.1931 19.3068 31.6199C19.6972 32.0467 19.9817 32.5593 20.1374 33.1164L18.3748 35.4697C18.2178 34.9129 17.9326 34.4006 17.5419 33.9739C17.1512 33.5473 16.6659 33.2181 16.125 33.0129Z" fill="#6783F6"/>
<path d="M16.125 33.013C16.6659 33.2182 17.1512 33.5474 17.5419 33.974C17.9326 34.4007 18.2178 34.913 18.3748 35.4698C16.4702 35.3325 14.5979 34.904 12.8233 34.1991C11.1767 33.5534 9.61703 32.7052 8.18018 31.6739C8.76851 30.8762 9.95693 30.6008 11.1807 31.0809L16.125 33.013Z" fill="#6783F6"/>
<path d="M3.1676 20.0532L4.93259 17.6904L6.59168 22.3618L4.82669 24.7221L3.1676 20.0532Z" fill="#6783F6"/>
<path d="M7.07887 14.5017C5.97281 19.5519 9.81814 25.5176 15.652 27.798L13.887 30.1513C8.05315 27.8709 4.20782 21.9147 5.31624 16.855C5.53271 15.839 5.96532 14.8815 6.58468 14.0475L8.34732 11.6942C7.7289 12.5288 7.29639 13.4861 7.07887 14.5017Z" fill="#3058FE"/>
<path d="M6.96134 14.3368L8.72398 11.9835C8.13124 12.7825 7.71567 13.6987 7.50496 14.671C6.44126 19.5165 10.1336 25.2398 15.7416 27.4284L13.9789 29.7817C8.38039 27.5907 4.69039 21.8698 5.74232 17.022C5.95176 16.05 6.36746 15.1343 6.96134 14.3368Z" fill="#2545C6"/>
<path d="M11.056 23.8798C11.8938 24.7479 12.8435 25.5005 13.88 26.1178L12.1173 28.4711C11.0805 27.8588 10.13 27.1109 9.29102 26.2472L11.056 23.8798Z" fill="#3058FE"/>
<path d="M14.9321 26.6706C14.3469 27.4551 13.7593 28.2395 13.1694 29.0239C12.8117 28.8545 12.465 28.6694 12.1293 28.4686L13.8919 26.1152C14.2284 26.3153 14.5767 26.5012 14.9321 26.6706Z" fill="#3058FE"/>
<path d="M11.0561 23.8797L10.5219 24.5857L9.85823 25.4823L9.6888 25.7177L9.45347 26.0471C9.393 26.1069 9.34147 26.175 9.30049 26.2495C9.17812 26.1224 9.06516 25.993 8.94043 25.8636L10.7054 23.5103C10.8137 23.6295 10.9306 23.7526 11.0561 23.8797Z" fill="#3058FE"/>
<path d="M10.3875 23.1359C10.4887 23.2559 10.5899 23.3712 10.6958 23.4912L8.93081 25.8445C8.82726 25.7269 8.72372 25.6092 8.62488 25.4868L10.3875 23.1359Z" fill="#3058FE"/>
<path d="M14.9318 26.6705C15.2213 26.8094 15.5154 26.9365 15.8143 27.0541L14.0517 29.4074C13.7505 29.2898 13.4563 29.1603 13.1692 29.0239C13.7575 28.2425 14.3451 27.4581 14.9318 26.6705Z" fill="#3058FE"/>
<path d="M15.6521 27.7979C16.3552 28.0761 17.0812 28.2926 17.8218 28.445L16.0569 30.7983C15.3168 30.6434 14.591 30.427 13.8871 30.1512L15.6521 27.7979Z" fill="#3058FE"/>
<path d="M22.3919 31.3303C22.4617 31.3259 22.5297 31.3066 22.5914 31.2737C22.6531 31.2408 22.7071 31.1951 22.7496 31.1396L20.987 33.493C20.9441 33.5479 20.89 33.5931 20.8284 33.6255C20.7667 33.658 20.6988 33.677 20.6293 33.6812L22.3919 31.3303Z" fill="#3058FE"/>
<path d="M22.0461 31.2784C22.1559 31.3221 22.2743 31.3398 22.392 31.3302L20.6294 33.6835C20.5116 33.6944 20.3929 33.6767 20.2834 33.6317C20.1676 33.5873 20.0623 33.5191 19.9743 33.4316C19.8864 33.344 19.8177 33.2391 19.7728 33.1234L21.5378 30.7701L19.7728 33.1234C19.7402 33.0429 19.7282 32.9554 19.7381 32.8691C19.748 32.7828 19.7793 32.7003 19.8293 32.6292L21.5919 30.2759C21.5423 30.3476 21.5114 30.4306 21.502 30.5173C21.4925 30.604 21.5048 30.6917 21.5378 30.7724C21.583 30.8873 21.6515 30.9915 21.739 31.0786C21.8265 31.1657 21.931 31.2337 22.0461 31.2784Z" fill="#3058FE"/>
<path d="M19.8269 32.6363L21.5919 30.283C21.6351 30.2282 21.6892 30.1829 21.7507 30.1501C21.8123 30.1173 21.88 30.0977 21.9496 30.0924C22.0673 30.0839 22.1855 30.1016 22.2955 30.1442L20.5305 32.4975C20.4219 32.4527 20.304 32.435 20.187 32.4457C20.117 32.4507 20.0488 32.4702 19.9868 32.503C19.9248 32.5358 19.8703 32.5812 19.8269 32.6363Z" fill="#FFFCED"/>
<path d="M22.7495 31.1396L20.9868 33.493C21.036 33.421 21.0667 33.3381 21.0761 33.2515C21.0856 33.1648 21.0735 33.0772 21.041 32.9964C20.996 32.8807 20.9273 32.7758 20.8394 32.6882C20.7514 32.6007 20.6461 32.5325 20.5303 32.4881L22.2953 30.1348C22.4107 30.1801 22.5155 30.2489 22.603 30.3368C22.6905 30.4247 22.7588 30.5298 22.8036 30.6454C22.8372 30.7256 22.8499 30.8131 22.8404 30.8995C22.8309 30.986 22.7996 31.0686 22.7495 31.1396Z" fill="#FFFCED"/>
<path d="M20.5305 32.4975C20.6464 32.5419 20.7517 32.6101 20.8397 32.6976C20.9276 32.7851 20.9963 32.8901 21.0412 33.0058C21.0738 33.0774 21.0885 33.1558 21.084 33.2343C21.0795 33.3129 21.056 33.3891 21.0155 33.4565C20.9749 33.5239 20.9186 33.5805 20.8513 33.6213C20.7841 33.662 20.7079 33.6858 20.6294 33.6906C20.5116 33.7015 20.3929 33.6838 20.2834 33.6388C20.1676 33.5944 20.0623 33.5262 19.9743 33.4387C19.8864 33.3511 19.8177 33.2462 19.7728 33.1305C19.7401 33.0587 19.7255 32.9801 19.7301 32.9014C19.7347 32.8227 19.7584 32.7463 19.7992 32.6788C19.84 32.6114 19.8966 32.5549 19.9642 32.5142C20.0318 32.4736 20.1082 32.4501 20.187 32.4457C20.304 32.4349 20.4219 32.4527 20.5305 32.4975Z" fill="#FFFCED"/>
<path d="M3.1677 20.0531L4.81502 24.7244C5.24568 25.934 4.78207 27.0354 3.76543 27.4613C1.44977 24.4914 0.066015 21.0321 0.00012207 17.6621C0.345232 17.6881 0.684223 17.7675 1.00499 17.8974C1.49604 18.0858 1.94218 18.3749 2.31467 18.7462C2.68717 19.1175 2.97775 19.5627 3.1677 20.0531Z" fill="#6783F6"/>
<path d="M0.00012207 17.6622L1.76276 15.3088C2.10859 15.3351 2.44832 15.4145 2.76998 15.5442C3.26171 15.7333 3.70828 16.0235 4.08081 16.396C4.45335 16.7686 4.74356 17.2151 4.93269 17.7069L3.1677 20.0602C2.97857 19.5685 2.68836 19.1219 2.31582 18.7494C1.94329 18.3768 1.49672 18.0866 1.00499 17.8975C0.684223 17.7676 0.345232 17.6882 0.00012207 17.6622Z" fill="#6783F6"/>
<path d="M9.84177 23.4607L11.6068 21.1074C11.5782 21.2079 11.5904 21.3156 11.6406 21.4071C11.6908 21.4987 11.775 21.5669 11.875 21.5969L10.11 23.9502C10.01 23.9202 9.9258 23.852 9.87561 23.7605C9.82541 23.6689 9.81326 23.5612 9.84177 23.4607Z" fill="#FFFCED"/>
<path d="M10.1097 23.9501L11.8747 21.5874L14.0092 22.4228L12.2466 24.7856L10.1097 23.9501Z" fill="#FFFCED"/>
<path d="M14.0095 22.4229C14.071 22.4535 14.1409 22.4632 14.2084 22.4504C14.276 22.4377 14.3375 22.4032 14.3837 22.3523L12.621 24.7056C12.5743 24.7564 12.5124 24.7907 12.4445 24.8035C12.3766 24.8162 12.3065 24.8066 12.2445 24.7762L14.0095 22.4229Z" fill="#FFFCED"/>
<path d="M14.3835 22.3524L12.6208 24.7057C12.6296 24.6921 12.6375 24.678 12.6444 24.6634L14.4094 22.3101C14.4016 22.3247 14.393 22.3388 14.3835 22.3524Z" fill="#3058FE"/>
<path d="M25.5428 30.1677C25.0721 30.8031 25.0345 31.695 25.4228 32.5375L23.6601 34.8908C23.2718 34.0507 23.3024 33.1588 23.7778 32.5234L25.5428 30.1677Z" fill="#3058FE"/>
<path d="M17.5252 23.7479C17.5747 23.8001 17.6349 23.8411 17.7017 23.8679L15.9367 26.2213C15.8709 26.1949 15.8116 26.1548 15.7626 26.1036C16.3493 25.3207 16.9369 24.5355 17.5252 23.7479Z" fill="#FFFCED"/>
<path d="M23.7781 32.5303L25.5407 30.177C25.6302 30.0584 25.7329 29.9502 25.8466 29.8546L24.084 32.2079C23.9691 32.3023 23.8663 32.4106 23.7781 32.5303Z" fill="#6783F6"/>
<path d="M17.5253 23.7478C16.937 24.5322 16.3495 25.3167 15.7627 26.1011C15.7054 26.0441 15.6668 25.9711 15.6521 25.8916L17.4147 23.5383C17.4315 23.617 17.4698 23.6895 17.5253 23.7478Z" fill="#FFFCED"/>
<path d="M2.58154 15.6406C2.60454 15.6054 2.62969 15.5716 2.65685 15.5394L2.81452 15.33L2.97925 15.1111L3.06162 14.9982L3.2334 14.7628L3.92058 13.8403L2.58154 15.6336V15.6406Z" fill="#3058FE"/>
<path d="M15.9393 26.2282L17.702 23.8655L19.8129 24.6915L18.0479 27.0542L15.9393 26.2282Z" fill="#FFFCED"/>
<path d="M4.88096 14.1087C4.99716 14.1672 5.12949 14.1855 5.25724 14.1608C5.38498 14.1361 5.50093 14.0698 5.58695 13.9722L3.82196 16.3255C3.73577 16.4228 3.62 16.4891 3.49243 16.5142C3.36487 16.5393 3.23259 16.5218 3.11597 16.4643L4.88096 14.1087Z" fill="#3058FE"/>
<path d="M4.88072 14.1086L4.11355 15.1347L3.54168 15.8924L3.21693 16.3255L3.11573 16.4619C2.94586 16.4043 2.80056 16.2908 2.70354 16.1399C2.60651 15.989 2.5635 15.8097 2.58153 15.6312L4.34652 13.2779L2.58153 15.6312C2.59501 15.568 2.62233 15.5085 2.66154 15.4571L4.42653 13.1038C4.38686 13.1558 4.35952 13.2161 4.34652 13.2803C4.32818 13.4585 4.37109 13.6376 4.4682 13.7882C4.5653 13.9388 4.71079 14.0518 4.88072 14.1086Z" fill="#3058FE"/>
<path d="M17.8477 23.5078L19.6126 21.145L20.2292 24.4114L18.4666 26.7742L17.8477 23.5078Z" fill="#3058FE"/>
<path d="M19.8127 24.6914C19.8744 24.7231 19.9449 24.7333 20.013 24.7205C20.0812 24.7077 20.1432 24.6727 20.1893 24.6208L18.4243 26.9742C18.3783 27.026 18.3164 27.0613 18.2484 27.0745C18.1803 27.0877 18.1098 27.078 18.0477 27.0471L19.8127 24.6914Z" fill="#FFFCED"/>
<path d="M20.1891 24.6209L18.4241 26.9742C18.4452 26.9446 18.4598 26.9108 18.4671 26.8752C18.4744 26.8395 18.4742 26.8027 18.4664 26.7671L20.2291 24.4138C20.237 24.4492 20.2376 24.4859 20.2307 24.5215C20.2238 24.5572 20.2096 24.591 20.1891 24.6209Z" fill="#3058FE"/>
<path d="M2.66162 15.4665L4.42426 13.1132C4.51074 13.0162 4.62667 12.9504 4.75421 12.9257C4.88176 12.901 5.01387 12.9189 5.13025 12.9767L3.36762 15.33C3.25115 15.2727 3.11915 15.255 2.99169 15.2796C2.86424 15.3043 2.74833 15.3699 2.66162 15.4665Z" fill="#FFFCED"/>
<path d="M3.36753 15.3276C3.53726 15.3845 3.6825 15.4976 3.77921 15.6483C3.87592 15.7989 3.91831 15.978 3.89939 16.156C3.83114 16.4714 3.48049 16.6126 3.11573 16.4714C2.94586 16.4137 2.80056 16.3002 2.70354 16.1493C2.60651 15.9984 2.5635 15.8191 2.58153 15.6406C2.65213 15.3253 3.00277 15.1864 3.36753 15.3276Z" fill="#FFFCED"/>
<path d="M5.58427 13.9722L3.81928 16.3255C3.85894 16.2734 3.88629 16.2131 3.89928 16.149C3.91821 15.971 3.87582 15.7918 3.7791 15.6412C3.68239 15.4906 3.53716 15.3775 3.36743 15.3206L5.13007 12.9673C5.29975 13.0245 5.445 13.1376 5.54204 13.288C5.63908 13.4385 5.68218 13.6175 5.66427 13.7957C5.64928 13.8591 5.62212 13.9191 5.58427 13.9722Z" fill="#FFFCED"/>
<path d="M13.7458 22.2983L15.5108 19.9355L14.4094 22.31L12.6444 24.6704L13.7458 22.2983Z" fill="#3058FE"/>
<path d="M13.7717 22.2582L15.5344 19.9049C15.5256 19.9185 15.5178 19.9327 15.5108 19.9473L13.7458 22.3006C13.7525 22.2854 13.7612 22.2711 13.7717 22.2582Z" fill="#3058FE"/>
<path d="M13.7719 22.2582L15.5345 19.9049C15.5812 19.854 15.6432 19.8197 15.711 19.807C15.7789 19.7943 15.849 19.8038 15.911 19.8343L14.1484 22.1876C14.0868 22.1556 14.0162 22.1451 13.9479 22.1579C13.8797 22.1707 13.8177 22.206 13.7719 22.2582Z" fill="#FFFCED"/>
<path d="M15.1013 22.7736L16.8663 20.4132L17.4146 23.5384L15.652 25.9011L15.1013 22.7736Z" fill="#FFFCED"/>
<path d="M14.1483 22.1852L15.911 19.8248L16.5793 20.0837L14.8143 22.4464L14.1483 22.1852Z" fill="#FFFCED"/>
<path d="M16.6193 20.1026L14.8543 22.4559L14.8143 22.4371L16.5793 20.0837L16.6193 20.1026Z" fill="#FFFCED"/>
<path d="M16.6191 20.1025C16.6783 20.1345 16.7299 20.1788 16.7705 20.2324C16.811 20.2859 16.8397 20.3476 16.8544 20.4132L15.0895 22.7665C15.0764 22.7003 15.0484 22.6379 15.0076 22.584C14.9669 22.5302 14.9144 22.4864 14.8541 22.4559L16.6191 20.1025Z" fill="#FFFCED"/>
<path d="M17.89 23.2984L19.655 20.9451C19.633 20.9747 19.6178 21.0089 19.6105 21.0451C19.6032 21.0813 19.6039 21.1186 19.6127 21.1545L17.8477 23.5078C17.8397 23.4719 17.8394 23.4347 17.8467 23.3986C17.854 23.3626 17.8687 23.3284 17.89 23.2984Z" fill="#3058FE"/>
<path d="M19.6551 20.9379C19.6827 20.9021 19.7185 20.8734 19.7594 20.8542C19.8003 20.835 19.8452 20.8257 19.8904 20.8273L18.1278 23.1806C18.0828 23.1802 18.0382 23.1899 17.9975 23.209C17.9567 23.2282 17.9208 23.2563 17.8925 23.2912L19.6551 20.9379Z" fill="#FFFCED"/>
<path d="M0.990845 12.5649L2.75348 10.2115C3.06838 10.4721 3.42266 10.681 3.80307 10.8305C4.77028 11.2094 5.80808 11.1435 6.4976 10.5693L4.73261 12.9226C4.04309 13.4968 3.00764 13.5627 2.03807 13.1861C1.65825 13.0359 1.30475 12.8262 0.990845 12.5649Z" fill="#3058FE"/>
<path d="M10.3876 23.1359L8.625 25.4892C6.57525 23.0229 5.56567 19.9636 6.17518 17.1938C6.37445 16.2617 6.77084 15.3831 7.33772 14.6169C7.92448 13.8324 8.51204 13.048 9.10037 12.2635C8.53267 13.0334 8.137 13.9162 7.94017 14.8522C7.33302 17.6079 8.34024 20.6696 10.3876 23.1359Z" fill="#3058FE"/>
<path d="M17.8219 28.4451C21.6178 29.2264 25.0936 28.1038 26.9739 25.5881L25.2113 27.9415C23.3286 30.4572 19.8551 31.5773 16.0569 30.7984L17.8219 28.4451Z" fill="#3058FE"/>
<path d="M26.5974 25.3057L24.8324 27.659C22.6909 30.53 18.3843 31.509 13.9695 29.777L15.7415 27.4237C20.1493 29.1557 24.4488 28.1744 26.5974 25.3057Z" fill="#2545C6"/>
<path d="M15.8144 27.0542C20.0504 28.7016 24.1616 27.7744 26.2137 25.0304L24.4487 27.3837C22.3966 30.13 18.283 31.0643 14.0518 29.4099L15.8144 27.0542Z" fill="#3058FE"/>
<path d="M9.10017 12.2613C8.5142 13.0496 7.9235 13.8357 7.33752 14.6146V14.6028L9.10251 12.2495L9.10017 12.2613Z" fill="#3058FE"/>
<path d="M24.0837 32.2056L25.8487 29.8452L29.1316 27.106L27.3666 29.4687L24.0837 32.2056Z" fill="#6783F6"/>
<path d="M14.873 19.8367L16.6356 17.4834C16.6077 17.5842 16.62 17.6919 16.6701 17.7837C16.7202 17.8755 16.804 17.9442 16.9039 17.9752L15.1389 20.3286C15.0388 20.2981 14.9547 20.2293 14.9049 20.1373C14.8551 20.0452 14.8437 19.9372 14.873 19.8367Z" fill="#3058FE"/>
<path d="M15.1414 20.326L16.904 17.9633L18.123 18.441L16.3604 20.8014L15.1414 20.326Z" fill="#3058FE"/>
<path d="M8.72373 11.9765C8.83041 11.8353 8.94103 11.6988 9.05556 11.567L7.29291 13.9203C7.17524 14.0521 7.05758 14.191 6.95874 14.3322L8.72373 11.9765Z" fill="#3058FE"/>
<path d="M16.3605 20.8038L18.1231 18.4504L18.1655 18.4669C18.4533 18.5964 18.7794 18.6124 19.0786 18.5116L17.3136 20.8649C17.0143 20.9645 16.6886 20.9486 16.4005 20.8202L16.3605 20.8038Z" fill="#3058FE"/>
<path d="M27.2257 24.2867C27.0466 24.6442 26.8363 24.9852 26.5974 25.3057L24.8324 27.6591C25.0723 27.3392 25.2826 26.9981 25.4607 26.6401L27.2257 24.2867Z" fill="#3058FE"/>
<path d="M19.596 18.1351L17.8333 20.4885C17.7027 20.6628 17.5209 20.792 17.3132 20.8579L19.0782 18.5046C19.2854 18.4391 19.4666 18.3098 19.596 18.1351Z" fill="#3058FE"/>
<path d="M19.7256 17.9141C19.6909 17.9924 19.6475 18.0667 19.5961 18.1353L17.8335 20.4886C17.8846 20.4198 17.928 20.3456 17.9629 20.2674L19.7256 17.9141Z" fill="#FFFCED"/>
<path d="M19.7255 17.9141L17.9629 20.2674L19.7255 17.9141Z" fill="#FFFCED"/>
<path d="M15.5273 18.4245L17.2923 16.0618L16.6357 17.4738L14.873 19.8341L15.5273 18.4245Z" fill="#3058FE"/>
<path d="M15.5507 18.3846L17.3157 16.0312C17.3065 16.0429 17.2987 16.0555 17.2922 16.0689L15.5272 18.4222L15.5507 18.3846Z" fill="#3058FE"/>
<path d="M21.3752 20.406C21.7156 20.2216 22.0119 19.9654 22.2436 19.6553L20.4786 22.0086C20.2475 22.32 19.9511 22.577 19.6102 22.7617L19.8173 22.4863C20.335 21.7897 20.8535 21.0947 21.3728 20.4013L19.6102 22.7546C19.1511 23.0078 18.6396 23.1512 18.1158 23.1735L19.8785 20.8202C20.4026 20.7992 20.9148 20.6575 21.3752 20.406Z" fill="#FFFCED"/>
<path d="M27.3668 29.4688C28.0564 28.8946 29.0942 28.8287 30.0614 29.2076C30.1696 29.2499 30.2779 29.297 30.3838 29.3511C29.0471 32.0692 26.642 33.9848 23.6604 34.8979C23.1897 33.9048 23.3285 32.8388 24.084 32.2081L27.3668 29.4688Z" fill="#6783F6"/>
<path d="M27.3669 29.4688L29.1319 27.1155C29.8215 26.5413 30.8569 26.4754 31.8265 26.8543C31.9347 26.8967 32.0406 26.9437 32.1465 26.9979L30.3839 29.3512C30.278 29.2971 30.1697 29.25 30.0615 29.2076C29.0943 28.8358 28.0565 28.8946 27.3669 29.4688Z" fill="#6783F6"/>
<path d="M31.1556 28.6122L29.3906 30.9655C29.7706 30.4565 30.103 29.9138 30.3837 29.344L32.1464 26.9907C31.8669 27.5606 31.5352 28.1034 31.1556 28.6122Z" fill="#6783F6"/>
<path d="M15.5508 18.3847L17.3158 16.0313C17.3618 15.9795 17.4236 15.9442 17.4917 15.9311C17.5597 15.9179 17.6302 15.9275 17.6923 15.9584L15.9297 18.3117C15.8672 18.281 15.7964 18.2715 15.728 18.2847C15.6596 18.2978 15.5974 18.3329 15.5508 18.3847Z" fill="#FFFCED"/>
<path d="M19.7066 17.069C19.7786 17.1988 19.8179 17.3442 19.8212 17.4926C19.8245 17.641 19.7916 17.788 19.7255 17.9209L17.9628 20.2742C18.0281 20.1414 18.0602 19.9947 18.0565 19.8468C18.0528 19.6989 18.0134 19.5541 17.9417 19.4246L19.7066 17.069Z" fill="#FFFCED"/>
<path d="M15.9297 18.3118L17.6923 15.9514L18.9255 16.4315L17.1628 18.7942L15.9297 18.3118Z" fill="#FFFCED"/>
<path d="M17.1534 18.7966L18.9161 16.4432C19.2459 16.5477 19.5246 16.7718 19.6974 17.0716L17.9324 19.4249C17.7606 19.1253 17.4826 18.9011 17.1534 18.7966Z" fill="#FFFCED"/>
<path d="M13.6492 15.2499L15.4142 12.8872L11.6065 21.0979L9.84155 23.4607L13.6492 15.2499Z" fill="#FFFCED"/>
<path d="M13.6752 15.2101L15.4378 12.8568C15.4845 12.8051 15.5469 12.7702 15.6153 12.7575C15.6838 12.7447 15.7545 12.7548 15.8167 12.7862L14.0517 15.1395C13.9899 15.1083 13.9195 15.0983 13.8515 15.1111C13.7834 15.1238 13.7215 15.1586 13.6752 15.2101Z" fill="#3058FE"/>
<path d="M20.587 18.787C21.1306 19.7283 21.1965 20.632 20.787 21.498C20.5445 22.039 20.1311 22.4854 19.6104 22.7688C19.1513 23.022 18.6398 23.1654 18.116 23.1877C18.0757 23.186 18.0355 23.1937 17.9986 23.21C17.9617 23.2263 17.9291 23.2508 17.9031 23.2817C17.8772 23.3127 17.8588 23.3491 17.8491 23.3883C17.8395 23.4275 17.8391 23.4684 17.8477 23.5078L18.4667 26.7742C18.509 27.0095 18.2925 27.1507 18.0478 27.0542L15.9298 26.2282C15.8589 26.2016 15.7958 26.1577 15.7461 26.1006C15.6964 26.0435 15.6617 25.9749 15.645 25.9011L15.0944 22.7759C15.0783 22.7012 15.0435 22.6317 14.9933 22.5741C14.9431 22.5165 14.8791 22.4726 14.8073 22.4464L14.1413 22.1875C14.0727 22.15 13.9922 22.1409 13.917 22.162C13.8418 22.1831 13.7778 22.2328 13.7388 22.3005L12.6375 24.6727C12.5981 24.7393 12.5346 24.7882 12.4601 24.8092C12.3856 24.8302 12.3058 24.8218 12.2374 24.7856L10.103 23.9502C10.0029 23.9202 9.91872 23.852 9.86853 23.7604C9.81833 23.6688 9.80618 23.5612 9.83469 23.4607L13.6424 15.25C13.6826 15.1836 13.7466 15.135 13.8213 15.114C13.896 15.0931 13.9759 15.1013 14.0448 15.137L18.1113 16.7278C19.153 17.1018 20.0295 17.8309 20.587 18.787ZM17.963 20.2743C18.0283 20.1415 18.0604 19.9949 18.0567 19.8469C18.053 19.699 18.0136 19.5542 17.9419 19.4247C17.7696 19.125 17.4919 18.9002 17.1629 18.7941L15.9298 18.3234C15.8613 18.2869 15.7814 18.278 15.7066 18.2986C15.6317 18.3192 15.5676 18.3676 15.5274 18.434L14.8731 19.846C14.8445 19.9462 14.8564 20.0535 14.9061 20.1451C14.9558 20.2366 15.0395 20.305 15.1391 20.3355L16.3604 20.8062L16.4004 20.8226C16.6886 20.9509 17.0143 20.9669 17.3135 20.8673C17.4579 20.8213 17.5906 20.7448 17.7027 20.6428C17.8148 20.5409 17.9036 20.416 17.963 20.2767" fill="#3058FE"/>
<path d="M17.1535 18.7964C17.4826 18.901 17.7606 19.1252 17.9324 19.4248C18.0042 19.5542 18.0436 19.699 18.0472 19.8469C18.0509 19.9949 18.0188 20.1415 17.9536 20.2743C17.8941 20.4137 17.8053 20.5386 17.6932 20.6405C17.5812 20.7424 17.4484 20.819 17.3041 20.865C17.0048 20.9646 16.6791 20.9486 16.391 20.8203L16.351 20.8038L15.1296 20.3332C15.03 20.3026 14.9464 20.2343 14.8966 20.1427C14.8469 20.0512 14.8351 19.9438 14.8637 19.8437L15.5179 18.4317C15.5581 18.3653 15.6222 18.3168 15.6971 18.2963C15.7719 18.2757 15.8518 18.2846 15.9203 18.3211L17.1535 18.7964Z" fill="#FFFCED"/>
<path d="M13.6751 15.21L15.4377 12.8567C15.4284 12.87 15.4205 12.8842 15.4142 12.899L13.6492 15.2524C13.6563 15.2374 13.665 15.2232 13.6751 15.21Z" fill="#FFFCED"/>
<path d="M30.5838 24.1596C30.7004 24.217 30.8327 24.2346 30.9603 24.2095C31.0878 24.1844 31.2036 24.1181 31.2898 24.0208L29.5272 26.3741C29.4409 26.4713 29.325 26.5374 29.1973 26.5621C29.0697 26.5868 28.9375 26.5687 28.8212 26.5106C29.3507 25.8116 30.0567 24.868 30.5838 24.1596Z" fill="#3058FE"/>
<path d="M30.0495 23.3289C30.0319 23.5073 30.0751 23.6865 30.172 23.8372C30.269 23.988 30.4141 24.1016 30.5837 24.1597L28.8211 26.513C28.6511 26.4562 28.5056 26.3431 28.4085 26.1926C28.3114 26.042 28.2685 25.8628 28.2869 25.6846L30.0495 23.3313L28.2869 25.6846C28.3003 25.621 28.3267 25.5609 28.3645 25.5081L30.1295 23.1548C30.0912 23.2067 30.0639 23.266 30.0495 23.3289Z" fill="#3058FE"/>
<path d="M4.73254 12.9202L6.49753 10.5575L9.78042 7.81824L8.01778 10.181L4.73254 12.9202Z" fill="#3058FE"/>
<path d="M28.3646 25.5151L30.1296 23.1618C30.2158 23.0645 30.3316 22.9981 30.4591 22.9731C30.5867 22.948 30.719 22.9655 30.8356 23.0229L29.0706 25.3763C28.954 25.3188 28.8217 25.3013 28.6942 25.3264C28.5666 25.3515 28.4508 25.4178 28.3646 25.5151Z" fill="#FFFCED"/>
<path d="M10.0935 7.49829L8.33083 9.85161C8.24069 9.96972 8.13812 10.0778 8.0249 10.174L9.78754 7.82069C9.90189 7.72568 10.0046 7.61746 10.0935 7.49829Z" fill="#3058FE"/>
<path d="M29.0705 25.3786C29.24 25.4361 29.3849 25.5493 29.4819 25.6997C29.5789 25.8501 29.6222 26.0289 29.6047 26.2069C29.5341 26.5223 29.1835 26.6611 28.8211 26.5199C28.6511 26.4631 28.5056 26.3501 28.4085 26.1995C28.3114 26.049 28.2685 25.8698 28.2869 25.6916C28.3551 25.3762 28.7058 25.235 29.0705 25.3786Z" fill="#FFFCED"/>
<path d="M31.2875 24.0207L29.5249 26.3741C29.5627 26.321 29.5899 26.261 29.6049 26.1976C29.6223 26.0195 29.5791 25.8407 29.4821 25.6903C29.3851 25.5399 29.2401 25.4267 29.0707 25.3692L30.8357 23.0159C31.0049 23.0735 31.1496 23.1868 31.2462 23.3372C31.3428 23.4876 31.3856 23.6664 31.3675 23.8442C31.3545 23.9084 31.3272 23.9687 31.2875 24.0207Z" fill="#FFFCED"/>
<path d="M22.2437 19.6578L20.4788 22.0112C20.5993 21.8498 20.7026 21.6763 20.787 21.4934C21.1965 20.6274 21.1306 19.7261 20.587 18.7824L22.3497 16.4291C22.8925 17.3704 22.9599 18.2741 22.552 19.1401C22.4674 19.3229 22.3641 19.4964 22.2437 19.6578Z" fill="#3058FE"/>
<path d="M14.0518 15.1369L15.8167 12.7742L19.8833 14.365L18.1183 16.7254L14.0518 15.1369Z" fill="#3058FE"/>
<path d="M18.1184 16.7278L19.8834 14.3745C20.921 14.7514 21.7936 15.48 22.3497 16.4337L20.5871 18.787C20.0313 17.8321 19.1575 17.1032 18.1184 16.7278Z" fill="#3058FE"/>
<path d="M31.5228 24.6751L33.2878 22.3218C33.263 23.0542 33.1717 23.7828 33.0148 24.4986C32.8277 25.3638 32.5361 26.203 32.1464 26.9978L30.3838 29.3511C30.772 28.5557 31.0636 27.7167 31.2522 26.8519C31.4071 26.1358 31.4977 25.4073 31.5228 24.6751Z" fill="#1A41E0"/>
<path d="M33.288 22.3123L31.523 24.6656C31.363 24.6275 31.2058 24.5788 31.0523 24.5197C30.5606 24.3306 30.1141 24.0404 29.7415 23.6678C29.369 23.2953 29.0788 22.8487 28.8896 22.357L30.6546 20.0037C30.8438 20.4947 31.1337 20.9407 31.5058 21.3128C31.8779 21.6849 32.3239 21.9749 32.815 22.164C32.9692 22.2239 33.1272 22.2734 33.288 22.3123Z" fill="#3058FE"/>
<path d="M7.91196 6.6792C8.92154 7.85586 8.98508 9.37375 8.01786 10.1833L4.72322 12.9202C4.03369 13.4944 2.99823 13.5603 2.02866 13.1838C1.64899 13.0343 1.29552 12.8254 0.981445 12.5649C2.2993 9.6585 4.79381 7.62288 7.91196 6.6792Z" fill="#6783F6"/>
<path d="M2.13428 10.6187L3.89927 8.26538C5.35178 6.3656 7.37762 4.98423 9.67667 4.32593L7.91168 6.67925C5.61227 7.33678 3.58621 8.7183 2.13428 10.6187Z" fill="#A7B8FF"/>
<path d="M10.0935 7.49822L8.3309 9.85154C8.96394 9.00199 8.80156 7.7006 7.91907 6.66985L9.68406 4.31653C10.5642 5.34728 10.7219 6.64867 10.0935 7.49822Z" fill="#6783F6"/>
<path d="M11.1476 8.83241L12.4866 7.03918L11.1476 8.83241Z" fill="#3058FE"/>
<path d="M7.3446 14.6121L9.10724 12.2588C11.1593 9.51249 15.2729 8.57823 19.5066 10.235L17.7416 12.5883C13.5103 10.9339 9.38729 11.8682 7.3446 14.6121Z" fill="#FFFCED"/>
<path d="M9.05586 11.567C11.2915 9.01597 15.3886 8.21113 19.5893 9.85375L17.8243 12.2071C13.626 10.5597 9.52651 11.3716 7.29321 13.9203L8.17337 12.7436L8.5193 12.273L8.85111 11.8305C8.917 11.7599 8.99232 11.6564 9.05586 11.567Z" fill="#3058FE"/>
<path d="M6.58228 14.0567L8.34727 11.7034C10.5806 8.71471 15.0683 7.70279 19.6691 9.49131L17.9065 11.8446C13.3034 10.0443 8.81558 11.0657 6.58228 14.0567Z" fill="#2545C6"/>
<path d="M13.7671 7.04166C13.8366 7.0364 13.9044 7.01674 13.9659 6.98393C14.0275 6.95111 14.0816 6.90586 14.1248 6.85104L12.3598 9.20436C12.3168 9.2594 12.2628 9.3048 12.2012 9.33763C12.1395 9.37047 12.0717 9.39001 12.0021 9.39498C11.8841 9.40376 11.7658 9.38524 11.6561 9.34085C11.5404 9.29667 11.4353 9.22855 11.3477 9.14096C11.2601 9.05336 11.192 8.94827 11.1478 8.83254L12.9175 6.47922L11.1549 8.83254C11.1215 8.75188 11.109 8.66412 11.1184 8.57734C11.1279 8.49056 11.159 8.40756 11.209 8.33599L12.9716 5.98267C12.9224 6.05459 12.8918 6.13754 12.8823 6.22416C12.8729 6.31078 12.885 6.39839 12.9175 6.47922C12.9625 6.59488 13.0311 6.69985 13.1191 6.7874C13.207 6.87494 13.3123 6.94311 13.4282 6.98753C13.5356 7.03109 13.6514 7.0496 13.7671 7.04166Z" fill="#3058FE"/>
<path d="M11.2018 8.3477L12.9644 5.99438C13.0076 5.93956 13.0617 5.89431 13.1232 5.86149C13.1848 5.82868 13.2525 5.80902 13.3221 5.80376C13.4401 5.79498 13.5584 5.8135 13.6681 5.85789L11.9031 8.21121C11.7941 8.1674 11.6765 8.14967 11.5595 8.15943C11.4899 8.16353 11.422 8.18245 11.3603 8.21492C11.2986 8.24739 11.2446 8.29266 11.2018 8.3477Z" fill="#FFFCED"/>
<path d="M14.1249 6.85094L12.3599 9.20426C12.41 9.13277 12.4413 9.04976 12.4508 8.96294C12.4602 8.87612 12.4476 8.78832 12.414 8.70771C12.369 8.59205 12.3004 8.48707 12.2124 8.39953C12.1245 8.31199 12.0192 8.24381 11.9033 8.19939L13.6683 5.84607C13.7843 5.89024 13.8897 5.95832 13.9777 6.04589C14.0657 6.13347 14.1343 6.23858 14.179 6.35439C14.2117 6.43518 14.2239 6.52282 14.2145 6.60948C14.205 6.69614 14.1742 6.7791 14.1249 6.85094Z" fill="#FFFCED"/>
<path d="M11.903 8.20892C12.0189 8.25334 12.1242 8.32152 12.2121 8.40906C12.3001 8.4966 12.3687 8.60158 12.4137 8.71724C12.4468 8.78893 12.4619 8.86762 12.4576 8.94647C12.4534 9.02531 12.43 9.10193 12.3894 9.16966C12.3488 9.23739 12.2923 9.29418 12.2247 9.33509C12.1572 9.376 12.0807 9.3998 12.0019 9.40441C11.8839 9.41319 11.7655 9.39467 11.6559 9.35028C11.5402 9.3061 11.4351 9.23798 11.3475 9.15039C11.2599 9.06279 11.1918 8.95769 11.1476 8.84197C11.115 8.77038 11.1003 8.69194 11.1048 8.61341C11.1093 8.53487 11.1328 8.45861 11.1733 8.3912C11.2139 8.32379 11.2702 8.26726 11.3375 8.22649C11.4047 8.18571 11.4809 8.16191 11.5594 8.15715C11.6764 8.14739 11.7941 8.16512 11.903 8.20892Z" fill="#FFFCED"/>
<path d="M26.2138 25.028L24.4511 27.3813C25.0234 26.6122 25.4246 25.7295 25.6278 24.7926C26.6468 20.1472 23.1215 14.6734 17.7512 12.5789L19.5162 10.2256C24.8841 12.3224 28.4118 17.7915 27.3904 22.437C27.1896 23.3754 26.7882 24.2592 26.2138 25.028Z" fill="#FFFCED"/>
<path d="M27.2255 24.2867C27.2244 24.2922 27.2244 24.2978 27.2255 24.3032L25.4722 26.6565C25.7372 26.1244 25.9356 25.5616 26.0629 24.981C26.6819 22.157 25.6841 19.0271 23.632 16.4808L25.3969 14.1274C27.449 16.6761 28.4563 19.8013 27.8256 22.6276C27.6952 23.2034 27.4936 23.7607 27.2255 24.2867Z" fill="#3058FE"/>
<path d="M25.3901 14.1086L23.6251 16.4619C23.4792 16.2784 23.3286 16.0995 23.1709 15.923L24.9335 13.5697C25.0865 13.7486 25.2395 13.9274 25.3901 14.1086Z" fill="#3058FE"/>
<path d="M24.0578 12.6802C24.3637 12.9673 24.6555 13.2638 24.9285 13.5721L23.1659 15.9254C22.8906 15.6195 22.6011 15.3206 22.2952 15.0358L24.0578 12.6802Z" fill="#3058FE"/>
<path d="M24.058 12.6802L22.2954 15.0335C22.0765 14.8288 21.853 14.6311 21.62 14.4405L23.385 12.0872C23.6156 12.2778 23.8415 12.4755 24.058 12.6802Z" fill="#3058FE"/>
<path d="M19.5891 9.85388C20.9643 10.3935 22.2454 11.1472 23.385 12.0872L21.62 14.4405C20.4806 13.4996 19.1995 12.7451 17.8241 12.2048L19.5891 9.85388Z" fill="#3058FE"/>
<path d="M17.1533 6.7732L15.3883 9.12652C15.2379 9.03804 15.094 8.93895 14.9576 8.83C15.5444 8.04556 16.1319 7.26112 16.7203 6.47668C16.8574 6.58565 17.0021 6.68474 17.1533 6.7732Z" fill="#3058FE"/>
<path d="M17.1534 6.77332C17.3301 6.87847 17.515 6.96899 17.7064 7.04395L15.9415 9.39727C15.7502 9.32185 15.5653 9.23135 15.3884 9.12664L17.1534 6.77332Z" fill="#3058FE"/>
<path d="M17.9066 11.8448C23.7405 14.1252 27.5881 20.0814 26.4797 25.1387C25.3713 30.196 19.7233 32.434 13.8871 30.1607C8.05088 27.8874 4.20791 21.9241 5.31632 16.8644C6.42474 11.8048 12.0727 9.56442 17.9066 11.8448ZM13.9695 29.7912C19.568 31.9798 24.9877 29.8171 26.0491 24.9716C27.1104 20.1261 23.4228 14.4028 17.8242 12.2143C12.2257 10.0257 6.80598 12.186 5.74463 17.0315C4.68328 21.877 8.37093 27.6003 13.9812 29.7912" fill="#2545C6"/>
<path d="M17.7419 12.5978C23.1122 14.6969 26.6375 20.166 25.6185 24.8115C24.5995 29.4569 19.4198 31.5255 14.0519 29.4263C8.684 27.3272 5.15166 21.8463 6.17536 17.2009C7.19905 12.5554 12.374 10.4798 17.7419 12.5978ZM20.7871 21.5074C21.1966 20.6414 21.1307 19.7401 20.5871 18.7964C20.0314 17.8416 19.1575 17.1126 18.1185 16.7372L14.0519 15.1464C13.983 15.1107 13.9031 15.1025 13.8284 15.1234C13.7537 15.1444 13.6897 15.193 13.6495 15.2594L9.84183 23.4701C9.81332 23.5706 9.82548 23.6782 9.87567 23.7698C9.92587 23.8614 10.0101 23.9296 10.1101 23.9596L12.2446 24.795C12.313 24.8312 12.3927 24.8396 12.4672 24.8186C12.5417 24.7976 12.6052 24.7487 12.6446 24.6821L13.746 22.3099C13.785 22.2422 13.849 22.1925 13.9242 22.1714C13.9994 22.1503 14.0799 22.1594 14.1484 22.1969L14.8144 22.4558C14.8862 22.482 14.9502 22.5259 15.0004 22.5835C15.0506 22.6411 15.0854 22.7106 15.1015 22.7853L15.6522 25.9105C15.6688 25.9843 15.7035 26.0529 15.7532 26.11C15.8029 26.1671 15.8661 26.211 15.9369 26.2376L18.0549 27.0636C18.2903 27.1601 18.5256 27.0165 18.4738 26.7836L17.8596 23.5077C17.8509 23.4683 17.8514 23.4275 17.861 23.3883C17.8706 23.3491 17.8891 23.3126 17.915 23.2817C17.9409 23.2508 17.9736 23.2262 18.0105 23.2099C18.0474 23.1936 18.0876 23.186 18.1279 23.1877C18.6517 23.1654 19.1632 23.022 19.6222 22.7688C20.1434 22.486 20.5569 22.0394 20.7989 21.498" fill="#FFFCED"/>
<path d="M26.9761 25.5858L25.2111 27.9391C25.8309 27.1045 26.2635 26.1462 26.4795 25.1293C27.5879 20.0814 23.7403 14.1157 17.9064 11.8354L19.669 9.48206C25.5052 11.7648 29.3506 17.7187 28.2445 22.7783C28.027 23.794 27.5945 24.7513 26.9761 25.5858Z" fill="#2545C6"/>
<path d="M27.2328 17.695L28.9978 15.3323L30.6592 20.0036L28.8942 22.3663L27.2328 17.695Z" fill="#3058FE"/>
<path d="M24.1945 14.1697L25.5335 12.3765L24.1945 14.1697Z" fill="#3058FE"/>
<path d="M26.9031 11.9507C26.9304 11.9286 26.9549 11.9033 26.9761 11.8754L25.2111 14.2287C25.1906 14.2579 25.166 14.284 25.1382 14.3063C25.0475 14.3717 24.9411 14.4118 24.8299 14.4226C24.7187 14.4333 24.6066 14.4143 24.5051 14.3675C24.3885 14.3216 24.2827 14.2518 24.1945 14.1628L25.9571 11.8095L24.1945 14.1628C24.0792 14.0694 24.0013 13.9377 23.9749 13.7917C23.9486 13.6457 23.9756 13.4951 24.0509 13.3674L25.8159 11.014C25.7409 11.1423 25.7141 11.2932 25.7404 11.4394C25.7667 11.5857 25.8444 11.7178 25.9595 11.8118C26.0479 11.9006 26.1536 11.9703 26.2701 12.0166C26.372 12.0627 26.4843 12.0809 26.5956 12.0693C26.7068 12.0577 26.8129 12.0168 26.9031 11.9507Z" fill="#3058FE"/>
<path d="M27.4634 15.5888L29.226 13.2355C29.0144 13.5387 28.8821 13.89 28.841 14.2575C28.7999 14.625 28.8513 14.9969 28.9907 15.3393L27.2257 17.6927C27.0871 17.3499 27.0363 16.978 27.0778 16.6106C27.1193 16.2432 27.2518 15.892 27.4634 15.5888Z" fill="#3058FE"/>
<path d="M24.051 13.3742L25.816 11.0209C25.8365 10.9917 25.8611 10.9655 25.889 10.9433C25.9796 10.8779 26.086 10.8378 26.1972 10.827C26.3084 10.8163 26.4205 10.8353 26.522 10.8821L24.757 13.2354C24.6555 13.1886 24.5434 13.1696 24.4322 13.1803C24.321 13.1911 24.2146 13.2312 24.124 13.2966C24.0967 13.3195 24.0722 13.3456 24.051 13.3742Z" fill="#FFFCED"/>
<path d="M24.7571 13.2356C24.8752 13.28 24.982 13.3499 25.0701 13.4403C25.3501 13.7204 25.383 14.111 25.1383 14.3134C25.0477 14.3788 24.9413 14.4189 24.8301 14.4296C24.7188 14.4404 24.6067 14.4214 24.5053 14.3746C24.3886 14.3286 24.2828 14.2589 24.1946 14.1698C23.9122 13.8874 23.8816 13.4968 24.124 13.2968C24.2147 13.2314 24.321 13.1913 24.4323 13.1805C24.5435 13.1698 24.6556 13.1888 24.7571 13.2356Z" fill="#FFFCED"/>
<path d="M26.976 11.8753L25.211 14.2286C25.2867 14.1011 25.314 13.9507 25.2881 13.8047C25.2622 13.6587 25.1847 13.5269 25.0698 13.4332C24.9818 13.3428 24.8749 13.2729 24.7568 13.2284L26.5218 10.8751C26.638 10.922 26.7436 10.9916 26.8325 11.0799C26.9473 11.1735 27.025 11.3052 27.0513 11.451C27.0776 11.5969 27.0509 11.7474 26.976 11.8753Z" fill="#FFFCED"/>
<path d="M27.4633 15.5889L29.2259 13.2356C29.4517 12.9373 29.7578 12.7096 30.1084 12.579L28.3458 14.9323C27.995 15.0625 27.6887 15.2903 27.4633 15.5889Z" fill="#6783F6"/>
<path d="M15.3907 3.79639C15.306 4.75183 15.8355 5.78259 16.7133 6.47682C16.125 7.26126 15.5374 8.0457 14.9507 8.83014C14.0705 8.12414 13.5387 7.10515 13.6257 6.14971L15.3907 3.79639Z" fill="#3058FE"/>
<path d="M15.9343 9.40433L17.6993 7.04395L22.6436 8.97602L20.881 11.3388L15.9343 9.40433Z" fill="#3058FE"/>
<path d="M25.4559 8.59705L23.6932 10.9504C23.0602 11.574 21.9847 11.7552 20.8693 11.3222L22.6343 8.96887C23.7427 9.40894 24.8252 9.23009 25.4559 8.59705Z" fill="#3058FE"/>
<path d="M13.6235 6.15918C15.3654 6.33213 17.0747 6.74717 18.7019 7.39232C20.6259 8.14771 22.4301 9.17821 24.0581 10.4516C23.5663 11.4753 22.2437 11.8636 20.8764 11.3412L15.9344 9.40911C14.4942 8.83255 13.5129 7.43233 13.6235 6.15918Z" fill="#6783F6"/>
<path d="M31.5228 24.6751C31.4977 25.4073 31.4071 26.1358 31.2522 26.8519C31.0636 27.7167 30.7721 28.5557 30.3838 29.3511C30.2779 29.297 30.1697 29.25 30.0614 29.2076C29.0942 28.8287 28.0564 28.8946 27.3669 29.4688L24.084 32.2081C23.3286 32.8388 23.1991 33.9048 23.6604 34.8979C21.9479 35.4081 20.1568 35.6019 18.3748 35.4698C18.2179 34.9129 17.9326 34.4006 17.5419 33.974C17.1512 33.5473 16.666 33.2181 16.1251 33.0129L11.1831 31.0808C9.95936 30.6102 8.77093 30.8761 8.1826 31.6739C6.52163 30.4868 5.03893 29.0683 3.77954 27.4614C4.79617 27.0355 5.25978 25.9341 4.82912 24.7245L3.1818 20.0532C2.99267 19.5614 2.70246 19.1149 2.32993 18.7423C1.95739 18.3698 1.51082 18.0796 1.0191 17.8905C0.698324 17.7605 0.359333 17.6812 0.0142234 17.6551C-0.0111185 16.6734 0.0813307 15.6921 0.289572 14.7323C0.449162 13.9851 0.685757 13.2563 0.995568 12.5579C1.30964 12.8184 1.66312 13.0273 2.04278 13.1768C3.01235 13.5533 4.04782 13.4874 4.73734 12.9132L8.03199 10.1763C8.9992 9.36675 8.93566 7.84415 7.92608 6.6722C9.77419 6.13449 11.709 5.96027 13.6235 6.15917C13.5105 7.43232 14.4919 8.84196 15.9321 9.40676L20.8741 11.3388C22.2413 11.873 23.5639 11.473 24.0557 10.4493C25.6949 11.7224 27.1387 13.2289 28.3411 14.9206C27.2821 15.3277 26.7927 16.4502 27.228 17.6834L28.8895 22.3547C29.0786 22.8465 29.3688 23.293 29.7413 23.6656C30.1139 24.0381 30.5604 24.3283 31.0522 24.5174C31.2053 24.5805 31.3626 24.6332 31.5228 24.6751ZM13.887 30.1607C19.7233 32.4434 25.3736 30.1889 26.4797 25.1387C27.5857 20.0885 23.7428 14.1252 17.9065 11.8448C12.0703 9.56443 6.42232 11.8166 5.31626 16.8644C4.2102 21.9123 8.05317 27.8803 13.887 30.1607ZM3.1159 16.4714C3.48066 16.6126 3.8219 16.4714 3.89956 16.1561C3.91848 15.9781 3.87609 15.799 3.77938 15.6483C3.68267 15.4977 3.53743 15.3846 3.3677 15.3277C3.00294 15.1865 2.66172 15.3277 2.5817 15.6407C2.56367 15.8192 2.60668 15.9985 2.70371 16.1494C2.80073 16.3002 2.94603 16.4138 3.1159 16.4714ZM28.8212 26.5201C29.1836 26.6613 29.5272 26.5201 29.6049 26.2071C29.6223 26.029 29.5791 25.8502 29.4821 25.6999C29.3851 25.5495 29.2401 25.4363 29.0707 25.3787C28.7059 25.2352 28.3647 25.3787 28.287 25.6917C28.2687 25.87 28.3116 26.0491 28.4087 26.1997C28.5058 26.3503 28.6513 26.4633 28.8212 26.5201ZM11.5596 8.1642C11.4811 8.16897 11.4049 8.19276 11.3377 8.23354C11.2704 8.27432 11.2141 8.33085 11.1735 8.39826C11.133 8.46567 11.1095 8.54193 11.105 8.62046C11.1005 8.69899 11.1152 8.77743 11.1478 8.84902C11.192 8.96475 11.2601 9.06985 11.3477 9.15744C11.4353 9.24503 11.5404 9.31315 11.6561 9.35734C11.7657 9.40172 11.8841 9.42024 12.002 9.41146C12.0809 9.40685 12.1574 9.38306 12.2249 9.34215C12.2925 9.30124 12.349 9.24445 12.3896 9.17672C12.4302 9.10899 12.4536 9.03237 12.4578 8.95352C12.4621 8.87467 12.447 8.79598 12.4139 8.72429C12.3689 8.60863 12.3003 8.50366 12.2123 8.41612C12.1244 8.32857 12.0191 8.2604 11.9032 8.21598C11.7943 8.17217 11.6766 8.15444 11.5596 8.1642ZM20.6293 33.6977C20.7078 33.693 20.784 33.6692 20.8513 33.6284C20.9185 33.5876 20.9749 33.5311 21.0154 33.4637C21.0559 33.3963 21.0795 33.32 21.0839 33.2415C21.0884 33.1629 21.0737 33.0845 21.0411 33.0129C20.9962 32.8973 20.9275 32.7923 20.8396 32.7047C20.7516 32.6172 20.6463 32.549 20.5305 32.5046C20.4218 32.4598 20.3039 32.4421 20.1869 32.4528C20.1082 32.4572 20.0317 32.4808 19.9641 32.5214C19.8966 32.562 19.8399 32.6185 19.7991 32.686C19.7583 32.7534 19.7346 32.8298 19.73 32.9085C19.7254 32.9872 19.74 33.0659 19.7727 33.1376C19.8177 33.2533 19.8863 33.3583 19.9743 33.4458C20.0622 33.5334 20.1675 33.6015 20.2834 33.646C20.3928 33.6909 20.5115 33.7087 20.6293 33.6977ZM8.06258 28.5604C8.29791 28.358 8.27203 27.9674 7.99434 27.6873C7.90453 27.5974 7.79718 27.5269 7.67899 27.4803C7.57742 27.4333 7.46513 27.4144 7.3538 27.4256C7.24246 27.4368 7.13615 27.4776 7.04594 27.5438C6.81061 27.7438 6.8365 28.1368 7.11654 28.4169C7.20518 28.5065 7.31188 28.5763 7.42954 28.6216C7.53101 28.6684 7.64311 28.6874 7.75434 28.6767C7.86557 28.6659 7.97194 28.6258 8.06258 28.5604ZM24.124 13.3039C23.8887 13.5039 23.9122 13.8945 24.1946 14.1769C24.2828 14.266 24.3886 14.3357 24.5052 14.3817C24.6067 14.4285 24.7188 14.4475 24.83 14.4367C24.9413 14.426 25.0476 14.3859 25.1383 14.3205C25.3736 14.1181 25.3501 13.7275 25.07 13.4474C24.982 13.357 24.8751 13.2871 24.757 13.2427C24.6556 13.1959 24.5435 13.1769 24.4322 13.1876C24.321 13.1984 24.2146 13.2385 24.124 13.3039Z" fill="#3058FE"/>
<path d="M17.8239 12.2142C12.2253 10.0256 6.80566 12.1859 5.74431 17.0314C4.68296 21.8769 8.37062 27.6002 13.9809 29.7911C19.5912 31.9821 24.9992 29.817 26.0605 24.9715C27.1219 20.126 23.4224 14.4028 17.8239 12.2142ZM25.6252 24.8021C24.6062 29.4475 19.4265 31.5161 14.0586 29.4169C8.69066 27.3178 5.15126 21.8463 6.17496 17.2009C7.19865 12.5554 12.3736 10.4798 17.7415 12.5978C23.1095 14.7158 26.6371 20.166 25.6181 24.8115" fill="#3058FE"/>
<path d="M7.91199 6.6791L9.67698 4.32578C11.5298 3.78333 13.4705 3.60669 15.3908 3.8057L13.6259 6.15902C11.7055 5.96025 9.76487 6.13689 7.91199 6.6791Z" fill="#5878FE"/>
<path d="M28.3456 14.9323L30.1082 12.579C32.2262 15.5842 33.4029 19.0153 33.2876 22.3194L31.5226 24.6727C31.6379 21.3686 30.4612 17.9375 28.3456 14.9323Z" fill="#A7B8FF"/>
<path d="M28.3459 14.9323C30.4639 17.9374 31.6406 21.3686 31.5229 24.675C31.363 24.6369 31.2057 24.5882 31.0523 24.5291C30.5605 24.34 30.114 24.0498 29.7414 23.6772C29.3689 23.3047 29.0787 22.8581 28.8896 22.3664L27.2281 17.6951C26.8022 16.4619 27.287 15.3394 28.3459 14.9323Z" fill="#6783F6"/>
<path d="M25.4561 8.59714C25.5222 8.53179 25.5836 8.4618 25.6397 8.3877L23.8747 10.741C23.8201 10.8164 23.7595 10.8872 23.6935 10.9528L25.0419 9.14782L25.249 8.86777L25.2773 8.83247L25.3314 8.75952L25.3573 8.72422C25.3902 8.69363 25.4208 8.64656 25.4561 8.59714Z" fill="#3058FE"/>
<path d="M25.6395 8.3948L23.8768 10.7481C23.9484 10.6528 24.0099 10.5502 24.0604 10.4422L25.8254 8.08887C25.773 8.19639 25.7108 8.29881 25.6395 8.3948Z" fill="#6783F6"/>
<path d="M24.0604 10.4493L25.8254 8.09595C27.4655 9.36733 28.9088 10.874 30.1085 12.5673L28.3458 14.9206C27.1434 13.2289 25.6996 11.7224 24.0604 10.4493Z" fill="#4C6EF8"/>
<path d="M13.6235 6.15911L15.3885 3.80579C17.1302 3.98024 18.8393 4.39524 20.467 5.03893C22.3904 5.79533 24.1945 6.82575 25.8232 8.09824L24.0582 10.4516C22.4301 9.17814 20.6259 8.14763 18.702 7.39225C17.0747 6.7471 15.3655 6.33206 13.6235 6.15911Z" fill="#A7B8FF"/>
<path d="M55.4469 3.70279C55.1523 2.2757 54.2894 1.15049 53.195 0.766278C51.1957 0.0527344 43.1985 0.0527344 43.1985 0.0527344C43.1985 0.0527344 35.2013 0.0527344 33.202 0.738834C32.1287 1.12305 31.2448 2.2757 30.9502 3.70279C30.4241 6.30997 30.4241 11.7164 30.4241 11.7164C30.4241 11.7164 30.4241 17.1503 30.9502 19.7301C31.2448 21.1572 32.1077 22.2824 33.202 22.6666C35.2224 23.3801 43.1985 23.3801 43.1985 23.3801C43.1985 23.3801 51.1957 23.3801 53.195 22.694C54.2894 22.3098 55.1523 21.1846 55.4469 19.7575C55.973 17.1503 55.973 11.7439 55.973 11.7439C55.973 11.7439 55.9941 6.30997 55.4469 3.70279Z" fill="#670320"/>
<path opacity="0.45" d="M51.0038 8.14602C50.7091 6.71894 49.8463 5.59373 48.7519 5.20952C46.7526 4.49597 38.7554 4.49597 38.7554 4.49597C38.7554 4.49597 30.7582 4.49597 28.7589 5.18207C27.6856 5.56629 26.8017 6.71894 26.5071 8.14602C25.981 10.7532 25.981 16.1597 25.981 16.1597C25.981 16.1597 25.981 21.5936 26.5071 24.1733C26.8017 25.6004 27.6646 26.7256 28.7589 27.1098C30.7793 27.8234 38.7554 27.8234 38.7554 27.8234C38.7554 27.8234 46.7526 27.8234 48.7519 27.1373C49.8463 26.7531 50.7091 25.6279 51.0038 24.2008C51.5299 21.5936 51.5299 16.1871 51.5299 16.1871C51.5299 16.1871 51.551 10.7532 51.0038 8.14602Z" fill="#670320"/>
<path d="M53.2253 5.92434C52.9307 4.49726 52.0678 3.37205 50.9735 2.98784C48.9742 2.27429 40.977 2.27429 40.977 2.27429C40.977 2.27429 32.9798 2.27429 30.9805 2.96039C29.9072 3.34461 29.0233 4.49726 28.7286 5.92434C28.2025 8.53152 28.2025 13.938 28.2025 13.938C28.2025 13.938 28.2025 19.3719 28.7286 21.9516C29.0233 23.3787 29.8861 24.5039 30.9805 24.8881C33.0008 25.6017 40.977 25.6017 40.977 25.6017C40.977 25.6017 48.9742 25.6017 50.9735 24.9156C52.0678 24.5314 52.9307 23.4062 53.2253 21.9791C53.7515 19.3719 53.7515 13.9654 53.7515 13.9654C53.7515 13.9654 53.7725 8.53152 53.2253 5.92434Z" fill="#D1013E"/>
<path d="M37.0891 18.9833C37.0891 19.8061 37.9281 20.3168 38.5923 19.8982L46.5971 14.853C47.2497 14.4416 47.2497 13.4345 46.5971 13.0231L38.5923 7.9779C37.9281 7.5593 37.0891 8.06996 37.0891 8.89281V18.9833Z" fill="#F7F3E1"/>
</svg>
