<svg width="48" height="48" viewBox="0 0 48 48" fill="none" xmlns="http://www.w3.org/2000/svg">
<path d="M17.9613 6.98208C17.931 6.92195 17.9048 6.85983 17.8829 6.79614C17.4567 5.77925 17.0306 4.76138 16.6045 3.74255C16.7597 3.93795 16.8868 4.15407 16.9822 4.38465L18.339 7.62418C18.2407 7.39506 18.1138 7.17931 17.9613 6.98208Z" fill="#FE3030"/>
<path d="M22.9644 8.23728L22.3833 6.82816L21.6221 4.99775C21.7895 4.96022 21.9631 4.96022 22.1305 4.99775L22.2874 5.37836L22.4559 5.77931L22.6302 6.19478L22.8075 6.61897L22.9847 7.04316L23.159 7.45863L23.3275 7.85958L23.4844 8.24019C23.3138 8.19771 23.1355 8.19671 22.9644 8.23728Z" fill="#FE3030"/>
<path d="M23.4701 8.23438L22.1162 4.99194L22.2731 5.37255L22.4416 5.7735L22.6159 6.18897L22.7932 6.61316L22.9704 7.03735L23.1447 7.45282L23.3132 7.85377L23.4701 8.23438Z" fill="#FE3030"/>
<path d="M26.8518 7.19705L25.5095 3.95752C25.226 3.25612 25.2188 2.47339 25.4891 1.76685L26.8518 5.00637C26.5749 5.71035 26.5749 6.49307 26.8518 7.19705Z" fill="#FE3030"/>
<path d="M20.7275 6.03784L20.8467 6.32838L20.9687 6.61892L21.0965 6.92399L21.2273 7.23777L21.3609 7.55447L21.4946 7.87406L21.6253 8.19075L21.756 8.50163L20.7275 6.04075V6.03784Z" fill="#FE3030"/>
<path d="M22.0842 9.27735C22.0899 9.33638 22.1046 9.39419 22.1278 9.44877L20.7738 6.20633C20.7506 6.1526 20.7349 6.09588 20.7274 6.03782C21.1806 7.11863 21.6319 8.19847 22.0813 9.27735C21.6319 8.19654 21.1806 7.11669 20.7274 6.03782C20.6692 5.58748 21.0644 5.11971 21.599 4.99768L22.9558 8.23721C22.4183 8.35924 22.0232 8.83863 22.0842 9.27735Z" fill="#FE3030"/>
<path d="M24.0134 8.65857C23.963 8.54983 23.8875 8.45465 23.793 8.38089C23.6985 8.30713 23.5878 8.25691 23.4701 8.23438L22.1162 4.99194C22.2336 5.01542 22.3438 5.06636 22.4377 5.14059C22.5316 5.21483 22.6066 5.31024 22.6566 5.41904L24.0134 8.65857Z" fill="#FE3030"/>
<path d="M16.9737 4.38464L18.3305 7.62417C18.8942 8.97519 18.3305 10.6807 16.8168 11.8254L15.46 8.58586C16.9882 7.44113 17.5548 5.73566 16.9737 4.38464Z" fill="#F67067"/>
<path d="M22.6567 5.41895L24.0135 8.65847C24.0342 8.71288 24.0488 8.76939 24.0571 8.82699C24.1123 9.27733 23.7201 9.7451 23.1855 9.86713C23.0183 9.90626 22.8443 9.90626 22.677 9.86713C22.5599 9.84395 22.45 9.79345 22.356 9.71974C22.2621 9.64603 22.187 9.55119 22.1366 9.44294L20.7827 6.2005C20.8314 6.30937 20.9057 6.40483 20.9993 6.47871C21.0929 6.55258 21.203 6.60267 21.3202 6.62469C21.4874 6.66393 21.6615 6.66393 21.8287 6.62469C22.372 6.50266 22.7671 6.04361 22.7003 5.58455C22.6934 5.52762 22.6787 5.4719 22.6567 5.41895Z" fill="#FFFCED"/>
<path d="M22.1162 4.99189C22.2602 5.01913 22.3927 5.08914 22.4964 5.19279C22.6 5.29645 22.6701 5.42893 22.6973 5.57297C22.7525 6.02331 22.3574 6.49108 21.8257 6.61311C21.6585 6.65235 21.4844 6.65235 21.3172 6.61311C21.1722 6.5882 21.0384 6.51895 20.9344 6.41489C20.8303 6.31083 20.761 6.17707 20.7361 6.03203C20.678 5.58169 21.0732 5.11392 21.6078 4.99189C21.7752 4.95436 21.9488 4.95436 22.1162 4.99189Z" fill="#FFFCED"/>
<path d="M15.4683 8.58301L16.8252 11.8225L10.8139 16.3492L9.45996 13.1096L15.4683 8.58301Z" fill="#F67067"/>
<path d="M26.8521 7.19705L25.5098 3.95752C25.7192 4.42141 26.0371 4.82822 26.4365 5.14371C26.8359 5.4592 27.3052 5.67416 27.805 5.7705L29.1764 9.01003C28.6712 8.91846 28.1957 8.70565 27.7909 8.38987C27.386 8.07408 27.0639 7.66476 26.8521 7.19705Z" fill="#F67067"/>
<path d="M9.46037 13.1096L10.8143 16.3492C10.2241 16.8004 9.54362 17.1193 8.81921 17.2842C8.0948 17.4492 7.34337 17.4563 6.61597 17.305C6.12287 17.1934 5.65866 16.9796 5.25334 16.6775L3.89941 13.4379C4.30582 13.7401 4.77097 13.9539 5.26496 14.0655C5.99192 14.2161 6.74275 14.2087 7.4666 14.0438C8.19045 13.8788 8.8704 13.5603 9.46037 13.1096Z" fill="#F67067"/>
<path d="M6.49072 16.7559L6.60694 17.0464L6.73187 17.3369L6.85971 17.6449L6.99045 17.9558L7.1241 18.2754L7.25484 18.5921L7.38849 18.9088L7.51923 19.2196L6.49072 16.7617V16.7559Z" fill="#FE3030"/>
<path d="M6.53736 20.5997C6.48795 20.6929 6.45925 20.7957 6.45323 20.901C6.44721 21.0063 6.46402 21.1117 6.5025 21.2099L5.14568 17.9704C5.1072 17.8721 5.09039 17.7668 5.09641 17.6615C5.10242 17.5562 5.13112 17.4534 5.18054 17.3602L6.53736 20.5997L5.18054 17.3602C5.30563 17.1326 5.50039 16.9511 5.73623 16.8424C5.97207 16.7336 6.23656 16.7033 6.49088 16.7559C6.94025 17.8328 7.39155 18.9127 7.8448 19.9954C7.39543 18.9146 6.94413 17.8348 6.49088 16.7559C6.60799 16.7781 6.718 16.8283 6.81157 16.9022C6.90515 16.976 6.97952 17.0714 7.02838 17.1801L8.38521 20.4196C8.33628 20.3104 8.26152 20.2147 8.16737 20.1408C8.07323 20.0669 7.96252 20.017 7.8448 19.9954C7.59087 19.9425 7.32667 19.9727 7.09123 20.0816C6.85579 20.1904 6.6616 20.3721 6.53736 20.5997Z" fill="#FE3030"/>
<path d="M7.02821 17.1801L8.38504 20.4196C8.42365 20.5173 8.44054 20.6222 8.43452 20.727C8.4285 20.8319 8.39972 20.9342 8.35017 21.0268C8.22595 21.2555 8.03156 21.4382 7.79566 21.548C7.55975 21.6579 7.29479 21.6891 7.03983 21.637C6.9227 21.6137 6.81281 21.5628 6.71931 21.4886C6.62582 21.4143 6.55142 21.3187 6.50233 21.2099L5.14551 17.9703C5.19485 18.0793 5.26972 18.1747 5.36379 18.2486C5.45787 18.3224 5.56837 18.3725 5.68591 18.3945C5.94057 18.4473 6.20547 18.4168 6.44145 18.3075C6.67743 18.1981 6.87195 18.0157 6.99625 17.7873C7.04459 17.6942 7.07245 17.5919 7.07797 17.4871C7.08348 17.3824 7.06651 17.2777 7.02821 17.1801Z" fill="#FFFCED"/>
<path d="M6.49071 16.7559C6.60185 16.7737 6.70707 16.818 6.79754 16.885C6.88802 16.9519 6.96109 17.0396 7.01063 17.1407C7.06016 17.2417 7.08472 17.3532 7.08221 17.4658C7.07971 17.5783 7.05023 17.6886 6.99625 17.7873C6.87195 18.0158 6.67743 18.1982 6.44145 18.3075C6.20548 18.4169 5.94057 18.4474 5.68591 18.3946C5.57436 18.3769 5.46872 18.3326 5.3779 18.2655C5.28709 18.1983 5.21378 18.1103 5.16419 18.0088C5.1146 17.9074 5.09018 17.7955 5.09299 17.6826C5.09581 17.5697 5.12578 17.4591 5.18037 17.3602C5.30511 17.1323 5.49982 16.9505 5.73576 16.8417C5.9717 16.7329 6.23637 16.7028 6.49071 16.7559Z" fill="#FFFCED"/>
<path d="M34.6092 7.36848L35.966 10.608L29.1615 9.01004L27.8047 5.77051L34.6092 7.36848Z" fill="#F67067"/>
<path d="M39.781 5.43933L41.1378 8.67886C40.5418 9.45123 39.7416 10.0415 38.8277 10.3829C37.9138 10.7244 36.9226 10.8033 35.9662 10.611L34.6094 7.38595C35.5672 7.57881 36.56 7.49857 37.4744 7.15437C38.3888 6.81018 39.1881 6.2159 39.781 5.43933Z" fill="#F67067"/>
<path d="M22.8192 14.1469L24.1731 17.3864C24.0523 17.3612 23.9267 17.3707 23.811 17.4139C23.6953 17.4571 23.5942 17.5322 23.5194 17.6304L22.1626 14.3909C22.2381 14.2927 22.3397 14.2177 22.4558 14.1745C22.572 14.1313 22.6979 14.1218 22.8192 14.1469Z" fill="#FFFCED"/>
<path d="M3.31832 24.0717C2.84257 23.9607 2.35201 23.9274 1.86562 23.9729L0.508789 20.7334C0.995054 20.6888 1.4853 20.7212 1.96149 20.8292C2.41086 21.9101 2.86217 22.9899 3.31541 24.0688L2.99001 23.2901L1.96149 20.8321C2.4607 20.9288 2.92964 21.1432 3.32934 21.4575C3.72905 21.7718 4.04799 22.177 4.25967 22.6393L5.6165 25.8788C5.40482 25.4165 5.08588 25.0114 4.68617 24.6971C4.28647 24.3828 3.81753 24.1684 3.31832 24.0717Z" fill="#FE3030"/>
<path d="M4.24805 22.6394L5.60487 25.8789C5.69928 26.1099 5.76373 26.3521 5.79663 26.5995L4.4398 23.3658C4.40878 23.1161 4.34429 22.8718 4.24805 22.6394Z" fill="#F67067"/>
<path d="M40.1791 12.6158L39.5022 10.9945C39.2755 10.4541 39.0489 9.91663 38.8252 9.37622C38.9633 9.26976 39.123 9.19461 39.293 9.15598C39.4631 9.11735 39.6396 9.11616 39.8101 9.15251L39.967 9.53021L40.0513 9.72778L40.2227 10.1374L40.397 10.5587L40.5772 10.9829L40.6643 11.195L40.7515 11.4042L40.9229 11.8139L41.0856 12.2061C41.1236 12.2624 41.1503 12.3255 41.1641 12.392C40.9935 12.3557 40.817 12.3569 40.647 12.3955C40.4769 12.4341 40.3173 12.5093 40.1791 12.6158Z" fill="#FE3030"/>
<path d="M41.164 12.3949C40.7127 11.3141 40.2614 10.2343 39.8101 9.1554L39.967 9.5331L40.1355 9.93404L40.3098 10.3495L40.487 10.7737L40.6643 11.1979L40.8386 11.6134L41.0071 12.0143L41.164 12.3949Z" fill="#FE3030"/>
<path d="M41.5648 12.6157C41.3992 12.2148 41.2307 11.8167 41.0651 11.4187C40.7746 10.7388 40.484 10.056 40.208 9.38489C40.2981 9.41685 40.2603 9.50982 40.2865 9.57083L40.4492 9.96307L40.5363 10.1664L40.7106 10.5819L40.8879 11.0061L40.975 11.2182L41.1523 11.6395L41.3237 12.0491L41.405 12.2467L41.5648 12.6157Z" fill="#FE3030"/>
<path d="M41.5649 12.6156C41.4553 12.5056 41.316 12.4298 41.164 12.3977C40.7127 11.3169 40.2614 10.2371 39.8101 9.1582C39.9607 9.18987 40.099 9.26455 40.2081 9.3732L40.3679 9.75091L40.4492 9.94847L40.6207 10.3581L40.7107 10.5673L41.5649 12.6011V12.6156Z" fill="#FE3030"/>
<path d="M40.1789 12.6157C40.0178 12.717 39.8951 12.8692 39.8304 13.0481C39.7657 13.2271 39.7625 13.4226 39.8215 13.6035L38.4734 10.3669C38.4177 10.1854 38.4228 9.9908 38.4878 9.8125C38.5528 9.63421 38.6743 9.48201 38.8337 9.37903C39.2288 10.3494 39.7721 11.6452 40.1789 12.6157Z" fill="#FE3030"/>
<path d="M41.7073 12.822C41.6746 12.7433 41.6261 12.6721 41.5649 12.6128L40.2168 9.37036C40.2775 9.4312 40.3258 9.50322 40.3592 9.58245L41.7073 12.822Z" fill="#FE3030"/>
<path d="M9.41944 23.9207C8.65841 26.3848 8.77338 29.0363 9.74485 31.4254L8.39093 28.1858C7.4166 25.7974 7.30158 23.1449 8.06552 20.6812L8.22242 21.0618L8.39093 21.4627L8.56525 21.8782L8.74249 22.3024L8.83255 22.5145L9.00687 22.9358L9.09404 23.142L9.1783 23.3454L9.26255 23.543C9.33343 23.6603 9.38632 23.7876 9.41944 23.9207Z" fill="#FE3030"/>
<path d="M10.291 21.7097C9.93831 22.4206 9.64672 23.1603 9.41935 23.9207C8.96804 22.8418 8.51674 21.7619 8.06543 20.6811C8.29279 19.9208 8.58438 19.1811 8.93705 18.4701C12.4816 11.2327 21.8865 6.87464 29.8996 8.76025C34.156 9.75971 37.1631 12.3223 38.5403 15.5909L39.8971 18.8304C38.5315 15.5618 35.5099 12.9992 31.2535 11.9998C23.2258 10.1142 13.821 14.4723 10.291 21.7097Z" fill="#FE3030"/>
<path d="M37.991 15.8116L39.345 19.0511C38.0288 15.9017 35.1147 13.4292 31.0123 12.4646C23.281 10.6487 14.2132 14.8499 10.7935 21.8316C9.18973 25.106 9.11128 28.4182 10.2734 31.2016L8.91952 27.962C7.75736 25.1786 7.83581 21.8607 9.43669 18.5921C12.8564 11.6191 21.9299 7.40626 29.6554 9.22505C33.7579 10.1896 36.672 12.6621 37.991 15.8116Z" fill="#C62525"/>
<path d="M36.2246 15.8349C35.9864 15.6199 35.7365 15.4107 35.475 15.2132C35.0256 14.1324 34.5743 13.0525 34.1211 11.9736C34.3826 12.1712 34.6324 12.3775 34.8678 12.5954L34.9637 12.822L35.0625 13.0632L35.167 13.3101L35.2745 13.5658L35.3791 13.8186L35.4837 14.0684L35.5854 14.3096L35.6784 14.5333L35.7423 14.6873L35.8091 14.8471L35.8789 15.0156L35.9515 15.1841L36.0212 15.3555L36.0939 15.5211L36.1607 15.6838L36.2246 15.8349Z" fill="#FE3030"/>
<path d="M28.4152 15.4601L29.7691 18.6996L24.1733 17.3835L22.8193 14.1439L28.4152 15.4601Z" fill="#FFFCED"/>
<path d="M40.3505 9.5824L41.7074 12.8219C41.7633 13.003 41.7587 13.1975 41.6942 13.3757C41.6297 13.554 41.5089 13.7064 41.35 13.8098C41.2106 13.9149 41.0504 13.9893 40.8801 14.0278C40.7098 14.0664 40.5333 14.0683 40.3621 14.0335C40.2117 13.9995 40.0738 13.924 39.9641 13.8156C39.9035 13.7558 39.8551 13.6847 39.8217 13.6064L38.4736 10.3669C38.508 10.4446 38.5563 10.5155 38.616 10.576C38.7261 10.684 38.8638 10.7594 39.014 10.794C39.1851 10.8288 39.3617 10.8269 39.532 10.7883C39.7023 10.7497 39.8625 10.6754 40.0019 10.5702C40.1614 10.4677 40.2823 10.3149 40.3454 10.136C40.4085 9.95718 40.4103 9.76239 40.3505 9.5824Z" fill="#FFFCED"/>
<path d="M24.5014 18.136L25.8553 21.3755C25.7344 21.351 25.6091 21.3608 25.4935 21.404C25.378 21.4471 25.2768 21.5218 25.2016 21.6196L23.8477 18.38C23.9229 18.2823 24.024 18.2076 24.1396 18.1645C24.2552 18.1213 24.3805 18.1114 24.5014 18.136Z" fill="#FE3030"/>
<path d="M36.225 15.8349C36.2114 15.811 36.2006 15.7857 36.193 15.7593L36.0594 15.4397L35.9867 15.2712L35.9519 15.1841L35.6788 14.5332L34.8682 12.5953C35.2195 12.9135 35.5468 13.2573 35.8473 13.6239L36.0071 14.0016L36.1756 14.4025L36.3499 14.818L36.5272 15.2422L36.7044 15.6664L36.8787 16.0818L37.0443 16.4828L37.2041 16.8634C36.9013 16.4989 36.5741 16.1553 36.225 15.8349Z" fill="#FE3030"/>
<path d="M37.5644 17.3225C37.4481 17.1656 37.329 17.0116 37.2041 16.8634C36.7508 15.7749 36.3024 14.695 35.8589 13.6239C35.9838 13.7721 36.1058 13.9144 36.2192 14.083L36.3383 14.3735L36.4632 14.664L36.594 14.9778L36.7276 15.2945L36.8613 15.6141L36.992 15.9279L37.1169 16.2184L37.236 16.509L37.2767 16.6048L37.3174 16.7036L37.361 16.8082L37.4046 16.9128L37.4511 17.0174L37.4946 17.122L37.5353 17.2208L37.5644 17.3225Z" fill="#FE3030"/>
<path d="M26.1982 18.5427L27.5521 21.7822L25.8554 21.3842L24.5015 18.1417L26.1982 18.5427Z" fill="#FE3030"/>
<path d="M23.8476 18.3888L25.2016 21.6283L23.682 23.7318L22.3252 20.4923L23.8476 18.3888Z" fill="#FE3030"/>
<path d="M23.6182 24.127L22.2643 20.8874C22.239 20.822 22.2313 20.7511 22.242 20.6817C22.2527 20.6124 22.2814 20.5471 22.3253 20.4923L23.6821 23.7347C23.638 23.7888 23.6089 23.8535 23.5977 23.9223C23.5865 23.9911 23.5935 24.0617 23.6182 24.127Z" fill="#FE3030"/>
<path d="M27.1193 19.1703L28.4761 22.4098C28.3482 22.1193 28.0403 21.8985 27.5522 21.7852L26.1982 18.5427C26.6834 18.6589 26.9943 18.8681 27.1193 19.1703Z" fill="#FE3030"/>
<path d="M23.9086 24.3536C23.8457 24.3416 23.7865 24.3148 23.736 24.2754C23.6855 24.236 23.6451 24.1851 23.6181 24.127L22.2642 20.8875C22.2907 20.9458 22.331 20.9969 22.3816 21.0364C22.4322 21.0759 22.4916 21.1025 22.5547 21.1141L23.9086 24.3536Z" fill="#FFFCED"/>
<path d="M28.4759 22.4098C28.4759 22.436 28.4963 22.4621 28.5021 22.4883L27.1423 19.2487C27.1423 19.2226 27.1249 19.1964 27.1133 19.1703L28.4759 22.4098Z" fill="#FFFCED"/>
<path d="M32.7412 20.9688C32.2589 19.8066 31.2691 19.0512 29.7719 18.7025L28.415 15.463C29.9104 15.8136 30.9011 16.568 31.3873 17.7263L32.7412 20.9688Z" fill="#FFFCED"/>
<path d="M31.3872 17.7263L32.7411 20.9659C32.7501 20.9847 32.7579 21.0041 32.7644 21.024L31.4105 17.7815C31.4017 17.7641 31.3959 17.7467 31.3872 17.7263Z" fill="#FE3030"/>
<path d="M24.234 21.5062L25.5879 24.7487L23.9086 24.3535L22.5547 21.114L24.234 21.5062Z" fill="#FFFCED"/>
<path d="M28.5023 22.494C28.6273 22.8427 28.5314 23.2349 28.2118 23.6707L28.052 23.293L27.8835 22.8921L27.7092 22.4737L27.5319 22.0495L27.1804 21.2099C27.0729 20.9513 26.9654 20.6898 26.855 20.4312C27.1659 19.9954 27.2617 19.6032 27.1455 19.269C27.5552 20.2191 28.1246 21.5033 28.5023 22.494Z" fill="#FFFCED"/>
<path d="M28.223 23.6563L26.8662 20.4167L28.223 23.6563Z" fill="#FFFCED"/>
<path d="M4.43945 23.3569L5.79628 26.5994L6.58946 32.724L5.23553 29.4844L4.43945 23.3569Z" fill="#F67067"/>
<path d="M25.643 24.7632L25.5878 24.7487L24.2368 21.5092H24.2891L24.4344 21.852L24.5855 22.2152L24.7453 22.5929L24.9051 22.9793L25.0678 23.3628L25.2247 23.7405L25.3757 24.1066L25.521 24.4494V24.4843L25.5355 24.5221L25.553 24.5598L25.5675 24.5976L25.5849 24.6383L25.6024 24.676L25.6169 24.7138L25.643 24.7632Z" fill="#FFFCED"/>
<path d="M25.6434 24.7632C25.1902 23.6824 24.7379 22.6026 24.2866 21.5237L24.4464 21.9014L24.6149 22.3023L24.7893 22.7207L24.9665 23.1449L25.1437 23.5691L25.318 23.9846L25.4836 24.3855L25.6434 24.7632Z" fill="#FFFCED"/>
<path d="M11.4271 21.9798C9.89301 25.1118 9.81456 28.2758 10.9244 30.9313L9.5676 27.6918C8.45774 25.0363 8.53618 21.881 10.0702 18.7403C13.3417 12.0578 21.9824 8.05707 29.3767 9.79741C31.0917 10.1814 32.7065 10.9229 34.1154 11.9736L34.2723 12.3513L34.4408 12.7522L34.6151 13.1677L34.7924 13.5919L34.9696 14.0161L35.1439 14.4315L35.3124 14.8325L35.4693 15.2131C34.0587 14.1617 32.4419 13.4202 30.7248 13.0369C23.3392 11.2995 14.6956 15.3032 11.4271 21.9798Z" fill="#FE3030"/>
<path d="M37.5643 17.3224C37.5564 17.3075 37.5495 17.2919 37.544 17.2759L37.5033 17.1771L37.483 17.1278L37.3929 16.9186L37.2244 16.5147C36.8874 15.7051 36.5484 14.8945 36.2075 14.0829C36.664 14.7024 37.0444 15.3745 37.3406 16.0847L38.6974 19.3242C38.399 18.6151 38.0187 17.9433 37.5643 17.3224Z" fill="#FE3030"/>
<path d="M27.0175 24.6266C26.91 24.3651 26.7996 24.1066 26.6921 23.8451C26.5846 23.5836 26.4567 23.2843 26.3405 23.0054L25.6636 21.3871C26.1476 21.1872 26.5648 20.8536 26.8664 20.4254L27.0262 20.8031L27.1918 21.2041L27.3661 21.6195L27.5434 22.0437L27.7206 22.4679L27.8949 22.8863L28.0634 23.2872L28.2232 23.6649C27.9213 24.094 27.503 24.4277 27.0175 24.6266Z" fill="#FFFCED"/>
<path d="M27.0178 24.6266C26.5891 24.8218 26.108 24.8698 25.6493 24.7632C25.1961 23.6862 24.7438 22.6064 24.2925 21.5236C24.7522 21.6303 25.2342 21.5823 25.6638 21.3871L27.0178 24.6266Z" fill="#FFFCED"/>
<path d="M26.1984 18.5428C26.7253 18.6687 27.0419 18.904 27.1485 19.2488C27.2734 19.5975 27.1746 19.9897 26.8579 20.411C26.5563 20.8392 26.1392 21.1727 25.6551 21.3727C25.2255 21.5678 24.7434 21.6158 24.2837 21.5092H24.2256L22.5463 21.1141C22.4798 21.1033 22.4173 21.075 22.3652 21.0322C22.3132 20.9893 22.2735 20.9334 22.2501 20.8702C22.2268 20.8069 22.2206 20.7386 22.2324 20.6722C22.2441 20.6058 22.2732 20.5438 22.3168 20.4923L23.8392 18.3888C23.9145 18.2911 24.0156 18.2164 24.1312 18.1732C24.2467 18.1301 24.3721 18.1202 24.4929 18.1448L26.1984 18.5428Z" fill="#FFFCED"/>
<path d="M22.1654 14.3879L23.5194 17.6304L14.6869 29.8709L13.333 26.6313L22.1654 14.3879Z" fill="#FFFCED"/>
<path d="M10.5237 31.7478C10.4365 31.5706 10.3523 31.3875 10.2768 31.2045L8.91992 27.965C8.99837 28.148 9.07972 28.3281 9.16688 28.5083C9.21628 28.6216 9.28019 28.7727 9.32668 28.886L9.4952 29.2869L9.66951 29.7053L9.84675 30.1295L10.024 30.5508L10.1983 30.9692L10.3639 31.3701L10.5237 31.7478Z" fill="#FE3030"/>
<path d="M20.3554 23.9177L21.7093 27.1572C21.5888 27.1315 21.4635 27.1409 21.3482 27.1841C21.2329 27.2273 21.1323 27.3027 21.0585 27.4013L19.7017 24.1618C19.7764 24.0635 19.8775 23.9884 19.9932 23.9452C20.1089 23.902 20.2345 23.8925 20.3554 23.9177Z" fill="#FE3030"/>
<path d="M16.4969 27.9417L17.8538 31.1813L14.9164 30.4898L13.5596 27.2502L16.4969 27.9417Z" fill="#FE3030"/>
<path d="M14.6869 29.8709C14.6438 29.9255 14.6155 29.9903 14.6048 30.059C14.5941 30.1277 14.6014 30.198 14.6259 30.2631L13.269 27.0236C13.245 26.9582 13.2382 26.8878 13.2494 26.8191C13.2606 26.7503 13.2894 26.6857 13.3329 26.6313L14.6869 29.8709Z" fill="#FFFCED"/>
<path d="M14.6259 30.2631L13.269 27.0236C13.2962 27.0818 13.3367 27.1329 13.3871 27.1727C13.4376 27.2126 13.4966 27.2401 13.5596 27.2531L14.9164 30.4926C14.8531 30.4805 14.7936 30.4534 14.7431 30.4134C14.6925 30.3734 14.6523 30.3219 14.6259 30.2631Z" fill="#FE3030"/>
<path d="M21.2736 24.1298L22.6275 27.3722L21.7094 27.1543L20.3555 23.9148L21.2736 24.1298Z" fill="#FE3030"/>
<path d="M21.5901 24.525L22.944 27.7646L22.6215 31.9832L21.2676 28.7437L21.5901 24.525Z" fill="#FFFCED"/>
<path d="M21.564 24.3593L22.9179 27.5988C22.8915 27.5403 22.8513 27.4891 22.8007 27.4496C22.75 27.4101 22.6906 27.3835 22.6274 27.3722L21.2734 24.1327C21.3365 24.1445 21.3957 24.1712 21.4463 24.2106C21.4968 24.2501 21.5372 24.3011 21.564 24.3593Z" fill="#FE3030"/>
<path d="M21.564 24.3594L22.9179 27.5989C22.9397 27.6512 22.9487 27.708 22.944 27.7645L21.5901 24.5279C21.5937 24.4705 21.5848 24.413 21.564 24.3594Z" fill="#FFFCED"/>
<path d="M5.23547 29.4845L6.58939 32.724C6.79568 34.3104 5.68291 35.9432 3.97453 36.7567L2.62061 33.5172C4.32899 32.7008 5.44176 31.0708 5.23547 29.4845Z" fill="#F67067"/>
<path d="M1.94971 20.8322L2.06883 21.1227L2.19085 21.4132L2.31869 21.7183L2.44944 22.0321L2.58308 22.3488L2.71673 22.6684L2.84748 22.9851L2.97822 23.2959L1.94971 20.8351V20.8322Z" fill="#FE3030"/>
<path d="M4.4396 23.3657L5.23569 29.4903C5.44197 31.0767 4.3292 32.7066 2.62082 33.523C0.194804 29.9058 -0.630331 25.4053 0.496967 20.7392C0.983232 20.6947 1.47348 20.727 1.94967 20.8351C3.28325 21.1431 4.27399 22.0728 4.4396 23.3657Z" fill="#F67067"/>
<path d="M19.7018 24.1589L21.0587 27.3985L18.5077 30.9373L17.1509 27.6977L19.7018 24.1589Z" fill="#FE3030"/>
<path d="M17.1508 27.6976L18.5076 30.9372C18.4328 31.0354 18.3317 31.1105 18.216 31.1537C18.1004 31.1969 17.9748 31.2064 17.8539 31.1812L16.4971 27.9417C16.618 27.9669 16.7435 27.9574 16.8592 27.9142C16.9749 27.871 17.076 27.7959 17.1508 27.6976Z" fill="#FE3030"/>
<path d="M31.4105 17.7815L32.7645 21.0239C33.2409 22.2113 33.0085 23.4519 32.0672 24.7458C31.468 25.5749 30.6957 26.2639 29.8038 26.765C29.0518 27.2046 28.2304 27.5131 27.3749 27.6773C27.2458 27.695 27.1256 27.7532 27.0316 27.8435C26.9376 27.9338 26.8747 28.0516 26.8519 28.18L25.4951 24.9404C25.5183 24.8123 25.5814 24.6947 25.6753 24.6044C25.7691 24.5142 25.8891 24.4559 26.0181 24.4378C26.8745 24.2736 27.6968 23.9651 28.4499 23.5255C29.3427 23.0194 30.1149 22.3255 30.7132 21.4917C31.6546 20.2094 31.887 18.9727 31.4105 17.7815Z" fill="#FE3030"/>
<path d="M8.9286 36.1496L7.57178 32.91C7.62117 33.0233 7.68218 33.1744 7.73157 33.2877L7.90008 33.6887L8.0715 34.1071L8.25164 34.5312L8.42887 34.9554L8.60319 35.3709L8.7688 35.7719L8.9286 36.1496Z" fill="#FE3030"/>
<path d="M9.91359 35.917C9.74276 35.8821 9.56641 35.8842 9.39649 35.9233C9.22656 35.9624 9.06702 36.0375 8.92865 36.1436L8.76886 35.7659L8.60325 35.365L8.2575 34.5253C8.13838 34.2348 8.02217 33.9646 7.90595 33.6828C7.78973 33.4009 7.68804 33.1627 7.57764 32.9041C7.71653 32.7979 7.87658 32.7228 8.04698 32.6837C8.21739 32.6446 8.39419 32.6425 8.56547 32.6775L8.72237 33.0552L8.89088 33.4591L9.0652 33.8745L9.24244 34.2987L9.41966 34.7229L9.59399 35.1384L9.7625 35.5393L9.91359 35.917Z" fill="#FE3030"/>
<path d="M9.91349 35.917C9.46412 34.8401 9.01281 33.7602 8.55957 32.6775L8.71646 33.0581L8.88497 33.459L9.0593 33.8745L9.23653 34.2987L9.41376 34.7229L9.58808 35.1384L9.7566 35.5393L9.91349 35.917Z" fill="#FE3030"/>
<path d="M10.3144 36.1494C10.2032 36.0416 10.0645 35.9662 9.91349 35.9315C9.46412 34.8546 9.01281 33.7748 8.55957 32.692C8.71001 32.726 8.8479 32.8015 8.95761 32.9099C9.01737 32.9698 9.06476 33.0409 9.09707 33.1191L10.4539 36.3586C10.4205 36.281 10.3733 36.2101 10.3144 36.1494Z" fill="#FE3030"/>
<path d="M8.92832 36.1496C8.76661 36.251 8.64355 36.4037 8.57877 36.5833C8.514 36.7629 8.51124 36.959 8.57095 37.1403L7.21413 33.8979C7.15817 33.7168 7.16279 33.5223 7.22728 33.3441C7.29177 33.1658 7.41261 33.0134 7.5715 32.91L7.73129 33.2877L7.8969 33.6887L8.07122 34.1071L8.24846 34.5312L8.42568 34.9525L8.60001 35.3709L8.76853 35.7719L8.92832 36.1496Z" fill="#FE3030"/>
<path d="M22.648 32.1487L21.294 28.9092C21.272 28.8579 21.263 28.802 21.2679 28.7465L22.6218 31.986C22.6185 32.0415 22.6274 32.097 22.648 32.1487Z" fill="#FFFCED"/>
<path d="M9.09706 33.1046L10.4539 36.3441C10.5101 36.525 10.5059 36.7192 10.442 36.8974C10.378 37.0756 10.2578 37.2282 10.0994 37.332C9.95991 37.4381 9.79936 37.5131 9.62851 37.5522C9.45766 37.5913 9.28044 37.5935 9.10868 37.5586C8.95779 37.5258 8.81957 37.4501 8.71064 37.3407C8.65096 37.2818 8.60356 37.2117 8.57118 37.1344L7.21436 33.892C7.247 33.97 7.29435 34.041 7.35382 34.1012C7.46423 34.2102 7.60323 34.2857 7.75476 34.3191C7.92604 34.3541 8.10285 34.352 8.27326 34.3129C8.44366 34.2738 8.60371 34.1986 8.7426 34.0925C8.90356 33.9911 9.02592 33.8387 9.09017 33.6597C9.15441 33.4806 9.15684 33.2852 9.09706 33.1046Z" fill="#FFFCED"/>
<path d="M22.6479 32.1487L21.2939 28.9092C21.3202 28.9681 21.3603 29.0198 21.4109 29.0598C21.4615 29.0998 21.5211 29.1268 21.5845 29.1387L22.9384 32.3724C22.8756 32.3612 22.8164 32.335 22.7658 32.296C22.7153 32.2571 22.6748 32.2066 22.6479 32.1487Z" fill="#FE3030"/>
<path d="M41.9282 14.8064L43.2821 18.0459L44.0782 24.1705L42.7243 20.931L41.9282 14.8064Z" fill="#FE3030"/>
<path d="M44.078 24.1734C44.1106 24.4211 44.176 24.6635 44.2727 24.8939L42.9159 21.6544C42.8205 21.4237 42.756 21.1814 42.7241 20.9338C43.1222 21.913 43.8049 23.1565 44.078 24.1734Z" fill="#FE3030"/>
<path d="M25.4953 24.9375L26.8522 28.1799L26.5849 32.5816L25.228 29.3421L25.4953 24.9375Z" fill="#FE3030"/>
<path d="M24.487 29.8216L25.8438 33.0611L22.9384 32.3783L21.5845 29.1388L24.487 29.8216Z" fill="#FE3030"/>
<path d="M25.2277 29.3422L26.5845 32.5817C26.5695 32.6629 26.538 32.7402 26.4921 32.8089C26.4461 32.8775 26.3867 32.9361 26.3173 32.9809C26.248 33.0258 26.1702 33.0561 26.0887 33.0698C26.0073 33.0836 25.9239 33.0806 25.8436 33.0611L24.4868 29.8216C24.5671 29.8411 24.6505 29.8441 24.7319 29.8303C24.8134 29.8165 24.8911 29.7863 24.9605 29.7414C25.0298 29.6965 25.0893 29.638 25.1353 29.5693C25.1812 29.5007 25.2127 29.4234 25.2277 29.3422Z" fill="#FE3030"/>
<path d="M37.3402 16.0818L38.6941 19.3213C39.8069 21.9769 39.7285 25.1321 38.1944 28.2758C34.9229 34.9582 26.2822 38.959 18.8909 37.2186C14.9657 36.2976 12.1823 33.9413 10.9242 30.9342L9.57031 27.6947C10.8254 30.7018 13.6088 33.0581 17.534 33.9791C24.9254 35.7223 33.569 31.7129 36.8376 25.0363C38.3716 21.9129 38.4501 18.7373 37.3402 16.0818Z" fill="#FFFCED"/>
<path d="M38.825 28.424C38.3965 29.2974 37.8847 30.1273 37.2968 30.9023C36.8435 29.8215 36.3912 28.7417 35.9399 27.6628C36.5288 26.8878 37.0416 26.0579 37.4711 25.1845C39.0749 21.9072 39.1562 18.595 37.9883 15.8116L39.3451 19.0512C40.5072 21.8346 40.4317 25.1496 38.825 28.424Z" fill="#FE3030"/>
<path d="M18.612 37.7882C14.7478 36.8817 11.9295 34.6358 10.5233 31.7478L9.1665 28.5083C10.5843 31.3963 13.391 33.6393 17.2552 34.5487C24.0189 36.1408 31.8083 33.1192 35.9398 27.6628C35.9892 27.7762 36.0502 27.9272 36.0996 28.0405L36.2652 28.4415L36.4396 28.857L36.6168 29.2812L36.794 29.7053L36.9684 30.1208L37.1369 30.5218L37.2967 30.9024C33.1652 36.3587 25.3729 39.3804 18.612 37.7882Z" fill="#FE3030"/>
<path d="M38.526 15.5879L39.8799 18.8274C41.0885 21.7154 41.0043 25.1496 39.3424 28.546C35.7978 35.7834 26.3959 40.1386 18.3828 38.2559C14.1263 37.2535 11.1047 34.6968 9.73918 31.4253L8.38525 28.1857C9.7508 31.4514 12.7724 34.014 17.0288 35.0164C25.042 36.8991 34.4439 32.5439 37.9885 25.3065C39.6503 21.913 39.7346 18.473 38.526 15.5879Z" fill="#C62525"/>
<path d="M29.885 8.76025C37.8981 10.643 41.5328 18.0576 37.9882 25.3211C34.4436 32.5846 25.0417 36.9137 17.0286 35.031C9.01548 33.1483 5.37792 25.7336 8.92251 18.4847C12.4671 11.2357 21.8719 6.87464 29.885 8.76025ZM17.2639 34.5487C24.9923 36.3674 34.0601 32.1662 37.4798 25.1845C40.8994 18.2028 37.3926 11.0439 29.6642 9.22512C21.9358 7.40633 12.8651 11.6105 9.44548 18.5922C6.02582 25.5739 9.53555 32.7328 17.2639 34.5487Z" fill="#C62525"/>
<path d="M29.3766 9.79747C36.768 11.5407 40.1092 18.3568 36.8377 25.0363C33.5662 31.7159 24.9255 35.7166 17.5342 33.9792C10.1428 32.2417 6.80448 25.4198 10.0702 18.7403C13.3358 12.0608 21.9852 8.05713 29.3766 9.79747Z" fill="#FFFCED"/>
<path d="M26.5148 24.2664C26.3639 24.2943 26.2248 24.3667 26.1155 24.4745C26.0063 24.5822 25.9318 24.7202 25.9018 24.8707L25.5154 29.0923C25.4941 29.1909 25.4534 29.2843 25.3957 29.367C25.338 29.4498 25.2645 29.5202 25.1793 29.5743C25.0942 29.6283 24.9991 29.6649 24.8997 29.682C24.8003 29.699 24.6985 29.6961 24.6002 29.6734L21.5233 28.9499C21.4072 28.9313 21.3026 28.8687 21.2312 28.7752C21.1599 28.6816 21.1272 28.5643 21.1398 28.4473L21.596 24.5628C21.6094 24.4457 21.5769 24.3279 21.5054 24.2342C21.4339 24.1405 21.3289 24.0781 21.2125 24.0601L20.7505 23.9497C20.6017 23.9198 20.4474 23.9325 20.3055 23.9865C20.1636 24.0405 20.0399 24.1335 19.9486 24.2548L17.5923 27.5292C17.5016 27.6513 17.3781 27.7451 17.2361 27.7996C17.0941 27.8541 16.9395 27.8672 16.7904 27.8372L13.6497 27.0992C13.5666 27.087 13.4884 27.0527 13.423 27.0001C13.3576 26.9474 13.3075 26.8783 13.2779 26.7997C13.2482 26.7212 13.2401 26.6361 13.2544 26.5534C13.2687 26.4707 13.3049 26.3933 13.3591 26.3293L22.0637 14.2602C22.155 14.1381 22.2792 14.0446 22.4217 13.9905C22.5643 13.9365 22.7193 13.9242 22.8685 13.9551L28.4556 15.2684C30.0342 15.6403 31.0686 16.415 31.5586 17.5927C32.0487 18.7704 31.7949 20.0468 30.7974 21.422C29.7688 22.8651 28.2439 23.8779 26.5148 24.2664ZM26.5148 20.2715C26.7879 19.8822 26.8693 19.5509 26.7618 19.2749C26.6543 18.9989 26.4102 18.8013 25.9773 18.6938L24.7367 18.4033C24.5879 18.3733 24.4336 18.3861 24.2917 18.4401C24.1498 18.494 24.0261 18.5871 23.9348 18.7084L22.9208 20.1204C22.8664 20.1842 22.8301 20.2614 22.8157 20.344C22.8013 20.4266 22.8094 20.5115 22.8391 20.5899C22.8688 20.6683 22.919 20.7373 22.9845 20.7896C23.05 20.842 23.1284 20.8758 23.2114 20.8874L24.2835 21.1402L24.359 21.1605C24.7392 21.2505 25.1379 21.2211 25.5008 21.0763C25.9187 20.9209 26.2774 20.6384 26.5264 20.2686" fill="#FE3030"/>
<path d="M41.8789 25.077L41.9951 25.3676L42.1201 25.6581L42.2479 25.9632L42.3786 26.277L42.5123 26.5937L42.643 26.9132L42.7767 27.2299L42.9074 27.5408L41.8789 25.0799V25.077Z" fill="#FE3030"/>
<path d="M44.2846 24.8939L42.9277 21.6544C43.1394 22.1167 43.4584 22.5219 43.8581 22.8362C44.2578 23.1505 44.7267 23.3649 45.2259 23.4616C45.4419 23.5121 45.6614 23.5461 45.8825 23.5633L47.2365 26.8028C47.0153 26.7854 46.7958 26.7514 46.5798 26.7011C46.0812 26.604 45.6128 26.3894 45.2136 26.0751C44.8145 25.7608 44.496 25.3559 44.2846 24.8939Z" fill="#F67067"/>
<path d="M41.9251 28.9238C41.8755 29.0164 41.8468 29.1187 41.8407 29.2235C41.8347 29.3284 41.8516 29.4333 41.8902 29.531L40.5363 26.2915C40.4972 26.194 40.4799 26.0892 40.4854 25.9843C40.4909 25.8795 40.5192 25.7771 40.5683 25.6842C41.0215 26.7631 41.4738 27.842 41.9251 28.9209C41.4718 27.8439 41.0196 26.7651 40.5683 25.6842C40.6929 25.4561 40.8875 25.274 41.1234 25.1647C41.3592 25.0554 41.624 25.0247 41.8786 25.077C42.328 26.1578 42.7793 27.2377 43.2325 28.3165C42.7812 27.2357 42.3299 26.1559 41.8786 25.077C41.9963 25.0998 42.1067 25.1505 42.2008 25.2248C42.2948 25.2991 42.3696 25.3949 42.419 25.5041L43.7729 28.7436C43.7235 28.6344 43.6487 28.5387 43.5547 28.4643C43.4606 28.39 43.3502 28.3393 43.2325 28.3165C42.9783 28.2644 42.714 28.2952 42.4787 28.4046C42.2433 28.5139 42.0492 28.6959 41.9251 28.9238Z" fill="#FE3030"/>
<path d="M42.4193 25.5042L43.7732 28.7437C43.8123 28.8411 43.8297 28.946 43.8242 29.0508C43.8186 29.1557 43.7904 29.2581 43.7413 29.3509C43.6165 29.5796 43.4214 29.7621 43.185 29.8714C42.9485 29.9808 42.6831 30.0112 42.428 29.9581C42.3107 29.9354 42.2006 29.8847 42.1071 29.8103C42.0135 29.736 41.9392 29.6402 41.8905 29.531L40.5366 26.2915C40.5857 26.4004 40.6601 26.4959 40.7536 26.5702C40.8471 26.6445 40.957 26.6954 41.0741 26.7186C41.3288 26.7719 41.5939 26.7416 41.83 26.6322C42.066 26.5228 42.2605 26.3402 42.3845 26.1114C42.434 26.0188 42.4628 25.9165 42.4688 25.8116C42.4748 25.7067 42.4579 25.6018 42.4193 25.5042Z" fill="#FFFCED"/>
<path d="M29.6557 9.22511C37.3841 11.0439 40.8909 18.2028 37.4713 25.1845C34.0516 32.1662 24.978 36.3674 17.2554 34.5486C9.53286 32.7299 6.02022 25.5738 9.43698 18.5921C12.8537 11.6105 21.9273 7.40632 29.6557 9.22511ZM17.5344 33.9792C24.9257 35.7224 33.5693 31.713 36.8379 25.0363C40.1065 18.3597 36.7682 11.5349 29.3768 9.79747C21.9854 8.06004 13.3419 12.0637 10.0704 18.7403C6.79887 25.4169 10.143 32.2418 17.5344 33.9792Z" fill="#FE3030"/>
<path d="M27.6073 40.0805C27.156 38.9997 26.7047 37.9198 26.2534 36.8409L26.4103 37.2186L26.5788 37.6196L26.7531 38.0351L26.9304 38.4593L27.1076 38.8834L27.2819 39.2989L27.4504 39.6999L27.6073 40.0805Z" fill="#FE3030"/>
<path d="M27.102 40.0834C26.8995 40.1214 26.7113 40.2141 26.5577 40.3513C26.4041 40.4886 26.2909 40.6652 26.2304 40.8621C25.7771 39.7832 25.3248 38.7033 24.8735 37.6225C24.9346 37.426 25.048 37.2497 25.2015 37.1125C25.3551 36.9754 25.543 36.8825 25.7452 36.8439C26.1984 37.9208 26.6507 39.0007 27.102 40.0834C26.6487 39.0026 26.1965 37.9228 25.7452 36.8439C25.9124 36.8046 26.0864 36.8046 26.2536 36.8439L26.4105 37.2216L26.579 37.6225L26.7533 38.038L26.9306 38.4622L27.1078 38.8864L27.2821 39.3019L27.4506 39.7028L27.6075 40.0834C27.4413 40.0442 27.2682 40.0442 27.102 40.0834Z" fill="#FE3030"/>
<path d="M28.1477 40.5076C28.0984 40.3986 28.0235 40.3032 27.9295 40.2294C27.8354 40.1555 27.7249 40.1054 27.6073 40.0834C27.156 39.0026 26.7047 37.9227 26.2534 36.8439C26.3708 36.8664 26.4811 36.9166 26.5751 36.9904C26.6691 37.0642 26.7441 37.1594 26.7938 37.2681L28.1477 40.5076Z" fill="#FE3030"/>
<path d="M26.2213 41.1236C26.2279 41.1824 26.2425 41.2401 26.2649 41.295L24.9109 38.0555C24.888 38.0006 24.8724 37.943 24.8645 37.884C25.3177 38.9649 25.769 40.0447 26.2184 41.1236C25.769 40.0428 25.3177 38.9629 24.8645 37.884C24.8486 37.7976 24.8486 37.709 24.8645 37.6226C25.3177 38.7034 25.77 39.7832 26.2213 40.8621C26.2054 40.9485 26.2054 41.0371 26.2213 41.1236Z" fill="#FE3030"/>
<path d="M22.5635 42.8493C22.0812 42.2955 21.4315 41.914 20.7128 41.7627L19.356 38.5232C20.0744 38.6755 20.7245 39.0555 21.2096 39.6069L21.3665 39.9875L21.535 40.3885L21.7093 40.8039L21.8866 41.2281L22.0638 41.6523L22.2381 42.0678L22.4066 42.4687L22.5635 42.8493Z" fill="#FE3030"/>
<path d="M22.7232 43.0557C22.6738 42.9859 22.6215 42.9162 22.5634 42.8494L21.2095 39.6069C21.2647 39.6767 21.3199 39.7464 21.3693 39.8161L22.3658 42.2044L22.4094 42.3031L22.453 42.4077L22.4995 42.5182L22.546 42.6286L22.5924 42.7419L22.6389 42.8523L22.6825 42.9569L22.7232 43.0557Z" fill="#FE3030"/>
<path d="M22.7235 43.0557C22.709 43.0266 22.6945 42.986 22.6829 42.9569L22.6161 42.7971L22.5696 42.6867L22.5463 42.6286L22.3662 42.2044L21.3696 39.8162C21.4834 39.9785 21.5807 40.1517 21.6602 40.3333L23.0141 43.5729C22.9358 43.3907 22.8384 43.2173 22.7235 43.0557Z" fill="#FE3030"/>
<path d="M26.7939 37.2651L28.1478 40.5076C28.1711 40.5623 28.1868 40.62 28.1943 40.679C28.2524 41.1264 27.8573 41.5942 27.3227 41.7191C27.1555 41.7584 26.9815 41.7584 26.8142 41.7191C26.6969 41.6966 26.5866 41.6464 26.4926 41.5726C26.3986 41.4988 26.3236 41.4036 26.2738 41.2949L24.9199 38.0554C24.9693 38.1644 25.0441 38.2598 25.1382 38.3336C25.2323 38.4075 25.3428 38.4575 25.4603 38.4796C25.6266 38.5188 25.7996 38.5188 25.9659 38.4796C26.5121 38.3547 26.9072 37.8985 26.8375 37.4395C26.8312 37.3796 26.8165 37.3209 26.7939 37.2651Z" fill="#FFFCED"/>
<path d="M21.6543 40.3333L23.0082 43.5728C23.1542 43.9245 23.2283 44.3019 23.2261 44.6826L21.8693 41.4431C21.8725 41.0625 21.7993 40.6851 21.6543 40.3333Z" fill="#F67067"/>
<path d="M45.8708 23.5632C45.5481 24.6207 45.141 25.6506 44.6535 26.643C44.0196 27.9309 43.2677 29.1574 42.4076 30.3067C42.2647 30.2557 42.1192 30.212 41.9718 30.1759C41.2443 30.0262 40.4932 30.0341 39.769 30.199C39.0449 30.3639 38.3644 30.6819 37.7735 31.1318L31.7651 35.6584C30.3821 36.6986 29.7923 38.2065 30.1235 39.4878C27.4815 40.5364 24.7009 41.195 21.8693 41.4431C21.8693 40.0718 20.9366 38.8951 19.3561 38.5232L12.5516 36.9223C11.6933 36.7486 10.8051 36.7933 9.96847 37.0522C9.13189 37.3111 8.37371 37.7759 7.76349 38.404C5.72186 37.1606 3.97031 35.4943 2.62673 33.5171C4.3293 32.7007 5.44207 31.0708 5.2416 29.4844L4.4397 23.3657C4.27409 22.0786 3.27755 21.1488 1.94977 20.835C1.47358 20.727 0.983335 20.6946 0.49707 20.7392C0.84677 19.3154 1.35043 17.934 1.99916 16.6193C2.54505 15.509 3.18054 14.445 3.8993 13.4379C4.3057 13.7401 4.77086 13.9538 5.26485 14.0654C5.99225 14.2165 6.74364 14.2093 7.46802 14.0443C8.1924 13.8794 8.87283 13.5606 9.46316 13.1096L15.4715 8.58584C17.2438 7.24935 17.7116 5.14874 16.6076 3.74252C19.4476 2.6235 22.4456 1.95685 25.4923 1.76685C24.8473 3.55948 25.8206 5.30273 27.8166 5.7705L34.6095 7.3859C35.5659 7.58036 36.5578 7.50236 37.4721 7.16078C38.3864 6.8192 39.1864 6.22776 39.7811 5.45381C41.775 6.83232 43.4357 8.63895 44.6418 10.7417C42.8783 11.5377 41.7161 13.2025 41.9282 14.8092L42.7243 20.9367C42.8928 22.2209 43.8864 23.1507 45.2142 23.4644C45.4303 23.514 45.6498 23.547 45.8708 23.5632ZM17.0288 35.0163C25.042 36.899 34.4439 32.5438 37.9885 25.3065C41.5331 18.0691 37.8984 10.6429 29.8853 8.76016C21.8722 6.87746 12.4674 11.2327 8.92276 18.47C5.37816 25.7074 9.01573 33.1307 17.0288 35.0163ZM41.0885 26.7185C41.3432 26.7718 41.6083 26.7415 41.8444 26.6321C42.0804 26.5227 42.2749 26.34 42.3989 26.1113C42.4535 26.0124 42.4834 25.9018 42.4863 25.7889C42.4891 25.676 42.4646 25.5641 42.4151 25.4626C42.3655 25.3612 42.2922 25.2731 42.2013 25.206C42.1105 25.1389 42.0049 25.0946 41.8933 25.0769C41.6387 25.0246 41.374 25.0553 41.1381 25.1646C40.9022 25.2739 40.7076 25.456 40.583 25.6842C40.5291 25.7831 40.4997 25.8936 40.4972 26.0063C40.4947 26.119 40.5192 26.2306 40.5687 26.3318C40.6182 26.4331 40.6912 26.521 40.7817 26.5883C40.8721 26.6556 40.9773 26.7002 41.0885 26.7185ZM5.70066 18.3945C5.95532 18.4473 6.22021 18.4168 6.45619 18.3075C6.69217 18.1981 6.88668 18.0157 7.01099 17.7873C7.06497 17.6885 7.09445 17.5782 7.09695 17.4657C7.09945 17.3532 7.0749 17.2417 7.02536 17.1406C6.97583 17.0396 6.90275 16.9519 6.81228 16.8849C6.72181 16.8179 6.61658 16.7737 6.50545 16.7558C6.25111 16.7028 5.98644 16.7328 5.75051 16.8417C5.51457 16.9505 5.31985 17.1323 5.19511 17.3602C5.14052 17.459 5.11055 17.5696 5.10773 17.6825C5.10491 17.7954 5.12934 17.9073 5.17893 18.0088C5.22852 18.1103 5.30183 18.1983 5.39264 18.2654C5.48346 18.3326 5.58911 18.3768 5.70066 18.3945ZM25.9572 38.4738C26.5034 38.3488 26.8985 37.8927 26.8288 37.4336C26.8067 37.286 26.7386 37.149 26.6343 37.0421C26.5301 36.9352 26.3948 36.8638 26.2477 36.838C26.0805 36.7988 25.9065 36.7988 25.7393 36.838C25.193 36.963 24.8037 37.4191 24.8676 37.8782C24.8906 38.0255 24.9589 38.162 25.063 38.2688C25.1672 38.3755 25.302 38.4472 25.4487 38.4738C25.615 38.513 25.788 38.513 25.9543 38.4738H25.9572ZM8.73971 34.0895C9.18133 33.7583 9.27721 33.2179 8.95471 32.8925C8.845 32.7841 8.70711 32.7086 8.55667 32.6746C8.38538 32.6396 8.20858 32.6417 8.03818 32.6808C7.86777 32.7199 7.70773 32.795 7.56883 32.9012C7.12721 33.2353 7.03133 33.7728 7.35093 34.0982C7.46134 34.2072 7.60034 34.2828 7.75188 34.3161C7.92316 34.3512 8.09996 34.349 8.27037 34.31C8.44077 34.2709 8.60082 34.1957 8.73971 34.0895ZM38.8223 9.37611C38.3778 9.71023 38.279 10.2477 38.6044 10.5731C38.7145 10.6811 38.8522 10.7565 39.0024 10.791C39.1736 10.8259 39.3501 10.824 39.5204 10.7854C39.6907 10.7468 39.8509 10.6725 39.9903 10.5673C40.4348 10.2332 40.5307 9.6957 40.2053 9.36739C40.0962 9.25874 39.9579 9.18406 39.8072 9.15239C39.6367 9.11605 39.4602 9.11723 39.2902 9.15586C39.1201 9.19449 38.9605 9.26964 38.8223 9.37611ZM21.6223 4.99766C21.079 5.11969 20.6838 5.57874 20.7507 6.0378C20.7756 6.18284 20.8448 6.3166 20.9489 6.42066C21.053 6.52472 21.1867 6.59397 21.3318 6.61888C21.499 6.65812 21.673 6.65812 21.8402 6.61888C22.3835 6.49685 22.7786 6.03779 22.7118 5.57874C22.6846 5.4347 22.6146 5.30221 22.5109 5.19856C22.4073 5.0949 22.2748 5.02489 22.1307 4.99766C21.9633 4.96013 21.7897 4.96013 21.6223 4.99766Z" fill="#FE3030"/>
<path d="M16.6048 3.74255C11.5087 5.73857 6.96171 9.12918 3.89941 13.4379C4.30582 13.7401 4.77097 13.9539 5.26496 14.0655C5.99237 14.2165 6.74375 14.2093 7.46813 14.0444C8.19252 13.8795 8.87295 13.5606 9.46327 13.1096L15.4717 8.58587C17.241 7.24938 17.7088 5.14877 16.6048 3.74255Z" fill="#F67067"/>
<path d="M25.4894 1.7669C27.9268 1.61382 30.3735 1.81543 32.7529 2.36541C35.2705 2.93163 37.6563 3.97509 39.7811 5.43934C39.1882 6.21591 38.3889 6.81019 37.4745 7.15438C36.56 7.49857 35.5673 7.57882 34.6095 7.38596L27.805 5.78508C25.8177 5.30278 24.8444 3.55954 25.4894 1.7669Z" fill="#F67067"/>
<path d="M39.8103 9.15531C39.961 9.18698 40.0992 9.26166 40.2083 9.37031C40.5337 9.69863 40.4378 10.2419 39.9933 10.5702C39.8539 10.6754 39.6938 10.7498 39.5234 10.7883C39.3531 10.8269 39.1766 10.8288 39.0055 10.794C38.8552 10.7594 38.7175 10.684 38.6074 10.5761C38.282 10.2477 38.3808 9.70444 38.8253 9.37903C38.9635 9.27257 39.1231 9.19741 39.2932 9.15878C39.4633 9.12015 39.6397 9.11897 39.8103 9.15531Z" fill="#FFFCED"/>
<path d="M45.6527 14.1381C45.2033 13.0573 44.7511 11.9775 44.2959 10.8986C44.4092 10.8376 44.5225 10.7795 44.6416 10.7272L45.9956 13.9667C45.8793 14.019 45.7631 14.0684 45.6527 14.1381Z" fill="#FE3030"/>
<path d="M45.6529 14.1381C44.0869 14.9836 43.0874 16.5351 43.2821 18.0459L41.9281 14.8063C41.7306 13.2955 42.73 11.7469 44.296 10.8986C44.6244 11.6743 44.6244 11.6743 45.6529 14.1381Z" fill="#FE3030"/>
<path d="M2.55998 34.1157L1.20605 30.8762C1.594 31.7991 2.06977 32.6825 2.62679 33.5143L3.98072 36.7539C3.42419 35.9217 2.94845 35.0384 2.55998 34.1157Z" fill="#F67067"/>
<path d="M8.54762 32.6775C8.69806 32.7115 8.83595 32.787 8.94566 32.8954C9.26816 33.2237 9.17228 33.767 8.73066 34.0924C8.59176 34.1986 8.43172 34.2738 8.26131 34.3129C8.09091 34.352 7.91411 34.3541 7.74282 34.3191C7.59129 34.2857 7.45229 34.2102 7.34187 34.1011C7.02228 33.7728 7.11816 33.2295 7.55978 32.9041C7.69868 32.7979 7.85872 32.7228 8.02913 32.6837C8.19953 32.6446 8.37633 32.6425 8.54762 32.6775Z" fill="#FFFCED"/>
<path d="M7.76332 38.4041L9.12886 41.6436C7.08724 40.4002 5.33568 38.7339 3.99211 36.7567L2.63818 33.5172C3.9784 35.4931 5.7259 37.1594 7.76332 38.4041Z" fill="#F50000"/>
<path d="M12.5513 36.9223L13.9081 40.1619C13.0493 39.9877 12.1606 40.0321 11.3234 40.291C10.4863 40.5499 9.72761 41.015 9.1171 41.6436L7.76318 38.4041C8.3734 37.776 9.13158 37.3111 9.96817 37.0522C10.8048 36.7933 11.693 36.7487 12.5513 36.9223Z" fill="#FE3030"/>
<path d="M45.4463 12.3804L46.8002 15.6199C48.2064 18.9815 48.4156 22.8515 47.2186 26.8028L45.8647 23.5633C47.0675 19.6119 46.8583 15.7419 45.4463 12.3804Z" fill="#FB4242"/>
<path d="M44.6419 10.7272C46.7483 14.4403 47.2567 18.9466 45.8709 23.5633C45.6497 23.5461 45.4302 23.5121 45.2143 23.4616C43.8807 23.1478 42.8899 22.2181 42.7243 20.9339L41.9282 14.8064C41.7161 13.1968 42.8783 11.5233 44.6419 10.7272Z" fill="#F67067"/>
<path d="M41.8787 25.077C41.9903 25.0947 42.0959 25.1389 42.1868 25.2061C42.2776 25.2732 42.3509 25.3613 42.4005 25.4627C42.4501 25.5642 42.4745 25.6761 42.4717 25.789C42.4688 25.9019 42.4389 26.0125 42.3843 26.1113C42.2603 26.3401 42.0659 26.5228 41.8298 26.6322C41.5937 26.7416 41.3286 26.7719 41.0739 26.7186C40.9627 26.7003 40.8575 26.6557 40.7671 26.5884C40.6766 26.5211 40.6036 26.4332 40.5541 26.3319C40.5046 26.2307 40.4801 26.119 40.4826 26.0064C40.4851 25.8937 40.5145 25.7832 40.5684 25.6842C40.6931 25.4561 40.8876 25.274 41.1235 25.1647C41.3594 25.0554 41.6241 25.0247 41.8787 25.077Z" fill="#FFFCED"/>
<path d="M19.3557 38.5203L20.7126 41.7598L13.9081 40.159L12.5513 36.9194L19.3557 38.5203Z" fill="#FE3030"/>
<path d="M45.8705 23.5632L47.2244 26.8028C46.9035 27.8609 46.4963 28.8909 46.007 29.8825C45.3747 31.1677 44.6228 32.3904 43.7611 33.5346L42.4072 30.2951C43.2674 29.1458 44.0192 27.9193 44.6531 26.6313C45.1401 25.6428 45.5472 24.6168 45.8705 23.5632Z" fill="#F50000"/>
<path d="M43.3257 33.4185C42.5987 33.2675 41.8478 33.2747 41.1239 33.4396C40.4 33.6046 39.7201 33.9233 39.1303 34.3743L37.7734 31.1319C38.363 30.6836 39.0415 30.3665 39.7635 30.2016C40.4855 30.0368 41.2345 30.0281 41.9601 30.176C42.1075 30.2121 42.253 30.2557 42.3959 30.3068C42.8453 31.3876 43.2966 32.4674 43.7499 33.5463C43.6114 33.4946 43.4697 33.4519 43.3257 33.4185Z" fill="#FE3030"/>
<path d="M37.7735 31.1318L39.1304 34.3714L33.1191 38.898L31.7651 35.6556L37.7735 31.1318Z" fill="#FE3030"/>
<path d="M26.2535 36.841C26.4006 36.8668 26.5358 36.9381 26.6401 37.045C26.7444 37.1519 26.8124 37.2889 26.8346 37.4366C26.8956 37.884 26.5004 38.3518 25.9629 38.4767C25.7967 38.5159 25.6236 38.5159 25.4574 38.4767C25.3107 38.4501 25.1758 38.3785 25.0717 38.2717C24.9676 38.165 24.8993 38.0285 24.8763 37.8811C24.8211 37.4308 25.2104 36.9659 25.7479 36.841C25.9142 36.8022 26.0872 36.8022 26.2535 36.841Z" fill="#FFFCED"/>
<path d="M19.3558 38.5232C20.9363 38.8951 21.8748 40.0718 21.8689 41.4431C19.199 41.6809 16.5082 41.4946 13.8965 40.8911C11.7313 40.3984 9.66005 39.5586 7.76318 38.4041C8.3734 37.776 9.13158 37.3111 9.96817 37.0522C10.8048 36.7933 11.693 36.7487 12.5513 36.9223L19.3558 38.5232Z" fill="#F67067"/>
<path d="M21.869 41.4431L23.2259 44.6826C20.5551 44.9198 17.8636 44.7345 15.2505 44.1335C13.0896 43.6374 11.0226 42.7967 9.12882 41.6436L7.7749 38.4041C9.67177 39.5585 11.743 40.3984 13.9082 40.8911C16.5162 41.4934 19.2029 41.6797 21.869 41.4431Z" fill="#FB4242"/>
<path d="M33.1189 38.898C32.6507 39.2254 32.2561 39.647 31.9604 40.1358C31.6647 40.6246 31.4744 41.1699 31.4018 41.7366L30.0479 38.4941C30.1222 37.928 30.3136 37.3836 30.6097 36.8954C30.9058 36.4073 31.3002 35.986 31.7679 35.6584L33.1189 38.898Z" fill="#FE3030"/>
<path d="M31.4018 41.7366C31.3709 42.0689 31.3974 42.404 31.4803 42.7273L30.1234 39.4878C30.0418 39.1633 30.0153 38.8274 30.045 38.4941L30.2048 38.8747L30.3733 39.2757L30.5476 39.6912L30.7249 40.1154L30.812 40.3275L30.9021 40.5395L31.0764 40.955L31.1607 41.1584L31.3234 41.5506C31.3566 41.6094 31.383 41.6718 31.4018 41.7366Z" fill="#FE3030"/>
<path d="M30.1234 39.4878L31.4802 42.7273C28.838 43.7754 26.0576 44.4341 23.226 44.6827L21.8691 41.4431C24.7008 41.1951 27.4814 40.5364 30.1234 39.4878Z" fill="#F50000"/>
<path d="M37.7731 31.1319C38.3627 30.6836 39.0412 30.3665 39.7632 30.2016C40.4852 30.0368 41.2342 30.0281 41.9598 30.176C42.1072 30.2121 42.2527 30.2557 42.3956 30.3068C39.3537 34.3743 34.9869 37.5703 30.1116 39.4878C29.7804 38.2066 30.3702 36.6987 31.7531 35.6585L37.7731 31.1319Z" fill="#F67067"/>
<path d="M42.4076 30.3068L43.7615 33.5347C40.7225 37.6022 36.3556 40.7982 31.4804 42.7158L30.1235 39.4762C34.9872 37.5645 39.3656 34.3772 42.4076 30.3068Z" fill="#FB4242"/>
</svg>
