<svg width="84" height="84" viewBox="0 0 84 84" fill="none" xmlns="http://www.w3.org/2000/svg">
<circle opacity="0.4" cx="42" cy="42" r="42" fill="url(#paint0_radial_925_11942)"/>
<g clip-path="url(#clip0_925_11942)">
<path d="M35.9613 24.7648C35.931 24.7047 35.9048 24.6425 35.8829 24.5788C35.4567 23.562 35.0306 22.5441 34.6045 21.5253C34.7597 21.7207 34.8868 21.9368 34.9822 22.1674L36.339 25.4069C36.2407 25.1778 36.1138 24.962 35.9613 24.7648Z" fill="#FE3030"/>
<path d="M40.9644 26.02L40.3833 24.6109L39.6221 22.7805C39.7895 22.7429 39.9631 22.7429 40.1305 22.7805L40.2874 23.1611L40.4559 23.562L40.6302 23.9775L40.8075 24.4017L40.9847 24.8259L41.159 25.2413L41.3275 25.6423L41.4844 26.0229C41.3138 25.9804 41.1355 25.9794 40.9644 26.02Z" fill="#FE3030"/>
<path d="M41.4701 26.017L40.1162 22.7745L40.2731 23.1551L40.4416 23.5561L40.6159 23.9716L40.7932 24.3957L40.9704 24.8199L41.1447 25.2354L41.3132 25.6364L41.4701 26.017Z" fill="#FE3030"/>
<path d="M44.8518 24.9799L43.5095 21.7404C43.226 21.0389 43.2188 20.2562 43.4891 19.5497L44.8518 22.7892C44.5749 23.4932 44.5749 24.2759 44.8518 24.9799Z" fill="#FE3030"/>
<path d="M38.7275 23.8206L38.8467 24.1111L38.9687 24.4016L39.0965 24.7067L39.2273 25.0205L39.3609 25.3372L39.4946 25.6568L39.6253 25.9735L39.756 26.2843L38.7275 23.8235V23.8206Z" fill="#FE3030"/>
<path d="M40.0842 27.0602C40.0899 27.1192 40.1046 27.177 40.1277 27.2316L38.7738 23.9892C38.7506 23.9354 38.7349 23.8787 38.7274 23.8207C39.1806 24.9015 39.6319 25.9813 40.0813 27.0602C39.6319 25.9794 39.1806 24.8995 38.7274 23.8207C38.6692 23.3703 39.0644 22.9025 39.599 22.7805L40.9558 26.02C40.4183 26.1421 40.0232 26.6215 40.0842 27.0602Z" fill="#FE3030"/>
<path d="M42.0134 26.4412C41.963 26.3324 41.8875 26.2372 41.793 26.1635C41.6985 26.0897 41.5878 26.0395 41.4701 26.017L40.1162 22.7745C40.2336 22.798 40.3438 22.849 40.4377 22.9232C40.5316 22.9974 40.6066 23.0928 40.6566 23.2016L42.0134 26.4412Z" fill="#FE3030"/>
<path d="M34.9732 22.1674L36.33 25.4069C36.8937 26.7579 36.33 28.4634 34.8163 29.6081L33.4595 26.3686C34.9877 25.2238 35.5543 23.5184 34.9732 22.1674Z" fill="#F66767"/>
<path d="M40.6567 23.2017L42.0135 26.4412C42.0342 26.4956 42.0488 26.5521 42.0571 26.6097C42.1123 27.06 41.7201 27.5278 41.1855 27.6498C41.0183 27.689 40.8443 27.689 40.677 27.6498C40.5599 27.6267 40.45 27.5762 40.356 27.5024C40.2621 27.4287 40.187 27.3339 40.1366 27.2256L38.7827 23.9832C38.8314 24.0921 38.9057 24.1875 38.9993 24.2614C39.0929 24.3353 39.203 24.3854 39.3202 24.4074C39.4874 24.4466 39.6615 24.4466 39.8287 24.4074C40.372 24.2854 40.7671 23.8263 40.7003 23.3673C40.6934 23.3103 40.6787 23.2546 40.6567 23.2017Z" fill="#FFFCED"/>
<path d="M40.1162 22.7746C40.2602 22.8018 40.3927 22.8719 40.4964 22.9755C40.6 23.0792 40.6701 23.2116 40.6973 23.3557C40.7525 23.806 40.3574 24.2738 39.8257 24.3958C39.6585 24.4351 39.4844 24.4351 39.3172 24.3958C39.1722 24.3709 39.0384 24.3017 38.9344 24.1976C38.8303 24.0935 38.761 23.9598 38.7361 23.8147C38.678 23.3644 39.0732 22.8966 39.6078 22.7746C39.7752 22.7371 39.9488 22.7371 40.1162 22.7746Z" fill="#FFFCED"/>
<path d="M33.4683 26.3656L34.8252 29.6051L28.8139 34.1317L27.46 30.8922L33.4683 26.3656Z" fill="#F66767"/>
<path d="M44.8521 24.9798L43.5098 21.7402C43.7192 22.2041 44.0371 22.6109 44.4365 22.9264C44.8359 23.2419 45.3052 23.4569 45.805 23.5532L47.1764 26.7927C46.6712 26.7012 46.1957 26.4884 45.7909 26.1726C45.386 25.8568 45.0639 25.4475 44.8521 24.9798Z" fill="#F66767"/>
<path d="M27.4604 30.8922L28.8143 34.1317C28.224 34.583 27.5436 34.9019 26.8192 35.0668C26.0948 35.2317 25.3434 35.2388 24.616 35.0876C24.1229 34.976 23.6587 34.7622 23.2533 34.46L21.8994 31.2205C22.3058 31.5227 22.771 31.7365 23.265 31.8481C23.9919 31.9987 24.7427 31.9913 25.4666 31.8264C26.1904 31.6614 26.8704 31.3429 27.4604 30.8922Z" fill="#F66767"/>
<path d="M24.4907 34.5386L24.6069 34.8291L24.7319 35.1197L24.8597 35.4276L24.9905 35.7385L25.1241 36.0581L25.2548 36.3748L25.3885 36.6915L25.5192 37.0024L24.4907 34.5444V34.5386Z" fill="#FE3030"/>
<path d="M24.5374 38.3825C24.4879 38.4756 24.4592 38.5784 24.4532 38.6837C24.4472 38.789 24.464 38.8944 24.5025 38.9926L23.1457 35.7531C23.1072 35.6549 23.0904 35.5495 23.0964 35.4442C23.1024 35.3389 23.1311 35.2361 23.1805 35.1429L24.5374 38.3825L23.1805 35.1429C23.3056 34.9153 23.5004 34.7338 23.7362 34.6251C23.9721 34.5163 24.2366 34.486 24.4909 34.5386C24.9402 35.6155 25.3915 36.6954 25.8448 37.7781C25.3954 36.6973 24.9441 35.6175 24.4909 34.5386C24.608 34.5609 24.718 34.611 24.8116 34.6849C24.9051 34.7587 24.9795 34.8541 25.0284 34.9628L26.3852 38.2023C26.3363 38.0931 26.2615 37.9974 26.1674 37.9235C26.0732 37.8496 25.9625 37.7997 25.8448 37.7781C25.5909 37.7252 25.3267 37.7554 25.0912 37.8643C24.8558 37.9731 24.6616 38.1548 24.5374 38.3825Z" fill="#FE3030"/>
<path d="M25.0282 34.9628L26.385 38.2023C26.4236 38.3 26.4405 38.4049 26.4345 38.5097C26.4285 38.6146 26.3997 38.7169 26.3502 38.8095C26.2259 39.0382 26.0316 39.2209 25.7957 39.3307C25.5597 39.4406 25.2948 39.4718 25.0398 39.4197C24.9227 39.3964 24.8128 39.3455 24.7193 39.2713C24.6258 39.197 24.5514 39.1014 24.5023 38.9926L23.1455 35.753C23.1948 35.862 23.2697 35.9574 23.3638 36.0313C23.4579 36.1051 23.5684 36.1552 23.6859 36.1772C23.9406 36.2301 24.2055 36.1995 24.4414 36.0902C24.6774 35.9808 24.8719 35.7984 24.9962 35.57C25.0446 35.4769 25.0724 35.3746 25.078 35.2698C25.0835 35.1651 25.0665 35.0604 25.0282 34.9628Z" fill="#FFFCED"/>
<path d="M24.4907 34.5386C24.6018 34.5565 24.7071 34.6007 24.7975 34.6677C24.888 34.7346 24.9611 34.8223 25.0106 34.9234C25.0602 35.0245 25.0847 35.1359 25.0822 35.2485C25.0797 35.361 25.0502 35.4713 24.9962 35.57C24.8719 35.7985 24.6774 35.9809 24.4414 36.0902C24.2055 36.1996 23.9406 36.2301 23.6859 36.1773C23.5744 36.1596 23.4687 36.1153 23.3779 36.0482C23.2871 35.9811 23.2138 35.893 23.1642 35.7916C23.1146 35.6901 23.0902 35.5782 23.093 35.4653C23.0958 35.3524 23.1258 35.2418 23.1804 35.1429C23.3051 34.915 23.4998 34.7332 23.7358 34.6244C23.9717 34.5156 24.2364 34.4855 24.4907 34.5386Z" fill="#FFFCED"/>
<path d="M52.6091 25.1513L53.966 28.3908L47.1615 26.7929L45.8047 23.5533L52.6091 25.1513Z" fill="#F66767"/>
<path d="M57.781 23.222L59.1378 26.4616C58.5418 27.2339 57.7416 27.8242 56.8277 28.1656C55.9138 28.5071 54.9226 28.586 53.9662 28.3937L52.6094 25.1687C53.5672 25.3615 54.56 25.2813 55.4744 24.9371C56.3888 24.5929 57.1881 23.9986 57.781 23.222Z" fill="#F66767"/>
<path d="M40.8192 31.9294L42.1731 35.169C42.0523 35.1438 41.9267 35.1533 41.811 35.1965C41.6953 35.2397 41.5942 35.3148 41.5194 35.413L40.1626 32.1735C40.2381 32.0753 40.3397 32.0003 40.4558 31.9571C40.572 31.9139 40.6979 31.9043 40.8192 31.9294Z" fill="#FFFCED"/>
<path d="M21.3183 41.8544C20.8426 41.7434 20.352 41.7101 19.8656 41.7556L18.5088 38.5161C18.9951 38.4715 19.4853 38.5039 19.9615 38.612C20.4109 39.6928 20.8622 40.7726 21.3154 41.8515L20.99 41.0728L19.9615 38.6149C20.4607 38.7115 20.9296 38.9259 21.3293 39.2402C21.729 39.5546 22.048 39.9597 22.2597 40.422L23.6165 43.6615C23.4048 43.1992 23.0859 42.7941 22.6862 42.4798C22.2865 42.1655 21.8175 41.9511 21.3183 41.8544Z" fill="#FE3030"/>
<path d="M22.2476 40.422L23.6044 43.6615C23.6988 43.8925 23.7632 44.1347 23.7961 44.3821L22.4393 41.1483C22.4083 40.8987 22.3438 40.6544 22.2476 40.422Z" fill="#F66767"/>
<path d="M58.1791 30.3985L57.5022 28.7772C57.2755 28.2368 57.0489 27.6993 56.8252 27.1589C56.9633 27.0525 57.123 26.9773 57.293 26.9387C57.4631 26.9001 57.6396 26.8989 57.8101 26.9352L57.967 27.3129L58.0513 27.5105L58.2227 27.9202L58.397 28.3414L58.5772 28.7656L58.6643 28.9777L58.7515 29.1869L58.9229 29.5966L59.0856 29.9888C59.1236 30.0451 59.1503 30.1082 59.164 30.1747C58.9935 30.1384 58.817 30.1396 58.647 30.1782C58.4769 30.2168 58.3172 30.292 58.1791 30.3985Z" fill="#FE3030"/>
<path d="M59.164 30.1775C58.7127 29.0967 58.2614 28.0169 57.8101 26.938L57.967 27.3157L58.1355 27.7166L58.3098 28.1321L58.487 28.5563L58.6642 28.9805L58.8386 29.396L59.0071 29.7969L59.164 30.1775Z" fill="#FE3030"/>
<path d="M59.5648 30.3984C59.3992 29.9975 59.2307 29.5994 59.0651 29.2014C58.7746 28.5215 58.484 27.8388 58.208 27.1676C58.2981 27.1996 58.2603 27.2925 58.2865 27.3535L58.4492 27.7458L58.5363 27.9492L58.7106 28.3646L58.8879 28.7888L58.975 29.0009L59.1523 29.4222L59.3237 29.8319L59.405 30.0294L59.5648 30.3984Z" fill="#FE3030"/>
<path d="M59.5649 30.3985C59.4553 30.2884 59.316 30.2127 59.164 30.1806C58.7127 29.0998 58.2614 28.0199 57.8101 26.941C57.9607 26.9727 58.099 27.0474 58.2081 27.156L58.3679 27.5337L58.4492 27.7313L58.6207 28.141L58.7107 28.3502L59.5649 30.3839V30.3985Z" fill="#FE3030"/>
<path d="M58.1789 30.3984C58.0178 30.4997 57.8951 30.6519 57.8304 30.8309C57.7657 31.0098 57.7625 31.2053 57.8215 31.3862L56.4734 28.1496C56.4177 27.9682 56.4228 27.7735 56.4878 27.5952C56.5528 27.4169 56.6743 27.2647 56.8337 27.1617C57.2288 28.1321 57.7721 29.428 58.1789 30.3984Z" fill="#FE3030"/>
<path d="M59.7073 30.6047C59.6746 30.526 59.6261 30.4548 59.5649 30.3955L58.2168 27.1531C58.2775 27.2139 58.3258 27.2859 58.3592 27.3652L59.7073 30.6047Z" fill="#FE3030"/>
<path d="M27.4194 41.7033C26.6584 44.1674 26.7734 46.8189 27.7448 49.2079L26.3909 45.9684C25.4166 43.58 25.3016 40.9275 26.0655 38.4637L26.2224 38.8444L26.3909 39.2453L26.5653 39.6608L26.7425 40.085L26.8326 40.2971L27.0069 40.7183L27.094 40.9246L27.1783 41.128L27.2625 41.3256C27.3334 41.4429 27.3863 41.5702 27.4194 41.7033Z" fill="#FE3030"/>
<path d="M28.291 39.4923C27.9383 40.2033 27.6467 40.943 27.4193 41.7034C26.968 40.6245 26.5167 39.5446 26.0654 38.4638C26.2928 37.7035 26.5844 36.9638 26.9371 36.2528C30.4816 29.0155 39.8864 24.6574 47.8995 26.543C52.1559 27.5424 55.163 30.105 56.5402 33.3736L57.897 36.6131C56.5315 33.3445 53.5099 30.7819 49.2535 29.7825C41.2258 27.8969 31.821 32.255 28.291 39.4923Z" fill="#FE3030"/>
<path d="M55.991 33.5943L57.3449 36.8338C56.0287 33.6844 53.1146 31.2119 49.0122 30.2473C41.2809 28.4314 32.2132 32.6326 28.7935 39.6143C27.1897 42.8887 27.1113 46.2008 28.2734 48.9842L26.9195 45.7447C25.7574 42.9613 25.8358 39.6434 27.4367 36.3748C30.8563 29.4018 39.9299 25.189 47.6554 27.0078C51.7578 27.9724 54.6719 30.4449 55.991 33.5943Z" fill="#C62525"/>
<path d="M54.2246 33.6176C53.9864 33.4026 53.7365 33.1934 53.475 32.9959C53.0256 31.9151 52.5743 30.8352 52.1211 29.7563C52.3826 29.9539 52.6324 30.1602 52.8678 30.3781L52.9637 30.6047L53.0625 30.8459L53.167 31.0928L53.2745 31.3485L53.3791 31.6013L53.4837 31.8511L53.5854 32.0923L53.6784 32.316L53.7423 32.47L53.8091 32.6298L53.8789 32.7983L53.9515 32.9668L54.0212 33.1382L54.0939 33.3038L54.1607 33.4665L54.2246 33.6176Z" fill="#FE3030"/>
<path d="M46.4151 33.2427L47.7691 36.4822L42.1733 35.166L40.8193 31.9265L46.4151 33.2427Z" fill="#FFFCED"/>
<path d="M58.3505 27.3652L59.7073 30.6048C59.7633 30.7859 59.7587 30.9803 59.6942 31.1586C59.6297 31.3368 59.5089 31.4892 59.35 31.5926C59.2106 31.6978 59.0504 31.7721 58.8801 31.8107C58.7098 31.8492 58.5333 31.8512 58.3621 31.8163C58.2117 31.7823 58.0738 31.7068 57.9641 31.5984C57.9035 31.5386 57.8551 31.4676 57.8217 31.3892L56.4736 28.1497C56.508 28.2275 56.5563 28.2983 56.616 28.3589C56.7261 28.4668 56.8638 28.5422 57.014 28.5768C57.1851 28.6116 57.3617 28.6097 57.532 28.5711C57.7023 28.5326 57.8625 28.4582 58.0019 28.3531C58.1614 28.2505 58.2823 28.0977 58.3454 27.9189C58.4085 27.74 58.4103 27.5452 58.3505 27.3652Z" fill="#FFFCED"/>
<path d="M42.5014 35.9187L43.8553 39.1582C43.7344 39.1337 43.6091 39.1436 43.4935 39.1867C43.378 39.2298 43.2768 39.3045 43.2016 39.4023L41.8477 36.1627C41.9229 36.065 42.024 35.9903 42.1396 35.9472C42.2552 35.904 42.3805 35.8942 42.5014 35.9187Z" fill="#FE3030"/>
<path d="M54.2245 33.6176C54.2109 33.5938 54.2002 33.5684 54.1925 33.542L54.0589 33.2224L53.9863 33.0539L53.9514 32.9668L53.6783 32.316L52.8677 30.3781C53.219 30.6962 53.5463 31.04 53.8468 31.4066L54.0066 31.7843L54.1751 32.1852L54.3494 32.6007L54.5267 33.0249L54.7039 33.4491L54.8782 33.8645L55.0438 34.2655L55.2036 34.6461C54.9008 34.2816 54.5737 33.938 54.2245 33.6176Z" fill="#FE3030"/>
<path d="M55.5644 35.1051C55.4481 34.9482 55.329 34.7942 55.2041 34.646C54.7508 33.5575 54.3024 32.4776 53.8589 31.4065C53.9838 31.5547 54.1058 31.697 54.2192 31.8655L54.3383 32.1561L54.4632 32.4466L54.594 32.7604L54.7276 33.0771L54.8613 33.3967L54.992 33.7105L55.1169 34.001L55.236 34.2916L55.2767 34.3874L55.3174 34.4862L55.361 34.5908L55.4046 34.6954L55.4511 34.8L55.4946 34.9046L55.5353 35.0034L55.5644 35.1051Z" fill="#FE3030"/>
<path d="M44.1982 36.3254L45.5521 39.5649L43.8554 39.1669L42.5015 35.9244L44.1982 36.3254Z" fill="#FE3030"/>
<path d="M41.8476 36.1714L43.2015 39.4109L41.682 41.5144L40.3252 38.2749L41.8476 36.1714Z" fill="#FE3030"/>
<path d="M41.6182 41.9096L40.2643 38.67C40.239 38.6046 40.2313 38.5337 40.242 38.4643C40.2527 38.395 40.2814 38.3297 40.3253 38.2749L41.6821 41.5173C41.638 41.5714 41.6089 41.6361 41.5977 41.7049C41.5865 41.7737 41.5935 41.8443 41.6182 41.9096Z" fill="#FE3030"/>
<path d="M45.1193 36.953L46.4761 40.1925C46.3482 39.902 46.0403 39.6812 45.5522 39.5679L44.1982 36.3254C44.6834 36.4417 44.9943 36.6508 45.1193 36.953Z" fill="#FE3030"/>
<path d="M41.9086 42.1362C41.8457 42.1242 41.7865 42.0974 41.736 42.0579C41.6855 42.0185 41.6451 41.9677 41.6181 41.9096L40.2642 38.67C40.2907 38.7284 40.331 38.7795 40.3816 38.819C40.4322 38.8585 40.4916 38.8851 40.5547 38.8967L41.9086 42.1362Z" fill="#FFFCED"/>
<path d="M46.4759 40.1925C46.4759 40.2187 46.4963 40.2448 46.5021 40.271L45.1423 37.0315C45.1423 37.0053 45.1249 36.9792 45.1133 36.953L46.4759 40.1925Z" fill="#FFFCED"/>
<path d="M50.7412 38.7515C50.2589 37.5893 49.2691 36.8339 47.7719 36.4852L46.415 33.2457C47.9104 33.5963 48.9011 34.3507 49.3873 35.509L50.7412 38.7515Z" fill="#FFFCED"/>
<path d="M49.3872 35.5089L50.7411 38.7484C50.7501 38.7673 50.7579 38.7867 50.7644 38.8065L49.4105 35.5641C49.4017 35.5467 49.3959 35.5292 49.3872 35.5089Z" fill="#FE3030"/>
<path d="M42.234 39.2888L43.5879 42.5313L41.9086 42.1361L40.5547 38.8966L42.234 39.2888Z" fill="#FFFCED"/>
<path d="M46.5018 40.2768C46.6268 40.6254 46.5309 41.0176 46.2113 41.4534L46.0515 41.0757L45.883 40.6748L45.7087 40.2564L45.5314 39.8322L45.1799 38.9926C45.0724 38.734 44.9649 38.4725 44.8545 38.2139C45.1654 37.7781 45.2612 37.3859 45.145 37.0518C45.5547 38.0018 46.1241 39.286 46.5018 40.2768Z" fill="#FFFCED"/>
<path d="M46.223 41.4389L44.8662 38.1993L46.223 41.4389Z" fill="#FFFCED"/>
<path d="M22.4395 41.1396L23.7963 44.3821L24.5895 50.5067L23.2355 47.2671L22.4395 41.1396Z" fill="#F66767"/>
<path d="M43.643 42.5459L43.5878 42.5314L42.2368 39.2919H42.2891L42.4344 39.6347L42.5855 39.9979L42.7453 40.3756L42.9051 40.762L43.0678 41.1455L43.2247 41.5232L43.3757 41.8893L43.521 42.2321V42.267L43.5355 42.3048L43.553 42.3425L43.5675 42.3803L43.5849 42.421L43.6024 42.4588L43.6169 42.4965L43.643 42.5459Z" fill="#FFFCED"/>
<path d="M43.6429 42.5458C43.1897 41.465 42.7374 40.3851 42.2861 39.3063L42.4459 39.684L42.6144 40.0849L42.7888 40.5033L42.966 40.9275L43.1432 41.3517L43.3175 41.7671L43.4832 42.1681L43.6429 42.5458Z" fill="#FFFCED"/>
<path d="M29.4271 39.7625C27.893 42.8945 27.8146 46.0585 28.9244 48.714L27.5676 45.4745C26.4577 42.819 26.5362 39.6637 28.0702 36.523C31.3417 29.8405 39.9824 25.8398 47.3766 27.5801C49.0917 27.9641 50.7064 28.7056 52.1153 29.7563L52.2722 30.134L52.4407 30.5349L52.6151 30.9504L52.7923 31.3746L52.9695 31.7988L53.1439 32.2142L53.3124 32.6152L53.4693 32.9958C52.0586 31.9444 50.4418 31.2029 48.7247 30.8196C41.3392 29.0822 32.6956 33.0859 29.4271 39.7625Z" fill="#FE3030"/>
<path d="M55.5639 35.1051C55.5559 35.0902 55.5491 35.0746 55.5435 35.0586L55.5028 34.9599L55.4825 34.9105L55.3924 34.7013L55.2239 34.2974C54.8869 33.4878 54.5479 32.6772 54.207 31.8656C54.6635 32.4851 55.0439 33.1572 55.3401 33.8674L56.697 37.1069C56.3985 36.3978 56.0182 35.726 55.5639 35.1051Z" fill="#FE3030"/>
<path d="M45.0175 42.4093C44.91 42.1479 44.7996 41.8893 44.6921 41.6278C44.5846 41.3663 44.4567 41.067 44.3405 40.7881L43.6636 39.1698C44.1476 38.9699 44.5648 38.6363 44.8664 38.2081L45.0262 38.5858L45.1918 38.9868L45.3661 39.4023L45.5434 39.8264L45.7206 40.2506L45.8949 40.669L46.0634 41.0699L46.2232 41.4477C45.9213 41.8767 45.503 42.2104 45.0175 42.4093Z" fill="#FFFCED"/>
<path d="M45.0173 42.4093C44.5887 42.6045 44.1075 42.6525 43.6488 42.5459C43.1956 41.4689 42.7433 40.3891 42.292 39.3064C42.7517 39.413 43.2337 39.365 43.6633 39.1698L45.0173 42.4093Z" fill="#FFFCED"/>
<path d="M44.1979 36.3255C44.7248 36.4514 45.0414 36.6867 45.148 37.0315C45.2729 37.3802 45.1741 37.7724 44.8574 38.1937C44.5559 38.6219 44.1387 38.9554 43.6546 39.1554C43.225 39.3506 42.7429 39.3986 42.2833 39.2919H42.2251L40.5458 38.8968C40.4793 38.886 40.4168 38.8577 40.3647 38.8149C40.3127 38.772 40.273 38.7161 40.2496 38.6529C40.2263 38.5896 40.2202 38.5213 40.2319 38.4549C40.2436 38.3886 40.2727 38.3265 40.3163 38.275L41.8387 36.1715C41.914 36.0738 42.0151 35.9991 42.1307 35.956C42.2462 35.9128 42.3716 35.9029 42.4924 35.9275L44.1979 36.3255Z" fill="#FFFCED"/>
<path d="M40.1654 32.1707L41.5194 35.4131L32.6869 47.6535L31.333 44.414L40.1654 32.1707Z" fill="#FFFCED"/>
<path d="M28.5237 49.5305C28.4365 49.3533 28.3523 49.1702 28.2767 48.9872L26.9199 45.7477C26.9984 45.9307 27.0797 46.1109 27.1669 46.291C27.2163 46.4043 27.2802 46.5554 27.3267 46.6687L27.4952 47.0696L27.6695 47.488L27.8467 47.9122L28.024 48.3335L28.1983 48.7519L28.3639 49.1528L28.5237 49.5305Z" fill="#FE3030"/>
<path d="M38.3554 41.7004L39.7093 44.9399C39.5888 44.9142 39.4635 44.9236 39.3482 44.9668C39.2329 45.0101 39.1323 45.0854 39.0585 45.184L37.7017 41.9445C37.7764 41.8462 37.8775 41.7711 37.9932 41.7279C38.1089 41.6847 38.2345 41.6752 38.3554 41.7004Z" fill="#FE3030"/>
<path d="M34.4969 45.7244L35.8538 48.964L32.9164 48.2725L31.5596 45.033L34.4969 45.7244Z" fill="#FE3030"/>
<path d="M32.6869 47.6536C32.6438 47.7082 32.6155 47.773 32.6048 47.8417C32.5941 47.9104 32.6014 47.9807 32.6258 48.0458L31.269 44.8063C31.245 44.7409 31.2382 44.6705 31.2494 44.6018C31.2606 44.533 31.2894 44.4684 31.3329 44.4141L32.6869 47.6536Z" fill="#FFFCED"/>
<path d="M32.6259 48.0458L31.269 44.8063C31.2962 44.8645 31.3367 44.9156 31.3871 44.9555C31.4376 44.9953 31.4966 45.0228 31.5596 45.0358L32.9164 48.2753C32.8531 48.2632 32.7936 48.2361 32.7431 48.1961C32.6925 48.1562 32.6523 48.1046 32.6259 48.0458Z" fill="#FE3030"/>
<path d="M39.2736 41.9125L40.6275 45.1549L39.7094 44.937L38.3555 41.6975L39.2736 41.9125Z" fill="#FE3030"/>
<path d="M39.5901 42.3077L40.944 45.5473L40.6215 49.7659L39.2676 46.5264L39.5901 42.3077Z" fill="#FFFCED"/>
<path d="M39.564 42.142L40.9179 45.3816C40.8915 45.323 40.8513 45.2718 40.8007 45.2323C40.75 45.1928 40.6906 45.1663 40.6274 45.1549L39.2734 41.9154C39.3365 41.9272 39.3957 41.9539 39.4463 41.9934C39.4968 42.0328 39.5372 42.0838 39.564 42.142Z" fill="#FE3030"/>
<path d="M39.564 42.142L40.9179 45.3815C40.9397 45.4338 40.9487 45.4906 40.944 45.5471L39.5901 42.3105C39.5937 42.2531 39.5848 42.1956 39.564 42.142Z" fill="#FFFCED"/>
<path d="M23.236 47.2671L24.5899 50.5066C24.7962 52.093 23.6834 53.7258 21.975 54.5393L20.6211 51.2998C22.3295 50.4834 23.4422 48.8534 23.236 47.2671Z" fill="#F66767"/>
<path d="M19.9497 38.6149L20.0688 38.9054L20.1909 39.1959L20.3187 39.501L20.4494 39.8148L20.5831 40.1315L20.7167 40.4511L20.8475 40.7678L20.9782 41.0786L19.9497 38.6178V38.6149Z" fill="#FE3030"/>
<path d="M22.4396 41.1484L23.2357 47.273C23.442 48.8594 22.3292 50.4893 20.6208 51.3057C18.1948 47.6885 17.3697 43.188 18.497 38.5219C18.9832 38.4774 19.4735 38.5098 19.9497 38.6178C21.2832 38.9258 22.274 39.8555 22.4396 41.1484Z" fill="#F66767"/>
<path d="M37.7018 41.9415L39.0586 45.1811L36.5077 48.7198L35.1509 45.4803L37.7018 41.9415Z" fill="#FE3030"/>
<path d="M35.1508 45.4803L36.5076 48.7199C36.4328 48.8181 36.3317 48.8932 36.216 48.9364C36.1004 48.9796 35.9748 48.9891 35.8539 48.9639L34.4971 45.7244C34.618 45.7496 34.7435 45.7401 34.8592 45.6969C34.9749 45.6537 35.076 45.5786 35.1508 45.4803Z" fill="#FE3030"/>
<path d="M49.4105 35.5642L50.7644 38.8066C51.2409 39.994 51.0085 41.2346 50.0671 42.5285C49.468 43.3576 48.6957 44.0466 47.8038 44.5477C47.0518 44.9873 46.2304 45.2958 45.3749 45.46C45.2458 45.4777 45.1256 45.5359 45.0316 45.6262C44.9376 45.7165 44.8747 45.8343 44.8519 45.9626L43.4951 42.7231C43.5183 42.595 43.5814 42.4774 43.6753 42.3872C43.7691 42.2969 43.8891 42.2386 44.0181 42.2205C44.8745 42.0563 45.6968 41.7478 46.4499 41.3082C47.3427 40.8021 48.1149 40.1082 48.7132 39.2744C49.6546 37.9922 49.887 36.7554 49.4105 35.5642Z" fill="#FE3030"/>
<path d="M26.9286 53.9321L25.5718 50.6926C25.6212 50.8059 25.6822 50.957 25.7316 51.0703L25.9001 51.4713L26.0715 51.8897L26.2516 52.3138L26.4289 52.738L26.6032 53.1535L26.7688 53.5544L26.9286 53.9321Z" fill="#FE3030"/>
<path d="M27.9131 53.6999C27.7423 53.6649 27.5659 53.667 27.396 53.7061C27.2261 53.7452 27.0665 53.8204 26.9282 53.9265L26.7684 53.5488L26.6028 53.1478L26.257 52.3082C26.1379 52.0176 26.0217 51.7474 25.9055 51.4656C25.7892 51.1838 25.6876 50.9455 25.5771 50.687C25.716 50.5808 25.8761 50.5056 26.0465 50.4665C26.2169 50.4274 26.3937 50.4253 26.565 50.4603L26.7219 50.838L26.8904 51.2419L27.0647 51.6574L27.2419 52.0815L27.4192 52.5057L27.5935 52.9212L27.762 53.3222L27.9131 53.6999Z" fill="#FE3030"/>
<path d="M27.9135 53.6997C27.4641 52.6228 27.0128 51.543 26.5596 50.4602L26.7165 50.8408L26.885 51.2418L27.0593 51.6572L27.2365 52.0814L27.4138 52.5056L27.5881 52.9211L27.7566 53.322L27.9135 53.6997Z" fill="#FE3030"/>
<path d="M28.3144 53.932C28.2032 53.8241 28.0645 53.7488 27.9135 53.7141C27.4641 52.6372 27.0128 51.5574 26.5596 50.4746C26.71 50.5086 26.8479 50.5841 26.9576 50.6925C27.0174 50.7524 27.0648 50.8235 27.0971 50.9017L28.4539 54.1412C28.4205 54.0636 28.3733 53.9927 28.3144 53.932Z" fill="#FE3030"/>
<path d="M26.9283 53.9321C26.7666 54.0336 26.6435 54.1863 26.5788 54.3659C26.514 54.5455 26.5112 54.7416 26.5709 54.9229L25.2141 51.6805C25.1582 51.4993 25.1628 51.3049 25.2273 51.1267C25.2918 50.9484 25.4126 50.796 25.5715 50.6926L25.7313 51.0703L25.8969 51.4713L26.0712 51.8897L26.2485 52.3138L26.4257 52.7351L26.6 53.1535L26.7685 53.5544L26.9283 53.9321Z" fill="#FE3030"/>
<path d="M40.648 49.9313L39.294 46.6918C39.272 46.6405 39.263 46.5846 39.2679 46.5291L40.6218 49.7686C40.6184 49.8241 40.6274 49.8796 40.648 49.9313Z" fill="#FFFCED"/>
<path d="M27.0971 50.8872L28.4539 54.1267C28.5101 54.3075 28.5059 54.5017 28.442 54.68C28.378 54.8582 28.2578 55.0108 28.0994 55.1146C27.9599 55.2206 27.7994 55.2957 27.6285 55.3348C27.4577 55.3739 27.2804 55.3761 27.1087 55.3412C26.9578 55.3084 26.8196 55.2327 26.7106 55.1233C26.651 55.0644 26.6036 54.9943 26.5712 54.917L25.2144 51.6746C25.247 51.7526 25.2943 51.8236 25.3538 51.8838C25.4642 51.9928 25.6032 52.0683 25.7548 52.1017C25.926 52.1367 26.1029 52.1346 26.2733 52.0955C26.4437 52.0564 26.6037 51.9812 26.7426 51.875C26.9036 51.7737 27.0259 51.6213 27.0902 51.4422C27.1544 51.2632 27.1568 51.0678 27.0971 50.8872Z" fill="#FFFCED"/>
<path d="M40.6479 49.9313L39.2939 46.6918C39.3202 46.7507 39.3603 46.8024 39.4109 46.8424C39.4615 46.8824 39.5211 46.9094 39.5845 46.9213L40.9384 50.155C40.8756 50.1437 40.8164 50.1175 40.7658 50.0786C40.7153 50.0397 40.6748 49.9891 40.6479 49.9313Z" fill="#FE3030"/>
<path d="M59.9282 32.5891L61.2821 35.8286L62.0782 41.9532L60.7243 38.7137L59.9282 32.5891Z" fill="#FE3030"/>
<path d="M62.078 41.9561C62.1106 42.2039 62.176 42.4462 62.2727 42.6766L60.9159 39.4371C60.8205 39.2064 60.756 38.9641 60.7241 38.7166C61.1222 39.6957 61.8049 40.9392 62.078 41.9561Z" fill="#FE3030"/>
<path d="M43.4948 42.7202L44.8517 45.9626L44.5844 50.3643L43.2275 47.1248L43.4948 42.7202Z" fill="#FE3030"/>
<path d="M42.487 47.6042L43.8438 50.8437L40.9384 50.1609L39.5845 46.9214L42.487 47.6042Z" fill="#FE3030"/>
<path d="M43.2277 47.1249L44.5845 50.3644C44.5695 50.4456 44.538 50.5229 44.4921 50.5916C44.4461 50.6602 44.3867 50.7188 44.3173 50.7636C44.248 50.8085 44.1702 50.8388 44.0887 50.8526C44.0073 50.8663 43.9239 50.8633 43.8436 50.8438L42.4868 47.6043C42.5671 47.6238 42.6505 47.6268 42.7319 47.613C42.8134 47.5993 42.8911 47.569 42.9605 47.5241C43.0298 47.4792 43.0893 47.4207 43.1353 47.352C43.1812 47.2834 43.2127 47.2061 43.2277 47.1249Z" fill="#FE3030"/>
<path d="M55.3401 33.8645L56.6941 37.104C57.8068 39.7596 57.7284 42.9148 56.1943 46.0585C52.9229 52.7409 44.2822 56.7416 36.8908 55.0013C32.9656 54.0803 30.1823 51.724 28.9242 48.7169L27.5703 45.4774C28.8254 48.4845 31.6088 50.8408 35.534 51.7618C42.9254 53.505 51.5689 49.4956 54.8375 42.819C56.3716 39.6956 56.45 36.52 55.3401 33.8645Z" fill="#FFFCED"/>
<path d="M56.825 46.2067C56.3965 47.08 55.8847 47.91 55.2968 48.685C54.8435 47.6042 54.3912 46.5244 53.9399 45.4455C54.5288 44.6705 55.0416 43.8406 55.4711 42.9672C57.0749 39.6899 57.1562 36.3777 55.9882 33.5944L57.3451 36.8339C58.5072 39.6173 58.4317 42.9323 56.825 46.2067Z" fill="#FE3030"/>
<path d="M36.6125 55.5708C32.7483 54.6643 29.93 52.4184 28.5238 49.5304L27.167 46.2909C28.5848 49.1789 31.3914 51.4219 35.2556 52.3312C42.0194 53.9234 49.8088 50.9018 53.9403 45.4454C53.9897 45.5587 54.0507 45.7098 54.1001 45.8231L54.2657 46.2241L54.44 46.6396L54.6172 47.0637L54.7945 47.4879L54.9688 47.9034L55.1373 48.3044L55.2971 48.685C51.1656 54.1413 43.3733 57.1629 36.6125 55.5708Z" fill="#FE3030"/>
<path d="M56.5259 33.3706L57.8798 36.6101C59.0885 39.4981 59.0042 42.9323 57.3423 46.3287C53.7977 53.5661 44.3958 57.9213 36.3827 56.0386C32.1263 55.0362 29.1047 52.4794 27.7392 49.208L26.3853 45.9684C27.7508 49.2341 30.7724 51.7967 35.0288 52.799C43.0419 54.6817 52.4438 50.3265 55.9884 43.0892C57.6503 39.6957 57.7345 36.2557 56.5259 33.3706Z" fill="#C62525"/>
<path d="M47.885 26.543C55.8981 28.4257 59.5327 35.8403 55.9882 43.1038C52.4436 50.3673 43.0417 54.6963 35.0286 52.8136C27.0155 50.9309 23.3779 43.5163 26.9225 36.2673C30.4671 29.0184 39.8719 24.6574 47.885 26.543ZM35.2639 52.3313C42.9923 54.1501 52.06 49.9489 55.4797 42.9672C58.8994 35.9855 55.3925 28.8266 47.6642 27.0078C39.9358 25.189 30.8651 29.3932 27.4455 36.3748C24.0258 43.3565 27.5355 50.5154 35.2639 52.3313Z" fill="#C62525"/>
<path d="M47.3766 27.5802C54.7679 29.3234 58.1091 36.1395 54.8376 42.819C51.5662 49.4985 42.9255 53.4993 35.5341 51.7618C28.1428 50.0244 24.8045 43.2025 28.0702 36.523C31.3358 29.8435 39.9852 25.8398 47.3766 27.5802ZM48.7131 39.289C49.6544 37.997 49.8868 36.7564 49.4103 35.5671C48.9339 34.3779 47.9354 33.6031 46.4149 33.2428L40.8191 31.9267C40.6977 31.9016 40.5718 31.9111 40.4557 31.9543C40.3395 31.9975 40.2379 32.0725 40.1624 32.1707L31.3329 44.4112C31.2884 44.4621 31.2584 44.524 31.2461 44.5905C31.2337 44.6569 31.2393 44.7255 31.2625 44.789C31.2857 44.8525 31.3254 44.9087 31.3777 44.9516C31.4299 44.9945 31.4927 45.0226 31.5595 45.0329L34.4969 45.7215C34.6178 45.7467 34.7434 45.7372 34.8591 45.694C34.9747 45.6508 35.0758 45.5757 35.1506 45.4775L37.7016 41.9416C37.7764 41.8433 37.8774 41.7682 37.9931 41.725C38.1088 41.6818 38.2344 41.6723 38.3553 41.6975L39.2734 41.9125C39.3655 41.9268 39.449 41.9749 39.5075 42.0474C39.5661 42.12 39.5955 42.2117 39.5901 42.3048L39.2676 46.5263C39.2621 46.6194 39.2916 46.7111 39.3501 46.7836C39.4087 46.8561 39.4922 46.9042 39.5843 46.9185L42.4897 47.6013C42.5699 47.6209 42.6533 47.6239 42.7348 47.6101C42.8162 47.5963 42.894 47.566 42.9634 47.5212C43.0327 47.4763 43.0922 47.4177 43.1381 47.3491C43.1841 47.2804 43.2155 47.2031 43.2306 47.1219L43.4978 42.7202C43.521 42.5921 43.5841 42.4745 43.678 42.3843C43.7719 42.294 43.8919 42.2357 44.0208 42.2176C44.8772 42.0534 45.6996 41.7449 46.4526 41.3053C47.3454 40.7992 48.1176 40.1053 48.716 39.2715" fill="#FFFCED"/>
<path d="M49.4104 35.5643C49.883 36.7555 49.6506 37.997 48.7131 39.289C48.1148 40.1227 47.3426 40.8166 46.4498 41.3228C45.6967 41.7624 44.8744 42.0709 44.018 42.2351C43.889 42.2532 43.7691 42.3115 43.6752 42.4017C43.5813 42.492 43.5182 42.6095 43.495 42.7377L43.2277 47.1394C43.2127 47.2206 43.1812 47.2979 43.1353 47.3665C43.0893 47.4352 43.0299 47.4937 42.9605 47.5386C42.8912 47.5835 42.8134 47.6137 42.732 47.6275C42.6505 47.6413 42.5671 47.6383 42.4869 47.6188L39.5814 46.936C39.4893 46.9217 39.4059 46.8736 39.3473 46.8011C39.2888 46.7286 39.2593 46.6368 39.2648 46.5438L39.5902 42.3106C39.5956 42.2175 39.5662 42.1258 39.5076 42.0533C39.4491 41.9808 39.3656 41.9327 39.2735 41.9184L38.3554 41.7034C38.2345 41.6782 38.1089 41.6877 37.9932 41.7309C37.8775 41.7741 37.7764 41.8491 37.7017 41.9474L35.1507 45.4833C35.0759 45.5816 34.9748 45.6566 34.8591 45.6998C34.7434 45.743 34.6179 45.7526 34.497 45.7273L31.5596 45.0388C31.4928 45.0284 31.43 45.0003 31.3778 44.9574C31.3255 44.9145 31.2857 44.8584 31.2626 44.7949C31.2394 44.7313 31.2338 44.6628 31.2461 44.5963C31.2585 44.5298 31.2885 44.4679 31.333 44.417L40.1625 32.1766C40.238 32.0783 40.3396 32.0033 40.4558 31.9601C40.5719 31.917 40.6978 31.9074 40.8192 31.9325L46.415 33.2486C47.9355 33.6031 48.9339 34.375 49.4104 35.5643ZM44.8664 38.2082C45.1743 37.7724 45.2731 37.3801 45.1569 37.046C45.0407 36.7119 44.7327 36.4649 44.2069 36.34L42.5014 35.9187C42.3805 35.8942 42.2552 35.9041 42.1396 35.9472C42.0241 35.9903 41.9229 36.065 41.8477 36.1628L40.3252 38.2663C40.2817 38.3177 40.2525 38.3798 40.2408 38.4462C40.2291 38.5126 40.2352 38.5809 40.2586 38.6441C40.2819 38.7074 40.3216 38.7633 40.3737 38.8061C40.4257 38.849 40.4882 38.8773 40.5548 38.888L42.2341 39.2832H42.2922C42.7519 39.3898 43.2339 39.3418 43.6635 39.1466C44.1476 38.9467 44.5648 38.6131 44.8664 38.1849" fill="#FE3030"/>
<path d="M59.8784 42.8596L59.9946 43.1502L60.1196 43.4407L60.2474 43.7458L60.3781 44.0596L60.5118 44.3762L60.6425 44.6958L60.7762 45.0125L60.9069 45.3234L59.8784 42.8625V42.8596Z" fill="#FE3030"/>
<path d="M62.2841 42.6767L60.9272 39.4371C61.1389 39.8995 61.4579 40.3046 61.8576 40.6189C62.2573 40.9332 62.7262 41.1476 63.2254 41.2443C63.4414 41.2948 63.6609 41.3288 63.882 41.346L65.236 44.5855C65.0148 44.5681 64.7953 44.5342 64.5793 44.4838C64.0807 44.3867 63.6123 44.1721 63.2131 43.8578C62.814 43.5435 62.4955 43.1386 62.2841 42.6767Z" fill="#F66767"/>
<path d="M59.9251 46.7064C59.8755 46.799 59.8468 46.9013 59.8407 47.0061C59.8347 47.111 59.8516 47.2159 59.8902 47.3136L58.5363 44.0741C58.4972 43.9766 58.4799 43.8718 58.4854 43.7669C58.4909 43.6621 58.5192 43.5597 58.5683 43.4668C59.0215 44.5457 59.4738 45.6246 59.9251 46.7035C59.4718 45.6265 59.0196 44.5476 58.5683 43.4668C58.6929 43.2387 58.8875 43.0566 59.1234 42.9473C59.3592 42.838 59.6239 42.8072 59.8786 42.8596C60.328 43.9404 60.7793 45.0203 61.2325 46.0991C60.7812 45.0183 60.3299 43.9385 59.8786 42.8596C59.9963 42.8824 60.1067 42.9331 60.2008 43.0074C60.2948 43.0817 60.3696 43.1775 60.419 43.2867L61.7729 46.5262C61.7235 46.417 61.6487 46.3212 61.5547 46.2469C61.4606 46.1726 61.3502 46.1219 61.2325 46.0991C60.9783 46.047 60.714 46.0778 60.4787 46.1871C60.2433 46.2965 60.0492 46.4785 59.9251 46.7064Z" fill="#FE3030"/>
<path d="M60.4188 43.2867L61.7727 46.5263C61.8118 46.6237 61.8292 46.7285 61.8237 46.8334C61.8181 46.9383 61.7899 47.0407 61.7408 47.1335C61.616 47.3622 61.4209 47.5447 61.1845 47.654C60.948 47.7634 60.6826 47.7938 60.4275 47.7407C60.3102 47.718 60.2001 47.6672 60.1066 47.5929C60.013 47.5186 59.9387 47.4228 59.8901 47.3136L58.5361 44.0741C58.5852 44.183 58.6596 44.2785 58.7531 44.3528C58.8466 44.4271 58.9565 44.478 59.0736 44.5012C59.3283 44.5545 59.5934 44.5242 59.8295 44.4148C60.0655 44.3054 60.26 44.1227 60.384 43.894C60.4335 43.8014 60.4623 43.6991 60.4683 43.5942C60.4743 43.4893 60.4574 43.3844 60.4188 43.2867Z" fill="#FFFCED"/>
<path d="M47.6557 27.0077C55.384 28.8265 58.8909 35.9854 55.4712 42.9671C52.0515 49.9488 42.978 54.15 35.2554 52.3312C27.5329 50.5124 24.0202 43.3564 27.437 36.3747C30.8537 29.393 39.9273 25.1889 47.6557 27.0077ZM35.5343 51.7617C42.9257 53.505 51.5693 49.4955 54.8378 42.8189C58.1064 36.1423 54.7681 29.3175 47.3768 27.5801C39.9854 25.8426 31.3418 29.8463 28.0704 36.5229C24.7989 43.1995 28.143 50.0243 35.5343 51.7617Z" fill="#FE3030"/>
<path d="M45.6073 57.8632C45.156 56.7824 44.7047 55.7025 44.2534 54.6237L44.4103 55.0014L44.5788 55.4023L44.7531 55.8178L44.9304 56.242L45.1076 56.6662L45.2819 57.0816L45.4504 57.4826L45.6073 57.8632Z" fill="#FE3030"/>
<path d="M45.1015 57.866C44.899 57.904 44.7108 57.9967 44.5572 58.1339C44.4036 58.2711 44.2904 58.4478 44.2299 58.6446C43.7766 57.5658 43.3244 56.4859 42.873 55.4051C42.9341 55.2085 43.0475 55.0323 43.201 54.8951C43.3546 54.758 43.5425 54.6651 43.7447 54.6265C44.1979 55.7034 44.6502 56.7833 45.1015 57.866C44.6482 56.7852 44.196 55.7053 43.7447 54.6265C43.9119 54.5872 44.0859 54.5872 44.2531 54.6265L44.41 55.0042L44.5785 55.4051L44.7528 55.8206L44.9301 56.2448L45.1073 56.669L45.2816 57.0844L45.4501 57.4854L45.607 57.866C45.4408 57.8268 45.2677 57.8268 45.1015 57.866Z" fill="#FE3030"/>
<path d="M46.1477 58.2903C46.0984 58.1814 46.0235 58.0859 45.9294 58.0121C45.8354 57.9382 45.7249 57.8882 45.6073 57.8661C45.156 56.7853 44.7047 55.7055 44.2534 54.6266C44.3708 54.6491 44.4811 54.6993 44.5751 54.7731C44.6691 54.8469 44.7441 54.9421 44.7938 55.0508L46.1477 58.2903Z" fill="#FE3030"/>
<path d="M44.2213 58.9062C44.2279 58.965 44.2425 59.0227 44.2649 59.0776L42.9109 55.8381C42.888 55.7832 42.8724 55.7256 42.8645 55.6666C43.3177 56.7474 43.769 57.8273 44.2184 58.9062C43.769 57.8253 43.3177 56.7455 42.8645 55.6666C42.8486 55.5802 42.8486 55.4916 42.8645 55.4052C43.3177 56.486 43.77 57.5658 44.2213 58.6447C44.2054 58.7311 44.2054 58.8197 44.2213 58.9062Z" fill="#FE3030"/>
<path d="M40.5635 60.6321C40.0812 60.0782 39.4315 59.6967 38.7128 59.5454L37.356 56.3059C38.0744 56.4582 38.7245 56.8383 39.2096 57.3896L39.3665 57.7702L39.535 58.1712L39.7093 58.5867L39.8866 59.0108L40.0638 59.435L40.2381 59.8505L40.4066 60.2514L40.5635 60.6321Z" fill="#FE3030"/>
<path d="M40.7232 60.8384C40.6738 60.7686 40.6215 60.6989 40.5634 60.6321L39.2095 57.3896C39.2647 57.4594 39.3199 57.5291 39.3693 57.5988L40.3658 59.9871L40.4094 60.0859L40.453 60.1905L40.4995 60.3009L40.546 60.4113L40.5924 60.5246L40.6389 60.635L40.6825 60.7396L40.7232 60.8384Z" fill="#FE3030"/>
<path d="M40.7235 60.8383C40.709 60.8092 40.6945 60.7685 40.6829 60.7395L40.616 60.5797L40.5696 60.4693L40.5463 60.4112L40.3662 59.987L39.3696 57.5988C39.4834 57.7611 39.5807 57.9343 39.6602 58.1159L41.0141 61.3554C40.9358 61.1733 40.8384 60.9999 40.7235 60.8383Z" fill="#FE3030"/>
<path d="M44.7939 55.0479L46.1478 58.2903C46.1711 58.345 46.1868 58.4027 46.1943 58.4617C46.2524 58.9091 45.8573 59.3769 45.3227 59.5018C45.1555 59.5411 44.9815 59.5411 44.8142 59.5018C44.6969 59.4793 44.5866 59.4291 44.4926 59.3553C44.3986 59.2815 44.3236 59.1863 44.2738 59.0777L42.9199 55.8381C42.9693 55.9471 43.0441 56.0425 43.1382 56.1163C43.2323 56.1902 43.3428 56.2403 43.4603 56.2623C43.6266 56.3015 43.7996 56.3015 43.9659 56.2623C44.5121 56.1374 44.9072 55.6812 44.8375 55.2222C44.8312 55.1623 44.8165 55.1036 44.7939 55.0479Z" fill="#FFFCED"/>
<path d="M39.6543 58.1158L41.0082 61.3554C41.1542 61.7071 41.2283 62.0844 41.2261 62.4652L39.8693 59.2257C39.8725 58.8451 39.7993 58.4677 39.6543 58.1158Z" fill="#F66767"/>
<path d="M63.8698 41.346C63.5471 42.4035 63.14 43.4334 62.6524 44.4257C62.0185 45.7137 61.2667 46.9402 60.4065 48.0894C60.2636 48.0384 60.1181 47.9948 59.9707 47.9587C59.2433 47.809 58.4922 47.8169 57.768 47.9818C57.0438 48.1466 56.3634 48.4647 55.7724 48.9146L49.764 53.4412C48.3811 54.4813 47.7913 55.9892 48.1225 57.2705C45.4804 58.3191 42.6999 58.9778 39.8682 59.2259C39.8682 57.8545 38.9356 56.6778 37.3551 56.3059L30.5506 54.705C29.6923 54.5314 28.8041 54.5761 27.9675 54.835C27.1309 55.0939 26.3727 55.5587 25.7625 56.1868C23.7209 54.9434 21.9693 53.2771 20.6257 51.2999C22.3283 50.4835 23.4411 48.8536 23.2406 47.2672L22.4387 41.1484C22.2731 39.8613 21.2766 38.9316 19.9488 38.6178C19.4726 38.5098 18.9824 38.4774 18.4961 38.522C18.8458 37.0982 19.3495 35.7168 19.9982 34.4021C20.5441 33.2918 21.1796 32.2278 21.8983 31.2207C22.3047 31.5229 22.7699 31.7366 23.2639 31.8482C23.9913 31.9993 24.7426 31.9921 25.467 31.8272C26.1914 31.6622 26.8718 31.3434 27.4622 30.8924L33.4705 26.3687C35.2428 25.0322 35.7106 22.9316 34.6065 21.5254C37.4466 20.4063 40.4446 19.7397 43.4913 19.5497C42.8463 21.3423 43.8196 23.0856 45.8156 23.5533L52.6084 25.1687C53.5649 25.3632 54.5567 25.2852 55.471 24.9436C56.3853 24.602 57.1854 24.0106 57.78 23.2366C59.774 24.6151 61.4347 26.4218 62.6408 28.5245C60.8772 29.3205 59.715 30.9853 59.9271 32.592L60.7232 38.7195C60.8917 40.0037 61.8854 40.9334 63.2131 41.2472C63.4292 41.2968 63.6487 41.3298 63.8698 41.346ZM35.0278 52.7991C43.0409 54.6818 52.4428 50.3266 55.9874 43.0892C59.532 35.8519 55.8973 28.4257 47.8842 26.543C39.8711 24.6603 30.4664 29.0155 26.9218 36.2528C23.3772 43.4902 27.0147 50.9135 35.0278 52.7991ZM59.0875 44.5013C59.3421 44.5546 59.6072 44.5243 59.8433 44.4149C60.0794 44.3055 60.2739 44.1228 60.3978 43.894C60.4524 43.7952 60.4824 43.6846 60.4852 43.5717C60.488 43.4588 60.4636 43.3469 60.414 43.2454C60.3644 43.144 60.2911 43.0559 60.2003 42.9888C60.1095 42.9217 60.0038 42.8774 59.8923 42.8597C59.6376 42.8074 59.3729 42.8381 59.137 42.9474C58.9012 43.0567 58.7066 43.2388 58.5819 43.467C58.528 43.5659 58.4986 43.6764 58.4961 43.7891C58.4936 43.9017 58.5182 44.0134 58.5677 44.1146C58.6172 44.2159 58.6902 44.3038 58.7806 44.3711C58.871 44.4384 58.9763 44.483 59.0875 44.5013ZM23.6997 36.1773C23.9543 36.2301 24.2192 36.1996 24.4552 36.0903C24.6912 35.9809 24.8857 35.7985 25.01 35.5701C25.064 35.4713 25.0935 35.361 25.096 35.2485C25.0985 35.136 25.0739 35.0245 25.0244 34.9234C24.9748 34.8224 24.9018 34.7347 24.8113 34.6677C24.7208 34.6007 24.6156 34.5565 24.5045 34.5387C24.2501 34.4856 23.9855 34.5156 23.7495 34.6245C23.5136 34.7333 23.3189 34.9151 23.1941 35.143C23.1395 35.2418 23.1096 35.3524 23.1067 35.4653C23.1039 35.5782 23.1284 35.6901 23.1779 35.7916C23.2275 35.8931 23.3008 35.9811 23.3917 36.0482C23.4825 36.1154 23.5881 36.1596 23.6997 36.1773ZM43.9561 56.2565C44.5024 56.1316 44.8975 55.6755 44.8278 55.2164C44.8056 55.0687 44.7376 54.9317 44.6333 54.8248C44.529 54.718 44.3938 54.6466 44.2467 54.6208C44.0795 54.5816 43.9054 54.5816 43.7382 54.6208C43.192 54.7457 42.8027 55.2019 42.8666 55.6609C42.8896 55.8083 42.9579 55.9448 43.062 56.0515C43.1662 56.1583 43.301 56.2299 43.4477 56.2565C43.6139 56.2957 43.787 56.2957 43.9532 56.2565H43.9561ZM26.7387 51.8723C27.1803 51.5411 27.2762 51.0007 26.9537 50.6753C26.844 50.5668 26.7061 50.4914 26.5557 50.4573C26.3844 50.4223 26.2076 50.4244 26.0372 50.4635C25.8668 50.5026 25.7067 50.5778 25.5678 50.684C25.1262 51.0181 25.0303 51.5556 25.3499 51.881C25.4603 51.99 25.5994 52.0656 25.7509 52.0989C25.9222 52.1339 26.099 52.1318 26.2694 52.0927C26.4398 52.0536 26.5998 51.9785 26.7387 51.8723ZM56.8213 27.1589C56.3767 27.4931 56.278 28.0306 56.6034 28.356C56.7134 28.4639 56.8512 28.5393 57.0014 28.5739C57.1725 28.6087 57.3491 28.6068 57.5194 28.5682C57.6897 28.5297 57.8498 28.4553 57.9892 28.3501C58.4338 28.016 58.5296 27.4785 58.2042 27.1502C58.0951 27.0416 57.9569 26.9669 57.8062 26.9352C57.6356 26.8989 57.4592 26.9001 57.2891 26.9387C57.119 26.9773 56.9594 27.0525 56.8213 27.1589ZM39.6213 22.7805C39.078 22.9025 38.6828 23.3616 38.7497 23.8206C38.7746 23.9657 38.8438 24.0994 38.9479 24.2035C39.0519 24.3075 39.1857 24.3768 39.3307 24.4017C39.4979 24.4409 39.672 24.4409 39.8392 24.4017C40.3825 24.2797 40.7776 23.8206 40.7108 23.3616C40.6836 23.2175 40.6136 23.085 40.5099 22.9814C40.4062 22.8777 40.2738 22.8077 40.1297 22.7805C39.9623 22.743 39.7887 22.743 39.6213 22.7805Z" fill="#FE3030"/>
<path d="M34.6047 21.5253C29.5087 23.5213 24.9617 26.9119 21.8994 31.2206C22.3058 31.5228 22.771 31.7366 23.265 31.8482C23.9924 31.9992 24.7437 31.992 25.4681 31.8271C26.1925 31.6621 26.8729 31.3433 27.4633 30.8923L33.4716 26.3686C35.241 25.0321 35.7088 22.9315 34.6047 21.5253Z" fill="#F66767"/>
<path d="M43.4894 19.5496C45.9268 19.3965 48.3734 19.5981 50.7529 20.1481C53.2705 20.7143 55.6562 21.7578 57.7811 23.222C57.1881 23.9986 56.3889 24.5929 55.4744 24.9371C54.56 25.2813 53.5673 25.3615 52.6094 25.1687L45.805 23.5678C43.8177 23.0855 42.8444 21.3422 43.4894 19.5496Z" fill="#F66767"/>
<path d="M57.8103 26.938C57.961 26.9697 58.0992 27.0444 58.2083 27.153C58.5337 27.4813 58.4378 28.0246 57.9933 28.353C57.8539 28.4581 57.6938 28.5325 57.5234 28.571C57.3531 28.6096 57.1766 28.6115 57.0055 28.5767C56.8552 28.5421 56.7175 28.4667 56.6074 28.3588C56.282 28.0305 56.3808 27.4872 56.8253 27.1617C56.9635 27.0553 57.1231 26.9801 57.2932 26.9415C57.4633 26.9029 57.6397 26.9017 57.8103 26.938Z" fill="#FFFCED"/>
<path d="M63.6527 31.9207C63.2033 30.8399 62.7511 29.7601 62.2959 28.6812C62.4092 28.6202 62.5225 28.5621 62.6416 28.5098L63.9956 31.7493C63.8793 31.8016 63.7631 31.851 63.6527 31.9207Z" fill="#FE3030"/>
<path d="M63.6529 31.9209C62.0869 32.7664 61.0874 34.3179 61.2821 35.8287L59.9281 32.5892C59.7306 31.0784 60.73 29.5298 62.296 28.6814C62.6244 29.4571 62.6243 29.4571 63.6529 31.9209Z" fill="#FE3030"/>
<path d="M20.56 51.8985L19.2061 48.6589C19.594 49.5818 20.0698 50.4652 20.6268 51.297L21.9807 54.5366C21.4242 53.7045 20.9484 52.8211 20.56 51.8985Z" fill="#F66767"/>
<path d="M26.5481 50.4603C26.6985 50.4943 26.8364 50.5698 26.9461 50.6782C27.2686 51.0065 27.1728 51.5499 26.7311 51.8753C26.5922 51.9814 26.4322 52.0566 26.2618 52.0957C26.0914 52.1348 25.9146 52.1369 25.7433 52.1019C25.5918 52.0685 25.4528 51.993 25.3424 51.884C25.0228 51.5557 25.1186 51.0124 25.5603 50.687C25.6992 50.5808 25.8592 50.5056 26.0296 50.4665C26.2 50.4274 26.3768 50.4253 26.5481 50.4603Z" fill="#FFFCED"/>
<path d="M25.7633 56.1867L27.1289 59.4262C25.0872 58.1828 23.3357 56.5165 21.9921 54.5393L20.6382 51.2998C21.9784 53.2757 23.7259 54.942 25.7633 56.1867Z" fill="#F50000"/>
<path d="M30.5513 54.7049L31.9081 57.9445C31.0493 57.7703 30.1606 57.8147 29.3234 58.0736C28.4863 58.3325 27.7276 58.7976 27.1171 59.4262L25.7632 56.1867C26.3734 55.5586 27.1316 55.0937 27.9682 54.8348C28.8047 54.5759 29.693 54.5313 30.5513 54.7049Z" fill="#FE3030"/>
<path d="M63.4468 30.1631L64.8007 33.4026C66.2069 36.7642 66.4161 40.6342 65.2191 44.5855L63.8652 41.346C65.068 37.3946 64.8588 33.5246 63.4468 30.1631Z" fill="#FB4242"/>
<path d="M62.6419 28.5098C64.7483 32.2229 65.2567 36.7291 63.8709 41.3458C63.6497 41.3287 63.4302 41.2947 63.2142 41.2441C61.8807 40.9304 60.8899 40.0006 60.7243 38.7164L59.9282 32.5889C59.7161 30.9794 60.8783 29.3058 62.6419 28.5098Z" fill="#F66767"/>
<path d="M59.8787 42.8596C59.9903 42.8773 60.0959 42.9215 60.1868 42.9887C60.2776 43.0558 60.3509 43.1438 60.4005 43.2453C60.4501 43.3468 60.4745 43.4587 60.4717 43.5716C60.4688 43.6845 60.4389 43.7951 60.3843 43.8939C60.2603 44.1227 60.0659 44.3054 59.8298 44.4148C59.5937 44.5242 59.3286 44.5545 59.0739 44.5012C58.9627 44.4829 58.8575 44.4382 58.7671 44.371C58.6766 44.3037 58.6036 44.2158 58.5541 44.1145C58.5046 44.0133 58.4801 43.9016 58.4826 43.7889C58.4851 43.6763 58.5145 43.5658 58.5684 43.4668C58.6931 43.2387 58.8876 43.0566 59.1235 42.9473C59.3594 42.838 59.6241 42.8072 59.8787 42.8596Z" fill="#FFFCED"/>
<path d="M37.3557 56.3029L38.7125 59.5424L31.9081 57.9415L30.5513 54.702L37.3557 56.3029Z" fill="#FE3030"/>
<path d="M63.8705 41.3459L65.2244 44.5855C64.9035 45.6436 64.4963 46.6736 64.007 47.6652C63.3747 48.9504 62.6228 50.1731 61.7611 51.3173L60.4072 48.0778C61.2674 46.9285 62.0192 45.702 62.6531 44.4141C63.1401 43.4255 63.5472 42.3995 63.8705 41.3459Z" fill="#F50000"/>
<path d="M61.3257 51.201C60.5987 51.0501 59.8478 51.0573 59.1239 51.2222C58.4 51.3871 57.7201 51.7059 57.1303 52.1569L55.7734 48.9145C56.363 48.4662 57.0415 48.1491 57.7635 47.9842C58.4855 47.8194 59.2344 47.8106 59.9601 47.9586C60.1075 47.9947 60.253 48.0383 60.3959 48.0893C60.8453 49.1702 61.2966 50.25 61.7499 51.3289C61.6113 51.2772 61.4697 51.2345 61.3257 51.201Z" fill="#FE3030"/>
<path d="M55.7735 48.9146L57.1303 52.1541L51.1191 56.6807L49.7651 53.4383L55.7735 48.9146Z" fill="#FE3030"/>
<path d="M44.2535 54.6236C44.4006 54.6493 44.5358 54.7207 44.6401 54.8276C44.7444 54.9345 44.8124 55.0715 44.8345 55.2192C44.8956 55.6666 44.5004 56.1344 43.9629 56.2593C43.7967 56.2985 43.6236 56.2985 43.4574 56.2593C43.3107 56.2327 43.1758 56.1611 43.0717 56.0543C42.9676 55.9476 42.8993 55.8111 42.8763 55.6637C42.8211 55.2134 43.2104 54.7485 43.7479 54.6236C43.9142 54.5848 44.0872 54.5848 44.2535 54.6236Z" fill="#FFFCED"/>
<path d="M37.3557 56.3058C38.9363 56.6777 39.8747 57.8544 39.8689 59.2257C37.199 59.4635 34.5082 59.2772 31.8965 58.6737C29.7313 58.181 27.66 57.3412 25.7632 56.1867C26.3734 55.5586 27.1316 55.0937 27.9682 54.8348C28.8047 54.5759 29.693 54.5313 30.5513 54.7049L37.3557 56.3058Z" fill="#F66767"/>
<path d="M39.869 59.2258L41.2258 62.4653C38.555 62.7025 35.8636 62.5172 33.2505 61.9162C31.0896 61.4201 29.0226 60.5794 27.1288 59.4263L25.7749 56.1868C27.6718 57.3413 29.743 58.1811 31.9082 58.6738C34.5162 59.2761 37.2029 59.4624 39.869 59.2258Z" fill="#FB4242"/>
<path d="M51.1189 56.6806C50.6507 57.0079 50.256 57.4296 49.9603 57.9184C49.6646 58.4072 49.4744 58.9525 49.4018 59.5191L48.0479 56.2767C48.1222 55.7106 48.3136 55.1662 48.6097 54.678C48.9058 54.1898 49.3002 53.7686 49.7679 53.441L51.1189 56.6806Z" fill="#FE3030"/>
<path d="M49.4018 59.5193C49.3709 59.8516 49.3974 60.1867 49.4803 60.51L48.1234 57.2705C48.0418 56.946 48.0153 56.6101 48.045 56.2769L48.2048 56.6575L48.3733 57.0584L48.5476 57.4739L48.7248 57.8981L48.812 58.1102L48.9021 58.3223L49.0764 58.7377L49.1607 58.9411L49.3234 59.3333C49.3566 59.3921 49.383 59.4545 49.4018 59.5193Z" fill="#FE3030"/>
<path d="M48.1234 57.2704L49.4802 60.5099C46.838 61.558 44.0576 62.2167 41.226 62.4652L39.8691 59.2257C42.7008 58.9776 45.4813 58.319 48.1234 57.2704Z" fill="#F50000"/>
<path d="M55.7731 48.9145C56.3627 48.4662 57.0412 48.1491 57.7632 47.9842C58.4852 47.8194 59.2341 47.8106 59.9598 47.9586C60.1072 47.9947 60.2527 48.0383 60.3956 48.0893C57.3537 52.1569 52.9868 55.3529 48.1116 57.2704C47.7804 55.9891 48.3702 54.4812 49.7531 53.4411L55.7731 48.9145Z" fill="#F66767"/>
<path d="M60.4076 48.0894L61.7615 51.3173C58.7224 55.3848 54.3556 58.5808 49.4804 60.4983L48.1235 57.2588C52.9872 55.3471 57.3656 52.1598 60.4076 48.0894Z" fill="#FB4242"/>
</g>
<defs>
<radialGradient id="paint0_radial_925_11942" cx="0" cy="0" r="1" gradientUnits="userSpaceOnUse" gradientTransform="translate(42 42) rotate(90) scale(42)">
<stop stop-color="#05FF00"/>
<stop offset="1" stop-color="#1D1E25" stop-opacity="0"/>
</radialGradient>
<clipPath id="clip0_925_11942">
<rect width="48" height="48" fill="white" transform="translate(18 18)"/>
</clipPath>
</defs>
</svg>
