<svg width="84" height="84" viewBox="0 0 84 84" fill="none" xmlns="http://www.w3.org/2000/svg">
<circle opacity="0.4" cx="42" cy="42" r="42" fill="url(#paint0_radial_925_11942)"/>
<g clip-path="url(#clip0_925_11942)">
<path d="M18 61.2587V55.9916L31.6946 60.2053V65.9991C31.6946 65.9991 25.3136 63.9061 24.2368 63.5493C23.1599 63.1926 18 61.2587 18 61.2587Z" fill="#56B729"/>
<path d="M52.9523 60.339L31.667 66.0464L31.6948 60.2053L53.6702 54.6316L52.9523 60.339Z" fill="#1F8616"/>
<path d="M18 57.842V57.1285L30.2587 61.9108L18 57.842Z" fill="#25951C"/>
<path d="M21.5895 61.4202L18 59.9933V59.2799L30.5185 64.4572L21.5895 61.4202Z" fill="#25951C"/>
<path d="M42.543 51.7778C33.5694 53.4425 18.5743 55.9915 18 55.9915L31.6946 60.2053L53.6703 54.6315L42.543 51.7778Z" fill="#85D637"/>
<path fill-rule="evenodd" clip-rule="evenodd" d="M42.3671 52.4662L49.8132 54.2865L51.5717 54.7455L31.7699 59.28L25.9153 57.6019L21.0181 56.2561L42.3671 52.4662ZM23.2792 56.2561L31.7699 58.517L49.4141 54.6315L42.3671 52.7968L23.2792 56.2561Z" fill="#C7F85B"/>
<ellipse cx="37.1589" cy="55.7017" rx="4.30735" ry="1.78356" fill="#C7F85B"/>
<path opacity="0.3" d="M38.6499 64.1483C38.6499 64.1483 36.5103 59.585 36.5103 59.2283L51.3244 55.2174C53.7312 62.0091 38.6499 64.1483 38.6499 64.1483Z" fill="#1A7109"/>
<path d="M21.0186 54.4925V49.2253L34.7131 53.4391V59.2329C34.7131 59.2329 28.3322 57.1398 27.2553 56.7831C26.1785 56.4264 21.0186 54.4925 21.0186 54.4925Z" fill="#25951C"/>
<path d="M55.9709 53.5728L34.6855 59.2802L34.7133 53.4391L56.6887 47.8654L55.9709 53.5728Z" fill="#247D1D"/>
<path d="M24.608 54.6539L21.0186 53.2271V52.5137L33.537 57.691L24.608 54.6539Z" fill="#248E1B"/>
<path d="M45.5616 45.0116C36.5879 46.6763 21.5929 49.2253 21.0186 49.2253L34.7131 53.439L56.6889 47.8653L45.5616 45.0116Z" fill="#85DC30"/>
<path fill-rule="evenodd" clip-rule="evenodd" d="M45.3441 45.7073C45.3715 45.7025 45.3996 45.7034 45.4266 45.71L52.8317 47.5203L53.8002 47.7731C54.0026 47.8259 53.9983 48.1148 53.7943 48.1615L34.8387 52.5023C34.8057 52.5098 34.7714 52.5089 34.7389 52.4996L28.9338 50.8357L24.8912 49.7248C24.6857 49.6683 24.6994 49.3723 24.9093 49.335L45.3441 45.7073ZM27.1788 49.3302C26.9685 49.3683 26.9565 49.6653 27.163 49.7203L34.7415 51.7383C34.7723 51.7465 34.8047 51.7472 34.8359 51.7403L52.4326 47.8653L45.4283 46.0417C45.4002 46.0343 45.3708 46.0332 45.3422 46.0384L27.1788 49.3302Z" fill="#C7F85B"/>
<ellipse cx="40.1775" cy="48.9354" rx="4.30735" ry="1.78356" fill="#C7F85B"/>
<path opacity="0.3" d="M41.6685 57.382C41.6685 57.382 39.5288 52.8187 39.5288 52.462L54.3429 48.4512C56.7498 55.2429 41.6685 57.382 41.6685 57.382Z" fill="#1A7109"/>
<path d="M23.5771 50.4961V45.229L37.2717 49.4427V55.2365C37.2717 55.2365 30.8908 53.1435 29.8139 52.7868C28.7371 52.4301 23.5771 50.4961 23.5771 50.4961Z" fill="#56B729"/>
<path opacity="0.3" d="M23.5815 50.4779L23.5816 45.1034L37.2637 49.4506L33.7342 53.0869L23.5815 50.4779Z" fill="#1A7109"/>
<path d="M58.5294 49.5764L37.2441 55.2838L37.2719 49.4427L59.2473 43.869L58.5294 49.5764Z" fill="#25951C"/>
<path d="M23.5771 47.1537V46.4403L31.2723 49.4837L23.5771 47.1537Z" fill="#25951C"/>
<path d="M27.1666 50.6576L23.5771 49.2308V48.5173L36.0956 53.6946L27.1666 50.6576Z" fill="#25951C"/>
<path d="M48.1202 41.0153C39.1465 42.6799 24.1515 45.229 23.5771 45.229L37.2717 49.4427L59.2475 43.869L48.1202 41.0153Z" fill="#85DC30"/>
<path fill-rule="evenodd" clip-rule="evenodd" d="M47.9442 41.7037L55.3903 43.5241L57.1488 43.9831L37.347 48.5175L31.4924 46.8395L26.5952 45.4937L47.9442 41.7037ZM29.8212 45.6714L37.4931 47.4914L54.6338 43.9896L47.7453 42.4229L29.8212 45.6714Z" fill="#C7F85B"/>
<path d="M21.0186 44.5839V39.3168L34.7131 43.5305V49.3243C34.7131 49.3243 28.3322 47.2312 27.2553 46.8745C26.1785 46.5178 21.0186 44.5839 21.0186 44.5839Z" fill="#56B729"/>
<path d="M55.9709 43.6641L34.6855 49.3715L34.7133 43.5304L56.6887 37.9567L55.9709 43.6641Z" fill="#25951C"/>
<path d="M21.0186 41.2415V40.5281L28.7137 43.5715L21.0186 41.2415Z" fill="#25951C"/>
<path d="M24.608 44.7454L21.0186 43.3185V42.6051L33.537 47.7824L24.608 44.7454Z" fill="#25951C"/>
<path d="M45.5616 35.103C36.5879 36.7677 21.5929 39.3167 21.0186 39.3167L34.7131 43.5305L56.6889 37.9567L45.5616 35.103Z" fill="#85DC30"/>
<path fill-rule="evenodd" clip-rule="evenodd" d="M45.3856 35.7915L52.8317 37.6118L54.5902 38.0708L34.7885 42.6053L28.9338 40.9272L24.0366 39.5815L45.3856 35.7915ZM27.2626 39.7591L34.9345 41.5792L52.0753 38.0773L45.1867 36.5107L27.2626 39.7591Z" fill="#C7F85B"/>
<ellipse cx="42.7361" cy="44.9391" rx="4.30735" ry="1.78356" fill="#C7F85B"/>
<path opacity="0.3" d="M34.2352 65.2669C34.2352 65.2669 31.6948 60.5448 31.6948 60.1881L46.5089 56.1772C48.6206 62.6946 34.2352 65.2669 34.2352 65.2669Z" fill="#1A7109"/>
<path d="M66.2466 61.2586V55.9915L52.552 60.2052V65.999C52.552 65.999 58.933 63.9059 60.0098 63.5492C61.0867 63.1925 66.2466 61.2586 66.2466 61.2586Z" fill="#25951C"/>
<path d="M31.2726 59.8594C37.4843 66.1907 52.6807 66.1031 52.6807 66.1031L52.6529 60.262C52.6529 60.262 45.7136 59.7178 31.2726 54.7783V59.8594Z" fill="#56B729"/>
<path d="M31.2601 58.5672C33.0036 60.5887 42.6431 63.3991 42.6431 63.3991L45.1836 63.3668L42.664 62.9441C42.664 62.9441 34.9019 60.5596 31.2719 58.3835L31.2601 58.5672Z" fill="#25951C"/>
<path d="M31.2667 56.5118C32.1213 57.5027 36.8466 58.8804 36.8466 58.8804L38.0919 58.8645L36.8568 58.6574C36.8568 58.6574 33.0519 57.4885 31.2725 56.4217L31.2667 56.5118Z" fill="#25951C"/>
<path d="M66.2466 57.5372V56.8237L58.5514 59.8671L66.2466 57.5372Z" fill="#227B18"/>
<path d="M58.807 47.4634L58.8926 46.7228L51.1974 49.7662L58.807 47.4634Z" fill="#227B18"/>
<path d="M62.6571 60.8067L66.2466 59.3798V58.6664L53.7281 63.8437L62.6571 60.8067Z" fill="#227B18"/>
<path d="M41.7035 51.1643C51.3813 56.2887 65.6439 56.0398 66.2183 56.0398L52.7215 60.2388C52.7215 60.2388 40.2551 59.9562 31.272 54.7748L41.7035 51.1643Z" fill="#85DC30"/>
<path fill-rule="evenodd" clip-rule="evenodd" d="M41.856 52.0934L33.6514 54.9331L34.6511 55.5097C37.712 57.2752 42.2088 58.2839 45.8855 58.8548C48.0847 59.1963 50.3053 59.4504 52.5283 59.5713L52.5372 59.5717C52.5372 59.5717 52.538 59.5718 52.5634 59.0457L52.5372 59.5717L52.6368 59.5765L63.0137 56.3275C59.689 56.132 56.3858 55.9356 53.0907 55.4129C49.4811 54.8402 45.178 53.8524 42.0584 52.2005L41.856 52.0934ZM52.5634 58.7421C47.1427 58.4434 40.7005 57.4482 35.8072 55.1355L41.6163 53.0231C46.8496 55.7078 52.9645 56.1748 58.6959 56.7456L52.5634 58.7421Z" fill="#C7F85B"/>
<ellipse cx="46.7199" cy="56.5619" rx="4.30735" ry="1.78356" fill="#C7F85B"/>
<path opacity="0.3" d="M35.5673 48.9025C35.5673 48.9025 34.7129 44.0139 34.7129 43.6572L48.395 48.0045L44.8656 51.6407L45.7451 57.8133C41.4375 56.8209 37.341 52.6611 37.341 52.6611V49.4515L35.5673 48.9025Z" fill="#1A7109"/>
<path opacity="0.3" d="M40.7333 51.0837C40.7333 51.0837 39.8789 46.1952 39.8789 45.8385L53.5611 50.1857L60.264 55.7977L52.841 59.3013C47.7043 59.0935 45.6555 57.698 45.6555 57.698L42.507 51.6328L40.7333 51.0837Z" fill="#1A7109"/>
<path d="M46.9062 36.0027L61.421 51.6475L47.1477 53.6652L39.1118 46.6151L35.434 37.4947L46.9062 36.0027Z" fill="#88CF42"/>
<path d="M34.4369 42.8647L35.4338 37.494C36.0484 39.1877 43.499 48.98 47.1475 53.6645L45.6152 57.8136C42.1926 56.7026 36.7369 47.3847 34.4369 42.8647Z" fill="#56B729"/>
<path d="M61.4211 51.647L47.1478 53.6646L45.6155 57.8138L60.226 55.8372L61.4211 51.647Z" fill="#25951C"/>
<path opacity="0.3" d="M60.8404 53.5997C43.7761 53.2536 35.3989 37.779 35.4336 37.4941L48.0705 40.4802C58.0152 44.9687 63.3595 46.9692 60.8404 53.5997Z" fill="#1A7109"/>
<path d="M60.8853 50.4252C56.5899 51.9827 50.6015 49.6531 48.1443 48.2936L50.2813 44.7963C55.6058 46.0236 65.1808 48.8676 60.8853 50.4252Z" fill="#25951C"/>
<path d="M55.6662 48.3435C47.345 51.4915 38.7114 42.4221 35.4348 37.494L49.0339 35.3941C55.8075 42.695 63.7971 44.3243 67.451 44.288C67.1731 46.5667 60.0691 54.4102 55.6662 48.3435Z" fill="#82DC34"/>
<path fill-rule="evenodd" clip-rule="evenodd" d="M48.7536 36.1265L49.0399 36.4242C53.2166 40.7677 57.2183 42.8673 60.1422 43.885C61.6066 44.3947 62.8069 44.6352 63.6318 44.7486C64.0444 44.8053 64.3631 44.8302 64.5741 44.8411C64.6795 44.8465 64.758 44.8484 64.8078 44.849C64.8327 44.8493 64.8504 44.8493 64.8607 44.8492L64.8692 44.8492L64.87 44.8492L64.8713 44.8491L66.2278 44.8158L65.4841 45.7581L64.9163 45.4245C65.4841 45.7581 65.4841 45.7581 65.4841 45.7581L65.4825 45.7602L65.48 45.7633L65.4722 45.7729C65.4659 45.7807 65.4571 45.7915 65.4458 45.8049C65.4234 45.8318 65.3911 45.8696 65.349 45.9171C65.2647 46.012 65.1409 46.1458 64.9765 46.3086C64.6479 46.6339 64.1564 47.076 63.4946 47.5554C62.1715 48.5139 60.5499 49.5834 57.7985 50.2025C57.7985 50.2025 57.1709 49.9182 56.782 49.5975C56.3932 49.2769 56.096 48.8861 56.096 48.8861C58.6213 48.3178 61.3809 47.5434 62.5908 46.6669C62.9751 46.3885 63.2949 46.1251 63.5518 45.896C63.5244 45.8923 63.4967 45.8886 63.4686 45.8847C62.5479 45.7582 61.2438 45.4946 59.6723 44.9477C56.5942 43.8763 52.5146 41.7261 48.2916 37.4263C46.6006 37.7858 44.2852 38.2273 42.3387 38.5886C41.2798 38.7851 40.3272 38.9584 39.6394 39.0826C39.5918 39.0912 39.5455 39.0996 39.5005 39.1077C39.6367 39.2655 39.7956 39.4461 39.9756 39.6453C40.656 40.3985 41.6348 41.4138 42.8279 42.4628C45.2397 44.5832 51.7124 48.0355 55.0105 48.5729C55.0105 48.5729 54.3222 48.7466 54.1181 48.7985C53.9139 48.8504 53.213 48.9348 53.213 48.9348C49.4663 48.3242 44.3266 45.4034 41.8715 43.2449C40.6312 42.1544 39.6168 41.102 38.9125 40.3223C38.56 39.9321 38.2843 39.6093 38.0959 39.383C38.0017 39.2698 37.9293 39.1807 37.88 39.1193C37.8553 39.0886 37.8364 39.0649 37.8234 39.0485L37.8085 39.0295L37.8043 39.0242L37.8028 39.0222C37.8028 39.0222 37.8025 39.0218 38.3634 38.7184L38.1993 38.1548L38.4953 38.102C38.6864 38.0678 38.9634 38.0181 39.3064 37.9562C39.9924 37.8323 40.9424 37.6595 41.9983 37.4635C44.1134 37.0709 46.6423 36.5876 48.3283 36.2194L48.7536 36.1265ZM38.3634 38.7184L38.1993 38.1548L37.2578 38.3217L37.8028 39.0222L38.3634 38.7184Z" fill="#D4FD5F"/>
<path d="M37.5107 45.1928L36.7969 43.1522L39.5438 47.8351L41.5768 50.4773L39.3525 48.0659L37.5107 45.1928Z" fill="#25951C"/>
<ellipse cx="50.4204" cy="43.6571" rx="5.09423" ry="3.15635" transform="rotate(6.95121 50.4204 43.6571)" fill="#D4FD5F"/>
<path d="M60.5818 54.6294L60.6792 54.3042L53.565 54.9968L52.5796 55.4096L60.5818 54.6294Z" fill="#227B18"/>
<path d="M60.9988 53.2114L61.0962 52.8862L58.3256 53.2114L57.3402 53.6242L60.9988 53.2114Z" fill="#227B18"/>
<path d="M37.1254 35.25C37.1254 35.25 29.6 33.4988 27 29.0573C32.4643 29.0573 39.2946 22.6858 42.0268 19.5C45.2143 21.7755 52.5 21.3204 52.5 21.3204C51.5893 24.0511 48.9646 31.6091 37.1254 35.25Z" fill="#82DC34"/>
<path d="M36.989 33.75C36.989 33.75 32.7392 32.5785 30 30.2683C34.5652 28.8821 40.141 24.3375 42.2932 21.75C45.266 23.3376 49.5 23.2315 49.5 23.2315C48.3064 26.058 43.8369 31.9018 36.989 33.75Z" stroke="#D4FD5F" stroke-width="1.5"/>
<ellipse cx="40.5" cy="27.75" rx="3.75" ry="3" fill="#D4FD5F"/>
</g>
<defs>
<radialGradient id="paint0_radial_925_11942" cx="0" cy="0" r="1" gradientUnits="userSpaceOnUse" gradientTransform="translate(42 42) rotate(90) scale(42)">
<stop stop-color="#05FF00"/>
<stop offset="1" stop-color="#1D1E25" stop-opacity="0"/>
</radialGradient>
<clipPath id="clip0_925_11942">
<rect width="48" height="48" fill="white" transform="translate(18 18)"/>
</clipPath>
</defs>
</svg>
