<svg width="56" height="56" viewBox="0 0 56 56" fill="none" xmlns="http://www.w3.org/2000/svg">
<path d="M0.580595 32.0962C0.373994 31.9219 0.213838 31.6991 0.114468 31.4478C0.0150978 31.1964 -0.0203855 30.9243 0.0111957 30.6559C0.0427768 30.3874 0.140436 30.131 0.29543 29.9096C0.450424 29.6881 0.657913 29.5086 0.89932 29.387C6.77927 25.9701 12.1368 21.7245 16.807 16.781C17.175 16.3585 17.688 16.0892 18.2447 16.0264C18.8015 15.9637 19.3616 16.1119 19.8144 16.4419C28.8327 23.7276 38.7664 29.3993 49.2393 34.3109C50.5265 34.8871 51.0536 36.2927 50.3467 37.4491C46.182 43.845 41.3644 49.791 35.9714 55.1915C34.9703 56.1477 33.0007 56.2703 31.64 55.4816C20.4437 48.7721 9.96665 41.2085 0.580595 32.0962Z" fill="#9F9BB6"/>
<path d="M0.580595 30.3853C0.373994 30.211 0.213838 29.9882 0.114468 29.7368C0.0150978 29.4855 -0.0203855 29.2134 0.0111957 28.9449C0.0427768 28.6765 0.140436 28.4201 0.29543 28.1986C0.450424 27.9772 0.657913 27.7977 0.89932 27.6761C6.77927 24.2591 12.1368 20.0136 16.807 15.0701C17.175 14.6475 17.688 14.3783 18.2447 14.3155C18.8015 14.2527 19.3616 14.4009 19.8144 14.7309C28.8327 22.0167 38.7664 27.6883 49.2393 32.6C50.5265 33.1761 51.0536 34.5818 50.3467 35.7382C46.182 42.134 41.3644 48.08 35.9714 53.4806C34.9703 54.4368 33.0007 54.5594 31.64 53.7707C20.4437 47.0611 9.96665 39.4975 0.580595 30.3853Z" fill="#DCDAEA"/>
<path d="M0.592557 27.9247C0.385957 27.7504 0.225801 27.5276 0.126431 27.2762C0.0270606 27.0249 -0.00842256 26.7528 0.0231586 26.4844C0.0547397 26.2159 0.152399 25.9595 0.307393 25.7381C0.462387 25.5166 0.669876 25.3371 0.911283 25.2155C6.79123 21.7986 12.1487 17.553 16.819 12.6095C17.1869 12.187 17.6999 11.9177 18.2567 11.8549C18.8135 11.7921 19.3736 11.9404 19.8264 12.2704C28.8447 19.5561 38.7783 25.2278 49.2513 30.1394C50.5385 30.7156 51.0656 32.1212 50.3587 33.2776C46.194 39.6734 41.3764 45.6195 35.9833 51.02C34.9822 51.9762 33.0127 52.0988 31.6519 51.3101C20.4557 44.6006 9.97861 37.037 0.592557 27.9247Z" fill="url(#paint0_linear_3516_51087)"/>
<path opacity="0.67" d="M27.5944 48.8916C25.3511 37.3766 23.5572 25.833 22.2292 14.1587C30.6831 20.3705 39.7353 25.7241 49.2514 30.1399C50.5385 30.7161 51.0657 32.1217 50.3587 33.2781C46.1941 39.6739 41.3765 45.62 35.9834 51.0205C34.9823 51.9767 33.0127 52.0952 31.652 51.3065C29.993 50.3626 29.1839 49.8764 27.5944 48.8916Z" fill="url(#paint1_linear_3516_51087)"/>
<path d="M27.9335 33.5168C28.0193 32.8957 28.0602 32.5852 28.1378 31.9641C28.857 31.7516 29.2166 31.6413 29.9317 31.4165C30.6711 31.192 31.3342 30.7678 31.8481 30.1907L32.0892 29.9087C33.3804 28.405 32.9064 26.2965 31.2352 25.2422C30.3208 24.6874 29.2308 24.4977 28.1828 24.711C25.3254 25.2902 22.4392 25.7157 19.5363 25.9859C19.4914 28.928 19.4709 30.4031 19.4382 33.3411C19.4555 33.8333 19.5925 34.3138 19.8375 34.7411C20.0824 35.1683 20.4279 35.5293 20.8439 35.7929C22.5887 37.0187 25.2979 36.9329 26.7362 35.5518L26.9937 35.3025C27.4952 34.8272 27.8256 34.1994 27.9335 33.5168V33.5168Z" fill="black"/>
<path d="M25.2119 36.4671L25.596 36.3323C24.7787 31.9641 24.4273 29.7943 23.7695 25.4711C22.0818 25.7162 21.236 25.8184 19.5279 25.9941C19.4871 28.8953 19.4707 30.35 19.4421 33.2594C19.4611 33.7926 19.6103 34.313 19.8767 34.7753C20.1431 35.2376 20.5186 35.6276 20.9704 35.9114C21.5878 36.3221 22.2913 36.5857 23.0266 36.6821C23.7619 36.7784 24.5095 36.7049 25.2119 36.4671V36.4671Z" fill="#404660"/>
<path d="M28.1378 31.9519L28.2195 31.9764C30.9179 32.8512 33.7884 33.0574 36.584 32.5771C34.3917 34.0699 32.5941 36.0721 31.3455 38.4122C30.9011 36.0326 29.8097 33.8214 28.1909 32.0214L28.1378 31.9519Z" fill="black"/>
<path d="M4.10217 25.4156L4.64564 25.0806C5.17276 25.5913 5.46289 25.8447 5.98184 26.3473C6.09801 26.4466 6.18076 26.5793 6.21884 26.7273C6.2391 26.795 6.24556 26.866 6.23784 26.9362C6.23012 27.0064 6.20837 27.0743 6.17389 27.1359C6.10196 27.2724 5.99288 27.3858 5.85925 27.4628C5.63979 27.6092 5.37898 27.6808 5.11556 27.6671C4.86205 27.6446 4.62469 27.5332 4.44542 27.3525L4.99706 27.0174C5.06459 27.0908 5.15072 27.1444 5.24632 27.1727C5.33051 27.1863 5.41673 27.1673 5.4874 27.1196C5.52086 27.1038 5.54863 27.078 5.56692 27.0459C5.5852 27.0137 5.59311 26.9766 5.58956 26.9398C5.56896 26.8475 5.51697 26.7652 5.44245 26.7069C4.89899 26.1798 4.6293 25.9264 4.10217 25.4156Z" fill="black"/>
<path d="M42.2188 27.8655C42.2188 27.9881 42.2188 28.0494 42.2188 28.176L41.9001 28.319C41.7638 28.379 41.6465 28.4751 41.5609 28.5969V28.6255C41.5077 28.7007 41.4718 28.7869 41.456 28.8777C41.4402 28.9684 41.4448 29.0616 41.4694 29.1504C41.494 29.2392 41.5381 29.3214 41.5985 29.3911C41.6588 29.4607 41.7339 29.5161 41.8183 29.5531C42.0147 29.6508 42.2402 29.6726 42.4517 29.6144C43.1259 29.4223 43.461 29.3283 44.1352 29.124C43.9922 28.5234 43.9187 28.2251 43.7797 27.6244C43.7552 27.5275 43.7096 27.4373 43.646 27.3603C43.5823 27.2833 43.5024 27.2213 43.412 27.179C43.2351 27.087 43.0308 27.0629 42.8374 27.111C42.644 27.1592 42.4748 27.2764 42.3618 27.4405L42.3414 27.4732C42.2609 27.5881 42.2181 27.7252 42.2188 27.8655V27.8655Z" fill="black"/>
<path d="M42.231 28.1762H42.2024C41.6909 28.0639 41.1612 28.0639 40.6497 28.1762C41.0377 27.8577 41.3222 27.431 41.4669 26.9503C41.5974 27.4082 41.8519 27.8212 42.2024 28.1435L42.231 28.1762Z" fill="black"/>
<path d="M47.8782 31.2695L47.5022 31.8538C46.734 31.5024 46.354 31.3226 45.6022 30.963C45.4365 30.8951 45.2944 30.78 45.1935 30.6321C45.1045 30.4997 45.0614 30.3418 45.0709 30.1826C45.0833 30.0124 45.1412 29.8487 45.2385 29.7086C45.3765 29.4719 45.5958 29.2933 45.8555 29.206C46.1133 29.131 46.3901 29.1588 46.6278 29.2836L46.26 29.872C46.1659 29.8177 46.058 29.7921 45.9495 29.7985C45.9057 29.8065 45.8642 29.8243 45.8281 29.8504C45.7921 29.8766 45.7623 29.9105 45.7411 29.9497C45.7194 29.9846 45.7078 30.025 45.7078 30.0661C45.7078 30.1073 45.7194 30.1476 45.7411 30.1826C45.7969 30.2752 45.8816 30.347 45.9822 30.3869C46.7299 30.726 47.11 30.9181 47.8782 31.2695Z" fill="black"/>
<path fill-rule="evenodd" clip-rule="evenodd" d="M9.18131 29.8937C9.1241 30.0613 9.09141 30.143 9.0342 30.3024C8.96305 30.498 8.82763 30.6636 8.6501 30.7723L8.56429 30.8295C8.29388 30.9826 7.98288 31.0486 7.6736 31.0186C7.36432 30.9886 7.07179 30.8641 6.83582 30.6619C6.72355 30.575 6.63588 30.4603 6.58142 30.3292C6.52696 30.1981 6.50761 30.055 6.52526 29.9142C6.65602 29.0724 6.7214 28.6556 6.85625 27.8138C7.95544 27.8629 8.49074 27.8792 9.60219 27.8956C9.93508 27.8971 10.2571 28.0141 10.5134 28.2266C10.615 28.3056 10.6965 28.4075 10.7512 28.524C10.806 28.6405 10.8324 28.7682 10.8284 28.8969C10.8245 29.0255 10.7901 29.1514 10.7283 29.2643C10.6665 29.3771 10.5788 29.4738 10.4726 29.5464L10.3867 29.6077C10.1928 29.7343 9.97147 29.8127 9.74112 29.8365L9.17722 29.8937H9.20174C9.95314 30.275 10.7754 30.4962 11.6167 30.5434C10.8851 30.801 10.2341 31.2463 9.72886 31.8347C9.75391 31.1558 9.56681 30.4859 9.19357 29.9182L9.18131 29.8937Z" fill="black"/>
<g clip-path="url(#clip0_3516_51087)" filter="url(#filter0_d_3516_51087)">
<path d="M24.5367 21.7429C24.917 21.8077 25.3077 21.8803 25.6726 21.9633C26.0375 22.0463 26.423 22.1345 26.7931 22.2356C27.1632 22.3367 27.5307 22.443 27.8956 22.5571C28.2606 22.6712 37.5678 22.4249 37.925 22.5571L22.1209 36.4014L11.584 6.72918C11.4873 6.45867 11.4599 6.1679 11.5044 5.88385C11.5496 5.60863 11.6608 5.34872 11.8282 5.12668C12.0065 4.88563 12.2322 4.68435 12.4912 4.53546C12.7824 4.3655 13.1007 4.24792 13.4318 4.188L35.6621 0.0391261C35.9823 -0.0101124 36.3081 -0.0101124 36.6284 0.0391261C36.9422 0.0820922 37.2484 0.169382 37.5381 0.29843C37.8191 0.42211 38.0792 0.589205 38.3091 0.793703C38.5266 0.985357 38.7062 1.21674 38.8386 1.47567L39.3654 2.52845L34.4772 20.6867C34.1894 20.5138 32.6629 14.2326 32.3854 14.0597C32.1104 13.8808 31.8354 13.6941 31.5681 13.5022C31.3008 13.3103 31.0387 13.1132 30.7817 12.9136C30.5247 12.7139 30.2677 12.5039 30.0287 12.2939C29.9146 13.1667 29.714 14.0259 29.4299 14.8584C29.1359 15.7152 28.7615 16.5418 28.312 17.3269C27.8386 18.1477 27.2915 18.9229 26.6775 19.6425C26.025 20.4034 25.3088 21.1062 24.5367 21.7429ZM19.1963 15.1177C19.253 14.8059 19.3391 14.5003 19.4533 14.2049C19.5721 13.9107 19.7184 13.6285 19.8902 13.3622C20.0626 13.0912 20.2605 12.8376 20.4813 12.605C20.7057 12.3634 20.9508 12.1421 21.2137 11.9438C20.8444 11.8815 20.4795 11.7949 20.1215 11.6845C19.7706 11.572 19.4272 11.4369 19.0935 11.28C18.7658 11.1297 18.4489 10.9564 18.1452 10.7614C17.8491 10.569 17.5682 10.354 17.3048 10.1183C17.2428 10.4182 17.1507 10.711 17.0298 10.9921C16.9071 11.2808 16.7574 11.5569 16.5826 11.8167C16.4016 12.0863 16.1969 12.3388 15.9709 12.5713C15.733 12.8165 15.4751 13.0412 15.2 13.2429C15.5773 13.3088 15.9499 13.3998 16.3153 13.5152C16.6739 13.6278 17.0243 13.7656 17.3639 13.9275C17.6977 14.0844 18.0197 14.2656 18.3276 14.4694C18.6321 14.6687 18.9208 14.8915 19.1911 15.1358L19.1963 15.1177ZM15.1383 5.44303L14.8427 9.20554L15.9555 8.98253V8.27982L17.3716 7.99718L17.865 8.59357L18.9675 8.37316L16.0917 5.26151L15.1332 5.44303" fill="white"/>
<path d="M16.0977 5.26135L18.9735 8.37301L17.871 8.59342L17.3776 7.99702L15.9615 8.27966V8.98237L14.8487 9.20538L15.1442 5.44287L16.0977 5.26135ZM15.9692 7.59509L16.8867 7.41358L15.9795 6.31413V7.59509" fill="#F04E5E"/>
<path d="M15.9796 6.30371L16.8868 7.40316L15.9719 7.58467L15.9796 6.30371Z" fill="white"/>
<path d="M17.3106 10.1104C17.574 10.3461 17.855 10.5611 18.151 10.7534C18.4547 10.9484 18.7716 11.1217 19.0993 11.272C19.433 11.4289 19.7764 11.5641 20.1273 11.6766C20.4854 11.787 20.8502 11.8736 21.2195 11.9359C20.9566 12.1342 20.7115 12.3554 20.4871 12.5971C20.2664 12.8297 20.0684 13.0833 19.896 13.3543C19.7242 13.6206 19.5779 13.9027 19.4591 14.197C19.3449 14.4923 19.2589 14.7979 19.2021 15.1097C18.9317 14.8655 18.643 14.6427 18.3386 14.4433C18.0307 14.2395 17.7086 14.0584 17.3748 13.9014C17.0353 13.7395 16.6849 13.6017 16.3263 13.4891C15.9608 13.3737 15.5882 13.2828 15.2109 13.2168C15.4861 13.0151 15.744 12.7904 15.9819 12.5452C16.2079 12.3127 16.4126 12.0602 16.5936 11.7906C16.7683 11.5308 16.9181 11.2547 17.0408 10.9661C17.1587 10.6906 17.2491 10.4039 17.3106 10.1104V10.1104Z" fill="#F04E5E"/>
<path d="M54.8554 33.4477C55.0168 33.7815 55.1144 34.1431 55.1432 34.5134C55.17 34.8459 55.1253 35.1802 55.0121 35.4936C54.9027 35.7895 54.7267 36.0558 54.4981 36.2715C54.2511 36.5035 53.9549 36.6755 53.6321 36.7746L28.3564 44.673C28.2279 44.7093 28.0994 44.7378 27.9863 44.7611C27.8715 44.7819 27.7557 44.7966 27.6394 44.8052C27.529 44.8129 27.4182 44.8129 27.3078 44.8052C27.2003 44.8031 27.0931 44.7945 26.9866 44.7793C26.695 44.7407 26.4098 44.6631 26.1385 44.5485C25.8688 44.434 25.6149 44.285 25.3829 44.1051C25.152 43.9226 24.9463 43.7099 24.7713 43.4724C24.5956 43.2346 24.4546 42.9726 24.3524 42.6945L22.1191 36.4141L28.9835 22.9303C29.6851 23.1896 30.3713 23.4826 31.0394 23.8042C31.7076 24.1257 32.3681 24.4783 33.008 24.8595C33.648 25.2407 34.2725 25.6556 34.8764 26.0964C35.4804 26.5372 36.0663 27.0117 36.6291 27.5122C36.7092 26.5291 36.8813 25.5558 37.1431 24.6054C37.3961 23.6952 37.7343 22.8113 38.1531 21.9657C38.5625 21.143 39.0488 20.3615 39.6052 19.6319C40.159 18.9057 40.7803 18.2345 41.4607 17.6275C40.7334 17.5005 40.0112 17.3397 39.2993 17.1452C38.5874 16.9507 37.8807 16.7251 37.1894 16.471C36.4981 16.2169 35.8196 15.9265 35.1565 15.6127C34.4935 15.299 33.8536 14.9515 33.2291 14.5755L39.361 2.52563L54.8554 33.4477ZM50.3939 35.4158C50.3982 35.0546 50.4344 34.6945 50.5018 34.3397C50.5665 33.9977 50.6629 33.6626 50.7897 33.3388C50.9126 33.022 51.0658 32.718 51.2471 32.4312C51.427 32.145 51.6344 31.8775 51.8665 31.6326C51.48 31.5692 51.0986 31.4773 50.7254 31.3577C50.3478 31.2387 49.9786 31.094 49.6203 30.9246C49.265 30.7528 48.9216 30.557 48.5923 30.3386C48.2585 30.1217 47.9399 29.8817 47.6389 29.6203C47.6296 29.9692 47.5883 30.3164 47.5155 30.6576C47.4449 30.9923 47.3433 31.3195 47.2123 31.6351C47.0797 31.9509 46.9189 32.2539 46.7317 32.5401C46.5396 32.8313 46.3201 33.1031 46.0763 33.3517C46.4706 33.4165 46.8597 33.5101 47.2405 33.6318C47.6244 33.7538 47.9996 33.902 48.3636 34.0752C48.7302 34.2509 49.0848 34.451 49.425 34.6742C49.7686 34.9014 50.0966 35.1517 50.4067 35.4236L50.3939 35.4158ZM44.6551 24.2735L45.0149 28.6687L46.0892 28.3679L45.971 27.5459L47.3356 27.1699L47.9396 27.8519L49.001 27.5537L45.5829 24.0246L44.6551 24.2839" fill="#F9FAFF"/>
<path d="M45.6318 25.2279L46.7318 26.4803L45.8477 26.7215L45.6318 25.2279Z" fill="#F9FAFF"/>
<path d="M45.5703 24.0092L48.9883 27.5383L47.9269 27.8365L47.323 27.1545L45.9583 27.5305L46.0766 28.3525L45.0023 28.6533L44.6425 24.2581L45.5703 24.0092ZM45.8453 26.7215L46.7319 26.4803L45.632 25.2305L45.8453 26.7215Z" fill="#F04E5E"/>
<path d="M30.027 12.2859C30.284 12.4959 30.5255 12.7034 30.78 12.9056C31.0344 13.1079 31.294 13.3024 31.5664 13.4942C31.8388 13.6861 32.1086 13.8728 32.3836 14.0518C32.6586 14.2307 32.9439 14.4096 33.2317 14.5704C33.8562 14.9386 34.4987 15.2834 35.1592 15.6076C35.8197 15.9317 36.5007 16.2092 37.192 16.4659C37.8834 16.7226 38.5875 16.9482 39.302 17.1401C40.0164 17.3319 40.736 17.4953 41.4633 17.6224C40.783 18.2293 40.1616 18.9005 39.6078 19.6268C39.0514 20.3564 38.5652 21.1378 38.1558 21.9605C37.737 22.8062 37.3988 23.69 37.1458 24.6003C36.8839 25.5507 36.7118 26.5239 36.6318 27.5071C36.0698 27.0075 35.4856 26.5355 34.8791 26.0913C34.2726 25.647 33.6498 25.2347 33.0107 24.8544C32.3699 24.4741 31.7137 24.1223 31.0421 23.799C30.3713 23.4775 29.6852 23.1845 28.9861 22.9251C28.6289 22.7929 28.2691 22.6658 27.9042 22.5517C27.5392 22.4377 27.1717 22.3287 26.8017 22.2302C26.4316 22.1317 26.0564 22.0383 25.6811 21.9579C25.3059 21.8776 24.9256 21.8024 24.5452 21.7375C25.3168 21.0982 26.0322 20.3929 26.6834 19.6294C27.2975 18.9097 27.8446 18.1346 28.3179 17.3138C28.7675 16.5287 29.1418 15.7021 29.4359 14.8452C29.717 14.0141 29.915 13.1568 30.027 12.2859V12.2859Z" fill="#FF1D25"/>
<path d="M47.626 29.6127C47.9235 29.8754 48.2387 30.1172 48.5692 30.3361C48.8985 30.5545 49.2419 30.7503 49.5972 30.9222C49.9554 31.0915 50.3246 31.2362 50.7023 31.3552C51.0755 31.4749 51.4568 31.5667 51.8433 31.6301C51.6113 31.875 51.4038 32.1426 51.224 32.4287C51.0426 32.7155 50.8894 33.0195 50.7665 33.3363C50.6397 33.6601 50.5434 33.9952 50.4787 34.3372C50.4112 34.692 50.3751 35.0521 50.3707 35.4133C50.0606 35.1415 49.7326 34.8911 49.389 34.6639C49.0488 34.4407 48.6942 34.2406 48.3276 34.0649C47.9636 33.8917 47.5884 33.7436 47.2045 33.6215C46.8237 33.4998 46.4346 33.4062 46.0403 33.3415C46.2841 33.0928 46.5036 32.821 46.6957 32.5298C46.8829 32.2436 47.0437 31.9407 47.1763 31.6249C47.3073 31.3093 47.4089 30.982 47.4795 30.6473C47.56 30.3077 47.609 29.9614 47.626 29.6127V29.6127Z" fill="#F04E5E"/>
<path d="M53.6269 36.7771C53.9425 36.683 54.2337 36.5201 54.4801 36.3C54.7044 36.0918 54.88 35.8358 54.9941 35.5506C55.1125 35.2597 55.1694 34.9471 55.1612 34.6327C55.1517 34.2898 55.0775 33.9519 54.9427 33.637C55.0775 33.9519 55.1517 34.2898 55.1612 34.6327C55.1707 34.9472 55.1137 35.2601 54.9941 35.5506C54.88 35.8358 54.7044 36.0918 54.4801 36.3C54.2341 36.5206 53.9427 36.6836 53.6269 36.7771V36.7771Z" fill="white"/>
<path d="M28.2665 44.7014H28.287H28.3076H28.3307H28.3513L53.627 36.803L28.3564 44.704H28.3359H28.3153H28.2922H28.2716C28.1659 44.7341 28.0587 44.7583 27.9504 44.7766C27.8424 44.7939 27.7345 44.8068 27.6266 44.8155C27.5161 44.8155 27.4107 44.8155 27.3028 44.8155C27.1948 44.8155 27.0869 44.8025 26.9815 44.787C27.0869 44.8025 27.1948 44.8103 27.3002 44.8155C27.4055 44.8207 27.5161 44.8155 27.6214 44.8155C27.7268 44.8155 27.8373 44.7947 27.9452 44.7766C28.0537 44.7577 28.1609 44.7326 28.2665 44.7014V44.7014Z" fill="white"/>
</g>
<defs>
<filter id="filter0_d_3516_51087" x="6.23878" y="0" width="54.1789" height="55.3282" filterUnits="userSpaceOnUse" color-interpolation-filters="sRGB">
<feFlood flood-opacity="0" result="BackgroundImageFix"/>
<feColorMatrix in="SourceAlpha" type="matrix" values="0 0 0 0 0 0 0 0 0 0 0 0 0 0 0 0 0 0 127 0" result="hardAlpha"/>
<feOffset dy="5.25372"/>
<feGaussianBlur stdDeviation="2.62686"/>
<feColorMatrix type="matrix" values="0 0 0 0 0 0 0 0 0 0 0 0 0 0 0 0 0 0 0.25 0"/>
<feBlend mode="normal" in2="BackgroundImageFix" result="effect1_dropShadow_3516_51087"/>
<feBlend mode="normal" in="SourceGraphic" in2="effect1_dropShadow_3516_51087" result="shape"/>
</filter>
<linearGradient id="paint0_linear_3516_51087" x1="-11.4054" y1="26.3654" x2="58.7215" y2="36.6929" gradientUnits="userSpaceOnUse">
<stop offset="0.11" stop-color="#ECE7E7"/>
<stop offset="0.5" stop-color="#FDF8F8"/>
<stop offset="1" stop-color="white"/>
</linearGradient>
<linearGradient id="paint1_linear_3516_51087" x1="16.9792" y1="33.1294" x2="42.0114" y2="32.8556" gradientUnits="userSpaceOnUse">
<stop offset="0.15" stop-color="#D1CFDE"/>
<stop offset="1" stop-color="#EEEBFF" stop-opacity="0"/>
</linearGradient>
<clipPath id="clip0_3516_51087">
<rect width="43.6715" height="44.8208" fill="white" transform="translate(11.4925)"/>
</clipPath>
</defs>
</svg>
