<svg width="92" height="92" viewBox="0 0 92 92" fill="none" xmlns="http://www.w3.org/2000/svg">
<circle opacity="0.6" cx="46" cy="46" r="46" fill="url(#paint0_radial_1401_121448)"/>
<g clip-path="url(#clip0_1401_121448)">
<path d="M18.5806 50.0962C18.374 49.9219 18.2138 49.6991 18.1145 49.4478C18.0151 49.1964 17.9796 48.9243 18.0112 48.6559C18.0428 48.3874 18.1404 48.131 18.2954 47.9096C18.4504 47.6881 18.6579 47.5086 18.8993 47.387C24.7793 43.9701 30.1368 39.7245 34.807 34.781C35.175 34.3585 35.688 34.0892 36.2447 34.0264C36.8015 33.9637 37.3616 34.1119 37.8144 34.4419C46.8327 41.7276 56.7664 47.3993 67.2393 52.3109C68.5265 52.8871 69.0536 54.2927 68.3467 55.4491C64.182 61.845 59.3644 67.791 53.9714 73.1915C52.9703 74.1477 51.0007 74.2703 49.64 73.4816C38.4437 66.7721 27.9666 59.2085 18.5806 50.0962Z" fill="#9F9BB6"/>
<path d="M18.5806 48.3853C18.374 48.211 18.2138 47.9882 18.1145 47.7368C18.0151 47.4855 17.9796 47.2134 18.0112 46.9449C18.0428 46.6765 18.1404 46.4201 18.2954 46.1986C18.4504 45.9772 18.6579 45.7977 18.8993 45.6761C24.7793 42.2591 30.1368 38.0136 34.807 33.0701C35.175 32.6475 35.688 32.3783 36.2447 32.3155C36.8015 32.2527 37.3616 32.4009 37.8144 32.7309C46.8327 40.0167 56.7664 45.6883 67.2393 50.6C68.5265 51.1761 69.0536 52.5818 68.3467 53.7382C64.182 60.134 59.3644 66.08 53.9714 71.4806C52.9703 72.4368 51.0007 72.5594 49.64 71.7707C38.4437 65.0611 27.9666 57.4975 18.5806 48.3853Z" fill="#DCDAEA"/>
<path d="M18.5926 45.9247C18.386 45.7504 18.2258 45.5276 18.1264 45.2762C18.0271 45.0249 17.9916 44.7528 18.0232 44.4844C18.0547 44.2159 18.1524 43.9595 18.3074 43.7381C18.4624 43.5166 18.6699 43.3371 18.9113 43.2155C24.7912 39.7986 30.1487 35.553 34.819 30.6095C35.1869 30.187 35.6999 29.9177 36.2567 29.8549C36.8135 29.7921 37.3736 29.9404 37.8264 30.2704C46.8447 37.5561 56.7783 43.2278 67.2513 48.1394C68.5385 48.7156 69.0656 50.1212 68.3587 51.2776C64.194 57.6734 59.3764 63.6195 53.9833 69.02C52.9822 69.9762 51.0127 70.0988 49.6519 69.3101C38.4557 62.6006 27.9786 55.037 18.5926 45.9247Z" fill="url(#paint1_linear_1401_121448)"/>
<path opacity="0.67" d="M45.5944 66.8916C43.3511 55.3766 41.5572 43.833 40.2292 32.1587C48.6831 38.3705 57.7353 43.7241 67.2514 48.1399C68.5385 48.7161 69.0657 50.1217 68.3587 51.2781C64.1941 57.6739 59.3765 63.62 53.9834 69.0205C52.9823 69.9767 51.0127 70.0952 49.652 69.3065C47.993 68.3626 47.1839 67.8764 45.5944 66.8916Z" fill="url(#paint2_linear_1401_121448)"/>
<path d="M45.9335 51.5168C46.0193 50.8957 46.0602 50.5852 46.1378 49.9641C46.857 49.7516 47.2166 49.6413 47.9316 49.4165C48.671 49.192 49.3342 48.7678 49.8481 48.1907L50.0892 47.9087C51.3804 46.405 50.9064 44.2965 49.2351 43.2422C48.3208 42.6874 47.2308 42.4977 46.1827 42.711C43.3254 43.2902 40.4391 43.7157 37.5363 43.9859C37.4913 46.928 37.4709 48.4031 37.4382 51.3411C37.4555 51.8333 37.5925 52.3138 37.8375 52.7411C38.0824 53.1683 38.4279 53.5293 38.8439 53.7929C40.5887 55.0187 43.2979 54.9329 44.7362 53.5518L44.9936 53.3025C45.4952 52.8272 45.8256 52.1994 45.9335 51.5168V51.5168Z" fill="black"/>
<path d="M43.2119 54.4671L43.596 54.3323C42.7787 49.9641 42.4273 47.7943 41.7695 43.4711C40.0818 43.7162 39.236 43.8184 37.5279 43.9941C37.4871 46.8953 37.4707 48.35 37.4421 51.2594C37.4611 51.7926 37.6103 52.313 37.8767 52.7753C38.1431 53.2376 38.5186 53.6276 38.9704 53.9114C39.5878 54.3221 40.2913 54.5857 41.0266 54.6821C41.7619 54.7784 42.5095 54.7049 43.2119 54.4671V54.4671Z" fill="#404660"/>
<path d="M46.1378 49.9519L46.2196 49.9764C48.9179 50.8512 51.7884 51.0574 54.5841 50.5771C52.3917 52.0699 50.5941 54.0721 49.3455 56.4122C48.9011 54.0326 47.8097 51.8214 46.191 50.0214L46.1378 49.9519Z" fill="black"/>
<path d="M22.1022 43.4156L22.6457 43.0806C23.1728 43.5913 23.4629 43.8447 23.9819 44.3473C24.098 44.4466 24.1808 44.5793 24.2189 44.7273C24.2391 44.795 24.2456 44.866 24.2379 44.9362C24.2301 45.0064 24.2084 45.0743 24.1739 45.1359C24.102 45.2724 23.9929 45.3858 23.8593 45.4628C23.6398 45.6092 23.379 45.6808 23.1156 45.6671C22.8621 45.6446 22.6247 45.5332 22.4454 45.3525L22.9971 45.0174C23.0646 45.0908 23.1508 45.1444 23.2463 45.1727C23.3305 45.1863 23.4168 45.1673 23.4874 45.1196C23.5209 45.1038 23.5487 45.078 23.5669 45.0459C23.5852 45.0137 23.5931 44.9766 23.5896 44.9398C23.569 44.8475 23.517 44.7652 23.4425 44.7069C22.899 44.1798 22.6293 43.9264 22.1022 43.4156Z" fill="black"/>
<path d="M60.2188 45.8655C60.2188 45.9881 60.2188 46.0494 60.2188 46.176L59.9001 46.319C59.7638 46.379 59.6466 46.4751 59.5609 46.5969V46.6255C59.5077 46.7007 59.4719 46.7869 59.456 46.8777C59.4402 46.9684 59.4448 47.0616 59.4694 47.1504C59.4941 47.2392 59.5382 47.3214 59.5985 47.3911C59.6589 47.4607 59.734 47.5161 59.8184 47.5531C60.0147 47.6508 60.2403 47.6726 60.4517 47.6144C61.126 47.4223 61.461 47.3283 62.1353 47.124C61.9922 46.5234 61.9187 46.2251 61.7798 45.6244C61.7553 45.5275 61.7096 45.4373 61.646 45.3603C61.5824 45.2833 61.5025 45.2213 61.412 45.179C61.2352 45.087 61.0308 45.0629 60.8374 45.111C60.644 45.1592 60.4749 45.2764 60.3618 45.4405L60.3414 45.4732C60.261 45.5881 60.2181 45.7252 60.2188 45.8655V45.8655Z" fill="black"/>
<path d="M60.2311 46.1762H60.2025C59.691 46.0639 59.1612 46.0639 58.6497 46.1762C59.0377 45.8577 59.3222 45.431 59.4669 44.9503C59.5974 45.4082 59.852 45.8212 60.2025 46.1435L60.2311 46.1762Z" fill="black"/>
<path d="M65.8782 49.2695L65.5022 49.8538C64.734 49.5024 64.354 49.3226 63.6022 48.963C63.4365 48.8951 63.2944 48.78 63.1935 48.6321C63.1045 48.4997 63.0614 48.3418 63.0709 48.1826C63.0833 48.0124 63.1412 47.8487 63.2385 47.7086C63.3765 47.4719 63.5958 47.2933 63.8555 47.206C64.1133 47.131 64.3901 47.1588 64.6278 47.2836L64.26 47.872C64.1659 47.8177 64.058 47.7921 63.9495 47.7985C63.9057 47.8065 63.8642 47.8243 63.8281 47.8504C63.7921 47.8766 63.7623 47.9105 63.7411 47.9497C63.7194 47.9846 63.7078 48.025 63.7078 48.0661C63.7078 48.1073 63.7194 48.1476 63.7411 48.1826C63.7969 48.2752 63.8816 48.347 63.9822 48.3869C64.7299 48.726 65.11 48.9181 65.8782 49.2695Z" fill="black"/>
<path fill-rule="evenodd" clip-rule="evenodd" d="M27.1813 47.8937C27.1241 48.0613 27.0914 48.143 27.0342 48.3024C26.9631 48.498 26.8276 48.6636 26.6501 48.7723L26.5643 48.8295C26.2939 48.9826 25.9829 49.0486 25.6736 49.0186C25.3643 48.9886 25.0718 48.8641 24.8358 48.6619C24.7236 48.575 24.6359 48.4603 24.5814 48.3292C24.527 48.1981 24.5076 48.055 24.5253 47.9142C24.656 47.0724 24.7214 46.6556 24.8562 45.8138C25.9554 45.8629 26.4907 45.8792 27.6022 45.8956C27.9351 45.8971 28.2571 46.0141 28.5134 46.2266C28.615 46.3056 28.6965 46.4075 28.7512 46.524C28.806 46.6405 28.8324 46.7682 28.8284 46.8969C28.8245 47.0255 28.7901 47.1514 28.7283 47.2643C28.6665 47.3771 28.5788 47.4738 28.4726 47.5464L28.3867 47.6077C28.1928 47.7343 27.9715 47.8127 27.7411 47.8365L27.1772 47.8937H27.2017C27.9531 48.275 28.7754 48.4962 29.6167 48.5434C28.8851 48.801 28.2341 49.2463 27.7289 49.8347C27.7539 49.1558 27.5668 48.4859 27.1936 47.9182L27.1813 47.8937Z" fill="black"/>
<g clip-path="url(#clip1_1401_121448)" filter="url(#filter0_d_1401_121448)">
<path d="M42.5367 39.7429C42.917 39.8077 43.3077 39.8803 43.6726 39.9633C44.0375 40.0463 44.423 40.1345 44.7931 40.2356C45.1632 40.3367 45.5307 40.443 45.8956 40.5571C46.2606 40.6712 55.5678 40.4249 55.925 40.5571L40.1209 54.4014L29.584 24.7292C29.4873 24.4587 29.4599 24.1679 29.5044 23.8838C29.5496 23.6086 29.6608 23.3487 29.8282 23.1267C30.0065 22.8856 30.2322 22.6843 30.4912 22.5355C30.7824 22.3655 31.1007 22.2479 31.4318 22.188L53.6621 18.0391C53.9823 17.9899 54.3081 17.9899 54.6284 18.0391C54.9422 18.0821 55.2484 18.1694 55.5381 18.2984C55.8191 18.4221 56.0792 18.5892 56.3091 18.7937C56.5266 18.9854 56.7062 19.2167 56.8386 19.4757L57.3654 20.5284L52.4772 38.6867C52.1894 38.5138 50.6629 32.2326 50.3854 32.0597C50.1104 31.8808 49.8354 31.6941 49.5681 31.5022C49.3008 31.3103 49.0387 31.1132 48.7817 30.9136C48.5247 30.7139 48.2677 30.5039 48.0287 30.2939C47.9146 31.1667 47.714 32.0259 47.4299 32.8584C47.1359 33.7152 46.7615 34.5418 46.312 35.3269C45.8386 36.1477 45.2915 36.9229 44.6775 37.6425C44.025 38.4034 43.3088 39.1062 42.5367 39.7429ZM37.1963 33.1177C37.253 32.8059 37.3391 32.5003 37.4533 32.2049C37.5721 31.9107 37.7184 31.6285 37.8902 31.3622C38.0626 31.0912 38.2605 30.8376 38.4813 30.605C38.7057 30.3634 38.9508 30.1421 39.2137 29.9438C38.8444 29.8815 38.4795 29.7949 38.1215 29.6845C37.7706 29.572 37.4272 29.4369 37.0935 29.28C36.7658 29.1297 36.4489 28.9564 36.1452 28.7614C35.8491 28.569 35.5682 28.354 35.3048 28.1183C35.2428 28.4182 35.1507 28.711 35.0298 28.9921C34.9071 29.2808 34.7574 29.5569 34.5826 29.8167C34.4016 30.0863 34.1969 30.3388 33.9709 30.5713C33.733 30.8165 33.4751 31.0412 33.2 31.2429C33.5773 31.3088 33.9499 31.3998 34.3153 31.5152C34.6739 31.6278 35.0243 31.7656 35.3639 31.9275C35.6977 32.0844 36.0197 32.2656 36.3276 32.4694C36.6321 32.6687 36.9208 32.8915 37.1911 33.1358L37.1963 33.1177ZM33.1383 23.443L32.8427 27.2055L33.9555 26.9825V26.2798L35.3716 25.9972L35.865 26.5936L36.9675 26.3732L34.0917 23.2615L33.1332 23.443" fill="white"/>
<path d="M34.0977 23.2614L36.9735 26.373L35.871 26.5934L35.3776 25.997L33.9615 26.2797V26.9824L32.8487 27.2054L33.1442 23.4429L34.0977 23.2614ZM33.9692 25.5951L34.8867 25.4136L33.9795 24.3141V25.5951" fill="#F04E5E"/>
<path d="M33.9796 24.3037L34.8868 25.4032L33.9718 25.5847L33.9796 24.3037Z" fill="white"/>
<path d="M35.3106 28.1104C35.574 28.3461 35.8549 28.5611 36.151 28.7534C36.4547 28.9484 36.7716 29.1217 37.0993 29.272C37.433 29.4289 37.7764 29.5641 38.1273 29.6766C38.4854 29.787 38.8502 29.8736 39.2195 29.9359C38.9566 30.1342 38.7115 30.3554 38.4871 30.5971C38.2663 30.8297 38.0684 31.0833 37.896 31.3543C37.7242 31.6206 37.5779 31.9027 37.4591 32.197C37.3449 32.4923 37.2588 32.7979 37.2021 33.1097C36.9317 32.8655 36.643 32.6427 36.3386 32.4433C36.0307 32.2395 35.7086 32.0584 35.3748 31.9014C35.0353 31.7395 34.6849 31.6017 34.3263 31.4891C33.9608 31.3737 33.5882 31.2828 33.2109 31.2168C33.4861 31.0151 33.744 30.7904 33.9819 30.5452C34.2078 30.3127 34.4126 30.0602 34.5936 29.7906C34.7683 29.5308 34.9181 29.2547 35.0407 28.9661C35.1587 28.6906 35.2491 28.4039 35.3106 28.1104V28.1104Z" fill="#F04E5E"/>
<path d="M72.8553 51.4477C73.0167 51.7815 73.1144 52.1431 73.1432 52.5134C73.1699 52.8459 73.1252 53.1802 73.0121 53.4936C72.9027 53.7895 72.7267 54.0558 72.4981 54.2715C72.2511 54.5035 71.9549 54.6755 71.632 54.7746L46.3564 62.673C46.2279 62.7093 46.0994 62.7378 45.9863 62.7611C45.8715 62.7819 45.7557 62.7966 45.6393 62.8052C45.529 62.8129 45.4182 62.8129 45.3078 62.8052C45.2003 62.8031 45.093 62.7945 44.9866 62.7793C44.695 62.7407 44.4098 62.6631 44.1385 62.5485C43.8688 62.434 43.6149 62.285 43.3829 62.1051C43.152 61.9226 42.9463 61.7099 42.7713 61.4724C42.5956 61.2346 42.4545 60.9726 42.3524 60.6945L40.119 54.4141L46.9834 40.9303C47.685 41.1896 48.3712 41.4826 49.0394 41.8042C49.7076 42.1257 50.3681 42.4783 51.008 42.8595C51.6479 43.2407 52.2724 43.6556 52.8764 44.0964C53.4803 44.5372 54.0663 45.0117 54.6291 45.5122C54.7092 44.5291 54.8813 43.5558 55.1431 42.6054C55.3961 41.6952 55.7343 40.8113 56.1531 39.9657C56.5625 39.143 57.0487 38.3615 57.6051 37.6319C58.1589 36.9057 58.7803 36.2345 59.4606 35.6275C58.7333 35.5005 58.0112 35.3397 57.2993 35.1452C56.5874 34.9507 55.8807 34.7251 55.1894 34.471C54.498 34.2169 53.8196 33.9265 53.1565 33.6127C52.4935 33.299 51.8535 32.9515 51.229 32.5755L57.361 20.5256L72.8553 51.4477ZM68.3939 53.4158C68.3982 53.0546 68.4343 52.6945 68.5018 52.3397C68.5665 51.9977 68.6629 51.6626 68.7896 51.3388C68.9126 51.022 69.0658 50.718 69.2471 50.4312C69.4269 50.145 69.6344 49.8775 69.8664 49.6326C69.4799 49.5692 69.0986 49.4773 68.7254 49.3577C68.3478 49.2387 67.9786 49.094 67.6203 48.9246C67.265 48.7528 66.9216 48.557 66.5923 48.3386C66.2584 48.1217 65.9398 47.8817 65.6389 47.6203C65.6296 47.9692 65.5883 48.3164 65.5155 48.6576C65.4448 48.9923 65.3433 49.3195 65.2122 49.6351C65.0797 49.9509 64.9188 50.2539 64.7317 50.5401C64.5395 50.8313 64.3201 51.1031 64.0763 51.3517C64.4706 51.4165 64.8597 51.5101 65.2405 51.6318C65.6243 51.7538 65.9996 51.902 66.3636 52.0752C66.7302 52.2509 67.0847 52.451 67.425 52.6742C67.7686 52.9014 68.0966 53.1517 68.4067 53.4236L68.3939 53.4158ZM62.6551 42.2735L63.0149 46.6687L64.0892 46.3679L63.9709 45.5459L65.3356 45.1699L65.9395 45.8519L67.0009 45.5537L63.5829 42.0246L62.6551 42.2839" fill="#F9FAFF"/>
<path d="M63.6318 43.2279L64.7318 44.4803L63.8477 44.7215L63.6318 43.2279Z" fill="#F9FAFF"/>
<path d="M63.5703 42.0092L66.9883 45.5383L65.9269 45.8365L65.323 45.1545L63.9583 45.5305L64.0765 46.3525L63.0023 46.6533L62.6425 42.2581L63.5703 42.0092ZM63.8452 44.7215L64.7319 44.4803L63.6319 43.2305L63.8452 44.7215Z" fill="#F04E5E"/>
<path d="M48.027 30.2859C48.284 30.4959 48.5255 30.7034 48.78 30.9056C49.0344 31.1079 49.2939 31.3024 49.5664 31.4942C49.8388 31.6861 50.1086 31.8728 50.3836 32.0518C50.6586 32.2307 50.9439 32.4096 51.2317 32.5704C51.8562 32.9386 52.4987 33.2834 53.1592 33.6076C53.8197 33.9317 54.5007 34.2092 55.192 34.4659C55.8834 34.7226 56.5875 34.9482 57.302 35.1401C58.0164 35.3319 58.736 35.4953 59.4633 35.6224C58.7829 36.2293 58.1616 36.9005 57.6078 37.6268C57.0514 38.3564 56.5652 39.1378 56.1558 39.9605C55.737 40.8062 55.3988 41.69 55.1458 42.6003C54.8839 43.5507 54.7118 44.5239 54.6318 45.5071C54.0698 45.0075 53.4856 44.5355 52.8791 44.0913C52.2725 43.647 51.6498 43.2347 51.0107 42.8544C50.3699 42.4741 49.7137 42.1223 49.0421 41.799C48.3713 41.4775 47.6851 41.1845 46.9861 40.9251C46.6289 40.7929 46.2691 40.6658 45.9042 40.5517C45.5392 40.4377 45.1717 40.3287 44.8016 40.2302C44.4316 40.1317 44.0563 40.0383 43.6811 39.9579C43.3059 39.8776 42.9256 39.8024 42.5452 39.7375C43.3167 39.0982 44.0321 38.3929 44.6834 37.6294C45.2975 36.9097 45.8446 36.1346 46.3179 35.3138C46.7675 34.5287 47.1418 33.7021 47.4359 32.8452C47.717 32.0141 47.915 31.1568 48.027 30.2859V30.2859Z" fill="#FF1D25"/>
<path d="M65.626 47.6127C65.9235 47.8754 66.2387 48.1172 66.5692 48.3361C66.8985 48.5545 67.2419 48.7503 67.5972 48.9222C67.9554 49.0915 68.3246 49.2362 68.7023 49.3552C69.0755 49.4749 69.4568 49.5667 69.8433 49.6301C69.6113 49.875 69.4038 50.1426 69.224 50.4287C69.0426 50.7155 68.8894 51.0195 68.7665 51.3363C68.6397 51.6601 68.5434 51.9952 68.4787 52.3372C68.4112 52.692 68.3751 53.0521 68.3707 53.4133C68.0606 53.1415 67.7326 52.8911 67.389 52.6639C67.0488 52.4407 66.6942 52.2406 66.3276 52.0649C65.9636 51.8917 65.5884 51.7436 65.2045 51.6215C64.8237 51.4998 64.4346 51.4062 64.0403 51.3415C64.2841 51.0928 64.5036 50.821 64.6957 50.5298C64.8829 50.2436 65.0437 49.9407 65.1763 49.6249C65.3073 49.3093 65.4089 48.982 65.4795 48.6473C65.56 48.3077 65.609 47.9614 65.626 47.6127V47.6127Z" fill="#F04E5E"/>
<path d="M71.6269 54.7771C71.9425 54.683 72.2338 54.5201 72.4802 54.3C72.7044 54.0918 72.88 53.8358 72.9941 53.5506C73.1126 53.2597 73.1695 52.9471 73.1612 52.6327C73.1517 52.2898 73.0775 51.9519 72.9427 51.637C73.0775 51.9519 73.1517 52.2898 73.1612 52.6327C73.1707 52.9472 73.1138 53.2601 72.9941 53.5506C72.88 53.8358 72.7044 54.0918 72.4802 54.3C72.2341 54.5206 71.9427 54.6836 71.6269 54.7771V54.7771Z" fill="white"/>
<path d="M46.2665 62.7014H46.287H46.3076H46.3307H46.3513L71.6269 54.803L46.3564 62.704H46.3358H46.3153H46.2922H46.2716C46.1659 62.7341 46.0587 62.7583 45.9504 62.7766C45.8424 62.7939 45.7345 62.8068 45.6265 62.8155C45.516 62.8155 45.4107 62.8155 45.3027 62.8155C45.1948 62.8155 45.0868 62.8025 44.9815 62.787C45.0868 62.8025 45.1948 62.8103 45.3001 62.8155C45.4055 62.8207 45.516 62.8155 45.6214 62.8155C45.7268 62.8155 45.8373 62.7947 45.9452 62.7766C46.0536 62.7577 46.1609 62.7326 46.2665 62.7014V62.7014Z" fill="white"/>
</g>
</g>
<defs>
<filter id="filter0_d_1401_121448" x="24.2388" y="18" width="54.1789" height="55.3282" filterUnits="userSpaceOnUse" color-interpolation-filters="sRGB">
<feFlood flood-opacity="0" result="BackgroundImageFix"/>
<feColorMatrix in="SourceAlpha" type="matrix" values="0 0 0 0 0 0 0 0 0 0 0 0 0 0 0 0 0 0 127 0" result="hardAlpha"/>
<feOffset dy="5.25372"/>
<feGaussianBlur stdDeviation="2.62686"/>
<feColorMatrix type="matrix" values="0 0 0 0 0 0 0 0 0 0 0 0 0 0 0 0 0 0 0.25 0"/>
<feBlend mode="normal" in2="BackgroundImageFix" result="effect1_dropShadow_1401_121448"/>
<feBlend mode="normal" in="SourceGraphic" in2="effect1_dropShadow_1401_121448" result="shape"/>
</filter>
<radialGradient id="paint0_radial_1401_121448" cx="0" cy="0" r="1" gradientUnits="userSpaceOnUse" gradientTransform="translate(46 46) rotate(90) scale(46)">
<stop stop-color="#FF0000"/>
<stop offset="1" stop-color="#1D1E25" stop-opacity="0"/>
</radialGradient>
<linearGradient id="paint1_linear_1401_121448" x1="6.59459" y1="44.3654" x2="76.7215" y2="54.6929" gradientUnits="userSpaceOnUse">
<stop offset="0.11" stop-color="#ECE7E7"/>
<stop offset="0.5" stop-color="#FDF8F8"/>
<stop offset="1" stop-color="white"/>
</linearGradient>
<linearGradient id="paint2_linear_1401_121448" x1="34.9792" y1="51.1294" x2="60.0114" y2="50.8556" gradientUnits="userSpaceOnUse">
<stop offset="0.15" stop-color="#D1CFDE"/>
<stop offset="1" stop-color="#EEEBFF" stop-opacity="0"/>
</linearGradient>
<clipPath id="clip0_1401_121448">
<rect width="56" height="56" fill="white" transform="translate(18 18)"/>
</clipPath>
<clipPath id="clip1_1401_121448">
<rect width="43.6715" height="44.8208" fill="white" transform="translate(29.4925 18)"/>
</clipPath>
</defs>
</svg>
