<svg width="189" height="189" viewBox="0 0 189 189" fill="none" xmlns="http://www.w3.org/2000/svg">
<g clip-path="url(#clip0_3281_313698)">
<path d="M0 22C0 9.84973 9.84974 0 22 0H167C179.15 0 189 9.84974 189 22V167C189 179.15 179.15 189 167 189H22C9.84973 189 0 179.15 0 167V22Z" fill="url(#paint0_linear_3281_313698)"/>
<g style="mix-blend-mode:hard-light" opacity="0.9">
<circle cx="-15.4471" cy="137.207" r="220.803" fill="url(#paint1_radial_3281_313698)"/>
</g>
<rect x="19.0815" y="30.8943" width="34.5289" height="38.1635" rx="6.36598" fill="url(#paint2_linear_3281_313698)" fill-opacity="0.41"/>
<rect x="19.5363" y="31.349" width="33.6194" height="37.254" rx="5.91127" stroke="white" stroke-opacity="0.25" stroke-width="0.909426"/>
<rect x="19.0815" y="75.4183" width="34.5289" height="38.1635" rx="6.36598" fill="url(#paint3_linear_3281_313698)" fill-opacity="0.41"/>
<rect x="19.5363" y="75.873" width="33.6194" height="37.254" rx="5.91127" stroke="white" stroke-opacity="0.25" stroke-width="0.909426"/>
<rect x="19.0815" y="119.942" width="34.5289" height="38.1635" rx="6.36598" fill="url(#paint4_linear_3281_313698)" fill-opacity="0.41"/>
<rect x="19.5363" y="120.397" width="33.6194" height="37.254" rx="5.91127" stroke="white" stroke-opacity="0.25" stroke-width="0.909426"/>
<rect x="58.1536" y="30.8943" width="34.5288" height="38.1635" rx="6.36598" fill="url(#paint5_linear_3281_313698)" fill-opacity="0.41"/>
<rect x="58.6083" y="31.349" width="33.6194" height="37.254" rx="5.91127" stroke="white" stroke-opacity="0.25" stroke-width="0.909426"/>
<rect x="58.1536" y="75.4183" width="34.5288" height="38.1635" rx="6.36598" fill="url(#paint6_linear_3281_313698)" fill-opacity="0.41"/>
<rect x="58.6083" y="75.873" width="33.6194" height="37.254" rx="5.91127" stroke="white" stroke-opacity="0.25" stroke-width="0.909426"/>
<rect x="58.1536" y="119.942" width="34.5288" height="38.1635" rx="6.36598" fill="url(#paint7_linear_3281_313698)" fill-opacity="0.41"/>
<rect x="58.6083" y="120.397" width="33.6194" height="37.254" rx="5.91127" stroke="white" stroke-opacity="0.25" stroke-width="0.909426"/>
<rect x="97.2261" y="30.8943" width="34.5288" height="38.1635" rx="6.36598" fill="url(#paint8_linear_3281_313698)" fill-opacity="0.41"/>
<rect x="97.6808" y="31.349" width="33.6194" height="37.254" rx="5.91127" stroke="white" stroke-opacity="0.25" stroke-width="0.909426"/>
<rect x="97.2261" y="75.4183" width="34.5288" height="38.1635" rx="6.36598" fill="url(#paint9_linear_3281_313698)" fill-opacity="0.41"/>
<rect x="97.6808" y="75.873" width="33.6194" height="37.254" rx="5.91127" stroke="white" stroke-opacity="0.25" stroke-width="0.909426"/>
<rect x="97.2261" y="119.942" width="34.5288" height="38.1635" rx="6.36598" fill="url(#paint10_linear_3281_313698)" fill-opacity="0.41"/>
<rect x="97.6808" y="120.397" width="33.6194" height="37.254" rx="5.91127" stroke="white" stroke-opacity="0.25" stroke-width="0.909426"/>
<rect x="136.298" y="30.8943" width="34.5288" height="38.1635" rx="6.36598" fill="url(#paint11_linear_3281_313698)" fill-opacity="0.41"/>
<rect x="136.753" y="31.349" width="33.6194" height="37.254" rx="5.91127" stroke="white" stroke-opacity="0.25" stroke-width="0.909426"/>
<rect x="136.298" y="75.4183" width="34.5288" height="38.1635" rx="6.36598" fill="url(#paint12_linear_3281_313698)" fill-opacity="0.41"/>
<rect x="136.753" y="75.873" width="33.6194" height="37.254" rx="5.91127" stroke="white" stroke-opacity="0.25" stroke-width="0.909426"/>
<rect x="136.298" y="119.942" width="34.5288" height="38.1635" rx="6.36598" fill="url(#paint13_linear_3281_313698)" fill-opacity="0.41"/>
<rect x="136.753" y="120.397" width="33.6194" height="37.254" rx="5.91127" stroke="white" stroke-opacity="0.25" stroke-width="0.909426"/>
<path d="M37.3568 152.233L24.0295 135.676H50.6833L37.3568 152.233Z" fill="#C4C4C4"/>
<path d="M30.5671 129.733H44.1457L50.6833 135.677L37.3568 152.233L24.0295 135.677L30.5671 129.733Z" fill="#FFD646"/>
<path d="M30.5671 129.733H44.1457L50.6833 135.677H24.0295L30.5671 129.733Z" fill="#FFCC09"/>
<path d="M44.1453 129.733H37.3564L42.565 135.677H50.6829L44.1453 129.733Z" fill="#F0CFB0"/>
<path d="M30.5671 129.733H37.3569L32.38 135.677H24.0295L30.5671 129.733Z" fill="#6B5008"/>
<path opacity="0.45" d="M30.5671 129.733L25.6017 135.1L32.3825 135.672H24.0295L30.5671 129.733Z" fill="#302400"/>
<path d="M37.3564 152.233L42.5886 135.676H50.6829L37.3564 152.233Z" fill="url(#paint14_linear_3281_313698)"/>
<path d="M37.3569 152.233L24.0295 135.676H32.3588L37.3569 152.233Z" fill="url(#paint15_linear_3281_313698)"/>
<path opacity="0.6" d="M35.2914 145.29L32.3542 135.688L36.8595 130.322L32.9433 135.452L39.9827 135.688L32.9433 135.946L35.2914 145.29Z" fill="#F0CFB0"/>
<path d="M40.6183 140.795L42.5658 135.664L39.0461 146.82L40.6183 140.795Z" fill="#E3D097"/>
<path d="M113.297 61.1078L99.9697 44.5508H126.624L113.297 61.1078Z" fill="#C4C4C4"/>
<path d="M106.507 38.6076H120.086L126.624 44.5508L113.297 61.1078L99.9697 44.5508L106.507 38.6076Z" fill="#FFD646"/>
<path d="M106.507 38.6076H120.086L126.624 44.5508H99.9697L106.507 38.6076Z" fill="#FFCC09"/>
<path d="M120.086 38.6076H113.297L118.505 44.5508H126.623L120.086 38.6076Z" fill="#F0CFB0"/>
<path d="M106.507 38.6076H113.297L108.32 44.5508H99.9697L106.507 38.6076Z" fill="#6B5008"/>
<path opacity="0.45" d="M106.507 38.6076L101.542 43.9738L108.323 44.5467H99.9697L106.507 38.6076Z" fill="#302400"/>
<path d="M113.297 61.1078L118.529 44.5508H126.623L113.297 61.1078Z" fill="url(#paint16_linear_3281_313698)"/>
<path d="M113.297 61.1078L99.9697 44.5508H108.299L113.297 61.1078Z" fill="url(#paint17_linear_3281_313698)"/>
<path opacity="0.6" d="M111.232 54.1642L108.294 44.562L112.8 39.1957L108.883 44.3263L115.923 44.562L108.883 44.8206L111.232 54.1642Z" fill="#F0CFB0"/>
<path d="M116.559 49.669L118.506 44.5385L114.986 55.694L116.559 49.669Z" fill="#E3D097"/>
<path d="M73.2094 61.1078L59.8821 44.5508H86.5359L73.2094 61.1078Z" fill="#C4C4C4"/>
<path d="M66.4197 38.6076H79.9983L86.5359 44.5508L73.2094 61.1077L59.8821 44.5508L66.4197 38.6076Z" fill="#FFD646"/>
<path d="M66.4197 38.6076H79.9983L86.5359 44.5508H59.8821L66.4197 38.6076Z" fill="#FFCC09"/>
<path d="M79.9979 38.6076H73.209L78.4175 44.5508H86.5355L79.9979 38.6076Z" fill="#F0CFB0"/>
<path d="M66.4197 38.6076H73.2094L68.2326 44.5508H59.8821L66.4197 38.6076Z" fill="#6B5008"/>
<path opacity="0.45" d="M66.4197 38.6076L61.4543 43.9738L68.235 44.5467H59.8821L66.4197 38.6076Z" fill="#302400"/>
<path d="M73.209 61.1078L78.4412 44.5508H86.5355L73.209 61.1078Z" fill="url(#paint18_linear_3281_313698)"/>
<path d="M73.2094 61.1078L59.8821 44.5508H68.2113L73.2094 61.1078Z" fill="url(#paint19_linear_3281_313698)"/>
<path opacity="0.6" d="M71.1439 54.1642L68.2068 44.562L72.712 39.1958L68.7958 44.3263L75.8352 44.562L68.7958 44.8206L71.1439 54.1642Z" fill="#F0CFB0"/>
<path d="M76.4709 49.669L78.4184 44.5385L74.8987 55.694L76.4709 49.669Z" fill="#E3D097"/>
<path d="M113.297 152.233L99.9697 135.677H126.624L113.297 152.233Z" fill="#C4C4C4"/>
<path d="M106.507 129.733H120.086L126.624 135.677L113.297 152.233L99.9697 135.677L106.507 129.733Z" fill="#FFD646"/>
<path d="M106.507 129.733H120.086L126.624 135.677H99.9697L106.507 129.733Z" fill="#FFCC09"/>
<path d="M120.086 129.733H113.297L118.505 135.677H126.623L120.086 129.733Z" fill="#F0CFB0"/>
<path d="M106.507 129.733H113.297L108.32 135.677H99.9697L106.507 129.733Z" fill="#6B5008"/>
<path opacity="0.45" d="M106.507 129.733L101.542 135.1L108.323 135.672H99.9697L106.507 129.733Z" fill="#302400"/>
<path d="M113.297 152.233L118.529 135.677H126.623L113.297 152.233Z" fill="url(#paint20_linear_3281_313698)"/>
<path d="M113.297 152.233L99.9697 135.677H108.299L113.297 152.233Z" fill="url(#paint21_linear_3281_313698)"/>
<path opacity="0.6" d="M111.232 145.29L108.294 135.688L112.8 130.322L108.883 135.452L115.923 135.688L108.883 135.946L111.232 145.29Z" fill="#F0CFB0"/>
<path d="M116.559 140.795L118.506 135.664L114.986 146.82L116.559 140.795Z" fill="#E3D097"/>
<path d="M34.2305 136.4L34.2162 136.689C34.1357 138.314 35.1401 139.797 36.6793 140.324L36.9532 140.418L36.664 140.403C35.039 140.323 33.5568 141.327 33.0294 142.867L32.9356 143.14L32.9499 142.851C33.0304 141.226 32.026 139.744 30.4868 139.217L30.2129 139.123L30.5021 139.137C32.1271 139.218 33.6093 138.213 34.1367 136.674L34.2305 136.4Z" fill="white" fill-opacity="0.84"/>
<ellipse opacity="0.2" cx="33.5823" cy="139.77" rx="1.65712" ry="1.65712" transform="rotate(10.8751 33.5823 139.77)" fill="white"/>
<path d="M149.735 91.1149L149.721 91.4041C149.64 93.0291 150.645 94.5113 152.184 95.0386L152.458 95.1325L152.169 95.1182C150.544 95.0376 149.061 96.0421 148.534 97.5812L148.44 97.8552L148.455 97.566C148.535 95.941 147.531 94.4588 145.991 93.9314L145.718 93.8376L146.007 93.8519C147.632 93.9324 149.114 92.928 149.641 91.3888L149.735 91.1149Z" fill="white" fill-opacity="0.84"/>
<ellipse opacity="0.2" rx="1.65712" ry="1.65712" transform="matrix(0.98204 0.188669 -0.18867 0.982041 149.087 94.4849)" fill="white"/>
<path d="M110.169 45.2741L110.155 45.5633C110.075 47.1883 111.079 48.6705 112.618 49.1978L112.892 49.2917L112.603 49.2774C110.978 49.1969 109.496 50.2013 108.968 51.7404L108.875 52.0144L108.889 51.7252C108.969 50.1002 107.965 48.618 106.426 48.0906L106.152 47.9968L106.441 48.0111C108.066 48.0916 109.548 47.0872 110.076 45.548L110.169 45.2741Z" fill="white" fill-opacity="0.84"/>
<ellipse opacity="0.2" rx="1.65711" ry="1.65712" transform="matrix(0.98204 0.18867 -0.188669 0.982041 109.522 48.6441)" fill="white"/>
<path d="M110.169 136.4L110.155 136.689C110.075 138.314 111.079 139.797 112.618 140.324L112.892 140.418L112.603 140.403C110.978 140.323 109.496 141.327 108.968 142.867L108.875 143.14L108.889 142.851C108.969 141.226 107.965 139.744 106.426 139.217L106.152 139.123L106.441 139.137C108.066 139.218 109.548 138.213 110.076 136.674L110.169 136.4Z" fill="white" fill-opacity="0.84"/>
<ellipse opacity="0.2" rx="1.65711" ry="1.65712" transform="matrix(0.982041 0.18867 -0.188668 0.982041 109.522 139.77)" fill="white"/>
<path d="M77.2627 26.0984L72.9281 34.879C71.4483 37.8767 72.1307 41.4917 74.6013 43.7437L81.8382 50.3403L73.0576 46.0057C70.06 44.5259 66.4449 45.2082 64.1929 47.6789L57.5964 54.9158L61.9309 46.1352C63.4107 43.1376 62.7284 39.5225 60.2578 37.2705L53.0209 30.674L61.8014 35.0085C64.7991 36.4883 68.4142 35.806 70.6662 33.3353L77.2627 26.0984Z" fill="white"/>
<ellipse opacity="0.2" cx="67.4289" cy="40.5072" rx="8.42329" ry="8.42329" transform="rotate(34.3114 67.4289 40.5072)" fill="white"/>
<path fill-rule="evenodd" clip-rule="evenodd" d="M107.364 57.2732L32.0596 97.4002C33.6764 96.5743 35.4479 96.0955 37.2607 95.9946C39.0734 95.8937 40.8873 96.1728 42.5858 96.8141L117.882 56.6952C116.185 56.0539 114.373 55.774 112.562 55.8735C110.751 55.9731 108.98 56.4498 107.364 57.2732ZM49.2849 129.733L124.576 89.6093C128.223 87.6718 130.828 83.8374 131.406 78.7574C132.456 69.5092 126.399 59.626 117.884 56.6953L42.5876 96.8141C51.1031 99.753 54.5189 109.927 53.4606 119.176C53.3995 119.712 53.3453 120.231 53.293 120.733C52.8494 124.984 52.5346 128 49.2849 129.733Z" fill="url(#paint22_linear_3281_313698)"/>
<path d="M49.2555 129.696C56.4059 125.887 58.346 115.56 53.5889 106.632C48.8318 97.7042 39.1788 93.5552 32.0285 97.3651C24.8781 101.175 22.938 111.501 27.6951 120.429C32.4522 129.357 42.1052 133.506 49.2555 129.696Z" fill="url(#paint23_linear_3281_313698)"/>
<path fill-rule="evenodd" clip-rule="evenodd" d="M136.672 75.9977L61.3677 116.125C62.9845 115.299 64.756 114.82 66.5688 114.719C68.3811 114.618 70.1946 114.897 71.8928 115.538L71.8921 115.538C80.4076 118.477 84.5626 129.319 83.5043 138.567C82.9267 143.644 82.224 146.519 78.5917 148.457L153.88 108.334C157.527 106.396 160.132 102.562 160.71 97.4817C161.761 88.234 155.704 78.3513 147.189 75.42L147.19 75.4197C145.493 74.7784 143.681 74.4985 141.87 74.598C140.059 74.6976 138.288 75.1743 136.672 75.9977Z" fill="url(#paint24_linear_3281_313698)"/>
<path d="M78.5636 148.421C85.714 144.611 87.6541 134.285 82.897 125.357C78.1399 116.429 68.4869 112.28 61.3366 116.09C54.1862 119.9 52.2461 130.226 57.0032 139.154C61.7603 148.082 71.4133 152.231 78.5636 148.421Z" fill="url(#paint25_linear_3281_313698)"/>
<path fill-rule="evenodd" clip-rule="evenodd" d="M129.092 40.8334L53.7881 80.9604C55.4049 80.1345 57.1765 79.6557 58.9892 79.5548C60.8015 79.4539 62.6149 79.7328 64.3131 80.3738L64.3121 80.3743C72.8276 83.3132 77.5982 93.9498 76.5399 103.198C75.9623 108.274 74.645 111.354 71.0121 113.292L146.3 73.1695C149.947 71.2319 152.552 67.3975 153.13 62.3175C154.181 53.0699 148.124 43.1872 139.61 40.2559L139.61 40.2554C137.914 39.6141 136.102 39.3342 134.29 39.4337C132.479 39.5333 130.709 40.01 129.092 40.8334Z" fill="url(#paint26_linear_3281_313698)"/>
<path d="M70.984 113.257C78.1344 109.447 80.0745 99.1205 75.3174 90.1925C70.5603 81.2644 60.9073 77.1154 53.757 80.9253C46.6066 84.7352 44.6665 95.0614 49.4236 103.989C54.1807 112.917 63.8337 117.067 70.984 113.257Z" fill="url(#paint27_linear_3281_313698)"/>
<path d="M85.8179 88.0438C87.2506 85.9745 90.1132 80.8132 90.1132 80.8132L153.552 81.2506L154.853 88.0438L152.382 95.4281C152.382 95.4281 102.411 123.542 100.288 124.234C98.1657 124.925 95.3711 124.29 94.7612 122.027C94.1512 119.764 85.8189 94.2519 85.8189 94.2519C85.8189 94.2519 84.3852 90.1132 85.8179 88.0438Z" fill="url(#paint28_linear_3281_313698)"/>
<rect width="62.8784" height="40.2704" rx="4.14221" transform="matrix(0.878817 -0.477159 0.309017 0.951056 88.4048 80.7985)" fill="url(#paint29_linear_3281_313698)"/>
<path d="M125.089 79.06C124.969 78.6889 125.149 78.2371 125.492 78.0509L129.217 76.0282C129.56 75.8421 129.936 75.992 130.056 76.3631L131.366 80.3946C131.487 80.7657 131.307 81.2174 130.964 81.4036L127.239 83.4263C126.896 83.6125 126.52 83.4626 126.399 83.0915L125.089 79.06Z" fill="#9A0A24"/>
<path d="M131.92 75.3516C131.799 74.9805 131.98 74.5288 132.323 74.3426L136.048 72.3199C136.391 72.1338 136.766 72.2837 136.887 72.6547L138.197 76.6863C138.318 77.0574 138.137 77.5091 137.794 77.6953L134.069 79.718C133.726 79.9041 133.35 79.7542 133.23 79.3832L131.92 75.3516Z" fill="#9A0A24"/>
<path d="M138.75 71.6434C138.63 71.2724 138.81 70.8206 139.153 70.6344L142.878 68.6117C143.221 68.4256 143.597 68.5755 143.717 68.9466L145.027 72.9781C145.148 73.3492 144.968 73.8009 144.625 73.9871L140.899 76.0098C140.557 76.196 140.181 76.0461 140.06 75.675L138.75 71.6434Z" fill="#9A0A24"/>
<path d="M122.906 72.3406C122.785 71.9695 122.966 71.5178 123.309 71.3316L127.034 69.3089C127.377 69.1227 127.753 69.2726 127.873 69.6437L129.183 73.6752C129.304 74.0463 129.123 74.4981 128.78 74.6843L125.055 76.7069C124.712 76.8931 124.337 76.7432 124.216 76.3721L122.906 72.3406Z" fill="#9A0A24"/>
<path d="M129.737 68.6324C129.617 68.2613 129.797 67.8096 130.14 67.6234L133.865 65.6007C134.208 65.4145 134.584 65.5644 134.704 65.9355L136.014 69.9671C136.135 70.3381 135.955 70.7899 135.612 70.9761L131.886 72.9988C131.544 73.1849 131.168 73.035 131.047 72.664L129.737 68.6324Z" fill="#9A0A24"/>
<path d="M136.568 64.9243C136.447 64.5532 136.628 64.1015 136.97 63.9153L140.696 61.8926C141.039 61.7064 141.414 61.8563 141.535 62.2274L142.845 66.259C142.965 66.63 142.785 67.0818 142.442 67.268L138.717 69.2907C138.374 69.4768 137.998 69.3269 137.878 68.9559L136.568 64.9243Z" fill="#9A0A24"/>
<path d="M127.274 85.7791C127.153 85.408 127.333 84.9562 127.676 84.77L131.402 82.7474C131.745 82.5612 132.12 82.7111 132.241 83.0822L133.551 87.1137C133.671 87.4848 133.491 87.9365 133.148 88.1227L129.423 90.1454C129.08 90.3316 128.704 90.1817 128.584 89.8106L127.274 85.7791Z" fill="#9A0A24"/>
<path d="M134.104 82.0709C133.984 81.6998 134.164 81.248 134.507 81.0618L138.232 79.0392C138.575 78.853 138.951 79.0029 139.071 79.374L140.381 83.4055C140.502 83.7766 140.322 84.2283 139.979 84.4145L136.253 86.4372C135.911 86.6234 135.535 86.4735 135.414 86.1024L134.104 82.0709Z" fill="#9A0A24"/>
<path d="M140.933 78.3627C140.812 77.9916 140.993 77.5398 141.335 77.3537L145.061 75.331C145.404 75.1448 145.779 75.2947 145.9 75.6658L147.21 79.6973C147.33 80.0684 147.15 80.5202 146.807 80.7063L143.082 82.729C142.739 82.9152 142.363 82.7653 142.243 82.3942L140.933 78.3627Z" fill="#9A0A24"/>
<rect width="31.0859" height="19.782" rx="2.07111" transform="matrix(0.878817 -0.477159 0.309017 0.951056 94.1292 87.1759)" fill="#606FF4"/>
<rect width="31.7924" height="4.94549" rx="2.07111" transform="matrix(0.878817 -0.477159 0.309017 0.951056 100.897 108.005)" fill="#9A0A24"/>
<rect width="21.195" height="4.94549" rx="2.07111" transform="matrix(0.878817 -0.477159 0.309017 0.951056 129.458 92.4984)" fill="#9A0A24"/>
<rect opacity="0.56" width="2.1195" height="14.13" rx="1.03555" transform="matrix(0.878817 -0.477159 0.309017 0.951056 105.557 84.1327)" fill="#05F0FF"/>
<rect opacity="0.56" width="2.1195" height="14.13" rx="1.03555" transform="matrix(0.878817 -0.477159 0.309017 0.951056 97.4858 88.5152)" fill="#05F0FF"/>
<rect opacity="0.56" width="2.1195" height="14.13" rx="1.03555" transform="matrix(0.878817 -0.477159 0.309017 0.951056 113.628 79.7503)" fill="#05F0FF"/>
<rect opacity="0.56" width="2.1195" height="14.13" rx="1.03555" transform="matrix(0.878817 -0.477159 0.309017 0.951056 109.904 81.773)" fill="#05F0FF"/>
<rect opacity="0.56" width="2.11949" height="14.13" rx="1.03555" transform="matrix(0.878817 -0.47716 0.309017 0.951057 101.833 86.1554)" fill="#05F0FF"/>
<rect opacity="0.56" width="2.1195" height="14.13" rx="1.03555" transform="matrix(0.878817 -0.477158 0.309017 0.951056 117.975 77.3905)" fill="#05F0FF"/>
<rect opacity="0.56" width="2.1195" height="7.06498" rx="1.03555" transform="matrix(-0.309016 -0.951057 0.878817 -0.47716 109.924 97.5711)" fill="#05F0FF"/>
<rect opacity="0.56" width="2.11949" height="7.06498" rx="1.03555" transform="matrix(-0.309017 -0.951056 0.878817 -0.477158 101.851 101.954)" fill="#05F0FF"/>
<rect opacity="0.56" width="2.1195" height="7.065" rx="1.03555" transform="matrix(-0.309018 -0.951056 0.878817 -0.477158 117.995 93.1887)" fill="#05F0FF"/>
<rect opacity="0.56" width="2.11949" height="7.06498" rx="1.03555" transform="matrix(-0.309017 -0.951057 0.878817 -0.477159 107.958 91.5239)" fill="#05F0FF"/>
<rect opacity="0.56" width="2.1195" height="7.06499" rx="1.03555" transform="matrix(-0.309017 -0.951057 0.878817 -0.477159 99.8867 95.9064)" fill="#05F0FF"/>
<rect opacity="0.56" width="2.11949" height="7.06498" rx="1.03555" transform="matrix(-0.309017 -0.951056 0.878817 -0.477158 116.029 87.1414)" fill="#05F0FF"/>
<rect opacity="0.56" width="2.1195" height="7.06499" rx="1.03555" transform="matrix(-0.309017 -0.951057 0.878817 -0.477159 106.212 86.1486)" fill="#05F0FF"/>
<rect opacity="0.56" width="2.1195" height="7.06498" rx="1.03555" transform="matrix(-0.309017 -0.951057 0.878817 -0.477159 98.1406 90.5309)" fill="#05F0FF"/>
<rect opacity="0.56" width="2.1195" height="7.065" rx="1.03555" transform="matrix(-0.309017 -0.951057 0.878817 -0.477159 114.285 81.766)" fill="#05F0FF"/>
<ellipse rx="1.413" ry="1.413" transform="matrix(0.878817 -0.477158 0.309018 0.951056 95.1184 83.4769)" fill="#FF2300"/>
<ellipse rx="1.41299" ry="1.413" transform="matrix(0.878817 -0.47716 0.309016 0.951057 98.8427 81.4543)" fill="#FF2300"/>
<ellipse rx="1.413" ry="1.41299" transform="matrix(0.878818 -0.477156 0.309019 0.951056 119.332 70.3296)" fill="#FF2300"/>
<path d="M59.8433 98.3611C52.2241 100.96 49.9973 89.4026 57.5259 88.4615C65.0544 87.5205 71.6748 104.187 88.7699 95.8019" stroke="url(#paint30_linear_3281_313698)" stroke-width="4.14221" stroke-linecap="round"/>
<path d="M39.5266 110.856C28.1671 119.488 49.0678 131.755 55.8818 113.582C62.6958 95.4085 86.5044 115.108 94.3374 113.077" stroke="url(#paint31_linear_3281_313698)" stroke-width="4.14221" stroke-linecap="round"/>
<path d="M68.469 131.587C60.8795 137.207 53.1554 124.94 74.7363 115.533C96.3171 106.125 79.5062 104.95 91.3187 100.406" stroke="url(#paint32_linear_3281_313698)" stroke-width="4.14221" stroke-linecap="round"/>
<path d="M119.774 72.0844L117.684 76.3171C116.971 77.7621 117.3 79.5047 118.491 80.5903L121.979 83.7701L117.747 81.6807C116.302 80.9673 114.559 81.2962 113.474 82.4872L110.294 85.9757L112.383 81.7431C113.096 80.2981 112.768 78.5555 111.577 77.4699L108.088 74.2901L112.321 76.3795C113.766 77.0928 115.508 76.7639 116.594 75.573L119.774 72.0844Z" fill="white"/>
<circle opacity="0.2" cx="115.033" cy="79.03" r="4.06041" transform="rotate(34.3114 115.033 79.03)" fill="white"/>
</g>
<defs>
<linearGradient id="paint0_linear_3281_313698" x1="22.7164" y1="174.462" x2="180.368" y2="10.9038" gradientUnits="userSpaceOnUse">
<stop stop-color="#2C5AFB"/>
<stop offset="1" stop-color="#8875FF"/>
</linearGradient>
<radialGradient id="paint1_radial_3281_313698" cx="0" cy="0" r="1" gradientUnits="userSpaceOnUse" gradientTransform="translate(-15.4471 137.207) rotate(90) scale(220.803)">
<stop stop-color="#21CAFF"/>
<stop offset="1" stop-color="#1D1E25" stop-opacity="0"/>
</radialGradient>
<linearGradient id="paint2_linear_3281_313698" x1="36.346" y1="30.8943" x2="36.346" y2="69.0577" gradientUnits="userSpaceOnUse">
<stop stop-color="white" stop-opacity="0"/>
<stop offset="1" stop-color="white" stop-opacity="0.59"/>
</linearGradient>
<linearGradient id="paint3_linear_3281_313698" x1="36.346" y1="75.4183" x2="36.346" y2="113.582" gradientUnits="userSpaceOnUse">
<stop stop-color="white" stop-opacity="0"/>
<stop offset="1" stop-color="white" stop-opacity="0.59"/>
</linearGradient>
<linearGradient id="paint4_linear_3281_313698" x1="36.346" y1="119.942" x2="36.346" y2="158.106" gradientUnits="userSpaceOnUse">
<stop stop-color="white" stop-opacity="0"/>
<stop offset="1" stop-color="white" stop-opacity="0.59"/>
</linearGradient>
<linearGradient id="paint5_linear_3281_313698" x1="75.418" y1="30.8943" x2="75.418" y2="69.0577" gradientUnits="userSpaceOnUse">
<stop stop-color="white" stop-opacity="0"/>
<stop offset="1" stop-color="white" stop-opacity="0.59"/>
</linearGradient>
<linearGradient id="paint6_linear_3281_313698" x1="75.418" y1="75.4183" x2="75.418" y2="113.582" gradientUnits="userSpaceOnUse">
<stop stop-color="white" stop-opacity="0"/>
<stop offset="1" stop-color="white" stop-opacity="0.59"/>
</linearGradient>
<linearGradient id="paint7_linear_3281_313698" x1="75.418" y1="119.942" x2="75.418" y2="158.106" gradientUnits="userSpaceOnUse">
<stop stop-color="white" stop-opacity="0"/>
<stop offset="1" stop-color="white" stop-opacity="0.59"/>
</linearGradient>
<linearGradient id="paint8_linear_3281_313698" x1="114.49" y1="30.8943" x2="114.49" y2="69.0577" gradientUnits="userSpaceOnUse">
<stop stop-color="white" stop-opacity="0"/>
<stop offset="1" stop-color="white" stop-opacity="0.59"/>
</linearGradient>
<linearGradient id="paint9_linear_3281_313698" x1="114.49" y1="75.4183" x2="114.49" y2="113.582" gradientUnits="userSpaceOnUse">
<stop stop-color="white" stop-opacity="0"/>
<stop offset="1" stop-color="white" stop-opacity="0.59"/>
</linearGradient>
<linearGradient id="paint10_linear_3281_313698" x1="114.49" y1="119.942" x2="114.49" y2="158.106" gradientUnits="userSpaceOnUse">
<stop stop-color="white" stop-opacity="0"/>
<stop offset="1" stop-color="white" stop-opacity="0.59"/>
</linearGradient>
<linearGradient id="paint11_linear_3281_313698" x1="153.562" y1="30.8943" x2="153.562" y2="69.0577" gradientUnits="userSpaceOnUse">
<stop stop-color="white" stop-opacity="0"/>
<stop offset="1" stop-color="white" stop-opacity="0.59"/>
</linearGradient>
<linearGradient id="paint12_linear_3281_313698" x1="153.562" y1="75.4183" x2="153.562" y2="113.582" gradientUnits="userSpaceOnUse">
<stop stop-color="white" stop-opacity="0"/>
<stop offset="1" stop-color="white" stop-opacity="0.59"/>
</linearGradient>
<linearGradient id="paint13_linear_3281_313698" x1="153.562" y1="119.942" x2="153.562" y2="158.106" gradientUnits="userSpaceOnUse">
<stop stop-color="white" stop-opacity="0"/>
<stop offset="1" stop-color="white" stop-opacity="0.59"/>
</linearGradient>
<linearGradient id="paint14_linear_3281_313698" x1="44.0197" y1="135.676" x2="44.0197" y2="152.233" gradientUnits="userSpaceOnUse">
<stop stop-color="#FFC700"/>
<stop offset="1" stop-color="#DFB51F"/>
</linearGradient>
<linearGradient id="paint15_linear_3281_313698" x1="30.6928" y1="135.676" x2="30.6928" y2="152.233" gradientUnits="userSpaceOnUse">
<stop stop-color="#6C5411"/>
<stop offset="1" stop-color="#483500"/>
</linearGradient>
<linearGradient id="paint16_linear_3281_313698" x1="119.96" y1="44.5508" x2="119.96" y2="61.1078" gradientUnits="userSpaceOnUse">
<stop stop-color="#FFC700"/>
<stop offset="1" stop-color="#DFB51F"/>
</linearGradient>
<linearGradient id="paint17_linear_3281_313698" x1="106.633" y1="44.5508" x2="106.633" y2="61.1078" gradientUnits="userSpaceOnUse">
<stop stop-color="#6C5411"/>
<stop offset="1" stop-color="#483500"/>
</linearGradient>
<linearGradient id="paint18_linear_3281_313698" x1="79.8722" y1="44.5508" x2="79.8722" y2="61.1078" gradientUnits="userSpaceOnUse">
<stop stop-color="#FFC700"/>
<stop offset="1" stop-color="#DFB51F"/>
</linearGradient>
<linearGradient id="paint19_linear_3281_313698" x1="66.5453" y1="44.5508" x2="66.5453" y2="61.1078" gradientUnits="userSpaceOnUse">
<stop stop-color="#6C5411"/>
<stop offset="1" stop-color="#483500"/>
</linearGradient>
<linearGradient id="paint20_linear_3281_313698" x1="119.96" y1="135.677" x2="119.96" y2="152.233" gradientUnits="userSpaceOnUse">
<stop stop-color="#FFC700"/>
<stop offset="1" stop-color="#DFB51F"/>
</linearGradient>
<linearGradient id="paint21_linear_3281_313698" x1="106.633" y1="135.677" x2="106.633" y2="152.233" gradientUnits="userSpaceOnUse">
<stop stop-color="#6C5411"/>
<stop offset="1" stop-color="#483500"/>
</linearGradient>
<linearGradient id="paint22_linear_3281_313698" x1="107.495" y1="101.668" x2="71.0366" y2="70.2226" gradientUnits="userSpaceOnUse">
<stop stop-color="#0F0E4A"/>
<stop offset="1" stop-color="#FF3D00"/>
</linearGradient>
<linearGradient id="paint23_linear_3281_313698" x1="53.0134" y1="118.396" x2="26.071" y2="111.771" gradientUnits="userSpaceOnUse">
<stop stop-color="#4A0E0E"/>
<stop offset="1"/>
</linearGradient>
<linearGradient id="paint24_linear_3281_313698" x1="136.8" y1="120.391" x2="100.343" y2="88.9475" gradientUnits="userSpaceOnUse">
<stop stop-color="#0F0E4A"/>
<stop offset="1" stop-color="#FF3D00"/>
</linearGradient>
<linearGradient id="paint25_linear_3281_313698" x1="82.3215" y1="137.121" x2="55.3791" y2="130.496" gradientUnits="userSpaceOnUse">
<stop stop-color="#4A0E0E"/>
<stop offset="1"/>
</linearGradient>
<linearGradient id="paint26_linear_3281_313698" x1="129.22" y1="85.227" x2="92.7629" y2="53.7833" gradientUnits="userSpaceOnUse">
<stop stop-color="#0F0E4A"/>
<stop offset="1" stop-color="#FF3D00"/>
</linearGradient>
<linearGradient id="paint27_linear_3281_313698" x1="74.7419" y1="101.956" x2="47.7996" y2="95.3312" gradientUnits="userSpaceOnUse">
<stop stop-color="#4A0E0E"/>
<stop offset="1"/>
</linearGradient>
<linearGradient id="paint28_linear_3281_313698" x1="120.017" y1="80.8132" x2="129.14" y2="122.482" gradientUnits="userSpaceOnUse">
<stop stop-color="#D17F03"/>
<stop offset="1" stop-color="#071B38"/>
</linearGradient>
<linearGradient id="paint29_linear_3281_313698" x1="31.4392" y1="0" x2="31.4392" y2="40.2704" gradientUnits="userSpaceOnUse">
<stop stop-color="#FFCB00"/>
<stop offset="1" stop-color="#FF9900"/>
</linearGradient>
<linearGradient id="paint30_linear_3281_313698" x1="83.3744" y1="88.423" x2="58.9541" y2="96.0391" gradientUnits="userSpaceOnUse">
<stop stop-color="#00F0FF"/>
<stop offset="1" stop-color="#0066FF"/>
</linearGradient>
<linearGradient id="paint31_linear_3281_313698" x1="86.0105" y1="106.353" x2="48.494" y2="118.362" gradientUnits="userSpaceOnUse">
<stop stop-color="#00F0FF"/>
<stop offset="1" stop-color="#0066FF"/>
</linearGradient>
<linearGradient id="paint32_linear_3281_313698" x1="88.6805" y1="106.187" x2="71.0447" y2="107.668" gradientUnits="userSpaceOnUse">
<stop stop-color="#00F0FF"/>
<stop offset="1" stop-color="#0066FF"/>
</linearGradient>
<clipPath id="clip0_3281_313698">
<path d="M0 22C0 9.84973 9.84974 0 22 0H167C179.15 0 189 9.84974 189 22V167C189 179.15 179.15 189 167 189H22C9.84973 189 0 179.15 0 167V22Z" fill="white"/>
</clipPath>
</defs>
</svg>
