<svg width="640" height="245" viewBox="0 0 640 245" fill="none" xmlns="http://www.w3.org/2000/svg">
<g clip-path="url(#clip0_3815_331612)">
<path d="M31.743 53.2102C29.8437 62.6252 20.5371 66.2357 20.5371 66.2357H29.5842H33.9018H42.9489C42.9489 66.2357 33.6424 62.6252 31.743 53.2102Z" fill="#16704B"/>
<ellipse cx="46.6838" cy="40.0881" rx="16.8088" ry="16.8088" fill="#16704B"/>
<circle cx="31.7424" cy="15.8088" r="16.8088" fill="#16704B"/>
<circle cx="16.801" cy="40.0881" r="16.8088" fill="#16704B"/>
</g>
<path d="M97.5589 33.8836C96.8295 33.1543 96.8295 31.9717 97.5589 31.2424L126.613 2.18854C127.342 1.45918 128.525 1.45918 129.254 2.18854L158.308 31.2424C159.037 31.9717 159.037 33.1543 158.308 33.8836L129.254 62.9374C128.525 63.6668 127.342 63.6668 126.613 62.9374L97.5589 33.8836Z" fill="#16704B"/>
<g clip-path="url(#clip1_3815_331612)">
<path d="M224.235 19.7584C224.235 10.4751 216.709 2.9495 207.426 2.9495C198.143 2.9495 190.617 10.4751 190.617 19.7584C190.617 23.7073 191.979 27.3382 194.259 30.2071L224.235 62.4619V41.1101V19.7584Z" fill="#16704B"/>
<path d="M224.235 19.7584C224.235 10.4751 231.76 2.9495 241.044 2.9495C250.327 2.9495 257.853 10.4751 257.853 19.7584C257.853 23.7073 256.491 27.3382 254.211 30.2071L224.235 62.4619V41.1101V19.7584Z" fill="#16704B"/>
</g>
<g clip-path="url(#clip2_3815_331612)">
<path d="M320.479 39.3311C320.479 48.0986 313.371 55.2061 304.604 55.2061C295.836 55.2061 288.729 48.0986 288.729 39.3311C288.729 35.6015 290.015 32.1723 292.168 29.4628L320.479 -1V19.1655V39.3311Z" fill="#16704B"/>
<path d="M320.479 39.3311C320.479 48.0986 327.586 55.2061 336.354 55.2061C345.121 55.2061 352.229 48.0986 352.229 39.3311C352.229 35.6015 350.942 32.1723 348.789 29.4628L320.479 -1V19.1655V39.3311Z" fill="#16704B"/>
<path d="M320.481 53.2102C318.582 62.6252 309.275 66.2357 309.275 66.2357H318.322H322.64H331.687C331.687 66.2357 322.381 62.6252 320.481 53.2102Z" fill="#16704B"/>
</g>
<g clip-path="url(#clip3_3815_331612)">
<path d="M416.727 53.2102C414.828 62.6252 405.521 66.2357 405.521 66.2357H414.569H418.886H427.933C427.933 66.2357 418.627 62.6252 416.727 53.2102Z" fill="#16704B"/>
<ellipse cx="431.668" cy="40.0881" rx="16.8088" ry="16.8088" fill="#16704B"/>
<circle cx="416.727" cy="15.8088" r="16.8088" fill="#16704B"/>
<circle cx="401.785" cy="40.0881" r="16.8088" fill="#16704B"/>
</g>
<path d="M482.543 33.8836C481.814 33.1543 481.814 31.9717 482.543 31.2424L511.597 2.18854C512.326 1.45918 513.509 1.45918 514.238 2.18854L543.292 31.2424C544.022 31.9717 544.022 33.1543 543.292 33.8836L514.238 62.9374C513.509 63.6668 512.326 63.6668 511.597 62.9374L482.543 33.8836Z" fill="#16704B"/>
<g clip-path="url(#clip4_3815_331612)">
<path d="M609.219 19.7584C609.219 10.4751 601.694 2.9495 592.41 2.9495C583.127 2.9495 575.602 10.4751 575.602 19.7584C575.602 23.7073 576.963 27.3382 579.243 30.2071L609.219 62.4619V41.1101V19.7584Z" fill="#16704B"/>
<path d="M609.219 19.7584C609.219 10.4751 616.745 2.9495 626.028 2.9495C635.311 2.9495 642.837 10.4751 642.837 19.7584C642.837 23.7073 641.475 27.3382 639.196 30.2071L609.219 62.4619V41.1101V19.7584Z" fill="#16704B"/>
</g>
<g clip-path="url(#clip5_3815_331612)">
<ellipse cx="-1.44115" cy="129.088" rx="16.8088" ry="16.8088" fill="#16704B"/>
<circle cx="-16.3826" cy="104.809" r="16.8088" fill="#16704B"/>
</g>
<path d="M49.4339 122.884C48.7045 122.154 48.7045 120.972 49.4339 120.242L78.4877 91.1885C79.2171 90.4592 80.3996 90.4592 81.129 91.1885L110.183 120.242C110.912 120.972 110.912 122.154 110.183 122.884L81.129 151.937C80.3996 152.667 79.2171 152.667 78.4877 151.937L49.4339 122.884Z" fill="#16704B"/>
<g clip-path="url(#clip6_3815_331612)">
<path d="M176.11 108.758C176.11 99.4751 168.584 91.9495 159.301 91.9495C150.018 91.9495 142.492 99.4751 142.492 108.758C142.492 112.707 143.854 116.338 146.134 119.207L176.11 151.462V130.11V108.758Z" fill="#16704B"/>
<path d="M176.11 108.758C176.11 99.4751 183.635 91.9495 192.919 91.9495C202.202 91.9495 209.728 99.4751 209.728 108.758C209.728 112.707 208.366 116.338 206.086 119.207L176.11 151.462V130.11V108.758Z" fill="#16704B"/>
</g>
<g clip-path="url(#clip7_3815_331612)">
<path d="M272.354 128.331C272.354 137.099 265.246 144.206 256.479 144.206C247.711 144.206 240.604 137.099 240.604 128.331C240.604 124.602 241.89 121.172 244.043 118.463L272.354 88V108.166V128.331Z" fill="#16704B"/>
<path d="M272.354 128.331C272.354 137.099 279.461 144.206 288.229 144.206C296.996 144.206 304.104 137.099 304.104 128.331C304.104 124.602 302.817 121.172 300.664 118.463L272.354 88V108.166V128.331Z" fill="#16704B"/>
<path d="M272.356 142.21C270.457 151.625 261.15 155.236 261.15 155.236H270.197H274.515H283.562C283.562 155.236 274.256 151.625 272.356 142.21Z" fill="#16704B"/>
</g>
<g clip-path="url(#clip8_3815_331612)">
<path d="M368.602 142.21C366.703 151.625 357.396 155.236 357.396 155.236H366.444H370.761H379.808C379.808 155.236 370.502 151.625 368.602 142.21Z" fill="#16704B"/>
<ellipse cx="383.543" cy="129.088" rx="16.8088" ry="16.8088" fill="#16704B"/>
<circle cx="368.602" cy="104.809" r="16.8088" fill="#16704B"/>
<circle cx="353.66" cy="129.088" r="16.8088" fill="#16704B"/>
</g>
<path d="M434.418 122.884C433.689 122.154 433.689 120.972 434.418 120.242L463.472 91.1885C464.201 90.4592 465.384 90.4592 466.113 91.1885L495.167 120.242C495.897 120.972 495.897 122.154 495.167 122.884L466.113 151.937C465.384 152.667 464.201 152.667 463.472 151.937L434.418 122.884Z" fill="#16704B"/>
<g clip-path="url(#clip9_3815_331612)">
<path d="M561.094 108.758C561.094 99.4751 553.569 91.9495 544.285 91.9495C535.002 91.9495 527.477 99.4751 527.477 108.758C527.477 112.707 528.838 116.338 531.118 119.207L561.094 151.462V130.11V108.758Z" fill="#16704B"/>
<path d="M561.094 108.758C561.094 99.4751 568.62 91.9495 577.903 91.9495C587.186 91.9495 594.712 99.4751 594.712 108.758C594.712 112.707 593.35 116.338 591.071 119.207L561.094 151.462V130.11V108.758Z" fill="#16704B"/>
</g>
<g clip-path="url(#clip10_3815_331612)">
<path d="M657.338 128.331C657.338 137.099 650.23 144.206 641.463 144.206C632.695 144.206 625.588 137.099 625.588 128.331C625.588 124.602 626.874 121.172 629.027 118.463L657.338 88V108.166V128.331Z" fill="#16704B"/>
<path d="M657.338 128.331C657.338 137.099 664.445 144.206 673.213 144.206C681.98 144.206 689.088 137.099 689.088 128.331C689.088 124.602 687.802 121.172 685.649 118.463L657.338 88V108.166V128.331Z" fill="#16704B"/>
</g>
<g clip-path="url(#clip11_3815_331612)">
<path d="M31.743 231.21C29.8437 240.625 20.5371 244.236 20.5371 244.236H29.5842H33.9018H42.9489C42.9489 244.236 33.6424 240.625 31.743 231.21Z" fill="#16704B"/>
<ellipse cx="46.6838" cy="218.088" rx="16.8088" ry="16.8088" fill="#16704B"/>
<circle cx="31.7424" cy="193.809" r="16.8088" fill="#16704B"/>
<circle cx="16.801" cy="218.088" r="16.8088" fill="#16704B"/>
</g>
<path d="M97.5589 211.884C96.8295 211.154 96.8295 209.972 97.5589 209.242L126.613 180.189C127.342 179.459 128.525 179.459 129.254 180.189L158.308 209.242C159.037 209.972 159.037 211.154 158.308 211.884L129.254 240.937C128.525 241.667 127.342 241.667 126.613 240.937L97.5589 211.884Z" fill="#16704B"/>
<g clip-path="url(#clip12_3815_331612)">
<path d="M224.235 197.758C224.235 188.475 216.709 180.95 207.426 180.95C198.143 180.95 190.617 188.475 190.617 197.758C190.617 201.707 191.979 205.338 194.259 208.207L224.235 240.462V219.11V197.758Z" fill="#16704B"/>
<path d="M224.235 197.758C224.235 188.475 231.76 180.95 241.044 180.95C250.327 180.95 257.853 188.475 257.853 197.758C257.853 201.707 256.491 205.338 254.211 208.207L224.235 240.462V219.11V197.758Z" fill="#16704B"/>
</g>
<g clip-path="url(#clip13_3815_331612)">
<path d="M320.479 217.331C320.479 226.099 313.371 233.206 304.604 233.206C295.836 233.206 288.729 226.099 288.729 217.331C288.729 213.602 290.015 210.172 292.168 207.463L320.479 177V197.166V217.331Z" fill="#16704B"/>
<path d="M320.479 217.331C320.479 226.099 327.586 233.206 336.354 233.206C345.121 233.206 352.229 226.099 352.229 217.331C352.229 213.602 350.942 210.172 348.789 207.463L320.479 177V197.166V217.331Z" fill="#16704B"/>
<path d="M320.481 231.21C318.582 240.625 309.275 244.236 309.275 244.236H318.322H322.64H331.687C331.687 244.236 322.381 240.625 320.481 231.21Z" fill="#16704B"/>
</g>
<g clip-path="url(#clip14_3815_331612)">
<path d="M416.727 231.21C414.828 240.625 405.521 244.236 405.521 244.236H414.569H418.886H427.933C427.933 244.236 418.627 240.625 416.727 231.21Z" fill="#16704B"/>
<ellipse cx="431.668" cy="218.088" rx="16.8088" ry="16.8088" fill="#16704B"/>
<circle cx="416.727" cy="193.809" r="16.8088" fill="#16704B"/>
<circle cx="401.785" cy="218.088" r="16.8088" fill="#16704B"/>
</g>
<path d="M482.543 211.884C481.814 211.154 481.814 209.972 482.543 209.242L511.597 180.189C512.326 179.459 513.509 179.459 514.238 180.189L543.292 209.242C544.022 209.972 544.022 211.154 543.292 211.884L514.238 240.937C513.509 241.667 512.326 241.667 511.597 240.937L482.543 211.884Z" fill="#16704B"/>
<g clip-path="url(#clip15_3815_331612)">
<path d="M609.219 197.758C609.219 188.475 601.694 180.95 592.41 180.95C583.127 180.95 575.602 188.475 575.602 197.758C575.602 201.707 576.963 205.338 579.243 208.207L609.219 240.462V219.11V197.758Z" fill="#16704B"/>
<path d="M609.219 197.758C609.219 188.475 616.745 180.95 626.028 180.95C635.311 180.95 642.837 188.475 642.837 197.758C642.837 201.707 641.475 205.338 639.196 208.207L609.219 240.462V219.11V197.758Z" fill="#16704B"/>
</g>
<defs>
<clipPath id="clip0_3815_331612">
<rect width="67.2354" height="67.2354" fill="white" transform="translate(-1.875 -1)"/>
</clipPath>
<clipPath id="clip1_3815_331612">
<rect width="67.2354" height="67.2354" fill="white" transform="translate(190.617 -1)"/>
</clipPath>
<clipPath id="clip2_3815_331612">
<rect width="67.2354" height="67.2354" fill="white" transform="translate(286.863 -1)"/>
</clipPath>
<clipPath id="clip3_3815_331612">
<rect width="67.2354" height="67.2354" fill="white" transform="translate(383.109 -1)"/>
</clipPath>
<clipPath id="clip4_3815_331612">
<rect width="67.2354" height="67.2354" fill="white" transform="translate(575.602 -1)"/>
</clipPath>
<clipPath id="clip5_3815_331612">
<rect width="67.2354" height="67.2354" fill="white" transform="translate(-50 88)"/>
</clipPath>
<clipPath id="clip6_3815_331612">
<rect width="67.2354" height="67.2354" fill="white" transform="translate(142.492 88)"/>
</clipPath>
<clipPath id="clip7_3815_331612">
<rect width="67.2354" height="67.2354" fill="white" transform="translate(238.738 88)"/>
</clipPath>
<clipPath id="clip8_3815_331612">
<rect width="67.2354" height="67.2354" fill="white" transform="translate(334.984 88)"/>
</clipPath>
<clipPath id="clip9_3815_331612">
<rect width="67.2354" height="67.2354" fill="white" transform="translate(527.477 88)"/>
</clipPath>
<clipPath id="clip10_3815_331612">
<rect width="67.2354" height="67.2354" fill="white" transform="translate(623.723 88)"/>
</clipPath>
<clipPath id="clip11_3815_331612">
<rect width="67.2354" height="67.2354" fill="white" transform="translate(-1.875 177)"/>
</clipPath>
<clipPath id="clip12_3815_331612">
<rect width="67.2354" height="67.2354" fill="white" transform="translate(190.617 177)"/>
</clipPath>
<clipPath id="clip13_3815_331612">
<rect width="67.2354" height="67.2354" fill="white" transform="translate(286.863 177)"/>
</clipPath>
<clipPath id="clip14_3815_331612">
<rect width="67.2354" height="67.2354" fill="white" transform="translate(383.109 177)"/>
</clipPath>
<clipPath id="clip15_3815_331612">
<rect width="67.2354" height="67.2354" fill="white" transform="translate(575.602 177)"/>
</clipPath>
</defs>
</svg>
