<svg width="32" height="14" viewBox="0 0 32 14" fill="none" xmlns="http://www.w3.org/2000/svg">
<path d="M5.84928 2.04698C5.47328 2.49498 4.87428 2.84999 4.27628 2.79799C4.19728 2.19399 4.49528 1.54698 4.83928 1.14598C5.21428 0.688985 5.87028 0.360984 6.40228 0.333984C6.46528 0.964984 6.21928 1.58498 5.85028 2.04698H5.84928ZM6.39628 2.91698C5.52728 2.86398 4.78128 3.41599 4.36928 3.41599C3.94828 3.41599 3.31728 2.94298 2.63028 2.95898C1.73928 2.96998 0.906283 3.47899 0.453283 4.29799C-0.489717 5.92699 0.208283 8.33898 1.11428 9.66698C1.55728 10.323 2.08728 11.042 2.78628 11.022C3.44728 10.995 3.71328 10.585 4.51028 10.585C5.31728 10.585 5.54628 11.022 6.25028 11.006C6.97328 10.995 7.43128 10.35 7.87428 9.69398C8.37928 8.94898 8.58728 8.21899 8.59828 8.18299C8.58728 8.16699 7.19728 7.63098 7.18728 6.01598C7.17628 4.66098 8.28028 4.01598 8.32728 3.97898C7.70728 3.04198 6.72828 2.94298 6.39528 2.91798L6.39628 2.91698ZM11.4123 1.08298V10.938H12.9273V7.56898H15.0223C16.9333 7.56898 18.2773 6.24099 18.2773 4.32399C18.2773 2.40299 16.9603 1.08398 15.0743 1.08398L11.4123 1.08298ZM12.9273 2.37498H14.6723C15.9843 2.37498 16.7353 3.08298 16.7353 4.32798C16.7353 5.57298 15.9843 6.28698 14.6623 6.28698H12.9273V2.37498ZM21.0363 11.011C21.9893 11.011 22.8693 10.527 23.2713 9.75498H23.3033V10.938H24.7033V6.03098C24.7033 4.61498 23.5793 3.69398 21.8443 3.69398C20.2403 3.69398 19.0523 4.62599 19.0113 5.90199H20.3703C20.4853 5.29299 21.0373 4.89699 21.8033 4.89699C22.7303 4.89699 23.2463 5.33398 23.2463 6.13698V6.67799L21.3613 6.79298C19.6003 6.90198 18.6523 7.62598 18.6523 8.89198C18.6523 10.168 19.6323 11.012 21.0373 11.012L21.0363 11.011ZM21.4483 9.84398C20.6403 9.84398 20.1253 9.45298 20.1253 8.85498C20.1253 8.23498 20.6203 7.86999 21.5623 7.81199L23.2453 7.70798V8.26498C23.2453 9.18798 22.4693 9.84398 21.4423 9.84398H21.4483ZM26.5733 13.62C28.0463 13.62 28.7403 13.047 29.3443 11.323L32.0003 3.79198H30.4643L28.6833 9.60898H28.6513L26.8703 3.79198H25.2873L27.8503 10.964L27.7143 11.401C27.4793 12.136 27.1053 12.421 26.4383 12.421C26.3183 12.421 26.0893 12.406 25.9953 12.396V13.579C26.0833 13.604 26.4593 13.615 26.5683 13.615L26.5733 13.62Z" fill="white"/>
</svg>
