<svg width="32" height="13" viewBox="0 0 32 13" fill="none" xmlns="http://www.w3.org/2000/svg">
<g clip-path="url(#clip0_2326_72611)">
<path d="M15.135 6.35372V10.0788H13.9532V0.879585H17.0874C17.4615 0.871771 17.8335 0.938122 18.1818 1.07481C18.5301 1.2115 18.8479 1.41581 19.1169 1.67597C19.3886 1.92033 19.6048 2.22002 19.751 2.55488C19.8972 2.88974 19.9701 3.25203 19.9647 3.61739C19.9724 3.9847 19.9007 4.34935 19.7544 4.68635C19.6081 5.02335 19.3906 5.32472 19.1169 5.56982C18.5689 6.09242 17.8924 6.35348 17.0874 6.35299H15.135V6.35372ZM15.135 2.01214V5.22337H17.1168C17.334 5.22981 17.5502 5.19083 17.7516 5.10893C17.9529 5.02703 18.1349 4.90401 18.286 4.74774C18.4363 4.60163 18.5558 4.42687 18.6373 4.23379C18.7189 4.04071 18.7609 3.83323 18.7609 3.62363C18.7609 3.41402 18.7189 3.20655 18.6373 3.01347C18.5558 2.82039 18.4363 2.64562 18.286 2.49951C18.1368 2.33995 17.9554 2.21391 17.7539 2.12976C17.5523 2.04561 17.3351 2.00527 17.1168 2.01141H15.135V2.01214Z" fill="white"/>
<path d="M22.6878 3.57959C23.5613 3.57959 24.2507 3.813 24.7562 4.27982C25.2617 4.74664 25.5142 5.38669 25.5137 6.19995V10.0791H24.3833V9.20567H24.3319C23.8426 9.92498 23.1918 10.2846 22.3795 10.2846C21.6861 10.2846 21.106 10.0791 20.6392 9.66808C20.4152 9.47943 20.2361 9.24316 20.1149 8.97651C19.9938 8.70985 19.9337 8.41953 19.939 8.12669C19.939 7.47539 20.1851 6.95744 20.6774 6.57282C21.1696 6.18821 21.8268 5.99541 22.6489 5.99444C23.3506 5.99444 23.9285 6.12288 24.3826 6.37978V6.10967C24.3839 5.91004 24.3408 5.71261 24.2564 5.5317C24.172 5.35079 24.0483 5.19094 23.8945 5.06373C23.582 4.78179 23.1747 4.62795 22.7539 4.63287C22.0937 4.63287 21.5714 4.9113 21.1868 5.46816L20.146 4.8127C20.7185 3.99063 21.5658 3.57959 22.6878 3.57959ZM21.1589 8.15238C21.1581 8.30278 21.1932 8.45119 21.2614 8.58525C21.3296 8.71931 21.4288 8.83513 21.5508 8.92308C21.8122 9.12867 22.1366 9.23758 22.4691 9.23136C22.9677 9.23052 23.4457 9.03204 23.7983 8.67939C24.1898 8.31093 24.3855 7.8786 24.3855 7.38242C24.0171 7.08882 23.5033 6.94202 22.8441 6.94202C22.3641 6.94202 21.9638 7.05775 21.6433 7.2892C21.3196 7.52408 21.1589 7.80961 21.1589 8.15238V8.15238Z" fill="white"/>
<path d="M32.0022 3.78479L28.0562 12.8533H26.8363L28.3007 9.68024L25.706 3.78479H26.9905L28.8658 8.3062H28.8915L30.7155 3.78479H32.0022Z" fill="white"/>
<path d="M10.3596 5.55144C10.3601 5.1913 10.3296 4.8318 10.2686 4.47687H5.28479V6.51224H8.1393C8.08089 6.83732 7.95726 7.1472 7.77586 7.42321C7.59446 7.69922 7.35904 7.93564 7.08381 8.11822V9.43941H8.78742C9.78492 8.51972 10.3596 7.15962 10.3596 5.55144Z" fill="#4285F4"/>
<path d="M5.28478 10.7148C6.71094 10.7148 7.91175 10.2465 8.78741 9.43911L7.08381 8.11791C6.60964 8.4394 5.99896 8.6229 5.28478 8.6229C3.90634 8.6229 2.73635 7.69366 2.31797 6.44147H0.562988V7.80303C1.00285 8.6783 1.67732 9.4141 2.51112 9.92827C3.34491 10.4424 4.3052 10.7147 5.28478 10.7148V10.7148Z" fill="#34A853"/>
<path d="M2.31802 6.4428C2.09684 5.78664 2.09684 5.07607 2.31802 4.41991V3.05835H0.563039C0.193014 3.79466 0.000305176 4.6073 0.000305176 5.43136C0.000305176 6.25542 0.193014 7.06805 0.563039 7.80437L2.31802 6.4428Z" fill="#FBBC04"/>
<path d="M5.28478 2.23811C6.03844 2.2258 6.76667 2.51055 7.31208 3.03082L8.82044 1.52246C7.86398 0.624108 6.59689 0.130896 5.28478 0.146221C4.3052 0.146265 3.34491 0.418573 2.51112 0.932743C1.67732 1.44691 1.00285 2.18271 0.562988 3.05798L2.31797 4.41954C2.73635 3.16735 3.90634 2.23811 5.28478 2.23811Z" fill="#EA4335"/>
</g>
<defs>
<clipPath id="clip0_2326_72611">
<rect width="32" height="12.7077" fill="white" transform="translate(0 0.146179)"/>
</clipPath>
</defs>
</svg>
