<svg width="22" height="14" viewBox="0 0 22 14" fill="none" xmlns="http://www.w3.org/2000/svg">
<path d="M14.2722 11.7001H8.54227V1.40253H14.2722V11.7001Z" fill="#FF5F00"/>
<path d="M8.90935 6.55031C8.90935 4.4614 9.8874 2.60065 11.4105 1.40151C10.2967 0.524637 8.89103 0.00126305 7.36337 0.00126305C3.7468 0.00126305 0.815155 2.93333 0.815155 6.55031C0.815155 10.1673 3.7468 13.0994 7.36337 13.0994C8.89103 13.0994 10.2967 12.576 11.4105 11.6991C9.8874 10.5 8.90935 8.63923 8.90935 6.55031Z" fill="#EB001B"/>
<path d="M22 6.55031C22 10.1673 19.0683 13.0994 15.4517 13.0994C13.9241 13.0994 12.5184 12.576 11.4042 11.6991C12.9277 10.5 13.9058 8.63923 13.9058 6.55031C13.9058 4.4614 12.9277 2.60065 11.4042 1.40151C12.5184 0.524637 13.9241 0.00126305 15.4517 0.00126305C19.0683 0.00126305 22 2.93333 22 6.55031Z" fill="#F79E1B"/>
</svg>
