<svg width="39" height="17" viewBox="0 0 39 17" fill="none" xmlns="http://www.w3.org/2000/svg">
<path d="M8.82506 16.9917V8.36381H10.2594V8.99806C10.478 8.7034 10.7885 8.4847 11.145 8.37421C11.4478 8.27654 11.7649 8.22669 12.0841 8.22656C12.519 8.22193 12.9502 8.3043 13.3508 8.46852C13.7515 8.63275 14.1129 8.87531 14.4125 9.18106C14.7263 9.48945 14.9738 9.85526 15.1406 10.2572C15.3073 10.6592 15.39 11.0893 15.3838 11.5226C15.3843 11.9501 15.2999 12.3738 15.1351 12.7703C14.9778 13.1627 14.7424 13.5211 14.4422 13.8251C14.142 14.1291 13.7829 14.3727 13.3855 14.542C12.6751 14.8349 11.8785 14.8645 11.1471 14.6252C10.8341 14.5275 10.3945 14.2842 10.238 14.0159V16.9917H8.82506V16.9917ZM12.0412 9.441C11.7902 9.43294 11.5402 9.47575 11.3073 9.5667C11.0743 9.65765 10.8635 9.79473 10.6883 9.9692C10.3203 10.3816 10.13 10.9154 10.1565 11.4602C10.1565 12.0466 10.3002 12.6206 10.6733 13.0074C10.8506 13.1858 11.0656 13.325 11.3036 13.4154C11.5415 13.5059 11.7968 13.5454 12.0519 13.5314C12.2998 13.5326 12.5454 13.4847 12.7736 13.3907C13.0018 13.2966 13.2079 13.1584 13.3791 12.9845C13.7602 12.5915 13.9652 12.0681 13.9494 11.5288C13.9734 10.9652 13.773 10.4143 13.3898 9.98999C13.216 9.81376 13.0064 9.67437 12.7743 9.58059C12.5422 9.48682 12.2926 9.44071 12.0412 9.44516" fill="#1045FF"/>
<path d="M25.2187 17L26.4301 14.2759L23.6535 8.36383H25.1651L27.1376 12.8036L28.958 8.36383H30.4781L26.7024 17H25.2187Z" fill="#1045FF"/>
<path d="M21.3765 14.6605V14.0055C21.1471 14.2963 20.829 14.5095 20.4674 14.6148C20.1446 14.7226 19.8054 14.7767 19.464 14.7749C19.0385 14.7798 18.6168 14.6968 18.2268 14.5316C17.4274 14.1871 16.7998 13.5514 16.4794 12.7619C16.3135 12.3656 16.2283 11.9419 16.2286 11.5142C16.2219 11.0809 16.3044 10.6507 16.4711 10.2486C16.6379 9.84657 16.8856 9.4808 17.1998 9.17269C17.5 8.86698 17.8618 8.62448 18.2627 8.46026C18.6637 8.29605 19.0952 8.21365 19.5304 8.2182C19.8489 8.21815 20.1653 8.268 20.4674 8.36584C20.8251 8.47512 21.1366 8.69404 21.3551 8.98969V8.35544H22.7873V14.6522H21.3765V14.6605ZM18.2247 9.98578C17.8423 10.4104 17.6427 10.9613 17.6672 11.5246C17.6514 12.0639 17.8565 12.5873 18.2376 12.9803C18.4088 13.1542 18.6148 13.2924 18.843 13.3865C19.0712 13.4805 19.3168 13.5284 19.5647 13.5272C19.8196 13.5415 20.0746 13.502 20.3122 13.4116C20.5499 13.3211 20.7645 13.1818 20.9412 13.0032C21.3165 12.6164 21.458 12.0424 21.458 11.456C21.4851 10.9119 21.2963 10.3784 20.9305 9.96498C20.7552 9.79005 20.5441 9.65267 20.3107 9.5617C20.0773 9.47072 19.8268 9.42818 19.5755 9.43679C19.3237 9.43206 19.0737 9.47803 18.8412 9.57181C18.6087 9.66559 18.3987 9.80513 18.2247 9.98162" fill="#1045FF"/>
<path d="M31.9811 4.36902L31.9061 0.164246H33.2762V5.46908H31.3079L29.9464 1.11458H29.91L29.9893 5.46908H28.6321V0.164246H30.6797L31.9511 4.36902H31.9811Z" fill="#1045FF"/>
<path d="M7.13335 0.65917L6.37864 5.51691H4.88635L5.90908 0.164246H8.36834L9.38893 5.51691H7.90308L7.16551 0.65917H7.13335Z" fill="#1045FF"/>
<path d="M13.5721 4.26089L14.2539 0.164246H16.5052L16.6274 5.51691H15.2466L15.208 0.70492H15.1801L14.2582 5.51691H12.8602L11.9318 0.70492H11.9018L11.8675 5.51691H10.4867L10.6111 0.164246H12.8645L13.5442 4.26089H13.5721Z" fill="#1045FF"/>
<path d="M25.1501 4.72254C25.2718 4.73363 25.3934 4.7007 25.4915 4.63006C25.5897 4.55943 25.6575 4.45608 25.6818 4.33991C25.6911 4.27098 25.6947 4.20144 25.6925 4.13196V0.164246H27.0948V4.00303C27.0948 4.10284 27.084 4.30247 27.0797 4.35654C26.9854 5.35679 26.1664 5.67911 25.1501 5.67911C24.1338 5.67911 23.3212 5.35679 23.2204 4.35654C23.2099 4.23899 23.2056 4.121 23.2075 4.00303V0.164246H24.6055V4.12572C24.6011 4.19521 24.6047 4.26495 24.6162 4.33367C24.6387 4.45161 24.7061 4.55703 24.805 4.62906C24.9038 4.70108 25.027 4.73445 25.1501 4.72254" fill="#1045FF"/>
<path d="M2.56218 4.00722C2.60506 4.13586 2.60879 4.27376 2.5729 4.4044C2.54749 4.52022 2.47737 4.62221 2.37691 4.68949C2.27645 4.75677 2.15325 4.78423 2.03259 4.76624C1.96241 4.7743 1.89126 4.76765 1.82397 4.74672C1.75667 4.72579 1.69481 4.69107 1.64255 4.64493C1.5903 4.59878 1.54888 4.54228 1.5211 4.47926C1.49332 4.41623 1.47984 4.34815 1.48156 4.27963V3.75975H0V4.17566C0 5.37345 0.96698 5.73113 2.00257 5.73113C3.03816 5.73113 3.82719 5.40257 3.95583 4.51046C4.00744 4.21939 4.00744 3.9219 3.95583 3.63082C3.72427 2.50581 1.62736 2.17517 1.47084 1.55131C1.44885 1.45895 1.44885 1.36294 1.47084 1.27058C1.49038 1.15882 1.55374 1.05874 1.64767 0.99129C1.74159 0.92384 1.85879 0.894258 1.9747 0.908745C2.04238 0.902638 2.11061 0.910789 2.17474 0.932639C2.23887 0.954489 2.29737 0.989521 2.34624 1.03534C2.39511 1.08116 2.43319 1.13667 2.45788 1.19809C2.48257 1.25951 2.49328 1.32539 2.48928 1.39119V1.72599H3.86792V1.3496C3.86792 0.182995 2.79588 0 2.00257 0C1.02273 0 0.22084 0.316082 0.072898 1.19156C0.0280867 1.42873 0.0280867 1.67182 0.072898 1.90899C0.315179 3.00697 2.27701 3.32098 2.56218 4.01345" fill="#1045FF"/>
<path d="M20.5189 4.00098C20.5603 4.12765 20.5647 4.26296 20.5317 4.39193C20.5059 4.5053 20.4366 4.60489 20.3378 4.67053C20.2391 4.73618 20.1183 4.76296 20 4.74544C19.9301 4.75446 19.859 4.7487 19.7916 4.72854C19.7241 4.70839 19.662 4.67432 19.6095 4.62869C19.5569 4.58305 19.5152 4.52692 19.4871 4.46416C19.459 4.40139 19.4453 4.33348 19.4468 4.26508V3.74936H17.9803V4.16527C17.9803 5.35059 18.9387 5.70202 19.9678 5.70202C20.9541 5.70202 21.7667 5.37762 21.8975 4.49175C21.9493 4.20278 21.9493 3.90732 21.8975 3.61835C21.6681 2.51205 19.5926 2.18349 19.4404 1.55756C19.4213 1.46699 19.4213 1.37362 19.4404 1.28306C19.4609 1.17302 19.5241 1.07481 19.6171 1.00865C19.71 0.942493 19.8256 0.913436 19.94 0.927464C20.007 0.921026 20.0746 0.92877 20.1382 0.950158C20.2018 0.971546 20.2599 1.00607 20.3084 1.05135C20.3569 1.09662 20.3947 1.15157 20.4192 1.2124C20.4437 1.27323 20.4543 1.33849 20.4503 1.40367V1.73432H21.8053V1.36208C21.8053 0.207952 20.7333 0.0270386 19.9635 0.0270386C18.9923 0.0270386 18.1947 0.334801 18.0532 1.20404C18.0044 1.43983 18.008 1.683 18.0639 1.91731C18.3019 3.0049 20.2423 3.31682 20.5231 3.99683" fill="#1045FF"/>
<path d="M36.6681 4.6607C36.7948 4.67553 36.9227 4.64416 37.0269 4.57268C37.1311 4.50121 37.2042 4.39472 37.232 4.2739C37.2409 4.20493 37.2452 4.13547 37.2449 4.06595V3.29029H36.681V2.50632H38.6364V3.94326C38.6356 4.06208 38.6284 4.18077 38.6149 4.29886C38.5249 5.26791 37.6522 5.61935 36.6702 5.61935C35.6883 5.61935 34.8263 5.26791 34.7406 4.29886C34.7249 4.18096 34.7177 4.06214 34.7191 3.94326V1.69531C34.7199 1.57775 34.7285 1.46036 34.7449 1.34387C34.8649 0.33739 35.699 0.0192261 36.6745 0.0192261C37.6501 0.0192261 38.5163 0.335311 38.6149 1.34387C38.6279 1.46057 38.6315 1.57807 38.6257 1.69531V1.86999H37.2427V1.57054C37.2431 1.50078 37.2367 1.43115 37.2234 1.36259C37.1975 1.24284 37.1264 1.13679 37.0241 1.06524C36.9218 0.993686 36.7956 0.961791 36.6702 0.975803C36.5462 0.964821 36.4223 0.998026 36.3217 1.06921C36.2211 1.1404 36.1506 1.24469 36.1235 1.36259C36.1071 1.44618 36.1 1.53123 36.1021 1.61629V4.06595C36.1021 4.1325 36.1021 4.20944 36.1128 4.2739C36.1406 4.39512 36.214 4.50193 36.3187 4.57345C36.4234 4.64497 36.5518 4.67608 36.6788 4.6607" fill="#1045FF"/>
</svg>
