<svg width="27" height="8" viewBox="0 0 27 8" fill="none" xmlns="http://www.w3.org/2000/svg">
<path d="M11.5555 7.88496H9.39534L10.7465 0.140747H12.9065L11.5555 7.88496Z" fill="#1078FF"/>
<path d="M19.3864 0.329946C18.9603 0.173253 18.2845 0.000244141 17.4489 0.000244141C15.3156 0.000244141 13.8134 1.05472 13.8042 2.5623C13.7865 3.67459 14.8797 4.29239 15.6974 4.66326C16.5332 5.04224 16.8173 5.28959 16.8173 5.6274C16.8088 6.14621 16.1419 6.38535 15.52 6.38535C14.6575 6.38535 14.1954 6.26206 13.4932 5.97342L13.2087 5.84968L12.9064 7.58809C13.4131 7.80205 14.3465 7.99192 15.3156 8.00024C17.5822 8.00024 19.0579 6.96208 19.0754 5.35551C19.084 4.47394 18.5067 3.79844 17.2621 3.24645C16.5066 2.89211 16.0439 2.65319 16.0439 2.29064C16.0527 1.96104 16.4352 1.62346 17.2881 1.62346C17.9904 1.60692 18.5064 1.7634 18.8972 1.91998L19.0926 2.00221L19.3864 0.329946V0.329946Z" fill="#1078FF"/>
<path d="M22.2574 5.14146C22.4353 4.69656 23.1199 2.97469 23.1199 2.97469C23.1109 2.99123 23.2974 2.52158 23.4041 2.23327L23.5551 2.90056C23.5551 2.90056 23.9641 4.75427 24.053 5.14146C23.7154 5.14146 22.6841 5.14146 22.2574 5.14146ZM24.9239 0.140747H23.253C22.7377 0.140747 22.3463 0.280687 22.124 0.783287L18.9153 7.88485H21.1819C21.1819 7.88485 21.5551 6.92903 21.6353 6.72317C21.8839 6.72317 24.0889 6.72317 24.4088 6.72317C24.4708 6.99506 24.6665 7.88485 24.6665 7.88485H26.6666L24.9239 0.140747V0.140747Z" fill="#1078FF"/>
<path d="M7.59106 0.140747L5.47553 5.42156L5.24435 4.35055C4.85323 3.11474 3.62661 1.77206 2.25775 1.10445L4.1955 7.87674H6.47984L9.87528 0.140747H7.59106V0.140747Z" fill="#1078FF"/>
<path d="M3.51108 0.140747H0.035556L0 0.297221C2.71113 0.939871 4.50666 2.48895 5.24436 4.35088L4.48882 0.791719C4.36443 0.297112 3.98217 0.157062 3.51108 0.140747Z" fill="#FAA61A"/>
</svg>
