<svg width="7" height="15" viewBox="0 0 7 15" fill="none" xmlns="http://www.w3.org/2000/svg">
<path d="M1.16249 3.00742e-05C1.31188 -0.000478247 1.45949 0.0324941 1.59447 0.0965228C1.72945 0.160552 1.84837 0.254011 1.94249 0.370031L6.77249 6.37003C6.91957 6.54896 6.99998 6.7734 6.99998 7.00503C6.99998 7.23665 6.91957 7.4611 6.77249 7.64003L1.77249 13.64C1.60275 13.8442 1.35884 13.9727 1.09441 13.9971C0.829987 14.0214 0.566706 13.9398 0.362489 13.77C0.158273 13.6003 0.0298485 13.3564 0.00546877 13.092C-0.018911 12.8275 0.0627502 12.5642 0.232489 12.36L4.70249 7.00003L0.382489 1.64003C0.260206 1.49324 0.182528 1.3145 0.158649 1.12496C0.134769 0.935407 0.165686 0.742983 0.247742 0.570455C0.329798 0.397928 0.459558 0.252516 0.621668 0.151426C0.783778 0.0503355 0.971454 -0.00220151 1.16249 3.00742e-05Z" fill="#4a4b51"/>
</svg>
