<svg width="584" height="250" viewBox="0 0 584 250" fill="none" xmlns="http://www.w3.org/2000/svg">
<ellipse cx="292" cy="290.5" rx="292" ry="290.5" fill="url(#paint0_radial_1307_108902)"/>
<g clip-path="url(#clip0_1307_108902)">
<path opacity="0.29" d="M416.734 482L240.751 374.667L351.126 196.889L584 365.316L416.734 482Z" fill="url(#paint1_linear_1307_108902)"/>
<path d="M275.979 375.897L79 262.393L274.746 149.59L471.725 263.094L275.979 375.897Z" fill="#E3DFDB"/>
<path d="M101.263 262.427L274.814 162.427L449.444 263.06L275.91 363.077L101.263 262.427Z" fill="#453737"/>
<path d="M103.815 262.462L274.78 163.932L446.824 263.077L275.859 361.607L103.815 262.462Z" fill="#E3DFDB"/>
<path d="M274.917 188.632L253.407 176.239L274.78 163.932L296.273 176.325L274.917 188.632Z" fill="#E3DFDB"/>
<path d="M253.544 200.957L232.034 188.564L253.407 176.256L274.9 188.65L253.544 200.957Z" fill="#453737"/>
<path d="M232.171 213.265L210.679 200.872L232.034 188.564L253.527 200.957L232.171 213.265Z" fill="#E3DFDB"/>
<path d="M210.799 225.59L189.306 213.197L210.662 200.889L232.154 213.282L210.799 225.59Z" fill="#453737"/>
<path d="M189.426 237.897L167.933 225.504L189.289 213.197L210.782 225.59L189.426 237.897Z" fill="#E3DFDB"/>
<path d="M168.053 250.222L146.561 237.829L167.916 225.521L189.409 237.915L168.053 250.222Z" fill="#453737"/>
<path d="M146.68 262.53L125.188 250.137L146.543 237.829L168.053 250.222L146.68 262.53Z" fill="#E3DFDB"/>
<path d="M296.427 201.026L274.917 188.65L296.29 176.325L317.782 188.718L296.427 201.026Z" fill="#453737"/>
<path d="M275.054 213.35L253.544 200.957L274.917 188.65L296.41 201.043L275.054 213.35Z" fill="#E3DFDB"/>
<path d="M253.681 225.658L232.172 213.282L253.544 200.957L275.037 213.35L253.681 225.658Z" fill="#453737"/>
<path d="M232.308 237.983L210.799 225.59L232.171 213.282L253.664 225.675L232.308 237.983Z" fill="#E3DFDB"/>
<path d="M210.936 250.291L189.426 237.915L210.799 225.59L232.291 237.983L210.936 250.291Z" fill="#453737"/>
<path d="M189.563 262.615L168.07 250.222L189.426 237.915L210.919 250.308L189.563 262.615Z" fill="#E3DFDB"/>
<path d="M317.919 213.419L296.427 201.043L317.782 188.718L339.292 201.111L317.919 213.419Z" fill="#E3DFDB"/>
<path d="M296.547 225.744L275.054 213.35L296.427 201.043L317.919 213.436L296.547 225.744Z" fill="#453737"/>
<path d="M275.174 238.051L253.681 225.675L275.054 213.35L296.547 225.744L275.174 238.051Z" fill="#E3DFDB"/>
<path d="M253.801 250.376L232.308 237.983L253.681 225.675L275.174 238.068L253.801 250.376Z" fill="#453737"/>
<path d="M232.445 262.684L210.936 250.308L232.308 237.983L253.801 250.376L232.445 262.684Z" fill="#E3DFDB"/>
<path d="M339.429 225.812L317.936 213.436L339.292 201.111L360.802 213.504L339.429 225.812Z" fill="#453737"/>
<path d="M318.056 238.137L296.564 225.744L317.919 213.436L339.429 225.829L318.056 238.137Z" fill="#E3DFDB"/>
<path d="M296.684 250.444L275.191 238.068L296.547 225.744L318.056 238.137L296.684 250.444Z" fill="#453737"/>
<path d="M275.311 262.769L253.818 250.376L275.174 238.068L296.684 250.462L275.311 262.769Z" fill="#E3DFDB"/>
<path d="M360.939 238.205L339.446 225.829L360.802 213.504L382.295 225.897L360.939 238.205Z" fill="#E3DFDB"/>
<path d="M339.566 250.53L318.073 238.137L339.429 225.829L360.922 238.222L339.566 250.53Z" fill="#453737"/>
<path d="M318.193 262.838L296.701 250.462L318.056 238.137L339.549 250.53L318.193 262.838Z" fill="#E3DFDB"/>
<path d="M382.449 250.598L360.939 238.222L382.312 225.897L403.804 238.291L382.449 250.598Z" fill="#453737"/>
<path d="M361.076 262.923L339.566 250.53L360.939 238.222L382.432 250.615L361.076 262.923Z" fill="#E3DFDB"/>
<path d="M403.941 262.991L382.449 250.615L403.821 238.291L425.314 250.684L403.941 262.991Z" fill="#E3DFDB"/>
<path d="M274.42 179.983C280.143 179.983 284.781 176.799 284.781 172.872C284.781 168.944 280.143 165.761 274.42 165.761C268.698 165.761 264.059 168.944 264.059 172.872C264.059 176.799 268.698 179.983 274.42 179.983Z" fill="#2B2B2B"/>
<path d="M274.54 177.744C280.262 177.744 284.901 174.988 284.901 171.59C284.901 168.191 280.262 165.436 274.54 165.436C268.818 165.436 264.179 168.191 264.179 171.59C264.179 174.988 268.818 177.744 274.54 177.744Z" fill="#474646"/>
<path d="M274.129 174.906C277.515 174.906 280.26 173.276 280.26 171.265C280.26 169.254 277.515 167.624 274.129 167.624C270.743 167.624 267.998 169.254 267.998 171.265C267.998 173.276 270.743 174.906 274.129 174.906Z" fill="#2B2B2B"/>
<path d="M274.266 174.65V151.385H269.642C271.954 154.974 272.074 160.359 269.933 164.051C269.351 165.043 268.632 165.949 268.084 166.957C267.056 168.889 266.714 171.009 268.649 172.923C269.985 174.256 274.386 174.701 274.266 174.65Z" fill="#2B2B2B"/>
<path d="M273.906 174.991V151.385H278.685C276.287 155.026 276.167 160.496 278.393 164.239C278.993 165.248 279.746 166.171 280.311 167.197C281.373 169.162 280.911 171.709 279.352 173.316C277.948 174.752 274.026 175.179 273.906 174.991Z" fill="#545252"/>
<path d="M281.459 150.342C281.459 153.06 278.256 155.248 274.3 155.248C270.344 155.248 267.142 153.043 267.142 150.342C267.142 147.641 270.344 145.436 274.3 145.436C278.256 145.419 281.459 147.624 281.459 150.342Z" fill="#2B2B2B"/>
<path d="M281.459 150.342C281.459 153.06 278.256 155.248 274.3 155.248C270.344 155.248 267.142 153.043 267.142 150.342C267.142 147.641 270.344 145.436 274.3 145.436C278.256 145.419 281.459 147.624 281.459 150.342Z" fill="#2B2B2B"/>
<path d="M268.443 150.735C269.728 152.513 273.924 153.402 276.047 152.838" stroke="#3D3D3D" stroke-width="0.828" stroke-miterlimit="10" stroke-linecap="round" stroke-linejoin="round"/>
<path d="M264.487 172.547C266.2 175.47 269.334 177.521 272.708 177.915" stroke="#636363" stroke-width="0.621" stroke-miterlimit="10" stroke-linecap="round" stroke-linejoin="round"/>
<path d="M281.202 145.744C281.202 148.462 278 150.65 274.044 150.65C270.088 150.65 266.885 148.444 266.885 145.744C266.885 143.026 270.088 140.838 274.044 140.838C277.982 140.821 281.202 143.026 281.202 145.744Z" fill="#2B2B2B"/>
<path d="M268.221 146.342C267.433 146.342 266.799 145.709 266.799 144.923V138.205C266.799 137.419 267.433 136.786 268.221 136.786C269.009 136.786 269.642 137.419 269.642 138.205V144.923C269.642 145.692 268.992 146.342 268.221 146.342Z" fill="#2B2B2B"/>
<path d="M268.306 148.632C267.519 148.632 266.885 148 266.885 147.214V140.496C266.885 139.709 267.519 139.077 268.306 139.077C269.094 139.077 269.728 139.709 269.728 140.496V147.214C269.728 148 269.094 148.632 268.306 148.632Z" fill="#3D3D3D"/>
<path d="M272.211 144.205C271.423 144.205 270.79 143.573 270.79 142.786V136.068C270.79 135.282 271.423 134.65 272.211 134.65C272.999 134.65 273.633 135.282 273.633 136.068V142.786C273.615 143.573 272.982 144.205 272.211 144.205Z" fill="#2B2B2B"/>
<path d="M276.099 143.59C275.311 143.59 274.677 142.957 274.677 142.171V135.453C274.677 134.667 275.311 134.034 276.099 134.034C276.886 134.034 277.52 134.667 277.52 135.453V142.171C277.52 142.957 276.886 143.59 276.099 143.59Z" fill="#2B2B2B"/>
<path d="M279.644 145.453C278.856 145.453 278.222 144.821 278.222 144.034V137.316C278.222 136.53 278.856 135.897 279.644 135.897C280.431 135.897 281.065 136.53 281.065 137.316V144.034C281.065 144.821 280.431 145.453 279.644 145.453Z" fill="#2B2B2B"/>
<path d="M272.297 149.692C271.509 149.692 270.875 149.06 270.875 148.274V141.556C270.875 140.769 271.509 140.137 272.297 140.137C273.084 140.137 273.718 140.769 273.718 141.556V148.274C273.718 149.06 273.067 149.692 272.297 149.692Z" fill="#3D3D3D"/>
<path d="M276.373 149.778C275.585 149.778 274.951 149.145 274.951 148.359V141.641C274.951 140.855 275.585 140.222 276.373 140.222C277.16 140.222 277.794 140.855 277.794 141.641V148.359C277.794 149.145 277.143 149.778 276.373 149.778Z" fill="#3D3D3D"/>
<path d="M280.089 148.718C279.301 148.718 278.667 148.085 278.667 147.299V140.581C278.667 139.795 279.301 139.162 280.089 139.162C280.877 139.162 281.51 139.795 281.51 140.581V147.299C281.51 148.085 280.877 148.718 280.089 148.718Z" fill="#3D3D3D"/>
<path d="M266.885 143.949C270.207 146.957 274.523 148.274 278.582 146.342C279.421 145.949 280.911 144.991 281.425 144.222L281.476 147.436C279.746 149.573 277.041 150.872 274.283 150.906C271.526 150.94 268.786 149.709 267.005 147.641L266.885 143.949Z" fill="#3D3D3D"/>
<path d="M428.345 264.701V241.436H423.721C426.033 245.026 426.153 250.41 424.012 254.103C423.43 255.094 422.711 256 422.163 257.009C421.135 258.94 420.793 261.06 422.728 262.974C424.064 264.308 428.465 264.752 428.345 264.701Z" fill="#2B2B2B"/>
<path d="M427.986 265.043V241.436H432.764C430.366 245.077 430.246 250.547 432.472 254.291C433.072 255.299 433.825 256.222 434.391 257.248C435.452 259.214 434.99 261.761 433.432 263.368C432.027 264.803 428.105 265.231 427.986 265.043Z" fill="#3D3D3D"/>
<path d="M428.362 245.299C432.316 245.299 435.521 243.103 435.521 240.393C435.521 237.684 432.316 235.487 428.362 235.487C424.409 235.487 421.204 237.684 421.204 240.393C421.204 243.103 424.409 245.299 428.362 245.299Z" fill="#2B2B2B"/>
<path d="M428.362 245.299C432.316 245.299 435.521 243.103 435.521 240.393C435.521 237.684 432.316 235.487 428.362 235.487C424.409 235.487 421.204 237.684 421.204 240.393C421.204 243.103 424.409 245.299 428.362 245.299Z" fill="#2B2B2B"/>
<path d="M422.505 240.786C423.79 242.564 427.986 243.453 430.109 242.889" stroke="#3D3D3D" stroke-width="0.828" stroke-miterlimit="10" stroke-linecap="round" stroke-linejoin="round"/>
<path d="M428.106 240.701C432.059 240.701 435.264 238.504 435.264 235.795C435.264 233.085 432.059 230.889 428.106 230.889C424.152 230.889 420.947 233.085 420.947 235.795C420.947 238.504 424.152 240.701 428.106 240.701Z" fill="#2B2B2B"/>
<path d="M422.283 236.393C421.495 236.393 420.861 235.761 420.861 234.974V228.256C420.861 227.47 421.495 226.838 422.283 226.838C423.071 226.838 423.704 227.47 423.704 228.256V234.974C423.704 235.761 423.071 236.393 422.283 236.393Z" fill="#2B2B2B"/>
<path d="M422.386 238.684C421.598 238.684 420.964 238.051 420.964 237.265V230.547C420.964 229.761 421.598 229.128 422.386 229.128C423.173 229.128 423.807 229.761 423.807 230.547V237.265C423.79 238.051 423.156 238.684 422.386 238.684Z" fill="#3D3D3D"/>
<path d="M426.273 234.274C425.485 234.274 424.852 233.641 424.852 232.855V226.137C424.852 225.35 425.485 224.718 426.273 224.718C427.061 224.718 427.695 225.35 427.695 226.137V232.855C427.695 233.641 427.061 234.274 426.273 234.274Z" fill="#2B2B2B"/>
<path d="M430.178 233.658C429.39 233.658 428.756 233.026 428.756 232.239V225.521C428.756 224.735 429.39 224.103 430.178 224.103C430.965 224.103 431.599 224.735 431.599 225.521V232.239C431.599 233.009 430.948 233.658 430.178 233.658Z" fill="#2B2B2B"/>
<path d="M433.723 235.504C432.935 235.504 432.301 234.872 432.301 234.085V227.368C432.301 226.581 432.935 225.949 433.723 225.949C434.51 225.949 435.144 226.581 435.144 227.368V234.085C435.144 234.872 434.493 235.504 433.723 235.504Z" fill="#2B2B2B"/>
<path d="M426.359 239.761C425.571 239.761 424.937 239.128 424.937 238.342V231.624C424.937 230.838 425.571 230.205 426.359 230.205C427.147 230.205 427.78 230.838 427.78 231.624V238.342C427.78 239.111 427.147 239.761 426.359 239.761Z" fill="#3D3D3D"/>
<path d="M430.435 239.846C429.647 239.846 429.013 239.214 429.013 238.427V231.709C429.013 230.923 429.647 230.291 430.435 230.291C431.222 230.291 431.856 230.923 431.856 231.709V238.427C431.856 239.197 431.222 239.846 430.435 239.846Z" fill="#3D3D3D"/>
<path d="M434.168 238.786C433.38 238.786 432.747 238.154 432.747 237.368V230.65C432.747 229.863 433.38 229.231 434.168 229.231C434.956 229.231 435.589 229.863 435.589 230.65V237.368C435.589 238.137 434.939 238.786 434.168 238.786Z" fill="#3D3D3D"/>
<path d="M420.964 234C424.286 237.009 428.602 238.325 432.661 236.393C433.5 236 434.99 235.043 435.504 234.274L435.555 237.487C433.825 239.624 431.12 240.923 428.362 240.957C425.605 240.991 422.865 239.761 421.084 237.692L420.964 234Z" fill="#3D3D3D"/>
<path d="M382.774 243.368C388.714 243.368 393.529 240.069 393.529 236C393.529 231.931 388.714 228.632 382.774 228.632C376.834 228.632 372.019 231.931 372.019 236C372.019 240.069 376.834 243.368 382.774 243.368Z" fill="#2B2B2B"/>
<path d="M382.911 241.043C388.851 241.043 393.666 238.188 393.666 234.667C393.666 231.145 388.851 228.291 382.911 228.291C376.971 228.291 372.156 231.145 372.156 234.667C372.156 238.188 376.971 241.043 382.911 241.043Z" fill="#353434"/>
<path d="M382.483 238.12C385.992 238.12 388.837 236.428 388.837 234.342C388.837 232.255 385.992 230.564 382.483 230.564C378.974 230.564 376.129 232.255 376.129 234.342C376.129 236.428 378.974 238.12 382.483 238.12Z" fill="#2B2B2B"/>
<path d="M382.62 237.846V213.709H377.825C380.222 217.436 380.359 223.026 378.116 226.855C377.517 227.88 376.763 228.821 376.198 229.88C375.136 231.88 374.776 234.085 376.78 236.068C378.184 237.436 382.74 237.897 382.62 237.846Z" fill="#2B2B2B"/>
<path d="M382.26 238.205V213.709H387.227C384.743 217.487 384.606 223.162 386.918 227.043C387.535 228.085 388.323 229.043 388.905 230.103C390.018 232.137 389.522 234.786 387.912 236.444C386.439 237.949 382.38 238.393 382.26 238.205Z" fill="#3D3D3D"/>
<path d="M390.087 212.632C390.087 215.453 386.764 217.727 382.654 217.727C378.544 217.727 375.222 215.453 375.222 212.632C375.222 209.812 378.544 207.538 382.654 207.538C386.764 207.538 390.087 209.812 390.087 212.632Z" fill="#2B2B2B"/>
<path d="M390.087 212.632C390.087 215.453 386.764 217.727 382.654 217.727C378.544 217.727 375.222 215.453 375.222 212.632C375.222 209.812 378.544 207.538 382.654 207.538C386.764 207.538 390.087 209.812 390.087 212.632Z" fill="#2B2B2B"/>
<path d="M376.575 213.026C377.893 214.872 382.26 215.795 384.452 215.197" stroke="#3D3D3D" stroke-width="0.8589" stroke-miterlimit="10" stroke-linecap="round" stroke-linejoin="round"/>
<path d="M372.482 235.675C374.246 238.718 377.5 240.838 381.01 241.248" stroke="#636363" stroke-width="0.6442" stroke-miterlimit="10" stroke-linecap="round" stroke-linejoin="round"/>
<path d="M389.813 207.863C389.813 210.684 386.49 212.957 382.38 212.957C378.27 212.957 374.948 210.684 374.948 207.863C374.948 205.043 378.27 202.769 382.38 202.769C386.49 202.769 389.813 205.043 389.813 207.863Z" fill="#2B2B2B"/>
<path d="M391.268 199.06C391.268 203.658 387.535 207.368 382.928 207.368C382.706 207.368 382.483 207.35 382.26 207.333C382.106 207.316 381.935 207.299 381.781 207.282C381.575 207.248 381.353 207.214 381.147 207.162C380.736 207.077 380.325 206.957 379.948 206.803H379.931C379.794 206.752 379.674 206.701 379.555 206.65C376.626 205.368 374.588 202.444 374.588 199.043C374.588 198 374.794 196.974 375.153 196.051C375.564 196.034 375.992 196.051 376.403 196.068C376.9 196.103 377.414 196.171 377.91 196.256C379.058 196.479 380.188 196.838 381.25 197.368C382.945 198.205 384.453 199.419 385.531 200.957C385.686 201.162 385.925 201.282 386.165 201.282C386.319 201.282 386.473 201.231 386.61 201.145C386.953 200.906 387.038 200.427 386.799 200.085C385.634 198.427 384.076 197.111 382.329 196.171C381.233 195.59 380.051 195.145 378.835 194.855C378.304 194.735 377.756 194.632 377.208 194.581C376.797 194.53 376.386 194.513 375.975 194.496C377.465 192.222 380.034 190.718 382.945 190.718C385.429 190.718 387.672 191.812 389.196 193.538C389.282 193.641 389.368 193.761 389.47 193.863C389.642 194.085 389.813 194.308 389.967 194.547C390.207 194.906 390.395 195.265 390.566 195.658C390.618 195.795 390.686 195.915 390.72 196.051C390.772 196.188 390.823 196.325 390.875 196.462C390.96 196.735 391.046 197.009 391.097 197.299C391.132 197.436 391.149 197.59 391.183 197.726C391.2 197.846 391.217 197.983 391.234 198.103C391.251 198.137 391.251 198.171 391.251 198.205C391.251 198.479 391.268 198.769 391.268 199.06Z" fill="#2B2B2B"/>
<path d="M391.269 199.06C391.269 203.658 387.535 207.368 382.928 207.368C382.706 207.368 382.483 207.35 382.26 207.333C382.106 207.316 381.935 207.299 381.781 207.282C381.575 207.248 381.353 207.214 381.147 207.162C380.736 207.077 380.325 206.957 379.948 206.803H379.931C379.794 206.752 379.674 206.701 379.555 206.65C379.092 204.154 379.178 201.59 380.137 199.316C380.428 198.615 380.805 197.966 381.233 197.385C382.928 198.222 384.435 199.436 385.514 200.974C385.668 201.179 385.908 201.299 386.148 201.299C386.302 201.299 386.456 201.248 386.593 201.162C386.936 200.923 387.021 200.444 386.782 200.103C385.617 198.444 384.059 197.128 382.312 196.188C383.99 194.581 386.234 193.573 388.597 192.957C388.802 193.145 388.991 193.35 389.179 193.556C389.265 193.658 389.35 193.778 389.453 193.88C389.624 194.103 389.796 194.325 389.95 194.564C390.173 194.923 390.378 195.299 390.549 195.675C390.601 195.812 390.669 195.932 390.703 196.068C390.755 196.205 390.806 196.342 390.858 196.479C390.943 196.752 391.012 197.026 391.08 197.316C391.114 197.453 391.132 197.607 391.166 197.744C391.183 197.863 391.2 198 391.217 198.12C391.234 198.154 391.234 198.188 391.234 198.222C391.251 198.479 391.269 198.769 391.269 199.06Z" fill="#3D3D3D"/>
<path d="M377.91 201.316C378.082 201.692 377.91 202.12 377.551 202.291C377.448 202.342 377.345 202.359 377.243 202.359C376.969 202.359 376.694 202.205 376.575 201.932C375.735 200.103 375.684 197.966 376.403 196.103C376.9 196.137 377.414 196.205 377.91 196.291C377.208 197.846 377.208 199.761 377.91 201.316Z" fill="#3D3D3D"/>
<path d="M382.089 192.889C380.839 193.179 379.674 193.897 378.835 194.889C378.304 194.769 377.756 194.667 377.208 194.615C378.27 193.043 379.914 191.897 381.764 191.47C382.158 191.385 382.551 191.624 382.637 192.017C382.723 192.393 382.483 192.786 382.089 192.889Z" fill="#3D3D3D"/>
<path d="M386.782 200.103C385.617 198.444 384.059 197.128 382.312 196.188C381.25 195.624 380.103 195.179 378.938 194.889C378.39 194.752 377.842 194.65 377.294 194.547C376.951 194.496 376.044 194.513 375.992 194.513C375.958 194.513 377.876 195.812 378.065 196.325C379.161 196.547 380.24 196.906 381.233 197.402C382.928 198.239 384.435 199.453 385.514 200.991C385.668 201.197 385.908 201.316 386.148 201.316C386.302 201.316 386.456 201.265 386.593 201.179C386.953 200.923 387.038 200.444 386.782 200.103Z" fill="#2B2B2B"/>
<path d="M407.11 258.889C414.591 258.889 420.656 254.733 420.656 249.607C420.656 244.481 414.591 240.325 407.11 240.325C399.628 240.325 393.563 244.481 393.563 249.607C393.563 254.733 399.628 258.889 407.11 258.889Z" fill="#2B2B2B"/>
<path d="M420.81 247.932C420.81 252.376 414.748 255.966 407.264 255.966C399.78 255.966 393.717 252.359 393.717 247.932C393.717 243.487 399.78 239.897 407.264 239.897C414.748 239.897 420.81 243.504 420.81 247.932Z" fill="#353434"/>
<path d="M414.748 247.538C414.748 250.171 411.151 252.291 406.733 252.291C402.314 252.291 398.718 250.154 398.718 247.538C398.718 244.923 402.314 242.786 406.733 242.786C411.151 242.786 414.748 244.906 414.748 247.538Z" fill="#2B2B2B"/>
<path d="M394.128 249.214C396.355 253.043 400.465 255.727 404.866 256.239" stroke="#636363" stroke-width="0.8117" stroke-miterlimit="10" stroke-linecap="round" stroke-linejoin="round"/>
<path d="M415.056 246.068C414.696 247.333 413.96 248.564 412.693 249.761C410.141 252.171 406.151 252.821 402.914 251.453C400.602 250.479 398.667 248.444 398.033 245.966C397.297 243.094 398.307 240.239 399.968 237.915C401.903 235.231 403.787 232.991 404.438 229.385C404.541 228.821 404.626 228.342 404.678 227.658C404.318 228.274 403.821 228.667 402.88 229.162C401.903 229.675 400.824 229.983 399.831 230.496C398.769 231.06 397.571 231.453 396.766 232.325C395.927 233.248 395.635 234.53 395.087 235.658C394.334 237.18 392.073 238.12 390.84 236.513C389.213 234.393 392.056 231.658 392.519 229.624C393.204 226.598 392.793 222.94 395.447 220.65C398.495 218.051 403.428 218.171 406.818 219.983C409.73 221.538 412.059 224.513 412.213 227.88C412.333 230.427 411.254 232.94 412.47 235.402C414.182 238.923 416.032 242.598 415.056 246.068Z" fill="#2B2B2B"/>
<path d="M407.11 258.889C414.591 258.889 420.656 254.733 420.656 249.607C420.656 244.481 414.591 240.325 407.11 240.325C399.628 240.325 393.563 244.481 393.563 249.607C393.563 254.733 399.628 258.889 407.11 258.889Z" fill="#2B2B2B"/>
<path d="M420.81 247.932C420.81 252.376 414.748 255.966 407.264 255.966C399.78 255.966 393.717 252.359 393.717 247.932C393.717 243.487 399.78 239.897 407.264 239.897C414.748 239.897 420.81 243.504 420.81 247.932Z" fill="#353434"/>
<path d="M414.748 247.538C414.748 250.171 411.151 252.291 406.733 252.291C402.315 252.291 398.718 250.154 398.718 247.538C398.718 244.923 402.315 242.786 406.733 242.786C411.151 242.786 414.748 244.906 414.748 247.538Z" fill="#2B2B2B"/>
<path d="M394.128 249.214C396.355 253.043 400.465 255.727 404.866 256.239" stroke="#636363" stroke-width="0.8117" stroke-miterlimit="10" stroke-linecap="round" stroke-linejoin="round"/>
<path d="M415.054 246.068C414.694 247.333 413.958 248.564 412.691 249.761C410.139 252.171 406.149 252.821 402.912 251.453C400.6 250.479 398.665 248.444 398.031 245.966C397.295 243.094 398.305 240.239 399.966 237.915C401.902 235.231 403.785 232.991 404.436 229.385C404.539 228.821 404.625 228.342 404.676 227.658C404.316 228.274 403.82 228.667 402.878 229.162C401.902 229.675 400.823 229.983 399.829 230.496C398.768 231.06 397.569 231.453 396.764 232.325C395.925 233.248 395.634 234.53 395.086 235.658C394.332 237.18 392.071 238.12 390.838 236.513C389.211 234.393 392.054 231.658 392.517 229.624C393.202 226.598 392.791 222.94 395.445 220.65C398.494 218.051 403.426 218.171 406.817 219.983C409.728 221.538 412.057 224.513 412.211 227.88C412.331 230.427 411.252 232.94 412.468 235.402C414.181 238.923 416.03 242.598 415.054 246.068Z" fill="#2B2B2B"/>
<path d="M395.892 233.213C396.081 233.042 396.252 232.888 396.44 232.717C396.526 232.58 396.629 232.461 396.749 232.341C396.971 232.102 397.228 231.897 397.485 231.726C399.3 229.897 400.859 227.828 401.407 225.247C401.869 223.059 401.492 220.837 400.807 218.7C398.838 218.803 396.903 219.418 395.43 220.683C392.775 222.957 393.169 226.632 392.501 229.657C392.039 231.675 389.196 234.41 390.823 236.546C391.868 237.914 393.649 237.435 394.625 236.341C394.488 235.264 394.831 234.153 395.892 233.213Z" fill="#191919"/>
<path d="M402.76 237.897C401.595 239.026 401.099 240.701 400.876 242.308C400.636 244.103 400.773 246.171 402.143 247.368" stroke="#636363" stroke-width="0.8117" stroke-miterlimit="10" stroke-linecap="round" stroke-linejoin="round"/>
<path d="M402.092 222.393C400.996 222.393 400.105 221.504 400.105 220.41V217.299C400.105 216.205 400.996 215.316 402.092 215.316C403.188 215.316 404.078 216.205 404.078 217.299V220.41C404.078 221.504 403.188 222.393 402.092 222.393Z" fill="#2B2B2B"/>
<path d="M397.554 222.53C396.458 222.53 395.567 221.641 395.567 220.547V217.436C395.567 216.342 396.458 215.453 397.554 215.453C398.65 215.453 399.54 216.342 399.54 217.436V220.547C399.54 221.641 398.65 222.53 397.554 222.53Z" fill="#2B2B2B"/>
<path d="M397.691 220.821C396.184 221.983 395.156 223.761 394.899 225.641" stroke="#636363" stroke-width="0.8117" stroke-miterlimit="10" stroke-linecap="round" stroke-linejoin="round"/>
<path d="M400.722 235.658C400.345 236.274 399.9 236.855 399.557 237.487C398.804 238.923 398.65 240.65 398.992 242.256C400.088 239.368 401.698 236.667 403.719 234.342C404.352 233.607 405.037 232.889 405.483 232.034C405.945 231.128 406.116 230.103 406.219 229.094C406.322 228.103 406.322 226.974 405.603 226.291C404.986 225.709 403.993 225.675 403.205 225.983C400.739 226.94 401.664 227.983 401.903 230.017C402.126 231.949 401.732 233.966 400.722 235.658Z" fill="#2B2B2B"/>
<path d="M398.427 218.889C402.246 216.889 407.178 217.248 410.672 219.761C410.227 220.017 410.072 220.393 409.867 220.872C410.706 220.547 411.716 220.718 412.384 221.316C412.83 221.709 413.121 222.239 413.326 222.803C414.422 225.658 413.635 228.821 412.967 231.812C412.299 234.786 411.785 238.085 413.309 240.735C411.511 237.385 409.73 233.863 408.839 230.154C408.257 227.744 407.863 225.231 406.493 223.162C405.14 221.094 400.722 217.932 398.427 218.889Z" fill="#2B2B2B"/>
<path d="M308.946 187.573C308.946 192.359 303.277 196.239 296.29 196.239C289.302 196.239 283.634 192.359 283.634 187.573C283.634 182.786 289.302 178.906 296.29 178.906C303.277 178.906 308.946 182.786 308.946 187.573Z" fill="#2B2B2B"/>
<path d="M309.1 186.017C309.1 190.171 303.431 193.521 296.444 193.521C289.457 193.521 283.788 190.154 283.788 186.017C283.788 181.863 289.457 178.513 296.444 178.513C303.431 178.496 309.1 181.863 309.1 186.017Z" fill="#353434"/>
<path d="M303.431 185.624C303.431 188.085 300.075 190.068 295.947 190.068C291.82 190.068 288.463 188.085 288.463 185.624C288.463 183.162 291.82 181.179 295.947 181.179C300.075 181.179 303.431 183.179 303.431 185.624Z" fill="#2B2B2B"/>
<path d="M284.165 187.197C286.254 190.769 290.073 193.282 294.2 193.761" stroke="#636363" stroke-width="0.7582" stroke-miterlimit="10" stroke-linecap="round" stroke-linejoin="round"/>
<path d="M303.705 184.256C303.363 185.436 302.678 186.598 301.496 187.709C299.115 189.966 295.382 190.564 292.351 189.282C290.193 188.376 288.378 186.479 287.795 184.154C287.11 181.47 288.052 178.803 289.611 176.632C291.426 174.12 293.19 172.034 293.772 168.667C293.858 168.137 293.944 167.692 293.995 167.06C293.67 167.624 293.19 168 292.317 168.462C291.392 168.94 290.399 169.231 289.474 169.709C288.48 170.239 287.367 170.598 286.597 171.419C285.809 172.274 285.535 173.47 285.021 174.53C284.319 175.949 282.212 176.821 281.065 175.333C279.541 173.35 282.195 170.786 282.624 168.906C283.257 166.085 282.88 162.65 285.364 160.53C288.206 158.103 292.83 158.205 295.981 159.897C298.687 161.35 300.879 164.137 301.016 167.265C301.136 169.641 300.126 172 301.256 174.291C302.9 177.59 304.63 181.026 303.705 184.256Z" fill="#2B2B2B"/>
<path d="M308.946 187.573C308.946 192.359 303.277 196.239 296.29 196.239C289.302 196.239 283.634 192.359 283.634 187.573C283.634 182.786 289.302 178.906 296.29 178.906C303.277 178.906 308.946 182.786 308.946 187.573Z" fill="#2B2B2B"/>
<path d="M309.1 186.017C309.1 190.171 303.431 193.521 296.444 193.521C289.457 193.521 283.788 190.154 283.788 186.017C283.788 181.863 289.457 178.513 296.444 178.513C303.431 178.496 309.1 181.863 309.1 186.017Z" fill="#353434"/>
<path d="M303.431 185.624C303.431 188.085 300.075 190.068 295.947 190.068C291.82 190.068 288.463 188.085 288.463 185.624C288.463 183.162 291.82 181.179 295.947 181.179C300.075 181.179 303.431 183.179 303.431 185.624Z" fill="#2B2B2B"/>
<path d="M284.165 187.197C286.254 190.769 290.073 193.282 294.2 193.761" stroke="#636363" stroke-width="0.7582" stroke-miterlimit="10" stroke-linecap="round" stroke-linejoin="round"/>
<path d="M303.705 184.256C303.363 185.436 302.678 186.598 301.496 187.709C299.115 189.966 295.382 190.564 292.351 189.282C290.193 188.376 288.378 186.479 287.795 184.154C287.11 181.47 288.052 178.803 289.611 176.632C291.426 174.12 293.19 172.034 293.772 168.667C293.858 168.137 293.944 167.692 293.995 167.06C293.67 167.624 293.19 168 292.317 168.462C291.392 168.94 290.399 169.231 289.474 169.709C288.48 170.239 287.367 170.598 286.597 171.419C285.809 172.274 285.535 173.47 285.021 174.53C284.319 175.949 282.212 176.821 281.065 175.333C279.541 173.35 282.195 170.786 282.624 168.906C283.257 166.085 282.88 162.65 285.364 160.53C288.206 158.103 292.83 158.205 295.981 159.897C298.687 161.35 300.879 164.137 301.016 167.265C301.136 169.641 300.126 172 301.256 174.291C302.9 177.59 304.63 181.026 303.705 184.256Z" fill="#2B2B2B"/>
<path d="M285.808 172.256C285.979 172.102 286.151 171.948 286.322 171.795C286.407 171.675 286.51 171.555 286.613 171.436C286.818 171.213 287.058 171.025 287.315 170.854C289.011 169.145 290.466 167.213 290.98 164.803C291.408 162.752 291.066 160.683 290.432 158.683C288.582 158.769 286.784 159.35 285.414 160.53C282.931 162.649 283.308 166.085 282.674 168.906C282.246 170.786 279.591 173.35 281.116 175.333C282.092 176.598 283.753 176.171 284.661 175.128C284.506 174.171 284.832 173.128 285.808 172.256Z" fill="#191919"/>
<path d="M292.231 176.632C291.135 177.692 290.673 179.248 290.467 180.752C290.244 182.427 290.364 184.359 291.649 185.47" stroke="#636363" stroke-width="0.7582" stroke-miterlimit="10" stroke-linecap="round" stroke-linejoin="round"/>
<path d="M291.615 162.154C290.604 162.154 289.765 161.316 289.765 160.308V157.402C289.765 156.393 290.604 155.556 291.615 155.556C292.625 155.556 293.464 156.393 293.464 157.402V160.308C293.464 161.316 292.625 162.154 291.615 162.154Z" fill="#2B2B2B"/>
<path d="M287.367 162.273C286.357 162.273 285.518 161.436 285.518 160.427V157.521C285.518 156.513 286.357 155.675 287.367 155.675C288.378 155.675 289.217 156.513 289.217 157.521V160.427C289.234 161.453 288.395 162.273 287.367 162.273Z" fill="#2B2B2B"/>
<path d="M287.487 160.667C286.083 161.761 285.124 163.402 284.884 165.179" stroke="#636363" stroke-width="0.7582" stroke-miterlimit="10" stroke-linecap="round" stroke-linejoin="round"/>
<path d="M290.33 174.53C289.987 175.111 289.559 175.641 289.251 176.239C288.532 177.59 288.395 179.197 288.72 180.684C289.748 177.983 291.255 175.47 293.139 173.282C293.738 172.598 294.372 171.932 294.783 171.128C295.211 170.291 295.365 169.333 295.468 168.376C295.57 167.453 295.57 166.393 294.885 165.761C294.303 165.214 293.378 165.197 292.642 165.487C290.347 166.393 291.203 167.35 291.426 169.248C291.649 171.077 291.272 172.974 290.33 174.53Z" fill="#2B2B2B"/>
<path d="M288.189 158.889C291.751 157.026 296.358 157.35 299.629 159.692C299.218 159.932 299.064 160.291 298.893 160.735C299.663 160.427 300.623 160.598 301.239 161.145C301.65 161.504 301.924 162.017 302.13 162.53C303.14 165.197 302.421 168.154 301.804 170.94C301.171 173.726 300.708 176.803 302.13 179.282C300.451 176.154 298.773 172.855 297.951 169.402C297.42 167.162 297.026 164.803 295.759 162.872C294.457 160.94 290.33 157.983 288.189 158.889Z" fill="#2B2B2B"/>
<path d="M329.976 200.547C329.976 204.615 325.164 207.915 319.221 207.915C313.278 207.915 308.483 204.615 308.483 200.547C308.483 196.479 313.295 193.179 319.238 193.179C325.181 193.179 329.976 196.479 329.976 200.547Z" fill="#2B2B2B"/>
<path d="M319.358 205.59C325.298 205.59 330.113 202.735 330.113 199.214C330.113 195.692 325.298 192.838 319.358 192.838C313.418 192.838 308.603 195.692 308.603 199.214C308.603 202.735 313.418 205.59 319.358 205.59Z" fill="#353434"/>
<path d="M325.283 198.889C325.283 200.974 322.441 202.667 318.913 202.667C315.402 202.667 312.559 200.974 312.559 198.889C312.559 196.803 315.402 195.111 318.913 195.111C322.441 195.111 325.283 196.803 325.283 198.889Z" fill="#2B2B2B"/>
<path d="M319.067 202.376V178.239H314.272C316.669 181.966 316.806 187.556 314.563 191.385C313.963 192.41 313.21 193.35 312.645 194.41C311.583 196.41 311.223 198.615 313.227 200.598C314.631 201.983 319.204 202.444 319.067 202.376Z" fill="#2B2B2B"/>
<path d="M318.707 202.752V178.256H323.673C321.19 182.034 321.053 187.709 323.365 191.59C323.982 192.632 324.77 193.59 325.352 194.65C326.465 196.684 325.968 199.333 324.358 200.991C322.903 202.496 318.827 202.94 318.707 202.752Z" fill="#3D3D3D"/>
<path d="M326.533 177.162C326.533 179.983 323.211 182.256 319.101 182.256C314.991 182.256 311.668 179.983 311.668 177.162C311.668 174.342 314.991 172.068 319.101 172.068C323.211 172.068 326.533 174.359 326.533 177.162Z" fill="#2B2B2B"/>
<path d="M326.533 177.162C326.533 179.983 323.211 182.256 319.101 182.256C314.991 182.256 311.668 179.983 311.668 177.162C311.668 174.342 314.991 172.068 319.101 172.068C323.211 172.068 326.533 174.359 326.533 177.162Z" fill="#2B2B2B"/>
<path d="M313.021 177.573C314.34 179.419 318.707 180.342 320.899 179.744" stroke="#636363" stroke-width="0.8117" stroke-miterlimit="10" stroke-linecap="round" stroke-linejoin="round"/>
<path d="M308.928 200.222C310.692 203.265 313.946 205.385 317.457 205.795" stroke="#636363" stroke-width="0.6442" stroke-miterlimit="10" stroke-linecap="round" stroke-linejoin="round"/>
<path d="M318.827 177.487C322.932 177.487 326.26 175.207 326.26 172.393C326.26 169.58 322.932 167.299 318.827 167.299C314.722 167.299 311.395 169.58 311.395 172.393C311.395 175.207 314.722 177.487 318.827 177.487Z" fill="#2B2B2B"/>
<path d="M327.715 163.607C327.715 168.205 323.982 171.915 319.392 171.915C319.17 171.915 318.947 171.897 318.724 171.88C318.57 171.863 318.399 171.846 318.245 171.829C318.039 171.795 317.817 171.761 317.628 171.709C317.217 171.624 316.806 171.504 316.43 171.35H316.412C316.275 171.299 316.156 171.248 316.036 171.197C313.107 169.915 311.069 166.991 311.069 163.59C311.069 162.547 311.275 161.521 311.634 160.598C312.045 160.581 312.474 160.598 312.885 160.615C313.381 160.65 313.895 160.718 314.392 160.803C315.539 161.026 316.669 161.385 317.731 161.915C319.426 162.752 320.934 163.966 322.012 165.504C322.167 165.709 322.406 165.829 322.646 165.829C322.8 165.829 322.954 165.778 323.091 165.692C323.434 165.453 323.52 164.974 323.28 164.632C322.115 162.974 320.557 161.658 318.81 160.718C317.714 160.137 316.532 159.692 315.316 159.402C314.785 159.282 314.237 159.179 313.689 159.128C313.278 159.077 312.867 159.06 312.456 159.043C313.946 156.769 316.515 155.265 319.427 155.265C321.91 155.265 324.153 156.359 325.677 158.085C325.763 158.188 325.866 158.308 325.951 158.41C326.14 158.632 326.294 158.855 326.448 159.094C326.688 159.453 326.876 159.812 327.047 160.205C327.099 160.342 327.167 160.462 327.202 160.598C327.253 160.735 327.304 160.872 327.356 161.009C327.441 161.282 327.527 161.556 327.578 161.846C327.613 161.983 327.63 162.137 327.664 162.274C327.681 162.393 327.698 162.53 327.715 162.65C327.732 162.684 327.732 162.718 327.732 162.752C327.715 163.026 327.715 163.316 327.715 163.607Z" fill="#2B2B2B"/>
<path d="M327.715 163.607C327.715 168.205 323.982 171.915 319.392 171.915C319.17 171.915 318.947 171.897 318.724 171.88C318.57 171.863 318.399 171.846 318.245 171.829C318.039 171.795 317.817 171.761 317.628 171.709C317.217 171.624 316.806 171.504 316.429 171.35H316.412C316.275 171.299 316.155 171.248 316.036 171.197C315.573 168.701 315.659 166.137 316.618 163.863C316.909 163.162 317.286 162.513 317.714 161.932C319.409 162.769 320.916 163.983 321.995 165.521C322.149 165.726 322.389 165.846 322.629 165.846C322.783 165.846 322.937 165.795 323.074 165.709C323.417 165.47 323.502 164.991 323.263 164.65C322.098 162.991 320.54 161.675 318.793 160.735C320.471 159.128 322.715 158.12 325.078 157.504C325.283 157.692 325.472 157.897 325.66 158.103C325.746 158.205 325.849 158.325 325.934 158.427C326.105 158.65 326.277 158.872 326.431 159.111C326.653 159.47 326.859 159.846 327.03 160.222C327.082 160.359 327.15 160.479 327.184 160.615C327.236 160.752 327.287 160.889 327.338 161.026C327.424 161.299 327.493 161.573 327.561 161.863C327.595 162 327.612 162.154 327.647 162.291C327.664 162.41 327.681 162.547 327.698 162.667C327.715 162.701 327.715 162.735 327.715 162.769C327.715 163.026 327.715 163.316 327.715 163.607Z" fill="#3D3D3D"/>
<path d="M314.374 165.863C314.546 166.239 314.374 166.667 314.015 166.838C313.912 166.889 313.809 166.906 313.707 166.906C313.433 166.906 313.158 166.752 313.039 166.479C312.199 164.65 312.148 162.513 312.867 160.65C313.364 160.684 313.878 160.752 314.374 160.838C313.655 162.393 313.655 164.308 314.374 165.863Z" fill="#3D3D3D"/>
<path d="M318.536 157.436C317.286 157.726 316.121 158.444 315.282 159.436C314.751 159.316 314.203 159.214 313.655 159.162C314.717 157.59 316.361 156.444 318.211 156.017C318.604 155.932 318.998 156.171 319.084 156.564C319.17 156.94 318.93 157.333 318.536 157.436Z" fill="#3D3D3D"/>
<path d="M323.245 164.65C322.081 162.991 320.522 161.675 318.776 160.735C317.714 160.171 316.566 159.727 315.402 159.436C314.854 159.299 314.306 159.197 313.758 159.094C313.415 159.043 312.508 159.06 312.456 159.06C312.422 159.06 314.34 160.359 314.528 160.872C315.624 161.094 316.703 161.453 317.697 161.949C319.392 162.786 320.899 164 321.978 165.538C322.132 165.744 322.372 165.863 322.612 165.863C322.766 165.863 322.92 165.812 323.057 165.727C323.4 165.47 323.485 164.991 323.245 164.65Z" fill="#2B2B2B"/>
<path d="M283.942 200.615C283.942 203.932 280.02 206.615 275.174 206.615C270.327 206.615 266.406 203.932 266.406 200.615C266.406 197.299 270.327 194.615 275.174 194.615C280.02 194.598 283.942 197.299 283.942 200.615Z" fill="#2B2B2B"/>
<path d="M284.045 199.521C284.045 202.393 280.123 204.718 275.277 204.718C270.43 204.718 266.508 202.393 266.508 199.521C266.508 196.65 270.43 194.325 275.277 194.325C280.123 194.325 284.045 196.65 284.045 199.521Z" fill="#353434"/>
<path d="M280.123 199.265C280.123 200.957 277.794 202.342 274.934 202.342C272.074 202.342 269.745 200.957 269.745 199.265C269.745 197.573 272.074 196.188 274.934 196.188C277.794 196.188 280.123 197.573 280.123 199.265Z" fill="#2B2B2B"/>
<path d="M275.054 202.12V182.444H271.149C273.102 185.487 273.204 190.034 271.389 193.162C270.892 194 270.293 194.769 269.831 195.624C268.957 197.248 268.666 199.043 270.31 200.667C271.423 201.795 275.157 202.171 275.054 202.12Z" fill="#2B2B2B"/>
<path d="M274.746 202.41V182.444H278.787C276.749 185.521 276.647 190.154 278.53 193.316C279.044 194.171 279.678 194.94 280.14 195.812C281.048 197.47 280.637 199.641 279.335 200.991C278.171 202.205 274.848 202.564 274.746 202.41Z" fill="#3D3D3D"/>
<path d="M281.134 181.556C281.134 183.846 278.428 185.709 275.071 185.709C271.715 185.709 269.009 183.846 269.009 181.556C269.009 179.265 271.715 177.402 275.071 177.402C278.428 177.402 281.134 179.265 281.134 181.556Z" fill="#2B2B2B"/>
<path d="M281.134 181.556C281.134 183.846 278.428 185.709 275.071 185.709C271.715 185.709 269.009 183.846 269.009 181.556C269.009 179.265 271.715 177.402 275.071 177.402C278.428 177.402 281.134 179.265 281.134 181.556Z" fill="#2B2B2B"/>
<path d="M279.25 177.419C279.25 179.128 278.256 180.615 276.818 181.316C276.236 181.59 275.585 181.761 274.9 181.761C272.502 181.761 270.55 179.812 270.55 177.419C270.55 175.026 272.502 173.077 274.9 173.077C275.499 173.077 276.064 173.197 276.595 173.419C278.154 174.085 279.25 175.624 279.25 177.419Z" fill="#3D3D3D"/>
<path d="M279.25 177.419C279.25 179.128 278.256 180.615 276.818 181.316C276.321 181.111 275.842 180.803 275.431 180.393C273.735 178.701 273.735 175.949 275.431 174.256C275.773 173.915 276.167 173.624 276.595 173.436C278.154 174.085 279.25 175.624 279.25 177.419Z" fill="#2B2B2B"/>
<path d="M270.122 181.88C271.201 183.385 274.763 184.137 276.544 183.658" stroke="#3D3D3D" stroke-width="0.7003" stroke-miterlimit="10" stroke-linecap="round" stroke-linejoin="round"/>
<path d="M272.845 174.684C272.091 175.162 271.56 175.983 271.44 176.855C271.321 177.726 271.595 178.667 272.177 179.333" stroke="#636363" stroke-width="0.7003" stroke-miterlimit="10" stroke-linecap="round" stroke-linejoin="round"/>
<path d="M266.782 200.342C268.221 202.821 270.875 204.547 273.735 204.889" stroke="#636363" stroke-width="0.5252" stroke-miterlimit="10" stroke-linecap="round" stroke-linejoin="round"/>
<path d="M261.902 188.496C261.902 191.812 257.98 194.496 253.133 194.496C248.287 194.496 244.365 191.812 244.365 188.496C244.365 185.18 248.287 182.496 253.133 182.496C257.98 182.496 261.902 185.18 261.902 188.496Z" fill="#2B2B2B"/>
<path d="M262.004 187.402C262.004 190.274 258.083 192.598 253.236 192.598C248.389 192.598 244.468 190.274 244.468 187.402C244.468 184.53 248.389 182.205 253.236 182.205C258.083 182.205 262.004 184.53 262.004 187.402Z" fill="#353434"/>
<path d="M258.082 187.145C258.082 188.838 255.753 190.222 252.893 190.222C250.033 190.222 247.704 188.838 247.704 187.145C247.704 185.453 250.033 184.068 252.893 184.068C255.753 184.068 258.082 185.453 258.082 187.145Z" fill="#2B2B2B"/>
<path d="M253.013 190V170.325H249.109C251.061 173.368 251.164 177.915 249.348 181.043C248.852 181.88 248.252 182.65 247.79 183.504C246.917 185.128 246.625 186.923 248.27 188.547C249.4 189.675 253.116 190.051 253.013 190Z" fill="#2B2B2B"/>
<path d="M252.722 190.291V170.325H256.764C254.726 173.402 254.623 178.034 256.507 181.197C257.021 182.051 257.654 182.821 258.117 183.692C259.024 185.35 258.613 187.521 257.295 188.872C256.13 190.085 252.825 190.444 252.722 190.291Z" fill="#3D3D3D"/>
<path d="M259.11 169.436C259.11 171.727 256.404 173.59 253.048 173.59C249.708 173.59 246.985 171.727 246.985 169.436C246.985 167.145 249.691 165.282 253.048 165.282C256.387 165.282 259.11 167.145 259.11 169.436Z" fill="#2B2B2B"/>
<path d="M259.11 169.436C259.11 171.727 256.404 173.59 253.048 173.59C249.708 173.59 246.985 171.727 246.985 169.436C246.985 167.145 249.691 165.282 253.048 165.282C256.387 165.282 259.11 167.145 259.11 169.436Z" fill="#2B2B2B"/>
<path d="M257.209 165.316C257.209 167.026 256.216 168.513 254.777 169.214C254.195 169.487 253.544 169.658 252.859 169.658C250.462 169.658 248.509 167.709 248.509 165.316C248.509 162.923 250.462 160.974 252.859 160.974C253.459 160.974 254.024 161.094 254.555 161.316C256.113 161.966 257.209 163.504 257.209 165.316Z" fill="#3D3D3D"/>
<path d="M257.209 165.316C257.209 167.026 256.216 168.513 254.777 169.214C254.281 169.009 253.801 168.701 253.39 168.291C251.695 166.598 251.695 163.846 253.39 162.154C253.733 161.812 254.127 161.521 254.555 161.333C256.113 161.966 257.209 163.504 257.209 165.316Z" fill="#2B2B2B"/>
<path d="M248.081 169.778C249.16 171.282 252.722 172.034 254.503 171.556" stroke="#3D3D3D" stroke-width="0.7003" stroke-miterlimit="10" stroke-linecap="round" stroke-linejoin="round"/>
<path d="M250.821 162.564C250.068 163.043 249.537 163.863 249.417 164.735C249.297 165.607 249.571 166.547 250.153 167.214" stroke="#636363" stroke-width="0.7003" stroke-miterlimit="10" stroke-linecap="round" stroke-linejoin="round"/>
<path d="M244.742 188.239C246.18 190.718 248.835 192.444 251.695 192.786" stroke="#636363" stroke-width="0.5252" stroke-miterlimit="10" stroke-linecap="round" stroke-linejoin="round"/>
<path d="M297.06 219.179C301.903 219.179 305.829 216.493 305.829 213.179C305.829 209.866 301.903 207.179 297.06 207.179C292.218 207.179 288.292 209.866 288.292 213.179C288.292 216.493 292.218 219.179 297.06 219.179Z" fill="#2B2B2B"/>
<path d="M305.931 212.103C305.931 214.974 302.01 217.299 297.163 217.299C292.317 217.299 288.395 214.974 288.395 212.103C288.395 209.231 292.317 206.906 297.163 206.906C302.01 206.889 305.931 209.214 305.931 212.103Z" fill="#353434"/>
<path d="M301.993 211.829C301.993 213.521 299.664 214.906 296.804 214.906C293.944 214.906 291.615 213.521 291.615 211.829C291.615 210.137 293.944 208.752 296.804 208.752C299.681 208.752 301.993 210.137 301.993 211.829Z" fill="#2B2B2B"/>
<path d="M296.923 214.684V195.009H293.019C294.971 198.051 295.074 202.598 293.258 205.726C292.762 206.564 292.162 207.333 291.7 208.188C290.827 209.812 290.535 211.607 292.18 213.231C293.31 214.359 297.026 214.735 296.923 214.684Z" fill="#2B2B2B"/>
<path d="M296.632 214.974V195.009H300.674C298.636 198.085 298.533 202.718 300.417 205.88C300.931 206.735 301.564 207.504 302.027 208.376C302.935 210.034 302.524 212.205 301.205 213.556C300.04 214.769 296.735 215.128 296.632 214.974Z" fill="#3D3D3D"/>
<path d="M303.02 194.12C303.02 196.41 300.314 198.274 296.958 198.274C293.618 198.274 290.895 196.41 290.895 194.12C290.895 191.829 293.601 189.966 296.958 189.966C300.297 189.966 303.02 191.829 303.02 194.12Z" fill="#2B2B2B"/>
<path d="M303.02 194.12C303.02 196.41 300.314 198.274 296.958 198.274C293.618 198.274 290.895 196.41 290.895 194.12C290.895 191.829 293.601 189.966 296.958 189.966C300.297 189.966 303.02 191.829 303.02 194.12Z" fill="#2B2B2B"/>
<path d="M301.136 190C301.136 191.709 300.143 193.197 298.704 193.897C298.122 194.171 297.471 194.342 296.786 194.342C294.389 194.342 292.436 192.393 292.436 190C292.436 187.607 294.389 185.658 296.786 185.658C297.386 185.658 297.951 185.778 298.482 186C300.04 186.65 301.136 188.188 301.136 190Z" fill="#3D3D3D"/>
<path d="M301.136 190C301.136 191.709 300.143 193.197 298.704 193.897C298.208 193.692 297.728 193.385 297.317 192.974C295.622 191.282 295.622 188.53 297.317 186.838C297.66 186.496 298.054 186.205 298.482 186.017C300.04 186.65 301.136 188.188 301.136 190Z" fill="#2B2B2B"/>
<path d="M292.008 194.462C293.087 195.966 296.649 196.718 298.43 196.239" stroke="#3D3D3D" stroke-width="0.7003" stroke-miterlimit="10" stroke-linecap="round" stroke-linejoin="round"/>
<path d="M294.731 187.248C293.978 187.727 293.447 188.547 293.327 189.419C293.207 190.291 293.481 191.231 294.063 191.897" stroke="#636363" stroke-width="0.7003" stroke-miterlimit="10" stroke-linecap="round" stroke-linejoin="round"/>
<path d="M288.652 212.923C290.09 215.402 292.745 217.128 295.605 217.47" stroke="#636363" stroke-width="0.5252" stroke-miterlimit="10" stroke-linecap="round" stroke-linejoin="round"/>
<path d="M407.538 252.821C407.538 254.53 406.544 256.017 405.106 256.718C404.524 256.991 403.873 257.162 403.188 257.162C400.79 257.162 398.838 255.214 398.838 252.821C398.838 250.427 400.79 248.479 403.188 248.479C403.787 248.479 404.352 248.598 404.883 248.82C406.442 249.487 407.538 251.026 407.538 252.821Z" fill="#3D3D3D"/>
<path d="M407.538 252.821C407.538 254.53 406.545 256.017 405.106 256.718C404.609 256.513 404.13 256.205 403.719 255.795C402.023 254.103 402.023 251.35 403.719 249.658C404.061 249.316 404.455 249.026 404.883 248.821C406.442 249.487 407.538 251.026 407.538 252.821Z" fill="#2B2B2B"/>
<path d="M401.15 250.085C400.396 250.564 399.865 251.385 399.746 252.256C399.626 253.128 399.9 254.068 400.482 254.735" stroke="#636363" stroke-width="0.7003" stroke-miterlimit="10" stroke-linecap="round" stroke-linejoin="round"/>
<path d="M318.639 231.744C323.481 231.744 327.407 229.057 327.407 225.744C327.407 222.43 323.481 219.744 318.639 219.744C313.796 219.744 309.87 222.43 309.87 225.744C309.87 229.057 313.796 231.744 318.639 231.744Z" fill="#2B2B2B"/>
<path d="M327.51 224.667C327.51 227.538 323.588 229.863 318.741 229.863C313.895 229.863 309.973 227.538 309.973 224.667C309.973 221.795 313.895 219.47 318.741 219.47C323.588 219.453 327.51 221.795 327.51 224.667Z" fill="#353434"/>
<path d="M323.588 224.393C323.588 226.085 321.259 227.47 318.399 227.47C315.539 227.47 313.21 226.085 313.21 224.393C313.21 222.701 315.539 221.316 318.399 221.316C321.259 221.316 323.588 222.701 323.588 224.393Z" fill="#2B2B2B"/>
<path d="M318.519 227.248V207.573H314.614C316.566 210.615 316.669 215.162 314.854 218.291C314.357 219.128 313.758 219.897 313.295 220.752C312.422 222.376 312.131 224.171 313.775 225.795C314.888 226.923 318.622 227.299 318.519 227.248Z" fill="#2B2B2B"/>
<path d="M318.21 227.538V207.573H322.252C320.214 210.65 320.111 215.282 321.995 218.444C322.509 219.299 323.143 220.068 323.605 220.94C324.513 222.598 324.102 224.769 322.783 226.12C321.636 227.333 318.313 227.692 318.21 227.538Z" fill="#3D3D3D"/>
<path d="M324.598 206.684C324.598 208.974 321.893 210.838 318.536 210.838C315.196 210.838 312.473 208.974 312.473 206.684C312.473 204.393 315.179 202.53 318.536 202.53C321.893 202.53 324.598 204.393 324.598 206.684Z" fill="#2B2B2B"/>
<path d="M324.598 206.684C324.598 208.974 321.893 210.838 318.536 210.838C315.196 210.838 312.473 208.974 312.473 206.684C312.473 204.393 315.179 202.53 318.536 202.53C321.893 202.53 324.598 204.393 324.598 206.684Z" fill="#2B2B2B"/>
<path d="M322.715 202.564C322.715 204.274 321.721 205.761 320.283 206.462C319.7 206.735 319.05 206.906 318.365 206.906C315.967 206.906 314.015 204.957 314.015 202.564C314.015 200.171 315.967 198.222 318.365 198.222C318.964 198.222 319.529 198.342 320.06 198.564C321.619 199.214 322.715 200.752 322.715 202.564Z" fill="#3D3D3D"/>
<path d="M322.715 202.564C322.715 204.274 321.721 205.761 320.283 206.462C319.786 206.256 319.307 205.949 318.896 205.538C317.2 203.846 317.2 201.094 318.896 199.402C319.238 199.06 319.632 198.769 320.06 198.581C321.619 199.214 322.715 200.752 322.715 202.564Z" fill="#2B2B2B"/>
<path d="M313.587 207.026C314.665 208.53 318.228 209.282 320.009 208.803" stroke="#3D3D3D" stroke-width="0.7003" stroke-miterlimit="10" stroke-linecap="round" stroke-linejoin="round"/>
<path d="M316.31 199.812C315.556 200.291 315.025 201.111 314.905 201.983C314.785 202.855 315.059 203.795 315.642 204.462" stroke="#636363" stroke-width="0.7003" stroke-miterlimit="10" stroke-linecap="round" stroke-linejoin="round"/>
<path d="M310.247 225.487C311.686 227.966 314.34 229.692 317.2 230.034" stroke="#636363" stroke-width="0.5252" stroke-miterlimit="10" stroke-linecap="round" stroke-linejoin="round"/>
<path d="M381.764 264.051V244.376H377.859C379.811 247.419 379.914 251.966 378.099 255.094C377.602 255.932 377.003 256.701 376.54 257.556C375.667 259.179 375.376 260.974 377.02 262.598C378.15 263.726 381.866 264.103 381.764 264.051Z" fill="#2B2B2B"/>
<path d="M381.455 264.342V244.376H385.497C383.459 247.453 383.356 252.085 385.24 255.248C385.754 256.103 386.388 256.872 386.85 257.744C387.758 259.402 387.347 261.573 386.045 262.923C384.881 264.137 381.558 264.496 381.455 264.342Z" fill="#3D3D3D"/>
<path d="M387.843 243.487C387.843 245.778 385.137 247.641 381.781 247.641C378.441 247.641 375.718 245.778 375.718 243.487C375.718 241.197 378.424 239.333 381.781 239.333C385.137 239.333 387.843 241.197 387.843 243.487Z" fill="#2B2B2B"/>
<path d="M387.843 243.487C387.843 245.778 385.137 247.641 381.781 247.641C378.441 247.641 375.718 245.778 375.718 243.487C375.718 241.197 378.424 239.333 381.781 239.333C385.137 239.333 387.843 241.197 387.843 243.487Z" fill="#2B2B2B"/>
<path d="M385.96 239.368C385.96 241.077 384.966 242.564 383.528 243.265C382.945 243.538 382.295 243.709 381.61 243.709C379.212 243.709 377.26 241.761 377.26 239.368C377.26 236.974 379.212 235.026 381.61 235.026C382.209 235.026 382.774 235.145 383.305 235.368C384.863 236.017 385.96 237.556 385.96 239.368Z" fill="#3D3D3D"/>
<path d="M385.96 239.368C385.96 241.077 384.966 242.564 383.528 243.265C383.031 243.06 382.551 242.752 382.14 242.342C380.445 240.65 380.445 237.897 382.14 236.205C382.483 235.863 382.877 235.573 383.305 235.385C384.863 236.017 385.96 237.556 385.96 239.368Z" fill="#2B2B2B"/>
<path d="M376.832 243.829C377.91 245.333 381.473 246.085 383.254 245.607" stroke="#3D3D3D" stroke-width="0.7003" stroke-miterlimit="10" stroke-linecap="round" stroke-linejoin="round"/>
<path d="M379.554 236.615C378.801 237.094 378.27 237.915 378.15 238.786C378.03 239.658 378.304 240.598 378.887 241.265" stroke="#636363" stroke-width="0.7003" stroke-miterlimit="10" stroke-linecap="round" stroke-linejoin="round"/>
<path d="M350.783 213.436C350.783 217.504 345.971 220.803 340.029 220.803C334.086 220.803 329.274 217.504 329.274 213.436C329.274 209.368 334.086 206.068 340.029 206.068C345.971 206.068 350.783 209.368 350.783 213.436Z" fill="#2B2B2B"/>
<path d="M350.903 212.103C350.903 215.624 346.091 218.479 340.148 218.479C334.206 218.479 329.394 215.624 329.394 212.103C329.394 208.581 334.206 205.726 340.148 205.726C346.091 205.726 350.903 208.581 350.903 212.103Z" fill="#353434"/>
<path d="M346.091 211.778C346.091 213.863 343.248 215.556 339.737 215.556C336.227 215.556 333.384 213.863 333.384 211.778C333.384 209.692 336.227 208 339.737 208C343.248 208 346.091 209.692 346.091 211.778Z" fill="#2B2B2B"/>
<path d="M339.874 214.974V173.453H335.079C337.477 179.863 337.614 189.487 335.37 196.068C334.771 197.846 334.017 199.453 333.452 201.265C332.391 204.701 332.031 208.496 334.035 211.915C335.439 214.291 339.994 215.077 339.874 214.974Z" fill="#2B2B2B"/>
<path d="M339.498 215.607V173.453H344.464C341.981 179.966 341.844 189.727 344.156 196.41C344.772 198.205 345.56 199.846 346.142 201.692C347.256 205.179 346.759 209.761 345.149 212.615C343.693 215.179 339.635 215.932 339.498 215.607Z" fill="#3D3D3D"/>
<path d="M329.719 213.111C331.483 216.154 334.737 218.274 338.247 218.684" stroke="#636363" stroke-width="0.6442" stroke-miterlimit="10" stroke-linecap="round" stroke-linejoin="round"/>
<path d="M347.872 170.239C347.872 174.171 344.241 177.35 339.772 177.35C335.302 177.35 331.671 174.171 331.671 170.239C331.671 166.308 335.302 163.128 339.772 163.128C344.241 163.128 347.872 166.308 347.872 170.239Z" fill="#2B2B2B"/>
<path d="M340.149 172.513C341.108 174.154 342.563 175.368 344.259 176.137C346.434 174.855 347.872 172.684 347.872 170.222C347.872 166.376 344.396 163.248 340.063 163.111C338.71 166.239 338.453 169.59 340.149 172.513Z" fill="#3D3D3D"/>
<path d="M339.772 169.863C336.312 169.863 333.469 167.043 333.469 163.573V152.803C333.469 149.35 336.295 146.513 339.772 146.513C343.231 146.513 346.074 149.333 346.074 152.803V163.573C346.074 167.043 343.231 169.863 339.772 169.863Z" fill="#2B2B2B"/>
<path d="M346.074 150.94C346.074 153.299 343.351 155.214 340.011 155.214C336.655 155.214 333.949 153.299 333.949 150.94C333.949 148.581 336.672 146.667 340.011 146.667C343.351 146.667 346.074 148.581 346.074 150.94Z" fill="#3D3D3D"/>
<path d="M340.816 142.12C340.833 139.573 342.358 138.462 343.83 138.205C344.122 138.154 344.207 137.709 343.984 137.419C342.871 135.949 341.21 134.838 339.703 134.444C338.042 134.017 336.329 134.462 335.028 135.402C334.771 135.59 334.839 136.085 335.165 136.274C336.638 137.162 338.162 138.94 338.145 141.487C338.128 143.248 337.22 145.282 335.559 145.419C335.285 145.436 335.148 145.761 335.285 146.085C335.439 146.444 335.61 146.838 335.644 146.906C337.254 149.812 339.874 151.368 342.118 149.726C342.495 149.453 342.837 149.111 343.145 148.718C343.197 148.65 343.419 148.256 343.608 147.932C343.745 147.675 343.625 147.299 343.351 147.145C341.69 146.291 340.799 143.88 340.816 142.12Z" fill="#2B2B2B"/>
<path d="M339.532 143.06C341.981 143.658 343.317 145.316 343.83 146.718C343.933 147.009 344.361 147.162 344.618 147.026C345.834 146.342 346.588 145.077 346.708 143.778C346.827 142.359 346.091 140.684 344.961 139.265C344.738 138.974 344.276 138.94 344.139 139.179C343.556 140.325 342.118 141.316 339.669 140.701C337.991 140.291 335.867 138.991 335.439 137.436C335.37 137.179 335.028 136.974 334.754 137.043C334.428 137.111 334.103 137.162 334.035 137.179C331.534 137.983 330.524 140.034 332.493 142.462C332.819 142.872 333.213 143.265 333.641 143.624C333.709 143.692 334.12 143.966 334.48 144.222C334.754 144.41 335.096 144.376 335.182 144.171C335.696 142.906 337.854 142.65 339.532 143.06Z" fill="#2B2B2B"/>
<path d="M333.538 168.53C334.617 171.145 337.751 172.718 340.508 172.034" stroke="#636363" stroke-width="0.8117" stroke-miterlimit="10" stroke-linecap="round" stroke-linejoin="round"/>
<path d="M335.559 149.915C336.449 151.402 338.402 152.154 340.063 151.624" stroke="#636363" stroke-width="0.8117" stroke-miterlimit="10" stroke-linecap="round" stroke-linejoin="round"/>
<path d="M347.187 238.017C347.187 241.333 343.265 244.017 338.419 244.017C333.572 244.017 329.65 241.333 329.65 238.017C329.65 234.701 333.572 232.017 338.419 232.017C343.265 232 347.187 234.701 347.187 238.017Z" fill="#2B2B2B"/>
<path d="M338.522 242.12C343.364 242.12 347.29 239.793 347.29 236.923C347.29 234.053 343.364 231.726 338.522 231.726C333.679 231.726 329.753 234.053 329.753 236.923C329.753 239.793 333.679 242.12 338.522 242.12Z" fill="#353434"/>
<path d="M343.368 236.667C343.368 238.359 341.039 239.744 338.179 239.744C335.319 239.744 332.99 238.359 332.99 236.667C332.99 234.974 335.319 233.59 338.179 233.59C341.039 233.59 343.368 234.957 343.368 236.667Z" fill="#2B2B2B"/>
<path d="M338.299 239.521V219.846H334.394C336.346 222.889 336.449 227.436 334.634 230.564C334.137 231.402 333.538 232.171 333.075 233.026C332.202 234.65 331.911 236.444 333.555 238.068C334.685 239.197 338.402 239.556 338.299 239.521Z" fill="#2B2B2B"/>
<path d="M337.99 239.812V219.846H342.032C339.994 222.923 339.891 227.556 341.775 230.718C342.289 231.573 342.923 232.342 343.385 233.214C344.293 234.872 343.882 237.043 342.58 238.393C341.416 239.607 338.093 239.966 337.99 239.812Z" fill="#3D3D3D"/>
<path d="M344.378 218.957C344.378 221.248 341.673 223.111 338.316 223.111C334.976 223.111 332.254 221.248 332.254 218.957C332.254 216.667 334.959 214.803 338.316 214.803C341.673 214.803 344.378 216.667 344.378 218.957Z" fill="#2B2B2B"/>
<path d="M344.378 218.957C344.378 221.248 341.673 223.111 338.316 223.111C334.976 223.111 332.254 221.248 332.254 218.957C332.254 216.667 334.959 214.803 338.316 214.803C341.673 214.803 344.378 216.667 344.378 218.957Z" fill="#2B2B2B"/>
<path d="M342.495 214.821C342.495 216.53 341.501 218.017 340.063 218.718C339.481 218.991 338.83 219.162 338.145 219.162C335.747 219.162 333.795 217.214 333.795 214.821C333.795 212.427 335.747 210.479 338.145 210.479C338.744 210.479 339.309 210.598 339.84 210.821C341.399 211.487 342.495 213.026 342.495 214.821Z" fill="#3D3D3D"/>
<path d="M342.495 214.821C342.495 216.53 341.501 218.017 340.063 218.718C339.566 218.513 339.087 218.205 338.676 217.795C336.98 216.103 336.98 213.35 338.676 211.658C339.018 211.316 339.412 211.026 339.84 210.821C341.399 211.487 342.495 213.026 342.495 214.821Z" fill="#2B2B2B"/>
<path d="M333.367 219.282C334.446 220.786 338.008 221.538 339.789 221.06" stroke="#3D3D3D" stroke-width="0.7003" stroke-miterlimit="10" stroke-linecap="round" stroke-linejoin="round"/>
<path d="M336.09 212.085C335.336 212.564 334.805 213.385 334.685 214.256C334.566 215.128 334.84 216.068 335.422 216.735" stroke="#636363" stroke-width="0.7003" stroke-miterlimit="10" stroke-linecap="round" stroke-linejoin="round"/>
<path d="M330.027 237.744C331.466 240.222 334.12 241.949 336.98 242.291" stroke="#636363" stroke-width="0.5252" stroke-miterlimit="10" stroke-linecap="round" stroke-linejoin="round"/>
<path d="M362.052 231.573C367.992 231.573 372.807 228.274 372.807 224.205C372.807 220.136 367.992 216.838 362.052 216.838C356.112 216.838 351.297 220.136 351.297 224.205C351.297 228.274 356.112 231.573 362.052 231.573Z" fill="#2B2B2B"/>
<path d="M362.189 229.248C368.129 229.248 372.944 226.393 372.944 222.872C372.944 219.35 368.129 216.496 362.189 216.496C356.249 216.496 351.434 219.35 351.434 222.872C351.434 226.393 356.249 229.248 362.189 229.248Z" fill="#353434"/>
<path d="M361.761 226.325C365.27 226.325 368.115 224.633 368.115 222.547C368.115 220.461 365.27 218.769 361.761 218.769C358.252 218.769 355.407 220.461 355.407 222.547C355.407 224.633 358.252 226.325 361.761 226.325Z" fill="#2B2B2B"/>
<path d="M361.898 225.761V184.239H357.103C359.5 190.65 359.637 200.274 357.394 206.855C356.795 208.632 356.041 210.239 355.476 212.051C354.414 215.487 354.054 219.282 356.058 222.701C357.462 225.06 362.035 225.863 361.898 225.761Z" fill="#2B2B2B"/>
<path d="M361.538 226.376V184.222H366.505C364.022 190.735 363.885 200.496 366.197 207.179C366.813 208.974 367.601 210.615 368.183 212.462C369.296 215.949 368.8 220.53 367.19 223.385C365.734 225.949 361.658 226.701 361.538 226.376Z" fill="#3D3D3D"/>
<path d="M351.76 223.88C353.524 226.923 356.777 229.043 360.288 229.453" stroke="#636363" stroke-width="0.6442" stroke-miterlimit="10" stroke-linecap="round" stroke-linejoin="round"/>
<path d="M369.896 181.009C369.896 184.94 366.265 188.12 361.795 188.12C357.325 188.12 353.695 184.94 353.695 181.009C353.695 177.077 357.325 173.897 361.795 173.897C366.265 173.897 369.896 177.077 369.896 181.009Z" fill="#2B2B2B"/>
<path d="M362.189 183.299C363.148 184.94 364.604 186.154 366.299 186.923C368.474 185.641 369.913 183.47 369.913 181.009C369.913 177.162 366.436 174.034 362.103 173.897C360.733 177.009 360.476 180.359 362.189 183.299Z" fill="#3D3D3D"/>
<path d="M361.812 180.65C358.353 180.65 355.51 177.829 355.51 174.359V163.59C355.51 160.137 358.336 157.299 361.812 157.299C365.272 157.299 368.115 160.12 368.115 163.59V174.359C368.097 177.812 365.272 180.65 361.812 180.65Z" fill="#2B2B2B"/>
<path d="M368.097 161.709C368.097 164.068 365.374 165.983 362.035 165.983C358.678 165.983 355.972 164.068 355.972 161.709C355.972 159.35 358.695 157.436 362.035 157.436C365.391 157.436 368.097 159.35 368.097 161.709Z" fill="#3D3D3D"/>
<path d="M355.579 179.299C356.658 181.915 359.792 183.487 362.549 182.803" stroke="#636363" stroke-width="0.8117" stroke-miterlimit="10" stroke-linecap="round" stroke-linejoin="round"/>
<path d="M357.582 160.684C358.473 162.171 360.425 162.923 362.086 162.393" stroke="#636363" stroke-width="0.8117" stroke-miterlimit="10" stroke-linecap="round" stroke-linejoin="round"/>
<path d="M369.519 153.658C369.519 157.47 366.419 160.564 362.6 160.564C358.781 160.564 355.681 157.47 355.681 153.658C355.681 149.846 358.781 146.752 362.6 146.752C366.419 146.752 369.519 149.846 369.519 153.658Z" fill="#2B2B2B"/>
<path d="M357.617 149.333C358.487 149.333 359.192 148.629 359.192 147.761C359.192 146.892 358.487 146.188 357.617 146.188C356.746 146.188 356.041 146.892 356.041 147.761C356.041 148.629 356.746 149.333 357.617 149.333Z" fill="#2B2B2B"/>
<path d="M361.436 147.761C362.306 147.761 363.011 147.057 363.011 146.188C363.011 145.319 362.306 144.615 361.436 144.615C360.566 144.615 359.86 145.319 359.86 146.188C359.86 147.057 360.566 147.761 361.436 147.761Z" fill="#2B2B2B"/>
<path d="M365.375 148.103C366.245 148.103 366.95 147.398 366.95 146.53C366.95 145.661 366.245 144.957 365.375 144.957C364.504 144.957 363.799 145.661 363.799 146.53C363.799 147.398 364.504 148.103 365.375 148.103Z" fill="#2B2B2B"/>
<path d="M369.861 148.667C369.861 149.538 369.159 150.239 368.286 150.239C367.412 150.239 366.71 149.538 366.71 148.667C366.71 147.795 367.412 147.094 368.286 147.094C369.159 147.094 369.861 147.795 369.861 148.667Z" fill="#2B2B2B"/>
<path d="M358.85 151.248C358.798 152.12 358.062 152.786 357.188 152.735C356.315 152.684 355.647 151.949 355.699 151.077C355.75 150.205 356.486 149.538 357.36 149.59C358.233 149.641 358.901 150.393 358.85 151.248Z" fill="#3D3D3D"/>
<path d="M362.104 154.803C362.104 155.675 361.401 156.376 360.528 156.376C359.655 156.376 358.952 155.675 358.952 154.803C358.952 153.932 359.655 153.231 360.528 153.231C361.401 153.231 362.104 153.932 362.104 154.803Z" fill="#3D3D3D"/>
<path d="M366.984 155.128C366.984 156 366.282 156.701 365.409 156.701C364.535 156.701 363.833 156 363.833 155.128C363.833 154.256 364.535 153.556 365.409 153.556C366.282 153.556 366.984 154.274 366.984 155.128Z" fill="#3D3D3D"/>
<path d="M369.159 153.487C370.029 153.487 370.735 152.783 370.735 151.915C370.735 151.046 370.029 150.342 369.159 150.342C368.289 150.342 367.584 151.046 367.584 151.915C367.584 152.783 368.289 153.487 369.159 153.487Z" fill="#3D3D3D"/>
<path d="M366.556 142.291C366.419 140.991 365.529 140.12 364.707 139.197C363.902 138.291 363.319 137.026 363.439 135.778C363.336 137.009 362.908 138.53 362.001 139.419C361.179 140.205 360.339 141.094 360.151 142.256C360.014 143.111 360.271 144.017 360.768 144.718C361.23 145.35 362.035 145.761 362.121 146.632C362.206 147.641 361.829 148.684 361.213 149.47C361.144 149.573 361.59 150.376 362.703 150.581C363.354 150.701 363.884 150.53 364.467 150.188C364.587 150.12 365.135 149.59 365.135 149.573C365.135 149.556 364.998 149.402 364.963 149.35C364.518 148.752 364.124 148.085 364.124 147.35C364.124 146.479 364.638 145.863 365.272 145.299C366.145 144.53 366.676 143.521 366.59 142.325C366.556 142.342 366.556 142.325 366.556 142.291Z" fill="#3D3D3D"/>
<path d="M362.018 135.624C362.018 134.838 362.651 134.188 363.456 134.188C364.244 134.188 364.895 134.821 364.895 135.624C364.895 136.427 364.261 137.06 363.456 137.06C362.669 137.06 362.018 136.41 362.018 135.624Z" fill="#3D3D3D"/>
<path d="M365.254 149.863C365.254 150.581 364.313 151.145 363.165 151.145C362.001 151.145 361.076 150.564 361.076 149.863C361.076 149.162 362.018 148.581 363.165 148.581C364.33 148.581 365.254 149.162 365.254 149.863Z" fill="#3D3D3D"/>
<path d="M369.673 250.872C369.673 254.188 365.751 256.872 360.905 256.872C356.058 256.872 352.136 254.188 352.136 250.872C352.136 247.556 356.058 244.872 360.905 244.872C365.751 244.872 369.673 247.556 369.673 250.872Z" fill="#2B2B2B"/>
<path d="M369.776 249.795C369.776 252.667 365.854 254.991 361.007 254.991C356.161 254.991 352.239 252.667 352.239 249.795C352.239 246.923 356.161 244.598 361.007 244.598C365.854 244.598 369.776 246.923 369.776 249.795Z" fill="#353434"/>
<path d="M360.665 252.598C363.531 252.598 365.854 251.221 365.854 249.521C365.854 247.822 363.531 246.444 360.665 246.444C357.799 246.444 355.476 247.822 355.476 249.521C355.476 251.221 357.799 252.598 360.665 252.598Z" fill="#2B2B2B"/>
<path d="M360.785 252.376V232.701H356.88C358.832 235.744 358.935 240.291 357.12 243.419C356.623 244.256 356.024 245.026 355.561 245.88C354.688 247.504 354.397 249.299 356.041 250.923C357.154 252.051 360.87 252.427 360.785 252.376Z" fill="#2B2B2B"/>
<path d="M360.477 252.684V232.718H364.518C362.48 235.795 362.378 240.427 364.261 243.59C364.775 244.444 365.409 245.214 365.871 246.085C366.779 247.744 366.368 249.915 365.066 251.265C363.902 252.479 360.579 252.838 360.477 252.684Z" fill="#3D3D3D"/>
<path d="M366.864 231.829C366.864 234.12 364.159 235.983 360.802 235.983C357.462 235.983 354.74 234.12 354.74 231.829C354.74 229.538 357.445 227.675 360.802 227.675C364.159 227.675 366.864 229.538 366.864 231.829Z" fill="#2B2B2B"/>
<path d="M366.864 231.829C366.864 234.12 364.159 235.983 360.802 235.983C357.462 235.983 354.74 234.12 354.74 231.829C354.74 229.538 357.445 227.675 360.802 227.675C364.159 227.675 366.864 229.538 366.864 231.829Z" fill="#2B2B2B"/>
<path d="M364.981 227.692C364.981 229.402 363.987 230.889 362.549 231.59C361.966 231.863 361.316 232.034 360.631 232.034C358.233 232.034 356.281 230.085 356.281 227.692C356.281 225.299 358.233 223.35 360.631 223.35C361.23 223.35 361.795 223.47 362.326 223.692C363.885 224.342 364.981 225.897 364.981 227.692Z" fill="#3D3D3D"/>
<path d="M364.98 227.692C364.98 229.402 363.987 230.889 362.549 231.59C362.052 231.385 361.572 231.077 361.161 230.667C359.466 228.974 359.466 226.222 361.161 224.53C361.504 224.188 361.898 223.897 362.326 223.709C363.884 224.342 364.98 225.897 364.98 227.692Z" fill="#2B2B2B"/>
<path d="M355.853 232.154C356.931 233.658 360.494 234.41 362.275 233.932" stroke="#3D3D3D" stroke-width="0.7003" stroke-miterlimit="10" stroke-linecap="round" stroke-linejoin="round"/>
<path d="M358.576 224.94C357.822 225.419 357.291 226.239 357.171 227.111C357.051 227.983 357.325 228.923 357.908 229.59" stroke="#636363" stroke-width="0.7003" stroke-miterlimit="10" stroke-linecap="round" stroke-linejoin="round"/>
<path d="M153.993 250.427C153.993 253.744 150.071 256.427 145.225 256.427C140.378 256.427 136.456 253.744 136.456 250.427C136.456 247.111 140.378 244.427 145.225 244.427C150.071 244.427 153.993 247.111 153.993 250.427Z" fill="#EDB658"/>
<path d="M154.096 249.35C154.096 252.222 150.174 254.547 145.328 254.547C140.481 254.547 136.559 252.222 136.559 249.35C136.559 246.479 140.481 244.154 145.328 244.154C150.174 244.137 154.096 246.479 154.096 249.35Z" fill="#D1995C"/>
<path d="M150.174 249.077C150.174 250.769 147.845 252.154 144.985 252.154C142.125 252.154 139.796 250.769 139.796 249.077C139.796 247.385 142.125 246 144.985 246C147.862 246 150.174 247.385 150.174 249.077Z" fill="#EDB658"/>
<path d="M145.105 251.932V232.256H141.2C143.153 235.299 143.255 239.846 141.44 242.974C140.943 243.812 140.344 244.581 139.882 245.436C139.008 247.06 138.717 248.855 140.361 250.479C141.491 251.607 145.208 251.983 145.105 251.932Z" fill="#EDB658"/>
<path d="M144.814 252.222V232.256H148.855C146.817 235.333 146.715 239.966 148.598 243.128C149.112 243.983 149.746 244.752 150.208 245.624C151.116 247.282 150.705 249.453 149.403 250.803C148.222 252.017 144.899 252.376 144.814 252.222Z" fill="#FFE5AC"/>
<path d="M151.202 231.368C151.202 233.658 148.496 235.521 145.139 235.521C141.8 235.521 139.077 233.658 139.077 231.368C139.077 229.077 141.783 227.214 145.139 227.214C148.479 227.214 151.202 229.077 151.202 231.368Z" fill="#EDB658"/>
<path d="M151.202 231.368C151.202 233.658 148.496 235.521 145.139 235.521C141.8 235.521 139.077 233.658 139.077 231.368C139.077 229.077 141.783 227.214 145.139 227.214C148.479 227.214 151.202 229.077 151.202 231.368Z" fill="#EDB658"/>
<path d="M149.301 227.248C149.301 228.957 148.307 230.444 146.869 231.145C146.287 231.419 145.636 231.59 144.951 231.59C142.553 231.59 140.601 229.641 140.601 227.248C140.601 224.855 142.553 222.906 144.951 222.906C145.55 222.906 146.115 223.026 146.646 223.248C148.205 223.897 149.301 225.436 149.301 227.248Z" fill="#FFE5AC"/>
<path d="M149.301 227.248C149.301 228.957 148.307 230.444 146.869 231.145C146.372 230.94 145.893 230.632 145.482 230.222C143.786 228.53 143.786 225.778 145.482 224.085C145.824 223.744 146.218 223.453 146.646 223.248C148.205 223.897 149.301 225.436 149.301 227.248Z" fill="#EDB658"/>
<path d="M140.173 231.709C141.252 233.214 144.814 233.966 146.595 233.487" stroke="#FFE5AC" stroke-width="0.7003" stroke-miterlimit="10" stroke-linecap="round" stroke-linejoin="round"/>
<path d="M142.913 224.496C142.159 224.974 141.628 225.795 141.509 226.667C141.389 227.538 141.663 228.479 142.245 229.145" stroke="#FFFEC9" stroke-width="0.7003" stroke-miterlimit="10" stroke-linecap="round" stroke-linejoin="round"/>
<path d="M136.833 250.171C138.272 252.65 140.926 254.376 143.786 254.718" stroke="#FFFEC9" stroke-width="0.5252" stroke-miterlimit="10" stroke-linecap="round" stroke-linejoin="round"/>
<path d="M167.145 264.051V244.376H163.241C165.193 247.419 165.296 251.966 163.481 255.094C162.984 255.932 162.385 256.701 161.922 257.556C161.049 259.179 160.758 260.974 162.402 262.598C163.515 263.726 167.231 264.103 167.145 264.051Z" fill="#EDB658"/>
<path d="M166.837 264.342V244.376H170.879C168.841 247.453 168.738 252.085 170.622 255.248C171.136 256.103 171.769 256.872 172.232 257.744C173.14 259.402 172.728 261.573 171.427 262.923C170.262 264.137 166.94 264.496 166.837 264.342Z" fill="#EDB658"/>
<path d="M173.225 243.487C173.225 245.778 170.519 247.641 167.163 247.641C163.823 247.641 161.1 245.778 161.1 243.487C161.1 241.197 163.806 239.333 167.163 239.333C170.519 239.333 173.225 241.197 173.225 243.487Z" fill="#EDB658"/>
<path d="M173.225 243.487C173.225 245.778 170.519 247.641 167.163 247.641C163.823 247.641 161.1 245.778 161.1 243.487C161.1 241.197 163.806 239.333 167.163 239.333C170.519 239.333 173.225 241.197 173.225 243.487Z" fill="#EDB658"/>
<path d="M171.341 239.368C171.341 241.077 170.348 242.564 168.909 243.265C168.327 243.538 167.676 243.709 166.991 243.709C164.594 243.709 162.641 241.761 162.641 239.368C162.641 236.974 164.594 235.026 166.991 235.026C167.591 235.026 168.156 235.145 168.687 235.368C170.245 236.017 171.341 237.556 171.341 239.368Z" fill="#FFE5AC"/>
<path d="M171.341 239.368C171.341 241.077 170.348 242.564 168.909 243.265C168.413 243.06 167.933 242.752 167.522 242.342C165.827 240.65 165.827 237.897 167.522 236.205C167.865 235.863 168.259 235.573 168.687 235.385C170.245 236.017 171.341 237.556 171.341 239.368Z" fill="#EDB658"/>
<path d="M162.213 243.829C163.292 245.333 166.854 246.085 168.635 245.607" stroke="#FFE5AC" stroke-width="0.7003" stroke-miterlimit="10" stroke-linecap="round" stroke-linejoin="round"/>
<path d="M164.936 236.615C164.183 237.094 163.652 237.915 163.532 238.786C163.412 239.658 163.686 240.598 164.268 241.265" stroke="#FFFEC9" stroke-width="0.7003" stroke-miterlimit="10" stroke-linecap="round" stroke-linejoin="round"/>
<path d="M192.32 251.932C192.32 253.641 191.327 255.128 189.888 255.829C189.306 256.103 188.655 256.273 187.97 256.273C185.573 256.273 183.62 254.325 183.62 251.932C183.62 249.538 185.573 247.59 187.97 247.59C188.57 247.59 189.135 247.709 189.666 247.932C191.224 248.581 192.32 250.12 192.32 251.932Z" fill="#FFE5AC"/>
<path d="M192.32 251.932C192.32 253.641 191.327 255.128 189.888 255.829C189.392 255.624 188.912 255.316 188.501 254.906C186.806 253.214 186.806 250.462 188.501 248.769C188.844 248.427 189.238 248.137 189.666 247.932C191.224 248.581 192.32 250.12 192.32 251.932Z" fill="#EDB658"/>
<path d="M185.915 249.179C185.162 249.658 184.631 250.479 184.511 251.35C184.391 252.222 184.665 253.162 185.247 253.829" stroke="#FFFEC9" stroke-width="0.7003" stroke-miterlimit="10" stroke-linecap="round" stroke-linejoin="round"/>
<path d="M125.445 265.897V242.632H120.821C123.133 246.222 123.252 251.607 121.112 255.299C120.53 256.291 119.81 257.197 119.262 258.205C118.235 260.137 117.892 262.256 119.827 264.171C121.163 265.504 125.564 265.949 125.445 265.897Z" fill="#EDB658"/>
<path d="M125.085 266.239V242.632H129.863C127.465 246.274 127.346 251.744 129.572 255.487C130.171 256.496 130.925 257.419 131.49 258.444C132.552 260.41 132.089 262.957 130.531 264.564C129.127 266 125.205 266.427 125.085 266.239Z" fill="#FFE5AC"/>
<path d="M125.479 246.496C129.432 246.496 132.637 244.299 132.637 241.59C132.637 238.88 129.432 236.684 125.479 236.684C121.525 236.684 118.32 238.88 118.32 241.59C118.32 244.299 121.525 246.496 125.479 246.496Z" fill="#2B2B2B"/>
<path d="M125.479 246.496C129.432 246.496 132.637 244.299 132.637 241.59C132.637 238.88 129.432 236.684 125.479 236.684C121.525 236.684 118.32 238.88 118.32 241.59C118.32 244.299 121.525 246.496 125.479 246.496Z" fill="#EDB658"/>
<path d="M119.605 241.983C120.889 243.761 125.085 244.65 127.209 244.085" stroke="#FFE5AC" stroke-width="0.5251" stroke-miterlimit="10" stroke-linecap="round" stroke-linejoin="round"/>
<path d="M125.205 241.897C129.158 241.897 132.363 239.701 132.363 236.991C132.363 234.282 129.158 232.085 125.205 232.085C121.251 232.085 118.046 234.282 118.046 236.991C118.046 239.701 121.251 241.897 125.205 241.897Z" fill="#EDB658"/>
<path d="M119.399 237.59C118.611 237.59 117.978 236.957 117.978 236.171V229.453C117.978 228.667 118.611 228.034 119.399 228.034C120.187 228.034 120.821 228.667 120.821 229.453V236.171C120.804 236.957 120.17 237.59 119.399 237.59Z" fill="#EDB658"/>
<path d="M119.485 239.88C118.697 239.88 118.063 239.248 118.063 238.462V231.744C118.063 230.957 118.697 230.325 119.485 230.325C120.273 230.325 120.906 230.957 120.906 231.744V238.462C120.906 239.248 120.256 239.88 119.485 239.88Z" fill="#FFE5AC"/>
<path d="M123.372 235.47C122.585 235.47 121.951 234.838 121.951 234.051V227.333C121.951 226.547 122.585 225.915 123.372 225.915C124.16 225.915 124.794 226.547 124.794 227.333V234.051C124.794 234.838 124.16 235.47 123.372 235.47Z" fill="#EDB658"/>
<path d="M127.277 234.855C126.489 234.855 125.856 234.222 125.856 233.436V226.718C125.856 225.932 126.489 225.299 127.277 225.299C128.065 225.299 128.699 225.932 128.699 226.718V233.436C128.699 234.205 128.065 234.855 127.277 234.855Z" fill="#EDB658"/>
<path d="M130.822 236.701C130.034 236.701 129.401 236.068 129.401 235.282V228.564C129.401 227.778 130.034 227.145 130.822 227.145C131.61 227.145 132.243 227.778 132.243 228.564V235.282C132.243 236.068 131.61 236.701 130.822 236.701Z" fill="#EDB658"/>
<path d="M123.475 240.957C122.687 240.957 122.054 240.325 122.054 239.538V232.821C122.054 232.034 122.687 231.402 123.475 231.402C124.263 231.402 124.897 232.034 124.897 232.821V239.538C124.879 240.308 124.246 240.957 123.475 240.957Z" fill="#FFE5AC"/>
<path d="M127.551 241.043C126.763 241.043 126.13 240.41 126.13 239.624V232.906C126.13 232.12 126.763 231.487 127.551 231.487C128.339 231.487 128.972 232.12 128.972 232.906V239.624C128.955 240.41 128.322 241.043 127.551 241.043Z" fill="#FFE5AC"/>
<path d="M131.267 239.983C130.48 239.983 129.846 239.35 129.846 238.564V231.846C129.846 231.06 130.48 230.427 131.267 230.427C132.055 230.427 132.689 231.06 132.689 231.846V238.564C132.689 239.333 132.038 239.983 131.267 239.983Z" fill="#FFE5AC"/>
<path d="M118.063 235.197C121.386 238.205 125.701 239.521 129.76 237.59C130.599 237.197 132.089 236.239 132.603 235.47L132.654 238.684C130.925 240.821 128.219 242.12 125.462 242.154C122.705 242.188 119.964 240.957 118.183 238.889L118.063 235.197Z" fill="#FFE5AC"/>
<path d="M139.094 271.402C139.436 272.581 140.121 273.744 141.303 274.855C143.701 277.111 147.434 277.709 150.482 276.444C152.657 275.538 154.473 273.624 155.055 271.299C155.74 268.598 154.798 265.932 153.24 263.761C151.424 261.248 149.66 259.145 149.061 255.761C148.975 255.231 148.89 254.786 148.838 254.154C149.164 254.735 149.643 255.111 150.534 255.573C151.458 256.051 152.469 256.342 153.394 256.821C154.387 257.35 155.517 257.709 156.271 258.547C157.059 259.402 157.333 260.615 157.846 261.658C158.548 263.094 160.672 263.966 161.819 262.462C163.344 260.462 160.672 257.897 160.244 256.017C159.61 253.179 159.987 249.744 157.487 247.607C154.627 245.162 150.003 245.282 146.817 246.974C144.094 248.427 141.902 251.214 141.748 254.376C141.628 256.752 142.656 259.128 141.508 261.419C139.916 264.701 138.169 268.154 139.094 271.402Z" fill="#2B2B2B"/>
<path d="M139.094 271.402C139.436 272.581 140.121 273.744 141.303 274.855C143.701 277.111 147.434 277.709 150.482 276.444C152.657 275.538 154.473 273.624 155.055 271.299C155.74 268.598 154.798 265.932 153.24 263.761C151.424 261.248 149.66 259.145 149.061 255.761C148.975 255.231 148.89 254.786 148.838 254.154C149.164 254.735 149.643 255.111 150.534 255.573C151.458 256.051 152.469 256.342 153.394 256.821C154.387 257.35 155.517 257.709 156.271 258.547C157.059 259.402 157.333 260.615 157.846 261.658C158.548 263.094 160.672 263.966 161.819 262.462C163.344 260.462 160.672 257.897 160.244 256.017C159.61 253.179 159.987 249.744 157.487 247.607C154.627 245.162 150.003 245.282 146.817 246.974C144.094 248.427 141.902 251.214 141.748 254.376C141.628 256.752 142.656 259.128 141.508 261.419C139.916 264.701 138.169 268.154 139.094 271.402Z" fill="#EDB658"/>
<path d="M151.253 249.214C152.28 249.214 153.12 248.376 153.12 247.35V244.427C153.12 243.402 152.28 242.564 151.253 242.564C150.225 242.564 149.386 243.402 149.386 244.427V247.35C149.386 248.376 150.225 249.214 151.253 249.214Z" fill="#EDB658"/>
<path d="M155.5 249.333C156.528 249.333 157.367 248.496 157.367 247.47V244.547C157.367 243.521 156.528 242.684 155.5 242.684C154.473 242.684 153.633 243.521 153.633 244.547V247.47C153.633 248.513 154.473 249.333 155.5 249.333Z" fill="#EDB658"/>
<path d="M154.678 245.932C151.099 244.068 146.475 244.393 143.187 246.752C143.615 246.991 143.752 247.35 143.94 247.795C143.153 247.487 142.211 247.658 141.577 248.205C141.166 248.564 140.892 249.077 140.686 249.59C139.659 252.256 140.395 255.231 141.012 258.034C141.645 260.821 142.108 263.915 140.686 266.393C142.365 263.248 144.043 259.949 144.882 256.479C145.43 254.222 145.807 251.863 147.091 249.915C148.376 247.966 152.537 245.026 154.678 245.932Z" fill="#EDB658"/>
<path d="M149.318 246.923C147.485 248.137 146.835 250.496 146.475 252.65C146.064 255.145 145.858 257.692 145.31 260.171C144.762 262.65 143.838 265.094 142.176 267.026C142.519 264.513 141.817 262.137 140.995 259.744C140.447 258.154 139.745 256.632 139.231 255.026C138.717 253.436 138.392 251.727 138.649 250.068C139.06 247.402 140.96 245.556 143.649 245.299C144.762 245.197 146.064 245.18 147.16 245.436C147.4 245.521 149.592 246.735 149.318 246.923Z" fill="#FFE5AC"/>
<path d="M142.039 243.248L147.417 249.043C147.417 249.043 149.729 244.974 153.805 246.034C153.805 246.034 153.308 243.932 154.164 243.231C154.164 243.231 150.585 239.06 142.039 243.248Z" fill="#FFE5AC"/>
<path d="M156.476 247.932C157.384 248.65 158 249.727 158.137 250.872" stroke="#FFE5AC" stroke-width="0.4923" stroke-miterlimit="10" stroke-linecap="round" stroke-linejoin="round"/>
<path d="M170.399 256.017H170.382C170.331 256.017 170.262 256.034 170.211 256.051C169.44 256.137 169.406 255.026 170.04 254.786C171.769 254.171 173.122 253.231 174.167 251.744C172.917 250 170.862 248.855 168.55 248.855C164.731 248.855 161.631 251.949 161.631 255.761C161.631 259.573 164.731 262.667 168.55 262.667C172.369 262.667 175.469 259.573 175.469 255.761C175.469 254.855 175.297 254 174.972 253.214C173.824 254.667 172.283 255.744 170.399 256.017Z" fill="#FFE5AC"/>
<path d="M174.15 251.744C172.9 250 170.845 248.855 168.533 248.855C167.642 248.855 166.786 249.026 166.015 249.333C166.409 250.615 167.06 251.778 168.276 252.872C168.944 253.47 169.68 254.085 170.485 254.598C171.992 254 173.208 253.111 174.15 251.744Z" fill="#EDB658"/>
<path d="M194.546 256.41C194.546 260.342 190.916 263.521 186.446 263.521C181.976 263.521 178.346 260.342 178.346 256.41C178.346 252.479 181.976 249.299 186.446 249.299C190.916 249.299 194.546 252.479 194.546 256.41Z" fill="#EDB658"/>
<path d="M186.823 258.684C187.782 260.325 189.238 261.538 190.933 262.308C193.108 261.026 194.546 258.855 194.546 256.393C194.546 252.547 191.07 249.419 186.737 249.282C185.384 252.41 185.127 255.761 186.823 258.684Z" fill="#FFE5AC"/>
<path d="M186.446 256.034C182.987 256.034 180.144 253.214 180.144 249.744V238.974C180.144 235.521 182.97 232.684 186.446 232.684C189.905 232.684 192.748 235.504 192.748 238.974V249.744C192.748 253.214 189.923 256.034 186.446 256.034Z" fill="#EDB658"/>
<path d="M186.446 256.034C182.987 256.034 180.144 253.214 180.144 249.744V238.974C180.144 235.521 182.97 232.684 186.446 232.684C189.905 232.684 192.748 235.504 192.748 238.974V249.744C192.748 253.214 189.923 256.034 186.446 256.034Z" fill="#FFE5AC"/>
<path d="M186.309 232.718C182.918 232.803 180.161 235.59 180.161 238.991V249.761C180.161 253.162 182.918 255.949 186.309 256.034V232.718Z" fill="#EDB658"/>
<path d="M192.748 237.111C192.748 239.47 190.025 241.385 186.686 241.385C183.329 241.385 180.623 239.47 180.623 237.111C180.623 234.752 183.346 232.838 186.686 232.838C190.025 232.838 192.748 234.752 192.748 237.111Z" fill="#EDB658"/>
<path d="M187.491 228.291C187.508 225.744 189.032 224.632 190.505 224.376C190.796 224.325 190.882 223.88 190.659 223.59C189.546 222.12 187.885 221.009 186.378 220.615C184.716 220.188 183.004 220.632 181.702 221.573C181.445 221.761 181.514 222.256 181.839 222.444C183.312 223.333 184.836 225.111 184.819 227.658C184.802 229.419 183.894 231.453 182.233 231.59C181.959 231.607 181.822 231.932 181.959 232.256C182.113 232.615 182.285 233.009 182.319 233.077C183.929 235.983 186.549 237.538 188.792 235.897C189.169 235.624 189.512 235.282 189.82 234.889C189.871 234.821 190.094 234.427 190.282 234.103C190.419 233.846 190.299 233.47 190.025 233.316C188.364 232.462 187.474 230.034 187.491 228.291Z" fill="#FFE5AC"/>
<path d="M186.206 229.231C188.655 229.829 189.991 231.487 190.505 232.889C190.608 233.179 191.036 233.333 191.293 233.197C192.509 232.513 193.262 231.248 193.382 229.949C193.502 228.53 192.765 226.855 191.635 225.436C191.412 225.145 190.95 225.111 190.813 225.35C190.231 226.496 188.792 227.487 186.343 226.872C184.665 226.462 182.541 225.162 182.113 223.607C182.045 223.35 181.702 223.145 181.428 223.214C181.103 223.282 180.777 223.333 180.709 223.35C178.209 224.154 177.198 226.205 179.168 228.632C179.493 229.043 179.887 229.436 180.315 229.795C180.384 229.863 180.795 230.137 181.154 230.393C181.428 230.581 181.771 230.547 181.856 230.325C182.37 229.077 184.528 228.821 186.206 229.231Z" fill="#FFE5AC"/>
<path d="M182.079 236.838C182.97 238.325 184.922 239.077 186.583 238.547" stroke="#FFE5AC" stroke-width="0.5251" stroke-miterlimit="10" stroke-linecap="round" stroke-linejoin="round"/>
<path d="M209.377 269.761C205.918 269.761 203.075 266.94 203.075 263.47V252.701C203.075 249.248 205.901 246.41 209.377 246.41C212.837 246.41 215.68 249.231 215.68 252.701V263.47C215.68 266.94 212.854 269.761 209.377 269.761Z" fill="#FFE5AC"/>
<path d="M208.778 246.462C205.593 246.769 203.075 249.453 203.075 252.701V263.47C203.075 266.718 205.593 269.419 208.778 269.709V246.462Z" fill="#EDB658"/>
<path d="M215.679 250.838C215.679 253.197 212.957 255.111 209.617 255.111C206.278 255.111 203.555 253.197 203.555 250.838C203.555 248.479 206.278 246.564 209.617 246.564C212.957 246.564 215.679 248.479 215.679 250.838Z" fill="#EDB658"/>
<path d="M205.164 249.812C206.055 251.299 208.007 252.051 209.668 251.521" stroke="#FFF7E9" stroke-width="0.7003" stroke-miterlimit="10" stroke-linecap="round" stroke-linejoin="round"/>
<path d="M214.104 250.137C213.676 250.393 213.248 250.632 212.837 250.889" stroke="#FFF7E9" stroke-width="0.7003" stroke-miterlimit="10" stroke-linecap="round" stroke-linejoin="round"/>
<path d="M217.101 242.786C217.101 246.598 214.001 249.692 210.182 249.692C206.363 249.692 203.263 246.598 203.263 242.786C203.263 238.974 206.363 235.88 210.182 235.88C214.001 235.88 217.101 238.974 217.101 242.786Z" fill="#EDB658"/>
<path d="M205.182 238.462C206.052 238.462 206.757 237.757 206.757 236.889C206.757 236.02 206.052 235.316 205.182 235.316C204.311 235.316 203.606 236.02 203.606 236.889C203.606 237.757 204.311 238.462 205.182 238.462Z" fill="#FFE5AC"/>
<path d="M209.018 236.889C209.888 236.889 210.593 236.185 210.593 235.316C210.593 234.448 209.888 233.744 209.018 233.744C208.147 233.744 207.442 234.448 207.442 235.316C207.442 236.185 208.147 236.889 209.018 236.889Z" fill="#FFE5AC"/>
<path d="M212.939 237.231C213.81 237.231 214.515 236.527 214.515 235.658C214.515 234.79 213.81 234.085 212.939 234.085C212.069 234.085 211.364 234.79 211.364 235.658C211.364 236.527 212.069 237.231 212.939 237.231Z" fill="#FFE5AC"/>
<path d="M215.868 239.368C216.738 239.368 217.443 238.663 217.443 237.795C217.443 236.926 216.738 236.222 215.868 236.222C214.998 236.222 214.292 236.926 214.292 237.795C214.292 238.663 214.998 239.368 215.868 239.368Z" fill="#FFE5AC"/>
<path d="M206.415 240.376C206.363 241.248 205.627 241.915 204.753 241.863C203.88 241.812 203.212 241.077 203.263 240.205C203.315 239.333 204.051 238.667 204.925 238.718C205.798 238.769 206.466 239.521 206.415 240.376Z" fill="#FFE5AC"/>
<path d="M208.11 245.487C208.98 245.487 209.686 244.783 209.686 243.915C209.686 243.046 208.98 242.342 208.11 242.342C207.24 242.342 206.534 243.046 206.534 243.915C206.534 244.783 207.24 245.487 208.11 245.487Z" fill="#FFE5AC"/>
<path d="M214.549 244.256C214.549 245.128 213.847 245.829 212.974 245.829C212.1 245.829 211.398 245.128 211.398 244.256C211.398 243.385 212.1 242.684 212.974 242.684C213.847 242.684 214.549 243.385 214.549 244.256Z" fill="#FFE5AC"/>
<path d="M218.3 241.043C218.3 241.915 217.598 242.615 216.724 242.615C215.851 242.615 215.149 241.915 215.149 241.043C215.149 240.171 215.851 239.47 216.724 239.47C217.598 239.47 218.3 240.171 218.3 241.043Z" fill="#FFE5AC"/>
<path d="M214.138 231.419C214.018 230.12 213.111 229.248 212.289 228.325C211.484 227.419 210.901 226.154 211.021 224.906C210.919 226.137 210.49 227.658 209.583 228.547C208.761 229.333 207.922 230.222 207.733 231.385C207.596 232.239 207.853 233.145 208.35 233.846C208.812 234.479 209.617 234.906 209.703 235.761C209.788 236.769 209.412 237.812 208.795 238.598C208.726 238.701 209.172 239.504 210.285 239.709C210.936 239.829 211.467 239.658 212.049 239.316C212.169 239.248 212.717 238.718 212.717 238.701C212.717 238.684 212.58 238.53 212.545 238.479C212.1 237.88 211.706 237.214 211.706 236.479C211.706 235.607 212.22 234.991 212.854 234.427C213.727 233.658 214.258 232.65 214.172 231.453C214.138 231.47 214.138 231.436 214.138 231.419Z" fill="#EDB658"/>
<path d="M209.6 224.752C209.6 223.966 210.234 223.316 211.038 223.316C211.826 223.316 212.477 223.949 212.477 224.752C212.477 225.556 211.843 226.188 211.038 226.188C210.234 226.171 209.6 225.538 209.6 224.752Z" fill="#FFE5AC"/>
<path d="M212.837 238.991C212.837 239.709 211.895 240.274 210.747 240.274C209.583 240.274 208.658 239.692 208.658 238.991C208.658 238.274 209.6 237.709 210.747 237.709C211.895 237.709 212.837 238.274 212.837 238.991Z" fill="#EDB658"/>
<path d="M208.709 239.094C208.709 239.094 210.353 240.667 212.631 239.197" stroke="#FFE5AC" stroke-width="0.7876" stroke-miterlimit="10" stroke-linecap="round" stroke-linejoin="round"/>
</g>
<defs>
<radialGradient id="paint0_radial_1307_108902" cx="0" cy="0" r="1" gradientUnits="userSpaceOnUse" gradientTransform="translate(292 290.5) rotate(90) scale(290.5 292)">
<stop stop-color="#3058FE"/>
<stop offset="1" stop-color="#1D1E25" stop-opacity="0"/>
</radialGradient>
<linearGradient id="paint1_linear_1307_108902" x1="295.945" y1="285.775" x2="539.494" y2="436.998" gradientUnits="userSpaceOnUse">
<stop stop-color="#F7CC94"/>
<stop offset="0.1691" stop-color="#F8DAB1"/>
<stop offset="0.4027" stop-color="#F9EAD3"/>
<stop offset="0.6253" stop-color="#FAF6EB"/>
<stop offset="0.83" stop-color="#FBFDFA"/>
<stop offset="1" stop-color="#FBFFFF"/>
</linearGradient>
<clipPath id="clip0_1307_108902">
<rect width="505" height="390" fill="white" transform="translate(79 92)"/>
</clipPath>
</defs>
</svg>
