<svg width="584" height="253" viewBox="0 0 584 253" fill="none" xmlns="http://www.w3.org/2000/svg">
<circle cx="292" cy="292" r="292" fill="url(#paint0_radial_1307_108901)"/>
<g clip-path="url(#clip0_1307_108901)">
<path d="M297.47 166.877L294.877 166.793C292.731 162.926 289.051 159.226 283.866 156.026C265.747 144.842 235.921 143.869 217.244 153.884C211.836 156.778 207.962 160.311 205.62 164.095L203.223 164.011L203 172.385H203.028C203.028 179.201 207.432 186.157 216.324 191.665C234.443 202.849 264.27 203.823 282.947 193.807C292.201 188.855 296.94 182.122 297.219 175.251L297.47 166.877Z" fill="#9F332A"/>
<path d="M283.168 186.463C264.52 196.478 234.693 195.504 216.546 184.32C198.427 173.136 198.845 155.943 217.522 145.927C236.171 135.912 265.997 136.886 284.144 148.07C302.263 159.254 301.845 176.447 283.168 186.463Z" fill="#D6472B"/>
<path fill-rule="evenodd" clip-rule="evenodd" d="M290.668 153.133L279.713 159.003C278.208 157.111 276.145 155.331 273.553 153.745C271.044 152.215 268.256 150.935 265.246 149.989L276.173 144.119C279.016 145.232 281.692 146.567 284.145 148.097C286.682 149.628 288.884 151.325 290.668 153.133Z" fill="#FBF2E5"/>
<path fill-rule="evenodd" clip-rule="evenodd" d="M297.219 170.076C296.494 174.054 294.264 177.894 290.529 181.343L275.504 178.534C280.159 175.334 282.556 171.356 282.723 167.35L297.219 170.076Z" fill="#FBF2E5"/>
<path fill-rule="evenodd" clip-rule="evenodd" d="M268.395 191.721C261.817 193.14 254.736 193.64 247.712 193.279L243.865 184.348C250.834 185.35 258.193 185.016 264.716 183.263L268.395 191.721Z" fill="#FBF2E5"/>
<path fill-rule="evenodd" clip-rule="evenodd" d="M233.133 181.566L222.317 187.381C220.283 186.463 218.387 185.433 216.547 184.348C213.342 182.373 210.693 180.203 208.686 177.894L219.92 171.912C221.425 174.333 223.851 176.642 227.112 178.673C228.952 179.786 230.987 180.759 233.133 181.566Z" fill="#FBF2E5"/>
<path fill-rule="evenodd" clip-rule="evenodd" d="M217.969 165.986L203.334 163.232C203.78 159.226 205.787 155.331 209.328 151.825L224.074 154.58C219.809 157.918 217.774 161.952 217.969 165.986Z" fill="#FBF2E5"/>
<path fill-rule="evenodd" clip-rule="evenodd" d="M252.312 147.625C245.315 147.179 238.207 148.042 232.158 150.323L228.394 141.671C234.694 139.863 241.607 139 248.576 139L252.312 147.625Z" fill="#FBF2E5"/>
<path d="M272.911 180.119C260.089 186.991 239.572 186.351 227.112 178.645C214.652 170.939 214.958 159.142 227.781 152.243C240.604 145.371 261.12 146.011 273.58 153.717C286.041 161.424 285.734 173.248 272.911 180.119Z" fill="#9F332A"/>
<path d="M268.005 177.365C257.831 182.818 241.552 182.289 231.656 176.197C221.76 170.076 222.011 160.7 232.185 155.247C242.388 149.795 258.667 150.323 268.535 156.416C278.431 162.537 278.208 171.912 268.005 177.365Z" fill="#D6472B"/>
<path d="M172.257 374.044L41.6329 298.788C37.8698 296.618 38.3436 292.835 42.6922 290.331L247.465 172.342C251.813 169.838 258.364 169.56 262.127 171.73L392.751 246.986C396.515 249.156 396.041 252.939 391.692 255.443L186.919 373.432C182.571 375.936 176.02 376.214 172.257 374.044Z" fill="#EDB658"/>
<path d="M172.258 371.929L41.6334 296.674C37.8703 294.504 38.3441 290.72 42.6927 288.216L247.465 170.228C251.814 167.724 258.365 167.446 262.128 169.616L392.752 244.871C396.515 247.041 396.041 250.825 391.693 253.329L186.92 371.317C182.571 373.821 176.021 374.099 172.258 371.929Z" fill="#FBF2E5"/>
<path opacity="0.72" d="M172.258 371.929L41.6334 296.674C37.8703 294.504 38.3441 290.72 42.6927 288.216L247.465 170.228C251.814 167.724 258.365 167.446 262.128 169.616L392.752 244.871C396.515 247.041 396.041 250.825 391.693 253.329L186.92 371.317C182.571 373.821 176.021 374.099 172.258 371.929Z" fill="url(#paint1_linear_1307_108901)"/>
<path d="M245.513 181.273L240.998 182.914L239.994 182.33L260.371 174.818L261.988 175.736L249.026 187.505L247.911 186.865L250.754 184.249L245.513 181.273ZM246.628 180.827L251.507 183.637L259.841 175.987L246.628 180.827Z" fill="#2B2B2B"/>
<path d="M224.189 255.666C224.189 262.398 215.129 267.851 203.979 267.851C192.829 267.851 183.769 262.398 183.769 255.666C183.769 248.933 192.829 243.48 203.979 243.48C215.129 243.452 224.189 248.933 224.189 255.666Z" fill="#2B2B2B"/>
<path d="M236.9 261.369C248.062 261.369 257.11 255.913 257.11 249.183C257.11 242.454 248.062 236.998 236.9 236.998C225.739 236.998 216.69 242.454 216.69 249.183C216.69 255.913 225.739 261.369 236.9 261.369Z" fill="#2B2B2B"/>
<path d="M267.591 183.22L355.9 233.993" stroke="#2B2B2B" stroke-width="0.795693" stroke-miterlimit="10" stroke-linecap="round" stroke-linejoin="round"/>
<path d="M60.3092 287.771L211.477 199.634" stroke="#2B2B2B" stroke-width="0.795693" stroke-miterlimit="10" stroke-linecap="round" stroke-linejoin="round"/>
<path d="M236.203 191.455C236.064 193.069 233.778 194.154 231.13 193.903C228.481 193.653 226.447 192.178 226.586 190.565C226.725 188.951 229.011 187.866 231.659 188.116C234.307 188.367 236.342 189.869 236.203 191.455Z" fill="#2B2B2B"/>
<path d="M244.147 190.648C244.008 192.262 241.722 193.347 239.074 193.096C236.426 192.846 234.391 191.372 234.53 189.758C234.67 188.144 236.956 187.059 239.604 187.31C242.28 187.532 244.315 189.035 244.147 190.648Z" fill="#2B2B2B"/>
<path d="M242.782 195.044C242.642 196.657 240.356 197.743 237.708 197.492C235.06 197.242 233.025 195.767 233.165 194.154C233.304 192.54 235.59 191.455 238.238 191.705C240.914 191.956 242.949 193.458 242.782 195.044Z" fill="#2B2B2B"/>
<path d="M232.273 193.514C232.273 193.514 230.433 196.185 225.443 195.183L232.189 199.05C232.189 199.05 230.684 194.988 233.75 194.181V193.013L232.273 193.514Z" fill="#2B2B2B"/>
<path d="M317.497 374.991L186.873 299.736C183.11 297.566 183.584 293.782 187.933 291.278L392.705 173.29C397.054 170.786 403.604 170.508 407.368 172.678L537.992 247.933C541.755 250.103 541.281 253.887 536.932 256.391L332.16 374.379C327.811 376.911 321.261 377.161 317.497 374.991Z" fill="#EDB658"/>
<path d="M317.497 372.905L186.873 297.621C183.11 295.451 183.584 291.668 187.932 289.164L392.705 171.175C397.054 168.671 403.604 168.393 407.368 170.563L537.992 245.819C541.755 247.989 541.281 251.773 536.932 254.276L332.16 372.265C327.811 374.797 321.26 375.075 317.497 372.905Z" fill="#FBF2E5"/>
<path d="M390.754 182.248L386.238 183.89L385.234 183.305L405.611 175.794L407.228 176.712L394.266 188.48L393.151 187.84L395.994 185.225L390.754 182.248ZM391.869 181.803L396.747 184.613L405.082 176.962L391.869 181.803Z" fill="#D6472B"/>
<path d="M349.219 268.799C360.381 268.799 369.429 263.343 369.429 256.613C369.429 249.883 360.381 244.428 349.219 244.428C338.058 244.428 329.01 249.883 329.01 256.613C329.01 263.343 338.058 268.799 349.219 268.799Z" fill="#D6472B"/>
<path d="M379.437 194.795C383.116 194.795 386.099 193.002 386.099 190.789C386.099 188.577 383.116 186.783 379.437 186.783C375.757 186.783 372.775 188.577 372.775 190.789C372.775 193.002 375.757 194.795 379.437 194.795Z" fill="#D6472B"/>
<path d="M395.632 194.879C395.632 197.104 392.65 198.885 388.97 198.885C385.29 198.885 382.308 197.077 382.308 194.879C382.308 192.653 385.29 190.873 388.97 190.873C392.65 190.873 395.632 192.653 395.632 194.879Z" fill="#D6472B"/>
<path d="M372.942 190.094L368.175 201.723L391.089 198.69L386.015 191.318L372.942 190.094Z" fill="#D6472B"/>
<path d="M412.831 184.168L501.14 234.969" stroke="#D6472B" stroke-width="0.795693" stroke-miterlimit="10" stroke-linecap="round" stroke-linejoin="round"/>
<path d="M205.55 288.747L356.718 200.61" stroke="#D6472B" stroke-width="0.795693" stroke-miterlimit="10" stroke-linecap="round" stroke-linejoin="round"/>
<path d="M217.498 212.871L214.905 212.787C212.759 208.92 209.079 205.22 203.894 202.021C185.775 190.837 155.949 189.863 137.272 199.878C131.864 202.772 127.99 206.305 125.648 210.089L123.251 210.005L123 218.379H123.028C123.028 225.196 127.432 232.151 136.324 237.659C154.443 248.843 184.27 249.817 202.947 239.801C212.201 234.849 216.94 228.117 217.219 221.245L217.498 212.871Z" fill="#9F332A"/>
<path d="M203.197 232.457C184.548 242.472 154.721 241.499 136.575 230.315C118.456 219.131 118.874 201.937 137.55 191.922C156.199 181.906 186.025 182.88 204.172 194.064C222.291 205.248 221.845 222.441 203.197 232.457Z" fill="#D6472B"/>
<path fill-rule="evenodd" clip-rule="evenodd" d="M210.696 199.1L199.741 204.97C198.236 203.078 196.173 201.297 193.581 199.712C191.072 198.181 188.285 196.902 185.274 195.956L196.201 190.086C199.044 191.198 201.72 192.534 204.174 194.064C206.682 195.622 208.884 197.291 210.696 199.1Z" fill="#FBF2E5"/>
<path fill-rule="evenodd" clip-rule="evenodd" d="M217.247 216.07C216.522 220.049 214.292 223.888 210.557 227.338L195.532 224.528C200.187 221.328 202.584 217.35 202.752 213.344L217.247 216.07Z" fill="#FBF2E5"/>
<path fill-rule="evenodd" clip-rule="evenodd" d="M188.424 237.687C181.845 239.106 174.765 239.607 167.74 239.245L163.893 230.315C170.862 231.316 178.221 230.982 184.744 229.23L188.424 237.687Z" fill="#FBF2E5"/>
<path fill-rule="evenodd" clip-rule="evenodd" d="M153.161 227.56L142.346 233.375C140.311 232.457 138.415 231.427 136.576 230.342C133.37 228.367 130.722 226.197 128.715 223.888L139.948 217.907C141.454 220.327 143.879 222.636 147.14 224.667C148.98 225.78 150.987 226.754 153.161 227.56Z" fill="#FBF2E5"/>
<path fill-rule="evenodd" clip-rule="evenodd" d="M137.997 211.981L123.363 209.226C123.809 205.22 125.816 201.325 129.356 197.82L144.102 200.574C139.809 203.913 137.774 207.947 137.997 211.981Z" fill="#FBF2E5"/>
<path fill-rule="evenodd" clip-rule="evenodd" d="M172.34 193.619C165.343 193.174 158.235 194.036 152.186 196.317L148.423 187.665C154.722 185.885 161.636 184.994 168.604 185.022L172.34 193.619Z" fill="#FBF2E5"/>
<path d="M192.939 226.114C180.117 232.985 159.6 232.346 147.14 224.639C134.68 216.933 134.986 205.137 147.809 198.237C160.632 191.365 181.148 192.005 193.608 199.712C206.041 207.418 205.762 219.242 192.939 226.114Z" fill="#9F332A"/>
<path d="M188.033 223.359C177.859 228.812 161.58 228.284 151.684 222.191C141.788 216.098 142.039 206.695 152.213 201.242C162.388 195.789 178.667 196.317 188.563 202.41C198.459 208.503 198.208 217.879 188.033 223.359Z" fill="#D6472B"/>
</g>
<defs>
<radialGradient id="paint0_radial_1307_108901" cx="0" cy="0" r="1" gradientUnits="userSpaceOnUse" gradientTransform="translate(292 292) rotate(90) scale(292)">
<stop stop-color="#D1013E"/>
<stop offset="1" stop-color="#1D1E25" stop-opacity="0"/>
</radialGradient>
<linearGradient id="paint1_linear_1307_108901" x1="286.948" y1="308.794" x2="141.165" y2="229.018" gradientUnits="userSpaceOnUse">
<stop stop-color="#F7CC94"/>
<stop offset="0.1691" stop-color="#F8DAB1"/>
<stop offset="0.4027" stop-color="#F9EAD3"/>
<stop offset="0.6253" stop-color="#FAF6EB"/>
<stop offset="0.83" stop-color="#FBFDFA"/>
<stop offset="1" stop-color="#FBFFFF"/>
</linearGradient>
<clipPath id="clip0_1307_108901">
<rect width="509.813" height="412" fill="white" transform="translate(39.0935 95)"/>
</clipPath>
</defs>
</svg>
