<svg width="134" height="134" viewBox="0 0 134 134" fill="none" xmlns="http://www.w3.org/2000/svg">
<circle cx="67" cy="67" r="67" fill="url(#paint0_radial_1024_163498)"/>
<g clip-path="url(#clip0_1024_163498)">
<path d="M26.8502 72.998C26.5476 72.7428 26.3131 72.4166 26.1676 72.0485C26.0221 71.6804 25.9701 71.282 26.0164 70.889C26.0626 70.4959 26.2056 70.1204 26.4326 69.7962C26.6595 69.4719 26.9634 69.209 27.3169 69.031C35.9268 64.0276 43.7717 57.8109 50.6102 50.5722C51.149 49.9535 51.9002 49.5592 52.7155 49.4673C53.5308 49.3753 54.3509 49.5924 55.014 50.0756C68.2194 60.744 82.765 69.0489 98.1005 76.241C99.9852 77.0847 100.757 79.1429 99.722 80.8362C93.6237 90.2015 86.5693 98.9082 78.6724 106.816C77.2064 108.216 74.3224 108.396 72.33 107.241C55.9355 97.4162 40.594 86.341 26.8502 72.998Z" fill="#9F9BB6"/>
<path d="M26.8502 70.4927C26.5476 70.2375 26.3131 69.9113 26.1676 69.5432C26.0221 69.1752 25.9701 68.7768 26.0164 68.3837C26.0626 67.9906 26.2056 67.6151 26.4326 67.2909C26.6595 66.9666 26.9634 66.7037 27.3169 66.5257C35.9268 61.5223 43.7717 55.3057 50.6102 48.0669C51.149 47.4482 51.9002 47.054 52.7155 46.962C53.5308 46.8701 54.3509 47.0871 55.014 47.5703C68.2194 58.2387 82.765 66.5437 98.1005 73.7357C99.9852 74.5794 100.757 76.6377 99.722 78.331C93.6237 87.6963 86.5693 96.4029 78.6724 104.311C77.2064 105.711 74.3224 105.891 72.33 104.736C55.9355 94.911 40.594 83.8357 26.8502 70.4927Z" fill="#DCDAEA"/>
<path d="M26.8677 66.8897C26.5652 66.6345 26.3306 66.3083 26.1851 65.9402C26.0396 65.5721 25.9877 65.1737 26.0339 64.7806C26.0802 64.3876 26.2232 64.0121 26.4501 63.6879C26.6771 63.3636 26.9809 63.1007 27.3344 62.9227C35.9443 57.9193 43.7892 51.7026 50.6278 44.4639C51.1666 43.8452 51.9178 43.4509 52.733 43.359C53.5483 43.267 54.3685 43.4841 55.0315 43.9673C68.2369 54.6357 82.7825 62.9406 98.118 70.1327C100.003 70.9763 100.775 73.0346 99.7395 74.7279C93.6412 84.0932 86.5869 92.7999 78.6899 100.708C77.224 102.108 74.34 102.287 72.3475 101.133C55.953 91.3079 40.6115 80.2327 26.8677 66.8897Z" fill="url(#paint1_linear_1024_163498)"/>
<path opacity="0.67" d="M66.4061 97.5912C63.1212 80.7299 60.4945 63.8268 58.5499 46.7323C70.9288 55.8282 84.1838 63.6673 98.1181 70.1333C100.003 70.977 100.775 73.0353 99.7396 74.7286C93.6413 84.0939 86.587 92.8006 78.69 100.709C77.2241 102.109 74.3401 102.282 72.3476 101.127C69.9183 99.7452 68.7336 99.0332 66.4061 97.5912Z" fill="url(#paint2_linear_1024_163498)"/>
<path d="M66.9026 75.0782C67.0282 74.1687 67.0881 73.714 67.2017 72.8045C68.2548 72.4934 68.7814 72.3318 69.8285 72.0027C70.9112 71.6739 71.8822 71.0528 72.6347 70.2077L72.9877 69.7949C74.8784 67.593 74.1844 64.5055 71.7372 62.9618C70.3983 62.1493 68.8022 61.8716 67.2676 62.184C63.0837 63.032 58.8573 63.6551 54.6067 64.0508C54.5409 68.3588 54.511 70.5188 54.4631 74.8209C54.4884 75.5416 54.689 76.2452 55.0477 76.8708C55.4064 77.4964 55.9122 78.025 56.5214 78.4109C59.0763 80.206 63.0433 80.0803 65.1494 78.0579L65.5264 77.6929C66.2608 76.9969 66.7446 76.0777 66.9026 75.0782Z" fill="black"/>
<path d="M62.9174 79.3983L63.4798 79.2008C62.2832 72.8046 61.7686 69.6274 60.8053 63.297C58.3341 63.656 57.0956 63.8056 54.5945 64.0628C54.5347 68.3111 54.5107 70.4412 54.4688 74.7013C54.4966 75.4821 54.7151 76.2441 55.1052 76.921C55.4952 77.5979 56.0451 78.169 56.7066 78.5846C57.6108 79.186 58.6408 79.572 59.7175 79.7131C60.7942 79.8542 61.8888 79.7465 62.9174 79.3983Z" fill="#404660"/>
<path d="M67.2018 72.7867L67.3215 72.8226C71.2727 74.1036 75.4759 74.4054 79.5695 73.7022C76.3592 75.888 73.7271 78.8199 71.8988 82.2465C71.2481 78.762 69.6499 75.5241 67.2796 72.8884L67.2018 72.7867Z" fill="black"/>
<path d="M32.0068 63.2157L32.8026 62.725C33.5744 63.473 33.9993 63.8439 34.7592 64.5799C34.9293 64.7253 35.0504 64.9196 35.1062 65.1364C35.1359 65.2354 35.1453 65.3394 35.134 65.4422C35.1227 65.545 35.0909 65.6445 35.0404 65.7347C34.9351 65.9345 34.7753 66.1005 34.5797 66.2134C34.2583 66.4276 33.8764 66.5326 33.4907 66.5125C33.1195 66.4795 32.7719 66.3163 32.5094 66.0518L33.3172 65.5612C33.416 65.6685 33.5422 65.7471 33.6821 65.7885C33.8054 65.8085 33.9317 65.7807 34.0352 65.7108C34.0842 65.6876 34.1248 65.6499 34.1516 65.6028C34.1784 65.5557 34.1899 65.5014 34.1847 65.4475C34.1546 65.3123 34.0785 65.1918 33.9693 65.1064C33.1736 64.3346 32.7786 63.9636 32.0068 63.2157Z" fill="black"/>
<path d="M87.8204 66.803C87.8204 66.9825 87.8204 67.0723 87.8204 67.2578L87.3537 67.4672C87.1542 67.5551 86.9825 67.6957 86.8571 67.8741V67.916C86.7791 68.0261 86.7267 68.1522 86.7035 68.2852C86.6803 68.4181 86.687 68.5545 86.7231 68.6846C86.7592 68.8146 86.8238 68.935 86.9121 69.037C87.0005 69.1389 87.1105 69.22 87.234 69.2742C87.5216 69.4173 87.8518 69.4492 88.1615 69.3639C89.1487 69.0827 89.6394 68.9451 90.6266 68.6459C90.4172 67.7664 90.3095 67.3296 90.1061 66.45C90.0702 66.3082 90.0033 66.1761 89.9102 66.0633C89.8171 65.9506 89.7 65.8599 89.5676 65.7978C89.3086 65.6632 89.0094 65.6278 88.7262 65.6983C88.443 65.7688 88.1954 65.9404 88.0298 66.1808L87.9999 66.2286C87.8821 66.3969 87.8194 66.5976 87.8204 66.803Z" fill="black"/>
<path d="M87.8383 67.258H87.7964C87.0475 67.0935 86.2717 67.0935 85.5228 67.258C86.0909 66.7916 86.5075 66.1668 86.7194 65.463C86.9105 66.1335 87.2832 66.7382 87.7964 67.2101L87.8383 67.258Z" fill="black"/>
<path d="M96.1073 71.7875L95.5568 72.6431C94.432 72.1285 93.8755 71.8652 92.7746 71.3387C92.532 71.2392 92.324 71.0706 92.1762 70.854C92.0458 70.6603 91.9828 70.429 91.9967 70.1959C92.0148 69.9467 92.0996 69.707 92.242 69.5018C92.4442 69.1552 92.7652 68.8937 93.1455 68.7658C93.523 68.6561 93.9283 68.6968 94.2764 68.8795L93.7379 69.7411C93.6001 69.6615 93.442 69.6241 93.2831 69.6334C93.219 69.6452 93.1583 69.6712 93.1055 69.7095C93.0526 69.7478 93.0091 69.7975 92.978 69.8548C92.9462 69.906 92.9293 69.9651 92.9293 70.0253C92.9293 70.0856 92.9462 70.1447 92.978 70.1959C93.0598 70.3315 93.1838 70.4366 93.331 70.495C94.426 70.9917 94.9824 71.2729 96.1073 71.7875Z" fill="black"/>
<path fill-rule="evenodd" clip-rule="evenodd" d="M39.4441 69.7729C39.3603 70.0183 39.3124 70.1379 39.2287 70.3713C39.1245 70.6577 38.9262 70.9003 38.6662 71.0594L38.5406 71.1431C38.1446 71.3673 37.6892 71.464 37.2363 71.4201C36.7835 71.3762 36.3551 71.1938 36.0096 70.8978C35.8452 70.7705 35.7168 70.6026 35.6371 70.4106C35.5573 70.2186 35.529 70.0091 35.5548 69.8029C35.7463 68.5703 35.8421 67.96 36.0395 66.7274C37.649 66.7992 38.4329 66.8231 40.0603 66.8471C40.5478 66.8493 41.0194 67.0206 41.3946 67.3317C41.5434 67.4474 41.6627 67.5967 41.7429 67.7672C41.823 67.9378 41.8618 68.1249 41.8559 68.3132C41.8501 68.5016 41.7999 68.6859 41.7093 68.8512C41.6187 69.0165 41.4904 69.158 41.3348 69.2643L41.2092 69.3541C40.9252 69.5394 40.6011 69.6543 40.2638 69.6892L39.4381 69.7729H39.474C40.5742 70.3312 41.7783 70.6551 43.0102 70.7243C41.939 71.1014 40.9857 71.7535 40.2458 72.6151C40.2825 71.6209 40.0085 70.6401 39.462 69.8088L39.4441 69.7729Z" fill="black"/>
<g clip-path="url(#clip1_1024_163498)" filter="url(#filter0_d_1024_163498)">
<path d="M61.9287 57.8377C62.4857 57.9327 63.0576 58.039 63.592 58.1605C64.1264 58.282 64.6909 58.4111 65.2328 58.5592C65.7747 58.7072 66.3128 58.8629 66.8472 59.03C67.3815 59.1971 81.01 58.8363 81.533 59.03L58.3913 79.3019L42.9623 35.8534C42.8207 35.4573 42.7806 35.0315 42.8457 34.6156C42.9119 34.2126 43.0747 33.832 43.3198 33.5068C43.5809 33.1539 43.9114 32.8592 44.2907 32.6411C44.7171 32.3923 45.1832 32.2201 45.6681 32.1323L78.2195 26.0572C78.6884 25.9851 79.1655 25.9851 79.6344 26.0572C80.0939 26.1201 80.5424 26.2479 80.9666 26.4369C81.378 26.618 81.7588 26.8627 82.0955 27.1621C82.414 27.4428 82.677 27.7816 82.8708 28.1607L83.6422 29.7023L76.4845 56.2911C76.0631 56.038 73.8279 46.8405 73.4214 46.5874C73.0188 46.3254 72.6161 46.052 72.2247 45.771C71.8334 45.49 71.4495 45.2015 71.0732 44.9091C70.6969 44.6167 70.3206 44.3092 69.9706 44.0016C69.8035 45.2798 69.5098 46.5378 69.0938 47.7568C68.6633 49.0115 68.1151 50.2219 67.4568 51.3715C66.7637 52.5734 65.9626 53.7084 65.0634 54.7622C64.1081 55.8764 63.0593 56.9054 61.9287 57.8377ZM54.1088 48.1365C54.192 47.68 54.318 47.2324 54.4852 46.8C54.6592 46.3691 54.8734 45.9559 55.1249 45.566C55.3774 45.1692 55.6672 44.7979 55.9904 44.4573C56.3191 44.1034 56.678 43.7794 57.0629 43.489C56.5222 43.3979 55.9879 43.271 55.4636 43.1094C54.9498 42.9446 54.447 42.7468 53.9583 42.517C53.4784 42.2969 53.0144 42.0432 52.5697 41.7576C52.1362 41.476 51.7248 41.1612 51.3391 40.816C51.2484 41.2552 51.1135 41.684 50.9365 42.0956C50.7569 42.5182 50.5376 42.9225 50.2817 43.303C50.0166 43.6977 49.7169 44.0675 49.386 44.4079C49.0376 44.767 48.66 45.0959 48.2571 45.3913C48.8096 45.4879 49.3552 45.6211 49.8903 45.79C50.4154 45.9549 50.9285 46.1566 51.4257 46.3937C51.9144 46.6236 52.3861 46.8888 52.8369 47.1873C53.2827 47.4792 53.7054 47.8054 54.1013 48.1631L54.1088 48.1365ZM48.1668 33.9701L47.734 39.4795L49.3635 39.1529V38.1239L51.437 37.7101L52.1595 38.5834L53.7739 38.2606L49.5629 33.7043L48.1593 33.9701" fill="white"/>
<path d="M49.5717 33.704L53.7827 38.2604L52.1682 38.5831L51.4457 37.7098L49.3722 38.1237V39.1527L47.7427 39.4792L48.1755 33.9698L49.5717 33.704ZM49.3835 37.1213L50.7269 36.8555L49.3985 35.2456V37.1213" fill="#F04E5E"/>
<path d="M49.3987 35.2303L50.7271 36.8402L49.3874 37.106L49.3987 35.2303Z" fill="white"/>
<path d="M51.3476 40.8043C51.7333 41.1495 52.1447 41.4643 52.5782 41.7459C53.0229 42.0315 53.4869 42.2852 53.9668 42.5053C54.4555 42.7351 54.9583 42.9329 55.4721 43.0977C55.9964 43.2593 56.5307 43.3862 57.0714 43.4774C56.6865 43.7677 56.3276 44.0917 55.9989 44.4456C55.6757 44.7862 55.3859 45.1575 55.1334 45.5543C54.8819 45.9442 54.6677 46.3574 54.4937 46.7883C54.3265 47.2207 54.2004 47.6683 54.1173 48.1248C53.7214 47.7671 53.2987 47.4409 52.8529 47.149C52.4021 46.8505 51.9305 46.5853 51.4417 46.3554C50.9445 46.1184 50.4315 45.9166 49.9063 45.7517C49.3712 45.5828 48.8256 45.4496 48.2731 45.353C48.676 45.0577 49.0537 44.7287 49.4021 44.3696C49.7329 44.0292 50.0327 43.6594 50.2977 43.2647C50.5536 42.8842 50.7729 42.4799 50.9525 42.0573C51.1252 41.6539 51.2576 41.2342 51.3476 40.8043Z" fill="#F04E5E"/>
<path d="M106.324 74.977C106.56 75.4658 106.703 75.9952 106.745 76.5375C106.785 77.0243 106.719 77.5139 106.553 77.9728C106.393 78.4061 106.136 78.796 105.801 79.1119C105.439 79.4515 105.005 79.7035 104.533 79.8485L67.5218 91.414C67.3337 91.4672 67.1455 91.5089 66.9799 91.5431C66.8118 91.5735 66.6422 91.595 66.4719 91.6076C66.3103 91.6189 66.1481 91.6189 65.9865 91.6076C65.829 91.6046 65.672 91.5919 65.5161 91.5697C65.0891 91.5131 64.6715 91.3995 64.2742 91.2317C63.8794 91.0641 63.5075 90.8458 63.1679 90.5825C62.8297 90.3153 62.5285 90.0037 62.2722 89.656C62.015 89.3077 61.8084 88.9242 61.6588 88.5169L58.3886 79.3207L68.4401 59.5765C69.4674 59.9562 70.4722 60.3853 71.4506 60.8561C72.429 61.3269 73.3961 61.8433 74.3332 62.4014C75.2702 62.9596 76.1847 63.5671 77.069 64.2126C77.9533 64.8581 78.8113 65.5529 79.6355 66.2857C79.7527 64.8461 80.0047 63.421 80.3881 62.0293C80.7586 60.6965 81.2538 59.4023 81.867 58.164C82.4666 56.9594 83.1785 55.8151 83.9932 54.7468C84.8042 53.6833 85.714 52.7005 86.7102 51.8117C85.6453 51.6257 84.5878 51.3903 83.5454 51.1055C82.503 50.8207 81.4681 50.4904 80.4559 50.1183C79.4436 49.7462 78.4501 49.3209 77.4792 48.8615C76.5083 48.4021 75.5713 47.8933 74.6568 47.3427L83.6357 29.6983L106.324 74.977ZM99.791 77.8589C99.7974 77.3299 99.8503 76.8026 99.9491 76.2831C100.044 75.7823 100.185 75.2916 100.371 74.8175C100.551 74.3536 100.775 73.9085 101.04 73.4886C101.304 73.0695 101.608 72.6778 101.947 72.3191C101.381 72.2263 100.823 72.0918 100.276 71.9166C99.7235 71.7423 99.1829 71.5305 98.6583 71.2825C98.1381 71.0308 97.6352 70.7442 97.153 70.4244C96.6641 70.1068 96.1976 69.7554 95.7569 69.3727C95.7434 69.8835 95.6829 70.3919 95.5763 70.8914C95.4728 71.3815 95.3242 71.8608 95.1322 72.3229C94.9381 72.7853 94.7026 73.2289 94.4285 73.648C94.1472 74.0744 93.8258 74.4723 93.4689 74.8365C94.0462 74.9313 94.616 75.0684 95.1736 75.2465C95.7357 75.4253 96.2851 75.6422 96.8181 75.8958C97.3549 76.1531 97.8741 76.4461 98.3723 76.7729C98.8754 77.1056 99.3557 77.4722 99.8098 77.8702L99.791 77.8589ZM91.3879 61.5433L91.9147 67.9792L93.4877 67.5387L93.3146 66.3351L95.3129 65.7845L96.1972 66.7831L97.7514 66.3465L92.7464 61.1788L91.3879 61.5585" fill="#F9FAFF"/>
<path d="M92.818 62.9407L94.4287 64.7747L93.1341 65.1278L92.818 62.9407Z" fill="#F9FAFF"/>
<path d="M92.7279 61.1562L97.7329 66.3239L96.1787 66.7605L95.2943 65.7619L93.2961 66.3125L93.4692 67.5161L91.8962 67.9566L91.3694 61.5207L92.7279 61.1562ZM93.1305 65.1278L94.4288 64.7747L92.8182 62.9446L93.1305 65.1278Z" fill="#F04E5E"/>
<path d="M69.9681 43.99C70.3444 44.2976 70.6981 44.6013 71.0707 44.8975C71.4432 45.1936 71.8233 45.4784 72.2222 45.7594C72.6211 46.0404 73.0162 46.3137 73.4189 46.5757C73.8215 46.8377 74.2393 47.0997 74.6607 47.3351C75.5752 47.8743 76.516 48.3793 77.4831 48.8539C78.4502 49.3285 79.4475 49.7348 80.4598 50.1107C81.4721 50.4866 82.5032 50.8169 83.5493 51.0979C84.5955 51.3789 85.6492 51.6181 86.7142 51.8041C85.7179 52.6929 84.8081 53.6757 83.9972 54.7392C83.1824 55.8075 82.4705 56.9518 81.871 58.1565C81.2577 59.3947 80.7625 60.6889 80.392 62.0217C80.0086 63.4134 79.7566 64.8386 79.6394 66.2781C78.8165 65.5466 77.961 64.8555 77.0729 64.205C76.1848 63.5545 75.2729 62.9507 74.3371 62.3938C73.3988 61.837 72.4379 61.3218 71.4545 60.8485C70.4723 60.3777 69.4676 59.9486 68.444 59.5689C67.9209 59.3753 67.394 59.1892 66.8597 59.0222C66.3253 58.8551 65.7872 58.6956 65.2453 58.5513C64.7034 58.407 64.154 58.2704 63.6045 58.1526C63.0551 58.0349 62.4982 57.9248 61.9412 57.8299C63.071 56.8938 64.1185 55.8609 65.0722 54.743C65.9713 53.6892 66.7725 52.5542 67.4656 51.3523C68.1239 50.2026 68.672 48.9923 69.1025 47.7376C69.5142 46.5207 69.8042 45.2652 69.9681 43.99Z" fill="#FF1D25"/>
<path d="M95.7381 69.3613C96.1738 69.746 96.6352 70.1 97.1192 70.4206C97.6013 70.7404 98.1042 71.027 98.6245 71.2787C99.149 71.5267 99.6897 71.7385 100.243 71.9128C100.789 72.088 101.348 72.2226 101.913 72.3153C101.574 72.674 101.27 73.0657 101.007 73.4848C100.741 73.9047 100.517 74.3498 100.337 74.8137C100.151 75.2879 100.01 75.7786 99.9152 76.2793C99.8164 76.7988 99.7635 77.3261 99.7572 77.8551C99.3031 77.457 98.8228 77.0904 98.3196 76.7577C97.8214 76.4309 97.3022 76.1379 96.7655 75.8807C96.2324 75.627 95.683 75.4101 95.1209 75.2314C94.5633 75.0532 93.9936 74.9161 93.4162 74.8213C93.7732 74.4572 94.0945 74.0592 94.3758 73.6328C94.6499 73.2137 94.8854 72.7701 95.0795 72.3077C95.2715 71.8456 95.4202 71.3663 95.5236 70.8763C95.6414 70.379 95.7132 69.8719 95.7381 69.3613Z" fill="#F04E5E"/>
<path d="M104.525 79.8522C104.987 79.7143 105.414 79.4758 105.775 79.1535C106.103 78.8486 106.36 78.4737 106.527 78.0562C106.701 77.6302 106.784 77.1724 106.772 76.7121C106.758 76.21 106.649 75.7152 106.452 75.2541C106.649 75.7152 106.758 76.21 106.772 76.7121C106.786 77.1726 106.702 77.6307 106.527 78.0562C106.36 78.4737 106.103 78.8486 105.775 79.1535C105.414 79.4766 104.988 79.7151 104.525 79.8522Z" fill="white"/>
<path d="M67.3902 91.4556H67.4203H67.4504H67.4843H67.5144L104.525 79.89L67.5219 91.4594H67.4918H67.4617H67.4278H67.3977C67.2429 91.5034 67.0859 91.5389 66.9273 91.5657C66.7693 91.591 66.6112 91.61 66.4532 91.6226C66.2913 91.6226 66.1371 91.6226 65.979 91.6226C65.8209 91.6226 65.6629 91.6037 65.5086 91.5809C65.6629 91.6037 65.8209 91.615 65.9752 91.6226C66.1295 91.6302 66.2913 91.6226 66.4456 91.6226C66.5999 91.6226 66.7617 91.5923 66.9198 91.5657C67.0785 91.5381 67.2356 91.5013 67.3902 91.4556Z" fill="white"/>
</g>
</g>
<defs>
<filter id="filter0_d_1024_163498" x="35.1987" y="26" width="79.2068" height="80.8896" filterUnits="userSpaceOnUse" color-interpolation-filters="sRGB">
<feFlood flood-opacity="0" result="BackgroundImageFix"/>
<feColorMatrix in="SourceAlpha" type="matrix" values="0 0 0 0 0 0 0 0 0 0 0 0 0 0 0 0 0 0 127 0" result="hardAlpha"/>
<feOffset dy="7.62962"/>
<feGaussianBlur stdDeviation="3.81481"/>
<feColorMatrix type="matrix" values="0 0 0 0 0 0 0 0 0 0 0 0 0 0 0 0 0 0 0.25 0"/>
<feBlend mode="normal" in2="BackgroundImageFix" result="effect1_dropShadow_1024_163498"/>
<feBlend mode="normal" in="SourceGraphic" in2="effect1_dropShadow_1024_163498" result="shape"/>
</filter>
<radialGradient id="paint0_radial_1024_163498" cx="0" cy="0" r="1" gradientUnits="userSpaceOnUse" gradientTransform="translate(67 67) rotate(90) scale(67)">
<stop stop-color="#D1013E"/>
<stop offset="1" stop-color="#1D1E25" stop-opacity="0"/>
</radialGradient>
<linearGradient id="paint1_linear_1024_163498" x1="9.29922" y1="64.6064" x2="111.985" y2="79.7289" gradientUnits="userSpaceOnUse">
<stop offset="0.11" stop-color="#ECE7E7"/>
<stop offset="0.5" stop-color="#FDF8F8"/>
<stop offset="1" stop-color="white"/>
</linearGradient>
<linearGradient id="paint2_linear_1024_163498" x1="50.8624" y1="74.5108" x2="87.5167" y2="74.1099" gradientUnits="userSpaceOnUse">
<stop offset="0.15" stop-color="#D1CFDE"/>
<stop offset="1" stop-color="#EEEBFF" stop-opacity="0"/>
</linearGradient>
<clipPath id="clip0_1024_163498">
<rect width="82" height="82" fill="white" transform="translate(26 26)"/>
</clipPath>
<clipPath id="clip1_1024_163498">
<rect width="63.9476" height="65.6304" fill="white" transform="translate(42.8283 26)"/>
</clipPath>
</defs>
</svg>
