<svg width="82" height="82" viewBox="0 0 82 82" fill="none" xmlns="http://www.w3.org/2000/svg">
<g clip-path="url(#clip0_942_8239)">
<path d="M0.850156 46.998C0.547634 46.7428 0.313121 46.4166 0.167614 46.0485C0.0221074 45.6804 -0.0298501 45.282 0.0163937 44.889C0.0626375 44.4959 0.205639 44.1204 0.432594 43.7962C0.659549 43.4719 0.963373 43.209 1.31686 43.031C9.92678 38.0276 17.7717 31.8109 24.6102 24.5722C25.149 23.9535 25.9002 23.5592 26.7155 23.4673C27.5308 23.3753 28.3509 23.5924 29.014 24.0756C42.2194 34.744 56.765 43.0489 72.1005 50.241C73.9852 51.0847 74.7571 53.1429 73.722 54.8362C67.6237 64.2015 60.5693 72.9082 52.6724 80.8162C51.2064 82.2163 48.3224 82.3958 46.33 81.241C29.9355 71.4162 14.594 60.341 0.850156 46.998Z" fill="#9F9BB6"/>
<path d="M0.850156 44.4927C0.547634 44.2375 0.313121 43.9113 0.167614 43.5432C0.0221074 43.1752 -0.0298501 42.7768 0.0163937 42.3837C0.0626375 41.9906 0.205639 41.6151 0.432594 41.2909C0.659549 40.9666 0.963373 40.7037 1.31686 40.5257C9.92678 35.5223 17.7717 29.3057 24.6102 22.0669C25.149 21.4482 25.9002 21.054 26.7155 20.962C27.5308 20.8701 28.3509 21.0871 29.014 21.5703C42.2194 32.2387 56.765 40.5437 72.1005 47.7357C73.9852 48.5794 74.7571 50.6377 73.722 52.331C67.6237 61.6963 60.5693 70.4029 52.6724 78.3109C51.2064 79.711 48.3224 79.8905 46.33 78.7357C29.9355 68.911 14.594 57.8357 0.850156 44.4927Z" fill="#DCDAEA"/>
<path d="M0.867674 40.8897C0.565151 40.6345 0.330638 40.3083 0.185131 39.9402C0.0396245 39.5721 -0.012333 39.1737 0.0339108 38.7806C0.0801546 38.3876 0.223156 38.0121 0.450111 37.6879C0.677066 37.3636 0.98089 37.1007 1.33438 36.9227C9.9443 31.9193 17.7892 25.7026 24.6278 18.4639C25.1666 17.8452 25.9178 17.4509 26.733 17.359C27.5483 17.267 28.3685 17.4841 29.0315 17.9673C42.2369 28.6357 56.7825 36.9406 72.118 44.1327C74.0028 44.9763 74.7746 47.0346 73.7395 48.7279C67.6412 58.0932 60.5869 66.7999 52.6899 74.7079C51.224 76.108 48.34 76.2875 46.3475 75.1327C29.953 65.3079 14.6115 54.2327 0.867674 40.8897Z" fill="url(#paint0_linear_942_8239)"/>
<path opacity="0.67" d="M40.4061 71.5912C37.1212 54.7299 34.4945 37.8268 32.5499 20.7323C44.9288 29.8282 58.1838 37.6673 72.1181 44.1333C74.0029 44.977 74.7747 47.0353 73.7396 48.7286C67.6413 58.0939 60.587 66.8006 52.69 74.7085C51.2241 76.1086 48.3401 76.2821 46.3476 75.1273C43.9183 73.7452 42.7336 73.0332 40.4061 71.5912Z" fill="url(#paint1_linear_942_8239)"/>
<path d="M40.9026 49.0782C41.0282 48.1687 41.0881 47.714 41.2017 46.8045C42.2548 46.4934 42.7814 46.3318 43.8285 46.0027C44.9112 45.6739 45.8822 45.0528 46.6347 44.2077L46.9877 43.7949C48.8784 41.593 48.1844 38.5055 45.7372 36.9618C44.3983 36.1493 42.8022 35.8716 41.2676 36.184C37.0837 37.032 32.8573 37.6551 28.6067 38.0508C28.5409 42.3588 28.511 44.5188 28.4631 48.8209C28.4884 49.5416 28.689 50.2452 29.0477 50.8708C29.4064 51.4964 29.9122 52.025 30.5214 52.4109C33.0763 54.206 37.0433 54.0803 39.1494 52.0579L39.5264 51.6929C40.2608 50.9969 40.7446 50.0777 40.9026 49.0782Z" fill="black"/>
<path d="M36.9174 53.3983L37.4798 53.2008C36.2832 46.8046 35.7686 43.6274 34.8053 37.297C32.3341 37.656 31.0956 37.8056 28.5945 38.0628C28.5347 42.3111 28.5107 44.4412 28.4688 48.7013C28.4966 49.4821 28.7151 50.2441 29.1052 50.921C29.4952 51.5979 30.0451 52.169 30.7066 52.5846C31.6108 53.186 32.6408 53.572 33.7175 53.7131C34.7942 53.8542 35.8888 53.7465 36.9174 53.3983Z" fill="#404660"/>
<path d="M41.2018 46.7867L41.3215 46.8226C45.2727 48.1036 49.4759 48.4054 53.5695 47.7022C50.3592 49.888 47.7271 52.8199 45.8988 56.2465C45.2481 52.762 43.6499 49.5241 41.2796 46.8884L41.2018 46.7867Z" fill="black"/>
<path d="M6.00679 37.2157L6.80258 36.725C7.57444 37.473 7.99926 37.8439 8.75915 38.5799C8.92926 38.7253 9.05044 38.9196 9.10619 39.1364C9.13586 39.2354 9.14532 39.3394 9.13401 39.4422C9.12271 39.545 9.09086 39.6445 9.04037 39.7347C8.93506 39.9345 8.77533 40.1005 8.57965 40.2134C8.2583 40.4276 7.8764 40.5326 7.49067 40.5125C7.11947 40.4795 6.7719 40.3163 6.5094 40.0518L7.31715 39.5612C7.41604 39.6685 7.54217 39.7471 7.68214 39.7885C7.80543 39.8085 7.93168 39.7807 8.03516 39.7108C8.08416 39.6876 8.12482 39.6499 8.15159 39.6028C8.17836 39.5557 8.18994 39.5014 8.18475 39.4475C8.15459 39.3123 8.07846 39.1918 7.96934 39.1064C7.17355 38.3346 6.77865 37.9636 6.00679 37.2157Z" fill="black"/>
<path d="M61.8204 40.803C61.8204 40.9825 61.8204 41.0723 61.8204 41.2578L61.3537 41.4672C61.1542 41.5551 60.9825 41.6957 60.8571 41.8741V41.916C60.7791 42.0261 60.7267 42.1522 60.7035 42.2852C60.6803 42.4181 60.687 42.5545 60.7231 42.6846C60.7592 42.8146 60.8238 42.935 60.9121 43.037C61.0005 43.1389 61.1105 43.22 61.234 43.2742C61.5216 43.4173 61.8518 43.4492 62.1615 43.3639C63.1487 43.0827 63.6394 42.9451 64.6266 42.6459C64.4172 41.7664 64.3095 41.3296 64.1061 40.45C64.0702 40.3082 64.0033 40.1761 63.9102 40.0633C63.8171 39.9506 63.7 39.8599 63.5676 39.7978C63.3086 39.6632 63.0094 39.6278 62.7262 39.6983C62.443 39.7688 62.1954 39.9404 62.0298 40.1808L61.9999 40.2286C61.8821 40.3969 61.8194 40.5976 61.8204 40.803Z" fill="black"/>
<path d="M61.8383 41.258H61.7964C61.0475 41.0935 60.2717 41.0935 59.5228 41.258C60.0909 40.7916 60.5075 40.1668 60.7194 39.463C60.9105 40.1335 61.2832 40.7382 61.7964 41.2101L61.8383 41.258Z" fill="black"/>
<path d="M70.1073 45.7875L69.5568 46.6431C68.432 46.1285 67.8755 45.8652 66.7746 45.3387C66.532 45.2392 66.324 45.0706 66.1762 44.854C66.0458 44.6603 65.9828 44.429 65.9967 44.1959C66.0148 43.9467 66.0996 43.707 66.242 43.5018C66.4442 43.1552 66.7652 42.8937 67.1455 42.7658C67.523 42.6561 67.9283 42.6968 68.2764 42.8795L67.7379 43.7411C67.6001 43.6615 67.442 43.6241 67.2831 43.6334C67.219 43.6452 67.1583 43.6712 67.1055 43.7095C67.0526 43.7478 67.0091 43.7975 66.978 43.8548C66.9462 43.906 66.9293 43.9651 66.9293 44.0253C66.9293 44.0856 66.9462 44.1447 66.978 44.1959C67.0598 44.3315 67.1838 44.4366 67.331 44.495C68.426 44.9917 68.9824 45.2729 70.1073 45.7875Z" fill="black"/>
<path fill-rule="evenodd" clip-rule="evenodd" d="M13.4441 43.7729C13.3603 44.0183 13.3124 44.1379 13.2287 44.3713C13.1245 44.6577 12.9262 44.9003 12.6662 45.0594L12.5406 45.1431C12.1446 45.3673 11.6892 45.464 11.2363 45.4201C10.7835 45.3762 10.3551 45.1938 10.0096 44.8978C9.8452 44.7705 9.71682 44.6026 9.63708 44.4106C9.55734 44.2186 9.529 44.0091 9.55485 43.8029C9.74632 42.5703 9.84205 41.96 10.0395 40.7274C11.649 40.7992 12.4329 40.8231 14.0603 40.8471C14.5478 40.8493 15.0194 41.0206 15.3946 41.3317C15.5434 41.4474 15.6627 41.5967 15.7429 41.7672C15.823 41.9378 15.8618 42.1249 15.8559 42.3132C15.8501 42.5016 15.7999 42.6859 15.7093 42.8512C15.6187 43.0165 15.4904 43.158 15.3348 43.2643L15.2092 43.3541C14.9252 43.5394 14.6011 43.6543 14.2638 43.6892L13.4381 43.7729H13.474C14.5742 44.3312 15.7783 44.6551 17.0102 44.7243C15.939 45.1014 14.9857 45.7535 14.2458 46.6151C14.2825 45.6209 14.0085 44.6401 13.462 43.8088L13.4441 43.7729Z" fill="black"/>
<g clip-path="url(#clip1_942_8239)" filter="url(#filter0_d_942_8239)">
<path d="M35.9287 31.8377C36.4857 31.9327 37.0576 32.039 37.592 32.1605C38.1264 32.282 38.6909 32.4111 39.2328 32.5592C39.7747 32.7072 40.3128 32.8629 40.8472 33.03C41.3815 33.1971 55.01 32.8363 55.533 33.03L32.3913 53.3019L16.9623 9.85336C16.8207 9.45727 16.7806 9.03149 16.8457 8.61556C16.9119 8.21256 17.0747 7.83197 17.3198 7.50684C17.5809 7.15388 17.9114 6.85915 18.2907 6.64114C18.7171 6.39226 19.1832 6.2201 19.6681 6.13235L52.2195 0.0572177C52.6884 -0.0148815 53.1655 -0.0148815 53.6344 0.0572177C54.0939 0.120132 54.5424 0.24795 54.9666 0.436913C55.378 0.618015 55.7588 0.862691 56.0955 1.16213C56.414 1.44277 56.677 1.78158 56.8708 2.16073L57.6422 3.7023L50.4845 30.2911C50.0631 30.038 47.8279 20.8405 47.4214 20.5874C47.0188 20.3254 46.6161 20.052 46.2247 19.771C45.8334 19.49 45.4495 19.2015 45.0732 18.9091C44.6969 18.6167 44.3206 18.3092 43.9706 18.0016C43.8035 19.2798 43.5098 20.5378 43.0938 21.7568C42.6633 23.0115 42.1151 24.2219 41.4568 25.3715C40.7637 26.5734 39.9626 27.7084 39.0634 28.7622C38.1081 29.8764 37.0593 30.9054 35.9287 31.8377ZM28.1088 22.1365C28.192 21.68 28.318 21.2324 28.4852 20.8C28.6592 20.3691 28.8734 19.9559 29.1249 19.566C29.3774 19.1692 29.6672 18.7979 29.9904 18.4573C30.3191 18.1034 30.678 17.7794 31.0629 17.489C30.5222 17.3979 29.9879 17.271 29.4636 17.1094C28.9498 16.9446 28.447 16.7468 27.9583 16.517C27.4784 16.2969 27.0144 16.0432 26.5697 15.7576C26.1362 15.476 25.7248 15.1612 25.3391 14.816C25.2484 15.2552 25.1135 15.684 24.9365 16.0956C24.7569 16.5182 24.5376 16.9225 24.2817 17.303C24.0166 17.6977 23.7169 18.0675 23.386 18.4079C23.0376 18.767 22.66 19.0959 22.2571 19.3913C22.8096 19.4879 23.3552 19.6211 23.8903 19.79C24.4154 19.9549 24.9285 20.1566 25.4257 20.3937C25.9144 20.6236 26.3861 20.8888 26.8369 21.1873C27.2827 21.4792 27.7054 21.8054 28.1013 22.1631L28.1088 22.1365ZM22.1668 7.97007L21.734 13.4795L23.3635 13.1529V12.1239L25.437 11.7101L26.1595 12.5834L27.7739 12.2606L23.5629 7.70428L22.1593 7.97007" fill="white"/>
<path d="M23.5717 7.70403L27.7827 12.2604L26.1682 12.5831L25.4457 11.7098L23.3722 12.1237V13.1527L21.7427 13.4792L22.1755 7.96982L23.5717 7.70403ZM23.3835 11.1213L24.7269 10.8555L23.3985 9.24559V11.1213" fill="#F04E5E"/>
<path d="M23.3987 9.23032L24.7271 10.8402L23.3874 11.106L23.3987 9.23032Z" fill="white"/>
<path d="M25.3476 14.8043C25.7333 15.1495 26.1447 15.4643 26.5782 15.7459C27.0229 16.0315 27.4869 16.2852 27.9668 16.5053C28.4555 16.7351 28.9583 16.9329 29.4721 17.0977C29.9964 17.2593 30.5307 17.3862 31.0714 17.4774C30.6865 17.7677 30.3276 18.0917 29.9989 18.4456C29.6757 18.7862 29.3859 19.1575 29.1334 19.5543C28.8819 19.9442 28.6677 20.3574 28.4937 20.7883C28.3265 21.2207 28.2004 21.6683 28.1173 22.1248C27.7214 21.7671 27.2987 21.4409 26.8529 21.149C26.4021 20.8505 25.9305 20.5853 25.4417 20.3554C24.9445 20.1184 24.4315 19.9166 23.9063 19.7517C23.3712 19.5828 22.8256 19.4496 22.2731 19.353C22.676 19.0577 23.0537 18.7287 23.4021 18.3696C23.7329 18.0292 24.0327 17.6594 24.2977 17.2647C24.5536 16.8842 24.7729 16.4799 24.9525 16.0573C25.1252 15.6539 25.2576 15.2342 25.3476 14.8043Z" fill="#F04E5E"/>
<path d="M80.3239 48.977C80.5602 49.4658 80.7032 49.9952 80.7454 50.5375C80.7846 51.0243 80.7191 51.5139 80.5534 51.9728C80.3932 52.4061 80.1356 52.796 79.8008 53.1119C79.4391 53.4515 79.0054 53.7035 78.5326 53.8485L41.5218 65.414C41.3337 65.4672 41.1455 65.5089 40.9799 65.5431C40.8118 65.5735 40.6422 65.595 40.4719 65.6076C40.3103 65.6189 40.1481 65.6189 39.9865 65.6076C39.829 65.6046 39.672 65.5919 39.5161 65.5697C39.0891 65.5131 38.6715 65.3995 38.2742 65.2317C37.8794 65.0641 37.5075 64.8458 37.1679 64.5825C36.8297 64.3153 36.5285 64.0037 36.2722 63.656C36.015 63.3077 35.8084 62.9242 35.6588 62.5169L32.3886 53.3207L42.4401 33.5765C43.4674 33.9562 44.4722 34.3853 45.4506 34.8561C46.429 35.3269 47.3961 35.8433 48.3332 36.4014C49.2702 36.9596 50.1847 37.5671 51.069 38.2126C51.9533 38.8581 52.8113 39.5529 53.6355 40.2857C53.7527 38.8461 54.0047 37.421 54.3881 36.0293C54.7586 34.6965 55.2538 33.4023 55.867 32.164C56.4666 30.9594 57.1785 29.8151 57.9932 28.7468C58.8042 27.6833 59.714 26.7005 60.7102 25.8117C59.6453 25.6257 58.5878 25.3903 57.5454 25.1055C56.503 24.8207 55.4681 24.4904 54.4559 24.1183C53.4436 23.7462 52.4501 23.3209 51.4792 22.8615C50.5083 22.4021 49.5713 21.8933 48.6568 21.3427L57.6357 3.69826L80.3239 48.977ZM73.791 51.8589C73.7974 51.3299 73.8503 50.8026 73.9491 50.2831C74.0438 49.7823 74.1849 49.2916 74.3706 48.8175C74.5505 48.3536 74.7749 47.9085 75.0404 47.4886C75.3038 47.0695 75.6075 46.6778 75.9473 46.3191C75.3814 46.2263 74.8229 46.0918 74.2765 45.9166C73.7235 45.7423 73.1829 45.5305 72.6583 45.2825C72.1381 45.0308 71.6352 44.7442 71.153 44.4244C70.6641 44.1068 70.1976 43.7554 69.7569 43.3727C69.7434 43.8835 69.6829 44.3919 69.5763 44.8914C69.4728 45.3815 69.3242 45.8608 69.1322 46.3229C68.9381 46.7853 68.7026 47.2289 68.4285 47.648C68.1472 48.0744 67.8258 48.4723 67.4689 48.8365C68.0462 48.9313 68.616 49.0684 69.1736 49.2465C69.7357 49.4253 70.2851 49.6422 70.8181 49.8958C71.3549 50.1531 71.8741 50.4461 72.3723 50.7729C72.8754 51.1056 73.3557 51.4722 73.8098 51.8702L73.791 51.8589ZM65.3879 35.5433L65.9147 41.9792L67.4877 41.5387L67.3146 40.3351L69.3129 39.7845L70.1972 40.7831L71.7514 40.3465L66.7464 35.1788L65.3879 35.5585" fill="#F9FAFF"/>
<path d="M66.818 36.9407L68.4287 38.7747L67.1341 39.1278L66.818 36.9407Z" fill="#F9FAFF"/>
<path d="M66.7279 35.1562L71.7329 40.3239L70.1787 40.7605L69.2943 39.7619L67.2961 40.3125L67.4692 41.5161L65.8962 41.9566L65.3694 35.5207L66.7279 35.1562ZM67.1305 39.1278L68.4288 38.7747L66.8182 36.9446L67.1305 39.1278Z" fill="#F04E5E"/>
<path d="M43.9681 17.99C44.3444 18.2976 44.6981 18.6013 45.0707 18.8975C45.4432 19.1936 45.8233 19.4784 46.2222 19.7594C46.6211 20.0403 47.0162 20.3137 47.4189 20.5757C47.8215 20.8377 48.2393 21.0997 48.6607 21.3351C49.5752 21.8743 50.516 22.3793 51.4831 22.8539C52.4502 23.3285 53.4475 23.7348 54.4598 24.1107C55.4721 24.4866 56.5032 24.8169 57.5493 25.0979C58.5955 25.3789 59.6492 25.6181 60.7142 25.8041C59.7179 26.6929 58.8081 27.6757 57.9972 28.7392C57.1824 29.8075 56.4705 30.9518 55.871 32.1564C55.2577 33.3947 54.7625 34.6889 54.392 36.0217C54.0086 37.4134 53.7566 38.8386 53.6394 40.2781C52.8165 39.5466 51.961 38.8555 51.0729 38.205C50.1848 37.5544 49.2729 36.9507 48.3371 36.3938C47.3988 35.837 46.4379 35.3218 45.4545 34.8485C44.4723 34.3777 43.4676 33.9486 42.444 33.5689C41.9209 33.3753 41.394 33.1892 40.8597 33.0221C40.3253 32.8551 39.7872 32.6956 39.2453 32.5513C38.7034 32.407 38.154 32.2703 37.6045 32.1526C37.0551 32.0349 36.4982 31.9248 35.9412 31.8299C37.071 30.8937 38.1185 29.8609 39.0722 28.743C39.9713 27.6892 40.7725 26.5542 41.4656 25.3523C42.1239 24.2026 42.672 22.9923 43.1025 21.7376C43.5142 20.5207 43.8042 19.2652 43.9681 17.99Z" fill="#FF1D25"/>
<path d="M69.7381 43.3613C70.1738 43.746 70.6352 44.1 71.1192 44.4206C71.6013 44.7404 72.1042 45.027 72.6245 45.2787C73.149 45.5267 73.6897 45.7385 74.2426 45.9128C74.7891 46.088 75.3475 46.2226 75.9135 46.3153C75.5737 46.674 75.2699 47.0657 75.0065 47.4848C74.741 47.9047 74.5167 48.3498 74.3367 48.8137C74.1511 49.2879 74.0099 49.7786 73.9152 50.2793C73.8164 50.7988 73.7635 51.3261 73.7572 51.8551C73.3031 51.457 72.8228 51.0904 72.3196 50.7577C71.8214 50.4309 71.3022 50.1379 70.7655 49.8807C70.2324 49.627 69.683 49.4101 69.1209 49.2314C68.5633 49.0532 67.9936 48.9161 67.4162 48.8213C67.7732 48.4572 68.0945 48.0592 68.3758 47.6328C68.6499 47.2137 68.8854 46.7701 69.0795 46.3077C69.2715 45.8456 69.4202 45.3663 69.5236 44.8763C69.6414 44.379 69.7132 43.8719 69.7381 43.3613Z" fill="#F04E5E"/>
<path d="M78.5251 53.8522C78.9873 53.7143 79.4137 53.4758 79.7745 53.1535C80.1029 52.8486 80.36 52.4737 80.5272 52.0562C80.7006 51.6302 80.7839 51.1724 80.7718 50.7121C80.7578 50.21 80.6493 49.7152 80.4519 49.2541C80.6493 49.7152 80.7578 50.21 80.7718 50.7121C80.7857 51.1726 80.7023 51.6307 80.5272 52.0562C80.36 52.4737 80.1029 52.8486 79.7745 53.1535C79.4142 53.4766 78.9876 53.7151 78.5251 53.8522Z" fill="white"/>
<path d="M41.3902 65.4556H41.4203H41.4504H41.4843H41.5144L78.5252 53.89L41.5219 65.4594H41.4918H41.4617H41.4278H41.3977C41.2429 65.5034 41.0859 65.5389 40.9273 65.5657C40.7693 65.591 40.6112 65.61 40.4532 65.6226C40.2913 65.6226 40.1371 65.6226 39.979 65.6226C39.8209 65.6226 39.6629 65.6037 39.5086 65.5809C39.6629 65.6037 39.8209 65.615 39.9752 65.6226C40.1295 65.6302 40.2913 65.6226 40.4456 65.6226C40.5999 65.6226 40.7617 65.5923 40.9198 65.5657C41.0785 65.5381 41.2356 65.5013 41.3902 65.4556Z" fill="white"/>
</g>
</g>
<defs>
<filter id="filter0_d_942_8239" x="9.19867" y="0" width="79.2068" height="80.8896" filterUnits="userSpaceOnUse" color-interpolation-filters="sRGB">
<feFlood flood-opacity="0" result="BackgroundImageFix"/>
<feColorMatrix in="SourceAlpha" type="matrix" values="0 0 0 0 0 0 0 0 0 0 0 0 0 0 0 0 0 0 127 0" result="hardAlpha"/>
<feOffset dy="7.62962"/>
<feGaussianBlur stdDeviation="3.81481"/>
<feColorMatrix type="matrix" values="0 0 0 0 0 0 0 0 0 0 0 0 0 0 0 0 0 0 0.25 0"/>
<feBlend mode="normal" in2="BackgroundImageFix" result="effect1_dropShadow_942_8239"/>
<feBlend mode="normal" in="SourceGraphic" in2="effect1_dropShadow_942_8239" result="shape"/>
</filter>
<linearGradient id="paint0_linear_942_8239" x1="-16.7008" y1="38.6064" x2="85.9851" y2="53.7289" gradientUnits="userSpaceOnUse">
<stop offset="0.11" stop-color="#ECE7E7"/>
<stop offset="0.5" stop-color="#FDF8F8"/>
<stop offset="1" stop-color="white"/>
</linearGradient>
<linearGradient id="paint1_linear_942_8239" x1="24.8624" y1="48.5108" x2="61.5167" y2="48.1099" gradientUnits="userSpaceOnUse">
<stop offset="0.15" stop-color="#D1CFDE"/>
<stop offset="1" stop-color="#EEEBFF" stop-opacity="0"/>
</linearGradient>
<clipPath id="clip0_942_8239">
<rect width="82" height="82" fill="white"/>
</clipPath>
<clipPath id="clip1_942_8239">
<rect width="63.9476" height="65.6304" fill="white" transform="translate(16.8283)"/>
</clipPath>
</defs>
</svg>
