<svg width="64" height="92" viewBox="0 0 64 92" fill="none" xmlns="http://www.w3.org/2000/svg">
<path d="M0 4C0 1.79086 1.79086 0 4 0H60C62.2091 0 64 1.79086 64 4V88C64 90.2091 62.2091 92 60 92H4C1.79086 92 0 90.2091 0 88V4Z" fill="url(#paint0_linear_2928_266866)"/>
<path d="M8.36545 13.0047V14.9303H12.2528V17H6.06183V12.8067C6.06183 11.2229 6.80571 10.4311 8.29346 10.4311H9.73323C9.82921 10.4311 9.9072 10.3951 9.96719 10.3231C10.0392 10.2511 10.0752 10.1671 10.0752 10.0711V7.49755C10.0752 7.40156 10.0392 7.31758 9.96719 7.24559C9.9072 7.1736 9.82921 7.1376 9.73323 7.1376H8.6714C8.57542 7.1376 8.49143 7.1736 8.41944 7.24559C8.35945 7.31758 8.32946 7.40156 8.32946 7.49755V8.4154H5.93585V7.55154C5.93585 5.9678 6.67973 5.17592 8.16748 5.17592H10.1652C11.6529 5.17592 12.3968 5.9678 12.3968 7.55154V10.2691C12.3968 11.8528 11.6529 12.6447 10.1652 12.6447H8.7074C8.61141 12.6447 8.52743 12.6807 8.45544 12.7527C8.39545 12.8247 8.36545 12.9087 8.36545 13.0047Z" fill="black"/>
<path d="M54.0172 82.0047V83.9303H57.9046V86H51.7136V81.8067C51.7136 80.2229 52.4575 79.4311 53.9452 79.4311H55.385C55.481 79.4311 55.559 79.3951 55.6189 79.3231C55.6909 79.2511 55.7269 79.1671 55.7269 79.0711V76.4975C55.7269 76.4016 55.6909 76.3176 55.6189 76.2456C55.559 76.1736 55.481 76.1376 55.385 76.1376H54.3232C54.2272 76.1376 54.1432 76.1736 54.0712 76.2456C54.0112 76.3176 53.9812 76.4016 53.9812 76.4975V77.4154H51.5876V76.5515C51.5876 74.9678 52.3315 74.1759 53.8192 74.1759H55.8169C57.3047 74.1759 58.0485 74.9678 58.0485 76.5515V79.2691C58.0485 80.8528 57.3047 81.6447 55.8169 81.6447H54.3591C54.2632 81.6447 54.1792 81.6807 54.1072 81.7527C54.0472 81.8247 54.0172 81.9087 54.0172 82.0047Z" fill="black"/>
<path d="M32 50.5946C32 55.289 28.1944 59.0946 23.5 59.0946C18.8056 59.0946 15 55.289 15 50.5946C15 48.5976 15.6886 46.7615 16.8414 45.3108L32 29V39.7973V50.5946Z" fill="black"/>
<path d="M32 50.5946C32 55.289 35.8055 59.0946 40.5 59.0946C45.1944 59.0946 49 55.289 49 50.5946C49 48.5976 48.3113 46.7615 47.1586 45.3108L32 29V39.7973V50.5946Z" fill="black"/>
<path d="M32 58.0258C30.983 63.0668 26 65 26 65H30.8441H33.1559H38C38 65 33.017 63.0668 32 58.0258Z" fill="black"/>
<g clip-path="url(#clip0_2928_266866)">
<path d="M52.9997 12.1982C52.9997 13.763 51.7311 15.0315 50.1663 15.0315C48.6015 15.0315 47.333 13.763 47.333 12.1982C47.333 11.5325 47.5626 10.9205 47.9468 10.4369L52.9997 5V8.59909V12.1982Z" fill="black"/>
<path d="M52.9997 12.1982C52.9997 13.763 54.2682 15.0315 55.833 15.0315C57.3978 15.0315 58.6663 13.763 58.6663 12.1982C58.6663 11.5325 58.4368 10.9205 58.0525 10.4369L52.9997 5V8.59909V12.1982Z" fill="black"/>
<path d="M53 14.6751C52.661 16.3555 51 16.9998 51 16.9998H52.6147H53.3853H55C55 16.9998 53.339 16.3555 53 14.6751Z" fill="black"/>
</g>
<g clip-path="url(#clip1_2928_266866)">
<path d="M10.9997 81.1982C10.9997 82.763 9.73114 84.0315 8.16634 84.0315C6.60153 84.0315 5.33301 82.763 5.33301 81.1982C5.33301 80.5325 5.56255 79.9205 5.9468 79.4369L10.9997 74V77.5991V81.1982Z" fill="black"/>
<path d="M10.9997 81.1982C10.9997 82.763 12.2682 84.0315 13.833 84.0315C15.3978 84.0315 16.6663 82.763 16.6663 81.1982C16.6663 80.5325 16.4368 79.9205 16.0525 79.4369L10.9997 74V77.5991V81.1982Z" fill="black"/>
<path d="M11 83.6751C10.661 85.3555 9 85.9998 9 85.9998H10.6147H11.3853H13C13 85.9998 11.339 85.3555 11 83.6751Z" fill="black"/>
</g>
<defs>
<linearGradient id="paint0_linear_2928_266866" x1="2.06452" y1="92" x2="56.6415" y2="5.15165" gradientUnits="userSpaceOnUse">
<stop stop-color="#DAD7C9"/>
<stop offset="1" stop-color="#FFFCED"/>
</linearGradient>
<clipPath id="clip0_2928_266866">
<rect width="12" height="12" fill="white" transform="translate(47 5)"/>
</clipPath>
<clipPath id="clip1_2928_266866">
<rect width="12" height="12" fill="white" transform="translate(5 74)"/>
</clipPath>
</defs>
</svg>
