<svg width="64" height="92" viewBox="0 0 64 92" fill="none" xmlns="http://www.w3.org/2000/svg">
<path d="M0 4C0 1.79086 1.79086 0 4 0H60C62.2091 0 64 1.79086 64 4V88C64 90.2091 62.2091 92 60 92H4C1.79086 92 0 90.2091 0 88V4Z" fill="url(#paint0_linear_2928_266868)"/>
<path d="M11.5689 11.043C12.1328 11.4389 12.4148 12.1168 12.4148 13.0766V14.8044C12.4148 16.3881 11.6709 17.18 10.1832 17.18H8.0595C6.57174 17.18 5.82787 16.3881 5.82787 14.8044V13.8505H8.0775V14.9123C8.0775 15.0083 8.10749 15.0923 8.16748 15.1643C8.23947 15.2363 8.32346 15.2723 8.41944 15.2723H9.84121C9.9372 15.2723 10.0152 15.2363 10.0752 15.1643C10.1472 15.0923 10.1832 15.0083 10.1832 14.9123V12.4287C10.1832 12.3328 10.1472 12.2488 10.0752 12.1768C10.0152 12.1048 9.9372 12.0688 9.84121 12.0688H7.98751V10.1251H9.73323C9.82921 10.1251 9.9072 10.0891 9.96719 10.0171C10.0392 9.94515 10.0752 9.86116 10.0752 9.76518V7.49755C10.0752 7.40156 10.0392 7.31758 9.96719 7.24559C9.9072 7.1736 9.82921 7.1376 9.73323 7.1376H8.52743C8.43144 7.1376 8.34746 7.1736 8.27547 7.24559C8.21548 7.31758 8.18548 7.40156 8.18548 7.49755V8.64936H5.93585V7.55154C5.93585 5.9678 6.67973 5.17592 8.16748 5.17592H10.0752C11.5629 5.17592 12.3068 5.9678 12.3068 7.55154V9.09929C12.3068 10.0351 12.0609 10.683 11.5689 11.043Z" fill="black"/>
<path d="M57.3789 80.043C57.9428 80.4389 58.2247 81.1168 58.2247 82.0766V83.8044C58.2247 85.3881 57.4808 86.18 55.9931 86.18H53.8694C52.3817 86.18 51.6378 85.3881 51.6378 83.8044V82.8505H53.8874V83.9123C53.8874 84.0083 53.9174 84.0923 53.9774 84.1643C54.0494 84.2363 54.1334 84.2723 54.2294 84.2723H55.6511C55.7471 84.2723 55.8251 84.2363 55.8851 84.1643C55.9571 84.0923 55.9931 84.0083 55.9931 83.9123V81.4287C55.9931 81.3328 55.9571 81.2488 55.8851 81.1768C55.8251 81.1048 55.7471 81.0688 55.6511 81.0688H53.7974V79.1251H55.5432C55.6391 79.1251 55.7171 79.0891 55.7771 79.0171C55.8491 78.9451 55.8851 78.8612 55.8851 78.7652V76.4975C55.8851 76.4016 55.8491 76.3176 55.7771 76.2456C55.7171 76.1736 55.6391 76.1376 55.5432 76.1376H54.3374C54.2414 76.1376 54.1574 76.1736 54.0854 76.2456C54.0254 76.3176 53.9954 76.4016 53.9954 76.4975V77.6494H51.7458V76.5515C51.7458 74.9678 52.4897 74.1759 53.9774 74.1759H55.8851C57.3729 74.1759 58.1167 74.9678 58.1167 76.5515V78.0993C58.1167 79.0351 57.8708 79.683 57.3789 80.043Z" fill="black"/>
<path d="M32 50.5946C32 55.289 28.1944 59.0946 23.5 59.0946C18.8056 59.0946 15 55.289 15 50.5946C15 48.5976 15.6886 46.7615 16.8414 45.3108L32 29V39.7973V50.5946Z" fill="black"/>
<path d="M32 50.5946C32 55.289 35.8055 59.0946 40.5 59.0946C45.1944 59.0946 49 55.289 49 50.5946C49 48.5976 48.3113 46.7615 47.1586 45.3108L32 29V39.7973V50.5946Z" fill="black"/>
<path d="M32 58.0258C30.983 63.0668 26 65 26 65H30.8441H33.1559H38C38 65 33.017 63.0668 32 58.0258Z" fill="black"/>
<g clip-path="url(#clip0_2928_266868)">
<path d="M52.9997 12.1982C52.9997 13.763 51.7311 15.0315 50.1663 15.0315C48.6015 15.0315 47.333 13.763 47.333 12.1982C47.333 11.5325 47.5626 10.9205 47.9468 10.4369L52.9997 5V8.59909V12.1982Z" fill="black"/>
<path d="M52.9997 12.1982C52.9997 13.763 54.2682 15.0315 55.833 15.0315C57.3978 15.0315 58.6663 13.763 58.6663 12.1982C58.6663 11.5325 58.4368 10.9205 58.0525 10.4369L52.9997 5V8.59909V12.1982Z" fill="black"/>
<path d="M53 14.6751C52.661 16.3555 51 16.9998 51 16.9998H52.6147H53.3853H55C55 16.9998 53.339 16.3555 53 14.6751Z" fill="black"/>
</g>
<g clip-path="url(#clip1_2928_266868)">
<path d="M10.9997 81.1982C10.9997 82.763 9.73114 84.0315 8.16634 84.0315C6.60153 84.0315 5.33301 82.763 5.33301 81.1982C5.33301 80.5325 5.56255 79.9205 5.9468 79.4369L10.9997 74V77.5991V81.1982Z" fill="black"/>
<path d="M10.9997 81.1982C10.9997 82.763 12.2682 84.0315 13.833 84.0315C15.3978 84.0315 16.6663 82.763 16.6663 81.1982C16.6663 80.5325 16.4368 79.9205 16.0525 79.4369L10.9997 74V77.5991V81.1982Z" fill="black"/>
<path d="M11 83.6751C10.661 85.3555 9 85.9998 9 85.9998H10.6147H11.3853H13C13 85.9998 11.339 85.3555 11 83.6751Z" fill="black"/>
</g>
<defs>
<linearGradient id="paint0_linear_2928_266868" x1="2.06452" y1="92" x2="56.6415" y2="5.15165" gradientUnits="userSpaceOnUse">
<stop stop-color="#DAD7C9"/>
<stop offset="1" stop-color="#FFFCED"/>
</linearGradient>
<clipPath id="clip0_2928_266868">
<rect width="12" height="12" fill="white" transform="translate(47 5)"/>
</clipPath>
<clipPath id="clip1_2928_266868">
<rect width="12" height="12" fill="white" transform="translate(5 74)"/>
</clipPath>
</defs>
</svg>
