<svg width="64" height="92" viewBox="0 0 64 92" fill="none" xmlns="http://www.w3.org/2000/svg">
<path d="M0 4C0 1.79086 1.79086 0 4 0H60C62.2091 0 64 1.79086 64 4V88C64 90.2091 62.2091 92 60 92H4C1.79086 92 0 90.2091 0 88V4Z" fill="url(#paint0_linear_2928_266884)"/>
<path d="M10.2551 5.3559H12.5048V17H10.2551V12.4107H8.14949C6.66173 12.4107 5.91785 11.6189 5.91785 10.0351V5.3559H8.14949V9.92715C8.14949 10.0231 8.17948 10.1071 8.23947 10.1791C8.31146 10.2511 8.39545 10.2871 8.49143 10.2871H9.9132C10.0092 10.2871 10.0872 10.2511 10.1472 10.1791C10.2192 10.1071 10.2551 10.0231 10.2551 9.92715V5.3559Z" fill="black"/>
<path d="M55.8542 74.3559H58.1038V86H55.8542V81.4107H53.7485C52.2608 81.4107 51.5169 80.6189 51.5169 79.0351V74.3559H53.7485V78.9272C53.7485 79.0231 53.7785 79.1071 53.8385 79.1791C53.9105 79.2511 53.9945 79.2871 54.0905 79.2871H55.5122C55.6082 79.2871 55.6862 79.2511 55.7462 79.1791C55.8182 79.1071 55.8542 79.0231 55.8542 78.9272V74.3559Z" fill="black"/>
<path d="M32 50.5946C32 55.289 28.1944 59.0946 23.5 59.0946C18.8056 59.0946 15 55.289 15 50.5946C15 48.5976 15.6886 46.7615 16.8414 45.3108L32 29V39.7973V50.5946Z" fill="black"/>
<path d="M32 50.5946C32 55.289 35.8055 59.0946 40.5 59.0946C45.1944 59.0946 49 55.289 49 50.5946C49 48.5976 48.3113 46.7615 47.1586 45.3108L32 29V39.7973V50.5946Z" fill="black"/>
<path d="M32 58.0258C30.983 63.0668 26 65 26 65H30.8441H33.1559H38C38 65 33.017 63.0668 32 58.0258Z" fill="black"/>
<g clip-path="url(#clip0_2928_266884)">
<path d="M52.9997 12.1982C52.9997 13.763 51.7311 15.0315 50.1663 15.0315C48.6015 15.0315 47.333 13.763 47.333 12.1982C47.333 11.5325 47.5626 10.9205 47.9468 10.4369L52.9997 5V8.59909V12.1982Z" fill="black"/>
<path d="M52.9997 12.1982C52.9997 13.763 54.2682 15.0315 55.833 15.0315C57.3978 15.0315 58.6663 13.763 58.6663 12.1982C58.6663 11.5325 58.4368 10.9205 58.0525 10.4369L52.9997 5V8.59909V12.1982Z" fill="black"/>
<path d="M53 14.6751C52.661 16.3555 51 16.9998 51 16.9998H52.6147H53.3853H55C55 16.9998 53.339 16.3555 53 14.6751Z" fill="black"/>
</g>
<g clip-path="url(#clip1_2928_266884)">
<path d="M10.9997 81.1982C10.9997 82.763 9.73114 84.0315 8.16634 84.0315C6.60153 84.0315 5.33301 82.763 5.33301 81.1982C5.33301 80.5325 5.56255 79.9205 5.9468 79.4369L10.9997 74V77.5991V81.1982Z" fill="black"/>
<path d="M10.9997 81.1982C10.9997 82.763 12.2682 84.0315 13.833 84.0315C15.3978 84.0315 16.6663 82.763 16.6663 81.1982C16.6663 80.5325 16.4368 79.9205 16.0525 79.4369L10.9997 74V77.5991V81.1982Z" fill="black"/>
<path d="M11 83.6751C10.661 85.3555 9 85.9998 9 85.9998H10.6147H11.3853H13C13 85.9998 11.339 85.3555 11 83.6751Z" fill="black"/>
</g>
<defs>
<linearGradient id="paint0_linear_2928_266884" x1="2.06452" y1="92" x2="56.6415" y2="5.15165" gradientUnits="userSpaceOnUse">
<stop stop-color="#DAD7C9"/>
<stop offset="1" stop-color="#FFFCED"/>
</linearGradient>
<clipPath id="clip0_2928_266884">
<rect width="12" height="12" fill="white" transform="translate(47 5)"/>
</clipPath>
<clipPath id="clip1_2928_266884">
<rect width="12" height="12" fill="white" transform="translate(5 74)"/>
</clipPath>
</defs>
</svg>
