<svg width="64" height="92" viewBox="0 0 64 92" fill="none" xmlns="http://www.w3.org/2000/svg">
<path d="M0 4C0 1.79086 1.79086 0 4 0H60C62.2091 0 64 1.79086 64 4V88C64 90.2091 62.2091 92 60 92H4C1.79086 92 0 90.2091 0 88V4Z" fill="url(#paint0_linear_2928_267108)"/>
<path d="M10.5251 5.17592C12.0129 5.17592 12.7567 5.9678 12.7567 7.55154V17H10.2371V13.0946H8.41944V17H5.89985V7.55154C5.89985 5.9678 6.64373 5.17592 8.13149 5.17592H10.5251ZM8.41944 11.151H10.2371V7.24559C10.2371 7.1496 10.2012 7.06562 10.1292 6.99363C10.0692 6.92164 9.99119 6.88565 9.8952 6.88565H8.76139C8.6654 6.88565 8.58142 6.92164 8.50943 6.99363C8.44944 7.06562 8.41944 7.1496 8.41944 7.24559V11.151Z" fill="black"/>
<path d="M55.7902 74.1759C57.278 74.1759 58.0218 74.9678 58.0218 76.5515V86H55.5022V82.0946H53.6845V86H51.1649V76.5515C51.1649 74.9678 51.9088 74.1759 53.3966 74.1759H55.7902ZM53.6845 80.151H55.5022V76.2456C55.5022 76.1496 55.4662 76.0656 55.3943 75.9936C55.3343 75.9216 55.2563 75.8856 55.1603 75.8856H54.0265C53.9305 75.8856 53.8465 75.9216 53.7745 75.9936C53.7145 76.0656 53.6845 76.1496 53.6845 76.2456V80.151Z" fill="black"/>
<path d="M34.4436 35C37.4812 35 39 36.6073 39 39.8219V59H33.8556V51.0731H30.1444V59H25V39.8219C25 36.6073 26.5188 35 29.5564 35H34.4436ZM30.1444 47.1279H33.8556V39.2009C33.8556 39.0061 33.7822 38.8356 33.6352 38.6895C33.5127 38.5434 33.3535 38.4703 33.1575 38.4703H30.8425C30.6465 38.4703 30.4751 38.5434 30.3281 38.6895C30.2056 38.8356 30.1444 39.0061 30.1444 39.2009V47.1279Z" fill="black"/>
<g clip-path="url(#clip0_2928_267108)">
<path d="M52.9987 12.1982C52.9987 13.763 51.7302 15.0315 50.1654 15.0315C48.6006 15.0315 47.332 13.763 47.332 12.1982C47.332 11.5325 47.5616 10.9205 47.9458 10.4369L52.9987 5V8.59909V12.1982Z" fill="black"/>
<path d="M52.9987 12.1982C52.9987 13.763 54.2672 15.0315 55.832 15.0315C57.3968 15.0315 58.6653 13.763 58.6653 12.1982C58.6653 11.5325 58.4358 10.9205 58.0516 10.4369L52.9987 5V8.59909V12.1982Z" fill="black"/>
<path d="M53 14.6751C52.661 16.3555 51 16.9998 51 16.9998H52.6147H53.3853H55C55 16.9998 53.339 16.3555 53 14.6751Z" fill="black"/>
</g>
<g clip-path="url(#clip1_2928_267108)">
<path d="M10.9987 81.1982C10.9987 82.763 9.73017 84.0315 8.16536 84.0315C6.60056 84.0315 5.33203 82.763 5.33203 81.1982C5.33203 80.5325 5.56157 79.9205 5.94582 79.4369L10.9987 74V77.5991V81.1982Z" fill="black"/>
<path d="M10.9987 81.1982C10.9987 82.763 12.2672 84.0315 13.832 84.0315C15.3968 84.0315 16.6653 82.763 16.6653 81.1982C16.6653 80.5325 16.4358 79.9205 16.0516 79.4369L10.9987 74V77.5991V81.1982Z" fill="black"/>
<path d="M11 83.6751C10.661 85.3555 9 85.9998 9 85.9998H10.6147H11.3853H13C13 85.9998 11.339 85.3555 11 83.6751Z" fill="black"/>
</g>
<defs>
<linearGradient id="paint0_linear_2928_267108" x1="2.06452" y1="92" x2="56.6415" y2="5.15165" gradientUnits="userSpaceOnUse">
<stop stop-color="#DAD7C9"/>
<stop offset="1" stop-color="#FFFCED"/>
</linearGradient>
<clipPath id="clip0_2928_267108">
<rect width="12" height="12" fill="white" transform="translate(47 5)"/>
</clipPath>
<clipPath id="clip1_2928_267108">
<rect width="12" height="12" fill="white" transform="translate(5 74)"/>
</clipPath>
</defs>
</svg>
