<svg width="64" height="92" viewBox="0 0 64 92" fill="none" xmlns="http://www.w3.org/2000/svg">
<path d="M0 4C0 1.79086 1.79086 0 4 0H60C62.2091 0 64 1.79086 64 4V88C64 90.2091 62.2091 92 60 92H4C1.79086 92 0 90.2091 0 88V4Z" fill="url(#paint0_linear_2928_267044)"/>
<path d="M10.5251 5.17592C12.0129 5.17592 12.7567 5.9678 12.7567 7.55154V14.8044C12.7567 16.3881 12.0129 17.18 10.5251 17.18H10.4891V18.0798C10.4891 18.2598 10.5791 18.3498 10.7591 18.3498H11.335V20.1135H10.2731C9.68524 20.1135 9.22331 19.9335 8.88737 19.5736C8.56342 19.2256 8.40145 18.8297 8.40145 18.3858V17.18H8.13149C6.64373 17.18 5.89985 16.3881 5.89985 14.8044V7.55154C5.89985 5.9678 6.64373 5.17592 8.13149 5.17592H10.5251ZM8.41944 7.24559V15.0923C8.41944 15.1883 8.44944 15.2723 8.50943 15.3443C8.58142 15.4163 8.6654 15.4523 8.76139 15.4523H9.8952C9.99119 15.4523 10.0692 15.4163 10.1292 15.3443C10.2012 15.2723 10.2371 15.1883 10.2371 15.0923V7.24559C10.2371 7.1496 10.2012 7.06562 10.1292 6.99363C10.0692 6.92164 9.99119 6.88565 9.8952 6.88565H8.76139C8.6654 6.88565 8.58142 6.92164 8.50943 6.99363C8.44944 7.06562 8.41944 7.1496 8.41944 7.24559Z" fill="black"/>
<path d="M55.9835 74.1759C57.4713 74.1759 58.2152 74.9678 58.2152 76.5515V83.8044C58.2152 85.3881 57.4713 86.18 55.9835 86.18H55.9475V87.0798C55.9475 87.2598 56.0375 87.3498 56.2175 87.3498H56.7934V89.1135H55.7316C55.1437 89.1135 54.6817 88.9335 54.3458 88.5736C54.0218 88.2256 53.8599 87.8297 53.8599 87.3858V86.18H53.5899C52.1022 86.18 51.3583 85.3881 51.3583 83.8044V76.5515C51.3583 74.9678 52.1022 74.1759 53.5899 74.1759H55.9835ZM53.8779 76.2456V84.0923C53.8779 84.1883 53.9079 84.2723 53.9679 84.3443C54.0398 84.4163 54.1238 84.4523 54.2198 84.4523H55.3536C55.4496 84.4523 55.5276 84.4163 55.5876 84.3443C55.6596 84.2723 55.6956 84.1883 55.6956 84.0923V76.2456C55.6956 76.1496 55.6596 76.0656 55.5876 75.9936C55.5276 75.9216 55.4496 75.8856 55.3536 75.8856H54.2198C54.1238 75.8856 54.0398 75.9216 53.9679 75.9936C53.9079 76.0656 53.8779 76.1496 53.8779 76.2456Z" fill="black"/>
<g clip-path="url(#clip0_2928_267044)">
<path d="M20.4999 46.25C19.4999 44.65 21.2499 41.75 22.2499 40.5C23.3333 40.5 25.5 40.8 25.5 42C25.5 43.5 24.75 49.25 27.5 53.75C30.25 58.25 25.5 62.25 22.75 62.75C20 63.25 23.2501 59.75 20.4999 58.75C17.7496 57.75 18.7501 53 20.0001 51.5C21.2501 50 21.7499 48.25 20.4999 46.25Z" fill="#140D0A"/>
<path d="M22.7557 45.25C21.7557 43.65 23.5057 40.75 24.5057 39.5C25.5891 39.5 27.7559 39.8 27.7559 41C27.7559 42.5 27.0059 48.25 29.7559 52.75C32.5059 57.25 27.7559 61.25 25.0059 61.75C22.2559 62.25 25.506 58.75 22.7557 57.75C20.0055 56.75 21.006 52 22.256 50.5C23.506 49 24.0057 47.25 22.7557 45.25Z" fill="black"/>
<path d="M42.546 52.0105C43.2466 56.2654 33 62.75 31.7495 63C30.499 63.25 23.41 57.9104 23.0557 52.5154C23.0557 52.5154 22.9302 48.114 23.056 44.75C23.2469 35.4577 35.9766 37.702 42.3179 40.5857C42.4193 41.6941 42.6068 45.5308 42.546 52.0105Z" fill="url(#paint1_linear_2928_267044)"/>
<path d="M28.0026 47.3889C27.9807 47.7698 27.1878 48.0339 26.2318 47.9789C25.2757 47.9239 24.5184 47.5705 24.5404 47.1896C24.5623 46.8088 25.3551 46.5446 26.3112 46.5997C27.2673 46.6547 28.0245 47.0081 28.0026 47.3889Z" fill="#765040"/>
<path d="M27.4055 48.2449C27.4055 48.9581 26.8272 49.5362 26.1139 49.5362C25.4005 49.5362 24.8223 48.9581 24.8223 48.2449C24.8223 47.5318 25.4005 46.9536 26.1139 46.9536C26.8272 46.9536 27.4055 47.5318 27.4055 48.2449Z" fill="#261611"/>
<path opacity="0.1" d="M27.2104 48.525C27.2104 48.7144 26.719 49.3836 26.113 49.3836C25.5069 49.3836 25.0156 48.7144 25.0156 48.525C25.0156 48.3356 25.5069 48.617 26.113 48.617C26.719 48.617 27.2104 48.3356 27.2104 48.525Z" fill="#F3CEC4"/>
<path d="M25.9412 47.7898C25.9412 47.9834 25.7843 48.1402 25.5907 48.1402C25.3971 48.1402 25.2402 47.9834 25.2402 47.7898C25.2402 47.5963 25.3971 47.4395 25.5907 47.4395C25.7843 47.4395 25.9412 47.5963 25.9412 47.7898Z" fill="#F3CEC4"/>
<path opacity="0.2" d="M26.7994 47.7595C26.7994 47.8632 26.7153 47.9473 26.6116 47.9473C26.5079 47.9473 26.4238 47.8632 26.4238 47.7595C26.4238 47.6558 26.5079 47.5718 26.6116 47.5718C26.7153 47.5718 26.7994 47.6558 26.7994 47.7595Z" fill="#F3CEC4"/>
<path d="M36.0788 47.3889C36.0568 47.7698 35.264 48.0339 34.3079 47.9789C33.3519 47.9239 32.5946 47.5705 32.6165 47.1896C32.6385 46.8088 33.4313 46.5446 34.3874 46.5997C35.3434 46.6547 36.1007 47.0081 36.0788 47.3889Z" fill="#765040"/>
<path d="M35.4816 48.2449C35.4816 48.9581 34.9034 49.5362 34.19 49.5362C33.4767 49.5362 32.8984 48.9581 32.8984 48.2449C32.8984 47.5318 33.4767 46.9536 34.19 46.9536C34.9034 46.9536 35.4816 47.5318 35.4816 48.2449Z" fill="#261611"/>
<path opacity="0.1" d="M35.2865 48.525C35.2865 48.7144 34.7952 49.3836 34.1892 49.3836C33.5831 49.3836 33.0918 48.7144 33.0918 48.525C33.0918 48.3356 33.5831 48.617 34.1892 48.617C34.7952 48.617 35.2865 48.3356 35.2865 48.525Z" fill="#F3CEC4"/>
<path d="M34.0174 47.7898C34.0174 47.9834 33.8604 48.1402 33.6669 48.1402C33.4733 48.1402 33.3164 47.9834 33.3164 47.7898C33.3164 47.5963 33.4733 47.4395 33.6669 47.4395C33.8604 47.4395 34.0174 47.5963 34.0174 47.7898Z" fill="#F3CEC4"/>
<path opacity="0.2" d="M34.8756 47.7595C34.8756 47.8632 34.7915 47.9473 34.6878 47.9473C34.5841 47.9473 34.5 47.8632 34.5 47.7595C34.5 47.6558 34.5841 47.5718 34.6878 47.5718C34.7915 47.5718 34.8756 47.6558 34.8756 47.7595Z" fill="#F3CEC4"/>
<path d="M31 47.25C31.013 47.5137 31.0126 47.7677 31 48.0129V51.5L32.0079 52.8028V54.0237H30.2139H30.0095C29.1837 54.0237 28.7346 53.0952 29.2235 52.4297C30.1294 51.1968 30.9057 49.8516 31 48.0129V47.25Z" fill="url(#paint2_linear_2928_267044)"/>
<path d="M30.4986 54.024C31.1176 53.6443 31.9992 52.4978 31.9991 54.024L30.4986 54.024Z" fill="#AA2727"/>
<path d="M37.011 51.5562C37.0265 52.0488 36.1821 52.4751 35.1249 52.5084C34.0676 52.5418 33.198 52.1695 33.1824 51.677C33.1669 51.1844 34.0113 50.7581 35.0686 50.7248C36.1258 50.6914 36.9955 51.0637 37.011 51.5562Z" fill="#FE846D"/>
<path d="M24.0261 51.5562C24.0106 52.0488 24.855 52.4751 25.9123 52.5084C26.9695 52.5418 27.8391 52.1695 27.8547 51.677C27.8702 51.1844 27.0258 50.7581 25.9685 50.7248C24.9113 50.6914 24.0417 51.0637 24.0261 51.5562Z" fill="#FE846D"/>
<path d="M38.0382 46.0861C37.3057 43.4001 35.0877 42.3216 34.0703 42.1182C35.4947 41.3042 39.076 40.47 42.0061 43.6443C45.6688 47.6122 43.8375 57.9898 42.0061 57.9898C40.5411 57.9898 41.3957 51.5801 42.0061 49.1383C40.9887 49.2401 38.7708 48.772 38.0382 46.0861Z" fill="#140D0A"/>
<path opacity="0.5" d="M32.8163 61.2895C32.7961 61.6387 32.1631 61.8863 31.4023 61.8425C30.6415 61.7987 30.0411 61.4801 30.0612 61.1309C30.0813 60.7816 30.7144 60.534 31.4752 60.5778C32.2359 60.6216 32.8364 60.9403 32.8163 61.2895Z" fill="#FAEDFF"/>
<path d="M31.3029 45.5466C30.8124 45.0751 30.9667 44.53 31.4161 44C33.5 45.1041 36.3023 44.8541 36.3023 44.8541C36.3023 44.8541 36.623 45.2449 36.3023 45.5466C35.9816 45.8484 31.7934 46.0182 31.3029 45.5466Z" fill="#140D0A"/>
<path opacity="0.5" d="M31.6383 45.4538C31.215 45.2417 31.3482 44.9965 31.736 44.758C32.1238 44.5196 35.4314 45.0041 35.7895 45.0465C36.1477 45.089 36.2291 45.3181 35.9523 45.4538C35.6756 45.5896 32.0616 45.666 31.6383 45.4538Z" fill="black" fill-opacity="0.12"/>
<path d="M28.2497 45.6811C28.6551 45.1686 28.5275 44.5761 28.1561 44C26.4338 45.2 24.1178 44.9283 24.1178 44.9283C24.1178 44.9283 23.8527 45.3531 24.1178 45.6811C24.3829 46.0091 27.8443 46.1936 28.2497 45.6811Z" fill="#140D0A"/>
<path opacity="0.5" d="M27.807 45.3523C28.1195 45.1148 28.0212 44.8404 27.7349 44.5735C27.4486 44.3066 25.0067 44.8489 24.7423 44.8964C24.4779 44.9439 24.4178 45.2003 24.6221 45.3523C24.8264 45.5042 27.4946 45.5897 27.807 45.3523Z" fill="black" fill-opacity="0.12"/>
<path d="M30.0004 55.25C30.2505 55.25 30.7502 56 31.0003 56C31.2504 56 31.7505 55.25 32.0005 55.25C32.2505 55.25 33.5004 56.5 33.5004 56.5C33.5004 56.5 31.917 58.1667 31.0003 59C30.0836 58.1667 29 56.5 29 56.5C29 56.5 29.7503 55.25 30.0004 55.25Z" fill="#140D0A"/>
<path d="M22.7499 35.25C21.3499 32.05 22.7498 30 25.9999 29.5C29.25 29 35.7722 30.396 38.25 30.75C43.5 31.5 56.25 65 45.5 65C32.99 65 44 45.75 42 46.25C40 46.75 38.75 42.5 37 44C35.25 45.5 33.5 41 30.25 41.5C27 42 27.25 37.5 26.25 39.5C25.25 41.5 23.75 41 22.7499 41C21.7498 41 19.75 39.75 19.75 37.75C19.75 36.15 21.7499 35.4167 22.7499 35.25Z" fill="#140D0A"/>
<path d="M21.8037 41.1162V40.3503C29.7023 41.9216 39.2999 40.0132 44.1083 38.2744L45.5 41.3021C39.5455 42.3528 24.7772 44.0589 21.8037 41.1162Z" fill="#FBE315"/>
<path d="M28.845 42.2867C29.8916 42.0404 31.6629 41.5479 30.3753 41.5479C27.782 41.5479 28.5 36.9998 27.0742 34.5872C26.8892 34.4806 25.1785 40.926 24.9395 41.5479L28.845 42.2867Z" fill="#FBE315"/>
<path d="M33.3079 41.3738C33.9735 41.2172 35.1 40.904 34.2811 40.904C32.6319 40.904 33.3967 37.1781 32.1818 36.4774C32.0642 36.4096 30.9763 40.5085 30.8242 40.904L33.3079 41.3738Z" fill="#FBE315"/>
<path d="M22.7546 41.3738C22.089 41.2172 21.999 40.9998 21.999 40.9998C23.6482 40.9998 22.6658 37.1781 23.8807 36.4774C23.9983 36.4096 25.0862 40.5085 25.2383 40.904L22.7546 41.3738Z" fill="#FBE315"/>
<path d="M44.1083 38.2744L45.5 41.3021C42.8746 41.7654 38.5358 42.356 34.25 42.6195C34.25 42.6195 36.75 41.4996 36.5 40.2011C39.522 39.6854 42.1945 38.9665 44.1083 38.2744Z" fill="#FBC815"/>
<path d="M41.3792 49.7499C41.326 49.9148 41.2716 50.0838 41.2164 50.2564C40.343 54.5073 39.8568 61.4209 44.9995 61.9999C49.4409 62.4999 49.2495 55.9999 48.0465 48.7499C50.3947 57.012 50.7488 64.9999 45.4995 64.9999C36.836 64.9999 39.4526 55.7676 41.2164 50.2564C41.9139 46.8615 42.8582 45.1649 41.3792 49.7499Z" fill="black"/>
</g>
<g clip-path="url(#clip1_2928_267044)">
<path d="M52.9987 12.1982C52.9987 13.763 51.7302 15.0315 50.1654 15.0315C48.6006 15.0315 47.332 13.763 47.332 12.1982C47.332 11.5325 47.5616 10.9205 47.9458 10.4369L52.9987 5V8.59909V12.1982Z" fill="black"/>
<path d="M52.9987 12.1982C52.9987 13.763 54.2672 15.0315 55.832 15.0315C57.3968 15.0315 58.6653 13.763 58.6653 12.1982C58.6653 11.5325 58.4358 10.9205 58.0516 10.4369L52.9987 5V8.59909V12.1982Z" fill="black"/>
<path d="M53 14.6751C52.661 16.3555 51 16.9998 51 16.9998H52.6147H53.3853H55C55 16.9998 53.339 16.3555 53 14.6751Z" fill="black"/>
</g>
<g clip-path="url(#clip2_2928_267044)">
<path d="M10.9997 81.1982C10.9997 82.763 9.73114 84.0315 8.16634 84.0315C6.60153 84.0315 5.33301 82.763 5.33301 81.1982C5.33301 80.5325 5.56255 79.9205 5.9468 79.4369L10.9997 74V77.5991V81.1982Z" fill="black"/>
<path d="M10.9997 81.1982C10.9997 82.763 12.2682 84.0315 13.833 84.0315C15.3978 84.0315 16.6663 82.763 16.6663 81.1982C16.6663 80.5325 16.4368 79.9205 16.0525 79.4369L10.9997 74V77.5991V81.1982Z" fill="black"/>
<path d="M11 83.6751C10.661 85.3555 9 85.9998 9 85.9998H10.6147H11.3853H13C13 85.9998 11.339 85.3555 11 83.6751Z" fill="black"/>
</g>
<defs>
<linearGradient id="paint0_linear_2928_267044" x1="2.06452" y1="92" x2="56.6415" y2="5.15165" gradientUnits="userSpaceOnUse">
<stop stop-color="#DAD7C9"/>
<stop offset="1" stop-color="#FFFCED"/>
</linearGradient>
<linearGradient id="paint1_linear_2928_267044" x1="32.7955" y1="37.5" x2="32.7955" y2="64.3597" gradientUnits="userSpaceOnUse">
<stop stop-color="#FFBC98"/>
<stop offset="1" stop-color="#FAC4A6"/>
</linearGradient>
<linearGradient id="paint2_linear_2928_267044" x1="30.0279" y1="48.2325" x2="30.0279" y2="54.1258" gradientUnits="userSpaceOnUse">
<stop stop-color="#F5B694"/>
<stop offset="1" stop-color="#FF7762"/>
</linearGradient>
<clipPath id="clip0_2928_267044">
<rect width="36" height="36" fill="white" transform="translate(14 29)"/>
</clipPath>
<clipPath id="clip1_2928_267044">
<rect width="12" height="12" fill="white" transform="translate(47 5)"/>
</clipPath>
<clipPath id="clip2_2928_267044">
<rect width="12" height="12" fill="white" transform="translate(5 74)"/>
</clipPath>
</defs>
</svg>
