<svg width="15" height="14" viewBox="0 0 15 14" fill="none" xmlns="http://www.w3.org/2000/svg">
<path d="M13.9312 4.82603L9.90702 4.24119L8.10813 0.594258C8.05899 0.494407 7.97816 0.413575 7.87831 0.364442C7.62789 0.240818 7.32358 0.343838 7.19837 0.594258L5.39948 4.24119L1.37534 4.82603C1.26439 4.84187 1.16295 4.89418 1.08529 4.97342C0.991405 5.06992 0.939668 5.19975 0.941451 5.33438C0.943234 5.46901 0.998391 5.59742 1.0948 5.6914L4.00632 8.53001L3.31846 12.5383C3.30233 12.6315 3.31265 12.7274 3.34825 12.8151C3.38384 12.9028 3.44329 12.9787 3.51986 13.0343C3.59642 13.09 3.68703 13.123 3.78142 13.1297C3.87581 13.1365 3.97019 13.1166 4.05387 13.0724L7.65325 11.18L11.2526 13.0724C11.3509 13.1247 11.465 13.1422 11.5744 13.1231C11.8502 13.0756 12.0356 12.8141 11.988 12.5383L11.3002 8.53001L14.2117 5.6914C14.2909 5.61374 14.3432 5.5123 14.3591 5.40136C14.4019 5.12399 14.2085 4.86723 13.9312 4.82603Z" fill="white"/>
</svg>
