<svg width="12" height="12" viewBox="0 0 12 12" fill="none" xmlns="http://www.w3.org/2000/svg">
<path d="M7.29 6.00009L11.2317 2.06759C11.4043 1.89498 11.5013 1.66087 11.5013 1.41676C11.5013 1.17265 11.4043 0.938534 11.2317 0.765922C11.0591 0.59331 10.8249 0.496338 10.5808 0.496338C10.3367 0.496338 10.1026 0.59331 9.93 0.765922L5.9975 4.70759L2.065 0.765922C1.89239 0.59331 1.65828 0.496338 1.41417 0.496338C1.17006 0.496338 0.935948 0.59331 0.763336 0.765922C0.590724 0.938534 0.493752 1.17265 0.493752 1.41676C0.493752 1.66087 0.590724 1.89498 0.763336 2.06759L4.705 6.00009L0.763336 9.93259C0.677418 10.0178 0.609224 10.1192 0.562686 10.2309C0.516148 10.3426 0.492188 10.4624 0.492188 10.5834C0.492188 10.7044 0.516148 10.8242 0.562686 10.936C0.609224 11.0477 0.677418 11.149 0.763336 11.2343C0.848552 11.3202 0.949936 11.3884 1.06164 11.4349C1.17334 11.4814 1.29316 11.5054 1.41417 11.5054C1.53518 11.5054 1.65499 11.4814 1.7667 11.4349C1.8784 11.3884 1.97979 11.3202 2.065 11.2343L5.9975 7.29259L9.93 11.2343C10.0152 11.3202 10.1166 11.3884 10.2283 11.4349C10.34 11.4814 10.4598 11.5054 10.5808 11.5054C10.7018 11.5054 10.8217 11.4814 10.9334 11.4349C11.0451 11.3884 11.1465 11.3202 11.2317 11.2343C11.3176 11.149 11.3858 11.0477 11.4323 10.936C11.4789 10.8242 11.5028 10.7044 11.5028 10.5834C11.5028 10.4624 11.4789 10.3426 11.4323 10.2309C11.3858 10.1192 11.3176 10.0178 11.2317 9.93259L7.29 6.00009Z" fill="white"/>
</svg>
