<svg width="44" height="44" viewBox="0 0 44 44" fill="none" xmlns="http://www.w3.org/2000/svg">
<g filter="url(#filter0_d_4072_53199)">
<mask id="mask0_4072_53199" style="mask-type:alpha" maskUnits="userSpaceOnUse" x="6" y="5" width="32" height="33">
<path d="M6.2084 18.797L11.3371 38H32.6622L37.8003 18.7321C37.9261 18.2604 37.875 17.759 37.6567 17.3224L33.215 8.43895C32.8762 7.76138 32.1837 7.33337 31.4261 7.33337H30.999V5.5H12.499V7.25C11.7907 7.30148 11.1671 7.72855 10.8626 8.37012C9.9418 10.3102 7.90809 14.5402 6.39912 17.2813C6.14431 17.7442 6.07206 18.2866 6.2084 18.797Z" fill="#FF2455"/>
</mask>
<g mask="url(#mask0_4072_53199)">
<path d="M5.99219 18.0002L11.1356 37.2582C11.2525 37.6958 11.6488 38.0002 12.1017 38.0002H31.8906C32.3436 38.0002 32.7401 37.6956 32.8568 37.2578L37.9922 18.0002L32.6589 7.3335H11.3485C11.3485 7.3335 7.9841 14.5327 5.99219 18.0002Z" fill="#FF2455"/>
<path opacity="0.45" d="M18.6562 38L17.3229 18L16.6562 38H18.6562Z" fill="black"/>
<path opacity="0.45" d="M25.3281 38L26.6615 18L27.3281 38H25.3281Z" fill="black"/>
<path opacity="0.45" d="M18.6598 38L18.0428 18L17.7344 38H18.6598Z" fill="black"/>
<path opacity="0.45" d="M25.3246 38L25.9415 18L26.25 38H25.3246Z" fill="black"/>
<g opacity="0.8">
<path d="M5.99219 18L10.9472 36.6022L7.3552 18.82C7.33962 18.7396 7.39969 18.6642 7.48163 18.6615L25.6589 18H5.99219Z" fill="white"/>
<path d="M38.0185 18L32.8935 37.1296L36.6555 18.82C36.6711 18.7395 36.611 18.6642 36.5291 18.6614L18.3518 18H38.0185Z" fill="white"/>
</g>
<path d="M17.3281 18.0002L18.6615 38.0002H25.3281L26.6615 18.0002L25.098 7.3335H18.9003C18.9003 7.3335 17.9074 14.5327 17.3281 18.0002Z" fill="#FFC224"/>
<path d="M11.3485 7.3335C11.3485 7.3335 7.9841 14.5327 5.99219 18.0002H37.9922L32.6589 7.3335H11.3485Z" fill="#FF577D"/>
<path d="M18.9003 7.3335C18.9003 7.3335 17.9074 14.5492 17.3281 18.0002H26.6615L25.098 7.3335H18.9003Z" fill="#FFE091"/>
<path d="M17.9896 14H8.32292H8.10156L10.08 10H33.9896L35.9896 14H17.9896Z" fill="#FFE090"/>
<path opacity="0.21" d="M11.3483 7.3335H32.6612L34.7341 11.4871C34.7341 11.4871 28.3278 12.6668 21.9944 12.6668C15.6611 12.6668 9.35938 11.4979 9.35938 11.4979L11.3483 7.3335Z" fill="black"/>
<path d="M21.9825 12.6667C22.1087 10.2818 21.0436 4.82348 16.0793 6.22747C7.22525 8.73156 14.4147 12.6666 21.9825 12.6667Z" fill="#FFC224"/>
<path d="M16.6607 12.0219C11.8367 10.8021 9.42381 8.11029 16.0811 6.22747C18.7307 5.47811 20.2696 6.68363 21.1094 8.33333C18.5401 5.02756 14.197 6.66667 12.994 8.33333C11.7909 10 16.6607 12.0219 16.6607 12.0219Z" fill="#FFE9AF"/>
<path d="M21.3223 11.9999C21.3972 10.321 20.7775 6.96359 17.7236 7.36652C14.7592 7.75765 15.3884 11.9999 21.3223 11.9999Z" fill="#802C3F"/>
<path d="M22.0018 12.6667C21.8757 10.2818 22.9408 4.82348 27.9051 6.22747C36.7591 8.73156 29.5697 12.6666 22.0018 12.6667Z" fill="#FFC224"/>
<path d="M22.6621 11.9999C22.5872 10.321 23.2068 6.96359 26.2608 7.36652C29.2252 7.75765 28.596 11.9999 22.6621 11.9999Z" fill="#802C3F"/>
<path opacity="0.3" d="M17.3281 17.9998C17.5503 16.7776 17.9453 13.9868 17.9453 13.9868L20.527 16.3486L26.6615 17.9998H17.3281Z" fill="white" fill-opacity="0.88"/>
<path opacity="0.3" d="M8.10938 13.9992L9.36406 11.4856L10.2898 12.7965L17.9927 13.9992H8.10938Z" fill="white" fill-opacity="0.88"/>
<path opacity="0.3" d="M18.2122 31.383L17.2734 17.9868H26.5852L21.2406 21.2092L20.3213 27.0241L18.2122 31.383Z" fill="white" fill-opacity="0.88"/>
<path d="M17.9481 13.9998L8.125 13.9785L17.0486 14.5942L17.3348 18.0024L17.9481 13.9998Z" fill="black" fill-opacity="0.5"/>
<path d="M26.0675 13.9998L35.8906 13.9785L26.967 14.5942L26.6808 18.0024L26.0675 13.9998Z" fill="black" fill-opacity="0.5"/>
<path d="M13.8447 14.676L12.099 18.1981L14.9999 20.8508L11.4779 19.1051L8.82515 22.0061L10.5708 18.484L7.66991 15.8313L11.192 17.577L13.8447 14.676Z" fill="white" fill-opacity="0.84"/>
<path opacity="0.2" d="M13.1088 19.5529C12.4395 20.5303 11.1046 20.78 10.1272 20.1107C9.14979 19.4414 8.90004 18.1065 9.56935 17.1291C10.2387 16.1517 11.5736 15.902 12.551 16.5713C13.5284 17.2406 13.7781 18.5755 13.1088 19.5529Z" fill="white"/>
</g>
</g>
<defs>
<filter id="filter0_d_4072_53199" x="0" y="0" width="44" height="44" filterUnits="userSpaceOnUse" color-interpolation-filters="sRGB">
<feFlood flood-opacity="0" result="BackgroundImageFix"/>
<feColorMatrix in="SourceAlpha" type="matrix" values="0 0 0 0 0 0 0 0 0 0 0 0 0 0 0 0 0 0 127 0" result="hardAlpha"/>
<feOffset/>
<feGaussianBlur stdDeviation="3"/>
<feColorMatrix type="matrix" values="0 0 0 0 1 0 0 0 0 1 0 0 0 0 1 0 0 0 0.48 0"/>
<feBlend mode="normal" in2="BackgroundImageFix" result="effect1_dropShadow_4072_53199"/>
<feBlend mode="normal" in="SourceGraphic" in2="effect1_dropShadow_4072_53199" result="shape"/>
</filter>
</defs>
</svg>
