<svg width="24" height="24" viewBox="0 0 24 24" fill="none" xmlns="http://www.w3.org/2000/svg">
<circle r="12" transform="matrix(-1 8.74228e-08 8.74228e-08 1 12 12)" fill="#FFD12F"/>
<path d="M12.7593 17.1142L16.585 12.6508C17.141 12.0021 16.6801 11 15.8258 11L8.17422 11C7.31987 11 6.85896 12.0021 7.41496 12.6508L11.2407 17.1142C11.6398 17.5798 12.3602 17.5798 12.7593 17.1142Z" fill="black"/>
<path fill-rule="evenodd" clip-rule="evenodd" d="M7 8C7 7.44771 7.44772 7 8 7L16 7C16.5523 7 17 7.44772 17 8C17 8.55228 16.5523 9 16 9L8 9C7.44772 9 7 8.55228 7 8Z" fill="black"/>
</svg>
