<svg width="189" height="189" viewBox="0 0 189 189" fill="none" xmlns="http://www.w3.org/2000/svg">
<g clip-path="url(#clip0_3281_313704)">
<path d="M0 22C0 9.84973 9.84974 0 22 0H167C179.15 0 189 9.84974 189 22V167C189 179.15 179.15 189 167 189H22C9.84973 189 0 179.15 0 167V22Z" fill="url(#paint0_linear_3281_313704)"/>
<circle opacity="0.9" cx="28.6227" cy="161.286" r="114.036" fill="url(#paint1_radial_3281_313704)"/>
<path d="M43.1835 40.8874L41.1092 52.6832C40.4775 56.2755 42.2991 59.8523 45.576 61.4541L56.3361 66.7137L44.5403 64.6394C40.948 64.0077 37.3712 65.8292 35.7694 69.1062L30.5098 79.8663L32.5841 68.0705C33.2158 64.4782 31.3942 60.9013 28.1173 59.2996L17.3572 54.0399L29.153 56.1142C32.7453 56.7459 36.3222 54.9244 37.9239 51.6475L43.1835 40.8874Z" fill="white" fill-opacity="0.84"/>
<circle opacity="0.2" cx="36.8461" cy="60.377" r="9.89583" transform="rotate(18.0116 36.8461 60.377)" fill="white"/>
<path d="M158.546 131.811L156.472 143.607C155.84 147.199 157.662 150.776 160.939 152.378L171.699 157.638L159.903 155.563C156.311 154.932 152.734 156.753 151.132 160.03L145.872 170.79L147.947 158.994C148.578 155.402 146.757 151.825 143.48 150.224L132.72 144.964L144.516 147.038C148.108 147.67 151.685 145.848 153.286 142.571L158.546 131.811Z" fill="white" fill-opacity="0.84"/>
<ellipse opacity="0.2" cx="152.209" cy="151.301" rx="9.89583" ry="9.89583" transform="rotate(18.0116 152.209 151.301)" fill="white"/>
<path d="M21.2874 106.525C20.8259 106.135 20.4681 105.638 20.2462 105.076C20.0242 104.515 19.9449 103.907 20.0155 103.307C20.086 102.708 20.3042 102.135 20.6504 101.64C20.9966 101.146 21.4601 100.745 21.9993 100.473C35.1335 92.8406 47.1006 83.3573 57.5326 72.3149C58.3545 71.371 59.5004 70.7696 60.7441 70.6294C61.9878 70.4891 63.2389 70.8202 64.2504 71.5573C84.3947 87.8316 106.584 100.501 129.977 111.472C132.853 112.759 134.03 115.899 132.451 118.482C123.148 132.768 112.387 146.05 100.34 158.113C98.1042 160.249 93.7048 160.523 90.6653 158.761C65.656 143.774 42.2532 126.879 21.2874 106.525Z" fill="#9F9BB6"/>
<path d="M21.2874 100.135C20.8259 99.7462 20.4681 99.2485 20.2462 98.687C20.0242 98.1255 19.9449 97.5178 20.0155 96.9182C20.086 96.3186 20.3042 95.7458 20.6504 95.2512C20.9966 94.7565 21.4601 94.3555 21.9993 94.0839C35.1335 86.4514 47.1006 76.9681 57.5326 65.9257C58.3545 64.9818 59.5004 64.3804 60.7441 64.2401C61.9878 64.0999 63.2389 64.431 64.2504 65.1681C84.3947 81.4424 106.584 94.1113 129.977 105.083C132.853 106.37 134.03 109.509 132.451 112.092C123.148 126.379 112.387 139.661 100.34 151.724C98.1042 153.86 93.7048 154.134 90.6653 152.372C65.656 137.385 42.2532 120.49 21.2874 100.135Z" fill="#DCDAEA"/>
<path d="M21.3142 94.6393C20.8527 94.2501 20.495 93.7524 20.273 93.1909C20.0511 92.6294 19.9718 92.0217 20.0423 91.4221C20.1129 90.8225 20.331 90.2497 20.6772 89.7551C21.0235 89.2604 21.4869 88.8594 22.0262 88.5878C35.1603 80.9553 47.1274 71.472 57.5594 60.4296C58.3814 59.4857 59.5273 58.8843 60.771 58.744C62.0147 58.6038 63.2657 58.9349 64.2772 59.672C84.4216 75.9463 106.61 88.6152 130.004 99.5864C132.879 100.873 134.057 104.013 132.478 106.596C123.175 120.883 112.414 134.165 100.367 146.228C98.1311 148.364 93.7316 148.637 90.6922 146.876C65.6829 131.889 42.28 114.994 21.3142 94.6393Z" fill="url(#paint2_linear_3281_313704)"/>
<path opacity="0.67" d="M81.6287 141.473C76.6177 115.752 72.6107 89.9667 69.6443 63.8895C88.528 77.765 108.748 89.7233 130.004 99.587C132.879 100.874 134.057 104.014 132.478 106.597C123.175 120.883 112.414 134.165 100.367 146.228C98.1311 148.364 93.7317 148.629 90.6922 146.867C86.9865 144.759 85.1792 143.673 81.6287 141.473Z" fill="url(#paint3_linear_3281_313704)"/>
<path d="M82.3862 110.476C82.5779 109.088 82.6691 108.395 82.8426 107.007C84.449 106.533 85.2522 106.286 86.8495 105.784C88.5011 105.282 89.9824 104.335 91.1303 103.046L91.6688 102.416C94.5531 99.0571 93.4943 94.3473 89.7612 91.9924C87.7187 90.753 85.284 90.3293 82.943 90.8059C76.5605 92.0995 70.1134 93.0501 63.6292 93.6536C63.5288 100.225 63.4832 103.52 63.4102 110.083C63.4487 111.182 63.7548 112.256 64.302 113.21C64.8491 114.164 65.6207 114.971 66.55 115.56C70.4474 118.298 76.499 118.106 79.7118 115.021L80.2869 114.464C81.4072 113.403 82.1453 112 82.3862 110.476Z" fill="black"/>
<path d="M76.3072 117.066L77.1652 116.765C75.3397 107.007 74.5547 102.161 73.0852 92.5038C69.3155 93.0514 67.4261 93.2796 63.6109 93.6721C63.5196 100.153 63.4831 103.402 63.4192 109.901C63.4616 111.092 63.7949 112.254 64.3899 113.287C64.9849 114.319 65.8237 115.191 66.8329 115.824C68.2121 116.742 69.7833 117.331 71.4258 117.546C73.0682 117.761 74.7382 117.597 76.3072 117.066Z" fill="#404660"/>
<path d="M82.8416 106.98L83.0241 107.035C89.0515 108.989 95.4633 109.45 101.708 108.377C96.8109 111.711 92.7956 116.184 90.0066 121.411C89.014 116.095 86.576 111.156 82.9602 107.135L82.8416 106.98Z" fill="black"/>
<path d="M25.8325 90.0487L27.0465 89.3002C28.2239 90.4412 28.872 91.0071 30.0312 92.1298C30.2907 92.3516 30.4755 92.648 30.5606 92.9786C30.6058 93.1297 30.6202 93.2884 30.603 93.4452C30.5857 93.602 30.5372 93.7537 30.4601 93.8914C30.2995 94.1962 30.0558 94.4494 29.7573 94.6216C29.2671 94.9484 28.6845 95.1085 28.0961 95.0779C27.5299 95.0276 26.9997 94.7786 26.5992 94.3751L27.8314 93.6267C27.9823 93.7905 28.1747 93.9103 28.3882 93.9735C28.5763 94.0039 28.7689 93.9615 28.9267 93.8549C29.0015 93.8195 29.0635 93.762 29.1043 93.6901C29.1452 93.6183 29.1628 93.5355 29.1549 93.4532C29.1089 93.247 28.9928 93.0631 28.8263 92.933C27.6124 91.7555 27.01 91.1896 25.8325 90.0487Z" fill="black"/>
<path d="M114.295 97.8522C114.295 98.126 114.295 98.2629 114.295 98.5459L113.583 98.8654C113.278 98.9994 113.017 99.214 112.825 99.486V99.5499C112.706 99.718 112.626 99.9103 112.591 100.113C112.556 100.316 112.566 100.524 112.621 100.722C112.676 100.921 112.774 101.104 112.909 101.26C113.044 101.416 113.212 101.539 113.4 101.622C113.839 101.84 114.343 101.889 114.815 101.759C116.321 101.33 117.07 101.12 118.576 100.663C118.256 99.3217 118.092 98.6554 117.781 97.3137C117.727 97.0974 117.625 96.8959 117.483 96.7238C117.341 96.5518 117.162 96.4134 116.96 96.3188C116.565 96.1134 116.109 96.0594 115.677 96.167C115.245 96.2745 114.867 96.5363 114.614 96.903L114.569 96.976C114.389 97.2327 114.293 97.5388 114.295 97.8522Z" fill="black"/>
<path d="M114.323 98.5463H114.259C113.117 98.2954 111.934 98.2954 110.791 98.5463C111.658 97.8349 112.293 96.8817 112.617 95.808C112.908 96.8309 113.477 97.7533 114.259 98.4733L114.323 98.5463Z" fill="black"/>
<path d="M126.937 105.456L126.097 106.761C124.381 105.976 123.533 105.574 121.853 104.771C121.483 104.619 121.166 104.362 120.94 104.032C120.741 103.736 120.645 103.384 120.666 103.028C120.694 102.648 120.823 102.282 121.041 101.969C121.349 101.44 121.839 101.041 122.419 100.846C122.995 100.679 123.613 100.741 124.144 101.02L123.323 102.334C123.112 102.213 122.871 102.156 122.629 102.17C122.531 102.188 122.438 102.227 122.358 102.286C122.277 102.344 122.211 102.42 122.163 102.508C122.115 102.586 122.089 102.676 122.089 102.768C122.089 102.86 122.115 102.95 122.163 103.028C122.288 103.235 122.477 103.395 122.702 103.484C124.372 104.242 125.221 104.671 126.937 105.456Z" fill="black"/>
<path fill-rule="evenodd" clip-rule="evenodd" d="M37.1775 100.052C37.0497 100.426 36.9767 100.609 36.8489 100.965C36.69 101.402 36.3875 101.772 35.9909 102.014L35.7992 102.142C35.1952 102.484 34.5005 102.632 33.8097 102.565C33.1189 102.498 32.4654 102.219 31.9383 101.768C31.6876 101.574 31.4917 101.318 31.3701 101.025C31.2484 100.732 31.2052 100.412 31.2446 100.098C31.5367 98.2173 31.6828 97.2863 31.984 95.4061C34.4392 95.5156 35.6349 95.5521 38.1176 95.5886C38.8612 95.5921 39.5806 95.8534 40.153 96.3279C40.38 96.5045 40.562 96.7321 40.6842 96.9923C40.8065 97.2525 40.8656 97.5379 40.8567 97.8252C40.8478 98.1126 40.7712 98.3938 40.633 98.6459C40.4949 98.898 40.2992 99.114 40.0618 99.2761L39.8701 99.413C39.4369 99.6958 38.9425 99.871 38.428 99.9242L37.1684 100.052H37.2231C38.9015 100.904 40.7383 101.398 42.6175 101.503C40.9834 102.079 39.5292 103.073 38.4006 104.388C38.4565 102.871 38.0386 101.375 37.2049 100.107L37.1775 100.052Z" fill="black"/>
<g clip-path="url(#clip1_3281_313704)">
<path d="M74.0802 76.4043C74.9387 76.5495 75.8205 76.7122 76.6442 76.8981C77.4679 77.0839 78.3381 77.2814 79.1735 77.508C80.0088 77.7345 80.8384 77.9727 81.6621 78.2282C82.4858 78.4838 83.298 78.7684 84.1043 79.0647L68.6272 109.241L44.843 42.7724C44.6247 42.1664 44.5628 41.515 44.6632 40.8788C44.7654 40.2622 45.0162 39.68 45.3941 39.1826C45.7966 38.6427 46.3061 38.1918 46.8908 37.8583C47.5481 37.4775 48.2665 37.2141 49.014 37.0799L99.1928 27.7861C99.9157 27.6758 100.651 27.6758 101.374 27.7861C102.082 27.8823 102.774 28.0779 103.428 28.367C104.062 28.644 104.649 29.0183 105.168 29.4764C105.659 29.9057 106.064 30.424 106.363 31.0041L107.552 33.3624L93.7108 60.3551C93.0611 59.9678 92.423 59.5806 91.7965 59.1934C91.1758 58.7926 90.5551 58.3743 89.9518 57.9445C89.3485 57.5147 88.7568 57.0732 88.1767 56.6259C87.5966 56.1787 87.0164 55.7082 86.4769 55.2377C86.2194 57.193 85.7666 59.1176 85.1253 60.9824C84.4616 62.9018 83.6167 64.7535 82.6019 66.5122C81.5335 68.3509 80.2984 70.0872 78.9124 71.6993C77.4397 73.4038 75.823 74.978 74.0802 76.4043ZM62.0257 61.5633C62.1538 60.8648 62.348 60.1802 62.6058 59.5186C62.874 58.8595 63.2042 58.2274 63.5919 57.6308C63.9811 57.0238 64.428 56.4558 64.9262 55.9347C65.4328 55.3934 65.986 54.8977 66.5794 54.4535C65.7458 54.314 64.9223 54.12 64.114 53.8727C63.322 53.6206 62.5469 53.318 61.7936 52.9665C61.0539 52.6298 60.3386 52.2416 59.653 51.8048C58.9848 51.374 58.3506 50.8924 57.7561 50.3642C57.6162 51.0362 57.4082 51.6921 57.1354 52.3217C56.8585 52.9683 56.5205 53.5868 56.126 54.1689C55.7174 54.7727 55.2553 55.3384 54.7453 55.8592C54.2083 56.4085 53.6261 56.9118 53.005 57.3636C53.8567 57.5113 54.6978 57.7151 55.5227 57.9735C56.3322 58.2258 57.123 58.5344 57.8895 58.8971C58.6429 59.2488 59.3699 59.6545 60.0649 60.1111C60.7521 60.5576 61.4038 61.0567 62.014 61.6039L62.0257 61.5633ZM52.8658 39.8913L52.1987 48.3196L54.7105 47.8201V46.2459L57.9069 45.6128L59.0207 46.9488L61.5094 46.455L55.018 39.4847L52.8542 39.8913" fill="white"/>
<path d="M55.03 39.4846L61.5214 46.4549L59.0327 46.9487L57.9189 45.6127L54.7225 46.2458V47.8199L52.2107 48.3195L52.8778 39.8912L55.03 39.4846ZM54.74 44.7123L56.8109 44.3057L54.7632 41.8429V44.7123" fill="#F04E5E"/>
<path d="M54.7633 41.8195L56.811 44.2823L54.7458 44.6889L54.7633 41.8195Z" fill="white"/>
<path d="M57.7682 50.3467C58.3628 50.8748 58.997 51.3564 59.6652 51.7872C60.3507 52.224 61.066 52.6122 61.8058 52.949C62.5591 53.3004 63.3341 53.6031 64.1262 53.8551C64.9344 54.1024 65.758 54.2965 66.5916 54.436C65.9982 54.8802 65.4449 55.3758 64.9383 55.9172C64.4401 56.4382 63.9933 57.0062 63.6041 57.6133C63.2164 58.2098 62.8861 58.842 62.6179 59.5011C62.3601 60.1627 62.1659 60.8473 62.0378 61.5457C61.4275 60.9985 60.7758 60.4994 60.0886 60.0529C59.3937 59.5963 58.6667 59.1905 57.9133 58.8389C57.1468 58.4762 56.3559 58.1676 55.5464 57.9153C54.7215 57.6569 53.8805 57.4531 53.0288 57.3054C53.6499 56.8535 54.232 56.3503 54.7691 55.801C55.2791 55.2802 55.7412 54.7145 56.1498 54.1107C56.5442 53.5286 56.8822 52.91 57.1591 52.2635C57.4254 51.6465 57.6294 51.0043 57.7682 50.3467Z" fill="#F04E5E"/>
<path d="M142.515 102.624C142.88 103.372 143.1 104.182 143.165 105.012C143.225 105.756 143.124 106.505 142.869 107.207C142.622 107.87 142.225 108.467 141.709 108.95C141.151 109.47 140.483 109.855 139.754 110.077L82.7009 127.77C82.4109 127.851 82.1208 127.915 81.8656 127.967C81.6064 128.014 81.345 128.047 81.0824 128.066C80.8333 128.083 80.5832 128.083 80.3341 128.066C80.0914 128.062 79.8493 128.042 79.609 128.008C78.9508 127.922 78.307 127.748 77.6946 127.491C77.0859 127.235 76.5128 126.901 75.9891 126.498C75.4679 126.089 75.0035 125.613 74.6085 125.081C74.212 124.548 73.8935 123.961 73.6629 123.338L68.6218 109.269L84.1164 79.0646C85.7 79.6454 87.2489 80.3018 88.7572 81.0221C90.2654 81.7424 91.7563 82.5323 93.2008 83.3862C94.6452 84.2401 96.0549 85.1695 97.4181 86.1569C98.7813 87.1444 100.104 88.2074 101.374 89.3284C101.555 87.1261 101.944 84.9459 102.535 82.817C103.106 80.778 103.869 78.7981 104.814 76.9038C105.739 75.0609 106.836 73.3104 108.092 71.676C109.342 70.0491 110.745 68.5456 112.28 67.1859C110.639 66.9013 109.009 66.5412 107.402 66.1055C105.795 65.6699 104.199 65.1645 102.639 64.5953C101.079 64.026 99.5471 63.3755 98.0504 62.6726C96.5537 61.9698 95.1093 61.1914 93.6996 60.3492L107.541 33.3564L142.515 102.624ZM132.445 107.033C132.454 106.224 132.536 105.417 132.688 104.623C132.834 103.856 133.052 103.106 133.338 102.38C133.615 101.671 133.961 100.99 134.371 100.347C134.777 99.7064 135.245 99.1071 135.769 98.5584C134.896 98.4165 134.035 98.2107 133.193 97.9426C132.341 97.676 131.507 97.3519 130.699 96.9726C129.897 96.5876 129.121 96.149 128.378 95.6599C127.624 95.174 126.905 94.6363 126.226 94.0508C126.205 94.8323 126.112 95.6101 125.948 96.3743C125.788 97.124 125.559 97.8572 125.263 98.5642C124.964 99.2716 124.601 99.9501 124.178 100.591C123.745 101.244 123.249 101.852 122.699 102.409C123.589 102.555 124.467 102.764 125.327 103.037C126.193 103.31 127.04 103.642 127.862 104.03C128.689 104.424 129.49 104.872 130.258 105.372C131.033 105.881 131.774 106.442 132.474 107.051L132.445 107.033ZM119.491 82.0735L120.303 91.9191L122.728 91.2453L122.461 89.4039L125.541 88.5617L126.905 90.0894L129.301 89.4214L121.585 81.5158L119.491 82.0967" fill="#F9FAFF"/>
<path d="M121.695 84.2111L124.178 87.0166L122.183 87.5568L121.695 84.2111Z" fill="#F9FAFF"/>
<path d="M121.556 81.4811L129.272 89.3866L126.876 90.0546L125.513 88.527L122.432 89.3692L122.699 91.2106L120.274 91.8844L119.462 82.0387L121.556 81.4811ZM122.177 87.5569L124.178 87.0167L121.696 84.2169L122.177 87.5569Z" fill="#F04E5E"/>
<path d="M86.4715 55.2203C87.0516 55.6908 87.5969 56.1555 88.1712 56.6085C88.7455 57.0616 89.3314 57.4972 89.9463 57.9271C90.5612 58.3569 91.1703 58.7752 91.791 59.176C92.4117 59.5767 93.0556 59.9775 93.7053 60.3377C95.115 61.1625 96.5652 61.9351 98.0561 62.6611C99.547 63.3872 101.084 64.0087 102.645 64.5838C104.205 65.1588 105.795 65.6642 107.407 66.094C109.02 66.5239 110.644 66.8898 112.286 67.1744C110.75 68.5341 109.348 70.0376 108.098 71.6645C106.842 73.2989 105.744 75.0494 104.82 76.8923C103.875 78.7866 103.111 80.7665 102.54 82.8055C101.949 84.9344 101.561 87.1147 101.38 89.3169C100.112 88.1978 98.7928 87.1406 97.4238 86.1454C96.0548 85.1502 94.649 84.2266 93.2064 83.3747C91.7601 82.5228 90.2789 81.7347 88.7629 81.0106C87.2488 80.2903 85.6999 79.634 84.122 79.0531C83.3157 78.7569 82.5036 78.4722 81.6798 78.2166C80.8561 77.9611 80.0265 77.7171 79.1912 77.4964C78.3558 77.2756 77.5089 77.0665 76.6619 76.8865C75.815 76.7064 74.9565 76.5379 74.0979 76.3927C75.8394 74.9606 77.4542 73.3806 78.9244 71.6703C80.3104 70.0582 81.5454 68.3218 82.6138 66.4832C83.6286 64.7244 84.4735 62.8728 85.1372 60.9534C85.7719 59.0917 86.2188 57.1711 86.4715 55.2203Z" fill="#FF1D25"/>
<path d="M126.197 94.0334C126.868 94.6221 127.58 95.1636 128.326 95.6541C129.069 96.1432 129.844 96.5818 130.646 96.9668C131.455 97.3461 132.288 97.6702 133.141 97.9368C133.983 98.2049 134.844 98.4107 135.716 98.5526C135.193 99.1013 134.724 99.7006 134.318 100.342C133.909 100.984 133.563 101.665 133.286 102.375C133 103.1 132.782 103.851 132.636 104.617C132.484 105.411 132.402 106.218 132.392 107.027C131.692 106.418 130.952 105.858 130.176 105.349C129.408 104.849 128.608 104.4 127.781 104.007C126.959 103.619 126.112 103.287 125.246 103.014C124.386 102.741 123.508 102.531 122.618 102.386C123.168 101.829 123.663 101.22 124.097 100.568C124.519 99.9269 124.883 99.2483 125.182 98.5409C125.478 97.834 125.707 97.1008 125.866 96.3511C126.048 95.5905 126.159 94.8146 126.197 94.0334Z" fill="#F04E5E"/>
<path d="M139.742 110.082C140.455 109.872 141.112 109.507 141.668 109.014C142.175 108.547 142.571 107.974 142.829 107.335C143.096 106.683 143.224 105.983 143.206 105.279C143.184 104.511 143.017 103.754 142.713 103.048C143.017 103.754 143.184 104.511 143.206 105.279C143.227 105.983 143.099 106.684 142.829 107.335C142.571 107.974 142.175 108.547 141.668 109.014C141.113 109.508 140.455 109.873 139.742 110.082Z" fill="white"/>
<path d="M82.4979 127.834H82.5443H82.5907H82.6429H82.6893L139.742 110.141L82.701 127.84H82.6545H82.6081H82.5559H82.5095C82.2709 127.907 82.0289 127.961 81.7844 128.002C81.5407 128.041 81.2971 128.07 81.0535 128.089C80.804 128.089 80.5662 128.089 80.3225 128.089C80.0789 128.089 79.8353 128.06 79.5974 128.025C79.8353 128.06 80.0789 128.078 80.3167 128.089C80.5546 128.101 80.804 128.089 81.0419 128.089C81.2797 128.089 81.5292 128.043 81.7728 128.002C82.0175 127.96 82.2596 127.904 82.4979 127.834Z" fill="white"/>
</g>
<g filter="url(#filter0_d_3281_313704)">
<path d="M113.081 120.124L112.27 135.828L85.3753 124.477L90.8601 44.5322C90.9105 43.7174 91.1366 42.9236 91.5232 42.2048C91.8907 41.5209 92.3987 40.922 93.0143 40.4473C93.6344 39.9672 94.3463 39.6182 95.1068 39.4214C95.9161 39.2138 96.7591 39.1682 97.5872 39.2872L152.505 47.0914C153.285 47.2242 154.035 47.5025 154.713 47.9118C155.374 48.3032 155.96 48.8098 156.442 49.4074C156.926 49.9949 157.304 50.6628 157.556 51.3804C157.816 52.1103 157.936 52.8818 157.912 53.6551L157.806 56.8911L140.377 105.649C139.903 105.132 134.502 124.072 133.943 123.648C133.391 123.227 132.801 122.858 132.181 122.545C131.548 122.225 130.891 121.958 130.214 121.748C129.503 121.534 128.776 121.375 128.04 121.27L114.357 119.317C114.216 119.298 114.072 119.303 113.932 119.333C113.798 119.362 113.671 119.416 113.557 119.491C113.443 119.564 113.344 119.657 113.265 119.766C113.181 119.873 113.119 119.994 113.081 120.124ZM105.144 48.9345C105.215 48.6883 105.26 48.435 105.276 48.179C105.295 47.9378 105.283 47.695 105.24 47.4567C105.2 47.2183 105.132 46.9852 105.039 46.762C104.933 46.5267 104.804 46.3031 104.652 46.0947C104.503 45.8819 104.332 45.6852 104.142 45.5081C103.96 45.3376 103.761 45.1852 103.548 45.053C103.33 44.9208 103.1 44.8093 102.861 44.7201C102.608 44.6297 102.347 44.5635 102.081 44.5223L98.02 43.8487C97.9787 43.8419 97.9367 43.8415 97.8953 43.8477C97.8565 43.8538 97.8193 43.8681 97.7865 43.8897C97.7529 43.9092 97.7228 43.9342 97.6975 43.9637C97.6788 43.9982 97.6654 44.0355 97.6581 44.0741L94.8222 53.8968C94.8112 53.9474 94.8096 53.9995 94.8173 54.0507C94.8281 54.0997 94.8473 54.1466 94.874 54.1892C94.9052 54.23 94.9436 54.2649 94.9873 54.292C95.0345 54.3213 95.0875 54.3403 95.1426 54.3475L97.2989 54.6825C97.341 54.6887 97.3839 54.6871 97.4255 54.678C97.4655 54.6708 97.5042 54.6573 97.5399 54.638C97.5719 54.6177 97.6001 54.5919 97.6233 54.562C97.6448 54.5287 97.6583 54.491 97.6628 54.4516L98.4816 51.6011C98.4865 51.5618 98.5 51.5241 98.5211 51.4907C98.5464 51.4612 98.5764 51.4362 98.6101 51.4167C98.6439 51.3971 98.6806 51.3829 98.7189 51.3747C98.7602 51.3685 98.8023 51.3688 98.8435 51.3757L99.5135 51.4782L99.6188 51.5159C99.6538 51.5225 99.6874 51.5345 99.7186 51.5515L99.7876 51.6384C99.8088 51.6665 99.8228 51.6993 99.8285 51.7339L100.69 54.955C100.7 54.99 100.716 55.023 100.737 55.0525L100.806 55.1395C100.837 55.1564 100.871 55.1685 100.906 55.1751C100.936 55.195 100.97 55.2073 101.006 55.2108L103.119 55.543C103.177 55.5519 103.236 55.5476 103.292 55.5303C103.342 55.5095 103.387 55.479 103.425 55.4406C103.452 55.3974 103.47 55.3483 103.476 55.2971C103.489 55.2415 103.488 55.1836 103.474 55.1283L102.53 51.7847C102.514 51.7419 102.512 51.6954 102.522 51.651C102.527 51.6099 102.541 51.5704 102.563 51.5351C102.584 51.4991 102.611 51.4665 102.642 51.4386C102.676 51.4102 102.716 51.3884 102.758 51.3745C102.89 51.3306 103.019 51.279 103.145 51.2202C103.273 51.16 103.389 51.0959 103.508 51.0263C103.623 50.9584 103.733 50.8835 103.838 50.802C103.942 50.7209 104.048 50.6343 104.143 50.5438C104.257 50.4307 104.365 50.3112 104.465 50.1858C104.566 50.0614 104.657 49.9295 104.737 49.7914C104.821 49.651 104.895 49.5045 104.956 49.3531C105.024 49.1991 105.081 49.0405 105.126 48.8785" fill="white"/>
<path d="M125.571 89.6125L125.538 89.6006L125.499 89.5868L125.427 89.561L123.069 89.2658L129.97 82.8322C130.106 83.0426 130.216 83.268 130.299 83.5037C130.385 83.7451 130.442 83.9953 130.47 84.2495C130.503 84.5162 130.51 84.7853 130.49 85.0531C130.463 85.3479 130.413 85.6401 130.34 85.927C130.261 86.2241 130.158 86.514 130.03 86.7935C129.921 87.0602 129.789 87.3172 129.637 87.5616C129.484 87.7983 129.312 88.022 129.122 88.2305C128.928 88.4367 128.717 88.6255 128.489 88.7947C128.287 88.9564 128.069 89.0974 127.839 89.2156C127.609 89.33 127.368 89.419 127.118 89.4811C126.872 89.5502 126.618 89.591 126.362 89.6028C126.099 89.6322 125.834 89.6354 125.571 89.6125Z" fill="#F9FAFF"/>
<path d="M146.334 134.491C146.418 134.497 146.501 134.51 146.582 134.53C146.657 134.548 146.73 134.574 146.799 134.608C146.864 134.642 146.925 134.684 146.979 134.734C147.029 134.784 147.075 134.837 147.115 134.895C147.153 134.958 147.186 135.024 147.213 135.092C147.243 135.164 147.262 135.24 147.27 135.318C147.28 135.397 147.282 135.477 147.278 135.557C147.273 135.647 147.258 135.735 147.234 135.822C147.208 135.91 147.177 135.996 147.141 136.081C147.118 136.164 147.089 136.245 147.054 136.324C147.011 136.395 146.961 136.463 146.907 136.526C146.856 136.593 146.797 136.654 146.73 136.706C146.674 136.757 146.612 136.802 146.545 136.839C146.483 136.873 146.419 136.902 146.352 136.925C146.282 136.95 146.209 136.965 146.135 136.972C146.058 136.981 145.98 136.983 145.902 136.976L145.863 136.962L144.704 136.865C144.654 136.863 144.605 136.846 144.565 136.816C144.523 136.789 144.487 136.755 144.457 136.715C144.429 136.673 144.409 136.626 144.401 136.576C144.391 136.523 144.393 136.469 144.407 136.417L144.825 134.637C144.833 134.596 144.847 134.557 144.866 134.521C144.888 134.486 144.915 134.456 144.948 134.432C144.979 134.408 145.013 134.388 145.05 134.375C145.09 134.364 145.132 134.36 145.173 134.363L146.334 134.491Z" fill="#F9FAFF"/>
<path d="M127.194 81.2419C127.495 81.2824 127.792 81.3469 128.082 81.4348C128.343 81.518 128.595 81.6269 128.835 81.7599C129.058 81.8882 129.265 82.0417 129.453 82.2174C129.633 82.3931 129.792 82.5898 129.925 82.8032L123.023 89.2368L121.23 89.0066C121.048 88.9861 120.873 88.9236 120.72 88.8242C120.569 88.7313 120.441 88.6069 120.344 88.4595C120.242 88.3146 120.173 88.1498 120.141 87.9763C120.108 87.7986 120.113 87.6158 120.158 87.4407L121.736 81.4507C121.77 81.3162 121.83 81.1897 121.913 81.0782C121.991 80.9696 122.088 80.8757 122.2 80.801C122.314 80.7289 122.439 80.6748 122.569 80.6407C122.707 80.6113 122.849 80.6052 122.989 80.6225L127.194 81.2419Z" fill="white"/>
<path d="M101.401 46.9755C101.491 46.9884 101.58 47.0097 101.666 47.039C101.744 47.0604 101.82 47.0876 101.893 47.1203C101.958 47.1616 102.018 47.2083 102.075 47.2598C102.129 47.3089 102.177 47.3656 102.215 47.4281C102.258 47.4914 102.292 47.5602 102.317 47.6326C102.342 47.7032 102.36 47.7764 102.37 47.8508C102.379 47.9298 102.379 48.0093 102.373 48.0883C102.363 48.1727 102.345 48.2561 102.321 48.3375C102.298 48.4204 102.269 48.5015 102.234 48.5804C102.199 48.656 102.159 48.7288 102.113 48.7983C102.065 48.8625 102.012 48.9227 101.955 48.9783C101.898 49.0374 101.835 49.0901 101.767 49.1354C101.705 49.1777 101.64 49.2146 101.571 49.2459C101.503 49.2739 101.432 49.2965 101.36 49.3134C101.284 49.3267 101.208 49.3348 101.132 49.3378L100.889 49.3193L100.85 49.3054L99.6271 49.1049C99.5739 49.0982 99.5228 49.0799 99.4774 49.0514C99.4333 49.0231 99.3955 48.9862 99.366 48.9431C99.3413 48.8995 99.3222 48.8529 99.3092 48.8045C99.3026 48.7537 99.3062 48.7021 99.3198 48.6527L99.8062 46.9593C99.8107 46.9199 99.8242 46.8822 99.8457 46.8489C99.8678 46.818 99.8963 46.7921 99.9292 46.7729C99.9609 46.7493 99.9985 46.7348 100.038 46.7309C100.08 46.7229 100.122 46.7214 100.165 46.7264L101.401 46.9755Z" fill="white"/>
<path d="M155.042 142.702C154.999 143.561 154.803 144.406 154.463 145.196C154.146 145.932 153.695 146.602 153.131 147.172C152.589 147.722 151.942 148.157 151.229 148.453C150.502 148.754 149.72 148.899 148.933 148.877L90.5863 146.694C89.6795 146.637 88.7924 146.402 87.9756 146.004C87.2033 145.622 86.5128 145.094 85.9426 144.449C85.3774 143.807 84.9451 143.06 84.6709 142.252C84.3939 141.412 84.2853 140.528 84.3511 139.648L85.3843 124.512L105.166 106.064L104.919 106.965C104.871 107.148 104.865 107.339 104.9 107.525C104.934 107.701 105.004 107.868 105.106 108.015C105.209 108.166 105.342 108.294 105.497 108.392C105.655 108.491 105.833 108.555 106.018 108.578L113.513 109.39C113.659 109.407 113.807 109.396 113.949 109.359C114.085 109.322 114.214 109.263 114.33 109.184C114.444 109.101 114.543 108.999 114.625 108.885C114.707 108.764 114.77 108.631 114.81 108.49L117.518 98.1489C117.553 98.0087 117.613 97.8761 117.695 97.7578C117.775 97.6427 117.877 97.5437 117.994 97.4661C118.105 97.3868 118.232 97.3304 118.366 97.3003C118.504 97.2672 118.647 97.2573 118.789 97.271L121.08 97.5424C121.206 97.5557 121.33 97.5892 121.445 97.6416C121.557 97.6944 121.661 97.7629 121.754 97.8453C121.848 97.9283 121.929 98.0245 121.995 98.1309C122.064 98.2376 122.115 98.3547 122.147 98.4775L125.187 109.791C125.215 109.916 125.266 110.035 125.336 110.143C125.405 110.248 125.486 110.344 125.578 110.429C125.675 110.508 125.781 110.575 125.894 110.629C126.009 110.678 126.13 110.711 126.253 110.726L133.385 111.47C133.579 111.492 133.776 111.461 133.954 111.381C134.127 111.309 134.278 111.193 134.393 111.046C134.515 110.889 134.6 110.707 134.64 110.512C134.676 110.312 134.666 110.106 134.611 109.91L131.278 98.2435C131.23 98.0935 131.214 97.9351 131.232 97.7788C131.247 97.6295 131.288 97.4842 131.354 97.3494C131.418 97.2158 131.508 97.0958 131.618 96.9956C131.726 96.8905 131.853 96.8072 131.993 96.7502C132.433 96.5693 132.863 96.3656 133.281 96.1398C133.692 95.918 134.09 95.6739 134.474 95.4085C134.855 95.146 135.22 94.8608 135.567 94.5544C135.908 94.2481 136.233 93.9237 136.54 93.5825C136.928 93.1795 137.29 92.7516 137.623 92.3016C137.948 91.8507 138.241 91.377 138.498 90.8842C138.766 90.382 139.001 89.8633 139.203 89.3313C139.411 88.7822 139.587 88.2214 139.729 87.6517C139.949 86.7856 140.084 85.8997 140.13 85.0068C140.176 84.1663 140.125 83.3232 139.978 82.4938C139.831 81.6773 139.591 80.8798 139.265 80.1163C138.919 79.3194 138.49 78.561 137.985 77.8539L137.72 77.4917C137.628 77.3653 137.537 77.2519 137.441 77.1366C137.345 77.0212 137.254 76.9079 137.157 76.7925L136.861 76.4685L157.802 56.9282L155.042 142.702Z" fill="#F9FAFF"/>
<path d="M149.33 139.75C149.294 139.772 149.261 139.799 149.232 139.831C149.213 139.868 149.199 139.908 149.191 139.95C149.169 139.986 149.155 140.027 149.15 140.069C149.143 140.112 149.145 140.156 149.156 140.198L150.041 143.501C150.055 143.543 150.063 143.587 150.066 143.63C150.065 143.674 150.061 143.717 150.054 143.759C150.046 143.801 150.032 143.841 150.013 143.878C150.002 143.919 149.988 143.959 149.972 143.997L149.884 144.087C149.851 144.113 149.816 144.135 149.779 144.153C149.742 144.169 149.704 144.181 149.665 144.189C149.626 144.198 149.587 144.201 149.547 144.2L147.379 144.087C147.326 144.078 147.274 144.06 147.226 144.034C147.18 144.013 147.136 143.985 147.096 143.952C147.054 143.917 147.019 143.875 146.993 143.827C146.962 143.78 146.939 143.727 146.927 143.671L146.17 140.602C146.161 140.566 146.147 140.532 146.13 140.499C146.111 140.468 146.086 140.44 146.057 140.417C146.027 140.4 145.994 140.389 145.96 140.384C145.928 140.367 145.894 140.355 145.858 140.349L145.536 140.327L145.417 140.342C145.381 140.357 145.347 140.375 145.316 140.396C145.287 140.422 145.261 140.452 145.241 140.485C145.222 140.522 145.208 140.562 145.2 140.604L144.57 143.462C144.561 143.526 144.54 143.587 144.508 143.643C144.476 143.695 144.437 143.741 144.391 143.781C144.344 143.815 144.292 143.842 144.237 143.861C144.179 143.88 144.117 143.889 144.056 143.887L141.832 143.755L141.724 143.718L141.617 143.681L141.515 143.646L141.438 143.556C141.417 143.522 141.399 143.487 141.386 143.449C141.371 143.413 141.361 143.376 141.355 143.337C141.346 143.299 141.343 143.259 141.344 143.22C141.351 143.182 141.363 143.145 141.381 143.112L143.738 132.587C143.75 132.526 143.77 132.467 143.799 132.412C143.835 132.362 143.876 132.317 143.921 132.276C143.968 132.24 144.02 132.213 144.076 132.196C144.132 132.18 144.19 132.172 144.248 132.173L148.176 132.461C148.445 132.48 148.712 132.525 148.972 132.596C149.219 132.661 149.456 132.756 149.68 132.878C149.9 132.997 150.106 133.14 150.294 133.305C150.491 133.473 150.668 133.664 150.821 133.873C150.982 134.081 151.116 134.309 151.222 134.55C151.33 134.777 151.41 135.018 151.458 135.265C151.507 135.533 151.526 135.805 151.514 136.077C151.503 136.373 151.465 136.668 151.401 136.957C151.327 137.263 151.225 137.561 151.095 137.847C150.982 138.117 150.84 138.375 150.672 138.615C150.504 138.85 150.311 139.066 150.095 139.259C149.857 139.448 149.601 139.613 149.33 139.75ZM148.14 136.576C148.155 136.504 148.165 136.432 148.171 136.358C148.176 136.294 148.172 136.229 148.161 136.165C148.155 136.107 148.14 136.051 148.118 135.998C148.099 135.947 148.073 135.899 148.039 135.857C148.014 135.809 147.979 135.767 147.936 135.732C147.899 135.696 147.856 135.664 147.81 135.638L147.646 135.582C147.589 135.553 147.528 135.532 147.465 135.519L146.591 135.459C146.551 135.458 146.51 135.463 146.472 135.475C146.434 135.486 146.4 135.504 146.371 135.529C146.339 135.553 146.312 135.582 146.29 135.616C146.271 135.653 146.257 135.693 146.249 135.735L145.981 136.955L145.956 137.028C145.946 137.05 145.938 137.073 145.932 137.096C145.937 137.122 145.946 137.146 145.958 137.169C145.965 137.195 145.979 137.219 145.997 137.239L146.04 137.298L146.108 137.322L146.176 137.345L146.244 137.369L147 137.42L147.045 137.435L147.229 137.435C147.287 137.429 147.345 137.417 147.4 137.399L147.562 137.334C147.613 137.307 147.66 137.274 147.703 137.237C147.756 137.198 147.804 137.153 147.845 137.102C147.887 137.052 147.926 137 147.962 136.946C147.991 136.88 148.015 136.812 148.033 136.742C148.063 136.672 148.088 136.6 148.107 136.527" fill="#FF9900"/>
<path d="M103.224 50.9455C103.184 50.9614 103.147 50.9856 103.117 51.0164C103.089 51.0448 103.065 51.0772 103.046 51.1124C103.024 51.1487 103.01 51.1893 103.005 51.2314C103 51.2726 103.002 51.3146 103.013 51.3547L103.868 54.6163C103.879 54.656 103.887 54.6967 103.89 54.7379C103.88 54.7767 103.867 54.8146 103.851 54.8512C103.84 54.8899 103.827 54.9277 103.812 54.9645C103.804 55.0039 103.791 55.0421 103.773 55.0779C103.746 55.1092 103.715 55.1369 103.681 55.1604L103.574 55.2124C103.534 55.2271 103.493 55.2362 103.451 55.2396C103.409 55.2417 103.367 55.24 103.325 55.2346L101.054 54.9087C100.998 54.8991 100.945 54.8806 100.895 54.854C100.844 54.8313 100.797 54.8001 100.756 54.7617C100.714 54.723 100.678 54.6786 100.649 54.6298C100.621 54.5818 100.6 54.5299 100.588 54.4757L99.8577 51.4598C99.8506 51.4218 99.8376 51.3853 99.819 51.3514L99.7478 51.2634C99.7159 51.2465 99.6815 51.2346 99.6458 51.2283L99.5381 51.1912L99.1936 51.1424C99.1533 51.1366 99.1122 51.1374 99.0722 51.1449C99.0333 51.1539 98.9961 51.1689 98.9619 51.1893C98.9295 51.2105 98.9009 51.2372 98.8776 51.2681C98.8592 51.3038 98.846 51.342 98.8386 51.3814L98.1142 54.0738C98.1067 54.1339 98.0867 54.1919 98.0556 54.2439C98.0199 54.2914 97.9758 54.332 97.9256 54.3638C97.8767 54.3988 97.8208 54.4228 97.7618 54.4343C97.7006 54.4467 97.6378 54.4486 97.576 54.44L95.2381 54.104C95.1967 54.096 95.1566 54.0822 95.1191 54.063L95.0113 54.0259L94.9173 53.9492L94.8348 53.8573C94.8137 53.8237 94.7963 53.788 94.7828 53.7507C94.7678 53.7165 94.7567 53.6808 94.7497 53.6442C94.7426 53.606 94.7411 53.567 94.7452 53.5285C94.7543 53.4915 94.7667 53.4555 94.7823 53.4208L97.4913 43.512C97.5021 43.4527 97.5219 43.3955 97.5498 43.342C97.585 43.2962 97.6284 43.2574 97.6779 43.2277C97.7274 43.1963 97.7823 43.1743 97.8398 43.1629C97.9007 43.1487 97.9638 43.1468 98.0255 43.1572L102.15 43.7915C102.435 43.8325 102.715 43.8993 102.988 43.9913C103.244 44.0812 103.492 44.1941 103.728 44.3285C103.956 44.4636 104.169 44.622 104.364 44.8012C104.565 44.9815 104.746 45.1822 104.906 45.4C105.067 45.6097 105.201 45.8391 105.305 46.0826C105.41 46.3103 105.487 46.5497 105.535 46.7958C105.577 47.054 105.591 47.3161 105.576 47.5773C105.555 47.8606 105.507 48.1413 105.433 48.4157C105.366 48.7044 105.269 48.9855 105.144 49.2545C105.016 49.5056 104.858 49.7408 104.675 49.9551C104.493 50.1702 104.286 50.3629 104.059 50.529C103.796 50.6977 103.516 50.8374 103.224 50.9455ZM102.037 47.7848C102.063 47.7199 102.086 47.6537 102.105 47.5864C102.107 47.5244 102.105 47.4623 102.099 47.4005C102.094 47.3439 102.081 47.2882 102.061 47.2352C102.041 47.182 102.013 47.132 101.979 47.0866C101.951 47.0393 101.917 46.9957 101.878 46.9566L101.74 46.8586L101.565 46.7981L101.372 46.7317L100.456 46.5937C100.414 46.5872 100.371 46.5875 100.329 46.5943L100.218 46.6387C100.186 46.66 100.158 46.6866 100.134 46.7175C100.113 46.7499 100.101 46.7868 100.097 46.8252L99.7804 47.9841C99.7701 48.0059 99.7622 48.0287 99.757 48.0522C99.747 48.074 99.7391 48.0968 99.7336 48.1202C99.7379 48.1442 99.7447 48.1678 99.7538 48.1905L99.7929 48.2611L99.8415 48.3222L99.9152 48.3476L100.057 48.3964L100.846 48.5161L100.903 48.5356L101.094 48.5508C101.153 48.5536 101.213 48.5484 101.271 48.5355C101.329 48.5247 101.385 48.5081 101.44 48.486C101.494 48.465 101.546 48.4382 101.594 48.406C101.649 48.3741 101.7 48.3364 101.747 48.2938C101.794 48.2498 101.834 48.1998 101.868 48.1452C101.906 48.0897 101.939 48.0311 101.966 47.9699C101.995 47.9039 102.019 47.8357 102.037 47.7659" fill="#FF9900"/>
<path d="M133.998 96.9165C133.865 96.9797 133.747 97.068 133.648 97.1765C133.549 97.2805 133.469 97.401 133.411 97.5325C133.34 97.6566 133.293 97.7931 133.273 97.9349C133.261 98.0812 133.273 98.2284 133.306 98.3712L136.315 109.647C136.353 109.79 136.377 109.936 136.386 110.084C136.39 110.228 136.378 110.373 136.352 110.515C136.323 110.655 136.276 110.79 136.213 110.918C136.155 111.049 136.081 111.173 135.991 111.285C135.903 111.397 135.802 111.498 135.691 111.588C135.581 111.674 135.461 111.746 135.332 111.8C135.206 111.857 135.073 111.897 134.937 111.917C134.797 111.939 134.655 111.943 134.514 111.93L126.917 111.216C126.728 111.2 126.543 111.151 126.371 111.072C126.198 110.998 126.038 110.896 125.898 110.77C125.757 110.642 125.634 110.496 125.534 110.334C125.433 110.164 125.357 109.98 125.31 109.788L122.755 99.2578C122.728 99.1295 122.678 99.007 122.607 98.8962C122.543 98.7854 122.462 98.685 122.368 98.5981C122.273 98.5146 122.166 98.4457 122.051 98.394C121.94 98.3335 121.819 98.2919 121.694 98.271L120.537 98.1514C120.397 98.1359 120.255 98.1474 120.12 98.1852C119.989 98.2218 119.866 98.2802 119.756 98.3578C119.645 98.4396 119.548 98.5392 119.47 98.6526C119.391 98.7722 119.333 98.9043 119.298 99.0434L116.902 108.724C116.851 108.936 116.763 109.138 116.64 109.318C116.524 109.495 116.377 109.648 116.205 109.771C116.036 109.894 115.846 109.986 115.643 110.04C115.431 110.1 115.21 110.118 114.991 110.094L106.928 109.353C106.792 109.344 106.659 109.317 106.531 109.273C106.403 109.229 106.28 109.174 106.163 109.108C106.046 109.036 105.937 108.954 105.835 108.862C105.733 108.768 105.641 108.662 105.563 108.547C105.485 108.432 105.418 108.31 105.366 108.181C105.314 108.055 105.274 107.924 105.247 107.791C105.223 107.656 105.213 107.518 105.217 107.381C105.224 107.243 105.244 107.105 105.276 106.97L114.301 71.5622C114.353 71.3669 114.438 71.1819 114.553 71.0149C114.671 70.8531 114.816 70.7123 114.981 70.5983C115.149 70.4838 115.336 70.402 115.534 70.3573C115.745 70.3113 115.962 70.3025 116.176 70.3315L129.926 72.125C130.693 72.2214 131.452 72.3746 132.196 72.5836C132.901 72.7837 133.588 73.0417 134.251 73.3548C134.894 73.6589 135.512 74.0156 136.096 74.4215C136.677 74.8301 137.222 75.2891 137.722 75.7931C137.846 75.9119 137.963 76.0344 138.073 76.1549C138.184 76.2754 138.304 76.4056 138.411 76.5374C138.517 76.6693 138.632 76.7974 138.739 76.9293L139.053 77.3419C139.586 78.0559 140.037 78.828 140.397 79.6434C140.749 80.4456 141.004 81.287 141.157 82.1496C141.317 83.0412 141.375 83.948 141.329 84.8527C141.288 85.8309 141.148 86.8025 140.913 87.7529C140.693 88.759 140.368 89.7394 139.944 90.6779C139.543 91.5647 139.042 92.4025 138.45 93.1749C137.872 93.9435 137.206 94.6418 136.465 95.2557C135.705 95.8966 134.878 96.4535 133.998 96.9165ZM129.914 86.0758C129.972 85.8409 130.01 85.6016 130.027 85.3603C130.041 85.1465 130.034 84.9319 130.007 84.7193C129.988 84.5254 129.943 84.3348 129.872 84.153C129.81 83.9776 129.725 83.8116 129.618 83.6596C129.513 83.4978 129.39 83.349 129.25 83.2161C129.111 83.086 128.956 82.9731 128.789 82.8798C128.611 82.7872 128.426 82.7105 128.234 82.6505C128.013 82.5878 127.786 82.5438 127.557 82.5187L124.512 82.1547C124.373 82.1373 124.232 82.1469 124.097 82.1828C123.968 82.2149 123.846 82.2696 123.737 82.3442C123.628 82.4218 123.535 82.5185 123.461 82.6296C123.382 82.7469 123.324 82.8772 123.29 83.0146L122.289 87.0635C122.267 87.1483 122.254 87.2352 122.25 87.3228C122.251 87.4124 122.258 87.5018 122.272 87.5903C122.289 87.6777 122.315 87.763 122.349 87.8451C122.385 87.9272 122.428 88.0057 122.478 88.0796C122.528 88.1552 122.587 88.2246 122.654 88.2861C122.718 88.348 122.788 88.4022 122.865 88.4474C122.943 88.4837 123.025 88.5118 123.108 88.5314C123.188 88.5683 123.272 88.5971 123.358 88.6173L124.352 88.7314L126.011 88.9223L126.045 88.934L126.118 88.9594L126.152 88.9711C126.361 88.992 126.572 88.9966 126.782 88.9849C126.984 88.9779 127.185 88.9494 127.382 88.8999C127.573 88.8591 127.759 88.7953 127.935 88.7101C128.117 88.6253 128.29 88.5236 128.452 88.4063C128.634 88.2839 128.802 88.1419 128.953 87.9828C129.101 87.8297 129.234 87.6635 129.352 87.4863C129.477 87.2901 129.582 87.0823 129.667 86.8657C129.769 86.6329 129.852 86.3921 129.915 86.1459" fill="#FF9900"/>
</g>
</g>
<defs>
<filter id="filter0_d_3281_313704" x="57.9592" y="12.8492" width="126.329" height="162.403" filterUnits="userSpaceOnUse" color-interpolation-filters="sRGB">
<feFlood flood-opacity="0" result="BackgroundImageFix"/>
<feColorMatrix in="SourceAlpha" type="matrix" values="0 0 0 0 0 0 0 0 0 0 0 0 0 0 0 0 0 0 127 0" result="hardAlpha"/>
<feOffset/>
<feGaussianBlur stdDeviation="13.1867"/>
<feColorMatrix type="matrix" values="0 0 0 0 0 0 0 0 0 0 0 0 0 0 0 0 0 0 0.35 0"/>
<feBlend mode="normal" in2="BackgroundImageFix" result="effect1_dropShadow_3281_313704"/>
<feBlend mode="normal" in="SourceGraphic" in2="effect1_dropShadow_3281_313704" result="shape"/>
</filter>
<linearGradient id="paint0_linear_3281_313704" x1="189" y1="0" x2="-9.37654e-07" y2="195.633" gradientUnits="userSpaceOnUse">
<stop stop-color="#00FF57"/>
<stop offset="1" stop-color="#8BF006"/>
</linearGradient>
<radialGradient id="paint1_radial_3281_313704" cx="0" cy="0" r="1" gradientUnits="userSpaceOnUse" gradientTransform="translate(28.6227 161.286) rotate(90) scale(114.036)">
<stop stop-color="#00FFE0"/>
<stop offset="1" stop-color="#CA9E03" stop-opacity="0"/>
</radialGradient>
<linearGradient id="paint2_linear_3281_313704" x1="-5.48587" y1="91.1563" x2="151.158" y2="114.225" gradientUnits="userSpaceOnUse">
<stop offset="0.11" stop-color="#ECE7E7"/>
<stop offset="0.5" stop-color="#FDF8F8"/>
<stop offset="1" stop-color="white"/>
</linearGradient>
<linearGradient id="paint3_linear_3281_313704" x1="57.9173" y1="106.265" x2="113.832" y2="105.653" gradientUnits="userSpaceOnUse">
<stop offset="0.15" stop-color="#D1CFDE"/>
<stop offset="1" stop-color="#EEEBFF" stop-opacity="0"/>
</linearGradient>
<clipPath id="clip0_3281_313704">
<path d="M0 22C0 9.84973 9.84974 0 22 0H167C179.15 0 189 9.84974 189 22V167C189 179.15 179.15 189 167 189H22C9.84973 189 0 179.15 0 167V22Z" fill="white"/>
</clipPath>
<clipPath id="clip1_3281_313704">
<rect width="98.5767" height="100.402" fill="white" transform="translate(44.6348 27.6989)"/>
</clipPath>
</defs>
</svg>
