<svg width="965" height="413" viewBox="0 0 965 413" fill="none" xmlns="http://www.w3.org/2000/svg">
<g clip-path="url(#clip0_964_42478)">
<g clip-path="url(#clip1_964_42478)">
<rect x="-62" y="-41" width="1088" height="494" rx="18" fill="url(#paint0_linear_964_42478)"/>
<ellipse opacity="0.4" cx="207.385" cy="387.688" rx="656.462" ry="298.062" fill="url(#paint1_radial_964_42478)"/>
<ellipse opacity="0.4" cx="1061.46" cy="166.062" rx="656.462" ry="298.062" fill="url(#paint2_radial_964_42478)"/>
</g>
<g filter="url(#filter0_b_964_42478)">
<ellipse cx="191.5" cy="248.5" rx="57.5" ry="55.5" fill="white" fill-opacity="0.01"/>
</g>
</g>
<defs>
<filter id="filter0_b_964_42478" x="126" y="185" width="131" height="127" filterUnits="userSpaceOnUse" color-interpolation-filters="sRGB">
<feFlood flood-opacity="0" result="BackgroundImageFix"/>
<feGaussianBlur in="BackgroundImage" stdDeviation="4"/>
<feComposite in2="SourceAlpha" operator="in" result="effect1_backgroundBlur_964_42478"/>
<feBlend mode="normal" in="SourceGraphic" in2="effect1_backgroundBlur_964_42478" result="shape"/>
</filter>
<linearGradient id="paint0_linear_964_42478" x1="-32.3888" y1="365.521" x2="408.016" y2="-457.722" gradientUnits="userSpaceOnUse">
<stop stop-color="#4A16E4"/>
<stop offset="0.0885417" stop-color="#933288"/>
<stop offset="0.286458" stop-color="#C1444E"/>
<stop offset="1" stop-color="#FF5C00"/>
</linearGradient>
<radialGradient id="paint1_radial_964_42478" cx="0" cy="0" r="1" gradientUnits="userSpaceOnUse" gradientTransform="translate(207.385 387.687) rotate(90) scale(298.063 656.462)">
<stop stop-color="#3300FF"/>
<stop offset="1" stop-color="#1D1E25" stop-opacity="0"/>
</radialGradient>
<radialGradient id="paint2_radial_964_42478" cx="0" cy="0" r="1" gradientUnits="userSpaceOnUse" gradientTransform="translate(1061.46 166.062) rotate(90) scale(298.062 656.462)">
<stop stop-color="#3300FF"/>
<stop offset="1" stop-color="#1D1E25" stop-opacity="0"/>
</radialGradient>
<clipPath id="clip0_964_42478">
<path d="M0 10C0 4.47715 4.47715 0 10 0H955C960.523 0 965 4.47715 965 10V403C965 408.523 960.523 413 955 413H9.99999C4.47714 413 0 408.523 0 403V10Z" fill="white"/>
</clipPath>
<clipPath id="clip1_964_42478">
<rect x="-62" y="-41" width="1088" height="494" rx="18" fill="white"/>
</clipPath>
</defs>
</svg>
