<svg width="25" height="25" viewBox="0 0 25 25" fill="none" xmlns="http://www.w3.org/2000/svg">
<circle cx="12.5" cy="12.5" r="12.5" fill="#FFC700"/>
<path d="M7.29646 7.67358C7.74217 7.6742 8.17835 7.63735 8.62406 7.63796C9.06977 7.63857 9.50595 7.60172 9.95166 7.60234C10.075 7.60931 10.1033 7.56169 10.1127 7.43916C10.1023 6.76172 10.1014 6.12174 10.091 5.4443C10.1003 5.32177 10.1287 5.27415 10.252 5.28112C10.6598 5.2919 11.0201 5.27537 11.4184 5.24868C11.5417 5.25566 11.5512 5.29312 11.5324 5.3782C11.5332 6.01818 11.5436 6.69561 11.5445 7.33559C11.554 7.37305 11.5636 7.41051 11.5447 7.49559C11.8671 7.48922 12.2275 7.4727 12.5499 7.46633C12.5878 7.45617 12.6067 7.37109 12.635 7.32347C12.6249 6.80603 12.6242 6.32605 12.6519 5.79844L12.6513 5.31846C12.6322 5.24354 12.6606 5.19592 12.746 5.21306C13.1538 5.22383 13.552 5.19714 13.9977 5.19776C14.0357 5.18759 14.0452 5.22505 14.0831 5.21489C14.0933 5.73234 14.094 6.21232 14.0946 6.69231C14.1043 6.88976 14.1141 7.08721 14.0859 7.29483C14.0766 7.41736 14.1241 7.44466 14.2474 7.45164L15.6417 7.67823C16.0781 7.80137 16.4956 8.0096 16.8564 8.31306C17.3407 8.7835 17.5311 9.37268 17.532 10.0127C17.5231 10.4552 17.4668 10.8704 17.2397 11.2514C17.0694 11.5371 16.8042 11.7682 16.5294 11.9619C16.4915 11.972 16.4631 12.0196 16.3873 12.04C16.5676 12.1117 16.7383 12.146 16.9186 12.2177C17.4594 12.4329 17.8676 12.7637 18.1528 13.2474C18.3335 13.6392 18.41 14.0988 18.4011 14.5414C18.3829 15.1064 18.3077 15.6067 18.0713 16.1102C17.7781 16.7089 17.314 17.1134 16.7264 17.3509C15.9587 17.6766 15.1812 17.8049 14.3942 17.8957C14.2709 17.8888 14.2046 17.9465 14.1953 18.0691C14.1962 18.7091 14.2066 19.3865 14.2074 20.0265C14.2077 20.1865 14.2172 20.2239 14.0085 20.1998C13.6482 20.2163 13.2404 20.2056 12.8801 20.2221C12.7568 20.2151 12.7472 20.1777 12.7661 20.0926C12.7557 19.4151 12.7453 18.7377 12.7823 18.0876C12.7633 18.0127 12.7917 17.965 12.7063 17.9479C12.3839 17.9543 12.0614 17.9606 11.7011 17.9772C11.7111 18.3346 11.6831 18.7022 11.6931 19.0597C11.703 19.4171 11.6751 19.7847 11.6851 20.1422C11.6662 20.2272 11.6757 20.2647 11.5524 20.2577C11.1447 20.247 10.7464 20.2736 10.3481 20.3003C10.2248 20.2933 10.2153 20.2559 10.2342 20.1708C10.2238 19.4934 10.2134 18.8159 10.2504 18.1658C10.2409 18.1283 10.2693 18.0807 10.2502 18.0058C9.32086 18.0147 8.39152 18.0237 7.42426 18.0428C7.46196 17.8726 7.47128 17.7501 7.50898 17.5799C7.57486 17.2022 7.64073 16.8244 7.67822 16.4942C7.68753 16.3717 7.72545 16.3615 7.83921 16.3311C8.12371 16.3349 8.44613 16.3285 8.7211 16.2948C9.04352 16.2885 9.2329 16.0777 9.20408 15.8053C9.21081 13.7628 9.21753 11.7203 9.17681 9.65057C9.17637 9.33058 8.90097 9.04425 8.5311 9.02332C8.16123 9.00239 7.80089 9.01891 7.47847 9.02528C7.40263 9.0456 7.35518 9.0183 7.37403 8.93322C7.38291 8.4907 7.38226 8.01071 7.39115 7.56819C7.26807 7.7212 7.26808 7.7212 7.29646 7.67358ZM11.5852 16.4077C11.6231 16.3975 11.6706 16.4248 11.6706 16.4248C12.3154 16.4121 13.0077 16.4267 13.6619 16.2914C14.1264 16.2069 14.5435 16.0952 14.9225 15.8336C15.5858 15.4158 15.6508 14.398 15.0811 13.9104C14.8153 13.6616 14.4642 13.5556 14.1132 13.4496C13.3353 13.2579 12.5009 13.3214 11.7044 13.3748C11.5811 13.3678 11.5906 13.4052 11.5813 13.5278C11.6008 13.9227 11.5728 14.2903 11.5923 14.6852C11.5741 15.2503 11.5939 15.8052 11.5852 16.4077ZM13.7979 11.7334C13.8738 11.7131 14.0538 11.6249 14.196 11.5468C14.8783 11.2039 15.0478 10.2782 14.5065 9.74298C14.2311 9.45666 13.8326 9.32335 13.4532 9.26496C12.8651 9.18245 12.3057 9.21232 11.6988 9.21489C11.5755 9.20791 11.5471 9.25553 11.5378 9.37807C11.5484 10.2155 11.5495 11.0155 11.5221 11.8631C11.5033 11.9481 11.5507 11.9754 11.6361 11.9926C11.7973 11.9894 11.9206 11.9964 12.0818 11.9932C12.6697 11.9157 13.1912 11.896 13.7979 11.7334Z" fill="white"/>
</svg>
