<svg width="8" height="25" viewBox="0 0 8 25" fill="none" xmlns="http://www.w3.org/2000/svg">
<path d="M5.83749 19.5C5.68809 19.5005 5.54048 19.4676 5.4055 19.4035C5.27052 19.3395 5.15161 19.2461 5.05749 19.13L0.227488 13.13C0.0804062 12.9511 0 12.7267 0 12.495C0 12.2634 0.0804062 12.039 0.227488 11.86L5.22749 5.86003C5.39723 5.65581 5.64114 5.52739 5.90556 5.50301C6.16999 5.47863 6.43327 5.56029 6.63749 5.73003C6.8417 5.89977 6.97013 6.14368 6.99451 6.40811C7.01889 6.67253 6.93723 6.93581 6.76749 7.14003L2.29749 12.5L6.61749 17.86C6.73977 18.0068 6.81745 18.1856 6.84133 18.3751C6.86521 18.5647 6.83429 18.7571 6.75223 18.9296C6.67018 19.1021 6.54042 19.2475 6.37831 19.3486C6.2162 19.4497 6.02852 19.5023 5.83749 19.5Z" fill="white"/>
</svg>
