<svg width="25" height="25" viewBox="0 0 25 25" fill="none" xmlns="http://www.w3.org/2000/svg">
<path d="M15.5882 2.11253C15.1727 1.73158 14.6262 1.52576 14.0626 1.53799C13.499 1.55022 12.9619 1.77955 12.5632 2.17815L2.22574 12.5157C2.02259 12.7188 1.86144 12.9599 1.7515 13.2254C1.64155 13.4908 1.58496 13.7752 1.58496 14.0625C1.58496 14.3498 1.64155 14.6343 1.7515 14.8997C1.86144 15.1651 2.02259 15.4063 2.22574 15.6094L3.67262 17.0563C4.21481 17.5985 4.99449 17.4688 5.45387 17.161C5.78443 16.9413 6.18086 16.8427 6.57582 16.8821C6.97079 16.9215 7.33994 17.0964 7.62061 17.377C7.90128 17.6577 8.07615 18.0269 8.11554 18.4218C8.15492 18.8168 8.05639 19.2132 7.83668 19.5438C7.53199 20.0047 7.40074 20.7844 7.94293 21.3266L9.35699 22.7407C9.56403 22.9479 9.81059 23.1115 10.082 23.2216C10.3535 23.3318 10.6443 23.3863 10.9372 23.3819C11.2301 23.3775 11.5192 23.3144 11.7872 23.1962C12.0553 23.078 12.2969 22.9071 12.4976 22.6938L22.807 11.7375C23.0057 11.5266 23.1605 11.2783 23.2624 11.0071C23.3644 10.7358 23.4114 10.447 23.4008 10.1574C23.3902 9.86785 23.3221 9.58326 23.2006 9.3202C23.0791 9.05714 22.9065 8.82084 22.6929 8.62503L21.3086 7.35628C21.1562 7.22003 20.9743 7.12114 20.7771 7.06744C20.5799 7.01374 20.373 7.00671 20.1726 7.0469C19.8179 7.1094 19.482 7.29847 19.2382 7.56409C19.0857 7.7305 18.9018 7.86523 18.6972 7.96059C18.4926 8.05595 18.2712 8.11007 18.0456 8.11987C17.8201 8.12966 17.5948 8.09494 17.3827 8.01767C17.1706 7.94041 16.9757 7.82212 16.8093 7.66956C16.4733 7.36145 16.2733 6.93246 16.2536 6.47695C16.2438 6.2514 16.2785 6.02614 16.3558 5.81402C16.433 5.60189 16.5513 5.40706 16.7039 5.24065C16.9492 4.97659 17.107 4.62503 17.1398 4.26722C17.1626 4.06417 17.1378 3.85861 17.0673 3.66684C16.9968 3.47508 16.8825 3.3024 16.7336 3.16253L15.5882 2.11253Z" fill="white"/>
</svg>
