<svg width="189" height="189" viewBox="0 0 189 189" fill="none" xmlns="http://www.w3.org/2000/svg">
<g clip-path="url(#clip0_3281_313699)">
<path d="M0 22C0 9.84973 9.84974 0 22 0H167C179.15 0 189 9.84974 189 22V167C189 179.15 179.15 189 167 189H22C9.84973 189 0 179.15 0 167V22Z" fill="url(#paint0_linear_3281_313699)"/>
<path d="M157.564 39.9323C157.508 43.3392 155.949 45.4335 154.957 46.6952L137.255 64.8415L113.977 24.5226L138.543 18.2652C141.187 17.7726 143.76 18.0086 146.733 19.9769C149.706 21.9452 152.491 25.1174 154.508 28.8339C156.525 32.5504 157.62 36.5253 157.564 39.9323Z" fill="#17A88E"/>
<path d="M157.564 39.9323C157.508 43.3392 155.949 45.4335 154.957 46.6952L140.757 61.2522C138.742 63.5044 137.255 64.8415 137.255 64.8415L140.757 61.2522C146.307 55.0465 155.858 41.8927 149.324 30.6165C143.406 20.4021 129.741 21.0734 121.24 22.6725L113.977 24.5226C113.977 24.5226 116.951 23.4794 121.24 22.6725L138.543 18.2652C141.187 17.7726 143.76 18.0086 146.733 19.9769C149.706 21.9452 152.491 25.1174 154.508 28.8339C156.525 32.5504 157.62 36.5253 157.564 39.9323Z" fill="#0C8771"/>
<path d="M132.942 66.2645C129.676 68.1504 125.42 68.0192 121.011 65.8951C116.611 63.7759 112.249 59.7405 109.07 54.2343C105.891 48.728 104.577 42.9328 104.942 38.0632C105.307 33.1824 107.322 29.431 110.588 27.5452C113.854 25.6594 118.11 25.7906 122.52 27.9147C126.919 30.0339 131.281 34.0693 134.46 39.5755C137.639 45.0818 138.953 50.877 138.588 55.7466C138.223 60.6274 136.209 64.3787 132.942 66.2645Z" fill="#046654" stroke="#B7B7B7" stroke-width="3.6377"/>
<path d="M132.942 66.2645C129.676 68.1504 125.42 68.0192 121.011 65.8951C116.611 63.7759 112.249 59.7405 109.07 54.2343C105.891 48.728 104.577 42.9328 104.942 38.0632C105.307 33.1824 107.322 29.431 110.588 27.5452C113.854 25.6594 118.11 25.7906 122.52 27.9147C126.919 30.0339 131.281 34.0693 134.46 39.5755C137.639 45.0818 138.953 50.877 138.588 55.7466C138.223 60.6274 136.209 64.3787 132.942 66.2645Z" stroke="#23CFB0" stroke-width="3.6377"/>
<path d="M45.433 219.894L24.0796 133.118H167.193L150.837 219.894H45.433Z" fill="url(#paint1_linear_3281_313699)"/>
<ellipse cx="95.4089" cy="132.209" rx="71.7837" ry="20.4447" fill="#25A8A0"/>
<path d="M41.02 28.0378L46.8235 35.4558L55.5585 31.9334L48.1405 37.7369L51.6629 46.4718L45.8594 39.0539L37.1244 42.5763L44.5424 36.7728L41.02 28.0378Z" fill="white" fill-opacity="0.84"/>
<ellipse opacity="0.2" cx="46.3415" cy="37.2551" rx="5.13913" ry="5.13913" transform="rotate(-30 46.3415 37.2551)" fill="white"/>
<circle opacity="0.7" cx="23.1708" cy="22.262" r="131.3" fill="url(#paint2_radial_3281_313699)"/>
<ellipse cx="95.4089" cy="131.755" rx="71.7837" ry="19.9904" fill="url(#paint3_radial_3281_313699)"/>
<ellipse cx="67.2404" cy="135.389" rx="37.2548" ry="10.9038" fill="url(#paint4_radial_3281_313699)"/>
<ellipse cx="94.5002" cy="122.668" rx="37.2548" ry="10.9038" fill="url(#paint5_radial_3281_313699)"/>
<circle cx="103.257" cy="88.7704" r="37.2548" transform="rotate(-120 103.257 88.7704)" fill="url(#paint6_linear_3281_313699)"/>
<ellipse cx="103.251" cy="110.578" rx="24.5337" ry="14.5385" fill="url(#paint7_linear_3281_313699)"/>
<ellipse cx="122.146" cy="77.8718" rx="24.5337" ry="14.5385" transform="rotate(-120 122.146 77.8718)" fill="url(#paint8_linear_3281_313699)"/>
<ellipse cx="84.3742" cy="77.861" rx="24.5337" ry="14.5385" transform="rotate(120 84.3742 77.861)" fill="#F5FFFC"/>
<ellipse cx="84.4928" cy="78.2142" rx="2.69231" ry="4.54327" transform="rotate(-150 84.4928 78.2142)" fill="url(#paint9_linear_3281_313699)"/>
<ellipse rx="2.69231" ry="4.54327" transform="matrix(0.866026 -0.5 -0.5 -0.866025 124.545 78.2143)" fill="url(#paint10_linear_3281_313699)"/>
<ellipse cx="96.4373" cy="69.3718" rx="2.69231" ry="4.54327" transform="rotate(-150 96.4373 69.3718)" fill="url(#paint11_linear_3281_313699)"/>
<ellipse cx="72.5484" cy="87.0564" rx="2.69231" ry="4.54327" transform="rotate(-150 72.5484 87.0564)" fill="url(#paint12_linear_3281_313699)"/>
<ellipse rx="3.25527" ry="4.1585" transform="matrix(0.697832 -0.716261 -0.946155 -0.323714 98.2528 115.708)" fill="url(#paint13_linear_3281_313699)"/>
<ellipse rx="3.25527" ry="4.1585" transform="matrix(0.697833 -0.716261 -0.946155 -0.323714 108.248 105.448)" fill="url(#paint14_linear_3281_313699)"/>
<ellipse rx="3.25527" ry="4.1585" transform="matrix(0.697833 -0.716261 -0.946155 -0.323714 86.4491 111.669)" fill="url(#paint15_linear_3281_313699)"/>
<ellipse rx="3.25527" ry="4.1585" transform="matrix(0.697833 -0.71626 -0.946155 -0.323713 96.4442 101.41)" fill="url(#paint16_linear_3281_313699)"/>
<ellipse rx="3.25527" ry="4.1585" transform="matrix(0.697832 -0.716262 -0.946155 -0.323714 110.057 119.746)" fill="url(#paint17_linear_3281_313699)"/>
<ellipse rx="3.25527" ry="4.1585" transform="matrix(0.697832 -0.716261 -0.946155 -0.323714 120.052 109.487)" fill="url(#paint18_linear_3281_313699)"/>
<path d="M65.2916 95.1909L63.0905 118.045L81.5472 131.702L62.8556 118.368L41.8003 127.524L62.693 118.003L65.2916 95.1909Z" fill="black"/>
<ellipse cx="62.7816" cy="118.017" rx="23.0743" ry="23.0743" transform="rotate(66 62.7816 118.017)" fill="url(#paint19_linear_3281_313699)"/>
<ellipse cx="61.3708" cy="130.229" rx="15.9168" ry="9.43216" transform="rotate(7.19532 61.3708 130.229)" fill="#830101" fill-opacity="0.22"/>
<ellipse cx="75.1813" cy="112.496" rx="14.9304" ry="8.14387" transform="rotate(66 75.1813 112.496)" fill="#FF4747"/>
<ellipse cx="51.8019" cy="110.039" rx="14.9304" ry="8.14386" transform="rotate(-54 51.8019 110.039)" fill="url(#paint20_linear_3281_313699)"/>
<ellipse rx="1.4807" ry="2.71462" transform="matrix(0.913545 -0.406737 0.406736 0.913546 75.2317 112.609)" fill="url(#paint21_linear_3281_313699)"/>
<ellipse rx="1.48069" ry="2.71462" transform="matrix(-0.104529 0.994522 -0.994522 -0.104528 55.0085 127.131)" fill="url(#paint22_linear_3281_313699)"/>
<ellipse cx="61.3708" cy="131.522" rx="1.4807" ry="2.71462" transform="rotate(96 61.3708 131.522)" fill="url(#paint23_linear_3281_313699)"/>
<ellipse cx="67.7331" cy="135.912" rx="1.4807" ry="2.71462" transform="rotate(96 67.7331 135.912)" fill="url(#paint24_linear_3281_313699)"/>
<ellipse rx="1.4807" ry="2.71462" transform="matrix(-0.809017 -0.587785 -0.587785 0.809017 50.7304 117.521)" fill="url(#paint25_linear_3281_313699)"/>
<ellipse rx="1.4807" ry="2.71462" transform="matrix(-0.809017 -0.587785 -0.587785 0.809017 52.7189 102.189)" fill="url(#paint26_linear_3281_313699)"/>
<path d="M54.264 29.5722L52.0609 40.012C51.3077 43.5808 53.007 47.2173 56.2277 48.9293L65.6491 53.9371L55.2094 51.734C51.6406 50.9809 48.004 52.6802 46.2921 55.9009L41.2842 65.3223L43.4873 54.8826C44.2405 51.3137 42.5412 47.6772 39.3205 45.9653L29.899 40.9574L40.3388 43.1605C43.9076 43.9136 47.5442 42.2144 49.2561 38.9936L54.264 29.5722Z" fill="white" fill-opacity="0.84"/>
<ellipse opacity="0.2" cx="47.7734" cy="47.4478" rx="9.18261" ry="9.18261" transform="rotate(19.9544 47.7734 47.4478)" fill="white"/>
<path d="M155.316 85.6046L157.456 100.759C157.966 104.371 160.805 107.209 164.416 107.719L179.571 109.859L164.416 111.999C160.805 112.509 157.966 115.347 157.456 118.959L155.316 134.113L153.176 118.959C152.666 115.347 149.828 112.509 146.216 111.999L131.062 109.859L146.216 107.719C149.828 107.209 152.666 104.371 153.176 100.759L155.316 85.6046Z" fill="white" fill-opacity="0.84"/>
<circle opacity="0.2" cx="155.316" cy="109.86" r="11.7117" fill="white"/>
</g>
<defs>
<linearGradient id="paint0_linear_3281_313699" x1="11.3582" y1="189" x2="183.548" y2="9.54086" gradientUnits="userSpaceOnUse">
<stop stop-color="#7700FF"/>
<stop offset="1" stop-color="#9E00FF"/>
</linearGradient>
<linearGradient id="paint1_linear_3281_313699" x1="150.382" y1="167.192" x2="29.9858" y2="170.827" gradientUnits="userSpaceOnUse">
<stop stop-color="#46366B"/>
<stop offset="1" stop-color="#435482"/>
</linearGradient>
<radialGradient id="paint2_radial_3281_313699" cx="0" cy="0" r="1" gradientUnits="userSpaceOnUse" gradientTransform="translate(23.1708 22.262) rotate(76.866) scale(112.804)">
<stop stop-color="#EB00FF"/>
<stop offset="1" stop-color="#1D1E25" stop-opacity="0"/>
</radialGradient>
<radialGradient id="paint3_radial_3281_313699" cx="0" cy="0" r="1" gradientUnits="userSpaceOnUse" gradientTransform="translate(95.4089 131.755) rotate(50.0411) scale(21.8198 48.5411)">
<stop stop-color="#037694"/>
<stop offset="1" stop-color="#1D1E25" stop-opacity="0"/>
</radialGradient>
<radialGradient id="paint4_radial_3281_313699" cx="0" cy="0" r="1" gradientUnits="userSpaceOnUse" gradientTransform="translate(67.2404 135.389) rotate(51.4374) scale(11.667 25.6991)">
<stop stop-color="#14353E"/>
<stop offset="1" stop-color="#1D1E25" stop-opacity="0"/>
</radialGradient>
<radialGradient id="paint5_radial_3281_313699" cx="0" cy="0" r="1" gradientUnits="userSpaceOnUse" gradientTransform="translate(94.5002 122.668) rotate(51.4374) scale(11.667 25.6991)">
<stop stop-color="#037694"/>
<stop offset="1" stop-color="#1D1E25" stop-opacity="0"/>
</radialGradient>
<linearGradient id="paint6_linear_3281_313699" x1="136.657" y1="68.1757" x2="66.0199" y2="109.096" gradientUnits="userSpaceOnUse">
<stop stop-color="#FFF6D6"/>
<stop offset="0.410561" stop-color="#ECE5CD"/>
<stop offset="0.501596" stop-color="#DDD8C5"/>
<stop offset="0.884128" stop-color="#B5735E"/>
<stop offset="1" stop-color="#EE2B00"/>
</linearGradient>
<linearGradient id="paint7_linear_3281_313699" x1="103.251" y1="96.0396" x2="103.251" y2="125.116" gradientUnits="userSpaceOnUse">
<stop stop-color="#C8AD95"/>
<stop offset="1" stop-color="#228D8A" stop-opacity="0.21"/>
</linearGradient>
<linearGradient id="paint8_linear_3281_313699" x1="122.146" y1="63.3333" x2="122.146" y2="92.4103" gradientUnits="userSpaceOnUse">
<stop stop-color="#DEC6B0"/>
<stop offset="1" stop-color="#E8D3C0"/>
</linearGradient>
<linearGradient id="paint9_linear_3281_313699" x1="87.5689" y1="77.8503" x2="82.892" y2="77.9275" gradientUnits="userSpaceOnUse">
<stop stop-color="#AF0101"/>
<stop offset="1" stop-color="#FF5050"/>
</linearGradient>
<linearGradient id="paint10_linear_3281_313699" x1="5.76849" y1="4.17935" x2="1.09154" y2="4.25653" gradientUnits="userSpaceOnUse">
<stop stop-color="#AF0101"/>
<stop offset="1" stop-color="#FF5050"/>
</linearGradient>
<linearGradient id="paint11_linear_3281_313699" x1="99.5135" y1="69.0079" x2="94.8366" y2="69.0851" gradientUnits="userSpaceOnUse">
<stop stop-color="#AF0101"/>
<stop offset="1" stop-color="#FF5050"/>
</linearGradient>
<linearGradient id="paint12_linear_3281_313699" x1="75.6246" y1="86.6925" x2="70.9477" y2="86.7697" gradientUnits="userSpaceOnUse">
<stop stop-color="#AF0101"/>
<stop offset="1" stop-color="#FF5050"/>
</linearGradient>
<linearGradient id="paint13_linear_3281_313699" x1="0.329721" y1="-1.70627" x2="4.53597" y2="8.96236" gradientUnits="userSpaceOnUse">
<stop stop-color="#CD5555"/>
<stop offset="1" stop-color="#7D0000"/>
</linearGradient>
<linearGradient id="paint14_linear_3281_313699" x1="0.32972" y1="-1.70627" x2="4.53596" y2="8.96235" gradientUnits="userSpaceOnUse">
<stop stop-color="#CD5555"/>
<stop offset="1" stop-color="#7D0000"/>
</linearGradient>
<linearGradient id="paint15_linear_3281_313699" x1="0.32972" y1="-1.70627" x2="4.53597" y2="8.96236" gradientUnits="userSpaceOnUse">
<stop stop-color="#CD5555"/>
<stop offset="1" stop-color="#7D0000"/>
</linearGradient>
<linearGradient id="paint16_linear_3281_313699" x1="0.32972" y1="-1.70627" x2="4.53597" y2="8.96236" gradientUnits="userSpaceOnUse">
<stop stop-color="#CD5555"/>
<stop offset="1" stop-color="#7D0000"/>
</linearGradient>
<linearGradient id="paint17_linear_3281_313699" x1="0.32972" y1="-1.70627" x2="4.53596" y2="8.96236" gradientUnits="userSpaceOnUse">
<stop stop-color="#BB5345"/>
<stop offset="1" stop-color="#951616"/>
</linearGradient>
<linearGradient id="paint18_linear_3281_313699" x1="0.32972" y1="-1.70627" x2="4.53597" y2="8.96236" gradientUnits="userSpaceOnUse">
<stop stop-color="#CD5555"/>
<stop offset="1" stop-color="#7D0000"/>
</linearGradient>
<linearGradient id="paint19_linear_3281_313699" x1="39.1409" y1="129.166" x2="97.7851" y2="122.589" gradientUnits="userSpaceOnUse">
<stop stop-color="#FFC2C2"/>
<stop offset="0.298333" stop-color="#FC504B"/>
<stop offset="0.404612" stop-color="#FC3A3A"/>
<stop offset="0.557836" stop-color="#D62E2E"/>
<stop offset="0.712573" stop-color="#820000"/>
<stop offset="0.823733" stop-color="#532003"/>
</linearGradient>
<linearGradient id="paint20_linear_3281_313699" x1="55.5621" y1="99.76" x2="52.5593" y2="118.719" gradientUnits="userSpaceOnUse">
<stop stop-color="#F75C55"/>
<stop offset="0.673325" stop-color="#FD605B"/>
<stop offset="1" stop-color="#FF7373"/>
</linearGradient>
<linearGradient id="paint21_linear_3281_313699" x1="3.68899" y1="2.27337" x2="0.37742" y2="2.40691" gradientUnits="userSpaceOnUse">
<stop stop-color="#B16165"/>
<stop offset="0.897633" stop-color="#FFF4F5"/>
</linearGradient>
<linearGradient id="paint22_linear_3281_313699" x1="3.68897" y1="2.27337" x2="0.377418" y2="2.4069" gradientUnits="userSpaceOnUse">
<stop stop-color="#EA8E93"/>
<stop offset="1" stop-color="#EFA2A6"/>
</linearGradient>
<linearGradient id="paint23_linear_3281_313699" x1="63.5791" y1="131.081" x2="60.2675" y2="131.214" gradientUnits="userSpaceOnUse">
<stop stop-color="#EA8E93"/>
<stop offset="1" stop-color="#EFA2A6"/>
</linearGradient>
<linearGradient id="paint24_linear_3281_313699" x1="69.9414" y1="135.471" x2="66.6298" y2="135.604" gradientUnits="userSpaceOnUse">
<stop stop-color="#EA8E93"/>
<stop offset="1" stop-color="#EFA2A6"/>
</linearGradient>
<linearGradient id="paint25_linear_3281_313699" x1="3.68899" y1="2.27337" x2="0.37742" y2="2.40691" gradientUnits="userSpaceOnUse">
<stop stop-color="#B16165"/>
<stop offset="0.897633" stop-color="#FFF4F5"/>
</linearGradient>
<linearGradient id="paint26_linear_3281_313699" x1="3.68899" y1="2.27337" x2="0.37742" y2="2.40691" gradientUnits="userSpaceOnUse">
<stop stop-color="#B16165"/>
<stop offset="0.897633" stop-color="#FFF4F5"/>
</linearGradient>
<clipPath id="clip0_3281_313699">
<path d="M0 22C0 9.84973 9.84974 0 22 0H167C179.15 0 189 9.84974 189 22V167C189 179.15 179.15 189 167 189H22C9.84973 189 0 179.15 0 167V22Z" fill="white"/>
</clipPath>
</defs>
</svg>
