<svg width="16" height="16" viewBox="0 0 16 16" fill="none" xmlns="http://www.w3.org/2000/svg">
<path fill-rule="evenodd" clip-rule="evenodd" d="M8 15C11.866 15 15 11.866 15 8C15 4.13401 11.866 1 8 1C4.13401 1 1 4.13401 1 8C1 11.866 4.13401 15 8 15ZM4.67091 4.91145C4.67294 4.91145 4.67498 4.91145 4.67702 4.91145C4.65473 4.93859 4.65875 4.93185 4.67091 4.91145ZM4.73027 4.9112C4.71254 4.91137 4.69479 4.91145 4.67702 4.91145C4.68803 4.89804 4.70546 4.87637 4.73151 4.84399C4.73106 4.86625 4.73065 4.88866 4.73027 4.9112ZM4.73027 4.9112C4.85275 4.91003 4.97424 4.90504 5.09574 4.90005C5.23684 4.89425 5.37794 4.88845 5.52057 4.88865C5.6632 4.88884 5.8043 4.88304 5.9454 4.87725C6.08651 4.87145 6.22761 4.86565 6.37024 4.86585C6.44914 4.87031 6.46731 4.83984 6.47327 4.76141C6.46995 4.54463 6.46814 4.33385 6.46634 4.12306C6.46454 3.91227 6.46274 3.70149 6.45941 3.48471C6.46537 3.40628 6.48354 3.37581 6.56245 3.38027C6.82343 3.38717 7.05405 3.37659 7.30894 3.35951C7.38784 3.36397 7.39395 3.38795 7.38188 3.4424C7.38216 3.64719 7.38396 3.85798 7.38576 4.06876C7.38756 4.27955 7.38937 4.49034 7.38964 4.69513C7.39574 4.71911 7.40185 4.74308 7.38978 4.79753C7.49295 4.79549 7.60219 4.79183 7.71143 4.78817C7.82068 4.7845 7.92992 4.78084 8.0331 4.7788C8.04927 4.77447 8.06003 4.74882 8.07079 4.72318C8.07616 4.71036 8.08154 4.69753 8.0876 4.68737C8.08108 4.35621 8.08066 4.04902 8.09842 3.71135L8.098 3.40416C8.0858 3.35622 8.10396 3.32574 8.1586 3.33671C8.30715 3.34063 8.45372 3.33679 8.60504 3.33282C8.71958 3.32982 8.83684 3.32675 8.95973 3.32691C8.97187 3.32366 8.97946 3.32803 8.98705 3.3324C8.99464 3.33677 9.00224 3.34113 9.01437 3.33788C9.02089 3.66899 9.0213 3.97614 9.02172 4.28328L9.02172 4.28343C9.02796 4.4098 9.0342 4.53617 9.01617 4.66904C9.0102 4.74746 9.04058 4.76493 9.11948 4.7694L10.0119 4.91442C10.2912 4.99323 10.5584 5.12649 10.7893 5.32071C11.0992 5.62179 11.2211 5.99886 11.2217 6.40845C11.216 6.69167 11.1799 6.95741 11.0346 7.20122C10.9256 7.38408 10.7558 7.532 10.58 7.65594C10.5699 7.65863 10.5609 7.66544 10.5504 7.67341C10.5355 7.68469 10.5175 7.6983 10.489 7.70592C10.5467 7.72888 10.6029 7.74584 10.659 7.7628C10.7152 7.77976 10.7714 7.79672 10.8291 7.81968C11.1752 7.95741 11.4365 8.16909 11.619 8.47871C11.7346 8.72942 11.7836 9.0236 11.7779 9.30682C11.7662 9.66846 11.7181 9.98865 11.5668 10.3109C11.3792 10.6941 11.0821 10.9529 10.706 11.1049C10.2147 11.3134 9.71715 11.3955 9.21348 11.4536C9.13457 11.4492 9.09213 11.4861 9.08617 11.5646C9.08645 11.7694 9.08825 11.9802 9.09005 12.191C9.09185 12.4018 9.09366 12.6125 9.09393 12.8173C9.09394 12.8217 9.09396 12.826 9.09397 12.8301C9.09434 12.9217 9.09442 12.943 8.96663 12.9282C8.85132 12.9335 8.72842 12.9344 8.60552 12.9354C8.48261 12.9363 8.35971 12.9372 8.2444 12.9425C8.1655 12.938 8.1594 12.9141 8.17146 12.8596C8.16481 12.426 8.15815 11.9925 8.18187 11.5764C8.17846 11.563 8.17742 11.551 8.1765 11.5404C8.17413 11.5129 8.17257 11.4949 8.13319 11.487C7.92684 11.4911 7.72049 11.4952 7.48988 11.5057C7.49307 11.6201 7.49019 11.7361 7.48731 11.8521C7.48443 11.9681 7.48155 12.0842 7.48474 12.1985C7.48793 12.3129 7.48505 12.4289 7.48218 12.5449C7.4793 12.6609 7.47642 12.777 7.47961 12.8913C7.47817 12.8978 7.477 12.9039 7.4759 12.9095C7.46779 12.9511 7.46426 12.9692 7.39474 12.9653C7.13376 12.9584 6.87889 12.9755 6.62401 12.9926L6.62398 12.9926C6.54507 12.9881 6.53897 12.9641 6.55104 12.9097L6.55104 12.9097C6.54438 12.4761 6.53773 12.0425 6.56144 11.6265C6.55892 11.6165 6.56055 11.6055 6.56247 11.5925C6.56518 11.5742 6.56845 11.5522 6.56131 11.5241C5.96653 11.5298 5.37175 11.5355 4.7527 11.5477C4.76476 11.4933 4.77229 11.4464 4.77981 11.3996C4.78733 11.3528 4.79486 11.306 4.80692 11.2515C4.84908 11.0097 4.89124 10.768 4.91523 10.5567C4.92119 10.4782 4.94546 10.4717 5.01827 10.4522C5.20035 10.4547 5.4067 10.4506 5.58268 10.429C5.78903 10.425 5.91023 10.2901 5.89179 10.1157L5.89179 10.1157C5.89609 8.80851 5.90039 7.50135 5.87433 6.17671C5.87405 5.97192 5.6978 5.78867 5.46108 5.77528C5.27079 5.76451 5.08444 5.76923 4.91148 5.77361C4.86927 5.77468 4.82787 5.77573 4.78739 5.77653C4.73885 5.78954 4.70848 5.77206 4.72055 5.71761C4.72339 5.57601 4.72471 5.4284 4.72603 5.2808C4.72714 5.1564 4.72825 5.03201 4.73027 4.9112ZM7.47033 10.5122C7.47033 10.5122 7.43996 10.4948 7.41569 10.5013C7.41808 10.3354 7.4171 10.1751 7.41614 10.0176C7.41487 9.80889 7.41363 9.60494 7.42027 9.39888C7.41403 9.27251 7.41538 9.15051 7.41674 9.0285C7.41809 8.9065 7.41944 8.7845 7.4132 8.65813C7.41373 8.65118 7.41416 8.64467 7.41457 8.63856C7.41875 8.57568 7.42005 8.55613 7.49197 8.5602C7.50694 8.55919 7.52194 8.55819 7.53695 8.55718C8.03308 8.52379 8.5504 8.48898 9.03362 8.60806C9.25828 8.67591 9.48293 8.74376 9.65309 8.90303C10.0177 9.21508 9.97606 9.86644 9.55157 10.1338C9.30903 10.3013 9.04208 10.3728 8.74476 10.4268C8.39166 10.4999 8.02121 10.5047 7.66625 10.5093C7.60034 10.5101 7.53496 10.511 7.47033 10.5122ZM9.0866 7.39027C8.99563 7.44026 8.88039 7.49674 8.83186 7.50975C8.55021 7.58521 8.29724 7.61258 8.03596 7.64084C7.93702 7.65154 7.83688 7.66238 7.73355 7.676C7.68196 7.67702 7.63644 7.67641 7.59092 7.6758C7.5454 7.67519 7.49988 7.67459 7.44829 7.67561C7.39365 7.66464 7.36328 7.64717 7.37535 7.59272C7.39282 7.05026 7.39213 6.53827 7.38534 6.00232C7.3913 5.92389 7.40947 5.89342 7.48837 5.89788C7.56549 5.89756 7.64142 5.89654 7.71652 5.89554C8.01971 5.89148 8.30959 5.8876 8.61123 5.92992C8.85405 5.96729 9.10907 6.05261 9.28533 6.23586C9.63174 6.57838 9.52329 7.17083 9.0866 7.39027Z" fill="#FFC700"/>
</svg>
