<svg width="30" height="31" viewBox="0 0 30 31" fill="none" xmlns="http://www.w3.org/2000/svg">
<path d="M15.0003 1.00004C18.0251 1.0001 20.9792 1.91463 23.4749 3.62362C25.9707 5.33262 27.8914 7.75622 28.9851 10.5764C30.0788 13.3965 30.2944 16.4814 29.6035 19.4263C28.9126 22.3711 27.3475 25.0383 25.1136 27.0777C22.8798 29.1171 20.0816 30.4336 17.0862 30.8543C14.0908 31.2749 11.0381 30.7802 8.32896 29.435C5.61976 28.0897 3.38056 25.9568 1.90523 23.3162C0.429896 20.6756 -0.212641 17.6507 0.0619434 14.6384C0.0816417 14.4204 0.144084 14.2084 0.245706 14.0145C0.347328 13.8207 0.486138 13.6487 0.654212 13.5085C0.822286 13.3683 1.01633 13.2626 1.22527 13.1973C1.43421 13.1321 1.65395 13.1087 1.87194 13.1284C2.08994 13.1481 2.30192 13.2105 2.49578 13.3121C2.68964 13.4138 2.86159 13.5526 3.00181 13.7206C3.14202 13.8887 3.24776 14.0828 3.31299 14.2917C3.37821 14.5006 3.40164 14.7204 3.38194 14.9384C3.22169 16.6428 3.44058 18.3617 4.02294 19.9716C4.60529 21.5815 5.53667 23.0425 6.75028 24.25C7.37528 24.875 8.07028 25.4284 8.82028 25.8967C10.6778 27.0563 12.8242 27.6698 15.0139 27.6669C17.2037 27.664 19.3485 27.0448 21.2029 25.8803C23.0573 24.7158 24.5466 23.0528 25.5004 21.0817C26.4541 19.1106 26.8339 16.9108 26.5962 14.7339C26.3586 12.5571 25.5131 10.4911 24.1564 8.77223C22.7998 7.05334 20.9867 5.75095 18.9247 5.01403C16.8627 4.2771 14.6348 4.13538 12.496 4.60507C10.3572 5.07477 8.3938 6.13691 6.83028 7.67004L9.16361 7.67171C9.59084 7.66879 10.0029 7.83005 10.3146 8.12218C10.6264 8.41432 10.814 8.81502 10.8389 9.24154C10.8637 9.66806 10.7237 10.0878 10.448 10.4141C10.1722 10.7404 9.78163 10.9484 9.35694 10.995L9.16361 11.005H2.49361C2.08539 11.005 1.69138 10.8551 1.38632 10.5838C1.08127 10.3126 0.886372 9.93879 0.83861 9.53337L0.826944 9.33837V2.67171C0.824025 2.24448 0.985284 1.83244 1.27742 1.52069C1.56956 1.20894 1.97026 1.02128 2.39678 0.996468C2.8233 0.971655 3.24306 1.11158 3.56937 1.38736C3.89569 1.66313 4.10364 2.05369 4.15028 2.47838L4.16028 2.67338V5.63004C5.55982 4.16496 7.24217 2.9992 9.10545 2.20335C10.9687 1.40751 12.9742 0.998138 15.0003 1.00004V1.00004ZM13.7503 7.66671C14.0523 7.66672 14.3442 7.77611 14.5718 7.97465C14.7995 8.17319 14.9475 8.44745 14.9886 8.74671L15.0003 8.91671V16H18.7503C19.067 16.0001 19.3718 16.1204 19.6033 16.3367C19.8347 16.5529 19.9754 16.8489 19.997 17.1648C20.0186 17.4808 19.9194 17.7932 19.7196 18.0389C19.5197 18.2846 19.234 18.4452 18.9203 18.4884L18.7503 18.5H13.7503C13.4482 18.5 13.1564 18.3906 12.9287 18.1921C12.7011 17.9936 12.553 17.7193 12.5119 17.42L12.5003 17.25V8.91671C12.5003 8.58519 12.632 8.26724 12.8664 8.03282C13.1008 7.7984 13.4188 7.66671 13.7503 7.66671V7.66671Z" fill="white"/>
</svg>
