<svg width="34" height="33" viewBox="0 0 34 33" fill="none" xmlns="http://www.w3.org/2000/svg">
<path d="M32.4718 11.793L22.5539 10.3516L18.1203 1.3633C17.9992 1.1172 17.7999 0.917983 17.5539 0.796889C16.9367 0.492202 16.1867 0.746108 15.8781 1.3633L11.4445 10.3516L1.5265 11.793C1.25306 11.832 1.00306 11.9609 0.811658 12.1563C0.580258 12.3941 0.452746 12.7141 0.457141 13.0459C0.461536 13.3777 0.597478 13.6942 0.835095 13.9258L8.01088 20.9219L6.31557 30.8008C6.27581 31.0306 6.30124 31.2669 6.38897 31.483C6.4767 31.6991 6.62323 31.8863 6.81193 32.0234C7.00063 32.1604 7.22395 32.2418 7.45658 32.2584C7.68921 32.275 7.92183 32.2261 8.12807 32.1172L16.9992 27.4531L25.8703 32.1172C26.1124 32.2461 26.3937 32.2891 26.6632 32.2422C27.3429 32.125 27.7999 31.4805 27.6828 30.8008L25.9874 20.9219L33.1632 13.9258C33.3585 13.7344 33.4874 13.4844 33.5265 13.2109C33.632 12.5274 33.1554 11.8945 32.4718 11.793Z" fill="white"/>
</svg>
