<svg width="16" height="16" viewBox="0 0 16 16" fill="none" xmlns="http://www.w3.org/2000/svg">
<g clip-path="url(#clip0_2803_45944)">
<path d="M4.94154e-09 7C2.2124e-09 6.44772 0.447715 6 1 6L6 6C6.55228 6 7 6.44772 7 7L7 9L1.48246e-08 9L4.94154e-09 7Z" fill="#4CAE1E"/>
<path d="M9 7C9 6.44772 9.44772 6 10 6L15 6C15.5523 6 16 6.44772 16 7L16 9L9 9L9 7Z" fill="#4CAE1E"/>
<path d="M6 7C6 6.44772 6.44772 6 7 6L9 6C9.55228 6 10 6.44772 10 7L10 9L6 9L6 7Z" fill="#4CAE1E"/>
<path d="M-4.94154e-09 15C-2.2124e-09 15.5523 0.447715 16 1 16L7 16L7 11L-2.47077e-08 11L-4.94154e-09 15Z" fill="#4CAE1E"/>
<path d="M16 15C16 15.5523 15.5523 16 15 16L9 16L9 11L16 11L16 15Z" fill="#4CAE1E"/>
<path fill-rule="evenodd" clip-rule="evenodd" d="M10.5 2C9.67157 2 9 2.67157 9 3.5C9 4.32843 9.67157 5 10.5 5C11.3284 5 12 4.32843 12 3.5C12 2.67157 11.3284 2 10.5 2ZM7 3.5C7 1.567 8.567 9.40591e-09 10.5 2.10087e-08C12.433 3.26115e-08 14 1.567 14 3.5C14 5.433 12.433 7 10.5 7C8.567 7 7 5.433 7 3.5Z" fill="#4CAE1E"/>
<path fill-rule="evenodd" clip-rule="evenodd" d="M5.5 2C4.67157 2 4 2.67157 4 3.5C4 4.32843 4.67157 5 5.5 5C6.32843 5 7 4.32843 7 3.5C7 2.67157 6.32843 2 5.5 2ZM2 3.5C2 1.567 3.567 9.40591e-09 5.5 2.10087e-08C7.433 3.26115e-08 9 1.567 9 3.5C9 5.433 7.433 7 5.5 7C3.567 7 2 5.433 2 3.5Z" fill="#4CAE1E"/>
</g>
<defs>
<clipPath id="clip0_2803_45944">
<rect width="16" height="16" fill="white"/>
</clipPath>
</defs>
</svg>
