<svg width="34" height="36" viewBox="0 0 34 36" fill="none" xmlns="http://www.w3.org/2000/svg">
<path d="M17.0192 13.2578C15.8512 13.2578 14.7575 13.7109 13.9293 14.5391C13.1051 15.3672 12.6481 16.4609 12.6481 17.6289C12.6481 18.7969 13.1051 19.8906 13.9293 20.7188C14.7575 21.543 15.8512 22 17.0192 22C18.1871 22 19.2809 21.543 20.109 20.7188C20.9332 19.8906 21.3903 18.7969 21.3903 17.6289C21.3903 16.4609 20.9332 15.3672 20.109 14.5391C19.7045 14.1315 19.2231 13.8083 18.6927 13.5884C18.1623 13.3684 17.5934 13.2561 17.0192 13.2578ZM33.1246 22.457L30.57 20.2734C30.6911 19.5312 30.7536 18.7734 30.7536 18.0195C30.7536 17.2656 30.6911 16.5039 30.57 15.7656L33.1246 13.582C33.3176 13.4168 33.4558 13.1968 33.5206 12.9512C33.5855 12.7056 33.5741 12.446 33.4879 12.207L33.4528 12.1055C32.7497 10.1394 31.6962 8.31701 30.3434 6.72656L30.2731 6.64453C30.1088 6.45138 29.8899 6.31253 29.6451 6.24628C29.4003 6.18003 29.1413 6.1895 28.902 6.27344L25.7301 7.40234C24.5582 6.44141 23.2536 5.68359 21.8395 5.15625L21.2262 1.83984C21.1799 1.59001 21.0587 1.36017 20.8787 1.18085C20.6987 1.00154 20.4684 0.881237 20.2184 0.835938L20.1129 0.816406C18.0817 0.449219 15.9411 0.449219 13.9098 0.816406L13.8043 0.835938C13.5543 0.881237 13.324 1.00154 13.144 1.18085C12.964 1.36017 12.8428 1.59001 12.7965 1.83984L12.1793 5.17188C10.7787 5.70342 9.47385 6.4594 8.31606 7.41016L5.12075 6.27344C4.88155 6.18884 4.62227 6.17903 4.37737 6.24531C4.13246 6.3116 3.91353 6.45084 3.74965 6.64453L3.67934 6.72656C2.32892 8.31871 1.27571 10.1407 0.569965 12.1055L0.534809 12.207C0.359028 12.6953 0.503559 13.2422 0.89809 13.582L3.48403 15.7891C3.36293 16.5234 3.30434 17.2734 3.30434 18.0156C3.30434 18.7656 3.36293 19.5156 3.48403 20.2422L0.905903 22.4492C0.712917 22.6144 0.574795 22.8345 0.509903 23.0801C0.44501 23.3257 0.456422 23.5852 0.542621 23.8242L0.577778 23.9258C1.28481 25.8906 2.32778 27.707 3.68715 29.3047L3.75746 29.3867C3.92174 29.5799 4.14068 29.7187 4.38544 29.785C4.6302 29.8512 4.88929 29.8417 5.12856 29.7578L8.32387 28.6211C9.48793 29.5781 10.7848 30.3359 12.1872 30.8594L12.8043 34.1914C12.8506 34.4412 12.9718 34.6711 13.1518 34.8504C13.3318 35.0297 13.5621 35.15 13.8122 35.1953L13.9176 35.2148C15.9689 35.584 18.0695 35.584 20.1207 35.2148L20.2262 35.1953C20.4762 35.15 20.7065 35.0297 20.8865 34.8504C21.0666 34.6711 21.1878 34.4412 21.234 34.1914L21.8473 30.875C23.2614 30.3438 24.5661 29.5898 25.7379 28.6289L28.9098 29.7578C29.149 29.8424 29.4083 29.8522 29.6532 29.7859C29.8981 29.7197 30.117 29.5804 30.2809 29.3867L30.3512 29.3047C31.7106 27.6992 32.7536 25.8906 33.4606 23.9258L33.4957 23.8242C33.6637 23.3398 33.5192 22.7969 33.1246 22.457ZM17.0192 24.4961C13.2262 24.4961 10.152 21.4219 10.152 17.6289C10.152 13.8359 13.2262 10.7617 17.0192 10.7617C20.8121 10.7617 23.8864 13.8359 23.8864 17.6289C23.8864 21.4219 20.8121 24.4961 17.0192 24.4961Z" fill="white"/>
</svg>
