<svg width="16" height="16" viewBox="0 0 16 16" fill="none" xmlns="http://www.w3.org/2000/svg">
<g clip-path="url(#clip0_2803_45957)">
<path d="M8.8 1C7.31479 1 5.89041 1.57361 4.8402 2.59464C3.79 3.61567 3.2 5.00049 3.2 6.44444C3.2 7.8884 3.79 9.27322 4.8402 10.2942C5.89041 11.3153 7.31479 11.8889 8.8 11.8889C9.86087 11.8889 10.8783 11.4792 11.6284 10.7499C12.3786 10.0206 12.8 9.0314 12.8 8C12.8 6.9686 12.3786 5.97945 11.6284 5.25014C10.8783 4.52083 9.86087 4.11111 8.8 4.11111C8.16348 4.11111 7.55303 4.35694 7.10294 4.79453C6.65286 5.23211 6.4 5.82561 6.4 6.44444C6.4 7.06328 6.65286 7.65678 7.10294 8.09436C7.55303 8.53195 8.16348 8.77778 8.8 8.77778C9.01217 8.77778 9.21566 8.69583 9.36569 8.54997C9.51571 8.40411 9.6 8.20628 9.6 8C9.6 7.79372 9.51571 7.59589 9.36569 7.45003C9.21566 7.30417 9.01217 7.22222 8.8 7.22222C8.58783 7.22222 8.38434 7.14028 8.23431 6.99442C8.08429 6.84855 8 6.65072 8 6.44444C8 6.23817 8.08429 6.04033 8.23431 5.89447C8.38434 5.74861 8.58783 5.66667 8.8 5.66667C9.43652 5.66667 10.047 5.9125 10.4971 6.35008C10.9471 6.78767 11.2 7.38116 11.2 8C11.2 8.61884 10.9471 9.21233 10.4971 9.64992C10.047 10.0875 9.43652 10.3333 8.8 10.3333C7.73913 10.3333 6.72172 9.92361 5.97157 9.1943C5.22143 8.465 4.8 7.47584 4.8 6.44444C4.8 5.41305 5.22143 4.42389 5.97157 3.69458C6.72172 2.96528 7.73913 2.55556 8.8 2.55556C10.2852 2.55556 11.7096 3.12917 12.7598 4.1502C13.81 5.17123 14.4 6.55604 14.4 8C14.4 9.44396 13.81 10.8288 12.7598 11.8498C11.7096 12.8708 10.2852 13.4444 8.8 13.4444C6.89044 13.4444 5.05909 12.7069 3.70883 11.3942C2.35857 10.0814 1.6 8.30096 1.6 6.44444C1.6 6.23817 1.51571 6.04033 1.36569 5.89447C1.21566 5.74861 1.01217 5.66667 0.8 5.66667C0.587827 5.66667 0.384344 5.74861 0.234315 5.89447C0.0842855 6.04033 2.58846e-08 6.23817 2.6904e-08 6.44444C3.81167e-08 8.71352 0.927141 10.8897 2.57746 12.4941C4.22778 14.0986 6.4661 15 8.8 15C10.7096 15 12.5409 14.2625 13.8912 12.9497C15.2414 11.637 16 9.85652 16 8C16 6.14348 15.2414 4.36301 13.8912 3.05025C12.5409 1.7375 10.7096 1 8.8 1Z" fill="#F81AAC"/>
</g>
<defs>
<clipPath id="clip0_2803_45957">
<rect width="16" height="16" fill="white"/>
</clipPath>
</defs>
</svg>
