<svg width="34" height="34" viewBox="0 0 34 34" fill="none" xmlns="http://www.w3.org/2000/svg">
<path d="M17.0007 0.333374C7.81065 0.333374 0.333984 7.81004 0.333984 17V23.905C0.333984 25.6117 1.82898 27 3.66732 27H5.33398C5.77601 27 6.19993 26.8244 6.5125 26.5119C6.82506 26.1993 7.00065 25.7754 7.00065 25.3334V16.7617C7.00065 16.3197 6.82506 15.8958 6.5125 15.5832C6.19993 15.2706 5.77601 15.095 5.33398 15.095H3.82065C4.74732 8.64504 10.2973 3.66671 17.0007 3.66671C23.704 3.66671 29.254 8.64504 30.1807 15.095H28.6673C28.2253 15.095 27.8014 15.2706 27.4888 15.5832C27.1762 15.8958 27.0007 16.3197 27.0007 16.7617V27C27.0007 28.8384 25.5057 30.3334 23.6673 30.3334H20.334V28.6667H13.6673V33.6667H23.6673C27.344 33.6667 30.334 30.6767 30.334 27C32.1723 27 33.6673 25.6117 33.6673 23.905V17C33.6673 7.81004 26.1907 0.333374 17.0007 0.333374Z" fill="white"/>
</svg>
