<svg width="16" height="16" viewBox="0 0 16 16" fill="none" xmlns="http://www.w3.org/2000/svg">
<g clip-path="url(#clip0_2803_10258)">
<path d="M10.2695 0.42156C9.96475 0.14254 9.56393 -0.00821176 9.15061 0.000743579C8.7373 0.00969892 8.3434 0.17767 8.05106 0.469627L0.469926 8.04127C0.320942 8.19005 0.202761 8.36668 0.12213 8.56108C0.0415001 8.75549 4.42934e-08 8.96384 4.53332e-08 9.17427C4.6373e-08 9.38469 0.0415001 9.59305 0.12213 9.78745C0.202761 9.98185 0.320942 10.1585 0.469926 10.3073L1.53101 11.367C1.92863 11.7641 2.50042 11.6692 2.83731 11.4437C3.07974 11.2828 3.37046 11.2106 3.66011 11.2394C3.94976 11.2683 4.22049 11.3964 4.42632 11.602C4.63215 11.8075 4.7604 12.0779 4.78928 12.3672C4.81817 12.6565 4.74591 12.9469 4.58478 13.189C4.36133 13.5266 4.26508 14.0977 4.6627 14.4948L5.69972 15.5305C5.85156 15.6823 6.03237 15.8021 6.23145 15.8828C6.43052 15.9635 6.64379 16.0034 6.8586 16.0002C7.07342 15.997 7.2854 15.9507 7.48197 15.8641C7.67855 15.7776 7.8557 15.6524 8.00294 15.4962L15.5634 7.47133C15.7092 7.31685 15.8227 7.13498 15.8975 6.93631C15.9722 6.73763 16.0067 6.5261 15.9989 6.314C15.9911 6.1019 15.9412 5.89345 15.8521 5.70078C15.763 5.5081 15.6364 5.33502 15.4798 5.1916L14.4646 4.26231C14.3529 4.16252 14.2194 4.09009 14.0748 4.05075C13.9302 4.01142 13.7784 4.00627 13.6315 4.03571C13.3714 4.08149 13.125 4.21997 12.9463 4.41452C12.8344 4.53641 12.6996 4.63509 12.5495 4.70494C12.3994 4.77479 12.2371 4.81443 12.0716 4.8216C11.9062 4.82877 11.741 4.80334 11.5855 4.74675C11.4299 4.69015 11.287 4.60352 11.165 4.49177C10.9185 4.2661 10.7719 3.95189 10.7574 3.61825C10.7502 3.45306 10.7757 3.28806 10.8324 3.13269C10.889 2.97732 10.9758 2.83462 11.0876 2.71274C11.2675 2.51933 11.3833 2.26183 11.4073 1.99975C11.4241 1.85103 11.4059 1.70047 11.3542 1.56001C11.3024 1.41955 11.2186 1.29308 11.1094 1.19063L10.2695 0.42156V0.42156Z" fill="#587DFF"/>
</g>
<defs>
<clipPath id="clip0_2803_10258">
<rect width="16" height="16" fill="white"/>
</clipPath>
</defs>
</svg>
