<svg width="32" height="32" viewBox="0 0 32 32" fill="none" xmlns="http://www.w3.org/2000/svg">
<path d="M28 7.99997H3V6.99997L25 5.23997V6.99997H28V3.99997C28 1.79997 26.218 0.255973 24.042 0.565973L3.96 3.43397C1.782 3.74597 0 5.79997 0 7.99997V28C0 29.0608 0.421427 30.0783 1.17157 30.8284C1.92172 31.5786 2.93913 32 4 32H28C29.0609 32 30.0783 31.5786 30.8284 30.8284C31.5786 30.0783 32 29.0608 32 28V12C32 10.9391 31.5786 9.92169 30.8284 9.17155C30.0783 8.4214 29.0609 7.99997 28 7.99997ZM25 22.012C24.6059 22.0118 24.2157 21.9341 23.8516 21.7832C23.4876 21.6322 23.1568 21.4111 22.8783 21.1323C22.5997 20.8535 22.3787 20.5226 22.2281 20.1585C22.0774 19.7943 21.9999 19.4041 22 19.01C22.0001 18.6159 22.0779 18.2257 22.2288 17.8616C22.3798 17.4976 22.6009 17.1668 22.8797 16.8882C23.1584 16.6097 23.4893 16.3887 23.8535 16.238C24.2176 16.0873 24.6079 16.0098 25.002 16.01C25.7979 16.0102 26.5611 16.3267 27.1237 16.8897C27.6863 17.4526 28.0023 18.2161 28.002 19.012C28.0017 19.8079 27.6853 20.5711 27.1223 21.1337C26.5593 21.6963 25.7959 22.0122 25 22.012Z" fill="#AAFF55"/>
</svg>
