<svg width="24" height="36" viewBox="0 0 24 36" fill="none" xmlns="http://www.w3.org/2000/svg">
<mask id="path-1-inside-1_1477_118050" fill="white">
<path fill-rule="evenodd" clip-rule="evenodd" d="M12 36C12 36 24 18.7178 24 12.0583C24 5.39866 18.6274 0 12 0C5.37258 0 0 5.39866 0 12.0583C0 18.7178 12 36 12 36ZM12 14C13.6569 14 15 12.6569 15 11C15 9.34315 13.6569 8 12 8C10.3431 8 9 9.34315 9 11C9 12.6569 10.3431 14 12 14Z"/>
</mask>
<path fill-rule="evenodd" clip-rule="evenodd" d="M12 36C12 36 24 18.7178 24 12.0583C24 5.39866 18.6274 0 12 0C5.37258 0 0 5.39866 0 12.0583C0 18.7178 12 36 12 36ZM12 14C13.6569 14 15 12.6569 15 11C15 9.34315 13.6569 8 12 8C10.3431 8 9 9.34315 9 11C9 12.6569 10.3431 14 12 14Z" fill="#62FF00"/>
<path d="M12 36L10.3572 37.1407L12 39.5066L13.6428 37.1407L12 36ZM22 12.0583C22 13.2692 21.4124 15.2624 20.2944 17.8032C19.212 20.2629 17.7533 22.9751 16.2716 25.5202C14.7937 28.0588 13.3129 30.3971 12.2 32.1027C11.6441 32.9547 11.1814 33.6468 10.8585 34.1246C10.6971 34.3635 10.5707 34.5487 10.4852 34.6734C10.4424 34.7358 10.4099 34.783 10.3883 34.8143C10.3775 34.8299 10.3695 34.8416 10.3643 34.8491C10.3617 34.8529 10.3598 34.8556 10.3586 34.8573C10.358 34.8582 10.3576 34.8588 10.3573 34.8591C10.3572 34.8593 10.3572 34.8593 10.3571 34.8594C10.3571 34.8594 10.3572 34.8593 12 36C13.6428 37.1407 13.643 37.1405 13.6431 37.1402C13.6433 37.14 13.6435 37.1397 13.6438 37.1393C13.6443 37.1386 13.6449 37.1376 13.6458 37.1364C13.6475 37.1339 13.65 37.1304 13.6531 37.1258C13.6595 37.1167 13.6686 37.1034 13.6805 37.0861C13.7044 37.0516 13.7392 37.001 13.7843 36.9352C13.8746 36.8035 14.006 36.6109 14.1727 36.3642C14.5061 35.8709 14.9809 35.1608 15.55 34.2885C16.6871 32.5456 18.2063 30.1472 19.7284 27.5327C21.2467 24.9249 22.788 22.0678 23.9556 19.4142C25.0876 16.8415 26 14.1771 26 12.0583H22ZM12 2C17.5137 2 22 6.49409 22 12.0583H26C26 4.30324 19.7411 -2 12 -2V2ZM2 12.0583C2 6.49409 6.48627 2 12 2V-2C4.25889 -2 -2 4.30324 -2 12.0583H2ZM12 36C13.6428 34.8593 13.6429 34.8594 13.6429 34.8594C13.6428 34.8593 13.6428 34.8593 13.6427 34.8591C13.6424 34.8588 13.642 34.8582 13.6414 34.8573C13.6402 34.8556 13.6383 34.8529 13.6357 34.8491C13.6305 34.8416 13.6225 34.8299 13.6117 34.8143C13.5901 34.783 13.5576 34.7358 13.5148 34.6734C13.4293 34.5487 13.3029 34.3635 13.1415 34.1246C12.8186 33.6468 12.3559 32.9547 11.8 32.1027C10.6871 30.3971 9.20632 28.0588 7.72842 25.5202C6.24669 22.9751 4.78795 20.2629 3.70562 17.8032C2.58764 15.2624 2 13.2692 2 12.0583H-2C-2 14.1771 -1.08764 16.8415 0.0443828 19.4142C1.21205 22.0678 2.75331 24.9249 4.27158 27.5327C5.79368 30.1472 7.31287 32.5456 8.44999 34.2885C9.01912 35.1608 9.49391 35.8709 9.82726 36.3642C9.99397 36.6109 10.1254 36.8035 10.2157 36.9352C10.2608 37.001 10.2956 37.0516 10.3195 37.0861C10.3314 37.1034 10.3405 37.1167 10.3469 37.1258C10.35 37.1304 10.3525 37.1339 10.3542 37.1364C10.3551 37.1376 10.3557 37.1386 10.3562 37.1393C10.3565 37.1397 10.3567 37.14 10.3569 37.1402C10.357 37.1405 10.3572 37.1407 12 36ZM13 11C13 11.5523 12.5523 12 12 12V16C14.7614 16 17 13.7614 17 11H13ZM12 10C12.5523 10 13 10.4477 13 11H17C17 8.23858 14.7614 6 12 6V10ZM11 11C11 10.4477 11.4477 10 12 10V6C9.23858 6 7 8.23858 7 11H11ZM12 12C11.4477 12 11 11.5523 11 11H7C7 13.7614 9.23858 16 12 16V12Z" fill="url(#paint0_linear_1477_118050)" fill-opacity="0.19" mask="url(#path-1-inside-1_1477_118050)"/>
<defs>
<linearGradient id="paint0_linear_1477_118050" x1="12" y1="0" x2="12" y2="36" gradientUnits="userSpaceOnUse">
<stop/>
<stop offset="1" stop-opacity="0"/>
</linearGradient>
</defs>
</svg>
