<svg width="189" height="189" viewBox="0 0 189 189" fill="none" xmlns="http://www.w3.org/2000/svg">
<g clip-path="url(#clip0_3281_313693)">
<path d="M0 22C0 9.84973 9.84974 0 22 0H167C179.15 0 189 9.84974 189 22V167C189 179.15 179.15 189 167 189H22C9.84973 189 0 179.15 0 167V22Z" fill="url(#paint0_linear_3281_313693)"/>
<g style="mix-blend-mode:lighten">
<circle cx="161.286" cy="6.81487" r="114.036" fill="url(#paint1_radial_3281_313693)"/>
</g>
<g style="mix-blend-mode:lighten">
<ellipse cx="-14.9928" cy="130.392" rx="114.036" ry="114.036" fill="url(#paint2_radial_3281_313693)"/>
</g>
<circle cx="94.5802" cy="97.3086" r="56.3844" stroke="url(#paint3_linear_3281_313693)" stroke-width="15.4602"/>
<circle cx="94.5802" cy="97.3086" r="68.2069" stroke="url(#paint4_linear_3281_313693)" stroke-width="9.09426"/>
<g filter="url(#filter0_b_3281_313693)">
<circle r="44.5619" transform="matrix(-0.640356 0.768078 0.768078 0.640356 94.3908 97.3207)" fill="white"/>
</g>
<g filter="url(#filter1_i_3281_313693)">
<path d="M82.3523 51.8492H106.819L96.4206 90.2967H92.7506L82.3523 51.8492Z" fill="#7101FF"/>
<path d="M82.3523 142.725H106.819L96.4206 104.009H92.7506L82.3523 142.725Z" fill="#7101FF"/>
<path d="M49.1187 85.1626L61.352 63.9739L89.4494 92.2029L87.6144 95.3812L49.1187 85.1626Z" fill="#7101FF"/>
<path d="M127.82 130.601L140.053 109.412L101.324 99.0589L99.4893 102.237L127.82 130.601Z" fill="#7101FF"/>
<path d="M127.819 63.9739L140.052 85.1626L101.557 95.3812L99.7217 92.2029L127.819 63.9739Z" fill="#7101FF"/>
<path d="M49.1182 109.412L61.3515 130.601L89.6817 102.237L87.8467 99.0589L49.1182 109.412Z" fill="#7101FF"/>
</g>
<g filter="url(#filter2_f_3281_313693)">
<circle cx="94.5802" cy="97.3086" r="44.1071" stroke="#175208" stroke-width="0.909426"/>
</g>
<circle cx="94.5802" cy="97.3086" r="42.2883" stroke="#282B27" stroke-width="4.54713"/>
<circle opacity="0.2" cx="94.5802" cy="97.3086" r="38.6506" stroke="#FF0000" stroke-width="11.8225"/>
<g filter="url(#filter3_i_3281_313693)">
<circle cx="94.5802" cy="97.3086" r="47.7449" stroke="url(#paint5_linear_3281_313693)" stroke-width="6.36598"/>
</g>
<g filter="url(#filter4_i_3281_313693)">
<circle cx="94.5804" cy="97.3086" r="12.732" fill="#2DFFA7"/>
</g>
<circle cx="94.5804" cy="97.3086" r="10.9131" stroke="#282B27" stroke-width="3.6377"/>
<g filter="url(#filter5_i_3281_313693)">
<path d="M104.584 34.8546C104.584 40.5431 94.5803 57.2939 94.5803 57.2939C94.5803 57.2939 84.5767 40.5431 84.5767 34.8546C84.5767 29.166 89.0555 24.5546 94.5803 24.5546C100.105 24.5546 104.584 29.166 104.584 34.8546Z" fill="#3EEE00"/>
</g>
<path d="M94.5803 57.2939L93.0188 58.2265L94.5803 60.8413L96.1419 58.2265L94.5803 57.2939ZM94.5803 57.2939C96.1419 58.2265 96.142 58.2263 96.1422 58.2261L96.1426 58.2253L96.1443 58.2225L96.1503 58.2125L96.1728 58.1745L96.2589 58.0292C96.3337 57.9024 96.4429 57.7168 96.5815 57.4792C96.8585 57.004 97.2534 56.3203 97.7268 55.4827C98.6729 53.8089 99.9365 51.5136 101.202 49.0345C102.465 46.5608 103.744 43.8762 104.712 41.4297C105.649 39.0619 106.403 36.6588 106.403 34.8546C106.403 28.2119 101.159 22.7357 94.5803 22.7357C88.0013 22.7357 82.7578 28.2119 82.7578 34.8546C82.7578 36.6588 83.5116 39.0619 84.4485 41.4297C85.4164 43.8762 86.6957 46.5608 87.9585 49.0345C89.2242 51.5136 90.4878 53.8089 91.4338 55.4827C91.9073 56.3203 92.3021 57.004 92.5792 57.4792C92.7178 57.7168 92.827 57.9024 92.9018 58.0292L92.9878 58.1745L93.0104 58.2125L93.0164 58.2225L93.018 58.2253L93.0185 58.2261C93.0187 58.2263 93.0188 58.2265 94.5803 57.2939Z" stroke="black" stroke-opacity="0.35" stroke-width="3.6377"/>
<g filter="url(#filter6_i_3281_313693)">
<circle cx="94.5803" cy="32.7394" r="5.45655" fill="#FCD701"/>
</g>
<rect x="27.7859" y="27.7152" width="48.5171" height="25.6368" rx="4.54713" transform="rotate(25.8485 27.7859 27.7152)" fill="#FD7A01"/>
<rect x="26.7712" y="24.5338" width="48.5171" height="25.6368" rx="4.54713" transform="rotate(25.8485 26.7712 24.5338)" fill="#FFB800"/>
<path d="M33.9068 45.017C33.5769 45.6981 33.1386 46.1906 32.5921 46.4945C32.0505 46.8008 31.4421 46.9326 30.7671 46.8899C30.0969 46.8496 29.4042 46.6562 28.6888 46.3096C27.9783 45.9654 27.3947 45.5404 26.9378 45.0348C26.4859 44.5315 26.2074 43.9701 26.1022 43.3504C25.9971 42.7308 26.1095 42.0804 26.4394 41.3994C26.665 40.9339 26.9598 40.5625 27.3241 40.2852C27.6956 40.0054 28.1133 39.8175 28.5772 39.7216C29.0411 39.6257 29.5316 39.6184 30.0489 39.6996C30.571 39.7831 31.0967 39.9531 31.6259 40.2095C32.3413 40.5561 32.9214 40.9883 33.3662 41.5063C33.8133 42.0194 34.0906 42.5772 34.198 43.1798C34.3054 43.7823 34.2083 44.3947 33.9068 45.017ZM31.5114 43.6115C31.6538 43.3175 31.7222 43.0451 31.7167 42.7944C31.7135 42.5388 31.6449 42.3119 31.5109 42.1139C31.377 41.9159 31.185 41.7564 30.9351 41.6353C30.6901 41.5166 30.446 41.4649 30.2027 41.4801C29.9642 41.4977 29.7413 41.5833 29.5338 41.7369C29.3336 41.8879 29.1622 42.1104 29.0198 42.4044C28.8821 42.6886 28.8162 42.9622 28.8219 43.2251C28.83 43.4831 28.8998 43.7136 29.0314 43.9165C29.1703 44.1168 29.3647 44.2776 29.6146 44.3986C29.8645 44.5197 30.1062 44.5702 30.3397 44.5503C30.5805 44.5278 30.7997 44.4374 30.9974 44.2791C31.2024 44.1182 31.3737 43.8957 31.5114 43.6115ZM36.0578 40.0152C35.7872 40.5738 35.4003 40.9914 34.8973 41.268C34.4015 41.5421 33.8321 41.6685 33.1889 41.6473C32.5531 41.6236 31.8922 41.4456 31.2062 41.1133C30.5251 40.7833 29.9733 40.3738 29.5508 39.8848C29.1356 39.3932 28.8769 38.8656 28.7749 38.3019C28.6802 37.7357 28.7681 37.1734 29.0387 36.6148C29.3568 35.9582 29.7733 35.4794 30.2882 35.1783C30.808 34.8796 31.3883 34.7432 32.0291 34.7693C32.6698 34.7954 33.3283 34.9722 34.0045 35.2998C34.6904 35.6321 35.2422 36.0416 35.6598 36.5283C36.0775 37.015 36.3277 37.5537 36.4106 38.1443C36.4935 38.735 36.3759 39.3587 36.0578 40.0152ZM33.5168 38.9476C33.6402 38.6928 33.7067 38.4558 33.7161 38.2365C33.7279 38.0123 33.6816 37.8144 33.5772 37.6428C33.4751 37.4664 33.309 37.3223 33.0787 37.2108C32.8582 37.1039 32.6482 37.0627 32.4489 37.0871C32.2495 37.1116 32.0655 37.1979 31.8969 37.3461C31.7307 37.4894 31.5847 37.6909 31.4589 37.9506C31.3354 38.2054 31.2666 38.4473 31.2524 38.6764C31.2382 38.9055 31.281 39.1107 31.3807 39.2921C31.4852 39.4758 31.6502 39.6223 31.8756 39.7315C32.1059 39.8431 32.3207 39.8806 32.5199 39.844C32.724 39.8098 32.9091 39.7149 33.0752 39.5594C33.2461 39.4063 33.3934 39.2024 33.5168 38.9476ZM34.5409 47.5294C34.7119 47.1766 34.9817 46.9443 35.3504 46.8326C35.7215 46.7159 36.108 46.7549 36.5098 46.9496C36.9164 47.1466 37.1866 47.4257 37.3202 47.7869C37.461 48.1455 37.446 48.5012 37.2751 48.854C37.1041 49.2068 36.8331 49.4415 36.462 49.5582C36.0982 49.6723 35.7129 49.6308 35.3062 49.4338C34.9045 49.2392 34.6331 48.9625 34.4923 48.6039C34.3538 48.2404 34.37 47.8822 34.5409 47.5294ZM42.7644 47.0576L41.019 45.6403L44.3149 40.4854L50.5696 43.5156L49.6367 45.4412L45.4032 43.3903L44.1316 45.3969C44.2825 45.3852 44.5201 45.4005 44.8445 45.4427C45.1761 45.4824 45.5135 45.5853 45.8565 45.7515C46.3856 46.0079 46.8144 46.3154 47.1428 46.6741C47.4784 47.0303 47.7135 47.4316 47.8482 47.878C47.9852 48.3195 48.0167 48.7976 47.9428 49.3123C47.8738 49.8294 47.7004 50.3746 47.4227 50.9479C47.1995 51.4085 46.9076 51.8176 46.5468 52.1752C46.1933 52.5302 45.7791 52.8045 45.3042 52.9979C44.8366 53.1888 44.3214 53.272 43.7586 53.2474C43.1982 53.2179 42.5995 53.0488 41.9625 52.7402C41.4872 52.5099 41.0598 52.2121 40.6802 51.8467C40.3006 51.4814 39.996 51.0736 39.7664 50.6236C39.544 50.171 39.4224 49.6977 39.4016 49.2036C39.3881 48.707 39.5025 48.2149 39.7448 47.7273L42.2363 48.9344C42.1252 49.2012 42.0773 49.4563 42.0925 49.6996C42.1077 49.9429 42.1799 50.1624 42.3089 50.358C42.4453 50.5511 42.6335 50.7058 42.8736 50.8221C43.1186 50.9408 43.3457 50.9903 43.5548 50.9707C43.764 50.951 43.9567 50.878 44.1329 50.7516C44.309 50.6252 44.4701 50.4613 44.6162 50.2598C44.7646 50.0534 44.8993 49.8252 45.0204 49.5753C45.1485 49.3107 45.2343 49.0588 45.2775 48.8197C45.3257 48.5828 45.3242 48.3613 45.2729 48.1549C45.224 47.9437 45.1205 47.7514 44.9625 47.578C44.8094 47.4071 44.5981 47.2563 44.3286 47.1257C43.9709 46.9525 43.6595 46.8772 43.3943 46.9C43.1292 46.9228 42.9192 46.9754 42.7644 47.0576Z" fill="white"/>
<path d="M56.2305 49.4033L56.2817 51.8949L58.3021 50.407L60.6486 51.5437L57.033 54.1544L57.2349 58.8464L54.8683 57.6999L54.7747 55.0056L52.609 56.6053L50.2424 55.4588L54.0496 52.7091L53.864 48.2568L56.2305 49.4033Z" fill="white"/>
<rect x="105.545" y="125.918" width="48.5171" height="25.6368" rx="4.54713" transform="rotate(-6.9135 105.545 125.918)" fill="#0F994F"/>
<rect x="102.97" y="123.792" width="48.5171" height="25.6368" rx="4.54713" transform="rotate(-6.9135 102.97 123.792)" fill="#0FE270"/>
<path d="M120.101 135.768L120.356 137.876L111.86 138.906L111.495 137.256L115.313 129.051L117.47 128.79L115.592 132.909L114.053 136.501L120.101 135.768ZM118.037 128.721L119.468 140.526L116.736 140.857L115.305 129.052L118.037 128.721ZM121.948 138.925C121.901 138.536 122.002 138.195 122.252 137.901C122.501 137.602 122.847 137.426 123.29 137.372C123.739 137.318 124.117 137.406 124.425 137.638C124.737 137.863 124.917 138.17 124.964 138.559C125.011 138.949 124.91 139.293 124.661 139.592C124.417 139.884 124.071 140.058 123.622 140.112C123.179 140.166 122.801 140.08 122.489 139.855C122.175 139.624 121.995 139.314 121.948 138.925ZM133.685 126.824L133.862 128.283L130.705 139.163L127.819 139.513L131.062 129.281L125.427 129.964L125.172 127.856L133.685 126.824Z" fill="white"/>
<path d="M141.201 128.764L142.593 130.831L143.486 128.487L146.075 128.173L144.447 132.325L147.156 136.161L144.545 136.478L143.009 134.263L142.053 136.78L139.443 137.096L141.156 132.724L138.591 129.08L141.201 128.764Z" fill="white"/>
<path d="M16.469 106.734L23.0467 115.142C25.2923 118.012 29.1662 119.05 32.546 117.687L42.4463 113.695L34.0387 120.273C31.1684 122.518 30.1304 126.392 31.4934 129.772L35.4857 139.672L28.908 131.265C26.6624 128.394 22.7885 127.356 19.4086 128.719L9.50836 132.712L17.9159 126.134C20.7862 123.888 21.8242 120.015 20.4613 116.635L16.469 106.734Z" fill="white" fill-opacity="0.84"/>
<ellipse opacity="0.2" cx="25.9773" cy="123.204" rx="9.18261" ry="9.1826" transform="rotate(-30 25.9773 123.204)" fill="white"/>
<path d="M155.206 26.4568L157.346 41.6112C157.856 45.2229 160.695 48.0611 164.306 48.5712L179.461 50.7113L164.306 52.8513C160.695 53.3614 157.856 56.1997 157.346 59.8113L155.206 74.9657L153.066 59.8113C152.556 56.1996 149.718 53.3614 146.106 52.8513L130.952 50.7113L146.106 48.5712C149.718 48.0611 152.556 45.2228 153.066 41.6112L155.206 26.4568Z" fill="white" fill-opacity="0.84"/>
<circle opacity="0.2" cx="155.206" cy="50.7119" r="11.7117" fill="white"/>
<circle cx="94.5803" cy="97.3085" r="5.45655" fill="#6F01FB"/>
</g>
<defs>
<filter id="filter0_b_3281_313693" x="45.2808" y="48.2106" width="98.2202" height="98.2202" filterUnits="userSpaceOnUse" color-interpolation-filters="sRGB">
<feFlood flood-opacity="0" result="BackgroundImageFix"/>
<feGaussianBlur in="BackgroundImage" stdDeviation="2.27356"/>
<feComposite in2="SourceAlpha" operator="in" result="effect1_backgroundBlur_3281_313693"/>
<feBlend mode="normal" in="SourceGraphic" in2="effect1_backgroundBlur_3281_313693" result="shape"/>
</filter>
<filter id="filter1_i_3281_313693" x="49.1182" y="51.8492" width="90.9348" height="90.8761" filterUnits="userSpaceOnUse" color-interpolation-filters="sRGB">
<feFlood flood-opacity="0" result="BackgroundImageFix"/>
<feBlend mode="normal" in="SourceGraphic" in2="BackgroundImageFix" result="shape"/>
<feColorMatrix in="SourceAlpha" type="matrix" values="0 0 0 0 0 0 0 0 0 0 0 0 0 0 0 0 0 0 127 0" result="hardAlpha"/>
<feOffset/>
<feGaussianBlur stdDeviation="2.27356"/>
<feComposite in2="hardAlpha" operator="arithmetic" k2="-1" k3="1"/>
<feColorMatrix type="matrix" values="0 0 0 0 0 0 0 0 0 0 0 0 0 0 0 0 0 0 0.25 0"/>
<feBlend mode="normal" in2="shape" result="effect1_innerShadow_3281_313693"/>
</filter>
<filter id="filter2_f_3281_313693" x="45.4712" y="48.1996" width="98.218" height="98.218" filterUnits="userSpaceOnUse" color-interpolation-filters="sRGB">
<feFlood flood-opacity="0" result="BackgroundImageFix"/>
<feBlend mode="normal" in="SourceGraphic" in2="BackgroundImageFix" result="shape"/>
<feGaussianBlur stdDeviation="2.27356" result="effect1_foregroundBlur_3281_313693"/>
</filter>
<filter id="filter3_i_3281_313693" x="43.6523" y="46.3808" width="101.856" height="102.765" filterUnits="userSpaceOnUse" color-interpolation-filters="sRGB">
<feFlood flood-opacity="0" result="BackgroundImageFix"/>
<feBlend mode="normal" in="SourceGraphic" in2="BackgroundImageFix" result="shape"/>
<feColorMatrix in="SourceAlpha" type="matrix" values="0 0 0 0 0 0 0 0 0 0 0 0 0 0 0 0 0 0 127 0" result="hardAlpha"/>
<feOffset dy="0.909426"/>
<feGaussianBlur stdDeviation="0.909426"/>
<feComposite in2="hardAlpha" operator="arithmetic" k2="-1" k3="1"/>
<feColorMatrix type="matrix" values="0 0 0 0 0.316667 0 0 0 0 0.02375 0 0 0 0 0.02375 0 0 0 0.55 0"/>
<feBlend mode="normal" in2="shape" result="effect1_innerShadow_3281_313693"/>
</filter>
<filter id="filter4_i_3281_313693" x="81.8484" y="79.8022" width="25.4639" height="30.2384" filterUnits="userSpaceOnUse" color-interpolation-filters="sRGB">
<feFlood flood-opacity="0" result="BackgroundImageFix"/>
<feBlend mode="normal" in="SourceGraphic" in2="BackgroundImageFix" result="shape"/>
<feColorMatrix in="SourceAlpha" type="matrix" values="0 0 0 0 0 0 0 0 0 0 0 0 0 0 0 0 0 0 127 0" result="hardAlpha"/>
<feOffset dy="-4.77449"/>
<feGaussianBlur stdDeviation="3.18299"/>
<feComposite in2="hardAlpha" operator="arithmetic" k2="-1" k3="1"/>
<feColorMatrix type="matrix" values="0 0 0 0 0 0 0 0 0 0 0 0 0 0 0 0 0 0 0.25 0"/>
<feBlend mode="normal" in2="shape" result="effect1_innerShadow_3281_313693"/>
</filter>
<filter id="filter5_i_3281_313693" x="80.939" y="16.1424" width="27.2827" height="48.2463" filterUnits="userSpaceOnUse" color-interpolation-filters="sRGB">
<feFlood flood-opacity="0" result="BackgroundImageFix"/>
<feBlend mode="normal" in="SourceGraphic" in2="BackgroundImageFix" result="shape"/>
<feColorMatrix in="SourceAlpha" type="matrix" values="0 0 0 0 0 0 0 0 0 0 0 0 0 0 0 0 0 0 127 0" result="hardAlpha"/>
<feOffset dy="-4.77449"/>
<feGaussianBlur stdDeviation="3.18299"/>
<feComposite in2="hardAlpha" operator="arithmetic" k2="-1" k3="1"/>
<feColorMatrix type="matrix" values="0 0 0 0 0 0 0 0 0 0 0 0 0 0 0 0 0 0 0.25 0"/>
<feBlend mode="normal" in2="shape" result="effect1_innerShadow_3281_313693"/>
</filter>
<filter id="filter6_i_3281_313693" x="89.1238" y="22.5084" width="10.9131" height="15.6876" filterUnits="userSpaceOnUse" color-interpolation-filters="sRGB">
<feFlood flood-opacity="0" result="BackgroundImageFix"/>
<feBlend mode="normal" in="SourceGraphic" in2="BackgroundImageFix" result="shape"/>
<feColorMatrix in="SourceAlpha" type="matrix" values="0 0 0 0 0 0 0 0 0 0 0 0 0 0 0 0 0 0 127 0" result="hardAlpha"/>
<feOffset dy="-4.77449"/>
<feGaussianBlur stdDeviation="3.18299"/>
<feComposite in2="hardAlpha" operator="arithmetic" k2="-1" k3="1"/>
<feColorMatrix type="matrix" values="0 0 0 0 0 0 0 0 0 0 0 0 0 0 0 0 0 0 0.25 0"/>
<feBlend mode="normal" in2="shape" result="effect1_innerShadow_3281_313693"/>
</filter>
<linearGradient id="paint0_linear_3281_313693" x1="94.5" y1="0" x2="18.1731" y2="181.276" gradientUnits="userSpaceOnUse">
<stop stop-color="#FF2F00"/>
<stop offset="1" stop-color="#FF5C00"/>
</linearGradient>
<radialGradient id="paint1_radial_3281_313693" cx="0" cy="0" r="1" gradientUnits="userSpaceOnUse" gradientTransform="translate(161.286 6.81487) rotate(90) scale(114.036)">
<stop stop-color="#5729D9"/>
<stop offset="1" stop-color="#1D1E25" stop-opacity="0"/>
</radialGradient>
<radialGradient id="paint2_radial_3281_313693" cx="0" cy="0" r="1" gradientUnits="userSpaceOnUse" gradientTransform="translate(-14.9928 130.392) rotate(90) scale(114.036)">
<stop stop-color="#5729D9"/>
<stop offset="1" stop-color="#1D1E25" stop-opacity="0"/>
</radialGradient>
<linearGradient id="paint3_linear_3281_313693" x1="94.5802" y1="40.9242" x2="94.5802" y2="153.693" gradientUnits="userSpaceOnUse">
<stop stop-color="#010BF0" stop-opacity="0.17"/>
<stop offset="0.567708" stop-color="#F0AD01" stop-opacity="0.38"/>
<stop offset="1" stop-color="#0136F0" stop-opacity="0.31"/>
</linearGradient>
<linearGradient id="paint4_linear_3281_313693" x1="92.7614" y1="43.1977" x2="94.5802" y2="155.967" gradientUnits="userSpaceOnUse">
<stop stop-color="#FFC700" stop-opacity="0"/>
<stop offset="0.478913" stop-color="#01FFB3"/>
<stop offset="1" stop-color="#FFC700" stop-opacity="0"/>
</linearGradient>
<linearGradient id="paint5_linear_3281_313693" x1="94.5802" y1="46.3808" x2="94.5802" y2="148.236" gradientUnits="userSpaceOnUse">
<stop stop-color="#1EB91B"/>
<stop offset="0.494792" stop-color="#FFF500"/>
<stop offset="1" stop-color="#24FF00"/>
</linearGradient>
<clipPath id="clip0_3281_313693">
<path d="M0 22C0 9.84973 9.84974 0 22 0H167C179.15 0 189 9.84974 189 22V167C189 179.15 179.15 189 167 189H22C9.84973 189 0 179.15 0 167V22Z" fill="white"/>
</clipPath>
</defs>
</svg>
