<svg width="360" height="360" viewBox="0 0 360 360" fill="none" xmlns="http://www.w3.org/2000/svg">
<g clip-path="url(#clip0_1477_117999)">
<path d="M359.03 161.17C359.692 167.425 360.025 173.71 360.03 180C360.053 198.898 357.1 217.681 351.28 235.66H351.21L265.64 207.87C268.555 198.881 270.037 189.49 270.03 180.04C270.025 176.9 269.858 173.763 269.53 170.64L359.03 161.17Z" fill="#7101FF"/>
<path d="M359.03 161.17L269.5 170.6C268.229 158.045 264.287 145.907 257.94 135L335.88 90H335.95C348.559 111.838 356.423 136.088 359.03 161.17Z" fill="#D5F1F1"/>
<path d="M351.18 235.62H351.25C343.459 259.64 330.692 281.748 313.78 300.5L246.89 240.27C255.341 230.908 261.72 219.868 265.61 207.87L351.18 235.62Z" fill="#D5F1F1"/>
<path d="M335.95 89.9598H335.88L257.94 134.96C251.66 124.019 243.116 114.544 232.88 107.17L285.8 34.3398C306.241 49.1483 323.329 68.1006 335.95 89.9598Z" fill="url(#paint0_linear_1477_117999)"/>
<path d="M246.89 240.23L313.78 300.5C296.911 319.244 276.293 334.234 253.26 344.5L216.65 262.27C228.167 257.131 238.472 249.621 246.89 240.23Z" fill="#7101FF"/>
<path d="M285.8 34.3799L232.88 107.21C222.714 99.7469 211.065 94.5532 198.72 91.9799L217.44 3.91992C242.123 9.1278 265.422 19.5093 285.8 34.3799Z" fill="#D5F1F1"/>
<path d="M253.22 344.5C230.175 354.76 205.225 360.041 180 360V270C192.616 270.024 205.094 267.372 216.61 262.22L253.22 344.5Z" fill="#D5F1F1"/>
<path d="M217.44 3.89013L198.72 91.9501C192.569 90.6215 186.293 89.951 180 89.9501C173.707 89.951 167.431 90.6215 161.28 91.9501L142.56 3.89013C154.87 1.28991 167.418 -0.0138835 180 0.000111474C192.582 -0.0138835 205.13 1.28991 217.44 3.89013Z" fill="#7101FF"/>
<path d="M180 270V360C154.762 360.047 129.797 354.765 106.74 344.5L143.35 262.27C154.883 267.41 167.374 270.045 180 270Z" fill="#7101FF"/>
<path d="M142.56 3.92014L161.28 91.9801C148.935 94.5534 137.286 99.7471 127.12 107.21L74.2002 34.3801C94.5754 19.4989 117.875 9.10706 142.56 3.89014V3.92014Z" fill="#D5F1F1"/>
<path d="M143.39 262.22L106.78 344.5C83.7471 334.234 63.1283 319.244 46.2598 300.5L113.15 240.27C121.577 249.629 131.88 257.108 143.39 262.22Z" fill="#D5F1F1"/>
<path d="M74.1997 34.3799L127.12 107.21C116.884 114.584 108.34 124.059 102.06 135L24.1199 89.9999H24.0498C36.6706 68.1406 53.759 49.1883 74.1997 34.3799Z" fill="#7101FF"/>
<path d="M113.11 240.23L46.22 300.5C29.3177 281.771 16.5505 259.692 8.75 235.7H8.82007L94.3899 207.91C98.2897 219.879 104.669 230.892 113.11 240.23Z" fill="url(#paint1_linear_1477_117999)"/>
<path d="M24.1199 90L102.06 135C95.7124 145.907 91.7709 158.045 90.4998 170.6L0.969727 161.17C3.57105 136.075 11.4356 111.81 24.0498 89.96L24.1199 90Z" fill="#FFC700"/>
<path d="M94.39 207.83L8.8202 235.62H8.75014C2.92977 217.641 -0.0230653 198.858 0.000135661 179.96C0.00443024 173.67 0.338221 167.385 1.00014 161.13L90.5302 170.56C90.2022 173.683 90.0353 176.82 90.0302 179.96C90.0095 189.421 91.4808 198.827 94.39 207.83Z" fill="#D5F1F1"/>
</g>
<defs>
<linearGradient id="paint0_linear_1477_117999" x1="284.415" y1="34.3398" x2="247" y2="135" gradientUnits="userSpaceOnUse">
<stop stop-color="#7101FF"/>
<stop offset="1" stop-color="#5A00CD"/>
</linearGradient>
<linearGradient id="paint1_linear_1477_117999" x1="95" y1="224.5" x2="21.5" y2="282.5" gradientUnits="userSpaceOnUse">
<stop stop-color="#350078"/>
<stop offset="1" stop-color="#5A00CD"/>
</linearGradient>
<clipPath id="clip0_1477_117999">
<rect width="360" height="360" fill="white"/>
</clipPath>
</defs>
</svg>
