<svg width="360" height="360" viewBox="0 0 360 360" fill="none" xmlns="http://www.w3.org/2000/svg">
<path d="M359.66 168.7C359.88 172.44 360 176.21 360 180C360 183.79 359.88 187.56 359.66 191.3L180 180L359.64 168.7H359.66Z" fill="#7101FF"/>
<path d="M359.66 168.7L180 180L356.81 146.27C358.225 153.68 359.176 161.171 359.66 168.7Z" fill="#FF1F62"/>
<path d="M359.64 191.3C359.17 198.831 358.232 206.326 356.83 213.74L180 180L359.64 191.3Z" fill="#D5F1F1"/>
<path d="M356.85 146.26L180 180L351.19 124.38H351.25C353.576 131.548 355.447 138.856 356.85 146.26Z" fill="#7101FF"/>
<path d="M356.81 213.73C355.407 221.141 353.537 228.455 351.21 235.63H351.15L180 180L356.81 213.73Z" fill="#7101FF"/>
<path d="M351.25 124.36H351.19L180 180L342.87 103.36H342.93C346.14 110.179 348.919 117.193 351.25 124.36Z" fill="#FF1F62"/>
<path d="M351.19 235.62H351.25C348.919 242.787 346.14 249.801 342.93 256.62H342.87L180 180L351.19 235.62Z" fill="#D5F1F1"/>
<path d="M342.93 103.33H342.87L180 180L332 83.5498C336.057 89.9058 339.708 96.5123 342.93 103.33Z" fill="#7101FF"/>
<path d="M342.87 256.64H342.93C339.71 263.478 336.059 270.105 332 276.48L180 180L342.87 256.64Z" fill="#7101FF"/>
<path d="M332 83.5197L180 180L318.69 65.2598C323.508 71.0593 327.953 77.1581 332 83.5197Z" fill="#D5F1F1"/>
<path d="M332 276.45C327.958 282.822 323.515 288.931 318.7 294.74L180 180L332 276.45Z" fill="#D5F1F1"/>
<path d="M318.72 65.23L180 180L303.22 48.79C308.724 53.9421 313.901 59.4328 318.72 65.23Z" fill="#7101FF"/>
<path d="M318.69 294.74C313.881 300.547 308.714 306.047 303.22 311.21L180 180L318.69 294.74Z" fill="#7101FF"/>
<path d="M303.25 48.7599L180 180L285.8 34.3799C291.913 38.802 297.741 43.6048 303.25 48.7599Z" fill="#D5F1F1"/>
<path d="M303.22 311.21C297.722 316.378 291.904 321.194 285.8 325.63L180 180L303.22 311.21Z" fill="#FF1F62"/>
<path d="M285.83 34.34L180 180L266.72 22.26V22.21C273.34 25.8459 279.722 29.8974 285.83 34.34Z" fill="#7101FF"/>
<path d="M285.8 325.62C279.702 330.062 273.329 334.113 266.72 337.75V337.7L180 180L285.8 325.62Z" fill="#7101FF"/>
<path d="M266.72 337.74V337.79C260.106 341.427 253.269 344.644 246.25 347.42V347.36L180 180L266.72 337.74Z" fill="#FF1F62"/>
<path d="M266.75 22.2101V22.2601L180 180L246.26 12.6401V12.5801C253.286 15.3558 260.129 18.5722 266.75 22.2101Z" fill="#D5F1F1"/>
<path d="M246.28 12.5801V12.6401L180 180L224.76 5.6601V5.6001C232.074 7.46868 239.262 9.80002 246.28 12.5801Z" fill="#7101FF"/>
<path d="M246.26 347.36V347.42C239.245 350.206 232.061 352.544 224.75 354.42V354.36L180 180L246.26 347.36Z" fill="#7101FF"/>
<path d="M224.77 5.59991V5.65991L180 180L202.56 1.41992C210.043 2.34832 217.461 3.74438 224.77 5.59991Z" fill="#D5F1F1"/>
<path d="M224.76 354.34V354.4C217.452 356.266 210.034 357.672 202.55 358.61L180 180L224.76 354.34Z" fill="#D5F1F1"/>
<path d="M202.56 358.58C195.076 359.514 187.542 359.988 180 360V180L202.56 358.58Z" fill="#7101FF"/>
<path d="M202.56 1.39001L180 180V0C187.541 0.00193413 195.076 0.466153 202.56 1.39001Z" fill="#FFC700"/>
<path d="M180 180V360C172.459 359.998 164.924 359.534 157.44 358.61L180 180Z" fill="#D5F1F1"/>
<path d="M180 0V180L157.44 1.42001C164.924 0.486123 172.458 0.0118866 180 0Z" fill="#FF1F62"/>
<path d="M157.44 1.42014L180 180L135.24 5.66013V5.60013C142.548 3.73449 149.966 2.32841 157.45 1.39014L157.44 1.42014Z" fill="#7101FF"/>
<path d="M135.24 5.6601L180 180L113.74 12.6401V12.5801C120.755 9.79364 127.939 7.4556 135.25 5.58008L135.24 5.6601Z" fill="#D5F1F1"/>
<path d="M113.74 12.6401L180 180L93.2803 22.2601V22.2101C99.8944 18.573 106.731 15.3566 113.75 12.5801L113.74 12.6401Z" fill="#7101FF"/>
<path d="M93.2803 22.26L180 180L74.2002 34.38C80.2981 29.9385 86.6709 25.887 93.2803 22.25V22.26Z" fill="#D5F1F1"/>
<path d="M74.2002 34.3801L180 180L56.7803 48.7901C62.2783 43.6223 68.0964 38.8061 74.2002 34.3701V34.3801Z" fill="#7101FF"/>
<path d="M56.78 48.79L180 180L41.3101 65.26C46.1189 59.4534 51.2856 53.9527 56.78 48.79Z" fill="#D5F1F1"/>
<path d="M180 180L157.44 358.58C149.956 357.642 142.538 356.236 135.23 354.37V354.31L180 180Z" fill="#7101FF"/>
<path d="M180 180L135.24 354.34V354.4C127.929 352.524 120.745 350.186 113.73 347.4V347.34L180 180Z" fill="#FF1F62"/>
<path d="M180 180L113.74 347.36V347.42C106.721 344.644 99.8841 341.427 93.27 337.79V337.74L180 180Z" fill="#7101FF"/>
<path d="M180 180L93.2803 337.74V337.79C86.6709 334.153 80.2981 330.102 74.2002 325.66L180 180Z" fill="#FF1F62"/>
<path d="M180 180L74.2002 325.62C68.0964 321.184 62.2783 316.368 56.7803 311.2L180 180Z" fill="#7101FF"/>
<path d="M180 180L56.78 311.21C51.2856 306.047 46.1189 300.547 41.3101 294.74L180 180Z" fill="#D5F1F1"/>
<path d="M180 180L41.3098 294.74C36.4944 288.931 32.0521 282.822 28.0098 276.45L180 180Z" fill="#7101FF"/>
<path d="M180 180L27.9998 276.45C23.9482 270.084 20.3044 263.467 17.0898 256.64H17.1497L180 180Z" fill="#D5F1F1"/>
<path d="M180 180L17.1299 256.64H17.0701C13.8596 249.821 11.0807 242.807 8.75 235.64H8.81006L180 180Z" fill="#7101FF"/>
<path d="M180 180L8.81006 235.62H8.75C6.42311 228.445 4.55261 221.131 3.1499 213.72L180 180Z" fill="#D5F1F1"/>
<path d="M180 180L3.18994 213.73C1.78831 206.316 0.849768 198.821 0.379883 191.29L180 180Z" fill="#7101FF"/>
<path d="M180 180L0.360107 191.3C0.140107 187.56 0.0200195 183.79 0.0200195 180C0.0200195 176.21 0.140107 172.44 0.360107 168.7L180 180Z" fill="#FF1F62"/>
<path d="M180 180L0.360352 168.7C0.830237 161.169 1.76853 153.674 3.17017 146.26L180 180Z" fill="#7101FF"/>
<path d="M180 180L3.18994 146.27C4.59265 138.859 6.46315 131.545 8.79004 124.37H8.8501L180 180Z" fill="#FF1F62"/>
<path d="M180 180L8.81006 124.38H8.75C11.0807 117.213 13.8596 110.199 17.0701 103.38H17.1299L180 180Z" fill="#7101FF"/>
<path d="M180 180L17.1301 103.36H17.0703C20.2902 96.5221 23.9408 89.8954 28.0002 83.52L180 180Z" fill="#D5F1F1"/>
<path d="M180 180L28 83.5497C32.0424 77.1782 36.4847 71.0693 41.3 65.2598L180 180Z" fill="#7101FF"/>
<circle cx="180" cy="180" r="91" fill="#1D1E25"/>
</svg>
