<svg width="28" height="28" viewBox="0 0 28 28" fill="none" xmlns="http://www.w3.org/2000/svg">
<g clip-path="url(#clip0_1306_30497)">
<path d="M14 25.7297C20.4782 25.7297 25.7297 20.4781 25.7297 14C25.7297 7.52184 20.4782 2.27026 14 2.27026C7.52185 2.27026 2.27027 7.52184 2.27027 14C2.27027 20.4781 7.52185 25.7297 14 25.7297Z" fill="#4CAE1E"/>
<path d="M14 24.9208C20.0314 24.9208 24.9208 20.0314 24.9208 14C24.9208 7.96863 20.0314 3.07922 14 3.07922C7.96859 3.07922 3.07919 7.96863 3.07919 14C3.07919 20.0314 7.96859 24.9208 14 24.9208Z" fill="#258E23"/>
<path d="M14 13.9999L5.24392 8.94401C6.13148 7.40847 7.4086 6.1314 8.9441 5.24384L14 13.9999Z" fill="#F43535"/>
<path d="M14 3.88812V14L8.94403 5.24387C10.4308 4.37876 12.1574 3.88812 14 3.88812Z" fill="#AAFF55"/>
<path d="M19.0559 5.24387L14 14V3.88812C15.8426 3.88812 17.5691 4.37876 19.0559 5.24387Z" fill="#F43535"/>
<path d="M22.7561 8.94401L14 13.9999L19.0559 5.24384C20.5914 6.1314 21.8685 7.40847 22.7561 8.94401Z" fill="#AAFF55"/>
<path d="M24.1119 14H14L22.7561 8.94403C23.6212 10.4308 24.1119 12.1573 24.1119 14Z" fill="#F43535"/>
<path d="M24.1119 14C24.1119 15.8426 23.6212 17.5691 22.7561 19.0559L14 14H24.1119Z" fill="#AAFF55"/>
<path d="M22.7561 19.0559C21.8685 20.5914 20.5914 21.8685 19.0559 22.7561L14 14L22.7561 19.0559Z" fill="#F43535"/>
<path d="M19.0559 22.7561C17.5691 23.6212 15.8426 24.1119 14 24.1119V14L19.0559 22.7561Z" fill="#AAFF55"/>
<path d="M14 14V24.1119C12.1574 24.1119 10.4308 23.6212 8.94403 22.7561L14 14Z" fill="#F43535"/>
<path d="M14 14L8.9441 22.7561C7.4086 21.8685 6.13148 20.5914 5.24392 19.0559L14 14Z" fill="#AAFF55"/>
<path d="M14 14L5.2439 19.0559C4.37879 17.5691 3.88815 15.8426 3.88815 14H14Z" fill="#F43535"/>
<path d="M14 14H3.88815C3.88815 12.1573 4.37879 10.4308 5.2439 8.94403L14 14Z" fill="#AAFF55"/>
<path d="M14 15.8201C15.0052 15.8201 15.8201 15.0052 15.8201 14C15.8201 12.9948 15.0052 12.1799 14 12.1799C12.9948 12.1799 12.1799 12.9948 12.1799 14C12.1799 15.0052 12.9948 15.8201 14 15.8201Z" fill="#EFF2FA"/>
<path d="M14 14.809C14.4468 14.809 14.809 14.4468 14.809 14C14.809 13.5533 14.4468 13.1911 14 13.1911C13.5533 13.1911 13.1911 13.5533 13.1911 14C13.1911 14.4468 13.5533 14.809 14 14.809Z" fill="white"/>
<path d="M12.6605 0.530239C11.9497 1.24104 11.9497 2.39348 12.6605 3.10428C13.3713 3.81508 14.5238 3.81508 15.2346 3.10428C15.9454 2.39348 15.9454 1.24104 15.2346 0.530239C14.5238 -0.180563 13.3713 -0.180563 12.6605 0.530239Z" fill="#EFF2FA"/>
<path d="M12.7341 2.71389L13.9475 5.94965L15.1609 2.71389L14.3519 3.02204L14.1252 0.831042C14.1252 1.0105 14.2491 0.719945 14.1252 0.831042C14.4603 0.831074 14.1252 0.49597 14.1252 0.831042C14.1252 0.495938 13.7901 0.83101 14.1252 0.831042C14.0013 0.719978 14.1252 1.01053 14.1252 0.831042L13.543 3.02204L12.7341 2.71389Z" fill="white"/>
<path d="M13.3755 1.24525C13.0596 1.56116 13.0596 2.07336 13.3755 2.38927C13.6914 2.70518 14.2036 2.70518 14.5195 2.38927C14.8354 2.07336 14.8354 1.56116 14.5195 1.24525C14.2036 0.929343 13.6914 0.929343 13.3755 1.24525Z" fill="#D7DEED"/>
</g>
<defs>
<clipPath id="clip0_1306_30497">
<rect width="28" height="28" fill="white"/>
</clipPath>
</defs>
</svg>
