<svg width="48" height="48" viewBox="0 0 48 48" fill="none" xmlns="http://www.w3.org/2000/svg">
<path d="M40.125 12.2202V14.8396C40.125 14.9333 40.0599 15.0145 39.9684 15.0348L30.0269 17.244C30.0091 17.248 29.9907 17.2495 29.9725 17.2485L23.334 16.8797C23.2803 16.8767 23.23 16.8522 23.1946 16.8117L20.8818 14.1685C20.7745 14.0458 20.851 13.8533 21.0131 13.8377L39.9059 12.0211C40.0233 12.0098 40.125 12.1021 40.125 12.2202Z" fill="#450AA4"/>
<path d="M30.0203 30.0034L48 33L42.4061 34.4917C42.3855 34.4972 42.3641 34.4994 42.3428 34.4981L23.3336 33.3799C23.2801 33.3768 23.2301 33.3523 23.1948 33.312L20.9005 30.6898C20.7898 30.5633 20.875 30.365 21.043 30.3583L29.9794 30.0008C29.9931 30.0003 30.0068 30.0011 30.0203 30.0034Z" fill="#9757FF"/>
<path d="M23.25 32.25L0 28.8V19.2167L23.25 15V32.25Z" fill="#FCF42F"/>
<path d="M23.25 32.25L21.375 18.375L-0.75 20.25L23.25 15V32.25Z" fill="#FFFBA4"/>
<path d="M42 48L1.44166 36.2086C0.587499 35.9603 0 35.1776 0 34.2881V26.25L42 34.5V48Z" fill="#7724FF"/>
<path d="M23.25 30.75L30 30V17.25L23.25 16.5V30.75Z" fill="#EA9F00"/>
<path d="M33.75 15L0 20.25V12.3631C0 11.4798 0.579333 10.7012 1.4253 10.4474L33.75 0.75V15Z" fill="#9D61FF"/>
<path opacity="0.44" d="M33.75 15L0 20.25V13.5C0 13.5 0.375 18 2.625 18.375C4.875 18.75 33.75 15 33.75 15Z" fill="#440AA4"/>
<path d="M33.75 15C33.75 15 33 4.875 31.5 3.75C30 2.625 0 10.875 0 10.875L33.75 0.75V15Z" fill="#C099FF"/>
<path d="M33.75 15H40.5V6.64762C40.5 6.00541 40.1916 5.40227 39.671 5.02626L33.75 0.75V15Z" fill="#7723FF"/>
<path d="M42 48L46.4851 46.8787C47.3754 46.6561 48 45.8562 48 44.9384V33L42 34.5V48Z" fill="#6201FF"/>
<path d="M23.25 29.25L0 26.25L23.25 31.125L42 34.5L23.625 30.75L23.25 29.25Z" fill="#FFFBA4"/>
<path d="M41.9255 27.6004L42.6061 33.4575L48.4225 34.4254L42.5655 35.106L41.5976 40.9224L40.917 35.0654L35.1005 34.0975L40.9576 33.4169L41.9255 27.6004Z" fill="white" fill-opacity="0.84"/>
<path opacity="0.2" d="M44.9779 34.3406C44.9342 36.117 43.4587 37.5216 41.6824 37.4779C39.906 37.4342 38.5014 35.9587 38.5451 34.1823C38.5889 32.406 40.0643 31.0014 41.8407 31.0451C43.617 31.0888 45.0216 32.5643 44.9779 34.3406Z" fill="white"/>
</svg>
