<svg width="84" height="84" viewBox="0 0 84 84" fill="none" xmlns="http://www.w3.org/2000/svg">
<circle opacity="0.4" cx="42" cy="42" r="42" fill="url(#paint0_radial_924_8361)"/>
<g clip-path="url(#clip0_924_8361)">
<path d="M58.125 30.2202V32.8396C58.125 32.9333 58.0599 33.0145 57.9684 33.0348L48.0269 35.244C48.0091 35.248 47.9907 35.2495 47.9725 35.2485L41.334 34.8797C41.2803 34.8767 41.23 34.8522 41.1946 34.8117L38.8818 32.1685C38.7745 32.0458 38.851 31.8533 39.0131 31.8377L57.9059 30.0211C58.0233 30.0098 58.125 30.1021 58.125 30.2202Z" fill="#450AA4"/>
<path d="M48.0203 48.0034L66 51L60.4061 52.4917C60.3855 52.4972 60.3641 52.4994 60.3428 52.4981L41.3336 51.3799C41.2801 51.3768 41.2301 51.3523 41.1948 51.312L38.9005 48.6898C38.7898 48.5633 38.875 48.365 39.043 48.3583L47.9794 48.0008C47.9931 48.0003 48.0068 48.0011 48.0203 48.0034Z" fill="#9757FF"/>
<path d="M41.25 50.25L18 46.8V37.2167L41.25 33V50.25Z" fill="#FCF42F"/>
<path d="M41.25 50.25L39.375 36.375L17.25 38.25L41.25 33V50.25Z" fill="#FFFBA4"/>
<path d="M60 66L19.4417 54.2086C18.5875 53.9603 18 53.1776 18 52.2881V44.25L60 52.5V66Z" fill="#7724FF"/>
<path d="M41.25 48.75L48 48V35.25L41.25 34.5V48.75Z" fill="#EA9F00"/>
<path d="M51.75 33L18 38.25V30.3631C18 29.4798 18.5793 28.7012 19.4253 28.4474L51.75 18.75V33Z" fill="#9D61FF"/>
<path opacity="0.44" d="M51.75 33L18 38.25V31.5C18 31.5 18.375 36 20.625 36.375C22.875 36.75 51.75 33 51.75 33Z" fill="#440AA4"/>
<path d="M51.75 33C51.75 33 51 22.875 49.5 21.75C48 20.625 18 28.875 18 28.875L51.75 18.75V33Z" fill="#C099FF"/>
<path d="M51.75 33H58.5V24.6476C58.5 24.0054 58.1916 23.4023 57.671 23.0263L51.75 18.75V33Z" fill="#7723FF"/>
<path d="M60 66L64.4851 64.8787C65.3754 64.6561 66 63.8562 66 62.9384V51L60 52.5V66Z" fill="#6201FF"/>
<path d="M41.25 47.25L18 44.25L41.25 49.125L60 52.5L41.625 48.75L41.25 47.25Z" fill="#FFFBA4"/>
<path d="M59.9255 45.6005L60.6061 51.4575L66.4225 52.4254L60.5655 53.106L59.5976 58.9225L58.917 53.0655L53.1005 52.0976L58.9576 51.4169L59.9255 45.6005Z" fill="white" fill-opacity="0.84"/>
<path opacity="0.2" d="M62.9779 52.3407C62.9342 54.1171 61.4587 55.5216 59.6824 55.4779C57.906 55.4342 56.5014 53.9587 56.5451 52.1824C56.5889 50.406 58.0643 49.0014 59.8407 49.0452C61.617 49.0889 63.0216 50.5643 62.9779 52.3407Z" fill="white"/>
</g>
<defs>
<radialGradient id="paint0_radial_924_8361" cx="0" cy="0" r="1" gradientUnits="userSpaceOnUse" gradientTransform="translate(42 42) rotate(90) scale(42)">
<stop stop-color="#3058FE"/>
<stop offset="1" stop-color="#1D1E25" stop-opacity="0"/>
</radialGradient>
<clipPath id="clip0_924_8361">
<rect width="48" height="48" fill="white" transform="translate(18 18)"/>
</clipPath>
</defs>
</svg>
