<svg width="189" height="189" viewBox="0 0 189 189" fill="none" xmlns="http://www.w3.org/2000/svg">
<g clip-path="url(#clip0_3281_313700)">
<path d="M0 22C0 9.84973 9.84974 0 22 0H167C179.15 0 189 9.84974 189 22V167C189 179.15 179.15 189 167 189H22C9.84973 189 0 179.15 0 167V22Z" fill="url(#paint0_linear_3281_313700)"/>
<circle cx="94.1079" cy="92.2905" r="77.0715" transform="rotate(45 94.1079 92.2905)" stroke="url(#paint1_linear_3281_313700)" stroke-width="13.6414"/>
<path d="M168.552 72.3429C179.569 113.458 155.17 155.719 114.055 166.736C72.9396 177.753 30.6785 153.353 19.6618 112.238C8.64503 71.123 33.0445 28.8619 74.1595 17.8451C115.275 6.82841 157.536 31.2279 168.552 72.3429Z" stroke="url(#paint2_linear_3281_313700)" stroke-width="13.6414"/>
<g style="mix-blend-mode:lighten" opacity="0.7">
<circle cx="6.81488" cy="9.54089" r="131.3" fill="url(#paint3_radial_3281_313700)"/>
</g>
<ellipse opacity="0.7" cx="246.699" cy="211.262" rx="288.498" ry="288.498" fill="url(#paint4_radial_3281_313700)"/>
<path d="M51.6853 145.85L21.8076 108.732H81.5612L51.6853 145.85Z" fill="#C4C4C4"/>
<path d="M36.4639 95.4087H66.9049L81.5612 108.732L51.6853 145.85L21.8076 108.732L36.4639 95.4087Z" fill="#FFD646"/>
<path d="M36.4639 95.4087H66.9049L81.5612 108.732H21.8076L36.4639 95.4087Z" fill="#FFCC09"/>
<path d="M66.9049 95.4086H51.6853L63.362 108.732H81.5612L66.9049 95.4086Z" fill="#F0CFB0"/>
<path d="M36.4639 95.4087H51.6853L40.528 108.732H21.8076L36.4639 95.4087Z" fill="#6B5008"/>
<path opacity="0.45" d="M36.4639 95.4087L25.3322 107.439L40.5335 108.723H21.8076L36.4639 95.4087Z" fill="#302400"/>
<path d="M51.6853 145.85L63.4151 108.732H81.5612L51.6853 145.85Z" fill="url(#paint5_linear_3281_313700)"/>
<path d="M51.6853 145.85L21.8076 108.732H40.4805L51.6853 145.85Z" fill="url(#paint6_linear_3281_313700)"/>
<path opacity="0.6" d="M47.0558 130.284L40.4712 108.757L50.5713 96.7273L41.7918 108.229L57.5729 108.757L41.7918 109.337L47.0558 130.284Z" fill="#F0CFB0"/>
<path d="M58.996 120.207L63.362 108.705L55.4714 133.714L58.996 120.207Z" fill="#E3D097"/>
<path d="M138.006 146.759L108.13 109.641H167.884L138.006 146.759Z" fill="#C4C4C4"/>
<path d="M122.786 96.3173H153.227L167.884 109.641L138.006 146.759L108.13 109.641L122.786 96.3173Z" fill="#FF2000"/>
<path d="M122.786 96.3173H153.227L167.884 109.641H108.13L122.786 96.3173Z" fill="#FF2400"/>
<path d="M153.227 96.3173H138.006L149.684 109.641H167.884L153.227 96.3173Z" fill="#FB3F3F"/>
<path d="M122.786 96.3173H138.006L126.848 109.641H108.13L122.786 96.3173Z" fill="#6B0D08"/>
<path opacity="0.45" d="M122.786 96.3173L111.654 108.347L126.856 109.632H108.13L122.786 96.3173Z" fill="#300805"/>
<path d="M138.006 146.759L149.736 109.641H167.884L138.006 146.759Z" fill="url(#paint7_linear_3281_313700)"/>
<path d="M138.006 146.759L108.13 109.641H126.803L138.006 146.759Z" fill="url(#paint8_linear_3281_313700)"/>
<path d="M133.378 131.193L126.793 109.666L136.892 97.6359L128.112 109.138L143.892 109.666L128.112 110.246L133.378 131.193Z" fill="#FCDEDE"/>
<path d="M145.318 121.115L149.684 109.613L141.794 134.622L145.318 121.115Z" fill="#E39E97"/>
<path d="M94.1391 146.293L32.0542 69.4005H156.224L94.1391 146.293Z" fill="#C4C4C4"/>
<path d="M62.5109 41.7981H94.1391H125.767L156.224 69.4006L94.1391 146.293L32.0542 69.4006L62.5109 41.7981Z" fill="url(#paint9_linear_3281_313700)"/>
<path d="M62.5109 41.7981H94.1391H125.767L156.224 69.4006H94.1391H32.0542L62.5109 41.7981Z" fill="#9135FF"/>
<path d="M125.767 41.798H94.1389L118.405 69.4006H156.224L125.767 41.798Z" fill="#CE8FFF"/>
<path d="M62.5109 41.7981H94.1391L70.9666 69.4006H32.0542L62.5109 41.7981Z" fill="#461C9F"/>
<path opacity="0.45" d="M62.5109 41.7981L39.3776 66.7195L70.9666 69.4006H32.0542L62.5109 41.7981Z" fill="#0F0030"/>
<path d="M94.1389 146.293L118.514 69.4005H156.224L94.1389 146.293Z" fill="url(#paint10_linear_3281_313700)"/>
<path d="M94.1391 146.293L32.0542 69.4005H70.8573L94.1391 146.293Z" fill="url(#paint11_linear_3281_313700)"/>
<path d="M84.52 114.048L70.8569 69.4517L91.8434 44.5303L73.5895 68.3587L106.381 69.4517L73.5895 70.6541L84.52 114.048Z" fill="#E5DEFC"/>
<path d="M109.332 93.1708L118.404 69.3425L102.009 121.153L109.332 93.1708Z" fill="white"/>
<path d="M122.158 34.019L123.135 35.1754C125.489 37.9614 129.403 38.8534 132.732 37.3627L134.113 36.744L132.957 37.7212C130.171 40.0754 129.279 43.9889 130.77 47.3179L131.388 48.6997L130.411 47.5432C128.057 44.7573 124.143 43.8653 120.815 45.3559L119.433 45.9747L120.589 44.9975C123.375 42.6433 124.267 38.7297 122.776 35.4008L122.158 34.019Z" fill="white"/>
<ellipse opacity="0.2" cx="126.773" cy="41.3596" rx="4.18685" ry="4.18685" transform="rotate(-32.1603 126.773 41.3596)" fill="white"/>
<path d="M143.041 117.079C144.578 118.898 147.132 119.48 149.305 118.507C147.486 120.044 146.904 122.598 147.877 124.771C146.341 122.952 143.786 122.37 141.614 123.343C143.432 121.806 144.014 119.252 143.041 117.079Z" fill="white" fill-opacity="0.84"/>
<ellipse opacity="0.2" rx="2.1935" ry="2.1935" transform="matrix(0.846561 -0.532291 0.532288 0.846564 145.459 120.926)" fill="white"/>
<path d="M44.6704 110.354L44.6382 111.003C44.4577 114.646 46.7095 117.968 50.1601 119.151L50.7742 119.361L50.1258 119.329C46.4828 119.148 43.16 121.4 41.9777 124.851L41.7673 125.465L41.7994 124.816C41.98 121.173 39.7282 117.851 36.2776 116.668L35.6635 116.458L36.3119 116.49C39.9549 116.671 43.2777 114.419 44.4599 110.968L44.6704 110.354Z" fill="white" fill-opacity="0.84"/>
<ellipse opacity="0.2" cx="43.2184" cy="117.909" rx="3.71499" ry="3.71499" transform="rotate(10.8751 43.2184 117.909)" fill="white"/>
<path d="M74.2653 58.5443L73.42 63.3511C72.7883 66.9434 74.6099 70.5203 77.8868 72.122L82.2715 74.2654L77.4647 73.4201C73.8724 72.7884 70.2956 74.6099 68.6938 77.8868L66.5505 82.2716L67.3958 77.4648C68.0275 73.8725 66.2059 70.2957 62.929 68.6939L58.5442 66.5506L63.351 67.3958C66.9434 68.0276 70.5202 66.206 72.122 62.9291L74.2653 58.5443Z" fill="white"/>
<ellipse opacity="0.2" cx="70.4075" cy="70.4078" rx="6.02381" ry="6.02381" transform="rotate(18.0116 70.4075 70.4078)" fill="white"/>
<path d="M39.4556 17.8167L37.2525 28.2564C36.4994 31.8252 38.1986 35.4618 41.4194 37.1737L50.8408 42.1816L40.4011 39.9785C36.8322 39.2253 33.1957 40.9246 31.4837 44.1453L26.4759 53.5668L28.679 43.127C29.4321 39.5582 27.7328 35.9216 24.5121 34.2097L15.0907 29.2018L25.5304 31.4049C29.0993 32.1581 32.7358 30.4588 34.4478 27.2381L39.4556 17.8167Z" fill="white" fill-opacity="0.84"/>
<ellipse opacity="0.2" cx="32.9648" cy="35.6923" rx="9.18261" ry="9.18261" transform="rotate(19.9544 32.9648 35.6923)" fill="white"/>
</g>
<defs>
<linearGradient id="paint0_linear_3281_313700" x1="34.9832" y1="208.99" x2="94.5" y2="-48.825" gradientUnits="userSpaceOnUse">
<stop stop-color="#00F0FF"/>
<stop offset="1" stop-color="#02B9CA"/>
</linearGradient>
<linearGradient id="paint1_linear_3281_313700" x1="92.0106" y1="29.8957" x2="94.1079" y2="159.929" gradientUnits="userSpaceOnUse">
<stop stop-color="white" stop-opacity="0"/>
<stop offset="0.478913" stop-color="white" stop-opacity="0.43"/>
<stop offset="1" stop-color="white" stop-opacity="0"/>
</linearGradient>
<linearGradient id="paint2_linear_3281_313700" x1="75.9323" y1="32.5646" x2="111.613" y2="157.624" gradientUnits="userSpaceOnUse">
<stop stop-color="white" stop-opacity="0"/>
<stop offset="0.478913" stop-color="white" stop-opacity="0.43"/>
<stop offset="1" stop-color="white" stop-opacity="0"/>
</linearGradient>
<radialGradient id="paint3_radial_3281_313700" cx="0" cy="0" r="1" gradientUnits="userSpaceOnUse" gradientTransform="translate(6.81488 9.54089) rotate(76.866) scale(112.804)">
<stop stop-color="#00FF57"/>
<stop offset="1" stop-color="white" stop-opacity="0"/>
</radialGradient>
<radialGradient id="paint4_radial_3281_313700" cx="0" cy="0" r="1" gradientUnits="userSpaceOnUse" gradientTransform="translate(246.699 211.262) rotate(76.866) scale(247.856)">
<stop stop-color="#BD00FF"/>
<stop offset="1" stop-color="white" stop-opacity="0"/>
</radialGradient>
<linearGradient id="paint5_linear_3281_313700" x1="66.6232" y1="108.732" x2="66.6232" y2="145.85" gradientUnits="userSpaceOnUse">
<stop stop-color="#FFC700"/>
<stop offset="1" stop-color="#DFB51F"/>
</linearGradient>
<linearGradient id="paint6_linear_3281_313700" x1="36.7456" y1="108.732" x2="36.7456" y2="145.85" gradientUnits="userSpaceOnUse">
<stop stop-color="#6C5411"/>
<stop offset="1" stop-color="#483500"/>
</linearGradient>
<linearGradient id="paint7_linear_3281_313700" x1="152.946" y1="109.641" x2="152.946" y2="146.759" gradientUnits="userSpaceOnUse">
<stop stop-color="#FF2000"/>
<stop offset="1" stop-color="#450900"/>
</linearGradient>
<linearGradient id="paint8_linear_3281_313700" x1="123.068" y1="109.641" x2="123.068" y2="146.759" gradientUnits="userSpaceOnUse">
<stop stop-color="#6C1611"/>
<stop offset="1" stop-color="#480400"/>
</linearGradient>
<linearGradient id="paint9_linear_3281_313700" x1="94.1391" y1="41.7981" x2="94.1391" y2="146.293" gradientUnits="userSpaceOnUse">
<stop stop-color="#8F3CFF"/>
<stop offset="1" stop-color="#410099"/>
</linearGradient>
<linearGradient id="paint10_linear_3281_313700" x1="125.181" y1="69.4005" x2="125.181" y2="146.293" gradientUnits="userSpaceOnUse">
<stop stop-color="#A25CFF"/>
<stop offset="1" stop-color="#340076"/>
</linearGradient>
<linearGradient id="paint11_linear_3281_313700" x1="63.0967" y1="69.4005" x2="63.0967" y2="146.293" gradientUnits="userSpaceOnUse">
<stop stop-color="#270E59"/>
<stop offset="1" stop-color="#1C0548"/>
</linearGradient>
<clipPath id="clip0_3281_313700">
<path d="M0 22C0 9.84973 9.84974 0 22 0H167C179.15 0 189 9.84974 189 22V167C189 179.15 179.15 189 167 189H22C9.84973 189 0 179.15 0 167V22Z" fill="white"/>
</clipPath>
</defs>
</svg>
