<svg width="189" height="189" viewBox="0 0 189 189" fill="none" xmlns="http://www.w3.org/2000/svg">
<g clip-path="url(#clip0_3281_313696)">
<path d="M0 16.3557C0 7.32267 7.32273 -6.10352e-05 16.3558 -6.10352e-05H172.644C181.677 -6.10352e-05 189 7.32267 189 16.3557V172.644C189 181.677 181.677 189 172.644 189H16.3558C7.32273 189 0 181.677 0 172.644V16.3557Z" fill="url(#paint0_linear_3281_313696)"/>
<circle opacity="0.7" cx="205.81" cy="74.9639" r="114.036" fill="url(#paint1_radial_3281_313696)"/>
<g style="mix-blend-mode:hard-light" opacity="0.9">
<circle cx="-15.4471" cy="137.207" r="220.803" fill="url(#paint2_radial_3281_313696)"/>
</g>
<g opacity="0.3">
<circle cx="91.7743" cy="95.4086" r="73.601" fill="url(#paint3_linear_3281_313696)" fill-opacity="0.43"/>
<circle r="15.4471" transform="matrix(-0.352146 -0.935945 -0.935945 0.352146 52.7021 76.3268)" fill="url(#paint4_linear_3281_313696)" fill-opacity="0.43"/>
<circle r="10.9038" transform="matrix(0.451727 -0.892156 -0.892156 -0.451727 90.8656 49.0672)" fill="url(#paint5_linear_3281_313696)" fill-opacity="0.43"/>
<circle r="15.4471" transform="matrix(-1 0 0 1 107.221 100.861)" fill="url(#paint6_linear_3281_313696)" fill-opacity="0.43"/>
<circle r="8.17789" transform="matrix(-1 0 0 1 137.207 64.5144)" fill="url(#paint7_linear_3281_313696)" fill-opacity="0.43"/>
<circle r="8.17789" transform="matrix(-1 0 0 1 47.2503 135.389)" fill="url(#paint8_linear_3281_313696)" fill-opacity="0.43"/>
</g>
<path d="M92.2283 24.9877C92.2283 24.9877 62.2427 41.3434 62.2427 65.792C62.2427 90.2405 70.8749 125.848 70.8749 125.848C75.1153 123.728 85.3225 119.488 92.2283 119.488C99.134 119.488 109.341 123.728 113.582 125.848C113.582 125.848 122.214 90.2405 122.214 65.792C122.214 41.3434 92.2283 24.9877 92.2283 24.9877Z" fill="url(#paint9_linear_3281_313696)"/>
<path d="M70.8749 125.849C70.8749 125.849 62.2427 90.2409 62.2427 65.7924C62.2427 80.5107 68.2398 110.856 92.2283 110.856C116.217 110.856 122.214 80.5107 122.214 65.7924C122.214 90.2409 113.582 125.849 113.582 125.849C109.341 123.728 99.134 119.488 92.2283 119.488C85.3225 119.488 75.1153 123.728 70.8749 125.849Z" fill="#2E11D1"/>
<path opacity="0.8" d="M122.214 65.7923C122.214 41.3437 92.2283 24.988 92.2283 24.988C92.2283 24.988 124.031 47.25 108.13 84.5048C98.1581 107.867 86.0425 118.187 78.3932 122.635C75.3152 123.771 72.6008 124.986 70.8749 125.849C70.8749 125.849 73.8444 125.28 78.3932 122.635C82.8774 120.979 88.1333 119.488 92.2283 119.488C99.1341 119.488 109.341 123.728 113.582 125.849C113.582 125.849 122.214 90.2408 122.214 65.7923Z" fill="url(#paint10_linear_3281_313696)"/>
<path opacity="0.7" d="M62.2427 65.7923C62.2427 41.3437 92.2283 24.988 92.2283 24.988C92.2283 24.988 60.4254 47.25 76.3268 84.5048C86.2985 107.867 98.414 118.187 106.063 122.635C109.141 123.771 111.856 124.986 113.582 125.849C113.582 125.849 110.612 125.28 106.063 122.635C101.579 120.979 96.3233 119.488 92.2283 119.488C85.3225 119.488 75.1153 123.728 70.8749 125.849C70.8749 125.849 62.2427 90.2408 62.2427 65.7923Z" fill="url(#paint11_linear_3281_313696)" fill-opacity="0.69"/>
<g filter="url(#filter0_d_3281_313696)">
<ellipse cx="92.2284" cy="126.303" rx="21.3534" ry="7.26923" fill="#210047"/>
</g>
<ellipse cx="92.2283" cy="127.666" rx="17.7188" ry="5.90625" fill="#0F011E"/>
<ellipse cx="92.2284" cy="129.029" rx="14.9928" ry="4.54327" fill="#82446A"/>
<circle cx="92.2284" cy="70.4207" r="11.8125" fill="#1A1B28" stroke="#5F0BBF" stroke-width="4.54327"/>
<path opacity="0.9" d="M92.2283 24.988C92.2283 24.988 62.2427 41.3437 62.2427 65.7923C67.0871 57.037 75.8725 47.7043 92.2283 47.7043C108.584 47.7043 117.369 57.037 122.214 65.7923C122.214 41.3437 92.2283 24.988 92.2283 24.988Z" fill="#F6ECFF" fill-opacity="0.31"/>
<path opacity="0.4" d="M111.764 144.541C111.764 155.115 92.2284 233.524 92.2284 233.524C92.2284 233.524 72.6924 155.115 72.6924 144.541C72.6924 133.966 81.439 125.394 92.2284 125.394C103.018 125.394 111.764 133.966 111.764 144.541Z" fill="url(#paint12_linear_3281_313696)"/>
<path opacity="0.4" d="M111.764 144.541C111.764 155.115 92.2284 233.524 92.2284 233.524C92.2284 233.524 72.6924 155.115 72.6924 144.541C72.6924 133.966 81.439 125.394 92.2284 125.394C103.018 125.394 111.764 133.966 111.764 144.541Z" fill="url(#paint13_linear_3281_313696)"/>
<path opacity="0.4" d="M100.861 137.461C100.861 144.126 92.2284 193.543 92.2284 193.543C92.2284 193.543 83.5962 144.126 83.5962 137.461C83.5962 130.797 87.461 125.394 92.2284 125.394C96.9958 125.394 100.861 130.797 100.861 137.461Z" fill="url(#paint14_linear_3281_313696)"/>
<path d="M131.649 143.567C138.44 125.768 131.649 91.774 118.362 91.774C113.563 98.5826 108.078 121.691 112.456 122.412C121.314 123.871 131.649 143.567 131.649 143.567Z" fill="url(#paint15_linear_3281_313696)"/>
<path d="M52.8077 143.567C46.0163 125.768 52.8077 91.774 66.0951 91.774C70.8933 98.5826 76.3793 121.691 72.0007 122.412C63.1424 123.871 52.8077 143.567 52.8077 143.567Z" fill="url(#paint16_linear_3281_313696)"/>
<path opacity="0.3" d="M72.0007 122.412C63.1424 123.871 52.8077 143.567 52.8077 143.567C59.9713 122.412 64.2976 122.214 66.7862 116.308C69.2747 110.401 66.0951 91.774 66.0951 91.774C70.8933 98.5826 76.3793 121.691 72.0007 122.412Z" fill="#3011C7"/>
<ellipse opacity="0.4" cx="107.624" cy="43.723" rx="4.54327" ry="2.27163" transform="rotate(39.7273 107.624 43.723)" fill="white"/>
<ellipse opacity="0.2" cx="105.723" cy="45.99" rx="10.3084" ry="5.1542" transform="rotate(39.7273 105.723 45.99)" fill="white"/>
<ellipse opacity="0.4" cx="122.766" cy="101.225" rx="5.96358" ry="3.0003" transform="rotate(69.05 122.766 101.225)" fill="url(#paint17_linear_3281_313696)"/>
<ellipse opacity="0.3" cx="61.8918" cy="100.694" rx="6.07093" ry="3.0543" transform="rotate(123.332 61.8918 100.694)" fill="url(#paint18_linear_3281_313696)"/>
<path d="M101.9 34.3983L105.175 38.5851C106.672 40.4986 109.255 41.1906 111.508 40.282L116.438 38.2939L112.251 41.5694C110.338 43.0665 109.646 45.6491 110.554 47.9023L112.543 52.8324L109.267 48.6456C107.77 46.7321 105.187 46.0401 102.934 46.9487L98.0041 48.9368L102.191 45.6613C104.104 44.1642 104.796 41.5816 103.888 39.3284L101.9 34.3983Z" fill="white"/>
<circle opacity="0.2" cx="107.221" cy="43.6157" r="5.13913" transform="rotate(-30 107.221 43.6157)" fill="white"/>
<rect x="127.687" y="73.5476" width="48.5171" height="25.6368" rx="4.54327" transform="rotate(-29.9195 127.687 73.5476)" fill="#00360C"/>
<rect x="124.486" y="72.5968" width="48.5171" height="25.6368" rx="4.54327" transform="rotate(-29.9195 124.486 72.5968)" fill="#57D7C0"/>
<path d="M145.43 78.2266C145.808 78.882 145.968 79.5209 145.912 80.1431C145.86 80.7627 145.627 81.3393 145.213 81.873C144.803 82.4039 144.254 82.8674 143.565 83.2636C142.882 83.657 142.202 83.9003 141.528 83.9935C140.858 84.0839 140.238 83.9984 139.667 83.737C139.096 83.4756 138.622 83.0172 138.245 82.3618C137.987 81.9139 137.846 81.4616 137.822 81.0048C137.799 80.5407 137.879 80.09 138.06 79.6529C138.242 79.2158 138.512 78.8064 138.869 78.4248C139.232 78.0404 139.668 77.7017 140.177 77.4087C140.865 77.0125 141.549 76.7763 142.226 76.7C142.902 76.619 143.518 76.7035 144.076 76.9535C144.634 77.2034 145.086 77.6278 145.43 78.2266ZM142.923 79.4154C142.76 79.1325 142.574 78.9229 142.363 78.7866C142.15 78.6455 141.924 78.5747 141.686 78.5741C141.447 78.5735 141.207 78.6423 140.967 78.7807C140.731 78.9164 140.551 79.089 140.427 79.2985C140.307 79.5054 140.253 79.7377 140.263 79.9954C140.275 80.2457 140.363 80.5123 140.525 80.7952C140.683 81.0686 140.872 81.2769 141.092 81.42C141.31 81.5583 141.539 81.6301 141.781 81.6355C142.025 81.6334 142.267 81.5631 142.507 81.4247C142.747 81.2864 142.925 81.1151 143.04 80.911C143.157 80.6994 143.205 80.4675 143.185 80.2152C143.168 79.9555 143.08 79.6889 142.923 79.4154ZM142.508 73.6385C142.817 74.176 142.944 74.7302 142.89 75.3013C142.838 75.8648 142.622 76.4063 142.243 76.9257C141.866 77.4376 141.348 77.8835 140.688 78.2634C140.032 78.6405 139.384 78.8662 138.742 78.9403C138.103 79.0071 137.522 78.9241 136.999 78.6916C136.478 78.4516 136.063 78.0629 135.753 77.5254C135.39 76.8936 135.228 76.2804 135.269 75.6858C135.314 75.0885 135.528 74.5325 135.91 74.0179C136.291 73.5033 136.808 73.0587 137.458 72.6843C138.118 72.3044 138.767 72.0787 139.403 72.0073C140.04 71.9359 140.626 72.0319 141.16 72.2955C141.695 72.559 142.144 73.0067 142.508 73.6385ZM140.197 75.1374C140.056 74.8922 139.898 74.7041 139.722 74.5731C139.543 74.4373 139.354 74.3643 139.154 74.3542C138.95 74.3393 138.738 74.3956 138.516 74.5231C138.304 74.6452 138.152 74.7955 138.06 74.9739C137.968 75.1523 137.936 75.3528 137.964 75.5754C137.989 75.7932 138.073 76.0271 138.217 76.277C138.358 76.5222 138.519 76.715 138.701 76.8555C138.882 76.996 139.075 77.076 139.281 77.0956C139.492 77.1125 139.706 77.0586 139.923 76.9337C140.144 76.8062 140.296 76.6499 140.378 76.4648C140.464 76.2769 140.49 76.0707 140.455 75.8461C140.424 75.6188 140.338 75.3826 140.197 75.1374ZM147.862 79.115C147.667 78.7755 147.627 78.422 147.742 78.0546C147.854 77.6825 148.103 77.3852 148.49 77.1627C148.881 76.9375 149.264 76.8712 149.637 76.9638C150.012 77.0491 150.298 77.2614 150.493 77.6009C150.688 77.9404 150.73 78.2962 150.618 78.6683C150.508 79.033 150.257 79.328 149.865 79.5532C149.479 79.7757 149.098 79.8443 148.722 79.7591C148.344 79.6691 148.058 79.4544 147.862 79.115ZM152.095 72.0567L149.943 72.7019L147.537 67.0818L153.556 63.6182L154.622 65.4712L150.548 67.8155L151.491 69.9938C151.566 69.8627 151.713 69.675 151.93 69.4307C152.149 69.179 152.424 68.9582 152.754 68.7683C153.263 68.4753 153.758 68.2939 154.239 68.2243C154.722 68.1473 155.185 68.1786 155.63 68.3183C156.071 68.4532 156.484 68.6959 156.868 69.0462C157.256 69.3939 157.609 69.8436 157.926 70.3952C158.182 70.8384 158.355 71.3095 158.448 71.8086C158.543 72.3002 158.536 72.7965 158.429 73.2975C158.324 73.791 158.103 74.2633 157.767 74.7144C157.427 75.1608 156.951 75.5603 156.338 75.9131C155.881 76.1763 155.394 76.362 154.879 76.4702C154.364 76.5783 153.856 76.6008 153.355 76.5375C152.856 76.4669 152.397 76.3013 151.977 76.0407C151.559 75.7728 151.217 75.4017 150.951 74.9275L153.348 73.5478C153.506 73.7895 153.69 73.9725 153.899 74.0967C154.109 74.2209 154.331 74.2846 154.565 74.288C154.801 74.2839 155.035 74.2153 155.266 74.0824C155.501 73.9467 155.67 73.787 155.771 73.6031C155.873 73.4193 155.921 73.2191 155.915 73.0025C155.91 72.7859 155.865 72.5607 155.781 72.3268C155.693 72.0882 155.581 71.8487 155.442 71.6082C155.296 71.3536 155.136 71.1412 154.963 70.971C154.794 70.7981 154.61 70.6749 154.411 70.6013C154.209 70.5229 153.992 70.5003 153.76 70.5334C153.533 70.5638 153.289 70.6536 153.03 70.8028C152.686 71.0009 152.449 71.2159 152.318 71.4477C152.188 71.6795 152.114 71.8825 152.095 72.0567Z" fill="white"/>
<path d="M161.601 62.2506L163.688 63.6087L163.594 61.1034L165.852 59.804L165.976 64.2582L169.966 66.7286L167.688 68.0391L165.41 66.6021L165.514 69.2902L163.237 70.6007L163.106 65.9103L159.323 63.5611L161.601 62.2506Z" fill="white"/>
<path d="M146.406 116.73L152.984 125.137C155.23 128.007 159.104 129.045 162.484 127.683L172.384 123.69L163.976 130.268C161.106 132.514 160.068 136.387 161.431 139.767L165.423 149.668L158.845 141.26C156.6 138.39 152.726 137.352 149.346 138.715L139.446 142.707L147.853 136.129C150.724 133.884 151.762 130.01 150.399 126.63L146.406 116.73Z" fill="white" fill-opacity="0.84"/>
<circle opacity="0.2" cx="155.915" cy="133.199" r="9.18261" transform="rotate(-30 155.915 133.199)" fill="white"/>
<path d="M43.202 117.081L39.7237 121.096C38.5362 122.467 38.399 124.458 39.3874 125.979L42.2824 130.433L38.2672 126.955C36.8964 125.767 34.9053 125.63 33.3847 126.618L28.9305 129.513L32.4088 125.498C33.5963 124.127 33.7334 122.136 32.7451 120.616L29.8501 116.161L33.8653 119.64C35.2361 120.827 37.2272 120.964 38.7478 119.976L43.202 117.081Z" fill="white" fill-opacity="0.84"/>
<circle opacity="0.2" cx="36.0657" cy="123.297" r="4.56967" transform="rotate(48.94 36.0657 123.297)" fill="white"/>
<path d="M37.7723 37.9657L32.8926 44.128C31.2267 46.2318 31.1539 49.184 32.7141 51.3673L37.2841 57.7626L31.1219 52.8829C29.0181 51.217 26.0659 51.1442 23.8826 52.7044L17.4873 57.2744L22.367 51.1122C24.0329 49.0084 24.1057 46.0562 22.5455 43.8729L17.9754 37.4776L24.1377 42.3573C26.2415 44.0232 29.1937 44.0959 31.377 42.5358L37.7723 37.9657Z" fill="white"/>
<circle opacity="0.2" cx="27.6293" cy="47.6201" r="6.7615" transform="rotate(46.4125 27.6293 47.6201)" fill="white"/>
</g>
<defs>
<filter id="filter0_d_3281_313696" x="59.9712" y="99.952" width="64.5145" height="36.3461" filterUnits="userSpaceOnUse" color-interpolation-filters="sRGB">
<feFlood flood-opacity="0" result="BackgroundImageFix"/>
<feColorMatrix in="SourceAlpha" type="matrix" values="0 0 0 0 0 0 0 0 0 0 0 0 0 0 0 0 0 0 127 0" result="hardAlpha"/>
<feOffset dy="-8.17789"/>
<feGaussianBlur stdDeviation="5.45192"/>
<feComposite in2="hardAlpha" operator="out"/>
<feColorMatrix type="matrix" values="0 0 0 0 1 0 0 0 0 0 0 0 0 0 0 0 0 0 0.57 0"/>
<feBlend mode="lighten" in2="BackgroundImageFix" result="effect1_dropShadow_3281_313696"/>
<feBlend mode="normal" in="SourceGraphic" in2="effect1_dropShadow_3281_313696" result="shape"/>
</filter>
<linearGradient id="paint0_linear_3281_313696" x1="1.29984e-06" y1="189" x2="180.368" y2="14.5384" gradientUnits="userSpaceOnUse">
<stop stop-color="#6400FF"/>
<stop offset="1" stop-color="#00C2FF"/>
</linearGradient>
<radialGradient id="paint1_radial_3281_313696" cx="0" cy="0" r="1" gradientUnits="userSpaceOnUse" gradientTransform="translate(205.81 74.9639) rotate(90) scale(114.036)">
<stop stop-color="#D99329"/>
<stop offset="1" stop-color="#1D1E25" stop-opacity="0"/>
</radialGradient>
<radialGradient id="paint2_radial_3281_313696" cx="0" cy="0" r="1" gradientUnits="userSpaceOnUse" gradientTransform="translate(-15.4471 137.207) rotate(90) scale(220.803)">
<stop stop-color="#21CAFF"/>
<stop offset="1" stop-color="#1D1E25" stop-opacity="0"/>
</radialGradient>
<linearGradient id="paint3_linear_3281_313696" x1="64.969" y1="24.5336" x2="118.125" y2="176.279" gradientUnits="userSpaceOnUse">
<stop offset="0.0644755" stop-color="white"/>
<stop offset="0.445678" stop-color="white"/>
<stop offset="0.990552" stop-color="#6200FF"/>
</linearGradient>
<linearGradient id="paint4_linear_3281_313696" x1="9.82131" y1="0.572116" x2="20.9776" y2="32.4199" gradientUnits="userSpaceOnUse">
<stop stop-color="white"/>
<stop offset="0.990552" stop-color="#6200FF" stop-opacity="0.5"/>
</linearGradient>
<linearGradient id="paint5_linear_3281_313696" x1="6.93269" y1="0.403846" x2="14.8077" y2="22.8846" gradientUnits="userSpaceOnUse">
<stop stop-color="white"/>
<stop offset="0.990552" stop-color="#6200FF" stop-opacity="0.5"/>
</linearGradient>
<linearGradient id="paint6_linear_3281_313696" x1="9.82131" y1="0.572116" x2="20.9776" y2="32.4199" gradientUnits="userSpaceOnUse">
<stop stop-color="white"/>
<stop offset="0.990552" stop-color="#6200FF" stop-opacity="0.5"/>
</linearGradient>
<linearGradient id="paint7_linear_3281_313696" x1="5.19952" y1="0.302885" x2="11.1058" y2="17.1635" gradientUnits="userSpaceOnUse">
<stop stop-color="white"/>
<stop offset="0.990552" stop-color="#6200FF" stop-opacity="0.5"/>
</linearGradient>
<linearGradient id="paint8_linear_3281_313696" x1="5.19952" y1="0.302885" x2="11.1058" y2="17.1635" gradientUnits="userSpaceOnUse">
<stop stop-color="white"/>
<stop offset="0.990552" stop-color="#6200FF" stop-opacity="0.5"/>
</linearGradient>
<linearGradient id="paint9_linear_3281_313696" x1="92.2283" y1="24.9877" x2="92.2283" y2="125.848" gradientUnits="userSpaceOnUse">
<stop offset="0.364583" stop-color="#C898FF"/>
<stop offset="1" stop-color="#993CFF"/>
</linearGradient>
<linearGradient id="paint10_linear_3281_313696" x1="122.214" y1="91.1829" x2="93.3341" y2="90.8092" gradientUnits="userSpaceOnUse">
<stop stop-color="#9562CE"/>
<stop offset="1" stop-color="#BE85FF" stop-opacity="0"/>
</linearGradient>
<linearGradient id="paint11_linear_3281_313696" x1="87.9121" y1="24.988" x2="87.9121" y2="125.849" gradientUnits="userSpaceOnUse">
<stop stop-color="#9C44FF"/>
<stop offset="1" stop-color="#220048" stop-opacity="0"/>
</linearGradient>
<linearGradient id="paint12_linear_3281_313696" x1="92.2284" y1="111.584" x2="92.1973" y2="182.507" gradientUnits="userSpaceOnUse">
<stop stop-color="#FAFF00"/>
<stop offset="0.520833" stop-color="#FF823C"/>
<stop offset="1" stop-color="#B504E1" stop-opacity="0"/>
</linearGradient>
<linearGradient id="paint13_linear_3281_313696" x1="92.2284" y1="111.584" x2="92.1973" y2="182.507" gradientUnits="userSpaceOnUse">
<stop stop-color="#FAFF00"/>
<stop offset="0.520833" stop-color="#FF640D"/>
<stop offset="1" stop-color="#B504E1" stop-opacity="0"/>
</linearGradient>
<linearGradient id="paint14_linear_3281_313696" x1="92.2284" y1="116.69" x2="92.2004" y2="161.39" gradientUnits="userSpaceOnUse">
<stop stop-color="#FAFF00"/>
<stop offset="0.520833" stop-color="#FF823C"/>
<stop offset="1" stop-color="#B504E1" stop-opacity="0"/>
</linearGradient>
<linearGradient id="paint15_linear_3281_313696" x1="122.587" y1="91.774" x2="128.808" y2="141.987" gradientUnits="userSpaceOnUse">
<stop stop-color="#CEA2FF"/>
<stop offset="0.9999" stop-color="#5900BA"/>
</linearGradient>
<linearGradient id="paint16_linear_3281_313696" x1="61.8694" y1="91.774" x2="55.6493" y2="141.987" gradientUnits="userSpaceOnUse">
<stop stop-color="#CEA2FF"/>
<stop offset="0.9999" stop-color="#5900BA"/>
</linearGradient>
<linearGradient id="paint17_linear_3281_313696" x1="121.237" y1="97.7921" x2="124.94" y2="104.545" gradientUnits="userSpaceOnUse">
<stop stop-color="white"/>
<stop offset="1" stop-color="white" stop-opacity="0"/>
</linearGradient>
<linearGradient id="paint18_linear_3281_313696" x1="60.741" y1="103.781" x2="65.4756" y2="96.4078" gradientUnits="userSpaceOnUse">
<stop stop-color="white"/>
<stop offset="1" stop-color="white" stop-opacity="0"/>
</linearGradient>
<clipPath id="clip0_3281_313696">
<path d="M0 16.3557C0 7.32267 7.32273 -6.10352e-05 16.3558 -6.10352e-05H172.644C181.677 -6.10352e-05 189 7.32267 189 16.3557V172.644C189 181.677 181.677 189 172.644 189H16.3558C7.32273 189 0 181.677 0 172.644V16.3557Z" fill="white"/>
</clipPath>
</defs>
</svg>
