<svg width="189" height="189" viewBox="0 0 189 189" fill="none" xmlns="http://www.w3.org/2000/svg">
<g clip-path="url(#clip0_1032_109292)">
<path d="M0 22C0 9.84973 9.84974 0 22 0H167C179.15 0 189 9.84974 189 22V167C189 179.15 179.15 189 167 189H22C9.84973 189 0 179.15 0 167V22Z" fill="url(#paint0_linear_1032_109292)"/>
<circle cx="94.5687" cy="94.7582" r="77.0715" transform="rotate(-90 94.5687 94.7582)" stroke="url(#paint1_linear_1032_109292)" stroke-width="13.6414"/>
<ellipse opacity="0.9" cx="119.488" cy="102.224" rx="114.036" ry="114.036" fill="url(#paint2_radial_1032_109292)"/>
<g filter="url(#filter0_i_1032_109292)">
<path d="M86.1579 27.4285C90.289 20.5602 100.246 20.5595 104.378 27.4273L167.933 133.063C172.197 140.149 167.093 149.175 158.824 149.175H31.7311C23.4624 149.175 18.359 140.15 22.6209 133.064L86.1579 27.4285Z" fill="url(#paint3_linear_1032_109292)"/>
</g>
<path d="M66.353 134.044L79.1019 112.672C80.1533 110.91 80.1268 108.706 79.0333 106.969L68.1087 89.6182C67.029 87.9035 66.9886 85.7316 68.0035 83.9778L95.2775 36.85" stroke="url(#paint4_linear_1032_109292)" stroke-width="10.9131" stroke-linecap="round" stroke-linejoin="round"/>
<g filter="url(#filter1_di_1032_109292)">
<ellipse cx="38.8974" cy="134.729" rx="5.6161" ry="5.6161" fill="white"/>
</g>
<g filter="url(#filter2_di_1032_109292)">
<ellipse cx="66.6984" cy="134.729" rx="5.6161" ry="5.6161" fill="white"/>
</g>
<g filter="url(#filter3_di_1032_109292)">
<ellipse cx="93.3761" cy="134.729" rx="5.6161" ry="5.6161" fill="white"/>
</g>
<g filter="url(#filter4_di_1032_109292)">
<ellipse cx="150.101" cy="134.729" rx="5.6161" ry="5.6161" fill="white"/>
</g>
<g filter="url(#filter5_di_1032_109292)">
<circle cx="122.3" cy="134.729" r="5.6161" fill="white"/>
</g>
<g filter="url(#filter6_di_1032_109292)">
<ellipse cx="53.0406" cy="109.628" rx="5.6161" ry="5.6161" transform="rotate(-60 53.0406 109.628)" fill="white"/>
</g>
<g filter="url(#filter7_di_1032_109292)">
<ellipse cx="66.9413" cy="86.6746" rx="5.6161" ry="5.6161" transform="rotate(-60 66.9413 86.6746)" fill="white"/>
</g>
<g filter="url(#filter8_di_1032_109292)">
<ellipse cx="80.8419" cy="61.4756" rx="5.6161" ry="5.6161" transform="rotate(-60 80.8419 61.4756)" fill="white"/>
</g>
<g filter="url(#filter9_di_1032_109292)">
<ellipse cx="94.7421" cy="37.3998" rx="5.6161" ry="5.6161" transform="rotate(-60 94.7421 37.3998)" fill="white"/>
</g>
<g filter="url(#filter10_di_1032_109292)">
<ellipse cx="80.8414" cy="109.628" rx="5.6161" ry="5.6161" transform="rotate(-60 80.8414 109.628)" fill="white"/>
</g>
<g filter="url(#filter11_di_1032_109292)">
<ellipse cx="94.742" cy="86.6746" rx="5.6161" ry="5.6161" transform="rotate(-60 94.742 86.6746)" fill="white"/>
</g>
<g filter="url(#filter12_di_1032_109292)">
<circle cx="108.643" cy="61.4756" r="5.6161" transform="rotate(-60 108.643 61.4756)" fill="white"/>
</g>
<g filter="url(#filter13_di_1032_109292)">
<ellipse cx="108.643" cy="109.628" rx="5.6161" ry="5.6161" transform="rotate(-60 108.643 109.628)" fill="white"/>
</g>
<g filter="url(#filter14_di_1032_109292)">
<ellipse rx="5.6161" ry="5.6161" transform="matrix(0.499999 -0.866026 0.866025 0.500001 122.543 85.5514)" fill="white"/>
</g>
<g filter="url(#filter15_di_1032_109292)">
<ellipse cx="136.443" cy="109.628" rx="5.6161" ry="5.6161" transform="rotate(-60 136.443 109.628)" fill="white"/>
</g>
<g filter="url(#filter16_di_1032_109292)">
<ellipse rx="8.46117" ry="8.46118" transform="matrix(-1 0 0 1 66.1514 134.728)" fill="#FF597E"/>
</g>
<rect x="22.4888" y="57.3623" width="48.5171" height="25.6368" rx="4.54713" transform="rotate(-29.9195 22.4888 57.3623)" fill="#7D2AA6"/>
<rect x="19.2876" y="56.4115" width="48.5171" height="25.6368" rx="4.54713" transform="rotate(-29.9195 19.2876 56.4115)" fill="#FF597E"/>
<path d="M35.9464 54.5633L36.6796 55.8375L38.0267 67.0856L35.5068 68.5357L34.4927 57.8498L29.5731 60.6809L28.514 58.8405L35.9464 54.5633ZM42.6707 62.9243C42.4752 62.5845 42.435 62.2307 42.55 61.863C42.6623 61.4906 42.912 61.193 43.2989 60.9703C43.6906 60.7449 44.0733 60.6786 44.447 60.7713C44.8228 60.8566 45.1084 61.0691 45.3039 61.4089C45.4995 61.7487 45.5411 62.1048 45.4287 62.4772C45.3184 62.8422 45.0674 63.1374 44.6758 63.3628C44.2888 63.5855 43.9075 63.6542 43.5317 63.5689C43.1533 63.4789 42.8663 63.264 42.6707 62.9243ZM46.1451 54.2253L47.306 53.5573C47.6033 53.3862 47.8164 53.1944 47.9454 52.982C48.0764 52.7621 48.1335 52.5283 48.1165 52.2805C48.0968 52.0279 48.0096 51.7672 47.8548 51.4982C47.7353 51.2906 47.5805 51.1253 47.3904 51.0023C47.2049 50.8765 46.9927 50.8134 46.7536 50.8127C46.5118 50.8074 46.2517 50.8849 45.9733 51.0451C45.7846 51.1537 45.6236 51.2997 45.4905 51.4831C45.3546 51.6618 45.2684 51.8559 45.2319 52.0654C45.2001 52.2721 45.2426 52.477 45.3594 52.6799L42.9669 54.0567C42.6301 53.4716 42.5027 52.879 42.5846 52.2791C42.6685 51.6717 42.9109 51.1051 43.3118 50.5791C43.7147 50.0457 44.2229 49.6025 44.8364 49.2495C45.5678 48.8286 46.2748 48.5725 46.9572 48.4813C47.637 48.3853 48.2565 48.4685 48.8158 48.7309C49.3771 48.9858 49.8424 49.4341 50.2117 50.0759C50.4154 50.4298 50.5243 50.81 50.5383 51.2165C50.5524 51.623 50.4787 52.0298 50.3172 52.4368C50.1557 52.8439 49.9137 53.2312 49.5914 53.5989C49.271 53.9592 48.8749 54.2751 48.403 54.5466L46.8457 55.4428L46.1451 54.2253ZM47.1675 56.002L46.4832 54.8128L48.0405 53.9167C48.5548 53.6207 49.0583 53.4094 49.5509 53.283C50.0408 53.1518 50.5043 53.1113 50.9414 53.1612C51.3784 53.2112 51.776 53.3562 52.134 53.5962C52.4892 53.8315 52.7904 54.1639 53.0375 54.5933C53.3145 55.0746 53.4649 55.5597 53.4887 56.0486C53.5125 56.5375 53.4244 57.0121 53.2246 57.4726C53.0248 57.9331 52.7306 58.3662 52.3422 58.7719C51.9511 59.1729 51.4818 59.5309 50.9344 59.8459C50.505 60.0931 50.0429 60.2836 49.5483 60.4174C49.051 60.5466 48.5562 60.5927 48.0637 60.5557C47.5686 60.514 47.1039 60.3668 46.6695 60.1142C46.2372 59.8542 45.869 59.4599 45.5648 58.9314L47.9573 57.5545C48.0823 57.7716 48.2553 57.9359 48.4765 58.0473C48.6996 58.1513 48.9426 58.1968 49.2052 58.1838C49.4679 58.1709 49.7172 58.0965 49.9531 57.9607C50.2457 57.7924 50.4622 57.5955 50.6027 57.3702C50.7451 57.1375 50.8163 56.8955 50.8162 56.6443C50.8161 56.393 50.7496 56.1518 50.6165 55.9206C50.4155 55.5714 50.1963 55.3269 49.9589 55.1872C49.7261 55.0447 49.4717 54.9901 49.1956 55.0234C48.9242 55.0539 48.6351 55.1574 48.3284 55.334L47.1675 56.002Z" fill="white"/>
<path d="M56.4214 46.0463L58.5101 47.4056L58.4165 44.8982L60.6763 43.5977L60.8008 48.0556L64.7936 50.5281L62.5143 51.8397L60.2341 50.4015L60.3384 53.0919L58.0592 54.4036L57.9276 49.7091L54.1421 47.3579L56.4214 46.0463Z" fill="white"/>
<rect x="118.571" y="66.8613" width="48.5171" height="25.6368" rx="4.54713" transform="rotate(19.6094 118.571 66.8613)" fill="#226135"/>
<rect x="117.216" y="63.8091" width="48.5171" height="25.6368" rx="4.54713" transform="rotate(19.6094 117.216 63.8091)" fill="#96DB14"/>
<path d="M121.653 79.5064L119.764 78.2872L122.48 72.8046L129.027 75.1371L128.309 77.1527L123.878 75.574L122.832 77.7069C122.981 77.6789 123.218 77.6683 123.545 77.675C123.88 77.6784 124.226 77.7441 124.585 77.872C125.139 78.0693 125.599 78.3285 125.964 78.6494C126.336 78.967 126.614 79.3403 126.796 79.7694C126.98 80.1934 127.064 80.6652 127.046 81.1849C127.034 81.7065 126.921 82.2673 126.707 82.8674C126.535 83.3495 126.289 83.7879 125.969 84.1826C125.657 84.574 125.275 84.8916 124.824 85.1355C124.38 85.3761 123.876 85.5148 123.314 85.5514C122.754 85.583 122.14 85.48 121.474 85.2425C120.976 85.0652 120.519 84.8156 120.102 84.4937C119.685 84.1717 119.338 83.7995 119.061 83.3771C118.79 82.9513 118.618 82.494 118.544 82.0052C118.476 81.513 118.536 81.0114 118.724 80.5003L121.332 81.4295C121.251 81.7068 121.231 81.9655 121.272 82.2058C121.314 82.446 121.41 82.6563 121.559 82.8367C121.716 83.0139 121.92 83.1472 122.171 83.2368C122.427 83.3281 122.658 83.3527 122.864 83.3104C123.07 83.2681 123.254 83.1746 123.415 83.0298C123.576 82.885 123.719 82.7045 123.842 82.4883C123.967 82.267 124.076 82.0256 124.169 81.764C124.268 81.4871 124.326 81.2273 124.343 80.9849C124.365 80.7442 124.34 80.5241 124.266 80.3246C124.195 80.1199 124.071 79.94 123.895 79.7849C123.724 79.6315 123.498 79.5046 123.216 79.4041C122.841 79.2707 122.523 79.2298 122.262 79.2813C122.001 79.3327 121.798 79.4078 121.653 79.5064ZM127.439 85.8246C127.571 85.4553 127.814 85.1951 128.168 85.0439C128.524 84.8876 128.913 84.8844 129.333 85.0342C129.759 85.1859 130.058 85.434 130.23 85.7785C130.409 86.1197 130.433 86.4749 130.301 86.8442C130.169 87.2135 129.926 87.4762 129.569 87.6325C129.22 87.7855 128.833 87.7862 128.407 87.6345C127.986 87.4847 127.687 87.2392 127.508 86.898C127.33 86.5517 127.308 86.1939 127.439 85.8246ZM140.445 88.3515C140.191 89.0644 139.809 89.6016 139.299 89.9631C138.794 90.3264 138.203 90.5236 137.527 90.5545C136.857 90.5872 136.147 90.4702 135.398 90.2034C134.655 89.9385 134.028 89.5795 133.519 89.1265C133.015 88.6753 132.677 88.1474 132.506 87.5429C132.334 86.9384 132.375 86.2797 132.629 85.5667C132.802 85.0795 133.055 84.6783 133.387 84.3631C133.726 84.0445 134.121 83.8124 134.571 83.6666C135.022 83.5209 135.509 83.4603 136.032 83.4848C136.56 83.5111 137.101 83.6229 137.655 83.8203C138.404 84.087 139.028 84.4537 139.526 84.9203C140.026 85.3817 140.363 85.9061 140.535 86.4934C140.707 87.0808 140.677 87.7001 140.445 88.3515ZM137.911 87.2146C138.021 86.9069 138.059 86.6287 138.026 86.38C137.995 86.1262 137.903 85.9082 137.748 85.7259C137.593 85.5437 137.385 85.4059 137.123 85.3128C136.867 85.2214 136.619 85.1965 136.378 85.2381C136.143 85.2815 135.931 85.3908 135.741 85.566C135.559 85.7379 135.413 85.9777 135.303 86.2854C135.197 86.5829 135.161 86.862 135.196 87.1228C135.232 87.3784 135.326 87.5999 135.479 87.7873C135.639 87.9714 135.849 88.11 136.111 88.2032C136.373 88.2964 136.618 88.3204 136.848 88.2751C137.085 88.2266 137.293 88.1129 137.473 87.934C137.659 87.7519 137.805 87.5121 137.911 87.2146ZM142.04 83.1455C141.831 83.7302 141.492 84.1874 141.022 84.517C140.559 84.8433 140.007 85.0309 139.365 85.0797C138.731 85.1253 138.054 85.0201 137.336 84.7643C136.623 84.5103 136.03 84.1632 135.557 83.723C135.091 83.2795 134.776 82.7831 134.614 82.2339C134.458 81.6813 134.484 81.1127 134.693 80.528C134.938 79.8408 135.3 79.3195 135.779 78.9642C136.263 78.6108 136.825 78.4122 137.465 78.3685C138.105 78.3248 138.778 78.429 139.486 78.6812C140.204 78.937 140.797 79.2841 141.265 79.7225C141.733 80.1609 142.041 80.6692 142.187 81.2474C142.334 81.8256 142.285 82.4583 142.04 83.1455ZM139.398 82.3603C139.493 82.0937 139.533 81.8508 139.519 81.6318C139.506 81.4077 139.438 81.216 139.316 81.0568C139.195 80.8924 139.015 80.7673 138.773 80.6814C138.543 80.5992 138.329 80.5811 138.134 80.627C137.938 80.6729 137.765 80.7787 137.613 80.9444C137.464 81.1049 137.34 81.3211 137.244 81.5929C137.149 81.8596 137.107 82.1076 137.117 82.3368C137.128 82.5661 137.193 82.7655 137.312 82.935C137.436 83.1063 137.616 83.2339 137.851 83.318C138.093 83.4039 138.31 83.4178 138.504 83.3598C138.703 83.3036 138.877 83.1892 139.025 83.0166C139.179 82.8458 139.303 82.627 139.398 82.3603Z" fill="white"/>
<path d="M149.204 85.3303L149.525 87.8015L151.372 86.1028L153.828 86.9778L150.518 89.966L151.228 94.6082L148.751 93.7257L148.365 91.0576L146.386 92.8832L143.909 92.0006L147.395 88.8535L146.727 84.4477L149.204 85.3303Z" fill="white"/>
<path d="M80.0356 97.8986L86.6133 106.306C88.8589 109.176 92.7328 110.214 96.1127 108.852L106.013 104.859L97.6054 111.437C94.7351 113.683 93.6971 117.556 95.06 120.936L99.0524 130.837L92.4746 122.429C90.229 119.559 86.3552 118.521 82.9753 119.884L73.075 123.876L81.4826 117.298C84.3529 115.053 85.3909 111.179 84.0279 107.799L80.0356 97.8986Z" fill="white"/>
<circle opacity="0.2" cx="89.5442" cy="114.368" r="9.18261" transform="rotate(-30 89.5442 114.368)" fill="white"/>
<path d="M133.773 50.9499L132.732 59.9614C132.376 63.0379 134.099 65.9784 136.957 67.1721L145.327 70.6684L136.316 69.6267C133.239 69.2711 130.299 70.9941 129.105 73.8518L125.609 82.2225L126.65 73.211C127.006 70.1345 125.283 67.1939 122.425 66.0003L114.055 62.5039L123.066 63.5456C126.143 63.9012 129.083 62.1782 130.277 59.3206L133.773 50.9499Z" fill="white"/>
<ellipse opacity="0.2" cx="129.69" cy="66.5865" rx="7.80336" ry="7.80336" transform="rotate(14.6319 129.69 66.5865)" fill="white"/>
</g>
<defs>
<filter id="filter0_i_1032_109292" x="21.0835" y="22.2769" width="148.388" height="126.898" filterUnits="userSpaceOnUse" color-interpolation-filters="sRGB">
<feFlood flood-opacity="0" result="BackgroundImageFix"/>
<feBlend mode="normal" in="SourceGraphic" in2="BackgroundImageFix" result="shape"/>
<feColorMatrix in="SourceAlpha" type="matrix" values="0 0 0 0 0 0 0 0 0 0 0 0 0 0 0 0 0 0 127 0" result="hardAlpha"/>
<feOffset/>
<feGaussianBlur stdDeviation="1.95733"/>
<feComposite in2="hardAlpha" operator="arithmetic" k2="-1" k3="1"/>
<feColorMatrix type="matrix" values="0 0 0 0 0 0 0 0 0 0 0 0 0 0 0 0 0 0 0.25 0"/>
<feBlend mode="normal" in2="shape" result="effect1_innerShadow_1032_109292"/>
</filter>
<filter id="filter1_di_1032_109292" x="32.3718" y="129.113" width="13.051" height="14.2333" filterUnits="userSpaceOnUse" color-interpolation-filters="sRGB">
<feFlood flood-opacity="0" result="BackgroundImageFix"/>
<feColorMatrix in="SourceAlpha" type="matrix" values="0 0 0 0 0 0 0 0 0 0 0 0 0 0 0 0 0 0 127 0" result="hardAlpha"/>
<feOffset dy="2.09168"/>
<feGaussianBlur stdDeviation="0.454713"/>
<feColorMatrix type="matrix" values="0 0 0 0 0 0 0 0 0 0 0 0 0 0 0 0 0 0 0.25 0"/>
<feBlend mode="normal" in2="BackgroundImageFix" result="effect1_dropShadow_1032_109292"/>
<feBlend mode="normal" in="SourceGraphic" in2="effect1_dropShadow_1032_109292" result="shape"/>
<feColorMatrix in="SourceAlpha" type="matrix" values="0 0 0 0 0 0 0 0 0 0 0 0 0 0 0 0 0 0 127 0" result="hardAlpha"/>
<feOffset dy="-1.89161"/>
<feComposite in2="hardAlpha" operator="arithmetic" k2="-1" k3="1"/>
<feColorMatrix type="matrix" values="0 0 0 0 0 0 0 0 0 0.0766668 0 0 0 0 0.766667 0 0 0 0.38 0"/>
<feBlend mode="normal" in2="shape" result="effect2_innerShadow_1032_109292"/>
</filter>
<filter id="filter2_di_1032_109292" x="60.1728" y="129.113" width="13.051" height="14.2333" filterUnits="userSpaceOnUse" color-interpolation-filters="sRGB">
<feFlood flood-opacity="0" result="BackgroundImageFix"/>
<feColorMatrix in="SourceAlpha" type="matrix" values="0 0 0 0 0 0 0 0 0 0 0 0 0 0 0 0 0 0 127 0" result="hardAlpha"/>
<feOffset dy="2.09168"/>
<feGaussianBlur stdDeviation="0.454713"/>
<feColorMatrix type="matrix" values="0 0 0 0 0 0 0 0 0 0 0 0 0 0 0 0 0 0 0.25 0"/>
<feBlend mode="normal" in2="BackgroundImageFix" result="effect1_dropShadow_1032_109292"/>
<feBlend mode="normal" in="SourceGraphic" in2="effect1_dropShadow_1032_109292" result="shape"/>
<feColorMatrix in="SourceAlpha" type="matrix" values="0 0 0 0 0 0 0 0 0 0 0 0 0 0 0 0 0 0 127 0" result="hardAlpha"/>
<feOffset dy="-1.89161"/>
<feComposite in2="hardAlpha" operator="arithmetic" k2="-1" k3="1"/>
<feColorMatrix type="matrix" values="0 0 0 0 0 0 0 0 0 0.0766668 0 0 0 0 0.766667 0 0 0 0.38 0"/>
<feBlend mode="normal" in2="shape" result="effect2_innerShadow_1032_109292"/>
</filter>
<filter id="filter3_di_1032_109292" x="86.8506" y="129.113" width="13.051" height="14.2333" filterUnits="userSpaceOnUse" color-interpolation-filters="sRGB">
<feFlood flood-opacity="0" result="BackgroundImageFix"/>
<feColorMatrix in="SourceAlpha" type="matrix" values="0 0 0 0 0 0 0 0 0 0 0 0 0 0 0 0 0 0 127 0" result="hardAlpha"/>
<feOffset dy="2.09168"/>
<feGaussianBlur stdDeviation="0.454713"/>
<feColorMatrix type="matrix" values="0 0 0 0 0 0 0 0 0 0 0 0 0 0 0 0 0 0 0.25 0"/>
<feBlend mode="normal" in2="BackgroundImageFix" result="effect1_dropShadow_1032_109292"/>
<feBlend mode="normal" in="SourceGraphic" in2="effect1_dropShadow_1032_109292" result="shape"/>
<feColorMatrix in="SourceAlpha" type="matrix" values="0 0 0 0 0 0 0 0 0 0 0 0 0 0 0 0 0 0 127 0" result="hardAlpha"/>
<feOffset dy="-1.89161"/>
<feComposite in2="hardAlpha" operator="arithmetic" k2="-1" k3="1"/>
<feColorMatrix type="matrix" values="0 0 0 0 0 0 0 0 0 0.0766668 0 0 0 0 0.766667 0 0 0 0.38 0"/>
<feBlend mode="normal" in2="shape" result="effect2_innerShadow_1032_109292"/>
</filter>
<filter id="filter4_di_1032_109292" x="143.576" y="129.113" width="13.051" height="14.2333" filterUnits="userSpaceOnUse" color-interpolation-filters="sRGB">
<feFlood flood-opacity="0" result="BackgroundImageFix"/>
<feColorMatrix in="SourceAlpha" type="matrix" values="0 0 0 0 0 0 0 0 0 0 0 0 0 0 0 0 0 0 127 0" result="hardAlpha"/>
<feOffset dy="2.09168"/>
<feGaussianBlur stdDeviation="0.454713"/>
<feColorMatrix type="matrix" values="0 0 0 0 0 0 0 0 0 0 0 0 0 0 0 0 0 0 0.25 0"/>
<feBlend mode="normal" in2="BackgroundImageFix" result="effect1_dropShadow_1032_109292"/>
<feBlend mode="normal" in="SourceGraphic" in2="effect1_dropShadow_1032_109292" result="shape"/>
<feColorMatrix in="SourceAlpha" type="matrix" values="0 0 0 0 0 0 0 0 0 0 0 0 0 0 0 0 0 0 127 0" result="hardAlpha"/>
<feOffset dy="-1.89161"/>
<feComposite in2="hardAlpha" operator="arithmetic" k2="-1" k3="1"/>
<feColorMatrix type="matrix" values="0 0 0 0 0 0 0 0 0 0.0766668 0 0 0 0 0.766667 0 0 0 0.38 0"/>
<feBlend mode="normal" in2="shape" result="effect2_innerShadow_1032_109292"/>
</filter>
<filter id="filter5_di_1032_109292" x="115.775" y="129.113" width="13.051" height="14.2333" filterUnits="userSpaceOnUse" color-interpolation-filters="sRGB">
<feFlood flood-opacity="0" result="BackgroundImageFix"/>
<feColorMatrix in="SourceAlpha" type="matrix" values="0 0 0 0 0 0 0 0 0 0 0 0 0 0 0 0 0 0 127 0" result="hardAlpha"/>
<feOffset dy="2.09168"/>
<feGaussianBlur stdDeviation="0.454713"/>
<feColorMatrix type="matrix" values="0 0 0 0 0 0 0 0 0 0 0 0 0 0 0 0 0 0 0.25 0"/>
<feBlend mode="normal" in2="BackgroundImageFix" result="effect1_dropShadow_1032_109292"/>
<feBlend mode="normal" in="SourceGraphic" in2="effect1_dropShadow_1032_109292" result="shape"/>
<feColorMatrix in="SourceAlpha" type="matrix" values="0 0 0 0 0 0 0 0 0 0 0 0 0 0 0 0 0 0 127 0" result="hardAlpha"/>
<feOffset dy="-1.89161"/>
<feComposite in2="hardAlpha" operator="arithmetic" k2="-1" k3="1"/>
<feColorMatrix type="matrix" values="0 0 0 0 0 0 0 0 0 0.0766668 0 0 0 0 0.766667 0 0 0 0.38 0"/>
<feBlend mode="normal" in2="shape" result="effect2_innerShadow_1032_109292"/>
</filter>
<filter id="filter6_di_1032_109292" x="46.5142" y="104.011" width="13.053" height="14.2352" filterUnits="userSpaceOnUse" color-interpolation-filters="sRGB">
<feFlood flood-opacity="0" result="BackgroundImageFix"/>
<feColorMatrix in="SourceAlpha" type="matrix" values="0 0 0 0 0 0 0 0 0 0 0 0 0 0 0 0 0 0 127 0" result="hardAlpha"/>
<feOffset dy="2.09168"/>
<feGaussianBlur stdDeviation="0.454713"/>
<feColorMatrix type="matrix" values="0 0 0 0 0 0 0 0 0 0 0 0 0 0 0 0 0 0 0.25 0"/>
<feBlend mode="normal" in2="BackgroundImageFix" result="effect1_dropShadow_1032_109292"/>
<feBlend mode="normal" in="SourceGraphic" in2="effect1_dropShadow_1032_109292" result="shape"/>
<feColorMatrix in="SourceAlpha" type="matrix" values="0 0 0 0 0 0 0 0 0 0 0 0 0 0 0 0 0 0 127 0" result="hardAlpha"/>
<feOffset dy="-1.89161"/>
<feComposite in2="hardAlpha" operator="arithmetic" k2="-1" k3="1"/>
<feColorMatrix type="matrix" values="0 0 0 0 0 0 0 0 0 0.0766668 0 0 0 0 0.766667 0 0 0 0.38 0"/>
<feBlend mode="normal" in2="shape" result="effect2_innerShadow_1032_109292"/>
</filter>
<filter id="filter7_di_1032_109292" x="60.4148" y="81.0575" width="13.053" height="14.2352" filterUnits="userSpaceOnUse" color-interpolation-filters="sRGB">
<feFlood flood-opacity="0" result="BackgroundImageFix"/>
<feColorMatrix in="SourceAlpha" type="matrix" values="0 0 0 0 0 0 0 0 0 0 0 0 0 0 0 0 0 0 127 0" result="hardAlpha"/>
<feOffset dy="2.09168"/>
<feGaussianBlur stdDeviation="0.454713"/>
<feColorMatrix type="matrix" values="0 0 0 0 0 0 0 0 0 0 0 0 0 0 0 0 0 0 0.25 0"/>
<feBlend mode="normal" in2="BackgroundImageFix" result="effect1_dropShadow_1032_109292"/>
<feBlend mode="normal" in="SourceGraphic" in2="effect1_dropShadow_1032_109292" result="shape"/>
<feColorMatrix in="SourceAlpha" type="matrix" values="0 0 0 0 0 0 0 0 0 0 0 0 0 0 0 0 0 0 127 0" result="hardAlpha"/>
<feOffset dy="-1.89161"/>
<feComposite in2="hardAlpha" operator="arithmetic" k2="-1" k3="1"/>
<feColorMatrix type="matrix" values="0 0 0 0 0 0 0 0 0 0.0766668 0 0 0 0 0.766667 0 0 0 0.38 0"/>
<feBlend mode="normal" in2="shape" result="effect2_innerShadow_1032_109292"/>
</filter>
<filter id="filter8_di_1032_109292" x="74.3154" y="55.8585" width="13.053" height="14.2352" filterUnits="userSpaceOnUse" color-interpolation-filters="sRGB">
<feFlood flood-opacity="0" result="BackgroundImageFix"/>
<feColorMatrix in="SourceAlpha" type="matrix" values="0 0 0 0 0 0 0 0 0 0 0 0 0 0 0 0 0 0 127 0" result="hardAlpha"/>
<feOffset dy="2.09168"/>
<feGaussianBlur stdDeviation="0.454713"/>
<feColorMatrix type="matrix" values="0 0 0 0 0 0 0 0 0 0 0 0 0 0 0 0 0 0 0.25 0"/>
<feBlend mode="normal" in2="BackgroundImageFix" result="effect1_dropShadow_1032_109292"/>
<feBlend mode="normal" in="SourceGraphic" in2="effect1_dropShadow_1032_109292" result="shape"/>
<feColorMatrix in="SourceAlpha" type="matrix" values="0 0 0 0 0 0 0 0 0 0 0 0 0 0 0 0 0 0 127 0" result="hardAlpha"/>
<feOffset dy="-1.89161"/>
<feComposite in2="hardAlpha" operator="arithmetic" k2="-1" k3="1"/>
<feColorMatrix type="matrix" values="0 0 0 0 0 0 0 0 0 0.0766668 0 0 0 0 0.766667 0 0 0 0.38 0"/>
<feBlend mode="normal" in2="shape" result="effect2_innerShadow_1032_109292"/>
</filter>
<filter id="filter9_di_1032_109292" x="88.2156" y="31.7827" width="13.053" height="14.2352" filterUnits="userSpaceOnUse" color-interpolation-filters="sRGB">
<feFlood flood-opacity="0" result="BackgroundImageFix"/>
<feColorMatrix in="SourceAlpha" type="matrix" values="0 0 0 0 0 0 0 0 0 0 0 0 0 0 0 0 0 0 127 0" result="hardAlpha"/>
<feOffset dy="2.09168"/>
<feGaussianBlur stdDeviation="0.454713"/>
<feColorMatrix type="matrix" values="0 0 0 0 0 0 0 0 0 0 0 0 0 0 0 0 0 0 0.25 0"/>
<feBlend mode="normal" in2="BackgroundImageFix" result="effect1_dropShadow_1032_109292"/>
<feBlend mode="normal" in="SourceGraphic" in2="effect1_dropShadow_1032_109292" result="shape"/>
<feColorMatrix in="SourceAlpha" type="matrix" values="0 0 0 0 0 0 0 0 0 0 0 0 0 0 0 0 0 0 127 0" result="hardAlpha"/>
<feOffset dy="-1.89161"/>
<feComposite in2="hardAlpha" operator="arithmetic" k2="-1" k3="1"/>
<feColorMatrix type="matrix" values="0 0 0 0 0 0 0 0 0 0.0766668 0 0 0 0 0.766667 0 0 0 0.38 0"/>
<feBlend mode="normal" in2="shape" result="effect2_innerShadow_1032_109292"/>
</filter>
<filter id="filter10_di_1032_109292" x="74.3149" y="104.011" width="13.053" height="14.2352" filterUnits="userSpaceOnUse" color-interpolation-filters="sRGB">
<feFlood flood-opacity="0" result="BackgroundImageFix"/>
<feColorMatrix in="SourceAlpha" type="matrix" values="0 0 0 0 0 0 0 0 0 0 0 0 0 0 0 0 0 0 127 0" result="hardAlpha"/>
<feOffset dy="2.09168"/>
<feGaussianBlur stdDeviation="0.454713"/>
<feColorMatrix type="matrix" values="0 0 0 0 0 0 0 0 0 0 0 0 0 0 0 0 0 0 0.25 0"/>
<feBlend mode="normal" in2="BackgroundImageFix" result="effect1_dropShadow_1032_109292"/>
<feBlend mode="normal" in="SourceGraphic" in2="effect1_dropShadow_1032_109292" result="shape"/>
<feColorMatrix in="SourceAlpha" type="matrix" values="0 0 0 0 0 0 0 0 0 0 0 0 0 0 0 0 0 0 127 0" result="hardAlpha"/>
<feOffset dy="-1.89161"/>
<feComposite in2="hardAlpha" operator="arithmetic" k2="-1" k3="1"/>
<feColorMatrix type="matrix" values="0 0 0 0 0 0 0 0 0 0.0766668 0 0 0 0 0.766667 0 0 0 0.38 0"/>
<feBlend mode="normal" in2="shape" result="effect2_innerShadow_1032_109292"/>
</filter>
<filter id="filter11_di_1032_109292" x="88.2156" y="81.0575" width="13.053" height="14.2352" filterUnits="userSpaceOnUse" color-interpolation-filters="sRGB">
<feFlood flood-opacity="0" result="BackgroundImageFix"/>
<feColorMatrix in="SourceAlpha" type="matrix" values="0 0 0 0 0 0 0 0 0 0 0 0 0 0 0 0 0 0 127 0" result="hardAlpha"/>
<feOffset dy="2.09168"/>
<feGaussianBlur stdDeviation="0.454713"/>
<feColorMatrix type="matrix" values="0 0 0 0 0 0 0 0 0 0 0 0 0 0 0 0 0 0 0.25 0"/>
<feBlend mode="normal" in2="BackgroundImageFix" result="effect1_dropShadow_1032_109292"/>
<feBlend mode="normal" in="SourceGraphic" in2="effect1_dropShadow_1032_109292" result="shape"/>
<feColorMatrix in="SourceAlpha" type="matrix" values="0 0 0 0 0 0 0 0 0 0 0 0 0 0 0 0 0 0 127 0" result="hardAlpha"/>
<feOffset dy="-1.89161"/>
<feComposite in2="hardAlpha" operator="arithmetic" k2="-1" k3="1"/>
<feColorMatrix type="matrix" values="0 0 0 0 0 0 0 0 0 0.0766668 0 0 0 0 0.766667 0 0 0 0.38 0"/>
<feBlend mode="normal" in2="shape" result="effect2_innerShadow_1032_109292"/>
</filter>
<filter id="filter12_di_1032_109292" x="102.116" y="55.8585" width="13.053" height="14.2352" filterUnits="userSpaceOnUse" color-interpolation-filters="sRGB">
<feFlood flood-opacity="0" result="BackgroundImageFix"/>
<feColorMatrix in="SourceAlpha" type="matrix" values="0 0 0 0 0 0 0 0 0 0 0 0 0 0 0 0 0 0 127 0" result="hardAlpha"/>
<feOffset dy="2.09168"/>
<feGaussianBlur stdDeviation="0.454713"/>
<feColorMatrix type="matrix" values="0 0 0 0 0 0 0 0 0 0 0 0 0 0 0 0 0 0 0.25 0"/>
<feBlend mode="normal" in2="BackgroundImageFix" result="effect1_dropShadow_1032_109292"/>
<feBlend mode="normal" in="SourceGraphic" in2="effect1_dropShadow_1032_109292" result="shape"/>
<feColorMatrix in="SourceAlpha" type="matrix" values="0 0 0 0 0 0 0 0 0 0 0 0 0 0 0 0 0 0 127 0" result="hardAlpha"/>
<feOffset dy="-1.89161"/>
<feComposite in2="hardAlpha" operator="arithmetic" k2="-1" k3="1"/>
<feColorMatrix type="matrix" values="0 0 0 0 0 0 0 0 0 0.0766668 0 0 0 0 0.766667 0 0 0 0.38 0"/>
<feBlend mode="normal" in2="shape" result="effect2_innerShadow_1032_109292"/>
</filter>
<filter id="filter13_di_1032_109292" x="102.116" y="104.011" width="13.053" height="14.2352" filterUnits="userSpaceOnUse" color-interpolation-filters="sRGB">
<feFlood flood-opacity="0" result="BackgroundImageFix"/>
<feColorMatrix in="SourceAlpha" type="matrix" values="0 0 0 0 0 0 0 0 0 0 0 0 0 0 0 0 0 0 127 0" result="hardAlpha"/>
<feOffset dy="2.09168"/>
<feGaussianBlur stdDeviation="0.454713"/>
<feColorMatrix type="matrix" values="0 0 0 0 0 0 0 0 0 0 0 0 0 0 0 0 0 0 0.25 0"/>
<feBlend mode="normal" in2="BackgroundImageFix" result="effect1_dropShadow_1032_109292"/>
<feBlend mode="normal" in="SourceGraphic" in2="effect1_dropShadow_1032_109292" result="shape"/>
<feColorMatrix in="SourceAlpha" type="matrix" values="0 0 0 0 0 0 0 0 0 0 0 0 0 0 0 0 0 0 127 0" result="hardAlpha"/>
<feOffset dy="-1.89161"/>
<feComposite in2="hardAlpha" operator="arithmetic" k2="-1" k3="1"/>
<feColorMatrix type="matrix" values="0 0 0 0 0 0 0 0 0 0.0766668 0 0 0 0 0.766667 0 0 0 0.38 0"/>
<feBlend mode="normal" in2="shape" result="effect2_innerShadow_1032_109292"/>
</filter>
<filter id="filter14_di_1032_109292" x="116.017" y="79.9343" width="13.053" height="14.2352" filterUnits="userSpaceOnUse" color-interpolation-filters="sRGB">
<feFlood flood-opacity="0" result="BackgroundImageFix"/>
<feColorMatrix in="SourceAlpha" type="matrix" values="0 0 0 0 0 0 0 0 0 0 0 0 0 0 0 0 0 0 127 0" result="hardAlpha"/>
<feOffset dy="2.09168"/>
<feGaussianBlur stdDeviation="0.454713"/>
<feColorMatrix type="matrix" values="0 0 0 0 0 0 0 0 0 0 0 0 0 0 0 0 0 0 0.25 0"/>
<feBlend mode="normal" in2="BackgroundImageFix" result="effect1_dropShadow_1032_109292"/>
<feBlend mode="normal" in="SourceGraphic" in2="effect1_dropShadow_1032_109292" result="shape"/>
<feColorMatrix in="SourceAlpha" type="matrix" values="0 0 0 0 0 0 0 0 0 0 0 0 0 0 0 0 0 0 127 0" result="hardAlpha"/>
<feOffset dy="-1.89161"/>
<feComposite in2="hardAlpha" operator="arithmetic" k2="-1" k3="1"/>
<feColorMatrix type="matrix" values="0 0 0 0 0 0 0 0 0 0.0766668 0 0 0 0 0.766667 0 0 0 0.38 0"/>
<feBlend mode="normal" in2="shape" result="effect2_innerShadow_1032_109292"/>
</filter>
<filter id="filter15_di_1032_109292" x="129.917" y="104.011" width="13.053" height="14.2352" filterUnits="userSpaceOnUse" color-interpolation-filters="sRGB">
<feFlood flood-opacity="0" result="BackgroundImageFix"/>
<feColorMatrix in="SourceAlpha" type="matrix" values="0 0 0 0 0 0 0 0 0 0 0 0 0 0 0 0 0 0 127 0" result="hardAlpha"/>
<feOffset dy="2.09168"/>
<feGaussianBlur stdDeviation="0.454713"/>
<feColorMatrix type="matrix" values="0 0 0 0 0 0 0 0 0 0 0 0 0 0 0 0 0 0 0.25 0"/>
<feBlend mode="normal" in2="BackgroundImageFix" result="effect1_dropShadow_1032_109292"/>
<feBlend mode="normal" in="SourceGraphic" in2="effect1_dropShadow_1032_109292" result="shape"/>
<feColorMatrix in="SourceAlpha" type="matrix" values="0 0 0 0 0 0 0 0 0 0 0 0 0 0 0 0 0 0 127 0" result="hardAlpha"/>
<feOffset dy="-1.89161"/>
<feComposite in2="hardAlpha" operator="arithmetic" k2="-1" k3="1"/>
<feColorMatrix type="matrix" values="0 0 0 0 0 0 0 0 0 0.0766668 0 0 0 0 0.766667 0 0 0 0.38 0"/>
<feBlend mode="normal" in2="shape" result="effect2_innerShadow_1032_109292"/>
</filter>
<filter id="filter16_di_1032_109292" x="56.7115" y="126.267" width="18.8797" height="21.8157" filterUnits="userSpaceOnUse" color-interpolation-filters="sRGB">
<feFlood flood-opacity="0" result="BackgroundImageFix"/>
<feColorMatrix in="SourceAlpha" type="matrix" values="0 0 0 0 0 0 0 0 0 0 0 0 0 0 0 0 0 0 127 0" result="hardAlpha"/>
<feOffset dy="3.91467"/>
<feGaussianBlur stdDeviation="0.489334"/>
<feColorMatrix type="matrix" values="0 0 0 0 0 0 0 0 0 0 0 0 0 0 0 0 0 0 0.25 0"/>
<feBlend mode="normal" in2="BackgroundImageFix" result="effect1_dropShadow_1032_109292"/>
<feBlend mode="normal" in="SourceGraphic" in2="effect1_dropShadow_1032_109292" result="shape"/>
<feColorMatrix in="SourceAlpha" type="matrix" values="0 0 0 0 0 0 0 0 0 0 0 0 0 0 0 0 0 0 127 0" result="hardAlpha"/>
<feOffset dy="-3.07386"/>
<feComposite in2="hardAlpha" operator="arithmetic" k2="-1" k3="1"/>
<feColorMatrix type="matrix" values="0 0 0 0 0.625 0 0 0 0 0.015625 0 0 0 0 0.015625 0 0 0 0.43 0"/>
<feBlend mode="normal" in2="shape" result="effect2_innerShadow_1032_109292"/>
</filter>
<linearGradient id="paint0_linear_1032_109292" x1="189" y1="0" x2="-9.37654e-07" y2="195.633" gradientUnits="userSpaceOnUse">
<stop stop-color="#FAFF00"/>
<stop offset="1" stop-color="#FF7A00"/>
</linearGradient>
<linearGradient id="paint1_linear_1032_109292" x1="92.4714" y1="32.3634" x2="94.5687" y2="162.396" gradientUnits="userSpaceOnUse">
<stop stop-color="white" stop-opacity="0"/>
<stop offset="0.478913" stop-color="white" stop-opacity="0.43"/>
<stop offset="1" stop-color="white" stop-opacity="0"/>
</linearGradient>
<radialGradient id="paint2_radial_1032_109292" cx="0" cy="0" r="1" gradientUnits="userSpaceOnUse" gradientTransform="translate(119.488 102.224) rotate(90) scale(114.036)">
<stop stop-color="#00FFE0"/>
<stop offset="1" stop-color="#CA9E03" stop-opacity="0"/>
</radialGradient>
<linearGradient id="paint3_linear_1032_109292" x1="95.2789" y1="12.2842" x2="95.2789" y2="149.175" gradientUnits="userSpaceOnUse">
<stop stop-color="#601AC2"/>
<stop offset="1" stop-color="#A9427A"/>
</linearGradient>
<linearGradient id="paint4_linear_1032_109292" x1="80.8153" y1="36.85" x2="80.8153" y2="134.044" gradientUnits="userSpaceOnUse">
<stop stop-color="#FF597E"/>
<stop offset="1" stop-color="#FFD600" stop-opacity="0.26"/>
</linearGradient>
<clipPath id="clip0_1032_109292">
<path d="M0 22C0 9.84973 9.84974 0 22 0H167C179.15 0 189 9.84974 189 22V167C189 179.15 179.15 189 167 189H22C9.84973 189 0 179.15 0 167V22Z" fill="white"/>
</clipPath>
</defs>
</svg>
