<svg width="21" height="21" viewBox="0 0 21 21" fill="none" xmlns="http://www.w3.org/2000/svg">
<path d="M5.25 12.688C5.25 12.9201 5.15781 13.1426 4.99372 13.3067C4.82962 13.4708 4.60706 13.563 4.375 13.563C4.14294 13.563 3.92038 13.4708 3.75628 13.3067C3.59219 13.1426 3.5 12.9201 3.5 12.688V8.75049C3.5 8.51842 3.59219 8.29586 3.75628 8.13177C3.92038 7.96768 4.14294 7.87549 4.375 7.87549C4.60706 7.87549 4.82962 7.96768 4.99372 8.13177C5.15781 8.29586 5.25 8.51842 5.25 8.75049V12.688Z" fill="#86F95E"/>
<path d="M17.5 12.688C17.5 12.9201 17.4078 13.1426 17.2437 13.3067C17.0796 13.4708 16.8571 13.563 16.625 13.563C16.3929 13.563 16.1704 13.4708 16.0063 13.3067C15.8422 13.1426 15.75 12.9201 15.75 12.688V8.75049C15.75 8.51842 15.8422 8.29586 16.0063 8.13177C16.1704 7.96768 16.3929 7.87549 16.625 7.87549C16.8571 7.87549 17.0796 7.96768 17.2437 8.13177C17.4078 8.29586 17.5 8.51842 17.5 8.75049V12.688Z" fill="#86F95E"/>
<path d="M9.625 17.5C9.625 17.7321 9.53281 17.9546 9.36872 18.1187C9.20462 18.2828 8.98206 18.375 8.75 18.375C8.51794 18.375 8.29538 18.2828 8.13128 18.1187C7.96719 17.9546 7.875 17.7321 7.875 17.5V13.5625C7.875 13.3304 7.96719 13.1079 8.13128 12.9438C8.29538 12.7797 8.51794 12.6875 8.75 12.6875C8.98206 12.6875 9.20462 12.7797 9.36872 12.9438C9.53281 13.1079 9.625 13.3304 9.625 13.5625V17.5Z" fill="#86F95E"/>
<path d="M13.125 17.5C13.125 17.7321 13.0328 17.9546 12.8687 18.1187C12.7046 18.2828 12.4821 18.375 12.25 18.375C12.0179 18.375 11.7954 18.2828 11.6313 18.1187C11.4672 17.9546 11.375 17.7321 11.375 17.5V13.5625C11.375 13.3304 11.4672 13.1079 11.6313 12.9438C11.7954 12.7797 12.0179 12.6875 12.25 12.6875C12.4821 12.6875 12.7046 12.7797 12.8687 12.9438C13.0328 13.1079 13.125 13.3304 13.125 13.5625V17.5Z" fill="#86F95E"/>
<path d="M6.125 7.87549V14.4376C6.125 14.6696 6.21719 14.8922 6.38128 15.0563C6.54538 15.2204 6.76794 15.3126 7 15.3126H14C14.2321 15.3126 14.4546 15.2204 14.6187 15.0563C14.7828 14.8922 14.875 14.6696 14.875 14.4376V7.87549H6.125Z" fill="#86F95E"/>
<path d="M10.5 3.5C7.875 3.5 6.27594 5.09469 6.125 7H14.875C14.7236 5.09469 13.125 3.5 10.5 3.5ZM8.75 5.94912C8.63397 5.94912 8.52269 5.90303 8.44064 5.82098C8.35859 5.73894 8.3125 5.62766 8.3125 5.51162C8.3125 5.39559 8.35859 5.28431 8.44064 5.20227C8.52269 5.12022 8.63397 5.07412 8.75 5.07412C8.86603 5.07412 8.97731 5.12022 9.05936 5.20227C9.14141 5.28431 9.1875 5.39559 9.1875 5.51162C9.1875 5.62766 9.14141 5.73894 9.05936 5.82098C8.97731 5.90303 8.86603 5.94912 8.75 5.94912ZM12.25 5.94912C12.134 5.94912 12.0227 5.90303 11.9406 5.82098C11.8586 5.73894 11.8125 5.62766 11.8125 5.51162C11.8125 5.39559 11.8586 5.28431 11.9406 5.20227C12.0227 5.12022 12.134 5.07412 12.25 5.07412C12.366 5.07412 12.4773 5.12022 12.5594 5.20227C12.6414 5.28431 12.6875 5.39559 12.6875 5.51162C12.6875 5.62766 12.6414 5.73894 12.5594 5.82098C12.4773 5.90303 12.366 5.94912 12.25 5.94912Z" fill="#86F95E"/>
<path fill-rule="evenodd" clip-rule="evenodd" d="M13.6545 2.26833C14.0931 2.56076 14.2117 3.1534 13.9192 3.59205L13.1904 4.68536C12.8979 5.124 12.3053 5.24253 11.8666 4.9501C11.428 4.65767 11.3095 4.06502 11.6019 3.62638L12.3308 2.53307C12.6232 2.09443 13.2159 1.9759 13.6545 2.26833Z" fill="#86F95E"/>
<path fill-rule="evenodd" clip-rule="evenodd" d="M7.3603 2.25856C7.80428 1.9743 8.39463 2.10378 8.67889 2.54776L9.26208 3.45863C9.54634 3.90261 9.41686 4.49296 8.97288 4.77722C8.5289 5.06148 7.93855 4.932 7.65429 4.48802L7.0711 3.57715C6.78684 3.13317 6.91632 2.54281 7.3603 2.25856Z" fill="#86F95E"/>
</svg>
