<svg width="15" height="19" viewBox="0 0 15 19" fill="none" xmlns="http://www.w3.org/2000/svg">
<path d="M12.3275 9.98603C12.3193 8.5874 12.953 7.5333 14.2327 6.75605C13.517 5.73066 12.4342 5.1667 11.0068 5.05801C9.65537 4.95137 8.17676 5.84551 7.63535 5.84551C7.06318 5.84551 5.75479 5.09492 4.72529 5.09492C2.60068 5.12773 0.342773 6.78887 0.342773 10.1686C0.342773 11.1673 0.525293 12.1988 0.890332 13.2611C1.37842 14.6598 3.13799 18.0866 4.97344 18.0312C5.9332 18.0087 6.61201 17.3504 7.86094 17.3504C9.07295 17.3504 9.70049 18.0312 10.771 18.0312C12.6229 18.0046 14.2143 14.8895 14.6777 13.4867C12.1942 12.3157 12.3275 10.0578 12.3275 9.98603ZM10.1722 3.73115C11.2119 2.49658 11.1176 1.37275 11.0868 0.96875C10.1681 1.02207 9.10576 1.59424 8.50078 2.29766C7.83428 3.05234 7.44258 3.98545 7.52666 5.0375C8.51924 5.11338 9.42568 4.60273 10.1722 3.73115Z" fill="white"/>
</svg>
