<svg width="50" height="49" viewBox="0 0 50 49" fill="none" xmlns="http://www.w3.org/2000/svg">
<g filter="url(#filter0_d_844_19425)">
<path d="M27.7318 35.3809C33.7986 33.7139 37.4472 27.5037 35.8811 21.51C34.315 15.5163 28.1272 12.0088 22.0603 13.6758C15.9935 15.3428 12.3449 21.5531 13.911 27.5468C15.4771 33.5405 21.6649 37.048 27.7318 35.3809Z" fill="#FFBB03"/>
</g>
<path d="M20.2121 19.8011C20.6201 19.799 21.0192 19.7627 21.4272 19.7607C21.8352 19.7587 22.2343 19.7224 22.6423 19.7204C22.7552 19.726 22.7809 19.6823 22.7887 19.5701C22.7753 18.95 22.7707 18.3641 22.7573 17.744C22.7651 17.6318 22.7908 17.5881 22.9037 17.5937C23.2771 17.6012 23.6069 17.584 23.9713 17.5572C24.0842 17.5629 24.0931 17.5971 24.0764 17.6751C24.0809 18.261 24.0943 18.8811 24.0989 19.4669C24.1078 19.5012 24.1167 19.5354 24.1 19.6134C24.3951 19.6057 24.7249 19.5885 25.02 19.5808C25.0546 19.5712 25.0714 19.4932 25.0971 19.4495C25.0848 18.9759 25.0814 18.5365 25.1037 18.0533L25.1003 17.6139C25.0824 17.5455 25.1081 17.5017 25.1864 17.5169C25.5598 17.5244 25.9242 17.4976 26.3322 17.4956C26.3669 17.4861 26.3758 17.5203 26.4105 17.5108C26.4228 17.9844 26.4262 18.4238 26.4296 18.8632C26.4396 19.0439 26.4497 19.2246 26.4251 19.4148C26.4173 19.527 26.4609 19.5518 26.5738 19.5574L27.8516 19.7567C28.2518 19.8669 28.6352 20.0551 28.9672 20.3308C29.4133 20.7587 29.5911 21.2969 29.5956 21.8827C29.59 22.2879 29.5409 22.6683 29.3352 23.0184C29.181 23.2809 28.9395 23.494 28.6891 23.6729C28.6545 23.6824 28.6288 23.7262 28.5595 23.7452C28.7249 23.8099 28.8814 23.8403 29.0469 23.9049C29.5432 24.0987 29.9188 24.3991 30.1827 24.8403C30.3504 25.1979 30.4231 25.6182 30.4175 26.0234C30.4041 26.5408 30.3382 26.9992 30.1247 27.4615C29.8599 28.0113 29.4373 28.3842 28.9008 28.605C28.1999 28.9077 27.4889 29.0297 26.769 29.1174C26.6561 29.1117 26.5958 29.165 26.588 29.2772C26.5925 29.8631 26.6059 30.4832 26.6104 31.069C26.6116 31.2155 26.6205 31.2497 26.4294 31.2289C26.0996 31.2461 25.7262 31.2386 25.3965 31.2558C25.2835 31.2502 25.2746 31.2159 25.2914 31.1379C25.2779 30.5178 25.2644 29.8978 25.2946 29.3024C25.2767 29.2339 25.3024 29.1902 25.2241 29.175C24.929 29.1827 24.6339 29.1904 24.3041 29.2076C24.3153 29.5348 24.2919 29.8714 24.3031 30.1986C24.3143 30.5258 24.2909 30.8624 24.3021 31.1896C24.2853 31.2676 24.2942 31.3018 24.1813 31.2962C23.808 31.2887 23.4435 31.3154 23.0791 31.3422C22.9662 31.3365 22.9573 31.3023 22.974 31.2243C22.9606 30.6042 22.9471 29.9841 22.9773 29.3887C22.9683 29.3545 22.994 29.3107 22.9761 29.2423C22.1254 29.2559 21.2747 29.2694 20.3894 29.2926C20.4229 29.1366 20.4307 29.0243 20.4643 28.8684C20.5224 28.5222 20.5805 28.176 20.6129 27.8735C20.6207 27.7613 20.6553 27.7518 20.7593 27.7232C21.0197 27.725 21.3149 27.7173 21.5664 27.6849C21.8615 27.6772 22.0336 27.4831 22.0057 27.2339C21.9999 25.3642 21.9942 23.4944 21.9449 21.5999C21.9426 21.307 21.6889 21.0465 21.3501 21.0295C21.0114 21.0124 20.6817 21.0297 20.3865 21.0374C20.3172 21.0564 20.2736 21.0317 20.2904 20.9537C20.296 20.5486 20.2926 20.1092 20.2981 19.704C20.1864 19.8448 20.1864 19.8448 20.2121 19.8011ZM24.1889 27.7715C24.2236 27.762 24.2672 27.7867 24.2672 27.7867C24.8574 27.7713 25.4912 27.7806 26.0893 27.653C26.514 27.573 26.8952 27.4682 27.2406 27.2265C27.8454 26.8402 27.899 25.9082 27.3746 25.4651C27.1298 25.2389 26.8079 25.1439 26.4859 25.0489C25.7727 24.8779 25.0092 24.9409 24.2804 24.9944C24.1675 24.9887 24.1764 25.023 24.1686 25.1352C24.1887 25.4966 24.1653 25.8333 24.1854 26.1947C24.1721 26.7121 24.1933 27.2199 24.1889 27.7715ZM26.1873 23.4797C26.2566 23.4607 26.421 23.3788 26.5506 23.3065C27.1732 22.9887 27.323 22.1403 26.8244 21.6535C26.5706 21.393 26.205 21.2733 25.8574 21.222C25.3186 21.1499 24.8066 21.1805 24.251 21.1864C24.1381 21.1807 24.1124 21.2245 24.1046 21.3367C24.1192 22.1033 24.1248 22.8356 24.1048 23.6116C24.088 23.6896 24.1316 23.7143 24.2098 23.7295C24.3574 23.7257 24.4703 23.7314 24.6179 23.7275C25.1555 23.6531 25.6329 23.6321 26.1873 23.4797Z" fill="white"/>
<defs>
<filter id="filter0_d_844_19425" x="0.548157" y="0.260986" width="48.6958" height="48.5348" filterUnits="userSpaceOnUse" color-interpolation-filters="sRGB">
<feFlood flood-opacity="0" result="BackgroundImageFix"/>
<feColorMatrix in="SourceAlpha" type="matrix" values="0 0 0 0 0 0 0 0 0 0 0 0 0 0 0 0 0 0 127 0" result="hardAlpha"/>
<feOffset/>
<feGaussianBlur stdDeviation="6.5"/>
<feComposite in2="hardAlpha" operator="out"/>
<feColorMatrix type="matrix" values="0 0 0 0 0.960784 0 0 0 0 0.701961 0 0 0 0 0 0 0 0 0.5 0"/>
<feBlend mode="normal" in2="BackgroundImageFix" result="effect1_dropShadow_844_19425"/>
<feBlend mode="normal" in="SourceGraphic" in2="effect1_dropShadow_844_19425" result="shape"/>
</filter>
</defs>
</svg>
