<svg width="27" height="27" viewBox="0 0 27 27" fill="none" xmlns="http://www.w3.org/2000/svg">
<path fill-rule="evenodd" clip-rule="evenodd" d="M9.64286 4.5H17.3571C18.0391 4.5 18.6932 4.77092 19.1754 5.25315C19.6577 5.73539 19.9286 6.38944 19.9286 7.07143V19.9286C19.9286 20.6106 19.6577 21.2646 19.1754 21.7468C18.6932 22.2291 18.0391 22.5 17.3571 22.5H9.64286C8.96087 22.5 8.30682 22.2291 7.82458 21.7468C7.34234 21.2646 7.07143 20.6106 7.07143 19.9286V7.07143C7.07143 6.38944 7.34234 5.73539 7.82458 5.25315C8.30682 4.77092 8.96087 4.5 9.64286 4.5V4.5Z" stroke="#484B5C" stroke-linecap="round" stroke-linejoin="round"/>
<path d="M10.9286 19.9286H16.0714" stroke="#484B5C" stroke-linecap="round" stroke-linejoin="round"/>
</svg>
