<svg width="32" height="32" viewBox="0 0 32 32" fill="none" xmlns="http://www.w3.org/2000/svg">
<mask id="mask0_844_18200" style="mask-type:alpha" maskUnits="userSpaceOnUse" x="0" y="0" width="32" height="32">
<circle cx="16" cy="16" r="16" fill="#D9E3FF"/>
</mask>
<g mask="url(#mask0_844_18200)">
<circle cx="16" cy="16" r="16" fill="#7D00E7"/>
<path d="M24.4032 17.061C24.4032 15.1936 23.9363 4.92308 16 4.92308C8.06364 4.92308 7.59677 15.1936 7.59677 17.061C7.59677 21.2626 6.19623 23.13 6.19623 23.13C8.99731 26.3979 13.6657 24.1395 13.6657 23.13H16H18.3342C18.3342 24.1395 23.0026 26.3979 25.8037 23.13C25.8037 23.13 24.4032 21.2626 24.4032 17.061Z" fill="#FFD600"/>
<path d="M19.2678 23.0542V20.7957H12.732V23.0542C12.732 23.6571 12.3463 24.1923 11.7743 24.3829L7.32538 25.8658C6.37224 26.1836 5.72937 27.0756 5.72937 28.0803V31.0663C5.72937 31.582 6.14737 32 6.66305 32H25.3368C25.8524 32 26.2704 31.582 26.2704 31.0663V28.0803C26.2704 27.0756 25.6275 26.1836 24.6744 25.8658L20.2254 24.3829C19.6536 24.1922 19.2678 23.657 19.2678 23.0542Z" fill="#E6AF78"/>
<path d="M12.7321 23.0542C12.7321 23.6193 12.3908 24.1211 11.8774 24.3392C17.1088 25.2307 19.2665 21.496 19.2665 21.496L19.268 21.495V20.7957H12.7321V23.0542Z" fill="#D29B6E"/>
<path d="M9.93103 10.5252V12.538C9.93103 13.3744 9.96313 14.2105 10.0273 15.0444L10.2963 18.5416C10.3606 19.3775 10.796 20.1407 11.4828 20.6215L14.3019 22.5949C14.7994 22.9431 15.392 23.1299 15.9993 23.1299H16.0006C16.6079 23.1299 17.2005 22.9432 17.698 22.5949L20.5172 20.6215C21.204 20.1407 21.6394 19.3775 21.7036 18.5416L21.9726 15.0444C22.0368 14.2105 22.0689 13.3744 22.0689 12.538V10.5252H9.93103Z" fill="#F0C087"/>
<path d="M22.0339 10.5252H9.93091V12.5382C9.93091 12.7976 9.93969 13.0568 9.94582 13.3161V13.3162C9.95323 13.628 9.96507 13.9395 9.98141 14.2509V14.251V14.2511C9.99532 14.5156 10.0069 14.7802 10.0272 15.0444L10.2962 18.5416C10.3605 19.3775 10.7959 20.1407 11.4827 20.6215L14.3019 22.5949C14.7994 22.9431 15.3919 23.1299 15.9992 23.1299C15.25 23.1299 14.4267 21.8403 13.9101 20.8624C13.5698 20.2182 13.3882 19.5041 13.3746 18.7757L13.2957 14.5487C13.2895 14.2126 13.533 13.9266 13.8643 13.8691C16.3678 13.4346 18.3552 12.7247 19.4912 12.223C20.3919 13.7117 21.5781 14.157 21.7318 14.2096L21.8787 14.2598H22.0178C22.0342 13.9487 22.0462 13.6376 22.0538 13.3261L22.0339 10.5252Z" fill="#E6AF78"/>
<path d="M9.02664 15.9275L9.5539 18.0363C9.61636 18.2862 9.84085 18.4614 10.0984 18.4614C10.3815 18.4614 10.6202 18.2506 10.6553 17.9698L10.9249 15.8129C10.997 15.2362 10.5472 14.7267 9.96598 14.7267H9.96418C9.33549 14.7267 8.87417 15.3176 9.02664 15.9275Z" fill="#E6AF78"/>
<path d="M22.9734 15.9275L22.4461 18.0363C22.3837 18.2862 22.1592 18.4614 21.9016 18.4614C21.6185 18.4614 21.3798 18.2506 21.3447 17.9698L21.0751 15.8129C21.0031 15.2362 21.4528 14.7267 22.034 14.7267H22.0358C22.6645 14.7267 23.1258 15.3176 22.9734 15.9275Z" fill="#F0C087"/>
<path d="M9.46411 10.0583V13.3262C14.995 13.3262 19.2054 11.4007 19.9105 10.9752C20.6684 12.8593 22.0339 13.3262 22.0339 13.3262H22.5358V10.0583H9.46411Z" fill="#FFD600"/>
<path d="M8.99731 25.3085V32H13.6658C11.3793 29.7135 10.3375 26.1839 10.0317 24.9638L8.99731 25.3085Z" fill="#FF1F00"/>
<path d="M23.0025 25.3085V32H18.3341C20.6206 29.7135 21.6624 26.1839 21.9682 24.9638L23.0025 25.3085Z" fill="#FF1F00"/>
<path d="M15.9999 30.5995C15.7421 30.5995 15.5331 30.8085 15.5331 31.0663V32H16.4668V31.0663C16.4668 30.8085 16.2578 30.5995 15.9999 30.5995Z" fill="#D29B6E"/>
<path d="M16 26.3978C13.7997 26.3978 11.991 25.4848 11.6016 24.1775C11.528 23.9304 11.6686 23.6704 11.9157 23.5968C12.1626 23.5233 12.4228 23.6638 12.4964 23.911C12.786 24.8832 14.5052 25.4642 16 25.4642C17.4949 25.4642 19.2141 24.8832 19.5037 23.911C19.5773 23.6639 19.8374 23.5235 20.0844 23.5968C20.3315 23.6705 20.4721 23.9304 20.3985 24.1775C20.0091 25.4848 18.2003 26.3978 16 26.3978Z" fill="#FFD600"/>
<path d="M16 28.7321C16.7735 28.7321 17.4006 28.1051 17.4006 27.3316C17.4006 26.5581 16.7735 25.931 16 25.931C15.2265 25.931 14.5995 26.5581 14.5995 27.3316C14.5995 28.1051 15.2265 28.7321 16 28.7321Z" fill="#FFD600"/>
<path d="M15.9999 28.0318C16.3867 28.0318 16.7002 27.7183 16.7002 27.3316C16.7002 26.9448 16.3867 26.6313 15.9999 26.6313C15.6132 26.6313 15.2997 26.9448 15.2997 27.3316C15.2997 27.7183 15.6132 28.0318 15.9999 28.0318Z" fill="#FF1F00"/>
<path d="M16.3938 27.7984C16.0071 27.7984 15.6936 27.4849 15.6936 27.0982C15.6936 26.9244 15.7592 26.7674 15.864 26.645C15.5424 26.7084 15.2997 26.9914 15.2997 27.3316C15.2997 27.7184 15.6132 28.0319 15.9999 28.0319C16.2128 28.0319 16.4013 27.9348 16.5298 27.7848C16.4857 27.7934 16.4404 27.7984 16.3938 27.7984Z" fill="#D2555A"/>
</g>
</svg>
