<svg width="32" height="33" viewBox="0 0 32 33" fill="none" xmlns="http://www.w3.org/2000/svg">
<mask id="mask0_844_18240" style="mask-type:alpha" maskUnits="userSpaceOnUse" x="0" y="0" width="32" height="33">
<ellipse cx="16" cy="16.8001" rx="16" ry="16" fill="#D9E3FF"/>
</mask>
<g mask="url(#mask0_844_18240)">
<ellipse cx="16" cy="16.8001" rx="16" ry="16" fill="#FF5C00"/>
<path d="M20.2016 24.1242V21.5958H11.7984V24.1242C11.7984 24.5575 11.5003 24.9338 11.0786 25.0331L5.30174 26.3924C4.45823 26.5908 3.86206 27.3435 3.86206 28.21V31.8664C3.86206 32.382 4.28006 32.8 4.79574 32.8H27.2042C27.7199 32.8 28.1379 32.382 28.1379 31.8664V28.21C28.1379 27.3435 27.5417 26.5908 26.6982 26.3923L20.9214 25.0331C20.4997 24.9338 20.2016 24.5575 20.2016 24.1242Z" fill="#E6AF78"/>
<path d="M26.6982 26.3923L22.0662 25.3024L21.6021 24.8637L20.6788 24.9354L16 27.6648L11.5036 24.8035L10.3979 24.8638L10.3978 25.1933L5.30174 26.3924C4.45823 26.5909 3.86206 27.3435 3.86206 28.2101V31.8664C3.86206 32.3821 4.28006 32.8001 4.79574 32.8001H27.2042C27.7199 32.8001 28.1379 32.3821 28.1379 31.8664V28.2101C28.1379 27.3435 27.5417 26.5908 26.6982 26.3923Z" fill="#212530"/>
<path d="M10.3979 24.8637L13.199 32.8001H18.8012L21.6022 24.8637L16.0001 27.6648L10.3979 24.8637Z" fill="#D7DEED"/>
<path d="M17.1671 32.8H14.8329L15.222 28.5985H16.778L17.1671 32.8Z" fill="#5B5D6E"/>
<path d="M11.7985 24.1242C11.7985 24.4377 11.6412 24.7195 11.3953 24.8901C16.9338 27.6648 20.2017 22.178 20.2017 22.178V21.5958H11.7985V24.1242Z" fill="#D29B6E"/>
<path d="M9.93103 10.8584L10.3378 19.8084C10.3758 20.6445 10.7858 21.4199 11.4553 21.9221L13.3857 23.3698C13.8706 23.7334 14.4602 23.93 15.0663 23.93H16.9336C17.5397 23.93 18.1294 23.7334 18.6143 23.3698L20.5445 21.9221C21.2141 21.4199 21.6241 20.6445 21.6621 19.8084L22.0689 10.8584H9.93103Z" fill="#F0C087"/>
<path d="M9.93103 10.8584L10.3378 19.8084C10.3758 20.6445 10.7858 21.4199 11.4554 21.9221L13.3857 23.3698C13.8706 23.7335 14.4602 23.93 15.0663 23.93H16C14.5995 23.4631 13.6658 19.7284 13.6658 19.7284V14.6333C13.6658 14.2823 13.9335 13.9937 14.2829 13.9599C16.8979 13.7066 19.8527 13.0499 22.069 11.5003V10.8584H9.93103Z" fill="#E6AF78"/>
<path d="M8.99744 10.3916V10.8585L9.4643 15.9937H10.398L11.3317 13.1926C11.3317 13.1926 17.4006 13.1926 20.6685 11.3253L21.6022 15.9937H22.5359L23.0028 10.8585V10.3916C23.0028 7.81328 20.9127 5.72318 18.3343 5.72318H13.6659C11.0875 5.72318 8.99744 7.81328 8.99744 10.3916Z" fill="#212530"/>
<path d="M22.9734 16.7276L22.4461 18.8364C22.3837 19.0863 22.1592 19.2616 21.9016 19.2616C21.6185 19.2616 21.3798 19.0508 21.3447 18.7699L21.0751 16.613C21.0031 16.0363 21.4528 15.5269 22.034 15.5269H22.0358C22.6645 15.5269 23.1259 16.1177 22.9734 16.7276Z" fill="#F0C087"/>
<path d="M9.02676 16.7276L9.55402 18.8364C9.61648 19.0863 9.84097 19.2616 10.0985 19.2616C10.3816 19.2616 10.6203 19.0508 10.6555 18.7699L10.9251 16.613C10.9971 16.0363 10.5473 15.5269 9.9661 15.5269H9.9643C9.33561 15.5269 8.87429 16.1177 9.02676 16.7276Z" fill="#E6AF78"/>
<path d="M7.28935 29.7702L4.2642 27.0528C4.01072 27.3737 3.86206 27.7777 3.86206 28.2101V31.8664C3.86206 32.382 4.28006 32.8 4.79574 32.8H8.06364V31.5067C8.06369 30.8442 7.78219 30.2129 7.28935 29.7702Z" fill="#212530"/>
<path d="M24.7107 29.7702L27.7359 27.0528C27.9894 27.3737 28.138 27.7777 28.138 28.2101V31.8664C28.138 32.382 27.72 32.8 27.2044 32.8H23.9365V31.5067C23.9364 30.8442 24.2179 30.2129 24.7107 29.7702Z" fill="#212530"/>
<path d="M16.7003 27.6649H15.2998C15.0419 27.6649 14.8329 27.8739 14.8329 28.1317V29.0654C14.8329 29.3232 15.0419 29.5323 15.2998 29.5323H16.7003C16.9581 29.5323 17.1672 29.3232 17.1672 29.0654V28.1317C17.1672 27.8739 16.9581 27.6649 16.7003 27.6649Z" fill="#65687A"/>
<path d="M11.7329 23.8243L16.0001 27.6648C16.0001 27.6648 14.805 28.2681 13.3303 29.484C13.0261 29.7349 12.5659 29.6333 12.4028 29.2743L10.3979 24.8637L11.0321 23.9124C11.1901 23.6756 11.5213 23.634 11.7329 23.8243Z" fill="#E4EAF6"/>
<path d="M20.2672 23.8243L16 27.6648C16 27.6648 17.1951 28.2681 18.6698 29.484C18.974 29.7349 19.4342 29.6333 19.5973 29.2743L21.6021 24.8637L20.9679 23.9124C20.81 23.6756 20.4787 23.634 20.2672 23.8243Z" fill="#E4EAF6"/>
<path d="M13.199 32.8001L10.3979 24.8638L9.27116 25.2394C9.10341 25.2953 8.98167 25.4412 8.9566 25.6162L8.56964 28.3248C8.54553 28.4936 8.61534 28.6621 8.75173 28.7643L10.0446 29.734C10.2429 29.8827 10.2905 30.1603 10.153 30.3665L9.63686 31.1406C9.53236 31.2974 9.53236 31.5017 9.63686 31.6585L10.398 32.8001H13.199Z" fill="#3D4049"/>
<path d="M18.8011 32.8001L21.6022 24.8638L22.7289 25.2394C22.8967 25.2953 23.0184 25.4412 23.0435 25.6162L23.4305 28.3248C23.4546 28.4936 23.3848 28.6621 23.2484 28.7643L21.9554 29.734C21.7572 29.8827 21.7096 30.1603 21.8471 30.3665L22.3632 31.1406C22.4677 31.2974 22.4677 31.5017 22.3632 31.6585L21.6021 32.8001H18.8011Z" fill="#3D4049"/>
<path d="M21.6022 15.06H16.9337C16.6759 15.06 16.4669 15.2691 16.4669 15.5269H15.5332C15.5332 15.2691 15.3241 15.06 15.0663 15.06H10.3979C10.1401 15.06 9.93103 15.2691 9.93103 15.5269C9.93103 15.7847 10.1401 15.9938 10.3979 15.9938H10.9981L11.2171 17.5264C11.2828 17.9863 11.6768 18.328 12.1414 18.328H14.3374C14.7659 18.328 15.1393 18.0364 15.2432 17.6207L15.42 16.9136C15.4865 16.6474 15.7258 16.4606 16.0001 16.4607C16.2744 16.4607 16.5135 16.6474 16.5801 16.9136L16.7568 17.6208C16.8608 18.0364 17.2342 18.328 17.6627 18.328H19.8586C20.3233 18.328 20.7172 17.9863 20.783 17.5264L21.0019 15.9938H21.6021C21.8599 15.9938 22.069 15.7847 22.069 15.5269C22.0691 15.269 21.86 15.06 21.6022 15.06Z" fill="#212530"/>
</g>
</svg>
