<svg width="32" height="33" viewBox="0 0 32 33" fill="none" xmlns="http://www.w3.org/2000/svg">
<g clip-path="url(#clip0_844_18147)">
<path d="M6.8183 24.0784L2.85718 29.1715L7.42855 28.6001L8.57143 32.6001L12.5714 27.4572L12.5897 27.4337C11.7977 26.6343 10.9303 25.9137 10.0001 25.2806C8.98055 24.7784 7.91487 24.3761 6.8183 24.0784Z" fill="#FF7D47"/>
<path d="M25.1817 24.0784C24.0851 24.3755 23.0194 24.7772 22 25.2784C21.0697 25.9109 20.2029 26.6321 19.4109 27.4315L23.4286 32.6001L24.5715 28.6001L29.1429 29.1715L25.1817 24.0784Z" fill="#FF7D47"/>
<path d="M28 14.8857C28 12.4914 29.492 9.67429 28.3731 7.74285C27.2195 5.74804 23.9943 5.64635 22 4.4926C20.0669 3.37204 18.3943 0.600037 16 0.600037C13.6057 0.600037 11.9331 3.3726 10 4.49091C8.00515 5.64522 4.78058 5.74804 3.6269 7.74122C2.50802 9.67435 4.00002 12.4915 4.00002 14.8857C4.00002 17.28 2.50802 20.0972 3.6269 22.0286C4.78058 24.0235 8.00577 24.1252 10 25.2789C11.9331 26.3995 13.6057 29.1715 16 29.1715C18.3943 29.1715 20.0669 26.3989 22 25.2806C23.9949 24.1263 27.2195 24.0235 28.3731 22.0303C29.492 20.0972 28 17.28 28 14.8857Z" fill="#FFA681"/>
<path d="M16 24.6C21.3651 24.6 25.7143 20.2508 25.7143 14.8857C25.7143 9.52066 21.3651 5.17142 16 5.17142C10.635 5.17142 6.28571 9.52066 6.28571 14.8857C6.28571 20.2508 10.635 24.6 16 24.6Z" fill="#FCD8C9"/>
<path d="M21.6697 12.6001H17.7537L16.5434 8.87605C16.445 8.57605 16.1217 8.41318 15.8222 8.51149C15.6497 8.56805 15.5142 8.70349 15.4577 8.87605L14.2463 12.6001H10.3303C10.0149 12.6001 9.75885 12.8561 9.75885 13.1715C9.75885 13.3544 9.84629 13.5264 9.99429 13.6338L13.1623 15.9361L11.952 19.6607C11.8543 19.9607 12.0189 20.283 12.3189 20.3807C12.4932 20.4373 12.6834 20.407 12.8314 20.2996L16 17.9972L19.168 20.2989C19.4234 20.4846 19.7805 20.428 19.9663 20.1726C20.0737 20.0246 20.104 19.8337 20.0474 19.66L18.8371 15.9354L22.0051 13.6331C22.26 13.4474 22.316 13.0897 22.1302 12.8348C22.0229 12.6875 21.852 12.6006 21.6697 12.6001Z" fill="#FF7D47"/>
<path d="M28.3731 7.74293C28.3485 7.70005 28.316 7.66349 28.2914 7.62292C27.4503 9.22405 26.4531 10.7378 25.3143 12.1429C26.8308 17.2858 23.8908 22.6846 18.748 24.2012C15.3685 25.1972 11.7143 24.2847 9.19997 21.8161C7.48628 22.1464 5.74509 22.3132 3.99997 22.3144C3.93828 22.3144 3.87828 22.3104 3.81653 22.3099C5.10053 24.0344 8.10222 24.1835 9.99997 25.2813C11.9331 26.399 13.6057 29.1716 16 29.1716C18.3943 29.1716 20.0668 26.399 22 25.2807C23.9948 24.1264 27.2194 24.0236 28.3731 22.0304C29.492 20.0973 28 17.2801 28 14.8859C28 12.4916 29.492 9.67436 28.3731 7.74293Z" fill="#FF7D47"/>
<path d="M19.3783 17.5995L20.048 19.66C20.1457 19.96 19.9811 20.2824 19.6811 20.38C19.5068 20.4366 19.3166 20.4064 19.1686 20.2989L17.2486 18.9035C14.7354 20.2932 12.0182 21.2766 9.19824 21.8178C13.0194 25.5784 19.1651 25.5292 22.9251 21.7081C25.4017 19.1915 26.3166 15.5287 25.3142 12.143C23.6137 14.2429 21.6137 16.0812 19.3783 17.5995Z" fill="#FFA681"/>
<path d="M20.048 19.6601L19.3783 17.5995C18.6903 18.0664 17.9806 18.5012 17.2486 18.9035L19.1686 20.2989C19.424 20.4846 19.7812 20.4281 19.9669 20.1726C20.0743 20.0246 20.1045 19.8344 20.048 19.6601Z" fill="#FF5914"/>
<path d="M24.2856 27.4572C25.7668 27.4583 27.2296 27.7903 28.5662 28.4286L25.1816 24.0772C24.0851 24.3743 23.0193 24.7761 22 25.2772C21.0696 25.9097 20.2028 26.6309 19.4108 27.4303L20.136 28.3634C21.4376 27.7657 22.8531 27.4566 24.2856 27.4572Z" fill="#FF5914"/>
<path d="M9.99997 25.2806C8.98054 24.7795 7.91485 24.3777 6.81829 24.0806L6.64172 24.3092C8.57029 25.7017 9.71316 27.9355 9.71429 30.3143C9.71316 30.6126 9.69372 30.9097 9.65716 31.2057L12.5715 27.4572L12.5898 27.4337C11.7977 26.6343 10.9303 25.9137 9.99997 25.2806Z" fill="#FF5914"/>
</g>
<defs>
<clipPath id="clip0_844_18147">
<rect width="32" height="32" fill="white" transform="translate(0 0.600037)"/>
</clipPath>
</defs>
</svg>
