<svg width="32" height="32" viewBox="0 0 32 32" fill="none" xmlns="http://www.w3.org/2000/svg">
<path d="M6.8183 23.4783L2.85718 28.5714L7.42855 28L8.57143 32L12.5714 26.8571L12.5897 26.8337C11.7977 26.0343 10.9303 25.3137 10.0001 24.6806C8.98055 24.1783 7.91487 23.776 6.8183 23.4783Z" fill="#0057FE"/>
<path d="M25.1817 23.4783C24.0851 23.7754 23.0194 24.1772 22 24.6783C21.0697 25.3109 20.2029 26.032 19.4109 26.8314L23.4286 32L24.5715 28L29.1429 28.5714L25.1817 23.4783Z" fill="#0057FE"/>
<path d="M28 14.2857C28 11.8914 29.492 9.07425 28.3731 7.14281C27.2195 5.148 23.9943 5.04631 22 3.89256C20.0669 2.772 18.3943 0 16 0C13.6057 0 11.9331 2.77256 10 3.89088C8.00515 5.04519 4.78058 5.148 3.6269 7.14119C2.50802 9.07431 4.00002 11.8914 4.00002 14.2857C4.00002 16.6799 2.50802 19.4971 3.6269 21.4286C4.78058 23.4234 8.00577 23.5251 10 24.6789C11.9331 25.7994 13.6057 28.5714 16 28.5714C18.3943 28.5714 20.0669 25.7989 22 24.6806C23.9949 23.5263 27.2195 23.4234 28.3731 21.4303C29.492 19.4971 28 16.68 28 14.2857Z" fill="#5960FF"/>
<path d="M16 24C21.3651 24 25.7143 19.6508 25.7143 14.2857C25.7143 8.92063 21.3651 4.57138 16 4.57138C10.635 4.57138 6.28571 8.92063 6.28571 14.2857C6.28571 19.6508 10.635 24 16 24Z" fill="#9599FF"/>
<path d="M21.6697 12H17.7537L16.5434 8.276C16.445 7.976 16.1217 7.81313 15.8222 7.91144C15.6497 7.968 15.5142 8.10344 15.4577 8.276L14.2463 12H10.3303C10.0149 12 9.75885 12.256 9.75885 12.5714C9.75885 12.7543 9.84629 12.9263 9.99429 13.0338L13.1623 15.3361L11.952 19.0606C11.8543 19.3606 12.0189 19.683 12.3189 19.7806C12.4932 19.8372 12.6834 19.807 12.8314 19.6995L16 17.3971L19.168 19.6988C19.4234 19.8845 19.7805 19.828 19.9663 19.5725C20.0737 19.4245 20.104 19.2336 20.0474 19.06L18.8371 15.3354L22.0051 13.0331C22.26 12.8474 22.316 12.4896 22.1302 12.2348C22.0229 12.0874 21.852 12.0006 21.6697 12Z" fill="#0057FE"/>
<path d="M28.3731 7.14287C28.3485 7.1 28.316 7.06344 28.2914 7.02287C27.4503 8.624 26.4531 10.1377 25.3143 11.5429C26.8308 16.6857 23.8908 22.0846 18.748 23.6012C15.3685 24.5972 11.7143 23.6846 9.19997 21.2161C7.48628 21.5464 5.74509 21.7132 3.99997 21.7144C3.93828 21.7144 3.87828 21.7104 3.81653 21.7098C5.10053 23.4344 8.10222 23.5835 9.99997 24.6812C11.9331 25.7989 13.6057 28.5716 16 28.5716C18.3943 28.5716 20.0668 25.799 22 24.6807C23.9948 23.5264 27.2194 23.4236 28.3731 21.4304C29.492 19.4972 28 16.6801 28 14.2858C28 11.8916 29.492 9.07431 28.3731 7.14287Z" fill="#0057FE"/>
<path d="M19.3783 16.9994L20.048 19.06C20.1457 19.36 19.9811 19.6823 19.6811 19.78C19.5068 19.8366 19.3166 19.8063 19.1686 19.6989L17.2486 18.3034C14.7354 19.6931 12.0182 20.6766 9.19824 21.2178C13.0194 24.9783 19.1651 24.9292 22.9251 21.1081C25.4017 18.5915 26.3166 14.9286 25.3142 11.5429C23.6137 13.6429 21.6137 15.4811 19.3783 16.9994Z" fill="#5960FF"/>
<path d="M20.048 19.06L19.3783 16.9994C18.6903 17.4663 17.9806 17.9011 17.2486 18.3034L19.1686 19.6989C19.424 19.8846 19.7812 19.828 19.9669 19.5726C20.0743 19.4246 20.1045 19.2343 20.048 19.06Z" fill="#0008C5"/>
<path d="M24.2856 26.8571C25.7668 26.8583 27.2296 27.1903 28.5662 27.8286L25.1816 23.4771C24.0851 23.7743 23.0193 24.176 22 24.6771C21.0696 25.3097 20.2028 26.0308 19.4108 26.8303L20.136 27.7634C21.4376 27.1657 22.8531 26.8566 24.2856 26.8571Z" fill="#0008C5"/>
<path d="M9.99997 24.6806C8.98054 24.1794 7.91485 23.7777 6.81829 23.4806L6.64172 23.7091C8.57029 25.1017 9.71316 27.3354 9.71429 29.7142C9.71316 30.0126 9.69372 30.3097 9.65716 30.6057L12.5715 26.8571L12.5898 26.8337C11.7977 26.0343 10.9303 25.3137 9.99997 24.6806Z" fill="#0008C5"/>
</svg>
