<svg width="32" height="33" viewBox="0 0 32 33" fill="none" xmlns="http://www.w3.org/2000/svg">
<g clip-path="url(#clip0_844_18227)">
<path d="M6.8183 24.2784L2.85718 29.3715L7.42855 28.8001L8.57143 32.8001L12.5714 27.6572L12.5897 27.6338C11.7977 26.8343 10.9303 26.1138 10.0001 25.4807C8.98055 24.9784 7.91487 24.5761 6.8183 24.2784Z" fill="#A7BDFF"/>
<path d="M25.1817 24.2784C24.0851 24.5755 23.0194 24.9773 22 25.4784C21.0697 26.111 20.2029 26.8321 19.4109 27.6315L23.4286 32.8001L24.5715 28.8001L29.1429 29.3715L25.1817 24.2784Z" fill="#A7BDFF"/>
<path d="M28 15.0858C28 12.6915 29.492 9.87436 28.3731 7.94292C27.2195 5.94811 23.9943 5.84642 22 4.69267C20.0669 3.57211 18.3943 0.80011 16 0.80011C13.6057 0.80011 11.9331 3.57267 10 4.69098C8.00515 5.8453 4.78058 5.94811 3.6269 7.9413C2.50802 9.87442 4.00002 12.6915 4.00002 15.0858C4.00002 17.48 2.50802 20.2972 3.6269 22.2287C4.78058 24.2235 8.00577 24.3252 10 25.479C11.9331 26.5995 13.6057 29.3715 16 29.3715C18.3943 29.3715 20.0669 26.599 22 25.4807C23.9949 24.3264 27.2195 24.2235 28.3731 22.2304C29.492 20.2972 28 17.4801 28 15.0858Z" fill="#C4D3FF"/>
<path d="M16 24.8001C21.3651 24.8001 25.7143 20.4509 25.7143 15.0858C25.7143 9.72074 21.3651 5.37149 16 5.37149C10.635 5.37149 6.28571 9.72074 6.28571 15.0858C6.28571 20.4509 10.635 24.8001 16 24.8001Z" fill="#D9E3FF"/>
<path d="M21.6697 12.8001H17.7537L16.5434 9.0761C16.445 8.7761 16.1217 8.61322 15.8222 8.71153C15.6497 8.7681 15.5142 8.90353 15.4577 9.0761L14.2463 12.8001H10.3303C10.0149 12.8001 9.75885 13.0561 9.75885 13.3715C9.75885 13.5544 9.84629 13.7264 9.99429 13.8339L13.1623 16.1362L11.952 19.8607C11.8543 20.1607 12.0189 20.4831 12.3189 20.5807C12.4932 20.6373 12.6834 20.6071 12.8314 20.4996L16 18.1972L19.168 20.4989C19.4234 20.6846 19.7805 20.6281 19.9663 20.3726C20.0737 20.2246 20.104 20.0337 20.0474 19.8601L18.8371 16.1355L22.0051 13.8332C22.26 13.6475 22.316 13.2897 22.1302 13.0349C22.0229 12.8875 21.852 12.8007 21.6697 12.8001Z" fill="#A7BDFF"/>
<path d="M28.3731 7.943C28.3485 7.90012 28.316 7.86356 28.2914 7.823C27.4503 9.42412 26.4531 10.9379 25.3143 12.343C26.8308 17.4859 23.8908 22.8847 18.748 24.4013C15.3685 25.3973 11.7143 24.4847 9.19997 22.0162C7.48628 22.3465 5.74509 22.5133 3.99997 22.5145C3.93828 22.5145 3.87828 22.5105 3.81653 22.5099C5.10053 24.2345 8.10222 24.3836 9.99997 25.4814C11.9331 26.5991 13.6057 29.3717 16 29.3717C18.3943 29.3717 20.0668 26.5991 22 25.4808C23.9948 24.3265 27.2194 24.2237 28.3731 22.2305C29.492 20.2974 28 17.4802 28 15.0859C28 12.6917 29.492 9.87444 28.3731 7.943Z" fill="#A7BDFF"/>
<path d="M19.3783 17.7995L20.048 19.8601C20.1457 20.1601 19.9811 20.4824 19.6811 20.5801C19.5068 20.6367 19.3166 20.6064 19.1686 20.499L17.2486 19.1035C14.7354 20.4932 12.0182 21.4767 9.19824 22.0179C13.0194 25.7784 19.1651 25.7293 22.9251 21.9082C25.4017 19.3916 26.3166 15.7287 25.3142 12.343C23.6137 14.443 21.6137 16.2812 19.3783 17.7995Z" fill="#C4D3FF"/>
<path d="M20.048 19.8601L19.3783 17.7996C18.6903 18.2664 17.9806 18.7013 17.2486 19.1036L19.1686 20.499C19.424 20.6847 19.7812 20.6281 19.9669 20.3727C20.0743 20.2247 20.1045 20.0344 20.048 19.8601Z" fill="#7698FF"/>
<path d="M24.2856 27.6573C25.7668 27.6584 27.2296 27.9904 28.5662 28.6287L25.1816 24.2773C24.0851 24.5744 23.0193 24.9761 22 25.4773C21.0696 26.1098 20.2028 26.8309 19.4108 27.6304L20.136 28.5635C21.4376 27.9658 22.8531 27.6567 24.2856 27.6573Z" fill="#7698FF"/>
<path d="M9.99997 25.4807C8.98054 24.9796 7.91485 24.5778 6.81829 24.2807L6.64172 24.5093C8.57029 25.9018 9.71316 28.1356 9.71429 30.5144C9.71316 30.8127 9.69372 31.1098 9.65716 31.4058L12.5715 27.6573L12.5898 27.6338C11.7977 26.8344 10.9303 26.1138 9.99997 25.4807Z" fill="#7698FF"/>
</g>
<defs>
<clipPath id="clip0_844_18227">
<rect width="32" height="32" fill="white" transform="translate(0 0.80011)"/>
</clipPath>
</defs>
</svg>
