<svg width="48" height="48" viewBox="0 0 48 48" fill="none" xmlns="http://www.w3.org/2000/svg">
<path d="M0 24.5106L24.5106 24.5106V47.9999H10.5016C8.21624 47.9999 6.20917 46.4815 5.58765 44.2823L0 24.5106Z" fill="#FF2455"/>
<path opacity="0.3" d="M17.3618 45.4468L14.298 24.5106L24.5107 48H17.8724L17.3618 45.4468Z" fill="black"/>
<path d="M47.9808 18.383H23.4701V48H36.8114C39.17 48 41.2218 46.3846 41.7752 44.0918L47.9808 18.383Z" fill="#7724FF"/>
<path d="M5.51562 17.1738C3.52402 19.8824 0.367874 24.1428 0 24.5106H26.0426L27.0638 16.3404H7.1627C6.51206 16.3404 5.90106 16.6497 5.51562 17.1738Z" fill="#FF597E"/>
<path d="M42.5799 11.061C44.5345 13.7702 47.6205 18.0158 47.9808 18.383H22.4296L21.4276 10.2128H40.922C41.5792 10.2128 42.1954 10.5281 42.5799 11.061Z" fill="#8E59FF"/>
<path d="M14.2113 0.888589C12.4445 3.59938 10.0443 7.80483 9.69965 8.17021H38.2954C37.9805 7.80746 35.4798 3.65982 33.7856 0.947452C33.4157 0.355197 32.7662 0 32.0679 0H15.8767C15.2062 0 14.5774 0.326879 14.2113 0.888589Z" fill="#FDB3FF"/>
<path opacity="0.4" d="M14.806 0C14.806 0 10.085 7.7617 9.69965 8.17021H38.2954C37.9408 7.7617 11.7422 7.14894 11.7422 7.14894L14.806 0Z" fill="#FFE6FF"/>
<path opacity="0.3" d="M23.4702 48H30.1085L35.2148 18.383L23.4702 48Z" fill="black"/>
<path d="M19.9124 48L9.69965 8.17017H38.2954L28.0826 48H19.9124Z" fill="#FC59FF"/>
<path opacity="0.7" d="M19.9124 48L26.6826 46.7706C26.9366 46.7245 27.1426 46.5387 27.2147 46.2908L38.2953 8.17017L28.0826 48H19.9124Z" fill="white"/>
<path opacity="0.7" d="M19.9124 48L9.69965 8.17017H38.2954L11.5343 9.46149L19.9124 48Z" fill="#FFE6FF"/>
<path opacity="0.5" d="M4.08511 38.8085L0 24.5106H9.70213L1.58734 25.4653C1.28527 25.5008 1.08105 25.7909 1.14944 26.0872L4.08511 38.8085Z" fill="#FFE6FF"/>
<path opacity="0.5" d="M44.494 32.7447L48 18.3853H38.2979L46.4127 19.34C46.7147 19.3756 46.919 19.6656 46.8506 19.962L44.494 32.7447Z" fill="#FFE6FF"/>
</svg>
