<svg width="84" height="84" viewBox="0 0 84 84" fill="none" xmlns="http://www.w3.org/2000/svg">
<circle opacity="0.4" cx="42" cy="42" r="42" fill="url(#paint0_radial_924_8074)"/>
<path d="M18 42.5106L42.5106 42.5106V65.9999H28.5016C26.2162 65.9999 24.2092 64.4815 23.5877 62.2823L18 42.5106Z" fill="#FF2455"/>
<path opacity="0.3" d="M35.3618 63.4468L32.298 42.5106L42.5107 66H35.8724L35.3618 63.4468Z" fill="black"/>
<path d="M65.9808 36.383H41.4701V66H54.8114C57.17 66 59.2218 64.3846 59.7752 62.0918L65.9808 36.383Z" fill="#7724FF"/>
<path d="M23.5156 35.1738C21.524 37.8824 18.3679 42.1428 18 42.5106H44.0426L45.0638 34.3404H25.1627C24.5121 34.3404 23.9011 34.6497 23.5156 35.1738Z" fill="#FF597E"/>
<path d="M60.5799 29.061C62.5345 31.7702 65.6205 36.0158 65.9808 36.383H40.4296L39.4276 28.2128H58.922C59.5792 28.2128 60.1954 28.5281 60.5799 29.061Z" fill="#8E59FF"/>
<path d="M32.2113 18.8886C30.4445 21.5994 28.0443 25.8048 27.6996 26.1702H56.2954C55.9805 25.8075 53.4798 21.6598 51.7856 18.9475C51.4157 18.3552 50.7662 18 50.0679 18H33.8767C33.2062 18 32.5774 18.3269 32.2113 18.8886Z" fill="#FDB3FF"/>
<path opacity="0.4" d="M32.806 18C32.806 18 28.085 25.7617 27.6996 26.1702H56.2954C55.9408 25.7617 29.7422 25.1489 29.7422 25.1489L32.806 18Z" fill="#FFE6FF"/>
<path opacity="0.3" d="M41.4702 66H48.1085L53.2148 36.383L41.4702 66Z" fill="black"/>
<path d="M37.9124 66L27.6996 26.1702H56.2954L46.0826 66H37.9124Z" fill="#FC59FF"/>
<path opacity="0.7" d="M37.9124 66L44.6826 64.7706C44.9366 64.7245 45.1426 64.5387 45.2147 64.2908L56.2953 26.1702L46.0826 66H37.9124Z" fill="white"/>
<path opacity="0.7" d="M37.9124 66L27.6996 26.1702H56.2954L29.5343 27.4615L37.9124 66Z" fill="#FFE6FF"/>
<path opacity="0.5" d="M22.0851 56.8085L18 42.5106H27.7021L19.5873 43.4653C19.2853 43.5008 19.081 43.7909 19.1494 44.0872L22.0851 56.8085Z" fill="#FFE6FF"/>
<path opacity="0.5" d="M62.494 50.7447L66 36.3853H56.2979L64.4127 37.34C64.7147 37.3756 64.919 37.6656 64.8506 37.962L62.494 50.7447Z" fill="#FFE6FF"/>
<defs>
<radialGradient id="paint0_radial_924_8074" cx="0" cy="0" r="1" gradientUnits="userSpaceOnUse" gradientTransform="translate(42 42) rotate(90) scale(42)">
<stop stop-color="#FF0000"/>
<stop offset="1" stop-color="#1D1E25" stop-opacity="0"/>
</radialGradient>
</defs>
</svg>
