<svg width="157" height="82" viewBox="0 0 157 82" fill="none" xmlns="http://www.w3.org/2000/svg">
<mask id="path-1-inside-1_2404_187091" fill="white">
<path fill-rule="evenodd" clip-rule="evenodd" d="M16.2105 0C7.2577 0 0 7.2577 0 16.2105V54.7895C0 63.7423 7.2577 71 16.2105 71H65.7342C66.8373 71 68.0131 71.1219 68.7909 71.9042C68.9034 72.0173 69.0095 72.1377 69.1087 72.2652L74.746 79.5132C76.5161 81.7889 79.9556 81.7889 81.7256 79.5132L87.6601 71.8831C88.2435 71.133 89.2733 71 90.2235 71H140.789C149.742 71 157 63.7423 157 54.7895V16.2105C157 7.2577 149.742 0 140.789 0H16.2105Z"/>
</mask>
<path fill-rule="evenodd" clip-rule="evenodd" d="M16.2105 0C7.2577 0 0 7.2577 0 16.2105V54.7895C0 63.7423 7.2577 71 16.2105 71H65.7342C66.8373 71 68.0131 71.1219 68.7909 71.9042C68.9034 72.0173 69.0095 72.1377 69.1087 72.2652L74.746 79.5132C76.5161 81.7889 79.9556 81.7889 81.7256 79.5132L87.6601 71.8831C88.2435 71.133 89.2733 71 90.2235 71H140.789C149.742 71 157 63.7423 157 54.7895V16.2105C157 7.2577 149.742 0 140.789 0H16.2105Z" fill="white" fill-opacity="0.1"/>
<path d="M69.1087 72.2652L74.6341 67.9676L74.6341 67.9676L69.1087 72.2652ZM74.746 79.5132L80.2715 75.2156L74.746 79.5132ZM81.7256 79.5132L76.2001 75.2156L76.2001 75.2157L81.7256 79.5132ZM68.7909 71.9042L73.7548 66.9686L68.7909 71.9042ZM7 16.2105C7 11.1237 11.1237 7 16.2105 7V-7C3.39171 -7 -7 3.39171 -7 16.2105H7ZM7 54.7895V16.2105H-7V54.7895H7ZM16.2105 64C11.1237 64 7 59.8763 7 54.7895H-7C-7 67.6083 3.39171 78 16.2105 78V64ZM65.7342 64H16.2105V78H65.7342V64ZM74.6341 67.9676C74.3601 67.6153 74.0663 67.2819 73.7548 66.9686L63.827 76.8398C63.7405 76.7527 63.659 76.6602 63.5832 76.5628L74.6341 67.9676ZM80.2715 75.2156L74.6341 67.9676L63.5832 76.5628L69.2206 83.8108L80.2715 75.2156ZM76.2001 75.2157C77.2326 73.8881 79.239 73.8882 80.2715 75.2156L69.2206 83.8108C73.7931 89.6897 82.6785 89.6898 87.2511 83.8108L76.2001 75.2157ZM82.1347 67.5855L76.2001 75.2156L87.251 83.8108L93.1856 76.1807L82.1347 67.5855ZM140.789 64H90.2235V78H140.789V64ZM150 54.7895C150 59.8763 145.876 64 140.789 64V78C153.608 78 164 67.6083 164 54.7895H150ZM150 16.2105V54.7895H164V16.2105H150ZM140.789 7C145.876 7 150 11.1237 150 16.2105H164C164 3.39171 153.608 -7 140.789 -7V7ZM16.2105 7H140.789V-7H16.2105V7ZM93.1856 76.1807C92.308 77.309 91.2406 77.7458 90.7091 77.8961C90.2475 78.0266 89.9969 78 90.2235 78V64C89.3063 64 84.9727 63.9366 82.1346 67.5855L93.1856 76.1807ZM65.7342 78C66.0938 78 66.0119 78.0287 65.7353 77.9617C65.4042 77.8814 64.5993 77.6164 63.827 76.8398L73.7548 66.9686C70.7627 63.9593 66.8312 64 65.7342 64V78Z" fill="white" fill-opacity="0.2" mask="url(#path-1-inside-1_2404_187091)"/>
</svg>
