<svg width="157" height="90" viewBox="0 0 157 90" fill="none" xmlns="http://www.w3.org/2000/svg">
<g opacity="0.4">
<mask id="path-1-inside-1_2410_190196" fill="white">
<path d="M0 16.2105C0 7.2577 7.2577 0 16.2105 0H140.789C149.742 0 157 7.2577 157 16.2105V73.7895C157 82.7423 149.742 90 140.789 90H16.2105C7.2577 90 0 82.7423 0 73.7895V16.2105Z"/>
</mask>
<path d="M0 16.2105C0 7.2577 7.2577 0 16.2105 0H140.789C149.742 0 157 7.2577 157 16.2105V73.7895C157 82.7423 149.742 90 140.789 90H16.2105C7.2577 90 0 82.7423 0 73.7895V16.2105Z" fill="white" fill-opacity="0.1"/>
<path d="M16.2105 7H140.789V-7H16.2105V7ZM150 16.2105V73.7895H164V16.2105H150ZM140.789 83H16.2105V97H140.789V83ZM7 73.7895V16.2105H-7V73.7895H7ZM16.2105 83C11.1237 83 7 78.8763 7 73.7895H-7C-7 86.6083 3.39171 97 16.2105 97V83ZM150 73.7895C150 78.8763 145.876 83 140.789 83V97C153.608 97 164 86.6083 164 73.7895H150ZM140.789 7C145.876 7 150 11.1237 150 16.2105H164C164 3.39171 153.608 -7 140.789 -7V7ZM16.2105 -7C3.39171 -7 -7 3.39171 -7 16.2105H7C7 11.1237 11.1237 7 16.2105 7V-7Z" fill="white" fill-opacity="0.2" mask="url(#path-1-inside-1_2410_190196)"/>
</g>
</svg>
