<svg width="77" height="17" viewBox="0 0 77 17" fill="none" xmlns="http://www.w3.org/2000/svg">
<rect width="17" height="17" rx="6" fill="#373945"/>
<g clip-path="url(#clip0_1510_120021)">
<path d="M8.4999 4.00024L8.44531 4.22806V10.8388L8.4999 10.9057L10.9992 9.09185L8.4999 4.00024Z" fill="#F4F4F4"/>
<path d="M8.49926 4L6 9.09161L8.49926 10.9055V7.69683V4Z" fill="#CACACA"/>
<path d="M8.49951 11.4863L8.46875 11.5323V13.8872L8.49951 13.9975L11.0003 9.67334L8.49951 11.4863Z" fill="#F4F4F4"/>
<path d="M8.49926 13.9976V11.4863L6 9.67334L8.49926 13.9976Z" fill="#CACACA"/>
<path d="M8.5 10.9054L10.9992 9.09155L8.5 7.69678V10.9054Z" fill="#CACACA"/>
<path d="M6 9.09155L8.49922 10.9054V7.69678L6 9.09155Z" fill="#CACACA"/>
</g>
<rect x="20" width="17" height="17" rx="6" fill="#373945"/>
<g clip-path="url(#clip1_1510_120021)">
<path d="M25.9505 11.3755L25.728 12.2056C25.7035 12.2972 25.7579 12.3915 25.8496 12.4161L26.5136 12.594C26.5577 12.6058 26.6046 12.5996 26.6441 12.5768C26.6835 12.5541 26.7123 12.5165 26.7241 12.4725L26.9466 11.6424L27.2786 11.7314L27.0562 12.5614C27.0316 12.6531 27.0861 12.7474 27.1777 12.772L27.8418 12.9499C27.8858 12.9617 27.9327 12.9555 27.9722 12.9327C28.0117 12.9099 28.0405 12.8724 28.0523 12.8284L28.2747 11.9983L28.3305 12.0132C29.6533 12.3677 30.7828 11.9351 31.1008 10.7484C31.368 9.75092 30.8454 9.02653 30.0833 8.73904L30.0989 8.6806C30.7861 8.6925 31.3899 8.33327 31.6062 7.52575C31.8788 6.50839 31.2806 5.68617 30.1152 5.37389L30.0541 5.35752L30.2765 4.52743C30.2883 4.4834 30.2821 4.43648 30.2593 4.39701C30.2366 4.35753 30.199 4.32872 30.155 4.31693L29.4909 4.13899C29.4469 4.12719 29.4 4.13337 29.3605 4.15616C29.321 4.17895 29.2922 4.21649 29.2804 4.26052L29.058 5.09061L28.6775 4.98866L28.8999 4.15856C28.9117 4.11453 28.9055 4.06762 28.8827 4.02814C28.8599 3.98866 28.8224 3.95986 28.7784 3.94806L28.1628 3.78311C28.1187 3.77131 28.0718 3.77749 28.0323 3.80028C27.9929 3.82307 27.9641 3.86062 27.9523 3.90465L27.7298 4.73474L26.4011 4.38652C26.357 4.37473 26.3101 4.3809 26.2706 4.40369C26.2312 4.42649 26.2024 4.46403 26.1906 4.50806L26.0146 5.16483C25.9902 5.2558 26.0431 5.35042 26.1348 5.37497L26.637 5.506C26.7683 5.54211 26.88 5.62869 26.9477 5.74683C27.0154 5.86498 27.0336 6.0051 26.9983 6.13662L26.0188 9.79234C25.9834 9.92444 25.897 10.0371 25.7785 10.1054C25.6601 10.1738 25.5194 10.1923 25.3873 10.1569L24.8886 10.0312C24.8446 10.0194 24.7976 10.0255 24.7582 10.0483C24.7187 10.0711 24.6899 10.1087 24.6781 10.1527L24.5001 10.8168C24.4756 10.9084 24.53 11.0027 24.6217 11.0273L25.9505 11.3755ZM28.4129 5.97613L29.5544 6.28201C30.1561 6.44322 30.4207 6.86859 30.2759 7.40915C30.1209 7.98756 29.6517 8.2113 28.7871 7.97963L27.9371 7.75187L28.4129 5.97613V5.97613ZM27.692 8.6663L28.9139 8.9937C29.669 9.19602 29.9769 9.69133 29.8089 10.3182C29.6393 10.9511 29.1352 11.1697 28.1178 10.8971L27.1629 10.6413L27.6919 8.66696L27.692 8.6663Z" fill="#CACACA"/>
</g>
<rect x="40" width="17" height="17" rx="6" fill="#373945"/>
<path fill-rule="evenodd" clip-rule="evenodd" d="M48.5 14C45.4623 14 43 11.5377 43 8.5C43 5.46228 45.4623 3 48.5 3C51.5377 3 54 5.46228 54 8.5C54 11.5377 51.5377 14 48.5 14ZM49.1607 7.74134V6.92803H51.0218V5.68778H45.9545V6.92803H47.8156V7.741C46.3031 7.81044 45.1656 8.11019 45.1656 8.46906C45.1656 8.82794 46.3031 9.12734 47.8156 9.19712V11.8034H49.1607V9.19644C50.6708 9.127 51.8055 8.82759 51.8055 8.46906C51.8055 8.11053 50.6708 7.81113 49.1607 7.74134ZM49.1607 8.97541V8.97472C49.1229 8.97747 48.928 8.98916 48.4931 8.98916C48.1459 8.98916 47.9015 8.97884 47.8156 8.97472V8.97575C46.4791 8.91697 45.4815 8.68425 45.4815 8.40581C45.4815 8.12772 46.4791 7.895 47.8156 7.83519V8.74406C47.9029 8.75025 48.1532 8.76503 48.499 8.76503C48.9139 8.76503 49.1218 8.74784 49.1607 8.74441V7.83587C50.4944 7.89534 51.4896 8.12806 51.4896 8.40581C51.4896 8.68425 50.4944 8.91628 49.1607 8.97541V8.97541Z" fill="#CACACA"/>
<rect x="60" width="17" height="17" rx="6" fill="#373845"/>
<path d="M64.379 6.1H65.079V11H64.274V6.961L63.287 7.241L63.091 6.555L64.379 6.1ZM67.9425 8.102C68.2972 8.186 68.5842 8.35167 68.8035 8.599C69.0275 8.84167 69.1395 9.14733 69.1395 9.516C69.1395 10.006 68.9738 10.391 68.6425 10.671C68.3112 10.951 67.9052 11.091 67.4245 11.091C67.0512 11.091 66.7152 11.0047 66.4165 10.832C66.1225 10.6593 65.9102 10.4073 65.7795 10.076L66.4655 9.677C66.6102 10.097 66.9298 10.307 67.4245 10.307C67.7045 10.307 67.9262 10.237 68.0895 10.097C68.2528 9.95233 68.3345 9.75867 68.3345 9.516C68.3345 9.27333 68.2528 9.082 68.0895 8.942C67.9262 8.802 67.7045 8.732 67.4245 8.732H67.2425L66.9205 8.249L67.9775 6.856H65.9265V6.1H68.9365V6.786L67.9425 8.102ZM72.8498 8.193V8.907H71.6668V10.09H70.9528V8.907H69.7698V8.193H70.9528V7.01H71.6668V8.193H72.8498Z" fill="#959595"/>
<defs>
<clipPath id="clip0_1510_120021">
<rect width="5" height="10" fill="white" transform="translate(6 4)"/>
</clipPath>
<clipPath id="clip1_1510_120021">
<rect width="11" height="11" fill="white" transform="translate(24.6113 1.76392) rotate(15)"/>
</clipPath>
</defs>
</svg>
