<svg width="82" height="14" viewBox="0 0 82 14" fill="none" xmlns="http://www.w3.org/2000/svg">
<path d="M79.533 1.06392C78.4937 0.357238 76.9349 0 74.8889 0H69.5264L67.5324 10.8263H60.5045L60.9566 8.36977H65.1902L65.6929 5.61189H61.4619L61.914 3.16578H66.2749L66.8543 0H57.9999L56.1059 10.269H52.8583L54.764 0H50.1355L48.2441 10.269H45.077L46.9853 0H42.3607L40.3628 10.8263H33.2842L33.7324 8.36977H37.9816L38.4843 5.62748H34.239L34.6846 3.17228H39.1014L39.673 0H12.0812L10.5145 8.57372L7.38639 0H2.57991L0 13.9998H4.58564L6.1445 5.1858L9.18038 13.9998H25.6211L27.6191 3.17228H30.1899L28.1894 13.9998H71.4347L72.6883 7.16425L74.7174 13.9998H79.3056L77.2038 8.41394L77.6831 8.31391C78.7419 8.08788 79.568 7.59944 80.1435 6.86937C80.719 6.1393 81.01 5.18061 81.01 4.04654C81.0139 2.71891 80.5306 1.74462 79.533 1.06392ZM21.6292 10.8263H14.6143L15.0677 8.36977H19.4714L19.9716 5.6028H15.6042L16.0251 3.17228H23.0399L21.6292 10.8263ZM75.7501 6.10553C75.289 6.42769 74.62 6.58488 73.7054 6.58488H72.7961L73.4911 2.82803H74.1588C74.9188 2.82803 75.4721 2.95014 75.8541 3.19956C76.1528 3.39312 76.5036 3.77893 76.5036 4.509C76.514 5.39365 76.0983 5.8665 75.7501 6.10553Z" fill="#83BA3B"/>
</svg>
