<svg width="55" height="15" viewBox="0 0 55 15" fill="none" xmlns="http://www.w3.org/2000/svg">
<path opacity="0.68" d="M10.2918 3.56836C10.4563 2.47571 10.2907 1.7324 9.7237 1.05889C9.09944 0.317582 7.97171 0 6.52883 0H2.34048C2.04564 0 1.79446 0.223595 1.74861 0.527301L0.00444603 12.0535C-0.029869 12.281 0.138824 12.4866 0.359538 12.4866H2.94525L2.76681 13.666C2.73675 13.865 2.88416 14.0449 3.07743 14.0449H5.25698C5.51489 14.0449 5.73451 13.8493 5.77473 13.5836L5.79614 13.4681L6.20668 10.7546L6.23317 10.6047C6.27339 10.3392 6.49301 10.1433 6.75092 10.1433H7.07691C9.18839 10.1433 10.8417 9.24936 11.3247 6.66379C11.5266 5.58344 11.4222 4.68162 10.8884 4.0476C10.7271 3.85619 10.5261 3.69769 10.2918 3.56836Z" fill="white"/>
<path opacity="0.7" d="M10.2918 3.56836C10.4563 2.47571 10.2907 1.7324 9.7237 1.05889C9.09944 0.317582 7.97171 0 6.52883 0H2.34048C2.04564 0 1.79446 0.223595 1.74861 0.527301L0.00444603 12.0535C-0.029869 12.281 0.138824 12.4866 0.359538 12.4866H2.94525L3.59476 8.19391L3.57458 8.32852C3.62057 8.02496 3.86942 7.80122 4.16439 7.80122H5.39342C7.807 7.80122 9.69694 6.77923 10.249 3.82372C10.2655 3.73645 10.2793 3.65162 10.2918 3.56836Z" fill="white"/>
<path d="M4.29259 3.58281C4.32018 3.40027 4.43273 3.25064 4.58413 3.17511C4.6529 3.14077 4.7299 3.1216 4.81047 3.1216H8.0936C8.48259 3.1216 8.84524 3.14821 9.17672 3.20386C9.27143 3.21974 9.36367 3.23805 9.4533 3.25879C9.54279 3.27954 9.62981 3.30257 9.71395 3.32832C9.75609 3.34105 9.79741 3.35464 9.83818 3.36866C10.001 3.42502 10.1526 3.4914 10.2921 3.56851C10.4565 2.47585 10.291 1.73254 9.72398 1.05904C9.09944 0.317582 7.97171 0 6.52883 0H2.34048C2.04564 0 1.79446 0.223595 1.74861 0.527301L0.00444602 12.0535C-0.029869 12.281 0.138824 12.4866 0.359538 12.4866H2.94524L3.59476 8.19391L4.29259 3.58281Z" fill="white"/>
<path d="M20.68 4.17041H17.6465C17.439 4.17041 17.2624 4.32758 17.2301 4.54116L16.0032 12.6481C15.9788 12.8081 16.0977 12.9523 16.2533 12.9523H17.7015C17.9091 12.9523 18.0857 12.7951 18.118 12.5811L18.4489 10.3945C18.4809 10.1805 18.6578 10.0233 18.865 10.0233H19.8253C21.8235 10.0233 22.9767 9.01555 23.2779 7.01851C23.4136 6.1448 23.2837 5.45832 22.8911 4.97755C22.46 4.44963 21.6953 4.17041 20.68 4.17041ZM21.03 7.1313C20.8641 8.26574 20.0324 8.26574 19.2283 8.26574H18.7705L19.0916 6.14711C19.1107 6.01906 19.2172 5.92476 19.3414 5.92476H19.5512C20.0989 5.92476 20.6157 5.92476 20.8827 6.2502C21.0419 6.44436 21.0907 6.73282 21.03 7.1313Z" fill="white"/>
<path d="M29.7476 7.09404H28.2949C28.1712 7.09404 28.0643 7.18835 28.0452 7.3164L27.9809 7.73985L27.8793 7.58637C27.5648 7.11068 26.8636 6.95166 26.1637 6.95166C24.5584 6.95166 23.1874 8.21877 22.9204 9.99623C22.7816 10.8829 22.979 11.7307 23.4615 12.322C23.9042 12.8656 24.5376 13.0921 25.2912 13.0921C26.5846 13.0921 27.3018 12.2253 27.3018 12.2253L27.2371 12.646C27.2127 12.8069 27.3315 12.9511 27.4863 12.9511H28.7948C29.0028 12.9511 29.1785 12.7939 29.2113 12.5799L29.9964 7.39822C30.0212 7.23873 29.9028 7.09404 29.7476 7.09404ZM27.7228 10.0406C27.5826 10.9055 26.9239 11.4862 26.0838 11.4862C25.662 11.4862 25.3249 11.3452 25.1085 11.078C24.8938 10.8126 24.8122 10.4349 24.8805 10.0143C25.0113 9.15673 25.6811 8.55715 26.5083 8.55715C26.9208 8.55715 27.2561 8.7 27.477 8.96951C27.6984 9.24179 27.7862 9.62178 27.7228 10.0406Z" fill="white"/>
<path d="M37.4829 7.09375H36.0231C35.8838 7.09375 35.753 7.16587 35.674 7.28652L33.6608 10.3773L32.8074 7.40718C32.7537 7.22134 32.5891 7.09375 32.4028 7.09375H30.9684C30.7941 7.09375 30.673 7.27127 30.7284 7.44231L32.3363 12.36L30.8247 14.5841C30.7058 14.7593 30.8256 15.0001 31.0309 15.0001H32.4889C32.6273 15.0001 32.7568 14.9298 32.8353 14.8115L37.6904 7.50749C37.8066 7.33275 37.6873 7.09375 37.4829 7.09375Z" fill="white"/>
<path d="M42.3148 4.16943H39.2809C39.0737 4.16943 38.8972 4.32661 38.8648 4.54018L37.638 12.6472C37.6136 12.8071 37.7324 12.9513 37.8872 12.9513H39.4441C39.5887 12.9513 39.7124 12.8413 39.7351 12.6915L40.0833 10.3936C40.1152 10.1795 40.2922 10.0223 40.4993 10.0223H41.4592C43.4578 10.0223 44.6106 9.01458 44.9122 7.01753C45.0484 6.14383 44.9175 5.45734 44.525 4.97657C44.0943 4.44865 43.3301 4.16943 42.3148 4.16943ZM42.6647 7.13033C42.4993 8.26476 41.6676 8.26476 40.863 8.26476H40.4057L40.7273 6.14614C40.7464 6.01809 40.8519 5.92378 40.9766 5.92378H41.1864C41.7337 5.92378 42.2509 5.92378 42.5179 6.24923C42.6772 6.44338 42.7255 6.73184 42.6647 7.13033Z" fill="white"/>
<path d="M51.3843 7.09404H49.9326C49.808 7.09404 49.702 7.18835 49.6833 7.3164L49.619 7.73985L49.517 7.58637C49.2025 7.11068 48.5017 6.95166 47.8018 6.95166C46.1966 6.95166 44.826 8.21877 44.559 9.99623C44.4206 10.8829 44.6171 11.7307 45.0996 12.322C45.5432 12.8656 46.1757 13.0921 46.9293 13.0921C48.2227 13.0921 48.9399 12.2253 48.9399 12.2253L48.8752 12.646C48.8508 12.8069 48.9696 12.9511 49.1253 12.9511H50.4334C50.6405 12.9511 50.817 12.7939 50.8494 12.5799L51.635 7.39822C51.6589 7.23873 51.54 7.09404 51.3843 7.09404ZM49.3595 10.0406C49.2203 10.9055 48.5607 11.4862 47.7206 11.4862C47.2997 11.4862 46.9617 11.3452 46.7452 11.078C46.5305 10.8126 46.4498 10.4349 46.5172 10.0143C46.649 9.15673 47.3179 8.55715 48.1451 8.55715C48.5576 8.55715 48.8929 8.7 49.1138 8.96951C49.336 9.24179 49.4238 9.62178 49.3595 10.0406Z" fill="white"/>
<path d="M53.0959 4.39176L51.8508 12.6471C51.8264 12.8071 51.9453 12.9513 52.1001 12.9513H53.3518C53.5599 12.9513 53.7364 12.7941 53.7683 12.5801L54.9961 4.47359C55.0205 4.31364 54.9016 4.16895 54.7468 4.16895H53.3452C53.2214 4.16941 53.115 4.26371 53.0959 4.39176Z" fill="white"/>
</svg>
