<svg width="59" height="23" viewBox="0 0 59 23" fill="none" xmlns="http://www.w3.org/2000/svg">
<g clip-path="url(#clip0_3200_308368)">
<path d="M19.159 15.0026C19.159 15.126 19.1191 15.2277 19.0393 15.3075C18.9595 15.3873 18.858 15.4273 18.7348 15.4273C18.6115 15.4273 18.51 15.3873 18.4302 15.3075C18.3504 15.2277 18.3105 15.126 18.3105 15.0026V7.34709C18.3105 7.22366 18.3504 7.12201 18.4302 7.04217C18.51 6.96228 18.6115 6.92236 18.7348 6.92236H20.9101C21.4394 6.92236 21.9108 7.04217 22.3241 7.28173C22.7446 7.51406 23.071 7.84075 23.303 8.26182C23.535 8.67564 23.6511 9.15115 23.6511 9.6884C23.6511 10.2184 23.535 10.6902 23.303 11.1041C23.071 11.5178 22.7446 11.8409 22.3241 12.0732C21.9108 12.3056 21.4394 12.4217 20.9101 12.4217H19.159V15.0026ZM20.9101 11.605C21.2799 11.605 21.6099 11.5251 21.8999 11.3654C22.1899 11.1984 22.4147 10.9697 22.5743 10.6793C22.741 10.3889 22.8244 10.0586 22.8244 9.6884C22.8244 9.31087 22.741 8.97689 22.5743 8.6865C22.4147 8.38886 22.1899 8.15654 21.8999 7.98957C21.6099 7.8226 21.2799 7.7391 20.9101 7.7391H19.159V11.605H20.9101Z" fill="#2196F3"/>
<path d="M25.0354 9.89558C25.0354 9.77216 25.0752 9.67055 25.155 9.59066C25.2348 9.51082 25.3363 9.4709 25.4596 9.4709C25.5828 9.4709 25.6807 9.51082 25.7532 9.59066C25.833 9.67055 25.8729 9.77216 25.8729 9.89558V15.0029C25.8729 15.1263 25.833 15.228 25.7532 15.3078C25.6807 15.3877 25.5828 15.4276 25.4596 15.4276C25.3363 15.4276 25.2348 15.3877 25.155 15.3078C25.0752 15.228 25.0354 15.1263 25.0354 15.0029V9.89558ZM25.4596 7.15137C25.6191 7.15137 25.7569 7.20582 25.8729 7.31471C25.9889 7.42361 26.0469 7.56519 26.0469 7.7394C26.0469 7.90637 25.9889 8.04794 25.8729 8.16413C25.7569 8.28027 25.6155 8.33834 25.4487 8.33834C25.2819 8.33834 25.1405 8.28027 25.0245 8.16413C24.9157 8.04794 24.8613 7.90637 24.8613 7.7394C24.8613 7.56519 24.9194 7.42361 25.0354 7.31471C25.1514 7.20582 25.2928 7.15137 25.4596 7.15137Z" fill="#2196F3"/>
<path d="M30.7112 9.41602C31.2769 9.41602 31.7881 9.55035 32.2449 9.81893C32.709 10.0803 33.0715 10.4433 33.3326 10.908C33.6009 11.3726 33.735 11.888 33.735 12.4543V15.0134C33.735 15.1295 33.6951 15.2275 33.6154 15.3074C33.5356 15.3872 33.4341 15.4272 33.3108 15.4272C33.1875 15.4272 33.0861 15.3909 33.0063 15.3183C32.9265 15.2384 32.8866 15.1368 32.8866 15.0134V14.36C32.6328 14.7085 32.3102 14.9843 31.9186 15.1876C31.527 15.3836 31.0956 15.4816 30.6243 15.4816C30.0732 15.4816 29.5728 15.3509 29.1232 15.0896C28.6809 14.821 28.3292 14.458 28.0682 14.0006C27.8144 13.536 27.6875 13.0206 27.6875 12.4543C27.6875 11.888 27.818 11.3726 28.0791 10.908C28.3474 10.4433 28.7099 10.0803 29.1668 9.81893C29.6308 9.55035 30.1457 9.41602 30.7112 9.41602ZM30.7112 14.7193C31.1246 14.7193 31.498 14.6213 31.8316 14.4253C32.1651 14.2293 32.4262 13.9607 32.6147 13.6195C32.8105 13.271 32.9084 12.8826 32.9084 12.4543C32.9084 12.0259 32.8105 11.6412 32.6147 11.3C32.4262 10.9515 32.1651 10.6792 31.8316 10.4832C31.498 10.28 31.1246 10.1783 30.7112 10.1783C30.298 10.1783 29.9209 10.28 29.5801 10.4832C29.2465 10.6792 28.9818 10.9515 28.7861 11.3C28.5976 11.6412 28.5033 12.0259 28.5033 12.4543C28.5033 12.8826 28.5976 13.271 28.7861 13.6195C28.9818 13.9607 29.2465 14.2293 29.5801 14.4253C29.9209 14.6213 30.298 14.7193 30.7112 14.7193Z" fill="#2196F3"/>
<path d="M37.4231 9.41602C37.9016 9.41602 38.3186 9.49952 38.6739 9.66649C39.0292 9.82621 39.3156 10.0513 39.5331 10.3416C39.5912 10.436 39.6202 10.5195 39.6202 10.5921C39.6202 10.7155 39.5622 10.8135 39.4461 10.8861C39.3954 10.9224 39.3265 10.9406 39.2395 10.9406C39.0872 10.9406 38.9603 10.8861 38.8588 10.7772C38.5035 10.3707 38.0176 10.1674 37.4013 10.1674C37.0025 10.1674 36.6834 10.2509 36.4441 10.4179C36.2049 10.5776 36.0852 10.7809 36.0852 11.0277C36.0852 11.2891 36.1976 11.4996 36.4224 11.6593C36.6472 11.8118 37.046 11.9352 37.6188 12.0296C38.3947 12.1602 38.9494 12.3744 39.283 12.6721C39.6166 12.9625 39.7833 13.3255 39.7833 13.7611C39.7833 14.095 39.6818 14.3927 39.4788 14.654C39.283 14.9154 39.0075 15.1186 38.6521 15.2638C38.2968 15.409 37.8944 15.4816 37.4448 15.4816C36.9952 15.4816 36.5638 15.4054 36.1505 15.253C35.7372 15.1005 35.4036 14.8863 35.1498 14.6104C35.0773 14.5234 35.041 14.4398 35.041 14.36C35.041 14.2366 35.099 14.1277 35.2151 14.0333C35.3021 13.968 35.3927 13.9353 35.487 13.9353C35.6102 13.9353 35.7154 13.9861 35.8024 14.0878C35.9764 14.291 36.2049 14.4471 36.4877 14.556C36.7777 14.6649 37.0968 14.7193 37.4448 14.7193C37.9524 14.7193 38.3331 14.6322 38.5869 14.458C38.8407 14.2837 38.9712 14.0551 38.9784 13.7719C38.9784 13.5106 38.8515 13.2928 38.5977 13.1185C38.3439 12.9443 37.9415 12.8136 37.3904 12.7265C36.6798 12.6104 36.1468 12.4107 35.7915 12.1276C35.4435 11.8372 35.2695 11.4887 35.2695 11.0822C35.2695 10.5522 35.4725 10.142 35.8786 9.85161C36.2919 9.56121 36.8067 9.41602 37.4231 9.41602Z" fill="#2196F3"/>
<path d="M43.8516 14.5887C43.9677 14.5887 44.0619 14.6287 44.1343 14.7085C44.2067 14.7883 44.243 14.89 44.243 15.0134C44.243 15.1296 44.1993 15.2276 44.1125 15.3074C44.0253 15.3873 43.9166 15.4272 43.7862 15.4272H43.5578C43.1734 15.4272 42.829 15.3365 42.5245 15.155C42.2199 14.9662 41.9806 14.7157 41.8066 14.4036C41.6398 14.0842 41.5564 13.7248 41.5564 13.3255V10.4179H40.8495C40.7334 10.4179 40.6392 10.3853 40.5667 10.3199C40.5014 10.2473 40.4688 10.1602 40.4688 10.0586C40.4688 9.94967 40.5014 9.86254 40.5667 9.79718C40.6392 9.72458 40.7334 9.68829 40.8495 9.68829H41.5564V8.00037C41.5564 7.87699 41.5927 7.77533 41.6652 7.69549C41.7449 7.6156 41.8465 7.57568 41.9698 7.57568C42.093 7.57568 42.1945 7.6156 42.2743 7.69549C42.354 7.77533 42.3939 7.87699 42.3939 8.00037V9.68829H43.623C43.739 9.68829 43.8298 9.72458 43.8948 9.79718C43.9677 9.86254 44.0039 9.94967 44.0039 10.0586C44.0039 10.1602 43.9677 10.2473 43.8948 10.3199C43.8298 10.3853 43.739 10.4179 43.623 10.4179H42.3939V13.3255C42.3939 13.6957 42.5027 14.0007 42.7203 14.2402C42.9378 14.4725 43.2169 14.5887 43.5578 14.5887H43.8516Z" fill="#2196F3"/>
<path d="M48.2902 9.40479C48.5947 9.40479 48.8342 9.44471 49.0079 9.52459C49.1894 9.60443 49.2801 9.71695 49.2801 9.86215C49.2801 9.90573 49.2762 9.93841 49.2692 9.96018C49.24 10.0618 49.1929 10.1308 49.1279 10.1671C49.0698 10.2034 48.9865 10.2215 48.8774 10.2215C48.8124 10.2215 48.6999 10.2143 48.5402 10.1997C48.4822 10.1925 48.3953 10.1888 48.2793 10.1888C47.7357 10.1888 47.2893 10.334 46.9416 10.6244C46.6009 10.9148 46.4303 11.2923 46.4303 11.757V15.013C46.4303 15.1437 46.3941 15.2453 46.3216 15.3179C46.2488 15.3905 46.1476 15.4268 46.0171 15.4268C45.8862 15.4268 45.785 15.3905 45.7126 15.3179C45.6397 15.2453 45.6035 15.1437 45.6035 15.013V9.88396C45.6035 9.75325 45.6397 9.65164 45.7126 9.57904C45.785 9.50644 45.8862 9.47014 46.0171 9.47014C46.1476 9.47014 46.2488 9.50644 46.3216 9.57904C46.3941 9.65164 46.4303 9.75325 46.4303 9.88396V10.3631C46.6406 10.0582 46.9089 9.82223 47.2352 9.65526C47.5616 9.48829 47.9132 9.40479 48.2902 9.40479Z" fill="#2196F3"/>
<path d="M50.76 9.89558C50.76 9.77216 50.8002 9.67055 50.88 9.59066C50.9594 9.51082 51.0611 9.4709 51.1845 9.4709C51.3076 9.4709 51.4053 9.51082 51.4781 9.59066C51.5576 9.67055 51.5977 9.77216 51.5977 9.89558V15.0029C51.5977 15.1263 51.5576 15.228 51.4781 15.3078C51.4053 15.3877 51.3076 15.4276 51.1845 15.4276C51.0611 15.4276 50.9594 15.3877 50.88 15.3078C50.8002 15.228 50.76 15.1263 50.76 15.0029V9.89558ZM51.1845 7.15137C51.3438 7.15137 51.4816 7.20582 51.5977 7.31471C51.7137 7.42361 51.7718 7.56519 51.7718 7.7394C51.7718 7.90637 51.7137 8.04794 51.5977 8.16413C51.4816 8.28027 51.3403 8.33834 51.1736 8.33834C51.0065 8.33834 50.8652 8.28027 50.7491 8.16413C50.6405 8.04794 50.5859 7.90637 50.5859 7.7394C50.5859 7.56519 50.644 7.42361 50.76 7.31471C50.8761 7.20582 51.0174 7.15137 51.1845 7.15137Z" fill="#2196F3"/>
<path d="M58.1371 14.774C58.217 14.8757 58.2567 14.9737 58.2567 15.068C58.2567 15.1697 58.217 15.2568 58.1371 15.3294C58.0647 15.3947 57.9814 15.4274 57.8872 15.4274C57.7999 15.4274 57.7275 15.4129 57.6694 15.3839C57.6114 15.3548 57.5569 15.304 57.5063 15.2314L55.7223 12.9554L53.8733 15.2967C53.8083 15.3839 53.7101 15.4274 53.5797 15.4274C53.4636 15.4274 53.3694 15.3911 53.2969 15.3185C53.2315 15.2459 53.1992 15.1588 53.1992 15.0572C53.1992 14.941 53.2354 14.843 53.3079 14.7632L55.1896 12.4109L53.4056 10.1459C53.3332 10.066 53.2969 9.96799 53.2969 9.85185C53.2969 9.74295 53.3297 9.6522 53.3947 9.5796C53.4601 9.507 53.5544 9.4707 53.6778 9.4707C53.8009 9.4707 53.906 9.51424 53.9933 9.60137L55.7441 11.8555L57.4735 9.66673C57.5752 9.53606 57.6947 9.4707 57.8326 9.4707C57.9487 9.4707 58.0394 9.507 58.1044 9.5796C58.1768 9.6522 58.2131 9.73933 58.2131 9.84094C58.2131 9.94984 58.1734 10.0551 58.0935 10.1568L56.2881 12.4L58.1371 14.774Z" fill="#2196F3"/>
<path d="M10.2832 9.11811C10.2475 9.1301 10.21 9.13944 10.1752 9.15515C9.73695 9.33625 9.37374 9.66473 9.14674 10.0852C8.91974 10.5057 8.84278 10.9925 8.92886 11.4637C8.93981 11.5258 8.95085 11.5879 8.96638 11.6491C8.98196 11.7103 9.0012 11.7724 9.02227 11.8345C9.17183 12.25 9.44141 12.6102 9.79607 12.8683C9.82622 12.8887 9.85558 12.9091 9.88761 12.9286C9.95445 12.9705 10.0235 13.0085 10.0946 13.0426C10.144 13.0676 10.1944 13.0917 10.2466 13.1131C10.4914 13.2117 10.7523 13.263 11.0158 13.2642C11.0405 13.2642 11.0634 13.2577 11.0872 13.2567V13.2494C11.3655 13.2365 11.6393 13.1738 11.8958 13.0639C12.3726 12.8533 12.7556 12.4715 12.9709 11.992C13.1863 11.5126 13.2187 10.9693 13.062 10.4671C12.9052 9.96481 12.5705 9.53908 12.1221 9.27185C11.6739 9.00463 11.1437 8.91488 10.6339 9.01981C10.6037 9.02631 10.5744 9.03094 10.5423 9.03835C10.4544 9.05921 10.3678 9.08582 10.2832 9.11811Z" fill="#FFD833"/>
<mask id="mask0_3200_308368" style="mask-type:alpha" maskUnits="userSpaceOnUse" x="0" y="0" width="14" height="23">
<path d="M9.11354 9.01536C8.36936 7.82621 7.93591 6.59247 7.81318 5.31432C6.73083 4.42429 5.005 3.98729 2.63571 4.00336C2.57729 4.97532 2.72144 5.94886 3.05878 6.86074H3.03496C3.28063 7.44777 3.62311 7.98829 4.04776 8.45909C4.04842 8.46821 4.05088 8.47707 4.05496 8.48518C4.05904 8.4933 4.06469 8.50049 4.07156 8.50643C4.22151 8.67305 4.38713 8.82461 4.56605 8.95882C5.60817 9.76726 6.84287 10.2679 8.27015 10.4607C8.40182 9.9043 8.69566 9.40069 9.11354 9.01536Z" fill="url(#paint0_linear_3200_308368)"/>
<path d="M4.56671 14.6309H4.54284C3.8683 15.6637 3.43669 17.1412 3.24805 19.0634C4.28587 19.2222 5.24309 19.1747 6.11977 18.9206C6.87507 18.6916 7.57322 18.3015 8.16727 17.7766V17.7525L8.30832 17.6097H8.33398C9.27226 16.6047 9.89799 15.3543 10.2112 13.8586C9.7822 13.7291 9.38984 13.498 9.06651 13.1846C7.62767 14.1345 6.12771 14.6166 4.56671 14.6309Z" fill="url(#paint1_linear_3200_308368)"/>
<path d="M4.09511 9.55553C3.93887 9.42896 3.78969 9.29371 3.64824 9.15039C2.54937 9.452 1.33329 10.143 0 11.2234C0.544289 12.0323 1.2601 12.7079 2.09517 13.2009C2.78582 13.6004 3.55983 13.8291 4.35426 13.8685H4.56581C5.96992 13.8549 7.31295 13.4281 8.59499 12.5881C8.34949 12.1753 8.21206 11.7059 8.1957 11.2243C6.62615 11.0123 5.2593 10.4561 4.09511 9.55553Z" fill="url(#paint2_linear_3200_308368)"/>
<path d="M12.5093 8.70568C13.2511 7.54864 13.6705 6.35451 13.7675 5.12326V5.07601C13.7837 4.92571 13.7917 4.77471 13.7913 4.62358C13.7816 3.74346 13.5465 2.88097 13.1091 2.12033C12.6714 1.32795 12.0219 0.621172 11.1604 0H11.155C10.2918 0.618083 9.64063 1.32516 9.20172 2.12125C8.76434 2.8819 8.52932 3.74439 8.51954 4.62449C8.51919 4.77563 8.52718 4.92667 8.54332 5.07693V5.12418C8.63673 6.31154 9.03109 7.46457 9.72645 8.5833C10.1606 8.35577 10.6461 8.24744 11.1346 8.26908C11.623 8.29072 12.0973 8.44159 12.5102 8.70659L12.5093 8.70568Z" fill="url(#paint3_linear_3200_308368)"/>
<path d="M13.5082 17.1329V17.1088C13.3617 15.9381 12.9554 14.7901 12.2894 13.6646C11.8927 13.8708 11.4532 13.9783 11.0073 13.9779C10.989 13.9779 10.9707 13.9779 10.9524 13.9779C10.6093 15.6214 9.91581 16.9988 8.87186 18.1101C8.86863 18.1096 8.86532 18.1099 8.86226 18.111C8.85912 18.112 8.85629 18.1138 8.85402 18.1161C8.85171 18.1185 8.84996 18.1213 8.84891 18.1244C8.84787 18.1276 8.8476 18.1309 8.84804 18.1342C8.84852 18.1375 8.84822 18.1408 8.84717 18.1439C8.84616 18.1471 8.84438 18.15 8.84206 18.1523C8.83975 18.1546 8.83696 18.1563 8.83386 18.1574C8.83081 18.1585 8.82749 18.1587 8.82422 18.1583C9.0599 19.3815 9.78942 20.7413 11.0128 22.2376C11.7989 21.6692 12.4569 20.9382 12.9432 20.0932C13.288 19.4771 13.5043 18.7958 13.5786 18.0915C13.5493 18.0497 13.533 18 13.532 17.9487C13.5638 17.6771 13.5558 17.4022 13.5082 17.1329Z" fill="url(#paint4_linear_3200_308368)"/>
</mask>
<g mask="url(#mask0_3200_308368)">
<path d="M14.0492 0H0V22.2333H14.0492V0Z" fill="url(#paint5_radial_3200_308368)"/>
</g>
</g>
<defs>
<linearGradient id="paint0_linear_3200_308368" x1="2.71856" y1="4.08366" x2="8.16343" y2="9.52207" gradientUnits="userSpaceOnUse">
<stop stop-color="#FF4081"/>
<stop offset="1" stop-color="#FFA73F"/>
</linearGradient>
<linearGradient id="paint1_linear_3200_308368" x1="10.4246" y1="13.1584" x2="3.16654" y2="19.0485" gradientUnits="userSpaceOnUse">
<stop stop-color="#FFA73F"/>
<stop offset="1" stop-color="#FF4081"/>
</linearGradient>
<linearGradient id="paint2_linear_3200_308368" x1="8.61078" y1="12.4776" x2="-0.000349883" y2="11.3459" gradientUnits="userSpaceOnUse">
<stop stop-color="#FFA73F"/>
<stop offset="1" stop-color="#FF4081"/>
</linearGradient>
<linearGradient id="paint3_linear_3200_308368" x1="11.1554" y1="0" x2="11.1554" y2="8.70659" gradientUnits="userSpaceOnUse">
<stop stop-color="#FF4081"/>
<stop offset="1" stop-color="#FFA73F"/>
</linearGradient>
<linearGradient id="paint4_linear_3200_308368" x1="11.2014" y1="13.6646" x2="11.2014" y2="22.2376" gradientUnits="userSpaceOnUse">
<stop stop-color="#FFA73F"/>
<stop offset="1" stop-color="#FF4081"/>
</linearGradient>
<radialGradient id="paint5_radial_3200_308368" cx="0" cy="0" r="1" gradientUnits="userSpaceOnUse" gradientTransform="translate(10.4236 11.3435) rotate(-180) scale(15.4088 9.76006)">
<stop stop-color="#FFA73F"/>
<stop offset="0.756906" stop-color="#FF4081"/>
</radialGradient>
<clipPath id="clip0_3200_308368">
<rect width="58.4628" height="22.6871" fill="white"/>
</clipPath>
</defs>
</svg>
