<svg width="20" height="20" viewBox="0 0 20 20" fill="none" xmlns="http://www.w3.org/2000/svg">
<rect width="20" height="20" rx="10" fill="#FF8C00"/>
<path d="M14.0019 12.2438C13.9865 12.1119 13.9089 11.8095 13.7071 11.7319H13.7073C13.6063 11.6931 13.521 11.724 13.4824 11.7939C13.4202 11.9026 13.4667 12.1119 13.5832 12.2982C13.6994 12.4844 13.8081 12.5774 13.8857 12.5774C13.9634 12.5774 14.033 12.4844 14.0019 12.2438Z" fill="white"/>
<path d="M12.9161 12.7713C12.7919 12.6628 12.6523 12.6085 12.5281 12.6085C12.4196 12.6085 12.3343 12.6471 12.2798 12.717C12.1405 12.8875 12.2024 13.198 12.4196 13.3841C12.5127 13.4695 12.6523 13.516 12.7842 13.516C12.9161 13.516 13.0323 13.4618 13.1022 13.3764C13.2263 13.2057 13.1564 12.9731 12.9161 12.7713Z" fill="white"/>
<path d="M4.47656 9.51337C4.47656 12.461 6.86556 14.8502 9.81342 14.8502H9.81317C10.5967 14.8502 11.3723 14.7029 12.5127 14.695C13.5289 14.695 14.6459 15.0518 15.8714 16.1379C15.9955 16.2464 16.1583 16.1068 16.0498 15.9749C14.8475 14.4469 13.7305 14.16 12.6135 13.9116C11.2484 13.6091 10.5502 12.8489 10.0615 12.0034C9.96844 11.8327 9.92191 11.8638 9.91395 12.081C9.90516 12.4006 9.92858 12.7203 9.98387 13.0353H9.82113C7.87406 13.0353 6.29152 11.4527 6.29152 9.50566C6.29152 7.55858 7.87406 5.97604 9.82089 5.97604C11.768 5.97604 13.3505 7.55858 13.3505 9.50566C13.3505 9.64525 13.3425 9.78484 13.3271 9.91672C13.0634 9.87019 12.5592 9.86247 12.2024 9.89358C12.0705 9.90901 12.086 9.97097 12.187 9.98664C13.3505 10.2036 14.1495 10.9252 14.3356 12.236C14.3433 12.2671 14.3821 12.2749 14.3978 12.2517C14.8708 11.4527 15.15 10.5139 15.15 9.51337C15.15 6.566 12.7608 4.17676 9.81317 4.17676C6.8658 4.17676 4.47656 6.56576 4.47656 9.51337Z" fill="white"/>
</svg>
