<svg width="40" height="14" viewBox="0 0 40 14" fill="none" xmlns="http://www.w3.org/2000/svg">
<path fill-rule="evenodd" clip-rule="evenodd" d="M28.7321 3.36354C29.6389 3.36354 30.3739 2.61072 30.3739 1.6824C30.3739 0.753538 29.6389 0 28.7321 0C27.8264 0 27.0917 0.753538 27.0917 1.6824C27.0917 2.61072 27.8264 3.36354 28.7321 3.36354ZM16.1579 4.27143C16.0838 4.46212 15.5506 6.00553 14.261 7.60514V0.765467L10.825 1.46135V13.859H14.261V10.0268C15.2562 11.5563 15.7476 13.859 15.7476 13.859H19.8633C19.4562 12.1247 17.6754 8.92695 17.6754 8.92695C19.2736 6.85052 19.9757 4.63799 20.0873 4.27143H16.1579ZM25.1911 4.14202C22.1135 4.24323 20.5512 5.65813 20.5512 8.47075V13.859H23.9088V9.46504C23.9088 7.78083 24.124 7.05892 26.0743 6.99006V4.19136C25.746 4.11996 25.1911 4.14202 25.1911 4.14202ZM5.06235 5.63662C4.64149 5.60824 3.66712 5.54372 3.66712 4.64486C3.66712 3.56019 5.06994 3.56019 5.59611 3.56019C6.52126 3.56019 7.71947 3.84035 8.57513 4.10261C8.57513 4.10261 9.05244 4.27505 9.45866 4.45164L9.49641 4.46212V1.49153L9.44455 1.47581C8.43473 1.11377 7.26051 0.765467 5.08352 0.765467C1.32997 0.765467 0 3.0062 0 4.92574C0 6.03228 0.462844 8.63649 4.76161 8.93689C5.12603 8.95985 6.09317 9.01696 6.09317 9.94583C6.09317 10.7127 5.30136 11.165 3.96963 11.165C2.51019 11.165 1.09449 10.7836 0.234597 10.4219V13.4814C1.52188 13.8272 2.97303 14 4.67377 14C8.34389 14 9.98765 11.88 9.98765 9.77882C9.98765 7.39638 8.14827 5.84846 5.06235 5.63662ZM27.0677 13.859H30.3981V4.28228H27.0677V13.859ZM36.6691 1.37603V13.859H40V0.765467L36.6691 1.37603ZM31.8089 1.37603L35.1366 0.765467V13.859H31.8089V1.37603Z" fill="white"/>
</svg>
