<svg width="84" height="15" viewBox="0 0 84 15" fill="none" xmlns="http://www.w3.org/2000/svg">
<path d="M21.6656 14.7836H17.6152L20.1486 0.263184H24.1987L21.6656 14.7836Z" fill="white"/>
<path d="M36.3511 0.618191C35.5522 0.324391 34.2851 0 32.7183 0C28.7184 0 25.9018 1.97714 25.8845 4.80386C25.8513 6.88941 27.9011 8.04777 29.4343 8.74315C31.0013 9.45374 31.534 9.91753 31.534 10.5509C31.518 11.5237 30.2677 11.9721 29.1016 11.9721C27.4845 11.9721 26.618 11.7409 25.3013 11.1997L24.768 10.9677L24.2012 14.2272C25.1511 14.6284 26.9013 14.9844 28.7184 15C32.9683 15 35.7352 13.0534 35.7679 10.0411C35.7841 8.38817 34.7017 7.12161 32.3681 6.08664C30.9515 5.42226 30.0839 4.97427 30.0839 4.29448C30.1005 3.6765 30.8177 3.04353 32.4168 3.04353C33.7336 3.01252 34.701 3.30591 35.4339 3.59951L35.8003 3.75369L36.3511 0.618191Z" fill="white"/>
<path d="M41.7353 9.63952C42.0689 8.80534 43.3524 5.57683 43.3524 5.57683C43.3356 5.60783 43.6853 4.72725 43.8853 4.18667L44.1684 5.43784C44.1684 5.43784 44.9354 8.91354 45.1019 9.63952C44.4689 9.63952 42.5353 9.63952 41.7353 9.63952ZM46.735 0.263184H43.602C42.6359 0.263184 41.9019 0.525571 41.485 1.46795L35.4688 14.7834H39.7187C39.7187 14.7834 40.4183 12.9912 40.5687 12.6052C41.035 12.6052 45.1693 12.6052 45.769 12.6052C45.8853 13.115 46.2523 14.7834 46.2523 14.7834H50.0026L46.735 0.263184Z" fill="white"/>
<path d="M14.2343 0.263184L10.2677 10.1647L9.83425 8.15656C9.10091 5.83942 6.80098 3.3219 4.23438 2.07012L7.86766 14.7682H12.1508L18.5172 0.263184H14.2343Z" fill="white"/>
<path d="M6.58328 0.263184H0.0666676L0 0.556572C5.08337 1.76154 8.44998 4.66607 9.83318 8.15717L8.41654 1.48376C8.18331 0.556367 7.46658 0.293775 6.58328 0.263184Z" fill="#FAA61A"/>
<path d="M74.4096 13.3974H67.8477V1.60449H74.4096V13.3974Z" fill="#FF5F00"/>
<path d="M68.2695 7.5C68.2695 5.10776 69.3896 2.97682 71.1338 1.60357C69.8583 0.59937 68.2485 -5.36773e-07 66.499 -5.36773e-07C62.3573 -5.36773e-07 59 3.35781 59 7.5C59 11.6422 62.3573 15 66.499 15C68.2485 15 69.8583 14.4006 71.1338 13.3964C69.3896 12.0232 68.2695 9.89224 68.2695 7.5Z" fill="#EB001B"/>
<path d="M83.2593 7.5C83.2593 11.6422 79.9019 15 75.7602 15C74.0108 15 72.401 14.4006 71.125 13.3964C72.8697 12.0232 73.9898 9.89224 73.9898 7.5C73.9898 5.10776 72.8697 2.97682 71.125 1.60357C72.401 0.59937 74.0108 -5.36773e-07 75.7602 -5.36773e-07C79.9019 -5.36773e-07 83.2593 3.35781 83.2593 7.5Z" fill="#F79E1B"/>
</svg>
