<svg width="19" height="18" viewBox="0 0 19 18" fill="none" xmlns="http://www.w3.org/2000/svg">
<circle cx="9.5" cy="9" r="9" fill="url(#paint0_linear_3154_1884)"/>
<path d="M8.5 5C8.5 4.44772 8.94772 4 9.5 4V4C10.0523 4 10.5 4.44772 10.5 5V13C10.5 13.5523 10.0523 14 9.5 14V14C8.94772 14 8.5 13.5523 8.5 13V5Z" fill="white"/>
<path d="M5.5 10C4.94772 10 4.5 9.55228 4.5 9V9C4.5 8.44772 4.94772 8 5.5 8L13.5 8C14.0523 8 14.5 8.44772 14.5 9V9C14.5 9.55228 14.0523 10 13.5 10L5.5 10Z" fill="white"/>
<defs>
<linearGradient id="paint0_linear_3154_1884" x1="19.5823" y1="8.99999" x2="-2.17722" y2="8.99999" gradientUnits="userSpaceOnUse">
<stop stop-color="#2C50FF"/>
<stop offset="1" stop-color="#4785F6"/>
</linearGradient>
</defs>
</svg>
