<svg width="21" height="20" viewBox="0 0 21 20" fill="none" xmlns="http://www.w3.org/2000/svg">
<path d="M10.1766 0C11.7721 0 13.2901 0.363005 14.6522 1.01236C14.8659 1.10807 15.0809 1.22262 15.2938 1.33728L14.3598 2.1589L12.9596 0.726112L10.5468 2.82729L9.12602 1.31794L4.68934 5.23425L7.52985 8.30989L6.42095 9.26481L9.2234 12.3405L8.1144 13.295L12.1231 17.6697L14.4957 15.5301L16.5593 17.823C16.1503 18.1287 15.7028 18.435 15.2169 18.702C13.7378 19.5233 12.0251 20 10.1963 20C4.57217 20 6.44507e-05 15.5117 6.44507e-05 9.99141C-0.0197965 4.50843 4.55312 0 10.1766 0ZM8.30826 9.37967L10.7407 7.24001L12.9205 9.62782L10.4876 11.7673L8.30826 9.37967ZM10.0406 13.5061L12.4532 11.3474L14.6522 13.7351L12.2197 15.8748L10.0406 13.5061ZM6.57745 5.31092L9.00917 3.17125L11.1885 5.55906L8.75599 7.69863L6.57745 5.31092ZM11.0326 4.16436L12.8424 2.5598L14.4774 4.33645L12.6675 5.95997L11.0326 4.16436ZM14.2631 11.519L16.0723 9.91436L17.7072 11.7096L15.8973 13.3152L14.2631 11.519ZM15.8585 15.1299L17.6684 13.5249L19.302 15.3015L17.4928 16.9248L15.8585 15.1299ZM16.5981 6.877L17.8043 5.80712L18.8937 6.99195L17.6876 8.06144L16.5981 6.877ZM15.0413 3.34294L16.2477 2.25431L17.3378 3.45759L16.1306 4.52737L15.0413 3.34294ZM18.1351 10.4114L19.3414 9.34158L20.4505 10.526L19.225 11.5955L18.1351 10.4114ZM12.7063 7.75596L14.5162 6.15129L16.1503 7.92755L14.3412 9.53251L12.7063 7.75596Z" fill="#0096FF"/>
</svg>
