<svg width="25" height="18" viewBox="0 0 25 18" fill="none" xmlns="http://www.w3.org/2000/svg">
<path fill-rule="evenodd" clip-rule="evenodd" d="M15.7971 12.9966C17.7292 12.9966 19.2954 11.4304 19.2954 9.49831C19.2954 7.56625 17.7292 6 15.7971 6C13.8651 6 12.2988 7.56625 12.2988 9.49831C12.2988 11.4304 13.8651 12.9966 15.7971 12.9966ZM15.7971 17.9966C20.4906 17.9966 24.2954 14.1918 24.2954 9.49831C24.2954 4.80482 20.4906 1 15.7971 1C11.1037 1 7.29883 4.80482 7.29883 9.49831C7.29883 14.1918 11.1037 17.9966 15.7971 17.9966Z" fill="#8B3FFD"/>
<path d="M7.29883 3.6333H0L4.43215 15.5233H7.29883V3.6333Z" fill="#8B3FFD"/>
</svg>
