<svg width="34" height="34" viewBox="0 0 34 34" fill="none" xmlns="http://www.w3.org/2000/svg">
<circle cx="17" cy="17" r="17" fill="url(#paint0_linear_2931_271241)"/>
<mask id="mask0_2931_271241" style="mask-type:alpha" maskUnits="userSpaceOnUse" x="0" y="0" width="34" height="34">
<path d="M34 17C34 26.3888 26.3888 34 17 34C7.61116 34 0 26.3888 0 17C0 7.61116 7.61116 0 17 0C26.3888 0 34 7.61116 34 17Z" fill="white"/>
</mask>
<g mask="url(#mask0_2931_271241)">
<circle cx="17" cy="17" r="12" fill="#FF7D7D"/>
<circle cx="17" cy="17" r="11.5" stroke="white" stroke-opacity="0.2"/>
<path d="M20 2C20 3.10457 19.1046 4 18 4L17 4L16 4C14.8954 4 14 3.10457 14 2L14 1C14 -0.10457 14.8954 -1 16 -1L18 -1C19.1046 -1 20 -0.10457 20 0.999999L20 2Z" fill="white" fill-opacity="0.37"/>
<path d="M20 33C20 34.1046 19.1046 35 18 35L17 35L16 35C14.8954 35 14 34.1046 14 33L14 32C14 30.8954 14.8954 30 16 30L18 30C19.1046 30 20 30.8954 20 32L20 33Z" fill="white" fill-opacity="0.37"/>
<path d="M2 14C3.10457 14 4 14.8954 4 16L4 17L4 18C4 19.1046 3.10457 20 2 20L1 20C-0.104569 20 -1 19.1046 -1 18L-1 16C-1 14.8954 -0.10457 14 0.999999 14L2 14Z" fill="white" fill-opacity="0.37"/>
<path d="M33 14C34.1046 14 35 14.8954 35 16L35 17L35 18C35 19.1046 34.1046 20 33 20L32 20C30.8954 20 30 19.1046 30 18L30 16C30 14.8954 30.8954 14 32 14L33 14Z" fill="white" fill-opacity="0.37"/>
<path d="M8.51632 4.27413C9.29609 5.0539 9.29609 6.31817 8.51632 7.09794L7.8069 7.80736L7.09749 8.51677C6.31771 9.29654 5.05345 9.29654 4.27368 8.51677L3.56196 7.80505C2.78218 7.02527 2.78218 5.76101 3.56195 4.98124L4.98078 3.56241C5.76056 2.78263 7.02482 2.78263 7.80459 3.56241L8.51632 4.27413Z" fill="white" fill-opacity="0.37"/>
<path d="M30.4362 26.1945C31.216 26.9743 31.216 28.2386 30.4362 29.0184L29.7268 29.7278L29.0174 30.4372C28.2376 31.217 26.9734 31.217 26.1936 30.4372L25.4819 29.7255C24.7021 28.9457 24.7021 27.6814 25.4819 26.9016L26.9007 25.4828C27.6805 24.703 28.9447 24.703 29.7245 25.4828L30.4362 26.1945Z" fill="white" fill-opacity="0.37"/>
<path d="M4.27364 25.4832C5.05341 24.7034 6.31768 24.7034 7.09745 25.4832L7.80687 26.1926L8.51628 26.902C9.29605 27.6818 9.29606 28.9461 8.51628 29.7258L7.80456 30.4376C7.02479 31.2173 5.76052 31.2173 4.98075 30.4376L3.56192 29.0187C2.78215 28.239 2.78215 26.9747 3.56192 26.1949L4.27364 25.4832Z" fill="white" fill-opacity="0.37"/>
<path d="M26.194 3.56279C26.9738 2.78301 28.2381 2.78301 29.0179 3.56279L29.7273 4.2722L30.4367 4.98161C31.2165 5.76139 31.2165 7.02565 30.4367 7.80543L29.725 8.51715C28.9452 9.29692 27.6809 9.29692 26.9012 8.51715L25.4823 7.09832C24.7026 6.31855 24.7026 5.05428 25.4823 4.27451L26.194 3.56279Z" fill="white" fill-opacity="0.37"/>
</g>
<circle cx="17" cy="17" r="16.5" stroke="white" stroke-opacity="0.21"/>
<defs>
<linearGradient id="paint0_linear_2931_271241" x1="17" y1="0" x2="4" y2="34" gradientUnits="userSpaceOnUse">
<stop stop-color="#FB5B64"/>
<stop offset="1" stop-color="#AE000A"/>
</linearGradient>
</defs>
</svg>
