<svg width="34" height="34" viewBox="0 0 34 34" fill="none" xmlns="http://www.w3.org/2000/svg">
<circle cx="17" cy="17" r="17" fill="url(#paint0_linear_2931_271238)"/>
<mask id="mask0_2931_271238" style="mask-type:alpha" maskUnits="userSpaceOnUse" x="0" y="0" width="34" height="34">
<path d="M34 17C34 26.3888 26.3888 34 17 34C7.61116 34 0 26.3888 0 17C0 7.61116 7.61116 0 17 0C26.3888 0 34 7.61116 34 17Z" fill="white"/>
</mask>
<g mask="url(#mask0_2931_271238)">
<circle cx="17" cy="17" r="12" fill="#FFB444"/>
<circle cx="17" cy="17" r="11.5" stroke="white" stroke-opacity="0.45"/>
<path d="M20 2C20 3.10457 19.1046 4 18 4L17 4L16 4C14.8954 4 14 3.10457 14 2L14 1C14 -0.10457 14.8954 -1 16 -1L18 -1C19.1046 -1 20 -0.10457 20 0.999999L20 2Z" fill="white" fill-opacity="0.45"/>
<path d="M20 33C20 34.1046 19.1046 35 18 35L17 35L16 35C14.8954 35 14 34.1046 14 33L14 32C14 30.8954 14.8954 30 16 30L18 30C19.1046 30 20 30.8954 20 32L20 33Z" fill="white" fill-opacity="0.45"/>
<path d="M2 14C3.10457 14 4 14.8954 4 16L4 17L4 18C4 19.1046 3.10457 20 2 20L1 20C-0.104569 20 -1 19.1046 -1 18L-1 16C-1 14.8954 -0.10457 14 0.999999 14L2 14Z" fill="white" fill-opacity="0.45"/>
<path d="M33 14C34.1046 14 35 14.8954 35 16L35 17L35 18C35 19.1046 34.1046 20 33 20L32 20C30.8954 20 30 19.1046 30 18L30 16C30 14.8954 30.8954 14 32 14L33 14Z" fill="white" fill-opacity="0.45"/>
<path d="M8.51583 4.27462C9.2956 5.05439 9.2956 6.31866 8.51583 7.09843L7.80641 7.80784L7.097 8.51726C6.31723 9.29703 5.05296 9.29703 4.27319 8.51726L3.56147 7.80554C2.78169 7.02576 2.78169 5.7615 3.56147 4.98172L4.9803 3.56289C5.76007 2.78312 7.02433 2.78312 7.80411 3.5629L8.51583 4.27462Z" fill="white" fill-opacity="0.45"/>
<path d="M30.4357 26.1945C31.2155 26.9743 31.2155 28.2386 30.4357 29.0184L29.7263 29.7278L29.0169 30.4372C28.2371 31.217 26.9729 31.217 26.1931 30.4372L25.4814 29.7255C24.7016 28.9457 24.7016 27.6814 25.4814 26.9016L26.9002 25.4828C27.68 24.703 28.9443 24.703 29.724 25.4828L30.4357 26.1945Z" fill="white" fill-opacity="0.45"/>
<path d="M4.27364 25.4832C5.05341 24.7034 6.31768 24.7034 7.09745 25.4832L7.80687 26.1926L8.51628 26.902C9.29606 27.6818 9.29606 28.9461 8.51628 29.7258L7.80456 30.4376C7.02479 31.2173 5.76052 31.2173 4.98075 30.4376L3.56192 29.0187C2.78214 28.239 2.78215 26.9747 3.56192 26.1949L4.27364 25.4832Z" fill="white" fill-opacity="0.45"/>
<path d="M26.1936 3.56279C26.9733 2.78301 28.2376 2.78301 29.0174 3.56279L29.7268 4.2722L30.4362 4.98161C31.216 5.76139 31.216 7.02565 30.4362 7.80543L29.7245 8.51715C28.9447 9.29692 27.6804 9.29692 26.9007 8.51715L25.4818 7.09832C24.7021 6.31855 24.7021 5.05428 25.4818 4.27451L26.1936 3.56279Z" fill="white" fill-opacity="0.45"/>
</g>
<circle cx="17" cy="17" r="16.5" stroke="white" stroke-opacity="0.21"/>
<defs>
<linearGradient id="paint0_linear_2931_271238" x1="17" y1="0" x2="3.5" y2="34" gradientUnits="userSpaceOnUse">
<stop stop-color="#FF800C"/>
<stop offset="1" stop-color="#994D07"/>
</linearGradient>
</defs>
</svg>
